<svg xmlns="http://www.w3.org/2000/svg" viewBox="0 0 60.58 60.58"><defs><style>.cls-1{fill:#fff;fill-rule:evenodd;}</style></defs><g id="Layer_2" data-name="Layer 2"><g id="banner2"><path class="cls-1" d="M60.58,30.29A30.29,30.29,0,1,1,30.29,0,30.29,30.29,0,0,1,60.58,30.29ZM21.71,42.34H15.83a4.87,4.87,0,0,1-2.22-.23,1.53,1.53,0,0,1-.68-1.17c0-.44.29-1,.9-2L28.34,13.31c.62-1.09.93-1.63,1.33-1.83a1.46,1.46,0,0,1,1.35,0c.39.2.71.74,1.32,1.83l3,5.21v0a9.93,9.93,0,0,1,1.16,2.38,4.52,4.52,0,0,1,0,2.07,10.15,10.15,0,0,1-1.16,2.4L27.71,38.87l0,0a9.59,9.59,0,0,1-1.48,2.22,4.47,4.47,0,0,1-1.81,1.05A10.69,10.69,0,0,1,21.71,42.34Zm14.84,0H45a4.76,4.76,0,0,0,2.24-.24,1.46,1.46,0,0,0,.68-1.18c0-.42-.28-.94-.86-2l-.06-.1-4.22-7.22,0-.08c-.59-1-.89-1.51-1.27-1.71a1.53,1.53,0,0,0-1.35,0c-.39.21-.7.73-1.32,1.8l-4.2,7.22,0,0c-.61,1.06-.92,1.59-.9,2a1.53,1.53,0,0,0,.68,1.18A4.89,4.89,0,0,0,36.55,42.34Z"/></g></g></svg>