<svg xmlns="http://www.w3.org/2000/svg" viewBox="0 0 57 52.92"><defs><style>.cls-1{fill:#d47b35;stroke:#d47b35;}.cls-1,.cls-10,.cls-2,.cls-3,.cls-4,.cls-5,.cls-6,.cls-7,.cls-8,.cls-9{stroke-linecap:round;stroke-linejoin:round;}.cls-2{fill:#d57b36;stroke:#d57b36;}.cls-3{fill:#d3c1b4;stroke:#d3c1b4;}.cls-4{fill:#263445;stroke:#263445;}.cls-5{fill:#bf662d;stroke:#bf662d;}.cls-6{fill:#d57a37;stroke:#d57a37;}.cls-7{fill:#e7893a;stroke:#e7893a;}.cls-8{fill:#bcac9f;stroke:#bcac9f;}.cls-9{fill:#161616;stroke:#161616;}.cls-10{fill:#6f3f1f;stroke:#6f3f1f;}</style></defs><g id="Layer_2" data-name="Layer 2"><g id="banner2"><polygon class="cls-1" points="53.71 0.5 31.86 16.73 35.9 7.15 53.71 0.5"/><polygon class="cls-2" points="3.27 0.5 24.94 16.88 21.1 7.15 3.27 0.5"/><polygon class="cls-2" points="45.85 38.12 40.03 47.03 52.48 50.46 56.06 38.32 45.85 38.12"/><polygon class="cls-2" points="0.96 38.32 4.52 50.46 16.97 47.03 11.15 38.12 0.96 38.32"/><polygon class="cls-2" points="16.27 23.05 12.8 28.3 25.16 28.85 24.72 15.56 16.27 23.05"/><polygon class="cls-2" points="40.71 23.05 32.15 15.41 31.86 28.85 44.2 28.3 40.71 23.05"/><polygon class="cls-2" points="16.97 47.03 24.39 43.41 17.98 38.4 16.97 47.03"/><polygon class="cls-2" points="32.59 43.41 40.03 47.03 39 38.4 32.59 43.41"/><polygon class="cls-3" points="40.03 47.03 32.59 43.41 33.18 48.27 33.11 50.31 40.03 47.03"/><polygon class="cls-3" points="16.97 47.03 23.89 50.31 23.84 48.27 24.39 43.41 16.97 47.03"/><polygon class="cls-4" points="24 35.2 17.8 33.38 22.18 31.38 24 35.2"/><polygon class="cls-4" points="32.98 35.2 34.8 31.38 39.2 33.38 32.98 35.2"/><polygon class="cls-5" points="16.97 47.03 18.02 38.12 11.15 38.32 16.97 47.03"/><polygon class="cls-5" points="38.98 38.12 40.03 47.03 45.85 38.32 38.98 38.12"/><polygon class="cls-5" points="44.2 28.3 31.86 28.85 33 35.2 34.83 31.38 39.22 33.38 44.2 28.3"/><polygon class="cls-5" points="17.8 33.38 22.2 31.38 24 35.2 25.16 28.85 12.8 28.3 17.8 33.38"/><polygon class="cls-6" points="12.8 28.3 17.98 38.4 17.8 33.38 12.8 28.3"/><polygon class="cls-6" points="39.22 33.38 39 38.4 44.2 28.3 39.22 33.38"/><polygon class="cls-6" points="25.16 28.85 24 35.2 25.45 42.69 25.78 32.83 25.16 28.85"/><polygon class="cls-6" points="31.86 28.85 31.27 32.8 31.53 42.69 33 35.2 31.86 28.85"/><polygon class="cls-7" points="33 35.2 31.53 42.69 32.59 43.41 39 38.4 39.22 33.38 33 35.2"/><polygon class="cls-7" points="17.8 33.38 17.98 38.4 24.39 43.41 25.45 42.69 24 35.2 17.8 33.38"/><polygon class="cls-8" points="33.11 50.31 33.18 48.27 32.63 47.78 24.35 47.78 23.84 48.27 23.89 50.31 16.97 47.03 19.39 49.01 24.28 52.41 32.7 52.41 37.61 49.01 40.03 47.03 33.11 50.31"/><polygon class="cls-9" points="32.59 43.41 31.53 42.69 25.45 42.69 24.39 43.41 23.84 48.27 24.35 47.78 32.63 47.78 33.18 48.27 32.59 43.41"/><polygon class="cls-10" points="54.63 17.78 56.5 8.82 53.71 0.5 32.59 16.18 40.71 23.05 52.2 26.41 54.74 23.45 53.65 22.66 55.4 21.05 54.04 20 55.8 18.66 54.63 17.78"/><polygon class="cls-10" points="0.5 8.82 2.37 17.78 1.18 18.66 2.94 20 1.6 21.05 3.35 22.66 2.26 23.45 4.78 26.41 16.27 23.05 24.39 16.18 3.27 0.5 0.5 8.82"/><polygon class="cls-7" points="52.2 26.41 40.71 23.05 44.2 28.3 39 38.4 45.85 38.32 56.06 38.32 52.2 26.41"/><polygon class="cls-7" points="16.27 23.05 4.78 26.41 0.96 38.32 11.15 38.32 17.98 38.4 12.8 28.3 16.27 23.05"/><polygon class="cls-7" points="31.86 28.85 32.59 16.18 35.92 7.15 21.1 7.15 24.39 16.18 25.16 28.85 25.43 32.85 25.45 42.69 31.53 42.69 31.57 32.85 31.86 28.85"/></g></g></svg>