<svg width="21" height="22" viewBox="0 0 21 22" fill="none" xmlns="http://www.w3.org/2000/svg">
<path d="M6.125 3.125H5.25C4.28312 3.125 3.5 3.90812 3.5 4.875V17.125C3.5 18.0919 4.28312 18.875 5.25 18.875H15.75C16.7169 18.875 17.5 18.0919 17.5 17.125V7.3495C17.5 6.88575 17.3154 6.44038 16.9872 6.11225L14.5127 3.63775C14.1846 3.30963 13.7392 3.125 13.2755 3.125H9.625" stroke="#9A70D3" stroke-width="1.5" stroke-linecap="round" stroke-linejoin="round"/>
<path d="M17.5 7.5H14C13.517 7.5 13.125 7.108 13.125 6.625V3.125" stroke="#9A70D3" stroke-width="1.5" stroke-linecap="round" stroke-linejoin="round"/>
<path fill-rule="evenodd" clip-rule="evenodd" d="M8.75 2.25H7C6.517 2.25 6.125 2.642 6.125 3.125V7.5L7.875 6.625L9.625 7.5V3.125C9.625 2.642 9.233 2.25 8.75 2.25Z" stroke="#9A70D3" stroke-width="1.5" stroke-linecap="round" stroke-linejoin="round"/>
<path d="M6.125 11H14" stroke="#9A70D3" stroke-width="1.5" stroke-linecap="round" stroke-linejoin="round"/>
<path d="M6.125 14.0625H14" stroke="#9A70D3" stroke-width="1.5" stroke-linecap="round" stroke-linejoin="round"/>
</svg>
