<svg width="16" height="16" viewBox="0 0 16 16" fill="none" xmlns="http://www.w3.org/2000/svg">
<path fill-rule="evenodd" clip-rule="evenodd" d="M5.00781 0.00372314C2.24639 0.00372314 0.0078125 2.2423 0.0078125 5.00373V10.9962C0.0078125 13.7576 2.24639 15.9962 5.00781 15.9962H11.0003C13.7617 15.9962 16.0003 13.7576 16.0003 10.9962V5.00372C16.0003 2.2423 13.7617 0.00372314 11.0003 0.00372314H5.00781ZM11.0991 9.8658L10.6026 9.22574C10.0431 8.50436 10.0431 7.49566 10.6026 6.77428L11.0991 6.13422C11.2523 5.93614 11.3355 5.69278 11.3356 5.44232V4.12183C11.3352 3.81042 11.0829 3.55809 10.7714 3.55765H5.23626C4.92486 3.55809 4.67252 3.81042 4.67208 4.12183V5.46342C4.67227 5.70075 4.74727 5.93198 4.88643 6.12422L5.39479 6.82645C5.90128 7.52608 5.90141 8.47182 5.39512 9.1716L4.88643 9.87469C4.74726 10.0673 4.67226 10.2989 4.67208 10.5366V11.8782C4.67252 12.1896 4.92486 12.4419 5.23626 12.4424H10.7714C11.0829 12.4419 11.3352 12.1896 11.3356 11.8782V10.5566C11.3359 10.3064 11.2526 10.0633 11.0991 9.8658Z" fill="#1D5AD0"/>
</svg>
