<svg width="15" height="18" viewBox="0 0 15 18" fill="none" xmlns="http://www.w3.org/2000/svg">
<path d="M13.734 9.29168C12.4257 5.89168 7.76732 5.70835 8.89232 0.766682C8.97565 0.400015 8.58398 0.116682 8.26732 0.308349C5.24232 2.09168 3.06732 5.66668 4.89232 10.35C5.04232 10.7333 4.59232 11.0917 4.26732 10.8417C2.75898 9.70002 2.60065 8.05835 2.73398 6.88335C2.78398 6.45002 2.21732 6.24168 1.97565 6.60001C1.40898 7.46668 0.833984 8.86668 0.833984 10.975C1.15065 15.6417 5.09232 17.075 6.50898 17.2583C8.53398 17.5167 10.7257 17.1417 12.3007 15.7C14.034 14.0917 14.6673 11.525 13.734 9.29168ZM6.00065 13.4833C7.20065 13.1917 7.81732 12.325 7.98398 11.5583C8.25898 10.3667 7.18398 9.20001 7.90898 7.31668C8.18398 8.87501 10.634 9.85002 10.634 11.55C10.7007 13.6583 8.41732 15.4667 6.00065 13.4833Z" fill="#7405AA"/>
</svg>
