<?xml version="1.0" encoding="utf-8"?>
<!-- Generator: Adobe Illustrator 25.2.1, SVG Export Plug-In . SVG Version: 6.00 Build 0)  -->
<svg version="1.1" id="Layer_1" xmlns="http://www.w3.org/2000/svg" xmlns:xlink="http://www.w3.org/1999/xlink" x="0px" y="0px"
	 viewBox="0 0 215 47" style="enable-background:new 0 0 215 47;" xml:space="preserve">
<style type="text/css">
	.st0{fill:#98CB9F;}
	.st1{fill:#6BC2C6;}
	.st2{fill:url(#SVGID_1_);}
	.st3{fill:#666699;}
	.st4{fill:#333366;}
	.st5{fill:#004841;}
	.st6{fill:#BEE0DA;}
	.st7{fill:url(#SVGID_2_);}
	.st8{fill:url(#SVGID_3_);}
	.st9{fill:url(#SVGID_4_);}
	.st10{fill:url(#SVGID_5_);}
	.st11{fill:url(#SVGID_6_);}
	.st12{fill:url(#SVGID_7_);}
	.st13{fill:url(#SVGID_8_);}
	.st14{fill:url(#SVGID_9_);}
	.st15{fill:#001912;}
	.st16{fill:url(#SVGID_10_);}
	.st17{fill:url(#SVGID_11_);}
	.st18{fill:#5BC4F1;}
</style>
<path class="st0" d="M21.8,37.8c0,0-5.8,2.6-11.7-1.4c-5.9-4-6.5-12.3-6.5-12.3s-4.9,0.5-3.3,6.1c0.6,2.3,2.9,5.3,6,7.7
	c4.7,3.6,11.3,5.5,17.2,0.6L21.8,37.8z"/>
<path class="st1" d="M21.8,37.8l1.7,0.7c-1.5,1.2-3,2-4.6,2.5c-0.7-0.7-1.5-1.5-2.1-2.4C19.7,38.7,21.8,37.8,21.8,37.8z"/>
<linearGradient id="SVGID_1_" gradientUnits="userSpaceOnUse" x1="9.871" y1="13.746" x2="5.3837" y2="9.1161" gradientTransform="matrix(1 0 0 -1 0 47)">
	<stop  offset="0" style="stop-color:#DEFFF9"/>
	<stop  offset="1" style="stop-color:#57988C"/>
</linearGradient>
<path class="st2" d="M0.3,30.2c-1.6-5.6,3.3-6.1,3.3-6.1s0.6,8.3,6.5,12.3c2.3,1.6,4.7,2.1,6.6,2.2c0.7,0.9,1.4,1.6,2.1,2.4
	c-4.5,1.3-9.1-0.4-12.6-3.1C3.2,35.5,1,32.5,0.3,30.2z"/>
<path class="st3" d="M0.8,28.6c0,0-0.1-1.6,1.5-2.9c0.1-0.1,0.2-0.1,0.2-0.2C4.4,24.2-0.3,26.2,0.8,28.6z"/>
<path class="st3" d="M7.5,36.5l-0.9-0.7l1.5-1.2c0.1,0.1,0.2,0.3,0.4,0.4l-1.1,0.9l0.8,0.6l-1.4,1.7c-0.2-0.1-0.4-0.3-0.6-0.5
	L7.5,36.5z"/>
<path class="st4" d="M26.3,40.8l-1.2,5.3h4.4v-4.5C29.5,41.7,28.1,40.1,26.3,40.8z"/>
<path class="st4" d="M37.5,41.2l1.2,5.3h-4.4v-4.5C34.3,42.1,35.7,40.6,37.5,41.2z"/>
<path class="st5" d="M27,38.6c1.9-1,3.3,1.2,3.3,1.2v3.8c-1.3-0.2-2.7-0.4-4-0.7L27,38.6z"/>
<path class="st6" d="M40.3,39.4l1.2,7.6H37v-6.4C37,40.6,38.4,38.5,40.3,39.4z"/>
<path class="st1" d="M40.3,39.4c-1.9-1-3.3,1.2-3.3,1.2v3.8c1.3-0.2,2.7-0.4,4-0.7L40.3,39.4z"/>
<path class="st3" d="M23.6,39.4L22.3,47h4.5v-6.4C26.9,40.6,25.5,38.5,23.6,39.4z"/>
<path class="st4" d="M23.6,39.4c1.9-1,3.3,1.2,3.3,1.2v3.8c-1.3-0.2-2.7-0.4-4-0.7L23.6,39.4z"/>
<radialGradient id="SVGID_2_" cx="-530.9102" cy="296.456" r="1" gradientTransform="matrix(-0.7728 -9.0802 -7.1568 0.6091 1731.116 -4995.7207)" gradientUnits="userSpaceOnUse">
	<stop  offset="0.398" style="stop-color:#543B64"/>
	<stop  offset="1" style="stop-color:#543B64;stop-opacity:0"/>
</radialGradient>
<path class="st7" d="M23.2,3.9c-0.2,0.1-3.4-5-4.8-3.4C17,2.2,16.3,9,16.3,9L23.2,3.9z"/>
<radialGradient id="SVGID_3_" cx="-577.5418" cy="185.2135" r="1" gradientTransform="matrix(2.247668e-16 -3.6707 -2.7989 -1.713801e-16 538.4777 -2113.4014)" gradientUnits="userSpaceOnUse">
	<stop  offset="0" style="stop-color:#DEFFF9"/>
	<stop  offset="1" style="stop-color:#57988C"/>
</radialGradient>
<path class="st8" d="M22.4,5.4c-0.1,0.1-2.1-3.2-3-2.2c-0.9,1-1.3,5.4-1.3,5.4L22.4,5.4z"/>
<radialGradient id="SVGID_4_" cx="-448.2937" cy="441.9007" r="1" gradientTransform="matrix(0.3864 7.7278 5.8728 -0.2936 -2375.4104 3594.708)" gradientUnits="userSpaceOnUse">
	<stop  offset="0" style="stop-color:#DEFFF9"/>
	<stop  offset="1" style="stop-color:#57988C"/>
</radialGradient>
<path class="st9" d="M42.3,4.5c0.2,0.1,3.4-5,4.8-3.4c1.4,1.6,2.1,8.4,2.1,8.4L42.3,4.5z"/>
<radialGradient id="SVGID_5_" cx="-452.6216" cy="520.9341" r="1" gradientTransform="matrix(-1.1592 4.2503 3.3617 0.9168 -2229.7009 1450.4617)" gradientUnits="userSpaceOnUse">
	<stop  offset="0.398" style="stop-color:#543B64"/>
	<stop  offset="1" style="stop-color:#71468C"/>
</radialGradient>
<path class="st10" d="M43.2,5.9c0.1,0,2.1-3.2,3-2.2c0.9,1,1.3,5.4,1.3,5.4L43.2,5.9z"/>
<radialGradient id="SVGID_6_" cx="-483.4981" cy="399.5691" r="1" gradientTransform="matrix(-4.2503 27.2406 13.6932 2.1365 -7499.5586 12325.0332)" gradientUnits="userSpaceOnUse">
	<stop  offset="0" style="stop-color:#DEFFF9"/>
	<stop  offset="1" style="stop-color:#57988C"/>
</radialGradient>
<path class="st11" d="M32.5,1.6C20.6,1.6,11,11.1,11,22.9c0,11.8,9.6,21.4,21.5,21.4V1.6z"/>
<linearGradient id="SVGID_7_" gradientUnits="userSpaceOnUse" x1="23.1581" y1="17.6264" x2="20.458" y2="5.7981" gradientTransform="matrix(1 0 0 -1 0 47)">
	<stop  offset="0.3594" style="stop-color:#6BC2C6"/>
	<stop  offset="1" style="stop-color:#398084"/>
</linearGradient>
<path class="st12" d="M25.9,33.1c-5.4-0.9-10.7-3.3-14.7-7c0,0.1,0.1,0.3,0.1,0.4c0,0.2,0.1,0.4,0.1,0.5c0,0.2,0.1,0.3,0.1,0.5
	c0.1,0.2,0.1,0.3,0.1,0.5c0.1,0.2,0.1,0.3,0.1,0.5c0.1,0.2,0.1,0.3,0.2,0.5c0.1,0.1,0.1,0.3,0.2,0.5c0.1,0.1,0.1,0.3,0.2,0.5
	c0.1,0.1,0.1,0.3,0.2,0.5c0.1,0.1,0.1,0.3,0.2,0.5c0.1,0.1,0.1,0.3,0.2,0.4c0.1,0.1,0.1,0.3,0.2,0.4c0.1,0.1,0.2,0.3,0.2,0.4
	c0.1,0.1,0.2,0.3,0.2,0.4c0.1,0.1,0.2,0.3,0.2,0.4c0.1,0.1,0.2,0.3,0.3,0.4c0.1,0.1,0.2,0.3,0.2,0.4c0.1,0.2,0.2,0.3,0.3,0.5
	c0.1,0.1,0.2,0.2,0.2,0.3c0.2,0.3,0.4,0.5,0.6,0.8c0.1,0.1,0.2,0.2,0.3,0.3c0.1,0.1,0.2,0.3,0.4,0.4c0.1,0.1,0.2,0.2,0.3,0.3
	c0.1,0.1,0.2,0.3,0.4,0.4c0.1,0.1,0.2,0.2,0.3,0.3c0.1,0.1,0.3,0.2,0.4,0.4c0.1,0.1,0.2,0.2,0.3,0.3c0.1,0.1,0.3,0.2,0.4,0.4
	c0.1,0.1,0.2,0.2,0.4,0.3c0.1,0.1,0.3,0.2,0.4,0.3c0.1,0.1,0.2,0.2,0.4,0.3c0.2,0.1,0.3,0.2,0.4,0.3c0.1,0.1,0.2,0.2,0.4,0.3
	c0.2,0.1,0.3,0.2,0.5,0.3c0.1,0.1,0.2,0.2,0.4,0.2c0.2,0.1,0.4,0.2,0.5,0.3c0.1,0.1,0.2,0.1,0.3,0.2c0.2,0.1,0.5,0.3,0.7,0.4
	c0.1,0,0.1,0.1,0.2,0.1c0.3,0.1,0.6,0.3,0.9,0.4c0.1,0,0.2,0.1,0.3,0.1c0.2,0.1,0.4,0.2,0.6,0.3c0.1,0,0.3,0.1,0.4,0.1
	c0.2,0.1,0.4,0.1,0.6,0.2c0.1,0,0.3,0.1,0.4,0.1c0.2,0.1,0.4,0.1,0.6,0.2c0.2,0,0.3,0.1,0.4,0.1c0.2,0,0.4,0.1,0.6,0.1
	c0.2,0,0.3,0.1,0.4,0.1c0.2,0,0.4,0.1,0.6,0.1c0.2,0,0.3,0,0.4,0.1c0.2,0,0.4,0.1,0.6,0.1c0.2,0,0.3,0,0.4,0.1c0.2,0,0.4,0,0.6,0.1
	c0.1,0,0.3,0,0.4,0c0.2,0,0.5,0,0.7,0c0.1,0,0.2,0,0.4,0c0.4,0,0.7,0,1.1,0V33.7C30.3,33.9,28.1,33.5,25.9,33.1z"/>
<radialGradient id="SVGID_8_" cx="-482.4973" cy="389.1952" r="1" gradientTransform="matrix(0.7728 34.1957 17.1893 -0.3885 -6277.5264 16658.6406)" gradientUnits="userSpaceOnUse">
	<stop  offset="0" style="stop-color:#7F86BE"/>
	<stop  offset="1" style="stop-color:#1A1F45"/>
</radialGradient>
<path class="st13" d="M32.4,1.6c11.9,0,21.5,9.6,21.5,21.4c0,11.8-9.6,21.4-21.5,21.4V1.6z"/>
<radialGradient id="SVGID_9_" cx="-470.9252" cy="385.2456" r="1" gradientTransform="matrix(1.1691 16.4732 19.2761 -1.368 -6838.979 8316.9424)" gradientUnits="userSpaceOnUse">
	<stop  offset="0.398" style="stop-color:#836298"/>
	<stop  offset="1" style="stop-color:#270E36"/>
</radialGradient>
<path class="st14" d="M39,33.1c5.4-0.9,10.7-3.3,14.7-7c0,0.1-0.1,0.3-0.1,0.4c0,0.2-0.1,0.4-0.1,0.5c0,0.2-0.1,0.3-0.1,0.5
	c-0.1,0.2-0.1,0.3-0.1,0.5c-0.1,0.2-0.1,0.3-0.1,0.5c-0.1,0.2-0.1,0.3-0.2,0.5c-0.1,0.1-0.1,0.3-0.2,0.5c-0.1,0.1-0.1,0.3-0.2,0.5
	c-0.1,0.1-0.1,0.3-0.2,0.5c-0.1,0.1-0.1,0.3-0.2,0.5c-0.1,0.1-0.1,0.3-0.2,0.4c-0.1,0.1-0.1,0.3-0.2,0.4c-0.1,0.1-0.2,0.3-0.2,0.4
	c-0.1,0.1-0.2,0.3-0.2,0.4c-0.1,0.1-0.2,0.3-0.2,0.4c-0.1,0.1-0.2,0.3-0.3,0.4c-0.1,0.1-0.2,0.3-0.2,0.4c-0.1,0.2-0.2,0.3-0.3,0.5
	c-0.1,0.1-0.2,0.2-0.2,0.3c-0.2,0.3-0.4,0.5-0.6,0.8c-0.1,0.1-0.2,0.2-0.3,0.3c-0.1,0.1-0.2,0.3-0.4,0.4c-0.1,0.1-0.2,0.2-0.3,0.3
	c-0.1,0.1-0.2,0.3-0.4,0.4c-0.1,0.1-0.2,0.2-0.3,0.3c-0.1,0.1-0.3,0.2-0.4,0.4c-0.1,0.1-0.2,0.2-0.3,0.3c-0.1,0.1-0.3,0.2-0.4,0.4
	c-0.1,0.1-0.2,0.2-0.4,0.3c-0.1,0.1-0.3,0.2-0.4,0.3c-0.1,0.1-0.2,0.2-0.4,0.3c-0.2,0.1-0.3,0.2-0.4,0.3c-0.1,0.1-0.2,0.2-0.4,0.3
	c-0.2,0.1-0.3,0.2-0.5,0.3c-0.1,0.1-0.2,0.2-0.4,0.2c-0.2,0.1-0.4,0.2-0.5,0.3c-0.1,0.1-0.2,0.1-0.3,0.2c-0.2,0.1-0.5,0.3-0.7,0.4
	c-0.1,0-0.1,0.1-0.2,0.1c-0.3,0.1-0.6,0.3-0.9,0.4c-0.1,0-0.2,0.1-0.3,0.1c-0.2,0.1-0.4,0.2-0.6,0.3c-0.1,0-0.3,0.1-0.4,0.1
	c-0.2,0.1-0.4,0.1-0.6,0.2c-0.1,0-0.3,0.1-0.4,0.1c-0.2,0.1-0.4,0.1-0.6,0.2c-0.2,0-0.3,0.1-0.4,0.1c-0.2,0-0.4,0.1-0.6,0.1
	c-0.2,0-0.3,0.1-0.4,0.1c-0.2,0-0.4,0.1-0.6,0.1c-0.2,0-0.3,0-0.4,0.1c-0.2,0-0.4,0.1-0.6,0.1c-0.2,0-0.3,0-0.4,0.1
	c-0.2,0-0.4,0-0.6,0.1c-0.1,0-0.3,0-0.4,0c-0.2,0-0.5,0-0.7,0c-0.1,0-0.2,0-0.4,0c-0.4,0-0.7,0-1.1,0V33.7
	C34.6,33.9,36.8,33.5,39,33.1z"/>
<path class="st6" d="M34.3,22.3c0,0-2.1-1-3.7,0l1.9,2L34.3,22.3z"/>
<path class="st15" d="M30.9,22.6l1.6,1.7l1.6-1.7C33.5,22.4,32.1,22,30.9,22.6z"/>
<path class="st4" d="M12.3,24.5L9,23.9c-0.2,0-0.3-0.2-0.3-0.4L8.8,23c0-0.2,0.2-0.3,0.4-0.3l3.3,0.6c0.2,0,0.3,0.2,0.3,0.4
	l-0.1,0.5C12.7,24.4,12.5,24.5,12.3,24.5z"/>
<path class="st4" d="M12.7,22.4l-3.3-0.6c-0.2,0-0.3-0.2-0.3-0.4L9.2,21c0-0.2,0.2-0.3,0.4-0.3l3.3,0.6c0.2,0,0.3,0.2,0.3,0.4
	l-0.1,0.5C13,22.3,12.9,22.5,12.7,22.4z"/>
<path class="st4" d="M55.1,20.7l-3.3,0.6c-0.2,0-0.3,0.2-0.3,0.4l0.1,0.5c0,0.2,0.2,0.3,0.4,0.3l3.3-0.6c0.2,0,0.3-0.2,0.3-0.4
	L55.5,21C55.5,20.8,55.3,20.7,55.1,20.7z"/>
<path class="st4" d="M55.5,22.7l-3.3,0.6c-0.2,0-0.3,0.2-0.3,0.4l0.1,0.5c0,0.2,0.2,0.3,0.4,0.3l3.3-0.6c0.2,0,0.3-0.2,0.3-0.4
	L55.9,23C55.9,22.8,55.7,22.7,55.5,22.7z"/>
<path class="st1" d="M49.1,29.9L49,30.1c0,0-2.4,6.2-7.9,9.5l-0.3,0.2l3,1.2c0.1-0.1,0.3-0.2,0.4-0.3l-2.5-1c4.7-3,7.1-8,7.6-9.2
	l2.3,2c0.1-0.1,0.1-0.2,0.2-0.4L49.1,29.9z"/>
<path class="st4" d="M23.7,39.6c-5.5-3.3-7.9-9.4-7.9-9.5l-0.1-0.3l-2.6,2.3c0,0.1,0,0.1,0.1,0.2c0,0.1,0.1,0.1,0.1,0.2l2.2-1.9
	c0.5,1.2,2.9,6.2,7.6,9.2l-2.4,1c0.1,0.1,0.2,0.1,0.3,0.2c0,0,0,0,0.1,0l2.9-1.2L23.7,39.6z"/>
<path class="st3" d="M22.8,5c0.1-0.1,3-0.3,5.4,1.6l-0.9,1.9c0,0-1.9-2.3-4.7-2.7L22.8,5z"/>
<path class="st3" d="M28.6,6.8c0,0.1-1,2-1,2L28,9L28.6,6.8z"/>
<path class="st6" d="M41.5,4.9c-0.1-0.1-3-0.3-5.4,1.6L37,8.3c0,0,1.9-2.3,4.7-2.7L41.5,4.9z"/>
<path class="st6" d="M35.8,6.6c0,0.1,0.4,2.2,0.4,2.2h0.4L35.8,6.6z"/>
<linearGradient id="SVGID_10_" gradientUnits="userSpaceOnUse" x1="24.0792" y1="36.8738" x2="24.0792" y2="23.2154" gradientTransform="matrix(1 0 0 -1 0 47)">
	<stop  offset="0" style="stop-color:#001912"/>
	<stop  offset="1" style="stop-color:#004834"/>
</linearGradient>
<path class="st16" d="M24.1,23.8c4.4,0,8-3.1,8-6.8c0-3.8-3.6-6.8-8-6.8s-8,3.1-8,6.8C16,20.7,19.6,23.8,24.1,23.8z"/>
<linearGradient id="SVGID_11_" gradientUnits="userSpaceOnUse" x1="41.4307" y1="37.2712" x2="41.4307" y2="23.6128" gradientTransform="matrix(1 0 0 -1 0 47)">
	<stop  offset="0" style="stop-color:#001912"/>
	<stop  offset="1" style="stop-color:#353569"/>
</linearGradient>
<path class="st17" d="M41.4,23.4c4.4,0,8-3.1,8-6.8c0-3.8-3.6-6.8-8-6.8s-8,3.1-8,6.8C33.4,20.3,37,23.4,41.4,23.4z"/>
<path class="st15" d="M32.3,29.2c0.8,0,1.4-0.6,1.4-1.4c0-0.8-0.6-1.4-1.4-1.4c-0.8,0-1.4,0.6-1.4,1.4
	C30.9,28.6,31.6,29.2,32.3,29.2z"/>
<path class="st18" d="M42.3,18.3l0.4-0.5c0.1-0.2,0.1-0.4-0.1-0.5l-3.7-2.6c-0.2-0.1-0.4-0.1-0.5,0.1l-0.4,0.5
	c-0.1,0.2-0.1,0.4,0.1,0.5l3.7,2.6C42,18.5,42.2,18.5,42.3,18.3z"/>
<path class="st18" d="M38.6,18.5L38.2,18c-0.1-0.1-0.1-0.4,0-0.5l3.3-3.1c0.1-0.1,0.4-0.1,0.5,0l0.4,0.5c0.1,0.1,0.1,0.4,0,0.5
	l-3.3,3.1C39,18.7,38.8,18.7,38.6,18.5z"/>
<path class="st18" d="M22.8,15.4c0.8,0,1.4-0.6,1.4-1.2c0-0.2,0-0.4-0.1-0.5c0.2,0,0.4-0.1,0.6-0.1c1.4,0,2.5,1.1,2.5,2.5
	c0,1.4-1.1,2.5-2.5,2.5c-1.4,0-2.5-1.1-2.5-2.5c0-0.2,0-0.5,0.1-0.7C22.5,15.4,22.7,15.4,22.8,15.4z"/>
<path class="st1" d="M178.9,20.8h5.1c-0.2-1.4-0.5-2.6-1.1-3.7c-0.6-1.1-1.4-2-2.3-2.7c-0.9-0.7-2-1.3-3.1-1.7
	c-1.2-0.4-2.4-0.6-3.7-0.6c-1.8,0-3.5,0.3-4.9,1c-1.4,0.6-2.7,1.5-3.7,2.7c-1,1.1-1.8,2.5-2.3,4c-0.5,1.5-0.8,3.2-0.8,4.9
	c0,1.7,0.3,3.4,0.8,4.9c0.5,1.5,1.3,2.8,2.3,3.9c1,1.1,2.2,2,3.7,2.6c1.5,0.6,3.1,0.9,4.9,0.9c1.5,0,2.8-0.2,4-0.7
	c1.2-0.4,2.3-1.1,3.2-1.9c0.9-0.8,1.6-1.9,2.2-3.1c0.6-1.2,0.9-2.6,1-4h-5.1c-0.2,1.6-0.8,2.9-1.7,3.9c-0.9,1-2.1,1.5-3.7,1.5
	c-1.2,0-2.2-0.2-3-0.7c-0.8-0.5-1.5-1.1-2-1.8c-0.5-0.8-0.9-1.6-1.1-2.5c-0.2-1-0.3-1.9-0.3-2.9c0-1,0.1-2.1,0.3-3
	c0.2-1,0.6-1.8,1.1-2.6c0.5-0.8,1.2-1.4,2-1.8c0.8-0.5,1.8-0.7,3-0.7c0.6,0,1.3,0.1,1.8,0.3c0.6,0.2,1.1,0.5,1.6,0.9
	c0.5,0.4,0.9,0.8,1.2,1.3C178.6,19.7,178.8,20.2,178.9,20.8z"/>
<path class="st1" d="M186.6,24.7c0.1-1.1,0.3-2,0.8-2.8c0.5-0.7,1.1-1.3,1.9-1.8c0.8-0.4,1.6-0.8,2.5-0.9c1-0.2,1.9-0.3,2.9-0.3
	c0.9,0,1.7,0.1,2.6,0.2c0.9,0.1,1.7,0.3,2.4,0.7c0.7,0.4,1.3,0.9,1.8,1.5c0.5,0.6,0.7,1.5,0.7,2.5v9c0,0.8,0,1.5,0.1,2.2
	c0.1,0.7,0.2,1.2,0.5,1.6h-4.8c-0.1-0.3-0.2-0.5-0.2-0.8c0-0.3-0.1-0.6-0.1-0.9c-0.8,0.8-1.6,1.3-2.7,1.6c-1,0.3-2.1,0.5-3.1,0.5
	c-0.8,0-1.6-0.1-2.3-0.3s-1.3-0.5-1.9-0.9c-0.5-0.4-1-1-1.3-1.6c-0.3-0.6-0.4-1.4-0.4-2.3c0-1,0.2-1.8,0.5-2.4
	c0.4-0.6,0.8-1.2,1.3-1.5c0.6-0.4,1.2-0.7,1.9-0.8c0.7-0.2,1.4-0.4,2.1-0.5c0.7-0.1,1.4-0.2,2.1-0.3c0.7-0.1,1.3-0.2,1.8-0.3
	c0.5-0.1,1-0.3,1.3-0.6c0.3-0.3,0.5-0.6,0.4-1.1c0-0.5-0.1-0.9-0.3-1.2c-0.2-0.3-0.4-0.5-0.7-0.7c-0.3-0.2-0.6-0.3-1-0.3
	c-0.4-0.1-0.7-0.1-1.2-0.1c-0.9,0-1.7,0.2-2.2,0.6c-0.5,0.4-0.8,1.1-0.9,2H186.6z M197.5,28.2c-0.2,0.2-0.5,0.3-0.8,0.4
	c-0.3,0.1-0.6,0.2-1,0.2c-0.3,0.1-0.7,0.1-1.1,0.2c-0.4,0-0.8,0.1-1.1,0.2c-0.4,0.1-0.7,0.2-1.1,0.3c-0.3,0.1-0.6,0.3-0.9,0.5
	c-0.2,0.2-0.4,0.4-0.6,0.7c-0.2,0.3-0.2,0.7-0.2,1.1c0,0.4,0.1,0.8,0.2,1.1c0.2,0.3,0.4,0.5,0.6,0.7c0.3,0.2,0.6,0.3,0.9,0.3
	c0.4,0.1,0.7,0.1,1.1,0.1c0.9,0,1.7-0.2,2.2-0.5c0.5-0.3,0.9-0.7,1.1-1.1c0.2-0.4,0.4-0.9,0.4-1.3c0.1-0.4,0.1-0.8,0.1-1.1V28.2z"/>
<path class="st1" d="M211.5,19.4v-5.2h-4.7v5.2h-2.9v3.2h2.9v10.2c0,0.9,0.1,1.6,0.4,2.1c0.3,0.5,0.7,0.9,1.2,1.2
	c0.5,0.3,1.1,0.5,1.7,0.6c0.7,0.1,1.4,0.2,2.1,0.2c0.5,0,0.9,0,1.4,0c0.5,0,0.9-0.1,1.3-0.1V33c-0.2,0-0.5,0.1-0.7,0.1
	c-0.2,0-0.5,0-0.8,0c-0.8,0-1.3-0.1-1.6-0.4c-0.3-0.3-0.4-0.8-0.4-1.6v-8.6h3.5v-3.2H211.5z"/>
<path class="st15" d="M67.5,22.8h6.8c1,0,1.8-0.3,2.5-0.8c0.7-0.6,1-1.4,1-2.5c0-1.2-0.3-2-0.9-2.5c-0.6-0.5-1.5-0.7-2.6-0.7h-6.8
	V22.8z M63.3,12.8h11.6c2.1,0,3.9,0.5,5.1,1.5s1.9,2.5,1.9,4.4c0,1.2-0.3,2.2-0.9,3.1c-0.6,0.8-1.4,1.5-2.5,2v0.1
	c1.5,0.3,2.6,1,3.3,2.1c0.8,1.1,1.1,2.4,1.1,4c0,0.9-0.2,1.8-0.5,2.6c-0.3,0.8-0.9,1.5-1.6,2.1c-0.7,0.6-1.6,1-2.7,1.4
	c-1.1,0.3-2.4,0.5-4,0.5h-11V12.8z M67.5,33.3h7.4c1.3,0,2.2-0.3,2.9-1c0.7-0.7,1.1-1.6,1.1-2.8c0-1.2-0.4-2.1-1.1-2.7
	c-0.7-0.6-1.7-1-2.9-1h-7.4V33.3z"/>
<path class="st15" d="M86.4,12.8h3.8v3.6h-3.8V12.8z M86.4,19.4h3.8v17.3h-3.8V19.4z"/>
<path class="st15" d="M94.3,19.4H98v2.5L98,22c0.6-1,1.3-1.7,2.3-2.2c0.9-0.6,2-0.8,3.1-0.8c1.9,0,3.4,0.5,4.5,1.5
	c1.1,1,1.6,2.5,1.6,4.4v11.9h-3.8V25.8c0-1.4-0.3-2.3-0.9-2.9c-0.5-0.6-1.4-0.9-2.5-0.9c-0.6,0-1.2,0.1-1.7,0.4
	c-0.5,0.2-0.9,0.5-1.3,1c-0.4,0.4-0.6,0.9-0.8,1.4s-0.3,1.1-0.3,1.8v10.2h-3.8V19.4z"/>
<path class="st15" d="M128,32.8c0,0.5,0.1,0.8,0.2,1c0.1,0.2,0.4,0.3,0.7,0.3c0.1,0,0.2,0,0.4,0c0.2,0,0.3,0,0.5-0.1v2.6
	c-0.1,0-0.3,0.1-0.5,0.1c-0.2,0.1-0.4,0.1-0.6,0.2c-0.2,0-0.4,0.1-0.7,0.1c-0.2,0-0.4,0-0.6,0c-0.8,0-1.4-0.2-1.9-0.5
	c-0.5-0.3-0.8-0.9-1-1.6c-0.8,0.7-1.7,1.3-2.8,1.6c-1.1,0.3-2.1,0.5-3.2,0.5c-0.8,0-1.5-0.1-2.2-0.3c-0.7-0.2-1.3-0.5-1.9-0.9
	c-0.5-0.4-1-0.9-1.3-1.6c-0.3-0.6-0.5-1.4-0.5-2.2c0-1.1,0.2-1.9,0.6-2.6c0.4-0.7,0.9-1.2,1.5-1.6c0.6-0.4,1.4-0.6,2.1-0.8
	c0.8-0.2,1.6-0.3,2.4-0.4c0.7-0.1,1.3-0.2,2-0.3c0.6-0.1,1.2-0.2,1.6-0.3c0.5-0.1,0.9-0.3,1.1-0.6c0.3-0.3,0.4-0.7,0.4-1.3
	c0-0.5-0.1-0.9-0.4-1.2c-0.2-0.3-0.5-0.5-0.9-0.7c-0.3-0.2-0.7-0.3-1.1-0.3c-0.4-0.1-0.8-0.1-1.2-0.1c-1.1,0-1.9,0.2-2.6,0.7
	c-0.7,0.4-1.1,1.1-1.2,2.1h-3.8c0.1-1.1,0.3-2,0.8-2.8c0.5-0.7,1.1-1.3,1.8-1.8c0.7-0.4,1.6-0.8,2.5-0.9c0.9-0.2,1.8-0.3,2.8-0.3
	c0.8,0,1.7,0.1,2.5,0.3s1.6,0.5,2.2,0.9c0.7,0.4,1.2,0.9,1.6,1.6c0.4,0.6,0.6,1.4,0.6,2.3V32.8z M124.2,28c-0.6,0.4-1.3,0.6-2.1,0.7
	c-0.8,0.1-1.7,0.2-2.5,0.3c-0.4,0.1-0.8,0.2-1.2,0.3c-0.4,0.1-0.7,0.3-1,0.5c-0.3,0.2-0.5,0.5-0.7,0.8c-0.2,0.3-0.2,0.7-0.2,1.2
	c0,0.4,0.1,0.8,0.4,1.1s0.5,0.5,0.9,0.7c0.4,0.2,0.7,0.3,1.1,0.3c0.4,0.1,0.8,0.1,1.1,0.1c0.4,0,0.9-0.1,1.4-0.2
	c0.5-0.1,0.9-0.3,1.4-0.6c0.4-0.3,0.8-0.6,1.1-1c0.3-0.4,0.4-0.9,0.4-1.5V28z"/>
<path class="st15" d="M132.1,19.4h3.6v3.3h0.1c0.1-0.5,0.3-0.9,0.6-1.4c0.3-0.4,0.7-0.8,1.2-1.2c0.5-0.4,1-0.7,1.5-0.9
	c0.6-0.2,1.1-0.3,1.7-0.3c0.4,0,0.7,0,0.9,0c0.2,0,0.4,0,0.5,0.1v3.7c-0.3,0-0.5-0.1-0.8-0.1c-0.3,0-0.5-0.1-0.8-0.1
	c-0.6,0-1.3,0.1-1.8,0.4c-0.6,0.2-1,0.6-1.5,1.1c-0.4,0.5-0.8,1.1-1,1.8c-0.2,0.7-0.4,1.6-0.4,2.5v8.2h-3.8V19.4z"/>
<path class="st15" d="M141.9,19.4h4.2l4.5,12.9h0.1l4.4-12.9h4l-6.7,18.2c-0.3,0.8-0.6,1.5-0.9,2.2c-0.3,0.7-0.7,1.3-1.1,1.9
	c-0.4,0.6-1,1-1.6,1.3c-0.6,0.3-1.5,0.5-2.5,0.5c-0.9,0-1.8-0.1-2.6-0.2v-3.2c0.3,0,0.6,0.1,0.9,0.1c0.3,0.1,0.6,0.1,0.9,0.1
	c0.4,0,0.8-0.1,1.1-0.2c0.3-0.1,0.5-0.3,0.7-0.5c0.2-0.2,0.4-0.4,0.5-0.7c0.1-0.3,0.3-0.6,0.4-1l0.4-1.3L141.9,19.4z"/>
</svg>
