<svg width="20" height="19" viewBox="0 0 20 19" fill="none" xmlns="http://www.w3.org/2000/svg">
<path d="M14.5161 9.52446L15.8141 8.22642C16.644 7.42135 16.9756 6.23163 16.682 5.11335C16.3884 3.99507 15.5151 3.12173 14.3968 2.82812C13.2785 2.53452 12.0888 2.86621 11.2837 3.69604L8.50759 6.47219C7.90655 7.07281 7.56885 7.88768 7.56885 8.73739C7.56885 9.58709 7.90655 10.402 8.50759 11.0026L8.49934 11.0108C8.75792 11.2645 9.05816 11.4718 9.38696 11.6238" stroke="#1D5AD1" stroke-width="1.5" stroke-linecap="round" stroke-linejoin="round"/>
<path d="M10.605 7.40417C10.9338 7.55644 11.2341 7.76404 11.4926 8.01793C12.0937 8.61855 12.4314 9.43342 12.4314 10.2831C12.4314 11.1328 12.0937 11.9477 11.4926 12.5483L8.71647 15.3245C7.46007 16.5434 5.45792 16.5282 4.22012 15.2904C2.98232 14.0526 2.96716 12.0505 4.18609 10.7941L5.48413 9.49605" stroke="#1D5AD1" stroke-width="1.5" stroke-linecap="round" stroke-linejoin="round"/>
</svg>
