<svg width="56" height="54" viewBox="0 0 56 54" fill="none" xmlns="http://www.w3.org/2000/svg">
<path d="M22.5769 41.0561C22.7289 40.8001 22.8809 40.5441 23.0329 40.2801C23.0729 40.2161 23.0969 40.144 23.1209 40.064C23.7929 39.12 24.6409 38.2801 25.4409 37.4721C26.4809 36.416 27.5529 35.392 28.6889 34.424C29.3609 33.848 30.0249 33.256 30.6809 32.656C30.7929 32.56 30.8969 32.456 31.0089 32.36C31.0169 32.344 31.0009 32.424 31.0089 32.408C31.0169 32.392 31.1289 32.288 31.1449 32.272C32.4009 31.392 33.0489 29.816 33.5369 28.408C34.0729 26.84 34.3049 25.12 34.2489 23.464C34.1289 20.08 32.6649 16.968 30.3769 14.504C25.6729 9.44004 17.6489 7.47204 11.2889 10.384C9.32094 11.28 7.41694 12.464 6.10494 14.16C5.15294 15.392 4.58494 16.984 4.14494 18.496C4.11294 18.616 4.10494 18.72 4.12094 18.824C3.84094 19.488 3.60094 20.16 3.42494 20.856C3.16094 21.904 2.99294 22.984 2.90494 24.064C2.72894 26.16 2.88894 28.304 3.39294 30.344C3.56894 31.056 3.79294 31.752 4.05694 32.44C5.97694 41.784 13.1289 49.6641 23.0169 52.0081C24.5769 52.3761 26.1369 52.5921 27.6889 52.6641L27.6969 52.5121C28.2409 52.5681 28.9289 52.9441 29.3049 52.6161C29.6729 52.6801 29.9929 52.5041 30.3609 52.5521C30.4809 52.5921 30.6329 52.5601 30.7609 52.5521C31.0649 52.5921 31.2649 52.4961 31.5689 52.5041C31.8649 52.5121 32.1609 52.4961 32.4569 52.5281C32.8249 52.5681 33.5449 52.5041 33.7369 52.1601C33.9129 51.8401 33.4809 51.3761 33.2169 51.1281C32.6249 50.5601 32.1609 49.9441 31.7769 49.2001C31.6009 48.8641 31.4889 48.5681 31.3529 48.1921C31.2249 47.8081 31.0649 47.4321 30.9929 47.0321C30.9049 46.5121 30.5209 46.1841 29.9769 46.3121C29.2809 46.4721 28.7529 46.4801 28.0489 46.6161C28.0409 46.6161 27.8569 46.6161 27.8489 46.6161C27.2569 46.3601 26.6649 46.4321 26.0489 46.4001C25.9369 46.3761 25.8249 46.3441 25.7129 46.3121C25.2009 45.9441 24.6409 45.6481 24.0569 45.3921C23.8969 45.2321 23.7529 45.064 23.6409 44.8881C23.3369 44.432 23.1449 44.0801 23.0009 43.5601C22.9129 43.2321 22.5529 43.0401 22.2249 43.0561C22.2089 42.7281 22.2169 42.416 22.2649 42.1441C22.3209 41.744 22.4249 41.3921 22.5769 41.0561Z" fill="#FFFAFA"/>
<path d="M54.7766 26.8561C54.6966 24.0961 54.4006 21.2641 53.7686 18.5681C53.4326 17.1601 52.9766 15.7201 52.2486 14.4561C51.8966 13.8481 51.4966 13.2801 51.0566 12.7361C50.6086 12.1841 50.1046 11.6321 49.4646 11.3041C49.4486 11.2961 49.4326 11.2881 49.4086 11.2801C49.3446 11.1761 49.2806 11.0801 49.2166 10.9841C48.3926 9.74407 47.4566 8.58407 46.4086 7.52807C45.3606 6.48007 44.2006 5.45607 42.9206 4.70407C42.2406 4.30407 41.5526 3.90407 40.8406 3.55207C40.5686 3.41607 40.2886 3.29607 40.0086 3.18407C39.4886 2.90407 38.9446 2.67207 38.3846 2.50407V2.51207C38.1926 2.47207 37.9926 2.50407 37.8326 2.61607C37.3046 2.37607 36.7686 2.16007 36.2406 1.96807C33.8726 1.12807 31.3446 0.744071 28.8326 0.688071C26.5046 0.632071 24.1366 0.832071 21.8566 1.34407C20.6966 1.60807 19.5286 2.00807 18.4726 2.57607C17.9446 2.85607 17.4646 3.18407 17.0166 3.57607C16.8326 3.73607 16.5206 3.67207 16.3766 3.85607C16.3126 3.88807 16.2566 3.92007 16.1926 3.95207C13.9046 5.15207 11.8646 6.84007 9.92058 8.54407C9.09658 9.27207 8.17658 10.0641 7.60058 11.0321C7.49658 11.1201 7.39258 11.2081 7.29658 11.2961C7.20858 11.4561 7.12058 11.6161 7.03258 11.7841C6.88858 12.0641 6.77658 12.3361 6.52058 12.5281C6.48058 12.6001 6.43258 12.6721 6.39258 12.7441C6.56058 12.9921 6.93658 13.1041 7.23258 12.8481C8.04858 12.1201 8.88058 11.4321 9.80858 10.8561C10.7446 10.2721 11.7446 9.78408 12.7766 9.40808C14.8566 8.64807 17.0646 8.32007 19.2726 8.44807C23.5606 8.68808 27.5926 10.8961 30.4166 14.1281C31.2166 15.0401 32.0166 15.9041 32.6086 16.9681C32.9046 17.4881 33.1526 18.0401 33.3766 18.5921C33.5446 19.0081 33.6566 19.4481 33.8406 19.8561C33.7366 19.8561 33.6326 19.8481 33.5366 19.8481C33.5926 19.9441 33.6406 20.0401 33.6646 20.0961C33.8486 20.4881 33.9286 20.9281 34.0166 21.3521C34.1206 21.8961 34.2166 22.4241 34.2246 22.9841C34.2246 23.1121 34.2246 23.2401 34.2166 23.3761C34.3926 24.6321 34.3046 25.9361 33.9926 27.1441C33.6166 28.6161 32.9846 30.0721 32.1366 31.3681C32.1366 31.3681 32.1446 31.3601 32.1526 31.3601C32.7286 30.8321 33.3126 30.3121 33.8966 29.7841C34.4886 29.2561 35.1206 28.7921 35.7206 28.2801C35.7766 28.2321 35.8566 28.3041 35.8086 28.3601C35.2246 28.9441 34.6886 29.5681 34.0886 30.1361C33.4966 30.7041 32.8966 31.2801 32.2886 31.8401C31.9286 32.1841 31.5606 32.5201 31.2006 32.8641C30.3926 33.6241 29.6006 34.3841 28.8246 35.1761C27.8486 36.1761 26.8326 37.1361 25.8806 38.1601C24.9926 39.1121 23.9926 40.1041 23.4326 41.3041C22.9846 42.2721 22.9526 43.5121 23.8246 44.2561C24.6006 44.9121 25.7446 45.0961 26.7206 45.2321C28.8646 45.5361 31.1366 45.3041 33.2246 44.7681C35.4246 44.2081 37.4246 43.0561 39.0806 41.5201C39.1526 41.4481 39.2646 41.5521 39.2006 41.6321C37.4726 43.6321 35.1126 45.1601 32.6166 46.0161C32.2166 46.1521 31.8086 46.2721 31.3926 46.3681C31.4646 46.5921 31.4726 46.8481 31.5126 47.0721C31.5686 47.3681 31.6326 47.6561 31.7126 47.9441C31.8726 48.5041 32.1046 49.0321 32.3526 49.5601C32.6086 50.1041 32.8566 50.6481 33.2246 51.1201C33.4166 51.3681 33.6246 51.6081 33.8406 51.8401C33.9366 51.9441 34.0486 52.0481 34.1526 52.1681C37.9286 51.3521 41.4566 49.6881 44.4646 47.3281C44.9766 47.1521 45.4806 46.9041 45.9286 46.6481C46.8726 46.1121 47.7686 45.4401 48.4886 44.6241C49.6166 43.3681 50.5926 41.7841 50.8806 40.0801C51.9046 38.6081 52.7766 37.0321 53.4406 35.3361C54.4806 32.6081 54.8566 29.7601 54.7766 26.8561Z" fill="white"/>
<path d="M55.529 23.92C55.137 20.464 54.017 17.008 52.297 13.928C51.433 12.392 50.425 10.936 49.297 9.60804C48.169 8.28804 46.905 7.05604 45.521 5.96004C44.153 4.88004 42.673 3.92004 41.121 3.12804C39.601 2.34404 37.969 1.69604 36.265 1.20004C34.593 0.720042 32.865 0.400042 31.129 0.248043L30.169 0.184043C30.049 0.176043 29.945 0.168043 29.833 0.168043L28.697 0.144043L27.401 0.184043L26.249 0.280043C26.233 0.280043 26.217 0.280043 26.193 0.280043C26.153 0.280043 26.113 0.288043 26.073 0.288043L25.921 0.304043C24.193 0.488043 22.481 0.848042 20.817 1.36804C19.169 1.88804 17.561 2.56804 16.025 3.40804C14.489 4.24004 13.041 5.22404 11.705 6.32004C10.369 7.43204 9.12897 8.67204 8.04097 10.016L7.93697 10.144C7.91297 10.176 7.88897 10.208 7.86497 10.24C7.85697 10.256 7.84097 10.264 7.83297 10.288L7.15297 11.184L6.40897 12.256L5.80897 13.224C5.74497 13.32 5.68897 13.416 5.63297 13.52L5.16097 14.368C4.34497 15.904 3.67297 17.528 3.16897 19.192C2.65697 20.896 2.31297 22.616 2.14497 24.312C1.96897 26.048 1.96097 27.816 2.12897 29.552C2.29697 31.296 2.63297 33.024 3.13697 34.704C3.64097 36.376 4.31297 38.008 5.13697 39.568C5.96897 41.128 6.94497 42.6 8.04897 43.952C9.16097 45.32 10.409 46.576 11.769 47.696C14.489 49.944 17.697 51.664 21.049 52.68C23.585 53.448 26.257 53.832 28.897 53.832C29.793 53.832 30.681 53.784 31.561 53.696C33.321 53.512 35.073 53.152 36.769 52.632C38.449 52.112 40.105 51.416 41.673 50.568C44.785 48.872 47.593 46.528 49.793 43.784C50.881 42.432 51.857 40.936 52.689 39.328C53.497 37.76 54.161 36.104 54.657 34.4C55.633 31.056 55.929 27.424 55.529 23.92ZM31.009 32.36C30.897 32.456 30.793 32.56 30.681 32.656C30.025 33.256 29.361 33.848 28.689 34.424C27.561 35.392 26.481 36.408 25.441 37.472C24.577 38.352 23.657 39.264 22.961 40.296C22.881 40.424 22.801 40.544 22.721 40.672C22.705 40.696 22.697 40.712 22.681 40.736C22.609 40.856 22.545 40.976 22.489 41.096C22.449 41.176 22.417 41.256 22.377 41.336C22.217 41.72 22.105 42.128 22.065 42.544C22.057 42.608 22.049 42.672 22.049 42.736C22.017 43.304 22.121 43.872 22.393 44.392C22.809 45.184 23.553 45.696 24.377 46.024C24.465 46.064 24.561 46.096 24.657 46.128C24.905 46.216 25.161 46.288 25.409 46.344C25.769 46.424 26.137 46.488 26.505 46.544C26.545 46.552 26.577 46.552 26.617 46.56C26.889 46.6 27.161 46.624 27.433 46.64C27.569 46.648 27.705 46.656 27.841 46.664C28.705 46.696 29.577 46.648 30.433 46.52C30.433 46.768 30.513 47.048 30.569 47.272C30.641 47.576 30.737 47.88 30.841 48.176C31.057 48.784 31.313 49.4 31.665 49.936C32.001 50.464 32.449 50.904 32.873 51.36C33.097 51.6 33.345 51.832 33.601 52.04C33.617 52.056 33.641 52.072 33.657 52.088C32.921 52.232 32.177 52.344 31.433 52.424C28.105 52.776 24.633 52.464 21.401 51.512C19.657 51 17.961 50.288 16.353 49.416C9.72097 45.648 5.15297 39.056 3.88897 31.624C3.69697 30.504 3.44097 29.384 3.31297 28.256C2.77697 23.76 3.79297 18.744 5.87297 14.728C5.93697 14.608 6.00897 14.376 6.11297 14.28C7.10497 13.384 8.11297 12.52 9.24097 11.784C10.641 10.872 12.161 10.152 13.761 9.67204C15.353 9.20004 16.993 8.98404 18.649 9.08004C20.353 9.18404 22.041 9.60804 23.633 10.224C26.513 11.336 29.137 13.168 31.001 15.648C32.673 17.88 33.801 20.56 34.041 23.352C34.297 26.32 33.521 29.184 31.841 31.6C31.577 31.84 31.313 32.08 31.049 32.32L31.009 32.36ZM45.233 46.584C43.945 47.656 42.537 48.608 41.049 49.424C39.561 50.232 37.993 50.896 36.393 51.4C35.617 51.64 34.825 51.848 34.017 52.016C33.953 51.944 33.881 51.88 33.825 51.816C33.609 51.584 33.409 51.344 33.209 51.096C32.841 50.624 32.593 50.072 32.337 49.536C32.089 49.008 31.857 48.48 31.697 47.92C31.617 47.632 31.545 47.344 31.497 47.048C31.457 46.824 31.449 46.568 31.377 46.344C31.793 46.248 32.201 46.128 32.601 45.992C35.097 45.136 37.457 43.608 39.185 41.608C39.257 41.528 39.145 41.424 39.065 41.496C37.409 43.032 35.409 44.184 33.209 44.744C31.121 45.272 28.841 45.512 26.705 45.208C25.737 45.072 24.585 44.888 23.809 44.232C22.937 43.488 22.969 42.248 23.417 41.28C23.969 40.088 24.977 39.096 25.865 38.136C26.817 37.112 27.833 36.152 28.809 35.152C29.585 34.36 30.377 33.6 31.185 32.84C31.545 32.496 31.913 32.16 32.273 31.816C32.873 31.248 33.473 30.68 34.073 30.112C34.673 29.536 35.209 28.92 35.793 28.336C35.849 28.28 35.761 28.208 35.705 28.256C35.105 28.768 34.473 29.232 33.881 29.76C33.529 30.072 33.177 30.392 32.825 30.712C34.025 28.848 34.665 26.672 34.721 24.416C34.793 21.496 33.817 18.56 32.241 16.128C30.505 13.448 28.033 11.368 25.153 10C21.913 8.46404 18.289 7.77604 14.761 8.56804C12.825 9.00004 10.977 9.80004 9.31297 10.872C8.60897 11.32 7.91297 11.824 7.27297 12.392C7.70497 11.744 8.16097 11.128 8.64097 10.528C9.70497 9.21604 10.897 8.00004 12.193 6.92004C13.481 5.84804 14.897 4.88804 16.385 4.07204C17.881 3.26404 19.449 2.60004 21.049 2.10404C22.665 1.60004 24.329 1.25604 26.009 1.08004C29.345 0.728042 32.817 1.04804 36.049 2.00004C39.281 2.96004 42.361 4.57604 44.969 6.68804C46.281 7.75204 47.489 8.94404 48.569 10.24C49.641 11.528 50.601 12.944 51.409 14.432C52.217 15.928 52.881 17.496 53.377 19.096C53.881 20.704 54.225 22.376 54.401 24.048C54.753 27.384 54.433 30.848 53.481 34.08C52.529 37.312 50.905 40.392 48.793 42.992C47.729 44.296 46.529 45.504 45.233 46.584Z" fill="black"/>
<path d="M22.9763 30.3281C26.5595 30.3281 29.4643 27.4233 29.4643 23.8401C29.4643 20.2568 26.5595 17.3521 22.9763 17.3521C19.3931 17.3521 16.4883 20.2568 16.4883 23.8401C16.4883 27.4233 19.3931 30.3281 22.9763 30.3281Z" fill="black"/>
<path d="M20.3201 25.384C21.5572 25.384 22.5601 24.3812 22.5601 23.144C22.5601 21.9069 21.5572 20.9041 20.3201 20.9041C19.083 20.9041 18.0801 21.9069 18.0801 23.144C18.0801 24.3812 19.083 25.384 20.3201 25.384Z" fill="white"/>
<path d="M6.79269 31.408C10.3759 31.408 13.2807 28.5032 13.2807 24.92C13.2807 21.3368 10.3759 18.432 6.79269 18.432C3.20946 18.432 0.304688 21.3368 0.304688 24.92C0.304688 28.5032 3.20946 31.408 6.79269 31.408Z" fill="black"/>
<path d="M15.4806 29.5201C15.7126 30.3361 15.7526 31.2561 15.6886 32.1041C14.1526 32.5601 12.6246 32.5681 11.0326 32.2961C10.1286 32.1441 9.25658 31.8561 8.39258 31.5441C7.95258 31.3841 7.52058 31.2241 7.09658 31.0401C6.88058 30.9441 6.64058 30.8161 6.39258 30.7201C6.65658 30.6801 6.91258 30.6001 7.16858 30.5441C7.52858 30.4561 7.88858 30.3681 8.24058 30.2561C9.00058 30.0321 9.74458 29.7441 10.4726 29.4241C11.1606 29.1201 11.8246 28.7681 12.4726 28.3761C13.0646 28.0241 13.6886 27.6561 14.2006 27.1841C14.2486 27.3441 14.3766 27.4481 14.4726 27.5841C14.6246 27.7841 14.7686 27.9841 14.9046 28.1921C15.1606 28.6081 15.3526 29.0641 15.4806 29.5201Z" fill="#EC3E3F"/>
<path d="M4.03297 26.312C5.27009 26.312 6.27297 25.3091 6.27297 24.072C6.27297 22.8349 5.27009 21.832 4.03297 21.832C2.79585 21.832 1.79297 22.8349 1.79297 24.072C1.79297 25.3091 2.79585 26.312 4.03297 26.312Z" fill="white"/>
<path d="M15.977 29.408C15.753 28.928 15.481 28.48 15.177 28.04C15.041 27.84 14.889 27.64 14.721 27.464C14.601 27.328 14.473 27.16 14.297 27.104C14.305 27.096 14.313 27.088 14.321 27.08C14.345 27.056 14.313 27.016 14.281 27.032C14.097 27.12 13.921 27.224 13.745 27.328C13.281 27.6 12.833 27.896 12.369 28.152C11.681 28.52 10.977 28.856 10.249 29.144C9.56899 29.424 8.86499 29.664 8.16099 29.88C7.80899 29.992 7.44899 30.088 7.09699 30.176C6.72899 30.264 6.32099 30.312 5.96899 30.44C5.91299 30.464 5.87299 30.504 5.85699 30.56C5.85699 30.568 5.85699 30.568 5.85699 30.576C5.84099 30.656 5.88099 30.736 5.96099 30.768C6.24899 31.064 6.74499 31.248 7.09699 31.44C7.50499 31.656 7.90499 31.88 8.32099 32.08C8.35299 32.096 8.39299 32.112 8.43299 32.128C9.25699 32.52 10.137 32.856 11.017 33.096C12.657 33.544 14.577 33.616 16.169 32.944C16.377 32.928 16.569 32.776 16.593 32.472C16.641 31.928 16.585 31.416 16.481 30.88C16.393 30.344 16.209 29.888 15.977 29.408ZM11.041 32.304C10.137 32.152 9.26499 31.864 8.40099 31.552C7.96099 31.392 7.52899 31.232 7.10499 31.048C6.88899 30.952 6.64899 30.824 6.40099 30.728C6.66499 30.688 6.92099 30.608 7.17699 30.552C7.53699 30.464 7.89699 30.376 8.24899 30.264C9.00899 30.04 9.75299 29.752 10.481 29.432C11.169 29.128 11.833 28.776 12.481 28.384C13.073 28.032 13.697 27.664 14.209 27.192C14.257 27.352 14.385 27.456 14.481 27.592C14.633 27.792 14.777 27.992 14.913 28.2C15.169 28.6 15.361 29.056 15.489 29.512C15.721 30.328 15.761 31.248 15.697 32.096C14.153 32.568 12.625 32.568 11.041 32.304Z" fill="black"/>
<g opacity="0.3">
<path opacity="0.3" d="M54.1598 31.4241C55.1918 26.5921 54.7918 21.7601 53.4238 17.0481C53.3438 16.7761 53.2398 16.4721 52.9838 16.3601C52.3838 16.0961 52.0398 17.0481 52.0478 17.7121C52.0958 24.1601 48.9998 31.3921 45.0638 36.3041C41.3438 40.9601 36.0558 45.2161 29.8878 46.1681C29.2158 46.2721 28.5438 46.3601 27.8558 46.3281C27.1838 46.3041 26.5198 46.0561 25.8878 45.8321C25.2078 45.5921 24.5118 45.3681 23.8558 45.0721C23.2318 44.7841 22.7758 44.2881 22.6398 43.6081C22.6238 43.5361 22.5198 43.5601 22.5198 43.6321C22.5118 43.9041 22.5518 44.1681 22.6398 44.4241C22.6558 44.4641 22.6638 44.5041 22.6798 44.5441C22.6718 44.5681 22.6638 44.5921 22.6558 44.6241C22.5918 45.8401 23.4478 46.6721 24.4798 47.3121C24.3838 47.3121 24.2878 47.3121 24.1918 47.3121C17.3358 47.2721 10.5438 44.1601 6.04778 38.9841C5.83178 38.7361 5.32778 38.5361 5.26378 38.8561C5.23978 38.9841 5.32778 39.1041 5.40778 39.2081C7.04778 41.2481 8.50379 43.6881 10.3438 45.5201C11.1518 46.5281 12.0798 47.4481 13.1758 48.1361C14.3118 48.8481 15.5918 49.3361 16.8478 49.8001C16.9438 49.8721 17.0398 49.9361 17.1358 50.0001C17.5358 50.2801 17.9598 50.5041 18.3998 50.7201C19.3198 51.1681 20.2798 51.5441 21.2478 51.8721C23.1758 52.5201 25.1918 52.8561 27.2158 53.0081C36.4558 53.7201 44.4718 49.6801 49.6318 41.9601C51.7038 38.8561 53.2638 35.4001 54.0798 31.7601C54.1118 31.6481 54.1358 31.5361 54.1598 31.4241Z" fill="black"/>
</g>
<path opacity="0.3" d="M7.22444 31.2001C7.55244 31.4401 7.84844 31.3921 8.15244 31.6641C8.56844 31.8161 8.96044 32.0081 9.35244 32.2081C10.2644 32.5521 11.2324 32.7601 12.1924 32.8241C13.5444 32.9201 14.8724 32.6641 16.2164 32.5201C16.2724 32.1921 16.3044 31.8641 16.3764 31.5441C16.3284 31.4161 16.2644 31.2881 16.1924 31.1681C16.1764 31.1361 16.1444 31.1281 16.1124 31.1361C16.0964 31.0961 16.1204 30.5921 16.1044 30.5521C16.0244 30.3681 16.0484 30.3601 15.8964 30.4081C14.9204 30.7121 13.9524 31.0801 12.9364 31.2481C11.5284 31.4881 10.0964 31.3681 8.69644 31.1441C7.96844 31.0241 7.16044 30.8721 6.46444 30.5521C6.52044 30.6721 6.21644 30.6561 6.28844 30.7601C6.53644 30.8961 7.12844 31.2001 7.34444 31.3921C7.36844 31.4081 7.39244 31.4241 7.40844 31.4401C7.30444 31.2641 7.28844 31.2561 7.40844 31.4161C7.52044 31.5601 7.20044 31.1841 7.22444 31.2001Z" fill="black"/>
<path opacity="0.3" d="M40.64 26.096C40.368 26.096 40.096 26.096 39.832 26.096C39.76 26.096 39.688 26.088 39.616 26.064C39.344 25.968 39.28 25.8 39.44 25.56C39.88 24.896 40.32 24.232 40.76 23.56C41.432 22.544 42.104 21.536 42.776 20.528C42.816 20.464 42.856 20.408 42.904 20.352C43.08 20.152 43.288 20.144 43.472 20.336C43.616 20.488 43.712 20.672 43.832 20.848C44.016 21.12 44.192 21.408 44.376 21.68C44.6 22 44.592 22.328 44.384 22.64C43.712 23.648 43.032 24.656 42.344 25.656C42.136 25.96 41.816 26.072 41.472 26.096C41.192 26.112 40.912 26.096 40.64 26.096Z" fill="#EB3B40"/>
<path opacity="0.3" d="M44.7762 26.096C44.2802 26.096 43.8802 26.096 43.4802 26.096C43.4402 26.096 43.3922 26.104 43.3522 26.096C43.0002 26.016 42.8002 25.824 43.0242 25.456C43.4562 24.76 43.9042 24.064 44.3442 23.376C44.5602 23.048 44.8882 23.048 45.0962 23.376C45.5442 24.08 45.9762 24.792 46.4163 25.504C46.5923 25.792 46.4882 26.016 46.1442 26.064C45.6642 26.136 45.1762 26.072 44.7762 26.096Z" fill="#EB3B40"/>
</svg>
