<svg width="25" height="26" viewBox="0 0 25 26" fill="none" xmlns="http://www.w3.org/2000/svg">
<rect y="0.5" width="25" height="25" rx="4.86772" fill="#7405AA"/>
<path d="M18.421 13.2771C17.1781 10.0471 12.7527 9.87291 13.8214 5.17833C13.9006 4.83 13.5285 4.56083 13.2277 4.74292C10.3539 6.43708 8.28768 9.83333 10.0214 14.2825C10.1639 14.6467 9.73643 14.9871 9.42768 14.7496C7.99477 13.665 7.84435 12.1054 7.97102 10.9892C8.01852 10.5775 7.48018 10.3796 7.2506 10.72C6.71227 11.5433 6.16602 12.8733 6.16602 14.8762C6.46685 19.3096 10.2114 20.6712 11.5573 20.8454C13.481 21.0908 15.5631 20.7346 17.0593 19.365C18.706 17.8371 19.3077 15.3987 18.421 13.2771ZM11.0743 17.2592C12.2143 16.9821 12.8002 16.1587 12.9585 15.4304C13.2198 14.2983 12.1985 13.19 12.8873 11.4008C13.1485 12.8812 15.476 13.8075 15.476 15.4225C15.5393 17.4254 13.3702 19.1433 11.0743 17.2592Z" fill="white"/>
</svg>
