<svg width="21" height="22" viewBox="0 0 21 22" fill="none" xmlns="http://www.w3.org/2000/svg">
<path d="M10.5 18.875C6.15076 18.875 2.625 15.3492 2.625 11C2.625 6.65076 6.15076 3.125 10.5 3.125C14.8492 3.125 18.375 6.65076 18.375 11" stroke="#9A70D3" stroke-width="1.5" stroke-linecap="round" stroke-linejoin="round"/>
<path fill-rule="evenodd" clip-rule="evenodd" d="M17.9056 15.5733L16.1999 16.2903C16.0156 16.3678 15.8689 16.5144 15.7914 16.6987L15.0729 18.4067C14.9473 18.705 14.6476 18.892 14.3245 18.8738C14.0014 18.8556 13.7247 18.6361 13.6334 18.3256L12.2812 13.7319C12.2021 13.4633 12.2761 13.173 12.4741 12.975C12.6721 12.777 12.9625 12.703 13.231 12.7822L17.8245 14.1339C18.135 14.2252 18.3546 14.5019 18.3728 14.825C18.391 15.1482 18.2039 15.4478 17.9056 15.5733Z" stroke="#9A70D3" stroke-width="1.5" stroke-linecap="round" stroke-linejoin="round"/>
<path d="M3.07422 8.375H17.9256" stroke="#9A70D3" stroke-width="1.5" stroke-linecap="round" stroke-linejoin="round"/>
<path d="M9.62443 13.625H3.07422" stroke="#9A70D3" stroke-width="1.5" stroke-linecap="round" stroke-linejoin="round"/>
<path d="M13.9902 10.5625C13.8888 6.418 12.3674 3.125 10.5 3.125C8.567 3.125 7 6.65076 7 11C7 15.3492 8.567 18.875 10.5 18.875" stroke="#9A70D3" stroke-width="1.5" stroke-linecap="round" stroke-linejoin="round"/>
</svg>
