<svg id="Layer_1" data-name="Layer 1" xmlns="http://www.w3.org/2000/svg" viewBox="0 0 70.2612 83.87992">
  <defs>
    <style>
      .cls-1 {
        fill: #e5c230;
      }

      .cls-2 {
        fill: #fff;
      }

      .cls-3 {
        fill: #010101;
      }

      .cls-4 {
        fill: #a61e22;
      }

      .cls-5 {
        fill: none;
        stroke: #010101;
        stroke-linecap: round;
        stroke-width: 0.75px;
      }

      .cls-5, .cls-6 {
        stroke-miterlimit: 10;
      }

      .cls-6, .cls-7 {
        fill: #232323;
      }

      .cls-6 {
        stroke: #232323;
        stroke-width: 0.25px;
      }

      .cls-8 {
        fill: #3a3b3a;
      }
    </style>
  </defs>
  <polygon class="cls-1" points="50.994 65.72 50.234 64.05 49.114 63.83 47.384 65.35 45.374 66.77 43.404 69.4 41.864 72.14 40.854 75.94 41.114 79.26 42.604 81.82 44.074 82.77 47.054 83.15 50.844 81.85 54.454 77.7 56.654 73.47 57.424 70.02 56.574 68.43 54.814 68.66 54.794 65.95 53.434 64.98 51.684 65.35 50.994 65.72"/>
  <polygon class="cls-1" points="7.204 64.29 5.594 63.04 4.384 62.86 3.384 63.8 3.384 65.35 2.924 66.3 1.214 66.57 0.744 67.37 0.744 69.11 3.574 75.32 6.074 78.31 9.064 80.79 12.064 80.99 14.844 80.24 16.864 77.7 17.374 73.47 16.324 70.02 14.044 66.19 12.084 63.8 10.234 62.18 8.464 61.68 7.264 62.98 7.204 64.29"/>
  <path class="cls-2" d="M40.57,80.01c-9.59.39-18.47-.95-20.91-1.86a15.31829,15.31829,0,0,1-1.91-.83c1.55-5.3-2.4-12.26-7.22-15.82A14.11,14.11,0,0,1,21.66,51.02a.75.75,0,0,0,.61045-.86737L22.27,50.15c-.3-1.7-5.34.88-6.24,1.44V32.45a8.48,8.48,0,0,0,9.18,1.17l6.27,1.61a11.77,11.77,0,0,0,.57-8.76l-2.18.6c.95-6.62-6.51-11.69-12.31-8.44a25.89,25.89,0,0,1,9.7-12.57c14.33-3.15,27.72,6.91,27.52,22.22,0,7.28-5.2,13.11-9.78,18.26s-8.36,9.42-5.82,13.78c2.69,3.91,9.95-.19,14.34-2.39a51.76048,51.76048,0,0,1-1.86,6.93h0c-2.13-5.33-7.76,2.2-9.31,4.82C40.08,73.23,39.53,77.17,40.57,80.01Z" transform="translate(0.00373 -0.0103)"/>
  <path id="Outline" class="cls-3" d="M62.53,8.34c-9.11-9.69-25.22-11-36.08-3.54a27.52,27.52,0,0,0-8.71,9.73,26.86009,26.86009,0,0,0-2.24,5.64,8.5,8.5,0,0,0-1,10.61v13c-1,1.13-5.24,6.35-3.7,13.06a15.25,15.25,0,0,0-1.7,4.08,2.28,2.28,0,0,0-2.58,1.79c-2.32-1.65-4.51.09-4,2.7a2.06,2.06,0,0,0-1.87.64c-2.2,2.39,1.82,8.92,2.28,9.66,3.42,5.47,10.71,8.79,14.26,3a17.65347,17.65347,0,0,0,2,.84c2,1,15,2.49,22.17,1.92,3.26,4.57,9.63,1.93,12.61-1.84,7.79-2,15.3-7.23,15.13-16,0-.21,1.14-35.41,1.14-35.41A27,27,0,0,0,62.53,8.34ZM21.19,31.03l9.78-2.71a10.00008,10.00008,0,0,1-.38,5.13ZM14.53,46.28v6.36c-.42.37-.86.72-1.24,1.11a14.38031,14.38031,0,0,0-1.23,1.36A13.72993,13.72993,0,0,1,14.53,46.28Zm-.1,33.33c-2.86,1.81-7.45-.29-10.23-4.68-2.25-3.38-4.26-9.47-1.07-7.66a.75.75,0,0,0,1.16-.85c-.94-2.83.3-3.82,2.34-1.63a.76.76,0,0,0,1.31-.61c-.2-4.14,3.8-.36,6.65,4.18S17.29,77.8,14.43,79.61Zm26.14.4c-9.59.39-18.47-.95-20.91-1.86a15.3188,15.3188,0,0,1-1.91-.83c1.55-5.3-2.4-12.26-7.22-15.82A14.11,14.11,0,0,1,21.66,51.02a.75.75,0,0,0,.61046-.86737L22.27,50.15c-.3-1.7-5.34.88-6.24,1.44V32.45c-.21-.43,1-.83,9.18,1.17l6.27,1.61a11.77,11.77,0,0,0,.57-8.76l-2.18.6a9.14,9.14,0,0,1-12.31-8.44,25.89,25.89,0,0,1,9.7-12.57c14.33-3.15,27.72,6.91,27.52,22.22,0,7.28-5.2,13.11-9.78,18.26s-8.36,9.42-5.82,13.78c2.69,3.91,9.95-.19,14.34-2.39a51.76048,51.76048,0,0,1-1.86,6.93h0c-2.13-5.33-7.76,2.2-9.31,4.82-2.27,3.55-2.82,7.49-1.78,10.33Zm13.39-2.93c-6.31,9.82-17,5-10.39-6.57,2.67-4.27,6.83-8.43,6.65-4.17a.76.76,0,0,0,1.31.6c.3-.35,1.58-1.54,2.27-1.11s.32,2.06.07,2.75a.75.75,0,0,0,1.16.85c3.18-1.86,1.19,4.29-1.07,7.65ZM68.71,28.13c-1.14,35.41-1.14,35.42-1.14,35.44a13.77,13.77,0,0,1-.89,5c-1.87,4.78-6.62,7.57-11.3,9.1.87-1.42,4.17-7.19,2.13-9.4a2,2,0,0,0-1.87-.64c.29-1.42-.42-3.41-2.2-3.35a53.64,53.64,0,0,0,1.79-7.27c4.11-2.36,7.46-4.72,7.75-4.93a.75329.75329,0,1,0-.87-1.23c-1.7,1.21-4.65,3.16-7.86,5l-.15.09c-4.67,2.66-9.84,5-12.44,4.48a1.73,1.73,0,0,1-1.19-.79c-2-3.43,1.39-7.22,5.66-12,4.61-5.2,9.81-11.08,10.13-18.62h0v-.72C56.37,13.64,44.73,3.04,30.62,4.18c17.81-8.4,38.62,3.89,38.09,23.95Z" transform="translate(0.00373 -0.0103)"/>
  <g id="Color">
    <path class="cls-4" d="M68.71,28.13c-1.14,35.41-1.14,35.42-1.14,35.44a13.77,13.77,0,0,1-.89,5c-1.87,4.78-6.62,7.57-11.3,9.1.87-1.42,4.17-7.19,2.13-9.4a2,2,0,0,0-1.87-.64c.29-1.42-.42-3.41-2.2-3.35a53.639,53.639,0,0,0,1.79-7.27c4.11-2.36,7.46-4.72,7.75-4.93a.75329.75329,0,1,0-.87-1.23c-1.7,1.21-4.65,3.16-7.86,5l-.15.09c-4.67,2.66-9.84,5-12.44,4.48a1.73,1.73,0,0,1-1.19-.79c-2-3.43,1.39-7.22,5.66-12,4.61-5.2,9.81-11.08,10.13-18.62h0v-.72C56.37,13.64,44.73,3.04,30.62,4.18,48.43-4.22,69.24,8.07,68.71,28.13Z" transform="translate(0.00373 -0.0103)"/>
    <path class="cls-4" d="M14.53,46.28v6.36c-.42.37-.86.72-1.24,1.11a14.38168,14.38168,0,0,0-1.23,1.36A13.73,13.73,0,0,1,14.53,46.28Z" transform="translate(0.00373 -0.0103)"/>
    <path class="cls-4" d="M21.19,31.03l9.78-2.71a9.58013,9.58013,0,0,1,.17,1.85,9.82022,9.82022,0,0,1-.55,3.28Z" transform="translate(0.00373 -0.0103)"/>
  </g>
  <g id="Sunglasses">
    <line class="cls-5" x1="51.16373" y1="22.2397" x2="65.73373" y2="20.6697"/>
    <path class="cls-6" d="M34.43,24.05c-.85-1.26-1.69-1.9-2.49-1.9s-1.64.64-2.48,1.9l-.49-.33c1-1.43,2-2.16,3-2.15s2,.72,3,2.15Z" transform="translate(0.00373 -0.0103)"/>
    <path class="cls-6" d="M48.12,19.21l-10.86-.44H26.54l-10.78.43a23.00016,23.00016,0,0,1,7.35-1.14H40.7A23.41,23.41,0,0,1,48.12,19.21Z" transform="translate(0.00373 -0.0103)"/>
    <path class="cls-7" d="M50.52,20.65s1.87.31,2,.76l.26,1.37-1.74.81Z" transform="translate(0.00373 -0.0103)"/>
    <path class="cls-3" d="M38.27,31.19c4.51,3.58,10.23,3.94,12.56-1.24s.9-8.76-1.25-10.55-10-2.42-12.6-1.44C30.54,20.37,33.75,27.62,38.27,31.19Z" transform="translate(0.00373 -0.0103)"/>
    <path class="cls-3" d="M15.28,31.08,29.2,27.22c1.51-3.58,1.85-7.67-2.14-9.32-2.59-1.07-10.35-.22-12.6,1.43-2.42,1.75-4.07,5.31-1.26,10.54,2.09,3.92,5.7,4.72,9.47,3.11Z" transform="translate(0.00373 -0.0103)"/>
    <path class="cls-8" d="M14.49,22.8a8.16,8.16,0,0,0,1.44,7,8.68,8.68,0,0,1-2.42-7.13h0a.50359.50359,0,0,1,1,.12h0S14.5,22.78,14.49,22.8Z" transform="translate(0.00373 -0.0103)"/>
    <path class="cls-8" d="M37.41,22.8a8.16,8.16,0,0,0,1.43,7,8.68,8.68,0,0,1-2.42-7.13h0a.50359.50359,0,1,1,1,.12h0S37.41,22.78,37.41,22.8Z" transform="translate(0.00373 -0.0103)"/>
  </g>
</svg>
