<svg height='100px' width='100px'  fill="#000000" xmlns:dc="http://purl.org/dc/elements/1.1/" xmlns:cc="http://creativecommons.org/ns#" xmlns:rdf="http://www.w3.org/1999/02/22-rdf-syntax-ns#" xmlns:svg="http://www.w3.org/2000/svg" xmlns="http://www.w3.org/2000/svg" xmlns:sodipodi="http://sodipodi.sourceforge.net/DTD/sodipodi-0.dtd" xmlns:inkscape="http://www.inkscape.org/namespaces/inkscape" version="1.1" x="0px" y="0px" viewBox="0 0 100 100"><g transform="translate(0,-952.36218)"><path d="m 41.8125,959.36216 c -0.98316,0.093 -1.81675,1.0125 -1.8125,2 -0.0811,3.2339 0.84678,6.2058 1.5625,9.0312 -0.88397,0.1982 -1.57022,1.0629 -1.5625,1.9688 l 0,22.00004 c -0.29466,0.515 -1.28545,1.1568 -1.84375,1.5 -1.56478,0.9563 -3.90464,2.136 -6.3125,3.875 -4.81572,3.478 -9.84375,9.5536 -9.84375,20.625 0,5.6 2.39501,11.5888 5.71875,16.375 3.32375,4.7862 7.54316,8.625 12.28125,8.625 l 20,0 c 4.7381,0 8.95751,-3.8388 12.28125,-8.625 3.32374,-4.7862 5.71875,-10.775 5.71875,-16.375 0,-11.0714 -5.02803,-17.147 -9.84375,-20.625 -2.40786,-1.739 -4.74772,-2.9187 -6.3125,-3.875 -0.72893,-0.3822 -1.33321,-0.9281 -1.84375,-1.5 l 0,-22.00004 c 3.8e-4,-0.8791 -0.64887,-1.7177 -1.5,-1.9375 0.70328,-2.6391 1.5,-4.8945 1.5,-9.0625 -1e-4,-1.0472 -0.95283,-1.9999 -2,-2 -5.38987,0 -10.8115,0 -16.1875,0 z m 2.1875,15 12,0 0,4.00004 -12,0 z m 0,8.00004 12,0 0,12 c 0,1.225 0.6,2.3104 1.3125,3.0625 0.7125,0.7521 1.56364,1.2906 2.46875,1.8437 1.81022,1.1063 3.97036,2.1765 6.0625,3.6876 1.0347,0.7472 2.04812,1.5788 3,2.5624 -6.50324,-1.0255 -13.63139,0.7266 -19.28125,2 -6.86003,1.5377 -13.14927,2.5945 -19.6875,-0.5 1.28383,-1.67 2.7611,-2.9646 4.28125,-4.0624 2.09214,-1.511 4.25229,-2.5812 6.0625,-3.6876 0.90511,-0.5531 1.75626,-1.0916 2.46875,-1.8437 C 43.4,996.6726 44,995.5872 44,994.3622 z" style="text-indent:0;text-transform:none;direction:ltr;block-progression:tb;baseline-shift:baseline;enable-background:accumulate;" fill-opacity="1" stroke="none" marker="none" visibility="visible" display="inline" overflow="visible"></path></g></svg>