<svg height='100px' width='100px'  fill="#000000" xmlns="http://www.w3.org/2000/svg" xmlns:xlink="http://www.w3.org/1999/xlink" version="1.1" x="0px" y="0px" viewBox="0 0 100 100" style="enable-background:new 0 0 100 100;" xml:space="preserve"><path d="M49.224,91.862C48.865,91.73,13.25,78.081,13.25,29.053c0-0.823,0.45-1.582,1.173-1.976l34.5-18.803  c0.671-0.366,1.482-0.366,2.153,0l34.5,18.803c0.724,0.394,1.173,1.153,1.173,1.976c0,49.028-35.615,62.678-35.974,62.81  C50.278,92.046,49.722,92.046,49.224,91.862z M17.759,30.384C18.32,71.712,44.943,85.143,50,87.323  c5.057-2.18,31.68-15.611,32.241-56.938L50,12.812L17.759,30.384z"></path><path d="M54.5,71.938h-9c-1.242,0-2.25-1.008-2.25-2.25V56.75H30.313c-1.242,0-2.25-1.008-2.25-2.25v-9  c0-1.242,1.008-2.25,2.25-2.25H43.25V30.313c0-1.242,1.008-2.25,2.25-2.25h9c1.242,0,2.25,1.008,2.25,2.25V43.25h12.937  c1.242,0,2.25,1.008,2.25,2.25v9c0,1.242-1.008,2.25-2.25,2.25H56.75v12.938C56.75,70.93,55.742,71.938,54.5,71.938z M47.75,67.438  h4.5V54.5c0-1.242,1.008-2.25,2.25-2.25h12.937v-4.5H54.5c-1.242,0-2.25-1.008-2.25-2.25V32.563h-4.5V45.5  c0,1.242-1.008,2.25-2.25,2.25H32.563v4.5H45.5c1.242,0,2.25,1.008,2.25,2.25V67.438z"></path></svg>