<?xml version="1.0" encoding="utf-8"?>
<!-- Generator: Adobe Illustrator 25.2.1, SVG Export Plug-In . SVG Version: 6.00 Build 0)  -->
<svg version="1.1" id="Layer_1" xmlns="http://www.w3.org/2000/svg" xmlns:xlink="http://www.w3.org/1999/xlink" x="0px" y="0px"
	 viewBox="0 0 308.5 307.3" style="enable-background:new 0 0 308.5 307.3;" xml:space="preserve">
<style type="text/css">
	.none-tier-st0{fill:transparent;}
	.none-tier-st1{fill:#1C112B;}
	.none-tier-st2{opacity:0.63;fill:#1C112B;}
	.none-tier-st3{fill:#332754;}
</style>
<rect x="35.8" y="98.5" class="none-tier-st0" width="6" height="5.7"/>
<rect x="130" y="266.9" class="none-tier-st0" width="2.4" height="2.4"/>
<rect x="121.5" y="250.3" class="none-tier-st0" width="4.2" height="4.8"/>
<rect x="126.4" y="274.6" class="none-tier-st0" width="1.4" height="5.7"/>
<rect x="264.5" y="271.8" class="none-tier-st0" width="2" height="7.1"/>
<g>
	<g>
		<path class="none-tier-st1" d="M296.2,75.6c-1,0.3-2,0.7-2.9,1.2c0,0,0,0,0,0c0.1-0.5,0.1-0.9,0.1-1.4c0-0.4,0-0.8,0.1-1.2
			c0-0.2,0-0.4,0-0.6c0-0.2-0.1-0.5-0.1-0.7c0-0.2-0.1-0.4-0.2-0.6c-0.1-0.1-0.1-0.2-0.2-0.3c0.8-0.4,1.5-0.9,2.2-1.4
			c0.4-0.3,0.6-0.7,0.9-1c0.3-0.4,0.4-0.8,0.6-1.1c0.1-0.1,0.1-0.2,0-0.3c0-0.1,0-0.2,0.1-0.4c0.6,0,1.2-0.6,1-1.2
			c-0.5-1.4-2-2.3-3.2-3.1c-1.4-1-2.8-1.8-4.4-2.5c-2.9-1.3-6-2.1-9.2-2.4c-3.3-0.3-6.6,0.1-9.8,1.1c-1.5,0.5-3,1.1-4.3,1.9
			c-1.6,0.9-2.7,1.8-3.9,3.1c-0.2,0.2,0,0.5,0.2,0.5c0,0.1,0,0.2,0,0.2c-0.5-0.4-1.1,0.1-1,0.6c0.1,0.4,0.1,0.7,0.3,1
			c0.2,0.3,0.3,0.5,0.5,0.8c0.4,0.5,0.8,1,1.3,1.5c0.4,0.4,0.8,0.8,1.3,1.2c0.5,0.5,1,1,1.6,1.4c-0.9,3.7-1,7.6-1.4,11.4
			c-0.3,2.8-0.6,5.5-0.8,8.3c-8.3,3.8-13.4,12.1-13.6,20.9c-0.1-0.1-0.1-0.1-0.2-0.2c-0.6-0.7-1.2-1.4-1.9-2
			c-0.5-0.8-1.3-1.2-2.1-1.3c-0.2-0.1-0.4-0.2-0.6-0.3c0-0.2,0-0.4,0-0.6c0-2.2-0.2-6.5-3.4-6.4c0,0,0,0-0.1,0
			c0.7-2.6,1.1-5.4,1.5-8.1c0.5-3.4,0.8-6.8,1.2-10.1c0.4-3.7,0.9-7.4,1.5-11.1c0.7-4.3,1.6-8.6,1.7-13c0.2-7.5-2.7-14.2-8.4-19
			C235,35.6,229,32.6,222,31c-4.6-1-9.3-1.7-14-2.4c-4.4-0.7-8.7-1.7-13-2.9c-10.3-12.6-25.6-21.3-41.5-24.3
			c-9.6-1.8-19.5-2-29.1-0.1c-9.9,1.9-19,6.3-27,12.4c-4.6,3.5-8.8,7.5-12.6,11.9c-0.5-0.3-1.1-0.5-1.8-0.3c-4,1.1-8.2,2.2-12.3,2.9
			c-4.1,0.7-8.2,1.3-12.3,2c-7.3,1.4-14.1,3.6-20,8.2c-5.6,4.4-9.5,10.3-10.2,17.5c-0.4,4.3,0.3,8.7,1.1,12.9
			c0.8,4.4,1.5,8.9,2.3,13.3c0.1,0.7,0.2,1.4,0.4,2.1c-1.1-0.3-2.7,0.5-3.3,1.6c-0.4,0.8-0.5,1.8-0.5,2.7c-2.3,0.7-3.9,2.8-4.3,5.1
			c-0.3,1.4-0.2,2.9,0.2,4.3c0.3,1.1,0.6,2.2,1.2,3.1c-0.1,0.1-0.2,0.2-0.3,0.3c-0.2-0.1-0.5-0.1-0.6,0.1c-0.9,1.3-2.2,2.3-3.4,3.3
			c-1.2,1-2.5,1.8-3.6,2.9c-1,1.1-1.9,2.3-2.4,3.8c-0.4,1.4-0.6,3.3,0.2,4.5c0.2,0.4,0.6,0.5,1,0.4c0.5,0.7,1.5,1.1,2.4,1.1
			c1.4,0,2.6-0.7,3.6-1.6c1.1-1.1,1.9-2.4,2.7-3.7c1.1-1.5,2.1-3,3.2-4.5c0.6-0.8,1.1-1.6,1.7-2.4c0.5-0.7,1.1-1.4,1.4-2.2
			c0-0.1,0.1-0.2,0.1-0.3c1,1.3,2.6,1.4,4.2,1.2c0.1,0.3,0.1,0.6,0.2,0.9c0.3,1.3,0.5,2.6,0.8,3.9c0.2,1,0.6,2,1,2.9
			c-0.7,0.2-1.3,0.5-1.9,0.9c-0.1-0.2-0.1-0.4-0.2-0.5c0.6-1.4-1.4-2.5-2.7-2.2c-2.4,0.6-2.2,3.9-2.1,5.7c0.1,3,0,6,0,9
			c-7.1,2.5-13.4,7.3-18.6,12.7c-2.7,2.8-5.1,5.9-7.2,9.2c-2.1,3.4-4.2,7.1-4.6,11.1c-0.2,1.9,0,4,0.8,5.8c0.4,1.1,1.2,2.4,2.2,3.2
			c-0.3,0.4-0.5,0.7-0.7,1.1c-0.4,0.8-0.7,1.6-1,2.5c-0.5,1.8-0.9,3.7-1,5.5c-0.2,3.6,0.2,7.3,1.3,10.8c2.1,6.7,6.7,12.2,12.8,15.7
			c2.5,1.4,5.4,2.7,8.4,2.9c-0.4,1.3-0.3,3-0.1,3.9c0.5,2.3,2.4,4,4.7,4.6c-0.6,1.9-1.2,3.8-2,5.6c-0.9,1.9-2,3.5-3.2,5.2
			c-2.2,3.1-3.5,7.1-0.2,10c3,2.7,7.3,2.5,11,1.8c3.7-0.6,7.2-2.1,10.3-4.1c3-2,5.3-4.5,7.3-7.5c1.3,1.9,2.7,3.6,4.4,5.1
			c1.7,1.6,3.5,3,5.5,4.1c1.2,0.7,2.6,1.5,4.1,2c-0.2,0.5-0.3,1-0.4,1.5c0,0.1,0,0.1,0,0.2c-0.4-0.2-0.9-0.3-1.4-0.5
			c-1.1-0.2-2.2-0.4-3.3-0.4c-2-0.1-4.7,0.2-5.5,2.4c-0.7,1.9,0.5,3.9,1.4,5.6c0.5,1,1.1,2,1.6,3c0.5,1,1,2,1.7,2.9
			c-1.1,0.6-2,1.3-3,2c-1.4,1.1-2.9,2.1-4.2,3.3c-2.7,2.4-5.2,5.2-7.1,8.3c-3.3,5.4-5,13.1-2,19c-1,0.2-1.9,1-2.5,1.9
			c-1.2,1.9-1.1,4.2-0.7,6.2c0.2,1,0.4,2,0.8,2.9c0.2,0.5,0.4,1,0.7,1.4c0.3,0.4,0.7,0.8,1,1.1c1.2,1.4,3.2,2.3,5.1,1.8
			c0.4-0.1,0.5-0.7,0.4-1c0.1-0.1,0.2-0.2,0.3-0.3c0.2-0.3,0.4-0.5,0.6-0.8c0,0,0,0,0,0c0,0.1,0,0.2,0.1,0.2c0,0.2,0.1,0.3,0.1,0.5
			c0,0,0,0,0,0c0,0,0,0,0,0c0,0.1,0,0.2,0,0.3c0,0.2,0,0.3,0,0.5c0,0.4,0.2,0.7,0.5,0.9c0.1,0.1,0.3,0.1,0.4,0.1
			c0.1,0.3,0.2,0.6,0.4,0.8c0.3,0.3,0.6,0.6,1,0.9c0.7,0.5,1.4,0.9,2.3,1.2c0.8,0.3,1.6,0.4,2.5,0.4c0.4,0,0.9,0,1.3-0.1
			c0.5-0.1,1-0.1,1.3-0.5c0.2-0.2,0.2-0.6,0.1-0.8c0,0,0,0,0,0c0.2-0.3,0.3-0.5,0.5-0.8c0.1,0.2,0.1,0.5,0.2,0.7c0.2,1,0.3,2,1,2.8
			c0.2,0.3,0.7,0.2,0.9,0c1.5,1,3.1,1.7,4.9,2c1.7,0.3,3.6,0.5,5.3,0.1c0.1,0,0.1,0.1,0.2,0.1c0.3,0.1,0.7,0,0.8-0.3
			c0.2-0.4,0.4-0.8,0.5-1.3c0.1-0.4,0.2-0.7,0.3-1.1c0,0,0,0.1,0.1,0.1c0.2,0.4,0.4,0.9,0.6,1.3c0.2,0.5,0.4,1,0.7,1.3
			c0.4,0.4,1.2,0.2,1.3-0.4c0,0,0,0,0,0c0.4,0.4,0.8,0.7,1.3,1c0.5,0.2,1,0.4,1.5,0.6c1.1,0.4,2.2,0.6,3.4,0.6
			c1.1,0,2.3-0.1,3.4-0.3c0.5-0.1,1.1-0.3,1.6-0.5c0.5-0.2,1.2-0.4,1.4-1c0,0,0,0,0.1,0c0.1-0.1,0.2-0.2,0.3-0.3
			c0.1-0.1,0.1-0.2,0.1-0.4c0.1-0.2,0.2-0.5,0.3-0.7c0.1-0.4,0.2-0.9,0.3-1.4c0.1-0.4,0.2-0.9,0.3-1.3c0.2,0.3,0.4,0.6,0.6,0.9
			c0.2,0.4,0.4,0.8,0.5,1.1c0.1,0.3,0.2,0.5,0.3,0.8c0.1,0.1,0.2,0.2,0.3,0.3c0,0.1,0,0.1,0,0.2c0,0.7,0.5,0.9,1.1,1.1
			c0.6,0.2,1.1,0.3,1.8,0.4c1.2,0.1,2.3,0.1,3.5-0.1c1.1-0.2,2.2-0.6,3.3-1.1c1-0.5,1.9-1.4,2.6-2.3c0.2-0.2,0.2-0.5,0-0.7
			c0-0.2,0.1-0.4,0.1-0.6c0.1-0.5,0.1-1,0.1-1.5c0-0.3,0-0.5,0.1-0.8c0.2,0.2,0.3,0.4,0.5,0.7c0.3,0.4,0.5,0.8,0.8,1.3
			c0.3,0.5,0.4,1,0.8,1.4c0.3,0.2,0.6,0.3,0.9,0.1c0.3,0.1,0.7,0.1,1.1,0.1c0.6,0,1.2-0.2,1.8-0.4c1.1-0.3,2.2-0.8,3.3-1.4
			c1-0.6,2-1.3,2.9-2.1c0.4-0.4,0.8-0.8,1.2-1.2c0.5-0.5,0.8-1,1-1.7c0.1-0.3,0-0.5-0.2-0.7c0-0.1,0-0.2,0.1-0.3
			c0.1-0.4,0.1-0.9,0.1-1.3c0-0.2,0-0.4,0-0.6c0.3,0.2,0.5,0.4,0.8,0.5c0.4,0.3,0.7,0.5,1.1,0.8c0.2,0.1,0.4,0.3,0.5,0.4
			c0.1,0,0.1,0.1,0.2,0.1c0,0,0,0,0,0c0.4,1,2.2,0.8,3.1,0.6c1.1-0.2,2.2-0.6,3.1-1.4c1.6-1.3,2.6-3,2.4-5.1
			c-0.1-1.1-0.4-2.2-0.7-3.2c-0.3-1-0.7-2.1-1.2-3c-0.9-1.4-2.5-2.7-4.2-2.7c0.1-0.6,0.2-1.2,0.2-1.8c0.2-1.4,0.1-2.8,0-4.3
			c-0.2-1.4-0.4-2.9-0.8-4.3c-0.2-0.7-0.4-1.5-0.8-2.2c-0.2-0.4-0.4-0.7-0.7-0.9c0.1,0,0.2-0.1,0.3-0.1c0.1,0.2,0.3,0.3,0.6,0.4
			c1.5,0.5,2.8,1.3,4.3,1.6c1.4,0.3,2.8,0.6,4.2,0.8c3.1,0.5,6.2,0.6,9.3,0.7c6,0.1,12.1-0.4,18-1.9c0.1,0,0.1-0.1,0.2-0.1
			c-0.3,0.6-0.5,1.2-0.6,1.8c-0.4,1.4-0.6,2.8-0.8,4.3c-0.2,1.4-0.2,2.8,0,4.3c0.1,0.6,0.1,1.2,0.2,1.8c-1.7,0-3.3,1.3-4.2,2.7
			c-0.6,0.9-0.9,2-1.2,3c-0.3,1.1-0.6,2.3-0.7,3.5c-0.1,2.1,1.2,3.9,2.8,5.1c0.9,0.7,2.1,1,3.1,1.2c0.7,0.1,2.4,0.2,2.7-0.7
			c0,0,0.1,0,0.1-0.1c0.2-0.1,0.4-0.3,0.6-0.4c0.4-0.3,0.7-0.5,1.1-0.8c0.3-0.2,0.5-0.4,0.8-0.5c0,0.2,0,0.4,0,0.6
			c0,0.4,0,0.9,0.1,1.3c0,0.1,0,0.2,0.1,0.3c-0.2,0.2-0.3,0.4-0.2,0.7c0.1,0.3,0.2,0.6,0.3,0.8c0.2,0.3,0.4,0.5,0.7,0.8
			c0.4,0.4,0.8,0.9,1.3,1.2c0.9,0.8,1.9,1.5,2.9,2.1c1,0.6,2.1,1.1,3.3,1.4c0.6,0.2,1.1,0.3,1.7,0.4c0.4,0,0.8,0,1.2-0.1
			c0.3,0.2,0.6,0.1,0.9-0.1c0.4-0.4,0.6-0.9,0.8-1.4c0.2-0.5,0.5-0.9,0.8-1.3c0.2-0.3,0.3-0.5,0.5-0.7c0,0.3,0,0.5,0.1,0.8
			c0,0.5,0.1,1,0.1,1.5c0,0.2,0.1,0.4,0.1,0.6c-0.1,0.2-0.1,0.5,0,0.7c0.8,0.9,1.7,1.8,2.7,2.3c1.1,0.6,2.2,1,3.5,1.1
			c1.2,0.2,2.4,0.2,3.7,0c0.6-0.1,2.9-0.6,2.4-1.6c0.1-0.1,0.2-0.2,0.3-0.3c0.1-0.2,0.2-0.5,0.3-0.8c0.1-0.3,0.3-0.7,0.5-1.1
			c0.2-0.3,0.4-0.6,0.6-0.9c0.1,0.4,0.2,0.9,0.3,1.3c0.1,0.4,0.2,0.9,0.3,1.4c0.1,0.2,0.2,0.5,0.3,0.7c0,0.1,0.1,0.3,0.1,0.4
			c0.1,0.1,0.2,0.2,0.3,0.3c0,0,0,0,0.1,0c0.1,0.6,0.8,0.8,1.3,1c0.5,0.2,1,0.3,1.6,0.5c1.1,0.3,2.3,0.4,3.5,0.4
			c1.1,0,2.2-0.2,3.3-0.5c0.5-0.2,1-0.4,1.5-0.6c0.5-0.2,0.9-0.6,1.4-1c0,0,0,0,0,0c0.1,0.6,0.9,0.8,1.3,0.4
			c0.4-0.3,0.5-0.9,0.7-1.3c0.2-0.4,0.4-0.9,0.6-1.3c0,0,0-0.1,0.1-0.1c0.1,0.4,0.2,0.7,0.3,1.1c0.1,0.5,0.3,0.9,0.5,1.3
			c0.1,0.3,0.5,0.4,0.8,0.3c0.1,0,0.1-0.1,0.2-0.1c1.7,0.4,3.6,0.2,5.3-0.1c1.8-0.3,3.4-1,4.9-2c0.2,0.2,0.7,0.3,0.9,0
			c0.6-0.8,0.7-1.8,1-2.8c0.1-0.2,0.1-0.5,0.2-0.7c0.2,0.3,0.3,0.5,0.5,0.8c0,0,0,0,0,0c-0.1,0.3-0.1,0.6,0.1,0.8
			c0.3,0.3,0.8,0.4,1.2,0.5c0.5,0.1,0.9,0.1,1.4,0.1c0.9,0,1.7-0.2,2.5-0.4c0.8-0.3,1.5-0.7,2.2-1.2c0.3-0.3,0.7-0.5,1-0.9
			c0.2-0.2,0.3-0.5,0.5-0.8c0.2,0,0.3,0,0.4-0.1c0.3-0.2,0.5-0.5,0.5-0.9c0-0.2,0-0.3,0-0.5c0-0.1,0-0.2,0-0.3c0,0,0,0,0,0
			c0,0,0,0,0,0c0-0.2,0.1-0.3,0.1-0.5c0-0.1,0-0.2,0.1-0.2c0,0,0,0,0,0c0.2,0.3,0.4,0.5,0.6,0.8c0.1,0.1,0.2,0.2,0.3,0.3
			c-0.2,0.3-0.1,0.9,0.4,1c1.8,0.6,3.9-0.4,5.1-1.8c0.3-0.3,0.6-0.7,0.9-1c0.3-0.4,0.6-1,0.8-1.5c0.4-0.9,0.6-1.9,0.8-2.9
			c0.4-2.1,0.5-4.4-0.7-6.2c-0.6-1-1.5-1.7-2.5-1.9c3-5.9,1.3-13.6-2-19c-1.9-3.1-4.3-5.7-7-8.1c-1.3-1.2-2.7-2.3-4.2-3.3
			c-1-0.8-2.1-1.5-3.2-2.2c0.7-0.9,1.2-1.9,1.7-2.9c0.5-1,1.1-2,1.6-3c0.9-1.7,2.1-3.6,1.4-5.6c-0.8-2.2-3.5-2.5-5.5-2.4
			c-1.1,0-2.2,0.2-3.3,0.4c-0.5,0.1-0.9,0.2-1.3,0.4c0,0,0-0.1,0-0.1c1.3-0.5,2.5-1.2,3.7-1.9c1.8-1,3.5-2.3,5.1-3.7
			c3.2-2.8,5.9-6.4,8.1-10c4.8-8,7.4-17.1,6.9-26.5c-0.1-1.2-0.2-2.3-0.4-3.5c0.1-0.1,0.1-0.2,0.1-0.3c1.1-3.4,1.7-6.9,2.4-10.4
			c0.2-0.8,0.3-1.6,0.5-2.5c0.1,0.1,0.1,0.2,0.3,0.3c1.2,0.3,2.2,0.4,3.4,0.2c1.1-0.2,2.1-0.6,3.1-1c2.2-0.9,4.3-2.1,6.1-3.7
			c1.7-1.5,3.2-3.4,4.3-5.4c1.1-1.9,1.6-4.1,1.7-6.3c0.5,0.3,1.3,0.2,1.8,0.2c0.9-0.1,1.9-0.4,2.7-0.9c0.8-0.5,1.4-1,2-1.7
			c0.3-0.4,0.5-0.9,0.6-1.4c0.1-0.1,0.2-0.2,0.3-0.3c-0.1,0.9-0.2,1.9-0.3,2.8c-0.4,4.1-0.9,8.2-1.3,12.2c-0.9,8.3-1.8,16.7-2.7,25
			c-1.8,16.7-3.4,33.3-5.2,50c-0.9,8.5-2.2,17.1-2.6,25.6c-1.9-0.6-4.4-0.2-6.3,0.1c-2.6,0.5-5.1,1.5-7.4,2.9
			c-0.4,0.3-0.5,0.8-0.2,1.1c-0.4,1.1-0.8,2.9,0.1,3.6c0,0,1.1,0.4,1.3,0.5c0.6,0.2,1.2,0.5,1.8,0.7c0.9,0.3,1.8,0.6,2.7,0.8
			c2.1,0.5,4.3,0.9,6.5,1.2c0.3,0,0.5,0.1,0.8,0.1c0,2.6,0.1,5.2,0.3,7.7c-0.1,0.6-0.1,1.2-0.1,1.8c0,0.4,0.1,0.7,0.3,1
			c0.2,2.9,0.3,5.8,0.7,8.7c0,0.3,0.2,0.5,0.4,0.6c0.5,0.6,1.5,0.6,1.6-0.3c0.9-6.4,2.3-12.7,3.2-19.1c0.1,0,0.2,0,0.3,0
			c1.6,0.1,3.2,0.1,4.9,0.1c1.9,0,4.1,0,6-0.4c1.4-0.3,2.7-1.1,3.3-2.5c0.3-0.8,0.4-2.5-0.7-2.6c0.1-0.7-0.1-1.5-0.7-2.1
			c-1.3-1.2-3.4-1.6-5-2.1c-1.7-0.5-3.7-1.4-5.5-1.4c0.4-2.7,0.6-5.5,0.9-8.1c0.4-4.1,0.9-8.2,1.3-12.3c0.9-8.4,1.9-16.7,2.8-25.1
			c1.8-16.5,3.7-33,5.3-49.6c0.4-4.6,0.9-9.2,1.3-13.9c0.5-4.8,1.2-9.6,0.9-14.4c0-0.1,0-0.1-0.1-0.1c3.1,0,6.2-0.4,9.1-1.3
			c3-1,6.5-2.8,8-5.7c0.3-0.5,0.1-1.1-0.3-1.5c-0.7-1.5-1.7-2.8-2.7-4.1c-0.1-0.2-0.3-0.3-0.4-0.5c4.7-1.4,8.6-5.9,10.9-10
			c1.4-2.6,2.3-5.5,2.7-8.4c0.3-2,0.5-4.3,0.1-6.4c1.3-3.1,2.3-6.4,3.1-9.6c1.5-5.9,2.4-12.3,0.3-18.1c-1.5-4.3-4.6-7.8-8.7-9.8
			c0,0,0,0,0,0c0.4-0.1,0.2-0.7-0.2-0.6c-0.3,0.1-0.6,0.1-0.9,0.2 M275.9,151.4c0,0,0-0.1-0.1-0.1
			C275.9,151.3,276,151.3,275.9,151.4C276,151.3,276,151.3,275.9,151.4C276,151.3,276,151.3,275.9,151.4z M239.4,178.3
			c0-0.1-0.1-0.1-0.1-0.1c0.2-0.6,0.3-1.2,0.4-1.8c0,0,0,0.1,0.1,0.1C239.7,177.1,239.5,177.7,239.4,178.3z M204,304.8
			C204,304.8,204,304.8,204,304.8C204,304.8,204,304.8,204,304.8C204,304.8,204,304.8,204,304.8z M116.3,295.3
			c-0.1,0-0.1,0.1-0.1,0.1c0-0.1,0.1-0.2,0.1-0.3C116.2,295.1,116.3,295.2,116.3,295.3z M47.9,293.5c-0.1,0-0.1,0-0.2,0
			c0,0,0-0.1,0-0.1C47.8,293.4,47.9,293.5,47.9,293.5z M200.7,36.8c0.2,0.1,0.3,0.3,0.5,0.4c0,0,0,0.1,0,0.1
			c-0.2-0.1-0.4-0.3-0.6-0.4C200.7,36.9,200.7,36.8,200.7,36.8z M238.9,106.3c0.1,0,0.2,0.1,0.3,0.1c0.1,0,0.1,0,0.2,0.1
			c-0.1,0.1-0.2,0.2-0.3,0.3C239.3,106.6,239.2,106.5,238.9,106.3z M163.4,290.9C163.4,290.9,163.4,290.9,163.4,290.9
			C163.4,290.9,163.4,290.9,163.4,290.9C163.4,290.9,163.4,290.9,163.4,290.9z M75.2,43.3c-0.4,0.3-0.8,0.7-1.2,1
			c0.3-0.4,0.6-0.7,0.8-1.1C75,43.3,75.1,43.4,75.2,43.3z M182.3,248c0,0.2,0,0.3,0,0.5c-0.1-0.1-0.3-0.3-0.4-0.4
			C182.1,248,182.2,248,182.3,248z M177.9,244.9c0,0,0.1,0,0.1,0c0,0,0.1,0.1,0.1,0.1C178,245,177.9,245,177.9,244.9z M164.4,247
			C164.4,247,164.4,247,164.4,247c0.1-0.1,0.2-0.1,0.2-0.1C164.6,246.9,164.5,247,164.4,247z M165.2,246.5c0.1,0,0.1-0.1,0.2-0.1
			C165.3,246.5,165.2,246.5,165.2,246.5z M48.7,179.2c-0.3-0.5-0.6-1.1-0.9-1.6c0-0.1-0.1-0.2-0.1-0.3c0.3,0.6,0.7,1.2,1.1,1.7
			C48.7,179.1,48.7,179.2,48.7,179.2z M43,131c0.1,0.9,0.2,1.9,0.6,2.8C43.2,132.9,43,132,43,131z M156.4,152.8
			c0-0.1-0.1-0.2-0.1-0.3c0.3,0,0.6-0.1,1-0.1C156.9,152.5,156.7,152.6,156.4,152.8z M212.2,70.5C212.2,70.5,212.1,70.5,212.2,70.5
			C212.1,70.5,212.2,70.5,212.2,70.5C212.2,70.5,212.2,70.5,212.2,70.5z M224.3,77.4c-0.1-0.3-0.1-0.5-0.2-0.8
			c0.1,0.1,0.1,0.2,0.2,0.3C224.3,77.1,224.3,77.2,224.3,77.4z M224,75.9c0-0.1,0-0.1-0.1-0.2c0,0,0.1-0.1,0.1-0.1
			C224,75.7,224,75.8,224,75.9z M86.1,60.1c-0.4,0.4-0.8,0.7-1.1,1.1c0,0,0,0,0-0.1C85.3,60.8,85.7,60.4,86.1,60.1z M79,126.1
			c-0.1-0.4-0.2-0.8-0.4-1.2c0.1,0.2,0.3,0.4,0.4,0.6C79,125.7,79.1,125.9,79,126.1z M194.8,132c0.1-0.1,0.1-0.2,0.2-0.4
			c0.3-1.2,0.6-2.3,1-3.3c0.1-0.2,0.2-0.4,0.3-0.6c-0.5,1.3-0.9,2.6-1.2,4C195,131.9,194.9,132,194.8,132z M211.5,104.6
			c-0.1,0.2-0.1,0.3-0.2,0.5c0.1-0.7,0.2-1.4,0.2-2.1c0.2-0.2,0.4-0.4,0.6-0.6C212,103.1,211.8,103.8,211.5,104.6z M124.8,110.7
			c-0.1-0.3-0.3-0.5-0.5-0.7c0.1-0.1,0.2-0.1,0.2-0.2C124.6,110.1,124.7,110.4,124.8,110.7z M135.5,107.5c0,0.1,0.1,0.2,0.1,0.2
			c-0.1,0-0.2-0.1-0.3-0.1C135.4,107.6,135.4,107.5,135.5,107.5z M153.7,113.3c0.1-0.2,0.2-0.4,0.2-0.6c0.3,0.3,0.6,0.6,0.8,0.9
			C154.4,113.4,154.1,113.3,153.7,113.3z M176.7,126.5c-1.5,0.2-2.9,0-4.3-0.5C173.8,126.5,175.2,126.6,176.7,126.5z M145.5,95.7
			c-0.3-0.2-0.6-0.3-0.9-0.5c0.5,0.2,1,0.5,1.5,0.8C145.9,95.9,145.7,95.8,145.5,95.7z M147,140c-0.1,0.1-0.2,0.2-0.3,0.3
			c-0.3,0-0.7,0.1-1,0.1C146.2,140.3,146.6,140.2,147,140z M147.9,104.4C147.9,104.4,148,104.4,147.9,104.4c0.1,0,0.1,0.1,0.1,0.1
			C148,104.5,148,104.4,147.9,104.4z M177.2,128.5c-0.8,0.3-1.6,0.5-2.4,0.7c-0.3-0.3-0.7-0.5-1.1-0.7
			C174.8,128.7,176,128.7,177.2,128.5z M210,104.5c0,0,0-0.1,0-0.1c0,0,0,0,0.1,0C210.1,104.4,210.1,104.5,210,104.5z M196.2,116.3
			c-0.2,0.2-0.3,0.4-0.5,0.6c-0.1,0-0.1,0-0.2,0C195.8,116.6,196,116.5,196.2,116.3z M204.8,114.4c-0.8,1.1-1.7,2.3-2.5,3.4
			c-0.6,0.8-1.3,1.7-1.9,2.6c1.3-2.1,2.6-4.2,4.1-6.2C204.6,114.2,204.7,114.3,204.8,114.4z M72.8,113.6c-0.5-0.7-0.9-1.5-1.4-2.2
			c0.3,0.4,0.6,0.8,1,1.1C72.5,112.9,72.6,113.3,72.8,113.6z M141.9,139.8c-0.2,0-0.5,0-0.7,0c0,0,0,0,0,0c-0.5-0.7-1.1-1.5-1.6-2.2
			C140.3,138.4,141.1,139.2,141.9,139.8z M155.5,132.2C155.5,132.2,155.5,132.2,155.5,132.2c0,0,0,0.1-0.1,0.2
			c-0.1,0.3-0.2,0.5-0.4,0.8c-0.1,0.1-0.2,0.2-0.4,0.4C155,133.2,155.2,132.7,155.5,132.2z M156.9,115.8c0,0,0-0.1,0-0.1
			C156.9,115.7,156.9,115.7,156.9,115.8C156.9,115.8,156.9,115.8,156.9,115.8z M197.2,130.2C197.2,130.2,197.2,130.2,197.2,130.2
			c0,0.1,0,0.1-0.1,0.2C197.1,130.3,197.1,130.2,197.2,130.2z M208.9,119.8C208.9,119.8,208.9,119.8,208.9,119.8
			C208.9,119.8,208.9,119.8,208.9,119.8C208.9,119.8,208.9,119.8,208.9,119.8z M217.9,109.3c0.7-1,1.6-2,2.3-3.1
			c0.1,0,0.2,0.1,0.3,0.1c-0.9,1.3-1.8,2.6-2.8,3.9c-1.1,1.4-2.3,2.7-3.5,4C215.5,112.5,216.7,110.9,217.9,109.3z M105.6,82.6
			c-0.1,0-0.2-0.1-0.3-0.1c0.4,0,0.9,0.1,1.3,0.1C106.2,82.6,105.9,82.6,105.6,82.6z M60.3,116.2c-0.1-0.1-0.2-0.2-0.3-0.3
			c0.1,0.1,0.3,0.2,0.4,0.3c0,0.1,0,0.1,0,0.2C60.4,116.3,60.4,116.2,60.3,116.2z M77.4,109.4c-0.1-0.1-0.1-0.2-0.2-0.3
			c0.2,0.1,0.3,0.3,0.5,0.4C77.6,109.5,77.5,109.4,77.4,109.4z M155,151C154.9,151,154.9,151,155,151C154.9,151,154.9,151,155,151
			c0.2,0,0.5,0,0.7,0c-0.2,0.1-0.3,0.1-0.5,0.2C155.1,151.2,155,151.1,155,151z M186.4,137.4c0.2,0,0.3,0,0.5,0
			c-0.6,0.4-1.2,0.7-1.8,1.1C185.5,138,185.9,137.7,186.4,137.4z M224.8,90.2c0,0,0.1,0,0.1,0c0,0.1,0,0.1,0,0.1
			c-0.2,0.2-0.4,0.3-0.6,0.5C224.5,90.5,224.7,90.3,224.8,90.2z M197.1,73.8c-0.2,0-0.5-0.1-0.7-0.1c0.6-0.1,1.2-0.1,1.7-0.2
			C197.8,73.6,197.5,73.7,197.1,73.8z M192.7,74.1c-0.6,0.1-1.3,0.2-2,0.3c-2.3,0.3-4.6,0.4-7,0.5c0,0,0,0,0,0
			C186.9,74.7,189.9,74.4,192.7,74.1z M156.6,76.6c-0.8,0-1.7,0-2.5-0.1c1,0,2-0.1,3-0.1C156.9,76.5,156.8,76.6,156.6,76.6z
			 M95.4,60.1c-0.5,0.4-1,0.8-1.5,1.3c-0.1,0-0.3,0-0.4,0.1c-0.3,0-0.6,0.1-0.9,0.1C93.6,61.1,94.5,60.6,95.4,60.1z M108.9,74.5
			c0.1,0.1,0.3,0.1,0.4,0.1c-1.5-0.1-3-0.2-4.5-0.3C106.1,74.4,107.4,74.5,108.9,74.5z M77.1,71.6c0.1-0.1,0.2-0.2,0.3-0.3
			c0,0.1,0.1,0.2,0.2,0.3C77.4,71.6,77.3,71.6,77.1,71.6z M79.5,66.8c0.1,0,0.1-0.1,0.2-0.1c-1,1.1-1.9,2.3-2.8,3.5c0,0,0-0.1,0-0.1
			C77.7,69,78.6,67.9,79.5,66.8z M95.5,74.7c-0.4,0-0.8,0-1.2,0c-0.7-0.1-1.3-0.1-1.9-0.1c-0.2-0.1-0.4-0.2-0.6-0.2
			C93,74.5,94.2,74.6,95.5,74.7z M128.1,83.4c-0.1,0-0.1,0-0.2,0c-0.1,0-0.3,0-0.4-0.1C127.7,83.4,127.9,83.4,128.1,83.4
			C128.1,83.4,128.1,83.4,128.1,83.4z M77.6,128.9c0,0.2,0.1,0.4,0.1,0.5c-0.2-0.1-0.3-0.2-0.5-0.3C77.3,129.1,77.4,129,77.6,128.9z
			 M79.7,130.7c0-0.2,0-0.4,0-0.6c0.1,0.3,0.2,0.5,0.4,0.8C80,130.9,79.8,130.8,79.7,130.7z M105,128.6c0.8,0.1,1.5,0.2,2.3,0.1
			c0.8-0.1,1.6-0.2,2.4-0.4c-1,0.4-2,0.7-3.1,1.1C106.1,129.1,105.6,128.8,105,128.6z M113.8,126.6c0.3-0.2,0.6-0.4,0.9-0.5
			c-0.3,0.2-0.5,0.4-0.8,0.6c-0.6,0.3-1.2,0.5-1.8,0.7C112.7,127.1,113.3,126.9,113.8,126.6z M126.7,116.4
			C126.7,116.4,126.7,116.4,126.7,116.4C126.7,116.4,126.7,116.4,126.7,116.4C126.7,116.4,126.7,116.4,126.7,116.4z M226.8,81.3
			c0-0.1-0.1-0.1-0.1-0.2c0.3,0.1,0.5,0.2,0.7,0.4c0.6,0.7,0.4,1.7,0.1,2.5C227.5,83.2,227.3,82.3,226.8,81.3z M222.6,76.7
			c-0.1,0-0.1-0.1-0.2-0.1c0.1,0,0.1,0,0.2-0.1C222.6,76.6,222.6,76.6,222.6,76.7z M197.3,60.8c-0.1-0.1-0.2-0.3-0.4-0.4
			c0.1,0,0.2,0.1,0.3,0.2C197.2,60.6,197.3,60.7,197.3,60.8z M202.9,70.2c-0.1-0.3-0.2-0.6-0.3-0.9c0.5,0.8,1,1.5,1.5,2.3
			c-0.6,0.1-1.2,0.2-1.8,0.2C202.9,71.5,203.1,70.9,202.9,70.2z M159.8,66.8c0,0.1,0.1,0.2,0.1,0.3c-0.2-0.2-0.4-0.3-0.6-0.5
			C159.4,66.7,159.6,66.8,159.8,66.8z M179.7,66c0,0.1,0,0.2-0.1,0.3c-0.1,0-0.2,0.1-0.3,0.1C179.4,66.3,179.5,66.1,179.7,66z
			 M162.6,64.7c-0.2,0-0.4-0.1-0.6-0.1c0.2,0,0.4,0,0.6,0c0.1,0.1,0.1,0.1,0.2,0.2C162.7,64.7,162.6,64.7,162.6,64.7z M162.8,74.8
			c0.7,0.1,1.5,0.2,2.2,0.3c-5.5,0.3-11.3,0.4-17.5,0.5C152.7,75.3,157.8,75.1,162.8,74.8z M140.9,75.7c-3.9,0-7.7,0-11.4-0.1
			c1.9,0,3.9-0.1,5.9-0.2c3,0.1,6.1,0.3,9.1,0.2c0.2,0.1,0.3,0.1,0.5,0.2C143.7,75.7,142.3,75.7,140.9,75.7z M131.1,46
			c-0.1,0-0.3,0-0.4-0.1c-0.1,0-0.3,0-0.4-0.1c0.4,0,0.8-0.1,1.2-0.1C131.4,45.8,131.3,45.9,131.1,46z M110.2,49.7c0,0,0,0.1,0,0.1
			c-0.1,0-0.1,0-0.2-0.1C110,49.7,110.1,49.7,110.2,49.7z M90.4,57.4c0,0,0-0.1,0-0.1c0.1,0,0.1-0.1,0.2-0.1
			C90.5,57.3,90.5,57.3,90.4,57.4z M119.3,81.9c0.2,0.1,0.5,0.1,0.7,0.1c-1,0-2-0.1-3-0.1C117.7,82,118.5,81.9,119.3,81.9z
			 M54.5,80.8c0,0,0.1-0.1,0.1-0.1C54.6,80.8,54.5,80.8,54.5,80.8z M113.1,144.7c0.9,0.1,1.9,0.2,2.8,0.2c0.7,0.4,1.4,0.7,2.2,1
			C116.4,145.5,114.7,145.1,113.1,144.7z M215.3,70C215.3,70,215.3,69.9,215.3,70c-0.1-0.1-0.1-0.2-0.2-0.2c0.1,0,0.3-0.1,0.4-0.1
			c0,0.1,0,0.2,0,0.3C215.4,70,215.4,70,215.3,70z M68.5,69.8c0,0.2,0,0.3,0.1,0.5c-0.2,0-0.4-0.1-0.6-0.1
			C68.2,70.1,68.4,70,68.5,69.8z M62.2,70.4C62.1,70.3,62.1,70.3,62.2,70.4c0.1,0,0.3,0,0.5,0C62.5,70.4,62.3,70.4,62.2,70.4z
			 M57.9,75.7c0,0-0.1,0.1-0.1,0.1c0,0,0,0,0,0.1c0-0.1,0-0.2-0.1-0.3c0,0,0-0.1,0-0.1C57.7,75.5,57.8,75.6,57.9,75.7z M54.5,90.2
			c-0.2,0.5-0.3,1.1-0.4,1.6c0-0.5,0.1-1,0.1-1.4C54.3,90.4,54.4,90.3,54.5,90.2z M53,101.3c-0.1-0.1-0.2-0.1-0.3-0.2
			c0.1-0.1,0.2-0.2,0.3-0.3C53,101,53,101.2,53,101.3z M83.4,136.2c0,0-0.1-0.1-0.1-0.1c-0.3-0.2-0.7-0.5-1-0.7
			c0.5,0.3,1.1,0.6,1.6,0.9C83.7,136.3,83.5,136.2,83.4,136.2z M115.7,158.1c0.1,0,0.2,0,0.3,0C115.9,158.1,115.8,158.1,115.7,158.1
			C115.7,158.1,115.7,158.1,115.7,158.1z M235,105.5C235,105.5,235,105.5,235,105.5C235,105.5,235,105.5,235,105.5
			C235,105.5,235,105.5,235,105.5z M229.1,80.7c-0.2-0.3-0.4-0.5-0.7-0.7c0,0,0.1,0,0.1,0C228.7,80.2,228.9,80.4,229.1,80.7
			C229.1,80.6,229.1,80.7,229.1,80.7z M225.4,80.4c-0.1,0-0.3,0-0.4,0c0-0.1,0-0.2-0.1-0.3C225.1,80.2,225.3,80.3,225.4,80.4
			C225.4,80.3,225.4,80.3,225.4,80.4z M218.2,69.5c0,0,0-0.1,0-0.1c0,0,0.1,0,0.1,0.1C218.3,69.5,218.2,69.5,218.2,69.5z M66.3,60.7
			c0,0.2,0.1,0.3,0.2,0.4c-0.1,0.2-0.3,0.4-0.4,0.6c0-0.3,0.1-0.5,0.1-0.8C66.2,60.9,66.3,60.8,66.3,60.7z M64.3,65
			c0-0.2,0-0.4,0-0.6c0.1,0,0.2-0.1,0.3-0.2C64.6,64.5,64.5,64.8,64.3,65z M63.6,68.8c0,0.1,0,0.1,0,0.2c0,0.1,0.1,0.2,0.3,0.2
			c0,0.1,0.1,0.2,0.1,0.4c-0.3-0.1-0.6-0.1-0.9-0.2C63.3,69.2,63.4,69,63.6,68.8z M53.1,97.2c0.1-0.2,0.2-0.5,0.3-0.7
			c0,0.5-0.1,0.9-0.1,1.4c-0.2,0.1-0.5,0.2-0.7,0.3C52.8,97.8,52.9,97.5,53.1,97.2z M46.6,180.7C46.7,180.8,46.7,180.8,46.6,180.7
			c0,0.1,0,0.1-0.1,0.2C46.6,180.8,46.6,180.8,46.6,180.7z M114.9,247.1c0.5,0.3,0.9,0.5,1.4,0.8c0,0.1,0.1,0.1,0.1,0.2
			C115.9,247.7,115.4,247.4,114.9,247.1z M157.9,168.7C157.9,168.7,157.9,168.6,157.9,168.7c0.1,0,0.2,0,0.3,0.1
			c-0.1,0-0.2,0.1-0.4,0.1C157.8,168.9,157.9,168.8,157.9,168.7z M234.8,103.2c-0.1-0.5-0.2-1-0.3-1.4c0.2,0.3,0.4,0.5,0.4,0.6
			c0.1,0.3,0.2,0.6,0.4,0.8C235.1,103.1,235,103.1,234.8,103.2z M86.1,236c0.5,0.2,1,0.3,1.4,0.5C87,236.3,86.5,236.2,86.1,236z
			 M116.7,250.5c-0.2-0.2-0.3-0.3-0.5-0.5c0.9,0.6,1.8,1.2,2.7,1.7C118.2,251.3,117.4,250.9,116.7,250.5z M130.3,157.8
			c0,0.2,0,0.4,0,0.7c-0.3-0.2-0.6-0.4-0.9-0.5C129.7,157.9,130,157.9,130.3,157.8z M158.6,252.8c-1,0.7-2,1.4-2.9,2.1
			C156.5,254.1,157.6,253.4,158.6,252.8z M154.7,258C154.7,258.1,154.7,258.1,154.7,258C154.7,258.1,154.7,258.1,154.7,258
			C154.7,258.1,154.7,258.1,154.7,258z M76.6,42.3C76.3,42.4,76.8,42.1,76.6,42.3c0.3-0.4-0.2-0.2,0.1-0.5
			C76.6,41.9,76.6,42.1,76.6,42.3z M35.8,156c0-0.5-0.1-1-0.1-1.6c0.1,0.3,0.1,0.6,0.2,0.9C35.8,155.6,35.8,155.8,35.8,156z
			 M29.5,205c-0.1,0.1-0.2,0.2-0.3,0.2c-0.3,0-0.6,0-0.8,0C28.8,205.1,29.1,205.1,29.5,205z M101.8,296.4
			C101.9,296.4,101.9,296.4,101.8,296.4C101.9,296.5,101.9,296.5,101.8,296.4C101.8,296.5,101.8,296.4,101.8,296.4z M193.9,293.8
			C193.9,293.9,194,293.9,193.9,293.8c0.1,0,0.2,0,0.2,0.1c-0.1,0-0.1,0-0.2,0c-0.1,0-0.2-0.1-0.3-0.1
			C193.7,293.8,193.8,293.8,193.9,293.8z M242.8,149.7c0.1-0.1,0.1-0.1,0.1-0.2c-0.1,0.3-0.1,0.7-0.2,1
			C242.8,150.2,242.8,150,242.8,149.7z M292.1,72.1c0,0,0.1,0,0.1,0c0,0,0,0,0,0c0,0,0,0.1-0.1,0.1
			C292.2,72.2,292.1,72.1,292.1,72.1z M275.9,61c-0.2,0-0.3,0-0.5,0c0.3,0,0.6-0.1,0.9-0.1C276.2,60.9,276,61,275.9,61z
			 M239.3,103.5c-0.1,0-0.3-0.1-0.4-0.1c0.5-0.4,0.8-1,0.9-1.8c0-0.5,0.1-1,0.1-1.5c0.1,0,0.1-0.1,0.2-0.1c-0.1,1.2-0.1,2.4,0,3.7
			C239.7,103.7,239.5,103.6,239.3,103.5z M80,31.9C80,31.9,80,31.9,80,31.9C80,31.9,80,31.9,80,31.9C80,31.9,80,31.9,80,31.9z
			 M30.4,90c-0.1-0.3-0.1-0.7-0.1-1c0,0,0.1,0.1,0.1,0.1C30.4,89.5,30.4,89.7,30.4,90z M30,98.7c0,0-0.1-0.1-0.1-0.1
			c-0.2-0.7-0.4-1.4-0.5-2.1c-0.1-0.6-0.2-1.3-0.2-1.9c0-0.2,0-0.3,0-0.5c0.3,1.4,0.5,2.8,0.8,4.1C30,98.4,30,98.6,30,98.7z
			 M25.1,205.1c0,0.1,0.1,0.2,0.2,0.3c-0.1,0.1-0.2,0.1-0.3,0.2c-0.1,0.1-0.2,0.2-0.4,0.4c0.1-0.3,0.1-0.5,0.2-0.8
			C24.9,205.1,25,205.1,25.1,205.1z M57.1,254.1c0.6-0.5,1.2-1.1,1.8-1.6C58.4,253.1,57.8,253.6,57.1,254.1z M45.8,266.6
			c-0.2,0.3-0.3,0.6-0.4,0.9c0.3-0.7,0.7-1.4,1-2C46.2,265.8,46,266.2,45.8,266.6z M45,283.9c0,0.1,0,0.3,0.1,0.4
			c-0.2-0.1-0.3-0.2-0.5-0.3c0.1-0.1,0.3-0.2,0.4-0.3C44.9,283.8,45,283.8,45,283.9z M64.9,303.5C64.9,303.5,64.9,303.5,64.9,303.5
			C65,303.6,65,303.6,64.9,303.5c0.1,0,0.1,0.1,0.2,0.1c-0.1,0-0.3-0.1-0.4-0.1C64.7,303.5,64.8,303.5,64.9,303.5z M101.9,302.1
			C101.9,302.1,101.9,302.1,101.9,302.1C101.9,302.1,101.9,302.1,101.9,302.1C101.9,302.1,101.9,302.1,101.9,302.1z M120,273
			c0-0.3,0-0.6,0-0.8c0.1,0.7,0.2,1.4,0.3,2.1c0,0.2,0,0.3,0,0.5C120.2,274.1,120.1,273.6,120,273z M177.4,301.8
			c0,0.2,0.1,0.3,0.2,0.5c-0.1,0-0.1-0.1-0.2-0.1C177.4,302,177.4,301.9,177.4,301.8z M258.1,269.1c0,0.3-0.1,0.6-0.1,0.9
			c-0.2,1-0.3,1.9-0.5,2.9c0,0,0,0.1,0,0.1c0.3-1.7,0.5-3.4,0.7-5.1C258.1,268.3,258.1,268.7,258.1,269.1z M296.5,76.6
			c-0.1,0-0.1,0-0.2,0C296.4,76.6,296.4,76.6,296.5,76.6C296.4,76.6,296.5,76.6,296.5,76.6z M49,222.8c0-0.2,0-0.3,0-0.5
			c0.1,0.1,0.1,0.2,0.2,0.3C49.1,222.7,49.1,222.7,49,222.8z M45.7,297.1c0.1,0,0.2-0.1,0.3-0.1c0,0,0,0.1,0,0.1
			C45.9,297.1,45.8,297.1,45.7,297.1z M124.4,264.1c0,0.1-0.1,0.2-0.1,0.3c-0.1,0-0.2,0-0.2,0C124.1,264.4,124.3,264.3,124.4,264.1z
			 M238.7,182.1c0-0.4,0.1-0.9,0.1-1.3c0,0,0,0,0,0c0,0,0.1,0,0.1,0c0,0.1,0,0.1,0,0.2C238.9,181.4,238.8,181.7,238.7,182.1z
			 M241.7,178C241.6,178,241.6,178,241.7,178c-0.1,0,0-0.2,0-0.3c0.1,0,0.3,0.1,0.4,0.1c0,0,0.1,0,0.1,0
			C242,177.8,241.9,177.9,241.7,178z M274.8,281.1c0,0.2,0.1,0.3,0.1,0.5c0,0.6-0.3,1.1-0.7,1.5c0.4-0.5,0.6-1.2,0.6-1.8
			C274.7,281.2,274.7,281.2,274.8,281.1z"/>
		<path class="none-tier-st1" d="M236,200.8c1.7-3.7,0.5-8.1-0.3-12.2c-0.5-2.7-1.1-5.5-2.6-7.8c3.8-7.9,3.9-17.4-1.6-23.5
			c0.4-0.8,0.7-1.7,0.7-2.9c0.1-6.3-0.9-12.5-2.9-18.4c-1.4-4.1-6-4.6-8.8-2.7c-1.4,0.5-2.5,1.5-3,3.2c-2.2-0.3-4.5,1.4-3.9,4.4
			c0.1,0.5,0.2,1,0.3,1.6c-0.6,0.1-1.2,0.3-1.7,0.6c-8.7,4-17.6,7.5-27,9.8c-8.8,2.1-17.7,2.3-26.4,5.3c-4,1.4-5.5,6.2-2.5,9.3
			c0.6,0.6,1.2,1.2,1.9,1.6c-2.5,0.9-5,1.9-7.4,3.1c-3.2,1.5-4.4,6.5-2.5,9.4c1.3,1.9,2.7,3.5,4.9,4.5c0.5,0.2,1.1,0.4,1.6,0.5
			c-0.5,3.7-1.2,8-1.4,12c-5.6,1.2-11.1,1.7-17.2,1.1c0-0.1-0.1-0.2-0.1-0.3c-2.5-5.4-3.5-8.9-2.3-14.7c0.9-4.3,0.8-8.5-1-12.5
			c0-3.1-0.2-6.1-0.2-9.2c-0.1-3.3-2.5-5.1-5.5-5.5c-3.9-0.5-7.6,0.5-11.4,0.8c-0.6-0.3-1.2-0.6-1.8-0.8c-1.4-0.4-2.7-0.7-4.1-0.9
			c-1.3-0.9-2.9-1.5-4.7-1.5c-3.7,0-7.4-0.4-11.1-0.7c-2.2-0.2-4,0.3-5.2,1.4c0,0-0.1,0-0.1,0c0,0-0.1,0-0.1,0
			c-0.1-0.1-0.2-0.2-0.3-0.3c-6.8-5.4-15.6-8-23.7-10.9c-6.3-2.3-15.9-4.2-17.1,5.2c-0.2,1.7,0.1,3.2,0.7,4.8
			c0.6,1.7,0.7,3.4,1.5,1.6c-1.3,3.1-3.1,5.6-3.7,9.2c-0.8,5.1-1.9,10.1,0.8,14c-3.7,6.8-1.7,14.5-1,22.2c-2.6,8,3.9,16.1,8.1,23
			c0.5,0.8,0.9,1.6,1.4,2.5c1,1.6,2.4,2.2,3.8,2.2c1.2,2.1,2.7,3.8,4.9,5.2c1.8,1.2,3.9-0.1,4.6-1.9c0.3-0.9,2.4-0.7,3.7-0.6
			c6,3,13.4,2.9,18.9,6.6c0.5,0.8,1.2,1.5,2.4,1.9c1.2,2.2,2.4,4.6,2,7c-0.3,1.6,2,2.9,2.9,1.2c4-7.5,11.1-4.7,17.7-0.7
			c0.1,0.3,0.3,0.6,0.6,0.9c1.7,1.6,3.6,3.1,5.6,4.4c0.7,0.5,1.5,1,2.3,1.4c1,3.1,1.2,6.3-0.5,9.3c-0.7,1.2,0.2,2.8,1.6,2.8
			c8.7-0.1,17.2-1.2,25.9-1.3c3,0,4.4-3.7,2.4-5.8c-0.3-1.3-0.6-2.5-0.9-3.8c0-0.1,0-0.2,0.1-0.3c1.9-1.1,3.4-2.4,5.2-3.8
			c1-0.8,2.5-1.7,3.3-2.8c0.4-0.3,0.7-0.5,1.1-0.8c0.5-0.4,0.9-0.8,1.4-1.1c4.5-3,8.7-2.4,13.5-2c0.5,0.6,1,1.2,1.3,1.8
			c1.5,2.6,6.2,0.8,5-2.1c-0.2-0.4-0.3-0.8-0.4-1.2c-0.3-3.4,11.6-5.7,13.5-6.3c3.8-1.3,7.8-2.6,11.6-4.2c2.4,1.6,5.1,2.5,7.9,2.6
			c2.7-2.3,5.3-4.9,8.2-6.7c1.5-1.9,2.9-3.9,4.1-5.9c0.8-1.5,1.5-3,2.2-4.5c0.3-0.7,0.8-1.2,1.3-1.5c-0.1-0.7-0.4-1.4-0.6-2.1
			C235.2,211.1,236.2,206.1,236,200.8z M148.6,250.1c-0.2,0-0.4,0.1-0.6,0.2c-0.8,0.6-1.6,1.3-2.4,1.9c-0.1,0.1-0.2,0.1-0.3,0.2
			c-1,0.7-1.6,1.2-2.2,2.3c-0.6,1.2-0.3,2.3,0.3,3c0.1,0.4,0.2,0.8,0.3,1.3c-2.6,0.2-5.3,0.6-7.8,1c0-1,0-2.1-0.3-3.1
			c0.1-0.2,0.1-0.5,0.2-0.7c1.2-0.4,2.3-1.3,3.1-2.4c3.9-5.3,1.6-14.1,1.2-20.3c0-0.3,0-0.5-0.1-0.8c0.3-2.8,0.4-5.7,0.1-8.4
			c-0.1-2.4-0.2-4.9-0.4-7.3c0.5,0.1,1,0.3,1.5,0.4c1.6,2.9,4.8,4.9,8.2,4.3c-0.7,2-1.3,4.1-1.7,6c-0.9,4.3-0.4,8.9-1.1,13.2
			c-0.5,2.8,1,5.3,3.2,6.4C149.2,248.2,148.9,249.1,148.6,250.1z"/>
		<path class="none-tier-st1" d="M40,191.7c-4.1-6.5-4.4-12.9-4.2-20.4c0.3-7.8-0.9-15.5-0.7-23.2c0-1.7-0.4-3.1-1.3-4.3
			c-0.4-4.4-0.5-8.9,0.9-13c1.6-4.7-5.6-7.7-8-3.4c-2.3,4.3-6.9,5.6-10.5,8.7c-2.8,2.4-5.1,5.3-6.8,8.5c-1,0.9-1.9,1.8-2.8,2.8
			c-4.3,5-4.8,11-3,17.2c0.2,0.5,0.3,1,0.6,1.4c-3.6,7.6-2.5,18.6,1.6,24.8c4.1,6.1,10.1,11.6,16.7,12.7c1.4,1.1,3.2,1.7,5.4,1.2
			c1-0.2,1.9-0.5,2.7-0.9c2.5-1,4.9-2.2,7.1-3.7C40.5,198.2,41.9,194.7,40,191.7z"/>
		<path class="none-tier-st1" d="M266.2,148.2c-3.7,0.2-7.4-1-10.1-3.6c-0.5-0.5-1-0.8-1.6-0.9c0,0,0-0.1,0-0.1c0-0.3,0-0.5-0.1-0.8
			c0.8-1.7,2.1-2.7,4.1-3.3c1.8-0.6,2.9-2.1,3-4c0.3-4,0.5-7.9,0.8-11.9c0.1-1-0.3-1.8-0.9-2.4c0.5-1.1,0.8-2.3,1-3.4
			c0.2-1.6-0.1-3.1-0.5-4.6c-0.4-1.3-1.8-3.2-1.9-4.4c0,0,0,0-0.1,0c0-0.4-0.2-0.9-0.4-1.2c0.8-3.9,2.7-7.4,6-10.2
			c2.7-2.4-1.2-6.1-3.9-3.9c-5.6,4.4-8.6,10.8-8.4,17.6c-0.1,0.9-0.1,1.9-0.1,3.1c0.1,1.3-0.2,2.6-0.6,3.8c-1.1-2.1-2.1-4.2-3-6.6
			c-1.2-4.3-7.8-2.5-6.7,1.9c0.5,2,1,3.9,1.6,5.8c0.7,3.9,0.7,8,0.3,11.8c-1.4,0.8-2.5,2.3-2.4,4.5c0.1,2.9,0.4,5.8,1.1,8.6
			c-0.1,3.2-0.8,6.5-1.3,9.7c-0.9,5.7-1.3,11.4-1.5,17.2c0,0.2,0,0.4,0,0.6c-0.4,0.8-0.8,1.5-1.2,2.3c-1,1.8,0.2,4.3,2.4,4.2
			c6.1-0.1,11.2-4.2,15-8.8c1.9-2.3,2.9-4.6,3.3-7.1c2.4-0.7,5.3-1.3,7.1-2.8c2.1-1.8,1.9-3.9,2.3-6.3
			C270.1,150.6,268.7,148.1,266.2,148.2z"/>
		<path class="none-tier-st1" d="M303.3,116.3c-0.6-1.4-2.3-1.4-2.8,0c-0.6,1.5-0.9,3-1.5,4.4c-0.3,0.6-0.6,1.2-0.9,1.7
			c-0.4,0.4-0.9,0.8-1.3,1.3c-1.4-0.5-3-0.2-3.9,1.6c-0.4,0.8-0.9,1.6-1.3,2.5c-0.8-0.2-1.7-0.1-2.3,0.6c-0.7-0.1-1.4,0.2-1.7,1
			c-0.7,1.8-0.3,3.8,0,5.7c0,0.1,0,0.2,0.1,0.3c0.4,2,3.2,3.6,4.9,1.7c0.3-0.4,0.6-0.7,1-1.1c0.4-0.4,0.6-0.9,0.7-1.3
			c0.6-0.9,1.4-1.7,2.1-2.6c1.3-0.7,2.7-1.6,3.5-2.9c0.4-0.6,0.7-1.3,0.9-1.9c0.1-0.3,0.2-0.7,0.2-1.1c0.4-0.2,0.7-0.5,0.9-0.9
			C303.3,122.5,304.5,119.2,303.3,116.3z"/>
		<path class="none-tier-st1" d="M78.4,126.2c-1.9-6.7-6.5-11-9.8-16.9c-2-3.6-1.8-7.6-3.2-11.4c-1.2-3.3-3.6-5.8-5.9-8.3
			c-2.2-2.3-5.3,0.2-4.9,2.8c0.8,4.6,0.5,9.7-0.1,14.3c-0.1,0.8,0.1,1.5,0.5,2c-0.5,1.1-0.4,2.4,0.5,3.5c1.5,1.7,3.1,3,4.9,3.9
			c0,0.8,0.4,1.7,1.3,2.3c4.5,3,8.5,6.6,12.3,10.3C75.9,130.6,79.2,128.8,78.4,126.2z"/>
		<path class="none-tier-st1" d="M83,59.3c-2.6,1-4.8,2.9-7.2,4.3c-2.4,1.4-4.8,3.1-6.8,5.1c-1.4,1.3,0.1,3.3,1.7,2.9c0,0,0,0,0,0
			c0.2,0,0.4-0.1,0.5-0.2c1,0.6,2.2,0.7,3.5,0.9c1.7,0.2,2.6-2.1,1.8-3.3c0.6-0.4,1.2-0.8,1.8-1.3c2.2-1.8,4.9-3.6,6.4-6
			C85.5,60.5,84.3,58.8,83,59.3z"/>
		<path class="none-tier-st1" d="M103.4,50.3c-4.1,0.1-9.7,2-10.6,6.5c-0.1,0.6,0.4,1.2,1,1c2.8-0.8,5.2-2.5,8.2-3c3.9-0.6,6.3,1.1,9.7,2.8
			c1,0.5,2.5-0.1,2.4-1.4C113.6,51.6,107.3,50.2,103.4,50.3z"/>
		<path class="none-tier-st1" d="M177.4,61.1c-4.6,2.9-10.4,8.6-16.2,4.4c-0.6-0.4-1.6,0.1-1.5,0.9c0.5,3.9,5.2,4.1,8.4,4
			c4.5-0.2,9-3.5,11.2-7.3C180,61.9,178.6,60.4,177.4,61.1z"/>
		<path class="none-tier-st1" d="M212.1,67.2c-2.8-1.2-5.2-2.8-7.6-4.7c-0.6-0.4-1.2-0.4-1.6-0.2c-0.8-0.8-1.8-1.5-2.9-2c-1-0.4-2,0.5-1.5,1.5
			c0.7,1.6,1.8,2.9,2.7,4.5c0.8,1.3,1.5,2.8,2.4,4.1c1.9,2.6,5.5,1,8.1,0.2C213.1,70.3,213.7,67.9,212.1,67.2z"/>
		<path class="none-tier-st1" d="M222.6,100.7c0.1-0.5,0.1-1.1,0-1.6c0-0.2-0.1-0.4-0.2-0.6c-0.1-0.9-0.2-1.8-0.4-2.6
			c-0.3-1.5-2.6-2.1-3.5-0.9c-1.2,1.5-2.3,3.1-3.3,4.7c-0.4-0.1-0.9,0-1.1,0.3c-1.7,1.6-1.8,2.6-2.5,4.8c-1,3.3-2.4,5.7-4.2,8.6
			c-0.2,0.4-0.5,0.8-0.7,1.2c-5,3.1-6.7,9.4-9.7,14.2c-0.7,1.1,0.7,2.5,1.8,1.8c4.5-2.8,7.5-6.3,10.2-10.5c3.5-3.1,6.2-6.8,9-10.6
			c0.7-1,1.6-2,2.3-3.1c1.2,0.4,2.7-0.2,2.6-1.8C222.8,103.1,222.7,101.9,222.6,100.7z"/>
		<path class="none-tier-st1" d="M234.8,118.2c-0.8-1.9-2.5-3.6-4.5-4.1c1-3.2,2.9-5.9,2.5-9.7c-0.2-1.7-0.7-3.4-1.6-4.9c-1-1.6-2.7-2-3.8-3.3
			c-1.3-1.7-4.3-1.8-4.9,0.6c-0.4,1.8-0.1,3.4,0.8,4.7c-0.1,0.2-0.1,0.5-0.1,0.7c-0.1,0.7-0.1,1.5-0.2,2.2c-1.2,5-7.1,10-10.3,13.4
			c-2.2,2.4-4.6,5-6.4,7.8c-0.1,0-0.2,0.1-0.2,0.2c-3,2.4-6.5,4.6-9,7.6c-4.1,2.2-8.2,4.3-12.2,6.4c-5.1,2.8-9.9,6.1-15.3,8.2
			c-4.8,1.9-10.2,2.8-14.7,5.4c-0.6,0.3-0.7,1.2-0.4,1.7c0,0.2,0,0.4,0.2,0.5c-0.1,0.2-0.3,0.5-0.4,0.7c0,0.1-0.1,0.1-0.1,0.2
			c-0.4,0.1-0.8,0.2-1.2,0.3c-1,0.3-1.1,1.8,0,2.1c0.6,0.2,1.3,0.3,1.9,0.4c0.6,0.4,1.4,0.7,2.1,0.5c0.5-0.1,1.1-0.2,1.6-0.3
			c3.6,0,7.3-0.8,10.8-1.8c6.6-1.1,13.1-2.5,19.2-5.1c0.9-0.4,1.8-0.8,2.8-1.2c0.3,0,0.6,0,0.9-0.1c0.9-0.3,1.7-0.6,2.5-0.9
			c9.1-3.4,17.8-7.4,25.9-12.9C227.3,133.4,239,128.2,234.8,118.2z"/>
		<path class="none-tier-st1" d="M104.7,156.8c6,0.2,11.7,1.8,17.7,1.8c3.3,0,6.5-0.6,9.8-1.1c0-0.2,0-0.4,0.1-0.6c4.7-0.2,4.6-7.4-0.2-7.5
			c-1.9,0-3.7,0-5.6,0.1c-0.7,0-1.4,0.3-1.9,0.6c-1.4-0.5-2.9-0.8-4.4-1.3c-3.1-1.1-6-2.5-9.2-3.3c-2.7-0.7-6.1-1.8-9.1-1.6
			c-0.7-0.3-1.4-0.7-2.1-1c-5.3-2.4-10.6-5.6-16.3-6.7c0,0-0.1-0.1-0.1-0.1c-3.8-2.7-7.5-5.4-11.5-7.8c-4-2.4-7.1-5.4-10.3-8.8
			c-2.1-2.4-4-5.2-6.8-6.7c-0.8-3.2-0.8-6.9-0.9-9.9c0-2-3.1-3.1-4.1-1.1c-2.6,5.6-4.5,11.5-1.7,17.2c-0.6,0.3-1.1,0.8-1.6,1.5
			c-3.6,5.6-5.5,12.4,0,17.5c2.7,2.5,6.5,3.7,10,4.6c4.6,1.3,8.8,3,13,5.4c1.1,0.7,2.2,0.9,3.2,0.8c3.1,1.9,6.6,3.1,10.3,3.4
			c0.7,0.3,1.4,0.6,2.2,0.9c3.9,1.4,8.1,2.1,12.2,2.8c2.3,0.4,4.6,0.7,6.9,1C104.4,156.9,104.5,156.8,104.7,156.8z"/>
		<path class="none-tier-st1" d="M210.2,54.8c-0.2-0.3-0.4-0.5-0.6-0.8c0.2-0.8,0.3-1.7,0.2-2.7c-0.4-5.1-4.7-9.1-7.8-12.9
			c-1-1.2-2.6-1.7-4.2-1.6c-0.2-0.5-0.4-0.9-0.6-1.4c-2.1-3.6-4.7-6.8-7.6-9.8c-4.5-6.4-12.2-11.3-18.9-13.4
			c-5.9-4.1-12.1-5.9-18.7-6.8c-3-0.7-6-1.1-9.3-1c-11.2-4.4-25.7,0.2-35.5,5.9c-7,4-13,8.4-18.4,14.4c-4.3,4.8-11.2,11.3-12.3,17.8
			c-0.1,0.6-0.1,1.2,0,1.7c0,0-0.1,0.1-0.1,0.1c-0.2,0.2-0.4,0.4-0.5,0.6c-1,0.2-1.9,0.6-2.7,1.3c-3.4,2.7-5.6,6.7-6.2,11
			c-0.2,1.4,0,2.8,0.7,3.9c-1.5,1.8-2.7,3.7-3.7,5.8c-0.9,2,1.2,5.3,3.5,3.5c8.6-6.6,18.4-12,27.7-17.5c1.9-1.1,3.9-2.3,5.8-3.3
			c1,0.5,2.2,0.7,3.5,0.2c14.2-5.4,29.5-6,44.6-7c0.4,0.5,0.9,0.8,1.5,1.1c7.1,2.9,15.6,2.7,23,4.7c6.6,1.8,14.8,3.4,20.3,7.7
			c1.8,1.4,3.7,1.9,5.4,1.8c0.7,0.6,1.5,1.2,2.2,1.8c1.4,2.5,5,4.2,7.3,5.2c0.2,0.1,0.4,0.1,0.6,0.2c0.6,1.1,1.1,2.2,1.9,3.2
			c2.2,2.6,7.1,0.6,6.9-2.9C218.1,61.3,214.1,57.1,210.2,54.8z"/>
		<path class="none-tier-st1" d="M152.1,114.1c-4.7,0.2-11-4.5-16.1-4c-2.1-1.6-4.2-2.9-6.4-4.1c-0.3-0.2-0.5-0.4-0.8-0.5
			c-0.9-0.5-1.9-1.1-2.9-1.6c-0.9-0.5-2.2,0.6-1.6,1.6c0.3,0.4,0.6,0.8,0.9,1.3c-0.5,0.7-0.6,1.7,0,2.8c3.2,5.8,5.6,11.7,9.5,16.9
			c0,0.6,0.1,1.2,0.4,1.8c0.5,1,1.1,2.1,1.8,3c0.3,0.8,0.6,1.5,1,2.2c0.4,0.7,0.9,1.4,1.4,2c0.4,0.5,1.6,1,1.7,1.7
			c0.2,1.4,2.2,2.6,3.5,2c1.4-0.6,2.8-1.2,4-2c0.7-0.5,1.2-1.1,1.3-1.8c0.2-0.2,0.4-0.4,0.6-0.7c3.8-5.1,4.9-10.6,5.3-16.8
			C156,115.9,154,114,152.1,114.1z"/>
		<path class="none-tier-st1" d="M221.8,69.7c-7.1,0.8-14.3,1.7-21.2,3.2c-0.5,0.1-1.9,0.4-3.5,0.9c-2-0.4-3.9,0.3-6.4,0.6
			c-4.3,0.5-8.9,0.6-13.2,0.6c-7.1,0.1-14.2-0.6-20.9,1.6c-3.9-0.1-7.8-0.2-11.7-0.2c-6,0-11.7,0-17.7-0.4c-1.6-0.1-3.1-0.1-4.5,0.2
			c-0.3-0.1-0.6-0.2-1-0.2c-6.4-0.1-12.7-0.6-19.1-0.8c-2.8-0.1-5.6-0.5-8.4-0.5c-0.7-0.1-1.3-0.1-1.9-0.1c-4.4-2-10.2-1.6-14.7-2.1
			c-5.2-0.7-10.3-1.8-15.5-2.1c0-0.2-0.1-0.3-0.2-0.5c-0.3-0.4-0.7-0.8-1.2-0.9c-0.6-0.1-1,0-1.5,0.2c-0.4,0.2-0.7,0.3-1.1,0.5
			c-0.4,0.2-0.8,0.8-0.9,1.2c-0.1,0.4-0.1,1,0.1,1.4c0,0.2,0,0.4,0.1,0.6c0.1,0.3,0.1,0.5,0.2,0.8c0.1,0.2,0.2,0.4,0.3,0.6
			c1,1.7,2.8,2.5,5,2.7c2.1,0.2,4.2,0.4,6.3,0.5c2.1,2.2,5.3,2.3,8.3,2.4c1.9,0,3.9,0.2,5.9,0.1c0.2,0.6,0.6,1.1,1.4,1.3
			c2.6,0.7,5.7,1.3,8.2,0.1c3.2,0.5,6.6,0.4,9.7,0.5c5.5,0.3,11,0.1,16.6,0c4,1,8,0.8,12.1,0.9c5.9,0.2,11.8,1.4,17.7,1.3
			c5.3,0,10.7-0.5,16-0.9c2.7-0.2,5.3-0.1,7.7-0.8c1.2,0.1,2.5,0.2,3.7,0.3c7.2,0.7,13.8,0.9,20.8-0.8c0.7-0.2,1.4-0.6,1.9-1.1
			c1.5-0.2,3-0.6,4.3-0.8c6.4-1.2,12.7-2.8,19-4.5C225.7,74.6,225.2,69.2,221.8,69.7z"/>
		<path class="none-tier-st1" d="M226.8,81.3c-0.7-1.4-2.8-1.2-3.5,0c-1.7,2.8-5.7,5.5-8,7.9c-2.6,2.7-5.4,5.3-8.1,8c-0.7-0.6-1.7-0.9-2.7-0.5
			c-4.5,1.6-7.8,5.1-11.2,8.4c-3.4,3.3-6.8,6.6-9.7,10.5c-1,0.7-2,1.4-2.7,2.3c0,0,0,0,0,0c-2.1,1-4.4,2.1-6.7,1.4
			c-3-0.9-5.9-5.1-8-7.2c-4.5-4.6-9.1-9.8-14.3-13.6c-0.9-0.7-1.9-0.7-2.8-0.4c-3-2.2-6.4-4.1-10.3-3c-3.3,0.9-8.1,4.6-9.8,7.5
			c-1.1,1.9,0.3,4,2.4,4.2c2.9,0.3,5.4-1.7,7.8-3.2c2.6-1.6,5.7,0,8.6,0.9c5.1,7,12.5,14,19.3,19.2c5.5,4.2,13.5,3.9,18.5-1.1
			c1.2,0.4,2.6,0.2,3.6-0.9c4.1-2.8,7.5-6.2,10.9-9.8c1.5-1.6,3.1-3.2,4.5-4.9c2.9-2.1,5.7-4.1,8.4-6.5c3.8-3.4,7.6-6.9,10.9-10.7
			C226.6,86.9,228.6,85,226.8,81.3z"/>
		<path class="none-tier-st1" d="M125.9,113c-0.4-0.8-0.7-1.5-1.1-2.3c-1-2.1-4.7-1.6-5.1,0.7c-0.1,0.3-0.1,0.7-0.2,1
			c-0.2,0.1-0.4,0.3-0.5,0.5c-3.6,1.8-6.5,4.8-10.5,5.6c-4,0.9-7-3-10.7-3.1c-0.2-0.3-0.5-0.5-0.9-0.7c-4.9-3-8.7-7.3-13.1-11
			c-4.5-3.8-8.9-7.8-13.6-11.4c-0.6-0.5-1.3-0.7-1.9-0.8c-0.1-0.1-0.1-0.3-0.2-0.4c-1.1-1.5-2.3-2.8-4-3.7c-0.4-0.2-0.9-0.3-1.3-0.4
			c-0.5-0.5-0.9-1-1.3-1.4c-1.5-1.7-2.4-4-4.4-5.1c-1.6-0.8-3.4,0.2-3.5,2c-0.1,3,2.5,5.7,4.5,7.8c1.9,2,3.8,3.8,6.2,5
			c0.1,0.6,0.4,1.3,1.1,1.9c8.6,8.4,18,16.8,27.9,23.7c0.4,0.3,0.9,0.5,1.3,0.5c2.7,3.7,8.7,6.2,12.9,5.9c2.7-0.2,5.5-1.4,7.9-2.8
			c1.9-1.1,3.9-3.9,5.9-5.7c0.3-0.1,0.6-0.4,0.8-0.6c0.7-0.5,1.4-0.9,2-1.1C126.1,116.7,126.6,114.6,125.9,113z"/>
		<path class="none-tier-st1" d="M122.3,253.8c-1.8-1.3-3.8-2.2-5.7-3.3c-1.3-1.5-2.8-2.7-4.7-3.2c-1.3-0.9-2.7-1.7-4.4-2
			c-5.2-1-10,2-12.7,6.3c-0.3,0.5-0.6,1.1-0.9,1.6c0.4-2.6,0.6-5.2,0.1-7.3c-1.2-4.5-5.9-6.1-9.7-7.8c-4.6-2.1-9.3-4.5-14.5-4.2
			c-2.4,0.2-4.1,1.5-4.9,3.8c-0.1,0.4-0.2,0.7-0.3,1.1c-2.5-1.6-6-1.9-8,0.3c-1.2,1.3-0.9,4,1.2,4.4c0,0,0,0,0,0
			c0.1,0.3,0.2,0.6,0.4,1c0.4,1,0.4,2,0.8,3c0.4,1.1,0.9,2.2,1.5,3.1c-0.5,0.6-0.9,1.1-1.3,1.7c-2.2,2.4-5.3,3.9-7.6,6.2
			c-2.4,2.3-4.1,5.2-5.7,8.1c-3.2,6.1-4.4,11.7-0.9,17.3c0.1,1,0.4,2,0.9,2.8c3,4.6,7,5.6,12.1,6.3c6,0.9,12,1.8,18,2.4
			c10.7,1,22.4,0.3,30.8-7.1c4.3,4.2,10.4-1,13.9-4c1.8-1.5,1.6-4.1,0.8-6.1c-0.7-1.7-1.2-3.5-1.5-5.4c0.2-2.5-0.3-5.2-0.8-6.8
			c1.3-1.3,2.6-2.5,3.9-3.8c1-0.9,1.3-2,1.2-3.1C125.3,257.2,124.9,254.6,122.3,253.8z"/>
		<path class="none-tier-st1" d="M235.8,272.4c-2.5-10-8.5-16.7-17-21.7c0.1-0.1,0.1-0.3,0.2-0.4c1.1-2.9,2.3-5.8,3.4-8.7c1-2.4-1.8-4.4-4-4
			c-1.4,0.3-2.8,0.6-4.2,1c-0.1,0-0.2,0.1-0.2,0.1c0-0.2,0-0.3,0-0.5c0.3-4.3-4.6-6.1-7.9-4.5c-3.6,1.8-7.4,2.9-11.3,3.9
			c-3,0.7-5.7,1.7-7.6,4.3c-2.1,2.9-2,7.2-1.1,11.4c-0.3,0.2-0.6,0.4-0.9,0.6c-2.5-2.9-5.4-6.5-8.6-8.2c-3.5-1.9-6.4,0-9.4,1.9
			c-4.2,2.6-8.4,5-12.3,8.1c-0.8,0.7-0.8,1.7-0.3,2.6c-0.3,1-0.3,2.1,0.3,3.3c0.9,1.8,2.4,3.7,4.3,5.1c-1.7,5.7-1.9,12.5-0.4,17.5
			c0.7,2.2,2.2,3.3,3.8,3.5c0.8,1.3,2,2.4,3.7,3c4.9,1.9,10.5,5,15.9,5.1c3.1,0.1,6.3-1,9.3-2.4c0.8,0.2,1.6,0.4,2.4,0.6
			c4.1,1,8.2,2.1,12.5,1.4c3.7-0.6,7.9-1.9,11.8-3.8c1.2,1.2,2.9,1.8,4.8,1.1C232.4,289.2,238.4,282.9,235.8,272.4z"/>
		<path class="none-tier-st1" d="M127.2,288.1c0.5-3.1-2.2-6.5-5.3-6.5c-1.6,0-2.2,1-3.4,1.9c-0.2,0.1-0.4,0.2-0.6,0.4c-0.9-0.2-1.7,0-2.6,0.5
			c-1,0.6-1.8,1.3-2.3,2.3c-0.1,0-0.1,0.1-0.2,0.1c-1.6,1-3.1,0.9-4.9,1.3c-1.5,0.3-3.1,1.1-4.4,1.9c-0.3,0.2-0.6,0.4-0.8,0.7
			c-1.5,0.1-3,0.3-4.5,0.6c-0.2,0-0.4,0.1-0.6,0.2c-0.3,0-0.5,0-0.8,0.1c-1.5,0.3-3.1,0.7-4.6,1.5c-0.5,0-1,0-1.6,0.1
			c-0.2-0.3-0.5-0.5-0.7-0.7c-0.8,0.2-1.6,0.3-2.3,0.4c-1.2,0.2-2.5,0.4-3.8,0.3c-0.8,0.2-1.6,0.5-2.4,0.5c-2.2,0.2-4.8-0.4-7-0.8
			c-1.9-0.3-3.9-0.8-5.7-0.4c-0.2-0.2-0.3-0.3-0.5-0.5c-1.2-0.4-2.5-0.7-3.7-1c-0.4-0.1-0.9-0.2-1.3-0.4c-1.3-0.1-2.5-0.2-3.8-0.5
			c-0.5-0.2-1.1-0.3-1.7-0.3c-0.5,0-0.8,0.1-1.2,0.2c-0.2-0.2-0.4-0.3-0.6-0.5c-1.3-0.9-3.2-1.4-4.6-2c-1.8-0.8-3.7-1.5-5.5-2.3
			c-0.1-0.1-0.1-0.2-0.2-0.4l0,0c-1.2-2-5.1-1.5-4.8,1.3c0,0,0,0,0,0c-0.7,0.9-1.1,1.8-0.9,3.5c0.3,2.1,1.6,4.2,2.6,6.1
			c1.2,2.5,5,1.2,5-1.4c0-0.3,0.2-0.3,0.3-0.7c0.2,0.1,0.3-0.3,0.6-0.2c0.3,1.5,0.4,3.1,1,4.5c0.7,1.7,2,2,3.6,2.4
			c1.6,0.3,3,0.5,4.3-0.8c0.5-0.6,0.9-1.3,1.2-2.1c0,0.1,0.1,0.1,0.1,0.2c0.2,0.5,0.5,1,0.9,1.4c0.1,0.2,0.2,0.3,0.3,0.5
			c-0.1,1.4,0.6,2.9,2.1,3.3c0,0,0,0,0,0c0.9,0.4,1.9,0.4,2.9,0.4c0,0,0,0,0,0c0,0,0.1,0,0.1,0c1.6,2,5.9,2,6.2-1.2
			c0.3-0.8,0.6-1.5,0.6-2.4c0,0,0,0,0,0c0.4,1.2,1.4,2.3,2.4,3.2c-0.2,1.1,0.8,2.3,2,2.1c1.1,0.7,2.5,0.8,3.8,0.8
			c0.6,0.6,1.5,1,2.5,0.8c1.9-0.5,4.4-0.3,5.5-2.2c0.5-0.8,0.7-1.9,0.9-2.8c0.2-0.6,0.3-1.2,0.4-1.8c0.1,0.4,0.3,0.8,0.7,1.2
			c1.1,1,0.8,2.5,2.1,3.5c1.6,1.2,4,0.3,5.7,0.1c2.1-0.3,4.2-1,4.3-3.5c0.1-1.6-0.1-3.2-0.2-4.8c0.4,0.2,0.8,0.2,1.2,0.1
			c0.1,0.1,0.2,0.2,0.3,0.4c-0.2,0.7,0.2,1.3,0.8,2.2c0.3,0.3,0.6,0.6,0.9,0.9c0.2,1.1,1.2,2.1,2.4,1.5c2.4-1,6-2.1,7.7-4.2
			c1.4-1.7,1.4-4.3,1.5-6.5c0,0,0-0.1,0.1-0.1c0.2,0,0.4-0.1,0.6-0.2c0.3,0.8,1,1.5,1.8,1.6c0.7,0.1,1.8,1.4,3,1.5
			c1.5,0.1,3-0.9,4.2-1.6C128.1,291.2,128.1,289.4,127.2,288.1z"/>
		<path class="none-tier-st1" d="M82.7,271c-0.4-2-1.7-3.6-3.5-5c-0.1-0.3-0.2-0.5-0.5-0.8c-5.7-5.6-14.5-7.6-22.3-7.7c-1.8,0-2.5,1.6-2.3,3
			c0,0.1-0.1,0.2-0.1,0.4c-0.1,0.3,0,0.6,0,0.9c-0.1,0.3-0.2,0.7-0.1,0.9c0.1,0.5,0.6,0.8,1,0.9c0.3,0,0.5,0,0.7-0.1
			c2.8,1.7,6.8,2.1,9.8,3.2c4.7,1.8,9,4.3,13.1,7.3C80.8,275.6,83.1,273.1,82.7,271z"/>
		<path class="none-tier-st1" d="M84,254.2c-4.4-2.5-8.9-4.1-13.9-4.9c0,0-0.1,0-0.1,0c0,0,0,0,0,0c-0.2,0-0.4-0.1-0.6-0.1
			c-0.5-0.1-0.9,0-1.3,0.2c-0.2-0.3-0.5-0.5-0.9-0.5c-1.5-0.3-2.7-0.1-3.5,0.8c-2.1,0.5-2.7,4-0.1,4.6c3.1,0.7,6.1,1.4,9.2,2.2
			c1,1,2.2,1.6,3.7,2.4c2.7,1.4,5,3.3,7.7,4.7c2.5,1.3,6.8,1.9,7.5-2C92.3,257.9,86.5,255.6,84,254.2z"/>
		<path class="none-tier-st1" d="M216.7,251.9c-1.9-4.7-7.2-3.2-11.3-2.5c-6.3,1-11.7,3.8-15.7,8.9c-0.1,0.2-0.3,0.4-0.3,0.6
			c-0.1,0-0.2,0.1-0.4,0.2c-0.6,0.3-1,1.1-1,1.7c0,7.3,7.6,2.4,11.6-0.6c0.3,0.1,0.6,0,1-0.1c4.8-2.1,9.5-4.1,14.6-5.4
			C216.3,254.3,217.1,253,216.7,251.9z"/>
		<path class="none-tier-st1" d="M225.7,261.3c-1.9-4.8-7.9-2.7-12-2c-5.3,0.8-12.3,3.4-15.2,8.2c-0.1,0.2-0.2,0.4-0.3,0.6
			c-2,1.7-3.2,4.3-0.3,5.9c4.2,2.3,12.1-6,15.7-7.7c3.2-1.3,6.8-2,10.1-2.4C224.9,263.8,226.3,262.7,225.7,261.3z"/>
		<path class="none-tier-st1" d="M238,284.9c-0.8-1.6-3.3-1.9-4.5-0.6c-1.5,1.8-3.8,2.6-6,3.5c-0.3,0-0.6,0.1-0.9,0.3c0,0,0,0,0,0
			c-0.1,0-0.1,0.1-0.2,0.1c0,0-0.1,0-0.1,0c-1.4,0.6-2.9,1-4.1,1.8c-0.3-0.1-0.6-0.1-0.9,0c-1.4,0.4-3.7,0.8-5.3,1.7
			c-0.8-0.6-1.9-0.7-3.2-0.1c-4.6,2.3-8.8,1.4-13.7,1.7c-1.8,0.1-3.5-0.7-5.2-0.3c-0.2-0.1-0.6,0.6-0.8,0.6
			c-1.2-0.3-2.5-0.1-3.7-0.4c-1.2-0.4-2.2-0.4-3.4-0.1c-1.3-0.6-2.9-0.7-4.2-0.9c-0.9-0.3-1.7-0.6-2.6-0.9c-1.3-0.4-2.8-1.2-4.1-1
			c-1.6-0.9-3.3-1.5-5.1-1.4c-0.1-0.1-0.3-0.3-0.5-0.4c-2.2-1.4-4.8-2.1-6.9-3.5c-1.7-1.1-3.2-3.6-5.3-3.9c-3.9-0.6-5.1,6.1-5.6,8.7
			c-0.2,0.8,0.1,1.7,0.9,2.1c0.5,0.2,0.9,0.4,1.3,0.6c0.2,0.7,0.7,1.3,1.5,1.5c2.6,0.8,5.3-2,7.2-3.3c0.1,0,0.1-0.1,0.2-0.1
			c0.2,0.1,0.3,0.1,0.5,0.2c0,0,0,0,0,0.1c0,0,0,0,0,0c-0.4,0.3-0.7,0.8-0.7,1.3c-0.1,0.5,0.1,1.1,0.4,1.5c-0.2,0.6-0.3,1.1-0.3,1.7
			c0,1.5,1.3,2.5,2.4,3.2c2,1.4,4.9,3.3,7.5,2.5c1.2-0.4,2.1-2.2,2.6-3.2c0.3-0.5,0.5-1,0.7-1.6c0.4,0,0.7,0.1,1.1,0.1
			c0.1,1.5-0.1,3.2,0,4.7c0.1,1.4,0.9,2.1,2.3,2.6c1.7,0.6,4.5,1.2,6.5,0.6c0.8,0.4,1.8,0.1,2.2-1c0.3-0.8,0.6-1.7,0.9-2.5
			c0,0,0,0,0,0c0.7-0.6,1.4-1.1,2.1-1.6c0.1,1.4,0.6,2.8,1,4.1c0,0.3,0,0.5,0.2,0.8l0,0c0.1,0.1,0.1,0.3,0.2,0.4
			c0.4,0.6,1,0.9,1.6,0.8c2.6,1.1,6.2,1.5,8.5,0.4c2.3-1.1,3.9-3.8,4.1-6.4c0.4,0.5,0.8,1,1.3,1.5c0.1,0,0.1,0.1,0.2,0.1
			c0.1,0.1,0.1,0.3,0.1,0.4c-0.1,0.3-0.2,0.7-0.2,1c-0.1,0.8,0.7,1.7,1.5,1.9c2.4,0.6,4.9-0.2,7.2-0.9c1.9-0.6,3.1-1.5,2.8-3.6
			c-0.1-0.5-0.1-1,0-1.5c0.4-0.2,0.7-0.4,1-0.6c0,0.3,0.4,1.2,0.5,1.5c0.7,1.7,1.5,2.3,3.3,2c1.7-0.3,4.1-1.2,5.2-2.7
			c0.9-1.1,1.2-2.8,1.4-4.4c0.6,0.6,1.3,1.1,1.5,2c0.4,1.4,2,1.6,3,0.8c0.9-0.8,1.5-1.3,2.1-2.3c0.3-0.3,0.6-0.6,0.9-0.9
			C240.2,291.3,239.4,287.5,238,284.9z"/>
		<path class="none-tier-st1" d="M300.5,78.9c-1.4-2.2-4.2-3-6.5-1.7c-6.2,3.6-12.1,7.5-17.9,11.7c-4.2,3.1-8.8,6.4-11.7,10.9
			c-2.6,1.6-3.7,4-3,7.9c0.5,2.7,1.6,5,3.1,7c0.2,1,0.6,2.1,1.2,3c3,5.2,13,10.9,19.2,8.4c1.3,0.2,2.7,0.1,3.8-0.7
			c6.1-4.1,10.7-10.3,12.7-17.3C308.8,99.7,306.2,87.9,300.5,78.9z"/>
		<path class="none-tier-st1" d="M48.8,220.9c-1-3.4-2.7-6.8-4.1-10c-0.5-1.1-2-1.3-2.9-0.8c-3.2,1.7-7.5,2.9-11.1,3.3c-1,0.1-1.9,0.6-2.2,1.7
			c-0.5,2-0.9,3.7-1,5.7c-1.8,2.3-3.2,5-4.7,7.5c-1,1.6-0.2,3.6,1.2,4.6c6.3,4.4,15-0.5,20.3-4.4C46.8,226.7,49.8,224.4,48.8,220.9z
			"/>
		<path class="none-tier-st1" d="M75.9,30.2c-3.4,2.4-8.4,1.9-12.5,2.5c-4.4,0.6-8.7,1.6-13,3c-7.1,2.4-14.8,6.2-17.8,13.6
			C29.6,57.2,32,68,33.1,76.1c1.5,10.8,4.1,21.6,5.1,32.4c0.3,3.8,6.2,6.5,8.1,2.2c1.4-3,2.3-6.4,2.9-10c0,0,0.1-0.1,0.1-0.1
			c0.5-0.7,1.7-0.9,2.3-1.4c0.7-0.5,1.1-1.1,1.5-1.9c0.9-2.1,0.9-4.6,1.1-6.8c0.7-0.4,1.2-1.1,0.9-2.1c-0.8-2.2-1.6-4.5-2.4-6.7
			c0.3-0.6,0.7-1.2,1.1-1.9c0,0,0-0.1,0.1-0.2c0,0,0,0,0,0c1.5,0.8,3.5-0.2,3.5-2c0-0.2,0-0.3,0-0.4c0.4-0.4,0.5-0.9,0.3-1.6
			c-0.3-0.8-0.6-1.6-0.9-2.4c0.2-0.2,0.3-0.5,0.3-0.8c0.5-2,2.4-3.2,4.4-2.7c0.9,0.2,1.9-0.3,2.2-1.2c0.3-1,0.6-2.5,0.7-4
			c0.3-0.1,0.6-0.3,0.9-0.7c0.7-0.9,0.9-1.8,0.9-2.9c0.3-0.4,0.5-0.8,0.6-1.3c0.1-2.5,0.6-4.7,1.5-7c0.6-1.5,1.6-2.8,2.1-4.3
			c0.3-0.3,0.5-0.5,0.8-0.8c4.1-3.9,6.6-8.2,8.9-13.3C81,31.9,78.6,28.3,75.9,30.2z"/>
		<path class="none-tier-st1" d="M243.4,49.8c-5.2-9.9-14.2-12.5-24-15.8c-1.6-0.5-3.1,0-4.1,1c-4.7-1.6-9.5-2.6-14.4-2.8
			c-1.7-0.1-2.8,2.4-1.5,3.5c5.1,4.5,9.9,9.5,10.9,16.4c0.4,2.3,0.8,2.6,2.5,4.4c3.3,3.4,4.9,6.4,4.4,11.2c-0.1,1.5,1.5,2.3,2.8,2.1
			c1-0.2,2-0.3,2.9-0.4c0.9,1.3,1.5,2.7,1.5,4.5c0,0.4,0,0.7-0.1,1.1c-0.1,0.2-0.2,0.3-0.3,0.5c-0.3,0.5-0.2,1,0.2,1.4
			c0,0.6-0.1,1.3-0.1,1.9c0,1.5,1.8,2.1,2.8,1.2c0-0.1,0.1-0.3,0.2-0.4c0.3,0.3,0.7,0.5,1.1,0.4c0,0,0.1,0,0.1,0
			c0.2,0.2,0.4,0.4,0.7,0.7c-0.1,0.8,0,1.9,0.2,2.9c-0.3,0.2-0.5,0.6-0.7,1c-0.3,0.4-0.6,0.8-0.9,1.3c-0.3,0.2-0.6,0.4-0.8,0.6
			c-1.2,1.2-1.7,2.4-1.9,3.9c-0.6,0.5-1.1,0.9-1.7,1.1c-1.6,0.5-1.4,3,0.4,3c0.8,0,1.6,0.2,2.4,0.6c0.5,0.5,1,0.9,1.7,1.1
			c1.1,1.4,2.5,2.5,4.3,3.1c0.6,0.6,2.7,2.6,2.9,3.1c0.8,2.8,4.6,2,4.8-0.7c0-0.5,0.1-1,0.1-1.5c1.7-0.6,3-2.1,2.8-4
			c0-2.4,0.1-5.5-0.4-8.4c0-1.5-0.1-3-0.2-4.4c0.7-0.5,1.3-1.1,1.8-2.1C248.6,71.7,248.4,59.3,243.4,49.8z"/>
		<path class="none-tier-st1" d="M244.6,120.3c0.1-1.7,0.3-3.4,0.4-5.1c0.2-3,1.7-8.6-0.1-11.2c-2-2.7-3.7-0.8-3.7,1.7c-0.7,0-1.5,0.3-2.1,1
			c0.4-0.6-1.3-1.1-2-1.3c-0.4-0.9-1.8-1-2.2,0.2c-0.6,1.7-1.2,3.5-1.6,5.3c0,0,0,0-0.1,0c0,0-0.1,0-0.1,0c-2.8,0.6-0.9,3.5,0.7,3.8
			c0.6,1.1,1.3,2.5,1.6,3.3c1.2,2.5,0.8,5-0.1,7.5c-0.8,2.2-2,3.7-2.5,5.4c-1.8-1.1-4.6,1-3.3,3.3c2.3,4.2,3.7,8.5,3.8,12.9
			c-1.3,3.2-1.9,5.8-1.3,9.2c0.3,1.5,1.5,2,2.7,1.7c0.5,1.6,1.1,3.1,1.6,4.7c-0.1,3.6,0,7.4-0.2,11.1c-0.5,1.4-1.1,2.9-1.5,4.4
			c-0.8,2.7-0.3,4.4,0.1,7.2h0c0.1,1.7,2.7,2.8,3.5,1c0.7-1.7,0.6-2.6,0.4-3.8c0-0.6,0.1-1.3,0.2-1.9c0,0,0,0,0,0
			c0.2,0,0.3-0.1,0.4-0.2c0.2-0.1,0.3-0.3,0.3-0.5c0.1-0.5,0.3-1.1,0.1-1.6c-0.1-0.2-0.2-0.3-0.3-0.4c2.3-9.1,3.4-18.9,3.5-28.5
			c0.3-0.3,0.6-0.7,0.7-1.2c0,0,0.1,0,0.1,0c0.4-1.9,0.6-3.8,0.7-5.7c0.6-4.6,1.2-9.6,0.3-14.1C245.1,125.9,245.4,123.1,244.6,120.3
			z"/>
		<path class="none-tier-st1" d="M48.8,147.9c-0.1-1.8,0.2-3.5-0.9-5.1c-1.8-2.7-4.8-3.1-6.2-6.6c-0.3-0.8-0.8-1.3-1.5-1.7
			c-0.1-1.7-0.3-3.5-0.6-5.2c0.2-0.2,0.3-0.4,0.4-0.6c0.7-1.4,1.4-2.7,2.4-3.9c0.9-1.1,2.1-2,2.8-3.1c1.2-1.8,0.8-5.5-0.2-7.3
			c0,0-0.1-0.1-0.1-0.1c0.1-0.4,0.1-0.8-0.1-1.1c-0.2-0.2-0.3-0.5-0.6-0.6c-0.2-0.1-0.3-0.1-0.5-0.2c-0.3-0.2-0.8-0.2-1.1,0.1
			c0,0,0,0.1-0.1,0.1c-0.2,0-0.4-0.1-0.6-0.1c-1,0-1.7,0.7-2.7,0.9c-1.4,0.4-2.7,0.3-3.9,0.6c0-0.3,0-0.6,0-1c0-1-0.9-2-2-2
			c-1.1,0-2,0.9-2,2c0,1,0,2,0.3,3.1c0.1,0.3,0.2,0.5,0.4,0.7c-1.2,2.9-1.8,9.1,0.8,10c0.1,1.8,0.3,3.7,0.4,5.5
			c-0.5,1.9-0.2,3.3,0.7,5.1c0.2,6,0.3,11.9,1.5,17.8c0,1-0.1,1.9-0.1,2.9c-0.1,0.9,0.1,1.6,0.5,2.2c0,1.1,0,2.2,0.1,3.3
			c-0.2,5.1,0.7,10.7,1.2,14.1c0.1,0.5,0.3,0.9,0.6,1.3c-0.5,5.7,0.6,11.5,2,17.1c0.5,1.8,3.3,1.4,3.3-0.4c0-1.9,0.1-3.8,0.2-5.7
			c0.2-3.5,0.9-4.2,1.9-7.8c0.3-0.2,0.6-0.4,0.8-0.8c0.1-0.1,0.1-0.2,0.2-0.3c0.5-0.9,0.3-2.1-0.5-2.7c0,0-0.1,0-0.1-0.1
			c0,0,0,0,0,0c-0.9-3.5-2.5-6.6-3.2-10.2c0.5-0.2,0.9-0.6,1.2-1.1c1-1.5,0.7-3.7,0.7-5.5c0-0.4-0.1-0.7-0.2-1
			c1.3-1.6,2.5-3.2,3.5-5C49.3,153,48.9,150.7,48.8,147.9z"/>
		<path class="none-tier-st1" d="M223.4,79.9c-0.5-0.5-0.6-1-0.3-1.7c0.2-0.9-0.4-1.8-1.4-1.8c-1.7,0-3.2,0-4.7,0.7c-0.2,0.1-0.4,0.2-0.5,0.4
			c-4.6,1.1-9.3,1.7-14,2.2c-2.8,0.3-5.8,0.4-8.5,1.3c-5-0.9-11.1,0.4-15.9,0.9c-1.7,0.2-3.3,0.4-5,0.6c-0.5-0.5-1.2-0.8-2.1-0.7
			c-5.7,0.5-11.3,1.4-17,1.4c-0.5,0-0.9,0.1-1.2,0.3c-1.1-0.6-2.4-0.6-3.6-0.4c-0.2,0-0.5,0.1-0.7,0.2c-1.6-0.5-3.1-0.9-4.7-0.2
			c-0.3,0.1-0.6,0.3-0.8,0.6c-5-0.4-10-1.1-14.9-0.3c-0.1,0-0.1,0-0.2,0c-3.1-0.5-6.3-0.6-9.4-0.6c-0.2,0-0.5,0-0.7,0.1
			c-0.4-0.2-1-0.3-1.5-0.4c-3.5-0.1-7.1,0-10.7,0c-3.7-1.1-7.5-1.8-10.7-0.9c-2.7-0.5-5.3-0.7-8-0.8c-0.4-0.3-0.8-0.5-1.4-0.5
			c-2.4-0.4-4.7-0.6-7.1-0.8c-0.1,0-0.2,0-0.3,0c-3.3-0.4-6.6-1.1-9.8-1.8c-0.5-0.1-0.9-0.1-1.3-0.1c-1-0.6-2-0.5-3.2-0.8
			c-0.3-0.1-0.6-0.1-1-0.2c-0.5-0.2-1-0.3-1.5-0.4c-0.5-0.1-1.1-0.3-1.6-0.5c-1-0.3-1.8,0.9-1.4,1.7c-0.5,0.5-0.8,1.1-1,1.9
			c-0.7,3.3,3.1,5.4,5.6,7.1c5.5,6.8,12.4,12.6,19.2,18.1c0.4,0.3,0.8,0.5,1.2,0.6c0.6,0.6,1.2,1.3,1.9,2c2.2,1.5,4.4,3.2,6,5.2
			c3.7,2.2,7.1,4.6,10.8,6.8c1.2,0.3,2.4,0.4,3.5,0.2c1.8,1.4,5.4-0.1,7.7-2c3-1.3,5.8-3.4,8.2-5.6c0.5-0.4,0.9-0.9,1.3-1.3
			c1.9,0,2.6-2.1,1.8-3.6c0.3-1,0.3-2,0.3-3.1c0.4,0.3,0.9,0.5,1.3,0.8c1.1,0.8,2.5,0.1,3.2-0.8c1.9-2.7,6.2-6.5,9.2-7.6
			c2-0.7,3.8-0.9,5.5-1.6c3.4,0.9,6.2,4.7,8.2,7.3c0.7,0.9,1.7,1.2,2.5,1.1c0.5,0.6,0.9,1.2,1.4,1.8c0.5,0.6,1,0.9,1.6,1.1
			c1.1,1.7,2.2,3.2,3.5,4.7c0,0,0,0,0,0c0.3,0.3,0.8,0.4,1.2,0.5c1.6,2.5,3,5.1,5.6,6.6c1.9,1.2,4,1.5,6.1,1.4
			c1,0.9,2.5,1.1,3.5-0.1c0,0,0,0,0,0c0.1,0,0.2,0,0.4-0.1c0.5,0.1,0.9,0,1.5-0.1c1.7-0.5,3-1.2,4.4-2.1c0.4-0.1,0.8-0.2,1.2-0.5
			c4.5-3.6,8.8-7.4,13-11.2c0.4,0,0.9-0.1,1.4-0.5c3.1-2.9,6.5-5.5,9.6-8.6c0.6-0.6,1.1-1.1,1.7-1.7c1.9-1.3,3.5-3.5,5.1-4.8
			c1.2-1,2.3-2,3.1-3.1c0.6-0.5,1.3-1,1.9-1.6c1-0.5,1.9-1,2.7-1.8C224.3,82.2,224.3,80.7,223.4,79.9z"/>
		<path class="none-tier-st1" d="M155.1,154.7c-0.1-0.8-0.4-1.6-1.1-2.2c-1.5-1.3-3.7-1.1-5.5-0.2c-3.6-0.3-7.1-0.2-10.8-0.9
			c-1.8-0.3-3.3-0.6-4.8,1c-1.4,1.6-1.2,4-1.1,6c0,4.6,0.7,9.1,0.7,13.6c0,1,0.6,1.7,1.4,2c1.1,6-4.9,16.7-0.5,22
			c0.5,0.8,1.1,1.6,1.8,2.3c0.2,0.2,0.3,0.3,0.5,0.4c-0.2,0.7-0.2,1.5-0.3,2.2c-0.2,1.8-0.2,4.1,1.2,5.3c0.2,0.2,0.4,0.3,0.6,0.4
			c-0.6,6.9-0.2,13.9,0,20.8c0.3,12.1,0.2,24.2-0.3,36.3c-0.1,1.4,1.1,3.1,2.6,3.4c2,0.4,3,0.4,5-0.1c1.2-0.3,2.2-1.6,2.2-2.9
			c0-0.3,0-0.6,0-0.9c0.5-0.3,1-0.8,1.1-1.6c0.9-5.2,0.4-10.5,0.8-15.7c0.5-6,0.9-12,0.9-18c0.1-5.6,0.2-11.2,0.7-16.8
			c0.4-4.1,0.8-8.2,0.3-12.2c1.1-0.3,2.2-0.6,3.2-1.2c2.4-1.4,2.8-4.1,2.9-6.6c0-0.4-0.1-0.8-0.3-1.1c0.4-1.2,0.4-2.5-0.2-3.6
			c-0.7-1.3-1.1-2.8-1.3-4.3c-0.2-1.5-1-2.5-2.1-3c-0.2-2-0.4-4,0.7-5.9c0.6-1.2,1.7-1.8,2.3-3c0.4-1,0.4-2.3,0.3-3.6
			c0.4-1.2,0.6-2.4,0.7-3.8C156.6,158.9,156.5,156.4,155.1,154.7z"/>
		<path class="none-tier-st1" d="M122.5,170.8c0.2-2.7,0.2-5.4,0.3-8.1c0.1-2.5-0.6-5.7-0.1-8.2c0.2-1.2-1.3-2.4-2.2-1.3c0,0-0.1,0.1-0.1,0.1
			c-0.1,0-0.1,0-0.2,0.1c-0.2,0-0.3,0.1-0.5,0.2c-0.2,0.1-0.4,0.2-0.5,0.4c-0.4,0.4-0.4,0.9-0.1,1.3c-1.6,3.6-0.3,8.9-0.1,12.5
			c0.5,7.1,1.1,14.1,1.3,21.2c0,1.5,2.2,1.5,2.3,0c0.4-5.9,0.2-11.7-0.1-17.5C122.5,171.2,122.5,171,122.5,170.8z"/>
		<path class="none-tier-st1" d="M170.4,153.9c0.1-0.3-0.1-0.6-0.3-0.8c-0.1-0.1-0.2-0.1-0.3-0.2c-0.5-0.2-1.1-0.2-1.4,0.2
			c-1.4,1.4-1.3,2.1-1.3,4.1c-0.1,3.7,0,7.4,0,11.1c0,7.1,0.1,14.1-0.2,21.2c-0.1,1.8,2.6,1.7,2.7,0c0.3-6.4,0.9-12.8,1-19.2
			c0.1-3,0.1-6.1,0.2-9.1C170.7,159.3,169.9,155.6,170.4,153.9z"/>
		<path class="none-tier-st1" d="M147.2,186.8c-2.7-0.6-6.6-0.6-9,1.1c-2.4,1.7-1,4.9,1.2,6.2c2.4,1.4,6.9,1.4,9.5,0.6
			c0.4-0.1,0.7-0.4,0.9-0.7c1.4-0.4,2.5-1.2,2.8-2.6C153.2,188.4,149.3,187.2,147.2,186.8z"/>
		<path class="none-tier-st1" d="M149.4,178.8c-2,0.1-4.9-0.3-6.9,0.7c-0.6,0.1-1.3,0.1-1.9,0.2c-1.9,0.1-2,3.1,0,3c1.9,0,3.7-0.1,5.6-0.2
			c1.2,0,2.3-0.1,3.3-0.2C151.6,182.1,151.6,178.7,149.4,178.8z"/>
		<path class="none-tier-st1" d="M150.8,200.8c-0.1-0.7-0.8-1.3-1.5-1.5c-0.9-0.3-1.4-0.1-2.2,0.2c-1.4,0.5-2.5,0.5-4,0.5
			c-1.1,0-2.3-0.1-3.5,0c-0.1-0.2-0.1-0.4-0.1-0.4c-0.3-1.1-1.3-1.8-2.3-1.9c-0.1-0.1-0.2-0.2-0.3-0.4c-1.9-1.7-3.9-4-4-6.8
			c-0.1-2.5,1.6-5.2,2.4-7.5c1.1-3.3,1.1-6.1,0.5-9.6c-0.1-0.5-0.6-1-1.1-1.1c-0.8-0.2-1-1-1.3-1.6c-0.2-0.4-0.9-0.4-1.1,0
			c-0.6,1.1-0.6,1-0.8,2.3c-0.2,0.8,0.2,1.5,1,1.8c0.1,0,0.3,0.1,0.4,0.1c0.4,8.6-5,16,1,23.1c0.6-0.1,1.2,0.2,1.3,0.8
			c0.3,2.2,0.6,4.3,0.8,6.5c0,0.1,0,0.2,0,0.3c0.5,0.4,1.2,0.7,2,0.9c3.3,0.5,7.2-0.2,10.6-0.5c0.8-0.1,1.6-0.5,1.8-1.4
			C150.7,203.5,151,202.2,150.8,200.8z"/>
		<path class="none-tier-st1" d="M142.2,156.8c-0.2-1.5-2.8-1.2-2.7,0.4c0,0.2,0,0.5,0,0.7c-0.8,1.8-1,5.7-1.1,6.1c0,0.7,0.1,1-0.3,1.3
			c-0.3,0.2-0.8,0-1.2,0.1c-0.9,0.2-2.1,0.8-3,1.2c-1.3,0.7-2.4,1.7-2.2,3.3c0.1,0.5,0.7,0.5,1,0.3c0.8-0.8,1.2-1.8,2.5-2.1
			c1.2-0.3,1.1,0.1,2,0.2c0.9,0,1.9,0.1,2.8-0.3c0.2,0.1,0.3,0.2,0.5,0.2c-0.1,1.1-0.2,2.2-0.1,3.3c0.1,0.7,1.2,0.8,1.2,0.1
			c0.2-1.2,0.3-2.4,0.4-3.7c0.4-0.3,0.7-0.8,0.8-1.4C143.1,163.3,142.7,160,142.2,156.8z"/>
		<path class="none-tier-st1" d="M154.4,166.6c-1.3-0.1-3,0.2-4,1.1c-0.2,0.1-0.1,0.4,0.1,0.5c0.7,0.5,1.2,0.6,2,0.6c0.3,0,2.1,0,2.1,0.3
			c0,1.6,2.5,1.5,2.4,0C157,167.6,155.9,166.7,154.4,166.6z"/>
		<path class="none-tier-st1" d="M43.4,205.3c-0.5-0.5-0.5-2.3-0.4-3.8c0.4-0.9,0.5-1.8,0.2-2.9c-0.6-1.9-3-1.6-3.6,0c0,0,0,0,0,0
			c-0.3,1.1-3.6,2.6-4.4,3.1c-0.5,0.3-1,0.6-1.5,0.9c-1.7,0.6-3.3,1.3-4.5,2.3c-0.7,0-1.3,0.2-2,0.2c-0.9-0.1-1.5-0.1-2.2,0.4
			c-1.6,1.2-0.8,3.6,0.3,4.8c2,2.2,6.4,2.2,10.1,0.9c0.5,0.3,1.2,0.5,2,0.3c2.3-0.5,4.2-1.5,6-3C44.4,207.8,44.2,206.1,43.4,205.3z"
			/>
		<path class="none-tier-st1" d="M294.1,64.4c-0.1-0.1-0.2-0.1-0.3-0.1c-3.9-1.4-7.7-3.1-11.9-3.7c-1.8-0.2-4.2-0.4-6,0.4
			c-3.4-0.3-6.8,0.1-10,1.8c-0.3,0.1-0.5,0.3-0.6,0.5c-1.5,0-2.4,1.5-2.1,2.8c0.6,2.7,2.4,4.8,4.8,6.1c0.4,7.2-0.3,14.3-2.5,21.1
			c-0.7,2.2,2.4,4.1,3.9,2.3c0.5-0.4,0.9-0.9,1.3-1.4c4.3-4.5,10.2-7.7,15.1-11.6c1.5-1.2,3.6-2.5,5.1-4.1c0.2,0,0.3-0.1,0.5-0.2
			c0.4-0.2,0.7-0.6,0.8-1.1c0.1-0.3,0.1-0.5,0-0.8c0.5-1.5,0.6-2.9,0.3-4.5c1.3-0.6,2.2-1.6,3.4-2.5C298.1,67.8,296.5,64,294.1,64.4
			z"/>
		<path class="none-tier-st1" d="M291.2,141.9c-1.4-1.9-2.7-3.9-4-5.8c-0.1-1.6-0.2-3.2-0.1-4.8c0.1-2-1.7-3.4-3.5-3.5
			c-1.2-0.1-2.5,0.5-3.6,0.3c-1.1-0.1-2.6-0.9-3.7-1.3c-2-0.7-4-2.6-6.1-2.7c-0.3-0.4-0.7-0.7-1.1-0.8c-0.6-1.4-1.4-2.7-2.1-4.5
			c-0.8-2-3.5-2.1-4.2,0c-1.3,3.7-1.1,7.7-1.4,11.6c-0.2,2.4-0.3,3.7-1.6,5.7c-1.3,1.9-3.4,3.5-5,5.2c-1.2,1.2-0.6,3.2,1,3.7
			c1.7,0.5,3.4,1,5.1,1.5c0.2,0.1,0.4,0.2,0.6,0.3c0.2,0.2,0.5,0.5,0.8,0.6c8.5,3.8,21,4.7,28.6-1.7
			C291.7,144.7,291.9,142.9,291.2,141.9z"/>
		<path class="none-tier-st1" d="M272.1,278.7c-0.3,0-0.6-0.1-0.9-0.1c-2.2-2-4.7-2.9-7.6-2.7c-0.2-0.1-0.4-0.2-0.6-0.2
			c-0.3,0-0.5-0.1-0.8-0.1c0.8-7.4,3.1-14.7,2.4-22c0.2-0.2,0.3-0.5,0.4-0.8c1.5-6,1.7-12.7,1.9-19.2c0.3-2,0.5-4.1,0.7-6
			c0.5-3.9,1-7.7,1-11.5c0.1-0.2,0.2-0.5,0.2-0.8c0.3-3.2,0.6-6.3,0.8-9.5c0.9-5,2.1-10.7,2.1-15.9c2-4.8,1.9-11.3,2.6-16.1
			c1.1-7.1,1.2-14.2,2-21.3c0.2-1.4-1.4-2.1-2.5-1.9c-0.5,0-1,0-1.6,0c-0.9-0.2-2.1,0.3-2.3,1.3c-0.3,1.6-0.4,2.9-0.2,4.5
			c0,0.2,0.1,0.4,0.1,0.5c-2.1,7.6-2.6,16.1-3.1,24c-0.5,2.7-0.9,5.5-0.6,8c-0.4,5.1-0.8,10.3-1.2,15.4c-1.4,6.1-1.5,12.7-2.1,18.6
			c-0.6,6.4-1.8,13.4-2.1,20.2c-2,8.3-2.2,17.3-2.6,26c0,0.3-0.1,0.6-0.1,0.9c-0.2,1-0.3,1.9-0.5,2.9c-0.2,0.7-0.3,1.3-0.4,2
			c-5.3-0.4-11,0.3-14.6,3.9c-1.2,1.2-0.5,3,0.9,3.5c4.1,1.4,8.2,2.5,12.3,3c0,0.7,0.1,1.3,0.1,2c0,0.2,0,0.4,0,0.5
			c0,0.3,0,0.5,0.1,0.8c0,0.5,0.1,1.1,0.1,1.6c-0.4,1.5-0.6,3.1-0.6,4.5c0,0.7,0.4,1.3,0.9,1.7c0,0.4,0,0.8,0,1.2
			c0,1.2,1.8,1.2,1.9,0c0-0.3,0.1-0.5,0.1-0.8c0.7-0.1,1.3-0.6,1.5-1.5c0.5-2.9,1-5.9,1.6-8.8c0.1-0.3,0.1-0.6,0-0.9
			c3.8,0,7.7-0.5,11.6-1.7C275.7,283.1,275.1,278.8,272.1,278.7z"/>
		<path class="none-tier-st1" d="M28.5,98.5c-0.1-0.5-0.1-1.1-0.2-1.7c0.1-1.3,0.2-2.5,0.6-3.8c0-0.1,0.1-0.1,0.1-0.2c0.2-0.4,0.3-0.9,0.5-1.3
			c0,0,0,0,0,0c0.4-1.6-1.9-2.8-2.7-1.2c-0.2,0.4-0.4,0.8-0.6,1.2c0,0,0,0,0,0.1c-2,1.7-1.9,5.8-0.6,8.3c0,0.2-0.1,0.5-0.1,0.7
			c-2.5,2.3-4.7,4.9-6.6,7.7c-0.9,0-1.7,0.4-2.3,1.2c-1.1,1.4-1.3,3.2-0.8,4.8c0,0.4,0.1,0.7,0.2,1c0.5,1.6,2.7,2.5,4,1
			c0.4-0.4,0.7-0.9,0.9-1.3c0.3,0,0.6-0.1,0.9-0.4c1.7-1.9,3-4.1,4-6.4c1.6-2,3.3-4,4.9-6.1C31.8,100.7,30.4,97.8,28.5,98.5z"/>
		<path class="none-tier-st1" d="M36.1,100.5c-1.1-4.4-2.6-8.7-3.2-13.3c0-0.2,0-0.4-0.1-0.6c-0.2-0.8-1.2-1.3-1.9-0.6
			c-0.1,0.1-0.2,0.2-0.3,0.3c-0.2,0.2-0.3,0.5-0.3,0.8c-0.1,0.2-0.3,0.4-0.4,0.7c-0.2,0.3-0.1,0.6,0.1,0.9c0.1,0.1,0.1,0.2,0.2,0.2
			c0.1,0.1,0.1,0.1,0.2,0.2c-0.2,4.2,0.6,8.4,1.5,12.5C32.5,104.4,36.8,103.2,36.1,100.5z"/>
		<path class="none-tier-st1" d="M208.4,104.1c-0.1,0.2-0.2,0.5-0.3,0.7c-1.3,2.7-5.5,4.8-7.5,6.7c-1.8,1.6-3.3,3.4-4.8,5.3
			c-0.8-0.3-1.7-0.2-2.4,0.5c-4.7,4.7-9.5,8.8-15.7,11c-0.1,0-0.1,0-0.3,0c-0.3,0,0,0-0.2,0c-0.4-0.1-0.7-0.2-1.1-0.3
			c-0.7-0.3-1.4-0.5-2.2-0.8c-0.4-0.1-0.8-0.2-1.2-0.3c-0.4,0-0.8,0-1.2,0c-0.2,0-0.4,0.1-0.5,0.3c-0.7-0.3-1.4-0.6-2-0.9
			c-4.7-2.4-7.5-6.6-11.1-10.3c-0.8-0.8-1.9-0.1-1.9,0.8c0,0,0,0,0,0c0.2,1.7,0.7,3.3,1.3,4.8c0,1.2-0.1,2.4-0.3,3.6
			c-1,1-1.5,2.6-0.9,4.6c0,0,0,0,0,0c-0.2,0.9-0.5,1.8-0.8,2.6c-0.1,0.3-0.2,0.5-0.4,0.8c-1.2,1.3-2.5,2.5-3.9,3.6
			c-0.4,0.4-0.9,0.7-1.3,1.1c-0.1,0.1-0.2,0.1-0.3,0.2c-0.3,0.2-0.6,0.4-0.9,0.7c-0.5,0.4-1,0.7-1.5,1c-0.2,0.1-0.3,0.3-0.4,0.4
			c-0.4,0-0.8,0.1-1.2,0.1c-1.5-0.4-3-0.8-4.4-0.7c0,0,0,0,0,0c-5.3-7.1-10.2-14.6-13.9-22.7c-0.6-1.2-2.3-1-2.9,0
			c-2.7,4.1-6.8,6.6-10.5,9.6c-1.7,0.7-3.5,1.3-5.3,2c-0.8,0.1-1.5,0.2-2.3,0.2c-0.3,0-0.6,0-1,0c-3-1.3-5.8-3-8.5-4.9
			c-3.9-2.6-7.7-5.4-11.3-8.3c-2.9-2.4-5-4.6-8.3-6.2c-1.6-2-3.2-4.1-4.7-6.2c-1.2-0.4-2.3-1.6-3-2.4c-0.6-0.6-1.5-1.4-2.1-2.3
			c-1,0.3-1.8,1.1-1.3,2.4c1.4,3.4,2.5,6.9,4.6,9.8c0,0.1,0.1,0.2,0.1,0.3c0.1,0.2,0.3,0.5,0.4,0.7c0.3,0.5,0.5,0.9,0.9,1.3
			c0.2,0.3,0.4,0.5,0.5,0.8c1.4,4.1,3.9,7.9,6.3,11.7c-0.7,8,7.3,11.9,13.6,14.4c7.5,2.9,15.2,4.5,23.2,5c5.1,2.6,10.2,3.1,16,3.7
			c3.6,0.4,8.3,3.2,11.5,1.6c0.3,0.2,0.7,0.4,1.2,0.3c3-0.3,5.6-0.1,8.4,0.2c0.5,0.3,1.2,0.5,1.9,0.2c1.1,0.1,1.8,0,3.5-0.4
			c2.9-0.8,5.5-1.9,8.1-3.3c0.6,0.1,1.2,0.1,1.8-0.1c4.2-1.8,8.3-3.5,12.3-5.8c2.1-1.2,4-2.6,5.8-4c2.6-0.1,5.1-1.5,7-3.4
			c0.4-0.4,0.8-0.9,1-1.4c0.3-0.2,0.5-0.5,0.5-0.8c0.3-1.2,0.6-2.3,1-3.3c0.6-1.1,1.2-2.3,1.8-3.4c0.3-0.5,0.7-1,1.1-1.5
			c0.3-0.4,0.5-0.8,0.4-1.2c1.6-2.8,3.4-5.6,5.2-8.2c0.6,0.7,1.8,1,2.3-0.1c1.7-3.1,2.6-5.9,3.2-9.4
			C210.2,103.5,208.8,103.1,208.4,104.1z"/>
		<path class="none-tier-st1" d="M153.4,111.5c-2.2-1.8-4.4-3.6-6.6-5.3c-1.6-1.2-3.1-2.8-5.1-3.2c-3.2-0.7-6.3,1.6-7.6,4.4
			c-0.2,0.4,0.2,0.8,0.6,0.6c0.3-0.1,0.5-0.3,0.8-0.4c0.2,0.4,0.6,0.8,1,1c5.2,1.8,10.3,3.7,15.4,5.6
			C153.4,114.6,154.6,112.5,153.4,111.5z"/>
		<path class="none-tier-st1" d="M36.4,212.3c-1.6,0.7-4.1,0.7-5.9,0.7c-0.6,0-1.2,0.4-1.3,1c-0.6,3.4-1.7,6.5-3.9,9.2
			c-0.4,0.5-0.4,1.2-0.2,1.7c0,0-0.1,0.1-0.1,0.1c0,0,0,0.1,0.1,0.1c0,0,0.1-0.1,0.1-0.1c0.4,0.6,1.1,1,1.8,0.4
			c2.6-1.8,4.6-4,6.3-6.5c2-1.5,3.4-3.3,4.2-5.7C37.9,212.5,37,212.1,36.4,212.3z"/>
		<path class="none-tier-st1" d="M202.9,70.2c-1.2-4.8-4.9-9.5-9-12.2c-2.1-1.4-4.3-2.2-6.6-3c-2.9-1.7-5.9-3.1-9.1-4.2
			c-0.5-0.2-1-0.2-1.4-0.1c-4.2-1.6-8.8-2.4-13.2-3.4c-0.7-0.1-1.3-0.3-2-0.4c-0.8-1.3-2.2-2.2-4.1-2c-1.2,0.1-2.3,0.3-3.4,0.5
			c-2.4-0.4-4.8-0.9-7.2-1.2c-4.8-0.6-10.5-1-14.9,1.3c-0.2,0.1-0.5,0.3-0.8,0.5c-0.1,0-0.3,0-0.4-0.1c-6.9-0.9-13.3-0.8-19.5,2.5
			c-1.8,0.6-1.1,3.2,0.6,3.3c0.6,0.1,1.2,0.1,1.8,0.2c1.4,1.4,3.5,5.9,4.4,7.9c-0.1,0.2-0.1,0.3-0.2,0.4c-0.1,0.2-0.3,0.5-0.4,0.7
			c-3.5-2.7-7.3-4.4-12.1-4.3c-4.4,0.1-8.3,1.7-11.4,4.6c-0.1,0-0.3,0-0.4,0.1c-1.6,0.2-3.1,0.5-4.5,0.9c0,0,0-0.1,0-0.1
			c0,0,0,0,0.1,0c0.1,0,0.1,0,0.2-0.1c0.6-0.3,1-1.1,1-1.7c0.1-1.2,0.3-2.3,0.2-3.6c-0.1-0.5-0.8-0.9-1.2-0.7
			c-1.6,0.7-2.4,2.1-2.9,3.7c0,0,0,0,0,0.1C82.6,63.3,79,67,76.2,71.2c-0.2,0.4,0.3,0.9,0.6,0.6c0.2-0.2,0.4-0.3,0.6-0.5
			c0.1,0.4,0.4,0.7,0.8,0.8c8.2,2.4,17.3,2.2,25.8,2.3c1.5,0,3.1,0.1,4.8,0.2c4.3,1.8,9.8,1.6,14.2,1.2c0.1,0,0.2,0,0.3-0.1
			c1.5,0.1,3,0,4.1,0c2.4-0.1,5.2-0.1,7.9-0.3c3,0.1,6.1,0.3,9.1,0.2c0.4,0.2,0.8,0.3,1.3,0.3c5.7-0.4,11.3-0.6,17-0.9
			c1.7,0.3,3.4,0.4,4.9,0.6c2.8,0.2,5.8-0.1,8.7-0.8c0.2,0.3,0.5,0.6,0.8,0.8c2-0.5,4.1-1.1,6-0.7c0.2,0,0.4,0.2,0.5,0.3
			c5.9-1,11.8-2.2,17.6-2.7C202.4,72.2,203.2,71.3,202.9,70.2z M179.6,66.3c-2.5,1.4-4.9,2.7-7.7,3.4c-1.7,0.1-3.5,0.1-5.2,0.1
			c-0.1,0-0.2,0-0.4,0c-3.7-0.8-8.5-3.1-11.3-5.7c2.4,0.6,5,0.7,7.6,0.4c0.1,0.1,0.2,0.2,0.4,0.4c2.9,2.1,7.1,0.8,10-0.8
			c1.6-0.9,2.7-2.1,4.2-3.2c0.9-0.6,1.9-0.9,2.9-1.2c0.3,0.5,0.5,1,0.9,1.5C180.5,62.9,179.9,64.5,179.6,66.3z"/>
		<path class="none-tier-st1" d="M126.9,82.9c-0.7,0.5-1.4,1-2.1,1.6c-1.7,1.5-3.3,3.1-4.9,4.7c-3.2,3.3-6.4,6.6-9.5,10
			c-3.1,3.4-6.2,6.8-9.3,10.2c-1.6,1.8-3.1,3.7-4.5,5.6c-0.1,0.2-0.3,0.4-0.4,0.6c0.7,0.4,1.4,0.8,2.1,1.2c1.8,1,3.3,1.2,4.7,2.1
			c1.5-1.3,2.9-2.7,4.3-4.1c3.2-3.3,6.5-6.5,9.7-9.8c3.2-3.2,6.3-6.4,9.5-9.7c1.6-1.6,3.2-3.2,4.6-5c1.7-2,2.9-4.1,3.8-6.6
			c0.1-0.4,0.1-0.7,0.1-1.1C132.4,83.3,129.7,83.2,126.9,82.9z"/>
		<path class="none-tier-st1" d="M112.5,82.4c-0.1,0-0.2,0-0.3,0c-0.7,0.7-1.3,1.5-1.9,2.1c-1.2,1.3-2.4,2.6-3.6,3.9c-2.3,2.5-4.7,5.1-7,7.6
			c-2.3,2.5-4.6,5.1-6.9,7.7c-1.6,1.9-3.5,3.7-5,5.7c0.3,0.3,0.6,0.6,0.9,0.9c1.9-1.7,3.5-3.6,5.2-5.4c2.4-2.5,4.7-5,7-7.6
			c2.3-2.5,4.7-5.1,7-7.6l3.5-3.9c0.9-1,2.3-2,2.7-3.3C113.6,82.5,113.1,82.4,112.5,82.4z"/>
		<path class="none-tier-st1" d="M102.2,81.1c-0.5,0.4-0.9,0.8-1.3,1.3c-1.1,1.1-2.2,2.1-3.4,3.2c-2.2,2.1-4.3,4.1-6.5,6.2
			c-2.1,2-4.2,4.1-6.2,6.1c-1.1,1.1-2.2,2.2-3.2,3.3c-0.5,0.5-1,1.1-1.5,1.7c0.4,0.3,0.8,0.5,1.2,0.8c0.4-0.4,0.9-0.8,1.3-1.2
			c1.1-1.1,2.2-2.1,3.3-3.2c2.1-2.1,4.3-4.2,6.4-6.3c2.1-2,4.2-4,6.3-6.1c1.1-1.1,2.2-2.1,3.4-3.2c0.8-0.7,1.6-1.4,2.3-2.2
			C103.5,81.3,102.8,81.2,102.2,81.1z"/>
		<path class="none-tier-st1" d="M178.3,82c-0.4,0.2-0.8,0.2-1.1,0.2c-3.2,4.1-6.4,8.1-9.7,12.1c-2.1,2.7-4.2,5.4-6.3,8.1
			c-1.1,1.4-2.2,2.8-3.2,4.2c-0.1,0.1-0.1,0.2-0.2,0.3c0.3,0.3,0.6,0.6,0.8,1c0.1-0.1,0.1-0.2,0.2-0.3c1.1-1.4,2.2-2.8,3.3-4.2
			c2.2-2.8,4.4-5.5,6.6-8.3c3.5-4.5,6.9-9.1,10.5-13.5C178.8,81.7,178.5,81.8,178.3,82z"/>
		<path class="none-tier-st1" d="M187.9,81.1c-0.2,0-0.3,0-0.5,0c-0.4,0.5-0.8,1-1.2,1.6c-0.3,0.5-0.4,0.5-0.1,0.1c-0.3,0.4-0.6,0.8-0.9,1.2
			c-0.3,0.4-0.7,0.9-1,1.3c-2.6,3.5-5.3,7-7.9,10.5c-2.7,3.7-5.2,7.4-7.7,11.2c-1.2,1.9-2.3,3.8-3.4,5.7c-0.3,0.6-0.6,1.1-0.9,1.7
			c0.2,0.1,0.4,0.2,0.6,0.4c1.7,1.7,3.7,3.3,6,4.4c0.4-0.4,0.7-0.8,1.1-1.3c1.5-1.9,2.9-3.9,4.4-5.8c2.8-3.8,5.5-7.6,8.3-11.4
			c2.6-3.6,5.4-7.1,8-10.7c1.4-1.9,2.7-3.9,3.5-6.1c0.2-0.4,0.3-0.8,0.4-1.3c0.2-0.5,0.2-1,0.3-1.5c0-0.1,0-0.2,0-0.3
			c0-0.3,0.1-0.5,0.1-0.7C194.2,80.6,191,80.6,187.9,81.1z"/>
		<path class="none-tier-st1" d="M211.4,78.3c-0.5,0.1-0.9,0.2-1.4,0.3c-0.1,0-0.2,0-0.4,0c-0.1,0.1-0.2,0.2-0.3,0.4c-1.4,2-2.9,4-4.3,6
			c-2.9,4-5.8,8-8.8,12c-2.9,4-5.9,8-8.8,11.9c-2.4,3.2-4.7,6.3-6.8,9.7c0.5-0.3,1.1-0.5,1.6-0.6c2.2-2.5,4.2-5.2,6.2-7.8
			c3-3.9,6-7.9,9-11.9c3-4,6.1-8.1,9.2-12c1.5-1.9,3-3.9,4.6-5.8c0.6-0.8,1.4-1.6,2-2.5C212.7,78,212,78.1,211.4,78.3z"/>
		<path class="none-tier-st2" d="M135.1,181.8c-0.1,0.9-0.1,1.7-0.2,2.6c0,0.3,0,0.6,0,0.9C135.6,184.3,135.6,182.9,135.1,181.8z"/>
		<path class="none-tier-st1" d="M124.8,11.3c-5.5,1.1-10.4,2.9-15.3,5.8c-3.5,2.1-8.7,4.8-10.4,8.7c-0.2,0.5,0.4,1.1,0.9,0.9
			c4-1.2,7.2-5.2,10.8-7.4c4.5-2.8,9.4-5,14.3-7C125.8,12.1,125.5,11.2,124.8,11.3z"/>
		<path class="none-tier-st1" d="M138.2,31.9c-4.4-1.2-9.5-0.3-14,0.1c-4.7,0.4-9.5,1-14.1,2c-5.1,1-10.3,2.2-15.2,3.8
			c-3.8,1.2-8.1,2.4-10.8,5.4c-0.1,0.1,0,0.3,0.1,0.3c3.9,0.5,7.9-1.1,11.7-2c4.8-1.2,9.5-2.4,14.3-3.3c5-0.9,10-1.7,15-2.3
			c4.3-0.5,8.9-0.2,13-1.5C139.4,34,139.4,32.3,138.2,31.9z"/>
		<path class="none-tier-st1" d="M55.8,40.5c-6.6-1.4-14.3,4.7-17.3,10.3c-2,3.8-1.8,7.9-1.8,12c0.1,4.9-0.5,10.3,1.3,14.9
			c0.8,2.1,3.7,2.3,4.4,0c2.2-7.2-1.1-14.8,0.4-22c1.6-7.7,9.4-8.3,13.5-13.7C56.8,41.5,56.4,40.6,55.8,40.5z"/>
		<path class="none-tier-st1" d="M135.8,162.3c-0.3-1.2-0.6-2.4-1-3.6c0-0.2-0.3-0.1-0.3,0c0,1.2,0,2.5,0,3.7c0,1.1-0.1,2.1,0.4,3.1
			c0.3,0.5,1.1,0.4,1.2-0.2C136.4,164.2,136,163.3,135.8,162.3z"/>
		<path class="none-tier-st1" d="M29.7,224.1c-0.7,0.2-1.5,0.4-2.1,0.9c-0.5,0.5-0.9,1.1-1.4,1.6c-0.8,1.1-1.1,2.4-0.7,3.7
			c0.2,0.7,0.9,1.1,1.6,0.9c2-0.6,3.7-2.4,4.8-4.1C33,225.6,31.4,223.7,29.7,224.1z"/>
		<path class="none-tier-st1" d="M84.7,244.6c-1.5-1.6-3.9-2.5-6-3.1c-2.3-0.6-4.5-1.4-6.8-1.7c-0.4,0-0.6,0.5-0.3,0.8c1.9,1.6,4,2.8,6.1,4
			c1.8,1.1,4,2.1,6.2,2.2C84.9,246.8,85.4,245.4,84.7,244.6z"/>
		<g>
			<path class="none-tier-st1" d="M123.6,102.1c2.7,13.7,9.4,26.6,19.1,36.7"/>
		</g>
		<g>
			<path class="none-tier-st1" d="M143.1,139.7c5.3-0.4,9.7-4.7,11.5-9.7c1.9-5,1.6-10.5,0.9-15.7"/>
		</g>
		<path class="none-tier-st1" d="M221.3,69.4c0,0-32.3,6.8-80.4,6.8s-80.4-6.8-80.4-6.8c-1.9,0-3.4,1.5-3.4,3.4v0c0,1.9,1.5,3.4,3.4,3.4
			c0,0,23.7,6.8,80.4,6.8s80.4-6.8,80.4-6.8c1.9,0,3.4-1.5,3.4-3.4v0C224.7,71,223.2,69.4,221.3,69.4z"/>
		<g>
			<path class="none-tier-st1" d="M69.5,69.5C89.8,53,115.9,43.8,142.1,44c26.2,0.2,52.2,9.7,72.3,26.4"/>
		</g>
		<g>
			<path class="none-tier-st1" d="M63.8,69c1.2-5.5,5.1-10.2,9.7-13.4c4.6-3.2,10-5.3,15.3-7.2"/>
		</g>
		<g>
			<path class="none-tier-st1" d="M66.8,60.7c0.1-6.1,3.4-11.8,8-15.8s10.2-6.6,15.8-8.8C120.2,25,153.2,24.8,184,32c5.6,1.3,11.3,2.9,16.1,6
				c4.8,3.1,8.8,8.1,9.5,13.8"/>
		</g>
		<g>
			<path class="none-tier-st1" d="M191,45.8c6.4,1.6,13.1,3.3,18.4,7.2c5.3,4,9,10.8,7.3,17.2"/>
		</g>
		<g>
			<path class="none-tier-st1" d="M75.1,42.6c7.7-13.4,18.6-25.3,32.2-32.7C133-4.2,168.5,2,189,22.8c0.2,0.2,0.5,0.5,0.7,0.7
				c4.1,4.3,6,6.6,8.9,11.8"/>
		</g>
		<g>
			<path class="none-tier-st1" d="M55.9,88.1c11.9,11.7,24.5,22.9,37.6,33.2c3.6,2.9,7.6,5.8,12.2,6.3c7.1,0.8,15.5-7.7,20.8-12.5"/>
		</g>
		<g>
			<path class="none-tier-st1" d="M226,88.1c-11.9,11.7-24.5,22.9-37.6,33.2c-3.6,2.9-7.6,5.8-12.2,6.3c-5.7,0.6-10.5-4.4-14.2-8.1
				c-4.7-4.7-8.9-9.7-14.3-13.8c-2-1.5-4.2-3-6.8-3.1c-3.2,0-5.9,2.3-8.2,4.4"/>
		</g>
		<g>
			<path class="none-tier-st1" d="M55.8,80.3c11.9,11.7,24.5,22.9,37.6,33.2c3.6,2.9,7.6,5.8,12.2,6.3c7.1,0.8,13.9-6.2,19.2-11"/>
		</g>
		<g>
			<path class="none-tier-st1" d="M226,80.3c-11.9,11.7-24.5,22.9-37.6,33.2c-3.6,2.9-7.6,5.8-12.2,6.3c-5.7,0.6-10.5-4.4-14.2-8.1
				c-4.7-4.7-8.9-9.7-14.3-13.8c-2-1.5-4.2-3.2-6.8-3.1c-6.2,0.4-10.7,8.1-13,10.3"/>
		</g>
		<g>
			<path class="none-tier-st1" d="M225.3,81.3c0.3-0.9,1.5-1.2,2.3-0.8s1.2,1.5,1.1,2.4c-0.1,0.9-0.5,1.8-1,2.6c-1.1,1.8-2.5,3.4-4.1,4.8"/>
		</g>
		<g>
			<path class="none-tier-st1" d="M223.3,75.7c0,1.8,0.4,3.5,0.9,5.2"/>
		</g>
		<g>
			<path class="none-tier-st1" d="M56.6,80.7c-0.3-0.5-0.8-0.8-1.4-0.9S54,80,53.7,80.5c-0.4,0.6-0.4,1.4-0.4,2.1c0.3,3,2.1,5.8,4.6,7.5"/>
		</g>
		<g>
			<path class="none-tier-st1" d="M58.5,75.6c-0.5,1.6-1,3.2-1.5,4.7"/>
		</g>
		<g>
			<path class="none-tier-st1" d="M88.9,61.1c3.5-4.9,7.9-9.9,13.8-10.9c3.3-0.5,6.7,0.3,9.4,2.3c2.6,2,4.4,5.1,4.8,8.4
				c-2.6-4.4-8.3-6.2-13.4-5.5c-5.1,0.7-9.6,3.4-14,6"/>
		</g>
		<g>
			<path class="none-tier-st1" d="M155.7,63.3c2.3,5.2,8.4,8.5,14.1,7.6s10.4-6,10.9-11.7"/>
		</g>
		<g>
			<path class="none-tier-st1" d="M180.6,58.9c-2.9,3.5-7,6-11.4,6.9c-4.4,0.9-9.2,0.2-13.2-1.9"/>
		</g>
		<g>
			<path class="none-tier-st1" d="M131.4,171.4c0-5,0-10.1-0.1-15.1c0-1.4,0.1-3,1-4c0.9-0.9,2.4-1.1,3.7-1.2c5.1-0.3,10.2-0.2,15.3,0.1
				c1,0.1,2.1,0.2,3,0.8c1.3,0.9,1.5,2.7,1.6,4.2c0.4,4.1,0.6,8.2,0.8,12.3"/>
		</g>
		<g>
			<path class="none-tier-st1" d="M141.7,155.8c1.3,5.1,1.4,10.5,0.2,15.6"/>
		</g>
		<g>
			<path class="none-tier-st1" d="M142,155.3c1.3-0.2,2.7-0.5,4.1-0.3c1.4,0.2,2.7,0.8,3.5,1.9c0.8,1.2,0.8,2.6,0.8,4c0,3.1-0.1,6.1-0.1,9.2
				c0,1.8-0.2,3.8-1.7,4.7"/>
		</g>
		<g>
			<path class="none-tier-st1" d="M140.5,169.1c-0.2,1-0.5,2-0.4,3c0.1,1,0.5,2.1,1.3,2.6c0.8,0.5,1.9,0.5,2.9,0.5c1.9-0.1,3.9-0.1,5.8-0.2"/>
		</g>
		<g>
			<path class="none-tier-st1" d="M134.5,168.1c1.9-0.2,3.9-0.4,5.8-0.6c-0.1,1.1-0.2,2.1-0.3,3.2"/>
		</g>
		<g>
			<path class="none-tier-st1" d="M141.9,169.9c0.2,1.3-0.4,2.7-1.5,3.4"/>
		</g>
		<g>
			<path class="none-tier-st1" d="M140.2,168c0.7,0,1.4,0,2,0"/>
		</g>
		<g>
			<path class="none-tier-st1" d="M133.9,168.5c0,1.5,0,3,0,4.5c0.6,0.1,1.2,0.1,1.8,0.2"/>
		</g>
		<g>
			<path class="none-tier-st1" d="M135.3,173.5c2,3.3,0.8,7.5-0.5,11.2s-2.5,8-0.3,11.2c2.1,3.1,6.3,3.7,10.1,3.8c3.9,0.1,8.3-0.4,10.7-3.5
				c2.5-3.3,1.5-7.9,0-11.8c-1.5-3.8-3.4-7.9-2.3-11.9"/>
		</g>
		<g>
			<path class="none-tier-st1" d="M152.5,173c1-0.3,1.9-0.6,2.9-0.9c-0.2-1.1-0.3-2.2-0.5-3.3c-1.4-0.1-2.8-0.2-4.3-0.2"/>
		</g>
		<g>
			<path class="none-tier-st1" d="M142.4,186.5c-1.3,0.2-2.5,0.5-3.7,1.1c-1.1,0.6-2.1,1.7-2.1,3c-0.1,1.2,0.7,2.4,1.7,3.2s2.2,1.1,3.5,1.3
				c2.4,0.4,5,0.3,7.4-0.2c1.7-0.4,3.6-1.3,4-3c0.3-1.1-0.2-2.3-1-3.2c-0.8-0.8-1.9-1.3-3-1.7c-3.2-1-6.7-0.9-9.7,0.4"/>
		</g>
		<g>
			<path class="none-tier-st1" d="M134,168.3c-1.9,1.7-2.5,4.6-1.6,6.9c0.4-0.3,0.7-0.6,1.1-0.9"/>
		</g>
		<g>
			<path class="none-tier-st1" d="M133,174.6c1,0.8,1.4,2.1,1.3,3.4s-0.6,2.4-1,3.6c-1,2.6-1.9,5.4-2,8.2c-0.1,2.8,0.6,5.8,2.5,7.9
				c1.9,2.1,11.4,3.6,14,2.6"/>
		</g>
		<g>
			<path class="none-tier-st1" d="M137.3,189.7c-0.2,0.6,0,1.4,0.4,1.9c0.4,0.5,1.1,0.8,1.7,1.1c2.9,1.2,6.2,1.5,9.3,0.7
				c0.9-0.2,1.8-0.5,2.5-1.1s1.3-1.4,1.4-2.3"/>
		</g>
		<g>
			<path class="none-tier-st1" d="M142.7,179.8c-0.9,0.1-1.8,0.3-2.7,0.6c-0.3,0.1-0.6,0.3-0.6,0.5c-0.1,0.3,0.1,0.6,0.3,0.8
				c0.2,0.2,0.5,0.2,0.8,0.3c3.1,0.4,6.2,0.3,9.3-0.5c0.6-0.1,1.3-0.4,1.4-1c0.1-0.5-0.2-0.9-0.6-1.2s-0.9-0.3-1.4-0.3
				c-2.7-0.2-5.5-0.1-8.2,0.4"/>
		</g>
		<g>
			<path class="none-tier-st1" d="M154.3,152.1c26.9-6.1,54.7-24.2,68.6-48"/>
		</g>
		<g>
			<path class="none-tier-st1" d="M52.4,109.3c20.4,24.5,52.9,38.5,84.6,41"/>
		</g>
		<g>
			<path class="none-tier-st1" d="M55.8,88.6c-0.9,7.4-1.5,14.9-1.6,22.4"/>
		</g>
		<g>
			<path class="none-tier-st1" d="M221.4,93.1c1.3,3.4,1.9,7.1,1.7,10.7"/>
		</g>
		<g>
			<path class="none-tier-st1" d="M75.1,72.1c3-5.3,7.1-10,12-13.7"/>
		</g>
		<g>
			<path class="none-tier-st1" d="M65.9,96.6c-0.6,6.2,2.7,12.1,6,17.4c3.3,5.3,6.9,10.9,7,17.2"/>
		</g>
		<g>
			<path class="none-tier-st1" d="M197,59.5c2.7,4,5.5,8,8.2,12"/>
		</g>
		<g>
			<path class="none-tier-st1" d="M211.2,101.7c-0.4,6.1-4.2,11.3-7.9,16.1c-3.6,4.9-7.4,10.1-7.7,16.2"/>
		</g>
		<g>
			<path class="none-tier-st1" d="M167,153.5c-0.1,11.2-0.3,22.3-0.4,33.5c0,0.8,0,1.6,0.4,2.2c0.4,0.7,1.3,1.1,1.9,0.8c0.7-0.4,0.8-1.3,0.8-2
				c0.5-10.7,1-21.4,1.4-32.1c0-1,0-2.2-0.7-2.9C169.8,152.4,166.8,152.5,167,153.5"/>
		</g>
		<g>
			<path class="none-tier-st1" d="M168,190.3c0.1,2.2,0.1,4.5,0.2,6.7"/>
		</g>
		<g>
			<path class="none-tier-st1" d="M122.6,153.6c0.1,11.2,0.3,22.3,0.4,33.5c0,0.8,0,1.6-0.4,2.2c-0.4,0.7-1.3,1.1-1.9,0.8
				c-0.7-0.4-0.8-1.3-0.8-2c-0.5-10.7-1-21.4-1.4-32.1c0-1,0-2.2,0.7-2.9C119.8,152.4,122.8,152.6,122.6,153.6"/>
		</g>
		<g>
			<path class="none-tier-st1" d="M121.6,190.3c-0.1,2.2-0.1,4.5-0.2,6.7"/>
		</g>
		<g>
			<path class="none-tier-st1" d="M54.9,98.2c-3.9,1.8-6.9,5.2-8.2,9.3c-1.3,4-0.8,8.6,1.3,12.3"/>
		</g>
		<g>
			<path class="none-tier-st1" d="M47.7,119.9c-3.8,3.7-7.9,8.5-6.5,13.6c1.1,3.8,4.9,6.1,8.5,7.9c18.6,9.1,38.9,14.6,59.6,16.1"/>
		</g>
		<g>
			<path class="none-tier-st1" d="M51.2,124.8c8.9,9.9,20.5,17.3,33.1,21.2"/>
		</g>
		<g>
			<path class="none-tier-st1" d="M222.9,94.9c4.1,0,8,2.5,9.7,6.2s1.1,8.3-1.6,11.4"/>
		</g>
		<g>
			<path class="none-tier-st1" d="M230.4,113.6c3,0.7,5.2,3.7,5.5,6.7c0.3,3.1-1,6.2-3,8.6c-1.9,2.4-4.5,4.3-7,6
				c-15.2,10.5-32.3,19.1-50.7,21.3"/>
		</g>
		<g>
			<path class="none-tier-st1" d="M226.3,116.6c-9.3,12.1-21.5,21.9-35.2,28.4"/>
		</g>
		<g>
			<path class="none-tier-st1" d="M229.1,133.8c3.6,6.6,4.1,14.8,1.4,21.8"/>
		</g>
		<g>
			<path class="none-tier-st1" d="M230.8,155.2c3.4,3.2,5.5,7.7,5.9,12.4c0.4,4.7-1.1,9.4-3.9,13.2"/>
		</g>
		<g>
			<path class="none-tier-st1" d="M233.5,180.8c4.5,9.9,4.5,21.2,0.8,31.3c-3.5,9.4-11.1,20.8-21,24.2"/>
		</g>
		<g>
			<path class="none-tier-st1" d="M49.7,141.3c-2,5.6-1.9,7.3,0.8,14.3"/>
		</g>
		<g>
			<path class="none-tier-st1" d="M50.2,155.2c-3.4,3.2-5.5,7.7-5.9,12.4c-0.4,4.7,1.1,9.4,3.9,13.2"/>
		</g>
		<g>
			<path class="none-tier-st1" d="M47.4,180.8c-4.4,9.6-4.6,20.7-1.2,30.7c3.2,9.4,10.2,20.6,20.4,23.3"/>
		</g>
		<g>
			<path class="none-tier-st1" d="M65.9,249.1c0.7-2.4,0-7.3-0.3-9.8c-0.2-2.5,0.6-5.6,3-6.4c1.4-0.4,2.9,0,4.3,0.5c4.5,1.5,9.1,3.1,13.6,4.6
				c2.5,0.8,5.1,1.8,6.8,3.8c1.7,2.1,2.1,5.1,1.6,7.8c-0.5,2.7-1.8,5.2-3,7.6"/>
		</g>
		<g>
			<path class="none-tier-st1" d="M65,238.9c-2.4-0.8-5-1.1-7.6-0.7c-0.7,0.1-1.4,0.3-1.9,0.8c-0.8,1-0.3,2.5,0.3,3.6c1.3,2.4,2.6,4.8,3.9,7.2
				"/>
		</g>
		<g>
			<path class="none-tier-st1" d="M93.9,253.9c1.6-2.3,3.3-4.6,5.5-6.4c2.2-1.8,4.9-3,7.7-2.8c2.8,0.2,5.3,1.8,7.7,3.4c2.2,1.5,4.5,3,6.7,4.4
				c1.6,1.1,3.4,2.3,4,4.2c0.6,1.9-0.1,3.9-1.3,5.5c-1.2,1.5-2.9,2.6-4.5,3.7"/>
		</g>
		<g>
			<path class="none-tier-st1" d="M119.8,266.3c1.9,5,2.5,10.5,1.7,15.7"/>
		</g>
		<g>
			<path class="none-tier-st1" d="M60.3,250.2c-5.4,4-10.8,8.2-14.5,13.8c-3.7,5.6-5.2,13.1-2.1,19.1"/>
		</g>
		<g>
			<path class="none-tier-st1" d="M45.6,283.7c-1.7-0.1-4.8,1-5.4,2.7c-0.6,1.7-0.3,3.5,0,5.2c0.4,1.6,0.9,3.2,1.9,4.5s2.7,2.1,4.3,1.7"/>
		</g>
		<g>
			<path class="none-tier-st1" d="M46.3,297.3c0.8-0.9,1.4-1.9,1.8-3c0.6,1.2,0.9,2.5,0.9,3.8"/>
		</g>
		<g>
			<path class="none-tier-st1" d="M49.2,298.3c1.9,2.5,5.4,3.6,8.4,2.6"/>
		</g>
		<g>
			<path class="none-tier-st1" d="M57,301.1c0.6-1.2,1.2-2.4,1.8-3.6c0.4,1.8,0.8,3.6,1.2,5.3"/>
		</g>
		<g>
			<path class="none-tier-st1" d="M60.3,302.5c3.3,1.9,7.2,2.7,10.9,2"/>
		</g>
		<g>
			<path class="none-tier-st1" d="M71.1,304.8c0.4-1.6,0.7-3.3,1.1-4.9c0.8,1.7,1.5,3.4,2.3,5.1"/>
		</g>
		<g>
			<path class="none-tier-st1" d="M75.4,304.9c3.5,1.9,8,2,11.6,0.3"/>
		</g>
		<g>
			<path class="none-tier-st1" d="M87.4,305.1c0.4-1.8,0.9-3.6,1.3-5.4c1.3,1.3,2.2,2.9,2.6,4.7"/>
		</g>
		<g>
			<path class="none-tier-st1" d="M91.2,304.7c3.9,1.3,8.4,0.4,11.4-2.4"/>
		</g>
		<g>
			<path class="none-tier-st1" d="M102.4,302.8c0.1-2,0.1-3.9,0.2-5.9c1.5,1.4,2.6,3.2,3.4,5.1"/>
		</g>
		<g>
			<path class="none-tier-st1" d="M106,302c4.3-0.6,8.3-2.9,10.9-6.3"/>
		</g>
		<g>
			<path class="none-tier-st1" d="M116.9,296c0-1.6-0.1-3.2-0.1-4.8c1.4,1,2.9,2,4.3,3"/>
		</g>
		<g>
			<path class="none-tier-st1" d="M120.9,294.5c1.4-0.2,2.8-0.5,4.1-1.1c1.3-0.6,2.4-1.7,2.7-3.1c0.3-1.2-0.1-2.4-0.4-3.6
				c-0.4-1.3-0.8-2.6-1.6-3.7c-0.8-1.1-2.1-1.9-3.5-1.7"/>
		</g>
		<g>
			<path class="none-tier-st1" d="M45,284.9c22.6,11.5,50.8,11.1,73-0.9"/>
		</g>
		<g>
			<path class="none-tier-st1" d="M62,254.1c0-1.3,0.1-2.6,0.7-3.7s2.1-1.9,3.2-1.3"/>
		</g>
		<g>
			<path class="none-tier-st1" d="M64.7,249c5.1,0.2,10.2,0.7,15,2.4c4.8,1.7,9.3,4.6,12,8.8"/>
		</g>
		<g>
			<path class="none-tier-st1" d="M61.9,254.4c7,1.1,13.7,3.7,19.5,7.7c1.3,0.9,2.7,1.9,4.2,2.5c1.5,0.6,3.3,0.8,4.7,0
				c1.4-0.8,2.3-2.7,1.6-4.1"/>
		</g>
		<g>
			<path class="none-tier-st1" d="M53.6,263.4c0-1.3,0.1-2.6,0.7-3.7c0.6-1.1,2.1-1.9,3.2-1.3"/>
		</g>
		<g>
			<path class="none-tier-st1" d="M56.2,258.3c5.1,0.2,10.2,0.7,15,2.4s9.3,4.6,12,8.8"/>
		</g>
		<g>
			<path class="none-tier-st1" d="M53.4,263.7c7,1.1,13.7,3.7,19.5,7.7c1.3,0.9,2.7,1.9,4.2,2.5c1.5,0.6,3.3,0.8,4.7,0
				c1.4-0.8,2.3-2.7,1.6-4.1"/>
		</g>
		<g>
			<path class="none-tier-st1" d="M118.6,266.5c-3.8,1.8-6.9,4.8-8.9,8.4s-2.8,7.9-2.3,12.1"/>
		</g>
		<g>
			<path class="none-tier-st1" d="M100.6,257.6c5.5,2,11,3.9,16.5,5.9"/>
		</g>
		<g>
			<path class="none-tier-st1" d="M62.1,254.9c-1.3,1-2.7,2-4,3"/>
		</g>
		<g>
			<path class="none-tier-st1" d="M54.4,263.8c-0.8,1-1.6,2-2.4,3c-0.2,0.3-0.4,0.6-0.3,0.9c0.1,0.5,0.7,0.5,1.2,0.5
				c6.8-0.1,13.6,2.2,18.9,6.5c0.5-0.5,1-1,1.4-1.5"/>
		</g>
		<g>
			<path class="none-tier-st1" d="M80.7,266.3c1.2-1,2.3-2,3.5-3"/>
		</g>
		<g>
			<path class="none-tier-st1" d="M89.7,256.9c1-0.5,1.8-1.4,2.2-2.4"/>
		</g>
		<g>
			<path class="none-tier-st1" d="M69.6,237c5.6,1.9,11.3,3.8,16.9,5.7c0.9,0.3,1.9,0.6,2.6,1.3c1.2,1,1.7,2.7,1.6,4.3
				c-0.1,1.6-0.7,3.1-1.3,4.6"/>
		</g>
		<g>
			<path class="none-tier-st1" d="M44.2,271.2c1-1.3,2.3-2.2,3.9-2.7"/>
		</g>
		<g>
			<path class="none-tier-st1" d="M75.6,275.9c2.6,2,4.7,4.7,6.1,7.7"/>
		</g>
		<g>
			<path class="none-tier-st1" d="M85.1,288.6c0.1,0.6,0.2,1.1,0.3,1.7"/>
		</g>
		<g>
			<path class="none-tier-st1" d="M213.3,249.1c-0.7-2.4,0-7.3,0.3-9.8c0.2-2.5-0.6-5.6-3-6.4c-1.4-0.4-2.9,0-4.3,0.5
				c-4.5,1.5-9.1,3.1-13.6,4.6c-2.5,0.8-5.1,1.8-6.8,3.8c-1.7,2.1-2.1,5.1-1.6,7.8c0.5,2.7,1.8,5.2,3,7.6"/>
		</g>
		<g>
			<path class="none-tier-st1" d="M214.2,238.9c2.4-0.8,5-1.1,7.6-0.7c0.7,0.1,1.4,0.3,1.9,0.8c0.8,1,0.3,2.5-0.3,3.6
				c-1.3,2.4-2.6,4.8-3.9,7.2"/>
		</g>
		<g>
			<path class="none-tier-st1" d="M185.3,253.9c-1.6-2.3-1.2-5.1-3.3-7c-2.2-2-8.2-19.8-9.9-2.2c-0.3,2.8-5.3,1.8-7.7,3.4
				c-2.2,1.5-4.5,3-6.7,4.4c-1.6,1.1-3.4,2.3-4,4.2c-0.6,1.9,0.1,3.9,1.3,5.5c1.2,1.5,2.9,2.6,4.5,3.7"/>
		</g>
		<g>
			<path class="none-tier-st1" d="M159.4,266.3c-1.9,5-2.5,10.5-1.7,15.7"/>
		</g>
		<g>
			<path class="none-tier-st1" d="M218.9,250.2c5.4,4,10.8,8.2,14.5,13.8c3.7,5.6,5.2,13.1,2.1,19.1"/>
		</g>
		<g>
			<path class="none-tier-st1" d="M235.2,283.4c1.7-0.1,3.3,1.3,3.8,3c0.6,1.7,0.3,3.5,0,5.2c-0.4,1.6-0.9,3.2-1.9,4.5s-2.7,2.1-4.3,1.7"/>
		</g>
		<g>
			<path class="none-tier-st1" d="M232.9,297.3c-0.8-0.9-1.4-1.9-1.8-3c-0.6,1.2-0.9,2.5-0.9,3.8"/>
		</g>
		<g>
			<path class="none-tier-st1" d="M230,298.3c-1.9,2.5-5.4,3.6-8.4,2.6"/>
		</g>
		<g>
			<path class="none-tier-st1" d="M222.2,301.1c-0.6-1.2-1.2-2.4-1.8-3.6c-0.4,1.8-0.8,3.6-1.2,5.3"/>
		</g>
		<g>
			<path class="none-tier-st1" d="M219,302.5c-3.3,1.9-7.2,2.7-10.9,2"/>
		</g>
		<g>
			<path class="none-tier-st1" d="M208.1,304.8c-0.4-1.6-0.7-3.3-1.1-4.9c-0.8,1.7-1.5,3.4-2.3,5.1"/>
		</g>
		<g>
			<path class="none-tier-st1" d="M203.8,304.9c-3.5,1.9-8,2-11.6,0.3"/>
		</g>
		<g>
			<path class="none-tier-st1" d="M191.8,305.1c-0.4-1.8-0.9-3.6-1.3-5.4c-1.3,1.3-2.2,2.9-2.6,4.7"/>
		</g>
		<g>
			<path class="none-tier-st1" d="M188,304.7c-3.9,1.3-8.4,0.4-11.4-2.4"/>
		</g>
		<g>
			<path class="none-tier-st1" d="M176.8,302.8c-0.1-2-0.1-3.9-0.2-5.9c-1.5,1.4-2.6,3.2-3.4,5.1"/>
		</g>
		<g>
			<path class="none-tier-st1" d="M173.2,302c-4.3-0.6-8.3-2.9-10.9-6.3"/>
		</g>
		<g>
			<path class="none-tier-st1" d="M162.3,296c0-1.6,0.1-3.2,0.1-4.8c-1.4,1-2.9,2-4.3,3"/>
		</g>
		<g>
			<path class="none-tier-st1" d="M158.3,294.5c-1.4-0.2-2.8-0.5-4.1-1.1c-1.3-0.6-2.4-1.7-2.7-3.1c-0.3-1.2,0.1-2.4,0.4-3.6
				c0.4-1.3,0.8-2.6,1.6-3.7c0.8-1.1,2.1-1.9,3.5-1.7"/>
		</g>
		<g>
			<path class="none-tier-st1" d="M234.3,284.9c-22.6,11.5-50.8,11.1-73-0.9"/>
		</g>
		<g>
			<path class="none-tier-st1" d="M217.2,254.1c0-1.3-0.1-2.6-0.7-3.7s-2.1-1.9-3.2-1.3"/>
		</g>
		<g>
			<path class="none-tier-st1" d="M214.5,249c-5.1,0.2-10.2,0.7-15,2.4c-4.8,1.7-9.3,4.6-12,8.8"/>
		</g>
		<g>
			<path class="none-tier-st1" d="M217.4,254.4c-7,1.1-13.7,3.7-19.5,7.7c-1.3,0.9-2.7,1.9-4.2,2.5s-3.3,0.8-4.7,0c-1.4-0.8-2.3-2.7-1.6-4.1"
				/>
		</g>
		<g>
			<path class="none-tier-st1" d="M225.7,263.4c0-1.3-0.1-2.6-0.7-3.7s-2.1-1.9-3.2-1.3"/>
		</g>
		<g>
			<path class="none-tier-st1" d="M223,258.3c-5.1,0.2-10.2,0.7-15,2.4c-4.8,1.7-9.3,4.6-12,8.8"/>
		</g>
		<g>
			<path class="none-tier-st1" d="M160.7,266.5c3.8,1.8,6.9,4.8,8.9,8.4s2.8,7.9,2.3,12.1"/>
		</g>
		<g>
			<path class="none-tier-st1" d="M178.6,257.6c-5.5,2-11,3.9-16.5,5.9"/>
		</g>
		<g>
			<path class="none-tier-st1" d="M217.1,254.9c1.3,1,2.7,2,4,3"/>
		</g>
		<g>
			<path class="none-tier-st1" d="M198.6,266.3c-1.2-1-2.3-2-3.5-3"/>
		</g>
		<g>
			<path class="none-tier-st1" d="M189.5,256.9c-1-0.5-1.8-1.4-2.2-2.4"/>
		</g>
		<g>
			<path class="none-tier-st1" d="M209.7,237c-5.6,1.9-11.3,3.8-16.9,5.7c-0.9,0.3-1.9,0.6-2.6,1.3c-1.2,1-1.7,2.7-1.6,4.3
				c0.1,1.6,0.7,3.1,1.3,4.6"/>
		</g>
		<g>
			<path class="none-tier-st1" d="M235,271.2c-1-1.3-2.3-2.2-3.9-2.7"/>
		</g>
		<g>
			<path class="none-tier-st1" d="M203.7,275.9c-2.6,2-4.7,4.7-6.1,7.7"/>
		</g>
		<g>
			<path class="none-tier-st1" d="M194.1,288.6c-0.1,0.6-0.2,1.1-0.3,1.7"/>
		</g>
		<g>
			<path class="none-tier-st1" d="M121.9,265.8c11.5,1.9,23.5,2.7,34.8-0.2"/>
		</g>
		<g>
			<path class="none-tier-st1" d="M135.5,198.6c-0.1,23.4,0.6,45.1,0.5,68.6"/>
		</g>
		<g>
			<path class="none-tier-st1" d="M150.6,199.5c0.1,21.6-1,45-3.3,66.5"/>
		</g>
		<g>
			<path class="none-tier-st1" d="M176.6,187.3c18-6.7,34.8-16.5,49.4-28.9"/>
		</g>
		<g>
			<path class="none-tier-st1" d="M159.6,218.5c23.4-0.7,46.4-11,62.5-28.2"/>
		</g>
		<g>
			<path class="none-tier-st1" d="M53.2,188c15.7,20.9,43,32.5,69,29.3"/>
		</g>
		<g>
			<path class="none-tier-st1" d="M57.9,162.8c13.7,9.8,29.5,16.8,46,20.2"/>
		</g>
		<g>
			<path class="none-tier-st1" d="M45.6,111.9c-3.4-0.1-6.8,0.4-9.9,1.6"/>
		</g>
		<g>
			<path class="none-tier-st1" d="M34.9,112.3c0.5-1.2-1.5-2.1-2.5-1.3c-1,0.9-1,2.4-0.9,3.7c1.3,29,2.7,58.3,10,86.5"/>
		</g>
		<g>
			<path class="none-tier-st1" d="M36.1,117.6c1.1,22,3.1,43.9,5.8,65.7"/>
		</g>
		<g>
			<path class="none-tier-st1" d="M233.8,104.5c2.2-0.4,4.5-0.1,6.6,1"/>
		</g>
		<g>
			<path class="none-tier-st1" d="M241,105.5c-0.6-1,0.9-3.1,1.9-3.2c1-0.1,2,0.8,2.4,1.9c0.4,1.1,0.4,2.3,0.4,3.5
				c-0.6,28.1-1.2,56.6-7.9,83.6"/>
		</g>
		<g>
			<path class="none-tier-st1" d="M241,109.3c-1.4,18-2.7,35.9-4.1,53.9"/>
		</g>
		<g>
			<path class="none-tier-st1" d="M30.9,125.4c-10.9,5.2-20.1,13.8-26.1,24.2c-1.5,2.7-2.9,5.5-3.1,8.6s0.8,6.4,3.2,8.2"/>
		</g>
		<g>
			<path class="none-tier-st1" d="M4.2,165.9c-3.6,7.7-3.3,17.1,0.7,24.6s11.7,12.9,20.1,14.2"/>
		</g>
		<g>
			<path class="none-tier-st1" d="M24.5,204c-1.9,2.5-1,6.6,1.8,8.1c1.6,0.8,3.4,0.8,5.2,0.7c4.3-0.4,8.5-1.7,12.3-3.7"/>
		</g>
		<g>
			<path class="none-tier-st1" d="M25.4,205.1c6-0.8,11.7-3.6,16-7.9"/>
		</g>
		<g>
			<path class="none-tier-st1" d="M8.2,165.7c6.8-5.4,16.7-6.5,24.6-2.8"/>
		</g>
		<g>
			<path class="none-tier-st1" d="M20,144.9c5.4,1.4,9.9,5.5,11.8,10.7"/>
		</g>
		<g>
			<path class="none-tier-st1" d="M28.5,213.4c-0.5,3.8-1.9,7.4-4.1,10.6c-1.5,2.1-3.4,4.4-2.9,7c0.3,1.7,1.7,3.1,3.4,3.7s3.4,0.7,5.2,0.5
				c8.4-0.7,16.2-5.6,20.6-12.7"/>
		</g>
		<g>
			<path class="none-tier-st1" d="M25,226.4c5.8-2.1,10.7-6.6,13.1-12.3"/>
		</g>
		<g>
			<path class="none-tier-st1" d="M298.5,75.4c-3.6,0.8-6.8,3-9.8,5.2c-7.4,5.2-14.8,10.5-22.2,15.7c-2.1,1.5-4.3,3.1-5.5,5.5
				c-1.9,4-0.1,8.8,2.2,12.6c2.6,4.1,5.9,7.8,10.1,10.2s9.3,3.5,14,2.3c4.6-1.2,8.5-4.4,11.2-8.3c2.7-3.9,4.4-8.4,5.7-13
				c1.6-5.4,2.7-11,1.9-16.5S302.1,78.2,297,76"/>
		</g>
		<g>
			<path class="none-tier-st1" d="M267.5,71.4c-0.1,8-0.7,16-1.9,23.9"/>
		</g>
		<g>
			<path class="none-tier-st1" d="M267.3,71.1c-1.9-1.4-3.5-3.3-4.6-5.4"/>
		</g>
		<g>
			<path class="none-tier-st1" d="M262.8,65.2c4.9-3.6,11.5-6,17.5-5.6c6.1,0.3,12,2.9,16.5,7.1"/>
		</g>
		<g>
			<path class="none-tier-st1" d="M296.8,68.1c-1.1,1.4-2.3,2.2-4,2.9"/>
		</g>
		<g>
			<path class="none-tier-st1" d="M268.6,68.3c7.2,2.8,15.2,3.4,22.7,1.5"/>
		</g>
		<g>
			<path class="none-tier-st1" d="M273.3,77.9c4.8,1.7,10.2,1.3,14.8-0.9"/>
		</g>
		<g>
			<path class="none-tier-st1" d="M262.9,114.7c-0.3,6.6-1,13.3-2.1,19.8"/>
		</g>
		<g>
			<path class="none-tier-st1" d="M261.6,133.9c-2.8,3.1-5.7,6.2-8.5,9.4"/>
		</g>
		<g>
			<path class="none-tier-st1" d="M252.7,143.2c7.5,4.9,16.7,7.4,25.7,6.8c5.5-0.3,11.4-2.1,14.4-6.8"/>
		</g>
		<g>
			<path class="none-tier-st1" d="M286.7,135.8c2.3,2.2,4.2,4.8,5.7,7.6"/>
		</g>
		<g>
			<path class="none-tier-st1" d="M287.5,128.3c-0.5,2.9-0.6,5.8-0.3,8.7"/>
		</g>
		<g>
			<path class="none-tier-st1" d="M265.7,136.8c5.2,4.1,12.7,5.1,18.8,2.4"/>
		</g>
		<g>
			<path class="none-tier-st1" d="M268.2,128.5c5,3,11.1,4.2,16.9,3.1"/>
		</g>
		<g>
			<path class="none-tier-st1" d="M269.9,149.1c-4.6,42.6-9.1,85.1-13.7,127.7"/>
		</g>
		<g>
			<path class="none-tier-st1" d="M276.2,151.4c-4.5,42.5-9.1,84.9-13.6,127.4"/>
		</g>
		<g>
			<path class="none-tier-st1" d="M256.7,274.8c-4.9-0.6-9.9,0.5-14.1,3.1c9.5,3,19.6,4.1,29.5,3.3c0.9-0.1,2-0.4,2.1-1.2
				c0.2-0.9-0.9-1.5-1.8-1.9c-2.9-1.1-5.9-1.9-9-2.6"/>
		</g>
		<g>
			<path class="none-tier-st1" d="M242.3,278.1c-0.1,1.2-0.1,2.3-0.2,3.5c8.7,3.9,18.7,3.6,28.3,3.1c1.3-0.1,2.7-0.1,3.8-0.9
				c1.1-0.7,1.7-2.4,0.8-3.4"/>
		</g>
		<g>
			<path class="none-tier-st1" d="M255.3,284.6c0.6,6.5,1.2,13.1,1.8,19.6"/>
		</g>
		<g>
			<path class="none-tier-st1" d="M246.2,108.8c3,2.5,5.4,5.7,7,9.2c-1.3-5.1-0.7-10.7,1.6-15.5c2.4-4.7,6.5-8.6,11.4-10.6"/>
		</g>
		<g>
			<path class="none-tier-st1" d="M241.9,178.4c8.6-0.7,16.3-7.7,17.9-16.1"/>
		</g>
		<g>
			<path class="none-tier-st1" d="M260,161.7c3,0.7,6.4-1.2,7.3-4.2"/>
		</g>
		<g>
			<path class="none-tier-st1" d="M252.6,122.3c-2.8,13.4-3.1,27.4-0.7,41"/>
		</g>
		<g>
			<path class="none-tier-st1" d="M253.9,123.9c0.9,3.1,1.7,6.1,2.6,9.2"/>
		</g>
		<g>
			<path class="none-tier-st1" d="M289.8,137.8c4.8-2.3,8.8-6.2,11.2-10.9c2.5-4.7,3.4-10.2,2.6-15.5"/>
		</g>
		<g>
			<path class="none-tier-st1" d="M38.6,111.8c-2.4-14.3-4.8-28.7-7.2-43c-1-5.7-1.9-11.6-0.2-17.2c3-9.6,13.1-15.2,23-17.6
				c9.8-2.4,20.2-2.6,29.5-6.3"/>
		</g>
		<g>
			<path class="none-tier-st1" d="M37,53.9c1.1,18.3,3,36.6,5.9,54.8"/>
		</g>
		<g>
			<path class="none-tier-st1" d="M41.7,47.9c10.4-5.6,21.8-9.1,33.5-10.3"/>
		</g>
		<g>
			<path class="none-tier-st1" d="M32.6,85.6c-0.8-0.9-2.5-0.3-3.1,0.8s-0.3,2.4-0.1,3.7c0.6,3.4,1.3,6.9,1.9,10.3c0.1,0.7,0.3,1.4,0.7,2
				c1,1.2,2.8,0.9,4.3,0.6"/>
		</g>
		<g>
			<path class="none-tier-st1" d="M29,100c-3.9,4.5-7.7,8.9-11.6,13.4c-0.5,0.6-1.1,1.3-0.9,2.1c0.1,0.4,0.5,0.8,0.9,1c1,0.5,2.3,0.2,3.3-0.4
				c1-0.7,1.6-1.6,2.3-2.6c2.2-3.2,4.5-6.4,6.7-9.7c0.4-0.6,0.8-1.1,0.9-1.8c0.1-0.7-0.2-1.5-0.8-1.7"/>
		</g>
		<g>
			<path class="none-tier-st1" d="M26.2,101.9c-0.8-2.3-1.7-4.6-1.5-7.1c0.2-2.4,1.7-4.9,4-5.5"/>
		</g>
		<g>
			<path class="none-tier-st1" d="M28.7,92.6c-0.4,2.7,0,5.5,1,8"/>
		</g>
		<g>
			<path class="none-tier-st1" d="M24.6,101.7c-0.9,1.7-2.3,3-3.8,4.3s-3,2.4-4.1,4.1s-1.6,3.7-0.8,5.5"/>
		</g>
		<g>
			<path class="none-tier-st1" d="M241,104.3c2.4-14.3,2.3-21.2,4.7-35.5c1-5.7,1.9-11.6,0.2-17.2c-3-9.6-13.1-15.2-23-17.6
				c-9.8-2.4-20.2-2.6-29.5-6.3"/>
		</g>
		<g>
			<path class="none-tier-st1" d="M240,53.9c-1.1,18.3-1.2,32-4,50.2"/>
		</g>
		<g>
			<path class="none-tier-st1" d="M235.4,47.9c-10.4-5.6-21.8-9.1-33.5-10.3"/>
		</g>
		<rect x="40" y="48.3" class="none-tier-st1" width="201.6" height="128"/>
	</g>
	<rect x="28.7" y="94" class="none-tier-st1" width="6" height="5.7"/>
	<rect x="122.9" y="262.4" class="none-tier-st1" width="2.4" height="2.4"/>
	<rect x="114.4" y="245.8" class="none-tier-st1" width="4.2" height="4.8"/>
	<rect x="119.3" y="270.2" class="none-tier-st1" width="1.4" height="5.7"/>
	<rect x="257.4" y="267.3" class="none-tier-st1" width="2" height="7.1"/>
</g>
<g>
	<path class="none-tier-st3" d="M125.8,160.4V158c0-3.8,0.7-6.9,2.2-9.3c1.4-2.4,3.6-4.9,6.6-7.5c2.4-2.2,4.6-3.9,6.5-5.3
		c1.9-1.4,3.4-2.8,4.5-4.2c1.1-1.4,1.7-3.1,1.7-5.2c0-2.9-1.1-4.9-3.4-6.1s-6-1.8-11.1-1.8c-4,0-7.7,0.5-11.3,1.4
		c-3.6,0.9-6.6,2.2-9.1,3.7v-21.1c3.5-1.8,7.6-3.2,12.2-4.2c4.6-1,9.8-1.5,15.5-1.5c10.7,0,18.9,2.3,24.7,6.9
		c5.7,4.6,8.6,10.9,8.6,18.9c0,5-0.9,9-2.8,12.2c-1.9,3.2-4.9,6.4-8.9,9.7c-3.1,2.5-5.8,4.8-8.1,6.8c-2.3,2-3.5,4.5-3.5,7.4v1.6
		H125.8z M124.6,185.3v-18H151v18H124.6z"/>
</g>
<g>
</g>
<g>
</g>
<g>
</g>
<g>
</g>
<g>
</g>
<g>
</g>
</svg>
