<?xml version="1.0" encoding="utf-8"?>
<!-- Generator: Adobe Illustrator 24.1.0, SVG Export Plug-In . SVG Version: 6.00 Build 0)  -->
<svg version="1.1" id="Capa_1" xmlns="http://www.w3.org/2000/svg" xmlns:xlink="http://www.w3.org/1999/xlink" x="0px" y="0px"
	 viewBox="0 0 440 500" style="enable-background:new 0 0 440 500;" xml:space="preserve">
<style type="text/css">
	.st0{fill:url(#SVGID_1_);}
	.st1{fill:#FE0201;}
	.st2{fill:#FD9800;}
	.st3{fill:#FFFB00;}
	.st4{fill:#34FD01;}
	.st5{fill:#0096FD;}
	.st6{fill:#6633FA;}
	.st7{fill:#FFFFFF;}
	.st8{fill:#FFC79C;}
	.st9{fill:#9A9A9A;}
	.st10{fill:#D69B6D;}
	.st11{fill:#FC98FB;}
	.st12{fill:#DF3A98;}
	.st13{fill:#FFBC5C;}
	.st14{fill:#FF0000;}
	.st15{opacity:0.63;fill:#FFF973;enable-background:new    ;}
	.st16{opacity:0.53;fill:#64428A;enable-background:new    ;}
	.st17{fill:none;}
	.st18{fill:#FF9896;}
	.st19{fill:none;stroke:#000000;stroke-width:10;stroke-miterlimit:10;}
	.st20{fill:#2D2947;}
	.st21{fill:#FFFFFF;stroke:#FFFFFF;stroke-width:0.5;stroke-miterlimit:10;}
</style>
<g id="Grumpy_Cat">
	<g id="Capa_1_1_">
	</g>
	<g id="Capa_7">
	</g>
	<g id="Capa_2_1_">
	</g>
	<g id="Capa_4">
	</g>
	<g id="Capa_3">
	</g>
	<g id="Capa_6">
	</g>
	<g id="Capa_5">
	</g>
</g>
<g id="Capa_16">
	<g id="Capa_13">
	</g>
	<g id="Capa_15">
	</g>
	<g id="Capa_11">
	</g>
	<g id="Capa_12">
	</g>
	<g id="Capa_10">
	</g>
</g>
<g id="Capa_20">
	<radialGradient id="SVGID_1_" cx="218.2" cy="233.2" r="174.1" gradientUnits="userSpaceOnUse">
		<stop  offset="0.6089" style="stop-color:#2EA3FF"/>
		<stop  offset="0.7498" style="stop-color:#26B3FF;stop-opacity:0.5725"/>
		<stop  offset="0.9384" style="stop-color:#17CEFF;stop-opacity:0"/>
	</radialGradient>
	<circle class="st0" cx="218.2" cy="233.2" r="174.1"/>
</g>
<g id="Capa_19">
	<path class="st1" d="M295.5,447.1c-5.3-12.4-18.1-21.7-31.6-27.4c-14.9-6.4-31.7-8.3-47.7-10.6c-16.8-2.4-33.6-4.7-50.5-7.1
		c-15.7-2.2-31.7-3.9-47.3-7.1c-12.7-2.6-25-7.2-33.1-16.5c-16.1-18.3-15.3-46-7.6-66.1c4.9-12.6,12.7-24,23.4-33.6
		c5-4.5,10.7-8.4,16.6-12c6.3-3.8,11.8-8.2,17.9-12.2c5.8-3.8,1.5-12.5-6-11.6c-7.3,0.9-15,2-21.4,5.1c-6,2.9-11.7,6.4-16.9,10.3
		c-11.1,8.5-20.2,18.3-27.4,29.5c-14.5,22.7-19.5,51.9-11,77.7c4.2,12.7,11.3,24.3,22.9,33.4c11.8,9.3,27.5,13.8,42.6,16.7
		c16.1,3,32.5,4.8,48.7,7.1c17.1,2.4,34.3,4.8,51.4,7.2c16.1,2.3,33.5,4.5,46.6,14.1c4.5,3.3,8.2,7.9,9.4,12.6c0.8,3.1,0.8,5,0.2,8
		c-0.7,3.6-0.4,5.8-0.5,9.5c-0.1,5,5.2,9.3,11.1,7.3C301.1,475.9,300.7,459.3,295.5,447.1z"/>
	<path class="st2" d="M283.3,445.8c-1.8-12.7-9.7-24.1-20.4-33.1c-23.1-19.4-55.8-23.8-86.1-26.4c-16.1-1.3-32.7-2.2-48.4-6.4
		c-12-3.2-23.9-8.5-29.7-18.5c-11-18.9-5.9-42.1,3.6-59.7c5.2-9.6,13.1-19.2,22.2-26.6c5-4.1,10-8.2,15.2-12.1
		c2.5-1.9,5.1-3.6,7.7-5.3c3-1.9,4.7-3.8,7.8-5.1c4.9-2,3-9.9-3-8.6c-3.1,0.7-6,0.6-9,1.1c-3.2,0.5-6.4,1.5-9.4,2.4
		c-6.5,2-12.6,4.5-18.3,7.8c-10.4,6.1-19.4,15-26.3,24.1c-14.8,19.5-22.4,43-19.6,66.7c1.4,12,6.2,24.5,15.7,33.9
		c10.9,10.8,25.8,16.6,41.5,20.3c32.1,7.5,66.7,3.7,98,14.7c12.5,4.4,25.1,11.7,31.3,22.3c6.1,10.4,5.7,22.1-2.9,30.4
		c-4.2,4-2.4,11,2.5,14.2c5.5,3.6,12.4,2.4,16.6-1.6C281.7,471,285.1,458.1,283.3,445.8z"/>
	<path class="st3" d="M254.7,413c-12-21.7-34.9-35-61.7-40.1c-23.4-4.4-50.4-2.8-68.6-17.3c-3.1-2.4-5.9-5.8-7.4-9.8
		c-1.8-4.6-1.6-9.4-0.8-14.1c1.7-10.2,6.8-20.2,12.6-29c6-9.1,13.6-17.6,22.4-24.8c10-8.3,22.2-14.2,29.8-24.5
		c2.2-3,0.8-8.5-4.4-8.7c-6.1-0.2-13.1,0.5-18.6,2.7c-6.1,2.5-11.7,6.4-16.7,10.1c-9.6,7.1-18.2,15.2-25.5,24.1
		c-19.7,24.3-39.6,68.8-6.7,91.2c11.9,8.1,26.6,11.5,40.5,14.2c24.9,4.8,53.1,3.2,72.2,19.8c19,16.5,21.7,42.2,6,60.4
		c-8.9,10.3,10.2,23,19,12.7C263.3,461.3,267,435.1,254.7,413z"/>
	<path class="st2" d="M124.8,278.7c-0.9-1.5-2.1-2.7-3.1-4c-0.7-1-1.8-1.5-3-1c-1.1,0.5-1.7,1.7-1.4,2.9c0.1,0.3,0.2,0.7,0.2,1
		c-0.8,0.6-1.4,1.6-1.4,2.8c0,1,0.4,2,1.1,2.6c1,1,2.3,1.2,3.6,1c-0.5,0.1-0.2,0,0.2,0c0.3,0,0.6,0,0.8-0.1
		C124.4,283.8,126.3,281.1,124.8,278.7z"/>
	<path class="st4" d="M240,434.5c-0.4-20.6-9.4-41.4-26.4-56.8c-8.2-7.4-17.5-13.5-28-18.2c-9.2-4.1-20-6.4-29.2-8.7
		c-3.8-1-9.4-2.7-12-4.1c-3.4-1.8-6-4.2-7.1-7.2c-2.8-7.5-0.1-15.7,2.9-22.6c4-9,9.9-16.2,17-23.6c3.4-3.6,7.3-6.7,10.9-10
		c3.7-3.4,7.6-7.1,12.3-9.6c5.9-3.1-0.3-9.8-5.9-8.5c-4.8,1.2-9.7,1.8-14.4,3.3c-5.3,1.7-9.9,4.1-14.3,7
		c-8.5,5.6-15.2,12.6-20.5,20.5c-10.3,15.2-18.8,37.2-7.7,54.5c12.1,18.8,37,18.5,56.5,26.5c18.6,7.6,32.8,21.9,39,38.6
		c3.6,9.6,4.3,19.9,2.1,29.6c-1.5,6.7-6,15.1-13.1,18.3c-5.6,2.5-8.8,7.8-6,13.3c2.4,4.7,10.1,8.2,15.8,5.7
		C232.2,473.2,240.4,453.8,240,434.5z"/>
	<path class="st5" d="M211,409.1c-8.1-16.3-21.9-29.8-35.2-43.2c-6.1-6.1-13-12.3-17.1-19.5c-3.9-6.8-3.1-11.8,1-18.2
		c5.2-8.1,11.6-15.5,17.9-22.9c3.3-3.9,7-7.9,9.4-12.3c1.1-2.1,2.3-4.2,3.1-6.4c0.8-2.3,1.4-5.3,2.9-7.4c1-1.4-0.6-3.9-2.7-2.9
		c-3.7,1.8-8.4,1.9-12.3,3.6c-4.7,2-9,4.7-12.8,7.8c-7.1,5.8-13.1,12.7-18.6,19.7c-5.8,7.2-11.6,15-13.7,23.7
		c-2.1,8.4,0.4,17.3,5.2,24.9c9.5,15,24.8,26.9,36.8,40.3c10.1,11.4,19.7,25.2,19.5,39.7c-0.1,7.5-2.7,13.2-7.8,18.9
		c-2.5,2.7-4.7,5.6-7.4,8.2s-6.6,3.4-9.1,6.4c-1.5,1.8-1.2,4.6,1.1,6c6.5,4.1,16.8,1.9,23.5-0.6c8.8-3.2,14.5-10.3,18.4-17.5
		C221.2,442.1,218.6,424.3,211,409.1z"/>
	<path class="st6" d="M193.7,405.2c-4.4-12.8-11.8-25-15.3-38c-3.1-11.4-2.5-22.7,1.9-33.1c2.5-6.1,5.6-11.2,10.1-16.2
		c2.5-2.8,5.3-5.3,7.9-8c2.5-2.6,4-4.7,7.3-7c7.8-5.4-0.1-18.4-9.8-14c-2.9,1.3-5.7,2.9-8.6,4.1c-4.4,1.9-7.3,3.9-10.7,7
		c-5.3,4.6-9.4,10-13,15.7c-6.7,10.7-10.6,23.1-10.7,35.5c-0.1,14,4.5,27,10.4,40.2c4.9,11,11.3,23,10.6,34.7
		c-0.8,12.1-9.2,23.1-22.4,28.1c-13.8,5.2-4.1,24.2,9.8,18.9c14.5-5.5,26-15.4,32-28C199.1,432.5,198.2,418.5,193.7,405.2z"/>
	<path class="st1" d="M113.6,255.6c-7.7,2.4-14.3,8.2-20.2,13.5c-5.7,5.2-11.9,11.3-14.5,18.7c-0.7,1.9,1.8,2.9,3.1,1.8
		c5.5-4.7,9.8-10.7,15.3-15.4c5.8-4.9,12.7-8,18.9-12.4C119,259.7,117.5,254.4,113.6,255.6z"/>
</g>
<g id="Capa_17">
</g>
<g id="Capa_21">
	<g>
		<path d="M243.7,393l-17.3-1.3c-0.5,0-1-0.3-1.4-0.7s-0.5-0.9-0.5-1.5l0.5-6.8l-7.3-0.7c-1.1-0.1-1.9-1.1-1.8-2.2l1.3-13.6
			l-0.8,0.5l-1.2,13.1c0,0.5-0.3,1-0.7,1.4c-0.4,0.3-0.8,0.5-1.3,0.5c-0.1,0-0.1,0-0.2,0l-4.8-0.4l-0.5,7.1c-0.1,1.1-1,1.9-2,1.9
			h-0.1l-17.3-1.3c-1.1-0.1-1.9-1-1.9-2.1l0.5-7.1l-7.3-0.7c-0.5,0-1-0.3-1.4-0.7c-0.3-0.4-0.5-0.9-0.5-1.5l1.6-17.3l-2.4-4.1
			c-0.5-0.3-0.9-0.6-1.3-1l-1.4-1.1c-0.3,0.2-0.6,0.3-1,0.3c-0.2,0-0.4,0-0.5-0.1c-0.5-0.1-0.9-0.5-1.2-0.9l-2.5-4.4l-6.7,3.7
			c-0.3,0.2-0.6,0.3-1,0.3c-0.2,0-0.4,0-0.6-0.1c-0.5-0.1-0.9-0.5-1.2-1l-21.6-38.9l-10.3,5.1c-0.3,0.1-0.6,0.2-0.9,0.2
			c-0.2,0-0.4,0-0.6-0.1c-0.5-0.2-0.9-0.5-1.2-1l-2.1-4.2l-32,15.8c-0.3,0.1-0.6,0.2-0.9,0.2c-0.7,0-1.4-0.4-1.8-1.1l-2-4l-12.6,6.2
			c-0.3,0.1-0.6,0.2-0.9,0.2c-0.7,0-1.4-0.4-1.8-1.1l-2.2-4.5l-2.4,1.3c-0.3,0.2-0.6,0.2-1,0.2c-0.2,0-0.4,0-0.6-0.1
			c-0.5-0.2-0.9-0.5-1.2-1l-8.7-16.1c-0.5-1-0.2-2.2,0.8-2.7l4.5-2.5l-2.4-4.9c-0.2-0.5-0.3-1-0.1-1.5s0.5-0.9,1-1.2l35.9-17.7
			c0.3-0.1,0.6-0.2,0.9-0.2c0.7,0,1.4,0.4,1.8,1.1l2.3,4.6l16.2-8c0.3-0.1,0.6-0.2,0.9-0.2c0.2,0,0.4,0,0.6,0.1l-19-35.2
			c-0.3-0.5-0.3-1-0.2-1.5c0.1-0.5,0.5-0.9,1-1.2l3.8-2.1l-0.6-1c-0.6-0.9-0.3-2.2,0.6-2.8l10.1-6.6l-3.4-5.2
			c-0.6-0.9-0.3-2.2,0.6-2.8l15.9-10.5l0.4-0.3c0.1-0.1,0.2-0.1,0.3-0.2c1.4-0.9,2.8-1.8,4.1-2.7c-9.3-5.4-15.8-13.5-18-22.6
			c-0.8-3.3-0.7-6.3,0.3-8.9c-3.7,1.6-7.5,2.9-11.3,4.2l-2,0.7c-4,1.4-8.3,3-12.3,5.4c-2,1.2-3.6,2.3-5,3.4c-0.5,0.4-1,0.8-1.5,1.1
			c-1.3,1-2.6,2-3.6,3.1c-0.6,0.7-1.4,1-2.3,1c-0.8,0-1.7-0.4-2.3-1c-0.5-0.5-0.8-1-0.9-1.7c-0.4-0.7-0.6-1.5-0.8-2.2l-0.1-0.2
			c-0.4-1.3-0.6-2.6-0.7-3.9l-0.1-0.5c-0.3-2.4-0.6-5.2-0.5-8c0.2-4.6,1.7-8.9,4.4-12.3c2.1-2.7,4.9-4.7,8.7-6.3
			c-0.1-0.7-0.1-1.4-0.2-2c-0.1-2,0.1-4,0.5-6.1c0.9-4.2,3.2-7.7,6.9-10.4c1-0.7,2-1.3,3-1.9c-0.4-3.2,0.3-6.6,2-10.3
			c1-2,2.1-3.6,3.4-5c0.3-0.3,0.6-0.6,0.9-0.9c-0.7-2.4-1.2-4.8-1.6-7.2c-1-6.7-0.9-13.3,0.3-19.8c0.6-2.9,1.4-5.9,2.6-9
			c1.1-3,2.4-6.1,4.4-8.6c1.8-2.4,4.4-3.7,7.2-3.7c1.1,0,2.2,0.2,3.3,0.6c2.9,1.1,5.4,3.3,7.7,6.8c1.3,2,2.4,4.1,3.3,6.2
			c0.4-13.2,5.1-26.4,13.5-37c10.3-13,27-21.4,43.7-21.8c0.5,0,0.9,0,1.4,0c9.3,0,18.6,2.4,27.7,7.2c4-2.6,8.6-3.9,13.4-3.9
			c13.8,0,25,11.2,25,25c0,1.9-0.2,3.8-0.6,5.6c0.9,0.7,1.8,1.3,2.6,2c0.5-1.9,0.6-3.8,0.4-5.9c-0.1-1.5-0.4-2.9-0.7-4.4
			c-0.3-1.8-0.7-3.7-0.8-5.7c-0.3-5,1.2-11.5,6.3-14.8c1.8-1.1,3.7-1.7,5.8-1.7c4.9,0,9.1,3.1,11.1,4.9c3.5,3.1,6.7,7.6,9.4,13.3
			c2.4,4.9,4.1,10.1,4.9,15.3c1.7,11.1-0.1,22.2-5.3,32c-3.7,6.9-9.1,13-15.5,17.2c1.1,0.1,2.1,0.6,2.8,1.4c0.9,1.1,1.7,2.3,2.5,3.5
			c1.7-1.5,3.3-3,4.9-4.6c0.8-0.8,1.9-1.2,3-1.2c1.6,0,3,0.8,3.6,2.2c0.7,1.5,1.3,3,1.7,4.5c0.6-0.3,1.1-0.7,1.6-1
			c0.7-0.4,1.5-0.7,2.3-0.7c2.2,0,4.1,1.8,4.4,4.2c0.3,2.7,0.6,5.9-0.4,9.4c0,0.1-0.1,0.3-0.1,0.4l2.8,0.1c1.1,0,2,1,1.9,2.1
			l-0.2,6.7c0.1,0.1,0.3,0.2,0.4,0.3l7.3,0.2c1.1,0,2,1,1.9,2.1l-0.2,5.6l5.6,0.2c0.5,0,1,0.2,1.4,0.6s0.6,0.9,0.5,1.4l-0.2,7.4
			c0.2,0.3,0.4,0.6,0.6,1l31.8,1c0.2,0,0.5,0.1,0.7,0.1l0.1-0.1l0.3-9c0-0.5,0.2-1,0.6-1.4c0.4-0.3,0.9-0.5,1.4-0.5l5.6,0.2l0.2-5.6
			c0-1.1,0.9-1.9,2-1.9l6,0.2c0.6-0.5,1.2-1,1.8-1.4l0.2-5.5c0-1.1,0.9-1.9,2-1.9l16.6,0.5c0.5,0,1,0.2,1.4,0.6s0.6,0.9,0.5,1.4
			l-0.2,7.8c0.1,0.2,0.3,0.3,0.4,0.5l6.5,0.2c0.5,0,1,0.2,1.4,0.6s0.6,0.9,0.5,1.4l-1,30.4c0.4,0.7,0.8,1.3,1.1,2.1l3.8,0.1
			c0.5,0,1,0.2,1.4,0.6s0.6,0.9,0.5,1.4l-0.7,22.3c2.6,3.4,3.2,8.4-0.4,12.1l-0.2,7.7c0,0.5-0.2,1-0.6,1.4c-0.4,0.3-0.9,0.5-1.4,0.5
			l-5-0.2l-0.2,5.6c0,0.5-0.2,1-0.6,1.4c-0.4,0.3-0.9,0.5-1.4,0.5l-6.3-0.2l-0.3,9.7c0,0.5-0.2,1-0.6,1.4c-0.4,0.3-0.9,0.5-1.4,0.5
			l-9.6-0.3h-0.1l-0.2,5.5c0,1.1-0.9,1.9-2,1.9l-18.3-0.6l8.3,13.6c0.5,0.9,0.3,2-0.4,2.6h0.1c0.4,0,0.7,0.1,1.1,0.3
			c0.4,0.3,0.8,0.7,0.9,1.3l8.3,37c0.2,1.1-0.4,2.1-1.5,2.4l-4.7,1l1.6,6.3c0.3,1.1-0.4,2.2-1.4,2.4l-16.8,4.4
			c-0.2,0-0.3,0.1-0.5,0.1c-0.4,0-0.7-0.1-1-0.3c-0.5-0.3-0.8-0.7-0.9-1.2l-1.6-6.2l-7.1,1.6c-0.1,0-0.3,0-0.4,0
			c-0.4,0-0.7-0.1-1.1-0.3c-0.4-0.3-0.8-0.7-0.9-1.3l-1.6-7l-0.7,0.4l1.6,7c0.1,0.5,0,1.1-0.3,1.5s-0.7,0.8-1.3,0.9l-4.7,1l1.7,6.6
			c0.3,1.1-0.4,2.2-1.4,2.4l-16.8,4.4c-0.2,0-0.3,0.1-0.5,0.1c-0.4,0-0.7-0.1-1-0.3c-0.5-0.3-0.8-0.7-0.9-1.2l-1.7-6.5l-1.7,0.4
			l-49.5,29.9l-3,31.6c-0.1,1-1,1.8-2,1.8c-0.1,0-0.1,0-0.2,0l-4.8-0.4l-0.5,6.8c0,0.5-0.3,1-0.7,1.4c-0.4,0.3-0.8,0.5-1.3,0.5
			C243.8,393,243.7,393,243.7,393z M264.6,113.4L264.6,113.4C264.6,113.3,264.6,113.4,264.6,113.4L264.6,113.4z"/>
		<path class="st7" d="M185,26.6c9.8,0,19.3,2.9,27.8,7.6c3.8-2.7,8.3-4.2,13.3-4.2c12.7,0,23,10.3,23,23c0,2.2-0.3,4.4-0.9,6.5
			c2,1.4,4,2.9,5.7,4.7c0.3-0.7,0.6-1.3,0.8-2c0.8-2.5,1-5,0.8-7.6c-0.3-3.4-1.2-6.6-1.4-10c-0.3-4.7,1.1-10.3,5.4-12.9
			c1.5-0.9,3.1-1.3,4.7-1.3c3.5,0,7.1,2,9.7,4.4c3.8,3.4,6.7,8.1,9,12.7s3.9,9.6,4.7,14.7c1.6,10.6,0,21.2-5.1,30.8
			c-4.4,8.3-11.6,15.5-20.2,19.5c0.3,1.2,0.6,2.3,0.8,3.5c0.3,1.2,0.5,2.4,0.8,3.6c0.8-1.9,1.7-3.7,2.7-5.4c0.4-0.7,1.2-1.1,2-1.1
			c0.5,0,1.1,0.2,1.4,0.6c1.4,1.7,2.5,3.5,3.5,5.4c2.3-2.1,4.5-4.2,6.7-6.3c0.4-0.4,1-0.6,1.6-0.6c0.7,0,1.5,0.3,1.8,1.1
			c1,2.2,1.8,4.4,2.2,6.7c1.4-0.7,2.7-1.5,4-2.3c0.4-0.3,0.8-0.4,1.2-0.4c1.2,0,2.3,1.1,2.4,2.4c0.4,2.9,0.5,5.7-0.4,8.5
			c-0.3,1-0.7,2-1.1,2.9l5.6,0.2l-0.2,7.6c0.6,0.5,1.1,0.9,1.7,1.4l7.9,0.2l-0.2,6.6c0.3,0.3,0.7,0.7,1,1l6.5,0.2l-0.3,8
			c0.5,0.8,1,1.6,1.5,2.4l32.9,1l-0.1,1.8c0.1-0.1,0.3-0.3,0.5-0.4c0.9-0.9,1.7-1.9,2.6-2.8h-0.2l0.3-9.5l6.9,0.2v1.5
			c0.2-0.3,0.5-0.5,0.7-0.8l0.3-8.2l6.7,0.2c0.9-0.9,1.9-1.7,3-2.4l0.2-6.5l16.5,0.5l-0.3,8.5c0.5,0.6,0.9,1.2,1.3,1.8l7.6,0.2
			l-1,31.1c0.8,1,1.3,2.1,1.6,3.4l5.2,0.2l-0.7,23c2.5,2.9,3.2,7.3-0.2,10.4l-0.1,0.1l-0.3,8.5l-6.9-0.2l-0.2,7.6l-9.5-0.3v-0.2
			c-0.1,0.1-0.3,0.3-0.4,0.4c-0.3,0.4-0.7,0.8-1,1.2l2.7,0.1l-0.3,10.3l-9.5-0.3l0.1-3.1c-0.7,0.6-1.4,1.2-2.2,1.7l-0.3,8.8
			l-21.9-0.7l10.3,16.8l-3.9,2.4l1.1,2.1l4.2-0.9l8.3,37l-6.7,1.5l2.2,8.3l-16.8,4.4l-2.1-8.1l-9,2l-2.2-9.7l-4.3,2.6l1.9,8.4
			l-6.7,1.5l2.2,8.6L311,327l-2.2-8.4l-3.9,0.9l-50.6,30.6l-3.1,32.7l-6.8-0.6l-0.6,8.9l-17.3-1.3l0.6-8.7l-9.2-0.9l1.6-17.5l-5,2.9
			l-1.3,14.2l-6.8-0.6l-0.7,9.2l-17.3-1.3l0.7-9l-9.2-0.9l1.7-17.9l-3-5.2c-0.5-0.2-1-0.6-1.4-1c-0.8-0.7-1.6-1.3-2.4-2l-0.1-0.1
			l-1.2,0.7l-3.5-6.1l-8.5,4.7L139,309.6l-12,5.9l-2.9-6l-33.8,16.7l-2.9-5.8L73,327.5l-3.2-6.4l-4.2,2.3l-8.7-16.1l6.2-3.4
			l-3.3-6.7l35.9-17.7l3.2,6.4l18-8.9l3,6.1l3.4-1.7L99.9,239l5.7-3.1l-1.8-2.8l11.8-7.7l-4.5-6.9l16.1-10.5
			c0.2-0.1,0.3-0.3,0.5-0.4c2.1-1.3,4.1-2.6,6-4.1c0.3-0.2,0.5-0.4,0.8-0.6c-9.3-4.6-17.3-12.5-19.7-22.8c-0.9-3.6-0.7-7.4,1.8-10.4
			c1.9-2.4,4.8-3.6,7.4-5c2.4-1.3,4.5-3.1,6-5.4c1-1.5,2-3.1,2.8-4.9l0,0c-0.4,0.6-0.8,1.3-1.2,1.9c-1.5,2.1-3.3,3.9-5.3,5.6
			c-7.9,6.4-17.6,9.5-27,12.8c-4.4,1.5-8.6,3.2-12.6,5.6c-1.8,1.1-3.6,2.3-5.3,3.6c-1.8,1.4-3.8,2.7-5.3,4.4
			c-0.2,0.3-0.5,0.4-0.8,0.4c-0.6,0-1.2-0.6-1.2-1.2c-0.4-0.7-0.6-1.6-0.9-2.4c-0.4-1.3-0.6-2.7-0.7-4c-0.3-2.5-0.6-5.1-0.5-7.6
			c0.2-4.1,1.5-8,4-11.2c2.4-3.1,5.7-5,9.4-6.2c-0.3-1.1-0.4-2.3-0.5-3.3c-0.1-1.9,0.1-3.8,0.5-5.6c0.8-3.9,2.9-6.9,6.1-9.2
			c1.3-0.9,2.6-1.7,4-2.4c-0.8-3.5,0.1-7.2,1.6-10.5c0.8-1.7,1.8-3.2,3.1-4.5c0.5-0.5,1.1-1.1,1.7-1.6c-0.8-2.7-1.5-5.4-1.9-8.1
			c-1-6.4-0.9-12.8,0.3-19.1c0.6-2.9,1.4-5.8,2.5-8.6c1.1-2.8,2.3-5.8,4.1-8.1c1.4-1.9,3.4-2.9,5.6-2.9c0.8,0,1.7,0.2,2.6,0.5
			c2.9,1.2,5.1,3.5,6.8,6.1c3.4,5,4.7,10.8,7.1,16.2c0.3,0.7,0.6,1.3,1,2c-0.1-0.7-0.3-1.4-0.4-2.1c-2.7-16.3,2.2-33.8,12.3-46.8
			c9.9-12.6,26.2-20.7,42.2-21.1C184.1,26.6,184.6,26.6,185,26.6 M257.6,69.2c0-0.2,0.1-0.4,0.1-0.6c-0.1,0.1-0.1,0.2-0.2,0.3
			C257.5,69,257.5,69.1,257.6,69.2 M190.4,140.1C190.4,140,190.4,140,190.4,140.1c0-0.2-0.1-0.4-0.1-0.5
			C190.3,139.7,190.3,139.9,190.4,140.1 M75.9,183.9l0.1-0.1h-0.1C75.9,183.8,75.9,183.9,75.9,183.9 M357,236.5l-0.1-0.1
			c-0.1,0-0.1-0.1-0.2-0.1c-0.2,0.1-0.3,0.1-0.5,0.2L357,236.5 M346.2,307.4l0.4-0.1c-0.2-0.3-0.4-0.6-0.6-1L346.2,307.4
			 M168.8,342.7l1.1-0.6c-0.3,0.1-0.7,0.2-1,0.3c-0.1,0-0.2,0-0.3,0.1L168.8,342.7 M185,22.6c-0.5,0-1,0-1.4,0
			c-17.3,0.5-34.6,9.1-45.2,22.6c-7.1,9-11.7,20-13.3,31.2c-0.1-0.1-0.1-0.2-0.2-0.3c-2.6-3.8-5.4-6.3-8.7-7.6
			c-1.3-0.5-2.7-0.8-4-0.8c-3.4,0-6.6,1.7-8.8,4.5c-2.1,2.8-3.5,6-4.7,9.2c-1.2,3.1-2.1,6.3-2.7,9.3c-1.3,6.7-1.4,13.6-0.3,20.5
			c0.3,2.1,0.8,4.2,1.3,6.3c0,0,0,0-0.1,0.1c-1.5,1.6-2.7,3.4-3.8,5.5c-1.7,3.4-2.4,6.8-2.3,10c-0.7,0.4-1.4,0.9-2.1,1.4
			c-4.1,3-6.7,7-7.6,11.7c-0.4,2.2-0.6,4.4-0.5,6.6c0,0.2,0,0.4,0,0.6c-3.4,1.6-6.1,3.7-8.1,6.3c-2.9,3.8-4.6,8.5-4.8,13.5
			c-0.1,2.9,0.2,5.8,0.5,8.3l0.1,0.5c0.2,1.3,0.4,2.7,0.8,4.2l0.1,0.2c0.2,0.7,0.4,1.4,0.8,2.2c0.2,0.9,0.7,1.7,1.4,2.4
			c1,1,2.3,1.6,3.7,1.6c1.4,0,2.8-0.6,3.7-1.7c0.9-1,2-1.9,3.3-2.8c0.5-0.4,1-0.8,1.5-1.2c1.3-1.1,2.9-2.1,4.8-3.3
			c3.8-2.3,8-3.9,11.9-5.2l2-0.7c2.6-0.9,5.2-1.8,7.8-2.8c-0.2,1.9,0,4,0.5,6.1c2.1,8.7,7.9,16.6,16.2,22.2c-0.5,0.3-1,0.6-1.5,0.9
			c-0.2,0.1-0.4,0.3-0.6,0.4l-0.2,0.2c0,0-0.1,0-0.1,0.1l-15.8,10.4c-1.8,1.2-2.4,3.7-1.2,5.5l2.3,3.5l-8.4,5.5
			c-1.6,1-2.2,3-1.6,4.6l-2,1.1c-0.9,0.5-1.6,1.4-1.9,2.4s-0.2,2.1,0.3,3l18.2,32.8l-13.8,6.8l-1.4-2.8c-0.7-1.4-2.1-2.2-3.6-2.2
			c-0.6,0-1.2,0.1-1.8,0.4l-35.9,17.7c-1,0.5-1.7,1.3-2,2.3s-0.3,2.1,0.2,3.1l1.6,3.2l-2.8,1.5c-1.9,1-2.7,3.5-1.6,5.4l8.7,16.1
			c0.5,0.9,1.4,1.6,2.4,1.9c0.4,0.1,0.8,0.2,1.1,0.2c0.7,0,1.3-0.2,1.9-0.5l0.6-0.3l1.3,2.7c0.7,1.4,2.1,2.2,3.6,2.2
			c0.6,0,1.2-0.1,1.8-0.4l10.8-5.3l1.1,2.2c0.7,1.4,2.1,2.2,3.6,2.2c0.6,0,1.2-0.1,1.8-0.4l30.2-14.9l1.2,2.4
			c0.7,1.4,2.1,2.2,3.6,2.2c0.6,0,1.2-0.1,1.8-0.4l8.6-4.2l20.6,37.2c0.7,1.3,2.1,2.1,3.5,2.1c0.7,0,1.3-0.2,1.9-0.5l5-2.8l1.5,2.7
			c0.5,0.9,1.4,1.6,2.4,1.9c0.3,0.1,0.7,0.1,1,0.1c0.2,0,0.4,0,0.5,0l0.5,0.4c0.4,0.4,0.7,0.7,1.2,1l1.8,3.1l-1.6,16.6
			c-0.1,1.1,0.2,2.1,0.9,2.9s1.7,1.3,2.7,1.4l5.3,0.5l-0.4,5.1c-0.1,1.1,0.3,2.1,1,2.9s1.7,1.3,2.7,1.4l17.3,1.3c0.1,0,0.2,0,0.3,0
			c2.1,0,3.8-1.6,4-3.7l0.4-5.1l2.7,0.3c0.1,0,0.3,0,0.4,0c0.8,0,1.5-0.2,2.1-0.6c0.6,0.6,1.4,0.9,2.3,1l5.3,0.5l-0.4,4.8
			c-0.1,1.1,0.3,2.1,1,2.9s1.7,1.3,2.7,1.4l17.3,1.3c0.1,0,0.2,0,0.3,0c2.1,0,3.8-1.6,4-3.7l0.3-4.8l2.7,0.3c0.1,0,0.3,0,0.4,0
			c2,0,3.8-1.6,4-3.6l2.9-30.6l47.9-28.9l1.2,4.5c0.3,1,0.9,1.9,1.8,2.4c0.6,0.4,1.3,0.5,2,0.5c0.3,0,0.7,0,1-0.1l16.8-4.4
			c2.1-0.6,3.4-2.7,2.9-4.9l-1.2-4.6l2.7-0.6c0.9-0.2,1.7-0.7,2.3-1.5c0.5,0.2,0.9,0.3,1.4,0.3c0.3,0,0.6,0,0.9-0.1l5.2-1.2l1.1,4.4
			c0.3,1,0.9,1.9,1.8,2.4c0.6,0.4,1.3,0.5,2,0.5c0.3,0,0.7,0,1-0.1l16.8-4.4c2.1-0.6,3.4-2.7,2.9-4.9l-1.1-4.3l2.7-0.6
			c2.2-0.5,3.5-2.6,3-4.8l-8.3-37c-0.2-0.9-0.7-1.6-1.3-2.2c0.1-0.9-0.1-1.8-0.6-2.6l-6.4-10.4l14.5,0.5h0.1c2.2,0,3.9-1.7,4-3.9
			l0.1-3.5l7.7,0.2h0.1c1,0,2-0.4,2.7-1.1c0.8-0.7,1.2-1.7,1.3-2.8l0.2-7.7l4.3,0.1h0.1c2.2,0,3.9-1.7,4-3.9l0.1-3.6l2.9,0.1h0.1
			c1,0,2-0.4,2.7-1.1c0.8-0.7,1.2-1.7,1.3-2.8l0.2-7c3.5-4.2,3-9.5,0.4-13.5l0.7-21.6c0-1.1-0.4-2.1-1.1-2.9s-1.7-1.2-2.8-1.3
			l-2.5-0.1c-0.1-0.2-0.2-0.4-0.4-0.7l0.9-29.8c0-1.1-0.4-2.1-1.1-2.9c-0.7-0.8-1.7-1.2-2.8-1.3l-4.9-0.2l0.2-6.3
			c0-1.1-0.4-2.1-1.1-2.9s-1.7-1.2-2.8-1.3l-16.5-0.5h-0.1c-2.2,0-3.9,1.7-4,3.9l-0.1,4.5c-0.2,0.1-0.4,0.3-0.5,0.4l-5.1-0.2H359
			c-2.2,0-3.9,1.7-4,3.9l-0.1,3.6l-3.6-0.1h-0.1c-2.2,0-3.9,1.7-4,3.9l-0.2,7l-29.2-0.9l0.2-6.3c0-1.1-0.4-2.1-1.1-2.9
			c-0.7-0.8-1.7-1.2-2.8-1.3l-3.6-0.1l0.1-3.6c0-1.1-0.4-2.1-1.1-2.9c-0.7-0.8-1.7-1.2-2.8-1.3l-5.7-0.2l0.2-5
			c0-1.1-0.4-2.1-1.1-2.9c-0.7-0.8-1.7-1.2-2.8-1.3H297c0.5-3,0.3-5.8,0-8.1c-0.4-3.4-3.2-5.9-6.4-5.9c-0.9,0-1.9,0.2-2.8,0.7
			c-0.3-0.8-0.6-1.6-1-2.4c-1-2.1-3.1-3.3-5.4-3.3c-1.6,0-3.3,0.6-4.4,1.7c-1,1-2.1,2-3.1,3c-0.4-0.6-0.8-1.1-1.3-1.7
			c-0.1-0.2-0.3-0.3-0.5-0.5c5.5-4.2,10.1-9.7,13.4-15.9c5.4-10.2,7.3-21.7,5.5-33.2c-0.8-5.4-2.5-10.7-5-15.9
			c-2.9-5.9-6.2-10.6-9.9-13.9c-2.2-2-6.8-5.4-12.4-5.4c-2.4,0-4.7,0.7-6.8,2c-4.5,2.8-6.6,7.8-7.2,12.5c-4.5-8.7-13.6-14.7-24-14.7
			c-4.8,0-9.4,1.2-13.5,3.6C203.6,25,194.3,22.6,185,22.6L185,22.6z"/>
	</g>
</g>
<path class="st8" d="M306.5,250.6c-0.5-0.8-1.1-1.5-1.8-2.2l0,0c-8.2-10.1-15.8-20.8-22.6-32c-2.1-4.8-4.2-9.5-6.2-14.3
	c-3.4-7.8-6.8-15.7-10.4-23.5c-3.8-8.2-8.2-16.2-11.5-24.6c-2.1-5.2-8.3-9.4-13.9-5.6c-0.4,0.3-1.3,0.8-1.2,0.9
	c-0.8-0.1-2.5-0.7-2.8-0.8c-2.2-0.6-4.2-0.5-6,0c-3-0.2-6.1,0.9-8.6,2.9c-32.6,25.9-67,50.6-104,69.9c-0.6,0.3-1.1,0.6-1.5,1
	c1.4,1,1.7,3.1,0.7,4.6c-0.3,0.5-0.7,0.8-1.2,1.1c-0.1,0.5-0.3,0.9-0.4,1.4c-0.2,1.1-1.4,1.8-2.4,1.8c0.2,1.3,0.6,2.6,1.2,3.8
	c-3.4,3.2-5,8.1-2,12.8c4.6,7.4,9.5,14.5,14.5,21.5c0.2,0.9,0.6,1.8,1,2.7c5.6,10.7,10.7,21.7,16,32.6c2.5,5.3,5.3,10.4,7.9,15.6
	c2.2,4.3,5.5,7.8,5.3,12.9c-0.2,6.4,6.4,11,12.3,9.4c2.9-0.8,5.7-1.5,8.6-2.3c2.9,2.2,7,3,11,1.1c23.4-11.5,47-23.6,68.7-38.5
	c2.1,0.1,4.1-0.4,5.9-1.7c3.1-2.1,6.2-4.1,9.2-6.1c0.5-0.1,0.9-0.3,1.4-0.4c0.9-0.4,1.8-0.8,2.7-1.2l0,0c0.9-0.4,1.7-0.8,2.5-1.3
	c5.5-2.9,10.2-6.6,14.2-11.7c2.4-3.1,5.4-2.8,6.9-6.3c0.4-1-0.4-6,0-7.4C306.3,264.5,311,257.2,306.5,250.6z"/>
<path class="st9" d="M132.3,289.6c-2.3-2.3-6.1-2.9-9.1-1.8c-1.2-1.1-2.6-1.9-4.3-2.4c-3.6-1.1-8,1-9.4,4.5
	c-0.5,0.2-1.1,0.4-1.6,0.7c-1.4,0-2.8,0.4-4.2,1.2c-0.8,0.5-1.6,0.9-2.4,1.3c-1.7-3.1-4.9-5.2-9.5-5.1c-4.3,0.1-8.2,2.8-10.1,6.5
	c-2,0.4-3.9,1.3-5.5,2.6c-0.8-0.1-1.6,0-2.4,0.2c-6.2-2.1-11.4,6.8-6.8,12c1.5,1.7,3.6,7,5.1,8.7c2.7,3,7.7-1,10.2-4
	c0.1,0,0.2,0,0.3,0c2.1,3.3,5.8,5.3,10,3.8c7.7-2.8,15.9-6.2,21.8-12c0.4-0.4,0.8-0.8,1.1-1.3c2.1,1.7,4.8,2.7,7.5,2.8
	c3,0.1,5.8-1.1,7.9-3.1C138,302.9,140.4,291.5,132.3,289.6z"/>
<path class="st10" d="M352.3,263.2c-0.5-2.2-2-3.8-3.9-4.7c-1.1-2.2-2.4-4.2-4-6.1c1.7-2.1,1.5-5-0.4-7.3c-3.6-4.4-10.4-4-15.5-4
	c-2.4,0-4.9,0.1-7.3,0.4c-2.4,0-4.8,0.3-7.3,0.8c-3.5-1.4-7.4,1.6-7.2,5.4c-0.8,2.8,0.1,6,2.4,7.9c-0.8,0.8-1.5,1.7-2.1,2.7
	c0.2,1.1,0.2,2.3-0.2,3.4c0.3,2.9-1.6,6.1-5.5,6.3c0.2,0,0,0-0.4,0.1c0.3,2.2,0.6,4.4,0.4,6.6c-0.3,3.3-2.5,5.2-5,5.6
	c-0.9,0.7-1.9,1-2.9,1.1c-0.1,0.4-0.1,0.8-0.2,1.2c-0.8,3.6-4.5,4.8-7.5,3.9c-1.8,1.6-3.5,3.2-5.1,4.9c-1,0.2-1.9,0.6-2.7,1.2
	c-9.7,6.8-19.2,13.7-29,20.3c-1.1,0.7-1.9,1.5-2.6,2.4c-6.5,3.8-12.9,7.6-19.7,10.9c-0.3,0.2-0.6,0.4-0.9,0.6
	c-1.6,0.3-3.2,0.5-4.8,0.7c-4.1,0.5-6.5,3.1-7,6.1c-0.2,0-0.4,0-0.6,0c0,0-0.5-0.1-0.7-0.1c-1.4-0.4-3.4-0.1-4.3,1.1
	c-1.1,1.4-1.5,2.5-1.1,4.3c0,0.2,0.1,0.4,0.2,0.5c-5.4,1.6-10.5,4.4-14.8,7.9s1.2,10.1,5.8,7.5c4.9-2.2,9.6-3,14.4-2.2
	c-0.1,0.7-0.2,1.3-0.2,2c-0.6,5.6,7.3,5.8,9,1.2h0.1c0-0.1,0-0.2,0.1-0.3c0.4,0.1,0.9,0.3,1.3,0.4c2.5,2.3,6.3,3.1,10.2,0.8
	c5.6-3.3,11.2-6.7,16.8-10.1c0.8-0.4,1.4-1,1.9-1.6c0.2,0,0.4,0,0.7,0c5.2,0,8.2-2.9,9.3-6.5c5.2-3.2,10.5-6.3,15.8-9.4
	c5.8-3.5,12.4-6.5,17.8-10.7c1.6-0.4,3.2-1.2,4.8-2.4c5.7-4.7,11.6-9.3,17.4-13.9l0.1-0.1c2.2,2,5.9,2.1,7.9-1
	c0.6-0.9,1.1-1.9,1.6-2.9c5.1-2.3,10.3-5.3,13.8-9.2c1-1.2,1.8-2.4,2.5-3.8c2.8-2.7,4.9-6,7.3-9.1
	C353.8,272.2,353.3,267.8,352.3,263.2z"/>
<path class="st9" d="M244.9,354.3c3.7-2.3,5.4-7.6,1.7-11.8c-4.3-4.7-11.8-6-17.6-3.7c-3.1,1.2-6.3,4-5.9,7.8
	c0.1,1.2,0.2,2.5,0.3,3.7c-2.2,6.4-2.5,14.2-3.1,19.5c-0.5,4.8,2.6,8.6,6.7,10.5c0.8,0.6,1.7,1.1,2.7,1.6c6.5,3,14.4-0.1,16.9-6.8
	c1.9-5.2,0.5-11.9-0.6-17.2C245.7,356.7,245.3,355.5,244.9,354.3z"/>
<path class="st9" d="M208.3,351.4c0.4-0.6,0.7-1.3,0.9-2.1c2.7-5.1-3.1-12.1-8.7-10.1c-4,1.4-6.4,3.9-9.6,6.4
	c-3.6,2.8-3.3,7.9-0.9,11.3c-0.3,1-0.6,2-0.8,3c-0.7,3.7-0.9,7.5-0.2,11.1c-1.4,3.2,0.6,7.7,3.9,8.2c0.5,0.4,1,0.7,1.5,0.9
	c3.3,3.1,9.5,3.1,10.6-2.5c0.5-2.6,0.8-5.2,1.1-7.8c0.1-0.8,0-1.6-0.2-2.3c0.2-0.3,0.4-0.6,0.6-0.9
	C209.3,362.7,209.8,356.5,208.3,351.4z"/>
<path class="st10" d="M185.3,344.9c-0.8-0.7-1.5-1.4-2.3-2.1c-1.1-1-2.6-1.7-4.1-1.7c-1.4,0-3.1,0.6-4.1,1.7s-1.8,2.6-1.7,4.1
	s0.5,3.1,1.7,4.1c0.8,0.7,1.6,1.3,2.4,2c0.5,0.6,1.1,1,1.8,1.2c0.7,0.4,1.4,0.5,2.2,0.5c1.4,0,3.1-0.6,4-1.7c1-1.1,1.7-2.5,1.7-4
	C186.9,347.5,186.4,346,185.3,344.9z"/>
<path class="st10" d="M275.7,153.3c0-1-0.2-1.9-0.6-2.8c-0.3-2.1-1.9-3.4-3.8-3.9c-0.8-0.4-1.8-0.6-2.7-0.5
	c-1.3-0.6-2.7-0.9-4.2-0.9c-0.6,0.1-1.2,0.2-1.7,0.2c0.7-0.2,0.6-0.2-0.2-0.1c-0.9,0-2,0.2-2.9,0.5c-6.1,1.8-5,10.1,0.7,11.2
	c0.2,0.2,0.5,0.5,0.7,0.7c0,0.8,0.2,1.6,0.5,2.3c0.1,1,0.1,1.9,0.2,2.9c0.3,4.1,3.5,7.4,7.8,6.8c3.6-0.5,5.9-3.4,5.9-6.8
	c0,0,0,0,0.1,0C275.7,159.7,275.8,156.5,275.7,153.3z"/>
<path class="st9" d="M394.5,198.6c0.5-4,0.7-8.1,0.4-12.2c0.3-0.8,0.4-1.7,0.4-2.7c0-1.3-0.1-2.6-0.1-3.9c-0.1-3.5-2.1-6.1-4.8-7.4
	c0.4-3.1,0.6-6.3,0.6-9.5c0-7.6-1-17.9-7.3-23.1c-6.3-5.2-13.9-2.6-18.8,3.1c-5.2,6.2-10.5,12.3-16,18.2c-1.9,1.6-3.7,3.2-5.6,4.8
	c-1.7,0.2-3.5,0.4-5.2,0.6c-3.9,0.1-7.9,0.2-11.8,0.4c-1.4,0-2.6,0.4-3.6,0.9c-1-0.1-1.9-0.2-2.9-0.2c-1.4-5.5-5.2-10.8-8.2-15.1
	c-4.5-6.4-10.6-10.6-16.5-15.7c-1.1-0.9-2.3-1-3.3-0.7c-2-0.8-4.3-0.7-6.9,0.8c-6,3.4-6,12.5-6.8,18.5c-0.7,5-1.2,10-1.7,14.9
	c-2.9,1.6-5.1,4.5-5.5,8.4c-0.8,7.4-1.7,15-1,22.4c0.2,2.7,0.7,5.2,1.3,7.8c-0.3,0.4-0.5,0.8-0.6,1.3c-0.3,1.1-0.7,2.2-0.9,3.4
	c-0.2,1.1-0.2,2.1,0.4,3.1c0.5,0.8,1.4,1.6,2.4,1.8c0.6,0.1,1.2,0.1,1.8,0c0.6,1.5,1.1,3.1,1.7,4.6c1,2.5,2.8,5.3,5.7,5.7
	c0.1,0,0.2,0.1,0.4,0.1c0.9,3.5,3.6,6.4,7.7,6.3c6.4-0.1,12.7,0,19.1,0.3c4.7,1.6,10.1,1.9,14.7,2.3c9.5,1,19,1,28.5-0.2
	c1.7-0.2,3.3-0.7,4.8-1.4c0.1,0,0.1,0.1,0.2,0.1c2,4,6.9,6.7,11.3,3.8c5.3-3.5,9.8-7.7,13.6-12.4c5.8-5.3,11.6-10.6,17.5-15.9
	C404.6,207.2,400.3,199.4,394.5,198.6z"/>
<path class="st10" d="M272.3,167.3c-0.2-0.6-0.4-1.2-0.5-1.8c-0.6-2.2-3.6-2-4.2,0c-1,3.1-2.2,5.8-2.4,9.1c-0.1,2.3,2.1,4.3,4.3,4.3
	c2.5,0,4.2-2,4.3-4.3c0.1-1.4,0.2-2.7,0.3-4.1C274.2,168.9,273.4,167.8,272.3,167.3z"/>
<path class="st9" d="M322,306c-0.7-3.6-1.6-7.1-2.9-10.6c0.2-0.5,0.3-1.1,0.3-1.7h0.2c-0.2-3.4-0.3-7.4-1.2-10.8
	c0-0.3,0.1-0.6,0.1-1c-0.1-3.6-0.2-7.3-1.6-10.7c-1.9-4.4-6.4-7-11.1-5.6s-7,6.7-5.8,11.2c0.3,1.1,0.7,2.2,1.2,3.2
	c-2,3.5-1.8,8-1,12.4c1.4,8.1,4.1,15.3,7.4,22.7c1,2.3,4.6,4.5,7.2,4.1l0.8-0.1c3.3-0.4,6.1-1.7,7.5-5
	C323.9,311.8,323.8,308.2,322,306z"/>
<path class="st9" d="M362,304c-0.8-8.1-3.5-15.5-3.5-23.7c0-5.3-4.1-8.1-8.2-8c-1.1-1.3-2.4-2.4-4.1-3.1c-4-1.6-7.7,0-10,3.4
	c-1.1,1.6-1.1,3.6-0.6,5.3c-0.9,1.1-1.4,2.4-1.5,3.9c-0.2,2.9,2.3,5.9,4.2,8c0.9,1,2.2,1.5,3.6,1.6c0.5,6,1.9,12,5.1,16.7l0.1-0.1
	C350.9,313.9,362.9,312.7,362,304z"/>
<polygon class="st11" points="130,243 172,323 184,315 188,325 276,273 270,260 282,253 243,174 235,179 228,166 130,228 136,239 
	"/>
<rect x="151.3" y="230.2" transform="matrix(0.8465 -0.5324 0.5324 0.8465 -101.896 120.5167)" class="st12" width="13.5" height="13.5"/>
<rect x="182.7" y="237.6" transform="matrix(0.8465 -0.5324 0.5324 0.8465 -101.01 138.3843)" class="st12" width="13.5" height="13.5"/>
<rect x="198.7" y="201.6" transform="matrix(0.8465 -0.5324 0.5324 0.8465 -79.3872 141.3762)" class="st12" width="13.5" height="13.5"/>
<rect x="236.7" y="209.6" transform="matrix(0.8465 -0.5324 0.5324 0.8465 -77.8127 162.8358)" class="st12" width="13.5" height="13.5"/>
<rect x="167.8" y="270.6" transform="matrix(0.8465 -0.5324 0.5324 0.8465 -120.8629 135.5096)" class="st12" width="13.5" height="13.5"/>
<rect x="202.1" y="280" transform="matrix(0.8465 -0.5324 0.5324 0.8465 -120.6092 155.217)" class="st12" width="13.5" height="13.5"/>
<rect x="215.1" y="242" transform="matrix(0.8465 -0.5324 0.5324 0.8465 -98.382 156.3046)" class="st12" width="13.5" height="13.5"/>
<rect x="247.1" y="255" transform="matrix(0.8465 -0.5324 0.5324 0.8465 -100.3908 175.3373)" class="st12" width="13.5" height="13.5"/>
<path class="st13" d="M204.4,181.8c-1.6-9.6-4.9-18.8-7.4-28.2c-0.9-3.3-6.1-4.4-7.7-1c-0.9,1.8-1.7,3.6-2.4,5.5
	c-2.4-1.5-4.7-3.2-7-4.9c-2.7-2-6.1,1.3-5.4,4.2c0.1,0.3,2.2,10-0.6,8.8c-1.1-0.5-2.2-0.6-3.2-0.5c-0.1-0.1-0.2-0.3-0.3-0.4
	c-2.5-4.1-9.1-1.5-7.8,3.3c2,7.2,5.9,14.9,11.2,20.3c5,5.1,13.3,10.8,20.9,9.9C203.1,197.7,205.6,189.1,204.4,181.8z"/>
<path class="st7" d="M263.2,136.1c-5-14.9-9.9-29.8-15-44.6c-4.5-13.1-7.5-27.4-22.8-31.2c-2.1-0.5-4.5-0.8-6.7-1.5
	c-0.4,0.1-0.7,0.1-1.1,0c-0.5-0.2-1-0.4-1.4-0.7c-0.1-0.1-0.2-0.2-0.2-0.4c-1.7-1-1.3-1.9-1.4-4.4c-0.2-6.6-2.5-12.1-7.7-16.3
	c-4.7-3.7-10.7-5.4-16.6-5.2c-4.6,0.2-8.5,1.6-12.3,3.4c-0.8-0.4-1.7-0.5-2.8-0.2c-24.3,7.5-37,34-28.5,57.9
	c0.8,2.2,3.1,3.9,5.5,3.1c13.8-4.4,27.2,3.8,29.8,16.9c-3.6,0.3-5.5,5.5-2.8,8.3c5.2,5.5,8.8,11.8,11.2,18.7c-1.6,2-1.9,4.9,0.5,7.5
	c1.7,1.8,3.7,3.3,5.2,5.2c1.6,2.1,2.5,4.6,3.5,7c2.2,4.9,3.5,9.2,3.7,14.6c0.1,4.3,6.4,4.3,6.6,0c0.1-0.7,0.1-1.4,0.2-2.1
	c0.7-6.7,3.4-13.3,6.7-19.2c1.4-2.6,3.1-4.7,5.2-6.4c1.1,0,2.2-0.3,3.4-0.9c0.5-0.3,1-0.5,1.5-0.7c1.4,1.8,3.5,3.1,5.7,2.9
	c7.9-0.7,15.7-1.6,23.6-2.4C260.5,145,264.9,141.1,263.2,136.1z"/>
<path class="st14" d="M177.7,122.3c-1.8-1.2-4.1-1.9-6.2-1.8c-0.1-0.2-0.2-0.4-0.3-0.6c-3.4-6.8-9.6-10.6-15.1-15.5
	c-11.5-10.1-11.3-23.9-12.3-37.9c5.3-14.2,15.6-26.1,29.6-32.5c2.1-1,0.6-4.2-1.5-3.6c-5.1,1.4-9.5,2.7-14,5.6
	c-4.1,2.6-7.9,5.8-11.4,9.1c-7.7,7-12.9,16.1-15.1,26.2c-2.3,10.4-1.7,21.3,1,31.5c0.3,1.3,0.8,2.7,1.2,4.1
	c-0.7-0.8-1.5-1.5-2.2-2.3c-0.8-0.8-1.6-1.4-2.5-1.8c-0.6-0.8-1.2-1.5-1.8-2.3c0.2-1,0.2-2-0.2-3c-2.9-6.9-5.8-13.7-8.8-20.5
	c-2.5-5.5-9.7-2.9-11.5,1.5c-6.5,16.3-6.9,36.7,3.3,51.7c6.1,8.9,15,15.7,24.9,19.9c-0.1,0.2-0.2,0.5-0.3,0.8
	c-1.5,3.9-0.9,8.1-2.9,12c-0.6,1.1-1.3,2.1-2.1,3c-1,0.5-1.9,1.2-2.7,2.2c-0.1,0.1-0.2,0.2-0.3,0.3c-0.6,0.4-1.2,0.7-1.9,0.9
	c-4.2,1.4-8,6.2-6.2,10.9c1,2.6,2.3,4.8,4,6.3c-0.2,0.2-0.4,0.5-0.7,0.7c-0.1,0.1-0.2,0.3-0.3,0.4c3.1,3.7,6,7.5,9.7,10.7
	c2.4,2,4.7,4,7.4,5.5c2.6,1.4,5,2,6.4,4.6c0.6-0.1,1.1-0.2,1.7-0.3c3.1-0.6,4.5-3.4,5-6.2c0.2,0,0.5,0,0.7-0.1
	c0.6,0.3,1.2,0.4,2,0.5c4.6,0.3,9.3-0.5,13.8-0.1c1.4,0.1,2.5-0.2,3.4-0.8c0.1,0,0.3,0,0.4,0c5.9-0.5,6.7-7.9,1.4-10
	c-4.4-1.8-7.6-5.9-9.7-10.9c-0.6-5.8-1.6-11.5-2.3-17.3c2.3,0,4.8,0.2,6.8,1.3c2.6,1.5,6.5-0.4,6.3-3.6c-0.2-2.8-0.2-5.6-0.1-8.5
	c1.4-0.1,2.8-0.6,4-1.2c0.7,0.4,1.2,1.3,1.8,2.8c1.3,3.8,7.5,4.6,8.5,0C190.9,142.1,188,129.4,177.7,122.3z"/>
<path class="st15" d="M140.7,59.8c0-0.6-0.7-0.6-1-0.3c-6.6,8.7-6.1,22.9-4.4,33c0.2,1.3,2.5,1,2.4-0.3c-0.5-5.5-0.5-11,0.1-16.5
	C138.5,70.4,140.4,65.2,140.7,59.8z"/>
<path class="st14" d="M287.1,69.1c-0.7-7.4-3.1-14.8-6.5-21.4c-3.1-6-8.5-14.9-16.1-14.6c-4.4,0.2-8,4.8-6.2,9
	c-0.2,1.1-0.2,2.3,0,3.4c1.2,7.5,0.9,13.6-0.3,21.2c-0.6,3.5-0.9,7-1.3,10.6c-0.3,2.4-0.3,4.9-1.8,6.8c-0.3,0.3-0.5,0.5-0.8,0.8
	c-2.6,2.7-1.7,6,0.6,7.6c-0.6,4.4,0.2,8.8,3.3,13.3c1.8,2.6,5.8,4.4,8.7,2.3c6-4.4,12.2-9.1,15.6-15.9
	C285.8,85.1,287.9,77.1,287.1,69.1z"/>
<path class="st14" d="M229.8,79c-3.9,0.3-7.9,0.2-11.6,1.5c-3.5,1.2-6.8,2.9-9.9,4.9c0.2-1.2,0.5-2.4,0.9-3.5
	c0.1-0.1,0.1-0.3,0.2-0.4c0.4-0.9,0.7-1.9,1.1-2.8c0.7-1.7,1.6-3.4,2.3-5c0.1-0.1,0.3-0.1,0.4-0.2c2-1.6,3.8-3.4,5.2-5.4
	c0.8-0.7,1.7-1.4,2.5-2.1c0.9,0,1.8-0.3,2.3-1.3c0.2-0.4,0.4-0.9,0.6-1.3c0.7-1.6-0.1-3-1.2-3.6c-0.1-0.1-0.2-0.1-0.4-0.2
	c0.1-0.4,0.1-0.8,0.2-1.2c0.2-1.4-1.3-2.5-2.5-1.5c-4.1,3.8-7.7,7.9-11.9,11.6c-0.2,0-0.3,0.1-0.5,0.2c-1.6,0.7-2.7,1.7-3.7,3
	c-2.1-0.8-4.9-0.1-5.3,2.5c-0.8,5.1-0.3,10.3,1.8,14.9c-0.5,2.1,0.3,4.6,2.4,5c1.6,0.9,3.3,1.4,5,1.5c0.8,1,2.2,1.7,3.8,1.5
	c0.5,0.3,1.1,0.6,1.6,0.9c1.7,1.9,4.3,1,5.7-0.7c3.6-4.7,7.5-9.1,12.5-12.2C233.9,83.3,233.1,78.8,229.8,79z"/>
<path class="st11" d="M229.4,63.3c-1.3,0.9-2.3,1.7-3.4,2.8c-0.4,0.5-1.2,1.8-2.1,2.6c0,0,0-0.1-0.1-0.1c-0.8-1.7-3.5-2-4.7-0.6
	c-0.4,0.4-0.7,0.9-1.1,1.3c-0.3,0.1-0.6,0.3-0.8,0.5c-3.8,3.3-6.1,7-8.2,11.4c-0.8,1.8,1.2,3.5,2.8,2.1c0.9-0.9,1.8-1.8,2.7-2.7
	c0.9-0.8,1.7-1.6,2.6-2.4c0.9,0,1.9-0.4,2.6-1.3c0.6-0.7,1.1-1.5,1.7-2.2c1.2,0.5,2.6,0.2,3.5-1.1c2.1-3.1,4.6-5.8,5.8-9.4
	C231,63.6,230,62.9,229.4,63.3z"/>
<path class="st5" d="M126.8,145.4c-2.7-1.8-5.1-4.4-7.6-6.5c-2.6-2.2-4.9-4.6-7.1-7.1c-1.7-2-3.8-2.6-5.7-2.4
	c0.4-1.9,0.6-3.7,0.6-5.7c0.2-4.6-6-4.7-7.5-1c-1.8,4.5-2.7,9.3-2.3,14.2c0,0.1,0,0.3,0.1,0.4c-1.5,0.9-2.9,1.9-4,3.4
	c-0.7,1-1.3,2-2,2.9c-0.9,1.3-1.9,2.6-2.8,3.9l0,0c-0.4,0.7-0.8,1.5-1,2.3c-0.6,2-0.4,4.6,0.5,6.6c-8.8,4.8-15,13.9-14.6,24.2
	c0.1,2.8,3.6,4.5,5.7,2.4c6.3-6.5,14.9-8.2,22.8-12.3c8.5-4.5,16.5-9.9,24.9-14.4C131.2,153.9,130.6,147.9,126.8,145.4z"/>
<path class="st5" d="M163.6,98.5c-9.7-1.8-18.9-1.6-28.6,0.2c-3,0.6-3.8,5.6-0.9,6.8c1.5,0.6,3.1,1.1,4.6,1.4
	c0.5,1.1,1.4,1.9,2.8,2.2c10.6,2.3,22.4,4.9,32.2,9.7c3.7,1.8,8.9-0.3,8.7-5C181.9,103.9,172.1,100.1,163.6,98.5z"/>
<path class="st5" d="M251.6,65.4c-0.8-1-1.7-2-2.7-2.9c-4.1-3.5-9.9,2-6,6c0.3,0.3,0.5,0.6,0.8,0.8c0.7,3,1.5,5.9,2.8,8.8
	c0.1,0.2,0.2,0.4,0.3,0.6c0,3.5,4.3,6.7,7.2,3.4C258.8,76.8,255.7,70.2,251.6,65.4z"/>
<path class="st3" d="M168.1,105.5c-0.4-0.6-1-1-1.7-1.1s-1.3-0.2-2-0.3c-0.9-0.1-1.8,0-2.6,0.4c-0.2,0-0.4,0-0.6,0.1
	c-1.6,0.3-2.6,2.1-2.3,3.6c0.2,1.3,1.1,2.4,2.3,2.7l0,0h0.1c0.2,0.1,0.5,0.1,0.8,0.1c1.5,0,3.1,0.6,4.6,0.9c1.9,0.5,3.9-0.8,4.2-2.8
	C171.1,107.3,169.8,105.9,168.1,105.5z"/>
<path class="st13" d="M290.4,125.7c-0.2-2.3-2.6-4-4.7-2.7c-0.6,0.4-1.3,0.6-2.1,0.8c0-0.8,0-1.6,0-2.5c-0.1-3.8-5.5-5.6-7.4-2
	c-0.6,1.1-1.4,2.1-2.2,3.1c-0.1-0.4-0.2-0.8-0.3-1.2c-1.7-5.7-9.4-3.5-9.4,1.3l0,0c-0.1,1-0.1,2,0,3.1c-0.9,3.6-1.1,7.8-0.6,11.1
	c0.2,1.6,1.6,2.9,3.1,3.6c1.1,1.7,2.7,2.9,5.3,2.8c1.7-0.1,3-0.7,4-1.6c3,2.8,9.1,0.5,7.2-4c-1.4-3.3,1.8-3.7,4-5.3
	C289.3,130.5,290.5,128.4,290.4,125.7z"/>
<path class="st16" d="M281.8,52.4c-1.9-7.9-5.5-13.5-10.9-19.4c-3.1-3.3-8.2,0.9-6.1,4.7c5.6,10.4,9.1,23.5,7,35.2
	c-1,5.6-3.1,11-5.9,15.9c-1.4,2.5-3,5-4.9,7.2s-4.3,4-5.6,6.7c-1.5,3.1,1,6.8,4.6,5.9c6.1-1.6,11.3-8.8,14.8-13.7
	c4.2-6.1,6.9-13.2,8-20.5C283.8,67.1,283.5,59.7,281.8,52.4z"/>
<path class="st16" d="M284.2,125.2c-3.3,2.7-17.8,9.5-21.1,16.3c-0.8,0.8-1.7,1.4-2.7,1.9c0.1-0.2,0.2-0.5,0.2-0.8
	c1.5-7.6,1.5-14.5-2-21.5c-0.3-0.5-0.6-0.8-1-1.1c-0.5-1.9-1.2-3.9-1.8-5.9c-0.5-1.6-3.3-1.5-3.1,0.4c0.5,5.7,1,14.6-4.4,18.4
	c-0.2,0.1-0.3,0.2-0.5,0.3c-3.2,0.6-6.4,1.1-9.6,1.3c-3.3,0.2-6.4,0.3-9.5,1.3c-5.7,1.8-11,5.2-15.1,9.5c-0.9,0.9-1.6,1.8-2.4,2.8
	c-1.3,1.5-2.6,3.1-3.7,4.8c-0.4,0.6-0.8,1.3-1.2,1.9c-2.1-3.4-5-6.2-8.6-8.2c-3.1-1.7-5.8,2.9-2.7,4.7c4,2.4,6.8,6.1,8.2,10.3
	c-0.6,1.6-1.1,3.2-1.4,4.8c-0.4,1.8-0.5,3.8-0.6,5.9c-3.6-0.3-6.7,0.5-9.8,2.8c-3.3,2.4-5.4,6.6-9.4,7.9c-10.2,3.3-14-10-16.1-17.3
	c-0.4-1.2-2.4-1.1-2.3,0.3c0.7,7.4,2,14.1,6.3,19.6l0,0c-1.5-2.1-3-4.3-4.7-6.2c-1-1.1-3-1.3-4.3-0.6c-5.1,3.3-12.9,3.8-18.9,3.9
	c-3,0-6-0.3-8.7-1.7c-2-1-6.2-4.1-5.6-6.9c1.5-0.5,3.2-0.8,4.5-1.4c3-1.3,5.9-3.2,8.2-5.5c2-2,4.1-4.7,4.5-7.6
	c3.6,1,7.3,1.1,10.6-0.2c3.8-1.5,4.2-5.8,1.1-8.2c-3.3-2.5-7.6-3.6-11.3-5.3c-3.2-1.5-6.4-3-9.4-4.9c-6.1-3.8-11.7-9.1-16.3-14.6
	c-11-13.3-14.5-30.6-11.4-47.5c0.3-1.8-2.2-2.6-2.8-0.8c-4.4,14.5-3.7,30.6,1.7,44.7c-0.1,0-0.2-0.1-0.3-0.1
	c-4.5-0.8-6.5,5.7-6.7,9.2c-0.1,2,2.8,2.8,3.8,1c0.5-0.9,1.3-2.2,2.3-1.3c0.5,0.5,0.4,2.1,0.4,2.7c0,1.5-0.4,3-1.1,4.4
	c-2.2,1.4-4.1,3.4-5.9,5.2c-3.5,3.5-7,7-10,10.8c-1.1,1.4,0.3,3.8,2,2.7c5.1-3.3,9.7-7.2,14.3-11.1c1.7-1.5,2.9-3,5.7-1.9
	c1.1,0.5,2.2,2.1,3,3c1.5,1.5,3,3,4.5,4.5c-13.2,12-36,11.5-43.2,30c-0.6,1.7,1.8,3,3,1.7c13.3-14.7,36.6-13.3,49.3-28.9
	c0.8-0.9,1.2-2.1,1.2-3.3c1.7,1.2,3.6,2.5,5.7,3.7c-0.2,0.5-0.3,1-0.3,1.6c0.7,10.1-14.1,10.1-16.8,18.4c-0.4,1.4,0.4,2.5,1.5,3.1
	c1.6,5,3.1,9.3,6.5,13.5c3.7,4.5,8.7,7.7,14.1,9.8c10.7,4.3,27.2,4.7,36.3-3.2c0.9-0.8,1.4-1.8,1.6-2.9c6.6,3.6,14.3,4.6,21.6,0.5
	c3.6-2,5.7-5.3,6.9-8.9c1.1,0,2.2-0.5,2.8-1.8c2.9-6.5,5.9-13.7,11.4-18.5c5.8-5.1,11.7-4.3,19-4.4c7.2,0,14.8,0.2,20.7-4.5
	c3.4-2.7,7.1-4.5,10.2-7.3c1.1,0.3,2.3,0.1,3.2-0.9c5.4-6.4,10.6-12.9,15.7-19.5l0,0l0,0c0.2-0.2,0.4-0.5,0.6-0.7
	C292.6,126.1,287.1,122.8,284.2,125.2z M106.7,126.3c0.4-0.4,0.7-0.8,0.8-1.6c0.4,0.9,0.8,1.8,1.2,2.7
	C108.2,126.9,107.5,126.5,106.7,126.3z M111.3,137.1c0-0.5-0.2-1-0.4-1.6c0.2-1.2,0.2-2.4,0-3.6c0,0,0,0.1,0.1,0.1
	c1.2,2.1,2.5,4,3.9,5.9C113.8,137.4,112.6,137.1,111.3,137.1z M239.3,143.9c2.8-0.4,5.6-0.9,8.4-1.3c0.2,0.3,0.3,0.6,0.5,0.9
	C245.2,143.5,242.2,143.6,239.3,143.9z"/>
<path class="st16" d="M183.2,108.8c-0.7-0.4-1.8,0.1-1.8,1c0.2,2.4,1.2,4.5-0.1,6.8c0,0.1-0.1,0.1-0.1,0.2v-0.1
	c-0.1-0.3-0.4-0.4-0.7-0.4c-3,0.5-6.1-1.3-9-2.2c-3.7-1.2-7.4-2.4-11-3.8c-7.2-3-14.5-5.2-22.2-6.8c-0.1,0-0.3,0-0.4,0
	c-0.6-0.3-1.3-0.7-1.9-1c-1.5-0.8-2.8,0.2-2.9,1.5c-0.2,0.6-0.1,1.3,0.5,1.7c0.1,0.1,0.2,0.2,0.4,0.3c6.2,4.8,12.7,9.2,19.5,13.1
	c5.6,3.3,12.5,7.5,19.1,8.5c5.3,0.8,11-1.5,13.3-6.6C187.8,117.1,187.2,111.1,183.2,108.8z M173.9,120c-3.7-0.6-7.3-2.5-10.7-4.2
	c3.7,1.1,7.3,2.4,11,3.5c1,0.3,1.9,0.5,2.8,0.7C176,120.2,175,120.2,173.9,120z"/>
<path class="st16" d="M223.4,63.7c-0.1-0.1-0.2-0.1-0.3-0.2c-0.1-0.1-0.2-0.1-0.3-0.1c0.4-1.4,0.7-2.9,1-4.4c0.8-2.4-2.9-3.3-3.7-1
	c-0.6,1.7-1.3,3.4-1.9,5.2c-0.3,0.7-0.5,1.5-0.8,2.2c-0.3,1-0.2,2.1-0.6,3.1c-0.6,1.8,1.9,2.6,2.8,1.2l0,0c0.5-0.9,1.2-1.5,1.7-2.4
	l0,0c0.3-0.2,0.6-0.4,1-0.6c0.9-0.4,1.3-0.6,1.6-1.6C224.1,64.5,223.8,64,223.4,63.7z"/>
<path class="st16" d="M244.2,67.9c0-2.4-2.9-3.5-4.6-1.9c-2.1,2-3.5,4.5-6.2,6c-1.1,0.6-2.3,1-3.5,1.3c-1.9,0.1-3.6,0.6-5.4,1.6
	c-2.1,1.2-2.1,4.3,0,5.5c1,0.6,2,0.9,3.2,1.1c-6.6,2.9-12.6,7.3-16.7,13.3c-4.2-0.8-7.9-3.5-10.7-6.8c-0.1-0.3-0.2-0.7-0.3-1
	c-0.5-2.1,0.1-4.2-0.6-6.2c-0.3-0.8-1.2-1-1.8-0.5c-3.5,2.9-2.2,10.1-0.6,13.8c2.3,5.2,6.7,8.7,12.2,10.3c5.7,1.6,11.8,0.2,16.2-3.7
	c2.2-1.9,4-4.5,4.9-7.3c1.1-3.2,0.7-8,4.1-9.9c1.2-0.7,1.2-2.3,0.5-3.2C240,77.6,244.2,72.7,244.2,67.9z"/>
<path d="M213.1,160.7c-0.7,1.4-1.4,2.8-2,4.3l24.9-16.3l-5.5-8.4l-8.5,5.6C219.5,151.1,215.7,155.5,213.1,160.7z"/>
<path d="M131.4,208.8c-1.6,0.1-2.9-0.3-3.8-1.1L111,218.6l5.5,8.4l29.3-19.2C141,208.8,136.2,208.5,131.4,208.8z"/>
<g>
	<g>
		<line class="st17" x1="268.7" y1="175" x2="267.4" y2="217.1"/>
		<rect x="247" y="191.2" transform="matrix(3.145773e-02 -0.9995 0.9995 3.145773e-02 63.656 457.75)" width="42.1" height="9.6"/>
	</g>
	<g>
		<line class="st17" x1="276.6" y1="140.8" x2="275.6" y2="174.6"/>
		
			<rect x="259.2" y="152.9" transform="matrix(3.145773e-02 -0.9995 0.9995 3.145773e-02 109.7843 428.7709)" width="33.8" height="9.6"/>
	</g>
	<g>
		<line class="st17" x1="281" y1="135.4" x2="297.5" y2="135.9"/>
		
			<rect x="284.5" y="127.4" transform="matrix(3.141669e-02 -0.9995 0.9995 3.141669e-02 144.6229 420.4673)" width="9.6" height="16.5"/>
	</g>
	<g>
		<line class="st17" x1="298.6" y1="144.9" x2="306.9" y2="145.2"/>
		
			<rect x="297.9" y="140.9" transform="matrix(3.143890e-02 -0.9995 0.9995 3.143890e-02 148.2086 442.9783)" width="9.6" height="8.3"/>
	</g>
	<g>
		<line class="st17" x1="307.3" y1="152.8" x2="314.2" y2="153"/>
		
			<rect x="306" y="149.4" transform="matrix(3.138510e-02 -0.9995 0.9995 3.138510e-02 148.2195 458.7162)" width="9.6" height="6.9"/>
	</g>
	<g>
		<line class="st17" x1="314.6" y1="163.4" x2="348.3" y2="164.4"/>
		
			<rect x="326.7" y="146.9" transform="matrix(3.139986e-02 -0.9995 0.9995 3.139986e-02 157.3292 490.0105)" width="9.6" height="33.8"/>
	</g>
	<g>
		<line class="st17" x1="274.2" y1="217.3" x2="274" y2="224.9"/>
		
			<rect x="270.3" y="216.4" transform="matrix(3.145773e-02 -0.9995 0.9995 3.145773e-02 44.4426 488.1689)" width="7.6" height="9.6"/>
	</g>
	<g>
		<line class="st17" x1="282.2" y1="226.5" x2="281.9" y2="236.9"/>
		
			<rect x="276.9" y="226.9" transform="matrix(3.126316e-02 -0.9995 0.9995 3.126316e-02 41.6051 506.4211)" width="10.3" height="9.6"/>
	</g>
	<g>
		<line class="st17" x1="288" y1="239.1" x2="371.4" y2="241.7"/>
		
			<rect x="324.9" y="198.7" transform="matrix(3.140315e-02 -0.9995 0.9995 3.140315e-02 79.0934 562.4164)" width="9.6" height="83.4"/>
	</g>
	<g>
		<line class="st17" x1="395.5" y1="178.3" x2="394.2" y2="220.4"/>
		
			<rect x="373.9" y="194.6" transform="matrix(3.145773e-02 -0.9995 0.9995 3.145773e-02 183.1816 587.8754)" width="42.1" height="9.6"/>
	</g>
	<g>
		<line class="st17" x1="389.7" y1="143.7" x2="388.6" y2="177.4"/>
		
			<rect x="372.3" y="155.8" transform="matrix(3.136046e-02 -0.9995 0.9995 3.136046e-02 216.5157 544.5377)" width="33.8" height="9.6"/>
	</g>
	<g>
		<line class="st17" x1="385.7" y1="138" x2="369.2" y2="137.5"/>
		
			<rect x="372.7" y="129.5" transform="matrix(3.141376e-02 -0.9995 0.9995 3.141376e-02 227.9418 510.7281)" width="9.6" height="16.6"/>
	</g>
	<g>
		<line class="st17" x1="367.5" y1="146.4" x2="359.3" y2="146.2"/>
		
			<rect x="358.5" y="142.1" transform="matrix(3.143890e-02 -0.9995 0.9995 3.143890e-02 205.718 504.8253)" width="9.6" height="8.3"/>
	</g>
	<g>
		<line class="st17" x1="358.3" y1="153.7" x2="351.5" y2="153.5"/>
		
			<rect x="350.2" y="150.2" transform="matrix(3.145249e-02 -0.9995 0.9995 3.145249e-02 190.2455 503.6327)" width="9.6" height="6.9"/>
	</g>
	<g>
		<line class="st17" x1="387.3" y1="220.2" x2="387.1" y2="227.7"/>
		
			<rect x="383.4" y="219.2" transform="matrix(3.126316e-02 -0.9995 0.9995 3.126316e-02 151.2069 603.9637)" width="7.6" height="9.6"/>
	</g>
	<g>
		<line class="st17" x1="378.8" y1="228.9" x2="378.4" y2="239.2"/>
		
			<rect x="373.5" y="229.3" transform="matrix(3.145773e-02 -0.9995 0.9995 3.145773e-02 132.7949 605.2043)" width="10.3" height="9.6"/>
	</g>
	<g>
		
			<rect x="295.4" y="183.1" transform="matrix(3.140611e-02 -0.9995 0.9995 3.140611e-02 103.5255 490.2259)" width="18.6" height="17.2"/>
	</g>
	<g>
		
			<rect x="355.8" y="185.3" transform="matrix(3.140611e-02 -0.9995 0.9995 3.140611e-02 159.8298 552.7285)" width="18.6" height="17.2"/>
	</g>
	<g>
		
			<rect x="338.6" y="193.6" transform="matrix(3.140611e-02 -0.9995 0.9995 3.140611e-02 134.6698 534.6578)" width="9.2" height="8.5"/>
	</g>
	<g>
		<line class="st17" x1="305.2" y1="221.7" x2="364.4" y2="223.6"/>
		
			<rect x="330" y="193" transform="matrix(3.140143e-02 -0.9995 0.9995 3.140143e-02 101.7482 550.2664)" width="9.6" height="59.3"/>
	</g>
	<g>
		<line class="st17" x1="309" y1="209.4" x2="308.6" y2="222.2"/>
		
			<rect x="302.4" y="211" transform="matrix(3.145773e-02 -0.9995 0.9995 3.145773e-02 83.4089 517.6369)" width="12.8" height="9.6"/>
	</g>
	<g>
		<line class="st17" x1="361.4" y1="210.4" x2="361" y2="223.5"/>
		
			<rect x="354.7" y="212.2" transform="matrix(3.145773e-02 -0.9995 0.9995 3.145773e-02 133.0454 571.2605)" width="13.1" height="9.6"/>
	</g>
	<g>
		<line class="st17" x1="334.5" y1="210.2" x2="334.1" y2="222.6"/>
		
			<rect x="328.1" y="211.6" transform="matrix(3.145773e-02 -0.9995 0.9995 3.145773e-02 107.5299 543.7609)" width="12.4" height="9.6"/>
	</g>
	<g>
		
			<rect x="277.9" y="200.5" transform="matrix(3.140611e-02 -0.9995 0.9995 3.140611e-02 68.4979 489.5757)" class="st18" width="17.9" height="17.9"/>
	</g>
	<g>
		
			<rect x="373.1" y="202.1" transform="matrix(3.140611e-02 -0.9995 0.9995 3.140611e-02 159.1058 586.2783)" class="st18" width="17.9" height="17.9"/>
	</g>
</g>
<rect x="296" y="182" transform="matrix(3.140611e-02 -0.9995 0.9995 3.140611e-02 104.6384 481.9754)" class="st7" width="10" height="10"/>
<line class="st19" x1="236.8" y1="151.1" x2="249.3" y2="142.9"/>
<path d="M280.1,141.8l-20.5-4.3l-2.1,9.8l19.4,4.1C277.1,147.9,277.6,144.1,280.1,141.8z"/>
<line class="st19" x1="188" y1="346.9" x2="303.2" y2="277.9"/>
<path d="M250.4,352.5l58-35c-2.3-2-3.4-4.7-4.7-7.4c-0.2-0.4-0.3-0.8-0.4-1.2l-56.3,34c0.8,0.5,1.6,1.3,1.7,2.2c0,0.1,0,0.1,0,0.2
	c0.1,0.4,0.1,0.9,0,1.3C250.3,348.2,251.2,350.4,250.4,352.5L250.4,352.5z"/>
<path d="M341.1,297.1c-2.3-1.8-4.2-4.9-5-8.2l-15,9c2,0.8,3.5,2.5,3.2,5c-0.1,1.4-0.3,2.8-0.3,4.2c0.1,0.2,0.2,0.4,0.2,0.5
	l17.2-10.4C341.4,297.3,341.3,297.2,341.1,297.1z"/>
<g>
	<path d="M270.2,173.3c0.2-0.4,0.5-0.7,0.7-1L257.3,144l-9,4.3l18.7,39C267,182.5,267.8,177.7,270.2,173.3z"/>
	<path d="M304.5,238.7c-0.7,0-1.4,0-2.2-0.2c-0.9-0.1-1.6-0.4-2.2-0.8c-2.8-0.4-5.6-0.8-8.4-1.3l15,26.4l8.7-4.9L304.5,238.7z"/>
</g>
<g>
	<path d="M340.4,237.8c-2.6,0.1-5.2,0.2-7.7,0.1l18.3,30l8.5-5.2l-15.3-24.9C343.1,237.7,341.8,237.7,340.4,237.8z"/>
</g>
<line class="st19" x1="165.9" y1="347.7" x2="104.2" y2="236.6"/>
<line class="st19" x1="171" y1="347.3" x2="183.5" y2="340.1"/>
<line class="st19" x1="106.5" y1="237.3" x2="119" y2="229.1"/>
<line class="st19" x1="297.9" y1="269.9" x2="310.5" y2="263.3"/>
<line class="st19" x1="313.9" y1="270.4" x2="326.5" y2="263.9"/>
<line class="st19" x1="329.5" y1="272.5" x2="342.1" y2="266"/>
<line class="st19" x1="345.2" y1="275.3" x2="357.7" y2="268.8"/>
<g>
	<path class="st20" d="M179.9,356.3c2.7-1.6,5.5-3.1,8.2-4.7"/>
	<path d="M186.7,358.1c1.1-3.8,2.4-7.6,3.9-11.2c0.1-0.2,0.2-0.3,0.3-0.5l-0.9-1.7l-12.6,7.2l5,8.7l4.3-2.4
		C186.7,358.2,186.7,358.2,186.7,358.1z"/>
</g>
<line class="st19" x1="211.2" y1="361.7" x2="223.8" y2="354.5"/>
<line class="st19" x1="296.5" y1="282.8" x2="304.7" y2="319.6"/>
<line class="st19" x1="309.7" y1="322.2" x2="326.5" y2="317.8"/>
<line class="st19" x1="319.2" y1="276.9" x2="327.4" y2="313.6"/>
<line class="st19" x1="333.5" y1="273.2" x2="341.7" y2="310.2"/>
<line class="st19" x1="346.7" y1="312.5" x2="363.5" y2="308.1"/>
<line class="st19" x1="356.1" y1="267.2" x2="364.4" y2="304.2"/>
<g>
	<path class="st20" d="M188.1,343.1c-1.1,11.9-2.1,22.9-3.2,34.4"/>
	<path d="M185,342c-0.8,0.3,0,1.1-0.4,0.5c-0.5-0.7-0.9-1.5-1.3-2.3l-3.5,36.9l10,0.9l3.5-37.2C191,341.7,187,341.2,185,342z"/>
</g>
<line class="st19" x1="188.8" y1="382" x2="206.1" y2="383.2"/>
<line class="st19" x1="212.1" y1="338.2" x2="208.2" y2="379.2"/>
<line class="st19" x1="226.8" y1="339.3" x2="222.9" y2="380.6"/>
<line class="st19" x1="226.9" y1="384.7" x2="244.2" y2="386"/>
<line class="st19" x1="250.2" y1="341" x2="246.3" y2="382.3"/>
<line class="st19" x1="62.1" y1="301.7" x2="98" y2="284"/>
<line class="st19" x1="97.9" y1="292" x2="119.2" y2="281.5"/>
<line class="st19" x1="120.8" y1="288.3" x2="132.1" y2="282.8"/>
<line class="st19" x1="61.3" y1="304.9" x2="70" y2="321"/>
<line class="st19" x1="70.8" y1="323" x2="86.5" y2="315.2"/>
<line class="st19" x1="88" y1="321.7" x2="123.9" y2="304"/>
<line class="st19" x1="124.8" y1="311" x2="145" y2="301.1"/>
<g>
	<g>
		<path d="M155.7,111.9c-5.7-1-11-2.6-16.1-5.5c-2.4-1.3-4.5-2.8-6.4-4.8c-2-2-3.4-4.5-4.5-7c-2.4-5.4-3.7-11.2-7.1-16.2
			c-1.7-2.6-3.9-4.9-6.8-6.1c-3.1-1.2-6.2-0.1-8.2,2.5c-1.8,2.4-3,5.3-4.1,8.1c-1.1,2.8-1.9,5.7-2.5,8.6c-1.2,6.3-1.3,12.7-0.3,19.1
			c1.9,12.1,7.7,23.9,16.3,32.5c4.8,4.8,10.7,8.6,16.8,11.4c6.1,2.8,12.4,5.4,19.2,5c0.9-0.1,1.3-1.3,0.5-1.7
			c-4.8-2.6-10.1-4.2-14.9-6.9c-4.9-2.7-9.3-5.8-13.4-9.5c-4.1-3.8-8.1-7.8-11.2-12.2c-3.2-4.7-5.6-9.9-7.1-15.4
			c-2.9-10.7-2.9-22.9,1.9-33.1c0.9-1.9,2.1-5.4,4.8-4.6c2.4,0.7,4,3.2,5.1,5.3c1.3,2.4,2.1,5,3.1,7.6c1,2.8,2,5.5,3.2,8.2
			c2.6,5.7,7,10.4,12.7,13.1c5.5,2.7,12.1,3.4,18.1,4.3C156.7,114.9,157.5,112.2,155.7,111.9L155.7,111.9z"/>
	</g>
</g>
<g>
	<g>
		<path d="M133.5,208c4.4,0.2,8.8,0.8,13.2,0.6c4.3-0.1,8.5-0.6,12.7-1.3c8.5-1.4,16.8-3.6,25-6.4c1.6-0.5,2.6-2.1,2.2-3.8
			c-0.4-1.5-2.2-2.7-3.8-2.2c-8,2.8-16.1,5.2-24.4,6.8c-3.9,0.7-7.9,1.3-11.9,1.8c-4.3,0.5-8.7,1.3-13,1.4
			C131.5,205,131.5,207.9,133.5,208L133.5,208z"/>
	</g>
</g>
<g>
	<g>
		<path d="M174.6,163.8c-3.9-1-7.8-2.1-11.8-3.1c-1.2-0.3-2.6,0.6-2.6,2c0.3,5.5,0.4,10.9,1.7,16.2c1.3,5.2,3.7,10,7.1,14
			c3.3,3.8,7.4,6.7,12.1,8.5c4.7,1.8,9.4,1.6,14-0.2c4.5-1.7,9.1-4.8,11.1-9.3c0.4-0.8-0.5-1.6-1.2-0.9c-1.4,1.3-2.9,2.7-4.6,3.5
			c-1.7,0.8-3.3,1.3-5.2,1.6c-0.9,0.1-1.9,0.1-2.8,0.1c-1,0-1.2-0.1-2.3-0.3c-2-0.3-3.9-0.7-5.8-1.3c-0.2-0.1-0.5-0.2-0.7-0.2
			c-0.1,0-0.8-0.3-0.4-0.1c0.4,0.2-0.3-0.1-0.4-0.2c-0.2-0.1-0.5-0.2-0.7-0.3c-0.9-0.5-1.9-1-2.8-1.6c-0.4-0.3-0.8-0.6-1.2-0.9
			c0.5,0.4-0.6-0.5-0.7-0.6c-0.8-0.6-1.5-1.3-2.2-2c-1.6-1.6-2.4-2.6-3.6-4.4c-1.3-1.9-2.4-4-3.4-6.1c-2.2-4.7-3.6-10.1-3.8-15.3
			c-0.9,0.7-1.7,1.3-2.6,2c3.9,1,7.9,2,11.8,3C176.1,168.3,177.1,164.4,174.6,163.8L174.6,163.8z"/>
	</g>
</g>
<g>
	<g>
		<path d="M176.6,164.6c0-2,0.1-3.9,0.4-5.9c0-0.3,0.1-0.5,0.1-0.8c0,0.4,0.1-0.4,0.1-0.4c0.1-0.5,0.1-0.9,0.2-1.4
			c0.1-0.5,0.2-0.9,0.3-1.4c0-0.2,0.1-0.4,0.2-0.7c0-0.1,0.3-0.7,0.1-0.3c0-0.1,0.1-0.1,0.1-0.2c0.2-0.2,0.2-0.3,0,0l0.1-0.1
			c-0.2,0.1-0.2,0.2-0.1,0.1c0.2-0.1,0.1-0.1-0.1,0.1c-0.1,0-0.3,0.1-0.4,0c-0.1,0-0.2,0-0.4-0.1c0.1,0,0.1,0.1,0.2,0.1
			c-0.2-0.2-0.2-0.2,0,0l0.1,0.1c0.1,0.1,0.3,0.3,0.4,0.5c0.3,0.4,0.7,0.8,1,1.2c0.6,0.8,1.2,1.5,1.8,2.3c0.7,0.9,1.4,1.9,2.4,2.6
			c0.8,0.5,1.9,0.4,2.6-0.2c0.7-0.5,1.2-1.6,0.8-2.5c-0.5-1.3-1.6-2.4-2.6-3.6c-0.8-1-1.6-1.9-2.3-2.9c-0.8-1-1.6-1.9-2.9-2.3
			c-1.5-0.4-3,0.1-4.1,1.2c-0.9,0.9-1.4,2.1-1.6,3.4c-0.2,1.3-0.4,2.6-0.5,3.9c-0.3,2.4-0.4,4.8-0.3,7.2c0,1.2,1,2.3,2.3,2.3
			C175.6,166.8,176.6,165.9,176.6,164.6L176.6,164.6z"/>
	</g>
</g>
<g>
	<g>
		<path d="M188.3,159.6c1.9-3.5,3.8-7.1,5.7-10.6c-1.3,0.2-2.7,0.3-4,0.5c5.1,4.6,7.8,11.2,9.4,17.8c0.9,3.7,1.5,7.5,1.9,11.2
			c0.2,2.1,0.6,4.1,0.9,6.2c0.3,1.8,0.6,3.5,0.2,5.3c-0.3,1.5-1,2.7-1.9,3.9c-0.8,1.1-1.4,2.8,0.1,3.5c1.8,0.8,3.5-1,4.4-2.3
			s1.6-2.9,1.9-4.4c0.9-3.9,0.7-8.1,0.2-12c-0.5-4-1.1-8-2-11.9c-1.9-7.9-5.5-15.5-11.7-20.9c-1.2-1-3.2-1-4,0.5
			c-1.9,3.6-3.7,7.1-5.6,10.7C182.5,159.9,186.7,162.4,188.3,159.6L188.3,159.6z"/>
	</g>
</g>
<g>
	<g>
		<path d="M206.9,186c1-3.4,2.6-6.8,3.9-10.1c1.3-3.3,2.6-6.5,4.2-9.7c1.6-3.2,3.2-6.4,5.1-9.5c0.9-1.5,1.8-2.9,2.8-4.4
			s2.8-3.7,1.6-5.5c0.1,0.3,0.2,0.7,0.3,1c0-0.2,0-0.5,0.1-0.7c0.1-0.9-1-1.8-1.9-1.5c-0.2,0.1-0.4,0.2-0.6,0.3c0.3,0,0.7,0,1,0
			c-2.2-0.7-3.8,1.8-4.9,3.3c-1.1,1.5-2.1,3.1-3,4.7c-2,3.3-3.7,6.7-5.2,10.2c-1.4,3.4-2.7,6.9-3.5,10.6c-0.9,3.7-1.1,7.3-1.4,11
			C205.1,186.7,206.7,186.9,206.9,186L206.9,186z"/>
	</g>
</g>
<g>
	<g>
		<path d="M133.5,99.5c-2.6-15.3,0.6-31.7,9.4-44.5c8.3-12.1,22.2-20.6,36.6-21.6c7.7-0.5,14.8,0.7,22.1,3.6c0.8,0.3,1.3,0.5,2.3,1
			c0.9,0.4,1.8,0.9,2.7,1.4c1.7,0.9,3.5,1.9,5.1,3c3.5,2.3,6,4.2,9.1,7.1c3,2.7,5.7,5.7,8.3,8.8c1.1,1.4,2.1,2.7,3.4,4.6
			c1.2,1.7,2.3,3.4,3.3,5.1c2.2,3.6,4.1,7.3,5.9,11.1c0.9,1.9,1.7,3.8,2.5,5.7c0.1,0.2,0.6,1.4,0.3,0.7c0.2,0.5,0.4,0.9,0.6,1.4
			c0.4,1,0.8,2,1.2,3c5.8,15.1,8.9,31,13,46.5c0.5,1.8,1,3.5,1.7,5.2c0.6,1.6,2,2.8,3.8,2.5c1.6-0.2,3.1-1.7,3-3.4
			c-0.3-4.2-1.2-8.3-2.1-12.4c-0.9-4.2-1.8-8.4-2.8-12.6c-1.9-8.2-4-16.3-6.8-24.2c-5.8-16.5-14.5-32.6-27-45
			c-12-11.9-28.4-20.4-45.6-19.9c-16,0.4-32.3,8.5-42.2,21.1c-10.2,12.9-15,30.5-12.3,46.8c0.3,2,0.8,3.9,1.3,5.9
			C131,102.4,133.8,101.5,133.5,99.5L133.5,99.5z"/>
	</g>
</g>
<g>
	<path d="M287.5,62c-0.8-5.1-2.4-10.1-4.7-14.7c-2.2-4.6-5.2-9.3-9-12.7c-3.8-3.5-9.5-6.1-14.4-3.1c-4.3,2.7-5.7,8.2-5.4,12.9
		c0.2,3.4,1.1,6.6,1.4,10c0.3,2.6,0,5.1-0.8,7.6c-0.4,1.2-0.9,2.4-1.5,3.6c2,1.2,2.6,3.6,2.4,5.8c3.9-4.5,6-10.5,5.5-16.6
		c-0.4-4.8-2.4-10-1.2-14.7c0.4-1.6,1.1-3.3,2.4-4.1c1.5-1,3.3-0.7,4.9,0.1c4,2.1,6.9,6.3,9,10.2c2.3,4.2,3.8,8.7,4.7,13.3
		c0.9,4.5,1,9.3,0.4,13.9c-0.2,1.9-0.6,4.2-1.2,6.4c-0.3,1.1-0.6,2.2-1,3.3c-0.2,0.5-0.3,1-0.5,1.4c-0.3,0.7-0.4,0.9-0.5,1.3
		c-2.1,4.6-4.7,8.9-8,12.5c-3.4,3.8-7,6.6-11.4,9.1c-1.2,0.7-1.7,2.3-1.2,3.6c0.5,1.2,2,2.2,3.4,1.7c9.2-3.8,17-11.3,21.6-20.1
		C287.5,83.3,289.2,72.7,287.5,62z"/>
</g>
<g>
	<path d="M210.9,34.7c-6.2-2.1-12.7-3.5-19.2-3.6c-6.3,0-12.8,0.9-18.8,3.1c-10,3.7-19,10.9-24.4,20.1c-5.8,9.8-7.6,22.2-4.4,33.1
		c1,3.3,2.4,6.3,4.2,9.1c0.8-0.4,1.6-0.6,2.6-0.5c-0.6-0.9-1.1-1.7-1.7-2.7c-5.4-9.8-5.5-22.1-1.2-32.4c4.1-9.9,12.3-17.8,22-22.2
		c12.6-5.8,27.2-5.6,40.4-2C211.7,37.2,212.3,35.2,210.9,34.7z"/>
	<path d="M176.6,119.1c-0.8,0.3-1.7,0.3-2.7,0c-0.7-0.2-1.4-0.5-2.2-0.8c3.8,3.1,7.5,6.4,10.4,10.3c4.1,5.5,6.5,11.8,6.3,18.6
		c0,1.6,2.4,1.6,2.5,0C191.9,136.1,184.6,126.3,176.6,119.1z"/>
</g>
<circle cx="173.2" cy="66.9" r="23"/>
<path d="M226.1,30c-12.7,0-23,10.3-23,23c0,5.6,2,10.8,5.4,14.8c2.1-1.8,4.2-3.6,6.2-5.5c0.2-0.2,0.4-0.4,0.6-0.6
	c1.2-1.2,2.3-2.5,3.4-3.8c0-0.1,0.1-0.1,0.1-0.2c1.1-1.5,2.1-3.1,2.9-4.8c0.4-0.9,1.9-0.5,1.8,0.5c-0.4,4.9,0.3,10.1,0.5,15.1
	c0,0.1,0.1,0.1,0.1,0.2c0.1,0.3,0.3,0.6,0.5,0.9c1.4-1.6,2.9-3.2,4.4-4.7c2.2-2.2,4.1-4.8,6.3-7l0,0c0.5-0.4,1.4-0.1,1.1,0.6
	c-1.2,3.4-3.8,6.2-6.5,8.8c-0.1,0.2-0.2,0.3-0.3,0.5l0,0c-0.6,2.3-2.8,3.8-3.3,6.2c-0.1,0.8-1.2,1.4-2,1.1c-0.2-0.1-0.4-0.1-0.5-0.2
	c0,0.3-0.1,0.6-0.1,0.9c0.8,0.1,1.6,0.1,2.4,0.1c12.7,0,23-10.3,23-23S238.8,30,226.1,30z"/>
<g>
	<g>
		<path d="M198,73.6c-1.9,5.9-1.8,12.5,1.2,18c2.6,4.7,8.5,8.6,14,8.1c2.6-0.2,2.7-4,0-4.1c-2.3-0.1-4.3-0.5-6.3-1.6
			c-1.9-1.1-3.4-2.7-4.7-4.5c-3-4.4-3.2-10.2-2.1-15.2C200.4,72.8,198.4,72.3,198,73.6L198,73.6z"/>
	</g>
</g>
<g>
	<g>
		<path d="M206.8,87.5c2.4-0.6,4.6-2.1,6.9-3.1c2.1-0.9,4.3-1.6,6.5-2.1c4.7-1.1,9.7-0.9,14.5-0.7c-0.1-1-0.3-1.9-0.4-2.9
			c-0.9,0.2-1.4,1-2.1,1.5c-1.2,0.9-2.4,1.7-3.6,2.7c-2.6,2.1-4.9,4.7-7,7.3c-1.5,1.8-2.8,4.8-5.4,5.2c-1.3,0.2-2.6-0.2-3.9-0.1
			c-1.3,0.1-2.5-0.2-3.5,0.7c-0.3,0.2-0.4,0.8-0.3,1.1c0.5,1.3,1.7,1.6,2.9,2.2c1.3,0.7,3,0.8,4.5,0.8c3.4-0.2,5.5-2,7.5-4.7
			c1.9-2.6,3.9-5.2,6-7.7c1.1-1.3,2.2-2.6,3.4-3.8c0.5-0.5,1-1.1,1.4-1.7c0.1-0.1,0.3-0.3,0.4-0.4c0.1-0.2,0.7-0.3,0-0.2
			c1.6-0.1,2.2-2.5,0.4-2.9c-5.3-1.1-10.7-1.3-16-0.2c-2.5,0.5-4.8,1.4-7.1,2.5c-2.4,1.2-5,2.8-6.4,5.1
			C205.2,86.8,205.9,87.7,206.8,87.5L206.8,87.5z"/>
	</g>
</g>
<path class="st7" d="M216.7,57.3c0.4,0.2,0.8,0.5,1.2,0.6c0.2,0.1,0.4,0.2,0.5,0.3c0.4-1.1,1.3-1.8,2.4-1.9
	c-1.2-4.1-2.4-9.2,1.6-11.6c5.8-3.4,9.5,4.9,11.7,8.7c1.1,2,4.7,0.7,3.8-1.6c-2.3-6.6-9.1-15.1-17.1-11.2
	C214.4,43.7,214,51.4,216.7,57.3C216.7,57.2,216.7,57.2,216.7,57.3z"/>
<g>
	<path d="M222.1,65.3c0,0.9,0,1.7-0.1,2.6c0.2,0,0.3,0,0.5,0.1c0.8,0,1.5,0.3,2.1,0.9c0.4-0.3,0.8-0.7,1.2-1c0-0.7,0-1.3,0-2
		c-0.1-4.7-0.6-9.4-1.1-14c-0.2-1.6-2.2-2.3-3.1-0.8c-5.7,8.6-13.8,15.6-23,20.2c-1.8,0.9-0.2,3.4,1.5,2.6c8.5-4,15.9-9.9,21.6-17.3
		C222,59.4,222.1,62.3,222.1,65.3z"/>
	<path d="M224.7,73.5c-0.3,0.1-0.6,0.2-1,0.2c-0.3,0-0.5,0-0.8,0c-0.5,0.4-1,0.8-1.6,1.1c-0.2,1.2-0.5,2.4-0.8,3.7
		c-0.4,1.9,2.2,3.2,3.2,1.4c1.1-2,1.4-4.3,1.7-6.5v-0.1C225.2,73.3,225,73.4,224.7,73.5z"/>
</g>
<g>
	<g>
		<path d="M222.4,52.1c-5.5,13.4-11.8,26.9-20.7,38.4c-1.1,1.4,0.9,3,1.9,1.5c8.5-12.2,16-25.2,19.9-39.6
			C223.7,51.6,222.7,51.4,222.4,52.1L222.4,52.1z"/>
	</g>
</g>
<g>
	<g>
		<path d="M214.8,74.6c2.9-2.3,5.6-4.7,8.4-7.1c-0.8-0.1-1.5-0.2-2.3-0.3c0.6,1,1.2,1.9,1.8,2.9c0.5,0.9,1.7,1,2.4,0.3
			c4.4-4.2,8.8-8.5,13.1-12.9c-0.8-0.6-1.6-1.3-2.5-1.9c-3.5,6.8-7.7,13-12.3,19.1c0.9,0,1.8,0,2.7,0c-0.6-1.4-1.8-2.2-3.3-1.7
			c-1.1,0.4-2.2,1.4-3.1,2.2c-2,1.7-4.3,3.6-5.3,6.1c-0.7,1.8,2.2,2.6,2.9,0.8c0.6-1.4,2.2-2.7,3.4-3.8c0.6-0.5,1.1-1,1.7-1.4
			c0.4-0.3,0.8-0.5,1.1-0.8c0.3-0.2,0.6-0.1,0-0.3c-0.6-0.2-0.2,0.2,0,0.5c0.4,0.8,1.8,1,2.4,0.3c4.8-6.1,8.8-12.6,12.6-19.4
			c0.9-1.6-1.2-3.2-2.5-1.9c-4.4,4.2-8.8,8.6-13,13c0.8,0.1,1.6,0.2,2.4,0.3c-0.6-1-1.2-1.9-1.9-2.9c-0.5-0.8-1.6-1-2.3-0.3
			c-2.7,2.5-5.2,5.2-7.8,7.7C212.3,74.1,213.8,75.4,214.8,74.6L214.8,74.6z"/>
	</g>
</g>
<path class="st21" d="M186.4,65.8c-2.3-6.6-9.1-15.1-17.1-11.2c-7.7,3.8-6.8,13.8-2.5,19.7c1.1,1.6,3.9,0.7,3.3-1.4
	c-1.3-4.2-4.1-11.2,0.8-14.2c5.8-3.4,9.5,4.9,11.7,8.7C183.7,69.4,187.2,68.1,186.4,65.8z"/>
<g>
	<g>
		<path d="M132.7,101.7c4.8-3.3,11.3-3.5,16.9-3.7c6.3-0.3,12.8,0,18.7,2.4c4.8,1.9,9,5.5,11.3,10.1c1,1.9,1.8,4.8-0.3,6.3
			c-2.4,1.6-5.6,1.1-8.1,0.2c-1.7-0.6-3.3-1.3-5.1-1.8c-1.7-0.4-3.4-1.4-5-2.1c-3-1.3-6.8-2.5-10-1.2c-0.6,0.2-0.8,1.3,0,1.5
			c1.7,0.3,3.4,0.5,5,1c1.8,0.6,3.5,1.3,5.2,2.2c0.7,0.4,1.5,0.8,2.2,1.2c0.8,0.5,1.4,1.1,2.2,1.6c1.6,1,3.5,1.6,5.4,2.1
			c3.4,0.8,7.3,0.9,10.4-1.1c3-1.9,3.9-5.4,3.1-8.7c-1.4-6.1-6.5-10.6-11.8-13.4c-6.2-3.4-13.4-4.3-20.4-4.2c-4,0.1-8,0.3-12,1
			c-1.7,0.3-3.3,0.8-4.9,1.4c-1.8,0.8-3.1,1.7-4.5,3.1C130.1,100.7,131.4,102.5,132.7,101.7L132.7,101.7z"/>
	</g>
</g>
<g>
	<g>
		<path d="M152,104.9c3.4,7,12.7,9.2,19.9,8.9c1.9-0.1,3.9-0.5,5.4-1.9c1.2-1.2,0.8-3.8-1.3-3.1c-0.8,0.3-1.3,1-2.1,1.3
			c-1,0.3-2,0.2-3,0.2c-2.1-0.1-4.2-0.2-6.3-0.3c-4.5-0.2-8.9-1.7-11.6-5.6C152.5,103.7,151.7,104.2,152,104.9L152,104.9z"/>
	</g>
</g>
<g>
	<g>
		<path d="M159.5,108.2c0.1-1.2,1.2-2.2,2.3-2.6c1.3-0.5,2.8-0.4,4.1,0.1c1.2,0.4,2.4,1.3,3.2,2.3c0.9,1.1,1.2,2.3,1.7,3.6
			c0.2,0.6,0.6,1,1.3,1c0.5,0,1.2-0.4,1.3-1c0.3-2-0.5-4.1-1.7-5.7c-1.3-1.7-3.2-2.9-5.3-3.4s-4.4-0.3-6.4,0.6
			c-1.9,0.9-3.2,3-3.1,5.1C157,109.9,159.4,109.9,159.5,108.2L159.5,108.2z"/>
	</g>
</g>
<g>
	<g>
		<path d="M106.5,125.1c-0.6,3.4-3.3,5.6-6,7.3c-3,1.9-6.4,3.2-9.3,5.4c-3.2,2.3-5.3,5.3-6.1,9.2c-0.4,1.8-0.5,3.7-0.5,5.6
			c0.1,1.6,0.3,3.9,1.4,5.1c0.5,0.5,1.5,0.4,1.8-0.2c0.7-1.5,0.4-3.6,0.6-5.3c0.1-1.6,0.5-3.1,1.1-4.6c1.4-3.2,3.9-5.4,6.9-7.2
			s6.4-3.3,9-5.8c2.5-2.4,4.3-5.7,4.2-9.2C109.5,123.8,106.8,123.3,106.5,125.1L106.5,125.1z"/>
	</g>
</g>
<g>
	<g>
		<path d="M106.9,144c-2.8,2.9-6.2,5.3-9.7,7.2c-3.6,2-7.5,3.2-11.4,4.4c-4,1.3-7.6,3.2-10.2,6.5c-2.5,3.2-3.8,7.1-4,11.2
			c-0.1,2.5,0.2,5.1,0.5,7.6c0.2,1.3,0.3,2.7,0.7,4c0.3,1.1,0.7,2.4,1.5,3.2c0.4,0.4,1,0.1,1.2-0.3c0.8-1.9,0.2-4.5,0-6.4
			c-0.2-2.2-0.2-4.3,0.1-6.5c0.4-3.4,1.6-7.2,3.7-10c2.3-2.9,5.8-4.3,9.1-5.6c3.6-1.4,7.1-3,10.3-5.2c3.6-2.5,6.7-5.5,9.5-8.9
			C109,144.4,107.8,143.1,106.9,144L106.9,144z"/>
	</g>
</g>
<g>
	<g>
		<path d="M75.9,188.3c1.5-1.7,3.5-3,5.3-4.4c1.7-1.3,3.4-2.5,5.3-3.6c4-2.4,8.3-4.1,12.6-5.6c9.4-3.3,19.1-6.4,27-12.8
			c2-1.6,3.8-3.4,5.3-5.6c0.7-1,1.3-2,1.9-3c0.8-1.5,1.3-2.6,0.6-4.2c-0.2-0.5-1-1-1.6-0.9c-2.3,0.2-3.6,2.7-5.2,4.1
			c-1.5,1.4-3.1,2.9-4.6,4c-3.6,2.8-7.6,5-11.7,6.9c-8.9,4.1-18.1,7.6-26.3,13c-2.1,1.4-4.1,2.9-5.9,4.6c-1.9,1.8-3.1,3.9-4.6,6.2
			C73.3,188,75,189.3,75.9,188.3L75.9,188.3z"/>
	</g>
</g>
<g>
	<g>
		<path d="M97.2,135.6c0.5-3.1,1-6.3,2.4-9.2c0.7-1.4,1.6-2.8,2.5-4.1c0.9-1.4,2.1-2.4,3.2-3.6c0.8-0.9-0.2-2.1-1.2-1.6
			c-1.6,0.7-3,2.1-4.2,3.3c-1.3,1.3-2.3,2.8-3.1,4.5c-1.6,3.3-2.5,7.1-1.6,10.7C95.5,136.5,97,136.6,97.2,135.6L97.2,135.6z"/>
	</g>
</g>
<g>
	<g>
		<path d="M245.4,61.9c3.6,2.8,6.8,6.1,8.3,10.5c0.6,1.9,0.9,3.9,0.4,5.9c-0.5,2.1-1.6,3.3-3.1,4.8c-2,1.9,0.6,5.2,3,3.9
			c2.4-1.4,3.9-4.1,4.7-6.6c0.8-2.7,0.7-5.7-0.1-8.4c-1.6-5.6-6.3-9.7-11.1-12.8C245.9,57.9,243.8,60.6,245.4,61.9L245.4,61.9z"/>
	</g>
</g>
<g>
	<g>
		<path d="M245.9,68.1c-0.4,1.8-0.2,3.8,0.4,5.6c0.7,1.8,1.8,3.7,3.6,4.6c0.4,0.2,0.9,0.3,1.3,0c0.8-0.5,0.8-1.5,0.1-2.1
			c-0.3-0.3-0.7-0.6-1-0.9s-0.6-0.6-0.9-1c0.1,0.1,0-0.1-0.1-0.1c-0.1-0.1-0.1-0.2-0.2-0.3c-0.1-0.2-0.3-0.4-0.4-0.6
			c-0.8-1.5-1.2-3.1-1-4.9C248,67.3,246.2,67,245.9,68.1L245.9,68.1z"/>
	</g>
</g>
<g>
	<g>
		<path d="M247.5,70.7c0,0-0.3-0.1-0.1,0H247.5c0.1,0.1,0.2,0.1,0.3,0.2s0.2,0.1,0.3,0.2c0,0-0.2-0.2-0.1-0.1l0.1,0.1
			c0.2,0.1,0.3,0.3,0.4,0.4l0.1,0.1c-0.3-0.3-0.1-0.2-0.1-0.1c0.1,0.1,0.1,0.2,0.2,0.3c0.1,0.2,0.2,0.4,0.3,0.5s-0.1-0.3-0.1-0.1
			c0,0.1,0,0.1,0.1,0.2c0,0.1,0.1,0.2,0.1,0.3c0.1,0.2,0.1,0.4,0.2,0.6c0,0.1,0,0.2,0.1,0.3c0,0.1,0.1,0.5,0,0.1
			c0.1,0.6,0.3,0.9,0.9,1.2l0,0c-0.2-0.2-0.5-0.5-0.7-0.7c0.1,0.3,0.1,0.6,0.3,0.9s0.5,0.4,0.9,0.2c0.4-0.2,0.6-0.5,0.8-0.9
			c-0.2,0.2-0.4,0.3-0.6,0.5l0,0c0.4-0.1,0.8-0.4,0.8-0.8c0.1-0.6,0.2-1.3,0-1.9c-0.1-0.6-0.4-1.1-0.7-1.6c-0.7-1.1-1.6-1.8-2.8-2.3
			c-0.6-0.3-1.5,0.3-1.6,0.9c-0.1,0.3-0.1,0.7,0.1,1C246.9,70.4,247.2,70.6,247.5,70.7L247.5,70.7z"/>
	</g>
</g>
<g>
	<g>
		<path d="M264.1,129.6c1.1-2.2,1.8-4.6,2.7-6.8c0.9-2.3,2.1-4.5,3.4-6.6c-1.3,0-2.5,0-3.8,0c1.7,2.4,3.2,4.9,4.4,7.5
			c0.6,1.4,2.6,1.3,3.5,0.5c3-2.8,5.9-5.7,9-8.4c-1.2-0.3-2.5-0.6-3.7-1c0.9,2.8,1.5,5.8,1.7,8.7c0.1,1.5,1.6,3.1,3.2,2.5
			c3-1.2,5.8-2.6,8.3-4.8c-1.3-0.4-2.7-0.7-4-1.1c0.4,2-0.1,4.4-0.6,6.3c-0.5,2.1-1.5,4-2.8,5.7c-0.9,1.1-1.1,2.6,0,3.6
			c0.9,0.9,2.7,1.1,3.6,0c1.9-2.3,3.3-4.9,4.2-7.7c0.8-2.9,0.7-5.6,0.4-8.5c-0.2-1.7-1.9-3.1-3.6-2.1c-2.2,1.3-4.3,2.7-6.7,3.6
			c1.1,0.8,2.2,1.6,3.2,2.5c-0.3-3.7-1.1-7.1-2.7-10.4c-0.6-1.3-2.5-1.4-3.5-0.4c-3,2.8-6,5.6-9,8.4c1.2,0.2,2.3,0.3,3.5,0.5
			c-1.2-2.9-2.8-5.5-4.8-7.9c-0.9-1.1-2.8-0.7-3.4,0.4c-2.5,4.4-5,9.9-4.4,15.1C262.2,130,263.6,130.7,264.1,129.6L264.1,129.6z"/>
	</g>
</g>
<line class="st19" x1="225.6" y1="339.2" x2="238.1" y2="332.6"/>
<line class="st19" x1="241.2" y1="341.3" x2="253.8" y2="334.7"/>
<g>
	<g>
		<path d="M133.6,151c-0.3,3.1-2.1,5.8-3.7,8.3c-1.5,2.3-3.6,4.1-6,5.4c-2.6,1.4-5.5,2.7-7.4,5c-2.4,3-2.7,6.8-1.8,10.4
			c3.2,13.2,15.3,22.5,27.9,25.9c4.1,1.1,8.5,1.3,12.7,1.3c2.1,0,4.6,0.1,6.7-0.6c1.9-0.7,4-1.1,6-1.7c1.7-0.5,1.3-2.8-0.4-2.9
			c-1.7-0.1-3.6-0.1-5.2-0.5c-0.8-0.2-1.6-0.4-2.5-0.5c-1.1-0.1-2.1-0.1-3.2-0.2c-3.3-0.3-6.6-1-9.8-1.7c-1.6-0.4-3.2-0.8-4.8-1.3
			c-0.7-0.2-1.4-0.5-2.1-0.7c-0.4-0.1-0.7-0.3-1.1-0.4c-0.4-0.2-0.5-0.2-0.1-0.1c-0.2-0.1-0.5-0.2-0.7-0.3c-2.6-1.2-5.1-2.7-7.5-4.4
			c-1.7-1.3-4.1-3.5-5.8-5.6c-0.3-0.3-0.7-0.9-1-1.4s-0.7-1-1-1.6c-0.7-1.2-1.3-2.4-1.8-3.6c-1-2.7-1.4-5.1,0.7-7.1
			c1.8-1.6,4.6-2.6,6.7-4c2.9-1.9,5.3-4.6,6.9-7.7c1.5-3.1,1.5-6.7,1.1-10C136.1,149.3,133.7,149.3,133.6,151L133.6,151z"/>
	</g>
</g>
<path d="M142.4,203.4c-0.3-1.4-1.8-2.5-3.3-1.8c0-0.7-0.5-1.2-1.1-1.5c-1.2,1.4-2.9,2.4-4.3,3.5c-1.9,1.5-3.9,2.8-6,4.1
	c-0.5,0.4-1,0.9-1.5,1.3c-0.6,0.5-0.6,1.2-0.3,1.7c-0.6,1.3,0.9,3,2.3,2.1c1.4-0.9,3.1-1.8,4.5-2.9c0.8,1.1,2.4,1.7,3.8,1
	c1.1-0.5,2.1-1,3.2-1.5c0.6,0.2,1.4,0.1,2.1-0.4c0.2-0.2,0.5-0.3,0.7-0.5C144.4,207.2,143.9,204.6,142.4,203.4z"/>
<rect x="356.7" y="184.6" transform="matrix(3.140611e-02 -0.9995 0.9995 3.140611e-02 160.8306 545.1617)" class="st7" width="10" height="10"/>
<path class="st15" d="M120.9,99.2c-1.4-3.8-2.5-7.4-3.5-11.3c-0.8-3.3-2.2-6.1-4.8-8.2c-1.9-1.6-4.8,1.2-2.8,2.8
	c3,2.4,4.5,5.9,5.8,9.4c1,2.8,1.8,6,4.2,8C120.2,100.3,121.1,99.9,120.9,99.2z"/>
<path class="st15" d="M208.2,69.4c-1.3,0.4-2.3,1.3-3.4,2c-1.2,0.8-2.4,1.6-3.6,2.4c-1.1,0.7-0.1,2.4,1,1.7c1.2-0.8,2.4-1.6,3.6-2.4
	c1.1-0.7,2.4-1.4,3.2-2.4C209.4,70.1,209,69.2,208.2,69.4z"/>
<path class="st15" d="M261.6,40.6c-0.2-1-1.7-0.6-1.5,0.4c1.9,10.1,1,19.2-0.5,29.3c-0.2,1.5,1.9,2.2,2.4,0.6
	C264.8,61.2,263.9,50.3,261.6,40.6z"/>
<g id="Capa_14">
</g>
</svg>
