<svg xmlns="http://www.w3.org/2000/svg" viewBox="0 0 283.75684 358.92601">
  <defs>
    <style>
      .cls-1 {
        isolation: isolate;
      }

      .cls-2 {
        opacity: 0.57;
      }

      .cls-15, .cls-16, .cls-2 {
        mix-blend-mode: multiply;
      }

      .cls-3 {
        fill: #d02900;
        stroke: #4aff45;
        stroke-linecap: round;
        stroke-linejoin: round;
        stroke-width: 4.17158px;
      }

      .cls-4 {
        fill: #696969;
      }

      .cls-5 {
        fill: #454545;
      }

      .cls-6 {
        fill: #94613b;
      }

      .cls-7 {
        fill: #e70d00;
      }

      .cls-8 {
        fill: #dce0bc;
      }

      .cls-9 {
        fill: #a8a8a8;
      }

      .cls-10 {
        fill: #fff;
      }

      .cls-11 {
        fill: #e7b600;
      }

      .cls-12 {
        fill: #83ff73;
        opacity: 0.73;
        mix-blend-mode: hard-light;
      }

      .cls-13 {
        fill: #f6ff8b;
      }

      .cls-13, .cls-14 {
        mix-blend-mode: overlay;
      }

      .cls-14 {
        fill: #f6ffd0;
      }

      .cls-15, .cls-17 {
        fill: #5800b9;
      }

      .cls-15, .cls-16 {
        opacity: 0.53;
      }

      .cls-18 {
        fill: #ffc200;
      }
    </style>
  </defs>
  <g class="cls-1">
    <g id="Layer_1" data-name="Layer 1">
      <g>
        <path d="M75.51547,194.71906c-1.02844,2.00678-2.21258,3.9054-3.2112,5.93077-.99487,2.01775-1.79456,4.119-2.7308,6.16372-.82834,1.80909-1.38433,3.44772-.46138,5.36914a7.29735,7.29735,0,0,0,3.59383,3.425,90.81892,90.81892,0,0,0,12.5971,4.64772c1.92873.56742,4.29167,1.6035,6.32646,1.19214A4.737,4.737,0,0,0,95.1,217.83976a68.67781,68.67781,0,0,1,5.508-13.65746c.76251-1.36815-1.39745-2.60459-2.08712-1.22-2.08256,4.181-4.05768,8.42029-5.9776,12.68725a4.497,4.497,0,0,1-1.34063,2.02512c-.68043.37722-1.90275-.34453-2.55828-.59252-2.30939-.87365-4.59092-1.816-6.8918-2.71077-2.21995-.86325-4.41936-1.777-6.63633-2.64751-.84876-.33329-1.74875-.633-2.57389-1.01241-.86867-.3994-1.016-.82986-.901-1.834a12.31353,12.31353,0,0,1,1.28556-3.40212c.47215-1.06125.96469-2.11169,1.38186-3.19609.896-2.32917,1.56862-4.708,2.42288-7.0475.258-.70663-.87363-1.18108-1.21616-.51272Z"/>
        <ellipse class="cls-2" cx="150.93628" cy="312.37461" rx="114.94714" ry="9.81611"/>
        <path class="cls-3" d="M270.33681,302.41808a21.0732,21.0732,0,0,0-2.14617-3.63693,24.614,24.614,0,0,0-15.42242-9.70416,23.94218,23.94218,0,0,0-10.201.27707,22.0747,22.0747,0,0,0-4.77382,1.87149c-1.43873.77767-2.87263,1.62515-4.3838,2.2565-1.44018.60174-2.74846,1.093-4.29863.62075a5.87094,5.87094,0,0,1-2.663-2.049,19.9134,19.9134,0,0,1-2.12432-3.14141,21.0658,21.0658,0,0,0-2.57609-3.47543,19.472,19.472,0,0,0-7.44909-5.0194,14.9583,14.9583,0,0,0-4.27851-1.00224,10.19946,10.19946,0,0,0-1.02974-.03526,25.27321,25.27321,0,0,1,3.39972-.49718,8.05473,8.05473,0,0,0,6.15709-4.2977,24.33962,24.33962,0,0,0,1.98153-5.60963A50.29242,50.29242,0,0,0,223.707,257.032c.901-3.36009,1.776-6.72675,2.55051-10.11281,1.426-6.23416,1.90811-12.47141.441-18.74427a34.0364,34.0364,0,0,0-21.84818-24.2549,10.68537,10.68537,0,0,0-1.909-.44239A55.43079,55.43079,0,0,0,210.67436,187.03a26.33672,26.33672,0,0,0,.62669-11.20624,32.00849,32.00849,0,0,0-3.479-9.47784c-.88873-1.66432-1.85592-3.29491-2.87734-4.89578a2.35685,2.35685,0,0,0-1.2729-1.926q-.64-.94748-1.30273-1.87917,2.18421-9.39294,4.35015-18.79032,5.14242-22.36132,9.94582-44.8003.58777-2.74747,1.14313-5.50037a.82336.82336,0,0,0,.00149-.29993c.04388-.17271.085-.34424.12157-.50486a7.7052,7.7052,0,0,0,.21787-2.33658,4.59926,4.59926,0,0,0-2.04034-3.5042,5.125,5.125,0,0,0-5.07508-.15578,1.17114,1.17114,0,0,0-.77122-.3122,273.76807,273.76807,0,0,0-52.95,2.69793,234.59263,234.59263,0,0,0-36.27519,8.43579c-4.39831-1.19307-8.86617-2.18067-13.33361-2.97647a14.1214,14.1214,0,0,0-8.9508,1.01612A14.76468,14.76468,0,0,0,93.29,95.76757a19.25865,19.25865,0,0,0-2.92054,9.72321A160.05131,160.05131,0,0,0,62.98137,123.987a154.71708,154.71708,0,0,0-31.8896,36.56561c-8.4487,13.61115-14.81895,28.85424-17.48526,44.70033-.2684,1.59515-.46738,3.17269-.58633,4.7748-.16015.17713-.32569.34925-.48516.527-.61595.68639.3851,1.70107,1.01781,1.01781.029-.03131.0592-.0614.08823-.09268a.408.408,0,0,0,.17152-.18013,160.117,160.117,0,0,1,27.59488-23.6853q8.72234-5.8934,17.86577-11.07549c-.03467.35365-.07138.70685-.10588,1.06059-.32586,3.34167-.6353,6.6824-.90744,10.029-.14059,1.72878-.29213,3.45293-.3425,5.18736-.01451.49968-.00687,1.00241.0087,1.50476-.00161.006-.00581.01-.0073.01613-1.2807,5.274-4.653,9.57544-6.47145,14.62743a14.69167,14.69167,0,0,0-.70066,8.24675,15.25234,15.25234,0,0,0,4.06745,6.81391,53.18365,53.18365,0,0,0,5.67528,5.07724,66.85764,66.85764,0,0,0,6.56146,4.68772c.27774.17152.55875.33583.8381.50375a102.9776,102.9776,0,0,0-8.61148,16.73024c-.623,1.55318-1.2479,3.11307-1.79761,4.694-.261.75064-.319,1.59507-.515,2.374-.20543.81638-.293,1.64137-.42478,2.47039-.253,1.59205-.49908,3.18567-.77746,4.7762a10.06983,10.06983,0,0,0,.106,4.72235c.88453,2.93666,3.33208,4.8463,5.27919,7.06339a9.09928,9.09928,0,0,1,1.95666,3.41631,13.648,13.648,0,0,1,.32243,4.10283,22.646,22.646,0,0,1-.68937,4.22548c-.35994,1.449-.9001,2.7735-1.39468,4.17349-.93961,2.6596-1.2019,5.93536.50791,8.35134a11.25543,11.25543,0,0,0,4.28131,3.272c1.78777.9312,3.57189,1.86788,5.37841,2.76229q2.71169,1.34271,5.42338,2.68532a16.14292,16.14292,0,0,0,6.04969,1.98713,1.16248,1.16248,0,0,0,1.04039-.45054c.05364.04863.0985.10477.15362.15209,2.32593,1.99545,5.25016,2.71133,8.23478,3.00329a56.79175,56.79175,0,0,0,9.7406-.09913,49.93837,49.93837,0,0,0,5.16674-.54347,33.23183,33.23183,0,0,1,4.65046-.5335,40.37243,40.37243,0,0,1,4.99844.11483,15.78074,15.78074,0,0,1,4.47686,1.52012,21.86541,21.86541,0,0,0,8.86987,2.14155,25.31822,25.31822,0,0,0,7.83431-1.59c1.49929-.53456,3.0198-1.08143,4.46719-1.74414,1.32348-.606,2.60312-1.29976,3.93415-1.884,1.19507-.52455,2.42256-1.04286,3.6467-1.48558a6.49546,6.49546,0,0,1,3.58635-.11051q-.17709.715-.354,1.43008a1.4478,1.4478,0,0,0,.03013.83662,1.22887,1.22887,0,0,0-.11063.27952,2.74587,2.74587,0,0,0-.0735.68851,5.12046,5.12046,0,0,0,.26013,1.733,5.8689,5.8689,0,0,0,1.03734,1.85332,6.81007,6.81007,0,0,0,1.16235,1.092,7.39934,7.39934,0,0,0,3.82781,1.56676,5.12221,5.12221,0,0,0,1.94159-.13151c.10032-.02915.19749-.068.296-.10282a1.36179,1.36179,0,0,0,1.83924-.96914c.02045-.083.04053-.16605.061-.249l.00463-.00577a1.34518,1.34518,0,0,0,.22265-.92234c.36414-1.47667.72162-2.955,1.08525-4.43179a1.35777,1.35777,0,0,0,.14258-.07371c2.45439-1.6165,5.59623-.04948,8.09182.7023a27.67041,27.67041,0,0,0,10.71386.92875c7.226-.69518,14.19213-2.93472,21.38482-3.88824a89.85219,89.85219,0,0,1,10.79364-.75709,83.50539,83.50539,0,0,1,10.95188.23776c3.49015.4188,6.91228,1.16634,10.36644,1.79621a31.66167,31.66167,0,0,0,10.10415.60259,15.56106,15.56106,0,0,0,4.5897-1.383c1.338-.64217,2.56781-1.48995,3.86239-2.21254a11.36228,11.36228,0,0,1,3.78712-1.56464,6.18964,6.18964,0,0,1,3.74692,1.09462,7.07054,7.07054,0,0,0,4.45221,1.00237,3.94844,3.94844,0,0,0,3.09283-2.16209C271.87434,305.87106,271.07634,303.9957,270.33681,302.41808ZM209.24552,87.88251q-.84163,3.86439-1.67464,7.73064c-.00895.00713-.01629.01625-.02512.02355.17742-.82719.35837-1.65371.535-2.48107.388-1.81675.76914-3.63384,1.13171-5.45581C209.2237,87.76106,209.23419,87.82136,209.24552,87.88251Zm-15.84394,58.48983q-3.37254-3.83945-7.02685-7.41523,1.996-.25053,3.993-.49225,2.52927-.30267,5.06044-.58875Q194.41106,142.12332,193.40158,146.37234Zm15.70369-59.3032-.01388-.018.00671-.02767ZM90.35906,108.8916l-.02372.00743.02351-.01333ZM62.98357,273.59682c.066.04842.12931.0987.19584.1467.136.16448.25364.35183.37989.52875C63.3711,274.04456,63.18005,273.8185,62.98357,273.59682Z"/>
        <path class="cls-4" d="M90.99966,108.69c-4.47991,1.37071-8.14821,2.75-11.92853,5.64821a42.37781,42.37781,0,0,0-3.94684,3.44232c-.08568.05351-.17305.10393-.25822.15837-4.59988,2.93981-9.23087,6.131-13.60385,9.402a121.99752,121.99752,0,0,0-22.496,22.52213c-6.4297,8.19247-11.9363,16.92481-15.31832,26.8259-1.64136,4.8051-3.69647,9.45451-5.45262,14.21747-1.65571,4.49057-3.61814,9.76789-3.47988,14.61619a.8589.8589,0,0,0,.28745.64158c-.13172.43063-.26967.85889-.39813,1.2908-.31754,1.06751,1.37606,1.84293,1.84425.7775.83135-1.89173,2.83274-3.69532,4.19437-5.23823a56.63009,56.63009,0,0,1,4.28047-4.32057,118.96642,118.96642,0,0,1,9.93071-7.52034c2.27628-1.67574,4.52923-3.39446,6.7049-5.198.06386-.03229.12709-.054.19113-.091,3.07687-1.77635,6.10455-3.63193,9.06248-5.60072q2.087-1.38911,4.12889-2.844c1.54049-1.09768,3.27585-1.85346,4.79614-2.90607,2.54541-1.76243,2.04085-5.46145,2.25-8.20363a65.06275,65.06275,0,0,1,1.28545-9.26533c2.52156-11.32136,8.44072-20.773,14.83393-30.17317,1.09534-.93515,2.18394-1.88061,3.25382-2.85446,2.0005-1.821,3.8088-3.6784,5.96881-5.33283a72.1308,72.1308,0,0,0,6.58434-5.33058C95.68764,111.437,93.67459,107.87154,90.99966,108.69Z"/>
        <path class="cls-4" d="M205.6755,82.184a12.43158,12.43158,0,0,0-1.40983,1.006c-3.04831.1074-6.052.00967-9.13255-.14352a69.34519,69.34519,0,0,0-12.11792.76889q-2.46155.30185-4.92239.59749A137.66855,137.66855,0,0,0,158.096,86.67318a5.30781,5.30781,0,0,0-1.32743.40589l-.06947.00764c-5.05338.60594-10.16143,1.2025-15.15736,2.18849-5.29854,1.04573-10.30954,2.94438-15.6691,3.71544-3.40477.48987-2.32271,5.54734.775,5.7265a33.83762,33.83762,0,0,1,12.36613,3.57252,8.60655,8.60655,0,0,1,1.61781,1.06708,9.19208,9.19208,0,0,0,2.88383,3.50347c1.00916,1.62961,1.89364,3.38534,3.03732,4.934,3.82658,5.18176,9.54341,7.61764,15.60473,8.87691a7.83115,7.83115,0,0,0,.29471.79312c-2.59892,3.30157-2.00062,8.7735,2.98755,10.02548a15.8552,15.8552,0,0,0,7.31091.0426,36.6824,36.6824,0,0,0,7.40411,4.88106,15.59246,15.59246,0,0,0,7.74422,1.32352c3.30488-.25224,5.80951-1.9065,8.94146-2.5247a2.4889,2.4889,0,0,0,1.78343-1.78348c1.58892-7.87832,2.76735-15.82908,4.44784-23.69446,1.68885-7.9045,2.97672-16.533,6.14861-24.00551C210.15491,83.52684,208.11966,80.711,205.6755,82.184Z"/>
        <path class="cls-5" d="M269.49184,305.45447c-1.09157-5.95145-6.751-11.57615-12.48-13.1405-4.39407-1.20279-9.05926-.66046-13.40465.445-3.8935.98727-7.787,2.85057-11.896,2.5864-6.72318-.438-11.45792-7.53667-16.72107-10.97823a24.60677,24.60677,0,0,0-9.49032-3.7544,6.88127,6.88127,0,0,1,1.78683-1.36273c2.01624-1.029,4.35927-1.26538,6.36163-2.40562a13.96059,13.96059,0,0,0,4.88077-4.693c2.46817-3.86566,3.44156-8.9202,4.61655-13.29343a80.77041,80.77041,0,0,0,2.82969-16.01189c.51453-8.6352-1.42528-17.69446-6.71623-24.661a33.69564,33.69564,0,0,0-10.83221-9.04539c-1.52954-.83428-3.19123-1.71728-4.90856-2.50293a20.11532,20.11532,0,0,0-3.21907-2.781,6.28458,6.28458,0,0,0-.737-.4241.41666.41666,0,0,0,.50062-.25725,23.6206,23.6206,0,0,1,1.5713-2.45429c4.02556-6.48682,6.56328-13.947,6.09743-21.65743a39.88882,39.88882,0,0,0-6.58413-19.77329c-2.41258-3.59454-5.86106-8.05812-9.99789-10.50546-.79261-1.474-1.58522-2.94095-2.37778-4.41491a5.46254,5.46254,0,0,0-3.30946-2.91315c-11.84732-14.684-26.63554-26.42-43.02986-36.01463q-7.30026-4.27592-14.93424-7.9399c-4.76258-2.30136-9.81712-5.138-15.01075-6.2852-5.722-1.26539-11.90987-.62571-15.92847,4.03252-.07651.09734-.153.18773-.22945.28508a5.34086,5.34086,0,0,0-3.26078,3.30946,22.14363,22.14363,0,0,0-1.022,10.74874A4.27018,4.27018,0,0,0,91.428,113.972c.18077.50757.38238,1.0151.584,1.51571a6.20639,6.20639,0,0,0-.70218.47278c-13.00143,10.28292-22.42224,23.43729-26.89282,39.4979a79.94327,79.94327,0,0,0-2.50989,14.8091,4.16981,4.16981,0,0,0-.52841,1.31406c-1.25146,6.014-.81344,12.25749-1.68948,18.34105a92.925,92.925,0,0,1-3.99081,16.92964c-4.35235,6.71623.1599,16.10924,6.15307,20.62149a59.44578,59.44578,0,0,0,9.16361,5.3605c-.02088.04171-.05564.08343-.07652.1321q-3.56667,6.44508-7.02214,12.9458c-2.30132,4.33844-5.22143,8.82289-6.68843,13.5368-2.051,6.57716,1.28622,10.92952,5.95145,14.29461,2.09275,2.53073,3.02438,6.612,2.89924,9.74756-.16686,4.3176-2.92011,8.03033-3.0383,12.2575-.13906,5.02678,3.19128,7.08473,7.29331,8.8646,4.23417,1.83551,8.38487,4.22722,12.77894,5.67338a5.01323,5.01323,0,0,0,2.85061,1.87722c6.59108,1.65468,13.21692,1.09152,19.89147.41018,6.48682-.66747,12.334.13906,18.76515.90383a60.70078,60.70078,0,0,0,19.078-1.175,74.51726,74.51726,0,0,0,9.96314-2.7115c.95947-.33375,1.96065-.63967,2.96179-.97338-.24333,1.23063-.56317,2.795-.584,2.934a8.59687,8.59687,0,0,0,.40326,4.53309c1.20279,3.21907,5.12409,3.0383,6.38947,0q1.32444-3.21207,2.62112-6.43119c15.14285,5.15889,31.61364,2.25961,47.06237.10431a101.46674,101.46674,0,0,1,16.03973-1.175,24.858,24.858,0,0,0,4.86684.30592c.66747.06951,1.34186.15294,2.00933.25028,6.53544.95251,17.63882,5.16581,21.99118-2.28044a4.06223,4.06223,0,0,0,.96642-.21553c.20857-.06259.41714-.1321.62571-.19469,2.28745-.63267,5.21448-.591,6.86921,1.10549C267.48948,309.21582,269.86726,307.46379,269.49184,305.45447Z"/>
        <path d="M128.29279,121.741c-5.13342-1.85236-10.38456-3.29763-15.603-4.89392a2.6643,2.6643,0,0,0-2.2016.21591,1.86387,1.86387,0,0,0-2.51974,1.68168,7.41934,7.41934,0,0,1-2.0899,4.096c-1.70319,1.4479.46713,3.6896,2.22591,2.88481a7.53959,7.53959,0,0,0,1.29606-.75595c2.49262-1.07926,5.121-.17054,7.8434.16041,3.43617.41773,6.98374,1.19477,10.45322,1.01217A2.25186,2.25186,0,0,0,128.29279,121.741Z"/>
        <path class="cls-6" d="M216.58542,83.99834a4.132,4.132,0,0,0-5.79776-.78612,4.3607,4.3607,0,0,0-1.75059,2.91681,7.42015,7.42015,0,0,0,.20845,1.75348q-.84163,3.86439-1.67464,7.73064a1.77513,1.77513,0,0,0-.42278.47562c-2.47043,4.12473-2.7516,9.73521-3.64882,14.39141-.86021,4.46413-1.76879,8.92342-2.56136,13.401a1.80289,1.80289,0,0,0-1.27943,1.71435,88.08562,88.08562,0,0,1-6.01608,27.46184,2.15474,2.15474,0,0,0,.38955,2.27615q-.58052,3.44588-1.4187,6.83411a1.9688,1.9688,0,0,0-1.77325,1.576c-3.56641,12.67374-5.55133,25.80333-8.17461,38.69986q-.71781,3.52895-1.43478,7.0552a110.71746,110.71746,0,0,0-3.379,12.38455c-1.385,5.47876-2.51622,11.1658-4.42539,16.48763-.306.85313.72976,1.448,1.4243,1.095a8.84409,8.84409,0,0,0,1.922-1.33235,2.08441,2.08441,0,0,0,.86233-.192q1.26893-.56473,2.53828-1.12862a1.532,1.532,0,0,0,.77075-1.11372,1.40359,1.40359,0,0,0,.97182-.87663c.97423-2.78334,2.307-6.45724,2.07047-9.67224a45.74512,45.74512,0,0,0,2.02935-5.786,87.9411,87.9411,0,0,0,2.32415-13.57393c6.49917-20.87725,11.63955-42.215,16.1535-63.575a2.64826,2.64826,0,0,0-.17929-1.629c2.07756-5.8471,3.8464-12.00738,3.97472-17.91139,1.077-3.6225,1.9068-7.35411,2.85111-10.98027a2.25785,2.25785,0,0,0,.0441-.992q.16129-.8539.3225-1.70782a3.593,3.593,0,0,0,.2-.38328,45.18787,45.18787,0,0,0,3.35622-14.64992q.19059-.61146.38044-1.22312C216.26078,90.11792,218.37865,86.56225,216.58542,83.99834Zm-39.914,148.69833c.36359-1.39315.75323-2.78245,1.15094-4.16776A30.55978,30.55978,0,0,1,176.67143,232.69667Z"/>
        <path class="cls-6" d="M171.447,266.85577l-2.34672-.94143a3.23193,3.23193,0,0,0-3.09512,3.29062l.05627.38043c-2.21272,9.30178-4.67648,18.52976-7.13176,27.77043-1.40245,5.2783-6.47319,16.31679.72154,19.56464,1.148.51818,2.83638.20025,3.12516-1.27141,3.02921-15.4388,6.94037-30.6378,10.24872-46.01384A2.33845,2.33845,0,0,0,171.447,266.85577Z"/>
        <path class="cls-7" d="M188.09524,237.67215a2.00017,2.00017,0,0,0-3.37155-1.39655c-1.83011,1.65405-3.62127,3.3432-6.04676,4.07848-1.87709.56906-3.86562.22872-5.77848.82265a16.28231,16.28231,0,0,0-7.757,6.02415c-4.17268,3.26664-3.15716,9.774.391,13.39018a17.54379,17.54379,0,0,0,16.86213,4.76432,4.32611,4.32611,0,0,0,3.06694-4.02823c.30087-2.671.634-5.32541.9307-7.983C188.31773,248.49232,188.27126,242.01738,188.09524,237.67215Z"/>
        <path d="M184.10019,268.1268a2.85644,2.85644,0,0,0-3.93369-2.04624,2.89381,2.89381,0,0,0-1.45435,1.23271,2.77169,2.77169,0,0,0-2.71468,2.61873c-.407,2.94991.18357,6.55595.66708,9.49113.66,4.00642,1.5242,7.97308,2.15509,11.98722.05687.36185.63649.34055.7102,0,.91016-4.20578,2.56854-8.39,3.20091-12.59558q.46092-3.06516.92085-6.13044C183.86089,271.29092,184.43428,269.55356,184.10019,268.1268Z"/>
        <path class="cls-8" d="M161.07443,181.4878a6.72986,6.72986,0,0,0-1.67527-1.67527,4.60623,4.60623,0,0,0-4.71382,0,27.391,27.391,0,0,0-3.46711,2.45209,5.08677,5.08677,0,0,0-2.21632-.04239,18.12732,18.12732,0,0,0-5.88016,2.766q-1.21757-1.35251-2.48774-2.64916a5.916,5.916,0,0,0-6.33681-1.50765,16.16832,16.16832,0,0,0-4.03417-4.62691,5.85007,5.85007,0,0,0,.11339-1.59371,4.78244,4.78244,0,0,0-.00751-2.75432,14.91666,14.91666,0,0,0-4.18894-7.1744c2.64814-4.21711,2.40864-9.79806,5.88058-13.69131,4.335-4.8609,12.88856-3.91009,18.60373-2.9247,4.02072.69327,8.11337-3.33076,5.633-7.32733-4.84223-7.802-13.55933-10.49-22.054-12.43123-10.70092-2.44543-21.10517-4.89587-32.01551-2.10425a5.16845,5.16845,0,0,0-2.94957,1.87013c-5.52531,1.46352-10.52884,3.97608-16.04719,6.08161-4.38563,1.67335-3.44572,7.32483,1.069,7.89864.55722.07083,1.0796.11611,1.58963.1481a4.68639,4.68639,0,0,0,4.76661,2.16608c1.10371,2.76684,4.05123,4.92014,7.2288,3.88132a15.09625,15.09625,0,0,1,3.688-1.00737,7.37108,7.37108,0,0,1,1.04294.16057q.10248.15009.23581.33685.34437.84609.6457,1.70867c.42015,1.18382.78221,2.375,1.08728,3.59514.80212,3.20812,2.168,10.03349-1.20088,12.46937a5.1867,5.1867,0,0,0-1.79969,6.86365,6.20964,6.20964,0,0,0,5.87032,3.37035,7.09129,7.09129,0,0,0,4.3829-1.83058c.63026-.54661,1.29777-2.20066,1.96689-2.46241,1.069-.41816,2.06466.22131,2.9345,1.26641a17.483,17.483,0,0,0,.93473,2.30577,6.14633,6.14633,0,0,0-.50253,6.54661,13.47557,13.47557,0,0,1,1.69013,4.11922,5.09246,5.09246,0,0,0-2.06178,1.97741,6.05109,6.05109,0,0,0-2.69686,1.42676c-.72467.65593-1.39031,1.34164-2.03066,2.04081a10.07316,10.07316,0,0,0-1.16053-.45427c-2.99314-.94495-3.94557.00369-5.89769-2.5264-2.4164-3.13182-3.19709-7.11249-6.75-9.37061-3.72316-2.36633-8.90216-2.27823-12.13159.95115a8.55523,8.55523,0,0,0-1.73255,2.48044c-3.30531-1.87153-7.46882-2.114-9.50713-5.7355-2.14919-3.8186-8.47653-1.26839-7.14813,3.0136A32.1,32.1,0,0,0,76.75457,194.178a38.94366,38.94366,0,0,0-2.28022,5.32107c-.49866,1.605-.92,3.10594-1.46653,4.61236-4.25832,2.08108-4.01262,8.44433.95518,9.16327a23.84107,23.84107,0,0,0,8.212,4.12176,21.92163,21.92163,0,0,0,5.32807,1.153,4.68932,4.68932,0,0,0,7.2656-2.0041c.7057-1.80983,1.41535-3.61533,1.99816-5.45907a18.305,18.305,0,0,1,1.21688-1.52059,6.94506,6.94506,0,0,0,2.8018-.328c.54152,2.72012,1.08342,5.43994,1.647,8.1556a4.95,4.95,0,0,0,4.75214,3.61809c4.91254-.28758,9.80158-.45321,14.72185-.5301a4.91763,4.91763,0,0,0,4.8334-4.83341q.08505-5.05666.36936-10.1086c.96876,1.49382,1.93922,2.98585,2.99357,4.42649a35.14345,35.14345,0,0,0,6.85168,7.42184c2.37783,1.72437,4.98651,1.151,7.45015-.07053,3.63358-1.80168,7.16922-3.82865,10.75337-5.72768a3.93421,3.93421,0,0,0,1.39277-5.31178c-2.1612-3.73229-3.82462-7.73494-6.03517-11.45072,4.025-2.1889,8.038-4.98876,10.55884-8.62531A4.54648,4.54648,0,0,0,161.07443,181.4878Z"/>
        <path class="cls-7" d="M114.7596,174.70287c-1.97953-1.37677-4.802-1.79438-7.05842-2.49593a41.87747,41.87747,0,0,0-8.82812-1.94261,11.20832,11.20832,0,0,0-1.00538-1.50676c-.89148-1.12352-2.22816-.09463-2.37384.99826l-.05368.00725a7.068,7.068,0,0,0,.15294,1.42384c.0036.0595.00836.11963.01137.17874a2.45354,2.45354,0,0,0-.10049,2.75555c.14178.2095.29713.40242.44358.60619l.00288.01269a29.35667,29.35667,0,0,0,1.39571,3.8514,33.78776,33.78776,0,0,0,4.03307,6.85741c2.89147,3.87844,7.59464,7.713,11.89161,3.08693C116.187,185.39632,119.15218,177.758,114.7596,174.70287Z"/>
        <path class="cls-9" d="M58.70866,166.00321c-3.25081,6.30367-10.88525,8.04212-17.19376,9.81491a1.60457,1.60457,0,0,0-1.02482.91109,32.3255,32.3255,0,0,0-12.18153,7.27616,37.30184,37.30184,0,0,0-5.184,6.227,33.65737,33.65737,0,0,0-2.35708,4.44495,25.8991,25.8991,0,0,0-2.06894,3.93882l-.01307.02181a1.82421,1.82421,0,0,0-.25237,1.53731q-.54945.89433-1.08715,1.7876a18.58151,18.58151,0,0,0-2.57533,4.30415l-.00641.01069c-.01158.01918-.01247.03764-.02257.05678-.02338.0586-.05266.11581-.07507.17462l.00475.002a.98654.98654,0,0,0,1.41824,1.09195,12.03906,12.03906,0,0,0,5.30588-5.909,1.80691,1.80691,0,0,0,.94835-.91767c.0945-.192.19444-.3747.29259-.5604,1.31584-1.28109,2.65358-2.5309,3.96844-3.73386,1.57589-1.44179,3.26253-2.828,4.92948-4.23617a2.16566,2.16566,0,0,0,1.33209-.36061c3.823-2.55335,7.796-4.87682,11.58188-7.48516,3.48184-2.39883,6.64876-5.09133,10.0012-7.6184a8.94381,8.94381,0,0,0,4.41563-1.69628c2.98742-2.2066,2.7774-4.94119,2.80426-8.28039A1.60073,1.60073,0,0,0,58.70866,166.00321Z"/>
        <path class="cls-9" d="M201.11377,114.82659a26.21734,26.21734,0,0,1-3.14778,2.12848,47.05736,47.05736,0,0,1-6.9865,3.39976,1.05181,1.05181,0,0,1-.7217.04095,15.68017,15.68017,0,0,1-2.118.68245,15.41584,15.41584,0,0,1-4.92031.37874,5.94826,5.94826,0,0,0-1.12479-.57186,14.09517,14.09517,0,0,0-3.12207-.25207,37.70119,37.70119,0,0,1-3.636-1.29853,2.47561,2.47561,0,0,0-2.583.55048,17.86175,17.86175,0,0,0-6.73745-.35871c-2.26843.34623-2.179,3.46766-.59023,4.51611,2.21335,1.46072,4.16763,3.54256,6.28253,5.175,1.95832,1.5116,3.901,3.0411,5.91148,4.48293,1.62019,1.162,3.40681,2.82408,5.42619,3.285,2.15271.49136,4.45865-.38116,6.50939-.94691,2.62357-.72378,7.28291-1.24149,8.037-4.54387a16.33915,16.33915,0,0,0-.04715-1.89928,29.438,29.438,0,0,1,1.27273-3.72762,27.02974,27.02974,0,0,1,3.27589-8.04263A2.11077,2.11077,0,0,0,201.11377,114.82659Z"/>
        <g>
          <path class="cls-10" d="M117.43664,258.41187a.30449.30449,0,0,0-.02817-.02958c-.04923.02109-.03124.08979-.06018.11364A.96323.96323,0,0,0,117.43664,258.41187Z"/>
          <path class="cls-10" d="M119.36818,252.13421a2.85428,2.85428,0,0,0-2.928,1.04982,5.35242,5.35242,0,0,0-3.36064,1.593c-4.0845,4.22687.50218,10.66094,5.82165,9.46413a6.44821,6.44821,0,0,0,4.80539-5.85843C123.87118,255.67435,122.16307,252.65388,119.36818,252.13421Z"/>
        </g>
        <path class="cls-11" d="M154.56576,212.532c-2.86083,1.54466-5.447,4.23672-7.90408,6.3652a68.39278,68.39278,0,0,0-7.55692,8.24993c-4.34344,5.24023-9.01266,10.69044-11.52815,17.0738a1.04584,1.04584,0,0,0-.0323.11224,2.52128,2.52128,0,0,0-1.40593-.04719,3.05614,3.05614,0,0,0-1.71685,1.23449,2.30511,2.30511,0,0,0-.49506.9537c-.00746.02092-.01744.041-.02457.062a3.48722,3.48722,0,0,0,.02547,2.22994,2.40549,2.40549,0,0,0-2.434.61281,8.88936,8.88936,0,0,0-2.08-.61009,16.47872,16.47872,0,0,0-5.62652.032,1.71123,1.71123,0,0,0-.57178-1.46012c-1.019-.82767-2.23444-2.21314-3.63617-2.29386-.05652-.05474-.10833-.11449-.16647-.16745a2.20343,2.20343,0,0,0-1.04035-.53863,1.76019,1.76019,0,0,0-.39461-.85427c-1.66682-2.001-3.29974-3.96233-5.08547-5.818-3.55529-5.48611-5.47142-12.00123-9.11671-17.54144-1.04939-1.5949-4.04869-.61684-3.2762,1.38119a38.64189,38.64189,0,0,0,3.26389,6.39991c1.39829,2.2972,2.42888,4.78906,3.84376,7.07353a62.33067,62.33067,0,0,0,8.00949,10.86608,1.881,1.881,0,0,0,.36643.29,1.24694,1.24694,0,0,0,.00064.16206,14.26857,14.26857,0,0,0,1.38234,4.33386,1.70243,1.70243,0,0,0,1.02146.86517,8.38028,8.38028,0,0,0-1.55356,2.17423,2.58769,2.58769,0,0,0-.155.38892c-2.20465,3.63893-1.67315,8.31108-.4056,13.01628a3.3374,3.3374,0,0,0,3.62009,2.37223,11.15661,11.15661,0,0,0,1.84463,1.18128c4.01762,2.04565,9.432.65436,13.06746-1.52029,3.558-2.12831,6.08924-5.56453,5.48814-9.91951a17.19641,17.19641,0,0,0-3.04449-7.8762,1.85842,1.85842,0,0,0,.28933.02546,2.76524,2.76524,0,0,0,1.84038-.76231,3.67968,3.67968,0,0,0,.14836-5.13521c-.02674-.02847-.05738-.05113-.085-.07829.01341-.01231.02834-.02152.04124-.03471,4.89154-5.00765,8.52368-11.17773,12.99422-16.56369,1.94847-2.34748,4.10135-4.54352,5.98621-6.93892,2.20109-2.79718,4.98371-5.53779,6.82685-8.57155A.53374.53374,0,0,0,154.56576,212.532ZM121.55331,263.747c-2.15275.90209-7.52513,1.18794-9.17477-1.21943-.16354-.68856-.34924-1.37771-.58225-2.08952a3.02916,3.02916,0,0,0-1.39036-1.72543,12.35727,12.35727,0,0,1,1.17262-3.66825c1.96438-1.59346,4.20162-2.98916,6.83165-2.261a8.1884,8.1884,0,0,1,5.00722,3.7976c.27129.64561.46827,1.28745.71622,1.99935a1.81215,1.81215,0,0,0,.49.95942C124.1614,261.324,123.34625,262.99571,121.55331,263.747Z"/>
        <path class="cls-12" d="M79.11051,232.23035c-2.14-3.685-7.08877-6.09212-10.17884-9.00753a48.45392,48.45392,0,0,1-5.22589-5.53872c-2.01437-2.62073-2.42765-4.246-1.5275-7.41913,2.64772-9.3336,4.21134-18.26526,1.76069-27.83328-.30558-1.193-1.992-.66585-1.807.4982a40.2748,40.2748,0,0,1-1.10689,18.37228c-1.567,4.87414-6.10078,9.05047-4.77921,14.57557,1.12288,4.6946,5.77755,7.87879,9.41614,10.61758,3.42056,2.57473,8.39192,6.7988,12.92085,6.65452A.61739.61739,0,0,0,79.11051,232.23035Z"/>
        <path class="cls-12" d="M70.46542,238.55867c-3.16357,6.48941-5.18664,13.22991-7.62184,20.00571-.8827,2.45608-2.95283,5.36062-2.22956,8.05278a7.17465,7.17465,0,0,0,3.56157,4.412c.85282.45852,1.97529-.5001,1.39341-1.39345-.91839-1.41005.25962-4.91518.56117-6.63645a69.41293,69.41293,0,0,1,2.13247-7.88129,120.53174,120.53174,0,0,0,3.7664-15.90011C72.167,238.344,70.92763,237.61045,70.46542,238.55867Z"/>
        <path class="cls-12" d="M96.76164,279.40433c-.81807-3.31727-2.60842-6.4987-3.91119-9.65828-1.24914-3.02955-2.551-6.03356-3.721-9.09562-2.407-6.29955-4.448-12.7517-6.55408-19.15615-.50044-1.52178-3.13641-1.37937-2.96077.40067A124.18584,124.18584,0,0,0,83.48692,262.206c1.7315,6.407,3.51112,14.18508,7.29938,19.71744C92.83793,284.91972,97.68118,283.13327,96.76164,279.40433Z"/>
        <path class="cls-12" d="M94.49206,293.96107c-.71083-2.52212-1.53336-4.70067-.40865-7.29123a1.14626,1.14626,0,0,0-1.7915-1.38229,9.03147,9.03147,0,0,0-3.13407,5.63407c-.30181,2.06428-.10291,5.12171,1.92165,6.28029a1.392,1.392,0,0,0-.1877.13927,7.02734,7.02734,0,0,0-2.42748,5.62313c.09192,1.80262,1.42308,4.48314,3.339,4.98307,1.574.41074,2.4826-.80559,1.67645-2.18076-.57334-.978-1.42468-1.57783-1.80851-2.70611a4.365,4.365,0,0,1,.71851-4.2214,1.11382,1.11382,0,0,0,.13856-1.22766C94.21173,297.59936,94.96378,295.63476,94.49206,293.96107Z"/>
        <path class="cls-12" d="M176.84359,197.31145c-6.28754,6.02278-11.31123,13.55844-16.44308,20.54786-5.38354,7.33214-10.70987,14.55979-15.08493,22.55116-.77878,1.42253,1.13082,3.029,2.30336,1.77724,6.04892-6.45766,11.14208-13.5272,16.27792-20.71624,5.19606-7.27324,10.984-14.58661,14.86617-22.679A1.22778,1.22778,0,0,0,176.84359,197.31145Z"/>
        <path class="cls-13" d="M112.8671,249.961a9.33566,9.33566,0,0,0-4.87571,3.998c-.77432,1.30349-1.613,4.12812-.36541,5.35268a.50235.50235,0,0,0,.69132,0c.51911-.4266.56477-.98132.838-1.57635.3369-.73379.79248-1.43589,1.18777-2.13994a9.37183,9.37183,0,0,1,3.43443-3.47512C114.89777,251.47209,114.14806,249.46273,112.8671,249.961Z"/>
        <path class="cls-13" d="M104.56052,242.67848a40.04149,40.04149,0,0,0-3.62424-5.23247,41.91325,41.91325,0,0,1-3.3056-5.43242.16368.16368,0,0,0-.29786.12557c1.24616,3.859,2.9536,8.7067,6.268,11.27986A.61409.61409,0,0,0,104.56052,242.67848Z"/>
        <path class="cls-13" d="M144.64035,224.85616a.66588.66588,0,0,0-.82508-.62855c-2.43185.43543-3.781,3.63978-5.1588,5.493a41.34,41.34,0,0,0-5.09531,8.68646.28658.28658,0,0,0,.44786.34555,39.3955,39.3955,0,0,0,6.4031-6.77792C141.85344,230.0664,144.92433,227.363,144.64035,224.85616Z"/>
        <path class="cls-12" d="M195.81014,237.28094c-.17772-4.81528-.94368-9.28654-5.99716-11.00106-2.20652-.74865-3.09983,2.3042-1.47539,3.49957,2.084,1.53353,1.73158,5.30384,1.78195,7.50149.05949,2.597.10464,5.18935.05372,7.7873-.10571,5.39045-.40254,10.80331-.94814,16.16707-.5489,5.39632-1.39124,10.77786-2.30832,16.12325-.84973,4.95273-2.13365,9.89392-2.7698,14.86787-.06306.49319.69365.64808.911.24672,2.86508-5.29107,4.65089-11.48228,6.2656-17.26624a131.50117,131.50117,0,0,0,3.5261-18.48482A118.05461,118.05461,0,0,0,195.81014,237.28094Z"/>
        <path class="cls-12" d="M205.152,221.49684c-1.47693-2.44556-5.04627-.30091-3.799,2.22061a56.05041,56.05041,0,0,1,2.83456,7.66593c.72777,2.23016,1.04812,4.64215,2.084,6.74462.61,1.238,2.37414.78225,2.755-.36007C210.79751,232.456,207.85261,225.96865,205.152,221.49684Z"/>
        <path class="cls-13" d="M210.92919,87.05374c-3.53352,9.34379-5.22407,19.08838-7.44035,28.80352-2.20719,9.67538-4.34289,19.3682-6.58174,29.0362-2.18017,9.41474-4.56628,18.91384-5.93525,28.49289-.72284,5.05793-2.05447,9.92036-3.25119,14.884-1.19044,4.93754-1.86844,9.99861-2.94766,14.96645-.25542,1.17568,1.55072,1.67794,1.807.49815,4.2632-19.62421,9.30755-39.03417,13.61412-58.65266q3.1924-14.5431,6.46081-29.06963c2.14634-9.5948,4.767-18.95768,5.63458-28.77479C212.363,86.40626,211.18562,86.37566,210.92919,87.05374Z"/>
        <path class="cls-12" d="M87.73773,109.88786c-4.01274,2.37482-8.26088,3.96454-11.99117,6.76626q-5.09487,3.82651-9.92413,7.98954a166.2019,166.2019,0,0,0-18.94894,19.31006C35.50934,157.589,26.13067,172.529,20.3364,189.35339a.982.982,0,0,0,1.787.75336c8.05859-15.22425,17.17145-30.17491,28.40344-43.27866A193.40516,193.40516,0,0,1,68.2954,128.67648c3.28366-2.94167,6.67311-5.77047,10.17578-8.44815,3.61576-2.76412,6.45817-6.088,10.21235-8.72236C89.6556,110.82386,88.79281,109.26346,87.73773,109.88786Z"/>
        <path class="cls-12" d="M203.66546,82.14153c-24.50035-.20954-49.83239,1.93982-73.06974,10.10135a1.10093,1.10093,0,0,0,.58481,2.12131c24.05223-4.55121,47.914-8.46279,72.48493-7.82294C206.49434,86.61491,206.50176,82.16581,203.66546,82.14153Z"/>
        <path class="cls-14" d="M180.9098,241.64738c-5.72747.59677-12.09178,2.65774-14.76212,8.1643a10.244,10.244,0,0,0-.76091,7.06525c.75081,2.75992,2.4464,3.5477,4.80336,4.51467.85579.35112,1.47556-.91541.872-1.49793-2.89579-2.7948-1.988-7.759.3641-10.39126a28.54677,28.54677,0,0,1,4.063-3.72037c1.73786-1.29784,3.864-1.90607,5.729-2.99594C181.70823,242.49979,181.53691,241.58208,180.9098,241.64738Z"/>
        <path class="cls-14" d="M83.09359,195.90539c-.224-4.75333-6.12183-7.18654-9.512-9.45162-.53715-.35892-1.168.459-.69115.89573,2.02468,1.85435,6.79163,4.72613,6.7141,7.56528-.09272,3.397-4.10712,6.76489-5.54941,9.87788-1.44,3.108-.55884,9.576,4.19788,7.5208a1.46988,1.46988,0,0,0,.52612-2.00656c-1.95314-2.72326.36677-5.10758,1.75157-7.70455C81.63377,200.5337,83.20889,198.35269,83.09359,195.90539Z"/>
        <path class="cls-14" d="M111.45294,216.96435c-2.89092-1.034-2.91977-4.48565-3.36687-7.06585a53.078,53.078,0,0,0-1.90353-7.56256.9824.9824,0,0,0-1.92051.25992c.05322,3.51832.29658,18.99124,7.19091,16.09693A.90551.90551,0,0,0,111.45294,216.96435Z"/>
        <path class="cls-14" d="M142.14013,211.24786c-3.06011.815-4.29532-2.18432-5.56932-4.36941a49.93784,49.93784,0,0,0-4.31123-6.29938,1.10742,1.10742,0,0,0-1.83839,1.07018,42.70647,42.70647,0,0,0,5.43348,10.38876,6.87854,6.87854,0,0,0,7.237,2.66151C145.3309,214.2312,144.38472,210.65,142.14013,211.24786Z"/>
        <path class="cls-14" d="M107.17464,128.23982c-6.31284.65214-12.60284,2.45039-17.73338,6.24115-1.48745,1.099-.10248,3.61228,1.48045,2.53268,5.19266-3.54149,10.245-6.64866,16.28543-8.53378C107.33207,128.44087,107.31781,128.225,107.17464,128.23982Z"/>
        <path class="cls-14" d="M110.066,186.21783c-2.51112-2.5923-5.53461-4.36984-7.74317-7.32161a41.58861,41.58861,0,0,1-4.85606-8.67959c-.34912-.8252-1.62736-.22626-1.41471.59643a27.69893,27.69893,0,0,0,4.88178,10.04572c2.03575,2.6812,4.53813,5.85385,7.70051,7.2145C109.80127,188.57538,111.06809,187.25232,110.066,186.21783Z"/>
        <path class="cls-15" d="M160.58061,183.37953c.76744-1.36948-1.13-2.9735-2.23941-1.72784a99.514,99.514,0,0,1-13.41479,12.24209,2.6015,2.6015,0,0,0-.40768,3.15949c2.32287,3.40155,8.46911,10.0845,6.33053,14.59136a.90412.90412,0,0,0,1.22621,1.22626,8.52731,8.52731,0,0,0,4.85127-9.32083c-.5478-3.46452-2.951-6.12667-5.74271-8.13709A46.13659,46.13659,0,0,0,160.58061,183.37953Z"/>
        <path class="cls-15" d="M125.90639,202.00791a18.68,18.68,0,0,0-4.88993,8.91664c-.863,3.89719-1.30693,7.04077-4.21584,9.98155a1.7862,1.7862,0,0,0,1.24646,3.00923c3.73012.44735,6.71474-2.63652,7.93022-5.94793a19.82674,19.82674,0,0,0,1.0423-6.23038c.07358-2.74787-.50732-5.58863,1.19014-7.95191C129.18776,202.42353,127.03717,200.81437,125.90639,202.00791Z"/>
        <path class="cls-15" d="M107.511,251.26446c-.10613-.25563-.22211-.50469-.34347-.75018-.40344-2.82964-2.72542-5.81438-4.69477-8.26478a37.87,37.87,0,0,0-1.963-3.66651c-2.7968-4.44669-5.99971-8.6279-9.11931-12.84956a1.90038,1.90038,0,0,0-1.3416-.80228,46.10562,46.10562,0,0,0-5.67808-4.70538,12.55288,12.55288,0,0,0,8.46338-2.72843,11.607,11.607,0,0,0,3.40681-5.55786c.80793-2.59409,1.08507-6.233,4.18278-7.148,2.0793-.61421,1.79146-4.09248-.53066-3.921-4.559.33664-6.50719,3.62149-8.38385,7.36366a24.931,24.931,0,0,1-3.90076,5.83641c-1.71528,1.87574-3.77667,2.35148-5.89259,3.65684a.97911.97911,0,0,0-.4045.50235,63.02494,63.02494,0,0,0-6.43246-3.38028c-.769-.35137-1.76009.64315-.98734,1.27964,6.90956,5.69132,13.01289,12.91465,18.45486,19.997a2.8266,2.8266,0,0,0,.68278.62842q1.92291,2.69343,3.8913,5.35392a17.40759,17.40759,0,0,0,2.41364,2.70917,2.705,2.705,0,0,1-1.93624.24086,1.61924,1.61924,0,0,0-1.10625.10155c-3.23647-1.39812-6.52451-2.64068-9.8329-3.89588a1.634,1.634,0,0,0-.94844-.07494,4.76594,4.76594,0,0,0-.88138-.13681,1.31412,1.31412,0,0,0-1.30362,1.30362c.148,3.75745,5.17581,7.31227,7.90951,9.48145a21.15622,21.15622,0,0,0,12.78132,4.8003,2.38952,2.38952,0,0,0,2.28044-2.99361,8.7365,8.7365,0,0,0-.44625-1.36859,1.31643,1.31643,0,0,0,1.05834-.36745C107.26464,251.95306,107.67614,251.6622,107.511,251.26446Z"/>
        <path class="cls-15" d="M151.7979,136.42787a47.74928,47.74928,0,0,0-10.02182-6.333,61.97775,61.97775,0,0,0-22.42776-5.02648,1.35035,1.35035,0,0,0-.35739,2.64067,58.11222,58.11222,0,0,1,19.83215,8.52139,78.71811,78.71811,0,0,1,8.54472,6.16694c2.40478,2.0877,4.70462,5.669,8.15984,5.54946a2.97969,2.97969,0,0,0,2.89241-2.8924C158.80922,141.35048,154.38893,138.46936,151.7979,136.42787Z"/>
        <path class="cls-15" d="M141.0366,125.73922c-2.34792-4.16169-7.10358-7.36362-10.98439-10.008-3.99191-2.72008-8.39009-5.46578-13.11694-6.65775-4.63634-1.16918-9.05761-.83955-12.27549,2.9693-1.95326,2.312-3.2742,4.64142-3.0203,7.32971-3.92576,2.52644-7.79961,5.13818-11.73452,7.66971a2.07922,2.07922,0,0,0,2.09724,3.588c4.72617-2.55419,9.513-4.98036,14.20792-7.56421a2.808,2.808,0,0,0,1.00135-3.81894c-2.81861-3.94018,3.28557-3.125,5.1801-2.70123a88.93978,88.93978,0,0,1,9.41589,2.81445,48.79945,48.79945,0,0,1,8.46711,3.89812c2.75076,1.58476,5.22835,3.81029,8.08664,5.1563A1.972,1.972,0,0,0,141.0366,125.73922Z"/>
        <path class="cls-15" d="M196.52637,131.27883c-1.71924-.8179-3.38037-1.75623-5.03464-2.71553a40.20219,40.20219,0,0,0-13.0936-14.75835c-5.41727-3.89193-10.97654-7.65239-16.59254-11.25024-9.95846-6.37984-23.12938-16.248-35.58908-11.43781-2.599,1.00334-2.5783,5.80382.7256,5.36138,5.793-.77572,10.19008,4.22756,14.07968,7.83788a157.66164,157.66164,0,0,0,15.18384,11.82092c2.82685,2.043,5.70245,4.01805,8.56413,6.0126a2.66731,2.66731,0,0,0,.18535.88873c1.323,3.35813,3.76722,9.28718,7.38756,11.4098a43.647,43.647,0,0,1,10.89408,25.99544c.80517,11.90974-1.831,24.45465-4.49871,36.0137-2.62383,11.369-6.67226,21.8587-13.60173,31.32508-3.39535,4.63841-7.43207,8.7292-11.23246,13.02541-1.737,1.96362-3.22306,4.10954-5.00022,6.036a53.55788,53.55788,0,0,0-5.34959,6.07922,1.04218,1.04218,0,0,0-.1677.41693c-1.44324,1.0367-2.83792,2.12712-4.22416,3.24-.26883.11958-.53851.23717-.80768.3559a12.09434,12.09434,0,0,0-1.77673-3.57256,7.41831,7.41831,0,0,0-1.77923-7.30841c3.81783-5.50626,6.71283-11.52132,10.97543-16.78545,2.48222-3.06541,5.05814-6.06815,7.69241-9.00367,2.53242-2.822,5.73567-5.59915,7.56235-8.9381a1.72414,1.72414,0,0,0-2.341-2.341c-3.259,1.997-5.75981,5.41448-8.15933,8.34108q-3.92085,4.78209-7.5138,9.81262c-4.1448,5.84074-8.88043,10.8867-12.1722,17.121a3.58756,3.58756,0,0,0-1.96535,1.35084,1.85126,1.85126,0,0,0-1.569,1.419,5.20716,5.20716,0,0,0-.11844.73414c-.0042.044-.00857.07863-.01222.10541-.01677.06658-.035.13269-.05385.19864a1.93363,1.93363,0,0,1-.10121.22665c-.01129.01947-.08127.119-.12222.18081-.053.05177-.14381.14666-.15845.16105l-.01774.0188-.02372.01273a4.66893,4.66893,0,0,1-.43246.22541,1.80718,1.80718,0,0,0-.97305,1.40632,11.59238,11.59238,0,0,0-6.445-1.93264.89678.89678,0,0,0,0,1.79247c4.0416.04719,6.88117,2.155,7.80919,6.11334.69938,2.98326.98416,7.2516-.90031,9.78313-2.26169,3.03821-6.03972,3.57392-9.53518,3.78631a13.1179,13.1179,0,0,1-6.23466-.75646,13.97192,13.97192,0,0,0-3.26626-1.2992.24772.24772,0,0,0-.276.359c1.68477,2.71961,6.63207,4.33572,10.10563,4.28518a1.36835,1.36835,0,0,0,1.27239,1.30184c.66042.01561,1.3228.00823,1.98369-.01447a1.08385,1.08385,0,0,0,.80173.98947c2.89673.8939,6.66369-.40738,9.30237-1.68724,3.22417-1.56379,6.09119-3.7067,7.6942-6.93434a3.54883,3.54883,0,0,0,1.77783-.23323c4.91683-1.93018,12.086-4.51365,15.70708-9.04364.37318,3.78419.94308,7.53506.31169,10.07415-2.08745,8.39476-5.41927,16.74746-10.73436,23.647-5.24214,6.80483-12.32637,11.07143-19.13459,16.0615a6.70108,6.70108,0,0,1-2.04136,1.22872c-1.0303.2729-2.78428-.29641-3.9073-.38514-3.04742-.24074-6.11826-.4572-9.172-.59813a49.6859,49.6859,0,0,0-7.87777.69751c-2.828.30821-5.833-.098-8.52513.874a2.57972,2.57972,0,0,0,.68228,5.04134c3.05175.27447,6.05894-.9085,9.15465-.78009,3.07433.12751,6.09323.40878,9.19149.4771a41.442,41.442,0,0,1,8.29559.86789c2.70734.62236,3.85637,1.99438,6.92374,1.57414a30.63176,30.63176,0,0,0,12.81535-5.13737,3.08651,3.08651,0,0,0,1.1957-.24731c.08343-.03492.162-.07222.24456-.10753a4.34419,4.34419,0,0,0,1.00381-.12625,4.18067,4.18067,0,0,0,1.75789-.10766c1.03254-.27417,2.06636-.54465,3.098-.82269a10.437,10.437,0,0,1,3.55049.93952,3.71039,3.71039,0,0,0,4.552-2.58453c.94738-5.14068,2.76251-10.04835,3.85862-15.15436a36.81874,36.81874,0,0,0,.763-5.49192,39.69482,39.69482,0,0,0,3.16035-10.01482,40.09857,40.09857,0,0,0,.34737-10.13008c.01456-.01213.03068-.02189.04494-.03441a1.88872,1.88872,0,0,0,.86743-2.10747,1.576,1.576,0,0,0-1.27523-1.09633c-.11008-.80156-.22949-1.60792-.36563-2.42692-.47226-2.8414-1.6821-5.76881-1.56523-8.67921a18.02688,18.02688,0,0,1,1.88982-6.147,2.02513,2.02513,0,0,0,.12472-1.33256,3.28156,3.28156,0,0,0,1.03513-.27384c1.87972-.83925,3.78809-1.6285,5.60552-2.59608a2.5847,2.5847,0,0,0,1.29649-2.26028c-.01452-.37878-.02194-.757-.03064-1.13528a23.70454,23.70454,0,0,0,2.24781-4.303c1.13918-2.81475-2.13913-4.684-4.46065-3.88824.17067-.25538.34568-.51.51355-.76575q.61674-.93977,1.20143-1.90331a1.52084,1.52084,0,0,0,2.35628-.25763c.03518-.053.06268-.1077.09684-.16092a1.45472,1.45472,0,0,0,1.01883-1.19006l.52476-2.50815a1.78514,1.78514,0,0,0,.03293-.53337c.19028-1.297.32913-2.60062.43988-3.92749a145.39589,145.39589,0,0,0,7.83275-23.68432c2.57987-10.17179,5.70439-20.9737,5.60942-31.64a2.69148,2.69148,0,0,0,.35273-.51767c3.82462-7.36528,2.55024-15.90267-3.699-21.482a1.8816,1.8816,0,0,0-2.48655-.09594,45.33708,45.33708,0,0,0-3.63133-5.47588,23.03632,23.03632,0,0,0,5.7882.83988c3.57914.04961,6.64854-1.36285,10.08076-2.11078A2.00755,2.00755,0,0,0,196.52637,131.27883ZM166.54619,235.76765q-.506.36747-1.01119.73566c.72989-.91839,1.43635-1.85443,2.12627-2.79943A10.62522,10.62522,0,0,1,166.54619,235.76765Z"/>
        <path class="cls-15" d="M268.42072,302.86773a11.13124,11.13124,0,0,0-4.19984-2.76985,18.79716,18.79716,0,0,0-5.70893-1.42643c-2.24866.0533-4.62742,1.61047-6.7,2.339a27.01728,27.01728,0,0,1-7.83236,1.21608c-6.98709.46874-11.92149-7.84854-18.873-7.61968-3.17948-6.29166-8.45183-13.08062-15.29464-14.443a7.16211,7.16211,0,0,0-4.90215.67906c1.31325-2.52288,3.024-4.94433,5.65652-5.49574,2.25443-.47222,4.11234-.18727,6.16732-1.523a10.49266,10.49266,0,0,0,3.74044-4.71416c2.18492-4.8887,3.0192-10.62729,3.83651-15.88361a105.41615,105.41615,0,0,0,1.57707-15.98758c.00013-8.42841-2.88451-17.87858-10.35728-22.515a37.93422,37.93422,0,0,0-5.23161-6.90269c-2.61187-2.93764-6.87133-3.54332-10.57769-2.50828a10.338,10.338,0,0,0-2.9993,1.39758q.72419-1.85085,1.31635-3.74528c2.43936-4.01232,5.27745-7.85027,7.43109-11.91309,3.11723-5.88054,5.15736-17.517-.72182-22.43832-.01982-.01659-.04155-.02869-.06158-.04477.13083-2.2181.21621-4.43888.27876-6.65032.07944-2.80728-3.02137-3.37787-4.6573-1.92691,1.94172-8.21713,3.743-16.46939,5.71055-24.61018,2.11664-8.75745,4.57268-17.464,6.49386-26.2596.94092-4.30788,1.93209-8.62119,2.818-12.94087.81438-3.971,1.78467-8.3525,1.34508-12.41209-.09582-.88482-1.45617-1.24769-1.68044-.22745-.91385,4.15711-1.25351,8.44347-2.13854,12.62456-.92607,4.3751-2.177,8.54044-3.333,12.85108-2.33217,8.69678-4.19106,17.55018-6.35888,26.29682-4.13266,16.67435-9.09825,33.43349-11.91245,50.40052-3.07661,7.4857-4.11246,16.22186-5.88822,24.00474l-6.30231,27.62259c-.39643,1.73752,2.28918,2.4773,2.67123.73642q1.54818-7.05417,3.09639-14.10832a2.5937,2.5937,0,0,0,2.26232.42614,37.95784,37.95784,0,0,0,5.37637-1.804,2.73006,2.73006,0,0,0,1.12136.678,2.466,2.466,0,0,0,2.42447-.64086c.26653-.25877.54538-.49259.82736-.71919a1.20655,1.20655,0,0,0-.09781.61064c.63415,6.9576.41646,14.17431.52968,21.17074a134.07916,134.07916,0,0,1-1.255,21.31858c-.5167,3.57319-1.55713,7.021-1.91189,10.63259-.33948,3.4565-.28631,6.93019-.70732,10.38575-.42062,3.45273-.20967,7.65558-2.92872,10.19568a17.52249,17.52249,0,0,1-5.18634,3.4568,3.8532,3.8532,0,0,0-1.32739-1.20012,5.37053,5.37053,0,0,1-1.82735-1.19719c-.53372-.68741-.8589-2.93-1.07163-3.76768-.64082-2.52381-1.1368-5.08772-1.58488-7.652-.57114-3.26851-1.11147-6.4216-1.44175-9.62493-.00874-1.12585-.05461-2.24365-.1189-3.36428a3.29288,3.29288,0,0,0-.138-4.42127c5.30159-1.40606,8.6745-5.58456,9.8845-11.42606,1.47417-7.11652,1.55123-14.73619-.78145-21.675a1.269,1.269,0,0,0-2.48065.33575c-.19605,5.4592-.62053,10.87605-2.35284,16.09994a21.99225,21.99225,0,0,1-5.14628,8.59014c-.49662.20313-.98705.42439-1.47035.61136a18.65117,18.65117,0,0,1-5.86008,1.30069,1.932,1.932,0,0,0-1.86538,1.80767,1.99292,1.99292,0,0,0-1.4709,2.307,11.5891,11.5891,0,0,0,.79872,3.54892,8.471,8.471,0,0,0,2.57,2.72712c.2081.149.43369.29.66679.42571-1.76736,6.46573-3.12271,13.04463-4.89893,19.51206-2.0588,7.49623-4.678,15.31956-5.83356,22.99134-.22334,1.48266,1.91371,2.77966,2.68052,1.13006a63.30241,63.30241,0,0,0,2.93149-7.73205c.2544,2.59791,3.93339,3.403,5.49433,1.14886a4.47748,4.47748,0,0,0,1.3674,1.1901c1.998,1.17,4.67746.7599,6.89692.74254,4.68114-.03662,10.04359.2283,14.5617-1.17652a11.89915,11.89915,0,0,0,2.31787-1.00038,3.564,3.564,0,0,0,3.23995.19724c1.27773-.4589,2.55415-.81756,3.83-1.19019a68.50878,68.50878,0,0,1,16.024-1.45944,78.59439,78.59439,0,0,1,10.19254.19907c2.10425.274,4.20383.89509,6.31559,1.23742a20.32241,20.32241,0,0,0,5.42063,2.29915,13.30686,13.30686,0,0,0,6.29433.22092c1.97873-.55225,3.98907-2.13951,5.81884-3.11086a24.53074,24.53074,0,0,1,2.99841-1.564c1.166-.42249,2.43355-.31844,3.59569-.67426,2.22112-.68016,3.17719-1.64047,5.37322.3346a2.48154,2.48154,0,0,0,2.43169.64273,3.02053,3.02053,0,0,0,1.49368-1.14856A2.50861,2.50861,0,0,0,268.42072,302.86773ZM193.72431,193.46212c-1.90434,6.05075-4.06745,12.02143-5.25114,18.27549a2.46123,2.46123,0,0,0,1.44357,2.99573,15.73471,15.73471,0,0,1-3.917,3.90038q.90426-4.12022,1.80856-8.24038l2.964-13.50485c.63322-2.88506,1.337-5.77941,1.72649-8.70971,2.45035-7.23551,4.48844-14.64055,6.3399-22.10746-.41561,3.0602-.91232,6.10329-1.38289,9.16391-.021.13672-.03929.27392-.05962.41073A81.03911,81.03911,0,0,0,193.72431,193.46212ZM172.69353,284.6968a1.18534,1.18534,0,0,0-1.23793.70337,60.67852,60.67852,0,0,0-2.1267,6.10927c1.18246-5.78672,2.35924-11.641,2.99493-17.51661a8.263,8.263,0,0,0,1.328.28253A63.06861,63.06861,0,0,0,172.69353,284.6968Zm1.10654,13.36375c.0853-.62126.163-1.24332.223-1.8661.13494.60343.28966,1.22244.46026,1.84157A2.79763,2.79763,0,0,0,173.80007,298.06055Zm18.12624,3.88221a4.0641,4.0641,0,0,1-1.71087.80369,9.515,9.515,0,0,0,2.96459-3.2077A4.74753,4.74753,0,0,1,191.92631,301.94276Zm10.72795-63.88758c-.07727-1.22295-.18552-2.44357-.34224-3.65964a98.5808,98.5808,0,0,0-2.81177-12.24808,1.372,1.372,0,0,0-1.64922-.96239c4.98015-3.17655,11.69293-1.97919,15.86019,2.40041,5.83,6.127,5.927,16.03569,4.57849,23.87654a73.5474,73.5474,0,0,1-3.39369,12.78951c-1.22338,3.34434-2.164,6.6788-5.59109,8.19443a25.99571,25.99571,0,0,0-4.81219,2.483A156.05653,156.05653,0,0,0,202.65426,238.05518Z"/>
        <path class="cls-15" d="M80.24731,290.21834c.20526-.29943.4931-.64672.76172-.97126a1.82328,1.82328,0,0,0,1.98853.35972c2.88048-.9332,3.63477-6.16974,3.22815-8.60384-.74949-4.48624-3.82666-7.003-6.6395-10.20765a1.44144,1.44144,0,0,0-.52836-.381,9.58611,9.58611,0,0,0,.27116-1.70273,13.92088,13.92088,0,0,0-2.23822-8.13348.8185.8185,0,0,0-1.48915.62779,10.36778,10.36778,0,0,1-2.16853,10.37128c-1.50269,1.71515-2.51558,3.26138-2.29161,5.64668.28538,3.03961,2.25613,4.41023,3.81152,6.73133,1.75564,2.62-.60781,3.475-.95306,6.14368-.27931,2.1587.745,3.49665,2.39837,4.67831,1.78182,1.27344,2.26627,1.76077,2.32313,4.13945.04248,1.77605.06794,3.18988-1.55059,4.03286-2.00839,1.046-4.93975-1.15433-6.817-2.01013a30.41356,30.41356,0,0,1-5.99958-3.705.36767.36767,0,0,0-.50167.13155c-1.2521,2.62778,2.20495,4.30683,4.05136,5.33949a34.04613,34.04613,0,0,1,6.86241,4.43426c1.38607,1.29721,2.74783,2.00465,4.757,1.4821,4.01983-1.04557,4.66867-5.56783,4.92218-9.09478a11.36531,11.36531,0,0,0-1.10659-6.3629A8.1158,8.1158,0,0,0,80.24731,290.21834Z"/>
        <path class="cls-15" d="M133.21077,225.46987c-4.55036,1.22154-9.05654,4.99084-12.35879,8.28039a23.80883,23.80883,0,0,0-2.66194,3.16018l.00717-.0345c.55133-2.21123-2.36293-4.21979-4.02182-2.34121q-.38.43035-.76.86063c-2.39969-3.42582-6.27842-7.47153-8.8066-3.31137a3.80551,3.80551,0,0,0-.25389.50053c-.43921-.41884-.886-.83131-1.34627-1.23284a.90033.90033,0,0,0-1.40758,1.0861,58.02877,58.02877,0,0,0,4.32341,6.65821,2.15626,2.15626,0,0,0,.001,2.80465,6.76419,6.76419,0,0,0,3.16441,2.09983q2.76778,1.78611,5.53079,3.57978a2.047,2.047,0,0,0,2.77321-.81043,1.4027,1.4027,0,0,0,.56846-.6076,32.27561,32.27561,0,0,1,7.12934-9.678c3.10076-2.86287,7.24862-4.585,10.02165-7.74609A1.97165,1.97165,0,0,0,133.21077,225.46987Z"/>
        <path class="cls-12" d="M160.26646,123.5024c-3.60893-6.359-10.91009-10.48522-17.11454-13.94965a229.84772,229.84772,0,0,0-22.01456-11.342c-6.17547-2.61747-14.43788-5.94271-20.92635-2.39685a11.92064,11.92064,0,0,0-5.57131,7.16023c-1.12658,3.87521.20933,8.40936.0513,12.3893-.06136,1.5447,2.20885,1.48189,2.36281,0,.63407-6.10312,1.2779-15.86124,9.35894-15.94319,6.758-.06853,13.89673,3.28765,19.94481,5.94454,5.80794,2.55135,11.56554,5.0976,17.09871,8.21831,5.65309,3.18835,10.39322,7.38153,15.69545,11.034C159.8491,125.09759,160.6474,124.17369,160.26646,123.5024Z"/>
        <path d="M83.00422,135.69056a24.06072,24.06072,0,1,0,14.22731,43.45815c-1.71635-2.96149-2.1951-6.97219-2.27658-10.15473-.04053-1.583,1.95169-1.85222,2.75194-.74534a11.90842,11.90842,0,0,0,1.31847,1.52344,2.23936,2.23936,0,0,1,1.021.26157c1.218.67375,2.43261,1.337,3.65769,1.98106a24.05927,24.05927,0,0,0-20.69979-36.32415Z"/>
        <circle cx="147.83668" cy="164.96394" r="24.06071"/>
        <path class="cls-10" d="M80.77545,168.20669a3.53491,3.53491,0,0,0,4.32167-.69739c1.13044-1.13808,1.37347-2.69754,2.26453-3.97026a2.93466,2.93466,0,0,1,3.3269-.83463,9.6158,9.6158,0,0,1,3.84729,2.62536c1.08167,1.02727,2.32125,2.58333,3.9376,2.64768,4.29757.1711-1.36464-11.143-2.3223-12.64741-2.51516-3.9512-6.72836-7.39785-11.49388-4.83111-3.00806,1.62026-4.52448,4.82965-5.2425,8.032C78.74139,161.53413,77.4651,166.27354,80.77545,168.20669Z"/>
        <path d="M94.63408,167.21843a22.654,22.654,0,0,0,6.24816,20.46136,27.84793,27.84793,0,0,0,2.85443,2.506c1.12607.86827,2.2627,1.888,3.76148,1.60913a1.52283,1.52283,0,0,0,1.05277-1.85417c-.34446-1.22524-1.59124-1.78136-2.55563-2.49452A23.4731,23.4731,0,0,1,103.504,185.297a26.62577,26.62577,0,0,1-4.07584-5.14565,21.99128,21.99128,0,0,1-3.3537-12.738c.04776-.813-1.29906-1.01556-1.44038-.19494Z"/>
        <path d="M93.56746,167.00008a48.978,48.978,0,0,0,10.24508,5.97458,30.57341,30.57341,0,0,0,11.63419,3.03134c2.19.07146,2.13194-3.19056,0-3.36768a59.68672,59.68672,0,0,1-11.00368-1.62595,32.95631,32.95631,0,0,1-10.0528-5.07866c-.6218-.44158-1.43047.58954-.82279,1.06637Z"/>
        <path d="M114.426,174.957a20.75587,20.75587,0,0,1-1.28944,9.98547,7.99214,7.99214,0,0,1-2.24582,3.60567,4.48072,4.48072,0,0,1-1.74492.769c-.73006.18147-1.25134-.14269-1.984-.17833a1.42163,1.42163,0,0,0-1.21944,2.12505c1.25464,1.899,4.33194,1.777,6.13164.866a9.386,9.386,0,0,0,4.02478-4.74061,19.34244,19.34244,0,0,0,1.63876-6.61132,21.23828,21.23828,0,0,0-.82369-6.50677,1.29036,1.29036,0,1,0-2.48791.68588Z"/>
        <path d="M75.57162,144.11379A51.29209,51.29209,0,0,1,111.951,126.50516a68.96241,68.96241,0,0,1,22.75,3.33959c6.577,1.97723,13.09,5.02112,18.14666,9.75406a34.02577,34.02577,0,0,1,6.58456,8.67642c1.77161,3.25082,2.44068,6.69849,3.51631,10.19337a1.24607,1.24607,0,0,0,2.38316,0c.85479-3.417.02263-7.22268-1.21734-10.46083a30.58083,30.58083,0,0,0-5.65335-9.24136c-4.99869-5.72791-11.80588-9.597-18.92633-12.05666a68.85372,68.85372,0,0,0-24.30119-3.46279,59.67923,59.67923,0,0,0-22.85,4.84094,42.4358,42.4358,0,0,0-18.24074,14.92335c-.56914.85016.75139,1.888,1.42893,1.10254Z"/>
        <path d="M63.75118,168.30784l-.196.196a.37.37,0,0,0-.09429.35672.18379.18379,0,0,0,.01889.04558.27159.27159,0,0,0,.075.11666l.07336.05668a.35959.35959,0,0,0,.08887.03716.37006.37006,0,0,0,.35673-.09429l.196-.196a.37706.37706,0,0,0,0-.51851l-.0742-.05733a.36493.36493,0,0,0-.18505-.05l-.09747.01309a.36634.36634,0,0,0-.16179.09429Z"/>
        <path d="M67.09223,174.56518A24.07663,24.07663,0,0,0,68.69189,186.762a24.77638,24.77638,0,0,0,7.40262,9.96768,1.50087,1.50087,0,1,0,1.8266-2.36735,25.09073,25.09073,0,0,1-9.79685-19.79711c.011-.67849-.961-.64469-1.032,0Z"/>
        <path d="M102.76023,126.58184q.24657-.21219.49965-.41656c.03111-.025.3055-.23968.12238-.09882q.12646-.09729.25483-.19211.06423-.04752.12887-.09444-.20343.06009-.03988.01956a2.17131,2.17131,0,0,0,.39957-.19379c.17992-.11549.355-.23849.53565-.353.34082-.216.69211-.41283,1.02864-.63525.542-.35822,1.27458-.64535,1.43-1.34189l-.31663.54329a3.42768,3.42768,0,0,0,.77491-.8787.95.95,0,0,0,0-.93211.97583.97583,0,0,0-.79732-.45734,2.79156,2.79156,0,0,0-1.17547.21035h.6546c-.7257-.20456-1.30361.2602-1.86191.6464a10.00126,10.00126,0,0,0-1.17778.97775c-.15566.14729-.313.295-.46.45105-.05722.06072-.45115.48075-.38919.60834q.282-.42084.099-.21334-.05547.05889-.11043.11826-.44134.47685-.84777.98407a.88266.88266,0,0,0,1.24827,1.24827Z"/>
        <path d="M108.05269,122.21448c.1008-1.488.27844-4.77375,2.45414-4.71079a11.27885,11.27885,0,0,1,3.13878,1.02559q1.42538.51929,2.84842,1.0449c3.99779,1.48542,8.026,2.89768,11.98642,4.48151,3.91751,1.56667,7.72676,3.39979,11.6635,4.90881a80.06271,80.06271,0,0,1,11.46072,5.85311.27277.27277,0,0,0,.32912-.42655,53.46283,53.46283,0,0,0-8.59571-7.06058,43.77361,43.77361,0,0,0-4.65805-3.07834q-2.58624-1.32071-5.24071-2.50178c-3.51529-1.57224-7.15783-2.8824-10.79083-4.15341-1.772-.62-3.56638-1.1631-5.3631-1.70655a53.52036,53.52036,0,0,0-5.52533-1.61607,4.94223,4.94223,0,0,0-5.0126,1.83222c-1.36019,1.75578-1.46353,3.972-1.4378,6.10793a1.37238,1.37238,0,0,0,2.743,0Z"/>
        <g>
          <path d="M137.43081,229.92767c.12268-.15259.24337-.307.36575-.45987a1.66791,1.66791,0,0,1,.29845-1.02142,29.52551,29.52551,0,0,1,3.78168-4.54175c-.16851.07783-.3371.15791-.50523.235-1.76579.80929-3.5174,1.65358-5.30856,2.40664-3.78868,1.59286-7.74147,2.84853-11.33053,4.86371-1.52505.85626-.45075,3.01958,1.14054,2.70534a51.47293,51.47293,0,0,0,10.678-3.77035C136.85012,230.21309,137.13584,230.06457,137.43081,229.92767Z"/>
          <path d="M179.98187,171.318c-3.089-8.37184-9.51129-14.88892-14.72551-21.94446-.324-.43848-1.12683-.20526-.94317.39762a42.0835,42.0835,0,0,0,4.98842,10.08357c.56232.89649,1.12985,1.79685,1.68741,2.70488a2.96541,2.96541,0,0,0-2.02294,3.61338,20.13915,20.13915,0,0,1-3.36136,15.71362c-2.9348,3.82675-6.63586,8.56115-10.77582,11.096a4.50519,4.50519,0,0,0-.61234.45232c-2.31406-.14275-3.269,2.918-1.896,4.66426.19469.24761.37479.51071.5509.77758a4.75382,4.75382,0,0,0,.92925,1.65609,24.73859,24.73859,0,0,1,1.89538,6.07855,2.192,2.192,0,0,0,2.07107,1.83525,59.90332,59.90332,0,0,1-3.67895,5.49527,37.0973,37.0973,0,0,1-5.907,6.1677,1.41485,1.41485,0,0,1,.33078,1.72815c-.29106.64451-.6182,1.28936-.97988,1.91744a62.82719,62.82719,0,0,0,7.20063-6.00216c1.276-1.27951,2.47314-2.63478,3.6231-4.0281,1.17793-1.42724,2.42307-2.80618,3.57693-4.252,2.29127-2.87114,4.47343-5.8174,6.90324-8.57685,2.41322-2.74061,4.98044-5.3728,7.20254-8.275a25.13025,25.13025,0,0,0,4.83081-9.38775A20.93234,20.93234,0,0,0,179.98187,171.318Z"/>
        </g>
        <path d="M91.52339,114.80439a62.42572,62.42572,0,0,0-9.2815,6.74479,55.20113,55.20113,0,0,0-7.51517,8.56209,45.97256,45.97256,0,0,0-5.5691,9.94873,42.1717,42.1717,0,0,0-1.65933,5.53816,22.93079,22.93079,0,0,0-.898,5.46728.31474.31474,0,0,0,.582.15764c.80468-1.55368,1.313-3.30179,2.016-4.90819.72021-1.64566,1.55742-3.22113,2.37008-4.82073a91.02355,91.02355,0,0,1,5.45729-9.59117,64.74594,64.74594,0,0,1,6.83782-8.458,55.12738,55.12738,0,0,1,8.34521-7.46806c.70958-.49058.0648-1.64212-.68538-1.17254Z"/>
        <path d="M61.6796,157.19578c-.428,3.47759-1.04666,6.92379-1.4624,10.40038-.40418,3.38-.734,6.76465-1.0644,10.15276q-.49486,5.07429-.91512,10.15275c-.13416,1.64975-.28285,3.297-.32181,4.95256a11.23114,11.23114,0,0,0,.50694,4.76572.61714.61714,0,0,0,1.05529,0,10.884,10.884,0,0,0,1.18472-4.51809c.21949-1.73027.36216-3.46165.49735-5.20019q.39459-5.07459.7-10.15275c.20832-3.38418.41745-6.76488.55071-10.15276.13626-3.46411.06721-6.93266.19212-10.40038.02191-.60843-.85291-.57282-.9234,0Z"/>
        <path d="M57.91882,194.33667c-1.33563,5.35995-4.77559,9.73345-6.55583,14.90583a14.45132,14.45132,0,0,0-.58153,8.04637,15.27564,15.27564,0,0,0,3.983,6.66342,59.67419,59.67419,0,0,0,12.13618,9.72818A85.60187,85.60187,0,0,0,80.82505,240.616c2.77591,1.08979,5.59407,2.04947,8.407,3.03631A83.74266,83.74266,0,0,0,97.853,246.0591a.74756.74756,0,0,0,.3971-1.44037c-9.27625-3.781-18.34277-7.82777-26.836-13.19717a89.45893,89.45893,0,0,1-11.82333-8.73945,19.45771,19.45771,0,0,1-4.61892-5.15441c-1.17753-2.24573-.84615-4.76-.09814-7.087,1.70836-5.31458,6.05728-10.19594,4.79973-16.104a.91692.91692,0,0,0-1.75464,0Z"/>
        <path d="M92.663,115.302c-.19452-5.57125-.66229-11.74265,2.19006-16.77944a11.78061,11.78061,0,0,1,4.74435-4.74909c2.4655-1.28636,4.89139-.89,7.49194-.283,11.13095,2.59809,22.65835,5.21391,32.51286,11.24905a73.95757,73.95757,0,0,1,6.89556,4.73994c2.30359,1.79748,4.82906,3.48955,6.64759,5.78885.401.507,1.17584-.14088.87442-.67469-1.38266-2.44863-2.51472-4.98454-4.39539-7.10467a34.91535,34.91535,0,0,0-6.45978-5.63613,63.5173,63.5173,0,0,0-16.524-7.62035,138.51852,138.51852,0,0,0-19.21549-4.66985,13.86831,13.86831,0,0,0-8.81655,1.1277,14.90525,14.90525,0,0,0-5.38886,5.18632c-3.76837,5.8428-3.0939,13.09543-2.21047,19.64916.12716.94335,1.68646.71246,1.65377-.22381Z"/>
        <g>
          <path d="M193.59187,149.99646c.18875-1.00505.29938-1.96154.52284-2.82a130.68259,130.68259,0,0,0-9.62119-10.02709c-4.69213-4.38074-9.62013-8.49007-14.629-12.50163-4.83383-3.87139-9.77553-7.62434-14.884-11.1265-1.21369-.83207-2.49771-1.569-3.75643-2.33081-.81086-.49077-1.79528.707-1.03674,1.34363,4.56954,3.835,9.32936,7.42762,13.9334,11.22148,4.84949,3.99611,9.53543,8.17762,14.01148,12.58925a178.22232,178.22232,0,0,1,14.90394,16.28238C193.23469,151.75358,193.42624,150.87827,193.59187,149.99646Z"/>
          <path d="M174.66262,231.454c.26989-1.10965.59367-2.19969.95017-3.27781q.88746-3.065,1.78985-6.12556-1.50134,1.3299-3.00894,2.65128c-4.90257,4.30063-9.89736,8.48863-14.84614,12.73783-2.51121,2.15623-4.99182,4.34717-7.39507,6.62371a89.80353,89.80353,0,0,0-6.82783,6.9924c-1.03228,1.21908-2.07382,2.39094-3.02077,3.68212-.65427.892.7063,1.764,1.45028,1.119,2.50772-2.17419,4.898-4.48051,7.46326-6.58943q3.8421-3.15861,7.79243-6.183c5.13563-3.94829,10.37179-7.80152,15.64355-11.56665C174.65833,231.49592,174.65723,231.47614,174.66262,231.454Z"/>
          <path d="M211.30105,175.82372a32.00849,32.00849,0,0,0-3.479-9.47784,84.088,84.088,0,0,0-6.30117-9.89694,18.80149,18.80149,0,0,1-1.46517,6.26989c.31768.53261.63318,1.06649.93817,1.60665a42.87056,42.87056,0,0,1,3.80489,8.25647c.24282.77368.45415,1.55759.62474,2.35046.07473.34742.13745.69628.19758,1.04641.01162.06782.019.10737.024.13219l.00229.02c.03.25054.05216.50222.071.75382a22.1623,22.1623,0,0,1,.03675,2.36731c-.01371.42644-.02886.85236-.05933,1.278-.01141.1596-.024.31912-.0387.47846.00047-.00492-.06111.52646-.06527.60051a29.42416,29.42416,0,0,1-1.12042,4.71462c-.245.76949-.51733,1.53014-.798,2.28728q-.224.60426-.46424,1.20232c-.07236.18056-.147.36015-.22037.54025l-.03162.07328a62.97625,62.97625,0,0,1-4.25068,8.08583q-1.16778,1.88026-2.45379,3.68349-.62195.87447-1.2681,1.73133c-.11495.15251-.23123.304-.34648.45622l.07392-.09764c-.04154.05461-.08869.1164-.10931.14258-.2662.33791-.5327.67549-.80288,1.01026-1.86759,2.314-3.86337,4.51934-5.91335,6.67235a2.88042,2.88042,0,0,1-.09094,1.53,82.26354,82.26354,0,0,0-2.18861,9.2767,99.21629,99.21629,0,0,0,16.6289-18.37937,56.74287,56.74287,0,0,0,8.4386-17.50876A26.33672,26.33672,0,0,0,211.30105,175.82372Z"/>
          <path d="M202.98891,190.35309c.09327-.22873.07036-.16465,0,0Z"/>
        </g>
        <g>
          <path d="M90.99988,225.23274a1.47805,1.47805,0,0,1,.304-1.62715,4.32147,4.32147,0,0,1-.129-.72989,1.06329,1.06329,0,0,1,.09386-.5032c-.99774-.64994-1.99065-1.30642-2.96183-1.99192-1.18339-.8353-2.615,1.03653-1.54681,2.00478,1.04624.94835,2.04055,1.94774,3.05671,2.92737a23.29406,23.29406,0,0,0,1.91406,1.61972C91.47838,226.37064,91.23675,225.8029,90.99988,225.23274Z"/>
          <path d="M144.10473,218.52025a11.56787,11.56787,0,0,1-5.012,2.1735,5.09794,5.09794,0,0,1-2.94727-.45915l-.86925-2.1253a4.023,4.023,0,0,0-3.41007-2.37282,18.65655,18.65655,0,0,0-1.23339-8.14978,1.74479,1.74479,0,0,0-3.40893.46136,77.6252,77.6252,0,0,1-2.61959,12.863,15.07432,15.07432,0,0,1-1.3542,1.33069c-4.11136.20327-8.20847.60819-12.2987,1.07706a3.8727,3.8727,0,0,0-1.11826.303,22.20861,22.20861,0,0,1-3.43812-.78714,8.98887,8.98887,0,0,1-4.2969-3.23952,4.16871,4.16871,0,0,0,.39117-.83721,18.58153,18.58153,0,0,0,.94377-5.48857c.10919-3.55635-4.28361-4.96181-6.69471-2.773-4.78057,4.33967-4.03159,11.71415.57059,15.89052.10121.09184.20793.16915.31054.25733a15.7134,15.7134,0,0,1,2.40966,5.62725c.11224.05516.22223.11712.33477.17118a20.60863,20.60863,0,0,0,4.81647,1.6639c2.57376,1.16485,5.14191,2.32177,7.78679,3.32525,2.76238,1.04807,5.71055,2.4969,8.73111,1.95258,2.33828-.42134,4.1748-1.90955,6.00038-3.33025,1.33-1.03509,2.64653-2.06929,3.90232-3.19387.10707-.09586.22992-.21752.3641-.35514,1.58581-.93791,3.11574-1.93124,4.5796-2.90106,1.46135-.35069,1.79056-2.15568,1.25991-3.4607,3.17523-.93761,5.26934-3.40961,7.58377-5.95952C146.15585,219.33811,145.14546,217.80618,144.10473,218.52025Z"/>
        </g>
        <path d="M74.02784,246.65159a86.19452,86.19452,0,0,0,.84994,10.29823,82.70571,82.70571,0,0,0,2.27856,10.145,89.02534,89.02534,0,0,0,3.5085,9.83077,39.91531,39.91531,0,0,0,2.0713,4.51308c.66873,1.15163,1.88227,3.07772,3.27413,3.37045a.74575.74575,0,0,0,.88533-.50267c.49467-1.21785-.24986-3.15764-.701-4.32584-.59533-1.54167-1.34976-3.02338-1.9818-4.55082-1.29483-3.12917-2.45554-6.32672-3.45915-9.56107-.98024-3.159-1.83189-6.37348-2.55062-9.602-.72989-3.27858-1.48328-6.59214-1.93464-9.91839-.17323-1.27656-2.28962-.96659-2.24059.30324Z"/>
        <path d="M84.26737,281.91812c-.22422.52192-.46566,1.02577-.70184,1.54059-.23367.50935-.52458.95651-.73965,1.48273a10.201,10.201,0,0,0-.631,3.54451,20.82785,20.82785,0,0,0,.24688,3.52336,6.33493,6.33493,0,0,0,1.32506,3.52719,1.69672,1.69672,0,0,0,1.866.3532,1.765,1.765,0,0,0,1.05006-1.56108,12.17729,12.17729,0,0,0-.51213-3.23615,10.29762,10.29762,0,0,1-.1409-1.20385q-.05193-.70009-.04957-1.40267c.00281-.9651.08389-1.93649.05219-2.89885a12.3517,12.3517,0,0,1-.056-1.47539,6.43779,6.43779,0,0,1,.27647-1.3565c.35014-1.14908-1.49228-1.98532-1.98558-.83709Z"/>
        <path d="M84.10071,294.6282a42.22209,42.22209,0,0,0-2.14407,4.18968,14.94154,14.94154,0,0,0-1.01222,4.77477,10.71366,10.71366,0,0,0,2.90307,7.88636c4.46211,4.37251,12.16821,3.65805,17.85938,3.24623,1.60159-.1159,3.23035-.171,4.81653-.42781a34.88435,34.88435,0,0,1,9.62121-.60765,15.51709,15.51709,0,0,1,4.93058,1.41653c2.88991,1.16612,5.75065,2.29787,8.91866,2.28993a24.14459,24.14459,0,0,0,7.75159-1.45271c2.90951-1.00946,5.6164-2.33892,8.413-3.59677,1.28094-.57613,2.60489-1.09315,3.91134-1.60136a7.09414,7.09414,0,0,1,4.432.01378c1.00136.26014,1.42952-1.31766.426-1.54513a25.60528,25.60528,0,0,0-14.14991.79021c-4.78124,1.66678-9.19389,3.89345-14.40292,2.98106-1.34279-.2352-2.6685-.58545-3.995-.89682-1.5698-.36846-3.18154-.51393-4.74089-.90823a52.81649,52.81649,0,0,0-8.90355-1.0684,75.183,75.183,0,0,0-9.3759.16375,35.1331,35.1331,0,0,1-8.68492-.29371c-2.741-.57712-4.69733-2.01767-5.33379-4.84076a12.43593,12.43593,0,0,1-.05684-4.2342,40.68792,40.68792,0,0,1,1.00081-5.358c.35132-1.27116-1.57225-2.16392-2.18414-.9208Z"/>
        <path d="M68.86724,232.76333a104.21842,104.21842,0,0,0-9.63,18.39762c-.59961,1.49895-1.28314,3.01662-1.74616,4.56525a36.26728,36.26728,0,0,0-1.02366,5.35925c-.41844,3.03461-1.55825,6.23985-.48837,9.26531.98161,2.77586,3.27068,4.564,5.137,6.71932a10.29957,10.29957,0,0,1,2.29384,7.85707,23.6513,23.6513,0,0,1-.74113,4.21124c-.382,1.48859-.99852,2.85435-1.44928,4.31294-.83347,2.69692-.96267,5.77768.80074,8.14149a10.706,10.706,0,0,0,3.81227,2.90147c1.91459,1.00579,3.83274,2.00482,5.77086,2.96444,3.57971,1.77243,7.33482,4.27618,11.38014,4.64152,1.2782.11544,1.74915-1.56955.989-2.38768-2.35018-2.52951-5.8514-3.747-8.90111-5.22452-2.95409-1.43121-6.16666-2.59734-8.98436-4.27887-2.43969-1.456-2.00735-4.26274-1.6334-6.68978.42745-2.77426,1.49342-5.37907,1.82759-8.19051a16.54212,16.54212,0,0,0-.78257-7.99247c-1.06419-2.54988-3.04968-4.21448-4.81647-6.25047a8.19654,8.19654,0,0,1-1.73351-7.9437,28.83567,28.83567,0,0,1,1.8867-4.0255c.77243-1.5757,1.42191-3.13925,2.04958-4.78913q3.87965-10.1979,8.42115-20.13871a1.41338,1.41338,0,0,0-2.43888-1.42558Z"/>
        <path d="M66.67687,267.70082c2.90178,4.85976,5.81,9.70774,8.81536,14.50438q2.18782,3.49188,4.403,6.96585a56.73474,56.73474,0,0,0,4.87891,6.98289c.80734.924,2.01142-.253,1.57823-1.21773a55.064,55.064,0,0,0-4.17216-7.10078q-2.29725-3.57294-4.62789-7.12347c-3.06224-4.67415-6.21335-9.28088-9.37458-13.88842-.62514-.91115-2.082-.096-1.50085.87728Z"/>
        <path d="M69.78362,288.31189c.75538.87712,1.63518,1.64381,2.38029,2.524a14.12639,14.12639,0,0,0,2.79912,2.38091,24.93971,24.93971,0,0,0,2.951,1.82676,10.62037,10.62037,0,0,0,3.68531,1.33854,1.39187,1.39187,0,0,0,1.33562-1.01688,1.42625,1.42625,0,0,0-.63653-1.56421,22.19886,22.19886,0,0,0-3.0003-1.31074,33.02977,33.02977,0,0,1-3.02963-1.50689c-.94449-.54983-1.83431-1.17312-2.79179-1.699a13.4003,13.4003,0,0,1-2.57927-2.08638.78808.78808,0,0,0-1.11384,1.11384Z"/>
        <g>
          <path d="M165.92286,261.1768c-.14178.58166-.28084,1.164-.4227,1.74562q-5.33052,21.85713-10.73279,43.69673-.66817,2.7012-1.33744,5.40217c-.45822,1.8493,2.39786,2.63838,2.85455.787q5.38761-21.84071,10.7041-43.69877c.41286-1.69759.818-3.397,1.23025-5.09476A16.92183,16.92183,0,0,1,165.92286,261.1768Z"/>
          <path d="M207.72573,87.25951c-3.79738,14.56743-7.14342,29.25538-10.68284,43.8871-3.53742,14.62352-6.95242,29.27773-10.42127,43.91769q-5.19831,21.9393-10.46829,43.86146-2.75427,11.45739-5.54627,22.90567a8.79021,8.79021,0,0,0,3.23006-1.08287c1.23878-5.14089,2.491-10.2786,3.7238-15.421q5.256-21.92321,10.44028-43.8635,5.21588-22.0738,10.29337-44.17918,5.061-22.02619,9.78622-44.12927c.39-1.82634.77339-3.65294,1.13769-5.48462C209.41084,86.70394,207.97967,86.28536,207.72573,87.25951Z"/>
        </g>
        <path d="M153.71191,311.90289c-.07916.28652-.13651.57494-.20295.8639q.08439-.22368.00015-.03273a1.23433,1.23433,0,0,0-.15968.40342,2.744,2.744,0,0,0-.07348.68848,5.12477,5.12477,0,0,0,.2732,1.72939,5.85219,5.85219,0,0,0,1.03386,1.84733,6.80227,6.80227,0,0,0,1.161,1.091,7.38441,7.38441,0,0,0,3.81957,1.56383,5.22213,5.22213,0,0,0,1.93859-.12886,8.40308,8.40308,0,0,0,1.09883-.41639,2.48562,2.48562,0,0,0,1.10507-.89939,1.65312,1.65312,0,0,0-.982-2.41372,2.46053,2.46053,0,0,0-1.37113.0477q.38148-.04625.17646-.0232-.08726.01025-.17489.01674-.1743.01353-.34939.01578c-.23176.0031-.46388.01574-.69575.01382-.0961-.00079-.19213-.00457-.288-.01072-.07168-.0046-.49884-.03-.1448-.00808.345.02139-.06092-.01955-.14006-.03729q-.16927-.038-.33551-.08706c-.13362-.03942-.48945-.23468-.60978-.20415q.4172.18211.13261.05539l-.10884-.05155q-.16406-.07992-.32326-.16961a7.4961,7.4961,0,0,1-.63058-.40619c-.30786-.21658.28478.25559-.0233-.02348-.07444-.06743-.152-.131-.22524-.19989-.11842-.1115-.2309-.22918-.33768-.35185-.04736-.05439-.27176-.33384-.06-.06471.24423.31033-.2172-.28762-.26208-.34318q-.06376-.073-.12469-.14843l.16452.21362a2.17624,2.17624,0,0,0-.17817-.2541,7.26455,7.26455,0,0,1-.632-1.14l.06293.15259a1.91059,1.91059,0,0,0-.20905-.45725l-.22883-.29619q-.19656-.24253.10946.21075c.02365-.0454-.0721-.25373-.08391-.30258a4.37884,4.37884,0,0,1-.07851-.44315,1.061,1.061,0,0,0-1.02135-.77761,1.08048,1.08048,0,0,0-1.02136.77761Z"/>
        <g>
          <path d="M216.31544,88.14242c-3.8357,14.75428-7.236,29.62567-10.8118,44.44474-3.63184,15.05124-7.1587,30.12857-10.72927,45.19449q-5.38169,22.70779-10.83527,45.39844c-1.13939,4.74072-2.29678,9.47708-3.44092,14.21666,1.15382-.5916,2.29037-1.22295,3.42174-1.90184.47579-1.98127.95943-3.96067,1.43437-5.94215q5.439-22.69194,10.80607-45.401,5.3491-22.63268,10.55884-45.2971,5.14242-22.36132,9.94582-44.8003.58777-2.74747,1.14313-5.50037C218.00119,87.58682,216.56865,87.16832,216.31544,88.14242Z"/>
          <path d="M173.29929,267.14c-.09374.38476-.1857.77-.27948,1.15471q-5.40944,22.19277-10.89264,44.36755-.67008,2.70927-1.3413,5.41833c-.45822,1.8493,2.39782,2.63839,2.85455.787q5.4563-22.1183,10.83714-44.2551c.58484-2.40575,1.15925-4.81405,1.74282-7.2201A7.571,7.571,0,0,1,173.29929,267.14Z"/>
        </g>
        <path d="M208.98915,87.60025c.35684-2.47425,2.0353-5.25249,4.887-4.944a2.798,2.798,0,0,1,2.47789,2.13657,6.09715,6.09715,0,0,1,.12374,2.26815c-.05117.41679-.13944.83194-.22266,1.24334a4.77281,4.77281,0,0,0-.21734,1.29427c.03835.45259.666.86814,1.02.42249a5.88919,5.88919,0,0,0,.87341-2.27188,7.70567,7.70567,0,0,0,.21789-2.33661,4.59918,4.59918,0,0,0-2.04037-3.50416,5.22812,5.22812,0,0,0-6.79716,1.25111,6.778,6.778,0,0,0-1.4427,4.28911c.00289.61836,1.02584.80649,1.12029.15161Z"/>
        <g>
          <path d="M90.65827,107.04562c.29234-.73647.55294-1.45669.82452-2.15989A160.35224,160.35224,0,0,0,62.98137,123.987a154.71708,154.71708,0,0,0-31.8896,36.56561c-8.4487,13.61115-14.81895,28.85424-17.48526,44.70033a49.91942,49.91942,0,0,0-.657,5.83281.46379.46379,0,0,0,.90688.12276c1.98-7.74142,3.68807-15.47932,6.47057-22.9944A138.63336,138.63336,0,0,1,30.5511,166.6563a152.41776,152.41776,0,0,1,30.1912-36.81361,160.72121,160.72121,0,0,1,29.69726-21.00286A3.28137,3.28137,0,0,1,90.65827,107.04562Z"/>
          <path d="M210.26244,81.44041a273.76807,273.76807,0,0,0-52.95,2.69793,234.58741,234.58741,0,0,0-36.28868,8.43995,6.48585,6.48585,0,0,1,2.71188,2.01531c.058.07434.10393.15162.15646.22737a232.74251,232.74251,0,0,1,27.981-6.74063,279.9322,279.9322,0,0,1,52.01265-4.3625q3.18909.03368,6.37674.1397C211.82021,83.90851,211.81342,81.50547,210.26244,81.44041Z"/>
        </g>
        <g>
          <path d="M60.51761,171.8465a187.42182,187.42182,0,0,0-17.02818,10.91729,199.576,199.576,0,0,0-27.8587,24.42834q-1.57083,1.66-3.09571,3.36255c-.61595.68639.3851,1.70107,1.01781,1.01781a160.17993,160.17993,0,0,1,27.85463-23.95811q9.96306-6.73172,20.46541-12.55114A3.74783,3.74783,0,0,1,60.51761,171.8465Z"/>
          <path d="M195.536,134.14281c-3.96093.44069-9.09945,1.27844-13.0535,1.77973.14491.08933-.28056,1.556-.1426,1.66177,1.1556.88584,3.45906.25989,3.53985,1.43383q2.24334-.28255,4.488-.55328,2.58318-.30909,5.16827-.60131a1.91654,1.91654,0,0,0,1.86037-1.86037A1.87235,1.87235,0,0,0,195.536,134.14281Z"/>
        </g>
        <path d="M14.88119,209.17189c3.73781-9.16409,7.58219-19.48257,15.11121-26.301a33.47722,33.47722,0,0,1,12.53786-6.84182c4.58369-1.41985,9.14641-2.57228,13.05786-5.49017a24.15106,24.15106,0,0,0,8.66638-11.43025,1.11841,1.11841,0,0,0-2.03521-.858,27.085,27.085,0,0,1-8.07553,10.19481c-4.06484,2.96216-8.88067,4.10016-13.51612,5.832-8.71952,3.25769-15.11678,10.71152-19.50159,18.71395a117.57449,117.57449,0,0,0-6.8472,16.01445c-.14085.382.45377.53029.60234.16606Z"/>
        <path d="M163.88639,121.56625c2.79625-2.00565,5.98294-1.60308,9.19266-1.061,3.49823.59082,6.96654,1.45942,10.498,1.83036a19.34117,19.34117,0,0,0,9.73583-1.37964c3.193-1.36324,5.80056-3.56328,8.56768-5.61871.83648-.62135.06523-2.0351-.83616-1.4305a46.1919,46.1919,0,0,1-9.09064,4.90916,20.08079,20.08079,0,0,1-10.61319.81958c-3.38563-.53424-6.76286-1.2619-10.18339-1.54938a11.04805,11.04805,0,0,0-8.19228,2.28578c-.65964.54385.2186,1.69852.92153,1.19434Z"/>
        <path d="M111.24591,247.95a13.45377,13.45377,0,0,0-7.87091,13.63962,14.637,14.637,0,0,0,10.90367,12.18684,15.55633,15.55633,0,0,0,16.035-5.8015,13.35185,13.35185,0,0,0-.63813-16.71077,15.01462,15.01462,0,0,0-8.58279-4.48751,18.41122,18.41122,0,0,0-5.65951.00568,17.17678,17.17678,0,0,0-6.03487,1.54712.7936.7936,0,0,0,.39752,1.46768,32.67015,32.67015,0,0,0,3.91474-.59936,20.73683,20.73683,0,0,1,4.80444-.09387,15.25977,15.25977,0,0,1,7.21415,2.32563,10.15158,10.15158,0,0,1,3.18115,13.10621,12.49356,12.49356,0,0,1-11.9564,6.70683,11.84533,11.84533,0,0,1-5.0227-22.12007c.78144-.42123.09517-1.53033-.68537-1.17253Z"/>
        <path d="M111.27868,255.12305a7.27335,7.27335,0,0,0,.43641,8.48469,7.26559,7.26559,0,0,0,12.77982-5.09155,7.28075,7.28075,0,0,0-5.40669-6.47413c-3.17453-.78034-6.9981,1.06543-7.99506,4.26336a.66836.66836,0,0,0,1.21617.51272,5.81171,5.81171,0,0,1,5.63647-3.25056,5.37488,5.37488,0,0,1,1.93779,10.0369,5.64521,5.64521,0,0,1-6.20386-.63217,6.0741,6.0741,0,0,1-1.48647-7.31466.53.53,0,0,0-.91458-.5346Z"/>
        <path d="M116.43817,259.1452a.93853.93853,0,0,0,.27512.65539,1.032,1.032,0,0,0,.48277.26706,1.16642,1.16642,0,0,0,.58464-.00795,1.04524,1.04524,0,0,0,.58161-.43349.99387.99387,0,0,0,.15393-.60934,1.251,1.251,0,0,0-.13158-.4791,1.27216,1.27216,0,0,0-.19686-.27912,1.30138,1.30138,0,0,0-.37785-.31465,1.25065,1.25065,0,0,0-.68818-.15036,1.48417,1.48417,0,0,0-.39774.07909.98954.98954,0,0,0-.27467.13437,2.56242,2.56242,0,0,0-.24031.1917,1.79528,1.79528,0,0,0-.43906.72624.91478.91478,0,0,0,.23967.90674,1.322,1.322,0,0,0,.50962.301.414.414,0,0,0,.06043.0163,1.74574,1.74574,0,0,0,.30916.03869,1.222,1.222,0,0,0,.37431-.05267,1.93255,1.93255,0,0,0,.28442-.11907.473.473,0,0,0,.05926-.0364,1.66455,1.66455,0,0,0,.23539-.18612c.00873-.009.0163-.01861.02424-.0283a2.30676,2.30676,0,0,0,.16475-.21468,1.69072,1.69072,0,0,0,.12613-.28669.69.69,0,0,0,.02619-.15643.75248.75248,0,0,0-.01774-.39615l-.10015-.23732a1.14094,1.14094,0,0,0-.24983-.31023,1.79262,1.79262,0,0,0-.25214-.18949,2.70481,2.70481,0,0,0-.3086-.13275l.24344.10273a1.79471,1.79471,0,0,0-.30884-.13807.52333.52333,0,0,0-.08578-.02683,1.6363,1.6363,0,0,0-.35583-.04467,1.51608,1.51608,0,0,0-.18113.02178c-.06031.0081-.12792.01362-.18963.0273l-.2691.11356a.85134.85134,0,0,0-.31606.29014.56272.56272,0,0,0-.14486.24855.8484.8484,0,0,0-.097.434l.01862.20032c.0062.06675.00329.13323.00835.20032a1.27912,1.27912,0,0,0,.17545.64861,1.4377,1.4377,0,0,0,.768.59058,1.29431,1.29431,0,0,0,.68326,0,1.532,1.532,0,0,0,.71184-.40469,1.72323,1.72323,0,0,0,.43392-.73647,1.7493,1.7493,0,0,0,.01361-.91124,1.70745,1.70745,0,0,0-.44913-.79416,1.68248,1.68248,0,0,0-1.06935-.44294l-.402.054a1.13895,1.13895,0,0,0-.51429.27069.75989.75989,0,0,0-.27127.27126,1.13894,1.13894,0,0,0-.27068.51429l-.054.402a1.5052,1.5052,0,0,0,.20647.76328l.1685.35992a1.656,1.656,0,0,0,1.4305.82052l.44041-.05918a1.65515,1.65515,0,0,0,.731-.426,1.84311,1.84311,0,0,0,.48523-1.17145,1.656,1.656,0,0,0-.82052-1.4305l-.36606-.16236-.76329,2.81811.01112.00123-.40087-.05387a.28684.28684,0,0,1,.05518.01448l-.3551-.14985a.30024.30024,0,0,1,.05873.03332l-.29572-.22847a.33781.33781,0,0,1,.056.05608l-.2238-.28966a.3827.3827,0,0,1,.04076.06953L115.65,259.363a.378.378,0,0,1,.0249.08877l-.0488-.36317a.33789.33789,0,0,1,.00012.07933l.04773-.35522a.29738.29738,0,0,1-.01781.06481l.13215-.31315a.28389.28389,0,0,1-.02862.04907l.20163-.261-.00763.00942h1.8174a2.98184,2.98184,0,0,0-.35623-.28779l.24757.19128c-.064-.063-.12612-.12793-.189-.192v1.59312a.38908.38908,0,0,1,.05739-.05886l-.22207.17157a.41716.41716,0,0,1,.082-.04908l-.254.10717a.44449.44449,0,0,1,.10547-.02907l-.27222.03657.01421-.00157-.27092-.0364a.41368.41368,0,0,1,.09742.02727l-.24111-.10174a.43086.43086,0,0,1,.08659.05119l-.2024-.15637a.42262.42262,0,0,1,.05162.05061l-.291-.70247-.00163.01262.03544-.26378a.34412.34412,0,0,1-.01655.06093l.09944-.23564a.35221.35221,0,0,1-.04376.07569l.153-.198a.4077.4077,0,0,1-.06285.06208l.19638-.15172a.44093.44093,0,0,1-.08836.05111l.22955-.09687a.42863.42863,0,0,1-.09825.02628l.253-.034a.38382.38382,0,0,1-.08782-.00036l.25083.0337a.346.346,0,0,1-.07239-.0197l.22374.09442a.36509.36509,0,0,1-.04513-.024l.42829,1.05246a.85161.85161,0,0,1,.056-.19931l-.092.21808a.87359.87359,0,0,1,.10507-.17909l-.13977.1809c.01657-.02087.0337-.04119.05216-.06042a2.24231,2.24231,0,0,0,.18074-.22307l-.13729.1777a.72419.72419,0,0,1,.08741-.08381l-.17195.13284a.625.625,0,0,1,.12978-.07735l-.19451.08208a.54.54,0,0,1,.12938-.0358l-.2081.028a.50165.50165,0,0,1,.11292.00087l-.20106-.027a.56836.56836,0,0,1,.12385.03315l-.17351-.07322a.16719.16719,0,0,1,.03859.02066l-.14555-.11245a.618.618,0,0,1,.10288.10349l-.11161-.14447a.57075.57075,0,0,1,.06488.11132l-.07148-.16939a.491.491,0,0,1,.03009.10766l-.02519-.18742a.432.432,0,0,1,.0012.097l.02506-.18648a.40879.40879,0,0,1-.02551.09615l.07034-.16669a.32431.32431,0,0,1-.03847.06522l.10868-.14067a.34268.34268,0,0,1-.05249.05164l.14012-.10826a.38981.38981,0,0,1-.07307.04266l.16464-.06948a.45549.45549,0,0,1-.11471.03074l.18207-.02446a.5048.5048,0,0,1-.11992-.00083l.1809.02431a.46567.46567,0,0,1-.10311-.02746l.16162.06821a.37926.37926,0,0,1-.07993-.04591l.13625.10527a.31706.31706,0,0,1-.04919-.04928l.10487.13573a.29269.29269,0,0,1-.03046-.05152l.06739.15968a.28773.28773,0,0,1-.019-.07072l.02378.177-.00109-.01107a.7403.7403,0,0,0-.19489-.4705.66539.66539,0,0,0-1.13589.4705Z"/>
        <path d="M107.77789,249.38109a6.81162,6.81162,0,0,1-.83564-2.92444c.00214-.09711.0077-.1955.01954-.29195-.025.20374.03282-.1231.04314-.16379a3.36837,3.36837,0,0,1,.10157-.32712c-.06521.17865.04671-.09306.05534-.10938a2.67967,2.67967,0,0,1,.17525-.28578q.06291-.08889-.01672.02148.06114-.07149.12789-.13775c.02228-.022.24283-.18844.07668-.07659.031-.0209.29733-.17017.20385-.12808q-.1019.03886.05243-.01686a2.00608,2.00608,0,0,1,.224-.058c-.16282.02841.1615-.00249.17367-.00233a1.64194,1.64194,0,0,1,.62492.13183c.02647.009.30211.12323.18536.07035.10877.04927.215.10461.32.16154.24568.13327.4811.284.71316.4395a8.97786,8.97786,0,0,1,1.12287.8673c.21188.18882.41118.38856.61339.58742a2.65337,2.65337,0,0,0,.94566.55688c.67679.27019,1.30608-.51509,1.13589-1.13589a2.12863,2.12863,0,0,0-.44245-.88847,6.47923,6.47923,0,0,0-.56827-.54708,14.45418,14.45418,0,0,0-1.30923-1.04331,6.541,6.541,0,0,0-2.99933-1.29029c-2.19483-.25214-3.75936,1.875-3.58632,3.92192a8.3091,8.3091,0,0,0,1.41282,3.505.82848.82848,0,0,0,1.4305-.83616Z"/>
        <path d="M123.75942,247.5561a3.02178,3.02178,0,0,1,.47219-1.00548c.07114-.09549.25379-.28579.37559-.41052.07355-.07532.14614-.15095.22333-.22261.034-.03154.25353-.21561.15736-.14256a3.79785,3.79785,0,0,1,.533-.33406c.0377-.01977.26931-.12658.13112-.06971a3.38938,3.38938,0,0,1,.34621-.11833q.15116-.04383.30541-.07479c.05146-.0103.10323-.02057.1552-.028-.02349.00336-.15044.01485-.02257.0077a4.62515,4.62515,0,0,1,.69535.00886c-.17658-.01659.07605.01561.13221.02765.10462.02244.20851.04923.311.08.10277.03084.20427.06609.30441.10459-.15975-.06143.12527.063.17442.08892q.16624.08772.32439.18973c.04233.02742.25413.1807.12085.076a3.83949,3.83949,0,0,1,.503.48044c.03541.04016.07058.08069.10412.12244-.01436-.01787-.08936-.12364-.01712-.01713.06013.08865.11918.17727.17312.2699.05407.09283.10293.18793.14949.28471.05769.11991-.00343-.00814-.01091-.02846.02469.067.0488.13428.07022.20245.03206.10207.05963.20579.08272.31025.01677.07589.04411.31512.027.1119a4.59477,4.59477,0,0,1,.01262.69512c-.00359.05363-.00947.107-.01355.16054.009-.11746.01883-.10706-.004.00374-.02526.12289-.0514.24487-.085.36583-.03353.12084-.07324.23948-.11154.35883-.004.01245-.06454.18027-.01761.05766.04556-.119-.03866.08177-.04891.10271-.05493.11225-.11469.22219-.17987.32885-.02789.04565-.057.09053-.08672.135-.01158.01732-.13571.19522-.06459.09656.11548-.16018-.18.23813-.15781.20406a2.04325,2.04325,0,0,0-.09725.18637c-.06305.12268-.12966.24149-.203.35837a1.01979,1.01979,0,0,0,.15713,1.21773,1.051,1.051,0,0,0,1.21773.15713,4.04894,4.04894,0,0,0,2.02438-3.35959,4.89,4.89,0,0,0-.98377-3.53019,5.02234,5.02234,0,0,0-6.73219-1.19231,4.80173,4.80173,0,0,0-2.07426,3.51958.81879.81879,0,0,0,.71824.81354.82837.82837,0,0,0,.90885-.59334Z"/>
        <path d="M128.60689,243.69327c2.97506-4.348,5.9703-8.69426,9.10729-12.92767,3.1646-4.27067,6.3323-8.61835,9.73542-12.70083.4953-.59417-.3071-1.43853-.86419-.86418a115.855,115.855,0,0,0-19.29176,25.72506.761.761,0,0,0,1.31324.76762Z"/>
        <path d="M130.61508,245.99539a63.28342,63.28342,0,0,0,5.61-5.81028c1.81-2.155,3.50472-4.39994,5.15671-6.6777,1.64435-2.26723,3.25333-4.56185,4.75223-6.92814a42.02816,42.02816,0,0,0,3.93171-6.99587c.20908-.53545-.58636-.96115-.95325-.5549a59.7524,59.7524,0,0,0-4.45638,6.1683c-1.596,2.30068-3.18038,4.61086-4.82373,6.8782-1.6363,2.25764-3.33244,4.47255-5.0436,6.6738-1.66529,2.14223-3.29456,4.321-4.98028,6.44a.57069.57069,0,0,0,.80657.80657Z"/>
        <path d="M89.618,220.91342a77.35847,77.35847,0,0,0,6.53186,14.16683q2.02839,3.36087,4.34214,6.53788,1.09163,1.49853,2.24217,2.953c.71384.9043,1.404,2.14344,2.51605,2.545.50644.18289.88626-.35667.8018-.8018-.19257-1.01492-1.19339-1.83-1.83048-2.61747q-1.30357-1.6112-2.5276-3.284-2.25593-3.08149-4.2465-6.3437a112.48365,112.48365,0,0,1-7.15931-13.43827c-.16579-.37762-.80921-.10836-.67013.28252Z"/>
        <path d="M91.70322,217.32454A83.62957,83.62957,0,0,0,98.35068,230.905a94.09655,94.09655,0,0,0,8.69376,12.46766c.61749.73539,1.91849-.24962,1.34363-1.03672-2.95-4.03918-5.86316-8.07529-8.49959-12.32982-2.625-4.236-4.99138-8.64711-7.36621-13.02691-.23685-.43681-.99886-.13816-.81905.3453Z"/>
        <path d="M185.38608,233.76276c-3.84447,2.91932-8.56426,3.8169-12.95216,5.5915-4.10083,1.6585-8.22093,3.93483-10.529,7.8719-4.56432,7.78581.54087,17.89064,8.551,20.75777a17.05484,17.05484,0,0,0,7.5295.933,12.43534,12.43534,0,0,0,3.77258-1.29227,9.3635,9.3635,0,0,0,3.13457-1.79922.82381.82381,0,0,0-.57612-1.39088,19.99191,19.99191,0,0,0-2.688.45685,16.35306,16.35306,0,0,1-3.06551-.03244,23.25724,23.25724,0,0,1-5.5597-.3883,11.86821,11.86821,0,0,1-8.04954-6.3312,9.77573,9.77573,0,0,1,.539-9.67474c2.04021-3.01837,5.67223-4.7247,8.969-5.98211,4.42629-1.68819,9.0057-3.356,12.57-6.58707,1.12039-1.01567-.40451-3.07517-1.64559-2.13275Z"/>
        <path d="M185.85882,234.21692c.62243-.496,1.28913.672,1.40553,1.12725a9.55934,9.55934,0,0,1-.03625,2.97838q-.234,2.98777-.54566,5.969c-.42055,4.0515-.93486,8.09738-1.51233,12.12945-1.15859,8.08964-2.4855,16.10519-4.1786,24.10234-.46357,2.18961-.96331,4.36826-1.51743,6.53677q-.4447,1.74032-.91544,3.47386a6.01275,6.01275,0,0,0-.36087,2.96471.63026.63026,0,0,0,1.044.27563,5.34328,5.34328,0,0,0,1.234-2.46341q.57543-1.82819,1.12205-3.66529c.66012-2.21859,1.31469-4.44,1.943-6.66778,1.279-4.535,2.26632-9.12811,3.28192-13.72679a174.87864,174.87864,0,0,0,3.55694-27.73378c.12342-2.15229.453-4.85575-1.25058-6.53089a3.45234,3.45234,0,0,0-4.63379-.13291c-.938.85016.41575,2.11868,1.3635,1.3635Z"/>
        <path d="M178.05342,267.06348c-.10086,2.96927-.19213,5.93633-.23865,8.907-.02327,1.48585-.02485,2.96764-.00175,4.4535a14.4292,14.4292,0,0,0,.48294,4.19755.32886.32886,0,0,0,.62853,0,14.41124,14.41124,0,0,0,.51486-4.19755c.03464-1.48567.04457-2.96748.03285-4.4535-.02345-2.9704-.09167-5.93754-.16948-8.907a.625.625,0,0,0-1.2493,0Z"/>
        <path d="M171.98379,277.44335c-.12726,3.46117-.2704,6.91351-.133,10.38247.13676,3.45244.49449,6.91012.95085,10.33367.32389,2.42976.78795,4.975,2.39016,6.92243a7.41017,7.41017,0,0,0,7.13065,2.31271,29.24794,29.24794,0,0,0,8.538-3.01774,11.67621,11.67621,0,0,0,5.8422-5.94c1.1233-2.95591-.19679-5.92086.09594-8.93854.136-1.4023.72946-3.00391,2.44937-2.68729a5.78932,5.78932,0,0,0,3.8693-.35264c2.02458-1.08671,2.736-3.28247,3.73723-5.18727a3.3459,3.3459,0,0,1,1.97336-1.87046,30.3894,30.3894,0,0,1,4.03967-.60441c5.95254-1.07027,7.02151-7.54357,8.31492-12.44589,1.71319-6.49334,3.58966-12.96838,5.08068-19.51686,1.41539-6.21631,1.88273-12.43876.41318-18.69063a33.64156,33.64156,0,0,0-9.5004-16.67839c-4.46871-4.22388-10.18494-7.6221-16.37582-8.22718-1.65627-.16188-1.6898,2.17815-.3646,2.694,4.627,1.80128,9.186,3.78517,12.96956,7.07762a31.15862,31.15862,0,0,1,8.86589,12.828,32.08555,32.08555,0,0,1,1.28012,16.49814c-1.05435,6.12162-2.92207,12.12512-4.51078,18.1236-.77736,2.93507-1.53223,5.87716-2.33325,8.80584-.51767,1.89271-1.12744,4.24921-2.8543,5.41575-1.879,1.26933-4.56979.68434-6.64216,1.527-2.16333.87962-3.2778,2.74594-4.13746,4.81312a8.6427,8.6427,0,0,1-1.06741,2.15186c-.73992.91862-2.04446.93846-3.05024,1.40064-2.00325.92055-3.49792,2.11-4.11393,4.31925-.74008,2.65426.36821,5.40032-1.06062,7.90642a12.1766,12.1766,0,0,1-5.565,4.74459,44.1831,44.1831,0,0,1-4.33467,1.73754,9.63758,9.63758,0,0,1-4.28974.81948c-2.64162-.35094-3.28343-3.491-3.65738-5.66931-.57533-3.35124-.997-6.7389-1.42354-10.1117-.45893-3.62859-1.07327-7.24216-1.46767-10.87589a.53.53,0,0,0-1.05919,0Z"/>
        <path d="M184.88409,230.614a11.52392,11.52392,0,0,1,5.33071-5.609,8.82319,8.82319,0,0,1,3.36168-.845,7.72319,7.72319,0,0,0,4.1734-1.1955,7.29173,7.29173,0,0,0,2.37238-3.17115,8.0348,8.0348,0,0,1,2.71046-3.15826,9.51117,9.51117,0,0,1,3.59092-1.45343,12.37624,12.37624,0,0,1,2.19487-.20813,7.70578,7.70578,0,0,0,1.69955.01878.13729.13729,0,0,0,.05993-.227c-.74077-.84153-2.40081-1.01147-3.4633-1.01052a9.77567,9.77567,0,0,0-4.03819.92,9.90483,9.90483,0,0,0-3.44266,2.57111c-.9189,1.08513-1.47456,2.9389-3.11372,2.96855a28.05568,28.05568,0,0,0-4.69869.22706,9.88686,9.88686,0,0,0-4.15046,1.87855,11.99305,11.99305,0,0,0-3.11893,3.43122,21.86672,21.86672,0,0,0-1.6416,4.26338c-.467,1.39283,1.66547,1.93234,2.17365.59925Z"/>
        <path d="M197.08034,231.23155c-.24417,9.7665-.44622,19.52946-1.14064,29.2779-.34394,4.8283-.80016,9.649-1.26974,14.46651-.47476,4.87058-1.262,9.75-1.396,14.64416a.35469.35469,0,0,0,.69351.09386,96.20646,96.20646,0,0,0,2.41324-14.24865c.61019-4.88951,1.03687-9.79424,1.36767-14.71027a247.70986,247.70986,0,0,0,.4726-29.52351.57069.57069,0,0,0-1.14067,0Z"/>
        <path d="M200.0739,228.82276c.74491,8.18966,1.31712,16.41368,1.6377,24.63255q.23857,6.1164.28666,12.24449.02865,3.06088-.0174,6.12185a28.96406,28.96406,0,0,0,.14841,5.91914c.0356.18055.29106.15483.34045,0a24.08988,24.08988,0,0,0,.68941-5.91914q.16336-3.05925.25243-6.12185c.121-4.16762.087-8.32332-.08-12.48924a172.3301,172.3301,0,0,0-2.72421-24.46c-.05507-.29789-.56128-.23353-.53347.0722Z"/>
        <path d="M165.15651,313.185c2.64324-1.69661,6.02174.11817,8.69885.86287a27.97186,27.97186,0,0,0,10.54753.70908c7.30213-.77974,14.33961-3.04,21.63254-3.92957,3.6788-.44872,7.34905-.58914,11.04955-.68543a69.17731,69.17731,0,0,1,11.02854.39475c6.59485.88159,13.398,3.34983,20.09837,2.17058,3.12963-.55081,5.57107-2.30969,8.30874-3.77311a9.18224,9.18224,0,0,1,3.65366-1.31687c1.63923-.09112,2.99208,1.0069,4.42546,1.62722,2.28168.98744,5.75112.76015,6.6466-2.02292.48247-1.49947-.12877-3.0658-.74144-4.426a21.49336,21.49336,0,0,0-2.296-3.96707,24.60864,24.60864,0,0,0-15.10748-9.67641,24.93062,24.93062,0,0,0-10.05367.09414c-3.31742.74191-6.05566,2.60277-9.09829,3.99793-1.66756.76465-3.3231,1.44413-5.12956.76188a7.6703,7.6703,0,0,1-3.06346-2.81975c-.90471-1.236-1.574-2.61256-2.49415-3.836a21.12723,21.12723,0,0,0-3.268-3.597,18.34588,18.34588,0,0,0-9.09985-4.2198,16.96691,16.96691,0,0,0-9.21594,1.499.92988.92988,0,0,0,.466,1.72072,16.73938,16.73938,0,0,1,3.95768-.10037,33.52907,33.52907,0,0,1,3.87912.91385,20.50916,20.50916,0,0,1,6.965,3.2345c4.04,3.10268,6.26331,8.33069,11.49464,9.82829,3.04466.87161,5.96694-.07443,8.7471-1.28962a28.25837,28.25837,0,0,1,8.95332-2.38762A22.57637,22.57637,0,0,1,262.4244,298.027a23.22286,23.22286,0,0,1,5.39281,6.33967c.67386,1.17737,1.00793,2.46351-.77868,2.26912-1.37008-.14907-2.57072-1.12259-3.82284-1.63864-2.73154-1.12577-5.48683-.4217-7.91806,1.08306-2.55412,1.58082-4.81427,3.3061-7.85826,3.82491a26.40949,26.40949,0,0,1-9.44959-.56994c-3.31369-.654-6.59873-1.39163-9.94737-1.85787-3.47843-.4843-6.97153-.99279-10.47632-1.23838a71.69119,71.69119,0,0,0-10.57311.19,94.26527,94.26527,0,0,0-11.92363,1.7703c-3.61287.75617-7.22737,1.68325-10.89642,2.1264a33.8878,33.8878,0,0,1-11.02048-.5639c-3.16375-.64-6.74767-1.31171-9.51747.82021-1.48667,1.14429-.159,3.68174,1.52153,2.603Z"/>
        <g class="cls-16">
          <path class="cls-17" d="M76.0896,194.6438c-2.46649,3.58668-4.84,7.27495-6.95636,11.081-.90709,1.6313-1.72754,3.52639-1.05309,5.39274.57658,1.59552,2.03588,2.53022,3.43648,3.3426a69.25328,69.25328,0,0,0,11.31084,5.23916,55.667,55.667,0,0,0,5.78571,1.85035,5.48855,5.48855,0,0,0,5.19542-1.14578,16.27575,16.27575,0,0,0,3.09325-4.74356c1.03868-1.98428,2.02338-3.99872,3.03387-5.99752.705-1.39458,2.70973-4.42738,1.34723-5.88624-1.59035-1.70283-3.25927,1.23452-3.8925,2.3838-1.07976,1.95973-2.02206,4.00312-3.01767,6.007-.8655,1.742-1.52163,3.852-2.73335,5.39151-1.18352,1.50369-3.18259.65215-4.73544.20617a62.15244,62.15244,0,0,1-6.0257-2.09722,63.79135,63.79135,0,0,1-6.44355-3.03793c-1.50881-.81319-4.14377-1.717-3.46989-3.84309a38.7471,38.7471,0,0,1,3.2392-6.43248c1.21611-2.2247,2.49588-4.41751,3.80851-6.58644.7512-1.24125-1.12017-2.29141-1.923-1.124Z"/>
        </g>
        <path d="M151.09468,196.66581a28.1513,28.1513,0,0,0,7.09711-3.79233,26.114,26.114,0,0,0,5.83971-6.26245,32.56175,32.56175,0,0,0,3.43057-7.37536,21.92714,21.92714,0,0,0,1.52453-8.06608,1.34414,1.34414,0,0,0-.94859-1.24591l.20043.03559a.69024.69024,0,0,0-.9602,0l.07281-.03559a1.26744,1.26744,0,0,0-.90244.90243,55.63567,55.63567,0,0,1-2.00948,7.0094,28.41728,28.41728,0,0,1-3.87126,6.32809,36.96367,36.96367,0,0,1-10.63466,9.74723c-1.43946.81827-.46659,3.39275,1.16147,2.755Z"/>
        <path d="M149.42325,195.87285c1.0713,2.2097,2.2403,4.34274,3.44409,6.48275.62352,1.10846,1.28065,2.1988,1.89723,3.31092a3.594,3.594,0,0,1,.66822,2.56057c-.43975,1.84968-2.74,2.90828-4.17868,3.86391-1.94828,1.29413-3.92863,2.53694-5.95211,3.71077-1.80467,1.04691-3.7206,2.27978-5.82069,2.60458-2.13434.3301-3.189-1.00061-4.0448-2.76212-1.0397-2.13989-1.99042-4.31657-3.053-6.44708a30.23016,30.23016,0,0,0-3.72893-6.32867c-.6035-.71024-1.48237.09013-1.38448.80593a28.43635,28.43635,0,0,0,2.07665,6.53594c.84257,2.13326,1.70955,4.24656,2.64283,6.342a9.81089,9.81089,0,0,0,3.29655,4.49822,7.03288,7.03288,0,0,0,5.5463.72335,20.74593,20.74593,0,0,0,5.4479-2.50328q2.74281-1.60453,5.32028-3.4553c2.62749-1.88632,6.69291-4.57558,6.575-8.27521-.06806-2.13646-1.57426-4.1371-2.61325-5.91028-1.36415-2.32813-2.73315-4.62832-4.23961-6.86734a1.10079,1.10079,0,0,0-1.89951,1.11031Z"/>
        <path d="M126.27887,203.436c-.36069,2.409-.68171,4.81465-.93807,7.23709-.12213,1.1541-.22794,2.31-.34014,3.46513a18.94027,18.94027,0,0,1-.49508,3.78981c-.48642,1.55671-2.70251,2.00212-4.10267,2.286a30.10585,30.10585,0,0,1-6.49831.41142,28.25993,28.25993,0,0,1-6.56138-.82192c-1.49166-.39151-2.91717-1.00988-3.41766-2.57744-.652-2.042-.52067-4.5253-.66832-6.6472-.16228-2.332-.09135-4.9872-1.02658-7.15143-.52813-1.22215-2.35444-.75112-2.68053.35033-.6,2.02684-.2152,4.47163-.10425,6.55451.11436,2.147.10471,4.32788.36271,6.46292a7.32943,7.32943,0,0,0,2.29787,4.88515,10.67022,10.67022,0,0,0,4.6949,2.162,34.21216,34.21216,0,0,0,12.74667.401,11.49326,11.49326,0,0,0,4.74409-1.63989,7.04373,7.04373,0,0,0,2.78576-3.96622c.66877-2.18667.64222-4.70977.87428-6.97405.2703-2.63753.45818-5.27288.594-7.92029.06542-1.27543-2.07274-1.606-2.26726-.30684Z"/>
        <path d="M120.947,177.77465a20.66626,20.66626,0,0,0-2.59272-4.94484,21.357,21.357,0,0,0-4.01652-4.02543.67451.67451,0,0,0-.44383-.1512c-.01363-.01519-.028-.02958-.04151-.04494a.57434.57434,0,0,0-.98641.21511.93779.93779,0,0,0-.29225.30346c.05-.08793-.14017.11563-.17272.14572-.09119.08432-.18412.16673-.27477.25168-.15692.147-.31652.28759-.4807.42652-.37059.31356-.73685.63356-1.08682.97008a15.90846,15.90846,0,0,0-1.81361,2.26321c-.33367.46327.41769,1.0437.79338.61218a13.36993,13.36993,0,0,1,1.408-1.34432,1.39241,1.39241,0,0,0,.8459.77992,1.408,1.408,0,0,0,1.75913-.55722l.08733.03153q.758.27372,1.51609.54738a30.57108,30.57108,0,0,1,1.58153,3.44449c.20492.52828.39571,1.06288.58141,1.59918a1.20638,1.20638,0,0,0-1.30328,1.332,12.73362,12.73362,0,0,1-3.43121,10.5055c-.01417-.009-.0252-.02058-.03993-.0292a1.2898,1.2898,0,0,0-1.72738.453q-.13062.18459-.03649.04978-.08307.09757-.17246.18943c-.02593.02669-.2519.23106-.25716.24447a3.44491,3.44491,0,0,1-.702.412c-.00989-.00356-.30244.0996-.33868.10966-.03476.00963-.32137.06845-.34963.08105-.10706.01175-.21536.01948-.32247.02122-.03623.00063-.32921-.01537-.35874-.00964a3.33937,3.33937,0,0,1-.72378-.19792c-.00026-.00861-.27494-.14343-.30728-.1624-.03081-.01807-.27362-.18357-.29187-.18837a3.61552,3.61552,0,0,1-.54339-.54088c-.00047-.01252-.17046-.25873-.189-.29051-.02414-.04125-.22754-.46747-.14071-.253a1.32817,1.32817,0,0,0-1.58357-.89913,1.30276,1.30276,0,0,0-.56057.34573,2.64732,2.64732,0,0,1-.023-.8945.84573.84573,0,0,0-.57284-1.00895.82717.82717,0,0,0-1.00894.57288,6.07533,6.07533,0,0,0,.57186,3.98236,5.56292,5.56292,0,0,0,3.0559,2.62867,5.8589,5.8589,0,0,0,5.68657-1.20738c1.82766,1.34593,4.31493,2.49241,6.58655,1.65758,2.29325-.84277,3.24814-3.07229,3.52269-5.34357.04766-.39414.07473-.79231.09328-1.1918C123.01577,185.27738,122.152,181.01405,120.947,177.77465Z"/>
        <path class="cls-10" d="M158.10424,163.764c-.718-3.20235-2.23444-6.41174-5.2425-8.032-4.76552-2.56675-8.97872.8799-11.49388,4.8311-.95767,1.50445-6.61987,12.81851-2.3223,12.64741,1.61635-.06435,2.85592-1.6204,3.9376-2.64767a9.61564,9.61564,0,0,1,3.84728-2.62536,2.93463,2.93463,0,0,1,3.3269.83462c.89107,1.27272,1.13409,2.83219,2.26453,3.97026a3.53491,3.53491,0,0,0,4.32168.69739C160.0539,171.50663,158.77761,166.76722,158.10424,163.764Z"/>
        <path d="M92.55183,226.28072a12.26458,12.26458,0,0,0-1.25126-1.98746.75756.75756,0,0,1-.16906-.53172q-1.06008-1.07287-2.13268-2.13149a4.61267,4.61267,0,0,0-.84069-1.28919,10.23417,10.23417,0,0,0-2.83333-1.76129,1.26993,1.26993,0,0,0-.85122-.12455c-.10481-.04769-.20551-.09628-.31377-.14339-1.38717-.60373-2.97893,1.018-1.72784,2.23941a25.80635,25.80635,0,0,0,4.09676,3.34511,32.553,32.553,0,0,1,4.50054,3.634,1.31523,1.31523,0,0,0,2.04586-.24485C92.899,226.94615,92.7332,226.60043,92.55183,226.28072Z"/>
        <path d="M99.78446,202.9103c-1.303,2.07981-2.797,3.95176-3.96786,6.125-1.054,1.9564-2.07312,3.93616-3.1575,5.8756a4.32451,4.32451,0,0,1-4.79877,2.48075,22.11878,22.11878,0,0,1-6.28226-1.9119c-2.16781-.94822-4.31036-1.95487-6.4586-2.94631-1.01438-.46815-2.05935-.89971-3.05241-1.41236-.42793-.22091-.74364-.30578-.825-.78424a3.10444,3.10444,0,0,1,.3942-1.314,106.548,106.548,0,0,1,6.14807-12.43545,1.71228,1.71228,0,0,0-2.95479-1.72715,99.72535,99.72535,0,0,0-5.833,11.5504c-.75223,1.74395-1.73,3.67584-.89645,5.57127.83345,1.89518,3.08553,2.53332,4.82595,3.32272,3.9306,1.78279,7.89405,4.02282,12.09725,5.08823,3.82395.96928,7.825.41584,10.13812-3.05206a69.60365,69.60365,0,0,0,3.34513-6.17023c.609-1.15155,1.19787-2.30319,1.7269-3.49423.53488-1.20419.86425-2.47953,1.40365-3.68317a1.07363,1.07363,0,0,0-1.85261-1.08289Z"/>
        <g>
          <path class="cls-18" d="M90.271,50.21478H88.62452v4.52735H82.55371V36.73529h8.66944a10.64526,10.64526,0,0,1,4.34717.82227,6.65632,6.65632,0,0,1,2.98437,9.33886,6.17959,6.17959,0,0,1-2.521,2.28907L99.815,54.74213H93.33252Zm2.41846-8.24511a2.705,2.705,0,0,0-1.85254-.55274h-2.2124v4.21875h2.2124a2.705,2.705,0,0,0,1.85254-.55273,2.27165,2.27165,0,0,0,0-3.11328Z"/>
          <path class="cls-18" d="M116.04688,50.163v4.5791H101.0752V36.73529h14.63721v4.57813h-8.669v2.10937h7.61426v4.374h-7.61426V50.163Z"/>
          <path class="cls-18" d="M130.01514,51.60346h-6.84277l-1.209,3.13867h-6.17383l7.87159-18.00684h5.96826l7.87207,18.00684h-6.27686Zm-1.67187-4.373-1.74952-4.52734-1.749,4.52734Z"/>
          <path class="cls-18" d="M150.853,37.55756a6.4853,6.4853,0,0,1,0,11.93652,10.63279,10.63279,0,0,1-4.34766.82324h-2.59863v4.42481h-6.0708V36.73529h8.66943A10.64923,10.64923,0,0,1,150.853,37.55756Zm-2.88086,7.52539a2.27163,2.27163,0,0,0,0-3.11328,2.70582,2.70582,0,0,0-1.85254-.55274h-2.21289v4.21875h2.21289A2.70587,2.70587,0,0,0,147.97217,45.08295Z"/>
          <path class="cls-18" d="M171.021,50.163v4.5791H156.04932V36.73529H170.686v4.57813h-8.66895v2.10937h7.61426v4.374h-7.61426V50.163Z"/>
          <path class="cls-18" d="M180.436,50.21478h-1.64649v4.52735h-6.07128V36.73529h8.66992a10.64123,10.64123,0,0,1,4.34668.82227,6.65513,6.65513,0,0,1,2.98437,9.33886,6.17823,6.17823,0,0,1-2.52051,2.28907L189.98,54.74213h-6.48242Zm2.418-8.24511a2.70414,2.70414,0,0,0-1.85254-.55274h-2.21192v4.21875h2.21192a2.70419,2.70419,0,0,0,1.85254-.55273,2.27163,2.27163,0,0,0,0-3.11328Z"/>
        </g>
      </g>
    </g>
  </g>
</svg>
