<?xml version="1.0" encoding="utf-8"?>
<!-- Generator: Adobe Illustrator 25.2.1, SVG Export Plug-In . SVG Version: 6.00 Build 0)  -->
<svg version="1.1" id="Layer_2" xmlns="http://www.w3.org/2000/svg" xmlns:xlink="http://www.w3.org/1999/xlink" x="0px" y="0px"
	 viewBox="0 0 366.9 366.9" style="enable-background:new 0 0 366.9 366.9;" xml:space="preserve">
<style type="text/css">
	.st0{fill:#EFAA0F;}
	.st1{fill:#FEE100;}
	.st2{fill:#FFC50D;}
	.st3{fill:none;}
</style>
<circle class="st0" cx="190" cy="190" r="176.8"/>
<circle class="st1" cx="176.8" cy="176.8" r="176.8"/>
<circle class="st2" cx="176.8" cy="176.8" r="135.6"/>
<path class="st0" d="M54.9,192.9c0-74.9,60.7-135.6,135.6-135.6c37.7,0,71.8,15.4,96.4,40.3c-24.6-34.1-64.7-56.4-110-56.4
	C102,41.3,41.3,102,41.3,176.8c0,37.2,15,70.8,39.2,95.3C64.4,249.9,54.9,222.5,54.9,192.9z"/>
<path class="st3" d="M312.4,176.8c0,74.9-60.7,136.1-135.6,135.6c-75-0.6-136.3-64.8-135.6-135.6C42,102,102,41.3,176.8,41.3
	S312.4,102,312.4,176.8z"/>
</svg>
