<?xml version="1.0" encoding="utf-8"?>
<!-- Generator: Adobe Illustrator 25.2.1, SVG Export Plug-In . SVG Version: 6.00 Build 0)  -->
<svg version="1.1" id="Layer_1" xmlns="http://www.w3.org/2000/svg" xmlns:xlink="http://www.w3.org/1999/xlink" x="0px" y="0px"
	 viewBox="0 0 1200 675" style="enable-background:new 0 0 1200 675;" xml:space="preserve">
<style type="text/css">
	.st0{fill:#323C54;}
	.st1{fill:#EBF4FB;}
	.st2{fill:#C7E0F5;}
	.st3{fill:#EAF2FB;}
	.st4{fill:#E9F2FA;}
	.st5{fill:#B2DAF4;}
	.st6{fill:#B2DBF4;}
	.st7{fill:#E8F1FA;}
	.st8{fill:#C5DFF3;}
	.st9{fill:#F7EBF4;}
	.st10{fill:#B0D9F4;}
	.st11{fill:#E7F0FA;}
	.st12{fill:#F1E6F2;}
	.st13{fill:#364057;}
	.st14{fill:#E74242;}
	.st15{fill:#1D1E1D;}
	.st16{fill:#F7FBFE;}
	.st17{fill:#952D2D;}
	.st18{fill:#FEFEFE;}
	.st19{fill:#1C1D1C;}
	.st20{fill:#FFFFFF;}
	.st21{fill:#F4AB37;}
	.st22{fill:#FDFDFC;}
</style>
<g>
	<g id="ajbOlw.tif_1_">
		<g>
			<path class="st0" d="M207.7,461.9c8.4-4.5,16.6-1.9,24.6,0.8c11.7,3.9,21.8,10.7,33,20.3c-2.4-18.7-1.3-35.2-0.4-51.7
				c3.7-71.6,19.4-140,59.4-200.5c55.1-83.3,134.2-130.4,231.7-147.2c51.9-9,104.3-10.8,156.2,0.6c69.2,15.2,123,54.6,167.3,108.5
				c51.9,63.1,78.6,136.3,86.6,217c2.3,23.5,3.8,47.1,3.7,70.8c0,6.1,0.5,9.8,8.3,5.5c9.9-5.5,20-4.4,29.2,2.7
				c1.8,7.8-3.7,3.9-5.9,3.2c-8.6-2.7-16.6-2.6-24.7,1.8c-4.5,2.5-8.1,5.7-8.5,10.5c-0.4,5.8,6,2.1,8.5,4.7c1.6,1.7,5.4,2.2,4.5,5.1
				c-0.9,2.9-4.1,2.2-6.6,1.8c-6.2-1-12.5-2-18.8-1.3c-1.8,0.2-4.1,0.2-4.3,2.6c-0.1,1.8,1.7,2.4,3.1,3.1c3.7,1.8,7.5,3.4,11,5.5
				c2.2,1.3,6,2.6,4.4,6c-1.4,3-4.5,0.8-6.8,0.4c-6.9-1.4-13.2-4.5-19.1-8.1c-13.6-8.2-27.1-10-42.4-4.1c-5.9,2.3-6.9,4.7-6.9,9.9
				c-0.1,11-0.5,22.1-0.9,33.1c-0.1,3.2-0.1,6.8-4.6,6.9c-22.2,0.4-44.6,3.3-66.2-4.5c-19.8-9.7-40.2-18.1-60.9-25.6
				c-3.8-1.4-8.1-2.1-10.7-5.6c-7.8-10.8-18.8-10.4-31-9.8c2,4,7.9,5.6,5.4,9c-2.7,3.6-7.2,0.2-10.3-1.3c-14.6-7.2-30-8.8-46.1-7.8
				c-5.4,0.4-6.9,2.1-6.8,7.3c0.2,12.6,0.3,25.2-2.1,37.6c-3.1,0.8-6.2,1.6-9.2,2.5c-19.2-0.9-38.7,2.3-57.5-2.5
				c-13.5-3.4-25.5-2.9-36.8,5.4c-1.6,1.1-3.3,2.3-5.1,0.6c-2.3-2.3-0.1-4,1.3-5.6c5.1-5.6,11.8-8.5,20.8-9.9
				c-18.1-10.1-34.4-19.5-51-28.5c-5-2.7-8.9-6.9-15.8-7.1c-13.6-0.5-26.3,1.2-38.2,8.2c-6.3,3.7-13.4,6.3-20.6,6.7
				c-15.5,0.9-30.7,2.3-45.1,8.5c-1.9,0.8-4.5,2-5.8-0.8c-1-2.3,1.3-3.1,2.7-4.3c1.1-0.9,3.1-1.3,1.5-3.9c-7-0.7-14.1-0.7-21.3,0.2
				c-11.3,1.4-22.3,4.3-33.1,7.9c-2.3,0.8-5.7,4-7.3,0.1c-1.2-3,3.2-3.9,5.1-5.6c2.5-2.2,6.6-2.1,8.3-5.9
				c-18.9-12.5-39.2-20.6-61.8-22c-9.3-0.5-16.9-3.4-20.7-12.2c-7.7-17.9-23.8-24-40.5-29.3C223.4,467.4,213.6,469.4,207.7,461.9z
				 M644.9,558.2c0.3,0.5,0.7,1,1.3,1.2c1.2,1.2,2.6,3.8,4.3,2.2c1.9-1.8-0.9-2.8-2.1-3.8c-0.6-0.7-1.2-1.3-1.8-2
				c-0.6-0.7-1.2-1.3-1.8-2c-3.8-6.3-11.1-10.2-13.5-17.5c0.8-0.7,1.5-1.4,2.3-2.2c6.8,8,13.6,15.9,20.7,24.1c2-2.7,2.6-3.2,2.6-3.6
				c-0.5-23.9-1.1-47.8-1.4-71.8c-0.1-5.3-3.1-4.2-6.2-4.2c-15.4-0.2-30.9,0-46.3-1.1c-6.1-0.4-6.7,1.4-6.6,6.3
				c0.4,22.4,0.7,44.7,0.9,67.1c0.1,12.2,0,12,11.8,11.6c10.7-0.4,21.5-0.1,32.9-0.1c-2.1-4.9-7-6.2-7.3-11c4.1,0.2,5.5,3.7,8.3,4.8
				C643.6,557,644.3,557.6,644.9,558.2z M953.9,411.4c-0.4-0.5-0.8-0.9-1.3-1.4c-6.1-9-15.8-14-25.3-22.3
				c13.6,1.6,20.4,10.5,29.2,18.5c0.6-11-2-20-3.6-29.1c-4.3-24.1-10.5-47.8-18.7-70.9c-1.5-4.2-2.3-7.3-8.1-4
				c-8.4,4.7-17.5,8.2-26.3,12.3c-17.9,5.2-36,9.7-55.3,11.7c28.6,34.1,37.4,51.7,44.9,88.2c1.4,7-0.5,16.5,4.8,20.3
				c5.8,4.1,14.4-1.3,22-1.6c3.4-0.1,6.8-1.9,10.2-3c8.8-2,16.3-6.9,24.9-10.7c-3.8-5.6-10.6-7.3-14-13.6c6.1-0.5,8.9,4.4,13.1,5.6
				c0.7,0.6,1.4,1.1,2.1,1.7c0.7,0.6,1.4,1.1,2.1,1.7c0.2,0.9,0.6,1.7,1.7,1.2c0.1-0.1-0.4-1.4-0.6-2.1
				C955.1,413,954.5,412.2,953.9,411.4z M280.1,405.1c-1.8-2.4-3.1-1.4-4.2,0.7c-5.8,7.1,3.3,12.7,1.9,19.3
				c-2.5,0.6-2.2-3.7-6.3-2.5c0,9.6-0.2,19.5,0,29.5c0.2,10.6-0.2,21.4,1.4,31.9c2.7,17.8,12.3,23.5,24.1,21.4
				c8.2,2,16.5,3.8,24.6,6.2c7.8,2.4,14.9,6.5,22.3,10c6.9,3.4,11.6,11.6,22.9,11.3c-6.7-6.2-12.8-10.1-14.1-17.6
				c6,4.4,10.8,10.4,17.9,13.1c1.1,1.3,2.5,3.3,4,1.4c1.1-1.3-1.3-2.1-2.3-3c-8-8.3-16.6-16.1-21.6-26.9c9.2,7.4,16.3,17.3,27,23.3
				c-1.7-26.9-3.6-52.9,0.8-79c0.6-3.6,0.6-5.9-3.7-6.9c-31.9-6.9-62.1-18.7-92-31.2C281.9,405.9,281,405.5,280.1,405.1z
				 M395.6,168.7c-4.8-2.6-7.5,0.9-10.6,3.6c-27.4,24.2-50.3,52.1-67.3,84.6c-7.2,13.8-10.8,12.1,7.6,17.9
				c18.6,8.1,37.8,14,58.7,19.5c-8.3-13.2-8.3-13.2-8.3-19.2c8.7,9.6,14.2,22.4,28.6,23.5c-5.7-7-11.3-13.9-15.3-22.2
				c9.6,7.6,16.2,18.6,27.2,24.6c1.4,0.7,2.8,1.4,4.2,2.1c36.8,8.3,73.9,13.9,111.7,13.5c16,2.9,32,5.6,41.6-12.7
				c0.1-0.3,0.3-0.6,0.4-0.8c30.2-28.3,67.2-39.7,107.5-42c6.8-0.4,7.6-3.1,7.1-8.7c-1.3-14.7-2.2-29.4-3.3-44.2
				c-4.1-6.4-8.6-5.5-13.3-0.7c-3.2,0.1-6.3,0.2-9.5,0.3c0-2.2,0-4.4,0-6.6c31.5-1.9,63-4.7,94.3-8.6c7.5-0.9,8.6-2.7,4.8-9.6
				c-12.7-23.4-28-44.9-45.7-64.8c-3-3.4-5.8-4.5-10.6-3.7c-29.7,4.7-59.8,6.5-89.7,3.2c-12.4-1.4-20.6,0.7-24.1,13.3
				c-3.2-1.5-3-4.5-3.3-7.3c3.4-6.2,2-8.7-5.5-9.7c-18.5-2.3-36.4-7.4-53.7-14.3c-2.8-1.1-5.3-1.1-8.2-0.4
				c-31.1,8.1-60.6,19.3-84.2,42.4c-4.8-3.7-9.8-9.4-13,1.4c-10,6.4-21.2,11.4-27.8,22.1C396.1,166.5,395.8,167.6,395.6,168.7z
				 M860,481.2c-5.3-0.6-10.6-1.1-15.8-2c-5.2-0.9-7,0.5-6.9,6.2c0.3,19.8,0.1,39.5-0.1,59.3c0,6.2-2.8,15.1,0.2,17.9
				c4.1,3.8,12.3-0.6,18.8-0.7c7,0,14,0,21.5,0c-1.5-5.4-6.7-8.3-6.6-14.3c6.4,3,7.5,10.1,14,12.2c-4.1-9-11.6-16.1-13.1-26.9
				c4,4.7,8,9.5,14,16.5c0-20.2,0-37.7,0-55.2c0-14.9-0.1-14.9-14.6-13.3C867.6,481.2,863.8,481,860,481.2z M336.4,290.5
				c-2.4-6.5-9.2-5-13.8-7.6c-15.2-6.3-15.3-6.4-21.3,9c-11,27.9-19,56.6-23.5,86.3c-3.3,21.9-6,16.2,13.7,24.4
				c5.3,2.1,10.6,4.2,16.3,6.4c0.4-4.1,0.7-6.9,1-9.6c1.2,0,2.4,0,3.6,0c1.5,4.1-4.2,10.1,3.6,12.7c31.6,10.6,63.5,20.3,96.7,24.8
				c10.2,2.4,20.6,4.1,32.9,4.2c-7.6-7.3-13.5-13.8-17.4-23.7c5.4,1.9,6.1,5.7,8.4,8c6.9,7.2,13,15.3,23.6,17.5
				c1.7,0,3.4,0.1,5.1,0.1c13.7,2.4,27.6,1.1,41.4,1.6c6,0.2,8-1.4,8.5-7.6c3-38,14.9-73.1,36.1-104.9c1.2-1.7,3.1-3.2,2.7-6.3
				c-14.7,1-29.3-0.2-44-1c-18.2-3.3-18.2-3.3-21.8,12c-0.5,1.1-1.1,2.2-1.6,3.3c-12.5,32.5-17,66.7-21.6,100.8c-1.5,0-3.1,0-4.6,0
				c-2.8-2.2-6.4-3.4-8.1-7c0.2-1.9,0.3-3.9,0.5-5.8c2.1,1.7,4.2,3.4,6.8,5.5c1.4-4.7,1.8-8.4-2.3-11.2c1.8-0.3,3.8-0.5,4.6-2.5
				c0.3-3.7,0.5-7.4,1-11.1c2.7-20.4,8.4-40.2,12.6-60.3l-0.1,0c1.6-0.9,1.7-2.4,1.6-3.9c2.8-7.3,5.6-14.6,8.6-22.5
				c-48.1-5.5-94.1-15.8-139-30.9c-3.1-1.1-4.7-0.2-6.1,2.2C338.6,293.3,337.1,292.5,336.4,290.5z M846.2,371.6
				c1.7,1.4,3.6,4.8,5.6,2.3c1.4-1.6-2.2-2.8-3.8-4c-1.6-1.2-3.2-2.5-5.1-3.9c3.5-1.6,5.9-0.3,8.2,1.4c2.9,2.3,5.3,3.8,8.9,0.5
				c4.1-3.8,0.8-6.3-0.9-8.9c-23-35.8-56.3-54.7-98.2-59.2c-2.4-0.3-5.5-1.3-4.8,3.2c0,10.1-1,20.4,0.3,30.3
				c1.3,10,2.8,19.5-0.2,29.4c-1.8,5.9,0.8,9.4,7.3,8.3c6.6-1.1,12.5,0.9,18.5,2.9c16.5,5.4,29.4,15.6,38.3,30.2
				c9-9.3,17.5-18.1,26.1-27c-1.9-3.1-7.2-3.6-9.2-7.8C841.2,366.2,843,371.6,846.2,371.6z M677.5,100.3c5.1-0.9,9.1,1.8,13,4.4
				c2.4,1.5,4.5,2.8,7.8,2.3c12.1-1.9,24.2-3.6,38.2-7.5c-31.4-10.1-61.6-14.6-92.6-14c-27.8-1.6-86.1,4.4-104.3,11
				c43.9,12.2,87.5,16.3,133.5,13c-8.3-7.2-17.8-8.3-27.4-14.2c16.5,0.6,27.4,10.8,41.6,14.1C685.1,103.3,679.6,104,677.5,100.3z
				 M860,472.8c6.6,0.3,13.2,0.3,19.8,1.1c5,0.6,5.8-1.6,5.7-5.8c-0.6-28.1-3.5-55.8-13.2-82.4c-5.4-14.9-5.5-14.9-17.8-4.2
				c-3.3,2.9-6.4,6-9.6,9c-6,5.1-11.9,10.2-18,15.1c-3,2.4-3.2,4.6-1.6,8.1c5.9,12.4,7.9,25.8,9.8,39.2c1,7.1-0.6,17.8,3.3,20.5
				C843.1,476.6,852.6,473.3,860,472.8z M930.1,509.2c12.8,5.7,15,4.4,15.3-8.9c0.3-17.5-0.2-35-2-52.5c-1.7-17-1.3-17-17.2-11
				c-9.3,1.6-18.4,4.1-27.9,3.9c-3.6,0-4.9,1-4.8,4.9c0.6,21.1,1,42.2,1.2,63.3c0,5.6,1.9,6.3,6.8,4.6
				C910.7,510.3,920.1,507.2,930.1,509.2z M721.7,115.4c19.8,20.8,36.7,43.7,49.1,69.8c1.8,3.8,3.9,5,8,4.3c17-3.1,34.2-5,50.9-9.5
				c7.7-0.5,15-2.3,23.4-4.6c-29.2-30.1-61.2-53.5-98.6-69.3c-1.7-0.7-3.8-1.9-5.3-1.6c-9.5,2.3-18.9,4.8-28.2,7.6
				C718.8,112.9,720.1,114.6,721.7,115.4z M758.2,400.8c-1.6-2.1-3.6-1.7-5.6-0.7c1.1,0.9,2.3,1.7,3.4,2.6
				c6.5,7.4,15.1,12.8,18.8,23c-6.6-5.5-13.3-11.1-21.4-17.9c2.8,12.9,4.6,23.8,4.2,34.9c-0.2,4.6,2.3,5.6,6,6.7
				c11.8,3.5,23.4,7.4,35.1,11.5c9.3,3.2,18.6,6.8,28.6,10.5c-0.8-14.5-2.5-27.6-5.5-40.5c-2.5-10.5-5.6-18.8-19.5-19.5
				c-10.9-0.5-21.5-5.5-32.9-8.7c1.7,5.1,7.6,5.6,8.2,12.3C770.2,409.6,764.2,405.2,758.2,400.8z M661.6,316.6
				c22-13.8,45.7-23,72.7-25.4c-51.9-32.2-90.5-26-141.4,8.3c-8.7,6-16.1,13.3-22.9,22.4c19.8,6.1,38,13,56.2,20.2
				c2.5,1,6,2.9,7.2-0.9c1-3.1-2.9-3.4-4.9-4.4c-6.9-3.2-14-6.2-20.9-9.2c12-2.1,21.2,6,34.1,8.4c-4.1-6.5-11.1-6-12.8-12.8
				c13.7,11,22.9,2.6,32.2-5.7C661.3,317.2,661.4,316.9,661.6,316.6z M739.5,357.5c3.8,2.4,7.7,4.8,11.5,7.2
				c0.4-0.7,0.8-1.3,1.2-1.9c-3.7-2.5-7.3-5-11-7.5c0.5-1.4,0.6-3.2,3-1.9c7.6,4.2,7.9,0,7.8-6.3c-0.2-14.2,0.1-28.3,0.6-42.5
				c0.2-4-0.3-5.6-4.7-5.6c-41.9,0.4-77.2,15.9-106.3,45.8c-2.3,2.4-3.3,4.1-0.2,6.8c13.9,12,25.9,25.7,38.1,39.4
				c3.5,3.9,5.6,3.2,9,0.2c9.8-8.7,21.4-14.4,34-17.8c7.6-2.1,15.4-3.3,24.1-5.1c-11.8-7.5-22.6-14.3-33.4-21.2
				c0.5-0.8,1-1.5,1.5-2.3C723,349.1,731.2,353.3,739.5,357.5z M395.5,530.5c10.4,3.8,20.5,5.1,30.5-1.5c3.3-2.2,7.6-3,11.5-4.2
				c2.3-0.7,5.1-1.9,7,0.6c2,2.6-2.1,3.9-2,6.6c14,0,25-7.3,36.6-13.5c-5-5.9-12.6-8.5-16-18.3c6.6,4.7,11.2,7.9,15.7,11.3
				c7.4,5.7,7.3,5.8,14.5,3.6c-8-6.8-15.9-13.6-23.9-20.3c15,3.9,23.9,18.1,40.8,23c-6.1-9.1-14.3-12.9-16.5-21.9
				c6.6,5.5,13.2,10.9,21.3,17.5c-2-19.9-2-38-1.5-56.1c0.1-3.6-0.9-4.9-4.8-4.8c-33.5,1-66.7-2.5-99.8-7.4
				c-6.1-1.3-12.3-2.5-18.4-4c-4.7-1.2-5.7,0.5-6,5.1c-1.5,24.1-2.5,48.3-1.9,72.5C382.8,528.9,385.8,532.4,395.5,530.5z
				 M583.9,461.4c1.2,1.6,1.9,3.8,4.5,4.1c1.4-3-0.6-4.6-2.6-6.1c-1.9-5-7.6-8.1-8-14.3c5.1,0.9,6.1,6.9,10.9,7.1
				c0.2-0.5,0.5-0.8,0.5-1.1c2.8-35.5,12.4-68.7,34.4-97.4c3.6-4.7-0.5-5-3.3-6.1c-15.8-6.2-31.8-12.1-47.4-18.8
				c-5.5-2.4-8.1-1.7-11.4,3.1c-18.2,26.3-30.4,55-35.8,86.5c-4.3,25.6-4.5,25.5,19,36.6c11.8,5.6,23.7,10.8,37.7,15.2
				c-4.9-11.4-15.3-16.4-21.1-27.9C571.7,448.1,577.2,455.5,583.9,461.4z M839.2,186.8c-43.8,8-87.8,15.2-135,19.2
				c8.3,4.3,13.8,7.1,19.3,10c-2.1,4-4.2,1.6-6.7,0.3c-5.7-3.1-11.6-5.9-17.5-8.7c-2.6-1.3-5.8-2.7-4.1,2.7c-3.9,1-3.5,3.5-3,6.7
				c2,11.2,3.2,22.5,2.7,33.9c-0.3,6.8,1.1,9.6,8.9,9.9c51,1.7,95.3,19.5,131.5,56.1c1.7,1.7,3.2,4.1,6.2,3.4
				c18.6-3.9,37.3-7.6,55.9-15.3c-5.7-4.6-12.6-5.5-17.2-12.1c9.9,1.3,16.6,7.6,25.1,8.6c-11-9.6-24.4-15.4-35.7-24.7
				c6.3,2.6,12.5,5.1,18.8,7.7c5.4,3,10.8,6.1,16.1,9.1c1.5-2.5,0.3-4.1-0.4-5.8c-14.6-36.7-37.5-68.4-61-99.6
				C842.1,186.7,840.9,186,839.2,186.8z M635.4,352.5c-30.3,33.7-36.5,75.2-40.6,117.3c-0.5,4.8,3.2,6.1,6.9,5
				c15.1-4.3,30.6-1.6,45.8-2c6.6-0.2,8.4-1.8,8.9-7.9c2-22.1,6.8-43.5,20.7-61.7c2.5-3.3,0.8-4.9-1.3-7
				C662,382.1,647.9,368.3,635.4,352.5z M757.7,453.7c0,24.3,0.2,47-0.2,69.7c-0.1,6.5,2.8,8.5,8.3,10.1
				c19.8,5.9,39.1,12.9,59.7,23.1c-6.9-12.5-12.5-23.7-15.4-36c8,6.9,9.8,18,17.2,26.3c2-10.8-7.2-17-8.4-26.2
				c5.1-0.2,4.4,5.9,8.8,6.9c0-15.1,0-30.1,0-45c0-3.4-2.5-4.1-4.8-4.9C801.7,470.4,780,463.8,757.7,453.7z M588.7,557.4
				c0-17.9,0-35.2,0-52.5c0-7.6,2.1-16.2-0.8-22.4c-3.3-7-13.6-6-20.7-8.9c-15.1-6.1-29.5-13.8-44.9-21.3c-2.1,22-1.1,43-1.3,64.1
				c0,3.4,1.6,5,4.4,6.4C547.1,533.8,568.6,544.9,588.7,557.4z M847.7,185.4c28.4,31.5,48.8,67.1,65,105.2c2.1,4.9,3.3,7.8,9.9,5.1
				c6.6-2.7,5.6-5.6,3.5-10.5c-15-35-35.5-66.5-59.9-95.6C860.9,183.1,855.9,181.4,847.7,185.4z M952.7,482.7c0,6.6-0.1,13.2,0,19.8
				c0,1.7-1.1,4.2,1.6,4.6c2.4,0.4,5.1,0.5,6.4-2.5c2-4.7,3.3-9.5,3.6-14.6c0.8-19.3-1.6-38.3-3.8-57.4c-0.3-2.8,2.1-9.4-4.5-7.4
				c-4.1,1.2-10.9,2.2-8.3,10.7C952.3,451.2,953.3,466.9,952.7,482.7z M734.5,379.7c22.1,18.4,48.1,16.8,72.9,25
				C797.2,384.5,767.8,374.6,734.5,379.7z M797.5,296.7c-28-16.4-55.3-26.2-86.7-26.2C737.5,286.7,765.5,294.1,797.5,296.7z"/>
			<path class="st1" d="M651.5,571.5c3.1-0.8,6.2-1.6,9.2-2.5c2,11.8,15.2,14.5,26,7.1c16.2-11.1,29.4-9.4,44.4,0.9
				c7.8,5.3,16.8,2.1,22.8-5.6c1.7-0.2,3.5-0.4,5.2-0.6c0.8,1.5,2,2.5,3.7,2.5c12.4,0,24.7,3.8,37.2,1.7c2.7-0.9,9,7.2,8-3.2
				c5-2.2,10.1-4.4,15.1-6.7c21.6,7.8,44,4.9,66.2,4.5c4.5-0.1,4.5-3.7,4.6-6.9c0.4-11,0.8-22.1,0.9-33.1c0-5.2,1-7.6,6.9-9.9
				c15.3-5.9,28.8-4.1,42.4,4.1c5.9,3.6,12.2,6.7,19.1,8.1c2.3,0.5,5.4,2.7,6.8-0.4c1.5-3.4-2.3-4.7-4.4-6c-3.5-2.1-7.3-3.7-11-5.5
				c-1.4-0.7-3.2-1.3-3.1-3.1c0.2-2.5,2.5-2.4,4.3-2.6c6.4-0.7,12.6,0.3,18.8,1.3c2.5,0.4,5.7,1.1,6.6-1.8c0.9-3-2.9-3.5-4.5-5.1
				c-2.5-2.6-9,1.1-8.5-4.7c0.4-4.8,4-8.1,8.5-10.5c8.1-4.5,16.1-4.5,24.7-1.8c2.2,0.7,7.6,4.6,5.9-3.2
				c18.8,2.7,26.8,17.1,34.2,31.9c1.7,3.3,2.1,7.2,3,10.9c2.1,8.5-0.6,13.2-9,15.6c-2.1,0.6-4.2,1.4-6.4,1.6
				c-23.7,2.3-35.8,15.9-38.9,38.8c-3.6,26.4-21.3,41-44.2,50.6c-24.3,10.1-49.7,14.4-76.2,15.6c-26,1.2-51.8,1.5-76-8.1
				c-22.9-9-46.6-10.7-70.3-11c-58.1-0.8-116.3-1.9-174.3,0.2c-58.4,2-116.7,0.5-175.1,1.4c-3.6,0.1-7.6,1.4-10.8-1.8
				c6.8-3.6,14.4-3.3,21.6-4.9c28.7-6.5,56.5-16.7,86.3-18.3c13.4-0.7,26.4-3.1,38.1-11.4c5.9-4.1,14-6,21.7-4.9
				c35.3,4.9,69.4-0.4,102.6-12.5C640,579.8,647.4,578.1,651.5,571.5z"/>
			<path class="st2" d="M651.5,571.5c-4.1,6.6-11.5,8.3-17.8,10.6c-33.1,12.1-67.2,17.4-102.6,12.5c-7.7-1.1-15.8,0.8-21.7,4.9
				c-11.7,8.2-24.6,10.7-38.1,11.4c-29.8,1.6-57.6,11.8-86.3,18.3c-7.2,1.6-14.9,1.3-21.6,4.9c-41.8,1.1-83.5-0.4-124.8-7.7
				c-1.4-0.3-2.8-1.2-4.1-1.8c-1.5-13.7,6.1-25.3,8.7-38.1c2.7-13.8,0.2-25.6-12.2-33.7c-5.4-3.5-7.3-6.5-1.6-11.3
				c2.9-2.5,4.8-5.8,5.1-9.7c6.2-0.4,11.9,0.7,17.9,4.5c-3.6,1.3-6.3,2.1-8.9,3.2c-1.6,0.7-4,1.4-2.9,3.8c1,2.4,3.1,1.3,4.9,0.7
				c14.1-5.3,27.8-2.8,41.5,1.9c2.6,0.9,5.3,3.3,9,0.5c-9.3-10.2-20.8-11.7-33-11.2c-2.5,0.1-6.6,0.7-7.1-0.3
				c-6.8-12.5-18-10-28.8-9.1c-2-4.5-6.3-6.5-10-9.3c-9.6-7.2-10.8-15.7-4.8-25.9c4.7-8,11-14,18.6-19.1
				c16.7,5.4,32.8,11.4,40.5,29.3c3.8,8.8,11.5,11.7,20.7,12.2c22.6,1.3,42.9,9.4,61.8,22c-1.7,3.8-5.8,3.7-8.3,5.9
				c-2,1.8-6.3,2.6-5.1,5.6c1.5,3.9,5,0.6,7.3-0.1c10.8-3.6,21.7-6.5,33.1-7.9c7.2-0.9,14.4-0.9,21.3-0.2c1.6,2.5-0.4,3-1.5,3.9
				c-1.4,1.1-3.7,2-2.7,4.3c1.3,2.9,3.9,1.6,5.8,0.8c14.4-6.2,29.6-7.6,45.1-8.5c7.2-0.4,14.3-3,20.6-6.7
				c11.9-7.1,24.6-8.7,38.2-8.2c6.8,0.3,10.8,4.4,15.8,7.1c16.6,9,33,18.3,51,28.5c-9,1.4-15.7,4.3-20.8,9.9
				c-1.4,1.5-3.6,3.3-1.3,5.6c1.7,1.7,3.5,0.5,5.1-0.6c11.4-8.2,23.3-8.8,36.8-5.4C612.8,573.8,632.3,570.6,651.5,571.5z
				 M547.4,567.1c-1.2-5.1-4.7-6.5-8.3-7.5c-12.3-3.6-24.2-2.3-35.3,4.2c-1.8,1-4.8,2-3.5,4.6c1.6,3.3,4.3,1,6.4,0
				c10.4-4.9,21.1-5.6,32-1.7C541.3,567.7,544,568.5,547.4,567.1z"/>
			<path class="st1" d="M230.7,471.5c-7.5,5.1-13.9,11.1-18.6,19.1c-6,10.2-4.8,18.8,4.8,25.9c3.6,2.7,8,4.8,10,9.3
				c-3.2,1.2-6.5,2.2-9.6,3.7c-2.1,1-5.6,1.8-4.1,5c1.2,2.5,3.8,0.7,5.8,0c5.1-1.7,10.1-3.6,15.6-2.5c-0.4,3.9-2.2,7.3-5.1,9.7
				c-5.8,4.8-3.8,7.8,1.6,11.3c12.4,8.1,15,19.9,12.2,33.7c-2.5,12.8-10.2,24.4-8.7,38.1c-14.1-0.3-26.4-6.1-37.4-14
				c-13.1-9.4-13.8-23.1-10.6-37.4c0.9-4,2.7-7.7,3.7-11.7c3-11.3-0.6-17.3-11.8-20.1c-21.3-5.3-29-21.2-19.6-41.6
				c9.7-21,24.9-35.3,48.9-38C213.6,469.4,223.4,467.4,230.7,471.5z"/>
			<path class="st3" d="M532.3,316.7c-37.8,0.4-74.9-5.2-111.7-13.5c9.1-35.9,21.4-70.4,41.5-101.8c2.8-4.4,5.1-6.5,11.1-5
				c15.6,3.7,31.5,6.4,47.5,7.4c3.8,0.3,7.6,0.6,11.3,0.9c3.1,1.1,6.3,1.5,9.5,1c5,0.3,10.1,0.6,15.1,0.9c6.3,1.1,12.6,1.7,19,1.2
				c3.2,0.1,6.3,0.2,9.5,0.3c1.9,0,3.8,0.1,5.7,0.1c22.7,1.1,45.5,1.3,68.2,0c1.3,0,2.5-0.1,3.8-0.1c3.2-0.1,6.3-0.2,9.5-0.3
				c4.4,1,8.9-1.3,13.3,0.7c1.1,14.7,2,29.5,3.3,44.2c0.5,5.6-0.3,8.3-7.1,8.7c-40.3,2.3-77.3,13.7-107.5,42
				C559.2,304.1,545.9,310.9,532.3,316.7z"/>
			<path class="st3" d="M412.7,437c-33.2-4.5-65.1-14.2-96.7-24.8c-7.8-2.6-2.1-8.6-3.6-12.7c6.2-36.2,14.3-71.9,28.2-106.1
				c1.5-2.4,3-3.2,6.1-2.2c44.9,15.1,90.9,25.4,139,30.9c-3,8-5.8,15.2-8.6,22.5c-1.5,0.9-2.1,2.2-1.6,3.9l0.1,0
				c-12.6,2.5-18.5,13.6-26.5,21.5C430.3,388.6,420.1,412.1,412.7,437z"/>
			<path class="st3" d="M888.4,284.4c-6.3-2.6-12.5-5.1-18.8-7.7c11.3,9.2,24.7,15.1,35.7,24.7c-8.5-1-15.2-7.2-25.1-8.6
				c4.6,6.6,11.4,7.6,17.2,12.1c-18.5,7.8-37.2,11.5-55.9,15.3c-3.1,0.6-4.5-1.7-6.2-3.4c-36.2-36.6-80.5-54.3-131.5-56.1
				c-7.9-0.3-9.3-3-8.9-9.9c0.6-11.4-0.7-22.7-2.7-33.9c-0.6-3.2-1-5.8,3-6.7l-0.2-0.1c-1.8,1.7-0.1,3.1,0.9,3.6
				c10.6,4.8,20.2,11.8,32,13.5c2.2,0.3,5.2,3.8,6.5,0.8c1.9-4.2-3.9-2.6-5.2-4.8c-0.5-3.5-1.3-6.9-5.7-7.4c-5.5-2.8-11-5.7-19.3-10
				c47.2-3.9,91.2-11.1,135-19.2c0.8,2.4,1,5.1,2.4,7c17.4,24.4,30.3,51.3,43.7,78C887.2,275.8,888.9,279.8,888.4,284.4z"/>
			<path class="st3" d="M592,131.2c3.5-12.6,11.6-14.7,24.1-13.3c29.9,3.3,59.9,1.6,89.7-3.2c4.8-0.8,7.5,0.3,10.6,3.7
				c17.7,19.9,33,41.4,45.7,64.8c3.7,6.9,2.7,8.6-4.8,9.6c-31.3,3.9-62.8,6.7-94.3,8.6c-25.9,0-51.8,0-77.7,0
				c-3.2-0.1-6.3-0.2-9.5-0.3c-1.3,0-2.5-0.1-3.8-0.1c-1.2-0.1-2.5-0.2-3.7-0.3c-1.1-3.3,0.6-6.1,1.5-9
				C575.6,170.9,583.5,151,592,131.2z"/>
			<path class="st4" d="M437.1,141.9c23.6-23,53.1-34.3,84.2-42.4c2.9-0.8,5.4-0.7,8.2,0.4c17.3,6.9,35.2,12,53.7,14.3
				c7.5,0.9,8.9,3.4,5.5,9.7c-9.6,16.2-14.5,34.3-20.8,51.9c-6.3-3.3-6.8-11.7-14.3-13.6c1.4,11.4,17.7,17,9.5,31.8
				c-8-12.8-15.6-25-23.2-37.2c0.6,10.4,5.7,18.6,10.5,27c3.2,5.6,8.7,9.8,9.8,16.7c-0.5-0.2-0.9-0.2-1.4,0.1
				c-1.3-0.5-2.6-0.9-4-1.4c-0.7-0.7-1.3-1.5-2-2.2c-4.2-6.7-8.3-13.4-12.5-20c-1.2,8.3,2.2,14.5,7.4,19.9c-4,4.7-9.2,0.3-13.6,1.9
				c-3.2-0.4-6.4-0.7-9.5-1.1c-3.1-0.3-6.3-0.5-9.4-0.8c-11.2-1.8-22.4-3.5-33.5-5.6c-23.2-4.3-46-9.9-68.4-19.2
				C420.3,160.6,428.9,151.5,437.1,141.9z"/>
			<path class="st4" d="M416.4,301c-11-6-17.6-17-27.2-24.6c4,8.3,9.6,15.2,15.3,22.2c-14.5-1.1-20-13.9-28.6-23.5
				c-0.1,6-0.1,6,8.3,19.2c-20.9-5.5-40.2-11.3-58.7-19.5c14.1-29.9,31.7-57.6,53-83c5.9-7.1,14.4-12.3,17.5-21.7
				c20.7,9.3,41.5,17.9,64.2,23.4c-9.7,15.4-18.6,30.2-25.6,46.1c-7.1,16.2-13.4,32.6-15.9,50.2c-0.6,0.6-1.3,1.1-1.9,1.7
				c-7.4-6.9-13.1-15.2-19.4-23c2.1,11,7.6,19.4,17.3,24.8c0.7,0.7,1.5,1.3,2.3,2C416.8,297.2,416.6,299.1,416.4,301z"/>
			<path class="st5" d="M583.9,461.4c-6.7-5.9-12.3-13.3-22.6-19.1c5.8,11.5,16.2,16.5,21.1,27.9c-14-4.4-25.9-9.6-37.7-15.2
				c-23.4-11.1-23.3-11.1-19-36.6c5.4-31.6,17.5-60.3,35.8-86.5c3.3-4.8,6-5.5,11.4-3.1c15.6,6.8,31.6,12.6,47.4,18.8
				c2.8,1.1,6.9,1.4,3.3,6.1c-22,28.8-31.6,61.9-34.4,97.4c0,0.3-0.2,0.6-0.5,1.1c-4.8-0.3-5.9-6.3-10.9-7.1c0.4,6.2,6.1,9.3,8,14.3
				C585.2,460.1,584.6,460.8,583.9,461.4z"/>
			<path class="st6" d="M408.9,445.1c33.1,4.9,66.3,8.5,99.8,7.4c3.9-0.1,4.9,1.2,4.8,4.8c-0.5,18.1-0.5,36.2,1.5,56.1
				c-8.1-6.6-14.7-12.1-21.3-17.5c2.2,9,10.3,12.8,16.5,21.9c-17-5-25.8-19.1-40.8-23c7.9,6.7,15.8,13.5,23.9,20.3
				c-7.1,2.1-7.1,2.1-14.5-3.6c-4.4-3.4-9.1-6.6-15.7-11.3c3.4,9.8,11,12.4,16,18.3c-11.6,6.2-22.6,13.6-36.6,13.5
				c-0.1-2.7,4-4,2-6.6c-1.9-2.5-4.7-1.3-7-0.6c-3.9,1.2-8.2,2-11.5,4.2c-10,6.5-20.1,5.3-30.5,1.5c-0.4-2.1-1.4-4.3-1.2-6.4
				C396.4,497.3,400.9,470.9,408.9,445.1z"/>
			<path class="st7" d="M282.8,406.2c29.9,12.6,60.1,24.3,92,31.2c4.4,0.9,4.3,3.3,3.7,6.9c-4.4,26-2.4,52.1-0.8,79
				c-10.7-6-17.8-15.8-27-23.3c5,10.8,13.6,18.7,21.6,26.9c-0.6,0.5-1.1,1-1.7,1.6c-7.1-2.7-11.9-8.7-17.9-13.1
				c1.4,7.5,7.4,11.4,14.1,17.6c-11.3,0.2-16-8-22.9-11.3c-7.4-3.6-14.5-7.7-22.3-10c-8.1-2.4-16.4-4.2-24.6-6.2
				c-4.4-25.2-8.9-50.3-7.5-76c3.8,1.6,5.9,6.2,11.8,6.2c-6.8-10.1-16-17.4-19.6-28.5C282.1,406.9,282.5,406.6,282.8,406.2z"/>
			<path class="st4" d="M739.5,357.5c-8.2-4.2-16.5-8.5-24.8-12.7c-0.5,0.8-1,1.5-1.5,2.3c10.8,6.8,21.6,13.7,33.4,21.2
				c-8.7,1.8-16.5,3-24.1,5.1c-12.6,3.5-24.2,9.1-34,17.8c-3.5,3.1-5.6,3.8-9-0.2c-12.2-13.6-24.2-27.4-38.1-39.4
				c-3.1-2.7-2.1-4.4,0.2-6.8c29.1-29.9,64.4-45.4,106.3-45.8c4.4,0,4.9,1.6,4.7,5.6c-0.5,14.1-0.8,28.3-0.6,42.5
				c0.1,6.3-0.3,10.4-7.8,6.3c-2.4-1.3-2.5,0.5-3,1.9C740.6,356,740,356.8,739.5,357.5z"/>
			<path class="st4" d="M635.4,352.5c12.4,15.7,26.6,29.6,40.5,43.7c2.1,2.1,3.7,3.8,1.3,7c-13.9,18.2-18.6,39.6-20.7,61.7
				c-0.6,6.1-2.3,7.8-8.9,7.9c-15.2,0.4-30.7-2.3-45.8,2c-3.7,1.1-7.4-0.2-6.9-5C599,427.7,605.1,386.2,635.4,352.5z"/>
			<path class="st5" d="M465,441.1c4.6-34.2,9.1-68.3,21.6-100.8c0.4-1.1,1.1-2.2,1.6-3.3c7.3-4,14.5-8,21.8-12
				c14.7,0.7,29.3,2,44,1c0.4,3.1-1.5,4.5-2.7,6.3c-21.2,31.8-33,66.9-36.1,104.9c-0.5,6.2-2.5,7.8-8.5,7.6
				c-13.8-0.5-27.7,0.9-41.4-1.6C465.1,442.5,465.1,441.8,465,441.1z"/>
			<path class="st8" d="M753.9,571.5c-6,7.6-15,10.9-22.8,5.6c-15-10.3-28.3-12.1-44.4-0.9c-10.8,7.4-24,4.7-26-7.1
				c2.4-12.4,2.2-25.1,2.1-37.6c-0.1-5.2,1.4-6.9,6.8-7.3c16-1.1,31.4,0.6,46.1,7.8c3.1,1.5,7.6,4.9,10.3,1.3c2.5-3.3-3.4-5-5.4-9
				c12.3-0.6,23.3-1,31,9.8c2.5,3.5,6.9,4.3,10.7,5.6c20.8,7.5,41.1,15.9,60.9,25.6c-5,2.2-10.1,4.4-15.1,6.7
				c-5.4-5-11.5-9.2-19-9.4c-5.1-0.1-8.8-1.9-12.6-5c-6.6-5.3-14.7-7-22.9-7.9c-2.2-0.2-4.9-0.5-5.2,2.5c-0.2,2.4,2.4,2.3,4.2,2.8
				c4.8,1.4,9.7,2.6,14.4,4.5c2.3,0.9,6.8,1.9,5.4,5.1c-3.4,7.9,2.9,4.9,5.4,5c8,0.1,15.8,0.4,22.5,5.5c-12.5,2.1-24.8-1.6-37.2-1.7
				c-1.7,0-2.9-1.1-3.7-2.5c-4.9-12.7-26.1-19.1-37.8-11.4c-1.3,0.9-3,1.8-2.5,3.5c0.7,2.5,2.7,2.2,4.6,1.5
				C735.2,560,745.1,563.5,753.9,571.5z"/>
			<path class="st5" d="M757.7,453.7c22.3,10,43.9,16.6,65.4,23.9c2.3,0.8,4.8,1.5,4.8,4.9c-0.1,14.9,0,29.9,0,45
				c-4.5-1-3.8-7-8.8-6.9c1.2,9.2,10.4,15.4,8.4,26.2c-7.4-8.3-9.2-19.4-17.2-26.3c2.8,12.4,8.5,23.5,15.4,36
				c-20.6-10.2-39.9-17.2-59.7-23.1c-5.6-1.7-8.4-3.6-8.3-10.1C758,500.7,757.7,478,757.7,453.7z"/>
			<path class="st3" d="M926.4,430c-3.4,1-6.7,2.9-10.2,3c-7.5,0.3-16.2,5.7-22,1.6c-5.3-3.8-3.4-13.3-4.8-20.3
				c-7.6-36.5-16.4-54.1-44.9-88.2c19.3-2,37.4-6.5,55.3-11.7c3,2.8,4.6,6.2,6,10.2C917.3,358.8,921.8,394.4,926.4,430z"/>
			<path class="st5" d="M588.7,557.4c-20.2-12.5-41.7-23.6-63.3-34.5c-2.8-1.4-4.4-3.1-4.4-6.4c0.2-21-0.8-42.1,1.3-64.1
				c15.4,7.5,29.8,15.2,44.9,21.3c7.1,2.9,17.4,1.9,20.7,8.9c2.9,6.2,0.7,14.8,0.8,22.4C588.8,522.2,588.7,539.4,588.7,557.4z"/>
			<path class="st4" d="M643,556.5c-2.9-1.1-4.3-4.6-8.3-4.8c0.3,4.7,5.1,6.1,7.3,11c-11.4,0-22.1-0.3-32.9,0.1
				c-11.8,0.4-11.7,0.7-11.8-11.6c-0.2-22.4-0.4-44.7-0.9-67.1c-0.1-5,0.5-6.8,6.6-6.3c15.4,1.1,30.9,0.8,46.3,1.1
				c3.1,0,6.1-1.1,6.2,4.2c0.3,23.9,0.9,47.8,1.4,71.8c0,0.4-0.6,0.9-2.6,3.6c-7.1-8.2-13.9-16.2-20.7-24.1
				c-0.8,0.7-1.5,1.4-2.3,2.2c2.4,7.3,9.7,11.2,13.5,17.5C644.1,554.8,643.5,555.6,643,556.5z"/>
			<path class="st4" d="M837.1,369.2c2,4.2,7.3,4.7,9.2,7.8c-8.6,8.9-17.1,17.7-26.1,27c-9-14.6-21.8-24.8-38.3-30.2
				c-5.9-2-11.9-4-18.5-2.9c-6.5,1.1-9-2.4-7.3-8.3c3-9.9,1.5-19.4,0.2-29.4c-1.3-9.9-0.3-20.2-0.3-30.3c3.4,0.3,6.7-0.5,9.9,1.8
				c18.6,13.3,35.4,28.8,51.1,45.3c1.5,1.6,3.3,3.2,3,5.6c-1.4,8.8,4.4,8.6,10.3,8.3c1.9,2.3,3.1,5.5,6.9,5.3L837.1,369.2z"/>
			<path class="st9" d="M926.4,430c-4.6-35.6-9.1-71.1-20.6-105.4c-1.4-4.1-2.9-7.4-6-10.2c8.8-4,17.9-7.6,26.3-12.3
				c5.8-3.2,6.6-0.2,8.1,4c8.2,23.1,14.3,46.8,18.7,70.9c1.6,9.1,4.3,18.1,3.6,29.1c-8.8-8-15.6-16.9-29.2-18.5
				c9.5,8.3,19.2,13.3,25.3,22.3c-0.7,0.5-1.4,0.9-2.2,1.4c-4.3-1.3-7-6.1-13.1-5.6c3.5,6.3,10.3,8,14,13.6
				C942.7,423,935.2,428,926.4,430z"/>
			<path class="st4" d="M592.9,299.5c50.9-34.3,89.5-40.5,141.4-8.3c-27,2.4-50.7,11.6-72.7,25.4
				C638.2,312.8,616.4,302.8,592.9,299.5z"/>
			<path class="st10" d="M758.2,400.8c6,4.4,12,8.8,19.4,14.1c-0.6-6.7-6.5-7.2-8.2-12.3c11.4,3.2,22,8.2,32.9,8.7
				c13.9,0.7,17.1,9.1,19.5,19.5c3,12.9,4.7,26,5.5,40.5c-10.1-3.7-19.3-7.3-28.6-10.5c-11.6-4-23.3-7.9-35.1-11.5
				c-3.7-1.1-6.2-2.1-6-6.7c0.4-11-1.4-21.9-4.2-34.9c8.1,6.8,14.8,12.3,21.4,17.9c-3.7-10.2-12.4-15.6-18.8-23
				C756.7,402,757.4,401.4,758.2,400.8z"/>
			<path class="st3" d="M829.7,179.9c-16.7,4.5-33.9,6.4-50.9,9.5c-4.1,0.7-6.2-0.5-8-4.3c-12.4-26-29.3-48.9-49.1-69.8
				c4-2.9,7.1,0.5,10.3,1.7c7.9,3,15.7,6.4,23.3,10C783.2,140.3,809.4,156,829.7,179.9z"/>
			<path class="st10" d="M412.7,437c7.4-24.9,17.6-48.4,36.4-67c8-7.9,13.9-19,26.5-21.5c-4.2,20.1-9.9,39.9-12.6,60.3
				c-0.5,3.7-0.7,7.4-1,11.1c-8-0.3-8.2-9.1-14.3-13.3c1,7.6,4.5,12.2,9.7,15.9c4.1,2.8,3.7,6.5,2.3,11.2c-2.6-2.1-4.7-3.8-6.8-5.5
				c-1.2-1.4-2.7-1.8-3.4,0c-1.1,2.8,1.2,4.2,3,5.8c1.6,3.5,5.2,4.8,8.1,7c-0.1,0.6-0.2,1.3-0.2,1.9c-10.6-2.2-16.7-10.3-23.6-17.5
				c-2.2-2.3-3-6.1-8.4-8c3.9,9.9,9.8,16.4,17.4,23.7C433.2,441.1,422.9,439.4,412.7,437z M445.4,420.5c-1.6-5.6-3.3-11.2-8.1-15.3
				C438.5,411,438.7,417.4,445.4,420.5z"/>
			<path class="st11" d="M930.1,509.2c-10.1-2.1-19.4,1.1-28.6,4.4c-4.8,1.7-6.7,1-6.8-4.6c-0.1-21.1-0.6-42.2-1.2-63.3
				c-0.1-3.8,1.2-4.9,4.8-4.9c9.5,0.1,18.7-2.3,27.9-3.9c3.7,11.5,2.3,23.6,3.2,35.3C930.3,484.3,933.4,496.8,930.1,509.2z"/>
			<path class="st9" d="M844.8,390.4c3.2-3,6.3-6.1,9.6-9c12.3-10.7,12.3-10.7,17.8,4.2c9.7,26.6,12.6,54.3,13.2,82.4
				c0.1,4.2-0.7,6.4-5.7,5.8c-6.5-0.7-13.2-0.8-19.8-1.1C861.6,444.1,855.8,416.8,844.8,390.4z"/>
			<path class="st9" d="M829.7,179.9c-20.3-23.9-46.5-39.6-74.4-52.9c-7.6-3.6-15.4-7-23.3-10c-3.2-1.2-6.3-4.6-10.3-1.7
				c-1.5-0.8-2.9-2.6-0.7-3.2c9.3-2.9,18.8-5.3,28.2-7.6c1.6-0.4,3.6,0.8,5.3,1.6c37.4,15.8,69.4,39.2,98.6,69.3
				C844.7,177.7,837.3,179.4,829.7,179.9z"/>
			<path class="st11" d="M677.5,100.3c2,3.7,7.6,3.1,9.8,9c-14.2-3.3-25-13.5-41.6-14.1c9.6,5.9,19,7,27.4,14.2
				c-46,3.3-89.6-0.8-133.5-13c18.2-6.7,76.5-12.6,104.3-11c2.6,3.2,6.6,3.4,10,4.8C661.9,93.3,670.9,94.1,677.5,100.3z"/>
			<path class="st9" d="M830.4,363.9c-5.9,0.3-11.7,0.6-10.3-8.3c0.4-2.4-1.4-4-3-5.6c-15.7-16.6-32.4-32-51.1-45.3
				c-3.2-2.3-6.6-1.5-9.9-1.8c-0.7-4.5,2.4-3.4,4.8-3.2c41.9,4.5,75.2,23.4,98.2,59.2c1.7,2.6,4.9,5.1,0.9,8.9
				c-3.6,3.3-6,1.8-8.9-0.5c-2.2-1.7-4.7-3-8.2-1.4c1.8,1.4,3.4,2.7,5.1,3.9c-0.6,0.6-1.2,1.2-1.8,1.7c-3.2,0-5-5.4-9.1-2.4l0.2,0
				c1.3-3-0.8-3.3-2.8-3.2C832.7,366,831,366.2,830.4,363.9z"/>
			<path class="st7" d="M308.8,399.5c-0.3,2.8-0.6,5.5-1,9.6c-5.7-2.2-11-4.3-16.3-6.4c-0.2-30.5,7.9-59.5,17.4-88.1
				c3.6-10.8,6.1-22.5,13.7-31.7c4.6,2.6,11.4,1,13.8,7.6C320.3,325.1,310.3,361.2,308.8,399.5z"/>
			<path class="st12" d="M860,481.2c3.8-0.1,7.6,0,11.3-0.4c14.5-1.6,14.5-1.6,14.6,13.3c0.1,17.5,0,35.1,0,55.2
				c-5.9-7-10-11.7-14-16.5c1.5,10.7,9.1,17.9,13.1,26.9c-6.5-2.1-7.6-9.2-14-12.2c-0.1,6,5.1,8.9,6.6,14.3c-7.5,0-14.5,0-21.5,0
				c0.6-3.7,1.8-7.4,1.8-11.1C857.7,527.6,861.4,504.4,860,481.2z M872.2,548.5c-0.6-3.7-1.3-5.7-4.2-6.3
				C866.7,545.7,868.3,547.1,872.2,548.5z"/>
			<path class="st4" d="M844.8,390.4c11,26.4,16.7,53.7,15.2,82.4c-7.4,0.5-16.9,3.8-21.6,0.5c-4-2.8-2.3-13.4-3.3-20.5
				c-1.9-13.4-3.9-26.8-9.8-39.2c-1.7-3.5-1.4-5.7,1.6-8.1C832.9,400.6,838.8,395.4,844.8,390.4z"/>
			<path class="st10" d="M592.9,299.5c23.5,3.3,45.3,13.4,68.7,17.1c-0.2,0.3-0.3,0.6-0.6,0.8c-9.3,8.3-18.5,16.7-32.2,5.7
				c1.8,6.8,8.7,6.3,12.8,12.8c-12.9-2.4-22.1-10.6-34.1-8.4c7,3.1,14,6,20.9,9.2c2,0.9,5.9,1.3,4.9,4.4c-1.2,3.9-4.7,1.9-7.2,0.9
				c-18.2-7.1-36.4-14-56.2-20.2C576.8,312.8,584.2,305.5,592.9,299.5z"/>
			<path class="st13" d="M416.4,301c0.2-1.9,0.4-3.8,0.5-5.7c4-0.8,4.2-2.7,1.8-5.5c2.5-17.6,8.8-34.1,15.9-50.2
				c7-15.9,15.9-30.7,25.6-46.1c-22.7-5.6-43.6-14.2-64.2-23.4c0-0.5-0.1-0.9-0.3-1.3c0.2-1.1,0.5-2.1,0.7-3.2
				c9.2,6.3,15.4,4.1,19.4-6.2c1.1-2.8,3.6-5,5.3-7.7c1.6-2.5,5.1-4.4,3.1-8.2c3.2-10.8,8.2-5.1,13-1.4
				c-8.1,9.6-16.8,18.7-23.9,30.1c22.4,9.3,45.2,14.9,68.4,19.2c11.1,2.1,22.3,3.7,33.5,5.6c-3.2,6.4,6.7,2.2,5.6,6.9
				c-16.1-1-31.9-3.7-47.5-7.4c-6-1.4-8.3,0.6-11.1,5c-20.1,31.4-32.4,66-41.5,101.8C419.2,302.4,417.8,301.7,416.4,301z"/>
			<path class="st5" d="M322.7,282.9c-7.6,9.2-10.1,20.9-13.7,31.7c-9.5,28.5-17.6,57.5-17.4,88.1c-19.7-8.2-17-2.5-13.7-24.4
				c4.5-29.6,12.6-58.4,23.5-86.3C307.4,276.6,307.5,276.6,322.7,282.9z"/>
			<path class="st11" d="M860,481.2c1.4,23.3-2.3,46.4-2,69.7c0.1,3.7-1.2,7.4-1.8,11.1c-6.5,0.1-14.7,4.4-18.8,0.7
				c-3-2.7-0.2-11.7-0.2-17.9c0.1-19.8,0.4-39.5,0.1-59.3c-0.1-5.7,1.7-7.1,6.9-6.2C849.4,480.1,854.7,480.5,860,481.2z"/>
			<path class="st12" d="M847.7,185.4c8.2-4,13.2-2.3,18.5,4.1c24.4,29.1,44.9,60.6,59.9,95.6c2.1,5,3,7.8-3.5,10.5
				c-6.6,2.7-7.8-0.2-9.9-5.1C896.5,252.4,876.1,216.9,847.7,185.4z"/>
			<path class="st10" d="M395.6,168.7c0.2,0.4,0.3,0.9,0.3,1.3c-3.1,9.4-11.6,14.6-17.5,21.7c-21.3,25.5-38.9,53.1-53,83
				c-18.4-5.8-14.8-4.1-7.6-17.9c17-32.5,39.8-60.4,67.3-84.6C388.1,169.6,390.8,166.1,395.6,168.7z"/>
			<path class="st10" d="M289.6,429.5c-1.4,25.7,3.1,50.9,7.5,76c-11.8,2.1-21.4-3.6-24.1-21.4c-1.6-10.5-1.2-21.2-1.4-31.9
				c-0.2-10,0-19.9,0-29.5c4.1-1.2,3.7,3.1,6.3,2.5c1.4-6.7-7.7-12.3-1.9-19.3c-0.2,0.5,0,0.9,0.4,1.2
				C278.4,415.9,284.5,422.4,289.6,429.5z"/>
			<path class="st7" d="M408.9,445.1c-8,25.8-12.5,52.2-14.6,79c-0.2,2.1,0.8,4.2,1.2,6.4c-9.6,1.8-12.7-1.6-12.9-11.8
				c-0.6-24.2,0.4-48.4,1.9-72.5c0.3-4.6,1.3-6.3,6-5.1C396.6,442.6,402.8,443.8,408.9,445.1z"/>
			<path class="st9" d="M930.1,509.2c3.3-12.4,0.2-24.9-0.7-37c-0.8-11.7,0.5-23.8-3.2-35.3c15.8-6,15.5-6,17.2,11
				c1.8,17.5,2.3,34.9,2,52.5C945.2,513.6,943,514.9,930.1,509.2z"/>
			<path class="st12" d="M888.4,284.4c0.5-4.6-1.2-8.5-3.2-12.6c-13.4-26.7-26.3-53.6-43.7-78c-1.4-1.9-1.6-4.7-2.4-7
				c1.7-0.8,2.9-0.1,4,1.3c23.5,31.2,46.4,62.9,61,99.6c0.7,1.7,1.9,3.3,0.4,5.8C899.2,290.5,893.8,287.4,888.4,284.4z"/>
			<path class="st12" d="M677.5,100.3c-6.7-6.1-15.6-6.9-23.5-10.1c-3.4-1.4-7.5-1.6-10-4.8c31-0.7,61.2,3.9,92.6,14
				c-14,3.9-26.1,5.6-38.2,7.5c-3.3,0.5-5.4-0.8-7.8-2.3C686.6,102.1,682.7,99.3,677.5,100.3z"/>
			<path class="st12" d="M952.7,482.7c0.6-15.8-0.4-31.6-5-46.7c-2.6-8.5,4.3-9.4,8.3-10.7c6.6-2,4.2,4.6,4.5,7.4
				c2.1,19.1,4.5,38.1,3.8,57.4c-0.2,5.1-1.6,9.9-3.6,14.6c-1.3,3-4,2.9-6.4,2.5c-2.7-0.5-1.6-2.9-1.6-4.6
				C952.7,496,952.7,489.3,952.7,482.7z"/>
			<path class="st13" d="M560.1,200.5c-1.1-6.8-6.6-11-9.8-16.7c-4.7-8.4-9.9-16.6-10.5-27c7.6,12.2,15.2,24.4,23.2,37.2
				c8.3-14.8-8.1-20.5-9.5-31.8c7.5,1.8,8,10.3,14.3,13.6c6.3-17.6,11.2-35.7,20.8-51.9c0.3,2.8,0.1,5.8,3.3,7.3
				c-8.5,19.8-16.4,39.7-22.3,60.4c-0.8,3-2.5,5.8-1.5,9C565.5,200.6,562.8,200.6,560.1,200.5z"/>
			<path class="st10" d="M734.5,379.7c33.3-5.1,62.6,4.8,72.9,25C782.7,396.6,756.6,398.1,734.5,379.7z"/>
			<path class="st13" d="M308.8,399.5c1.6-38.3,11.5-74.4,27.7-109c0.7,2,2.1,2.8,4.1,2.9c-14,34.1-22,69.8-28.2,106.1
				C311.2,399.5,310,399.5,308.8,399.5z"/>
			<path class="st12" d="M797.5,296.7c-32.1-2.7-60-10-86.7-26.2C742.3,270.5,769.5,280.3,797.5,296.7z"/>
			<path class="st13" d="M585.2,201.4c25.9,0,51.8,0,77.7,0c0,2.2,0,4.4,0,6.6c-1.3,0-2.5,0.1-3.8,0.1c-0.6-4-3.7-3.6-6.5-3.6
				c-18.4,0-36.9,0-55.3,0c-2.8,0-5.9-0.4-6.5,3.6c-1.9,0-3.8-0.1-5.7-0.1C585.2,205.8,585.2,203.6,585.2,201.4z"/>
			<path class="st10" d="M532.3,316.7c13.6-5.7,26.9-12.6,42-13.5c-0.1,0.3-0.2,0.6-0.4,0.8C564.4,322.3,548.4,319.5,532.3,316.7z"
				/>
			<path class="st8" d="M424.1,143.3c1.9,3.9-1.5,5.7-3.1,8.2c-1.7,2.6-4.2,4.9-5.3,7.7c-4,10.4-10.2,12.6-19.4,6.2
				C402.9,154.8,414.1,149.8,424.1,143.3z"/>
			<path class="st11" d="M509.9,325c-7.3,4-14.5,8-21.8,12C491.7,321.7,491.7,321.7,509.9,325z"/>
			<path class="st8" d="M723.5,215.9c4.4,0.5,5.2,3.9,5.7,7.4c-1.9-0.5-4.1,0-5.4-1.9c0.1-0.3,0.2-0.5,0.3-0.8
				c-0.1,0.2-0.3,0.5-0.4,0.7c-10.3-1.9-18.8-8.3-28.7-11.2l0.2,0.1c-1.6-5.4,1.5-4,4.1-2.7c5.9,2.8,11.8,5.6,17.5,8.7
				C719.3,217.5,721.4,219.9,723.5,215.9z"/>
			<path class="st13" d="M457.3,422.5c-5.1-3.7-8.7-8.3-9.7-15.9c6.1,4.2,6.4,13,14.3,13.3C461,422.1,459.1,422.2,457.3,422.5z"/>
			<path class="st13" d="M685.6,208.3c-4.3-1.9-8.9,0.4-13.3-0.7C677,202.8,681.5,202,685.6,208.3z"/>
			<path class="st4" d="M741.2,355.3c3.7,2.5,7.3,5,11,7.5c-0.4,0.7-0.8,1.3-1.2,1.9c-3.8-2.4-7.7-4.8-11.5-7.2
				C740,356.8,740.6,356,741.2,355.3z"/>
			<path class="st9" d="M848,369.9c1.6,1.2,5.2,2.4,3.8,4c-2.1,2.5-3.9-0.8-5.6-2.3C846.8,371,847.4,370.4,848,369.9z"/>
			<path class="st5" d="M585.8,459.4c1.9,1.6,3.9,3.1,2.6,6.1c-2.6-0.3-3.2-2.5-4.5-4.1C584.6,460.8,585.2,460.1,585.8,459.4z"/>
			<path class="st13" d="M276.3,407c-0.4-0.3-0.6-0.7-0.4-1.2c1.1-2,2.4-3.1,4.2-0.7c0.2,0.6,0.2,1.2,0.1,1.8
				C278.9,407,277.6,407,276.3,407z"/>
			<path class="st13" d="M460.1,443c0.1-0.6,0.2-1.3,0.2-1.9c1.5,0,3.1,0,4.6,0c0.1,0.7,0.2,1.4,0.3,2.1
				C463.5,443.1,461.8,443,460.1,443z"/>
			<path class="st13" d="M452.3,434.1c-1.8-1.5-4.1-3-3-5.8c0.7-1.8,2.3-1.4,3.4,0C452.6,430.2,452.4,432.2,452.3,434.1z"/>
			<path class="st10" d="M756,402.7c-1.1-0.9-2.3-1.7-3.4-2.6c2-1,3.9-1.3,5.6,0.7C757.4,401.4,756.7,402,756,402.7z"/>
			<path class="st4" d="M648.3,557.8c1.3,1,4,2,2.1,3.8c-1.6,1.6-3-1-4.2-2.2C646.9,558.9,647.6,558.4,648.3,557.8z"/>
			<path class="st7" d="M372.4,527c1,0.9,3.3,1.6,2.3,3c-1.5,1.9-2.9-0.1-4-1.4C371.3,528,371.8,527.5,372.4,527z"/>
			<path class="st10" d="M475.5,348.6c-0.5-1.7,0.1-3,1.6-3.9C477.2,346.2,477,347.7,475.5,348.6z"/>
			<path class="st9" d="M955.7,413.8c0.2,0.7,0.7,2,0.6,2.1c-1.1,0.6-1.5-0.3-1.7-1.2C955,414.4,955.3,414.1,955.7,413.8z"/>
			<path class="st9" d="M953.9,411.4c0.6,0.8,1.2,1.6,1.8,2.5c-0.4,0.3-0.7,0.6-1.1,0.9c-0.7-0.6-1.4-1.1-2.1-1.7
				C953,412.5,953.4,411.9,953.9,411.4z"/>
			<path class="st9" d="M952.5,413c-0.7-0.6-1.4-1.1-2.1-1.7c0.7-0.5,1.4-0.9,2.2-1.4c0.4,0.5,0.8,0.9,1.3,1.4
				C953.4,411.9,953,412.5,952.5,413z"/>
			<path class="st7" d="M280.2,406.9c0.1-0.6,0-1.2-0.1-1.8c0.9,0.4,1.8,0.8,2.7,1.1c-0.3,0.3-0.6,0.6-1,0.9
				C281.3,407.3,280.7,407.2,280.2,406.9z"/>
			<path class="st4" d="M644.7,553.9c0.6,0.7,1.2,1.3,1.8,2c-0.5,0.8-1.1,1.6-1.6,2.3c-0.7-0.6-1.3-1.2-2-1.7
				C643.5,555.6,644.1,554.8,644.7,553.9z"/>
			<path class="st4" d="M646.5,555.9c0.6,0.7,1.2,1.3,1.8,2c-0.7,0.5-1.4,1-2.1,1.6c-0.6-0.3-1-0.7-1.3-1.2
				C645.4,557.4,646,556.7,646.5,555.9z"/>
			<path class="st13" d="M800,575.1c-6.7-5.1-14.5-5.4-22.5-5.5c-2.5,0-8.8,3-5.4-5c1.4-3.3-3.1-4.2-5.4-5.1
				c-4.6-1.9-9.5-3.2-14.4-4.5c-1.8-0.5-4.4-0.5-4.2-2.8c0.2-3,3-2.7,5.2-2.5c8.2,0.9,16.3,2.6,22.9,7.9c3.8,3.1,7.5,4.9,12.6,5
				c7.6,0.2,13.6,4.4,19,9.4C809,582.3,802.7,574.1,800,575.1z"/>
			<path class="st13" d="M753.9,571.5c-8.8-7.9-18.7-11.5-30.4-7c-1.9,0.7-3.9,1-4.6-1.5c-0.5-1.8,1.1-2.7,2.5-3.5
				c11.7-7.7,32.9-1.3,37.8,11.4C757.4,571.1,755.7,571.3,753.9,571.5z"/>
			<path class="st13" d="M234.6,532c-5.5-1.1-10.5,0.9-15.6,2.5c-2,0.7-4.6,2.5-5.8,0c-1.5-3.2,2.1-4,4.1-5c3.1-1.5,6.4-2.5,9.6-3.7
				c10.8-0.8,22.1-3.4,28.8,9.1c0.6,1.1,4.7,0.4,7.1,0.3c12.2-0.5,23.7,1,33,11.2c-3.6,2.8-6.4,0.4-9-0.5
				c-13.7-4.7-27.4-7.2-41.5-1.9c-1.8,0.7-3.8,1.7-4.9-0.7c-1.1-2.5,1.3-3.2,2.9-3.8c2.6-1.1,5.3-1.9,8.9-3.2
				C246.5,532.7,240.7,531.6,234.6,532z"/>
			<path class="st0" d="M547.4,567.1c-3.4,1.4-6.1,0.6-8.8-0.4c-10.9-3.9-21.5-3.2-32,1.7c-2.1,1-4.8,3.3-6.4,0
				c-1.3-2.6,1.7-3.6,3.5-4.6c11.2-6.5,23-7.8,35.3-4.2C542.6,560.7,546.2,562.1,547.4,567.1z"/>
			<path class="st0" d="M560.1,200.5c2.7,0.1,5.4,0.1,8.1,0.2c1.2,0.1,2.5,0.2,3.7,0.3c-0.6,4-3.7,3.4-6.5,3.6c-3,0.2-6.3-1-8.7,1.9
				c-5-0.3-10.1-0.6-15.1-0.9c-2.7-4.8-6-3.7-9.5-1c-3.8-0.3-7.6-0.6-11.3-0.9c1.1-4.7-8.8-0.4-5.6-6.9c3.1,0.3,6.3,0.5,9.4,0.8
				c2.6,5,6,3.8,9.5,1.1c4.4-1.6,9.6,2.8,13.6-1.9c1.7,0,3.4,0.1,5.2,0.1c0.7,0.7,1.3,1.5,2,2.2c0.6,2.5,1.4,4.4,4,1.4
				C559.1,200.3,559.6,200.3,560.1,200.5z"/>
			<path class="st0" d="M590.9,208.1c0.6-4,3.7-3.6,6.5-3.6c18.4,0,36.9,0,55.3,0c2.8,0,5.9-0.4,6.5,3.6
				C636.3,209.4,613.6,209.2,590.9,208.1z"/>
			<path class="st13" d="M556.7,206.5c2.4-3,5.7-1.7,8.7-1.9c2.7-0.2,5.9,0.5,6.5-3.6c1.3,0,2.5,0.1,3.8,0.1c0,2.2,0,4.4,0,6.6
				C569.3,208.2,563,207.6,556.7,206.5z"/>
			<path class="st0" d="M575.7,207.7c0-2.2,0-4.4,0-6.6c3.2,0.1,6.3,0.2,9.5,0.3c0,2.2,0,4.3,0,6.5
				C582,207.9,578.9,207.8,575.7,207.7z"/>
			<path class="st13" d="M532.1,204.6c3.5-2.7,6.8-3.8,9.5,1C538.3,206.1,535.2,205.7,532.1,204.6z"/>
			<path class="st0" d="M723.8,221.4c1.3,2,3.6,1.4,5.4,1.9c1.3,2.2,7,0.6,5.2,4.8c-1.3,3-4.3-0.5-6.5-0.8
				c-11.8-1.8-21.4-8.8-32-13.5c-1-0.4-2.8-1.9-0.9-3.6c9.9,2.9,18.4,9.3,28.7,11.2L723.8,221.4z"/>
			<path class="st13" d="M552.8,197c-1.7,0-3.4-0.1-5.2-0.1c-5.2-5.4-8.5-11.6-7.4-19.9C544.4,183.6,548.6,190.3,552.8,197z"/>
			<path class="st13" d="M534,198.7c-3.5,2.7-6.9,3.9-9.5-1.1C527.7,198,530.9,198.4,534,198.7z"/>
			<path class="st13" d="M558.7,200.6c-2.5,3-3.3,1.1-4-1.4C556.1,199.7,557.4,200.1,558.7,200.6z"/>
			<path class="st13" d="M414.7,293.2c-9.7-5.4-15.3-13.8-17.3-24.8c6.4,7.8,12.1,16.1,19.4,23C416.1,292,415.4,292.6,414.7,293.2z"
				/>
			<path class="st0" d="M414.7,293.2c0.7-0.6,1.4-1.2,2.1-1.8c0.6-0.6,1.3-1.1,1.9-1.7c2.4,2.8,2.2,4.8-1.8,5.5
				C416.2,294.6,415.4,293.9,414.7,293.2z"/>
			<path class="st0" d="M280.2,406.9c0.5,0.3,1,0.4,1.6,0.2c3.5,11.1,12.8,18.4,19.6,28.5c-5.9,0.1-8-4.6-11.8-6.2
				c-5.1-7.1-11.2-13.6-13.3-22.5C277.6,407,278.9,407,280.2,406.9z"/>
			<path class="st0" d="M830.4,363.9c0.6,2.2,2.3,2.1,4.1,2.1c2,0,4.1,0.2,2.8,3.2C833.5,369.4,832.3,366.2,830.4,363.9z"/>
			<path class="st13" d="M445.4,420.5c-6.7-3.2-6.9-9.5-8.1-15.3C442.2,409.3,443.8,414.9,445.4,420.5z"/>
			<path class="st0" d="M872.2,548.5c-3.9-1.4-5.5-2.9-4.2-6.3C870.9,542.8,871.6,544.8,872.2,548.5z"/>
			<path class="st3" d="M723.6,221.3c0.1-0.2,0.3-0.5,0.4-0.7c-0.1,0.3-0.2,0.5-0.3,0.8C723.8,221.4,723.6,221.3,723.6,221.3z"/>
		</g>
	</g>
	<g>
		<g>
			<path class="st14" d="M613.1,131.9c0-0.2,0.1-0.3,0.3-0.3c-5.4,0.3-10.7,0.7-16.1,1c0.1,0.1,0.2,0.2,0.3,0.2
				C602.7,132.6,607.9,132.3,613.1,131.9z"/>
			<path class="st15" d="M422.8,465.5c11.8,21.4,26.8,40.3,44.8,56.7c27.5,25.1,59.3,42.5,95.4,51.9c15.4,4,31,6.3,46.9,6.9
				c14.1,0.6,28.1-0.1,42-2.2c27.4-4,53.2-12.7,77.4-26.3c21.1-11.9,39.8-26.7,56.1-44.6c29.2-32.3,47.7-69.8,55.4-112.7
				c0.4-2.3,0.7-4.6,1.1-6.9c0-0.1,0-0.2,0.1-0.3c0.2-1,0.4-1.9,0.6-2.9c0.2-1.2,0.3-2.4,0.5-3.6c0.2-1.6,0.1-3.3,0.4-4.9
				c-0.1-0.2-0.1-0.5,0-0.9c0.3-2.7,0.4-5.5,0.5-8.2c0-0.9,0.3-1.6,0.8-2.3c15.3-21.2,12.3-49.3-7.3-66.7c-0.8-0.7-1.3-1.6-1.6-2.6
				c-11.3-40.1-32.2-74.4-62.4-102.9c-19.4-18.4-41.5-32.8-66.2-43.2c-20.5-8.7-41.9-14.3-64.1-16.6c-9.9-1-19.9-1.4-29.8-1.1
				c-5.2,0.3-10.4,0.6-15.5,1c-26.3,2.6-51.4,9.5-75.2,20.9c-28.7,13.8-53.5,32.8-74.1,57.1c-26.1,30.7-42.8,65.9-50,105.6
				c-2.6,14.2-3.7,28.5-3.5,42.9C395.2,397.1,404.5,432.5,422.8,465.5z M832.7,337.8c-5-1.2-9.1-3.8-11.1-8.8
				c-1.3-3.2-1.7-6.5-2-9.7c-0.2-3.5-0.5-6.9,0.4-10.1c0.7-2.6,2.3-4.3,4.9-5.1c0.5-0.1,0.9-0.2,1.4,0c4.7,2.2,8.8,5.1,10.8,10.1
				c1.5,3.8,2.5,7.7,2.9,11.8c0.3,3.1,0.5,6.3-1.6,9C837,336.9,835,338.4,832.7,337.8z M831,380.3c-7.8-0.4-15.5-0.9-23.3-1.4
				c-7.9-0.5-15.8-0.9-23.7-1.3c-8.3-0.4-16.6-0.8-24.9-1.2c-2.1-0.1-4-0.5-5.6-2.1c-3.2-3-3.8-9.3-1.1-12.8c0.8-1.1,1.9-1.7,3.2-2
				c1.9-0.3,3.8,0,5.6,0.4c15.2,3.8,30.3,8,45.3,12.4c8.4,2.5,16.9,5.1,25.3,7.6c0,0.1,0,0.2,0,0.3
				C831.6,380.3,831.3,380.3,831,380.3z M570.2,562.1c0.4-0.9,0.9-1.8,1.4-2.6c2.8-4.5,5.6-8.9,8.1-13.6c5.4-9.7,9.1-19.9,8.8-31.3
				c0-1.5,0.9-2.2,2.5-1.8c7.5,2.2,15.1,3.5,22.9,4.4c8.1,0.9,16.2,2.1,24.4,1.1c3.8-0.5,7.7-1,11.5-1.3c6.7-0.7,13.3-1.5,19.8-3.5
				c5.2-1.6,10.3-3.6,14.7-6.9c3.4-2.6,5-5.9,4.5-10.3c-0.3-2.3-1-4.4-1.7-6.6c-4.3-13.5-11.4-25.4-20.9-35.9
				c-7.3-8.2-15.8-15-24.5-21.6c-19.2-14.6-35.9-31.6-49.2-51.8c-2.2-3.4-3-6.7-2.6-10.6c0.7-7.3,2-14.4,3.6-21.5
				c4.1-18.2,9.6-36,15.5-53.6c4.2-12.6,9.5-24.6,17-35.7c5.2-7.6,11.6-13.9,20.2-17.6c17-7.2,34.7-11.7,53-13.7
				c8-0.9,16.1-1.3,24.2-1.2c2.6,0,5.3,0.1,7.9,0.3c4,0.4,8,1,12,1.4c8.8,0.9,17.3,2.7,25.6,5.8c10.7,4,20.7,9.6,30.8,15
				c5.7,3.1,9.8,7.6,12.4,13.4c3.9,8.4,7.7,16.7,11.6,25.1c0.2,0.4,0.3,0.8,0.4,1.3c0.1,0.8-0.2,1.2-1.1,0.9
				c-1.8-0.6-3.7-1.2-5.5-1.7c-9-2.4-18-2.8-27.1-0.3c-7.7,2.2-14.3,6.3-20.2,11.7c-13.7,12.6-18.1,28.2-14.7,46.2
				c0.7,3.6,0.3,4.5-3.1,5.9c-4,1.6-7,4.2-8.4,8.3c-2.1,5.8-1.7,11.5,1.3,16.8c2.6,4.6,6.6,7.3,12.1,7.5c3.8,0.1,7.6,0.3,11.5,0.5
				c9.4,0.5,18.9,1,28.3,1.6c10.3,0.6,20.6,1.3,30.9,1.9c3,0.2,3.9,1.2,3.3,4.2c-3.2,17.9-8.3,35.3-15.6,52
				c-9.4,21.5-22,40.8-38.1,58c-15.7,16.8-33.7,30.7-53.6,42.2c-24.7,14.3-51.6,22-79.8,25.7c-6.1,0.8-12.2,1.1-17.5,1.4
				c-3.9,0.2-6.9,0.5-10,0.6c-2.9,0.1-5.8,0.2-8.8-0.4c-9.7-2-19.5-3.3-29.3-4.9c-2.3-0.4-4.6-0.5-6.9-1.2
				C569.9,565,569.4,563.9,570.2,562.1z M404.2,353.5c0.1-5.5,0.3-11,0.8-16.5c0.9-11.3,2.9-22.5,5.6-33.4
				c3.7-14.6,8.9-28.7,15.5-42.2c7.7-15.7,17.2-30.3,28.4-43.7c5.8-7,12.1-13.5,18.7-19.7c10.2-9.5,21.2-17.8,33-25
				c12.8-7.7,26.2-14.1,40.1-19.3c4.8-1.8,9.7-3.2,14.8-3.8c10.8-3.9,21.9-6.1,33.3-7.2c10.8-1.1,21.7-1.5,32.5-1
				c8.5,0.4,16.9,1.1,25.2,2.5c26.3,4.3,51,13.2,74.1,26.3c15.4,8.7,29.1,19.5,41.7,31.8c11,10.8,21,22.4,29.2,35.4
				c0.5,0.8,1.7,1.9,1.2,2.4c-0.8,0.7-2.1,0-3.2-0.6c-0.2-0.1-0.4-0.2-0.5-0.3c-8.1-5-16.8-8.9-25.8-11.9c-18.5-6.3-37.6-8.2-57.1-7
				c-13.4,0.8-26.6,2.7-39.7,5.8c-8.5,2.1-17.1,4.3-25.1,7.9c-8.9,4-16.5,9.8-22.8,17.2c-6.8,8-11.4,17.3-15.6,26.9
				c-5.3,12.3-9.2,25.1-13,38c-4.2,14.1-8.3,28.2-10.8,42.8c-0.5,2.9-1.1,5.7-1.6,8.9c-1.7-2.2-3.2-4.2-4.6-6.1
				c-1.4-1.9-2.8-2-4.7-0.6c-1.8,1.3-1.9,2.3-0.4,4.3c7.4,10.1,14.8,20.2,22.2,30.4c11.1,15.3,24.1,28.6,39.5,39.7
				c8.9,6.4,17.4,13.4,24.7,21.6c7.5,8.4,14.3,17.4,18.7,27.9c1.7,4,3.1,8.2,3.9,12.5c-0.2,2.6-1.5,4.3-3.7,5.6
				c-3.6,2.2-7.4,3.6-11.4,4.6c-7.5,1.9-15.1,2.9-22.7,4c-8.2,1.2-16.6,1-24.9,0.1c-5.3-0.6-10.6-1.4-15.9-2.3
				c-4.4-0.7-8.7-1.3-12.6-3.8c-13.3-8.4-26.7-16.6-40.1-24.9c-1.4-0.9-2-0.8-2.9,0.7c-0.4,0.7-0.9,1.3-1.3,2
				c-0.6,1-0.5,1.8,0.4,2.5c1.1,0.9,2.3,1.7,3.4,2.7c3.9,3.4,7.7,6.8,11.6,10.2c5.5,4.8,11.4,8.8,18.7,10.4c1.6,0.4,2,1.2,1.7,2.8
				c-0.3,2.3-0.7,4.6-0.9,6.9c-0.6,7.7-2.7,14.9-6.4,21.7c-3.6,6.5-7.9,12.7-11.3,19.3c-1,1.9-2.4,2.4-4.2,1.9
				c-7.2-2.3-14.5-4.5-21.5-7.3c-10.7-4.4-21-9.6-30.9-15.5c-13.8-8.3-26.4-18.2-38-29.4c-8.6-8.2-16.4-17.1-23.4-26.6
				c-10.1-13.6-18.3-28.2-24.9-43.8c-5.5-13-9.6-26.4-12.5-40.2c-1.7-8.4-3-16.8-3.8-25.3C404.3,366.8,404.1,360.2,404.2,353.5z"/>
			<path class="st14" d="M675.7,498.5c-6.4,1-12.9,1.7-19.5,1.8c-6.3,0.1-12.7,0-19-0.5c-10-0.8-19.8-2.5-29.4-5.1
				c-13.3-3.5-25.9-8.7-37.9-15.4c-7.9-4.4-15.4-9.5-22.5-15.1c-5-3.9-9.8-8-14.3-12.4c-10.1-9.8-19.2-20.6-26.9-32.4
				c-6.9-10.5-12.6-21.7-17.3-33.3c-3.8-9.5-6.8-19.3-9.1-29.2c-1.4-6-2.5-12.1-3.4-18.3c-1.2-8-1.7-16.1-2-24.2
				c-0.2-6.6,0.2-13.2,0.7-19.8c1.1-13,3.5-25.7,7.1-38.1c3.3-11.5,7.6-22.5,12.9-33.2c4.4-8.7,9.4-17,15-24.9
				c2.1-3,4.4-5.9,6.7-8.7c3.9-4.8,8.1-9.3,12.4-13.7c4.5-4.5,9.3-8.7,14.3-12.6c5.4-4.3,10.9-8.4,16.4-12.5c0.4-0.3,1-0.6,1.2-1.1
				c10.8-3.9,21.9-6.1,33.3-7.2c10.8-1.1,21.7-1.5,32.5-1c8.5,0.4,16.9,1.1,25.2,2.5c26.3,4.3,51,13.2,74.1,26.3
				c15.4,8.7,29.1,19.5,41.7,31.8c11,10.8,21,22.4,29.2,35.4c0.5,0.8,1.7,1.9,1.2,2.4c-0.8,0.7-2.1,0-3.2-0.6
				c-0.2-0.1-0.4-0.2-0.5-0.3c-8.1-5-16.8-8.9-25.8-11.9c-18.5-6.3-37.6-8.2-57.1-7c-13.4,0.8-26.6,2.7-39.7,5.8
				c-8.5,2.1-17.1,4.3-25.1,7.9c-8.9,4-16.5,9.8-22.8,17.2c-6.8,8-11.4,17.3-15.6,26.9c-5.3,12.3-9.2,25.1-13,38
				c-4.2,14.1-8.3,28.2-10.8,42.8c-0.5,2.9-1.1,5.7-1.6,8.9c-1.7-2.2-3.2-4.2-4.6-6.1c-1.4-1.9-2.8-2-4.7-0.6
				c-1.8,1.3-1.9,2.3-0.4,4.3c7.4,10.1,14.8,20.2,22.2,30.4c11.1,15.3,24.1,28.6,39.5,39.7c8.9,6.4,17.4,13.4,24.7,21.6
				c7.5,8.4,14.3,17.4,18.7,27.9c1.7,4,3.1,8.2,3.9,12.5C680.3,498,678,498.2,675.7,498.5z M556.2,349.9c0.6,0,1.2-0.1,1.7-0.4
				c2.2-0.9,2.6-2.3,1.2-4.2c-3.9-5.2-7.8-10.3-11.7-15.5c-5.9-7.9-11.9-15.7-17.8-23.6c-0.4-0.5-0.7-1-1.1-1.4
				c-1.5-1.5-3.2-1.5-4.6,0.2c-1.1,1.3-1.8,2.9-2.7,4.3c-1.4,2.3-2.6,4.7-4,7c-1.6,2.7-1.4,5.4,0.4,7.8c6,7.8,12,15.6,18,23.4
				c1.8,2.3,4.5,3.1,7.3,3.1c2.2,0,4.5-0.2,6.7-0.4C551.8,350.1,554,350,556.2,349.9z M526.6,351.7c0.3,0,0.7,0,1-0.1
				c2.8-0.8,4.4-2.5,2.3-5.3c-3.9-5.4-7.8-10.8-11.8-16.2c-1.9-2.6-4.6-2.4-6.1,0.4c-3.2,5.9-6.4,11.9-9.6,17.9
				c-1.3,2.4-0.3,4.2,2.5,4.4c4,0.4,7.9-0.4,11.2-0.4C520.1,352.1,523.3,351.9,526.6,351.7z"/>
			<path class="st16" d="M616.8,572.1c-2.9,0.1-5.8,0.2-8.8-0.4c-9.7-2-19.5-3.3-29.3-4.9c-2.3-0.4-4.6-0.5-6.9-1.2
				c-1.9-0.6-2.3-1.6-1.6-3.4c0.4-0.9,0.9-1.8,1.4-2.6c2.8-4.5,5.6-8.9,8.1-13.6c5.4-9.7,9.1-19.9,8.8-31.3c0-1.5,0.9-2.2,2.5-1.8
				c7.5,2.2,15.1,3.5,22.9,4.4c8.1,0.9,16.2,2.1,24.4,1.1c3.8-0.5,7.7-1,11.5-1.3c6.7-0.7,13.3-1.5,19.8-3.5
				c5.2-1.6,10.3-3.6,14.7-6.9c3.4-2.6,5-5.9,4.5-10.3c-0.3-2.3-1-4.4-1.7-6.6c-4.3-13.5-11.4-25.4-20.9-35.9
				c-7.3-8.2-15.8-15-24.5-21.6c-19.2-14.6-35.9-31.6-49.2-51.8c-2.2-3.4-3-6.7-2.6-10.6c0.7-7.3,2-14.4,3.6-21.5
				c4.1-18.2,9.6-36,15.5-53.6c4.2-12.6,9.5-24.6,17-35.7c5.2-7.6,11.6-13.9,20.2-17.6c17-7.2,34.7-11.7,53-13.7
				c8-0.9,16.1-1.3,24.2-1.2c2.6,0,5.3,0.1,7.9,0.3c4,0.4,8,1,12,1.4c8.8,0.9,17.3,2.7,25.6,5.8c10.7,4,20.7,9.6,30.8,15
				c5.7,3.1,9.8,7.6,12.4,13.4c3.9,8.4,7.7,16.7,11.6,25.1c0.2,0.4,0.3,0.8,0.4,1.3c0.1,0.8-0.2,1.2-1.1,0.9
				c-1.8-0.6-3.7-1.2-5.5-1.7c-9-2.4-18-2.8-27.1-0.3c-7.7,2.2-14.3,6.3-20.2,11.7c-13.7,12.6-18.1,28.2-14.7,46.2
				c0.7,3.6,0.3,4.5-3.1,5.9c-4,1.6-7,4.2-8.4,8.3c-2.1,5.8-1.7,11.5,1.3,16.8c2.6,4.6,6.6,7.3,12.1,7.5c3.8,0.1,7.6,0.3,11.5,0.5
				c9.4,0.5,18.9,1,28.3,1.6c10.3,0.6,20.6,1.3,30.9,1.9c3,0.2,3.9,1.2,3.3,4.2c-3.2,17.9-8.3,35.3-15.6,52
				c-9.4,21.5-22,40.8-38.1,58c-15.7,16.8-33.7,30.7-53.6,42.2c-24.7,14.3-51.6,22-79.8,25.7c-6.1,0.8-12.2,1.1-17.5,1.4
				C622.8,571.7,619.8,572,616.8,572.1z M621.4,326.4c1,28.1,24.7,49.5,52.1,48.5c27.8-1.1,49.6-24.5,48.3-52.6
				c-1.4-28.2-25.1-49-52.3-47.8C640.6,275.9,620.4,300,621.4,326.4z"/>
			<path class="st17" d="M682.4,497.2c-2.2,0.8-4.5,1-6.7,1.3c-6.4,1-12.9,1.7-19.5,1.8c-6.3,0.1-12.7,0-19-0.5
				c-10-0.8-19.8-2.5-29.4-5.1c-13.3-3.5-25.9-8.7-37.9-15.4c-7.9-4.4-15.4-9.5-22.5-15.1c-5-3.9-9.8-8-14.3-12.4
				c-10.1-9.8-19.2-20.6-26.9-32.4c-6.9-10.5-12.6-21.7-17.3-33.3c-3.8-9.5-6.8-19.3-9.1-29.2c-1.4-6-2.5-12.1-3.4-18.3
				c-1.2-8-1.7-16.1-2-24.2c-0.2-6.6,0.2-13.2,0.7-19.8c1.1-13,3.5-25.7,7.1-38.1c3.3-11.5,7.6-22.5,12.9-33.2
				c4.4-8.7,9.4-17,15-24.9c2.1-3,4.4-5.9,6.7-8.7c3.9-4.8,8.1-9.3,12.4-13.7c4.5-4.5,9.3-8.7,14.3-12.6c5.4-4.3,10.9-8.4,16.4-12.5
				c0.4-0.3,1-0.6,1.2-1.1c-5.1,0.6-10,2-14.8,3.8c-13.9,5.3-27.4,11.6-40.1,19.3c-11.9,7.2-22.9,15.5-33,25
				c-6.6,6.2-12.9,12.8-18.7,19.7c-11.2,13.4-20.7,28-28.4,43.7c-6.6,13.5-11.8,27.6-15.5,42.2c-2.8,11-4.7,22.1-5.6,33.4
				c-0.4,5.5-0.7,11-0.8,16.5c-0.1,6.7,0.1,13.3,0.8,20c0.9,8.5,2.1,16.9,3.8,25.3c2.9,13.8,7,27.2,12.5,40.2
				c6.6,15.6,14.8,30.2,24.9,43.8c7.1,9.5,14.9,18.4,23.4,26.6c11.6,11.2,24.2,21,38,29.4c9.9,6,20.2,11.1,30.9,15.5
				c7,2.9,14.3,5,21.5,7.3c1.8,0.6,3.3,0,4.2-1.9c3.5-6.6,7.7-12.8,11.3-19.3c3.7-6.8,5.8-14,6.4-21.7c0.2-2.3,0.6-4.6,0.9-6.9
				c0.2-1.6-0.2-2.4-1.7-2.8c-7.3-1.6-13.2-5.6-18.7-10.4c-3.9-3.4-7.7-6.8-11.6-10.2c-1.1-0.9-2.2-1.8-3.4-2.7
				c-0.9-0.7-1-1.5-0.4-2.5c0.4-0.7,0.9-1.3,1.3-2c0.9-1.4,1.5-1.5,2.9-0.7c13.4,8.3,26.8,16.5,40.1,24.9c3.9,2.4,8.2,3.1,12.6,3.8
				c5.3,0.8,10.6,1.6,15.9,2.3c8.3,1,16.6,1.1,24.9-0.1c7.6-1.1,15.2-2.1,22.7-4c4-1,7.9-2.5,11.4-4.6
				C680.9,501.6,682.3,499.8,682.4,497.2z"/>
			<path class="st14" d="M831.9,380c-8.4-2.5-16.8-5.1-25.3-7.6c-15-4.4-30.1-8.6-45.3-12.4c-1.9-0.5-3.7-0.8-5.6-0.4
				c-1.3,0.2-2.4,0.9-3.2,2c-2.6,3.5-2,9.8,1.1,12.8c1.6,1.5,3.5,2,5.6,2.1c8.3,0.4,16.6,0.8,24.9,1.2c7.9,0.4,15.8,0.9,23.7,1.3
				c7.8,0.4,15.5,0.9,23.3,1.4c0.3,0,0.6,0,0.9-0.1C831.9,380.2,831.9,380.1,831.9,380z"/>
			<path class="st18" d="M819.6,319.3c0.3,3.2,0.7,6.5,2,9.7c2.1,5,6.2,7.6,11.1,8.8c2.4,0.6,4.3-0.9,5.7-2.8c2.1-2.7,1.9-5.9,1.6-9
				c-0.4-4.1-1.4-8-2.9-11.8c-2-5.1-6.1-8-10.8-10.1c-0.5-0.2-1-0.1-1.4,0c-2.6,0.8-4.2,2.5-4.9,5.1
				C819,312.5,819.3,315.8,819.6,319.3z"/>
			<path class="st17" d="M549.6,350.3c2.2-0.1,4.4-0.3,6.6-0.4c0.6,0,1.2-0.1,1.7-0.4c2.2-0.9,2.6-2.3,1.2-4.2
				c-3.9-5.2-7.8-10.3-11.7-15.5c-5.9-7.9-11.9-15.7-17.8-23.6c-0.4-0.5-0.7-1-1.1-1.4c-1.5-1.5-3.2-1.5-4.6,0.2
				c-1.1,1.3-1.8,2.9-2.7,4.3c-1.4,2.3-2.6,4.7-4,7c-1.6,2.7-1.4,5.4,0.4,7.8c6,7.8,12,15.6,18,23.4c1.8,2.3,4.5,3.1,7.3,3.1
				C545.1,350.7,547.4,350.4,549.6,350.3z"/>
			<path class="st17" d="M516.1,352.4c4-0.3,7.2-0.5,10.5-0.7c0.3,0,0.7,0,1-0.1c2.8-0.8,4.4-2.5,2.3-5.3
				c-3.9-5.4-7.8-10.8-11.8-16.2c-1.9-2.6-4.6-2.4-6.1,0.4c-3.2,5.9-6.4,11.9-9.6,17.9c-1.3,2.4-0.3,4.2,2.5,4.4
				C508.9,353.2,512.9,352.4,516.1,352.4z"/>
			<path class="st19" d="M721.8,322.3c1.4,28.1-20.4,51.5-48.3,52.6c-27.5,1.1-51.1-20.3-52.1-48.5c-1-26.4,19.2-50.6,48.1-51.9
				C696.7,273.3,720.4,294.1,721.8,322.3z M682.4,319.2c1.2,3,3.3,5.2,6.1,6.7c2.6,1.3,5.3,2.2,8.2,2.7c5.2,0.8,9.3-2.5,9.5-7.8
				c0.2-6-1-11.9-3.7-17.2c-2.7-5.4-7.5-8.5-13.3-9.7c-4.2-0.9-7.6,1.5-8.6,5.6c-0.7,2.9-0.4,5.8-0.3,8.8
				C680.6,312,680.9,315.7,682.4,319.2z"/>
			<path class="st18" d="M680.3,308.2c0.3,3.7,0.6,7.4,2,10.9c1.2,3,3.3,5.2,6.1,6.7c2.6,1.3,5.3,2.2,8.2,2.7
				c5.2,0.8,9.3-2.5,9.5-7.8c0.2-6-1-11.9-3.7-17.2c-2.7-5.4-7.5-8.5-13.3-9.7c-4.2-0.9-7.6,1.5-8.6,5.6
				C679.9,302.4,680.2,305.3,680.3,308.2z"/>
		</g>
		<g>
			<g>
				<circle class="st20" cx="429.7" cy="242.6" r="161.1"/>
				<path class="st20" d="M429.7,411.4c-93.1,0-168.8-75.7-168.8-168.8c0-93.1,75.7-168.8,168.8-168.8s168.8,75.7,168.8,168.8
					C598.5,335.6,522.8,411.4,429.7,411.4z M429.7,89.2c-84.6,0-153.4,68.8-153.4,153.4c0,84.6,68.8,153.4,153.4,153.4
					s153.4-68.8,153.4-153.4C583.1,158,514.3,89.2,429.7,89.2z"/>
			</g>
		</g>
		<g>
			<path class="st21" d="M586.8,240.3c0,1.6,0,3.1,0,4.7c0,1.4-0.1,2.7-0.1,4.1c-0.2,3.9-0.5,7.9-1,11.8c-1.1,9.6-3.1,19.1-6,28.3
				c-9.5,30.2-26.6,55.4-51.2,75.5c-15.9,13-33.8,22.3-53.5,28.3c-11.8,3.6-23.8,5.7-36.1,6.4c-1.4,0.1-2.8,0-4.2,0.3
				c-3.2,0-6.5,0-9.7,0c-0.3-0.2-0.7-0.1-1-0.1c-6.3-0.2-12.5-0.8-18.6-1.8c-11.9-1.9-23.5-5.1-34.7-9.7
				c-23.3-9.6-43.3-23.8-59.7-43c-23.2-27.2-35.8-58.8-37.8-94.5c-0.7-11.5,0.1-22.9,2-34.3c2.8-16.1,7.9-31.3,15.4-45.8
				c12-23,28.7-42,50-56.8c12.6-8.7,26.2-15.4,40.7-20.2c13.2-4.3,26.8-6.8,40.7-7.5c8.7-0.5,17.5-0.1,26.2,0.9
				c9.3,1.1,18.4,2.9,27.3,5.7c26.2,8,48.8,21.9,67.8,41.6c15.7,16.4,27.3,35.3,34.8,56.7c3.7,10.4,6.1,21,7.6,31.9
				c0.6,4.5,0.9,9,1.2,13.6C586.7,237.6,586.7,238.9,586.8,240.3z M394.5,155.4c-12.2,0-24.4,0-36.6,0c-0.4,0-0.9,0-1.3,0
				c-1.2,0-1.4,0.3-1.4,1.5c0,0.4,0,0.8,0,1.2c0,17.2,0,34.3,0,51.5c0,2.5,0,2.6-2.5,2.6c-6.8,0-13.5,0-20.3,0
				c-1.6,0-1.7,0.1-1.7,1.7c0,5.5,0,10.9,0,16.4c0,0.4,0,0.8,0.1,1.2c0,0.6,0.4,0.9,1,0.9c0.3,0,0.6,0,0.9,0c7,0,14,0,21,0
				c1.5,0,1.6,0.2,1.6,1.6c0,6,0,11.9,0,17.9c0,1.9-0.2,2.1-2,2.1c-7.2,0-14.4,0-21.7,0c-0.5,0-0.9-0.1-0.9,0.6c0,6,0,12,0,18
				c0,1.4,0.3,1.6,1.7,1.6c6.9,0,13.8,0,20.7,0c0.3,0,0.6,0,0.9,0c1,0,1.2,0.2,1.3,1.3c0,0.4,0,0.7,0,1.1c0,17.4,0,34.9,0,52.3
				c0,1.3-0.2,1.1,1.1,1.1c22.1,0,44.1,0,66.2,0c2.1,0,4.1,0,6.2-0.1c9.4-0.3,18.6-1.6,27.6-4.3c10.3-3.1,20-7.6,28.6-14.2
				c12.4-9.4,21.8-21.2,27.4-35.9c0.4-1,1.3-1.6,2.4-1.6c6.2,0,12.4,0,18.6,0c1.8,0,2.3-0.4,2.3-2.3c0-3.7-0.1-7.4,0-11.1
				c0.1-1.8-0.2-3.7,0.2-5.5c0.2-0.9-0.1-1.2-1-1.2c-4.8,0-9.6,0-14.4,0c-2.1,0-2.3-0.2-2.1-2.2c0.5-5.8,0.5-11.7,0-17.5
				c-0.1-1.6,0.1-1.9,1.7-1.9c4.3,0,8.5,0,12.8,0c0.3,0,0.7,0,1,0c1.3-0.1,1.8-0.5,1.8-1.8c0-5.6,0-11.1,0-16.7
				c0-1.4-0.2-1.7-1.6-1.7c-6.2,0-12.3,0-18.5,0c-1.2,0-2.2-0.6-2.6-1.7c-1.5-4.4-3.5-8.5-5.9-12.4c-8-13.3-18.8-23.6-32.5-31
				c-14.3-7.7-29.6-11.4-45.8-11.5C417.2,155.3,405.8,155.4,394.5,155.4z"/>
			<path class="st22" d="M586.7,236.2c0,0,0.1,0,0.1,0c0,1.4,0,2.7,0,4.1C586.7,238.9,586.7,237.6,586.7,236.2z"/>
			<path class="st22" d="M586.8,249.1L586.8,249.1l-0.1,0c0-1.4,0.1-2.7,0.1-4.1C586.8,246.4,586.8,247.7,586.8,249.1z"/>
			<path class="st22" d="M394.5,155.4c11.3,0,22.7-0.1,34,0c16.2,0.1,31.5,3.9,45.8,11.5c13.7,7.3,24.5,17.7,32.5,31
				c2.4,3.9,4.4,8.1,5.9,12.4c0.4,1.1,1.4,1.7,2.6,1.7c6.2,0,12.3,0,18.5,0c1.4,0,1.6,0.3,1.6,1.7c0,5.6,0,11.1,0,16.7
				c0,1.3-0.5,1.7-1.8,1.8c-0.3,0-0.7,0-1,0c-4.3,0-8.5,0-12.8,0c-1.6,0-1.9,0.3-1.7,1.9c0.5,5.8,0.5,11.6,0,17.5
				c-0.2,2.1,0,2.2,2.1,2.2c4.8,0,9.6,0,14.4,0c0.9,0,1.3,0.3,1,1.2c-0.4,1.8-0.2,3.7-0.2,5.5c-0.1,3.7,0,7.4,0,11.1
				c0,1.8-0.4,2.3-2.3,2.3c-6.2,0-12.4,0-18.6,0c-1.1,0-2,0.6-2.4,1.6c-5.6,14.7-15,26.5-27.4,35.9c-8.6,6.6-18.3,11.1-28.6,14.2
				c-9,2.7-18.2,4-27.6,4.3c-2.1,0.1-4.1,0.1-6.2,0.1c-22.1,0-44.1,0-66.2,0c-1.3,0-1.1,0.1-1.1-1.1c0-17.4,0-34.9,0-52.3
				c0-0.4,0-0.7,0-1.1c0-1-0.2-1.2-1.3-1.3c-0.3,0-0.6,0-0.9,0c-6.9,0-13.8,0-20.7,0c-1.4,0-1.7-0.2-1.7-1.6c0-6,0-12,0-18
				c0-0.7,0.4-0.6,0.9-0.6c7.2,0,14.4,0,21.7,0c1.9,0,2-0.2,2-2.1c0-6,0-11.9,0-17.9c0-1.5-0.1-1.6-1.6-1.6c-7,0-14,0-21,0
				c-0.3,0-0.6,0-0.9,0c-0.6,0-0.9-0.3-1-0.9c0-0.4-0.1-0.8-0.1-1.2c0-5.5,0-10.9,0-16.4c0-1.6,0.1-1.7,1.7-1.7c6.8,0,13.6,0,20.3,0
				c2.5,0,2.5,0,2.5-2.6c0-17.2,0-34.3,0-51.5c0-0.4,0-0.8,0-1.2c0-1.2,0.3-1.4,1.4-1.5c0.4,0,0.9,0,1.3,0
				C370.1,155.4,382.3,155.4,394.5,155.4z M432.9,212.5c18.8,0,37.6,0,56.3,0c1.3,0,1.4-0.1,1.5-1.2c0-0.5-0.1-1-0.3-1.4
				c-3.8-7.6-8.9-14.1-15.5-19.6c-13.2-10.9-28.3-16.4-45.4-16.4c-17.4,0-34.8,0-52.2,0c-2.3,0-2.5,0.2-2.5,2.5
				c0,11.2,0,22.3,0,33.5c0,2.5,0,2.5,2.5,2.5C395.8,212.5,414.3,212.5,432.9,212.5z M430.8,274.2c-17.8,0-35.6,0-53.4,0
				c-0.5,0-1.1,0-1.6,0c-0.5,0-0.9,0.3-0.9,0.9c-0.1,0.5-0.1,1.1-0.1,1.6c0,11,0,22,0,33c0,2.3,0.1,2.4,2.4,2.4
				c17.4,0,34.8,0.1,52.3,0c3.6,0,7.1-0.7,10.7-1.2c4.2-0.6,8.2-1.7,12.3-2.9c4.1-1.2,7.9-3,11.6-4.9c10.3-5.3,18.3-13.1,24.3-23
				c0.8-1.3,1.6-2.7,2.3-4.1c0.7-1.6,0.3-1.9-1.1-2c-2.2-0.1-4.3,0.1-6.5,0.1C465.6,274.1,448.2,274.2,430.8,274.2z M436,253.7
				c19.6,0,39.2,0,58.8,0c0.3,0,0.6,0,0.9,0c1.2,0,1.5-0.3,1.6-1.5c0.5-6,0.5-12,0.1-17.9c-0.1-1.9-0.5-2.2-2.4-2.2
				c-39.3,0-78.5,0-117.8,0c-0.2,0-0.4,0-0.6,0c-1.2,0.1-1.6,0.4-1.7,1.6c0,0.3,0,0.5,0,0.8c0,5.6,0,11.2,0,16.8
				c0,2.4,0,2.4,2.4,2.4C396.8,253.7,416.4,253.7,436,253.7z"/>
			<path class="st21" d="M432.9,212.5c-18.5,0-37,0-55.6,0c-2.5,0-2.5,0-2.5-2.5c0-11.2,0-22.3,0-33.5c0-2.3,0.2-2.5,2.5-2.5
				c17.4,0,34.8,0,52.2,0c17.1,0,32.3,5.5,45.4,16.4c6.5,5.4,11.6,12,15.5,19.6c0.2,0.4,0.4,0.9,0.3,1.4c-0.1,1.1-0.1,1.2-1.5,1.2
				C470.4,212.5,451.6,212.5,432.9,212.5z"/>
			<path class="st21" d="M430.8,274.2c17.4,0,34.7,0,52.1,0c2.2,0,4.3-0.2,6.5-0.1c1.4,0.1,1.9,0.4,1.1,2c-0.6,1.4-1.5,2.8-2.3,4.1
				c-6,9.9-14.1,17.6-24.3,23c-3.7,1.9-7.6,3.7-11.6,4.9c-4,1.2-8.1,2.3-12.3,2.9c-3.5,0.5-7.1,1.2-10.7,1.2
				c-17.4,0.1-34.8,0-52.3,0c-2.3,0-2.4-0.1-2.4-2.4c0-11,0-22,0-33c0-0.5,0-1.1,0.1-1.6c0.1-0.5,0.4-0.8,0.9-0.9c0.5,0,1.1,0,1.6,0
				C395.3,274.2,413.1,274.2,430.8,274.2z"/>
			<path class="st21" d="M436,253.7c-19.6,0-39.2,0-58.8,0c-2.4,0-2.4,0-2.4-2.4c0-5.6,0-11.2,0-16.8c0-0.3,0-0.5,0-0.8
				c0.1-1.2,0.5-1.6,1.7-1.6c0.2,0,0.4,0,0.6,0c39.3,0,78.5,0,117.8,0c1.9,0,2.2,0.3,2.4,2.2c0.4,6,0.5,12-0.1,17.9
				c-0.1,1.2-0.4,1.4-1.6,1.5c-0.3,0-0.6,0-0.9,0C475.2,253.7,455.6,253.7,436,253.7z"/>
		</g>
	</g>
</g>
</svg>
