<?xml version="1.0" encoding="utf-8"?>
<!-- Generator: Adobe Illustrator 25.2.1, SVG Export Plug-In . SVG Version: 6.00 Build 0)  -->
<svg version="1.1" id="Layer_1" xmlns="http://www.w3.org/2000/svg" xmlns:xlink="http://www.w3.org/1999/xlink" x="0px" y="0px"
	 viewBox="0 0 117.8 35.3" style="enable-background:new 0 0 117.8 35.3;" xml:space="preserve">
<style type="text/css">
	.st0{fill:#FFFFFF;}
	.st1{fill:#FFFFFF;stroke:#FFFFFF;stroke-miterlimit:10;}
</style>
<path class="st0" d="M2.7,0H0.9C0.4,0,0,0.4,0,0.8v1.8c0,0.5,0.4,0.8,0.8,0.8h1.8c0.5,0,0.8-0.4,0.8-0.8V0.8C3.5,0.4,3.2,0,2.7,0z"
	/>
<path class="st0" d="M117,31.8h-1.8c-0.5,0-0.8,0.4-0.8,0.8v1.8c0,0.5,0.4,0.8,0.8,0.8h1.8c0.5,0,0.8-0.4,0.8-0.8v-1.8
	C117.8,32.1,117.5,31.8,117,31.8z"/>
<path class="st1" d="M0.5,34.2V9c0-0.3,0.2-0.5,0.5-0.5h7c0.8,0,1.4-0.6,1.4-1.4V1c0-0.3,0.2-0.5,0.5-0.5h106.9
	c0.3,0,0.5,0.2,0.5,0.5v26c0,0.3-0.2,0.5-0.5,0.5h-5.4c-1.1,0-1.9,0.9-1.9,1.9v4.9c0,0.3-0.2,0.5-0.5,0.5L1,34.7
	C0.7,34.7,0.5,34.5,0.5,34.2z"/>
</svg>
