<svg style="white-space:pre" shape-rendering="geometricPrecision" text-rendering="geometricPrecision" viewBox="0 0 930 200" xmlns:xlink="http://www.w3.org/1999/xlink" xmlns="http://www.w3.org/2000/svg">
  <defs>
    <linearGradient gradientUnits="userSpaceOnUse" y2="145.10789" x2="476.40347" y1="-42.63046" x1="434.01094" id="linear-gradient">
      <stop stop-color="#4e309c" offset="0"></stop>
      <stop stop-color="#3b2475" offset="1"></stop>
    </linearGradient>
    <clipPath id="clip-path">
      <rect style="fill:none" rx="22.48675" height="129.08835" width="928.40935" y="32.95367" x="1.44814"></rect>
    </clipPath>
    <clipPath id="clip-path-2">
      <rect style="fill:none" rx="22.48675" height="129.08835" width="361.24037" y="32.95367" x="1.44814"></rect>
    </clipPath>
    <linearGradient gradientUnits="userSpaceOnUse" y2="179.3867" x2="57.75453" y1="-4.92202" x1="57.75453" id="linear-gradient-2">
      <stop stop-color="#ffcf00" offset="0"></stop>
      <stop stop-color="#ff9c00" offset="1"></stop>
    </linearGradient>
    <linearGradient xlink:href="#linear-gradient-2" y2="179.3867" x2="137.43587" y1="-4.92202" x1="137.43587" id="linear-gradient-3"></linearGradient>
    <clipPath id="clip-path-3">
      <path style="fill:none" d="M907.37079,162.042h-354.949a22.48681,22.48681,0,0,1-22.48681-22.48682V55.44045a22.49467,22.49467,0,0,1,22.496-22.4868l157.27064,0a227.18511,227.18511,0,0,1,26.61256-16.81948c34.71-18.80113,76.38491-20.44908,112.06634-3.56416,20.36987,9.63928,28.81139,20.38364,28.81139,20.38364l30.17882,0s9.464.14959,15.90051,6.58618a22.41645,22.41645,0,0,1,6.5863,15.90057v84.11487A22.48676,22.48676,0,0,1,907.37079,162.042Z"></path>
    </clipPath>
    <radialGradient gradientUnits="userSpaceOnUse" r="62.3384" cy="66.66761" cx="775.78882" id="radial-gradient">
      <stop stop-color="#b0ffff" offset="0"></stop>
      <stop stop-color="#94ffff" offset="0.13905"></stop>
      <stop stop-color="#45fffe" offset="0.55682"></stop>
      <stop stop-color="#13fffe" offset="0.85386"></stop>
      <stop stop-color="#00fffe" offset="1"></stop>
    </radialGradient>
    <linearGradient gradientUnits="userSpaceOnUse" y2="38.78266" x2="829.50836" y1="162.66893" x1="859.91681" id="linear-gradient-4">
      <stop stop-color="#4358ff" offset="0.35315"></stop>
      <stop stop-color="#5540ff" offset="0.45601"></stop>
      <stop stop-color="#7812ff" offset="0.67026"></stop>
      <stop stop-color="#8500ff" offset="0.7779"></stop>
    </linearGradient>
    <linearGradient gradientUnits="userSpaceOnUse" y2="121.97339" x2="827.62637" y1="50.17567" x1="794.40233" id="linear-gradient-5">
      <stop stop-color="#fff" offset="0.2482"></stop>
      <stop stop-color="#00fffe" offset="0.70601"></stop>
    </linearGradient>
    <linearGradient gradientUnits="userSpaceOnUse" y2="106.02614" x2="862.08866" y1="34.22842" x1="828.86462" id="linear-gradient-6">
      <stop stop-color="#fff" offset="0.3347"></stop>
      <stop stop-color="#00fffe" offset="0.82961"></stop>
    </linearGradient>
    <linearGradient gradientUnits="userSpaceOnUse" y2="167.34004" x2="924.22298" y1="94.13452" x1="927.97711" id="linear-gradient-7">
      <stop stop-color="#8d9fd4" offset="0"></stop>
      <stop stop-color="#7a8bcd" offset="0.26386"></stop>
      <stop stop-color="#4a57bb" offset="0.80243"></stop>
      <stop stop-color="#3743b4" offset="0.99338"></stop>
    </linearGradient>
  </defs>
  <title>IglooNewDesign_Light-02</title>
  <g style="isolation:isolate">
    <g id="light">
      <rect style="fill:url(#linear-gradient)" rx="22.48675" height="129.08835" width="928.40935" y="32.95367" x="1.44814"></rect>
      <g style="opacity:0.06">
        <g style="clip-path:url(#clip-path)">
          <polyline style="fill:none;stroke:#d88dff;stroke-miterlimit:10;stroke-width:3px" points="153.178 10.441 153.178 63.374 179.645 63.374 179.645 85.899"></polyline>
          <polyline style="fill:none;stroke:#d88dff;stroke-miterlimit:10;stroke-width:3px" points="344.669 97.771 344.669 146.012 367.569 146.012 367.897 183.723"></polyline>
          <polyline style="fill:none;stroke:#d88dff;stroke-miterlimit:10;stroke-width:3px" points="520.051 10.441 520.051 63.374 480.193 63.374 480.568 85.899"></polyline>
          <polyline style="fill:none;stroke:#d88dff;stroke-miterlimit:10;stroke-width:3px" points="538.382 103.344 538.382 156.277 506.097 156.318 505.345 193.818"></polyline>
          <polyline style="fill:none;stroke:#d88dff;stroke-miterlimit:10;stroke-width:3px" points="630.183 -32.24 630.183 49.701 603.717 49.701 603.717 84.569"></polyline>
          <polyline style="fill:none;stroke:#d88dff;stroke-miterlimit:10;stroke-width:3px" points="795.811 138.181 713.871 138.181 713.871 111.714 679.002 111.714"></polyline>
          <rect style="fill:#d88dff" rx="2.49884" height="4.99768" width="4.99768" y="52.95647" x="159.79503"></rect>
          <rect style="fill:#d88dff" transform="translate(-7.19839 121.94494) rotate(-40.36088)" rx="2.49884" height="4.99768" width="4.99768" y="68.26628" x="159.79503"></rect>
          <rect style="fill:none;stroke:#d88dff;stroke-miterlimit:10" rx="2.49884" height="4.99768" width="4.99768" y="128.20329" x="276.53671"></rect>
          <rect style="fill:none;stroke:#d88dff;stroke-miterlimit:10" transform="translate(-28.14144 215.45703) rotate(-40.36088)" rx="2.49884" height="4.99768" width="4.99768" y="143.5131" x="276.53671"></rect>
          <rect style="fill:#d88dff" transform="translate(573.23585 -482.63278) rotate(90)" rx="2.49884" height="4.99768" width="4.99768" y="42.8027" x="525.43548"></rect>
          <rect style="fill:#d88dff" transform="translate(215.16793 -374.64572) rotate(49.63913)" rx="2.49884" height="4.99768" width="4.99768" y="42.8027" x="510.12567"></rect>
          <rect style="fill:none;stroke:#d88dff;stroke-miterlimit:10" transform="translate(844.895 -598.39976) rotate(90)" rx="2.49884" height="4.99768" width="4.99768" y="120.74878" x="719.14854"></rect>
          <rect style="fill:none;stroke:#d88dff;stroke-miterlimit:10" transform="translate(342.82588 -494.78312) rotate(49.63913)" rx="2.49884" height="4.99768" width="4.99768" y="120.74878" x="703.83873"></rect>
        </g>
      </g>
      <g style="clip-path:url(#clip-path-2)">
        <path style="fill:#00aeff" d="M284.41492,163.21231H-3.7572Q-1.718,112.22844.3212,61.24448a486.11847,486.11847,0,0,0,75.458,16.3305c17.25653,2.29877,33.92536,3.44513,67.263,5.73774,34.30054,2.35882,47.34925,2.4909,69.60553,6.46985A354.57033,354.57033,0,0,1,254.1933,99.821a60.06214,60.06214,0,0,1,22.90106,10.1333c5.53656,4.03015,12.96881,9.44012,16.07873,18.56567C298.84088,145.15116,285.84137,161.47391,284.41492,163.21231Z"></path>
        <path style="fill:#00e7ff" d="M231.36168,180.73214H-56.81044q2.03919-50.98389,4.0784-101.96784c31.29428,9.36988,58.55282,16.31558,76.70425,18.73355,17.25653,2.29876,30.07856,6.47748,63.4162,8.77008,34.30054,2.35883,47.92759-.15176,70.18387,3.82719,17.86481,3.19384,35.30916,3.05386,44.62721,5.91275,5.27936,1.11835,12.11316,3.40311,20.9762,9.85459,5.53656,4.03015,13.83424,11.05181,16.94416,20.17736C245.78764,162.671,232.78813,178.99374,231.36168,180.73214Z"></path>
        <path style="fill:#47fff3" d="M189.72223,200.3341H-98.44989q2.0392-50.98389,4.0784-101.96784c31.29428,9.36988,58.55283,16.31558,76.70426,18.73354,17.25653,2.29877,31.07886,9.14487,64.4165,11.43747,34.30054,2.35883,46.92728-2.81914,69.18357,1.1598,17.8648,3.19385,35.30915,3.05387,44.62721,5.91276,5.27935,1.11834,13.77113,2.66565,22.63416,9.11713a45.71855,45.71855,0,0,1,15.2862,20.91481C204.14819,182.27294,191.14868,198.59569,189.72223,200.3341Z"></path>
        <polygon style="fill:#00afff" points="124.754 168.166 -12.349 168.166 -12.349 127.449 88.745 129.006 124.754 168.166"></polygon>
        <polygon style="fill:none;stroke:#14142b;stroke-linecap:round;stroke-miterlimit:10;stroke-width:3px" points="124.754 168.166 -12.349 168.166 -12.349 127.449 88.745 129.006 124.754 168.166"></polygon>
        <path style="fill:url(#linear-gradient-2)" d="M61.19183,36.99277a18.48738,18.48738,0,0,0-16.10266,1.8208c-11.92261,8.03754-8.84259,30.65045-4.729,58.43732,2.95306,19.94763,5.64416,38.48218,9.77917,47.91565a8.72178,8.72178,0,0,1,1.61481,1.29742c.53381.19159,1.0647.40088,1.5954.61151,4.40631-4.46484,11.81744-8.12323,17.81451-7.17028,4.13745-8.56574,6.93164-22.08173,7.50629-41.50647C79.22552,79.63132,79.0498,43.47776,61.19183,36.99277Z"></path>
        <path style="fill:#ffe67b" d="M46.74927,36.09189c-11.505,0-22.02143,26.99976-20.83167,60.25812.79328,22.17505,2.28333,37.176,5.7558,45.72461a15.03317,15.03317,0,0,1,3.851.217c5.40491-.17194,12.83673.68164,16.19007,4.13556,6.82208-6.92481,11.72961-22.43891,12.5133-48.92938C65.21179,64.23276,58.25427,36.09189,46.74927,36.09189Z"></path>
        <path style="fill:#ffcf00" d="M52.4032,49.41013c-11.505,0-22.02143,26.99975-20.83167,60.25812.47846,13.374,1.21424,24.12048,2.48157,32.43377.49512.04651.98871.10791,1.47131.18964,5.40491-.17194,12.83673.68164,16.19007,4.13556,6.82208-6.92481,11.72961-22.43891,12.5133-48.92938.49024-16.573-.99164-31.87146-4.02411-43.05439C57.93054,51.21567,55.313,49.41013,52.4032,49.41013Z"></path>
        <path style="fill:url(#linear-gradient-3)" d="M122.4621,168.166c11.6546-.69782,23.33654-1.01166,35.01825-1.06757.42572-4.22961.72363-8.822.87133-13.81463.55518-18.7674.37946-54.921-17.47851-61.40595a18.48738,18.48738,0,0,0-16.10266,1.8208c-11.92261,8.03754-8.84259,30.65045-4.729,58.43732C120.85644,157.64084,121.65143,163.03641,122.4621,168.166Z"></path>
        <path style="fill:#ffcf00" d="M106.54523,169.36985c12.092-1.11164,24.22717-1.75263,36.37457-2.05854.48883-4.53308.82849-9.49237.98932-14.9284.98407-33.26508-5.97345-61.40589-17.47852-61.40589s-22.02142,26.9997-20.83166,60.25806C105.8385,157.93125,106.14331,163.96183,106.54523,169.36985Z"></path>
        <path style="fill:#ffe67b" d="M115.712,161.34806c-1.18975-33.25837,9.32666-60.25806,20.83167-60.25806.17,0,.33569.02643.50372.03863C134.224,94.74295,130.63238,90.977,126.4306,90.977c-11.505,0-22.02142,26.9997-20.83166,60.25806.23956,6.69617.54437,12.72675.94629,18.13477q4.72833-.4347,9.46521-.77259Q115.84581,165.11057,115.712,161.34806Z"></path>
        <path style="fill:#3aaf64" d="M46.77856,143.17838c-1.06884,1.07818-3.11749-.56549-8.07141-1.12622-6.1709-.69849-7.24743,1.3703-11.45007.37536-3.61853-.85669-5.81088-3.09832-9.573-6.94513a48.76279,48.76279,0,0,1-7.696-10.51153c-2.64487-4.69928-8.73444-15.51892-5.81888-18.30139,1.53515-1.46509,5.153-.0069,12.38861,2.90948,7.23282,2.91522,10.84921,4.37287,15.01654,7.69592,6.28021,5.00788,9.17291,10.35633,12.20093,15.95508C45.73456,136.85257,48.28589,141.65781,46.77856,143.17838Z"></path>
        <path style="fill:#5bd821" d="M43.77527,133.23c-3.028-5.59875-5.92072-10.9472-12.20093-15.95508-4.1673-3.32305-7.78369-4.7807-15.01654-7.69592-7.2356-2.91638-10.85346-4.37457-12.38861-2.90948-.98743.94238-.92841,2.81573-.33362,5.05194,1.9267.58972,4.436,1.59955,7.6748,2.905,7.23279,2.91522,10.84919,4.37286,15.01655,7.69592C32.80713,127.33017,42.812,134.44513,45.84,140.04389c.69587,1.28662-.35534-.1274.28156,1.25742,3.445.6803-.24376,2.7857.657,1.87707C48.28589,141.65781,45.73456,136.85257,43.77527,133.23Z"></path>
        <path style="fill:#5bd821" d="M105.66492,154.62235c-1.0279-.95746-2.16156-1.98975-3.44446-3.15644-5.77143-5.24884-8.65717-7.87322-10.60578-7.03283-3.70068,1.596-1.75,13.85742-.90277,19.18292.07032.44214.14905.847.22455,1.26672,5.56445.85749,10.5907-.4226,16.10455-.65393A23.87339,23.87339,0,0,1,105.66492,154.62235Z"></path>
        <path style="fill:#3aaf64" d="M72.58819,139.23654c.3891.52485.89136.7569,4.22339,1.59552,4.463,1.1233,6.69452,1.68494,7.81354,1.5752,1.10547-.1084,2.49243-.46149,7.2171-4.00732a89.02256,89.02256,0,0,0,8.98566-7.68995c3.50171-3.38024,5.27344-5.10821,6.29828-6.95922,1.32934-2.40113,1.09009-3.26819,2.53406-9.66687,1.94085-8.60065,3.58685-12.41248,2.33014-13.17719-.58539-.3562-1.34852.22376-3.081,1.07013-3.9447,1.927-6.34552,2.02588-9.03461,2.82275-7.03717,2.08545-13.69006,8.25415-14.35156,8.87458-4.0354,3.785-6.31732,8.15118-10.88312,16.88147C72.66864,134.32517,71.282,137.47464,72.58819,139.23654Z"></path>
        <path style="fill:#5bd821" d="M25.95843,97.95578c.00916-.09643.01789-.193.027-.28955-.028-3.30627.20764-6.64294-.115-9.95514a5.21979,5.21979,0,0,1,.03735-1.332,35.39956,35.39956,0,0,0-9.89447-3.21033,39.54916,39.54916,0,0,0,.77918,13.4115c2.165,8.68567,5.37866,12.56165,6.47583,13.79645.159.179,1.10339,1.09339,2.99213,2.9223.20275.19635.39447.38239.58929.57135C25.10089,109.1655,25.52307,102.53049,25.95843,97.95578Z"></path>
        <path style="fill:#9e6146" d="M19.05871,138.19419-.29944,140.04148,26.31149,163.384l63.72714-8.19892v-9.42462a29.06861,29.06861,0,0,0-36.68908,1.315,38.2941,38.2941,0,0,0-26.09247-4.648Q23.1579,140.31083,19.05871,138.19419Z"></path>
        <path style="fill:none;stroke:#14142b;stroke-linecap:round;stroke-miterlimit:10;stroke-width:3px" d="M80.00341,78.7643c8.40743,1.10717,13.85586,1.60645,20.50958,2.16589,54.37843,4.57213,86.36185,1.79586,141.7126,14.70966,41.50991,9.68463,51.09275,29.59206,52.226,36.73024a35.23836,35.23836,0,0,1-8.8149,28.86442"></path>
        <path style="fill:none;stroke:#14142b;stroke-linecap:round;stroke-miterlimit:10;stroke-width:3px" d="M.968,62.19674q13.17831,3.84408,25.34335,6.725"></path>
        <path style="fill:none;stroke:#14142b;stroke-linecap:round;stroke-miterlimit:10;stroke-width:3px" d="M155.08705,109.30314c21.82051,2.16,43.91979,2.16,64.17747,13.20967,14.119,7.98029,25.16862,23.327,20.87051,39.93959"></path>
        <path style="fill:none;stroke:#14142b;stroke-linecap:round;stroke-miterlimit:10;stroke-width:3px" d="M78.76262,105.69226c5.38316.41011,11.8584.78269,17.25158,1.02528"></path>
        <path style="fill:none;stroke:#14142b;stroke-linecap:round;stroke-miterlimit:10;stroke-width:3px" d="M-2.26532,92.33275q9.19014,2.151,18.44061,4.01727"></path>
        <path style="fill:none;stroke:#14142b;stroke-linecap:round;stroke-miterlimit:10;stroke-width:3px" d="M158.49546,135.31632q4.28838.88551,8.5902,1.92934a52.317,52.317,0,0,1,22.71315,12.89125,29.39382,29.39382,0,0,1,6.65212,13.24712"></path>
        <path style="fill:none;stroke:#14142b;stroke-linecap:round;stroke-miterlimit:10;stroke-width:3px" d="M-3.75721,120.27239c3.94436.95,7.868,1.71982,11.80038,2.36942"></path>
        <path style="fill:none;stroke:#14142b;stroke-linecap:round;stroke-miterlimit:10;stroke-width:3px" d="M27.73568,142.57215a38.814,38.814,0,0,1-9.41114-6.63507c-9.88495-9.23972-13.51-22.26561-14.63842-27.64056a1.81171,1.81171,0,0,1,2.04765-2.19062c8.034,1.61186,20.54994,4.11387,28.56431,12.74216a64.60029,64.60029,0,0,1,13.92945,24.84736"></path>
        <path style="fill:none;stroke:#14142b;stroke-linecap:round;stroke-miterlimit:10;stroke-width:3px" d="M105.95634,153.69624c-4.32949-4.8107-9.33563-7.43738-13.38247-9.81417a1.47254,1.47254,0,0,0-2.15487,1.13856,48.00846,48.00846,0,0,0,1.18559,18.19171"></path>
        <path style="fill:none;stroke:#14142b;stroke-linecap:round;stroke-miterlimit:10;stroke-width:3px" d="M71.64364,140.04147c1.46847-6.47841,4.81-16.43487,12.24558-24.22292,9.34378-9.78669,22.40727-13.27376,27.79387-14.34526,1.245-.24766,1.58532.30692,1.32245,1.54885"></path>
        <path style="fill:none;stroke:#14142b;stroke-linecap:round;stroke-miterlimit:10;stroke-width:3px" d="M107.82163,122.59994a32.935,32.935,0,0,1-7.01332,9.372A62.57222,62.57222,0,0,1,83.4954,142.90406"></path>
        <path style="fill:none;stroke:#14142b;stroke-linecap:square;stroke-miterlimit:10;stroke-width:3px" d="M22.4866,109.939c-6.69079-9.39976-7.50765-20.90014-7.5377-25.5832A1.54487,1.54487,0,0,1,17.032,82.873a70.85512,70.85512,0,0,1,8.32672,3.84017"></path>
        <polyline style="fill:none;stroke:#14142b;stroke-linecap:round;stroke-miterlimit:10;stroke-width:3px" points="90.039 155.185 26.311 163.384 -0.299 140.042 20.92 138.194"></polyline>
        <line style="fill:none;stroke:#14142b;stroke-linecap:round;stroke-miterlimit:10;stroke-width:3px" y2="163.38403" x2="8.91873" y1="156.10688" x1="-0.29945"></line>
        <path style="fill:none;stroke:#14142b;stroke-linecap:round;stroke-miterlimit:10;stroke-width:3px" d="M27.72987,113.53569A159.4536,159.4536,0,0,1,26.3115,91.9656c0-31.33222,8.48784-56.732,18.95813-56.732s18.95813,25.39979,18.95813,56.732c0,25.016-5.41066,46.25027-12.921,53.79488"></path>
        <path style="fill:none;stroke:#14142b;stroke-linecap:round;stroke-miterlimit:10;stroke-width:3px" d="M70.595,140.04389c5.23232-10.09828,8.69664-27.69405,8.69664-47.71114,0-31.33222-8.48785-56.732-18.95814-56.732l-15.06383-.36715"></path>
        <path style="fill:none;stroke:#14142b;stroke-linecap:round;stroke-miterlimit:10;stroke-width:3px" d="M106.74232,163.38426c-.51137-5.13861-.786-10.58244-.786-16.21822,0-31.33222,8.48785-56.732,18.95813-56.732s18.95814,25.39978,18.95814,56.732a163.43737,163.43737,0,0,1-.89744,17.29838"></path>
        <path style="fill:none;stroke:#14142b;stroke-linecap:round;stroke-miterlimit:10;stroke-width:3px" d="M158.18654,163.3843c.48819-5.03052.7499-10.34935.7499-15.85111,0-31.33222-8.48784-56.732-18.95813-56.732L124.91447,90.434"></path>
        <path style="fill:none;stroke:#14142b;stroke-linecap:round;stroke-miterlimit:10;stroke-width:3px" d="M37.22146,73.33141c1.757-11.4018,5.06579-19.08533,8.858-19.08533,5.632,0,10.1976,16.947,10.1976,37.85212,0,4.65176-.22606,9.10754-.63964,13.22423"></path>
        <path style="fill:none;stroke:#14142b;stroke-linecap:round;stroke-miterlimit:10;stroke-width:3px" d="M52.60373,121.19094c-1.76816,5.46922-4.04269,8.75938-6.52424,8.75938-5.632,0-10.19761-16.947-10.19761-37.85212"></path>
        <path style="fill:none;stroke:#14142b;stroke-linecap:round;stroke-miterlimit:10;stroke-width:3px" d="M116.05645,129.93081c1.757-11.4018,5.06579-19.08533,8.858-19.08533,5.632,0,10.19761,16.947,10.19761,37.85212,0,4.65177-.22606,9.10755-.63964,13.22424"></path>
        <path style="fill:none;stroke:#14142b;stroke-linecap:round;stroke-miterlimit:10;stroke-width:3px" d="M115.64093,164.4645a129.72567,129.72567,0,0,1-.92406-15.7669"></path>
        <path style="fill:none;stroke:#14142b;stroke-linecap:round;stroke-miterlimit:10;stroke-width:3px" d="M19.05872,145.73641c4.3611-1.70859,12.47019-4.45133,20.10714-3.9082,7.891.56119,14.69146,5.52141,14.69146,5.52141a25.364,25.364,0,0,1,10.18815-6.36985c4.36958-1.34022,14.98558-2.496,25.99316,5.90892"></path>
      </g>
      <g style="clip-path:url(#clip-path-3)">
        <path style="fill:#fefcff" d="M907.761,97.72812c-.01624,50.162-57.76673,94.43006-113.37989,94.44165-33.21289.0069-36.78258-24.85085-81.15078-25.34038-49.6457-.54776-84.46791-3.23793-84.46791-3.23793s-1.98446-47.63928,4.411-60.20684c4.693-9.22217,10.11633-13.78772,11.63782-15.01654,7.7384-6.25019,15.94128-8.08594,20.46728-9.04694,11.63843-2.47119,18.86792-1.03027,18.86792-1.03027s11.65-30.73188,40.111-52.00153c.89038-.6654,1.59252-1.17224,2.06555-1.51373,28.67566-20.70105,58.60522-21.4,68.0581-21.48908,9.99427-.09417,37.89075.02045,65.35413,18.25806C864.57336,24.75742,907.775,54.33213,907.761,97.72812Z"></path>
        <path style="fill:#7cb8ed" d="M874.66724,77.56778c-.01062,32.47937-24.22925,62.48224-56.39673,79.6059,4.80432.06927,9.60327.13739,14.38916.1579,15.111.06482,30.2102.60107,45.30859,1.177,18.019-16.71045,29.7854-38.14447,29.79273-60.78046.014-43.396-43.18763-72.9707-48.02576-76.18353-7.03211-4.6698-20.30322-9.24127-27.08435-11.83539C847.01391,22.17429,874.677,46.98636,874.66724,77.56778Z"></path>
        <path style="fill:url(#radial-gradient)" d="M822.40088,44.0687,820.34,37.27018l16.63233-13.78052L832.65088,9.7092a104.21152,104.21152,0,0,0-44.68726-6.17364Q774.178,6.063,760.39245,8.59043l-9.29162,10.95672-20.82446,2.6529-15.671,19.62274.40942,17.81549,20.15649,1.87988,4.49085,21.51422-3.111,2.6507a53.49012,53.49012,0,0,1,11.17028,14.13513,55.18847,55.18847,0,0,1,6.35315,30.32172q6.969-6.19611,13.938-12.39228L781.02,121.33011l10.57312-10.76831Z"></path>
        <path style="fill:#fff" d="M793.23889,130.03891c3.72034-33.53381-6.03662-40.56659,1.45276-58.04376A48.501,48.501,0,0,1,814.3219,49.60446c14.55823-8.42852,29.66369-5.9591,35.81006-4.95428a53.34716,53.34716,0,0,1,22.03051,8.39667,43.2414,43.2414,0,0,1,12.79859,12.50622c6.94568,10.70862,6.62353,21.836,6.3822,27.51215-.30884,7.26349-.88525,20.82007-11.46619,31.04407-2.35424,2.27484-11.5664,11.17627-22.76977,10.24688-6.957-.57714-12.33252-4.75024-16.70581-1.87707a7.8374,7.8374,0,0,0-3.45777,5.58832c-.562,6.10614,7.58411,12.05969,7.58411,12.05969l-51.289.46449A123.794,123.794,0,0,1,793.23889,130.03891Z"></path>
        <path style="fill:#e94043" d="M846.59576,125.25241l-.84468-6.382,6.382-.73954,1.5955,4.68138s-.37541,2.08745-.84468,1.98225S846.59576,125.25241,846.59576,125.25241Z"></path>
        <path style="fill:#e94043" d="M811.70582,124.174l-7.46133-1.26794.35608-1.89117a3.63779,3.63779,0,0,1,4.27227-2.89722l1.764.3445A2.3989,2.3989,0,0,1,812.482,121.481Z"></path>
        <path style="fill:#91b1dd;opacity:0.53" d="M886.60629,114.98648c-.05865-4.61413,1.09646-10.13222,1.33181-14.88673.356-7.19049-7.93715-14.54564-6.42894-21.52879a254.3989,254.3989,0,0,0-84.633,1.04174c-.77987,9.89924-5.94385,18.54984-5.09875,28.46457.1224,1.43677.99348,5.312.38351,6.10046.3639.73377.85112.53556,1.078,1.31394,2.241-.50122,10.50749-2.58589,12.47237-3.09715,2.32229-.60426,2.97043-3.74737,3.19087-6.47585l-.83-1.22012-8.2737-10.26041,15.7028,1.48395,8.09508-3.73157a14.58383,14.58383,0,0,1,10.764,5.87507,18.48939,18.48939,0,0,1,3.48131,8.24387,5.73567,5.73567,0,0,0,4.93721,5.07955C854.57436,112.26187,874.76534,114.1136,886.60629,114.98648Z"></path>
        <path style="fill:#e94043" d="M816.37475,48.204c3.481-1.42529,28.25574-11.09991,51.738,2.28479a56.10128,56.10128,0,0,1,21.10462,21.68207q5.20038,1.11686,10.40088,2.23377l11.96618-2.23377-4.58642-9.28693L888.94568,46.55326l-21.786-7.81354-21.91455-2.15479Z"></path>
        <path style="fill:#e94043" d="M791.59314,110.5618c-6.64136,7.97351-12.02564,13.97-15.71582,17.97547-4.59558,4.98828-7.49512,7.9-7.61231,12.37768-.114,4.358,2.41346,10.73236,2.41346,10.73236h0l12.097,5.028,20.01795-2.962,12.994-8.35767,3.61939-7.86962-4.52429-3.86744L792.067,131.916l1.17187-17.73828Z"></path>
        <path style="fill:#4e6ca8" d="M810.57449,149.60984H849.675l10.22607,7.422q5.28154,3.05515,10.56309,6.11024,3.75205.90519,7.50412,1.8103l-84.66613-.95131-.81641-7.42358,11.17321-2.65712Z"></path>
        <path style="fill:#8d9fd4" d="M854.67908,155.45835l-9.434-5.84851H809.17334l-6.37988,3.39666-9.35621,1.90052,61.317.5885Z"></path>
        <polygon style="fill:#8d9fd4" points="844.131 133.09 842.842 132.942 842.271 129.662 845.245 125.476 857.107 124.794 859.714 128.942 860.271 132.942 844.131 133.09"></polygon>
        <polygon style="fill:#8d9fd4" points="797.839 130.865 800.232 124.047 812.584 125.202 815.346 127.212 816.422 131.634 815.948 133.944 797.839 130.865"></polygon>
        <polygon style="fill:#8d9fd4" points="906.998 62.884 927.903 64.342 936.741 70.337 942.074 80.372 935.725 158.161 896.246 159.774 895.54 156.913 907.761 148.059 913.704 133.944 915.86 117.079 916.055 113.167 920.741 109.413 923.931 101.132 924.262 89.682 918.807 78.451 911.584 72.171 906.998 62.884"></polygon>
        <rect style="fill:#c63158" height="33.69515" width="25.19959" y="126.09709" x="889.3459"></rect>
        <path style="fill:#e94043" d="M886.71094,108.44059a28.90571,28.90571,0,0,1-5.23987,13.31225c-.88843,1.21655-6.802,9.07471-16.82385,11.08838-6.68641,1.34351-9.40491-1.07941-20.51648.24921a69.24356,69.24356,0,0,0-7.27515,1.26574,23.54275,23.54275,0,0,0,2.23193,9.57306c5.98621,12.51923,23.76014,18.94965,44.67408,17.21778a39.16438,39.16438,0,0,0,20.2069-9.93323c13.80958-13.05719,12.14954-31.69153,11.89124-34.13458a21.877,21.877,0,0,1-11.07495.19567,22.38408,22.38408,0,0,1-12.43421-8.39593Z"></path>
        <path style="fill:#c63158" d="M915.80859,117.09238C915.084,124.274,912.436,134.37174,903.9685,142.378a39.1643,39.1643,0,0,1-20.2069,9.93323c-20.91394,1.73187-38.68787-4.69855-44.67408-17.21777-.16833-.352-.33093-.72644-.48986-1.11255-.66114.134-1.25171.26251-1.74207.37524a23.54275,23.54275,0,0,0,2.23193,9.57306c5.98621,12.51923,23.76014,18.94965,44.67408,17.21778a39.16438,39.16438,0,0,0,20.2069-9.93323c13.80958-13.05719,12.14954-31.69153,11.89124-34.13458Z"></path>
        <path style="fill:url(#linear-gradient-4)" d="M787.51684,74.9249a336.50687,336.50687,0,0,1,112.10145-.52026A34.19764,34.19764,0,0,0,891.833,87.99271c-2.85083,9.66162,1.1645,17.82181,2.2104,20.8862-17.35828-1.13611-36.40926-2.27213-53.76753-3.40823a17.39012,17.39012,0,0,0-16.6742-18.84809l-9.31689,3.73157-18.07288-1.48395,9.49927,13.33649-.42273,4.5462s-19.28,4.65576-19.62085,3.4289-2.1477-22.51422-2.1477-22.51422Z"></path>
        <path style="fill:#8d9fd4" d="M924.2622,97.49785c0,13.19614-8.25966,20.633-16.50122,20.633s-17.16274-10.3999-17.16274-23.596,8.92118-21.9366,17.16274-21.9366S924.2622,84.30171,924.2622,97.49785Z"></path>
        <ellipse style="fill:#a9bbea" ry="17.26559" rx="12.43555" cy="95.12893" cx="912.6215"></ellipse>
        <path style="fill:url(#linear-gradient-5)" d="M828.57593,70.81272,787.51684,74.9249a41.99515,41.99515,0,0,0-1.84924,35.2569q9.81042-1.71442,19.62085-3.4289a18.22751,18.22751,0,0,1,8.99634-16.39874c8.64636-5.02368,17.408-.4314,17.86731-.18018,1.91235,2.13172-1.91236-2.13171,0,0l8.12383-19.74671Z"></path>
        <polygon style="fill:url(#linear-gradient-6)" points="852.474 70.464 839.859 103.677 856.104 104.48 867.16 71.296 852.474 70.464"></polygon>
        <polygon style="fill:#e94043" points="824.429 93.905 797.839 89.048 800.514 95.876 808.902 105.919 816.938 109.413 823.32 108.879 828.576 104.48 828.142 97.723 824.429 93.905"></polygon>
        <path style="fill:#7cb8ed" d="M668.65,106.55352h0a20.27228,20.27228,0,0,1,20.27228,20.27228V165.14a0,0,0,0,1,0,0H648.37774a0,0,0,0,1,0,0V126.8258A20.27228,20.27228,0,0,1,668.65,106.55352Z"></path>
        <path style="fill:#4e6ca8" d="M687.47974,165.131c.83255-10.28316-.5542-22.33179-.25782-32.97523.26367-9.47377-.42895-19.07676-9.27-23.31771a5.24622,5.24622,0,0,1-.99133-.61444c-7.37183,3.32138-12.56555,11.25393-12.56555,20.52184V165.14h23.08667Z"></path>
        <path style="fill:#a9faa5" d="M694.00448,123.97214h0a10.87144,10.87144,0,0,1,10.87144,10.87144v11.54134a10.87144,10.87144,0,0,1-10.87144,10.87144h0a0,0,0,0,1,0,0V123.97214a0,0,0,0,1,0,0Z"></path>
        <path style="fill:#a9faa5" d="M642.6701,123.09379h0a0,0,0,0,1,0,0v33.58155a0,0,0,0,1,0,0h0a8.80376,8.80376,0,0,1-8.80376-8.80376v-15.974A8.80376,8.80376,0,0,1,642.6701,123.09379Z"></path>
        <path style="fill:#c63158" d="M814.88257,133.61856l-2.24646-.16766A29.6521,29.6521,0,0,1,802.28039,144.917l-.07824.0503a31.05287,31.05287,0,0,1-12.25318,4.60156l-.436.06451a47.23934,47.23934,0,0,1-19.97583-1.35528c.58105,1.94971,1.14136,3.36926,1.14136,3.36926l12.097,5.028,20.01795-2.962,12.994-8.35767,3.61939-7.86962Z"></path>
        <path style="fill:url(#linear-gradient-7)" d="M923.86023,139.63846a80.25892,80.25892,0,0,1-7.99744-24.14123c-.21289,1.57934-2.20947,25.25372-2.38257,26.82867.3628,5.80322.437,11.62738.44117,17.46631l21.80395-1.06537,3.886-56.96155c-1.71509,15.068-8.79639,31.01758-12.09644,37.80506A2.05,2.05,0,0,1,923.86023,139.63846Z"></path>
        <path style="fill:#c63158" d="M828.14184,97.72275l-1.39184-1.431c.108,9.04773-17.07373,10.03473-26.73071-1.67785l.4945,1.26245,8.38831,10.04229,8.036,3.49421,6.38208-.53394,5.25574-4.39911Z"></path>
        <path style="fill:none;stroke:#14142b;stroke-miterlimit:10;stroke-width:3px" d="M700.99833,48.20916c.11915-.15234,12.60649-4.86323,12.60649-4.86323"></path>
        <line style="fill:none;stroke:#1690db;stroke-linecap:round;stroke-miterlimit:10;stroke-width:3px" y2="108.85115" x2="751.10078" y1="88.41918" x1="699.33219"></line>
        <line style="fill:none;stroke:#1690db;stroke-linecap:round;stroke-miterlimit:10;stroke-width:3px" y2="154.72916" x2="753.08242" y1="118.54136" x1="715.71969"></line>
        <line style="fill:none;stroke:#1690db;stroke-linecap:round;stroke-miterlimit:10;stroke-width:3px" y2="108.44057" x2="657.01427" y1="86.62258" x1="649.21873"></line>
        <line style="fill:none;stroke:#1690db;stroke-linecap:round;stroke-miterlimit:10;stroke-width:3px" y2="117.3188" x2="649.21873" y1="104.91105" x1="633.86633"></line>
        <line style="fill:none;stroke:#1690db;stroke-linecap:round;stroke-miterlimit:10;stroke-width:3px" y2="110.38799" x2="681.0012" y1="84.12233" x1="690.57439"></line>
        <line style="fill:none;stroke:#1690db;stroke-linecap:round;stroke-miterlimit:10;stroke-width:3px" y2="116.66147" x2="688.0697" y1="103.477" x1="709.66696"></line>
        <g style="opacity:0.75;mix-blend-mode:lighten">
          
        </g>
        <g style="opacity:0.75;mix-blend-mode:lighten">
          
        </g>
        <g style="opacity:0.75;mix-blend-mode:lighten">
          
        </g>
        <g style="opacity:0.75;mix-blend-mode:lighten">
          
        </g>
        <g style="opacity:0.75;mix-blend-mode:lighten">
          
        </g>
        <g style="opacity:0.75;mix-blend-mode:lighten">
          
        </g>
        <polyline style="fill:none;stroke:#14142b;stroke-miterlimit:10;stroke-width:3px" points="836.972 23.49 857.541 36.585 869.308 27.995"></polyline>
        <line style="fill:none;stroke:#14142b;stroke-miterlimit:10;stroke-width:3px" y2="78.75045" x2="698.87905" y1="59.63828" x1="715.01473"></line>
        <polygon style="fill:none;stroke:#1690db;stroke-miterlimit:10;stroke-width:3px" points="733.291 20.996 750.315 20.474 754.075 41.466 735.171 61.518 715.015 59.638 713.605 43.346 724.101 27.367 733.291 20.996"></polygon>
        <polyline style="fill:none;stroke:#1690db;stroke-miterlimit:10;stroke-width:3px" points="789.166 4.913 795.777 27.889 778.057 46.553 754.075 41.466 750.315 20.474 760.393 8.59"></polyline>
        <polyline style="fill:none;stroke:#1690db;stroke-miterlimit:10;stroke-width:3px" points="795.777 27.889 820.34 37.27 836.972 23.49 832.651 9.709"></polyline>
        <path style="fill:none;stroke:#14142b;stroke-linecap:round;stroke-miterlimit:10;stroke-width:3px" d="M668.64419,106.55352h0A19.42547,19.42547,0,0,1,688.0697,125.979v39.8795a0,0,0,0,1,0,0h-38.851a0,0,0,0,1,0,0V125.979a19.42547,19.42547,0,0,1,19.42547-19.42547Z"></path>
        <polyline style="fill:none;stroke:#1690db;stroke-miterlimit:10;stroke-width:3px" points="735.171 61.518 739.662 83.032 735.448 86.623"></polyline>
        <polyline style="fill:none;stroke:#1690db;stroke-miterlimit:10;stroke-width:3px" points="739.662 83.032 764.832 90.636 784.414 72.171 778.057 46.553"></polyline>
        <line style="fill:none;stroke:#1690db;stroke-miterlimit:10;stroke-width:3px" y2="37.27018" x2="820.33994" y1="44.06868" x1="822.40089"></line>
        <line style="fill:none;stroke:#1690db;stroke-miterlimit:10;stroke-width:3px" y2="74.40463" x2="790.81059" y1="72.17085" x1="784.41384"></line>
        <polyline style="fill:none;stroke:#1690db;stroke-miterlimit:10;stroke-width:3px" points="764.832 90.636 768.933 117.079 754.075 130.14"></polyline>
        <line style="fill:none;stroke:#1690db;stroke-miterlimit:10;stroke-width:3px" y2="117.07923" x2="768.93298" y1="121.18269" x1="781.75454"></line>
        <path style="fill:none;stroke:#14142b;stroke-miterlimit:10;stroke-width:3px" d="M672.24729,78.75045h.00009a42.76736,42.76736,0,0,1,42.76736,42.76736v44.34068a0,0,0,0,1,0,0h-85.5348a0,0,0,0,1,0,0V121.5178A42.76736,42.76736,0,0,1,672.24729,78.75045Z"></path>
        <path style="fill:none;stroke:#14142b;stroke-miterlimit:10;stroke-width:3px" d="M673.55437,78.75045h37.54307c23.73562,0,42.97714,20.27512,42.97714,45.28573v41.82231H673.55437"></path>
        <path style="fill:none;stroke:#14142b;stroke-linecap:round;stroke-miterlimit:10;stroke-width:3px" d="M793.75339,73.84726a66.43913,66.43913,0,0,1,118.29375-.79385"></path>
        <path style="fill:none;stroke:#14142b;stroke-linecap:round;stroke-miterlimit:10;stroke-width:3px" d="M808.90213,53.91809c2.70564-2.48425,33.78817-20.91153,65.11957.08053,7.75223,5.194,12.28141,12.35894,15.19574,18.17224"></path>
        <path style="fill:none;stroke:#14142b;stroke-linecap:round;stroke-miterlimit:10;stroke-width:3px" d="M791.59311,110.5618c-4.56557,5.62517-10.16289,8.3569-20.58686,23.53311-2.98455,4.34524-4.21639,11.0442-1.44211,15.98108,4.59742,8.18122,20.43906,7.4172,29.62772,4.8098,8.59414-2.43869,13.14187-5.99919,16.59562-9.53016,1.32437-1.354,3.58419-4.51229,3.69687-6.40294a5.205,5.205,0,0,0-.55373-2.86572c-.85428-1.58856-2.93124-3.17215-16.1879-4.07309-4.66751-.31725-8.508-.39943-11.07042-.41777"></path>
        <line style="fill:none;stroke:#14142b;stroke-linecap:round;stroke-miterlimit:10;stroke-width:3px" y2="130.86505" x2="793.23886" y1="109.29859" x1="793.23886"></line>
        <path style="fill:none;stroke:#000;stroke-linecap:round;stroke-miterlimit:10;stroke-width:3px" d="M793.23886,156.67533v5.02443"></path>
        <path style="fill:none;stroke:#14142b;stroke-linecap:round;stroke-miterlimit:10;stroke-width:3px" d="M886.711,108.44057A25.49107,25.49107,0,0,1,873.23846,129.194a36.43041,36.43041,0,0,1-4.45814,2.016,35.30008,35.30008,0,0,1-15.9042,1.96081c-4.83036-.48134-14.03118-1.67884-15.66882,1.97618-1.29046,2.88016,1.15076,8.30282,4.3864,12.0626,10.22164,11.87741,39.61578,22.66972,59.52969,7.04956,15.71138-12.3238,14.83933-36.55214,14.67646-39.00794"></path>
        <ellipse style="fill:none;stroke:#14142b;stroke-linecap:round;stroke-miterlimit:10;stroke-width:3px" ry="22.76632" rx="16.50122" cy="95.36453" cx="907.76098"></ellipse>
        <ellipse style="fill:none;stroke:#14142b;stroke-linecap:round;stroke-miterlimit:10;stroke-width:3px" ry="17.80214" rx="12.04528" cy="95.36453" cx="912.21692"></ellipse>
        <path style="fill:none;stroke:#14142b;stroke-linecap:round;stroke-miterlimit:10;stroke-width:3px" d="M787.5169,74.92493a328.9248,328.9248,0,0,1,34.87819-3.78564c27.059-1.62058,58.46733-.95277,78.47922,3.53558"></path>
        <path style="fill:none;stroke:#14142b;stroke-miterlimit:10;stroke-width:3px" d="M840.27593,105.47066a365.99766,365.99766,0,0,1,53.76748,3.40825"></path>
        <path style="fill:none;stroke:#14142b;stroke-miterlimit:10;stroke-width:3px" d="M787.5169,74.92493a53.37886,53.37886,0,0,0-1.84929,35.25687c6.69567-1.09058,13.73859-2.04608,21.10759-2.80755"></path>
        <path style="fill:none;stroke:#14142b;stroke-linecap:round;stroke-miterlimit:10;stroke-width:3px" d="M813.165,91.09628a17.793,17.793,0,0,1,10.26632-3.42869h0c9.303,0,16.84452,8.50009,16.84452,17.80307"></path>
        <path style="fill:none;stroke:#14142b;stroke-linecap:round;stroke-miterlimit:10;stroke-width:3px" d="M805.28841,106.75291a18.043,18.043,0,0,1,.42282-4.5462"></path>
        <polygon style="fill:none;stroke:#14142b;stroke-linecap:square;stroke-miterlimit:10;stroke-width:3px" points="845.245 161.147 809.711 161.023 810.502 151 843.743 150.592 845.245 161.147"></polygon>
        <path style="fill:none;stroke:#14142b;stroke-linecap:round;stroke-miterlimit:10;stroke-width:3px" d="M798.24909,131.48929l.36616-3.46927a4.29662,4.29662,0,0,1,4.72387-3.82192l8.76306.92488a4.29663,4.29663,0,0,1,3.82193,4.72387l-.39808,3.77172"></path>
        <path style="fill:none;stroke:#14142b;stroke-linecap:square;stroke-miterlimit:10;stroke-width:3px" d="M803.56017,123.85532l.47126-4.46514c.10058-.95291,1.2748-1.61007,2.6227-1.46781l3.66462.38677c1.3479.14226,2.35906,1.03008,2.25849,1.983l-.47126,4.46514"></path>
        <path style="fill:none;stroke:#14142b;stroke-linecap:square;stroke-miterlimit:10;stroke-width:3px" d="M845.87746,124.79448l-.62031-4.44688c-.13239-.949.84852-1.87015,2.19091-2.0574l3.64963-.50911c1.3424-.18725,2.53794.43028,2.67032,1.37929l.62032,4.44688"></path>
        <path style="fill:none;stroke:#14142b;stroke-linecap:square;stroke-miterlimit:10;stroke-width:3px" d="M842.61888,132.3748l-.30967-2.2199a4.29663,4.29663,0,0,1,3.66182-4.849l8.72724-1.21741a4.29663,4.29663,0,0,1,4.849,3.66182l.72416,5.19129"></path>
        <path style="fill:none;stroke:#14142b;stroke-linecap:square;stroke-miterlimit:10;stroke-width:3px" d="M822.52628,108.77767c-7.19152,2.64941-13.88231-3.73873-15.4722-5.4332-6.67236-7.11127-10.94211-14.274-10.84215-14.47423.09252-.18536,17.64419,2.72021,17.64419,2.72021l7.82819,1.37023a8.748,8.748,0,0,1,6.88348,5.82014,7.45552,7.45552,0,0,1,.20916,3.99718C827.82722,106.82477,823.48785,108.42341,822.52628,108.77767Z"></path>
        <path style="fill:none;stroke:#14142b;stroke-linecap:square;stroke-miterlimit:10;stroke-width:3px" d="M906.56444,62.60538h13.01017a23.195,23.195,0,0,1,23.141,23.24887l-7.2141,75.08247c-15.02271.07013-28.73973.14014-43.76232.21027"></path>
        <path style="fill:none;stroke:#007f97;stroke-miterlimit:10;stroke-width:3px" d="M642.6701,123.97214h0a0,0,0,0,1,0,0v32.70319a0,0,0,0,1,0,0h0a8.80376,8.80376,0,0,1-8.80376-8.80376V132.7759a8.80376,8.80376,0,0,1,8.80376-8.80376Z"></path>
        <path style="fill:none;stroke:#007f97;stroke-miterlimit:10;stroke-width:3px" d="M695.03832,123.97214h0a8.80376,8.80376,0,0,1,8.80376,8.80376v15.09567a8.80376,8.80376,0,0,1-8.80376,8.80376h0a0,0,0,0,1,0,0V123.97214A0,0,0,0,1,695.03832,123.97214Z"></path>
        <path style="fill:none;stroke:#14142b;stroke-miterlimit:10;stroke-width:3px" d="M684.66738,80.37157C691.329,56.13986,708.0207,36.1098,730.27632,22.2c41.72929-25.594,92.36083-25.594,134.09012,2.22557,9.45864,6.12029,19.66024,16.39874,26.89332,24.7446"></path>
        <line style="fill:none;stroke:#14142b;stroke-linecap:round;stroke-miterlimit:10;stroke-width:3px" y2="159.79225" x2="914.54549" y1="131.6235" x1="914.47548"></line>
        <path style="fill:none;stroke:#14142b;stroke-linecap:square;stroke-miterlimit:10;stroke-width:2px" d="M937.5355,136.488a27.183,27.183,0,0,1-10.68018,4.17767,26.84572,26.84572,0,0,1-10.9926-.52923"></path>
        <path style="fill:none;stroke:#14142b;stroke-linecap:square;stroke-miterlimit:10;stroke-width:2px" d="M937.96012,129.54931A26.774,26.774,0,0,1,927.3834,133.727a26.33635,26.33635,0,0,1-10.88611-.52923"></path>
        <g style="opacity:0.63;mix-blend-mode:soft-light">
          
        </g>
        <g style="opacity:0.63;mix-blend-mode:soft-light">
          
        </g>
        <g style="opacity:0.36;mix-blend-mode:lighten">
          
        </g>
      </g>
      <path style="fill:#14142b" d="M916.81058,94.01632a.51031.51031,0,0,1,.93574-.10886l3.4839,6.21714a1.0713,1.0713,0,0,1-.82446,1.59238l-4.64665.34631a.89606.89606,0,0,1-.928-1.14045Z"></path>
      <path style="fill:#14142b" d="M913.76218,101.2374a1.46861,1.46861,0,0,1-1.306,1.07206l-4.53494.338a1.03539,1.03539,0,0,1-1.01875-1.40276l5.0095-14.27a1.00913,1.00913,0,0,1,1.84322-.18962l2.3517,4.524A1.46864,1.46864,0,0,1,916.219,92.379Z"></path>
      <path style="fill:#fff;stroke:#14142b;stroke-miterlimit:10;stroke-width:8px" d="M214.86377,76.38871H231.895v44.27343H214.86377Z"></path>
      <path style="fill:#fff;stroke:#14142b;stroke-miterlimit:10;stroke-width:8px" d="M237.35547,98.65189v-.12647c0-13.21875,12.00927-23.08544,28.09472-23.08544,8.73389,0,15.79395,2.52978,21.32569,6.7041l-9.53467,9.99316a18.60284,18.60284,0,0,0-11.28174-3.85791c-6.62353,0-11.42724,4.42725-11.42724,10.436v.12646c0,6.26123,5.02246,10.562,12.15527,10.562a12.7074,12.7074,0,0,0,5.82275-1.01172v-4.42724h-8.73437V94.47757h24.67383v20.49219c-5.53125,3.92139-13.24659,6.64111-22.49024,6.64111C250.09228,121.61087,237.35547,112.3765,237.35547,98.65189Z"></path>
      <path style="fill:#fff;stroke:#14142b;stroke-miterlimit:10;stroke-width:8px" d="M294.05859,76.38871h17.03174v31.624h23.94629v12.64941h-40.978Z"></path>
      <path style="fill:#fff;stroke:#14142b;stroke-miterlimit:10;stroke-width:8px" d="M335.332,98.65189v-.12647c0-12.83935,12.15479-23.08544,27.876-23.08544,15.72168,0,27.731,10.11962,27.731,22.959v.12646c0,12.83936-12.15478,23.08545-27.87646,23.08545C347.34131,121.61087,335.332,111.49124,335.332,98.65189Zm38.42969,0v-.12647c0-5.24951-4.14844-9.99316-10.69922-9.99316-6.47754,0-10.55371,4.68018-10.55371,9.8667v.12646c0,5.24952,4.14892,9.99317,10.69922,9.99317C369.686,108.51859,373.76172,103.83841,373.76172,98.65189Z"></path>
      <path style="fill:#fff;stroke:#14142b;stroke-miterlimit:10;stroke-width:8px" d="M395.09277,98.65189v-.12647c0-12.83935,12.15479-23.08544,27.876-23.08544,15.72168,0,27.731,10.11962,27.731,22.959v.12646c0,12.83936-12.15479,23.08545-27.87647,23.08545C407.10205,121.61087,395.09277,111.49124,395.09277,98.65189Zm38.42969,0v-.12647c0-5.24951-4.14844-9.99316-10.69922-9.99316-6.47754,0-10.55371,4.68018-10.55371,9.8667v.12646c0,5.24952,4.14893,9.99317,10.69922,9.99317C429.44678,108.51859,433.52246,103.83841,433.52246,98.65189Z"></path>
      <path style="fill:#fff;stroke:#14142b;stroke-miterlimit:10;stroke-width:8px" d="M451.4331,114.021l9.09815-9.42383a32.20854,32.20854,0,0,0,17.832,5.18653c3.05713,0,4.36719-.69581,4.36719-1.89747v-.12646c0-1.26514-1.60156-1.96094-7.06006-2.90967-11.42725-2.02392-21.47168-4.87012-21.47168-14.23047V90.4932c0-8.41211,7.56982-14.92676,21.61719-14.92676,9.82568,0,17.104,2.02393,23,6.07178l-8.29785,9.99316a29.54426,29.54426,0,0,0-15.28467-4.36377c-2.54737,0-3.71192.75879-3.71192,1.834v.12646c0,1.20166,1.38282,1.96045,6.769,2.84619,13.02832,2.08692,21.76269,5.376,21.76269,14.29395v.12646c0,9.29737-8.80713,14.98975-22.49072,14.98975C467.22705,121.48441,457.91064,118.95462,451.4331,114.021Z"></path>
      <path style="fill:#fff;stroke:#14142b;stroke-miterlimit:10;stroke-width:8px" d="M520.07275,76.38871h19.06983l9.89843,24.85644,9.89844-24.85644h18.77832l-20.6709,44.58984H540.74365Z"></path>
      <path style="fill:#fff;stroke:#14142b;stroke-miterlimit:10;stroke-width:8px" d="M578.81348,109.91019,599.9209,96.75443c3.20312-1.96045,4.44043-3.66846,4.44043-5.376,0-1.89746-1.67383-3.28906-4.58594-3.28906-2.91113,0-5.60449,1.58154-9.8252,5.50293l-11.209-8.28565c5.89551-6.3247,11.86328-9.74023,22.49023-9.74023,11.64551,0,20.01563,6.07178,20.01563,14.48389v.12646c0,6.76758-4.14844,10.436-10.2627,13.85108l-9.09765,5.06005h19.87011v11.57422H578.81348Z"></path>
      <path style="fill:#fff" d="M214.86377,76.38871H231.895v44.27343H214.86377Z"></path>
      <path style="fill:#fff" d="M237.35547,98.65189v-.12647c0-13.21875,12.00927-23.08544,28.09472-23.08544,8.73389,0,15.79395,2.52978,21.32569,6.7041l-9.53467,9.99316a18.60284,18.60284,0,0,0-11.28174-3.85791c-6.62353,0-11.42724,4.42725-11.42724,10.436v.12646c0,6.26123,5.02246,10.562,12.15527,10.562a12.7074,12.7074,0,0,0,5.82275-1.01172v-4.42724h-8.73437V94.47757h24.67383v20.49219c-5.53125,3.92139-13.24659,6.64111-22.49024,6.64111C250.09228,121.61087,237.35547,112.3765,237.35547,98.65189Z"></path>
      <path style="fill:#fff" d="M294.05859,76.38871h17.03174v31.624h23.94629v12.64941h-40.978Z"></path>
      <path style="fill:#fff" d="M335.332,98.65189v-.12647c0-12.83935,12.15479-23.08544,27.876-23.08544,15.72168,0,27.731,10.11962,27.731,22.959v.12646c0,12.83936-12.15478,23.08545-27.87646,23.08545C347.34131,121.61087,335.332,111.49124,335.332,98.65189Zm38.42969,0v-.12647c0-5.24951-4.14844-9.99316-10.69922-9.99316-6.47754,0-10.55371,4.68018-10.55371,9.8667v.12646c0,5.24952,4.14892,9.99317,10.69922,9.99317C369.686,108.51859,373.76172,103.83841,373.76172,98.65189Z"></path>
      <path style="fill:#fff" d="M395.09277,98.65189v-.12647c0-12.83935,12.15479-23.08544,27.876-23.08544,15.72168,0,27.731,10.11962,27.731,22.959v.12646c0,12.83936-12.15479,23.08545-27.87647,23.08545C407.10205,121.61087,395.09277,111.49124,395.09277,98.65189Zm38.42969,0v-.12647c0-5.24951-4.14844-9.99316-10.69922-9.99316-6.47754,0-10.55371,4.68018-10.55371,9.8667v.12646c0,5.24952,4.14893,9.99317,10.69922,9.99317C429.44678,108.51859,433.52246,103.83841,433.52246,98.65189Z"></path>
      <path style="fill:#fff" d="M451.4331,114.021l9.09815-9.42383a32.20854,32.20854,0,0,0,17.832,5.18653c3.05713,0,4.36719-.69581,4.36719-1.89747v-.12646c0-1.26514-1.60156-1.96094-7.06006-2.90967-11.42725-2.02392-21.47168-4.87012-21.47168-14.23047V90.4932c0-8.41211,7.56982-14.92676,21.61719-14.92676,9.82568,0,17.104,2.02393,23,6.07178l-8.29785,9.99316a29.54426,29.54426,0,0,0-15.28467-4.36377c-2.54737,0-3.71192.75879-3.71192,1.834v.12646c0,1.20166,1.38282,1.96045,6.769,2.84619,13.02832,2.08692,21.76269,5.376,21.76269,14.29395v.12646c0,9.29737-8.80713,14.98975-22.49072,14.98975C467.22705,121.48441,457.91064,118.95462,451.4331,114.021Z"></path>
      <path style="fill:#fff" d="M520.07275,76.38871h19.06983l9.89843,24.85644,9.89844-24.85644h18.77832l-20.6709,44.58984H540.74365Z"></path>
      <path style="fill:#fff" d="M578.81348,109.91019,599.9209,96.75443c3.20312-1.96045,4.44043-3.66846,4.44043-5.376,0-1.89746-1.67383-3.28906-4.58594-3.28906-2.91113,0-5.60449,1.58154-9.8252,5.50293l-11.209-8.28565c5.89551-6.3247,11.86328-9.74023,22.49023-9.74023,11.64551,0,20.01563,6.07178,20.01563,14.48389v.12646c0,6.76758-4.14844,10.436-10.2627,13.85108l-9.09765,5.06005h19.87011v11.57422H578.81348Z"></path>
    </g>
  </g>
</svg>
