<?xml version="1.0" encoding="utf-8"?>
<!-- Generator: Adobe Illustrator 25.2.1, SVG Export Plug-In . SVG Version: 6.00 Build 0)  -->
<svg version="1.1" id="Layer_1" xmlns="http://www.w3.org/2000/svg" xmlns:xlink="http://www.w3.org/1999/xlink" x="0px" y="0px"
	 viewBox="0 0 400 400" style="enable-background:new 0 0 400 400;" xml:space="preserve">
<g>
	<g>
		<path d="M400,200c0,110.3-89.7,200-200,200S0,310.3,0,200S89.7,0,200,0C310.3,0,400,89.7,400,200z M365.7,200
			c0-91.4-74.3-165.7-165.7-165.7S34.3,108.6,34.3,200S108.6,365.7,200,365.7C291.4,366.3,365.7,291.4,365.7,200z"/>
	</g>
	<g>
		<path d="M200,170.9c-9.7,0-17.1,7.4-17.1,17.1v87.4c0,9.7,7.4,17.1,17.1,17.1s17.1-7.4,17.1-17.1V188
			C217.1,178.3,209.7,170.9,200,170.9z"/>
	</g>
	<g>
		<path d="M200,108c-4.6,0-9.1,1.7-12,5.1c-3.4,2.9-5.1,7.4-5.1,12c0,1.1,0,2.3,0.6,3.4c0,1.1,0.6,2.3,1.1,3.4
			c0.6,1.1,1.1,1.7,1.7,2.9c0.6,1.1,1.1,1.7,2.3,2.9c6.3,6.3,17.7,6.3,24,0c0.6-0.6,1.7-1.7,2.3-2.9c0.6-1.1,1.1-1.7,1.7-2.9
			c0.6-1.1,0.6-2.3,1.1-3.4c0-1.1,0.6-2.3,0.6-3.4c0-4.6-1.7-9.1-5.1-12C209.1,109.7,204.6,108,200,108z"/>
	</g>
</g>
</svg>
