<?xml version="1.0" encoding="utf-8"?>
<!-- Generator: Adobe Illustrator 25.2.1, SVG Export Plug-In . SVG Version: 6.00 Build 0)  -->
<svg version="1.1" id="Layer_1" xmlns="http://www.w3.org/2000/svg" xmlns:xlink="http://www.w3.org/1999/xlink" x="0px" y="0px"
	 viewBox="0 0 722.6 1000" style="enable-background:new 0 0 722.6 1000;" xml:space="preserve">
<style type="text/css">
	.st0{fill:#3C1A26;}
	.st1{fill:#29121A;}
	.st2{fill:#421D2A;}
	.st3{fill:#DE6660;}
	.st4{fill:#A24741;}
	.st5{fill:#DB5B54;}
	.st6{fill:#BD967F;}
	.st7{fill:#886B59;}
	.st8{fill:#B88D73;}
	.st9{fill:#FFFFFF;}
	.st10{fill:#493239;}
	.st11{fill:#CAA390;}
	.st12{fill:#C4524C;}
	.st13{fill:#F2716A;}
	.st14{fill:#898989;}
	.st15{fill:#888888;}
	.st16{fill:#D6D6D6;}
	.st17{fill:#FDFDFD;}
	.st18{fill:#DCDCDC;}
</style>
<g>
	<path class="st0" d="M699.7,734.5l0.3,91.7l-140.8,81.3l-0.3-91.7L699.7,734.5z"/>
	<path class="st1" d="M559.1,907.6L310.3,762.9l-0.3-91.7l248.9,144.6L559.1,907.6z"/>
	<path class="st2" d="M558.9,815.8L310,671.2l140.8-81.3l248.9,144.6L558.9,815.8z"/>
	<path class="st0" d="M538.3,827l0.3,91.7L397.8,1000l-0.3-91.7L538.3,827z"/>
	<path class="st1" d="M397.8,1000L148.9,855.4l-0.3-91.7l248.9,144.6L397.8,1000z"/>
	<path class="st2" d="M397.5,908.3L148.7,763.6l140.8-81.3L538.3,827L397.5,908.3z"/>
	<path class="st3" d="M695.1,576.1l0.4,130.8L353.9,904.1l-0.4-130.9L695.1,576.1z"/>
	<path class="st4" d="M353.9,904.1L14.6,706.9l-0.4-130.8l339.3,197.2L353.9,904.1z"/>
	<path class="st5" d="M353.6,773.3L14.2,576.1l341.6-197.2l339.3,197.2L353.6,773.3z"/>
	<path class="st6" d="M693.4,314.3l0.8,261.7L352.5,773.2l-0.7-261.7L693.4,314.3z"/>
	<path class="st7" d="M352.5,773.2L13.2,575.9l-0.7-261.6l339.3,197.2L352.5,773.2z"/>
	<path class="st8" d="M351.8,511.5L12.5,314.3L354,117.1l339.3,197.2L351.8,511.5z"/>
	<path class="st9" d="M523,480.3l0.2,52.3l-45.5,26.3l0.1,52.3l45.6-26.3l-91.1,52.6l-0.3-104.7L523,480.3z"/>
	<path class="st10" d="M523.1,532.6l0.2,52.4l-45.6,26.3l-0.1-52.3L523.1,532.6z"/>
	<path class="st9" d="M657,402.9l0.2,52.4l-45.5,26.3l0.1,52.3l45.5-26.3l-91.1,52.6l-0.3-104.7L657,402.9z"/>
	<path class="st10" d="M657.1,455.3l0.1,52.3l-45.5,26.3l-0.1-52.3L657.1,455.3z"/>
	<path class="st7" d="M148,837.6l-0.2,78.5L33.9,850.3l0.2-78.5L148,837.6z"/>
	<path class="st6" d="M148,837.6l113.1-65.7l-0.2,78.5l-113.1,65.7L148,837.6z"/>
	<path class="st11" d="M34.2,771.8l113.1-65.7l113.9,65.7L148,837.5L34.2,771.8z"/>
	<path class="st12" d="M182.3,804.9l113.1-65.7l-0.1,52.4l-113.1,65.7L182.3,804.9z"/>
	<path class="st13" d="M0.2,699.8L113.3,634l182.2,105.2l-113.1,65.7L0.2,699.8z"/>
	<path class="st4" d="M182.3,804.9l-0.1,52.4L148,837.6L34.2,771.8L0,752.1l0.2-52.4L182.3,804.9z"/>
	<path class="st5" d="M693.6,197.2l0.4,130.8L352.4,525.3L352,394.4L693.6,197.2z"/>
	<path class="st4" d="M352.4,525.3L13,328l-0.4-130.8L352,394.4L352.4,525.3z"/>
	<path class="st13" d="M352,394.4L12.6,197.2L354.2,0l339.3,197.2L352,394.4z"/>
	<path class="st5" d="M631.4,427.4c28.4-16.8,59.1-29.3,91.1-37.2v52.3c-32,7.9-62.7,20.4-91.1,37.2c-32.8,19.2-63.3,42-91,67.9
		v-52.3C568.1,469.4,598.6,446.6,631.4,427.4L631.4,427.4z"/>
	<path class="st4" d="M540.5,547.6l-113.1-65.7l-0.2-52.4l113.1,65.7L540.5,547.6z"/>
	<path class="st13" d="M540.3,495.3l-113.1-65.7c27.7-25.9,58.3-48.7,91-67.9c32.8-19.2,90.4-38.5,90.4-38.5l114,67.4
		c0,0-58.5,17.6-91.2,36.8C598.6,446.6,568.1,469.4,540.3,495.3z"/>
	<path class="st14" d="M647.6,680.8L625,667.7l-6-4.3l22.6,13.1L647.6,680.8z"/>
	<path class="st14" d="M603.9,729.2L581.3,716l-11.8-10.5l22.6,13.1L603.9,729.2z"/>
	<path class="st15" d="M374.9,786.6l-22.6-13.1l0-8.4l22.6,13.2L374.9,786.6z"/>
	<path class="st16" d="M718.7,542.3l0.1,23.1l0,14.3l0,8.4l-71.2,92.8l-6-4.3l-37.7,52.6l-11.8-10.5l-44.9,69.5L502,770.7
		l-11.7,24.2l-37.9-9l-6,11.2l-71.5-10.4l0-8.4l-0.1-37.4L718.7,542.3z"/>
	<path class="st15" d="M374.9,778.3l-22.6-13.2l-0.1-37.4l22.6,13.2L374.9,778.3z"/>
	<path class="st17" d="M374.8,740.9l-22.6-13.2l343.9-198.6l22.6,13.1L374.8,740.9z"/>
	<path class="st17" d="M183.2,560.8l22.6-13.2l146.5,180l-22.6,13.1L183.2,560.8z"/>
	<path class="st17" d="M329.8,740.7l22.6-13.1l22.8,13.1l-22.6,13.1L329.8,740.7z"/>
	<path class="st16" d="M352.5,753.8l22.6-13.1l-0.1,45.9l-22.6,13.2L352.5,753.8z"/>
	<path class="st14" d="M183.5,453.3l-0.3,107.4l146.5,179.9l22.8,13.1l-0.1,45.9L182.8,696.5l-40.3-23.3l-20.1-11.6l0.1-46.4
		l20.4-77.7l0.3-107.4L183.5,453.3z"/>
	<path class="st17" d="M183.5,453.3l22.6-13.2l-0.3,107.4l-22.6,13.2L183.5,453.3z"/>
	<path class="st18" d="M143.2,430l22.6-13.1l40.3,23.3l-22.6,13.2L143.2,430z"/>
</g>
</svg>
