<?xml version="1.0" encoding="utf-8"?>
<!-- Generator: Adobe Illustrator 25.2.1, SVG Export Plug-In . SVG Version: 6.00 Build 0)  -->
<svg version="1.1" id="Layer_1" xmlns="http://www.w3.org/2000/svg" xmlns:xlink="http://www.w3.org/1999/xlink" x="0px" y="0px"
	 viewBox="0 0 387 387" style="enable-background:new 0 0 387 387;" xml:space="preserve">
<style type="text/css">
	.st0{fill:none;}
	.st1{fill:#F36C21;}
	.st2{fill:#FFFFFF;}
</style>
<path class="st0" d="M0,0"/>
<path class="st0" d="M0,0"/>
<path class="st0" d="M0,0"/>
<path class="st0" d="M0,0"/>
<path class="st0" d="M0,0"/>
<circle class="st1" cx="193.5" cy="193.5" r="193.5"/>
<g>
	<path class="st2" d="M222,59.1c1.3,0.5,2.7,0.5,4,0.7c7.2,1.2,14.2,3.2,21,5.8c11.8,4.5,22.4,11.1,31.9,19.3
		c10.2,8.8,18.9,18.9,26.1,30.4c1.3,2.1,2.5,4.3,3.8,6.6c-4.1,1.5-8.2,2.1-12.5,2.2c-9.2,0.1-17.8-2.3-26.3-5.6
		c-2.8-1.1-5.5-2.5-8.3-3.5c-7.5-2.8-15.3-4.4-23.7-4.3c0.5-0.4,0.9-0.7,1.2-0.9c6-4.3,11.6-9.1,16.2-15c2.3-3,4.3-6.1,5.8-9.6
		c0.7-1.7,0.4-2.9-1-4.1c-5-4.3-10.9-5.8-17.4-5.7c-7.8,0.1-15.1,2.4-22.2,5.3c-0.5,0.2-1.1,0.4-1.6,0.7c-0.1-0.4,0.1-0.7,0.2-1
		c1.7-4.4,2.6-8.9,2.6-13.5c0-2.6-0.2-5.2-0.7-7.7C221.4,59.1,221.7,59.1,222,59.1z"/>
	<path class="st2" d="M186.3,327.9c0.2-0.5,0.7-0.1,1-0.2c3.3,0,6.6,0,10,0c0.3,0,0.5-0.1,0.8-0.1c0,0.3,0.5,0,0.4,0.4
		C194.4,327.9,190.4,327.9,186.3,327.9z"/>
	<path class="st2" d="M163.3,64.9c0.5,5,1,9.8,1.5,14.7c0,0.4,0,0.9,0.4,1c0.5,0.2,0.8-0.3,1.1-0.6c3.6-3.9,7.3-7.6,11.6-10.7
		c7.3-5.2,15.3-8.6,24.2-9.7c4.1-0.5,8.2-0.5,12.3-0.1c0.6,0.1,0.8,0.3,0.9,0.8c1.7,10-0.7,18.9-6.9,26.8c-2.6,3.3-5.5,6.5-8.2,9.7
		c-0.2,0.2-0.3,0.3-0.4,0.5c-0.1,0.1-0.1,0.3-0.1,0.4c0.1,0.2,0.3,0.2,0.4,0.1c0.3-0.1,0.5-0.3,0.8-0.4c6.9-3.6,13.5-7.5,20.7-10.6
		c5.6-2.4,11.3-4.4,17.4-5.2c5-0.6,9.9-0.6,14.5,1.9c1.5,0.8,1.5,0.8,0.7,2.2c-2.3,4.1-5.4,7.7-8.8,10.9
		c-8.7,8.3-18.8,14.4-29.6,19.3c-0.6,0.3-1.6,0.3-1.5,1.1c0.1,0.8,1.1,0.6,1.7,0.8c5.9,1.5,11.8,3,17.4,5.4
		c5.4,2.3,10.4,5.3,14.6,9.5c1.2,1.2,2.3,2.5,3.1,4c-3.1,1.3-6.3,2.3-9.6,2.9c-10.8,1.9-21-0.2-31-4.5c-4.8-2.1-8.9-5.1-13-8.1
		c-0.6-0.4-1.2-0.9-1.8-1.3c-0.3-0.2-0.6-0.7-1-0.4c-0.3,0.3,0.1,0.7,0.2,1c3,7,6,14,9,21c3.5,8.3,7.3,16.5,10.3,25.1
		c0.1,0.2,0.2,0.5,0.3,1c-1.5-0.9-2.9-1.5-4.2-2.3c-12.8-8-23.4-18.2-31.3-31.2c-0.9-1.5-1.8-3.2-2.6-4.7c-0.7-1.3-1.2-1.4-2.3-0.5
		c-9.1,7.2-18.2,14.5-27.2,21.7c-6.3,5-12.9,9.7-19.6,14.4c-2.7,1.9-5.9,2.1-9.1,1.9c-1.2-0.1-2.3-0.3-3.4-0.7c-2-0.7-2.8-2-2.4-4
		c0.1-0.7,0.3-1.4,0.7-2c4.8-7.3,7.1-15.6,9.1-24c1.7-6.9,2.8-13.9,3.6-21c0.6-6,1.5-12,3.3-17.7c2.8-9.1,7.5-17.1,14-24
		c5.6-5.9,12.1-10.5,19.5-13.9C162.7,65.2,162.9,65.1,163.3,64.9z M139.8,116.4c0-2.3-1.7-4-4.1-4c-2.3,0-3.9,1.7-4,4
		c0,2.2,1.8,4.1,4,4.1C138.2,120.6,139.8,118.9,139.8,116.4z M153.4,116.4c0,2.3,1.8,4.1,4,4.1c2.4,0,4.1-1.8,4.1-4.2
		c0-2.3-1.9-4-4.2-3.9C155.1,112.5,153.4,114.2,153.4,116.4z"/>
	<path class="st2" d="M217.3,210.3c-1.5-0.5-2.9-1.2-4.3-1.9c-3.7-2-7.3-4.1-11.1-5.6c-5.4-2.1-11-3-16.8-2.7
		c-3.2,0.1-6.4,0.5-9.6,1.2c-0.6,0.1-0.8,0-1-0.6c-0.6-1.5-1.5-2.9-2.5-4.2c-0.4-0.5-0.7-0.6-1.3-0.3c-5,2.5-10,4.9-15.2,7
		c-11.6,4.5-23.4,8.2-35.6,10.4c-2,0.4-4,0.6-6,0.5c-1.7-0.1-3-1-3.4-2.4c-0.4-1.7,0.3-3.1,2-4c1.9-0.9,3.9-1.4,5.8-2.2
		c5.1-2,9.7-4.8,13.8-8.5c7.1-6.5,12.2-14.4,16.9-22.7c2.6-4.7,4.9-9.6,7.5-14.2c3-5.4,7.3-9.6,12-13.4c1.5-1.2,3-2.4,4.5-3.6
		c0.4-0.4,0.7-0.4,1,0.1c6.4,9.8,14.1,18.4,23.1,25.9c5.7,4.7,11.8,8.6,18.5,11.6c0.7,0.3,1.1,0.8,1.4,1.6c1.1,3.9,1.5,7.9,1.7,11.9
		c0.2,5.2-0.1,10.3-1.1,15.4C217.4,209.9,217.3,210.1,217.3,210.3z"/>
	<path class="st2" d="M233.7,117c5.5-0.6,10.8-0.2,16,0.8c5.3,1,10.3,2.8,15.2,5.1c1.5,0.7,2.7,1.8,3.9,2.9
		c8.6,7.4,13.7,16.9,16.2,27.9c1.1,4.9,1.6,9.9,1.8,14.9c0,0.5-0.2,0.7-0.5,0.9c-9.1,5.3-18.6,9.3-29,11.1
		c-6.5,1.2-13.1,1.4-19.6,0.6c-5.2-0.7-10.3-2-15.2-3.9c-0.4-0.2-0.8-0.3-1-0.9c-2.1-8.7-6-16.7-9.4-24.8c-1.5-3.6-3-7.1-4.5-10.6
		c0.4-0.2,0.6,0.1,0.9,0.2c6.2,2.8,12.7,4.7,19.5,5.3c10,1,19.6-0.8,28.6-5.3c1.7-0.9,2.1-1.9,1.5-3.7c-1.3-3.5-3.5-6.5-6.2-9.1
		c-4.7-4.6-10.3-7.9-16.3-10.5C234.9,117.5,234.4,117.3,233.7,117z"/>
	<path class="st2" d="M155.4,259.4c-2.1,0.1-3.5-0.7-4.3-2.5c-4.9-10.2-9.8-20.4-14.6-30.7c-1.2-2.6-2.4-5.1-3-7.9
		c-0.4-1.6-0.1-2.3,1.2-3.2c2.9-2,6.1-1.9,9.2-0.8c4.5,1.5,8.2,4.1,11.7,7.3c0.7,0.6,1.3,1.8,2.1,1.6c0.6-0.1,1-1.4,1.4-2.2
		c4.9-8.5,12.2-13.5,21.8-15.2c7.2-1.2,14,0.1,20.5,3.1c3.2,1.5,6.2,3.2,9.3,4.9c1.4,0.7,2.8,1.5,4.3,2c0.4,0.1,0.6,0.3,0.4,0.8
		c-1.9,4.4-3.7,8.9-6,13.1c-4,7.1-9.6,12.6-16.4,16.9c-9.5,6-19.9,9.7-30.9,11.6c-1.2,0.2-2.3,0.4-3.5,0.6
		C157.4,259.1,156.4,259.5,155.4,259.4z"/>
	<path class="st2" d="M287,175.9c0.2,2.9,0.2,5.6,0.2,8.4c-0.1,6.5-0.5,13-2.2,19.3c-2.6,9.3-8.3,14.3-17.9,15.9
		c-7.8,1.3-15.5,0.4-23.2-1.1c-6.1-1.2-12-3-17.9-4.8c-0.6-0.2-0.8-0.5-0.9-1.1c-0.7-4.9-0.5-9.9-0.6-14.9
		c-0.1-4.5-0.3-8.9-1.4-13.3c0-0.1,0-0.1,0.1-0.3C245.8,191.3,266.8,187,287,175.9z"/>
	<path class="st2" d="M292.2,196.7c1.5,3.2,3.1,6.2,5.1,8.9c5,6.8,11.7,11,20.1,12.2c1.6,0.2,3.2,0.4,4.8,0.3c0.7,0,0.8,0.2,0.7,0.9
		c-1.7,8.5-4.1,16.8-7.3,24.9c-3.2,8.1-7.3,15.8-12,23.1c-0.3,0.5-0.6,0.6-1.1,0.4c-3.2-1-5.8-2.8-7.8-5.5c-3-3.9-4.5-8.4-5.4-13.2
		c-1.4-6.9-1.6-13.9-1.3-20.9c0.2-4.8,0.6-9.6,1.3-14.3c0.5-3.3,1.3-6.6,1.9-10C291.6,201.3,291.9,199.1,292.2,196.7z"/>
	<path class="st2" d="M226.2,220c2.2,0.6,4.2,1.3,6.3,1.8c7.5,2.1,15,3.7,22.8,4.2c7.2,0.5,14.3,0,21-2.9c1.5-0.7,2.8-1.6,4.4-2.5
		c-0.7,2.5-1.4,4.8-2.3,7c-2.9,7.8-6.7,15.1-11.8,21.6c-4,5.1-8.7,9.4-14.5,12.4c-4.1,2.1-7.7,1.5-11.1-1.7
		c-3.5-3.2-5.6-7.4-7.4-11.6c-3.2-7.6-5.2-15.6-6.7-23.6C226.7,223.3,226.5,221.7,226.2,220z"/>
	<path class="st2" d="M190.8,296.8c-1.6,1.5-3.3,2.9-4.7,4.5c-4.6,5-8.2,10.6-9.9,17.3c-0.6,2.4-1.1,4.8-1,7.3
		c0,0.5-0.1,0.7-0.7,0.7c-7.5-1-14.8-2.6-21.9-4.9c-9.2-2.8-18-6.7-26.3-11.4c-2.3-1.3-4.5-2.7-6.8-4.1c1.8-1.7,3.7-3.2,5.7-4.4
		c6.3-3.9,13.3-6.1,20.7-7c5.2-0.7,10.5-0.8,15.8-0.2c3.8,0.5,7.5,1.1,11.3,1.4c5.6,0.5,11.3,0.7,16.9,0.4c0.2,0,0.5,0,0.7,0
		C190.6,296.6,190.7,296.7,190.8,296.8z"/>
	<path class="st2" d="M263.4,261.4c-0.9,2.6-1.6,5.1-2.2,7.6c-1,4.3-1.7,8.7-1.7,13.1c0,4.6,0.8,9.1,3,13.2c1.5,2.8,3.5,5.2,6.1,7
		c0.6,0.5,0.7,0.7,0,1.2c-11.3,7.9-23.5,13.9-36.6,18.2c-0.4,0.1-0.7,0.4-1-0.3c-2.4-5-4-10.3-3.9-16c0.1-6,1.9-11.5,4.9-16.6
		c4.3-7.2,10.1-12.9,17-17.6c4.6-3.2,9.5-6,13.9-9.5C262.9,261.6,263.1,261.6,263.4,261.4z"/>
	<path class="st2" d="M198,327.5c-0.3,0.1-0.5,0.1-0.8,0.1c-3.3,0-6.6,0-10,0c-1.6-0.3-3.2-0.3-4.8-0.4c-0.9,0-1.3-0.3-1.3-1.3
		c0-5,1.7-9.5,4.2-13.7c4.5-7.4,10.8-13,18-17.6c7.1-4.5,14.7-7.8,22.4-11.2c1.1-0.5,2.2-1,3.4-1.4c-1,1.6-2,3.1-2.9,4.7
		c-3.8,6.7-5.8,13.8-5.3,21.5c0.3,4.9,1.5,9.5,3.6,13.9c0.7,1.4,0.6,1.4-0.8,1.7C215.4,326,206.8,327.3,198,327.5z"/>
	<path class="st2" d="M292.1,158.3c3.3,3.8,6.8,7,10.8,9.6c5.1,3.2,10.7,5.1,16.9,4.7c1.1-0.1,2.3-0.2,3.4-0.4
		c0.5-0.1,0.6,0.1,0.6,0.5c0.2,2.5,0.5,5,0.7,7.5c0.5,6.6,0.6,13.2,0.4,19.8c-0.1,3.8-0.4,7.6-0.9,11.4c-0.1,0.5-0.2,0.7-0.7,0.7
		c-5.3,0.1-10.3-0.9-14.7-3.8c-3.8-2.6-6.7-6-8.8-10c-3.3-6-5-12.5-6-19.2c-0.8-4.7-0.7-9.4-1-14.1c-0.1-1.8-0.3-3.6-0.5-5.4
		C292.1,159.2,292.1,158.9,292.1,158.3z"/>
	<path class="st2" d="M281.8,235.5c0.2,2.3,0.3,4.5,0.5,6.6c0.8,7.6,2.2,15,6.4,21.6c2.6,4,6,7.1,10.5,8.9c0.1,0.1,0.3,0.1,0.5,0.2
		c-1.8,2.6-3.8,4.9-5.7,7.3c-5.7,6.7-11.9,12.9-18.9,18.3c-0.5,0.4-0.8,0.4-1.3,0.1c-4.6-2.8-7-7-7.7-12.2c-1-7.4,0.5-14.4,2.7-21.4
		c2.1-6.5,4.9-12.8,8-18.8c1.6-3.1,3.2-6.3,4.6-9.5C281.4,236.3,281.5,236,281.8,235.5z"/>
	<path class="st2" d="M206.4,243.9c-0.7,2.7-1.3,5.3-1.8,8c-1.2,6.1-1.9,12.3-1.5,18.5c0.4,5.1,1.5,10,4.9,14.1
		c0.4,0.5,0.3,0.7-0.2,0.9c-4.1,2.1-8.4,3.5-12.9,4.3c-6.7,1.2-13.4,1-20.1,0.5c-1.7-0.1-3.3-0.3-5-0.5c-0.5,0-0.8-0.1-0.7-0.8
		c0.6-5.7,2.9-10.6,5.9-15.3c4.6-7,10.5-12.8,17.1-17.9c4.8-3.7,9.6-7.3,13.9-11.6C206.1,243.9,206.2,243.9,206.4,243.9z"/>
	<path class="st2" d="M176,262c-0.1,0.6-0.6,0.9-0.9,1.3c-4.3,5.2-8.1,10.8-10.3,17.3c-0.8,2.4-1.4,4.8-1.7,7.3
		c-0.1,0.8-0.4,0.8-1,0.7c-5.5-1-11-2.2-16.4-3.8c-5-1.4-9.8-3.2-14.4-5.5c-4.8-2.4-8.5-6.1-11.6-10.4c-2.8-3.9-5.1-8.1-7.3-12.4
		c0-0.1,0-0.2-0.1-0.3c0.3-0.2,0.5,0.1,0.7,0.2c7.3,3.6,15,6.2,23,7.7c6.8,1.3,13.7,1.5,20.6,1.2c6.4-0.3,12.6-1.5,18.7-3.2
		C175.6,262,175.8,262,176,262C176.1,262,176,262,176,262z"/>
	<path class="st2" d="M114,271.5c-2.2-0.5-4.2-0.9-6.3-1.1c-7.3-0.6-14,0.8-19.4,6.1c-0.5,0.5-0.7,0.6-1.2,0
		c-8.5-11-15.2-23-20.1-36c-0.3-0.7-0.1-0.9,0.6-1c12.4-1.6,23.4,1.3,32.4,10.2c2.8,2.7,5.1,5.8,6.8,9.3c2,4,4.1,8,6.6,11.7
		C113.7,270.9,113.8,271.1,114,271.5z"/>
	<path class="st2" d="M279.6,128c2.9,0.7,5.6,1.2,8.3,1.6c7.1,0.9,14.2,0.9,21.1-1.3c0.2-0.1,0.4-0.1,0.7-0.2
		c1.8-0.6,1.8-0.6,2.6,1.2c2.2,5.1,4.2,10.2,5.8,15.5c2,6.7,3.7,13.6,4.7,20.5c0.1,0.6,0,0.8-0.6,0.9c-6.1,1.2-11.5-0.5-16.5-3.8
		c-5.8-3.9-10.2-9-14.1-14.7c-2.2-3.2-4-6.5-5.7-9.9c-1.5-3.1-3.4-5.9-5.5-8.7C280.1,128.7,279.9,128.4,279.6,128z"/>
	<path class="st2" d="M220.3,221.6c0.7,4.7,1.6,9.1,2.7,13.6c1.9,7.6,4.3,15.1,8.2,21.9c2.2,3.9,5,7.4,8.9,9.8
		c0.3,0.2,0.7,0.4,1.1,0.6c0.3,0.2,0.7,0.3,1,0.5c-0.2,0.4-0.6,0.5-1,0.7c-8.5,4.8-17.1,9.2-25.9,13.3c-0.8,0.4-1.2,0.1-1.7-0.4
		c-2.5-2.4-3.5-5.4-4.1-8.7c-0.9-5.1-0.5-10.2,0.3-15.3c1.8-12.1,5.5-23.6,10-34.9C219.9,222.4,220.1,222.1,220.3,221.6z"/>
	<path class="st2" d="M140.1,289.5c-3.8,0.8-7.5,1.9-11,3.4c-5.2,2.2-9.8,5.2-13.9,9c-0.6,0.6-0.9,0.5-1.6,0.1
		c-6.6-5-12.8-10.4-18.4-16.5c-1-1.1-2-2.3-3-3.4c-0.5-0.5-0.3-0.7,0.1-1.1c2.6-2.6,5.8-4.1,9.4-4.5c5-0.6,9.9,0.4,14.6,2.1
		c3.5,1.2,6.7,2.9,9.9,4.7c4,2.4,8.3,4.3,12.7,5.6C139.3,289.1,139.7,289.1,140.1,289.5z"/>
	<path class="st2" d="M85.6,234.4c-1.7-0.1-3.3-0.6-5-0.9c-3.8-0.6-7.7-0.6-11.5-0.2c-1.2,0.1-2.5,0.3-3.7,0.5
		c-0.5,0.1-0.7-0.2-0.8-0.6c-1.2-3.8-2.2-7.7-3-11.7c-1.6-8.2-2.6-16.4-2.7-24.7c0-1.2,0-1.2,1.1-0.8c2.7,0.9,4.7,2.6,6.5,4.8
		c2.5,3.1,4.1,6.7,5.4,10.5c2.3,6.6,5.9,12.5,9.9,18.1C83.1,231,84.3,232.7,85.6,234.4L85.6,234.4z"/>
	<path class="st2" d="M63.4,161.2c1.7,1.4,2.4,3.3,2.9,5.3c0.5,2.3,0.2,4.5,0,6.8c-0.6,4.9-0.5,9.7,0.2,14.5c0.2,1.6,0.4,3.2,0.7,5
		c-2.3-1.8-4.8-2.9-7.5-3.2c-0.4-0.1-0.5-0.3-0.5-0.7C59.6,179.6,60.8,170.4,63.4,161.2z"/>
	<path class="st2" d="M85.6,234.4c0,0,0.1,0.1,0.1,0.1c0,0-0.1,0-0.1,0C85.6,234.5,85.6,234.4,85.6,234.4
		C85.6,234.4,85.6,234.4,85.6,234.4z"/>
	<path class="st2" d="M176.1,262c0,0,0.1-0.1,0.1-0.1C176.2,262,176.1,262,176.1,262C176,262,176.1,262,176.1,262z"/>
</g>
</svg>
