<?xml version="1.0" encoding="utf-8"?>
<!-- Generator: Adobe Illustrator 25.2.3, SVG Export Plug-In . SVG Version: 6.00 Build 0)  -->
<svg version="1.1" id="Layer_3" xmlns="http://www.w3.org/2000/svg" xmlns:xlink="http://www.w3.org/1999/xlink" x="0px" y="0px"
	 viewBox="0 0 951.3 187" style="enable-background:new 0 0 951.3 187;" xml:space="preserve">
<style type="text/css">
	.st0{fill:#30264F;}
	.st1{clip-path:url(#SVGID_3_);}
	.st2{opacity:0.48;clip-path:url(#SVGID_4_);fill:#AA5385;}
	.st3{clip-path:url(#SVGID_4_);fill:#FFFFFF;}
	.st4{clip-path:url(#SVGID_4_);fill:#D2C5EA;}
	.st5{clip-path:url(#SVGID_4_);fill:none;stroke:#14142B;stroke-width:3;stroke-miterlimit:10;}
	.st6{clip-path:url(#SVGID_4_);fill:#FFD00B;}
	.st7{clip-path:url(#SVGID_4_);fill:#FFB510;}
	.st8{clip-path:url(#SVGID_4_);fill:none;stroke:#14142B;stroke-width:3;stroke-linecap:round;stroke-miterlimit:10;}
	.st9{opacity:0.47;clip-path:url(#SVGID_4_);fill:url(#SVGID_5_);}
	.st10{clip-path:url(#SVGID_4_);fill:url(#SVGID_6_);}
	.st11{opacity:0.69;clip-path:url(#SVGID_4_);fill:url(#SVGID_7_);}
	.st12{clip-path:url(#SVGID_4_);}
	.st13{fill:#FFFFFF;}
	.st14{fill:#14142B;}
	.st15{clip-path:url(#SVGID_4_);fill:#E5D4FF;}
	.st16{fill:#BA9808;}
	.st17{fill:#FFD00B;}
	.st18{fill:#FFB510;}
	.st19{fill:#D2C5EA;}
	.st20{fill:#21387F;}
	.st21{fill:url(#SVGID_8_);}
	.st22{fill:#99FFC2;}
	.st23{fill:#FF0000;}
	.st24{fill:#B52854;}
	.st25{fill:#D81342;}
	.st26{fill:#A02450;}
	.st27{fill:#AD2B53;}
	.st28{opacity:0.34;}
	.st29{fill:#FF8F33;}
	.st30{fill:#771F3F;}
	.st31{fill:#8E3278;}
	.st32{fill:#EBC651;}
	.st33{fill:#E94043;}
	.st34{fill:#AD8CB5;}
	.st35{fill:#A093AA;}
	.st36{fill:#6B577A;}
	.st37{fill:#D7B8B1;}
	.st38{fill:url(#SVGID_9_);}
	.st39{fill:url(#SVGID_10_);}
	.st40{fill:url(#SVGID_11_);}
	.st41{opacity:0.46;fill:#FF8927;}
	.st42{fill:#57497F;}
	.st43{fill:none;stroke:#000000;stroke-width:3;stroke-miterlimit:10;}
</style>
<g>
	<path class="st0" d="M905.9,171.8H22.5C10.1,171.8,0,161.8,0,149.3l0-101c0-12.4,10.1-22.5,22.5-22.5h883.4
		c12.4,0,22.5,10.1,22.5,22.5v101C928.4,161.8,918.3,171.8,905.9,171.8z"/>
</g>
<g>
	<g>
		<defs>
			<path id="SVGID_1_" d="M905.9,171.8H22.5C10.1,171.8,0,161.8,0,149.3l0-101c0-12.4,10.1-22.5,22.5-22.5h883.4
				c12.4,0,22.5,10.1,22.5,22.5v101C928.4,161.8,918.3,171.8,905.9,171.8z"/>
		</defs>
		<defs>
			<path id="SVGID_2_" d="M905.9,171.8H22.5C10.1,171.8,0,161.8,0,149.3l0-101c0-12.4,10.1-22.5,22.5-22.5h883.4
				c12.4,0,22.5,10.1,22.5,22.5v101C928.4,161.8,918.3,171.8,905.9,171.8z"/>
		</defs>
		<clipPath id="SVGID_3_">
			<use xlink:href="#SVGID_1_"  style="overflow:visible;"/>
		</clipPath>
		<clipPath id="SVGID_4_" class="st1">
			<use xlink:href="#SVGID_2_"  style="overflow:visible;"/>
		</clipPath>
		<path class="st2" d="M330,203.8V183c11-2.3,22.3-4.4,33.8-6.3c20.9-3.5,47.7-6.1,73.7-8c43.9-3.2,113.7-29.5,146.9-58.5
			c1.6-1.4,3.2-2.7,5-4C607.3,93,626,91.9,632.9,91.8h0c32.5-13.9,67.6-20.6,103-19.5L887,76.9c-6.8,13.5-13.7,26.9-20.5,40.4
			c-16.3,32.2-48.4,53.5-84.5,55.9C631.4,183.4,480.7,193.6,330,203.8z"/>
		<path class="st3" d="M963.8,190.2C835.4,184.1,707,178,578.5,171.9c22.2-18.3,44.4-36.7,66.6-55c8.7-5.2,15.6-6.6,20.3-6.9
			c2.2-0.1,9.2-2,9.2-2s3.8-3.7,7.6-7.5c7-6.8,15.6-9.7,18.4-10.6c4.4-1.5,4.8-0.9,6.9-2.2c2.1-1.3,3.8-3.1,8.8-12.4
			c3.5-6.5,3.9-7.7,5.9-9.9c3.4-3.6,7.1-5.1,8.2-5.5c11.6-5.1,55.3-35.5,68.8-42.7c44.4-23.9,147.3-5.3,164.5-2.1
			C963.8,73.5,963.8,131.9,963.8,190.2z"/>
		<path class="st4" d="M701.3,129.4c0,0-6.9,1.9-9.2,2c-4.7,0.3-17.6,10.5-23.6,18c-15.9,1.9-28.3,14.9-44.1,28
			c112,5.3,224,10.7,335.9,16c0-53.9,0-107.9,0-161.8c-38.7-5.3-102.1-10.4-134.4,7c-13.5,7.3-57.2,37.7-68.8,42.7
			c-1.1,0.5-4.8,2-8.2,5.5c-2,2.2-2.4,3.4-5.9,9.9c-5,9.3-6.7,11.1-8.8,12.4c-2.2,1.3-2.5,0.8-6.9,2.2c-2.8,0.9-11.4,3.8-18.4,10.6
			C705.2,125.7,701.3,129.4,701.3,129.4z"/>
		<path class="st5" d="M578.5,171.9c12.1-9.4,21.5-17.5,27.8-23.1c19-16.9,25.1-24.9,38.9-31.9c11.6-5.9,22.4-8,29.5-8.8
			c0,0,6.8-8.1,16.7-13.9c9-5.3,12.4-3.9,16.7-7.8c6.8-6.1,8.5-11.6,10-14.5c5.7-10.5,12.8-15.7,36.8-16.5"/>
		<path class="st6" d="M900.7,168c0,12.1-11,20.7-23.1,20.7s-21.9-9.8-21.9-21.9c0-12.1,9.8-21.9,21.9-21.9S900.7,155.9,900.7,168z"
			/>
		<path class="st7" d="M893.2,167.6c0,8.1-7.3,13.8-15.3,13.8c-8.1,0-14.6-6.5-14.6-14.6s6.5-14.6,14.6-14.6
			C885.9,152.2,893.2,159.5,893.2,167.6z"/>
		<path class="st8" d="M856.2,172.7c-1.4-5.9-0.4-12.4,3.2-17.9c7-10.3,21-13.1,31.3-6.1c8,5.4,11.5,15,9.4,23.9"/>
		<path class="st8" d="M866.7,159.7c3.2-4.7,8.8-6.9,14.1-5.8"/>
		<path class="st8" d="M891.4,163.6c0.8,2.8,0.7,5.9-0.4,8.8"/>
		<linearGradient id="SVGID_5_" gradientUnits="userSpaceOnUse" x1="337.6221" y1="120.7846" x2="590.7873" y2="120.7846">
			<stop  offset="0" style="stop-color:#EF7F78"/>
			<stop  offset="1" style="stop-color:#F4AD5B"/>
		</linearGradient>
		<circle class="st9" cx="464.2" cy="120.8" r="126.6"/>
		<linearGradient id="SVGID_6_" gradientUnits="userSpaceOnUse" x1="358.5456" y1="120.7846" x2="569.8638" y2="120.7846">
			<stop  offset="0" style="stop-color:#EF7F78"/>
			<stop  offset="1" style="stop-color:#F4AD5B"/>
		</linearGradient>
		<circle class="st10" cx="464.2" cy="120.8" r="105.7"/>
		<path class="st2" d="M7.5,39.4L47,27.8c43-12.5,89.2-7.7,128.6,13.5l61.8,33.2c27,14.5,56.3,24.3,86.7,28.8l0,0
			c35,5.2,68.3,18.1,97.8,37.5L548,224.3L432.7,343.2L7.5,39.4z"/>
		<linearGradient id="SVGID_7_" gradientUnits="userSpaceOnUse" x1="358.5456" y1="120.7846" x2="569.8638" y2="120.7846">
			<stop  offset="0" style="stop-color:#EF7F78"/>
			<stop  offset="1" style="stop-color:#F4AD5B"/>
		</linearGradient>
		<circle class="st11" cx="464.2" cy="120.8" r="105.7"/>
		<g class="st12">
			<path class="st13" d="M171.9,116.5l48.4-35.6c6.3-4.6,14.3-5.4,21.3-2.1l22.8,11c6.3,3,13.3,4.1,20.1,3.1l1.3-0.2
				c6-0.9,12.1,0.3,17.5,3.2l32,17.6l66.9,62.8L168,182.9L171.9,116.5z"/>
			<path class="st14" d="M166.4,184.4l4.1-68.7l49-36.1c6.8-5,15.3-5.8,22.8-2.2l22.8,11c6,2.9,12.7,3.9,19.2,3l1.3-0.2
				c6.3-0.9,12.7,0.3,18.4,3.4l32.1,17.7l0.1,0.1l69.5,65.3L166.4,184.4z M173.4,117.3l-3.8,64.1l228.9-6.5l-64.1-60.2l-31.8-17.5
				c-5.1-2.8-10.9-3.9-16.6-3.1l-1.3,0.2c-7.1,1-14.4-0.1-20.9-3.3l-22.8-11c-6.5-3.1-13.8-2.4-19.7,1.9L173.4,117.3z"/>
		</g>
		<path class="st6" d="M217.4,94.7c-0.3-6.6-4.6-12.6-11.3-15c-8.8-3.1-18.3,1.3-21.3,9.9c-1.6,4.5-1,9.3,1.2,13.2
			c1.7-0.9,4.7-2.3,8.7-2.8c4.2-0.5,7.5,0.3,9.4,0.9c1.6-1.1,3.5-2.2,5.7-3.3C212.6,96.2,215.2,95.3,217.4,94.7z"/>
		<path class="st7" d="M210.4,98.1c-0.5,0.4-1.1-0.1-2.7,0.4c-2.2,0.7-2.4,2.1-4.1,2.7c-1.9,0.6-2.6-1-5.8-1.3
			c-3.4-0.3-4.3,1.3-5.9,0.5c-2.3-1.1-3-5.8-1.7-9.4c1.8-4.8,8-7.8,13.4-5.9C210.3,87.5,212.1,96.7,210.4,98.1z"/>
		<g class="st12">
			<path class="st14" d="M183.9,103.9c-2.5-4.6-2.9-10.2-1.2-15.1c3.4-9.8,14.2-15,24-11.5c7.4,2.6,12.4,9.6,12.6,17.4l-3,0.1
				c-0.1-6.6-4.4-12.4-10.6-14.6c-8.2-2.9-17.3,1.5-20.2,9.7c-1.5,4.2-1.1,8.8,1,12.7L183.9,103.9z"/>
		</g>
		<g class="st12">
			<path class="st14" d="M191.5,102.1c-0.5,0-1-0.3-1.3-0.7c-1.9-3.1-2.4-6.9-1.1-10.4c1.6-4.6,5.8-7.8,10.7-8.1
				c0.8-0.1,1.5,0.6,1.6,1.4c0.1,0.8-0.6,1.5-1.4,1.6c-3.7,0.2-6.8,2.6-8,6.1c-0.9,2.6-0.6,5.5,0.9,7.8c0.4,0.7,0.2,1.6-0.5,2.1
				C192.1,102.1,191.8,102.1,191.5,102.1z"/>
		</g>
		<g class="st12">
			<path class="st14" d="M212.4,103.4c-0.1,0-0.1,0-0.2,0c-0.8-0.1-1.4-0.8-1.3-1.7c0.3-2.8-0.3-5.7-1.8-8.2
				c-0.4-0.7-0.2-1.6,0.5-2.1c0.7-0.4,1.6-0.2,2.1,0.5c1.8,3,2.6,6.6,2.2,10.1C213.8,102.8,213.2,103.4,212.4,103.4z"/>
		</g>
		<g class="st12">
			<path class="st13" d="M97.5,47.5c0.7,0.8,16.8,13.4,28.4,22.4c7.5,5.9,16.5,8.7,25.6,8l5.5-0.4c5.2-0.4,10.4,1.5,14.4,5.3
				l36.5,33.9c3.3,3.1,7.1,5.5,11.1,7.1l105.1,42.5l25.9,18.2l-402.8,6l19.1-165.7l101.3-6.3c8.3-0.5,16.1,4.2,20.6,12.2L97.5,47.5z
				"/>
			<path class="st14" d="M-54.5,192.2L-35,23.5l102.6-6.4c8.8-0.6,17.3,4.4,22,13l9.1,16.5c0.8,0.7,5.2,4.3,28.1,22.1
				c7.2,5.6,15.9,8.3,24.6,7.7l5.5-0.4c5.6-0.4,11.2,1.6,15.6,5.7l36.5,33.9c3.2,3,6.8,5.3,10.6,6.8l105.2,42.6l29.8,21L-54.5,192.2
				z M-32.3,26.3l-18.8,162.8l396.5-5.9l-22-15.5l-104.9-42.4c-4.2-1.7-8.1-4.2-11.5-7.4L170.5,84c-3.8-3.5-8.5-5.2-13.3-4.9
				l-5.5,0.4c-9.4,0.7-18.8-2.3-26.6-8.4C97.3,49.6,96.6,48.8,96.4,48.5l-0.2-0.3l-9.2-16.7C82.8,24,75.4,19.6,67.7,20.1L-32.3,26.3
				z"/>
		</g>
		<path class="st4" d="M121.8,180.4c-0.4-0.2-0.8-0.4-1.3-0.5C82.8,163.6,54.5,131.2,43,91.7c-6.8-23.5-12.8-51.7-10.9-74L-18.2,6.2
			c-4,15.9-8.4,39.5-7.9,68.1c0.7,37,1.8,103.3,43.4,125.4C59.9,222.3,117.1,183.6,121.8,180.4z"/>
		<path class="st4" d="M108,56l22.9,25.9c4.1,4.7,5.1,11.4,2.4,17.1l-11.9,25c-0.5,1,0.9,2,1.7,1.1l41-46.5
			c-5.9,0.5-15.8,0.6-27.2-3.2C121.6,70.1,112.2,60.7,108,56z"/>
		<path class="st4" d="M71.8,181.8l69.1-19.6c6.2-1.8,11.9-5,16.7-9.4l5.8-5.4c3.7-3.4,9.6-2.7,12.3,1.6l16.1,25.6l38.5-7.7
			c6.9-1.4,14-1.3,20.9,0.3l52.7,11.9l-113,13.8L71.8,181.8z"/>
		<path class="st4" d="M289.1,92.2c-0.8,0.2-1.6,0.3-2.4,0.5c-3,0.5-5.7,0.6-8.2,0.5c-2.6-0.1-4.7-0.4-6.1-0.7
			c-4.8-1.1-8.8-3.3-14.4-6.3c-0.3-0.2-0.5-0.3-0.7-0.4c-0.4,0-0.8,0-1.2,0c-2.9-2.2-7.8-5.2-14.5-7c-5.6-1.5-10.5-1.6-13.8-1.4
			l-36.3,24.8c4.3,4.6,9.7,9.8,16.5,14.7c3.9,2.8,7.6,5.1,11.1,7.1c15.8,6.4,38,14,53.8,20.4c0.4-0.9,0.8-1.8,1.2-2.7l0.1,0.1
			c0.5-1.3,1-2.5,1.5-3.7c0,0,0,0,0,0c3.5-8.3,7.5-14.8,14.2-25.5c0.6-0.9-0.3-1.3-1.4-1.3c-4.4,0-12.7,3.4-15.8,5.8
			c-0.7,0.5-1.7-0.1-1.5-0.9c0.4-2,1-4.4,2.1-6.8c3.4-7.6,9.2-11.8,11.9-13.5c-0.2,0.1-0.4,0.2-0.7,0.3c1.2-0.7,2.4-1.4,3.6-2
			C288.3,93.4,288.7,92.8,289.1,92.2z"/>
		<path class="st15" d="M271.6,103.4C271.6,103.4,271.6,103.4,271.6,103.4C271.6,103.4,271.6,103.3,271.6,103.4
			C271.6,103.3,271.6,103.4,271.6,103.4z"/>
		<path class="st4" d="M368.8,163.3L368.8,163.3c-4.4-3.8-10.7-4.7-15.9-2.2l-21.7,10.1L323,183l79.1-6.8l-10.7-9.3l-7.3,1
			C378.6,168.7,373,167,368.8,163.3z"/>
		<path class="st15" d="M73.8,43.3c7.1,4.4,14.1,8.9,21.2,13.3v7.9l3,9.8l-17.6-6c0.3-2.7,0.4-6.4-0.4-10.6
			C78.7,50.9,75.8,46,73.8,43.3z"/>
		<path class="st4" d="M306.3,147.2l-0.9,1.8l19.2,7.9l-9.8-10.8c-0.7-0.7-1.2-1.6-1.6-2.5l-3.2-6.9c-0.5-1-2-0.6-1.8,0.5v0
			C308.4,140.6,307.8,144.1,306.3,147.2z"/>
		<g class="st12">
			<path class="st14" d="M341.7,179.4l-0.1-3l56.8-1.6l-64.1-60.2l-31.8-17.5c-5.1-2.8-10.9-3.9-16.6-3.1l-1.3,0.2
				c-7.1,1-14.4-0.1-20.9-3.3l-22.8-11c-6.5-3.1-13.8-2.4-19.7,1.9l-28.9,21.2l-1.8-2.4l28.9-21.2c6.8-5,15.3-5.8,22.8-2.2l22.8,11
				c6,2.9,12.7,3.9,19.2,3l1.3-0.2c6.3-0.9,12.7,0.3,18.4,3.4l32.1,17.7l0.1,0.1l69.5,65.3L341.7,179.4z"/>
		</g>
		<g class="st12">
			<path class="st14" d="M-54.5,192.2L-35,23.5l102.6-6.4c8.8-0.6,17.3,4.4,22,13l9.1,16.5c0.8,0.7,5.2,4.3,28.1,22.1
				c7.2,5.6,15.9,8.3,24.6,7.7l5.5-0.4c5.6-0.4,11.2,1.6,15.6,5.7l36.5,33.9c3.2,3,6.8,5.3,10.6,6.8l105.2,42.6l29.8,21L-54.5,192.2
				z M-32.3,26.3l-18.8,162.8l396.5-5.9l-22-15.5l-104.9-42.4c-4.2-1.7-8.1-4.2-11.5-7.4L170.5,84c-3.8-3.5-8.5-5.2-13.3-4.9
				l-5.5,0.4c-9.4,0.7-18.8-2.3-26.6-8.4C97.3,49.6,96.6,48.8,96.4,48.5l-0.2-0.3l-9.2-16.7C82.8,24,75.4,19.6,67.7,20.1L-32.3,26.3
				z"/>
		</g>
		<path class="st6" d="M64.1,209.9c11.1-18.8,10.2-43.4-4.2-62C41.2,123.6,6.8,118.8-17,137.1c-12.6,9.7-19.7,23.9-20.8,38.8
			c6.5,0.5,17.3,2.1,29.2,8c12.4,6.2,20.3,14.3,24.6,19.3c6.5-0.1,13.8,0.2,21.9,1.2C48,205.6,56.8,207.7,64.1,209.9z"/>
		<path class="st7" d="M37.3,204.9c-2.1,0.3-2.7-2.1-7.6-3.5c-6.9-2.1-9.8,1.5-15.2,0.1c-6-1.6-5.1-6.8-12.9-13
			c-8.2-6.5-13.4-4-16.2-8.6c-4.1-6.8,2.1-20.3,11.4-27.3c12.8-9.6,33.9-6.7,44.7,7.3C54.9,177,44,204,37.3,204.9z"/>
		<g class="st12">
			<path class="st14" d="M63.9,209.4l-2.6-1.6c11.4-18.4,10.2-42.4-3.1-59.6c-8.5-11.1-20.9-18.2-34.8-20
				c-13.9-1.8-27.6,1.9-38.7,10.5c-11.6,8.9-19,22.4-20.2,37l-3-0.3c1.3-15.4,9.1-29.7,21.4-39.1c11.7-9,26.3-13,40.9-11.1
				c14.7,1.9,27.7,9.4,36.8,21.1C74.7,164.6,76,189.9,63.9,209.4z"/>
		</g>
		<g class="st12">
			<path class="st14" d="M-16.1,181C-16.1,181-16.1,181-16.1,181c-0.9,0-1.5-0.7-1.5-1.5c0.2-10.5,5.1-20.1,13.4-26.5
				c11-8.5,25.9-9.5,37.9-2.7c0.7,0.4,1,1.3,0.6,2c-0.4,0.7-1.3,1-2,0.6c-11-6.2-24.6-5.3-34.6,2.5c-7.6,5.8-12,14.7-12.2,24.2
				C-14.6,180.4-15.3,181-16.1,181z"/>
		</g>
		<g class="st12">
			<path class="st14" d="M42.2,202.6c-0.3,0-0.7-0.1-1-0.3c-0.6-0.5-0.7-1.5-0.2-2.1c4.3-5.2,6.8-11.9,7.1-18.7
				c0-0.8,0.7-1.5,1.6-1.4c0.8,0,1.5,0.7,1.4,1.6c-0.3,7.5-3.1,14.8-7.8,20.5C43.1,202.4,42.6,202.6,42.2,202.6z"/>
		</g>
		<g class="st12">
			<ellipse transform="matrix(0.98 -0.199 0.199 0.98 -13.1214 17.112)" class="st16" cx="78.6" cy="73.8" rx="21.1" ry="26.5"/>
			<ellipse transform="matrix(0.98 -0.199 0.199 0.98 -12.8761 18.0213)" class="st17" cx="83.2" cy="73.1" rx="21.1" ry="26.5"/>
			
				<ellipse transform="matrix(0.9661 -0.2582 0.2582 0.9661 -37.9529 62.5252)" class="st16" cx="219.1" cy="175.8" rx="21.1" ry="26.5"/>
			
				<ellipse transform="matrix(0.9661 -0.2582 0.2582 0.9661 -38.6533 61.3579)" class="st17" cx="214.3" cy="177.9" rx="21.1" ry="26.5"/>
			<ellipse transform="matrix(0.98 -0.199 0.199 0.98 -12.9252 18.0366)" class="st18" cx="83.2" cy="73.3" rx="13.9" ry="16.4"/>
			
				<ellipse transform="matrix(0.9813 -0.1927 0.1927 0.9813 -30.2536 44.4316)" class="st18" cx="213.3" cy="177.7" rx="13.4" ry="16"/>
			<g>
				<path class="st14" d="M86.1,101.1c-4.4,0-8.8-1.6-12.8-4.7c-5.4-4.1-9.5-10.4-11.5-17.7c-2-7.3-1.7-14.8,0.8-21.1
					c2.6-6.4,7.2-10.8,13-12.4s12-0.2,17.5,4c5.4,4.1,9.5,10.4,11.5,17.7c4.2,15.2-2.1,30.2-13.9,33.5
					C89.2,100.9,87.6,101.1,86.1,101.1z M80.3,47.6c-1.3,0-2.6,0.2-3.9,0.5c-4.9,1.3-8.8,5.1-11,10.7c-2.3,5.7-2.6,12.5-0.7,19.1
					c1.8,6.7,5.5,12.4,10.4,16.1c4.8,3.6,10.1,4.9,14.9,3.5c10.2-2.8,15.5-16.2,11.8-29.8c-1.8-6.7-5.5-12.4-10.4-16.1
					C87.8,49,84,47.6,80.3,47.6z"/>
			</g>
			<g>
				<path class="st14" d="M87.6,90.6c-0.7,0-1.3-0.4-1.4-1.1c-0.2-0.8,0.3-1.6,1.1-1.8c2.9-0.8,5.2-3,6.5-6.3
					c1.4-3.4,1.5-7.5,0.4-11.5c-0.2-0.8,0.3-1.6,1.1-1.8c0.8-0.2,1.6,0.3,1.8,1.1c1.3,4.7,1.1,9.4-0.5,13.4c-1.7,4.2-4.7,7-8.5,8
					C87.9,90.6,87.8,90.6,87.6,90.6z"/>
			</g>
			<g>
				<path class="st14" d="M75.7,86.6c-0.4,0-0.8-0.2-1.1-0.5c-2.4-2.5-4.2-5.8-5.2-9.4c-1.3-4.7-1.1-9.4,0.5-13.4
					c1.7-4.2,4.7-7,8.5-8c4.5-1.2,9.4,0.4,13.3,4.3c0.6,0.6,0.6,1.5,0,2.1c-0.6,0.6-1.5,0.6-2.1,0c-3.1-3.2-6.9-4.4-10.4-3.5
					c-2.9,0.8-5.2,3-6.5,6.3c-1.4,3.4-1.5,7.5-0.4,11.5c0.9,3.2,2.4,6,4.5,8.1c0.6,0.6,0.6,1.5,0,2.1C76.4,86.4,76,86.6,75.7,86.6z"
					/>
			</g>
			<g>
				<path class="st14" d="M80.8,102.6c-4.4,0-8.8-1.6-12.8-4.7c-5.4-4.1-9.5-10.4-11.5-17.7C52.3,65,58.5,50,70.3,46.7l5.7-1.6
					l0.8,2.9l-5.7,1.6c-10.2,2.8-15.5,16.2-11.8,29.8c1.8,6.7,5.5,12.4,10.4,16.1c4.8,3.6,10.1,4.9,14.9,3.5l5.5-1.5l0.8,2.9
					l-5.5,1.5C83.9,102.3,82.4,102.6,80.8,102.6z"/>
			</g>
			<g>
				<path class="st14" d="M216,205.4c-10.9,0-21.2-10.1-24-24.1c-1.5-7.4-0.6-14.9,2.4-20.9c3.1-6.2,8-10.3,13.9-11.4
					c12-2.4,24.3,8.3,27.3,23.8c1.5,7.4,0.6,14.9-2.4,20.9c-3.1,6.2-8,10.3-13.9,11.4C218.3,205.3,217.1,205.4,216,205.4z
					 M211.8,151.6c-0.9,0-1.9,0.1-2.8,0.3c-5,1-9.2,4.5-11.8,9.8c-2.7,5.5-3.5,12.2-2.1,19c2.7,13.9,13.4,23.5,23.8,21.4
					c5-1,9.2-4.5,11.8-9.8c2.7-5.5,3.5-12.2,2.1-19C230.3,160.7,221.2,151.6,211.8,151.6z"/>
			</g>
			<g>
				<path class="st14" d="M215.2,195.2c-3.1,0-6.2-1.3-8.9-3.7c-3.2-2.9-5.5-7.1-6.5-11.8c-0.2-0.8,0.4-1.6,1.2-1.8
					c0.8-0.2,1.6,0.4,1.8,1.2c0.8,4.1,2.8,7.7,5.5,10.1c2.6,2.3,5.7,3.3,8.6,2.7c0.8-0.2,1.6,0.4,1.8,1.2c0.2,0.8-0.4,1.6-1.2,1.8
					C216.7,195.1,215.9,195.2,215.2,195.2z"/>
			</g>
			<g>
				<path class="st14" d="M226.1,186.1c-0.1,0-0.3,0-0.5-0.1c-0.8-0.2-1.2-1.1-1-1.9c0.9-2.9,1-6.1,0.4-9.3
					c-0.8-4.1-2.8-7.7-5.5-10.1c-2.6-2.3-5.7-3.3-8.6-2.7c-3.5,0.7-6.3,3.5-7.7,7.7c-0.3,0.8-1.1,1.2-1.9,1c-0.8-0.3-1.2-1.1-1-1.9
					c1.7-5.2,5.5-8.8,10-9.7c3.8-0.8,7.8,0.5,11.2,3.4c3.2,2.9,5.5,7.1,6.5,11.8c0.7,3.7,0.6,7.4-0.5,10.8
					C227.3,185.7,226.7,186.1,226.1,186.1z"/>
			</g>
			<g>
				<path class="st14" d="M219.2,205.1l-0.6-2.9l5.6-1.1c5-1,9.2-4.5,11.8-9.8c2.7-5.5,3.5-12.2,2.1-19
					c-2.7-13.9-13.4-23.5-23.8-21.4l-5.8,1.1l-0.6-2.9l5.8-1.1c12-2.4,24.3,8.3,27.3,23.8c1.5,7.4,0.6,14.9-2.4,20.9
					c-3.1,6.2-8,10.3-13.9,11.4L219.2,205.1z"/>
			</g>
		</g>
	</g>
	<path class="st17" d="M682.3,136c-3.2-7.9-11.1-13.5-20.4-13.5c-12.1,0-21.9,9.5-21.9,21.3c0,6.2,2.7,11.8,7.1,15.7
		c1.7-1.9,4.8-4.9,9.5-7.1c4.9-2.4,9.3-2.9,11.9-3c1.5-2,3.4-4.2,5.6-6.5C677,140,679.8,137.8,682.3,136z"/>
	<path class="st18" d="M675.2,143.3c-0.4,0.8-1.4,0.4-3.1,1.6c-2.4,1.8-2,3.6-3.8,5c-2.1,1.6-3.6-0.1-7.6,0.9
		c-4.3,1.1-4.8,3.4-7,3.2c-3.3-0.4-6.2-5.9-6.1-10.8c0.1-6.7,6.4-13,13.9-13C670.4,130.3,676.6,140.8,675.2,143.3z"/>
	<path class="st13" d="M834.2,76.4c19.9-22.3,37-41.8,40.4-39.8c1.4,0.8,1.5,4,0.2,9.6c54.8-45.2,69.3-28.9,71.9-24.8
		c2.5,3.9,6.2,21.2-38.1,53.4c17.6-3.5,23.5-4.2,26.2,0c4.1,6.5-3.9,16.3-32.9,34"/>
	<path class="st19" d="M908.5,74.7c44.3-32.2,40.6-49.5,38.1-53.4c-1.9-3-10.2-12.6-36.1,0.4c3.8,1.4,5.7,3.8,6.5,5.1
		c2.5,3.9,6.2,21.2-38.1,53.4c17.6-3.5,23.5-4.2,26.2,0c3,4.8-7.4,10.3-21,20.5l17.6,8.1c29-17.7,37-27.5,32.9-34
		C932,70.5,926.1,71.2,908.5,74.7z"/>
	<path class="st14" d="M840.4,68.8c5.9-7.6,11.9-15.2,18.4-22.4c1.6-1.8,3.3-3.6,5.1-5.3c1.8-1.7,3.6-3.4,5.8-4.8
		c0.6-0.4,1.1-0.7,1.8-1c0.7-0.3,1.4-0.6,2.4-0.5c0.2,0,0.5,0.1,0.8,0.1c0.3,0.1,0.6,0.2,0.8,0.4c0.5,0.3,0.8,0.8,1.1,1.2
		c0.4,0.9,0.5,1.6,0.6,2.3c0.1,1.4,0,2.7-0.2,3.9c-0.2,1.2-0.4,2.5-0.7,3.7l-2.4-1.5c9.9-8,20.1-15.8,31.2-22.1
		c5.6-3.1,11.4-5.9,17.7-7.7c3.1-0.9,6.4-1.5,9.7-1.6c1.7,0,3.4,0.1,5,0.4c1.7,0.3,3.3,0.9,4.9,1.7c1.6,0.8,3,1.9,4.2,3.2
		c0.6,0.7,1.1,1.3,1.6,2.2c0.3,0.4,0.4,0.9,0.5,1.3c0.1,0.2,0.2,0.4,0.2,0.7l0.1,0.7c0.7,3.5,0.1,7-0.9,10.1
		c-0.2,0.8-0.6,1.6-0.9,2.3c-0.3,0.8-0.6,1.5-1,2.3l-1.2,2.2l-0.6,1.1l-0.7,1c-1.7,2.8-3.7,5.3-5.8,7.8
		c-8.4,9.8-18.4,17.9-28.7,25.4l-1.2-2.7l0,0c3.2-0.7,6.3-1.4,9.6-2c3.2-0.6,6.4-1.2,9.9-1.2c1.7,0,3.6,0.1,5.5,1
		c0.5,0.2,0.9,0.6,1.4,0.9c0.4,0.4,0.8,0.7,1.1,1.2c0.7,0.8,1.1,1.7,1.4,2.7c0.3,1,0.4,2.1,0.3,3.1c-0.1,1-0.4,2-0.7,2.8
		c-0.7,1.7-1.7,3.2-2.8,4.6c-4.4,5.3-9.7,9.2-15,13c-5.4,3.7-10.9,7.2-17.2,9.4c4.8-4.6,10.2-8.1,15.4-11.9c2.6-1.9,5.1-3.9,7.5-6
		c2.4-2.1,4.7-4.3,6.5-6.7c0.9-1.2,1.7-2.5,2.2-3.7c0.2-0.6,0.4-1.3,0.5-1.9c0-0.6,0-1.2-0.2-1.7c-0.2-0.5-0.4-1.1-0.8-1.5
		c-0.2-0.3-0.4-0.4-0.6-0.6c-0.2-0.1-0.4-0.3-0.7-0.4c-1-0.5-2.4-0.7-3.9-0.7c-3,0-6.2,0.5-9.4,1c-3.2,0.5-6.3,1.1-9.5,1.6l0,0
		l-6.7,1.3l5.5-4c10.2-7.4,20-15.5,28.1-24.9c2-2.4,3.9-4.8,5.5-7.5l0.6-1l0.5-1l1.1-2c0.4-0.7,0.6-1.4,0.9-2.1
		c0.3-0.7,0.6-1.4,0.8-2.1c1-2.8,1.4-5.9,0.9-8.6c-0.3-1.4-0.8-2.4-1.8-3.5c-0.9-1-2.1-1.9-3.3-2.5c-1.3-0.7-2.6-1.1-4.1-1.4
		c-1.4-0.3-2.9-0.4-4.4-0.3c-3,0-6,0.6-9,1.5c-5.9,1.7-11.6,4.4-17.1,7.4c-10.9,6.1-21,13.8-30.8,21.8l-3.4,2.8l1-4.3
		c0.5-2.3,1-4.6,0.9-6.7c0-0.5-0.1-0.9-0.3-1.1c-0.1-0.1-0.1-0.1-0.1-0.1c0,0,0,0,0,0c0,0,0,0-0.1,0c-0.2,0-0.6,0.1-1.1,0.3
		c-0.4,0.2-0.9,0.5-1.4,0.8c-1.8,1.2-3.6,2.8-5.3,4.4c-1.7,1.6-3.3,3.4-4.9,5.1c-6.4,7.1-12.4,14.6-18.3,22.2L840.4,68.8z"/>
	<path class="st13" d="M847,137.6c29.2-30.1,45.5-39.8,51.4-42.2c2.8-1.1,4.3,3.4,1.9,8.7c4.6-4.7,6.2-4.4,7.4-7.5
		c1.7-4.4-0.9-8.1-1.1-8.4c-9.3,1-16.1,3.6-20.4,5.6c-3.3,1.5-22.8,11-31.9,29c-0.8,1.7-3.7,7.5-4.9,7.1c-1.2-0.4,0.7-6.3-1.1-7.4
		c-2.5-1.6-10.9,6.5-16.8,13.9c-5.1,6.4-11.9,16.7-16.7,31.9c2.7-3.6,6.8-9,11.6-15.7c11-15.1,15.6-22.2,18.5-21.2
		C845.7,131.8,846.7,133.1,847,137.6z"/>
	<path class="st20" d="M817.1,51.9l-11.5-3.6l0,9.3l11.5,2.2c0.3-0.8,0.8-2.1,0.8-3.9C818,54.1,817.5,52.7,817.1,51.9z"/>
	<linearGradient id="SVGID_8_" gradientUnits="userSpaceOnUse" x1="768.3667" y1="43.4253" x2="767.522" y2="70.1734">
		<stop  offset="0" style="stop-color:#EF7F78"/>
		<stop  offset="1" style="stop-color:#F4AD5B"/>
	</linearGradient>
	<path class="st21" d="M805.6,48.4c0.4,1.7,0.8,4.7,0,8.3c-0.6,2.6-1.6,4.7-2.4,6c-0.6,1.4-2,4.3-5.1,6.7c-2.3,1.8-4.6,2.6-6,2.9
		c-1.5,0.6-4.9,1.8-9.2,1.2c-2.7-0.4-4.8-1.4-6-2.2l-7.7-5.7L749,58l5.7,13.7c-7.3,3.4-16,1.3-21-5c-5-6.3-5-15.4,0-21.7
		c9.3-1.6,20.8-2.8,34.1-2.4C783,43.2,795.8,45.7,805.6,48.4z"/>
	<path class="st22" d="M749,58l0.3,0.1l-0.2,0.4C749.1,58.3,749,58.2,749,58z"/>
	<path class="st23" d="M797.2,70l-0.3,4.7l18.3-7.4l-0.6-8.2l-9-2.5c-0.5,1.9-1.4,4.5-3.1,7.2C800.7,66.7,798.7,68.7,797.2,70z"/>
	<path class="st24" d="M814.6,59.1l-9-2.5c-0.1,0.5-0.3,1-0.5,1.6l3.9,1c0.3,4.9-2.5,9.5-7.1,11.3l-4.8,1.9l-0.1,2.1l18.3-7.4
		L814.6,59.1z"/>
	<path class="st13" d="M735.3,68.9l-0.4,6.6c6.4,2.3,15.6,4.8,26.8,5.2c15.5,0.6,27.8-3.1,35.1-6c0.4-1.8,0.8-3.6,1.2-5.4
		c-1.8,1.2-7.4,4.6-15.2,4.1c-6-0.4-10.2-2.9-12.1-4.2c0,0.8-0.4,4.5-2.8,5.7c-1.8,0.9-3.9,0-7.3-1.5c-3-1.3-2.8-1.8-4.5-2.3
		c-4.3-1.5-6.9,1.1-11.7,1.1C742.4,72.2,739.2,71.6,735.3,68.9z"/>
	<path class="st25" d="M732.3,64.6l-1.1,1.2c-3.1,3.4-4.5,8-3.6,12.5l0,0l-0.4,1.1c-0.7,2.2-0.3,4.6,1.1,6.5l1.7,2.4
		c3.9,2.3,23.5,13.5,48.6,7.6c23.3-5.6,35.5-22.2,38.4-26.3c-0.6-0.8-1.2-1.6-1.7-2.3c-4.9,3.1-12.5,7.2-22.6,9.8
		c-5.2,1.3-9,1.7-16.6,2.5c-12.8,1.3-19.4,2-27.3,0c-6.3-1.6-11-4.1-14-6c-0.3-2.3-0.6-4.6-0.9-6.8L732.3,64.6z"/>
	<path class="st26" d="M801,74.4c0,1.4,1.8,1.8,2.3,3.7c1.2,4.9-8,10.7-7.8,11.1c0.2,0.3,6.7-3.3,14-10.6c3.7-3.7,6.4-7.4,8.5-10.5
		c-0.9-0.3-1.8-0.5-2.7-0.8C803.5,70.4,801,72.8,801,74.4z"/>
	<path class="st25" d="M745.7,25.9L745.7,25.9c5.4-5.7,11.9-10.1,19.1-13.2l0.5-0.2c3.7-1.5,7.5-2.4,11.5-2.7l14-1l8.4-2.7
		c4.2-1.3,8.7-1.5,12.9-0.4l0.7,0.2c4.2,1.1,7.9,3.7,10.2,7.4v0c-0.5,2.1-1.8,3.9-3.7,5.1l-1.2,0.7l0,0c1.2,7.7,1.1,15.5-0.4,23.2
		l0,0.1c-7.9-4.8-20.2-11-36.4-14.5C767,24.9,754.5,25.1,745.7,25.9z"/>
	<path class="st25" d="M749.7,21c-0.7-0.1-5.7-0.5-9.6,3.3c-3.7,3.5-3.7,8.1-3.7,8.9c-0.7,0.3-2.9,1.4-4.2,4c-1.7,3.5-0.3,6.8,0,7.3
		c11.4-1.7,26.3-2.9,43.7-1.4c17,1.5,31.3,5.2,42.1,8.8c0.4-2.8,0.8-5.5,1.3-8.3C808,35.4,798,31.8,791.2,30
		c-10-2.7-31.6-6.4-39.7-4.4c-0.6,0.2-3.8-0.1-3.8-0.1S748.5,22.5,749.7,21z"/>
	<path class="st26" d="M821.1,8.5c-3.5,2.2-6.9,4.4-10.4,6.6l-0.4,16.4c-2.9,1.6-3.6,2-6.5,3.5c-1.3-0.8-2.7-1.6-4.3-2.3
		c-3.1-1.4-6-2.3-8.4-2.8c-3.1-0.6-6.1-1.2-9.2-1.8C780,34,775.9,39,770.7,42.4l-0.6,0.4c7.8,0.4,16.8,1.3,26.6,3.4
		c7.9,1.6,15,3.7,21.2,5.8c0.4-0.6,1.5-2.3,1.5-4.6c0-2.5-1.1-4.3-1.6-4.9c0.6-2.7,1.1-5.4,1.7-8c0.2-1.6,0.3-3.4,0.2-5.4
		c-0.1-4.3-1-8-2-10.7c0.5,0,1.4,0,2.5-0.5c1.5-0.7,2.3-1.9,2.6-2.3c0.1-0.6,0.2-1.3,0.2-2.1C823,10.9,821.7,9.2,821.1,8.5z"/>
	<path class="st27" d="M836.3,79.6c1.1-0.7,14.8-8.9,29.6-2.2c12.4,5.6,16.3,17.5,16.9,19.4c-4.9,2.5-11.4,6.5-17.9,12.7
		c-7.8,7.4-12.7,15-15.5,20.5c-0.4-2.5-0.8-4.9-1.1-7.4c-0.7-0.1-1.5-0.1-2.5,0.1c-2.3,0.4-3.8,1.8-4.5,2.4c-2,2-4.1,4.2-6.1,6.7
		c-6.6,7.9-11.3,15.8-14.7,22.8c-2.3,1.3-38.5,22-66.3,25.9c-9,1.3-20,1.2-22.4,1.1c-12.1-0.2-16.9-1.5-20.4-2.8
		c-4.8-1.8-8.3-4.2-10.7-6.1c-4.2-4.3-5.2-8-5.3-10.5c-0.8-12.2,16.4-26.1,43.5-32.8c12.3-2,28.2-5.9,45.5-13.8
		C808.6,104.5,825.7,90.1,836.3,79.6z"/>
	<g class="st28">
		<path class="st29" d="M749.1,180.8c-9.3,0.4-21.6,0.9-31-7.4c-1.7-1.5-8.1-7.2-8.6-14.6c-0.8-11.9,13.5-25.7,36.4-30.7
			c-35.4,4.8-73.1,34.1-34.7,50.7c20.4,7.1,58.7,1.1,81.2-10.3c-9,4.2-17,6.9-23.2,8.7C762.3,179.2,756.7,180.5,749.1,180.8z"/>
		<path class="st29" d="M816.4,104.7c19.3-8.8,34-19.6,44.5-29c-12.8-3.2-23.7,3.3-24.7,3.9c-10.6,10.5-27.7,24.9-52,35.9
			c-0.4,0.2-0.7,0.3-1.1,0.5C793.1,113.7,804.4,110.2,816.4,104.7z"/>
	</g>
	<path class="st30" d="M822.5,106c-3.7,4.8-14.4,17-33,22.7c-15.6,4.8-28.9,2.6-34.9,1.2c-7.8,2.7-11.9,11.4-9.2,19.2
		c2.8,7.8,11.4,12,19.2,9.2c12.4-0.4,18.3-4.3,21.4-7.9c1.6-1.8,3.1-3.9,4.4-5.9c3.1-4.8,9.3-6.5,14.4-3.9c0,0,0.1,0,0.1,0.1
		c4.6,2.3,12.6,2.9,27.6-6.3c0.9-0.3,5.9-2.2,8.6-7.7c1.7-3.5,2-7.6,0.6-11.5v0C838.9,107.4,830.3,103.2,822.5,106z"/>
	<g>
		<g>
			<g>
				<path class="st13" d="M178,79.2h21.1c12.5,0,21,4.8,21,14.5v0.1c0,9.8-8.6,15.1-21.3,15.1h-5.1v11.1H178V79.2z M197.9,99.1
					c4,0,6.7-1.6,6.7-4.5v-0.1c0-3-2.5-4.5-6.6-4.5h-4.3v9.1H197.9z"/>
			</g>
			<g>
				<path d="M197.7,123.9H174V75.2h25.1c15.4,0,25,7.1,25,18.5v0.1c0,11.8-9.7,19.1-25.3,19.1h-1.1V123.9z M182,115.9h7.7v-11.1h9.1
					c5.2,0,17.3-1.1,17.3-11.1v-0.1c0-9.1-10.6-10.5-17-10.5H182V115.9z M197.9,103.1h-8.2V86.1h8.3c7.8,0,10.6,4.4,10.6,8.5v0.1
					C208.6,98.9,205.3,103.1,197.9,103.1z M197.7,95.1h0.2c1.6,0,2.4-0.3,2.7-0.5l0-0.1c0,0,0,0,0,0c-0.2-0.1-0.9-0.4-2.6-0.4h-0.3
					V95.1z"/>
			</g>
		</g>
		<g>
			<g>
				<path class="st13" d="M224,79.2h40v11.2h-24.6v4.1h22.9v9.8h-22.9v4.4h24.9v11.2H224V79.2z"/>
			</g>
			<g>
				<path d="M268.4,123.9H220V75.2h48v19.2h-1.7v10.4h2V123.9z M228,115.9h32.3v-3.2h-24.9v-12.4h22.9v-1.8h-22.9V86.4H260v-3.2h-32
					V115.9z"/>
			</g>
		</g>
		<g>
			<g>
				<path class="st13" d="M269.2,79.2h14.7l16.7,18v-18H316v40.7h-13.9l-17.4-18.8v18.8h-15.5V79.2z"/>
			</g>
			<g>
				<path d="M320,123.9h-19.7l-11.7-12.6v12.6h-23.5V75.2h20.4L296.5,87V75.2H320V123.9z M303.9,115.9h8.2V83.2h-7.5v24.2
					l-22.4-24.2h-8.9v32.7h7.5v-25L303.9,115.9z"/>
			</g>
		</g>
		<g>
			<g>
				<path class="st13" d="M320.9,99.7v-0.1c0-12.2,11-21.2,25.8-21.2c8,0,14.5,2.3,19.6,6.2l-8.8,9.2c-3.1-2.3-6.5-3.5-10.4-3.5
					c-6.1,0-10.5,4.1-10.5,9.6v0.1c0,5.8,4.6,9.7,11.2,9.7c2.7,0,4.2-0.3,5.4-0.9v-4.1h-8v-8.7h22.7v18.9
					c-5.1,3.6-12.2,6.1-20.7,6.1C332.6,120.8,320.9,112.3,320.9,99.7z"/>
			</g>
			<g>
				<path d="M347.2,124.8c-17.3,0-30.3-10.8-30.3-25.1v-0.1c0-14.4,12.8-25.2,29.8-25.2c8.5,0,15.9,2.3,22,7l3.6,2.7l-7.5,7.8h7
					v24.9l-1.7,1.2C364,122.4,355.8,124.8,347.2,124.8z M346.8,82.3c-12.5,0-21.8,7.4-21.8,17.2v0.1c0,9.9,9.4,17.1,22.3,17.1
					c6.2,0,12-1.5,16.7-4.3V99.8h-14.7v0.7h8v10.6l-2.3,1.1c-1.9,0.9-4.1,1.3-7.1,1.3c-8.8,0-15.2-5.8-15.2-13.7v-0.1
					c0-7.8,6.2-13.6,14.5-13.6c3.4,0,6.7,0.8,9.7,2.4l3.1-3.3C356.2,83.3,351.7,82.3,346.8,82.3z M341.2,97.4
					c-0.3,0.7-0.5,1.5-0.5,2.3v0.1c0,0.9,0.2,1.7,0.5,2.4V97.4z"/>
			</g>
		</g>
		<g>
			<g>
				<path class="st13" d="M372.7,101.6V79.2h15.9v22.3c0,5.1,3,7.2,7.2,7.2c4.2,0,7.2-2,7.2-6.9V79.2H419v22.2
					c0,13.9-9.3,19.4-23.3,19.4S372.7,115.1,372.7,101.6z"/>
			</g>
			<g>
				<path d="M395.7,124.7c-23.5,0-27-14.5-27-23.1V75.2h23.9v26.3c0,2.4,0.8,3.2,3.2,3.2c2.8,0,3.2-0.9,3.2-2.9V75.2H423v26.2
					C423,110.1,419.5,124.7,395.7,124.7z M376.7,83.2v18.5c0,6.5,2,15.1,19,15.1c17.3,0,19.3-8.8,19.3-15.4V83.2h-7.9v18.6
					c0,6.7-4.3,10.9-11.2,10.9c-6.8,0-11.2-4.4-11.2-11.2V83.2H376.7z"/>
			</g>
		</g>
		<g>
			<g>
				<path class="st13" d="M424.7,79.2h15.7v40.7h-15.7V79.2z"/>
			</g>
			<g>
				<path d="M444.4,123.9h-23.7V75.2h23.7V123.9z M428.7,115.9h7.7V83.2h-7.7V115.9z"/>
			</g>
		</g>
		<g>
			<g>
				<path class="st13" d="M446.5,79.2h14.7l16.7,18v-18h15.5v40.7h-13.9L462,101.1v18.8h-15.5V79.2z"/>
			</g>
			<g>
				<path d="M497.3,123.9h-19.7L466,111.3v12.6h-23.5V75.2h20.4L473.8,87V75.2h23.5V123.9z M481.2,115.9h8.2V83.2h-7.5v24.2
					l-22.4-24.2h-8.9v32.7h7.5v-25L481.2,115.9z"/>
			</g>
		</g>
		<g>
			<g>
				<path class="st13" d="M516.9,79.2h22.9c8.3,0,13.6,1.8,16.9,4.7c2.8,2.4,4.3,5.5,4.3,9.7v0.1c0,5.9-3.5,10.1-9.2,12.5l10.9,13.8
					h-17.9l-8.8-11.6h-3.3v11.6h-15.7V79.2z M539.3,98.6c3.7,0,6-1.5,6-4v-0.1c0-2.6-2.3-3.9-6-3.9h-6.8v8H539.3z"/>
			</g>
			<g>
				<path d="M570.9,123.9h-28.1l-6.2-8.2v8.2h-23.7V75.2h26.9c8.8,0,15.1,1.8,19.5,5.6c3.8,3.3,5.7,7.5,5.7,12.7v0.1
					c0,5.6-2.5,10.4-7.2,13.7L570.9,123.9z M546.8,115.9h7.6l-9.1-11.5l4.9-2c4.6-1.9,6.8-4.8,6.8-8.8v-0.1c0-2.9-0.9-4.9-2.9-6.6
					c-2.8-2.4-7.6-3.7-14.2-3.7h-18.9v32.7h7.7v-11.6h9.3L546.8,115.9z M539.3,102.6h-10.8v-16h10.8c7.4,0,10,4.3,10,7.9v0.1
					C549.4,98.6,546.3,102.6,539.3,102.6z"/>
			</g>
		</g>
		<g>
			<g>
				<path class="st13" d="M565,101.6V79.2h15.9v22.3c0,5.1,3,7.2,7.2,7.2c4.2,0,7.2-2,7.2-6.9V79.2h15.9v22.2
					c0,13.9-9.3,19.4-23.3,19.4C574,120.7,565,115.1,565,101.6z"/>
			</g>
			<g>
				<path d="M588,124.7c-23.5,0-27-14.5-27-23.1V75.2h23.9v26.3c0,2.4,0.8,3.2,3.2,3.2c2.8,0,3.2-0.9,3.2-2.9V75.2h23.9v26.2
					C615.3,110.1,611.8,124.7,588,124.7z M569,83.2v18.5c0,6.5,2,15.1,19,15.1c17.3,0,19.3-8.8,19.3-15.4V83.2h-7.9v18.6
					c0,6.7-4.3,10.9-11.2,10.9c-6.8,0-11.2-4.4-11.2-11.2V83.2H569z"/>
			</g>
		</g>
		<g>
			<g>
				<path class="st13" d="M613,113.8l8.4-8.7c5.1,3.4,10.9,4.8,16.4,4.8c2.8,0,4-0.6,4-1.7V108c0-1.2-1.5-1.8-6.5-2.7
					c-10.5-1.9-19.8-4.5-19.8-13.1v-0.1c0-7.7,7-13.7,19.9-13.7c9,0,15.7,1.9,21.2,5.6l-7.6,9.2c-4.4-2.8-9.7-4-14.1-4
					c-2.3,0-3.4,0.7-3.4,1.7V91c0,1.1,1.3,1.8,6.2,2.6c12,1.9,20,4.9,20,13.1v0.1c0,8.6-8.1,13.8-20.7,13.8
					C627.5,120.7,619,118.3,613,113.8z"/>
			</g>
			<g>
				<path d="M637,124.7c-10.6,0-20-2.7-26.5-7.7l-3.6-2.7l10.4-10.8c-3.4-2.5-5.9-6-5.9-11.2v-0.1c0-12.2,12-17.7,23.9-17.7
					c9.7,0,17.2,2,23.4,6.3l3.6,2.5l-9,10.8c4.6,2.5,8.2,6.4,8.2,12.8v0.1C661.7,117.7,652,124.7,637,124.7z M619.3,113
					c4.8,2.4,10.9,3.7,17.7,3.7c8.1,0,16.7-2.6,16.7-9.8v-0.1c0-3.9-2.8-7-16.7-9.2c-3.8-0.6-9.6-1.6-9.6-6.6v-0.1
					c0-0.6,0.2-5.7,7.4-5.7c4.4,0,9,1,13.1,2.9l2.5-3c-4.1-1.8-9-2.7-15-2.7c-9.8,0-15.9,3.7-15.9,9.7v0.1c0,4.5,4.5,7,16.4,9.2
					c4.4,0.8,9.8,1.7,9.8,6.6v0.1c0,1.3-0.6,5.7-8,5.7c-5.6,0-11-1.3-15.7-3.7L619.3,113z"/>
			</g>
		</g>
		<g>
			<g>
				<path class="st13" d="M661.9,79.2h15.7v14.4h14.3V79.2h15.7v40.7h-15.7v-14.6h-14.3v14.6h-15.7V79.2z"/>
			</g>
			<g>
				<path d="M711.6,123.9h-23.7v-14.6h-6.3v14.6h-23.7V75.2h23.7v14.4h6.3V75.2h23.7V123.9z M695.9,115.9h7.7V83.2h-7.7v14.4h-22.3
					V83.2h-7.7v32.7h7.7v-14.6h22.3V115.9z"/>
			</g>
		</g>
	</g>
	<g>
		<path class="st13" d="M178,79.2h21.1c12.5,0,21,4.8,21,14.5v0.1c0,9.8-8.6,15.1-21.3,15.1h-5.1v11.1H178V79.2z M197.9,99.1
			c4,0,6.7-1.6,6.7-4.5v-0.1c0-3-2.5-4.5-6.6-4.5h-4.3v9.1H197.9z"/>
		<path class="st13" d="M224,79.2h40v11.2h-24.6v4.1h22.9v9.8h-22.9v4.4h24.9v11.2H224V79.2z"/>
		<path class="st13" d="M269.2,79.2h14.7l16.7,18v-18H316v40.7h-13.9l-17.4-18.8v18.8h-15.5V79.2z"/>
		<path class="st13" d="M320.9,99.7v-0.1c0-12.2,11-21.2,25.8-21.2c8,0,14.5,2.3,19.6,6.2l-8.8,9.2c-3.1-2.3-6.5-3.5-10.4-3.5
			c-6.1,0-10.5,4.1-10.5,9.6v0.1c0,5.8,4.6,9.7,11.2,9.7c2.7,0,4.2-0.3,5.4-0.9v-4.1h-8v-8.7h22.7v18.9c-5.1,3.6-12.2,6.1-20.7,6.1
			C332.6,120.8,320.9,112.3,320.9,99.7z"/>
		<path class="st13" d="M372.7,101.6V79.2h15.9v22.3c0,5.1,3,7.2,7.2,7.2c4.2,0,7.2-2,7.2-6.9V79.2H419v22.2
			c0,13.9-9.3,19.4-23.3,19.4S372.7,115.1,372.7,101.6z"/>
		<path class="st13" d="M424.7,79.2h15.7v40.7h-15.7V79.2z"/>
		<path class="st13" d="M446.5,79.2h14.7l16.7,18v-18h15.5v40.7h-13.9L462,101.1v18.8h-15.5V79.2z"/>
		<path class="st13" d="M516.9,79.2h22.9c8.3,0,13.6,1.8,16.9,4.7c2.8,2.4,4.3,5.5,4.3,9.7v0.1c0,5.9-3.5,10.1-9.2,12.5l10.9,13.8
			h-17.9l-8.8-11.6h-3.3v11.6h-15.7V79.2z M539.3,98.6c3.7,0,6-1.5,6-4v-0.1c0-2.6-2.3-3.9-6-3.9h-6.8v8H539.3z"/>
		<path class="st13" d="M565,101.6V79.2h15.9v22.3c0,5.1,3,7.2,7.2,7.2c4.2,0,7.2-2,7.2-6.9V79.2h15.9v22.2
			c0,13.9-9.3,19.4-23.3,19.4C574,120.7,565,115.1,565,101.6z"/>
		<path class="st13" d="M613,113.8l8.4-8.7c5.1,3.4,10.9,4.8,16.4,4.8c2.8,0,4-0.6,4-1.7V108c0-1.2-1.5-1.8-6.5-2.7
			c-10.5-1.9-19.8-4.5-19.8-13.1v-0.1c0-7.7,7-13.7,19.9-13.7c9,0,15.7,1.9,21.2,5.6l-7.6,9.2c-4.4-2.8-9.7-4-14.1-4
			c-2.3,0-3.4,0.7-3.4,1.7V91c0,1.1,1.3,1.8,6.2,2.6c12,1.9,20,4.9,20,13.1v0.1c0,8.6-8.1,13.8-20.7,13.8
			C627.5,120.7,619,118.3,613,113.8z"/>
		<path class="st13" d="M661.9,79.2h15.7v14.4h14.3V79.2h15.7v40.7h-15.7v-14.6h-14.3v14.6h-15.7V79.2z"/>
	</g>
	<path class="st31" d="M779.8,143.5l-14.3-5.4l-19.3-0.6l-7.5,1.6l-1.5,5.8l7,0.9l15.1,0.2l12.3,3.8l6,1.1c0,0,3.2-3,3-3.2
		C780.4,147.6,779.8,143.5,779.8,143.5z"/>
	<path class="st32" d="M752.5,135.1c-1.7,0.8-4.2,2.1-6.7,4.5c-3.5,3.4-7.6,9.5-5.8,11.9c1.4,1.8,5.7,0.9,8.3,0.1
		c0.6,2.9,2.7,5.2,5.4,6c3,0.9,6.3-0.1,8.3-2.6c0.4,0.4,2.3,2.2,5.1,2.1c2.8-0.1,5.3-2,6.4-4.9c0.6-1.5,1.2-3.7,1.3-6.5
		c0.1-3.5-0.7-6.3-1.3-8C766.5,136.9,759.5,136,752.5,135.1z"/>
	<path class="st32" d="M822.8,106.3c1.7-0.8,4.4-1.8,7.8-2.1c4.9-0.4,12.2,0.6,12.8,3.5c0.5,2.2-3.1,4.9-5.4,6.3
		c1.8,2.3,2.1,5.4,0.9,8c-1.3,2.8-4.3,4.6-7.4,4.5c0,0.5,0.1,3.2-1.8,5.2c-1.9,2-5,2.7-7.9,1.6c-1.5-0.5-3.6-1.5-5.7-3.3
		c-2.7-2.2-4.3-4.7-5.1-6.3C814.9,118,818.9,112.2,822.8,106.3z"/>
	<g>
		<path class="st14" d="M755.9,159.5c-0.9,0-1.8-0.1-2.6-0.4c-2.8-0.8-5-2.9-6-5.6c-4.3,1-7.2,0.7-8.5-1.1c-2.9-3.9,3.5-11.5,6-13.9
			c2.1-2,4.4-3.6,7.1-4.8l0.4-0.2l22.3,2.9l0.3,0.8c1.1,2.7,1.5,5.6,1.4,8.5c-0.1,2.4-0.6,4.7-1.4,7c-1.3,3.4-4.4,5.7-7.8,5.8
			c-2.2,0.1-3.9-0.8-5-1.6C760.4,158.6,758.2,159.5,755.9,159.5z M749.4,149.8l0.3,1.6c0.5,2.3,2.2,4.2,4.4,4.8
			c2.4,0.7,5.1-0.1,6.7-2.1l1-1.3l1.2,1.2c0.4,0.4,1.9,1.7,4,1.7c2.2-0.1,4.2-1.6,5-3.9c0.7-1.9,1.2-3.9,1.2-6
			c0.1-2.2-0.2-4.4-0.9-6.5l-19.6-2.6c-2.2,1-4.2,2.4-5.9,4c-3.9,3.8-6.5,8.8-5.7,9.9c0.3,0.4,2.1,0.9,6.7-0.4L749.4,149.8z"/>
	</g>
	<g>
		<path class="st14" d="M776.9,152.5c-0.6,0-1.2-0.1-1.7-0.4c-5.7-2.5-11.8-4.2-18-4.8c-5.8-0.6-11.6-0.4-17.3,0.7
			c-1.2,0.2-2.4-0.1-3.3-0.8c-0.9-0.8-1.5-1.9-1.5-3.1c-0.1-2.8,1.4-4.8,2.7-6.1c0.9-0.8,2-1.4,3.3-1.7c6.3-1.3,12.7-1.6,19.1-1
			c6.1,0.6,12.1,2.2,17.8,4.6c3.2,1.3,4.9,4.8,3.9,8c-0.1,0.2-0.1,0.4-0.2,0.6c-0.4,1-1,1.9-1.8,2.7l0,0
			C779,152.1,778,152.5,776.9,152.5z M751,144c2.2,0,4.3,0.1,6.5,0.3c6.5,0.7,12.9,2.4,18.9,5.1c0.4,0.2,0.9,0.1,1.3-0.2
			c0.5-0.5,0.9-1,1.1-1.6c0.1-0.1,0.1-0.3,0.1-0.4c0.5-1.7-0.5-3.6-2.2-4.3c-5.4-2.3-11.1-3.7-16.9-4.3c-6.1-0.6-12.2-0.3-18.2,0.9
			c-0.7,0.1-1.3,0.5-1.8,0.9c-0.8,0.8-1.8,2.1-1.8,3.8c0,0.5,0.3,0.7,0.4,0.9c0.1,0.1,0.4,0.3,0.9,0.2
			C743.2,144.4,747.1,144,751,144z"/>
	</g>
	<g>
		<path class="st14" d="M824.7,135.4c-1.1,0-2.2-0.2-3.3-0.6c-2.2-0.8-4.3-2-6.2-3.5c-2.3-1.9-4.1-4.1-5.5-6.7l-0.4-0.8l12.5-18.6
			l0.4-0.2c2.7-1.2,5.5-1.9,8.3-2.2c3.4-0.3,13.4,0,14.4,4.7c0.5,2.2-1.2,4.5-4.8,7.1c1.3,2.6,1.4,5.6,0.2,8.2
			c-1.4,2.9-4.2,4.9-7.3,5.3c-0.1,1.4-0.7,3.2-2.1,4.8C829.2,134.5,827,135.4,824.7,135.4z M812.8,123.9c1.1,1.9,2.6,3.6,4.3,5
			c1.6,1.3,3.4,2.3,5.3,3c2.3,0.9,4.8,0.4,6.3-1.2c1.4-1.5,1.4-3.5,1.4-4.1l-0.1-1.7l1.7,0.1c2.6,0.1,5-1.3,6-3.6
			c1-2.1,0.7-4.6-0.7-6.5l-1-1.3l1.4-0.9c4-2.5,4.8-4.2,4.7-4.7c-0.3-1.4-5.8-2.8-11.2-2.3c-2.4,0.2-4.7,0.8-6.9,1.8L812.8,123.9z"
			/>
	</g>
	<path class="st31" d="M816.8,136c1.1-0.1,2-0.8,2.3-1.9c1.4-4.5,3.9-10.7,8.5-17.1c4.2-5.9,8.7-10,12.3-12.8c1.3-1,1.3-2.8,0.2-3.9
		l0,0c-1.6-1.5-3.7-1.7-5.2-1.5c-1,0.1-1.9,0.5-2.6,1c-3.7,2.8-8.6,7.1-13,13.4c-4.2,5.9-6.7,11.6-8.1,16c-0.8,2.5,0.2,5.3,2.6,6.4
		c0.2,0.1,0.3,0.1,0.5,0.2C815.1,136,816,136.1,816.8,136z"/>
	<g>
		<path class="st14" d="M816.3,137.5c-0.9,0-1.8-0.1-2.6-0.4c-0.2-0.1-0.4-0.2-0.6-0.3c-3-1.4-4.5-4.9-3.4-8.2
			c2-5.8,4.8-11.3,8.3-16.4c3.7-5.2,8.2-9.9,13.4-13.7c1-0.8,2.2-1.2,3.4-1.3c1.8-0.2,4.3,0.1,6.3,1.9c0.9,0.9,1.4,2,1.3,3.2
			c-0.1,1.2-0.6,2.3-1.6,3c-4.6,3.6-8.6,7.8-12,12.5c-3.6,5.1-6.4,10.7-8.3,16.7c-0.5,1.6-1.9,2.8-3.7,2.9l0,0
			C816.7,137.5,816.5,137.5,816.3,137.5z M835.7,100.2c-0.2,0-0.5,0-0.7,0c-0.7,0.1-1.3,0.3-1.9,0.7c-4.9,3.7-9.2,8.1-12.7,13.1
			c-3.4,4.8-6.1,10-7.9,15.6c-0.6,1.8,0.2,3.8,1.8,4.5c0.1,0.1,0.2,0.1,0.4,0.2c0.6,0.2,1.3,0.3,2,0.3h0c0.5,0,0.9-0.4,1-0.8
			c2-6.3,4.9-12.2,8.7-17.5c3.5-5,7.8-9.4,12.6-13.2c0.3-0.3,0.4-0.6,0.4-0.8c0-0.2,0-0.6-0.3-0.9
			C838.1,100.4,836.8,100.2,835.7,100.2z"/>
	</g>
	<g>
		<path class="st14" d="M881.3,97.2c-1.2-4.1-4.3-11.7-11.9-16.6c-9.3-6-21.7-5.9-32.3,0.3l-1.5-2.6c11.6-6.8,25.2-6.9,35.5-0.3
			c8.5,5.5,11.9,13.8,13.2,18.3L881.3,97.2z"/>
	</g>
	<g>
		<path class="st14" d="M735.4,183.6c-6.5,0-13-0.6-19.4-2c-10.8-2.3-22.3-8.9-22.3-20.3c-0.1-13.4,16.2-25.4,45.9-33.7l0.8,2.9
			c-28.2,7.9-43.8,18.9-43.7,30.8c0,9.7,10.3,15.3,19.9,17.4c42.2,9.1,89.1-16.4,103.5-27.1l1.8,2.4
			C809.3,163.3,772.7,183.6,735.4,183.6z"/>
	</g>
	<path class="st14" d="M902.5,102.1c1.1-1.5,2.2-3,3.2-4.6c0.9-1.6,1.8-3.3,1.9-4.8c0-0.8-0.2-1.4-0.6-1.9c-0.2-0.2-0.6-0.7-0.8-0.8
		c-0.2-0.1-0.5-0.3-0.9-0.3c-1.5-0.3-3.3,0.1-5,0.5c-3.4,1-6.9,2.4-10.2,4c-3.3,1.6-6.5,3.5-9.6,5.5c-6.2,4-12,8.6-17.1,14
		c-5,5.4-9.4,11.4-13.1,17.8l0,0l-3.3,5.8l0.8-6.7c0.2-1.3,0.2-2.7,0.2-4c0-0.6-0.1-1.2-0.3-1.8c-0.1-0.5-0.4-0.9-0.5-0.9
		c-0.1,0-0.3-0.1-0.8,0c-0.5,0.1-1,0.4-1.5,0.7c-1.1,0.6-2.1,1.4-3.1,2.3c-2,1.8-3.9,3.8-5.7,5.8c-1.8,2.1-3.5,4.2-5.2,6.4
		c-1.6,2.2-3.2,4.5-4.6,6.8c-1.4,2.3-2.6,4.8-3.9,7.3c-2.7,4.9-5.2,9.9-7.7,14.9c0.7-2.7,1.5-5.4,2.4-8.1c0.9-2.7,1.8-5.3,2.9-8
		c1.1-2.6,2.3-5.2,3.8-7.7c1.5-2.5,3-4.8,4.7-7.1c3.4-4.6,6.9-9,11.4-12.8c1.1-0.9,2.3-1.9,3.7-2.6c0.7-0.4,1.4-0.7,2.3-1
		c0.5-0.1,1-0.2,1.5-0.1c0.6,0.1,1.2,0.3,1.7,0.6c1,0.8,1.4,1.8,1.6,2.6c0.2,0.8,0.3,1.6,0.3,2.4c0,1.5-0.1,3-0.3,4.4l-2.6-0.9l0,0
		c3.7-6.6,8.2-12.9,13.4-18.4c5.2-5.5,11.2-10.3,17.6-14.4c3.2-2,6.5-3.9,9.9-5.6c3.4-1.6,6.9-3.2,10.7-4.1c1-0.2,1.9-0.4,2.9-0.5
		c1-0.1,2.1-0.1,3.2,0.2c0.6,0.2,1.1,0.4,1.6,0.8c0.6,0.5,0.7,0.8,1.1,1.3c0.3,0.5,0.6,1,0.7,1.6c0.1,0.6,0.1,1.2,0,1.7
		c-0.4,2.2-1.6,3.7-2.8,5.2C905.3,99.6,903.9,100.9,902.5,102.1z"/>
	<path class="st14" d="M828,164.8c1-1.6,1.9-3.1,3-4.6c0.5-0.7,1.1-1.5,1.6-2.2l1.6-2.3c1-1.5,2.4-2.8,3.6-4.1
		c1.3-1.3,2.6-2.6,4-3.8c1.4-1.2,2.8-2.4,4.4-3.5c1.6-1.1,3.2-2.1,5.1-2.8c1-0.3,2.1-0.6,3.4-0.4c0.6,0.1,1.3,0.3,1.9,0.7
		c0.6,0.4,1.1,1,1.4,1.5c0.6,1.1,0.7,2.3,0.7,3.3c0,1-0.1,2-0.3,3l0,0l-2.5-1.2c2.1-2.5,4.3-5,6.7-7.3c2.4-2.3,4.8-4.5,7.4-6.5
		c2.6-2,5.3-3.9,8.1-5.6c2.8-1.7,5.8-3.2,9-4c-2.7,1.9-5.4,3.7-7.9,5.7c-2.6,1.9-5.1,3.9-7.5,6c-2.4,2.1-4.8,4.3-7,6.6
		c-1.1,1.1-2.2,2.3-3.3,3.5c-1.1,1.2-2.2,2.4-3.2,3.6l-3.5,3.8l1-5.1l0,0c0.2-0.8,0.3-1.6,0.3-2.4c0-0.8-0.1-1.5-0.4-2
		c-0.1-0.2-0.3-0.4-0.4-0.5c-0.2-0.1-0.4-0.2-0.7-0.2c-0.5-0.1-1.3,0.1-2,0.3c-1.5,0.5-2.9,1.5-4.3,2.5c-1.4,1-2.8,2.2-4.1,3.3
		c-1.3,1.2-2.6,2.4-3.9,3.7c-1.3,1.2-2.5,2.6-3.9,3.7c-0.7,0.6-1.4,1.2-2.1,1.8l-2,1.9C830.7,162.3,829.4,163.5,828,164.8z"/>
	<path class="st14" d="M644.4,165c0.6-2.5,1.7-4.8,3.3-6.9c1.5-2.1,3.5-3.9,5.6-5.4c2.2-1.5,4.6-2.6,7.2-3.2
		c2.5-0.7,5.2-0.9,7.8-0.7l0,0l-1.1,0.6c1.6-3.2,3.7-6.1,6.3-8.5c1.3-1.2,2.7-2.3,4.2-3.3c1.5-1,3.1-1.9,4.8-2.5
		c3.3-1.4,6.7-2,10.2-2.5c1.7-0.2,3.4-0.4,5.2-0.4c1.7-0.1,3.5-0.1,5.2,0.2c-3.4,0.6-6.7,1.4-9.9,2.3c-3.2,0.9-6.4,1.9-9.4,3.2
		c-0.8,0.3-1.5,0.7-2.2,1.1c-0.7,0.4-1.4,0.8-2,1.2c-1.4,0.9-2.6,1.9-3.8,3c-2.4,2.2-4.5,4.7-6.2,7.5l-0.4,0.6l-0.7,0l0,0
		c-2.4,0.1-4.7,0.5-7,1.1c-2.3,0.6-4.4,1.5-6.5,2.7c-2,1.2-3.9,2.7-5.6,4.3C647.4,161,645.9,162.9,644.4,165z"/>
	<g>
		<path class="st14" d="M645.5,161.5c-5-4.5-7.8-11-7.8-17.7c0-13.3,10.8-24.1,24.1-24.1c10,0,19,6.3,22.5,15.6l-2.8,1.1
			c-3.1-8.2-11-13.6-19.7-13.6c-11.6,0-21.1,9.5-21.1,21.1c0,5.9,2.5,11.5,6.8,15.5L645.5,161.5z"/>
	</g>
	<g>
		<path class="st14" d="M653.1,156c-0.3,0-0.7-0.1-0.9-0.3c-3.6-2.9-5.7-7.3-5.7-11.9c0-6.2,3.7-11.7,9.3-14.1c0.8-0.3,1.6,0,2,0.8
			c0.3,0.8,0,1.6-0.8,2c-4.6,1.9-7.5,6.4-7.5,11.3c0,3.7,1.7,7.2,4.6,9.6c0.6,0.5,0.7,1.5,0.2,2.1C654,155.8,653.6,156,653.1,156z"
			/>
	</g>
	<g>
		<path class="st14" d="M675.2,142.2c-0.7,0-1.3-0.5-1.5-1.2c-0.6-2.6-2-5-4.1-6.7c-0.6-0.5-0.7-1.5-0.2-2.1
			c0.5-0.6,1.5-0.7,2.1-0.2c2.5,2.1,4.4,5.1,5.1,8.3c0.2,0.8-0.3,1.6-1.1,1.8C675.4,142.2,675.3,142.2,675.2,142.2z"/>
	</g>
	<path class="st33" d="M818,68.1c2.5,7.9,5.4,10.8,7.8,11.9c3.2,1.5,6,3.9,9.3,4.9c0,0,0.1,0,0.1,0.1c0.7,0.8-5.6,7.1-12.7,13.9
		c1.1,2.1,3.5,7.5,2.2,14.1c-0.5,2.4-1.3,4.4-2.2,5.8c-5.3,3.9-10,5.9-13.3,7c-4.3,1.4-6.9,1.6-14.3,3.6c-4.2,1.1-7.5,2.2-9.7,3
		c-2.2,1.1-5.1,2.7-8.5,4.7c-7.7,4.5-10,6.4-14.5,7.5c-3.1,0.7-6.2,0.8-9.1,0.4c-6.6-4.7-10-9.7-11.8-12.9c-3.8-6.8-4.5-13.2-5.7-25
		c-0.7-6.9-0.9-12.7-0.9-16.6c3.8,2.1,22.7,12,46.4,5.6C804.4,89.5,815.6,71.9,818,68.1z"/>
	<path class="st33" d="M728.1,79.6l-2.5-0.5c0.3,1.9,0.6,6.2-1.4,11c-2.3,5.6-6.4,8.5-8,9.5c1.7,2,4.2,4.6,7.5,6.9
		c3.8,2.7,7.4,4.3,10.1,5.3c0.7,0,1.4,0,2.1,0V89.8c-1.4-0.3-3.3-0.9-5.3-2c-1.6-0.9-2.8-1.8-3.7-2.7c-0.1-0.6-0.2-1.4,0-2.4
		C727.1,81.3,727.7,80.2,728.1,79.6z"/>
	<path class="st34" d="M725.5,78.3l-5.9-2.2c0.3,1.2,1.4,6.6-1.8,11.8c-2.1,3.5-5.2,5.3-6.5,5.9c1.4,1.8,2.8,3.6,4.2,5.4
		c1.6-0.8,5.4-2.9,8-7.4C726.9,85.9,725.8,79.8,725.5,78.3z"/>
	<path class="st34" d="M824.4,63.6c0.3,1.7,1.3,5.2,4,8.5c3.5,4.2,7.8,5.7,9.5,6.1c-1.1,2.2-2.2,4.4-3.3,6.6
		c-1.6-0.3-6.6-1.4-10.7-5.9c-4.2-4.7-4.8-10-4.9-11.5C820.8,66.1,822.6,64.8,824.4,63.6z"/>
	<path class="st34" d="M720.2,76.4c-1.5-0.9-4.9-2.8-9.5-2.8c-2.7,0-4.8,0.7-6.2,1.2c-0.5,1.5-1.3,4.3-0.8,7.7
		c1.1,6.7,6.4,10.3,7.4,11c1.5-0.8,4.4-2.8,6.6-6.4C720.5,82.5,720.4,78.1,720.2,76.4z"/>
	<path class="st34" d="M840.9,57.6c-1.9,0-5.4,0.2-9.3,2.1c-2.7,1.3-4.6,3-5.8,4.3c0.9,2.7,1.7,5.4,2.6,8.1l8.4,6.3l3.4-4.7
		c0.7-1.4,1.3-3.2,1.8-5.4c0.6-3,0.6-5.6,0.4-7.5C841.9,59.7,841.4,58.7,840.9,57.6z"/>
	<path class="st35" d="M758.6,113.2c-0.2,1.3-1.6,9.2,3.6,15.6c2.6,3.2,5.7,4.7,7.5,5.4c1.1-1.1,2.2-2.2,3.3-3.4
		c-1.4-1.3-3.7-4-5.3-8c-1.6-4.3-1.5-8-1.3-9.9C763.8,113,761.2,113.1,758.6,113.2z"/>
	<path class="st35" d="M760.2,96.9c-0.5,0.2-9.8,10.6-9.8,10.6h19.3l-1.9-10.6H760.2z"/>
	<polygon class="st36" points="750.6,108 750.4,112.4 769.2,113.6 769.2,109.1 	"/>
	<polyline class="st36" points="771,126.5 764.2,132.2 769.7,135.1 773.9,130.8 771,126.5 	"/>
	<path class="st37" d="M721.7,76.9c-5.3,1.6-7.1,4.3-7.7,5.5c-3.3,6.3,1.3,17.5,13.3,25.6c-2.6-0.8-12.8-4.5-18.8-15.3
		c-4.2-7.5-4.3-14.7-4.1-17.9c1.5-0.6,3.6-1.2,6.2-1.2C716.1,73.5,720.1,75.8,721.7,76.9"/>
	<g>
		<linearGradient id="SVGID_9_" gradientUnits="userSpaceOnUse" x1="748.6745" y1="43.6604" x2="746.1404" y2="71.2532">
			<stop  offset="0" style="stop-color:#F8D6D2"/>
			<stop  offset="1" style="stop-color:#FBE493"/>
		</linearGradient>
		<path class="st38" d="M753.1,67.7C753.1,67.8,753.1,67.8,753.1,67.7l-2.7,4.2c-2.7,0.5-6.5,1-11.1,1.3l9.8-14.7
			C749.4,60.6,750.4,64.2,753.1,67.7z"/>
		<linearGradient id="SVGID_10_" gradientUnits="userSpaceOnUse" x1="759.2004" y1="44.627" x2="756.6663" y2="72.2199">
			<stop  offset="0" style="stop-color:#F8D6D2"/>
			<stop  offset="1" style="stop-color:#FBE493"/>
		</linearGradient>
		<path class="st39" d="M767.7,46l-10.1,15.1l-8.3-3l7.9-11.9C760.6,46,764,45.9,767.7,46z"/>
		<path class="st23" d="M770.8,69.3c-0.4-2.2-1.6-3.6-2.2-4.3l-3-1.1l-8-2.8l-8.3-3l-0.2,0.4c0.4,2.1,1.3,5.7,4,9.2c0,0,0,0,0.1,0.1
			c3.9,5.2,9.2,6.9,11,7.5c0.4,0.1,2.1,0.5,3.9-0.4c2.1-1.1,2.7-3.1,2.8-3.4C771,70.9,771,70.1,770.8,69.3z"/>
		<path class="st24" d="M770.8,69.3c-0.4-2.2-1.6-3.6-2.2-4.3l-2.8-1c0.3,0.6,0.5,1.3,0.7,2c0.1,0.8,0.1,1.6,0,2.2
			c-0.1,0.3-0.7,2.4-2.8,3.4c-1.8,0.9-3.5,0.5-3.9,0.4c-0.9-0.3-2.6-0.8-4.6-1.9c3.5,3.4,7.4,4.7,9,5.1c0.4,0.1,2.1,0.5,3.9-0.4
			c2.1-1.1,2.7-3.1,2.8-3.4C771,70.9,771,70.1,770.8,69.3z"/>
		<linearGradient id="SVGID_11_" gradientUnits="userSpaceOnUse" x1="784.6591" y1="46.9651" x2="782.1251" y2="74.5579">
			<stop  offset="0" style="stop-color:#F8D6D2"/>
			<stop  offset="1" style="stop-color:#FBE493"/>
		</linearGradient>
		<path class="st40" d="M797.5,66.8c-3.4,4.4-8,5.9-9.7,6.4c-2.7,0.3-6.6,0.4-10.8-1c-3.4-1.1-3.5-2.1-6.2-3
			c-0.4-2.2-1.6-3.6-2.2-4.3l-3-1.1l11.6-17.4c9.2,0.8,17.2,2.4,23.5,4.2C801,51.8,802.9,59.9,797.5,66.8z"/>
	</g>
	<path class="st41" d="M756,64.3l8.4,1.2l3.2,0.4c0.7,0.5,2.3,1.7,3.1,3.7c0.1,0.3,0.2,0.7,0.3,1c0-0.4,0-0.9-0.1-1.4
		c-0.4-2.2-1.6-3.6-2.2-4.3l-3-1.1l-8-2.8l-8.3-3l-0.2,0.4c0.2,1.3,0.6,3.1,1.5,5.1L756,64.3z"/>
	<g>
		<path class="st14" d="M818.6,43.2l-2.7-1.3c1.3-2.8,2.8-7.3,2.5-12.9c-0.3-5.1-0.8-8.1-1.8-10.1l-0.9-1.9l2.1-0.3
			c2.6-0.4,3.5-0.7,3.9-1.8c0.6-2-0.7-4.7-3.3-6.4c-9.1-6.3-23.3-1.4-26.4,1.3l-0.6,0.5l-0.7-0.2c-3.3-0.7-11.4-1-21.2,1.9
			c-11.2,3.4-18.9,11.7-21.7,15.1l-2.3-1.9c3-3.6,11.2-12.5,23.2-16.1c8.7-2.6,17.1-2.9,22-2.1c4.8-3.6,19.5-7.9,29.5-1
			c3.7,2.5,5.4,6.4,4.4,9.7c-0.7,2.3-2.5,3.1-4.4,3.5c0.7,2.2,1.1,5.1,1.4,9.5C821.6,35.1,820,40.1,818.6,43.2z"/>
	</g>
	<g>
		<path class="st14" d="M816,53.5l-0.4-0.2c-4.3-1.7-8.8-3.1-13.2-4.3c-7.7-2.1-28.6-6.7-56.1-4c-4.5,0.4-9,1-13.4,1.8l-0.9,0.2
			l-0.5-0.8c-0.5-0.7-2.7-4.2-1.3-8.6c1-3.1,3.2-4.7,4.5-5.5c0.1-2,0.9-6,4.4-9.1c5.1-4.4,11.3-2.8,12-2.6c0.8,0.2,1.3,1,1,1.8
			c-0.2,0.8-1.1,1.3-1.8,1c-0.2-0.1-5.3-1.4-9.2,2c-3.3,2.9-3.4,6.9-3.4,7.7l0,1l-0.9,0.4c-0.7,0.3-2.9,1.5-3.7,4.2
			c-0.7,2.2,0,4.2,0.5,5.2c4.1-0.7,8.4-1.3,12.6-1.7c28-2.7,49.3,2,57.1,4.1c4.4,1.2,8.8,2.6,13.1,4.2c1.2-0.4,2.1-1.4,2.3-2.5
			c0.3-1.5-0.5-3.2-2-3.9l-0.1-0.1c-10.7-6.8-22.3-11.6-34.7-14.3c-17.1-3.7-32.4-2.3-38.2-1.6c-0.8,0.1-1.6-0.5-1.7-1.3
			c-0.1-0.8,0.5-1.6,1.3-1.7c6-0.8,21.7-2.2,39.2,1.6c12.7,2.8,24.6,7.7,35.6,14.6c2.7,1.4,4.1,4.3,3.5,7.2c-0.5,2.4-2.5,4.3-5,4.9
			L816,53.5z"/>
	</g>
	<g>
		<path class="st14" d="M745.6,74.6c-2.7,0-5.7-0.6-8.4-2.3c-9.2-5.8-9.8-19.1-4.7-28l2.6,1.5c-4.5,7.6-4.1,19.1,3.7,23.9
			c6.7,4.2,15.2,0,15.6-0.2l1.4,2.7C755.4,72.4,751,74.6,745.6,74.6z"/>
	</g>
	<g>
		<path class="st14" d="M764.6,77.2c-0.4,0-0.6,0-0.6,0l-0.5-0.1c-2.2-0.7-5.9-1.9-9.7-6c-4.9-5.2-6.2-12.5-6.2-12.8l-0.5-2.7l2.5,1
			c3.4,1.4,6.6,2.4,9.8,3.5c3.2,1.1,6.5,2.2,10,3.6l0.3,0.1l0.2,0.2c2.9,2.9,3.5,7.3,1.2,10.3C769.1,76.9,766,77.2,764.6,77.2z
			 M764.5,74.2c0.6,0,2.9,0,4.1-1.7c1.3-1.7,1-4.4-0.7-6.2c-3.3-1.3-6.4-2.4-9.5-3.4c-2.3-0.8-4.7-1.6-7.2-2.5
			c0.8,2.4,2.2,5.8,4.8,8.5C759.3,72.5,762.4,73.6,764.5,74.2L764.5,74.2z"/>
	</g>
	<g>
		<path class="st14" d="M785.7,74.8c-6,0-12-2.3-16.7-6.8l2.1-2.2c7.2,6.9,18.2,8,25.7,2.4c5.7-4.3,8.4-12,6.9-19.7l2.9-0.6
			c1.8,8.8-1.4,17.6-8,22.6C794.8,73.4,790.3,74.7,785.7,74.8z"/>
	</g>
	<g>
		<path class="st14" d="M816.8,61.6l-11.1-3.2l0.8-2.9l9.2,2.6c0.3-0.5,0.7-1.3,0.7-2.3c0.1-1.6-0.7-2.7-1.1-3.1l2.3-1.9
			c0.6,0.7,1.8,2.5,1.7,5.2c-0.1,2.6-1.5,4.3-2,5L816.8,61.6z"/>
	</g>
	<g>
		<path class="st14" d="M751.5,42.9c-0.1-2.9,0.2-5.8,1-8.6c1-3.4,2.6-6.6,4.8-9.5l2.4,1.8c-2,2.5-3.4,5.4-4.2,8.4
			c-0.7,2.5-1,5.1-0.9,7.7L751.5,42.9z"/>
	</g>
	<g>
		<path class="st14" d="M786.6,43.7l-3-0.1c0.2-4.8,1.7-9.5,4.3-13.6l2.5,1.6C788.2,35.2,786.8,39.4,786.6,43.7z"/>
	</g>
	<g>
		<path class="st14" d="M810.8,50.4l-2.5-1.6c0.8-1.3,1.4-2.6,1.8-4.1c0.4-1.7,0.5-3.4,0.3-5.1l3-0.4c0.2,2.1,0.1,4.2-0.4,6.2
			C812.5,47.2,811.8,48.9,810.8,50.4z"/>
	</g>
	<g>
		<rect x="795.7" y="69.7" class="st14" width="3" height="6"/>
	</g>
	<g>
		<rect x="813.7" y="59.8" class="st14" width="3" height="7.5"/>
	</g>
	<g>
		<path class="st14" d="M764.4,99.3c-12.6,0-25.2-4-37.4-11.8l-0.2-0.1c-0.3-0.2-2.6-2.4-2.1-5.5c0.2-1.3,0.8-2.3,1.3-2.9
			c-0.5-1.5-0.8-3-0.8-4.6c0-1.1,0.2-2.2,0.5-3.3l0-0.1c0.6-1.5,1.4-2.9,2.6-4.1c1.1-1.1,2.4-2.1,3.9-2.7c0.8-0.3,1.6,0,2,0.8
			c0.3,0.8,0,1.6-0.8,2c-1.1,0.5-2.1,1.2-2.9,2c-0.8,0.9-1.5,1.9-1.9,3c-0.2,0.8-0.4,1.6-0.4,2.5c0,1.4,0.3,2.9,0.9,4.2l0.5,1
			l-0.9,0.7c-0.3,0.2-0.9,0.9-1.1,1.9c-0.2,1.4,0.8,2.5,1,2.8c12.3,7.9,24.9,11.6,37.6,11.2c29.1-1,46.5-22.8,49.8-27.4
			c0-0.1,0-0.2,0-0.2c0,0-0.2-0.1-0.3,0C802.9,76.1,788,80.5,773,81.4c-1.2,0.1-2.4,0.2-3.7,0.3c-8.7,0.8-20.6,1.8-37.3-6.6
			c-0.7-0.4-1-1.3-0.7-2c0.4-0.7,1.3-1,2-0.7c16,8.1,27.4,7.1,35.7,6.3c1.3-0.1,2.6-0.2,3.8-0.3c14.5-0.9,29-5.1,41.7-12.4
			c1.5-0.8,3.3-0.4,4.2,0.9c0.7,1,0.7,2.4,0,3.5l-0.1,0.1c-3.3,4.6-21.6,27.6-52.2,28.7C765.8,99.3,765.1,99.3,764.4,99.3z"/>
	</g>
	<g>
		<rect x="733.2" y="68.1" class="st14" width="3" height="6.3"/>
	</g>
	<path d="M728.6,77.2c0.3,0.6,1,1.4,1.7,2.1c0.8,0.7,1.5,1.3,2.4,1.9c1.7,1.2,3.5,2.2,5.4,3.2c-2-0.6-4-1.2-6-2
		c-1-0.4-2-0.9-2.9-1.4c-1-0.5-2-1-2.9-2L728.6,77.2z"/>
	<g>
		<path class="st14" d="M735.5,114.3c-4-1.4-17.4-7.9-26.3-19.8c-3.2-4.2-5.6-8.5-7-12.5c-1.3-3.7-1.1-6.5,0.6-8.4
			c1.7-1.9,4.7-2.4,8.2-1.5c1.2,0.3,2.5,0.6,3.8,1c4.6,1.3,9.2,2.9,13.6,4.8l-1.2,2.8c-4.3-1.8-8.8-3.4-13.3-4.6
			c-1.3-0.4-2.5-0.7-3.7-1c-2.3-0.6-4.4-0.3-5.2,0.6c-1.1,1.2-0.6,3.6,0,5.4c1.3,3.7,3.5,7.7,6.5,11.7c8.5,11.2,21.2,17.4,24.9,18.7
			L735.5,114.3z"/>
	</g>
	<path class="st42" d="M834.6,84.8c2.7-3.4,9.4-12.8,7.3-23.5c-0.2-1.2-0.6-2.4-1.1-3.7c-3.8,11.2-9.2,18.1-13.6,22.4L834.6,84.8z"
		/>
	<path class="st24" d="M833.7,85.7l-11.3,13.2c0,0,1.7,10.9,2.2,14.1s-2.2,5.8-2.2,5.8l-7.1,4.9l-34.7,9.5L759.3,146l-13.5-6.4
		c4,0.7,10,1.1,15.8-1.7c2.7-1.3,4.6-3,6.2-4.8c0.7-0.8,3.3,0.6,3.9-0.3c0.8-1.1-0.3-4.3,0.6-5.5c0.5-0.7,1.1-1.4,1.7-2
		c1.8-2,4.7-3.5,8.6-4.9c4.7-1.6,8.9-4,12.7-7c0.1-0.1,0.3-0.8,0.8-0.6c10.7,4.5,13.7-9.4,13.6-10.7c-0.1-2.6,1.6,1.4,0.1-3.4
		c-0.5-1.5,0-4.1,1.1-5.4c5.4-6,9.7-7.3,15.5-12.5L833.7,85.7z"/>
	<path class="st24" d="M750.8,121.3c0.1,0.7,0.4,5.5-3.1,8.9c-1.7,1.7-3.6,2.3-4.7,2.6c0.6,1.2,1.2,2.3,1.8,3.5c0.8,0,1.9-0.2,3-0.6
		c2.5-0.9,3.9-2.6,4.6-3.5C751.8,128.5,751.3,124.9,750.8,121.3z"/>
	<g>
		<path class="st14" d="M711.5,95.5l-1.5-2.6c1.7-1,5-3.2,6.8-7.4c1.7-3.8,1.4-7.3,1.1-9l3-0.5c0.3,2.1,0.6,6.3-1.4,10.7
			C717.4,91.6,713.6,94.3,711.5,95.5z"/>
	</g>
	<g>
		<path class="st14" d="M717,100.6l-1.6-2.5c2-1.3,4.9-3.7,7-7.6c2.3-4.3,2.5-8.5,2.3-11.2l3-0.2c0.3,3.1,0,7.9-2.6,12.8
			C722.6,96.3,719.3,99.1,717,100.6z"/>
	</g>
	<g>
		<path class="st14" d="M838.3,79.9c-2.3-0.4-6.8-1.8-10.5-5.9c-3.3-3.6-4.3-7.7-4.6-9.8l3-0.5c0.3,1.8,1.1,5.2,3.9,8.2
			c3.1,3.4,6.8,4.6,8.8,4.9L838.3,79.9z"/>
	</g>
	<g>
		<path class="st14" d="M834.7,86.4c-2.7-0.7-6.7-2.3-10.3-5.8c-4-3.9-5.7-8.4-6.4-11.4l2.9-0.7c0.6,2.6,2.1,6.5,5.6,9.9
			c3.1,3,6.6,4.4,9,5L834.7,86.4z"/>
	</g>
	<g>
		<path class="st14" d="M758.6,146.4c-1.2,0-2.5-0.1-3.8-0.5c-4-1-6.6-3.1-7.6-3.9c-6.5-5.2-10.7-14.9-12.6-28.8
			c-1.4-10-1.1-19.4-0.9-22.9l3,0.2c-0.3,6.3-1.2,38.2,12.4,49.2c1.4,1.2,3.5,2.6,6.5,3.3c6,1.5,10.8-1.6,17-5.5
			c2.8-1.8,6.1-3.8,9.7-5.6c5.7-2.8,12.4-4.3,18.8-5.7c9.5-2.2,18.4-4.2,21-9.7c1.9-4.1,1.2-9.7-2.1-16.5l2.7-1.3
			c3.7,7.7,4.4,14.1,2.1,19.1c-3.2,6.9-12.9,9.1-23.1,11.4c-6.3,1.4-12.8,2.9-18.2,5.5c-3.5,1.7-6.5,3.6-9.4,5.4
			C768.8,143.4,764.1,146.4,758.6,146.4z"/>
	</g>
	<g>
		<path class="st14" d="M818.1,103.1c-0.5,0-1-0.2-1.2-0.7c-0.5-0.7-0.3-1.6,0.4-2.1c7.9-5.4,14.1-12.1,18.2-20
			c4.4-8.3,7.5-18.6,5-20.7c-2.2-1.8-10.4,1.2-21.8,10.7c-0.6,0.5-1.6,0.4-2.1-0.2c-0.5-0.6-0.4-1.6,0.2-2.1
			c4.5-3.7,19.7-15.5,25.6-10.7c5.9,4.8-3.2,22.5-4.2,24.4c-4.4,8.4-10.9,15.5-19.2,21.1C818.7,103,818.4,103.1,818.1,103.1z"/>
	</g>
	<g>
		<path class="st14" d="M744.8,138.5l-0.2-3c1.2-0.1,4.1-0.6,5.8-2.8c2.2-3,1.9-6.3-1-9.6l-10.4,3.1l-0.9-2.9l12.2-3.7l0.6,0.7
			c4.5,4.6,5.2,9.8,1.9,14.2C750.3,137.7,746.3,138.4,744.8,138.5z"/>
	</g>
	<g>
		<g>
			<g>
				<path class="st43" d="M792,110.1"/>
			</g>
		</g>
	</g>
	<g>
		<path class="st14" d="M805.5,120.7c-1.4,0-2.9-0.2-4.3-0.7c-4.1-1.4-7.4-4.6-9-8.7l-0.5-1.2l20.4-11.3l0.8,1
			c2.6,3.5,3.6,7.8,2.8,12c-0.7,3.4-2.5,6.2-5.1,7.7C809.1,120.3,807.3,120.7,805.5,120.7z M795.5,111.3c1.4,2.7,3.8,4.8,6.6,5.8
			c2.5,0.9,5.1,0.8,7-0.3c1.8-1,3.1-3.2,3.7-5.7c0.6-2.9,0-5.9-1.5-8.5L795.5,111.3z"/>
	</g>
	<g>
		<path class="st14" d="M770.9,110l-22.6-1.2l9.9-12.5h11.1L770.9,110z M754.2,106.1l13.2,0.7l-0.9-7.5h-7L754.2,106.1z"/>
	</g>
	<g>
		<polygon class="st14" points="771.3,115.1 748.3,114.5 748.3,108.7 751.3,108.7 751.3,111.6 768.1,112 767.9,109.5 770.9,109.3 		
			"/>
	</g>
	<g>
		<path class="st14" d="M762.9,101.2c-1.9,0-3.5-1.5-3.5-3.5h3c0,0.2,0.2,0.5,0.5,0.5s0.5-0.2,0.5-0.5h3
			C766.4,99.7,764.8,101.2,762.9,101.2z"/>
	</g>
	<g>
		<path class="st14" d="M769,135.7c-2,0-3.5-0.9-3.8-1.1l-0.3-0.2c-2.3-2.5-4.2-5.3-5.6-8.4c-1.8-4-2.7-8.3-2.8-12.7l3,0
			c0,4,0.9,7.9,2.5,11.5c1.2,2.7,2.9,5.2,4.9,7.5c0.4,0.2,1.7,0.8,3.1,0.4c0.7-0.2,1.1-0.7,1.3-1.4c0.2-0.7,0.1-1.4-0.4-2
			c-1.5-1.9-2.8-4.1-3.8-6.3c-1.3-2.9-2.2-6-2.5-9.2l3-0.3c0.3,2.9,1.1,5.7,2.3,8.4c0.9,2,2.1,3.9,3.4,5.7c1,1.3,1.4,3.1,0.9,4.7
			c-0.5,1.6-1.6,2.8-3.2,3.3l-0.1,0C770.3,135.6,769.6,135.7,769,135.7z"/>
	</g>
	<g>
		
			<rect x="763.6" y="127.9" transform="matrix(0.9374 -0.3483 0.3483 0.9374 3.0075 275.4843)" class="st14" width="8.3" height="3"/>
	</g>
	<g>
		
			<rect x="760.6" y="122.2" transform="matrix(0.9374 -0.3483 0.3483 0.9374 4.7827 274.0912)" class="st14" width="8.3" height="3"/>
	</g>
	<g>
		
			<rect x="758.3" y="115.9" transform="matrix(0.9374 -0.3483 0.3483 0.9374 6.8587 272.8722)" class="st14" width="8.3" height="3"/>
	</g>
</g>
<polygon points="195.4,92.5 198.1,96.8 203.1,94.7 198.6,91.2 "/>
</svg>
