<svg style="white-space:pre" shape-rendering="geometricPrecision" text-rendering="geometricPrecision" viewBox="0 0 930 200" xmlns:xlink="http://www.w3.org/1999/xlink" xmlns="http://www.w3.org/2000/svg">
  <defs>
    <clipPath id="clip-path">
      <rect style="fill:none" rx="22.48675" height="129.08835" width="928.40935" y="32.41534" x="1.80785"></rect>
    </clipPath>
    <clipPath id="clip-path-2">
      <rect style="fill:none" rx="22.48675" height="129.08835" width="361.24037" y="32.2918" x="1.80785"></rect>
    </clipPath>
    <linearGradient gradientUnits="userSpaceOnUse" y2="178.72483" x2="58.11424" y1="-5.58389" x1="58.11424" id="linear-gradient">
      <stop stop-color="#ffcf00" offset="0"></stop>
      <stop stop-color="#ff9c00" offset="1"></stop>
    </linearGradient>
    <linearGradient xlink:href="#linear-gradient" y2="178.72483" x2="137.79558" y1="-5.58389" x1="137.79558" id="linear-gradient-2"></linearGradient>
    <clipPath id="clip-path-3">
      <path style="fill:none" d="M907.7305,161.50369h-354.949a22.48681,22.48681,0,0,1-22.48681-22.48682V54.90212a22.49469,22.49469,0,0,1,22.496-22.48681l157.27065,0a227.18282,227.18282,0,0,1,26.61255-16.81948c34.71-18.80113,76.38492-20.44908,112.06634-3.56417,20.36987,9.63928,28.81139,20.38365,28.81139,20.38365l30.17882,0s9.464.1496,15.90051,6.58618a22.41648,22.41648,0,0,1,6.58631,15.90058v84.11487A22.48676,22.48676,0,0,1,907.7305,161.50369Z"></path>
    </clipPath>
    <linearGradient gradientUnits="userSpaceOnUse" y2="213.84225" x2="773.89835" y1="10.57714" x1="761.2419" id="linear-gradient-3">
      <stop stop-color="#fff" offset="0.00414"></stop>
      <stop stop-color="#fdfdfe" offset="0.30438"></stop>
      <stop stop-color="#f4f6fb" offset="0.47934"></stop>
      <stop stop-color="#e6eaf6" offset="0.62211"></stop>
      <stop stop-color="#d2d9ee" offset="0.74756"></stop>
      <stop stop-color="#b8c3e4" offset="0.86161"></stop>
      <stop stop-color="#99a9d9" offset="0.96598"></stop>
      <stop stop-color="#8d9fd4" offset="1"></stop>
    </linearGradient>
    <radialGradient gradientUnits="userSpaceOnUse" r="62.3384" cy="66.12927" cx="776.14853" id="radial-gradient">
      <stop stop-color="#b0ffff" offset="0"></stop>
      <stop stop-color="#94ffff" offset="0.13905"></stop>
      <stop stop-color="#45fffe" offset="0.55682"></stop>
      <stop stop-color="#13fffe" offset="0.85386"></stop>
      <stop stop-color="#00fffe" offset="1"></stop>
    </radialGradient>
    <linearGradient gradientUnits="userSpaceOnUse" y2="178.36548" x2="862.98986" y1="30.45279" x1="815.31242" id="linear-gradient-4">
      <stop stop-color="#fff" offset="0.00414"></stop>
      <stop stop-color="#d1d9ee" offset="0.36048"></stop>
      <stop stop-color="#a0afdb" offset="0.78816"></stop>
      <stop stop-color="#8d9fd4" offset="1"></stop>
    </linearGradient>
    <linearGradient gradientUnits="userSpaceOnUse" y2="77.23842" x2="837.05979" y1="125.38513" x1="856.76896" id="linear-gradient-5">
      <stop stop-color="#5161be" offset="0"></stop>
      <stop stop-color="#4350aa" offset="0.40053"></stop>
      <stop stop-color="#293185" offset="0.99338"></stop>
    </linearGradient>
    <linearGradient gradientUnits="userSpaceOnUse" y2="121.43505" x2="827.98609" y1="49.63733" x1="794.76204" id="linear-gradient-6">
      <stop stop-color="#fff" offset="0.2482"></stop>
      <stop stop-color="#00fffe" offset="0.70601"></stop>
    </linearGradient>
    <linearGradient gradientUnits="userSpaceOnUse" y2="105.4878" x2="862.44837" y1="33.69008" x1="829.22433" id="linear-gradient-7">
      <stop stop-color="#fff" offset="0.3347"></stop>
      <stop stop-color="#00fffe" offset="0.82961"></stop>
    </linearGradient>
    <radialGradient xlink:href="#radial-gradient" r="12.35401" cy="96.81903" cx="813.56717" id="radial-gradient-2"></radialGradient>
    <linearGradient gradientUnits="userSpaceOnUse" y2="166.80171" x2="924.5827" y1="93.59619" x1="928.33682" id="linear-gradient-8">
      <stop stop-color="#8d9fd4" offset="0"></stop>
      <stop stop-color="#7a8bcd" offset="0.26386"></stop>
      <stop stop-color="#4a57bb" offset="0.80243"></stop>
      <stop stop-color="#3743b4" offset="0.99338"></stop>
    </linearGradient>
  </defs>
  <title>igloo_v2</title>
  <g style="isolation:isolate">
    <g id="night">
      <rect style="fill:#332452" rx="22.48675" height="129.08835" width="928.40935" y="32.41534" x="1.80785"></rect>
      <g style="opacity:0.06">
        <g style="clip-path:url(#clip-path)">
          <polyline style="fill:none;stroke:#d88dff;stroke-miterlimit:10;stroke-width:3px" points="153.538 9.903 153.538 62.836 180.005 62.836 180.005 85.361"></polyline>
          <polyline style="fill:none;stroke:#d88dff;stroke-miterlimit:10;stroke-width:3px" points="345.028 97.233 345.028 145.474 367.929 145.474 368.257 183.185"></polyline>
          <polyline style="fill:none;stroke:#d88dff;stroke-miterlimit:10;stroke-width:3px" points="520.41 9.903 520.41 62.836 480.552 62.836 480.928 85.361"></polyline>
          <polyline style="fill:none;stroke:#d88dff;stroke-miterlimit:10;stroke-width:3px" points="538.741 102.806 538.741 155.739 506.457 155.779 505.705 193.28"></polyline>
          <polyline style="fill:none;stroke:#d88dff;stroke-miterlimit:10;stroke-width:3px" points="630.543 -32.778 630.543 49.162 604.077 49.162 604.077 84.03"></polyline>
          <polyline style="fill:none;stroke:#d88dff;stroke-miterlimit:10;stroke-width:3px" points="796.171 137.642 714.23 137.642 714.23 111.176 679.362 111.176"></polyline>
          <rect style="fill:#d88dff" rx="2.49884" height="4.99768" width="4.99768" y="52.41813" x="160.15474"></rect>
          <rect style="fill:#d88dff" transform="translate(-6.76415 122.04976) rotate(-40.36088)" rx="2.49884" height="4.99768" width="4.99768" y="67.72794" x="160.15474"></rect>
          <rect style="fill:none;stroke:#d88dff;stroke-miterlimit:10" rx="2.49884" height="4.99768" width="4.99768" y="127.66496" x="276.89642"></rect>
          <rect style="fill:none;stroke:#d88dff;stroke-miterlimit:10" transform="translate(-27.7072 215.56184) rotate(-40.36088)" rx="2.49884" height="4.99768" width="4.99768" y="142.97477" x="276.89642"></rect>
          <rect style="fill:#d88dff" transform="translate(573.05723 -483.53083) rotate(90)" rx="2.49884" height="4.99768" width="4.99768" y="42.26436" x="525.79519"></rect>
          <rect style="fill:#d88dff" transform="translate(214.8845 -375.10953) rotate(49.63913)" rx="2.49884" height="4.99768" width="4.99768" y="42.26436" x="510.48538"></rect>
          <rect style="fill:none;stroke:#d88dff;stroke-miterlimit:10" transform="translate(844.71638 -599.29781) rotate(90)" rx="2.49884" height="4.99768" width="4.99768" y="120.21044" x="719.50825"></rect>
          <rect style="fill:none;stroke:#d88dff;stroke-miterlimit:10" transform="translate(342.54229 -495.24683) rotate(49.63911)" rx="2.49884" height="4.99768" width="4.99768" y="120.21044" x="704.19844"></rect>
        </g>
      </g>
      <g style="clip-path:url(#clip-path-2)">
        <path style="fill:#00aeff" d="M284.77463,162.55044H-3.39749Q-1.35828,111.56657.68091,60.58261a486.11831,486.11831,0,0,0,75.458,16.3305c17.25653,2.29877,33.92535,3.44513,67.263,5.73774,34.30053,2.35882,47.34924,2.4909,69.60553,6.46984A354.57175,354.57175,0,0,1,254.553,99.15915a60.06214,60.06214,0,0,1,22.90106,10.1333c5.53656,4.03015,12.96881,9.44012,16.07874,18.56567C299.20059,144.48929,286.20108,160.812,284.77463,162.55044Z"></path>
        <path style="fill:#00e7ff" d="M231.72139,180.07027H-56.45073q2.03921-50.98389,4.0784-101.96784C-21.078,87.47231,6.1805,94.418,24.33192,96.836c17.25654,2.29876,30.07856,6.47748,63.4162,8.77008,34.30054,2.35883,47.92759-.15176,70.18387,3.82718,17.86481,3.19385,35.30916,3.05387,44.62721,5.91276,5.27936,1.11835,12.11316,3.40311,20.9762,9.85459,5.53656,4.03015,13.83424,11.05181,16.94417,20.17736C246.14735,162.00911,233.14784,178.33186,231.72139,180.07027Z"></path>
        <path style="fill:#47fff3" d="M190.08194,199.67223H-98.09018q2.03921-50.98389,4.0784-101.96784c31.29428,9.36987,58.55283,16.31557,76.70426,18.73354C-.051,118.7367,13.77134,125.5828,47.109,127.8754c34.30053,2.35883,46.92727-2.81914,69.18356,1.1598,17.86481,3.19385,35.30915,3.05387,44.62721,5.91276,5.27936,1.11834,13.77113,2.66565,22.63417,9.11713a45.71841,45.71841,0,0,1,15.28619,20.91481C204.50791,181.61107,191.50839,197.93382,190.08194,199.67223Z"></path>
        <polygon style="fill:#00afff" points="125.114 167.504 -11.989 167.504 -11.989 126.787 89.105 128.344 125.114 167.504"></polygon>
        <polygon style="fill:none;stroke:#14142b;stroke-linecap:round;stroke-miterlimit:10;stroke-width:3px" points="125.114 167.504 -11.989 167.504 -11.989 126.787 89.105 128.344 125.114 167.504"></polygon>
        <path style="fill:url(#linear-gradient)" d="M61.55154,36.3309a18.48738,18.48738,0,0,0-16.10266,1.8208c-11.9226,8.03754-8.84259,30.65045-4.729,58.43732,2.95306,19.94763,5.64416,38.48218,9.77917,47.91565a8.72178,8.72178,0,0,1,1.61481,1.29742c.53382.19159,1.0647.40088,1.5954.61151,4.40631-4.46484,11.81744-8.12323,17.81451-7.17029,4.13745-8.56573,6.93164-22.08172,7.50629-41.50647C79.58524,78.96945,79.40952,42.81589,61.55154,36.3309Z"></path>
        <path style="fill:#ffe67b" d="M47.109,35.43c-11.505,0-22.02142,26.99976-20.83167,60.25812.79328,22.17505,2.28333,37.176,5.7558,45.72461a15.03325,15.03325,0,0,1,3.851.217c5.4049-.17194,12.83673.68164,16.19006,4.13556,6.82208-6.92481,11.72961-22.43891,12.5133-48.92938C65.5715,63.57089,58.614,35.43,47.109,35.43Z"></path>
        <path style="fill:#ffcf00" d="M52.76291,48.74826c-11.505,0-22.02142,26.99975-20.83167,60.25812.47846,13.374,1.21424,24.12048,2.48157,32.43377.49512.04651.98871.10791,1.47132.18964,5.4049-.17194,12.83673.68164,16.19006,4.13556,6.82208-6.92481,11.72961-22.43891,12.5133-48.92938.49024-16.573-.99163-31.87146-4.0241-43.05439C58.29025,50.5538,55.6727,48.74826,52.76291,48.74826Z"></path>
        <path style="fill:url(#linear-gradient-2)" d="M122.82181,167.50412c11.6546-.69782,23.33655-1.01166,35.01825-1.06757.42572-4.22961.72363-8.822.87134-13.81463.55517-18.7674.37945-54.921-17.47852-61.40595a18.48738,18.48738,0,0,0-16.10266,1.8208c-11.92261,8.03754-8.84259,30.65045-4.729,58.43732C121.21616,156.979,122.01114,162.37454,122.82181,167.50412Z"></path>
        <path style="fill:#ffcf00" d="M106.90494,168.708c12.092-1.11164,24.22717-1.75263,36.37457-2.05854.48883-4.53308.82849-9.49237.98932-14.9284.98407-33.26508-5.97345-61.40589-17.47852-61.40589s-22.02142,26.9997-20.83166,60.25806C106.19821,157.26938,106.503,163.3,106.90494,168.708Z"></path>
        <path style="fill:#ffe67b" d="M116.07169,160.68619c-1.18976-33.25837,9.32666-60.25806,20.83166-60.25806.17005,0,.33569.02643.50372.03863-2.82336-6.38568-6.415-10.15161-10.61676-10.15161-11.505,0-22.02142,26.9997-20.83166,60.25806.23956,6.69617.54437,12.72675.94629,18.13477q4.72833-.4347,9.46521-.77259Q116.20554,164.4487,116.07169,160.68619Z"></path>
        <path style="fill:#3aaf64" d="M47.13828,142.51651c-1.06885,1.07818-3.1175-.56549-8.07142-1.12622-6.17089-.69849-7.24743,1.3703-11.45007.37536-3.61853-.85669-5.81088-3.09832-9.573-6.94513a48.76341,48.76341,0,0,1-7.696-10.51153c-2.64487-4.69928-8.73444-15.51892-5.81888-18.30139,1.53516-1.46509,5.153-.0069,12.38861,2.90948,7.23282,2.91522,10.84921,4.37287,15.01654,7.69592,6.28021,5.00788,9.17291,10.35633,12.20093,15.95508C46.09427,136.1907,48.6456,140.99594,47.13828,142.51651Z"></path>
        <path style="fill:#5bd821" d="M44.135,132.56808c-3.028-5.59875-5.92072-10.9472-12.20093-15.95508-4.1673-3.323-7.78369-4.7807-15.01654-7.69592C9.68192,106.0007,6.06406,104.54251,4.5289,106.0076c-.98743.94238-.92841,2.81573-.33362,5.05194,1.9267.58972,4.436,1.59955,7.67481,2.905,7.23279,2.91522,10.84918,4.37286,15.01654,7.69592,6.28021,5.00787,16.28508,12.12283,19.3131,17.72159.69586,1.28662-.35535-.1274.28156,1.25742,3.445.6803-.24377,2.7857.657,1.87707C48.6456,140.99594,46.09427,136.1907,44.135,132.56808Z"></path>
        <path style="fill:#5bd821" d="M106.02463,153.96048c-1.02789-.95746-2.16156-1.98975-3.44446-3.15644-5.77142-5.24884-8.65717-7.87323-10.60577-7.03283-3.70069,1.596-1.75,13.85742-.90277,19.18292.07031.44214.149.847.22454,1.26672,5.56446.85749,10.5907-.4226,16.10456-.65393A23.87357,23.87357,0,0,1,106.02463,153.96048Z"></path>
        <path style="fill:#3aaf64" d="M72.94791,138.57467c.3891.52485.89135.7569,4.22339,1.59552,4.463,1.1233,6.69451,1.68494,7.81353,1.5752,1.10547-.1084,2.49243-.46149,7.21711-4.00732a89.024,89.024,0,0,0,8.98565-7.68995c3.50171-3.38024,5.27344-5.10821,6.29828-6.95922,1.32935-2.40113,1.09009-3.26819,2.53406-9.66687,1.94086-8.60065,3.58685-12.41248,2.33014-13.17719-.58539-.3562-1.34851.22376-3.081,1.07013-3.9447,1.927-6.34552,2.02588-9.0346,2.82275-7.03717,2.08545-13.69007,8.25415-14.35157,8.87458-4.0354,3.785-6.31732,8.15118-10.88311,16.88147C73.02835,133.6633,71.64169,136.81277,72.94791,138.57467Z"></path>
        <path style="fill:#5bd821" d="M26.31815,97.29391c.00915-.09643.01788-.193.027-.28955-.028-3.30627.20765-6.64294-.115-9.95514a5.21931,5.21931,0,0,1,.03736-1.332A35.39956,35.39956,0,0,0,16.373,82.50686a39.549,39.549,0,0,0,.77917,13.4115c2.165,8.68567,5.37866,12.56165,6.47583,13.79645.159.179,1.1034,1.09338,2.99213,2.9223.20276.19635.39447.38239.58929.57135C25.4606,108.50363,25.88278,101.86862,26.31815,97.29391Z"></path>
        <path style="fill:#9e6146" d="M19.41843,137.53232.06027,139.37961,26.6712,162.72214l63.72715-8.19892V145.0986a29.06859,29.06859,0,0,0-36.68909,1.315,38.29406,38.29406,0,0,0-26.09247-4.648Q23.51761,139.649,19.41843,137.53232Z"></path>
        <path style="fill:none;stroke:#14142b;stroke-linecap:round;stroke-miterlimit:10;stroke-width:3px" d="M80.36312,78.10243c8.40744,1.10717,13.85586,1.60645,20.50958,2.16589,54.37843,4.57213,86.36186,1.79585,141.7126,14.70966,41.50991,9.68463,51.09276,29.59206,52.226,36.73024a35.23839,35.23839,0,0,1-8.81489,28.86442"></path>
        <path style="fill:none;stroke:#14142b;stroke-linecap:round;stroke-miterlimit:10;stroke-width:3px" d="M1.32776,61.53487q13.17829,3.84408,25.34334,6.725"></path>
        <path style="fill:none;stroke:#14142b;stroke-linecap:round;stroke-miterlimit:10;stroke-width:3px" d="M155.44676,108.64127c21.82052,2.16,43.9198,2.16,64.17747,13.20966,14.119,7.9803,25.16863,23.327,20.87052,39.9396"></path>
        <path style="fill:none;stroke:#14142b;stroke-linecap:round;stroke-miterlimit:10;stroke-width:3px" d="M79.12234,105.03038c5.38316.41012,11.85839.7827,17.25157,1.02529"></path>
        <path style="fill:none;stroke:#14142b;stroke-linecap:round;stroke-miterlimit:10;stroke-width:3px" d="M-1.9056,91.67088q9.19012,2.151,18.4406,4.01727"></path>
        <path style="fill:none;stroke:#14142b;stroke-linecap:round;stroke-miterlimit:10;stroke-width:3px" d="M158.85517,134.65445q4.28838.88551,8.5902,1.92934A52.317,52.317,0,0,1,190.15852,149.475a29.39372,29.39372,0,0,1,6.65212,13.24712"></path>
        <path style="fill:none;stroke:#14142b;stroke-linecap:round;stroke-miterlimit:10;stroke-width:3px" d="M-3.3975,119.61052c3.94437.95,7.868,1.71982,11.80039,2.36942"></path>
        <path style="fill:none;stroke:#14142b;stroke-linecap:round;stroke-miterlimit:10;stroke-width:3px" d="M28.0954,141.91028a38.81383,38.81383,0,0,1-9.41115-6.63507c-9.88495-9.23972-13.51-22.26561-14.63842-27.64056A1.81172,1.81172,0,0,1,6.09348,105.444c8.034,1.61185,20.54994,4.11387,28.56432,12.74216a64.60056,64.60056,0,0,1,13.92945,24.84736"></path>
        <path style="fill:none;stroke:#14142b;stroke-linecap:round;stroke-miterlimit:10;stroke-width:3px" d="M106.31605,153.03437c-4.32949-4.8107-9.33563-7.43738-13.38246-9.81417a1.47255,1.47255,0,0,0-2.15488,1.13856,48.00846,48.00846,0,0,0,1.18559,18.19171"></path>
        <path style="fill:none;stroke:#14142b;stroke-linecap:round;stroke-miterlimit:10;stroke-width:3px" d="M72.00335,139.3796c1.46847-6.47841,4.81-16.43487,12.24559-24.22292,9.34378-9.78669,22.40726-13.27376,27.79386-14.34526,1.24505-.24766,1.58533.30692,1.32245,1.54885"></path>
        <path style="fill:none;stroke:#14142b;stroke-linecap:round;stroke-miterlimit:10;stroke-width:3px" d="M108.18134,121.93807a32.93487,32.93487,0,0,1-7.01332,9.372,62.57222,62.57222,0,0,1-17.31291,10.93211"></path>
        <path style="fill:none;stroke:#14142b;stroke-linecap:square;stroke-miterlimit:10;stroke-width:3px" d="M22.84632,109.27712c-6.6908-9.39976-7.50765-20.90014-7.5377-25.5832a1.54486,1.54486,0,0,1,2.08311-1.48276,70.85593,70.85593,0,0,1,8.32673,3.84017"></path>
        <polyline style="fill:none;stroke:#14142b;stroke-linecap:round;stroke-miterlimit:10;stroke-width:3px" points="90.398 154.523 26.671 162.722 0.06 139.38 21.28 137.532"></polyline>
        <line style="fill:none;stroke:#14142b;stroke-linecap:round;stroke-miterlimit:10;stroke-width:3px" y2="162.72216" x2="9.27844" y1="155.44501" x1="0.06027"></line>
        <path style="fill:none;stroke:#14142b;stroke-linecap:round;stroke-miterlimit:10;stroke-width:3px" d="M28.08958,112.87382a159.4536,159.4536,0,0,1-1.41837-21.57009c0-31.33222,8.48784-56.732,18.95813-56.732s18.95814,25.39979,18.95814,56.732c0,25.016-5.41066,46.25027-12.921,53.79488"></path>
        <path style="fill:none;stroke:#14142b;stroke-linecap:round;stroke-miterlimit:10;stroke-width:3px" d="M70.95467,139.382c5.23233-10.09828,8.69664-27.69405,8.69664-47.71114,0-31.33222-8.48785-56.732-18.95813-56.732l-15.06384-.36715"></path>
        <path style="fill:none;stroke:#14142b;stroke-linecap:round;stroke-miterlimit:10;stroke-width:3px" d="M107.102,162.72239c-.51137-5.13861-.786-10.58244-.786-16.21822,0-31.33222,8.48785-56.732,18.95814-56.732s18.95813,25.39978,18.95813,56.732a163.4401,163.4401,0,0,1-.89743,17.29838"></path>
        <path style="fill:none;stroke:#14142b;stroke-linecap:round;stroke-miterlimit:10;stroke-width:3px" d="M158.54625,162.72243c.4882-5.03052.74991-10.34935.74991-15.85111,0-31.33222-8.48785-56.732-18.95814-56.732l-15.06383-.36715"></path>
        <path style="fill:none;stroke:#14142b;stroke-linecap:round;stroke-miterlimit:10;stroke-width:3px" d="M37.58117,72.66954c1.757-11.4018,5.06579-19.08534,8.858-19.08534,5.632,0,10.1976,16.947,10.1976,37.85213,0,4.65176-.22606,9.10754-.63963,13.22423"></path>
        <path style="fill:none;stroke:#14142b;stroke-linecap:round;stroke-miterlimit:10;stroke-width:3px" d="M52.96344,120.52907c-1.76816,5.46922-4.04269,8.75938-6.52424,8.75938-5.632,0-10.19761-16.947-10.19761-37.85212"></path>
        <path style="fill:none;stroke:#14142b;stroke-linecap:round;stroke-miterlimit:10;stroke-width:3px" d="M116.41616,129.26894c1.757-11.4018,5.06579-19.08533,8.858-19.08533,5.632,0,10.1976,16.947,10.1976,37.85212,0,4.65177-.22606,9.10755-.63963,13.22424"></path>
        <path style="fill:none;stroke:#14142b;stroke-linecap:round;stroke-miterlimit:10;stroke-width:3px" d="M116.00064,163.80262a129.72739,129.72739,0,0,1-.92406-15.76689"></path>
        <path style="fill:none;stroke:#14142b;stroke-linecap:round;stroke-miterlimit:10;stroke-width:3px" d="M19.41844,145.07454c4.36109-1.70859,12.47019-4.45133,20.10713-3.9082,7.891.56119,14.69147,5.52141,14.69147,5.52141a25.364,25.364,0,0,1,10.18814-6.36985c4.36959-1.34022,14.98558-2.496,25.99316,5.90892"></path>
      </g>
      <g style="clip-path:url(#clip-path-3)">
        <path style="fill:url(#linear-gradient-3)" d="M908.1207,97.18979c-.01624,50.162-57.76673,94.43005-113.37989,94.44165-33.21289.00689-36.78258-24.85085-81.15078-25.34038-49.6457-.54777-84.4679-3.23794-84.4679-3.23794s-1.98446-47.63927,4.411-60.20684c4.693-9.22217,10.11634-13.78772,11.63782-15.01654,7.7384-6.25018,15.94128-8.08594,20.46729-9.04694,11.63842-2.47119,18.86792-1.03027,18.86792-1.03027s11.65-30.73187,40.111-52.00153c.89038-.6654,1.59253-1.17224,2.06555-1.51373,28.67566-20.701,58.60522-21.4,68.0581-21.48907,9.99427-.09418,37.89075.02044,65.35413,18.25805C864.93308,24.21908,908.13474,53.79379,908.1207,97.18979Z"></path>
        <path style="fill:#7cb8ed" d="M875.027,77.02945c-.01062,32.47937-24.22925,62.48224-56.39673,79.60589,4.80432.06928,9.60327.13739,14.38916.1579,15.111.06482,30.2102.60108,45.30859,1.177,18.019-16.71045,29.7854-38.14447,29.79273-60.78045.014-43.396-43.18762-72.97071-48.02576-76.18354-7.0321-4.6698-20.30322-9.24127-27.08435-11.83538C847.37363,21.636,875.03671,46.448,875.027,77.02945Z"></path>
        <path style="fill:url(#radial-gradient)" d="M822.76059,43.53036l-2.06091-6.79852L837.332,22.95132,833.01059,9.17087a104.21132,104.21132,0,0,0-44.68726-6.17365q-13.78565,2.52741-27.57116,5.05487l-9.29163,10.95673-20.82446,2.65289-15.671,19.62274.40942,17.81549,20.1565,1.87989,4.49084,21.51422-3.111,2.65069a53.4905,53.4905,0,0,1,11.17029,14.13513,55.18858,55.18858,0,0,1,6.35315,30.32172q6.969-6.19611,13.938-12.39227l13.00745,3.58246,10.57312-10.76831Z"></path>
        <path style="fill:url(#linear-gradient-4)" d="M793.5986,129.50058c3.72034-33.53382-6.03662-40.56659,1.45276-58.04376a48.50106,48.50106,0,0,1,19.63025-22.39069c14.55823-8.42853,29.6637-5.95911,35.81006-4.95429a53.34729,53.34729,0,0,1,22.03052,8.39667,43.24145,43.24145,0,0,1,12.79858,12.50623c6.94568,10.70862,6.62354,21.836,6.3822,27.51214-.30884,7.26349-.88525,20.82007-11.46618,31.04407-2.35425,2.27484-11.56641,11.17627-22.76978,10.24689-6.957-.57715-12.33252-4.75025-16.70581-1.87708a7.83743,7.83743,0,0,0-3.45776,5.58832c-.562,6.10614,7.5841,12.05969,7.5841,12.05969l-51.289.46449A123.79385,123.79385,0,0,1,793.5986,129.50058Z"></path>
        <path style="fill:#e94043" d="M846.95547,124.71408l-.84468-6.382,6.382-.73955,1.5955,4.68138s-.37541,2.08745-.84468,1.98226S846.95547,124.71408,846.95547,124.71408Z"></path>
        <path style="fill:#e94043" d="M812.06553,123.63568l-7.46133-1.26793.35608-1.89117a3.63779,3.63779,0,0,1,4.27227-2.89722l1.764.3445a2.3989,2.3989,0,0,1,1.84524,3.01881Z"></path>
        <path style="fill:#91b1dd" d="M886.966,114.44815c-.05865-4.61414,1.09646-10.13222,1.33182-14.88674.35594-7.19049-7.93715-14.54563-6.42895-21.52879a254.39855,254.39855,0,0,0-84.633,1.04175c-.77987,9.89923-5.94385,18.54983-5.09874,28.46457.12239,1.43676.99347,5.312.38351,6.10046.36389.73376.85111.53555,1.078,1.31393,2.241-.50122,10.50749-2.58589,12.47238-3.09715,2.32228-.60425,2.97042-3.74736,3.19086-6.47584l-.82994-1.22012-8.27371-10.26041,15.7028,1.48395q4.04748-1.86576,8.09508-3.73157a14.58377,14.58377,0,0,1,10.764,5.87506,18.48932,18.48932,0,0,1,3.48131,8.24387,5.73569,5.73569,0,0,0,4.93721,5.07956C854.93407,111.72354,875.12505,113.57527,886.966,114.44815Z"></path>
        <path style="fill:#c63158" d="M816.73447,47.66568c3.481-1.4253,28.25573-11.09992,51.738,2.28479a56.10114,56.10114,0,0,1,21.10462,21.68207q5.20038,1.11684,10.40088,2.23376l11.96618-2.23376-4.58642-9.28693L889.30539,46.01492l-21.786-7.81354L845.60483,36.0466Z"></path>
        <path style="fill:#e94043" d="M871.40915,39.59646l-3.88977-1.39508L845.60483,36.0466l-23.23316,9.35034c.13892.06653.2743.13477.41553.2,8.18628-2.34082,23.07959-4.9209,38.41809.93115C865.81186,44.77835,869.39316,42.3779,871.40915,39.59646Z"></path>
        <path style="fill:#e94043" d="M791.95285,110.02347c-6.64136,7.97351-12.02563,13.97-15.71582,17.97546-4.59558,4.98828-7.49512,7.9-7.6123,12.37769-.114,4.358,2.41345,10.73236,2.41345,10.73236h0l12.097,5.028,20.018-2.962,12.994-8.35767,3.61938-7.86963-4.52429-3.86743-22.81555-1.70258,1.17187-17.73828Z"></path>
        <path style="fill:#4e6ca8" d="M810.9342,149.0715h39.1005l10.22607,7.422q5.28154,3.05515,10.56308,6.11024,3.75207.90519,7.50412,1.81029l-84.66613-.95131-.81641-7.42358,11.17321-2.65712Z"></path>
        <path style="fill:#8d9fd4" d="M855.03879,154.92l-9.434-5.84851H809.53305l-6.37988,3.39667-9.3562,1.90051,61.317.5885Z"></path>
        <polygon style="fill:#4e6ca8" points="844.49 132.552 843.201 132.403 842.631 129.124 845.605 124.938 857.467 124.256 860.073 128.404 860.631 132.403 844.49 132.552"></polygon>
        <polygon style="fill:#4e6ca8" points="798.199 130.327 800.592 123.508 812.944 124.664 815.706 126.674 816.782 131.096 816.308 133.405 798.199 130.327"></polygon>
        <polygon style="fill:#7589ba" points="907.358 62.346 928.263 63.803 937.101 69.798 942.434 79.833 936.085 157.623 896.606 159.236 895.9 156.374 908.121 147.52 914.064 133.405 916.219 116.541 916.415 112.628 921.101 108.875 924.291 100.594 924.622 89.144 919.167 77.913 911.944 71.633 907.358 62.346"></polygon>
        <rect style="fill:#c63158" height="33.69515" width="25.19959" y="125.55876" x="889.70561"></rect>
        <path style="fill:#c63158" d="M887.07065,107.90225a28.90567,28.90567,0,0,1-5.23987,13.31226c-.88843,1.21655-6.802,9.0747-16.82385,11.08837-6.6864,1.34351-9.40491-1.0794-20.51648.24921a69.24353,69.24353,0,0,0-7.27515,1.26575,23.54266,23.54266,0,0,0,2.23194,9.57306c5.9862,12.51922,23.76013,18.94964,44.67407,17.21777a39.16435,39.16435,0,0,0,20.20691-9.93323c13.80957-13.05719,12.14953-31.69152,11.89123-34.13458a21.877,21.877,0,0,1-11.075.19568,22.384,22.384,0,0,1-12.4342-8.39594Z"></path>
        <path style="fill:#c63158" d="M916.1683,116.554c-.7246,7.18158-3.37255,17.27936-11.84008,25.28565a39.16443,39.16443,0,0,1-20.20691,9.93323c-20.91394,1.73187-38.68787-4.69855-44.67407-17.21778-.16834-.352-.33094-.72644-.48987-1.11255-.66114.134-1.25171.26252-1.74207.37525a23.54266,23.54266,0,0,0,2.23194,9.57306c5.9862,12.51922,23.76013,18.94964,44.67407,17.21777a39.16435,39.16435,0,0,0,20.20691-9.93323c13.80957-13.05719,12.14953-31.69152,11.89123-34.13458Z"></path>
        <path style="fill:url(#linear-gradient-5)" d="M787.87656,74.38656A336.50752,336.50752,0,0,1,899.978,73.8663a34.19771,34.19771,0,0,0-7.78528,13.58807c-2.85083,9.66163,1.1645,17.82182,2.2104,20.88621-17.35828-1.13611-36.40925-2.27213-53.76753-3.40824A17.39012,17.39012,0,0,0,823.9614,86.08426l-9.3169,3.73156-18.07287-1.48394,9.49926,13.33648-.42273,4.54621s-19.28,4.65576-19.62085,3.42889-2.1477-22.51422-2.1477-22.51422Z"></path>
        <path style="fill:#7589ba" d="M924.62191,96.95951c0,13.19614-8.25966,20.633-16.50122,20.633s-17.16274-10.3999-17.16274-23.596,8.92118-21.9366,17.16274-21.9366S924.62191,83.76337,924.62191,96.95951Z"></path>
        <ellipse style="fill:#8197c1" ry="17.26559" rx="12.43555" cy="94.59059" cx="912.98121"></ellipse>
        <path style="fill:url(#linear-gradient-6)" d="M828.93564,70.27438l-41.05908,4.11218a41.9951,41.9951,0,0,0-1.84925,35.2569q9.81043-1.71441,19.62085-3.42889a18.22757,18.22757,0,0,1,8.99634-16.39875c8.64636-5.02368,17.408-.43139,17.86731-.18017,1.91235,2.13171-1.91235-2.13172,0,0l8.12383-19.74671Z"></path>
        <polygon style="fill:url(#linear-gradient-7)" points="852.834 69.925 840.219 103.139 856.464 103.941 867.519 70.757 852.834 69.925"></polygon>
        <polygon style="fill:#e94043" points="824.788 93.367 798.199 88.509 800.874 95.338 809.262 105.38 817.298 108.875 823.68 108.341 828.936 103.941 828.502 97.184 824.788 93.367"></polygon>
        <polygon style="fill:url(#radial-gradient-2)" points="825.228 94.979 827.11 95.753 827.517 105.129 828.936 103.941 828.502 97.184 824.788 93.367 798.199 88.509 799.488 91.8 825.228 94.979"></polygon>
        <path style="fill:#7cb8ed" d="M669.00973,106.01519h0A20.27228,20.27228,0,0,1,689.282,126.28746V164.6017a0,0,0,0,1,0,0H648.73745a0,0,0,0,1,0,0V126.28746a20.27228,20.27228,0,0,1,20.27228-20.27228Z"></path>
        <path style="fill:#4e6ca8" d="M687.83945,164.59272c.83255-10.28316-.5542-22.3318-.25782-32.97523.26368-9.47378-.42895-19.07677-9.27-23.31772a5.24545,5.24545,0,0,1-.99134-.61443c-7.37182,3.32137-12.56555,11.25392-12.56555,20.52184v36.39449H687.8414Z"></path>
        <path style="fill:#a9faa5" d="M694.36419,123.4338h0a10.87144,10.87144,0,0,1,10.87144,10.87144v11.54134A10.87144,10.87144,0,0,1,694.3642,156.718h0a0,0,0,0,1,0,0V123.4338a0,0,0,0,1,0,0Z"></path>
        <path style="fill:#a9faa5" d="M643.02981,122.55545h0a0,0,0,0,1,0,0V156.137a0,0,0,0,1,0,0h0a8.80376,8.80376,0,0,1-8.80376-8.80376v-15.974A8.80376,8.80376,0,0,1,643.02981,122.55545Z"></path>
        <path style="fill:#c63158" d="M815.24228,133.08023l-2.24646-.16766a29.65222,29.65222,0,0,1-10.35571,11.46606l-.07825.05029a31.05268,31.05268,0,0,1-12.25317,4.60156l-.436.06452a47.2395,47.2395,0,0,1-19.97583-1.35529c.58106,1.94971,1.14136,3.36927,1.14136,3.36927l12.097,5.028,20.018-2.962,12.994-8.35767,3.61938-7.86963Z"></path>
        <path style="fill:url(#linear-gradient-8)" d="M924.21994,139.10013a80.25912,80.25912,0,0,1-7.99744-24.14124c-.21289,1.57935-2.20947,25.25372-2.38256,26.82868.36279,5.80322.437,11.62738.44116,17.4663l21.80395-1.06537,3.886-56.96154c-1.71509,15.068-8.79639,31.01758-12.09644,37.80505A2.05,2.05,0,0,1,924.21994,139.10013Z"></path>
        <path style="fill:#c63158" d="M828.50156,97.18442l-1.39185-1.431c.108,9.04773-17.07373,10.03473-26.73071-1.67786l.49451,1.26245,8.3883,10.0423,8.036,3.4942,6.38208-.53394,5.25574-4.3991Z"></path>
        <path style="fill:none;stroke:#14142b;stroke-miterlimit:10;stroke-width:3px" d="M701.358,47.67082c.11915-.15233,12.60649-4.86322,12.60649-4.86322"></path>
        <line style="fill:none;stroke:#1690db;stroke-linecap:round;stroke-miterlimit:10;stroke-width:3px" y2="108.31281" x2="751.46049" y1="87.88084" x1="699.6919"></line>
        <line style="fill:none;stroke:#1690db;stroke-linecap:round;stroke-miterlimit:10;stroke-width:3px" y2="154.19082" x2="753.44213" y1="118.00302" x1="716.0794"></line>
        <line style="fill:none;stroke:#1690db;stroke-linecap:round;stroke-miterlimit:10;stroke-width:3px" y2="107.90223" x2="657.37398" y1="86.08424" x1="649.57844"></line>
        <line style="fill:none;stroke:#1690db;stroke-linecap:round;stroke-miterlimit:10;stroke-width:3px" y2="116.78046" x2="649.57844" y1="104.37272" x1="634.22604"></line>
        <line style="fill:none;stroke:#1690db;stroke-linecap:round;stroke-miterlimit:10;stroke-width:3px" y2="109.84966" x2="681.36092" y1="83.584" x1="690.9341"></line>
        <line style="fill:none;stroke:#1690db;stroke-linecap:round;stroke-miterlimit:10;stroke-width:3px" y2="116.12314" x2="688.42941" y1="102.93867" x1="710.02667"></line>
        <g style="opacity:0.75;mix-blend-mode:lighten">
          
        </g>
        <g style="opacity:0.75;mix-blend-mode:lighten">
          
        </g>
        <g style="opacity:0.75;mix-blend-mode:lighten">
          
        </g>
        <g style="opacity:0.75;mix-blend-mode:lighten">
          
        </g>
        <g style="opacity:0.75;mix-blend-mode:lighten">
          
        </g>
        <g style="opacity:0.75;mix-blend-mode:lighten">
          
        </g>
        <polyline style="fill:none;stroke:#14142b;stroke-miterlimit:10;stroke-width:3px" points="837.332 22.951 857.901 36.047 869.667 27.456"></polyline>
        <line style="fill:none;stroke:#14142b;stroke-miterlimit:10;stroke-width:3px" y2="78.21211" x2="699.23876" y1="59.09994" x1="715.37444"></line>
        <polygon style="fill:none;stroke:#1690db;stroke-miterlimit:10;stroke-width:3px" points="733.651 20.458 750.675 19.936 754.434 40.928 735.531 60.98 715.374 59.1 713.965 42.808 724.461 26.829 733.651 20.458"></polygon>
        <polyline style="fill:none;stroke:#1690db;stroke-miterlimit:10;stroke-width:3px" points="789.525 4.374 796.137 27.351 778.416 46.015 754.434 40.928 750.675 19.936 760.752 8.052"></polyline>
        <polyline style="fill:none;stroke:#1690db;stroke-miterlimit:10;stroke-width:3px" points="796.137 27.351 820.7 36.732 837.332 22.951 833.011 9.171"></polyline>
        <path style="fill:none;stroke:#14142b;stroke-linecap:round;stroke-miterlimit:10;stroke-width:3px" d="M669.00391,106.01519h0a19.42547,19.42547,0,0,1,19.42547,19.42547v39.8795a0,0,0,0,1,0,0h-38.851a0,0,0,0,1,0,0v-39.8795A19.42547,19.42547,0,0,1,669.00391,106.01519Z"></path>
        <polyline style="fill:none;stroke:#1690db;stroke-miterlimit:10;stroke-width:3px" points="735.531 60.98 740.022 82.494 735.808 86.084"></polyline>
        <polyline style="fill:none;stroke:#1690db;stroke-miterlimit:10;stroke-width:3px" points="740.022 82.494 765.191 90.098 784.774 71.633 778.416 46.015"></polyline>
        <line style="fill:none;stroke:#1690db;stroke-miterlimit:10;stroke-width:3px" y2="36.73184" x2="820.69965" y1="43.53034" x1="822.7606"></line>
        <line style="fill:none;stroke:#1690db;stroke-miterlimit:10;stroke-width:3px" y2="73.8663" x2="791.1703" y1="71.63251" x1="784.77356"></line>
        <polyline style="fill:none;stroke:#1690db;stroke-miterlimit:10;stroke-width:3px" points="765.191 90.098 769.293 116.541 754.434 129.602"></polyline>
        <line style="fill:none;stroke:#1690db;stroke-miterlimit:10;stroke-width:3px" y2="116.54089" x2="769.2927" y1="120.64436" x1="782.11425"></line>
        <path style="fill:none;stroke:#14142b;stroke-miterlimit:10;stroke-width:3px" d="M672.607,78.21211h.00009a42.76736,42.76736,0,0,1,42.76736,42.76736v44.34068a0,0,0,0,1,0,0h-85.5348a0,0,0,0,1,0,0V120.97947A42.76736,42.76736,0,0,1,672.607,78.21211Z"></path>
        <path style="fill:none;stroke:#14142b;stroke-miterlimit:10;stroke-width:3px" d="M673.91409,78.21212h37.54306c23.73562,0,42.97714,20.27511,42.97714,45.28573v41.8223h-80.5202"></path>
        <path style="fill:none;stroke:#14142b;stroke-linecap:round;stroke-miterlimit:10;stroke-width:3px" d="M794.11311,73.30893a66.43911,66.43911,0,0,1,118.29374-.79385"></path>
        <path style="fill:none;stroke:#14142b;stroke-linecap:round;stroke-miterlimit:10;stroke-width:3px" d="M809.26184,53.37975c2.70564-2.48425,33.78817-20.91152,65.11957.08053,7.75224,5.194,12.28141,12.35894,15.19574,18.17224"></path>
        <path style="fill:none;stroke:#14142b;stroke-linecap:round;stroke-miterlimit:10;stroke-width:3px" d="M791.95282,110.02347c-4.56556,5.62517-10.16289,8.35689-20.58685,23.5331-2.98456,4.34524-4.2164,11.04421-1.44212,15.98109,4.59742,8.18122,20.43906,7.4172,29.62772,4.8098,8.59414-2.4387,13.14188-5.99919,16.59562-9.53017,1.32437-1.354,3.58419-4.51229,3.69688-6.40294a5.205,5.205,0,0,0-.55374-2.86572c-.85428-1.58855-2.93124-3.17215-16.18789-4.07309-4.66752-.31725-8.508-.39943-11.07042-.41777"></path>
        <line style="fill:none;stroke:#14142b;stroke-linecap:round;stroke-miterlimit:10;stroke-width:3px" y2="130.32672" x2="793.59857" y1="108.76025" x1="793.59857"></line>
        <path style="fill:none;stroke:#000;stroke-linecap:round;stroke-miterlimit:10;stroke-width:3px" d="M793.59857,156.137v5.02442"></path>
        <path style="fill:none;stroke:#14142b;stroke-linecap:round;stroke-miterlimit:10;stroke-width:3px" d="M887.07067,107.90223a25.49108,25.49108,0,0,1-13.4725,20.75346,36.42739,36.42739,0,0,1-4.45814,2.016,35.30007,35.30007,0,0,1-15.9042,1.96082c-4.83036-.48135-14.03117-1.67885-15.66882,1.97617-1.29046,2.88016,1.15076,8.30283,4.3864,12.0626,10.22164,11.87741,39.61578,22.66972,59.5297,7.04956,15.71137-12.32379,14.83932-36.55213,14.67645-39.00794"></path>
        <ellipse style="fill:none;stroke:#14142b;stroke-linecap:round;stroke-miterlimit:10;stroke-width:3px" ry="22.76632" rx="16.50122" cy="94.82619" cx="908.12069"></ellipse>
        <ellipse style="fill:none;stroke:#14142b;stroke-linecap:round;stroke-miterlimit:10;stroke-width:3px" ry="17.80214" rx="12.04528" cy="94.82619" cx="912.57663"></ellipse>
        <path style="fill:none;stroke:#14142b;stroke-linecap:round;stroke-miterlimit:10;stroke-width:3px" d="M787.87661,74.38659A328.93033,328.93033,0,0,1,822.7548,70.601c27.059-1.62057,58.46733-.95276,78.47922,3.53559"></path>
        <path style="fill:none;stroke:#14142b;stroke-miterlimit:10;stroke-width:3px" d="M840.63564,104.93232a365.99619,365.99619,0,0,1,53.76748,3.40826"></path>
        <path style="fill:none;stroke:#14142b;stroke-miterlimit:10;stroke-width:3px" d="M787.87661,74.38659a53.37887,53.37887,0,0,0-1.84929,35.25687c6.69567-1.09058,13.73859-2.04607,21.10759-2.80755"></path>
        <path style="fill:none;stroke:#14142b;stroke-linecap:round;stroke-miterlimit:10;stroke-width:3px" d="M813.52476,90.55794a17.7931,17.7931,0,0,1,10.26632-3.42868h0c9.303,0,16.84452,8.50009,16.84452,17.80306"></path>
        <path style="fill:none;stroke:#14142b;stroke-linecap:round;stroke-miterlimit:10;stroke-width:3px" d="M805.64812,106.21457a18.04255,18.04255,0,0,1,.42283-4.5462"></path>
        <polygon style="fill:none;stroke:#14142b;stroke-linecap:square;stroke-miterlimit:10;stroke-width:3px" points="845.605 160.609 810.071 160.485 810.862 150.462 844.103 150.053 845.605 160.609"></polygon>
        <path style="fill:none;stroke:#14142b;stroke-linecap:round;stroke-miterlimit:10;stroke-width:3px" d="M798.6088,130.951l.36616-3.46926a4.29664,4.29664,0,0,1,4.72387-3.82193l8.76307.92488a4.29664,4.29664,0,0,1,3.82192,4.72388l-.39808,3.77171"></path>
        <path style="fill:none;stroke:#14142b;stroke-linecap:square;stroke-miterlimit:10;stroke-width:3px" d="M803.91988,123.317l.47127-4.46513c.10057-.95292,1.27479-1.61008,2.6227-1.46782l3.66461.38678c1.3479.14226,2.35907,1.03007,2.25849,1.983l-.47126,4.46513"></path>
        <path style="fill:none;stroke:#14142b;stroke-linecap:square;stroke-miterlimit:10;stroke-width:3px" d="M846.23718,124.25615l-.62032-4.44688c-.13238-.949.84852-1.87015,2.19092-2.05741l3.64962-.5091c1.3424-.18726,2.53794.43027,2.67032,1.37929l.62032,4.44688"></path>
        <path style="fill:none;stroke:#14142b;stroke-linecap:square;stroke-miterlimit:10;stroke-width:3px" d="M842.97859,131.83647l-.30966-2.2199a4.29663,4.29663,0,0,1,3.66181-4.849l8.72724-1.2174a4.29664,4.29664,0,0,1,4.849,3.66182l.72415,5.19128"></path>
        <path style="fill:none;stroke:#14142b;stroke-linecap:square;stroke-miterlimit:10;stroke-width:3px" d="M822.886,108.23933c-7.19152,2.64941-13.88231-3.73873-15.4722-5.4332-6.67236-7.11126-10.9421-14.274-10.84215-14.47423.09252-.18535,17.64419,2.72022,17.64419,2.72022l7.8282,1.37022a8.748,8.748,0,0,1,6.88347,5.82014,7.45542,7.45542,0,0,1,.20917,3.99718C828.18693,106.28644,823.84756,107.88507,822.886,108.23933Z"></path>
        <path style="fill:none;stroke:#14142b;stroke-linecap:square;stroke-miterlimit:10;stroke-width:3px" d="M906.92415,62.06705h13.01017a23.195,23.195,0,0,1,23.141,23.24886l-7.21409,75.08248c-15.02272.07013-28.73974.14014-43.76233.21027"></path>
        <path style="fill:none;stroke:#007f97;stroke-miterlimit:10;stroke-width:3px" d="M643.02981,123.4338h0a0,0,0,0,1,0,0V156.137a0,0,0,0,1,0,0h0a8.80376,8.80376,0,0,1-8.80376-8.80376V132.23757A8.80376,8.80376,0,0,1,643.02981,123.4338Z"></path>
        <path style="fill:none;stroke:#007f97;stroke-miterlimit:10;stroke-width:3px" d="M695.398,123.4338h0a8.80376,8.80376,0,0,1,8.80376,8.80376v15.09567A8.80376,8.80376,0,0,1,695.398,156.137h0a0,0,0,0,1,0,0V123.4338A0,0,0,0,1,695.398,123.4338Z"></path>
        <path style="fill:none;stroke:#14142b;stroke-miterlimit:10;stroke-width:3px" d="M685.02709,79.83324C691.6887,55.60152,708.38041,35.57146,730.636,21.6617c41.72929-25.594,92.36083-25.594,134.09012,2.22556,9.45864,6.1203,19.66025,16.39874,26.89332,24.7446"></path>
        <line style="fill:none;stroke:#14142b;stroke-linecap:round;stroke-miterlimit:10;stroke-width:3px" y2="159.25391" x2="914.90521" y1="131.08516" x1="914.83519"></line>
        <path style="fill:none;stroke:#14142b;stroke-linecap:square;stroke-miterlimit:10;stroke-width:2px" d="M937.89522,135.94965a27.183,27.183,0,0,1-10.68018,4.17767,26.84589,26.84589,0,0,1-10.99261-.52924"></path>
        <path style="fill:none;stroke:#14142b;stroke-linecap:square;stroke-miterlimit:10;stroke-width:2px" d="M938.31983,129.011a26.77383,26.77383,0,0,1-10.57671,4.17768,26.33654,26.33654,0,0,1-10.88612-.52924"></path>
        
      </g>
      <path style="fill:#47fff3" d="M916.45287,93.37819a.51031.51031,0,0,1,.93574-.10886l3.48391,6.21714a1.0713,1.0713,0,0,1-.82446,1.59238l-4.64666.34631a.89606.89606,0,0,1-.928-1.14045Z"></path>
      <path style="fill:#47fff3" d="M913.40447,100.59927a1.46859,1.46859,0,0,1-1.306,1.07206l-4.53493.338a1.03539,1.03539,0,0,1-1.01876-1.40276l5.0095-14.27a1.00913,1.00913,0,0,1,1.84322-.18962l2.3517,4.524a1.46859,1.46859,0,0,1,.11213,1.06986Z"></path>
      
      
      
      
      <path style="fill:#fff;stroke:#14142b;stroke-miterlimit:10;stroke-width:8px" d="M214.10986,74.09818h17.03125v44.27344H214.10986Z"></path>
      <path style="fill:#fff;stroke:#14142b;stroke-miterlimit:10;stroke-width:8px" d="M236.60156,96.36136V96.2349c0-13.21875,12.00928-23.08545,28.09473-23.08545,8.73388,0,15.79394,2.52978,21.32568,6.7041l-9.53467,9.99316a18.60284,18.60284,0,0,0-11.28173-3.85791c-6.62354,0-11.42725,4.42725-11.42725,10.436v.12646c0,6.26123,5.02246,10.562,12.15527,10.562a12.70758,12.70758,0,0,0,5.82276-1.01171v-4.42725H263.022v-9.4873H287.6958v20.49218c-5.53125,3.92139-13.24658,6.64112-22.49023,6.64112C249.33838,119.32035,236.60156,110.086,236.60156,96.36136Z"></path>
      <path style="fill:#fff;stroke:#14142b;stroke-miterlimit:10;stroke-width:8px" d="M293.30469,74.09818h17.03173v31.624h23.94629v12.64942h-40.978Z"></path>
      <path style="fill:#fff;stroke:#14142b;stroke-miterlimit:10;stroke-width:8px" d="M334.57812,96.36136V96.2349c0-12.83936,12.15479-23.08545,27.876-23.08545,15.72168,0,27.731,10.11963,27.731,22.959v.12647c0,12.83935-12.15479,23.08545-27.87647,23.08545C346.5874,119.32035,334.57812,109.20072,334.57812,96.36136Zm38.42969,0V96.2349c0-5.24951-4.14844-9.99317-10.69922-9.99317-6.47754,0-10.55371,4.68018-10.55371,9.8667v.12647c0,5.24951,4.14893,9.99316,10.69922,9.99316C368.93213,106.22806,373.00781,101.54789,373.00781,96.36136Z"></path>
      <path style="fill:#fff;stroke:#14142b;stroke-miterlimit:10;stroke-width:8px" d="M394.33887,96.36136V96.2349c0-12.83936,12.15478-23.08545,27.876-23.08545,15.72168,0,27.731,10.11963,27.731,22.959v.12647c0,12.83935-12.15479,23.08545-27.87647,23.08545C406.34814,119.32035,394.33887,109.20072,394.33887,96.36136Zm38.42968,0V96.2349c0-5.24951-4.14843-9.99317-10.69922-9.99317-6.47753,0-10.55371,4.68018-10.55371,9.8667v.12647c0,5.24951,4.14893,9.99316,10.69922,9.99316C428.69287,106.22806,432.76855,101.54789,432.76855,96.36136Z"></path>
      <path style="fill:#fff;stroke:#14142b;stroke-miterlimit:10;stroke-width:8px" d="M450.6792,111.7305l9.09814-9.42383a32.20854,32.20854,0,0,0,17.832,5.18653c3.05713,0,4.36719-.6958,4.36719-1.89746v-.12647c0-1.26513-1.60156-1.96094-7.06006-2.90967-11.42724-2.02392-21.47168-4.87011-21.47168-14.23046v-.12647c0-8.41211,7.56983-14.92676,21.61719-14.92676,9.82568,0,17.104,2.02393,23,6.07178l-8.29785,9.99316a29.54421,29.54421,0,0,0-15.28467-4.36377c-2.54736,0-3.71191.75879-3.71191,1.834v.12646c0,1.20166,1.38281,1.96045,6.769,2.8462,13.02832,2.08691,21.7627,5.376,21.7627,14.29394v.12647c0,9.29736-8.80713,14.98974-22.49073,14.98974C466.47314,119.19388,457.15674,116.6641,450.6792,111.7305Z"></path>
      <path style="fill:#fff;stroke:#14142b;stroke-miterlimit:10;stroke-width:8px" d="M519.31885,74.09818h19.06982l9.89844,24.85644,9.89941-24.85644h18.77832L556.29394,118.688h-16.3042Z"></path>
      <path style="fill:#fff;stroke:#14142b;stroke-miterlimit:10;stroke-width:8px" d="M578.06055,107.61966,599.168,94.4639c3.20215-1.96045,4.43945-3.66846,4.43945-5.376,0-1.89746-1.67383-3.28906-4.585-3.28906s-5.60449,1.58154-9.82617,5.50293l-11.209-8.28564c5.89551-6.32471,11.86426-9.74024,22.49024-9.74024,11.64551,0,20.01562,6.07178,20.01562,14.48389v.12646c0,6.76758-4.14843,10.436-10.26172,13.85108l-9.09863,5.06006h19.87012v11.57422H578.06055Z"></path>
      <path style="fill:#fff" d="M214.10986,74.09818h17.03125v44.27344H214.10986Z"></path>
      <path style="fill:#fff" d="M236.60156,96.36136V96.2349c0-13.21875,12.00928-23.08545,28.09473-23.08545,8.73388,0,15.79394,2.52978,21.32568,6.7041l-9.53467,9.99316a18.60284,18.60284,0,0,0-11.28173-3.85791c-6.62354,0-11.42725,4.42725-11.42725,10.436v.12646c0,6.26123,5.02246,10.562,12.15527,10.562a12.70758,12.70758,0,0,0,5.82276-1.01171v-4.42725H263.022v-9.4873H287.6958v20.49218c-5.53125,3.92139-13.24658,6.64112-22.49023,6.64112C249.33838,119.32035,236.60156,110.086,236.60156,96.36136Z"></path>
      <path style="fill:#fff" d="M293.30469,74.09818h17.03173v31.624h23.94629v12.64942h-40.978Z"></path>
      <path style="fill:#fff" d="M334.57812,96.36136V96.2349c0-12.83936,12.15479-23.08545,27.876-23.08545,15.72168,0,27.731,10.11963,27.731,22.959v.12647c0,12.83935-12.15479,23.08545-27.87647,23.08545C346.5874,119.32035,334.57812,109.20072,334.57812,96.36136Zm38.42969,0V96.2349c0-5.24951-4.14844-9.99317-10.69922-9.99317-6.47754,0-10.55371,4.68018-10.55371,9.8667v.12647c0,5.24951,4.14893,9.99316,10.69922,9.99316C368.93213,106.22806,373.00781,101.54789,373.00781,96.36136Z"></path>
      <path style="fill:#fff" d="M394.33887,96.36136V96.2349c0-12.83936,12.15478-23.08545,27.876-23.08545,15.72168,0,27.731,10.11963,27.731,22.959v.12647c0,12.83935-12.15479,23.08545-27.87647,23.08545C406.34814,119.32035,394.33887,109.20072,394.33887,96.36136Zm38.42968,0V96.2349c0-5.24951-4.14843-9.99317-10.69922-9.99317-6.47753,0-10.55371,4.68018-10.55371,9.8667v.12647c0,5.24951,4.14893,9.99316,10.69922,9.99316C428.69287,106.22806,432.76855,101.54789,432.76855,96.36136Z"></path>
      <path style="fill:#fff" d="M450.6792,111.7305l9.09814-9.42383a32.20854,32.20854,0,0,0,17.832,5.18653c3.05713,0,4.36719-.6958,4.36719-1.89746v-.12647c0-1.26513-1.60156-1.96094-7.06006-2.90967-11.42724-2.02392-21.47168-4.87011-21.47168-14.23046v-.12647c0-8.41211,7.56983-14.92676,21.61719-14.92676,9.82568,0,17.104,2.02393,23,6.07178l-8.29785,9.99316a29.54421,29.54421,0,0,0-15.28467-4.36377c-2.54736,0-3.71191.75879-3.71191,1.834v.12646c0,1.20166,1.38281,1.96045,6.769,2.8462,13.02832,2.08691,21.7627,5.376,21.7627,14.29394v.12647c0,9.29736-8.80713,14.98974-22.49073,14.98974C466.47314,119.19388,457.15674,116.6641,450.6792,111.7305Z"></path>
      <path style="fill:#fff" d="M519.31885,74.09818h19.06982l9.89844,24.85644,9.89941-24.85644h18.77832L556.29394,118.688h-16.3042Z"></path>
      <path style="fill:#fff" d="M578.06055,107.61966,599.168,94.4639c3.20215-1.96045,4.43945-3.66846,4.43945-5.376,0-1.89746-1.67383-3.28906-4.585-3.28906s-5.60449,1.58154-9.82617,5.50293l-11.209-8.28564c5.89551-6.32471,11.86426-9.74024,22.49024-9.74024,11.64551,0,20.01562,6.07178,20.01562,14.48389v.12646c0,6.76758-4.14843,10.436-10.26172,13.85108l-9.09863,5.06006h19.87012v11.57422H578.06055Z"></path>
    </g>
  </g>
</svg>
