<svg xmlns="http://www.w3.org/2000/svg" viewBox="0 0 950 200" text-rendering="geometricPrecision" shape-rendering="geometricPrecision" style="white-space: pre;">
    <style>
@keyframes a0_t { 0% { transform: translate(0px,120.909867px); } 28.5714% { transform: translate(0px,120.909867px); animation-timing-function: cubic-bezier(0.645,0.045,0.355,1); } 71.4285% { transform: translate(0px,258.459467px); } 100% { transform: translate(0px,258.459467px); } }
@keyframes a1_t { 0% { transform: translate(0px,-191.851209px); } 42.8571% { transform: translate(0px,-191.851209px); animation-timing-function: cubic-bezier(0.645,0.045,0.355,1); } 100% { transform: translate(0px,-89.666603px); } }
@keyframes a2_t { 0% { transform: translate(-60.1478px,0px); animation-timing-function: cubic-bezier(0.645,0.045,0.355,1); } 42.8571% { transform: translate(142.8669px,0px); } 100% { transform: translate(142.8669px,0px); } }
@keyframes hand_right_t { 0% { transform: translate(800.647974px,123.89531px) rotate(0deg) translate(-890.817px,-142.717px); } 14.2857% { transform: translate(800.647974px,123.89531px) rotate(0deg) translate(-890.817px,-142.717px); animation-timing-function: cubic-bezier(0.645,0.045,0.355,1); } 28.5714% { transform: translate(800.647974px,123.89531px) rotate(-20deg) translate(-890.817px,-142.717px); animation-timing-function: cubic-bezier(0.645,0.045,0.355,1); } 42.8571% { transform: translate(800.647974px,123.89531px) rotate(0deg) translate(-890.817px,-142.717px); animation-timing-function: cubic-bezier(0.645,0.045,0.355,1); } 57.1428% { transform: translate(800.647974px,123.89531px) rotate(0deg) translate(-890.817px,-142.717px); animation-timing-function: cubic-bezier(0.645,0.045,0.355,1); } 71.4285% { transform: translate(800.647974px,123.89531px) rotate(15deg) translate(-890.817px,-142.717px); animation-timing-function: cubic-bezier(0.645,0.045,0.355,1); } 85.7142% { transform: translate(800.647974px,123.89531px) rotate(15deg) translate(-890.817px,-142.717px); animation-timing-function: cubic-bezier(0.645,0.045,0.355,1); } 100% { transform: translate(800.647974px,123.89531px) rotate(0deg) translate(-890.817px,-142.717px); } }
@keyframes hand_left_t { 0% { transform: translate(924.478438px,128.460519px) rotate(0deg) translate(-1014.1px,-148.395px); animation-timing-function: cubic-bezier(0.645,0.045,0.355,1); } 14.2857% { transform: translate(924.478438px,128.460519px) rotate(10deg) translate(-1014.1px,-148.395px); animation-timing-function: cubic-bezier(0.645,0.045,0.355,1); } 28.5714% { transform: translate(924.478438px,128.460519px) rotate(0deg) translate(-1014.1px,-148.395px); animation-timing-function: cubic-bezier(0.645,0.045,0.355,1); } 42.8571% { transform: translate(924.478438px,128.460519px) rotate(0deg) translate(-1014.1px,-148.395px); animation-timing-function: cubic-bezier(0.645,0.045,0.355,1); } 57.1428% { transform: translate(924.478438px,128.460519px) rotate(10deg) translate(-1014.1px,-148.395px); animation-timing-function: cubic-bezier(0.645,0.045,0.355,1); } 71.4285% { transform: translate(924.478438px,128.460519px) rotate(0deg) translate(-1014.1px,-148.395px); animation-timing-function: cubic-bezier(0.645,0.045,0.355,1); } 85.7142% { transform: translate(924.478438px,128.460519px) rotate(10deg) translate(-1014.1px,-148.395px); animation-timing-function: cubic-bezier(0.645,0.045,0.355,1); } 100% { transform: translate(924.478438px,128.460519px) rotate(0deg) translate(-1014.1px,-148.395px); } }
@keyframes shine-2_t { 0% { transform: translate(0px,0px); } 42.8571% { transform: translate(0px,0px); animation-timing-function: cubic-bezier(0.645,0.045,0.355,1); } 85.7142% { transform: translate(150px,0px); } 100% { transform: translate(150px,0px); } }
@keyframes a3_o { 0% { opacity: 1; animation-timing-function: cubic-bezier(0.645,0.045,0.355,1); } 42.8571% { opacity: 0; animation-timing-function: cubic-bezier(0.645,0.045,0.355,1); } 85.7143% { opacity: 1; } 100% { opacity: 1; } }
@keyframes a4_o { 0% { opacity: 1; animation-timing-function: cubic-bezier(0.42,0,0.58,1); } 42.8571% { opacity: 0; animation-timing-function: cubic-bezier(0.42,0,0.58,1); } 85.7143% { opacity: 1; animation-timing-function: cubic-bezier(0.42,0,0.58,1); } 100% { opacity: 1; } }
    </style>
    <defs>
        <filter id="Filter-0" x="-10%" y="-13%" width="123%" height="136%" color-interpolation-filters="sRGB">
            <feGaussianBlur stdDeviation="2"></feGaussianBlur>
        </filter>
        <filter id="Filter-1" x="-71%" y="-63%" width="312%" height="287%" color-interpolation-filters="sRGB">
            <feGaussianBlur stdDeviation="3"></feGaussianBlur>
        </filter>
        <linearGradient id="Gradient-0" x1="532.461" y1="-10.3906" x2="574.853" y2="177.348" gradientUnits="userSpaceOnUse">
            <stop offset="0" stop-color="#4e309c"></stop>
            <stop offset="1" stop-color="#3b2475"></stop>
        </linearGradient>
        <linearGradient id="Gradient-1" x1="156.204" y1="27.3178" x2="156.204" y2="211.626" gradientUnits="userSpaceOnUse">
            <stop offset="0" stop-color="#ffcf00"></stop>
            <stop offset="1" stop-color="#ff9c00"></stop>
        </linearGradient>
        <linearGradient id="Gradient-2" x1="235.886" y1="27.3178" x2="235.886" y2="211.626" gradientUnits="userSpaceOnUse">
            <stop offset="0" stop-color="#ffcf00"></stop>
            <stop offset="1" stop-color="#ff9c00"></stop>
        </linearGradient>
        <radialGradient id="Gradient-3" cx="874.239" cy="98.9074" r="62.3384" fx="874.239" fy="98.9074" gradientUnits="userSpaceOnUse">
            <stop offset="0" stop-color="#b0ffff"></stop>
            <stop offset="0.1391" stop-color="#94ffff"></stop>
            <stop offset="0.5568" stop-color="#45fffe"></stop>
            <stop offset="0.8539" stop-color="#13fffe"></stop>
            <stop offset="1" stop-color="#00fffe"></stop>
        </radialGradient>
        <linearGradient id="Gradient-4" x1="1026.43" y1="126.374" x2="1022.67" y2="199.58" gradientUnits="userSpaceOnUse">
            <stop offset="0" stop-color="#8d9fd4"></stop>
            <stop offset="0.2639" stop-color="#7a8bcd"></stop>
            <stop offset="0.8024" stop-color="#4a57bb"></stop>
            <stop offset="0.9934" stop-color="#3743b4"></stop>
        </linearGradient>
        <linearGradient id="Gradient-5" x1="958.367" y1="194.909" x2="927.958" y2="71.0225" gradientUnits="userSpaceOnUse">
            <stop offset="0.3532" stop-color="#4358ff"></stop>
            <stop offset="0.456" stop-color="#5540ff"></stop>
            <stop offset="0.6703" stop-color="#7812ff"></stop>
            <stop offset="0.7779" stop-color="#8500ff"></stop>
        </linearGradient>
        <linearGradient id="Gradient-6" x1="892.852" y1="82.4155" x2="926.076" y2="154.213" gradientUnits="userSpaceOnUse">
            <stop offset="0.2482" stop-color="#ffffff"></stop>
            <stop offset="0.706" stop-color="#00fffe"></stop>
        </linearGradient>
        <linearGradient id="Gradient-7" x1="927.314" y1="66.4683" x2="960.539" y2="138.266" gradientUnits="userSpaceOnUse">
            <stop offset="0.3347" stop-color="#ffffff"></stop>
            <stop offset="0.8296" stop-color="#00fffe"></stop>
        </linearGradient>
        <clipPath id="SVGID_3_">
            <path id="SVGID_2_" class="st1" d="M1005.8,194.3L122.4,194.3C110,194.3,99.9,184.2,99.9,171.8L99.9,87.7C99.9,75.3,110,65.2,122.4,65.2L1005.8,65.2C1018.2,65.2,1028.3,75.3,1028.3,87.7L1028.3,171.8C1028.3,184.2,1018.2,194.3,1005.8,194.3Z" opacity="6.000000e-02"></path>
        </clipPath>
        <clipPath id="SVGID_3_-2">
            <path id="SVGID_2_-2" class="st1" d="M1005.8,194.3L122.4,194.3C110,194.3,99.9,184.2,99.9,171.8L99.9,87.7C99.9,75.3,110,65.2,122.4,65.2L1005.8,65.2C1018.2,65.2,1028.3,75.3,1028.3,87.7L1028.3,171.8C1028.3,184.2,1018.2,194.3,1005.8,194.3Z" opacity="6.000000e-02"></path>
        </clipPath>
        <clipPath id="SVGID_3_-3">
            <path id="SVGID_2_-3" class="st1" d="M1005.8,194.3L122.4,194.3C110,194.3,99.9,184.2,99.9,171.8L99.9,87.7C99.9,75.3,110,65.2,122.4,65.2L1005.8,65.2C1018.2,65.2,1028.3,75.3,1028.3,87.7L1028.3,171.8C1028.3,184.2,1018.2,194.3,1005.8,194.3Z" opacity="6.000000e-02"></path>
        </clipPath>
        <clipPath id="SVGID_3_-4">
            <path id="SVGID_2_-4" class="st1" d="M1005.8,194.3L122.4,194.3C110,194.3,99.9,184.2,99.9,171.8L99.9,87.7C99.9,75.3,110,65.2,122.4,65.2L1005.8,65.2C1018.2,65.2,1028.3,75.3,1028.3,87.7L1028.3,171.8C1028.3,184.2,1018.2,194.3,1005.8,194.3Z" opacity="6.000000e-02"></path>
        </clipPath>
        <clipPath id="SVGID_3_-5">
            <path id="SVGID_2_-5" class="st1" d="M1005.8,194.3L122.4,194.3C110,194.3,99.9,184.2,99.9,171.8L99.9,87.7C99.9,75.3,110,65.2,122.4,65.2L1005.8,65.2C1018.2,65.2,1028.3,75.3,1028.3,87.7L1028.3,171.8C1028.3,184.2,1018.2,194.3,1005.8,194.3Z" opacity="6.000000e-02"></path>
        </clipPath>
        <clipPath id="SVGID_3_-6">
            <path id="SVGID_2_-6" class="st1" d="M1005.8,194.3L122.4,194.3C110,194.3,99.9,184.2,99.9,171.8L99.9,87.7C99.9,75.3,110,65.2,122.4,65.2L1005.8,65.2C1018.2,65.2,1028.3,75.3,1028.3,87.7L1028.3,171.8C1028.3,184.2,1018.2,194.3,1005.8,194.3Z" opacity="6.000000e-02"></path>
        </clipPath>
        <clipPath id="SVGID_3_-7">
            <path id="SVGID_2_-7" class="st1" d="M1005.8,194.3L122.4,194.3C110,194.3,99.9,184.2,99.9,171.8L99.9,87.7C99.9,75.3,110,65.2,122.4,65.2L1005.8,65.2C1018.2,65.2,1028.3,75.3,1028.3,87.7L1028.3,171.8C1028.3,184.2,1018.2,194.3,1005.8,194.3Z" opacity="6.000000e-02"></path>
        </clipPath>
        <clipPath id="SVGID_3_-8">
            <path id="SVGID_2_-8" class="st1" d="M1005.8,194.3L122.4,194.3C110,194.3,99.9,184.2,99.9,171.8L99.9,87.7C99.9,75.3,110,65.2,122.4,65.2L1005.8,65.2C1018.2,65.2,1028.3,75.3,1028.3,87.7L1028.3,171.8C1028.3,184.2,1018.2,194.3,1005.8,194.3Z" opacity="6.000000e-02"></path>
        </clipPath>
        <clipPath id="SVGID_3_-9">
            <path id="SVGID_2_-9" class="st1" d="M1005.8,194.3L122.4,194.3C110,194.3,99.9,184.2,99.9,171.8L99.9,87.7C99.9,75.3,110,65.2,122.4,65.2L1005.8,65.2C1018.2,65.2,1028.3,75.3,1028.3,87.7L1028.3,171.8C1028.3,184.2,1018.2,194.3,1005.8,194.3Z" opacity="6.000000e-02"></path>
        </clipPath>
        <clipPath id="SVGID_3_-10">
            <path id="SVGID_2_-10" class="st1" d="M1005.8,194.3L122.4,194.3C110,194.3,99.9,184.2,99.9,171.8L99.9,87.7C99.9,75.3,110,65.2,122.4,65.2L1005.8,65.2C1018.2,65.2,1028.3,75.3,1028.3,87.7L1028.3,171.8C1028.3,184.2,1018.2,194.3,1005.8,194.3Z" opacity="6.000000e-02"></path>
        </clipPath>
        <clipPath id="SVGID_5_">
            <path id="SVGID_4_" d="M438.7,194.3L122.4,194.3C110,194.3,99.9,184.2,99.9,171.8L99.9,87.7C99.9,75.3,110,65.2,122.4,65.2L438.7,65.2C451.1,65.2,461.2,75.3,461.2,87.7L461.2,171.8C461.1,184.2,451.1,194.3,438.7,194.3Z"></path>
        </clipPath>
        <clipPath id="SVGID_5_-2">
            <path id="SVGID_4_-2" d="M438.7,194.3L122.4,194.3C110,194.3,99.9,184.2,99.9,171.8L99.9,87.7C99.9,75.3,110,65.2,122.4,65.2L438.7,65.2C451.1,65.2,461.2,75.3,461.2,87.7L461.2,171.8C461.1,184.2,451.1,194.3,438.7,194.3Z"></path>
        </clipPath>
        <clipPath id="SVGID_5_-3">
            <path id="SVGID_4_-3" d="M438.7,194.3L122.4,194.3C110,194.3,99.9,184.2,99.9,171.8L99.9,87.7C99.9,75.3,110,65.2,122.4,65.2L438.7,65.2C451.1,65.2,461.2,75.3,461.2,87.7L461.2,171.8C461.1,184.2,451.1,194.3,438.7,194.3Z"></path>
        </clipPath>
        <clipPath id="SVGID_5_-4">
            <path id="SVGID_4_-4" d="M438.7,194.3L122.4,194.3C110,194.3,99.9,184.2,99.9,171.8L99.9,87.7C99.9,75.3,110,65.2,122.4,65.2L438.7,65.2C451.1,65.2,461.2,75.3,461.2,87.7L461.2,171.8C461.1,184.2,451.1,194.3,438.7,194.3Z"></path>
        </clipPath>
        <clipPath id="SVGID_5_-5">
            <path id="SVGID_4_-5" d="M438.7,194.3L122.4,194.3C110,194.3,99.9,184.2,99.9,171.8L99.9,87.7C99.9,75.3,110,65.2,122.4,65.2L438.7,65.2C451.1,65.2,461.2,75.3,461.2,87.7L461.2,171.8C461.1,184.2,451.1,194.3,438.7,194.3Z"></path>
        </clipPath>
        <clipPath id="SVGID_5_-6">
            <path id="SVGID_4_-6" d="M438.7,194.3L122.4,194.3C110,194.3,99.9,184.2,99.9,171.8L99.9,87.7C99.9,75.3,110,65.2,122.4,65.2L438.7,65.2C451.1,65.2,461.2,75.3,461.2,87.7L461.2,171.8C461.1,184.2,451.1,194.3,438.7,194.3Z"></path>
        </clipPath>
        <clipPath id="SVGID_5_-7">
            <path id="SVGID_4_-7" d="M438.7,194.3L122.4,194.3C110,194.3,99.9,184.2,99.9,171.8L99.9,87.7C99.9,75.3,110,65.2,122.4,65.2L438.7,65.2C451.1,65.2,461.2,75.3,461.2,87.7L461.2,171.8C461.1,184.2,451.1,194.3,438.7,194.3Z"></path>
        </clipPath>
        <clipPath id="ClipPath-3">
            <path class="st11" d="M143.5,71C148.2,67.8,154.6,67.4,159.6,69.2C177.5,75.7,177.7,111.9,177.1,130.5C176.5,149.9,173.7,163.4,169.6,172C163.6,171.1,156.2,174.7,151.8,179.2C151.55,179.1,151.275,179,151.001,178.9L150.999,178.9C150.725,178.8,150.45,178.7,150.2,178.6C149.8,178.1,149.2,177.7,148.6,177.3C144.67,168.505,142.141,151.654,139.374,133.221L139.369,133.184C139.181,131.93,138.991,130.667,138.8,129.4C134.7,101.7,131.6,79,143.5,71Z" fill="url(#Gradient-1)" fill-rule="evenodd" transform="translate(-107.907,81.2534)"></path>
        </clipPath>
        <clipPath id="SVGID_5_-8">
            <path id="SVGID_4_-8" d="M438.7,194.3L122.4,194.3C110,194.3,99.9,184.2,99.9,171.8L99.9,87.7C99.9,75.3,110,65.2,122.4,65.2L438.7,65.2C451.1,65.2,461.2,75.3,461.2,87.7L461.2,171.8C461.1,184.2,451.1,194.3,438.7,194.3Z"></path>
        </clipPath>
        <clipPath id="SVGID_5_-9">
            <path id="SVGID_4_-9" d="M438.7,194.3L122.4,194.3C110,194.3,99.9,184.2,99.9,171.8L99.9,87.7C99.9,75.3,110,65.2,122.4,65.2L438.7,65.2C451.1,65.2,461.2,75.3,461.2,87.7L461.2,171.8C461.1,184.2,451.1,194.3,438.7,194.3Z"></path>
        </clipPath>
        <clipPath id="SVGID_5_-10">
            <path id="SVGID_4_-10" d="M438.7,194.3L122.4,194.3C110,194.3,99.9,184.2,99.9,171.8L99.9,87.7C99.9,75.3,110,65.2,122.4,65.2L438.7,65.2C451.1,65.2,461.2,75.3,461.2,87.7L461.2,171.8C461.1,184.2,451.1,194.3,438.7,194.3Z"></path>
        </clipPath>
        <clipPath id="ClipPath-4">
            <path class="st14" d="M255.9,199.3C244.2,199.4,232.6,199.7,220.9,200.4C220.1,195.3,219.3,189.9,218.5,184.3C214.4,156.6,211.3,133.9,223.2,125.9C227.9,122.7,234.3,122.3,239.3,124.1C257.2,130.6,257.4,166.7,256.8,185.5C256.6,190.5,256.3,195.1,255.9,199.3Z" fill="url(#Gradient-2)" fill-rule="evenodd" transform="translate(-190.46,-150.416)"></path>
        </clipPath>
        <clipPath id="SVGID_5_-11">
            <path id="SVGID_4_-11" d="M438.7,194.3L122.4,194.3C110,194.3,99.9,184.2,99.9,171.8L99.9,87.7C99.9,75.3,110,65.2,122.4,65.2L438.7,65.2C451.1,65.2,461.2,75.3,461.2,87.7L461.2,171.8C461.1,184.2,451.1,194.3,438.7,194.3Z"></path>
        </clipPath>
        <clipPath id="SVGID_5_-12">
            <path id="SVGID_4_-12" d="M438.7,194.3L122.4,194.3C110,194.3,99.9,184.2,99.9,171.8L99.9,87.7C99.9,75.3,110,65.2,122.4,65.2L438.7,65.2C451.1,65.2,461.2,75.3,461.2,87.7L461.2,171.8C461.1,184.2,451.1,194.3,438.7,194.3Z"></path>
        </clipPath>
        <clipPath id="SVGID_5_-13">
            <path id="SVGID_4_-13" d="M438.7,194.3L122.4,194.3C110,194.3,99.9,184.2,99.9,171.8L99.9,87.7C99.9,75.3,110,65.2,122.4,65.2L438.7,65.2C451.1,65.2,461.2,75.3,461.2,87.7L461.2,171.8C461.1,184.2,451.1,194.3,438.7,194.3Z"></path>
        </clipPath>
        <clipPath id="SVGID_5_-14">
            <path id="SVGID_4_-14" d="M438.7,194.3L122.4,194.3C110,194.3,99.9,184.2,99.9,171.8L99.9,87.7C99.9,75.3,110,65.2,122.4,65.2L438.7,65.2C451.1,65.2,461.2,75.3,461.2,87.7L461.2,171.8C461.1,184.2,451.1,194.3,438.7,194.3Z"></path>
        </clipPath>
        <clipPath id="SVGID_5_-15">
            <path id="SVGID_4_-15" d="M438.7,194.3L122.4,194.3C110,194.3,99.9,184.2,99.9,171.8L99.9,87.7C99.9,75.3,110,65.2,122.4,65.2L438.7,65.2C451.1,65.2,461.2,75.3,461.2,87.7L461.2,171.8C461.1,184.2,451.1,194.3,438.7,194.3Z"></path>
        </clipPath>
        <clipPath id="SVGID_5_-16">
            <path id="SVGID_4_-16" d="M438.7,194.3L122.4,194.3C110,194.3,99.9,184.2,99.9,171.8L99.9,87.7C99.9,75.3,110,65.2,122.4,65.2L438.7,65.2C451.1,65.2,461.2,75.3,461.2,87.7L461.2,171.8C461.1,184.2,451.1,194.3,438.7,194.3Z"></path>
        </clipPath>
        <clipPath id="SVGID_5_-17">
            <path id="SVGID_4_-17" d="M438.7,194.3L122.4,194.3C110,194.3,99.9,184.2,99.9,171.8L99.9,87.7C99.9,75.3,110,65.2,122.4,65.2L438.7,65.2C451.1,65.2,461.2,75.3,461.2,87.7L461.2,171.8C461.1,184.2,451.1,194.3,438.7,194.3Z"></path>
        </clipPath>
        <clipPath id="SVGID_5_-18">
            <path id="SVGID_4_-18" d="M438.7,194.3L122.4,194.3C110,194.3,99.9,184.2,99.9,171.8L99.9,87.7C99.9,75.3,110,65.2,122.4,65.2L438.7,65.2C451.1,65.2,461.2,75.3,461.2,87.7L461.2,171.8C461.1,184.2,451.1,194.3,438.7,194.3Z"></path>
        </clipPath>
        <clipPath id="SVGID_5_-19">
            <path id="SVGID_4_-19" d="M438.7,194.3L122.4,194.3C110,194.3,99.9,184.2,99.9,171.8L99.9,87.7C99.9,75.3,110,65.2,122.4,65.2L438.7,65.2C451.1,65.2,461.2,75.3,461.2,87.7L461.2,171.8C461.1,184.2,451.1,194.3,438.7,194.3Z"></path>
        </clipPath>
        <clipPath id="SVGID_9_">
            <path id="SVGID_8_" d="M1005.8,194.3L650.9,194.3C638.5,194.3,628.4,184.2,628.4,171.8L628.4,87.7C628.4,75.3,638.5,65.2,650.9,65.2C757.9,65.2,808.2,65.2,808.2,65.2C808.2,65.2,819.2,56.9,834.8,48.4C869.5,29.6,911.2,28,946.9,44.8C967.3,54.4,975.7,65.2,975.7,65.2L1005.9,65.2C1005.9,65.2,1015.4,65.3,1021.8,71.8C1025.9,75.9,1028.4,81.5,1028.4,87.7L1028.4,171.8C1028.3,184.2,1018.2,194.3,1005.8,194.3Z"></path>
        </clipPath>
        <clipPath id="SVGID_9_-2">
            <path id="SVGID_8_-2" d="M1005.8,194.3L650.9,194.3C638.5,194.3,628.4,184.2,628.4,171.8L628.4,87.7C628.4,75.3,638.5,65.2,650.9,65.2C757.9,65.2,808.2,65.2,808.2,65.2C808.2,65.2,819.2,56.9,834.8,48.4C869.5,29.6,911.2,28,946.9,44.8C967.3,54.4,975.7,65.2,975.7,65.2L1005.9,65.2C1005.9,65.2,1015.4,65.3,1021.8,71.8C1025.9,75.9,1028.4,81.5,1028.4,87.7L1028.4,171.8C1028.3,184.2,1018.2,194.3,1005.8,194.3Z"></path>
        </clipPath>
        <clipPath id="SVGID_9_-3">
            <path id="SVGID_8_-3" d="M1005.8,194.3L650.9,194.3C638.5,194.3,628.4,184.2,628.4,171.8L628.4,87.7C628.4,75.3,638.5,65.2,650.9,65.2C757.9,65.2,808.2,65.2,808.2,65.2C808.2,65.2,819.2,56.9,834.8,48.4C869.5,29.6,911.2,28,946.9,44.8C967.3,54.4,975.7,65.2,975.7,65.2L1005.9,65.2C1005.9,65.2,1015.4,65.3,1021.8,71.8C1025.9,75.9,1028.4,81.5,1028.4,87.7L1028.4,171.8C1028.3,184.2,1018.2,194.3,1005.8,194.3Z"></path>
        </clipPath>
        <clipPath id="SVGID_9_-4">
            <path id="SVGID_8_-4" d="M1005.8,194.3L650.9,194.3C638.5,194.3,628.4,184.2,628.4,171.8L628.4,87.7C628.4,75.3,638.5,65.2,650.9,65.2C757.9,65.2,808.2,65.2,808.2,65.2C808.2,65.2,819.2,56.9,834.8,48.4C869.5,29.6,911.2,28,946.9,44.8C967.3,54.4,975.7,65.2,975.7,65.2L1005.9,65.2C1005.9,65.2,1015.4,65.3,1021.8,71.8C1025.9,75.9,1028.4,81.5,1028.4,87.7L1028.4,171.8C1028.3,184.2,1018.2,194.3,1005.8,194.3Z"></path>
        </clipPath>
        <clipPath id="ClipPath-2">
            <path class="st24" d="M920.9,76.3L918.8,69.5L935.4,55.7L931.1,41.9C925.5,39.8,918.4,37.7,910,36.5C900.8,35.1,892.7,35.2,886.4,35.7C877.2,37.4,868,39.1,858.8,40.8L849.5,51.8L828.7,54.5L813,74.1L813.4,91.9L833.6,93.8L838.1,115.3L835,118C838.4,121,842.6,125.6,846.2,132.1C853.1,144.7,853,156.8,852.6,162.4C857.2,158.3,861.9,154.1,866.5,150L879.5,153.6L890.1,142.8L920.9,76.3Z" fill="url(#Gradient-3)" clip-path="url(#SVGID_9_-23)" transform="translate(-720.856,-21.5179)"></path>
        </clipPath>
        <clipPath id="SVGID_9_-23">
            <path id="SVGID_8_-23" d="M1005.8,194.3L650.9,194.3C638.5,194.3,628.4,184.2,628.4,171.8L628.4,87.7C628.4,75.3,638.5,65.2,650.9,65.2C757.9,65.2,808.2,65.2,808.2,65.2C808.2,65.2,819.2,56.9,834.8,48.4C869.5,29.6,911.2,28,946.9,44.8C967.3,54.4,975.7,65.2,975.7,65.2L1005.9,65.2C1005.9,65.2,1015.4,65.3,1021.8,71.8C1025.9,75.9,1028.4,81.5,1028.4,87.7L1028.4,171.8C1028.3,184.2,1018.2,194.3,1005.8,194.3Z"></path>
        </clipPath>
        <clipPath id="SVGID_9_-5">
            <path id="SVGID_8_-5" d="M1005.8,194.3L650.9,194.3C638.5,194.3,628.4,184.2,628.4,171.8L628.4,87.7C628.4,75.3,638.5,65.2,650.9,65.2C757.9,65.2,808.2,65.2,808.2,65.2C808.2,65.2,819.2,56.9,834.8,48.4C869.5,29.6,911.2,28,946.9,44.8C967.3,54.4,975.7,65.2,975.7,65.2L1005.9,65.2C1005.9,65.2,1015.4,65.3,1021.8,71.8C1025.9,75.9,1028.4,81.5,1028.4,87.7L1028.4,171.8C1028.3,184.2,1018.2,194.3,1005.8,194.3Z"></path>
        </clipPath>
        <clipPath id="SVGID_9_-6">
            <path id="SVGID_8_-6" d="M1005.8,194.3L650.9,194.3C638.5,194.3,628.4,184.2,628.4,171.8L628.4,87.7C628.4,75.3,638.5,65.2,650.9,65.2C757.9,65.2,808.2,65.2,808.2,65.2C808.2,65.2,819.2,56.9,834.8,48.4C869.5,29.6,911.2,28,946.9,44.8C967.3,54.4,975.7,65.2,975.7,65.2L1005.9,65.2C1005.9,65.2,1015.4,65.3,1021.8,71.8C1025.9,75.9,1028.4,81.5,1028.4,87.7L1028.4,171.8C1028.3,184.2,1018.2,194.3,1005.8,194.3Z"></path>
        </clipPath>
        <clipPath id="SVGID_9_-7">
            <path id="SVGID_8_-7" d="M1005.8,194.3L650.9,194.3C638.5,194.3,628.4,184.2,628.4,171.8L628.4,87.7C628.4,75.3,638.5,65.2,650.9,65.2C757.9,65.2,808.2,65.2,808.2,65.2C808.2,65.2,819.2,56.9,834.8,48.4C869.5,29.6,911.2,28,946.9,44.8C967.3,54.4,975.7,65.2,975.7,65.2L1005.9,65.2C1005.9,65.2,1015.4,65.3,1021.8,71.8C1025.9,75.9,1028.4,81.5,1028.4,87.7L1028.4,171.8C1028.3,184.2,1018.2,194.3,1005.8,194.3Z"></path>
        </clipPath>
        <clipPath id="SVGID_9_-8">
            <path id="SVGID_8_-8" d="M1005.8,194.3L650.9,194.3C638.5,194.3,628.4,184.2,628.4,171.8L628.4,87.7C628.4,75.3,638.5,65.2,650.9,65.2C757.9,65.2,808.2,65.2,808.2,65.2C808.2,65.2,819.2,56.9,834.8,48.4C869.5,29.6,911.2,28,946.9,44.8C967.3,54.4,975.7,65.2,975.7,65.2L1005.9,65.2C1005.9,65.2,1015.4,65.3,1021.8,71.8C1025.9,75.9,1028.4,81.5,1028.4,87.7L1028.4,171.8C1028.3,184.2,1018.2,194.3,1005.8,194.3Z"></path>
        </clipPath>
        <clipPath id="SVGID_9_-9">
            <path id="SVGID_8_-9" d="M1005.8,194.3L650.9,194.3C638.5,194.3,628.4,184.2,628.4,171.8L628.4,87.7C628.4,75.3,638.5,65.2,650.9,65.2C757.9,65.2,808.2,65.2,808.2,65.2C808.2,65.2,819.2,56.9,834.8,48.4C869.5,29.6,911.2,28,946.9,44.8C967.3,54.4,975.7,65.2,975.7,65.2L1005.9,65.2C1005.9,65.2,1015.4,65.3,1021.8,71.8C1025.9,75.9,1028.4,81.5,1028.4,87.7L1028.4,171.8C1028.3,184.2,1018.2,194.3,1005.8,194.3Z"></path>
        </clipPath>
        <clipPath id="SVGID_9_-10">
            <path id="SVGID_8_-10" d="M1005.8,194.3L650.9,194.3C638.5,194.3,628.4,184.2,628.4,171.8L628.4,87.7C628.4,75.3,638.5,65.2,650.9,65.2C757.9,65.2,808.2,65.2,808.2,65.2C808.2,65.2,819.2,56.9,834.8,48.4C869.5,29.6,911.2,28,946.9,44.8C967.3,54.4,975.7,65.2,975.7,65.2L1005.9,65.2C1005.9,65.2,1015.4,65.3,1021.8,71.8C1025.9,75.9,1028.4,81.5,1028.4,87.7L1028.4,171.8C1028.3,184.2,1018.2,194.3,1005.8,194.3Z"></path>
        </clipPath>
        <clipPath id="SVGID_9_-11">
            <path id="SVGID_8_-11" d="M1005.8,194.3L650.9,194.3C638.5,194.3,628.4,184.2,628.4,171.8L628.4,87.7C628.4,75.3,638.5,65.2,650.9,65.2C757.9,65.2,808.2,65.2,808.2,65.2C808.2,65.2,819.2,56.9,834.8,48.4C869.5,29.6,911.2,28,946.9,44.8C967.3,54.4,975.7,65.2,975.7,65.2L1005.9,65.2C1005.9,65.2,1015.4,65.3,1021.8,71.8C1025.9,75.9,1028.4,81.5,1028.4,87.7L1028.4,171.8C1028.3,184.2,1018.2,194.3,1005.8,194.3Z" transform="translate(-987.8,-158.3)"></path>
        </clipPath>
        <clipPath id="SVGID_9_-12">
            <path id="SVGID_8_-12" d="M1005.8,194.3L650.9,194.3C638.5,194.3,628.4,184.2,628.4,171.8L628.4,87.7C628.4,75.3,638.5,65.2,650.9,65.2C757.9,65.2,808.2,65.2,808.2,65.2C808.2,65.2,819.2,56.9,834.8,48.4C869.5,29.6,911.2,28,946.9,44.8C967.3,54.4,975.7,65.2,975.7,65.2L1005.9,65.2C1005.9,65.2,1015.4,65.3,1021.8,71.8C1025.9,75.9,1028.4,81.5,1028.4,87.7L1028.4,171.8C1028.3,184.2,1018.2,194.3,1005.8,194.3Z"></path>
        </clipPath>
        <clipPath id="SVGID_9_-13">
            <path id="SVGID_8_-13" d="M1005.8,194.3L650.9,194.3C638.5,194.3,628.4,184.2,628.4,171.8L628.4,87.7C628.4,75.3,638.5,65.2,650.9,65.2C757.9,65.2,808.2,65.2,808.2,65.2C808.2,65.2,819.2,56.9,834.8,48.4C869.5,29.6,911.2,28,946.9,44.8C967.3,54.4,975.7,65.2,975.7,65.2L1005.9,65.2C1005.9,65.2,1015.4,65.3,1021.8,71.8C1025.9,75.9,1028.4,81.5,1028.4,87.7L1028.4,171.8C1028.3,184.2,1018.2,194.3,1005.8,194.3Z"></path>
        </clipPath>
        <clipPath id="SVGID_9_-14">
            <path id="SVGID_8_-14" d="M1005.8,194.3L650.9,194.3C638.5,194.3,628.4,184.2,628.4,171.8L628.4,87.7C628.4,75.3,638.5,65.2,650.9,65.2C757.9,65.2,808.2,65.2,808.2,65.2C808.2,65.2,819.2,56.9,834.8,48.4C869.5,29.6,911.2,28,946.9,44.8C967.3,54.4,975.7,65.2,975.7,65.2L1005.9,65.2C1005.9,65.2,1015.4,65.3,1021.8,71.8C1025.9,75.9,1028.4,81.5,1028.4,87.7L1028.4,171.8C1028.3,184.2,1018.2,194.3,1005.8,194.3Z"></path>
        </clipPath>
        <clipPath id="SVGID_9_-15">
            <path id="SVGID_8_-15" d="M1005.8,194.3L650.9,194.3C638.5,194.3,628.4,184.2,628.4,171.8L628.4,87.7C628.4,75.3,638.5,65.2,650.9,65.2C757.9,65.2,808.2,65.2,808.2,65.2C808.2,65.2,819.2,56.9,834.8,48.4C869.5,29.6,911.2,28,946.9,44.8C967.3,54.4,975.7,65.2,975.7,65.2L1005.9,65.2C1005.9,65.2,1015.4,65.3,1021.8,71.8C1025.9,75.9,1028.4,81.5,1028.4,87.7L1028.4,171.8C1028.3,184.2,1018.2,194.3,1005.8,194.3Z"></path>
        </clipPath>
        <clipPath id="SVGID_9_-16">
            <path id="SVGID_8_-16" d="M1005.8,194.3L650.9,194.3C638.5,194.3,628.4,184.2,628.4,171.8L628.4,87.7C628.4,75.3,638.5,65.2,650.9,65.2C757.9,65.2,808.2,65.2,808.2,65.2C808.2,65.2,819.2,56.9,834.8,48.4C869.5,29.6,911.2,28,946.9,44.8C967.3,54.4,975.7,65.2,975.7,65.2L1005.9,65.2C1005.9,65.2,1015.4,65.3,1021.8,71.8C1025.9,75.9,1028.4,81.5,1028.4,87.7L1028.4,171.8C1028.3,184.2,1018.2,194.3,1005.8,194.3Z"></path>
        </clipPath>
        <clipPath id="SVGID_9_-17">
            <path id="SVGID_8_-17" d="M1005.8,194.3L650.9,194.3C638.5,194.3,628.4,184.2,628.4,171.8L628.4,87.7C628.4,75.3,638.5,65.2,650.9,65.2C757.9,65.2,808.2,65.2,808.2,65.2C808.2,65.2,819.2,56.9,834.8,48.4C869.5,29.6,911.2,28,946.9,44.8C967.3,54.4,975.7,65.2,975.7,65.2L1005.9,65.2C1005.9,65.2,1015.4,65.3,1021.8,71.8C1025.9,75.9,1028.4,81.5,1028.4,87.7L1028.4,171.8C1028.3,184.2,1018.2,194.3,1005.8,194.3Z"></path>
        </clipPath>
        <clipPath id="SVGID_9_-18">
            <path id="SVGID_8_-18" d="M1005.8,194.3L650.9,194.3C638.5,194.3,628.4,184.2,628.4,171.8L628.4,87.7C628.4,75.3,638.5,65.2,650.9,65.2C757.9,65.2,808.2,65.2,808.2,65.2C808.2,65.2,819.2,56.9,834.8,48.4C869.5,29.6,911.2,28,946.9,44.8C967.3,54.4,975.7,65.2,975.7,65.2L1005.9,65.2C1005.9,65.2,1015.4,65.3,1021.8,71.8C1025.9,75.9,1028.4,81.5,1028.4,87.7L1028.4,171.8C1028.3,184.2,1018.2,194.3,1005.8,194.3Z"></path>
        </clipPath>
        <clipPath id="SVGID_9_-19">
            <path id="SVGID_8_-19" d="M1005.8,194.3L650.9,194.3C638.5,194.3,628.4,184.2,628.4,171.8L628.4,87.7C628.4,75.3,638.5,65.2,650.9,65.2C757.9,65.2,808.2,65.2,808.2,65.2C808.2,65.2,819.2,56.9,834.8,48.4C869.5,29.6,911.2,28,946.9,44.8C967.3,54.4,975.7,65.2,975.7,65.2L1005.9,65.2C1005.9,65.2,1015.4,65.3,1021.8,71.8C1025.9,75.9,1028.4,81.5,1028.4,87.7L1028.4,171.8C1028.3,184.2,1018.2,194.3,1005.8,194.3Z"></path>
        </clipPath>
        <clipPath id="SVGID_9_-20">
            <path id="SVGID_8_-20" d="M1005.8,194.3L650.9,194.3C638.5,194.3,628.4,184.2,628.4,171.8L628.4,87.7C628.4,75.3,638.5,65.2,650.9,65.2C757.9,65.2,808.2,65.2,808.2,65.2C808.2,65.2,819.2,56.9,834.8,48.4C869.5,29.6,911.2,28,946.9,44.8C967.3,54.4,975.7,65.2,975.7,65.2L1005.9,65.2C1005.9,65.2,1015.4,65.3,1021.8,71.8C1025.9,75.9,1028.4,81.5,1028.4,87.7L1028.4,171.8C1028.3,184.2,1018.2,194.3,1005.8,194.3Z"></path>
        </clipPath>
        <clipPath id="SVGID_9_-21">
            <path id="SVGID_8_-21" d="M1005.8,194.3L650.9,194.3C638.5,194.3,628.4,184.2,628.4,171.8L628.4,87.7C628.4,75.3,638.5,65.2,650.9,65.2C757.9,65.2,808.2,65.2,808.2,65.2C808.2,65.2,819.2,56.9,834.8,48.4C869.5,29.6,911.2,28,946.9,44.8C967.3,54.4,975.7,65.2,975.7,65.2L1005.9,65.2C1005.9,65.2,1015.4,65.3,1021.8,71.8C1025.9,75.9,1028.4,81.5,1028.4,87.7L1028.4,171.8C1028.3,184.2,1018.2,194.3,1005.8,194.3Z"></path>
        </clipPath>
        <clipPath id="SVGID_9_-22">
            <path id="SVGID_8_-22" d="M1005.8,194.3L650.9,194.3C638.5,194.3,628.4,184.2,628.4,171.8L628.4,87.7C628.4,75.3,638.5,65.2,650.9,65.2C757.9,65.2,808.2,65.2,808.2,65.2C808.2,65.2,819.2,56.9,834.8,48.4C869.5,29.6,911.2,28,946.9,44.8C967.3,54.4,975.7,65.2,975.7,65.2L1005.9,65.2C1005.9,65.2,1015.4,65.3,1021.8,71.8C1025.9,75.9,1028.4,81.5,1028.4,87.7L1028.4,171.8C1028.3,184.2,1018.2,194.3,1005.8,194.3Z"></path>
        </clipPath>
        <clipPath id="ClipPath-1">
            <path class="st47" d="M886,107.2C901.5,104.5,919.9,102.4,940.7,102.2C962.6,102,982,104,998.1,106.6C995.9,108.9,992.3,113.5,990.3,120.2C987.4,129.9,991.5,138,992.5,141.1C975.1,140,956.1,138.8,938.7,137.7C938.8,136.6,939.2,130.2,934.4,124.7C929.6,119.2,923.1,118.9,922,118.8C918.9,120,915.8,121.3,912.7,122.5L894.6,121L904.1,134.3L903.7,138.8C903.7,138.8,884.4,143.5,884.1,142.2C883.8,140.9,882,119.7,882,119.7L886,107.2Z" fill="url(#Gradient-5)" transform="translate(-728.1,-95.2)"></path>
        </clipPath>
    </defs>
    <g transform="translate(-90,-20)">
        <path class="st0" d="M1005.8,194.3L122.4,194.3C110,194.3,99.9,184.2,99.9,171.8L99.9,87.7C99.9,75.3,110,65.2,122.4,65.2L1005.8,65.2C1018.2,65.2,1028.3,75.3,1028.3,87.7L1028.3,171.8C1028.3,184.2,1018.2,194.3,1005.8,194.3Z" fill="url(#Gradient-0)"></path>
    </g>
    <g class="st1" opacity="6.000000e-02" clip-path="url(#SVGID_3_)" transform="translate(-90,-20)">
        <g class="st2" clip-path="url(#SVGID_3_-2)">
            <path class="st3" d="M251.6,42.7L251.6,95.6L278.1,95.6L278.1,118.1" stroke-width="3" stroke="#D88DFF" stroke-miterlimit="10" fill="none"></path>
            <path class="st3" d="M443.1,130L443.1,178.3L466,178.3L466.3,216" stroke-width="3" stroke="#D88DFF" stroke-miterlimit="10" fill="none"></path>
            <path class="st3" d="M618.5,42.7L618.5,95.6L578.6,95.6L579,118.1" stroke-width="3" stroke="#D88DFF" stroke-miterlimit="10" fill="none"></path>
            <path class="st3" d="M636.8,135.6L636.8,188.5L604.5,188.6L603.8,226.1" stroke-width="3" stroke="#D88DFF" stroke-miterlimit="10" fill="none"></path>
            <path class="st3" d="M728.6,0L728.6,81.9L702.2,81.9L702.2,116.8" stroke-width="3" stroke="#D88DFF" stroke-miterlimit="10" fill="none"></path>
            <path class="st3" d="M894.3,170.4L812.3,170.4L812.3,144L777.5,144" stroke-width="3" stroke="#D88DFF" stroke-miterlimit="10" fill="none"></path>
        </g>
        <path class="st4" d="M260.7,90.2L260.7,90.2C259.3,90.2,258.2,89.1,258.2,87.7L258.2,87.7C258.2,86.3,259.3,85.2,260.7,85.2L260.7,85.2C262.1,85.2,263.2,86.3,263.2,87.7L263.2,87.7C263.2,89.1,262.1,90.2,260.7,90.2Z" fill="#D88DFF" clip-path="url(#SVGID_3_-3)"></path>
        <path class="st4" d="M262.4,104.9L262.4,104.9C261.3,105.8,259.8,105.7,258.9,104.6L258.9,104.6C258,103.5,258.1,102,259.2,101.1L259.2,101.1C260.3,100.2,261.8,100.3,262.7,101.4L262.7,101.4C263.5,102.4,263.4,104,262.4,104.9Z" fill="#D88DFF" clip-path="url(#SVGID_3_-4)"></path>
        <path class="st5" d="M377.5,165.4L377.5,165.4C376.1,165.4,375,164.3,375,162.9L375,162.9C375,161.5,376.1,160.4,377.5,160.4L377.5,160.4C378.9,160.4,380,161.5,380,162.9L380,162.9C380,164.3,378.9,165.4,377.5,165.4Z" stroke="#D88DFF" stroke-miterlimit="10" fill="none" clip-path="url(#SVGID_3_-5)"></path>
        <path class="st5" d="M379.1,180.2L379.1,180.2C378,181.1,376.5,181,375.6,179.9L375.6,179.9C374.7,178.8,374.8,177.3,375.9,176.4L375.9,176.4C377,175.5,378.5,175.6,379.4,176.7L379.4,176.7C380.3,177.7,380.2,179.3,379.1,180.2Z" stroke="#D88DFF" stroke-miterlimit="10" fill="none" clip-path="url(#SVGID_3_-6)"></path>
        <path class="st4" d="M623.9,77.5L623.9,77.5C623.9,76.1,625,75,626.4,75L626.4,75C627.8,75,628.9,76.1,628.9,77.5L628.9,77.5C628.9,78.9,627.8,80,626.4,80L626.4,80C625,80,623.9,78.9,623.9,77.5Z" fill="#D88DFF" clip-path="url(#SVGID_3_-7)"></path>
        <path class="st4" d="M609.2,79.2L609.2,79.2C608.3,78.1,608.4,76.6,609.5,75.7L609.5,75.7C610.6,74.8,612.1,74.9,613,76L613,76C613.9,77.1,613.8,78.6,612.7,79.5L612.7,79.5C611.6,80.3,610.1,80.2,609.2,79.2Z" fill="#D88DFF" clip-path="url(#SVGID_3_-8)"></path>
        <path class="st5" d="M817.6,155.5L817.6,155.5C817.6,154.1,818.7,153,820.1,153L820.1,153C821.5,153,822.6,154.1,822.6,155.5L822.6,155.5C822.6,156.9,821.5,158,820.1,158L820.1,158C818.7,158,817.6,156.9,817.6,155.5Z" stroke="#D88DFF" stroke-miterlimit="10" fill="none" clip-path="url(#SVGID_3_-9)"></path>
        <path class="st5" d="M802.9,157.1L802.9,157.1C802,156,802.1,154.5,803.2,153.6L803.2,153.6C804.3,152.7,805.8,152.8,806.7,153.9L806.7,153.9C807.6,155,807.5,156.5,806.4,157.4L806.4,157.4C805.4,158.3,803.8,158.2,802.9,157.1Z" stroke="#D88DFF" stroke-miterlimit="10" fill="none" clip-path="url(#SVGID_3_-10)"></path>
    </g>
    <g clip-path="url(#SVGID_5_)" transform="translate(-90,-20)">
        <path class="st6" d="M382.9,195.5C286.8,195.5,190.8,195.5,94.7,195.5C96.1,161.5,97.4,127.5,98.8,93.5C130.1,102.9,156.1,107.4,174.3,109.8C191.6,112.1,208.2,113.2,241.6,115.5C275.9,117.9,288.9,118,311.2,122C329.1,125.2,343.4,129.2,352.7,132C358,133.1,366.7,135.7,375.6,142.1C381.1,146.1,388.6,151.5,391.7,160.7C397.3,177.4,384.3,193.7,382.9,195.5Z" fill="#00AEFF" clip-path="url(#SVGID_5_-2)"></path>
        <path class="st7" d="M329.8,213C233.7,213,137.7,213,41.6,213C43,179,44.3,145,45.7,111C77,120.4,104.3,127.3,122.4,129.7C139.7,132,152.5,136.2,185.8,138.5C220.1,140.9,233.7,138.3,256,142.3C273.9,145.5,291.3,145.4,300.6,148.2C305.9,149.3,312.7,151.6,321.6,158.1C327.1,162.1,335.4,169.2,338.5,178.3C344.2,194.9,331.2,211.2,329.8,213Z" fill="#00E7FF" clip-path="url(#SVGID_5_-3)"></path>
        <path class="st8" d="M288.2,232.6C192.1,232.6,96.1,232.6,0,232.6C1.4,198.6,2.7,164.6,4.1,130.6C35.4,140,62.7,146.9,80.8,149.3C98.1,151.6,111.9,158.4,145.2,160.7C179.5,163.1,192.1,157.9,214.4,161.9C232.3,165.1,249.7,165,259,167.8C264.3,168.9,272.8,170.5,281.6,176.9C287.1,180.9,293.8,188.7,296.9,197.8C302.6,214.5,289.6,230.8,288.2,232.6Z" fill="#47FFF3" clip-path="url(#SVGID_5_-4)"></path>
        <path class="st9" d="M223.2,200.4L86.1,200.4L86.1,159.7L187.2,161.2Z" fill="#00AFFF" clip-path="url(#SVGID_5_-5)"></path>
        <path class="st10" d="M223.2,200.4L86.1,200.4L86.1,159.7L187.2,161.2Z" stroke-miterlimit="10" stroke-width="3" stroke="#14142B" fill="none" stroke-linecap="round" clip-path="url(#SVGID_5_-6)"></path>
        <path class="st11" d="M159.6,69.2C154.6,67.4,148.2,67.8,143.5,71C131.6,79,134.7,101.7,138.8,129.4C141.8,149.3,144.4,167.9,148.6,177.3C149.2,177.7,149.8,178.1,150.2,178.6C150.7,178.8,151.3,179,151.8,179.2C156.2,174.7,163.6,171.1,169.6,172C173.7,163.4,176.5,149.9,177.1,130.5C177.7,111.9,177.5,75.7,159.6,69.2Z" fill="url(#Gradient-1)" clip-path="url(#SVGID_5_-7)"></path>
        <g clip-path="url(#ClipPath-3)" transform="translate(160.634,0.5452) translate(-52.727,-81.7986)">
            <path fill="#ffffff" stroke="none" d="M71.6286,0L33.8254,0L33.8254,17.2441L71.6286,17.2441ZM71.6286,20.2286L33.8254,20.2286L33.8254,27.5242L71.6286,27.5242Z" fill-rule="evenodd" transform="translate(52.727,134.672) translate(-52.727,-13.7621)" style="animation: 3.5s linear infinite both a0_t;"></path>
        </g>
        <path class="st12" d="M145.2,68.3C133.7,68.3,123.2,95.3,124.4,128.6C125.2,150.8,126.7,165.8,130.2,174.3C131.5,174.2,132.8,174.3,134.1,174.5C139.5,174.3,146.9,175.2,150.3,178.6C157.1,171.7,162,156.2,162.8,129.7C163.7,96.5,156.7,68.3,145.2,68.3Z" fill="#FFE67B" clip-path="url(#SVGID_5_-8)"></path>
        <path class="st13" d="M150.9,81.6C139.4,81.6,128.9,108.6,130.1,141.9C130.6,155.3,131.3,166,132.6,174.3C133.1,174.3,133.6,174.4,134.1,174.5C139.5,174.3,146.9,175.2,150.3,178.6C157.1,171.7,162,156.2,162.8,129.7C163.3,113.1,161.8,97.8,158.8,86.6C156.4,83.5,153.8,81.6,150.9,81.6Z" fill="#FFCF00" clip-path="url(#SVGID_5_-9)"></path>
        <path class="st14" d="M220.9,200.4C232.6,199.7,244.2,199.4,255.9,199.3C256.3,195.1,256.6,190.5,256.8,185.5C257.4,166.7,257.2,130.6,239.3,124.1C234.3,122.3,227.9,122.7,223.2,125.9C211.3,133.9,214.4,156.6,218.5,184.3C219.3,189.9,220.1,195.3,220.9,200.4Z" fill="url(#Gradient-2)" clip-path="url(#SVGID_5_-10)"></path>
        <g clip-path="url(#ClipPath-4)" transform="translate(243.187,164.179) translate(-52.727,-13.7621)">
            <g transform="translate(52.727,-42.0161) translate(-52.727,-149.835)" style="animation: 3.5s linear infinite both a1_t;">
                <path fill="#ffffff" stroke="none" d="M105.454,0L0,0L0,17.2441L105.454,17.2441ZM105.454,20.2286L0,20.2286L0,27.5242L105.454,27.5242Z" fill-rule="evenodd" transform="translate(52.727,144.695) translate(-52.727,-8.62203)"></path>
            </g>
        </g>
        <path class="st13" d="M205,201.6C217.1,200.5,229.2,199.8,241.4,199.5C241.9,195,242.2,190,242.4,184.6C243.4,151.3,236.4,123.2,224.9,123.2C213.4,123.2,202.9,150.2,204.1,183.5C204.3,190.2,204.6,196.2,205,201.6Z" fill="#FFCF00" clip-path="url(#SVGID_5_-11)"></path>
        <path class="st12" d="M214.2,193.6C213,160.3,223.5,133.3,235,133.3C235.2,133.3,235.3,133.3,235.5,133.3C232.7,126.9,229.1,123.1,224.9,123.1C213.4,123.1,202.9,150.1,204.1,183.4C204.3,190.1,204.6,196.1,205,201.5C208.2,201.2,211.3,201,214.5,200.7C214.4,198.5,214.3,196.1,214.2,193.6Z" fill="#FFE67B" clip-path="url(#SVGID_5_-12)"></path>
        <path class="st15" d="M145.2,175.4C144.1,176.5,142.1,174.8,137.1,174.3C130.9,173.6,129.9,175.7,125.6,174.7C122,173.8,119.8,171.6,116,167.8C114.3,166,111.4,162.8,108.3,157.3C105.7,152.6,99.6,141.8,102.5,139C104,137.5,107.7,139,114.9,141.9C122.1,144.8,125.7,146.3,129.9,149.6C136.2,154.6,139.1,160,142.1,165.6C144.2,169.1,146.7,173.9,145.2,175.4Z" fill="#3AAF64" clip-path="url(#SVGID_5_-13)"></path>
        <path class="st16" d="M142.2,165.5C139.2,159.9,136.3,154.6,130,149.5C125.8,146.2,122.2,144.7,115,141.8C107.8,138.9,104.1,137.4,102.6,138.9C101.6,139.8,101.7,141.7,102.3,144C104.2,144.6,106.7,145.6,110,146.9C117.2,149.8,120.8,151.3,125,154.6C131.3,159.6,141.3,166.7,144.3,172.3C145,173.6,143.9,172.2,144.6,173.6C148,174.3,144.4,176.4,145.3,175.5C146.7,173.9,144.2,169.1,142.2,165.5Z" fill="#5BD821" clip-path="url(#SVGID_5_-14)"></path>
        <path class="st16" d="M204.1,186.9C203.1,185.9,201.9,184.9,200.7,183.7C194.9,178.5,192,175.8,190.1,176.7C186.4,178.3,188.3,190.6,189.2,195.9C189.3,196.3,189.3,196.7,189.4,197.2C195,198.1,200,196.8,205.5,196.5C204.5,193.4,203.8,190.3,204.1,186.9Z" fill="#5BD821" clip-path="url(#SVGID_5_-15)"></path>
        <path class="st15" d="M171,171.5C171.4,172,171.9,172.3,175.2,173.1C179.7,174.2,181.9,174.8,183,174.7C184.1,174.6,185.5,174.2,190.2,170.7C191.9,169.4,194.9,167.1,199.2,163C202.7,159.6,204.5,157.9,205.5,156C206.8,153.6,206.6,152.7,208,146.3C209.9,137.7,211.6,133.9,210.3,133.1C209.7,132.7,209,133.3,207.2,134.2C203.3,136.1,200.9,136.2,198.2,137C191.2,139.1,184.5,145.3,183.8,145.9C179.8,149.7,177.5,154.1,172.9,162.8C171.1,166.6,169.7,169.7,171,171.5Z" fill="#3AAF64" clip-path="url(#SVGID_5_-16)"></path>
        <path class="st16" d="M124.4,130.2C124.4,130.1,124.4,130,124.4,129.9C124.4,126.6,124.6,123.3,124.3,119.9C124.3,119.4,124.3,119,124.3,118.6C118.6,115.9,114.4,115.4,114.4,115.4C114.4,115.4,113.5,122,115.2,128.8C117.4,137.5,120.6,141.4,121.7,142.6C121.9,142.8,122.8,143.7,124.7,145.5C124.9,145.7,125.1,145.9,125.3,146.1C123.6,141.4,124,134.8,124.4,130.2Z" fill="#5BD821" clip-path="url(#SVGID_5_-17)"></path>
        <path class="st17" d="M117.5,170.4L98.1,172.2L124.7,195.5L188.4,187.3C188.4,184.2,188.4,181,188.4,177.9C186.5,176.5,179.6,171.6,169.5,172C159.8,172.4,153.5,177.6,151.7,179.2C149.3,177.8,145.8,176.1,141.5,175.1C134.8,173.5,129.1,174,125.6,174.6C123,173.3,120.2,171.8,117.5,170.4Z" fill="#9E6146" clip-path="url(#SVGID_5_-18)"></path>
        <g class="st18" clip-path="url(#SVGID_5_-19)">
            <g>
                <path class="st19" d="M178.5,111C186.9,112.1,192.4,112.6,199,113.2C253.4,117.8,285.4,115,340.7,127.9C382.2,137.6,391.8,157.5,392.9,164.6C394.7,176,390.4,186.5,384.1,193.5" stroke-linecap="round" stroke-width="3" stroke="#14142B" stroke-miterlimit="10" fill="none"></path>
                <path class="st19" d="M99.4,94.4C108.2,97,116.6,99.2,124.7,101.1" stroke-linecap="round" stroke-width="3" stroke="#14142B" stroke-miterlimit="10" fill="none"></path>
                <path class="st19" d="M253.5,141.5C275.3,143.7,297.4,143.7,317.7,154.7C331.8,162.7,342.9,178,338.6,194.6" stroke-linecap="round" stroke-width="3" stroke="#14142B" stroke-miterlimit="10" fill="none"></path>
                <path class="st19" d="M177.2,137.9C182.6,138.3,189.1,138.7,194.5,138.9" stroke-linecap="round" stroke-width="3" stroke="#14142B" stroke-miterlimit="10" fill="none"></path>
                <path class="st19" d="M96.2,124.6C102.3,126,108.5,127.4,114.6,128.6" stroke-linecap="round" stroke-width="3" stroke="#14142B" stroke-miterlimit="10" fill="none"></path>
                <path class="st19" d="M256.9,167.6C259.8,168.2,262.6,168.8,265.5,169.5C274.1,172,282.1,176.3,288.2,182.4C291.9,186.7,293.5,190.4,294.9,195.6" stroke-linecap="round" stroke-width="3" stroke="#14142B" stroke-miterlimit="10" fill="none"></path>
                <path class="st19" d="M94.7,152.5C98.6,153.5,102.6,154.2,106.5,154.9" stroke-linecap="round" stroke-width="3" stroke="#14142B" stroke-miterlimit="10" fill="none"></path>
            </g>
            <path class="st19" d="M126.2,174.8C122.7,173,119.9,171.1,116.8,168.2C106.9,159,103.3,145.9,102.2,140.6C101.9,139.4,103,138.2,104.2,138.4C112.2,140,124.7,142.5,132.8,151.1C140.7,159.6,144.9,169.8,146.7,175.9" stroke-linecap="round" stroke-width="3" stroke="#14142B" stroke-miterlimit="10" fill="none"></path>
            <path class="st19" d="M204.4,185.9C200.1,181.1,195.1,178.5,191,176.1C190.1,175.6,189,176.2,188.8,177.2C188.4,180.6,187.9,187.8,190,195.4" stroke-linecap="round" stroke-width="3" stroke="#14142B" stroke-miterlimit="10" fill="none"></path>
            <path class="st19" d="M170.1,172.3C171.6,165.8,174.9,155.9,182.3,148.1C191.6,138.3,204.7,134.8,210.1,133.8C211.3,133.6,211.7,134.1,211.4,135.3" stroke-linecap="round" stroke-width="3" stroke="#14142B" stroke-miterlimit="10" fill="none"></path>
            <path class="st19" d="M206.3,154.8C204.5,158.2,202.3,161.5,199.3,164.2C193.7,169.3,187.4,172.8,182,175.1" stroke-linecap="round" stroke-width="3" stroke="#14142B" stroke-miterlimit="10" fill="none"></path>
            <path class="st20" d="M120.9,142.2C114.2,132.8,113.4,121.3,113.4,116.6C113.4,115.5,114.5,114.7,115.5,115.1C118.2,116.2,120.5,117.1,123.8,118.9" stroke-linecap="square" stroke-width="3" stroke="#14142B" stroke-miterlimit="10" fill="none"></path>
            <path class="st19" d="M188.5,187.4L124.8,195.6L98.2,172.3L119.4,170.4" stroke-linecap="round" stroke-width="3" stroke="#14142B" stroke-miterlimit="10" fill="none"></path>
            <path class="st19" d="M98.2,188.3L107.4,195.6" stroke-linecap="round" stroke-width="3" stroke="#14142B" stroke-miterlimit="10" fill="none"></path>
            <path class="st19" d="M126.2,145.8C125.3,139.2,124.8,131.9,124.8,124.2C124.8,92.9,133.3,67.5,143.8,67.5C154.3,67.5,162.8,92.9,162.8,124.2C162.8,149.2,157.4,170.5,149.9,178" stroke-linecap="round" stroke-width="3" stroke="#14142B" stroke-miterlimit="10" fill="none"></path>
            <path class="st19" d="M169,172.3C174.2,162.2,177.7,144.6,177.7,124.6C177.7,93.3,169.2,67.9,158.7,67.9L143.6,67.5" stroke-linecap="round" stroke-width="3" stroke="#14142B" stroke-miterlimit="10" fill="none"></path>
            <path class="st19" d="M205.2,195.6C204.7,190.5,204.4,185,204.4,179.4C204.4,148.1,212.9,122.7,223.4,122.7C233.9,122.7,242.4,148.1,242.4,179.4C242.4,185.4,242.1,191.2,241.5,196.7" stroke-linecap="round" stroke-width="3" stroke="#14142B" stroke-miterlimit="10" fill="none"></path>
            <path class="st19" d="M256.6,195.6C257.1,190.6,257.3,185.3,257.3,179.7C257.3,148.4,248.8,123,238.3,123L223.2,122.6" stroke-linecap="round" stroke-width="3" stroke="#14142B" stroke-miterlimit="10" fill="none"></path>
            <path class="st19" d="M135.7,105.6C137.5,94.2,140.8,86.5,144.6,86.5C150.2,86.5,154.8,103.4,154.8,124.4C154.8,129.1,154.6,133.5,154.2,137.6" stroke-linecap="round" stroke-width="3" stroke="#14142B" stroke-miterlimit="10" fill="none"></path>
            <path class="st19" d="M151.1,153.4C149.3,158.9,147.1,162.2,144.6,162.2C139,162.2,134.4,145.3,134.4,124.3" stroke-linecap="round" stroke-width="3" stroke="#14142B" stroke-miterlimit="10" fill="none"></path>
            <path class="st19" d="M214.5,162.2C216.3,150.8,219.6,143.1,223.4,143.1C229,143.1,233.6,160,233.6,181C233.6,185.7,233.4,190.1,233,194.2" stroke-linecap="round" stroke-width="3" stroke="#14142B" stroke-miterlimit="10" fill="none"></path>
            <path class="st19" d="M214.1,196.7C213.5,191.9,213.2,186.6,213.2,180.9" stroke-linecap="round" stroke-width="3" stroke="#14142B" stroke-miterlimit="10" fill="none"></path>
            <path class="st19" d="M117.5,178C121.9,176.3,130,173.5,137.6,174.1C145.5,174.7,152.3,179.6,152.3,179.6C152.3,179.6,156.4,175.1,162.5,173.2C166.9,171.9,177.5,170.7,188.5,179.1" stroke-linecap="round" stroke-width="3" stroke="#14142B" stroke-miterlimit="10" fill="none"></path>
        </g>
    </g>
    <g clip-path="url(#SVGID_9_)" transform="translate(-90,-20)">
        <path class="st21" d="M1006.2,130C1006.2,180.2,948.4,224.4,892.8,224.4C859.6,224.4,856,199.5,811.6,199.1C762,198.6,727.1,195.9,727.1,195.9C727.1,195.9,725.1,148.3,731.5,135.7C736.2,126.5,741.6,121.9,743.1,120.7C750.8,114.4,759,112.6,763.6,111.7C775.2,109.2,782.5,110.7,782.5,110.7C782.5,110.7,794.2,80,822.6,58.7C823.5,58,824.2,57.5,824.7,57.2C853.4,36.5,883.3,35.8,892.8,35.7C902.8,35.6,930.7,35.7,958.2,54C963,57,1006.2,86.6,1006.2,130Z" fill="#FEFCFF" clip-path="url(#SVGID_9_-2)"></path>
        <g class="st22" clip-path="url(#SVGID_9_-3)">
            <path class="st23" d="M973.1,109.8C973.1,142.3,948.9,172.3,916.7,189.4C921.5,189.5,926.3,189.5,931.1,189.6C946.2,189.7,961.3,190.2,976.4,190.8C994.4,174.1,1006.2,152.7,1006.2,130C1006.2,86.6,963,57,958.2,53.8C951.2,49.1,937.9,44.6,931.1,42C945.5,54.4,973.1,79.2,973.1,109.8Z" fill="#7CB8ED"></path>
        </g>
        <path class="st24" d="M920.9,76.3L918.8,69.5L935.4,55.7L931.1,41.9C925.5,39.8,918.4,37.7,910,36.5C900.8,35.1,892.7,35.2,886.4,35.7C877.2,37.4,868,39.1,858.8,40.8L849.5,51.8L828.7,54.5L813,74.1L813.4,91.9L833.6,93.8L838.1,115.3L835,118C838.4,121,842.6,125.6,846.2,132.1C853.1,144.7,853,156.8,852.6,162.4C857.2,158.3,861.9,154.1,866.5,150L879.5,153.6L890.1,142.8L920.9,76.3Z" fill="url(#Gradient-3)" clip-path="url(#SVGID_9_-4)"></path>
        <g clip-path="url(#ClipPath-2)" transform="translate(806.044,112.391) translate(-85.1881,-90.873)">
            <g opacity="0.8" transform="translate(25.0403,90.873) translate(-85.1881,-90.873)" style="animation: 3.5s linear infinite both a2_t;">
                <path d="M-30,30L91.8066,-151.746L126.708,-151.746L4.6255,28.6362C4.6255,28.6362,-30,30,-30,30Z" fill="#ffffff" stroke="none" transform="translate(30,151.746)"></path>
                <path d="M-30,30L91.8066,-151.746L98.708,-151.746L-20.3745,28.6362C-20.3745,28.6362,-30,30,-30,30Z" fill="#ffffff" stroke="none" transform="translate(71.6682,151.746)"></path>
            </g>
        </g>
        <path class="st25" d="M891.7,162.3C895.4,128.8,885.7,121.7,893.2,104.3C894.5,101.2,900,89.3,912.8,81.9C927.4,73.5,942.5,75.9,948.6,76.9C952.7,77.6,961.5,79.1,970.6,85.3C973.6,87.4,979,91.1,983.4,97.8C990.3,108.5,990,119.6,989.8,125.3C989.5,132.6,988.9,146.1,978.3,156.3C975.9,158.6,966.7,167.5,955.5,166.5C948.5,165.9,966.044,182.3,966.044,182.3L891.6,182.8C891.7,182.8,890.7,171.4,891.7,162.3Z" fill="#FFFFFF" clip-path="url(#SVGID_9_-5)"></path>
        <path class="st26" d="M985.1,147.2C985,142.6,986.2,137.1,986.4,132.3C986.8,125.1,978.5,117.8,980,110.8C967.8,108.9,953.7,107.6,938.2,107.8C922.2,108,907.8,109.6,895.3,111.9C894.5,121.8,889.4,130.4,890.2,140.4C890.3,141.8,891.2,145.7,890.6,146.5C891,147.2,891.5,147,891.7,147.8C893.9,147.3,902.2,145.2,904.2,144.7C906.5,144.1,907.2,141,907.4,138.2L906.6,137L898.3,126.7L914,128.2C916.7,127,919.4,125.7,922.1,124.5C923.1,124.5,928.7,124.9,932.9,130.4C935,133.2,936,136.2,936.4,138.6C936.9,141.4,938.9,143.5,941.3,143.7C953,144.5,973.2,146.4,985.1,147.2Z" fill="#91B1DD" opacity="0.53" clip-path="url(#SVGID_9_-6)"></path>
        <path class="st27" d="M914.8,80.4C918.3,79,943.1,69.3,966.5,82.7C978.4,89.5,984.7,99.1,987.6,104.4C991.1,105.1,994.5,105.9,998,106.6L1010,104.4L1005.4,95.1L987.3,78.8L965.6,71L943.7,68.8L914.8,80.4Z" fill="#E94043" clip-path="url(#SVGID_9_-7)"></path>
        <path class="st28" d="M909,181.8L986.051,181.8C986.051,181.8,973.9,196.5,976.4,197.1L891.7,196.1L890.9,188.7L902.1,186L909,181.8Z" fill="#4E6CA8" clip-path="url(#SVGID_9_-8)"></path>
        <path class="st29" d="M972.871,187.7L984.923,181.9L907.6,181.9L901.2,185.3L891.8,187.2C891.8,187.2,972.971,187.7,972.871,187.7Z" fill="#8D9FD4" clip-path="url(#SVGID_9_-9)"></path>
        <path class="st29" d="M1005.4,95.1L1026.4,96.6L1035.2,102.6L1040.5,112.6L1034.2,190.4L994.7,192L994,189.2L1006.2,180.3L1012.2,166.2L1014.3,149.3L1014.5,145.4L1019.2,141.7L1022.4,133.4L1022.7,121.9L1017.3,110.7L1010,104.4Z" fill="#8D9FD4" clip-path="url(#SVGID_9_-10)"></path>
        <rect class="st30" width="25.2" height="33.7" fill="#C63158" clip-path="url(#SVGID_9_-11)" transform="translate(0,0) translate(987.8,158.3)"></rect>
        <path class="st31" d="M893.1,104.2" fill="#FF0900" clip-path="url(#SVGID_9_-12)"></path>
        <path class="st32" d="M787.4,197.4L746.9,197.4L746.9,159.1C746.9,147.9,756,138.8,767.2,138.8L767.2,138.8C778.4,138.8,787.5,147.9,787.5,159.1L787.5,197.4Z" fill="#7CB8ED" clip-path="url(#SVGID_9_-13)"></path>
        <path class="st28" d="M785.9,197.4C786.7,187.1,785.3,175.1,785.6,164.4C785.9,154.9,785.2,145.3,776.3,141.1C775.9,140.9,775.6,140.7,775.3,140.5C767.9,143.8,762.7,151.8,762.7,161L762.7,197.4L785.9,197.4C785.9,197.4,785.9,197.4,785.9,197.4Z" fill="#4E6CA8" clip-path="url(#SVGID_9_-14)"></path>
        <path class="st33" d="M792.5,189.5L792.5,189.5L792.5,156.2L792.5,156.2C798.5,156.2,803.4,161.1,803.4,167.1L803.4,178.6C803.3,184.6,798.5,189.5,792.5,189.5Z" fill="#b3b3b3" clip-path="url(#SVGID_9_-15)"></path>
        <path class="st33" d="M741.1,188.9L741.1,188.9C736.2,188.9,732.3,185,732.3,180.1L732.3,164.1C732.3,159.2,736.2,155.3,741.1,155.3L741.1,155.3L741.1,188.9Z" fill="#b3b3b3" clip-path="url(#SVGID_9_-16)"></path>
        <g class="st22" clip-path="url(#SVGID_9_-17)">
            <path class="st34" d="M1022.3,171.9C1020,167.6,1016.3,159.3,1014.3,147.8C1014.1,149.4,1012.1,173.1,1011.9,174.6C1012.3,180.4,1012.3,186.2,1012.3,192.1L1034.1,191L1038,134C1036.3,149.1,1029.2,165,1025.9,171.8C1025.2,173.3,1023.1,173.4,1022.3,171.9Z" fill="url(#Gradient-4)"></path>
        </g>
        <g class="st22" clip-path="url(#SVGID_9_-18)">
            <path class="st35" d="M799.4,80.4C799.5,80.2,812,75.5,812,75.5" stroke-width="3" stroke="#14142B" stroke-miterlimit="10" fill="none"></path>
            <path class="st36" d="M797.8,120.7L849.6,141.1" stroke-linecap="round" stroke-width="3" stroke="#14142b" stroke-miterlimit="10" fill="none"></path>
            <path class="st36" d="M814.2,150.8L851.5,187" stroke-linecap="round" stroke-width="3" stroke="#14142b" stroke-miterlimit="10" fill="none"></path>
            <path class="st36" d="M747.7,118.9L755.5,140.7" stroke-linecap="round" stroke-width="3" stroke="#14142b" stroke-miterlimit="10" fill="none"></path>
            <path class="st36" d="M732.3,137.2L747.7,149.6" stroke-linecap="round" stroke-width="3" stroke="#14142b" stroke-miterlimit="10" fill="none"></path>
            <path class="st36" d="M789,116.4L779.5,142.6" stroke-linecap="round" stroke-width="3" stroke="#14142b" stroke-miterlimit="10" fill="none"></path>
            <path class="st36" d="M808.1,135.7L786.5,148.9" stroke-linecap="round" stroke-width="3" stroke="#14142b" stroke-miterlimit="10" fill="none"></path>
            <g class="st37" opacity="0.75"></g>
            <g class="st37" opacity="0.75"></g>
            <g class="st37" opacity="0.75"></g>
            <g class="st37" opacity="0.75"></g>
            <g class="st37" opacity="0.75"></g>
            <g class="st37" opacity="0.75"></g>
            <path class="st35" d="M935.4,55.7L956,68.8L967.8,60.2" stroke-width="3" stroke="#14142B" stroke-miterlimit="10" fill="none"></path>
            <path class="st35" d="M813.5,91.9L797.3,111" stroke-width="3" stroke="#14142B" stroke-miterlimit="10" fill="none"></path>
            <path class="st38" d="M831.7,53.2L848.8,52.7L852.5,73.7L833.6,93.8L813.5,91.9L812.1,75.6L822.6,59.6Z" stroke-width="3" stroke="#1690DB" stroke-miterlimit="10" fill="none"></path>
            <path class="st38" d="M887.6,37.2L894.2,60.1L876.5,78.8L852.5,73.7L848.8,52.7L858.8,40.8" stroke-width="3" stroke="#1690DB" stroke-miterlimit="10" fill="none"></path>
            <path class="st38" d="M894.2,60.1L918.8,69.5L935.4,55.7L931.1,41.9" stroke-width="3" stroke="#1690DB" stroke-miterlimit="10" fill="none"></path>
            <path class="st19" d="M786.5,198.1L747.6,198.1L747.6,158.2C747.6,147.5,756.3,138.8,767,138.8L767,138.8C777.7,138.8,786.4,147.5,786.4,158.2L786.4,198.1Z" stroke-linecap="round" stroke-width="3" stroke="#14142B" stroke-miterlimit="10" fill="none"></path>
            <path class="st38" d="M833.6,93.8L838.1,115.3L833.9,118.9" stroke-width="3" stroke="#1690DB" stroke-miterlimit="10" fill="none"></path>
            <path class="st38" d="M838.1,115.3L863.3,122.9L882.9,104.4L876.5,78.8" stroke-width="3" stroke="#1690DB" stroke-miterlimit="10" fill="none"></path>
            <path class="st38" d="M920.9,76.3L918.8,69.5" stroke-width="3" stroke="#1690DB" stroke-miterlimit="10" fill="none"></path>
            <path class="st38" d="M882.9,104.4L889.3,106.6" stroke-width="3" stroke="#1690DB" stroke-miterlimit="10" fill="none"></path>
            <path class="st38" d="M863.3,122.9L867.4,149.3L852.5,162.4" stroke-width="3" stroke="#1690DB" stroke-miterlimit="10" fill="none"></path>
            <path class="st38" d="M880.2,153.4L867.4,149.3" stroke-width="3" stroke="#1690DB" stroke-miterlimit="10" fill="none"></path>
            <path class="st35" d="M813.5,198.1L728,198.1L728,153.8C728,130.2,747.1,111,770.8,111L770.8,111C794.4,111,813.6,130.1,813.6,153.8L813.6,198.1Z" stroke-width="3" stroke="#14142B" stroke-miterlimit="10" fill="none"></path>
            <path class="st35" d="M772,111L809.5,111C833.2,111,852.5,131.3,852.5,156.3L852.5,198.1L772,198.1" stroke-width="3" stroke="#14142B" stroke-miterlimit="10" fill="none"></path>
            <path class="st19" d="M892.2,106.1C902.7,84.5,925.3,69.5,951.5,69.5C977.4,69.5,999.8,84.1,1010.5,105.3" stroke-linecap="round" stroke-width="3" stroke="#14142B" stroke-miterlimit="10" fill="none"></path>
            <path class="st19" d="M907.4,86.2C910.1,83.7,941.2,65.3,972.5,86.3C980.3,91.5,984.8,98.7,987.7,104.5" stroke-linecap="round" stroke-width="3" stroke="#14142B" stroke-miterlimit="10" fill="none"></path>
            <path class="st39" d="M891.7,188.9C891.7,190.6,891.7,192.2,891.7,193.9" stroke-linecap="round" stroke-width="3" stroke="#000000" stroke-miterlimit="10" fill="none"></path>
            <path class="st20" d="M943.7,193.4L908.2,193.3L909,183.2L942.2,182.8Z" stroke-linecap="square" stroke-width="3" stroke="#14142B" stroke-miterlimit="10" fill="none"></path>
            <path class="st20" d="M1005,94.8L1018,94.8C1030.8,94.8,1041.1,105.2,1041.1,118C1038.7,143,1036.3,168.1,1033.9,193.1C1018.9,193.2,1003.56,193.2,988.464,193.3L988.464,186.241" stroke-linecap="square" stroke-width="3" stroke="#14142B" stroke-miterlimit="10" fill="none"></path>
            <path class="st40" d="M741.1,188.9L741.1,188.9C736.2,188.9,732.3,185,732.3,180.1L732.3,165C732.3,160.1,736.2,156.2,741.1,156.2L741.1,156.2L741.1,188.9Z" stroke-width="3" stroke="#007F97" stroke-miterlimit="10" fill="#a9faa5"></path>
            <path class="st40" d="M793.5,188.9L793.5,188.9L793.5,156.2L793.5,156.2C798.4,156.2,802.3,160.1,802.3,165L802.3,180.1C802.3,185,798.4,188.9,793.5,188.9Z" stroke-width="3" stroke="#007F97" stroke-miterlimit="10" fill="#a9faa5"></path>
            <path class="st35" d="M783.1,112.6C789.8,88.4,806.5,68.3,828.7,54.4C870.4,28.8,921.1,28.8,962.8,56.6C972.3,62.7,982.5,73,989.7,81.3" stroke-width="3" stroke="#14142B" stroke-miterlimit="10" fill="none"></path>
        </g>
        <path class="st41" d="M1012.9,149.3L1013,192" stroke-miterlimit="10" stroke-width="3" stroke="#14142B" fill="none" stroke-linecap="round" clip-path="url(#SVGID_9_-19)"></path>
        <path class="st42" d="M1039.5,147" stroke-miterlimit="10" stroke-width="3" stroke="#14142B" fill="none" stroke-linecap="square" clip-path="url(#SVGID_9_-20)"></path>
        <path class="st43" d="M1036,168.7C1034,170,1030.3,172.1,1025.3,172.9C1020.5,173.7,1016.6,173,1014.3,172.4" stroke-miterlimit="10" stroke-width="2" stroke="#14142B" fill="none" stroke-linecap="square" clip-path="url(#SVGID_9_-21)"></path>
        <path class="st43" d="M1036.4,161.8C1034.4,163.1,1030.8,165.2,1025.8,166C1021.1,166.8,1017.2,166.1,1014.9,165.5" stroke-miterlimit="10" stroke-width="2" stroke="#14142B" fill="none" stroke-linecap="square" clip-path="url(#SVGID_9_-22)"></path>
    </g>
    <g id="hand_right" class="st22" transform="translate(800.648,123.895) translate(-890.817,-142.717)" style="animation: 3.5s linear infinite both hand_right_t;">
        <g>
            <path class="st44" d="M910.2,156.4L902.7,155.1L903.1,153.2C903.5,151.2,905.4,149.9,907.4,150.3L909.2,150.6C910.6,150.9,911.4,152.3,911,153.6L910.2,156.4Z" fill="#E94043"></path>
            <path class="st44" d="M890,142.8C883.4,150.8,878,156.8,874.3,160.8C869.7,165.8,866.8,168.7,866.7,173.2C866.6,177.6,869.1,183.9,869.1,183.9L869.1,183.9L881.2,188.9L901.2,185.9L914.2,177.5L917.8,169.6L913.3,165.7L890.5,164L891.7,146.3L890,142.8Z" fill="#E94043"></path>
            <path class="st45" d="M896.3,163.1L898.7,156.3L911,157.4L913.8,159.5L914.9,163.9L914.4,166.2Z" fill="#8D9FD4"></path>
            <g>
                <path class="st46" d="M913.3,165.9L911.1,165.7C908.7,170.4,905.2,174.3,900.7,177.2L900.6,177.3C896.9,179.7,892.7,181.3,888.3,181.9L887.9,182C881.2,183,874.4,182.5,867.9,180.6C868.5,182.5,869,184,869,184L881.1,189L901.1,186L914.1,177.6L917.7,169.7L913.3,165.9Z" fill="#C63158"></path>
            </g>
        </g>
        <path class="st19" d="M890,142.8C885.4,148.4,879.8,151.2,869.4,166.3C866.4,170.6,865.2,177.3,868,182.3C872.6,190.5,888.4,189.7,897.6,187.1C906.2,184.7,910.7,181.1,914.2,177.6C915.5,176.2,917.8,173.1,917.9,171.2C918,169.8,917.6,168.9,917.3,168.3C916.4,166.7,914.4,165.1,901.1,164.2C896.4,163.9,892.6,163.8,890,163.8" stroke-linecap="round" stroke-width="3" stroke="#14142B" stroke-miterlimit="10" fill="none"></path>
        <path class="st19" d="M891.7,141.5L891.7,163.1" stroke-linecap="round" stroke-width="3" stroke="#14142B" stroke-miterlimit="10" fill="none"></path>
        <path class="st19" d="M896.7,163.7L897.1,160.2C897.3,157.8,899.5,156.1,901.8,156.4L910.6,157.3C913,157.5,914.7,159.7,914.4,162L914,165.8" stroke-linecap="round" stroke-width="3" stroke="#14142B" stroke-miterlimit="10" fill="none"></path>
        <path class="st20" d="M902,156.1L902.5,151.6C902.6,150.6,903.8,150,905.1,150.1L908.8,150.5C910.1,150.6,911.2,151.5,911.1,152.5L910.6,157" stroke-linecap="square" stroke-width="3" stroke="#14142B" stroke-miterlimit="10" fill="none"></path>
    </g>
    <g id="hand_left" class="st22" transform="translate(924.478,128.461) translate(-1014.1,-148.395)" style="animation: 3.5s linear infinite both hand_left_t;">
        <g>
            <path class="st44" d="M945,157.5L944.2,151.1L950.6,150.4L952.2,155.1C952.2,155.1,951.8,157.2,951.4,157.1C950.9,156.9,945,157.5,945,157.5Z" fill="#E94043"></path>
            <path class="st45" d="M942.6,165.3L941.3,165.2L940.7,161.9L943.7,157.7L955.6,157L958.2,161.2L958.7,165.2Z" fill="#8D9FD4"></path>
            <path class="st44" d="M985.2,140.7C984.8,143.6,983.7,148.9,980,154C979.1,155.2,973.2,163.1,963.2,165.1C956.5,166.4,953.8,164,942.7,165.3C939.6,165.7,937,166.2,935.4,166.6C935.5,170.7,936.5,173.8,937.6,176.2C943.6,188.7,961.4,195.1,982.3,193.4C986.3,192.7,994.9,190.6,1002.5,183.5C1016.3,170.4,1014.6,151.8,1014.4,149.4C1012.4,150,1008.2,150.8,1003.3,149.6C996,147.8,992,142.8,990.9,141.2C988.9,141,987,140.8,985.2,140.7Z" fill="#E94043"></path>
            <path class="st46" d="M1014.3,149.3C1013.6,156.5,1010.9,166.6,1002.5,174.6C994.9,181.8,986.3,183.8,982.3,184.5C961.4,186.2,943.6,179.8,937.6,167.3C937.4,166.9,937.3,166.6,937.1,166.2C936.4,166.3,935.8,166.5,935.4,166.6C935.5,170.7,936.5,173.8,937.6,176.2C943.6,188.7,961.4,195.1,982.3,193.4C986.3,192.7,994.9,190.6,1002.5,183.5C1016.2,170.4,1014.6,151.8,1014.3,149.3C1014.3,149.3,1014.3,149.3,1014.3,149.3Z" fill="#C63158"></path>
        </g>
        <path class="st19" d="M985.2,140.7C983.9,154.1,974.9,159.7,971.7,161.5C970.2,162.3,968.7,163,967.2,163.5C962.1,165.4,956.7,166,951.3,165.5C946.5,165,937.3,163.8,935.6,167.5C934.3,170.4,936.8,175.8,940,179.6C950.2,191.5,979.6,202.3,999.5,186.6C1015.2,174.3,1014.3,150,1014.2,147.6" stroke-linecap="round" stroke-width="3" stroke="#14142B" stroke-miterlimit="10" fill="none"></path>
        <path class="st20" d="M944.3,157L943.7,152.6C943.6,151.7,944.5,150.7,945.9,150.5L949.5,150C950.8,149.8,952,150.4,952.2,151.4L952.8,155.8" stroke-linecap="square" stroke-width="3" stroke="#14142B" stroke-miterlimit="10" fill="none"></path>
        <path class="st20" d="M941.1,164.6L940.8,162.4C940.5,160,942.1,157.9,944.5,157.6L953.2,156.4C955.6,156.1,957.7,157.7,958,160.1L958.7,165.3" stroke-linecap="square" stroke-width="3" stroke="#14142B" stroke-miterlimit="10" fill="none"></path>
    </g>
    <g class="st22" transform="translate(-90,-20)">
        <g>
            <path class="st47" d="M886,107.2C901.5,104.5,919.9,102.4,940.7,102.2C962.6,102,982,104,998.1,106.6C995.9,108.9,992.3,113.5,990.3,120.2C987.4,129.9,991.5,138,992.5,141.1C975.1,140,956.1,138.8,938.7,137.7C938.8,136.6,939.2,130.2,934.4,124.7C929.6,119.2,923.1,118.9,922,118.8C918.9,120,915.8,121.3,912.7,122.5L894.6,121L904.1,134.3L903.7,138.8C903.7,138.8,884.4,143.5,884.1,142.2C883.8,140.9,882,119.7,882,119.7L886,107.2Z" fill="url(#Gradient-5)"></path>
            <g id="shine" clip-path="url(#ClipPath-1)" transform="translate(848.35,120.95) translate(-120.25,-25.75)">
                <g id="shine-2" transform="translate(120.25,25.75) translate(-120.25,-25.75)" style="animation: 3.5s linear infinite both shine-2_t;">
                    <g id="shine-3" transform="translate(195.228,27.4) translate(-42.272,-19.9)">
                        <path class="st49" d="M888.9,95.2L868.1,146.5C868.1,146.5,921.6,146.5,921.6,146.5L941.7,95.8Z" fill="url(#Gradient-6)" transform="translate(-881.056,-102.7)"></path>
                        <path class="st50" d="M953.9,95.7L933.3,145.9L949.6,146.7L968.6,96.5Z" fill="url(#Gradient-7)" transform="translate(-881.056,-102.7)"></path>
                    </g>
                    <g id="shine-4" transform="translate(45.228,27.4) translate(-42.272,-19.9)">
                        <path class="st49" d="M888.9,95.2L868.1,146.5C868.1,146.5,921.6,146.5,921.6,146.5L941.7,95.8Z" fill="url(#Gradient-6)" transform="translate(-881.056,-102.7)"></path>
                        <path class="st50" d="M953.9,95.7L933.3,145.9L949.6,146.7L968.6,96.5Z" fill="url(#Gradient-7)" transform="translate(-881.056,-102.7)"></path>
                    </g>
                </g>
            </g>
            <path class="st45" d="M1022.7,129.7C1022.7,142.9,1014.4,150.3,1006.2,150.3C998,150.3,989,140,989,126.8C989,113.6,997.9,104.9,1006.2,104.9C1014.5,104.9,1022.7,116.5,1022.7,129.7Z" fill="#8D9FD4"></path>
            <ellipse class="st48" rx="12.4" ry="17.3" fill="#A9BBEA" transform="translate(0,0) translate(1011.1,127.4)"></ellipse>
            <path class="st51" d="M1015.3,126.3C1015.4,125.9,1016,125.8,1016.2,126.2L1019.7,132.4C1020.1,133.1,1019.6,133.9,1018.9,134L1014.3,134.3C1013.7,134.3,1013.2,133.8,1013.4,133.2L1015.3,126.3Z" fill="#14142B"></path>
            <path class="st51" d="M1012.2,133.5C1012,134.1,1011.5,134.5,1010.9,134.6L1006.4,134.9C1005.7,135,1005.1,134.2,1005.4,133.5L1010.4,119.2C1010.7,118.4,1011.8,118.2,1012.2,119L1014.6,123.5C1014.8,123.8,1014.8,124.2,1014.7,124.6L1012.2,133.5Z" fill="#14142B"></path>
            <path class="st44" d="M922.9,126.1L896.3,121.3L899,128.1L907.4,138.2L915.4,141.7L921.8,141.1L927,136.7L926.6,130Z" fill="#E94043"></path>
            <path class="st46" d="M926.6,130L925.2,128.6C925.3,137.6,908.1,138.6,898.5,126.9L899,128.2L907.4,138.2L915.4,141.7L921.8,141.2L927.1,136.8L926.6,130Z" fill="#C63158"></path>
        </g>
        <ellipse class="st19" rx="16.5" ry="22.8" stroke-linecap="round" stroke-width="3" stroke="#14142B" stroke-miterlimit="10" fill="none" transform="translate(0,0) translate(1006.2,127.6)"></ellipse>
        <ellipse class="st19" rx="12" ry="17.8" stroke-linecap="round" stroke-width="3" stroke="#14142B" stroke-miterlimit="10" fill="none" transform="translate(0,0) translate(1010.7,127.6)"></ellipse>
        <path class="st19" d="M886,107.2C897.3,105.4,907.7,104.2,920.9,103.4C948,101.8,979.4,102.4,999.4,106.9" stroke-linecap="round" stroke-width="3" stroke="#14142B" stroke-miterlimit="10" fill="none"></path>
        <path class="st35" d="M938.7,137.7C958.6,137.5,976.7,138.9,992.5,141.1" stroke-width="3" stroke="#14142B" stroke-miterlimit="10" fill="none"></path>
        <path class="st35" d="M886,107.2C884.4,111,882.6,116.8,882.1,124C881.6,131.9,882.9,138.3,884.1,142.4C890.8,141.3,897.8,140.4,905.2,139.6" stroke-width="3" stroke="#14142B" stroke-miterlimit="10" fill="none"></path>
        <path class="st19" d="M911.6,123.3C914.6,121.1,918.2,119.9,921.9,119.9L921.9,119.9C931.2,119.9,938.7,128.4,938.7,137.7" stroke-linecap="round" stroke-width="3" stroke="#14142B" stroke-miterlimit="10" fill="none"></path>
        <path class="st19" d="M903.7,139C903.6,137.4,903.8,135.9,904.1,134.5" stroke-linecap="round" stroke-width="3" stroke="#14142B" stroke-miterlimit="10" fill="none"></path>
        <path class="st20" d="M921,141C913.8,143.6,907.1,137.3,905.5,135.6C898.8,128.5,894.6,121.3,894.7,121.1C894.8,120.9,912.3,123.8,912.3,123.8L920.1,125.2C923.3,125.8,926,127.9,927,131C927.4,132.3,927.5,133.7,927.2,135C926.3,139.1,921.9,140.7,921,141Z" stroke-linecap="square" stroke-width="3" stroke="#14142B" stroke-miterlimit="10" fill="none"></path>
    </g>
    <g transform="translate(-90,-20)" style="white-space: preserve-spaces;">
        <path fill="#FFFFFF" stroke="#14142B" stroke-miterlimit="10" stroke-width="8" d="M2.65626,-44.2711L17.4555,-44.2711L17.4555,0L2.65626,0ZM46.4823,0.948666C43.0249,0.948666,39.7889,0.400548,36.7743,-0.695688C33.7596,-1.79192,31.1244,-3.35195,28.8687,-5.37577C26.613,-7.3996,24.8422,-9.82396,23.5562,-12.6489C22.2702,-15.4738,21.6272,-18.5939,21.6272,-22.0091L21.6272,-22.1355C21.6272,-25.4242,22.2386,-28.4811,23.4613,-31.306C24.6841,-34.1309,26.3917,-36.5763,28.5841,-38.6423C30.7766,-40.7083,33.3591,-42.321,36.3316,-43.4805C39.304,-44.64,42.5401,-45.2197,46.0396,-45.2197C49.8764,-45.2197,53.3232,-44.6295,56.38,-43.4489C59.4369,-42.2683,62.1669,-40.624,64.5702,-38.5158L56.2852,-28.5232C54.8095,-29.7459,53.2705,-30.6946,51.6683,-31.3692C50.0661,-32.0438,48.3375,-32.3811,46.4823,-32.3811C45.0487,-32.3811,43.7206,-32.1176,42.4979,-31.5906C41.2752,-31.0635,40.2211,-30.3362,39.3357,-29.4086C38.4502,-28.4811,37.7651,-27.3848,37.2802,-26.1199C36.7954,-24.855,36.5529,-23.4637,36.5529,-21.9458L36.5529,-21.8193C36.5529,-20.2593,36.8164,-18.8257,37.3435,-17.5187C37.8705,-16.2116,38.5978,-15.0943,39.5254,-14.1667C40.453,-13.2392,41.5598,-12.5224,42.8457,-12.0164C44.1317,-11.5105,45.5547,-11.2575,47.1147,-11.2575C48.3796,-11.2575,49.3915,-11.3418,50.1505,-11.5105C50.9094,-11.6791,51.584,-11.9321,52.1743,-12.2694L52.1743,-16.6965L44.585,-16.6965L44.585,-26.1832L66.0248,-26.1832L66.0248,-5.692C63.6215,-3.71034,60.7755,-2.10815,57.4868,-0.885422C54.1981,0.337303,50.5299,0.948666,46.4823,0.948666ZM70.311,-44.2711L85.1102,-44.2711L85.1102,-12.6489L105.918,-12.6489L105.918,0L70.311,0ZM132.35,-12.1429C133.741,-12.1429,135.006,-12.417,136.145,-12.9651C137.283,-13.5132,138.253,-14.2405,139.054,-15.147C139.855,-16.0535,140.466,-17.0971,140.888,-18.2776C141.309,-19.4582,141.52,-20.702,141.52,-22.0091L141.52,-22.1355C141.52,-23.4426,141.299,-24.6969,140.856,-25.8986C140.414,-27.1002,139.792,-28.1648,138.991,-29.0924C138.189,-30.02,137.22,-30.7579,136.081,-31.306C134.943,-31.8541,133.657,-32.1282,132.223,-32.1282C130.832,-32.1282,129.567,-31.8541,128.429,-31.306C127.29,-30.7579,126.321,-30.0305,125.519,-29.124C124.718,-28.2175,124.107,-27.174,123.685,-25.9935C123.264,-24.8129,123.053,-23.5691,123.053,-22.262L123.053,-22.1355C123.053,-20.8285,123.274,-19.5741,123.717,-18.3725C124.16,-17.1709,124.782,-16.1062,125.583,-15.1787C126.384,-14.2511,127.354,-13.5132,128.492,-12.9651C129.63,-12.417,130.916,-12.1429,132.35,-12.1429ZM132.223,0.948666C128.808,0.948666,125.635,0.358385,122.705,-0.822177C119.775,-2.00274,117.224,-3.62601,115.053,-5.692C112.881,-7.75798,111.184,-10.1929,109.961,-12.9967C108.739,-15.8006,108.127,-18.8047,108.127,-22.0091L108.127,-22.1355C108.127,-25.3399,108.749,-28.344,109.993,-31.1479C111.237,-33.9517,112.944,-36.3972,115.116,-38.4842C117.287,-40.5713,119.849,-42.2156,122.8,-43.4173C125.751,-44.6189,128.935,-45.2197,132.35,-45.2197C135.765,-45.2197,138.938,-44.6295,141.868,-43.4489C144.798,-42.2683,147.349,-40.6451,149.521,-38.5791C151.692,-36.5131,153.389,-34.0782,154.612,-31.2744C155.835,-28.4705,156.446,-25.4664,156.446,-22.262L156.446,-22.1355C156.446,-18.9312,155.824,-15.927,154.58,-13.1232C153.336,-10.3194,151.629,-7.87393,149.457,-5.78686C147.286,-3.6998,144.725,-2.05544,141.773,-0.853799C138.822,0.347844,135.639,0.948666,132.223,0.948666ZM183.694,-12.1429C185.085,-12.1429,186.35,-12.417,187.488,-12.9651C188.627,-13.5132,189.596,-14.2405,190.398,-15.147C191.199,-16.0535,191.81,-17.0971,192.232,-18.2776C192.653,-19.4582,192.864,-20.702,192.864,-22.0091L192.864,-22.1355C192.864,-23.4426,192.643,-24.6969,192.2,-25.8986C191.757,-27.1002,191.135,-28.1648,190.334,-29.0924C189.533,-30.02,188.563,-30.7579,187.425,-31.306C186.287,-31.8541,185.001,-32.1282,183.567,-32.1282C182.176,-32.1282,180.911,-31.8541,179.772,-31.306C178.634,-30.7579,177.664,-30.0305,176.863,-29.124C176.062,-28.2175,175.451,-27.174,175.029,-25.9935C174.607,-24.8129,174.397,-23.5691,174.397,-22.262L174.397,-22.1355C174.397,-20.8285,174.618,-19.5741,175.061,-18.3725C175.503,-17.1709,176.125,-16.1062,176.926,-15.1787C177.728,-14.2511,178.697,-13.5132,179.836,-12.9651C180.974,-12.417,182.26,-12.1429,183.694,-12.1429ZM183.567,0.948666C180.152,0.948666,176.979,0.358385,174.049,-0.822177C171.118,-2.00274,168.568,-3.62601,166.396,-5.692C164.225,-7.75798,162.528,-10.1929,161.305,-12.9967C160.082,-15.8006,159.471,-18.8047,159.471,-22.0091L159.471,-22.1355C159.471,-25.3399,160.093,-28.344,161.337,-31.1479C162.581,-33.9517,164.288,-36.3972,166.46,-38.4842C168.631,-40.5713,171.192,-42.2156,174.144,-43.4173C177.095,-44.6189,180.278,-45.2197,183.694,-45.2197C187.109,-45.2197,190.282,-44.6295,193.212,-43.4489C196.142,-42.2683,198.693,-40.6451,200.864,-38.5791C203.036,-36.5131,204.733,-34.0782,205.956,-31.2744C207.178,-28.4705,207.79,-25.4664,207.79,-22.262L207.79,-22.1355C207.79,-18.9312,207.168,-15.927,205.924,-13.1232C204.68,-10.3194,202.973,-7.87393,200.801,-5.78686C198.63,-3.6998,196.068,-2.05544,193.117,-0.853799C190.166,0.347844,186.982,0.948666,183.567,0.948666ZM230.863,0.822177C226.352,0.822177,222.146,0.200274,218.246,-1.04353C214.346,-2.28734,210.983,-4.15305,208.158,-6.64066L216.064,-16.0641C218.467,-14.2089,220.997,-12.8808,223.653,-12.0797C226.31,-11.2786,228.945,-10.878,231.559,-10.878C232.908,-10.878,233.878,-11.0467,234.468,-11.384C235.058,-11.7213,235.354,-12.1851,235.354,-12.7754L235.354,-12.9019C235.354,-13.5343,234.921,-14.0613,234.057,-14.483C233.193,-14.9046,231.58,-15.3473,229.219,-15.8111C226.731,-16.3171,224.36,-16.9073,222.104,-17.5819C219.848,-18.2565,217.866,-19.1209,216.159,-20.175C214.451,-21.229,213.092,-22.5466,212.08,-24.1277C211.068,-25.7088,210.562,-27.68,210.562,-30.0411L210.562,-30.1676C210.562,-32.2757,210.973,-34.2363,211.795,-36.0493C212.617,-37.8623,213.819,-39.4434,215.4,-40.7926C216.981,-42.1419,218.942,-43.1959,221.282,-43.9549C223.622,-44.7138,226.31,-45.0933,229.345,-45.0933C233.646,-45.0933,237.409,-44.5873,240.634,-43.5754C243.86,-42.5635,246.759,-41.0456,249.331,-39.0218L242.121,-29.0292C240.013,-30.547,237.788,-31.6538,235.448,-32.3495C233.108,-33.0452,230.905,-33.393,228.839,-33.393C227.743,-33.393,226.932,-33.2244,226.404,-32.8871C225.877,-32.5498,225.614,-32.1071,225.614,-31.559L225.614,-31.4325C225.614,-31.1373,225.698,-30.8633,225.867,-30.6103C226.036,-30.3573,226.341,-30.1149,226.784,-29.883C227.227,-29.6511,227.827,-29.4297,228.586,-29.2189C229.345,-29.0081,230.315,-28.7973,231.496,-28.5865C234.321,-28.0805,236.893,-27.4692,239.211,-26.7524C241.53,-26.0356,243.523,-25.1186,245.188,-24.0012C246.854,-22.8839,248.139,-21.5453,249.046,-19.9852C249.952,-18.4252,250.406,-16.5279,250.406,-14.2932L250.406,-14.1667C250.406,-11.8478,249.942,-9.76072,249.014,-7.90555C248.087,-6.05038,246.78,-4.47981,245.093,-3.19384C243.407,-1.90787,241.351,-0.917044,238.927,-0.221355C236.503,0.474333,233.815,0.822177,230.863,0.822177ZM266.648,-44.2711L283.218,-44.2711L291.819,-19.416L300.421,-44.2711L316.738,-44.2711L298.776,0.316222L284.609,0.316222ZM317.106,-10.7515L335.447,-23.9064C336.839,-24.8761,337.829,-25.8037,338.42,-26.6891C339.01,-27.5746,339.305,-28.4389,339.305,-29.2822C339.305,-30.2519,338.957,-31.0425,338.262,-31.6538C337.566,-32.2652,336.586,-32.5709,335.321,-32.5709C334.056,-32.5709,332.78,-32.1492,331.495,-31.306C330.209,-30.4627,328.638,-29.0503,326.783,-27.0686L317.043,-35.3536C318.308,-36.9137,319.605,-38.305,320.933,-39.5277C322.261,-40.7505,323.705,-41.7729,325.265,-42.5951C326.825,-43.4173,328.522,-44.0392,330.356,-44.4608C332.19,-44.8824,334.267,-45.0933,336.586,-45.0933C339.115,-45.0933,341.445,-44.7349,343.574,-44.0181C345.703,-43.3013,347.538,-42.3,349.076,-41.014C350.615,-39.728,351.817,-38.1996,352.681,-36.4288C353.546,-34.6579,353.978,-32.7184,353.978,-30.6103L353.978,-30.4838C353.978,-28.7973,353.767,-27.29,353.345,-25.9618C352.924,-24.6337,352.312,-23.4215,351.511,-22.3253C350.71,-21.229,349.762,-20.2171,348.665,-19.2895C347.569,-18.362,346.367,-17.4765,345.06,-16.6333L337.155,-11.5737L354.421,-11.5737L354.421,0L317.106,0Z" transform="translate(310.256,152.902) scale(1.1509,1)"></path>
        <path fill="#FFFFFF" d="M2.65626,-44.2711L17.4555,-44.2711L17.4555,0L2.65626,0ZM46.4823,0.948666C43.0249,0.948666,39.7889,0.400548,36.7743,-0.695688C33.7596,-1.79192,31.1244,-3.35195,28.8687,-5.37577C26.613,-7.3996,24.8422,-9.82396,23.5562,-12.6489C22.2702,-15.4738,21.6272,-18.5939,21.6272,-22.0091L21.6272,-22.1355C21.6272,-25.4242,22.2386,-28.4811,23.4613,-31.306C24.6841,-34.1309,26.3917,-36.5763,28.5841,-38.6423C30.7766,-40.7083,33.3591,-42.321,36.3316,-43.4805C39.304,-44.64,42.5401,-45.2197,46.0396,-45.2197C49.8764,-45.2197,53.3232,-44.6295,56.38,-43.4489C59.4369,-42.2683,62.1669,-40.624,64.5702,-38.5158L56.2852,-28.5232C54.8095,-29.7459,53.2705,-30.6946,51.6683,-31.3692C50.0661,-32.0438,48.3375,-32.3811,46.4823,-32.3811C45.0487,-32.3811,43.7206,-32.1176,42.4979,-31.5906C41.2752,-31.0635,40.2211,-30.3362,39.3357,-29.4086C38.4502,-28.4811,37.7651,-27.3848,37.2802,-26.1199C36.7954,-24.855,36.5529,-23.4637,36.5529,-21.9458L36.5529,-21.8193C36.5529,-20.2593,36.8164,-18.8257,37.3435,-17.5187C37.8705,-16.2116,38.5978,-15.0943,39.5254,-14.1667C40.453,-13.2392,41.5598,-12.5224,42.8457,-12.0164C44.1317,-11.5105,45.5547,-11.2575,47.1147,-11.2575C48.3796,-11.2575,49.3915,-11.3418,50.1505,-11.5105C50.9094,-11.6791,51.584,-11.9321,52.1743,-12.2694L52.1743,-16.6965L44.585,-16.6965L44.585,-26.1832L66.0248,-26.1832L66.0248,-5.692C63.6215,-3.71034,60.7755,-2.10815,57.4868,-0.885422C54.1981,0.337303,50.5299,0.948666,46.4823,0.948666ZM70.311,-44.2711L85.1102,-44.2711L85.1102,-12.6489L105.918,-12.6489L105.918,0L70.311,0ZM132.35,-12.1429C133.741,-12.1429,135.006,-12.417,136.145,-12.9651C137.283,-13.5132,138.253,-14.2405,139.054,-15.147C139.855,-16.0535,140.466,-17.0971,140.888,-18.2776C141.309,-19.4582,141.52,-20.702,141.52,-22.0091L141.52,-22.1355C141.52,-23.4426,141.299,-24.6969,140.856,-25.8986C140.414,-27.1002,139.792,-28.1648,138.991,-29.0924C138.189,-30.02,137.22,-30.7579,136.081,-31.306C134.943,-31.8541,133.657,-32.1282,132.223,-32.1282C130.832,-32.1282,129.567,-31.8541,128.429,-31.306C127.29,-30.7579,126.321,-30.0305,125.519,-29.124C124.718,-28.2175,124.107,-27.174,123.685,-25.9935C123.264,-24.8129,123.053,-23.5691,123.053,-22.262L123.053,-22.1355C123.053,-20.8285,123.274,-19.5741,123.717,-18.3725C124.16,-17.1709,124.782,-16.1062,125.583,-15.1787C126.384,-14.2511,127.354,-13.5132,128.492,-12.9651C129.63,-12.417,130.916,-12.1429,132.35,-12.1429ZM132.223,0.948666C128.808,0.948666,125.635,0.358385,122.705,-0.822177C119.775,-2.00274,117.224,-3.62601,115.053,-5.692C112.881,-7.75798,111.184,-10.1929,109.961,-12.9967C108.739,-15.8006,108.127,-18.8047,108.127,-22.0091L108.127,-22.1355C108.127,-25.3399,108.749,-28.344,109.993,-31.1479C111.237,-33.9517,112.944,-36.3972,115.116,-38.4842C117.287,-40.5713,119.849,-42.2156,122.8,-43.4173C125.751,-44.6189,128.935,-45.2197,132.35,-45.2197C135.765,-45.2197,138.938,-44.6295,141.868,-43.4489C144.798,-42.2683,147.349,-40.6451,149.521,-38.5791C151.692,-36.5131,153.389,-34.0782,154.612,-31.2744C155.835,-28.4705,156.446,-25.4664,156.446,-22.262L156.446,-22.1355C156.446,-18.9312,155.824,-15.927,154.58,-13.1232C153.336,-10.3194,151.629,-7.87393,149.457,-5.78686C147.286,-3.6998,144.725,-2.05544,141.773,-0.853799C138.822,0.347844,135.639,0.948666,132.223,0.948666ZM183.694,-12.1429C185.085,-12.1429,186.35,-12.417,187.488,-12.9651C188.627,-13.5132,189.596,-14.2405,190.398,-15.147C191.199,-16.0535,191.81,-17.0971,192.232,-18.2776C192.653,-19.4582,192.864,-20.702,192.864,-22.0091L192.864,-22.1355C192.864,-23.4426,192.643,-24.6969,192.2,-25.8986C191.757,-27.1002,191.135,-28.1648,190.334,-29.0924C189.533,-30.02,188.563,-30.7579,187.425,-31.306C186.287,-31.8541,185.001,-32.1282,183.567,-32.1282C182.176,-32.1282,180.911,-31.8541,179.772,-31.306C178.634,-30.7579,177.664,-30.0305,176.863,-29.124C176.062,-28.2175,175.451,-27.174,175.029,-25.9935C174.607,-24.8129,174.397,-23.5691,174.397,-22.262L174.397,-22.1355C174.397,-20.8285,174.618,-19.5741,175.061,-18.3725C175.503,-17.1709,176.125,-16.1062,176.926,-15.1787C177.728,-14.2511,178.697,-13.5132,179.836,-12.9651C180.974,-12.417,182.26,-12.1429,183.694,-12.1429ZM183.567,0.948666C180.152,0.948666,176.979,0.358385,174.049,-0.822177C171.118,-2.00274,168.568,-3.62601,166.396,-5.692C164.225,-7.75798,162.528,-10.1929,161.305,-12.9967C160.082,-15.8006,159.471,-18.8047,159.471,-22.0091L159.471,-22.1355C159.471,-25.3399,160.093,-28.344,161.337,-31.1479C162.581,-33.9517,164.288,-36.3972,166.46,-38.4842C168.631,-40.5713,171.192,-42.2156,174.144,-43.4173C177.095,-44.6189,180.278,-45.2197,183.694,-45.2197C187.109,-45.2197,190.282,-44.6295,193.212,-43.4489C196.142,-42.2683,198.693,-40.6451,200.864,-38.5791C203.036,-36.5131,204.733,-34.0782,205.956,-31.2744C207.178,-28.4705,207.79,-25.4664,207.79,-22.262L207.79,-22.1355C207.79,-18.9312,207.168,-15.927,205.924,-13.1232C204.68,-10.3194,202.973,-7.87393,200.801,-5.78686C198.63,-3.6998,196.068,-2.05544,193.117,-0.853799C190.166,0.347844,186.982,0.948666,183.567,0.948666ZM230.863,0.822177C226.352,0.822177,222.146,0.200274,218.246,-1.04353C214.346,-2.28734,210.983,-4.15305,208.158,-6.64066L216.064,-16.0641C218.467,-14.2089,220.997,-12.8808,223.653,-12.0797C226.31,-11.2786,228.945,-10.878,231.559,-10.878C232.908,-10.878,233.878,-11.0467,234.468,-11.384C235.058,-11.7213,235.354,-12.1851,235.354,-12.7754L235.354,-12.9019C235.354,-13.5343,234.921,-14.0613,234.057,-14.483C233.193,-14.9046,231.58,-15.3473,229.219,-15.8111C226.731,-16.3171,224.36,-16.9073,222.104,-17.5819C219.848,-18.2565,217.866,-19.1209,216.159,-20.175C214.451,-21.229,213.092,-22.5466,212.08,-24.1277C211.068,-25.7088,210.562,-27.68,210.562,-30.0411L210.562,-30.1676C210.562,-32.2757,210.973,-34.2363,211.795,-36.0493C212.617,-37.8623,213.819,-39.4434,215.4,-40.7926C216.981,-42.1419,218.942,-43.1959,221.282,-43.9549C223.622,-44.7138,226.31,-45.0933,229.345,-45.0933C233.646,-45.0933,237.409,-44.5873,240.634,-43.5754C243.86,-42.5635,246.759,-41.0456,249.331,-39.0218L242.121,-29.0292C240.013,-30.547,237.788,-31.6538,235.448,-32.3495C233.108,-33.0452,230.905,-33.393,228.839,-33.393C227.743,-33.393,226.932,-33.2244,226.404,-32.8871C225.877,-32.5498,225.614,-32.1071,225.614,-31.559L225.614,-31.4325C225.614,-31.1373,225.698,-30.8633,225.867,-30.6103C226.036,-30.3573,226.341,-30.1149,226.784,-29.883C227.227,-29.6511,227.827,-29.4297,228.586,-29.2189C229.345,-29.0081,230.315,-28.7973,231.496,-28.5865C234.321,-28.0805,236.893,-27.4692,239.211,-26.7524C241.53,-26.0356,243.523,-25.1186,245.188,-24.0012C246.854,-22.8839,248.139,-21.5453,249.046,-19.9852C249.952,-18.4252,250.406,-16.5279,250.406,-14.2932L250.406,-14.1667C250.406,-11.8478,249.942,-9.76072,249.014,-7.90555C248.087,-6.05038,246.78,-4.47981,245.093,-3.19384C243.407,-1.90787,241.351,-0.917044,238.927,-0.221355C236.503,0.474333,233.815,0.822177,230.863,0.822177ZM266.648,-44.2711L283.218,-44.2711L291.819,-19.416L300.421,-44.2711L316.738,-44.2711L298.776,0.316222L284.609,0.316222ZM317.106,-10.7515L335.447,-23.9064C336.839,-24.8761,337.829,-25.8037,338.42,-26.6891C339.01,-27.5746,339.305,-28.4389,339.305,-29.2822C339.305,-30.2519,338.957,-31.0425,338.262,-31.6538C337.566,-32.2652,336.586,-32.5709,335.321,-32.5709C334.056,-32.5709,332.78,-32.1492,331.495,-31.306C330.209,-30.4627,328.638,-29.0503,326.783,-27.0686L317.043,-35.3536C318.308,-36.9137,319.605,-38.305,320.933,-39.5277C322.261,-40.7505,323.705,-41.7729,325.265,-42.5951C326.825,-43.4173,328.522,-44.0392,330.356,-44.4608C332.19,-44.8824,334.267,-45.0933,336.586,-45.0933C339.115,-45.0933,341.445,-44.7349,343.574,-44.0181C345.703,-43.3013,347.538,-42.3,349.076,-41.014C350.615,-39.728,351.817,-38.1996,352.681,-36.4288C353.546,-34.6579,353.978,-32.7184,353.978,-30.6103L353.978,-30.4838C353.978,-28.7973,353.767,-27.29,353.345,-25.9618C352.924,-24.6337,352.312,-23.4215,351.511,-22.3253C350.71,-21.229,349.762,-20.2171,348.665,-19.2895C347.569,-18.362,346.367,-17.4765,345.06,-16.6333L337.155,-11.5737L354.421,-11.5737L354.421,0L317.106,0Z" transform="translate(310.256,152.902) scale(1.1509,1)"></path>
    </g>
    <g filter="url(#Filter-0)" opacity="1" transform="translate(701.9,131.7) translate(-59.6,-35.3)" style="animation: 3.5s linear infinite both a3_o;">
        <g transform="translate(59.6,35.3) translate(-59.6,-35.3)">
            <path class="st36" d="M797.8,120.7L849.6,141.1" stroke-linecap="round" stroke-width="3" stroke="#none" stroke-miterlimit="10" fill="none" transform="translate(-732.3,-116.4)"></path>
            <path class="st36" d="M814.2,150.8L851.5,187" stroke-linecap="round" stroke-width="3" stroke="#none" stroke-miterlimit="10" fill="none" transform="translate(-732.3,-116.4)"></path>
            <path class="st36" d="M747.7,118.9L755.5,140.7" stroke-linecap="round" stroke-width="3" stroke="#none" stroke-miterlimit="10" fill="none" transform="translate(-732.3,-116.4)"></path>
            <path class="st36" d="M732.3,137.2L747.7,149.6" stroke-linecap="round" stroke-width="3" stroke="#none" stroke-miterlimit="10" fill="none" transform="translate(-732.3,-116.4)"></path>
            <path class="st36" d="M789,116.4L779.5,142.6" stroke-linecap="round" stroke-width="3" stroke="#none" stroke-miterlimit="10" fill="none" transform="translate(-732.3,-116.4)"></path>
            <path class="st36" d="M808.1,135.7L786.5,148.9" stroke-linecap="round" stroke-width="3" stroke="#none" stroke-miterlimit="10" fill="none" transform="translate(-732.3,-116.4)"></path>
        </g>
        <g transform="translate(35.065,55.775) translate(-35.2232,-16.3481)">
            <path d="M0,0C0,0,-0.650668,-32.6961,0,-32.6961C0.650668,-32.6961,-8.85195,-32.0781,-8.85195,-23.4015C-8.85195,-15.9285,-8.85195,-8.28125,-8.85195,-8.28125C-8.85195,-8.28125,-8.96227,-0.477166,0,0Z" fill="none" stroke="none" transform="translate(8.85201,32.6961)"></path>
            <path d="M0,0C0,0,-0.650668,-32.6961,0,-32.6961C0.650668,-32.6961,-8.85195,-32.0781,-8.85195,-23.4015C-8.85195,-15.9285,-8.85195,-8.28125,-8.85195,-8.28125C-8.85195,-8.28125,-8.96227,-0.477166,0,0Z" fill="none" stroke="none" transform="translate(61.5943,32.6961) scale(-1,1)"></path>
        </g>
    </g>
    <g opacity="1" transform="translate(922.582,106.7) translate(-7.26071,-8.2089)" style="animation: 3.5s linear infinite both a4_o;">
        <path class="st51" d="M1010.9,134.6C1011.5,134.5,1012,134.1,1012.2,133.5L1014.7,124.6C1014.8,124.2,1014.8,123.8,1014.6,123.5L1012.2,119C1011.8,118.2,1010.7,118.4,1010.4,119.2L1005.4,133.5C1005.1,134.2,1005.7,135,1006.4,134.9ZM1016.2,126.2C1016,125.8,1015.4,125.9,1015.3,126.3L1013.4,133.2C1013.2,133.8,1013.7,134.3,1014.3,134.3L1018.9,134C1019.6,133.9,1020.1,133.1,1019.7,132.4Z" fill="none" fill-rule="evenodd" stroke="none" filter="url(#Filter-1)" transform="translate(-1005.32,-118.491)"></path>
        <path class="st51" d="M1010.9,134.6C1011.5,134.5,1012,134.1,1012.2,133.5L1014.7,124.6C1014.8,124.2,1014.8,123.8,1014.6,123.5L1012.2,119C1011.8,118.2,1010.7,118.4,1010.4,119.2L1005.4,133.5C1005.1,134.2,1005.7,135,1006.4,134.9ZM1016.2,126.2C1016,125.8,1015.4,125.9,1015.3,126.3L1013.4,133.2C1013.2,133.8,1013.7,134.3,1014.3,134.3L1018.9,134C1019.6,133.9,1020.1,133.1,1019.7,132.4Z" fill="none" fill-rule="evenodd" stroke="none" filter="url(#Filter-1)" transform="translate(-1005.32,-118.491)"></path>
    </g>
</svg>
