<?xml version="1.0" encoding="utf-8"?>
<!-- Generator: Adobe Illustrator 25.2.3, SVG Export Plug-In . SVG Version: 6.00 Build 0)  -->
<svg version="1.1" id="Layer_1" xmlns="http://www.w3.org/2000/svg" xmlns:xlink="http://www.w3.org/1999/xlink" x="0px" y="0px"
	 viewBox="0 0 950.8 185.8" style="enable-background:new 0 0 950.8 185.8;" xml:space="preserve">
<style type="text/css">
	.st0{fill:url(#SVGID_1_);}
	.st1{clip-path:url(#SVGID_6_);}
	.st2{opacity:0.48;clip-path:url(#SVGID_7_);fill:url(#SVGID_8_);enable-background:new    ;}
	.st3{clip-path:url(#SVGID_11_);}
	.st4{clip-path:url(#SVGID_12_);fill:#FFFFFF;}
	.st5{clip-path:url(#SVGID_15_);}
	.st6{clip-path:url(#SVGID_16_);fill:#E5D4FF;}
	.st7{clip-path:url(#SVGID_19_);}
	.st8{clip-path:url(#SVGID_20_);fill:none;stroke:#14142B;stroke-width:3;stroke-miterlimit:10;}
	.st9{clip-path:url(#SVGID_23_);}
	.st10{clip-path:url(#SVGID_24_);fill:#FFD00B;}
	.st11{clip-path:url(#SVGID_27_);}
	.st12{clip-path:url(#SVGID_28_);fill:#FFB510;}
	.st13{clip-path:url(#SVGID_31_);}
	.st14{clip-path:url(#SVGID_32_);fill:none;stroke:#14142B;stroke-width:3;stroke-linecap:round;stroke-miterlimit:10;}
	.st15{clip-path:url(#SVGID_35_);}
	.st16{clip-path:url(#SVGID_36_);fill:none;stroke:#14142B;stroke-width:3;stroke-linecap:round;stroke-miterlimit:10;}
	.st17{clip-path:url(#SVGID_39_);}
	.st18{clip-path:url(#SVGID_40_);fill:none;stroke:#14142B;stroke-width:3;stroke-linecap:round;stroke-miterlimit:10;}
	.st19{clip-path:url(#SVGID_43_);}
	.st20{opacity:0.47;clip-path:url(#SVGID_44_);fill:url(#SVGID_45_);enable-background:new    ;}
	.st21{clip-path:url(#SVGID_48_);}
	.st22{clip-path:url(#SVGID_49_);fill:url(#SVGID_50_);}
	.st23{clip-path:url(#SVGID_53_);}
	.st24{opacity:0.48;clip-path:url(#SVGID_54_);fill:url(#SVGID_55_);enable-background:new    ;}
	.st25{clip-path:url(#SVGID_58_);}
	.st26{opacity:0.69;clip-path:url(#SVGID_59_);fill:url(#SVGID_60_);enable-background:new    ;}
	.st27{clip-path:url(#SVGID_63_);}
	.st28{clip-path:url(#SVGID_64_);}
	.st29{fill:#FFFFFF;}
	.st30{fill:#14142B;}
	.st31{clip-path:url(#SVGID_67_);}
	.st32{clip-path:url(#SVGID_68_);fill:#FFD00B;}
	.st33{clip-path:url(#SVGID_71_);}
	.st34{clip-path:url(#SVGID_72_);fill:#FFB510;}
	.st35{clip-path:url(#SVGID_75_);}
	.st36{clip-path:url(#SVGID_76_);}
	.st37{clip-path:url(#SVGID_79_);}
	.st38{clip-path:url(#SVGID_80_);}
	.st39{clip-path:url(#SVGID_83_);}
	.st40{clip-path:url(#SVGID_84_);}
	.st41{clip-path:url(#SVGID_87_);}
	.st42{clip-path:url(#SVGID_88_);}
	.st43{clip-path:url(#SVGID_91_);}
	.st44{clip-path:url(#SVGID_92_);fill:#E5D4FF;}
	.st45{clip-path:url(#SVGID_95_);}
	.st46{clip-path:url(#SVGID_96_);fill:#E5D4FF;}
	.st47{clip-path:url(#SVGID_99_);}
	.st48{clip-path:url(#SVGID_100_);fill:#E5D4FF;}
	.st49{clip-path:url(#SVGID_103_);}
	.st50{clip-path:url(#SVGID_104_);fill:#E5D4FF;}
	.st51{clip-path:url(#SVGID_107_);}
	.st52{clip-path:url(#SVGID_108_);fill:#E5D4FF;}
	.st53{clip-path:url(#SVGID_111_);}
	.st54{clip-path:url(#SVGID_112_);fill:#E5D4FF;}
	.st55{clip-path:url(#SVGID_115_);}
	.st56{clip-path:url(#SVGID_116_);fill:#E5D4FF;}
	.st57{clip-path:url(#SVGID_119_);}
	.st58{clip-path:url(#SVGID_120_);fill:#E5D4FF;}
	.st59{clip-path:url(#SVGID_123_);}
	.st60{clip-path:url(#SVGID_124_);}
	.st61{clip-path:url(#SVGID_127_);}
	.st62{clip-path:url(#SVGID_128_);}
	.st63{clip-path:url(#SVGID_131_);}
	.st64{clip-path:url(#SVGID_132_);fill:#FFD00B;}
	.st65{clip-path:url(#SVGID_135_);}
	.st66{clip-path:url(#SVGID_136_);fill:#FFB510;}
	.st67{clip-path:url(#SVGID_139_);}
	.st68{clip-path:url(#SVGID_140_);}
	.st69{clip-path:url(#SVGID_143_);}
	.st70{clip-path:url(#SVGID_144_);}
	.st71{clip-path:url(#SVGID_147_);}
	.st72{clip-path:url(#SVGID_148_);}
	.st73{clip-path:url(#SVGID_151_);}
	.st74{clip-path:url(#SVGID_152_);}
	.st75{fill:#BA9808;}
	.st76{fill:#FFD00B;}
	.st77{fill:#FFB510;}
	.st78{fill:#E5D4FF;}
	.st79{fill:#21387F;}
	.st80{fill:url(#SVGID_153_);}
	.st81{fill:#99FFC2;}
	.st82{fill:#FF0000;}
	.st83{fill:#B52854;}
	.st84{fill:#D81342;}
	.st85{fill:#A02450;}
	.st86{fill:#AD2B53;}
	.st87{opacity:0.34;}
	.st88{fill:#FF8F33;}
	.st89{fill:#771F3F;}
	.st90{fill:#8E3278;}
	.st91{fill:#EBC651;}
	.st92{fill:#E94043;}
	.st93{fill:#AD8CB5;}
	.st94{fill:#A093AA;}
	.st95{fill:#6B577A;}
	.st96{fill:#D7B8B1;}
	.st97{fill:url(#SVGID_154_);}
	.st98{fill:url(#SVGID_155_);}
	.st99{fill:url(#SVGID_156_);}
	.st100{opacity:0.46;fill:#FF8927;enable-background:new    ;}
	.st101{fill:#57497F;}
	.st102{fill:none;stroke:#000000;stroke-width:3;stroke-miterlimit:10;}
</style>
<g id="Layer_1_1_">
	<g>
		
			<linearGradient id="SVGID_1_" gradientUnits="userSpaceOnUse" x1="430.9484" y1="238.1639" x2="475.5102" y2="40.8186" gradientTransform="matrix(1 0 0 -1 0 189.8132)">
			<stop  offset="0" style="stop-color:#4E309C"/>
			<stop  offset="1" style="stop-color:#3B2475"/>
		</linearGradient>
		<path class="st0" d="M906,171.9H22.5C10.1,171.9,0,161.8,0,149.4v-101C0,36,10.1,25.9,22.5,25.9h883.4c12.4,0,22.5,10.1,22.5,22.5
			v101C928.5,161.8,918.4,171.9,906,171.9z"/>
	</g>
</g>
<g id="Layer_10">
	<g>
		<g>
			<g>
				<defs>
					<path id="SVGID_2_" d="M906,171.9H22.5C10.1,171.9,0,161.8,0,149.4v-101C0,36,10.1,25.9,22.5,25.9h883.4
						c12.4,0,22.5,10.1,22.5,22.5v101C928.5,161.8,918.4,171.9,906,171.9z"/>
				</defs>
				<clipPath id="SVGID_3_">
					<use xlink:href="#SVGID_2_"  style="overflow:visible;"/>
				</clipPath>
			</g>
			<g>
				<defs>
					<path id="SVGID_4_" d="M906,171.9H22.5C10.1,171.9,0,161.8,0,149.4v-101C0,36,10.1,25.9,22.5,25.9h883.4
						c12.4,0,22.5,10.1,22.5,22.5v101C928.5,161.8,918.4,171.9,906,171.9z"/>
				</defs>
				<defs>
					<path id="SVGID_5_" d="M906,171.9H22.5C10.1,171.9,0,161.8,0,149.4v-101C0,36,10.1,25.9,22.5,25.9h883.4
						c12.4,0,22.5,10.1,22.5,22.5v101C928.5,161.8,918.4,171.9,906,171.9z"/>
				</defs>
				<clipPath id="SVGID_6_">
					<use xlink:href="#SVGID_4_"  style="overflow:visible;"/>
				</clipPath>
				<clipPath id="SVGID_7_" class="st1">
					<use xlink:href="#SVGID_5_"  style="overflow:visible;"/>
				</clipPath>
				
					<linearGradient id="SVGID_8_" gradientUnits="userSpaceOnUse" x1="330.1" y1="51.7149" x2="887.2" y2="51.7149" gradientTransform="matrix(1 0 0 -1 0 189.8132)">
					<stop  offset="0" style="stop-color:#EF7F78"/>
					<stop  offset="1" style="stop-color:#F4AD5B"/>
				</linearGradient>
				<path class="st2" d="M330.1,203.9v-20.8c11-2.3,22.3-4.4,33.8-6.3c20.9-3.5,47.7-6.1,73.7-8c43.9-3.2,113.7-29.5,146.9-58.5
					c1.6-1.4,3.2-2.7,5-4C607.4,93.2,626.1,92,633,91.9l0,0c32.5-13.9,67.6-20.6,103-19.5L887.2,77c-6.8,13.5-13.7,26.9-20.5,40.4
					c-16.3,32.2-48.4,53.5-84.5,55.9C631.4,183.5,480.8,193.7,330.1,203.9z"/>
			</g>
			<g>
				<defs>
					<path id="SVGID_9_" d="M906,171.9H22.5C10.1,171.9,0,161.8,0,149.4v-101C0,36,10.1,25.9,22.5,25.9h883.4
						c12.4,0,22.5,10.1,22.5,22.5v101C928.5,161.8,918.4,171.9,906,171.9z"/>
				</defs>
				<defs>
					<path id="SVGID_10_" d="M906,171.9H22.5C10.1,171.9,0,161.8,0,149.4v-101C0,36,10.1,25.9,22.5,25.9h883.4
						c12.4,0,22.5,10.1,22.5,22.5v101C928.5,161.8,918.4,171.9,906,171.9z"/>
				</defs>
				<clipPath id="SVGID_11_">
					<use xlink:href="#SVGID_9_"  style="overflow:visible;"/>
				</clipPath>
				<clipPath id="SVGID_12_" class="st3">
					<use xlink:href="#SVGID_10_"  style="overflow:visible;"/>
				</clipPath>
				<path class="st4" d="M963.9,190.3c-128.4-6.1-256.8-12.2-385.3-18.3c22.2-18.3,44.4-36.7,66.6-55c8.7-5.2,15.6-6.6,20.3-6.9
					c2.2-0.1,9.2-2,9.2-2s3.8-3.7,7.6-7.5c7-6.8,15.6-9.7,18.4-10.6c4.4-1.5,4.8-0.9,6.9-2.2c2.1-1.3,3.8-3.1,8.8-12.4
					c3.5-6.5,3.9-7.7,5.9-9.9c3.4-3.6,7.1-5.1,8.2-5.5c11.6-5.1,55.3-35.5,68.8-42.7c44.4-23.9,147.3-5.3,164.5-2.1
					C963.9,73.6,963.9,131.9,963.9,190.3z"/>
			</g>
			<g>
				<defs>
					<path id="SVGID_13_" d="M906,171.9H22.5C10.1,171.9,0,161.8,0,149.4v-101C0,36,10.1,25.9,22.5,25.9h883.4
						c12.4,0,22.5,10.1,22.5,22.5v101C928.5,161.8,918.4,171.9,906,171.9z"/>
				</defs>
				<defs>
					<path id="SVGID_14_" d="M906,171.9H22.5C10.1,171.9,0,161.8,0,149.4v-101C0,36,10.1,25.9,22.5,25.9h883.4
						c12.4,0,22.5,10.1,22.5,22.5v101C928.5,161.8,918.4,171.9,906,171.9z"/>
				</defs>
				<clipPath id="SVGID_15_">
					<use xlink:href="#SVGID_13_"  style="overflow:visible;"/>
				</clipPath>
				<clipPath id="SVGID_16_" class="st5">
					<use xlink:href="#SVGID_14_"  style="overflow:visible;"/>
				</clipPath>
				<path class="st6" d="M701.4,129.5c0,0-6.9,1.9-9.2,2c-4.7,0.3-17.6,10.5-23.6,18c-15.9,1.9-28.3,14.9-44.1,28
					c112,5.3,224,10.7,335.9,16c0-53.9,0-107.9,0-161.8c-38.7-5.3-102.1-10.4-134.4,7c-13.5,7.3-57.2,37.7-68.8,42.7
					c-1.1,0.5-4.8,2-8.2,5.5c-2,2.2-2.4,3.4-5.9,9.9c-5,9.3-6.7,11.1-8.8,12.4c-2.2,1.3-2.5,0.8-6.9,2.2
					c-2.8,0.9-11.4,3.8-18.4,10.6C705.2,125.7,701.4,129.5,701.4,129.5z"/>
			</g>
			<g>
				<defs>
					<path id="SVGID_17_" d="M906,171.9H22.5C10.1,171.9,0,161.8,0,149.4v-101C0,36,10.1,25.9,22.5,25.9h883.4
						c12.4,0,22.5,10.1,22.5,22.5v101C928.5,161.8,918.4,171.9,906,171.9z"/>
				</defs>
				<defs>
					<path id="SVGID_18_" d="M906,171.9H22.5C10.1,171.9,0,161.8,0,149.4v-101C0,36,10.1,25.9,22.5,25.9h883.4
						c12.4,0,22.5,10.1,22.5,22.5v101C928.5,161.8,918.4,171.9,906,171.9z"/>
				</defs>
				<clipPath id="SVGID_19_">
					<use xlink:href="#SVGID_17_"  style="overflow:visible;"/>
				</clipPath>
				<clipPath id="SVGID_20_" class="st7">
					<use xlink:href="#SVGID_18_"  style="overflow:visible;"/>
				</clipPath>
				<path class="st8" d="M578.6,172c12.1-9.4,21.5-17.5,27.8-23.1c19-16.9,25.1-24.9,38.9-31.9c11.6-5.9,22.4-8,29.5-8.8
					c0,0,6.8-8.1,16.7-13.9c9-5.3,12.4-3.9,16.7-7.8c6.8-6.1,8.5-11.6,10-14.5c5.7-10.5,12.8-15.7,36.8-16.5"/>
			</g>
			<g>
				<defs>
					<path id="SVGID_21_" d="M906,171.9H22.5C10.1,171.9,0,161.8,0,149.4v-101C0,36,10.1,25.9,22.5,25.9h883.4
						c12.4,0,22.5,10.1,22.5,22.5v101C928.5,161.8,918.4,171.9,906,171.9z"/>
				</defs>
				<defs>
					<path id="SVGID_22_" d="M906,171.9H22.5C10.1,171.9,0,161.8,0,149.4v-101C0,36,10.1,25.9,22.5,25.9h883.4
						c12.4,0,22.5,10.1,22.5,22.5v101C928.5,161.8,918.4,171.9,906,171.9z"/>
				</defs>
				<clipPath id="SVGID_23_">
					<use xlink:href="#SVGID_21_"  style="overflow:visible;"/>
				</clipPath>
				<clipPath id="SVGID_24_" class="st9">
					<use xlink:href="#SVGID_22_"  style="overflow:visible;"/>
				</clipPath>
				<path class="st10" d="M900.8,168.1c0,12.1-11,20.7-23.1,20.7s-21.9-9.8-21.9-21.9c0-12.1,9.8-21.9,21.9-21.9
					S900.8,155.9,900.8,168.1z"/>
			</g>
			<g>
				<defs>
					<path id="SVGID_25_" d="M906,171.9H22.5C10.1,171.9,0,161.8,0,149.4v-101C0,36,10.1,25.9,22.5,25.9h883.4
						c12.4,0,22.5,10.1,22.5,22.5v101C928.5,161.8,918.4,171.9,906,171.9z"/>
				</defs>
				<defs>
					<path id="SVGID_26_" d="M906,171.9H22.5C10.1,171.9,0,161.8,0,149.4v-101C0,36,10.1,25.9,22.5,25.9h883.4
						c12.4,0,22.5,10.1,22.5,22.5v101C928.5,161.8,918.4,171.9,906,171.9z"/>
				</defs>
				<clipPath id="SVGID_27_">
					<use xlink:href="#SVGID_25_"  style="overflow:visible;"/>
				</clipPath>
				<clipPath id="SVGID_28_" class="st11">
					<use xlink:href="#SVGID_26_"  style="overflow:visible;"/>
				</clipPath>
				<path class="st12" d="M893.2,167.7c0,8.1-7.3,13.8-15.3,13.8c-8.1,0-14.6-6.5-14.6-14.6s6.5-14.6,14.6-14.6
					C885.9,152.3,893.2,159.6,893.2,167.7z"/>
			</g>
			<g>
				<defs>
					<path id="SVGID_29_" d="M906,171.9H22.5C10.1,171.9,0,161.8,0,149.4v-101C0,36,10.1,25.9,22.5,25.9h883.4
						c12.4,0,22.5,10.1,22.5,22.5v101C928.5,161.8,918.4,171.9,906,171.9z"/>
				</defs>
				<defs>
					<path id="SVGID_30_" d="M906,171.9H22.5C10.1,171.9,0,161.8,0,149.4v-101C0,36,10.1,25.9,22.5,25.9h883.4
						c12.4,0,22.5,10.1,22.5,22.5v101C928.5,161.8,918.4,171.9,906,171.9z"/>
				</defs>
				<clipPath id="SVGID_31_">
					<use xlink:href="#SVGID_29_"  style="overflow:visible;"/>
				</clipPath>
				<clipPath id="SVGID_32_" class="st13">
					<use xlink:href="#SVGID_30_"  style="overflow:visible;"/>
				</clipPath>
				<path class="st14" d="M856.2,172.8c-1.4-5.9-0.4-12.4,3.2-17.9c7-10.3,21-13.1,31.3-6.1c8,5.4,11.5,15,9.4,23.9"/>
			</g>
			<g>
				<defs>
					<path id="SVGID_33_" d="M906,171.9H22.5C10.1,171.9,0,161.8,0,149.4v-101C0,36,10.1,25.9,22.5,25.9h883.4
						c12.4,0,22.5,10.1,22.5,22.5v101C928.5,161.8,918.4,171.9,906,171.9z"/>
				</defs>
				<defs>
					<path id="SVGID_34_" d="M906,171.9H22.5C10.1,171.9,0,161.8,0,149.4v-101C0,36,10.1,25.9,22.5,25.9h883.4
						c12.4,0,22.5,10.1,22.5,22.5v101C928.5,161.8,918.4,171.9,906,171.9z"/>
				</defs>
				<clipPath id="SVGID_35_">
					<use xlink:href="#SVGID_33_"  style="overflow:visible;"/>
				</clipPath>
				<clipPath id="SVGID_36_" class="st15">
					<use xlink:href="#SVGID_34_"  style="overflow:visible;"/>
				</clipPath>
				<path class="st16" d="M866.8,159.8c3.2-4.7,8.8-6.9,14.1-5.8"/>
			</g>
			<g>
				<defs>
					<path id="SVGID_37_" d="M906,171.9H22.5C10.1,171.9,0,161.8,0,149.4v-101C0,36,10.1,25.9,22.5,25.9h883.4
						c12.4,0,22.5,10.1,22.5,22.5v101C928.5,161.8,918.4,171.9,906,171.9z"/>
				</defs>
				<defs>
					<path id="SVGID_38_" d="M906,171.9H22.5C10.1,171.9,0,161.8,0,149.4v-101C0,36,10.1,25.9,22.5,25.9h883.4
						c12.4,0,22.5,10.1,22.5,22.5v101C928.5,161.8,918.4,171.9,906,171.9z"/>
				</defs>
				<clipPath id="SVGID_39_">
					<use xlink:href="#SVGID_37_"  style="overflow:visible;"/>
				</clipPath>
				<clipPath id="SVGID_40_" class="st17">
					<use xlink:href="#SVGID_38_"  style="overflow:visible;"/>
				</clipPath>
				<path class="st18" d="M891.4,163.7c0.8,2.8,0.7,5.9-0.4,8.8"/>
			</g>
			<g>
				<defs>
					<path id="SVGID_41_" d="M906,171.9H22.5C10.1,171.9,0,161.8,0,149.4v-101C0,36,10.1,25.9,22.5,25.9h883.4
						c12.4,0,22.5,10.1,22.5,22.5v101C928.5,161.8,918.4,171.9,906,171.9z"/>
				</defs>
				<defs>
					<path id="SVGID_42_" d="M906,171.9H22.5C10.1,171.9,0,161.8,0,149.4v-101C0,36,10.1,25.9,22.5,25.9h883.4
						c12.4,0,22.5,10.1,22.5,22.5v101C928.5,161.8,918.4,171.9,906,171.9z"/>
				</defs>
				<clipPath id="SVGID_43_">
					<use xlink:href="#SVGID_41_"  style="overflow:visible;"/>
				</clipPath>
				<clipPath id="SVGID_44_" class="st19">
					<use xlink:href="#SVGID_42_"  style="overflow:visible;"/>
				</clipPath>
				
					<linearGradient id="SVGID_45_" gradientUnits="userSpaceOnUse" x1="337.7" y1="68.9066" x2="590.9" y2="68.9066" gradientTransform="matrix(1 0 0 -1 0 189.8132)">
					<stop  offset="0" style="stop-color:#EF7F78"/>
					<stop  offset="1" style="stop-color:#F4AD5B"/>
				</linearGradient>
				<circle class="st20" cx="464.3" cy="120.9" r="126.6"/>
			</g>
			<g>
				<defs>
					<path id="SVGID_46_" d="M906,171.9H22.5C10.1,171.9,0,161.8,0,149.4v-101C0,36,10.1,25.9,22.5,25.9h883.4
						c12.4,0,22.5,10.1,22.5,22.5v101C928.5,161.8,918.4,171.9,906,171.9z"/>
				</defs>
				<defs>
					<path id="SVGID_47_" d="M906,171.9H22.5C10.1,171.9,0,161.8,0,149.4v-101C0,36,10.1,25.9,22.5,25.9h883.4
						c12.4,0,22.5,10.1,22.5,22.5v101C928.5,161.8,918.4,171.9,906,171.9z"/>
				</defs>
				<clipPath id="SVGID_48_">
					<use xlink:href="#SVGID_46_"  style="overflow:visible;"/>
				</clipPath>
				<clipPath id="SVGID_49_" class="st21">
					<use xlink:href="#SVGID_47_"  style="overflow:visible;"/>
				</clipPath>
				
					<linearGradient id="SVGID_50_" gradientUnits="userSpaceOnUse" x1="358.6" y1="68.9066" x2="570" y2="68.9066" gradientTransform="matrix(1 0 0 -1 0 189.8132)">
					<stop  offset="0" style="stop-color:#EF7F78"/>
					<stop  offset="1" style="stop-color:#F4AD5B"/>
				</linearGradient>
				<circle class="st22" cx="464.3" cy="120.9" r="105.7"/>
			</g>
			<g>
				<defs>
					<path id="SVGID_51_" d="M906,171.9H22.5C10.1,171.9,0,161.8,0,149.4v-101C0,36,10.1,25.9,22.5,25.9h883.4
						c12.4,0,22.5,10.1,22.5,22.5v101C928.5,161.8,918.4,171.9,906,171.9z"/>
				</defs>
				<defs>
					<path id="SVGID_52_" d="M906,171.9H22.5C10.1,171.9,0,161.8,0,149.4v-101C0,36,10.1,25.9,22.5,25.9h883.4
						c12.4,0,22.5,10.1,22.5,22.5v101C928.5,161.8,918.4,171.9,906,171.9z"/>
				</defs>
				<clipPath id="SVGID_53_">
					<use xlink:href="#SVGID_51_"  style="overflow:visible;"/>
				</clipPath>
				<clipPath id="SVGID_54_" class="st23">
					<use xlink:href="#SVGID_52_"  style="overflow:visible;"/>
				</clipPath>
				
					<linearGradient id="SVGID_55_" gradientUnits="userSpaceOnUse" x1="149.0741" y1="266.4453" x2="706.2093" y2="266.4453" gradientTransform="matrix(0.8506 0.5257 0.5257 -0.8506 -233.9086 146.5749)">
					<stop  offset="0" style="stop-color:#EF7F78"/>
					<stop  offset="1" style="stop-color:#F4AD5B"/>
				</linearGradient>
				<path class="st24" d="M7.5,39.5l39.6-11.6c43-12.5,89.2-7.7,128.6,13.5l61.8,33.2c27,14.5,56.3,24.3,86.7,28.8l0,0
					c35,5.2,68.3,18.1,97.8,37.5l126.2,83.4l-115.5,119L7.5,39.5z"/>
			</g>
			<g>
				<defs>
					<path id="SVGID_56_" d="M906,171.9H22.5C10.1,171.9,0,161.8,0,149.4v-101C0,36,10.1,25.9,22.5,25.9h883.4
						c12.4,0,22.5,10.1,22.5,22.5v101C928.5,161.8,918.4,171.9,906,171.9z"/>
				</defs>
				<defs>
					<path id="SVGID_57_" d="M906,171.9H22.5C10.1,171.9,0,161.8,0,149.4v-101C0,36,10.1,25.9,22.5,25.9h883.4
						c12.4,0,22.5,10.1,22.5,22.5v101C928.5,161.8,918.4,171.9,906,171.9z"/>
				</defs>
				<clipPath id="SVGID_58_">
					<use xlink:href="#SVGID_56_"  style="overflow:visible;"/>
				</clipPath>
				<clipPath id="SVGID_59_" class="st25">
					<use xlink:href="#SVGID_57_"  style="overflow:visible;"/>
				</clipPath>
				
					<linearGradient id="SVGID_60_" gradientUnits="userSpaceOnUse" x1="358.6" y1="68.9066" x2="570" y2="68.9066" gradientTransform="matrix(1 0 0 -1 0 189.8132)">
					<stop  offset="0" style="stop-color:#EF7F78"/>
					<stop  offset="1" style="stop-color:#F4AD5B"/>
				</linearGradient>
				<circle class="st26" cx="464.3" cy="120.9" r="105.7"/>
			</g>
			<g>
				<defs>
					<path id="SVGID_61_" d="M906,171.9H22.5C10.1,171.9,0,161.8,0,149.4v-101C0,36,10.1,25.9,22.5,25.9h883.4
						c12.4,0,22.5,10.1,22.5,22.5v101C928.5,161.8,918.4,171.9,906,171.9z"/>
				</defs>
				<defs>
					<path id="SVGID_62_" d="M906,171.9H22.5C10.1,171.9,0,161.8,0,149.4v-101C0,36,10.1,25.9,22.5,25.9h883.4
						c12.4,0,22.5,10.1,22.5,22.5v101C928.5,161.8,918.4,171.9,906,171.9z"/>
				</defs>
				<clipPath id="SVGID_63_">
					<use xlink:href="#SVGID_61_"  style="overflow:visible;"/>
				</clipPath>
				<clipPath id="SVGID_64_" class="st27">
					<use xlink:href="#SVGID_62_"  style="overflow:visible;"/>
				</clipPath>
				<g class="st28">
					<path class="st29" d="M172,116.6L220.4,81c6.3-4.6,14.3-5.4,21.3-2.1l22.8,11c6.3,3,13.3,4.1,20.1,3.1l1.3-0.2
						c6-0.9,12.1,0.3,17.5,3.2l32,17.6l66.9,62.8l-234.1,6.7L172,116.6z"/>
					<path class="st30" d="M166.4,184.5l4.1-68.7l49-36.1c6.8-5,15.3-5.8,22.8-2.2l22.8,11c6,2.9,12.7,3.9,19.2,3l1.3-0.2
						c6.3-0.9,12.7,0.3,18.4,3.4l32.1,17.7l0.1,0.1l69.5,65.3L166.4,184.5z M173.4,117.3l-3.8,64.1l228.9-6.5l-64.1-60.2l-31.8-17.5
						c-5.1-2.8-10.9-3.9-16.6-3.1l-1.3,0.2c-7.1,1-14.4-0.1-20.9-3.3L241,80c-6.5-3.1-13.8-2.4-19.7,1.9L173.4,117.3z"/>
				</g>
			</g>
			<g>
				<defs>
					<path id="SVGID_65_" d="M906,171.9H22.5C10.1,171.9,0,161.8,0,149.4v-101C0,36,10.1,25.9,22.5,25.9h883.4
						c12.4,0,22.5,10.1,22.5,22.5v101C928.5,161.8,918.4,171.9,906,171.9z"/>
				</defs>
				<defs>
					<path id="SVGID_66_" d="M906,171.9H22.5C10.1,171.9,0,161.8,0,149.4v-101C0,36,10.1,25.9,22.5,25.9h883.4
						c12.4,0,22.5,10.1,22.5,22.5v101C928.5,161.8,918.4,171.9,906,171.9z"/>
				</defs>
				<clipPath id="SVGID_67_">
					<use xlink:href="#SVGID_65_"  style="overflow:visible;"/>
				</clipPath>
				<clipPath id="SVGID_68_" class="st31">
					<use xlink:href="#SVGID_66_"  style="overflow:visible;"/>
				</clipPath>
				<path class="st32" d="M217.5,94.7c-0.3-6.6-4.6-12.6-11.3-15c-8.8-3.1-18.3,1.3-21.3,9.9c-1.6,4.5-1,9.3,1.2,13.2
					c1.7-0.9,4.7-2.3,8.7-2.8c4.2-0.5,7.5,0.3,9.4,0.9c1.6-1.1,3.5-2.2,5.7-3.3C212.6,96.3,215.2,95.4,217.5,94.7z"/>
			</g>
			<g>
				<defs>
					<path id="SVGID_69_" d="M906,171.9H22.5C10.1,171.9,0,161.8,0,149.4v-101C0,36,10.1,25.9,22.5,25.9h883.4
						c12.4,0,22.5,10.1,22.5,22.5v101C928.5,161.8,918.4,171.9,906,171.9z"/>
				</defs>
				<defs>
					<path id="SVGID_70_" d="M906,171.9H22.5C10.1,171.9,0,161.8,0,149.4v-101C0,36,10.1,25.9,22.5,25.9h883.4
						c12.4,0,22.5,10.1,22.5,22.5v101C928.5,161.8,918.4,171.9,906,171.9z"/>
				</defs>
				<clipPath id="SVGID_71_">
					<use xlink:href="#SVGID_69_"  style="overflow:visible;"/>
				</clipPath>
				<clipPath id="SVGID_72_" class="st33">
					<use xlink:href="#SVGID_70_"  style="overflow:visible;"/>
				</clipPath>
				<path class="st34" d="M210.5,98.2c-0.5,0.4-1.1-0.1-2.7,0.4c-2.2,0.7-2.4,2.1-4.1,2.7c-1.9,0.6-2.6-1-5.8-1.3
					c-3.4-0.3-4.3,1.3-5.9,0.5c-2.3-1.1-3-5.8-1.7-9.4c1.8-4.8,8-7.8,13.4-5.9C210.3,87.6,212.1,96.8,210.5,98.2z"/>
			</g>
			<g>
				<defs>
					<path id="SVGID_73_" d="M906,171.9H22.5C10.1,171.9,0,161.8,0,149.4v-101C0,36,10.1,25.9,22.5,25.9h883.4
						c12.4,0,22.5,10.1,22.5,22.5v101C928.5,161.8,918.4,171.9,906,171.9z"/>
				</defs>
				<defs>
					<path id="SVGID_74_" d="M906,171.9H22.5C10.1,171.9,0,161.8,0,149.4v-101C0,36,10.1,25.9,22.5,25.9h883.4
						c12.4,0,22.5,10.1,22.5,22.5v101C928.5,161.8,918.4,171.9,906,171.9z"/>
				</defs>
				<clipPath id="SVGID_75_">
					<use xlink:href="#SVGID_73_"  style="overflow:visible;"/>
				</clipPath>
				<clipPath id="SVGID_76_" class="st35">
					<use xlink:href="#SVGID_74_"  style="overflow:visible;"/>
				</clipPath>
				<g class="st36">
					<path class="st30" d="M184,104c-2.5-4.6-2.9-10.2-1.2-15.1c3.4-9.8,14.2-15,24-11.5c7.4,2.6,12.4,9.6,12.6,17.4l-3,0.1
						c-0.1-6.6-4.4-12.4-10.6-14.6c-8.2-2.9-17.3,1.5-20.2,9.7c-1.5,4.2-1.1,8.8,1,12.7L184,104z"/>
				</g>
			</g>
			<g>
				<defs>
					<path id="SVGID_77_" d="M906,171.9H22.5C10.1,171.9,0,161.8,0,149.4v-101C0,36,10.1,25.9,22.5,25.9h883.4
						c12.4,0,22.5,10.1,22.5,22.5v101C928.5,161.8,918.4,171.9,906,171.9z"/>
				</defs>
				<defs>
					<path id="SVGID_78_" d="M906,171.9H22.5C10.1,171.9,0,161.8,0,149.4v-101C0,36,10.1,25.9,22.5,25.9h883.4
						c12.4,0,22.5,10.1,22.5,22.5v101C928.5,161.8,918.4,171.9,906,171.9z"/>
				</defs>
				<clipPath id="SVGID_79_">
					<use xlink:href="#SVGID_77_"  style="overflow:visible;"/>
				</clipPath>
				<clipPath id="SVGID_80_" class="st37">
					<use xlink:href="#SVGID_78_"  style="overflow:visible;"/>
				</clipPath>
				<g class="st38">
					<path class="st30" d="M191.6,102.2c-0.5,0-1-0.3-1.3-0.7c-1.9-3.1-2.4-6.9-1.1-10.4c1.6-4.6,5.8-7.8,10.7-8.1
						c0.8-0.1,1.5,0.6,1.6,1.4s-0.6,1.5-1.4,1.6c-3.7,0.2-6.8,2.6-8,6.1c-0.9,2.6-0.6,5.5,0.9,7.8c0.4,0.7,0.2,1.6-0.5,2.1
						C192.1,102.2,191.9,102.2,191.6,102.2z"/>
				</g>
			</g>
			<g>
				<defs>
					<path id="SVGID_81_" d="M906,171.9H22.5C10.1,171.9,0,161.8,0,149.4v-101C0,36,10.1,25.9,22.5,25.9h883.4
						c12.4,0,22.5,10.1,22.5,22.5v101C928.5,161.8,918.4,171.9,906,171.9z"/>
				</defs>
				<defs>
					<path id="SVGID_82_" d="M906,171.9H22.5C10.1,171.9,0,161.8,0,149.4v-101C0,36,10.1,25.9,22.5,25.9h883.4
						c12.4,0,22.5,10.1,22.5,22.5v101C928.5,161.8,918.4,171.9,906,171.9z"/>
				</defs>
				<clipPath id="SVGID_83_">
					<use xlink:href="#SVGID_81_"  style="overflow:visible;"/>
				</clipPath>
				<clipPath id="SVGID_84_" class="st39">
					<use xlink:href="#SVGID_82_"  style="overflow:visible;"/>
				</clipPath>
				<g class="st40">
					<path class="st30" d="M212.5,103.5c-0.1,0-0.1,0-0.2,0c-0.8-0.1-1.4-0.8-1.3-1.7c0.3-2.8-0.3-5.7-1.8-8.2
						c-0.4-0.7-0.2-1.6,0.5-2.1c0.7-0.4,1.6-0.2,2.1,0.5c1.8,3,2.6,6.6,2.2,10.1C213.9,102.9,213.2,103.5,212.5,103.5z"/>
				</g>
			</g>
			<g>
				<defs>
					<path id="SVGID_85_" d="M906,171.9H22.5C10.1,171.9,0,161.8,0,149.4v-101C0,36,10.1,25.9,22.5,25.9h883.4
						c12.4,0,22.5,10.1,22.5,22.5v101C928.5,161.8,918.4,171.9,906,171.9z"/>
				</defs>
				<defs>
					<path id="SVGID_86_" d="M906,171.9H22.5C10.1,171.9,0,161.8,0,149.4v-101C0,36,10.1,25.9,22.5,25.9h883.4
						c12.4,0,22.5,10.1,22.5,22.5v101C928.5,161.8,918.4,171.9,906,171.9z"/>
				</defs>
				<clipPath id="SVGID_87_">
					<use xlink:href="#SVGID_85_"  style="overflow:visible;"/>
				</clipPath>
				<clipPath id="SVGID_88_" class="st41">
					<use xlink:href="#SVGID_86_"  style="overflow:visible;"/>
				</clipPath>
				<g class="st42">
					<path class="st29" d="M97.6,47.6C98.3,48.4,114.4,61,126,70c7.5,5.9,16.5,8.7,25.6,8l5.5-0.4c5.2-0.4,10.4,1.5,14.4,5.3
						l36.5,33.9c3.3,3.1,7.1,5.5,11.1,7.1l105.1,42.5l25.9,18.2l-402.8,6L-33.6,25l101.3-6.3c8.3-0.5,16.1,4.2,20.6,12.2L97.6,47.6z
						"/>
					<path class="st30" d="M-54.4,192.3l19.5-168.7l102.6-6.4c8.8-0.6,17.3,4.4,22,13l9.1,16.5c0.8,0.7,5.2,4.3,28.1,22.1
						c7.2,5.6,15.9,8.3,24.6,7.7l5.5-0.4c5.6-0.4,11.2,1.6,15.6,5.7l36.5,33.9c3.2,3,6.8,5.3,10.6,6.8l105.2,42.6l29.8,21
						L-54.4,192.3z M-32.2,26.4L-51,189.2l396.5-5.9l-22-15.5l-104.9-42.4c-4.2-1.7-8.1-4.2-11.5-7.4l-36.5-33.9
						c-3.8-3.5-8.5-5.2-13.3-4.9l-5.5,0.4c-9.4,0.7-18.8-2.3-26.6-8.4C97.5,49.7,96.8,48.9,96.6,48.6l-0.2-0.3l-9.2-16.7
						C83,24.1,75.7,19.7,68,20.1L-32.2,26.4z"/>
				</g>
			</g>
			<g>
				<defs>
					<path id="SVGID_89_" d="M906,171.9H22.5C10.1,171.9,0,161.8,0,149.4v-101C0,36,10.1,25.9,22.5,25.9h883.4
						c12.4,0,22.5,10.1,22.5,22.5v101C928.5,161.8,918.4,171.9,906,171.9z"/>
				</defs>
				<defs>
					<path id="SVGID_90_" d="M906,171.9H22.5C10.1,171.9,0,161.8,0,149.4v-101C0,36,10.1,25.9,22.5,25.9h883.4
						c12.4,0,22.5,10.1,22.5,22.5v101C928.5,161.8,918.4,171.9,906,171.9z"/>
				</defs>
				<clipPath id="SVGID_91_">
					<use xlink:href="#SVGID_89_"  style="overflow:visible;"/>
				</clipPath>
				<clipPath id="SVGID_92_" class="st43">
					<use xlink:href="#SVGID_90_"  style="overflow:visible;"/>
				</clipPath>
				<path class="st44" d="M121.9,180.5c-0.4-0.2-0.8-0.4-1.3-0.5c-37.8-16.2-66.1-48.7-77.5-88.2c-6.8-23.5-12.8-51.7-10.9-74
					L-18.1,6.3c-4,15.9-8.4,39.5-7.9,68.1c0.7,37,1.8,103.3,43.4,125.4C59.9,222.4,117.2,183.7,121.9,180.5z"/>
			</g>
			<g>
				<defs>
					<path id="SVGID_93_" d="M906,171.9H22.5C10.1,171.9,0,161.8,0,149.4v-101C0,36,10.1,25.9,22.5,25.9h883.4
						c12.4,0,22.5,10.1,22.5,22.5v101C928.5,161.8,918.4,171.9,906,171.9z"/>
				</defs>
				<defs>
					<path id="SVGID_94_" d="M906,171.9H22.5C10.1,171.9,0,161.8,0,149.4v-101C0,36,10.1,25.9,22.5,25.9h883.4
						c12.4,0,22.5,10.1,22.5,22.5v101C928.5,161.8,918.4,171.9,906,171.9z"/>
				</defs>
				<clipPath id="SVGID_95_">
					<use xlink:href="#SVGID_93_"  style="overflow:visible;"/>
				</clipPath>
				<clipPath id="SVGID_96_" class="st45">
					<use xlink:href="#SVGID_94_"  style="overflow:visible;"/>
				</clipPath>
				<path class="st46" d="M108.1,56L131,81.9c4.1,4.7,5.1,11.4,2.4,17.1l-11.9,25c-0.5,1,0.9,2,1.7,1.1l41-46.5
					c-5.9,0.5-15.8,0.6-27.2-3.2C121.7,70.2,112.2,60.8,108.1,56z"/>
			</g>
			<g>
				<defs>
					<path id="SVGID_97_" d="M906,171.9H22.5C10.1,171.9,0,161.8,0,149.4v-101C0,36,10.1,25.9,22.5,25.9h883.4
						c12.4,0,22.5,10.1,22.5,22.5v101C928.5,161.8,918.4,171.9,906,171.9z"/>
				</defs>
				<defs>
					<path id="SVGID_98_" d="M906,171.9H22.5C10.1,171.9,0,161.8,0,149.4v-101C0,36,10.1,25.9,22.5,25.9h883.4
						c12.4,0,22.5,10.1,22.5,22.5v101C928.5,161.8,918.4,171.9,906,171.9z"/>
				</defs>
				<clipPath id="SVGID_99_">
					<use xlink:href="#SVGID_97_"  style="overflow:visible;"/>
				</clipPath>
				<clipPath id="SVGID_100_" class="st47">
					<use xlink:href="#SVGID_98_"  style="overflow:visible;"/>
				</clipPath>
				<path class="st48" d="M71.9,181.9l69.1-19.6c6.2-1.8,11.9-5,16.7-9.4l5.8-5.4c3.7-3.4,9.6-2.7,12.3,1.6l16.1,25.6l38.5-7.7
					c6.9-1.4,14-1.3,20.9,0.3l52.7,11.9L191,193L71.9,181.9z"/>
			</g>
			<g>
				<defs>
					<path id="SVGID_101_" d="M906,171.9H22.5C10.1,171.9,0,161.8,0,149.4v-101C0,36,10.1,25.9,22.5,25.9h883.4
						c12.4,0,22.5,10.1,22.5,22.5v101C928.5,161.8,918.4,171.9,906,171.9z"/>
				</defs>
				<defs>
					<path id="SVGID_102_" d="M906,171.9H22.5C10.1,171.9,0,161.8,0,149.4v-101C0,36,10.1,25.9,22.5,25.9h883.4
						c12.4,0,22.5,10.1,22.5,22.5v101C928.5,161.8,918.4,171.9,906,171.9z"/>
				</defs>
				<clipPath id="SVGID_103_">
					<use xlink:href="#SVGID_101_"  style="overflow:visible;"/>
				</clipPath>
				<clipPath id="SVGID_104_" class="st49">
					<use xlink:href="#SVGID_102_"  style="overflow:visible;"/>
				</clipPath>
				<path class="st50" d="M289.1,92.2c-0.8,0.2-1.6,0.3-2.4,0.5c-3,0.5-5.7,0.6-8.2,0.5c-2.6-0.1-4.7-0.4-6.1-0.7
					c-4.8-1.1-8.8-3.3-14.4-6.3c-0.3-0.2-0.5-0.3-0.7-0.4c-0.4,0-0.8,0-1.2,0c-2.9-2.2-7.8-5.2-14.5-7c-5.6-1.5-10.5-1.6-13.8-1.4
					l-36.3,24.8c4.3,4.6,9.7,9.8,16.5,14.7c3.9,2.8,7.6,5.1,11.1,7.1c15.8,6.4,38,14,53.8,20.4c0.4-0.9,0.8-1.8,1.2-2.7l0.1,0.1
					c0.5-1.3,1-2.5,1.5-3.7l0,0c3.5-8.3,7.5-14.8,14.2-25.5c0.6-0.9-0.3-1.3-1.4-1.3c-4.4,0-12.7,3.4-15.8,5.8
					c-0.7,0.5-1.7-0.1-1.5-0.9c0.4-2,1-4.4,2.1-6.8c3.4-7.6,9.2-11.8,11.9-13.5c-0.2,0.1-0.4,0.2-0.7,0.3c1.2-0.7,2.4-1.4,3.6-2
					C288.4,93.5,288.8,92.9,289.1,92.2z"/>
			</g>
			<g>
				<defs>
					<path id="SVGID_105_" d="M906,171.9H22.5C10.1,171.9,0,161.8,0,149.4v-101C0,36,10.1,25.9,22.5,25.9h883.4
						c12.4,0,22.5,10.1,22.5,22.5v101C928.5,161.8,918.4,171.9,906,171.9z"/>
				</defs>
				<defs>
					<path id="SVGID_106_" d="M906,171.9H22.5C10.1,171.9,0,161.8,0,149.4v-101C0,36,10.1,25.9,22.5,25.9h883.4
						c12.4,0,22.5,10.1,22.5,22.5v101C928.5,161.8,918.4,171.9,906,171.9z"/>
				</defs>
				<clipPath id="SVGID_107_">
					<use xlink:href="#SVGID_105_"  style="overflow:visible;"/>
				</clipPath>
				<clipPath id="SVGID_108_" class="st51">
					<use xlink:href="#SVGID_106_"  style="overflow:visible;"/>
				</clipPath>
				<path class="st52" d="M271.7,103.5L271.7,103.5C271.7,103.4,271.7,103.4,271.7,103.5C271.7,103.4,271.7,103.4,271.7,103.5z"/>
			</g>
			<g>
				<defs>
					<path id="SVGID_109_" d="M906,171.9H22.5C10.1,171.9,0,161.8,0,149.4v-101C0,36,10.1,25.9,22.5,25.9h883.4
						c12.4,0,22.5,10.1,22.5,22.5v101C928.5,161.8,918.4,171.9,906,171.9z"/>
				</defs>
				<defs>
					<path id="SVGID_110_" d="M906,171.9H22.5C10.1,171.9,0,161.8,0,149.4v-101C0,36,10.1,25.9,22.5,25.9h883.4
						c12.4,0,22.5,10.1,22.5,22.5v101C928.5,161.8,918.4,171.9,906,171.9z"/>
				</defs>
				<clipPath id="SVGID_111_">
					<use xlink:href="#SVGID_109_"  style="overflow:visible;"/>
				</clipPath>
				<clipPath id="SVGID_112_" class="st53">
					<use xlink:href="#SVGID_110_"  style="overflow:visible;"/>
				</clipPath>
				<path class="st54" d="M368.9,163.4L368.9,163.4c-4.4-3.8-10.7-4.7-15.9-2.2l-21.7,10.1l-8.2,11.8l79.1-6.8l-10.7-9.3l-7.3,1
					C378.7,168.7,373.1,167.1,368.9,163.4z"/>
			</g>
			<g>
				<defs>
					<path id="SVGID_113_" d="M906,171.9H22.5C10.1,171.9,0,161.8,0,149.4v-101C0,36,10.1,25.9,22.5,25.9h883.4
						c12.4,0,22.5,10.1,22.5,22.5v101C928.5,161.8,918.4,171.9,906,171.9z"/>
				</defs>
				<defs>
					<path id="SVGID_114_" d="M906,171.9H22.5C10.1,171.9,0,161.8,0,149.4v-101C0,36,10.1,25.9,22.5,25.9h883.4
						c12.4,0,22.5,10.1,22.5,22.5v101C928.5,161.8,918.4,171.9,906,171.9z"/>
				</defs>
				<clipPath id="SVGID_115_">
					<use xlink:href="#SVGID_113_"  style="overflow:visible;"/>
				</clipPath>
				<clipPath id="SVGID_116_" class="st55">
					<use xlink:href="#SVGID_114_"  style="overflow:visible;"/>
				</clipPath>
				<path class="st56" d="M73.8,43.4c7.1,4.4,14.1,8.9,21.2,13.3v7.9l3,9.8l-17.6-6c0.3-2.7,0.4-6.4-0.4-10.6
					C78.8,51,75.8,46.1,73.8,43.4z"/>
			</g>
			<g>
				<defs>
					<path id="SVGID_117_" d="M906,171.9H22.5C10.1,171.9,0,161.8,0,149.4v-101C0,36,10.1,25.9,22.5,25.9h883.4
						c12.4,0,22.5,10.1,22.5,22.5v101C928.5,161.8,918.4,171.9,906,171.9z"/>
				</defs>
				<defs>
					<path id="SVGID_118_" d="M906,171.9H22.5C10.1,171.9,0,161.8,0,149.4v-101C0,36,10.1,25.9,22.5,25.9h883.4
						c12.4,0,22.5,10.1,22.5,22.5v101C928.5,161.8,918.4,171.9,906,171.9z"/>
				</defs>
				<clipPath id="SVGID_119_">
					<use xlink:href="#SVGID_117_"  style="overflow:visible;"/>
				</clipPath>
				<clipPath id="SVGID_120_" class="st57">
					<use xlink:href="#SVGID_118_"  style="overflow:visible;"/>
				</clipPath>
				<path class="st58" d="M306.3,147.3l-0.9,1.8l19.2,7.9l-9.8-10.8c-0.7-0.7-1.2-1.6-1.6-2.5l-3.2-6.9c-0.5-1-2-0.6-1.8,0.5l0,0
					C308.5,140.7,307.9,144.2,306.3,147.3z"/>
			</g>
			<g>
				<defs>
					<path id="SVGID_121_" d="M906,171.9H22.5C10.1,171.9,0,161.8,0,149.4v-101C0,36,10.1,25.9,22.5,25.9h883.4
						c12.4,0,22.5,10.1,22.5,22.5v101C928.5,161.8,918.4,171.9,906,171.9z"/>
				</defs>
				<defs>
					<path id="SVGID_122_" d="M906,171.9H22.5C10.1,171.9,0,161.8,0,149.4v-101C0,36,10.1,25.9,22.5,25.9h883.4
						c12.4,0,22.5,10.1,22.5,22.5v101C928.5,161.8,918.4,171.9,906,171.9z"/>
				</defs>
				<clipPath id="SVGID_123_">
					<use xlink:href="#SVGID_121_"  style="overflow:visible;"/>
				</clipPath>
				<clipPath id="SVGID_124_" class="st59">
					<use xlink:href="#SVGID_122_"  style="overflow:visible;"/>
				</clipPath>
				<g class="st60">
					<path class="st30" d="M341.7,179.5l-0.1-3l56.8-1.6l-64.1-60.2l-31.8-17.5c-5.1-2.8-10.9-3.9-16.6-3.1l-1.3,0.2
						c-7.1,1-14.4-0.1-20.9-3.3l-22.8-11c-6.5-3.1-13.8-2.4-19.7,1.9l-28.9,21.2l-1.8-2.4l28.9-21.2c6.8-5,15.3-5.8,22.8-2.2
						l22.8,11c6,2.9,12.7,3.9,19.2,3l1.3-0.2c6.3-0.9,12.7,0.3,18.4,3.4l32.1,17.7l0.1,0.1l69.5,65.3L341.7,179.5z"/>
				</g>
			</g>
			<g>
				<defs>
					<path id="SVGID_125_" d="M906,171.9H22.5C10.1,171.9,0,161.8,0,149.4v-101C0,36,10.1,25.9,22.5,25.9h883.4
						c12.4,0,22.5,10.1,22.5,22.5v101C928.5,161.8,918.4,171.9,906,171.9z"/>
				</defs>
				<defs>
					<path id="SVGID_126_" d="M906,171.9H22.5C10.1,171.9,0,161.8,0,149.4v-101C0,36,10.1,25.9,22.5,25.9h883.4
						c12.4,0,22.5,10.1,22.5,22.5v101C928.5,161.8,918.4,171.9,906,171.9z"/>
				</defs>
				<clipPath id="SVGID_127_">
					<use xlink:href="#SVGID_125_"  style="overflow:visible;"/>
				</clipPath>
				<clipPath id="SVGID_128_" class="st61">
					<use xlink:href="#SVGID_126_"  style="overflow:visible;"/>
				</clipPath>
				<g class="st62">
					<path class="st30" d="M-54.4,192.3l19.5-168.7l102.6-6.4c8.8-0.6,17.3,4.4,22,13l9.1,16.5c0.8,0.7,5.2,4.3,28.1,22.1
						c7.2,5.6,15.9,8.3,24.6,7.7l5.5-0.4c5.6-0.4,11.2,1.6,15.6,5.7l36.5,33.9c3.2,3,6.8,5.3,10.6,6.8l105.2,42.6l29.8,21
						L-54.4,192.3z M-32.2,26.4L-51,189.2l396.5-5.9l-22-15.5l-104.9-42.4c-4.2-1.7-8.1-4.2-11.5-7.4l-36.5-33.9
						c-3.8-3.5-8.5-5.2-13.3-4.9l-5.5,0.4c-9.4,0.7-18.8-2.3-26.6-8.4C97.5,49.7,96.8,48.9,96.6,48.6l-0.2-0.3l-9.2-16.7
						C83,24.1,75.7,19.7,68,20.1L-32.2,26.4z"/>
				</g>
			</g>
			<g>
				<defs>
					<path id="SVGID_129_" d="M906,171.9H22.5C10.1,171.9,0,161.8,0,149.4v-101C0,36,10.1,25.9,22.5,25.9h883.4
						c12.4,0,22.5,10.1,22.5,22.5v101C928.5,161.8,918.4,171.9,906,171.9z"/>
				</defs>
				<defs>
					<path id="SVGID_130_" d="M906,171.9H22.5C10.1,171.9,0,161.8,0,149.4v-101C0,36,10.1,25.9,22.5,25.9h883.4
						c12.4,0,22.5,10.1,22.5,22.5v101C928.5,161.8,918.4,171.9,906,171.9z"/>
				</defs>
				<clipPath id="SVGID_131_">
					<use xlink:href="#SVGID_129_"  style="overflow:visible;"/>
				</clipPath>
				<clipPath id="SVGID_132_" class="st63">
					<use xlink:href="#SVGID_130_"  style="overflow:visible;"/>
				</clipPath>
				<path class="st64" d="M64.2,210c11.1-18.8,10.2-43.4-4.2-62c-18.7-24.3-53.2-29.1-76.9-10.8c-12.6,9.7-19.7,23.9-20.8,38.8
					c6.5,0.5,17.3,2.1,29.2,8c12.4,6.2,20.3,14.3,24.6,19.3c6.5-0.1,13.8,0.2,21.9,1.2C48,205.7,56.8,207.8,64.2,210z"/>
			</g>
			<g>
				<defs>
					<path id="SVGID_133_" d="M906,171.9H22.5C10.1,171.9,0,161.8,0,149.4v-101C0,36,10.1,25.9,22.5,25.9h883.4
						c12.4,0,22.5,10.1,22.5,22.5v101C928.5,161.8,918.4,171.9,906,171.9z"/>
				</defs>
				<defs>
					<path id="SVGID_134_" d="M906,171.9H22.5C10.1,171.9,0,161.8,0,149.4v-101C0,36,10.1,25.9,22.5,25.9h883.4
						c12.4,0,22.5,10.1,22.5,22.5v101C928.5,161.8,918.4,171.9,906,171.9z"/>
				</defs>
				<clipPath id="SVGID_135_">
					<use xlink:href="#SVGID_133_"  style="overflow:visible;"/>
				</clipPath>
				<clipPath id="SVGID_136_" class="st65">
					<use xlink:href="#SVGID_134_"  style="overflow:visible;"/>
				</clipPath>
				<path class="st66" d="M37.4,205c-2.1,0.3-2.7-2.1-7.6-3.5c-6.9-2.1-9.8,1.5-15.2,0.1c-6-1.6-5.1-6.8-12.9-13
					c-8.2-6.5-13.4-4-16.2-8.6c-4.1-6.8,2.1-20.3,11.4-27.3c12.8-9.6,33.9-6.7,44.7,7.3C55,177.1,44.1,204,37.4,205z"/>
			</g>
			<g>
				<defs>
					<path id="SVGID_137_" d="M906,171.9H22.5C10.1,171.9,0,161.8,0,149.4v-101C0,36,10.1,25.9,22.5,25.9h883.4
						c12.4,0,22.5,10.1,22.5,22.5v101C928.5,161.8,918.4,171.9,906,171.9z"/>
				</defs>
				<defs>
					<path id="SVGID_138_" d="M906,171.9H22.5C10.1,171.9,0,161.8,0,149.4v-101C0,36,10.1,25.9,22.5,25.9h883.4
						c12.4,0,22.5,10.1,22.5,22.5v101C928.5,161.8,918.4,171.9,906,171.9z"/>
				</defs>
				<clipPath id="SVGID_139_">
					<use xlink:href="#SVGID_137_"  style="overflow:visible;"/>
				</clipPath>
				<clipPath id="SVGID_140_" class="st67">
					<use xlink:href="#SVGID_138_"  style="overflow:visible;"/>
				</clipPath>
				<g class="st68">
					<path class="st30" d="M64,209.5l-2.6-1.6c11.4-18.4,10.2-42.4-3.1-59.6c-8.5-11.1-20.9-18.2-34.8-20
						c-13.9-1.8-27.6,1.9-38.7,10.5c-11.6,8.9-19,22.4-20.2,37l-3-0.3c1.3-15.4,9.1-29.7,21.4-39.1c11.7-9,26.3-13,40.9-11.1
						c14.7,1.9,27.7,9.4,36.8,21.1C74.7,164.6,76,190,64,209.5z"/>
				</g>
			</g>
			<g>
				<defs>
					<path id="SVGID_141_" d="M906,171.9H22.5C10.1,171.9,0,161.8,0,149.4v-101C0,36,10.1,25.9,22.5,25.9h883.4
						c12.4,0,22.5,10.1,22.5,22.5v101C928.5,161.8,918.4,171.9,906,171.9z"/>
				</defs>
				<defs>
					<path id="SVGID_142_" d="M906,171.9H22.5C10.1,171.9,0,161.8,0,149.4v-101C0,36,10.1,25.9,22.5,25.9h883.4
						c12.4,0,22.5,10.1,22.5,22.5v101C928.5,161.8,918.4,171.9,906,171.9z"/>
				</defs>
				<clipPath id="SVGID_143_">
					<use xlink:href="#SVGID_141_"  style="overflow:visible;"/>
				</clipPath>
				<clipPath id="SVGID_144_" class="st69">
					<use xlink:href="#SVGID_142_"  style="overflow:visible;"/>
				</clipPath>
				<g class="st70">
					<path class="st30" d="M-16.1,181.1L-16.1,181.1c-0.9,0-1.5-0.7-1.5-1.5c0.2-10.5,5.1-20.1,13.4-26.5c11-8.5,25.9-9.5,37.9-2.7
						c0.7,0.4,1,1.3,0.6,2s-1.3,1-2,0.6c-11-6.2-24.6-5.3-34.6,2.5c-7.6,5.8-12,14.7-12.2,24.2C-14.6,180.4-15.3,181.1-16.1,181.1z"
						/>
				</g>
			</g>
			<g>
				<defs>
					<path id="SVGID_145_" d="M906,171.9H22.5C10.1,171.9,0,161.8,0,149.4v-101C0,36,10.1,25.9,22.5,25.9h883.4
						c12.4,0,22.5,10.1,22.5,22.5v101C928.5,161.8,918.4,171.9,906,171.9z"/>
				</defs>
				<defs>
					<path id="SVGID_146_" d="M906,171.9H22.5C10.1,171.9,0,161.8,0,149.4v-101C0,36,10.1,25.9,22.5,25.9h883.4
						c12.4,0,22.5,10.1,22.5,22.5v101C928.5,161.8,918.4,171.9,906,171.9z"/>
				</defs>
				<clipPath id="SVGID_147_">
					<use xlink:href="#SVGID_145_"  style="overflow:visible;"/>
				</clipPath>
				<clipPath id="SVGID_148_" class="st71">
					<use xlink:href="#SVGID_146_"  style="overflow:visible;"/>
				</clipPath>
				<g class="st72">
					<path class="st30" d="M42.3,202.7c-0.3,0-0.7-0.1-1-0.3c-0.6-0.5-0.7-1.5-0.2-2.1c4.3-5.2,6.8-11.9,7.1-18.7
						c0-0.8,0.7-1.5,1.6-1.4c0.8,0,1.5,0.7,1.4,1.6c-0.3,7.5-3.1,14.8-7.8,20.5C43.1,202.5,42.7,202.7,42.3,202.7z"/>
				</g>
			</g>
			<g>
				<defs>
					<path id="SVGID_149_" d="M906,171.9H22.5C10.1,171.9,0,161.8,0,149.4v-101C0,36,10.1,25.9,22.5,25.9h883.4
						c12.4,0,22.5,10.1,22.5,22.5v101C928.5,161.8,918.4,171.9,906,171.9z"/>
				</defs>
				<defs>
					<path id="SVGID_150_" d="M906,171.9H22.5C10.1,171.9,0,161.8,0,149.4v-101C0,36,10.1,25.9,22.5,25.9h883.4
						c12.4,0,22.5,10.1,22.5,22.5v101C928.5,161.8,918.4,171.9,906,171.9z"/>
				</defs>
				<clipPath id="SVGID_151_">
					<use xlink:href="#SVGID_149_"  style="overflow:visible;"/>
				</clipPath>
				<clipPath id="SVGID_152_" class="st73">
					<use xlink:href="#SVGID_150_"  style="overflow:visible;"/>
				</clipPath>
				<g class="st74">
					<ellipse transform="matrix(0.98 -0.199 0.199 0.98 -13.1375 17.1194)" class="st75" cx="78.6" cy="73.9" rx="21.1" ry="26.5"/>
					<ellipse transform="matrix(0.98 -0.199 0.199 0.98 -12.8825 18.0369)" class="st76" cx="83.3" cy="73.1" rx="21.1" ry="26.5"/>
					
						<ellipse transform="matrix(0.9661 -0.2582 0.2582 0.9661 -37.9804 62.5649)" class="st75" cx="219.2" cy="175.9" rx="21.1" ry="26.5"/>
					
						<ellipse transform="matrix(0.9661 -0.2582 0.2582 0.9661 -38.6614 61.388)" class="st76" cx="214.4" cy="177.9" rx="21.1" ry="26.5"/>
					<ellipse transform="matrix(0.98 -0.199 0.199 0.98 -12.9438 18.0452)" class="st77" cx="83.3" cy="73.4" rx="13.9" ry="16.4"/>
					
						<ellipse transform="matrix(0.9813 -0.1927 0.1927 0.9813 -30.2678 44.4357)" class="st77" cx="213.3" cy="177.8" rx="13.4" ry="16"/>
					<g>
						<path class="st30" d="M86.1,101.2c-4.4,0-8.8-1.6-12.8-4.7c-5.4-4.1-9.5-10.4-11.5-17.7c-2-7.3-1.7-14.8,0.8-21.1
							c2.6-6.4,7.2-10.8,13-12.4s12-0.2,17.5,4c5.4,4.1,9.5,10.4,11.5,17.7c4.2,15.2-2.1,30.2-13.9,33.5
							C89.3,101,87.7,101.2,86.1,101.2z M80.4,47.7c-1.3,0-2.6,0.2-3.9,0.5c-4.9,1.3-8.8,5.1-11,10.7c-2.3,5.7-2.6,12.5-0.7,19.1
							c1.8,6.7,5.5,12.4,10.4,16.1c4.8,3.6,10.1,4.9,14.9,3.5c10.2-2.8,15.5-16.2,11.8-29.8c-1.8-6.7-5.5-12.4-10.4-16.1
							C87.9,49.1,84.1,47.7,80.4,47.7z"/>
					</g>
					<g>
						<path class="st30" d="M87.7,90.7c-0.7,0-1.3-0.4-1.4-1.1c-0.2-0.8,0.3-1.6,1.1-1.8c2.9-0.8,5.2-3,6.5-6.3
							c1.4-3.4,1.5-7.5,0.4-11.5c-0.2-0.8,0.3-1.6,1.1-1.8c0.8-0.2,1.6,0.3,1.8,1.1c1.3,4.7,1.1,9.4-0.5,13.4c-1.7,4.2-4.7,7-8.5,8
							C88,90.7,87.8,90.7,87.7,90.7z"/>
					</g>
					<g>
						<path class="st30" d="M75.7,86.6c-0.4,0-0.8-0.2-1.1-0.5c-2.4-2.5-4.2-5.8-5.2-9.4c-1.3-4.7-1.1-9.4,0.5-13.4
							c1.7-4.2,4.7-7,8.5-8c4.5-1.2,9.4,0.4,13.3,4.3c0.6,0.6,0.6,1.5,0,2.1s-1.5,0.6-2.1,0c-3.1-3.2-6.9-4.4-10.4-3.5
							c-2.9,0.8-5.2,3-6.5,6.3c-1.4,3.4-1.5,7.5-0.4,11.5c0.9,3.2,2.4,6,4.5,8.1c0.6,0.6,0.6,1.5,0,2.1
							C76.5,86.5,76.1,86.6,75.7,86.6z"/>
					</g>
					<g>
						<path class="st30" d="M80.8,102.6c-4.4,0-8.8-1.6-12.8-4.7c-5.4-4.1-9.5-10.4-11.5-17.7C52.3,65,58.6,50,70.4,46.7l5.7-1.6
							l0.8,2.9l-5.7,1.6C61,52.4,55.7,65.8,59.4,79.4c1.8,6.7,5.5,12.4,10.4,16.1c4.8,3.6,10.1,4.9,14.9,3.5l5.5-1.5l0.8,2.9
							l-5.5,1.5C84,102.4,82.4,102.6,80.8,102.6z"/>
					</g>
					<g>
						<path class="st30" d="M216.1,205.5c-10.9,0-21.2-10.1-24-24.1c-1.5-7.4-0.6-14.9,2.4-20.9c3.1-6.2,8-10.3,13.9-11.4
							c12-2.4,24.3,8.3,27.3,23.8c1.5,7.4,0.6,14.9-2.4,20.9c-3.1,6.2-8,10.3-13.9,11.4C218.3,205.4,217.2,205.5,216.1,205.5z
							 M211.8,151.7c-0.9,0-1.9,0.1-2.8,0.3c-5,1-9.2,4.5-11.8,9.8c-2.7,5.5-3.5,12.2-2.1,19c2.7,13.9,13.4,23.5,23.8,21.4
							c5-1,9.2-4.5,11.8-9.8c2.7-5.5,3.5-12.2,2.1-19C230.3,160.8,221.3,151.7,211.8,151.7z"/>
					</g>
					<g>
						<path class="st30" d="M215.2,195.3c-3.1,0-6.2-1.3-8.9-3.7c-3.2-2.9-5.5-7.1-6.5-11.8c-0.2-0.8,0.4-1.6,1.2-1.8
							c0.8-0.2,1.6,0.4,1.8,1.2c0.8,4.1,2.8,7.7,5.5,10.1c2.6,2.3,5.7,3.3,8.6,2.7c0.8-0.2,1.6,0.4,1.8,1.2c0.2,0.8-0.4,1.6-1.2,1.8
							C216.7,195.2,216,195.3,215.2,195.3z"/>
					</g>
					<g>
						<path class="st30" d="M226.1,186.1c-0.1,0-0.3,0-0.5-0.1c-0.8-0.2-1.2-1.1-1-1.9c0.9-2.9,1-6.1,0.4-9.3
							c-0.8-4.1-2.8-7.7-5.5-10.1c-2.6-2.3-5.7-3.3-8.6-2.7c-3.5,0.7-6.3,3.5-7.7,7.7c-0.3,0.8-1.1,1.2-1.9,1
							c-0.8-0.3-1.2-1.1-1-1.9c1.7-5.2,5.5-8.8,10-9.7c3.8-0.8,7.8,0.5,11.2,3.4c3.2,2.9,5.5,7.1,6.5,11.8c0.7,3.7,0.6,7.4-0.5,10.8
							C227.3,185.7,226.7,186.1,226.1,186.1z"/>
					</g>
					<g>
						<path class="st30" d="M219.3,205.2l-0.6-2.9l5.6-1.1c5-1,9.2-4.5,11.8-9.8c2.7-5.5,3.5-12.2,2.1-19
							c-2.7-13.9-13.4-23.5-23.8-21.4l-5.8,1.1l-0.6-2.9l5.8-1.1c12-2.4,24.3,8.3,27.3,23.8c1.5,7.4,0.6,14.9-2.4,20.9
							c-3.1,6.2-8,10.3-13.9,11.4L219.3,205.2z"/>
					</g>
				</g>
			</g>
		</g>
		<path class="st76" d="M682.3,136.1c-3.2-7.9-11.1-13.5-20.4-13.5c-12.1,0-21.9,9.5-21.9,21.3c0,6.2,2.7,11.8,7.1,15.7
			c1.7-1.9,4.8-4.9,9.5-7.1c4.9-2.4,9.3-2.9,11.9-3c1.5-2,3.4-4.2,5.6-6.5C677.1,140.1,679.9,137.9,682.3,136.1z"/>
		<path class="st77" d="M675.3,143.4c-0.4,0.8-1.4,0.4-3.1,1.6c-2.4,1.8-2,3.6-3.8,5c-2.1,1.6-3.6-0.1-7.6,0.9
			c-4.3,1.1-4.8,3.4-7,3.2c-3.3-0.4-6.2-5.9-6.1-10.8c0.1-6.7,6.4-13,13.9-13C670.5,130.4,676.7,140.9,675.3,143.4z"/>
		<path class="st29" d="M834.2,76.5c19.9-22.3,37-41.8,40.4-39.8c1.4,0.8,1.5,4,0.2,9.6c54.8-45.2,69.3-28.9,71.9-24.8
			c2.5,3.9,6.2,21.2-38.1,53.4c17.6-3.5,23.5-4.2,26.2,0c4.1,6.5-3.9,16.3-32.9,34"/>
		<path class="st78" d="M908.5,74.8c44.3-32.2,40.6-49.5,38.1-53.4c-1.9-3-10.2-12.6-36.1,0.4c3.8,1.4,5.7,3.8,6.5,5.1
			c2.5,3.9,6.2,21.2-38.1,53.4c17.6-3.5,23.5-4.2,26.2,0c3,4.8-7.4,10.3-21,20.5l17.6,8.1c29-17.7,37-27.5,32.9-34
			C932,70.6,926.1,71.3,908.5,74.8z"/>
		<path class="st30" d="M840.4,68.9c5.9-7.6,11.9-15.2,18.4-22.4c1.6-1.8,3.3-3.6,5.1-5.3s3.6-3.4,5.8-4.8c0.6-0.4,1.1-0.7,1.8-1
			s1.4-0.6,2.4-0.5c0.2,0,0.5,0.1,0.8,0.1c0.3,0.1,0.6,0.2,0.8,0.4c0.5,0.3,0.8,0.8,1.1,1.2c0.4,0.9,0.5,1.6,0.6,2.3
			c0.1,1.4,0,2.7-0.2,3.9s-0.4,2.5-0.7,3.7l-2.4-1.5c9.9-8,20.1-15.8,31.2-22.1c5.6-3.1,11.4-5.9,17.7-7.7c3.1-0.9,6.4-1.5,9.7-1.6
			c1.7,0,3.4,0.1,5,0.4c1.7,0.3,3.3,0.9,4.9,1.7s3,1.9,4.2,3.2c0.6,0.7,1.1,1.3,1.6,2.2c0.3,0.4,0.4,0.9,0.5,1.3
			c0.1,0.2,0.2,0.4,0.2,0.7l0.1,0.7c0.7,3.5,0.1,7-0.9,10.1c-0.2,0.8-0.6,1.6-0.9,2.3c-0.3,0.8-0.6,1.5-1,2.3l-1.2,2.2l-0.6,1.1
			l-0.7,1c-1.7,2.8-3.7,5.3-5.8,7.8c-8.4,9.8-18.4,17.9-28.7,25.4l-1.2-2.7l0,0c3.2-0.7,6.3-1.4,9.6-2c3.2-0.6,6.4-1.2,9.9-1.2
			c1.7,0,3.6,0.1,5.5,1c0.5,0.2,0.9,0.6,1.4,0.9c0.4,0.4,0.8,0.7,1.1,1.2c0.7,0.8,1.1,1.7,1.4,2.7s0.4,2.1,0.3,3.1s-0.4,2-0.7,2.8
			c-0.7,1.7-1.7,3.2-2.8,4.6c-4.4,5.3-9.7,9.2-15,13c-5.4,3.7-10.9,7.2-17.2,9.4c4.8-4.6,10.2-8.1,15.4-11.9c2.6-1.9,5.1-3.9,7.5-6
			s4.7-4.3,6.5-6.7c0.9-1.2,1.7-2.5,2.2-3.7c0.2-0.6,0.4-1.3,0.5-1.9c0-0.6,0-1.2-0.2-1.7s-0.4-1.1-0.8-1.5
			c-0.2-0.3-0.4-0.4-0.6-0.6c-0.2-0.1-0.4-0.3-0.7-0.4c-1-0.5-2.4-0.7-3.9-0.7c-3,0-6.2,0.5-9.4,1c-3.2,0.5-6.3,1.1-9.5,1.6l0,0
			l-6.7,1.3l5.5-4c10.2-7.4,20-15.5,28.1-24.9c2-2.4,3.9-4.8,5.5-7.5l0.6-1l0.5-1l1.1-2c0.4-0.7,0.6-1.4,0.9-2.1
			c0.3-0.7,0.6-1.4,0.8-2.1c1-2.8,1.4-5.9,0.9-8.6c-0.3-1.4-0.8-2.4-1.8-3.5c-0.9-1-2.1-1.9-3.3-2.5c-1.3-0.7-2.6-1.1-4.1-1.4
			c-1.4-0.3-2.9-0.4-4.4-0.3c-3,0-6,0.6-9,1.5c-5.9,1.7-11.6,4.4-17.1,7.4c-10.9,6.1-21,13.8-30.8,21.8l-3.4,2.8l1-4.3
			c0.5-2.3,1-4.6,0.9-6.7c0-0.5-0.1-0.9-0.3-1.1c-0.1-0.1-0.1-0.1-0.1-0.1l0,0c0,0,0,0-0.1,0c-0.2,0-0.6,0.1-1.1,0.3
			c-0.4,0.2-0.9,0.5-1.4,0.8c-1.8,1.2-3.6,2.8-5.3,4.4s-3.3,3.4-4.9,5.1c-6.4,7.1-12.4,14.6-18.3,22.2L840.4,68.9z"/>
		<path class="st29" d="M847,137.7c29.2-30.1,45.5-39.8,51.4-42.2c2.8-1.1,4.3,3.4,1.9,8.7c4.6-4.7,6.2-4.4,7.4-7.5
			c1.7-4.4-0.9-8.1-1.1-8.4c-9.3,1-16.1,3.6-20.4,5.6c-3.3,1.5-22.8,11-31.9,29c-0.8,1.7-3.7,7.5-4.9,7.1s0.7-6.3-1.1-7.4
			c-2.5-1.6-10.9,6.5-16.8,13.9c-5.1,6.4-11.9,16.7-16.7,31.9c2.7-3.6,6.8-9,11.6-15.7c11-15.1,15.6-22.2,18.5-21.2
			C845.7,131.9,846.8,133.2,847,137.7z"/>
		<path class="st79" d="M817.2,52l-11.5-3.6v9.3l11.5,2.2c0.3-0.8,0.8-2.1,0.8-3.9C818,54.2,817.5,52.8,817.2,52z"/>
		
			<linearGradient id="SVGID_153_" gradientUnits="userSpaceOnUse" x1="768.4449" y1="146.2998" x2="767.6003" y2="119.5517" gradientTransform="matrix(1 0 0 -1 0 189.8132)">
			<stop  offset="0" style="stop-color:#EF7F78"/>
			<stop  offset="1" style="stop-color:#F4AD5B"/>
		</linearGradient>
		<path class="st80" d="M805.7,48.4c0.4,1.7,0.8,4.7,0,8.3c-0.6,2.6-1.6,4.7-2.4,6c-0.6,1.4-2,4.3-5.1,6.7c-2.3,1.8-4.6,2.6-6,2.9
			c-1.5,0.6-4.9,1.8-9.2,1.2c-2.7-0.4-4.8-1.4-6-2.2l-7.7-5.7l-20.2-7.5l5.7,13.7c-7.3,3.4-16,1.3-21-5s-5-15.4,0-21.7
			c9.3-1.6,20.8-2.8,34.1-2.4C783,43.3,795.8,45.8,805.7,48.4z"/>
		<path class="st81" d="M749.1,58.1l0.3,0.1l-0.2,0.4C749.1,58.4,749.1,58.2,749.1,58.1z"/>
		<path class="st82" d="M797.3,70.1l-0.3,4.7l18.3-7.4l-0.6-8.2l-9-2.5c-0.5,1.9-1.4,4.5-3.1,7.2C800.8,66.8,798.8,68.8,797.3,70.1z
			"/>
		<path class="st83" d="M814.7,59.2l-9-2.5c-0.1,0.5-0.3,1-0.5,1.6l3.9,1c0.3,4.9-2.5,9.5-7.1,11.3l-4.8,1.9l-0.1,2.1l18.3-7.4
			L814.7,59.2z"/>
		<path class="st29" d="M735.4,69l-0.4,6.6c6.4,2.3,15.6,4.8,26.8,5.2c15.5,0.6,27.8-3.1,35.1-6c0.4-1.8,0.8-3.6,1.2-5.4
			c-1.8,1.2-7.4,4.6-15.2,4.1c-6-0.4-10.2-2.9-12.1-4.2c0,0.8-0.4,4.5-2.8,5.7c-1.8,0.9-3.9,0-7.3-1.5c-3-1.3-2.8-1.8-4.5-2.3
			c-4.3-1.5-6.9,1.1-11.7,1.1C742.4,72.2,739.2,71.7,735.4,69z"/>
		<path class="st84" d="M732.3,64.7l-1.1,1.2c-3.1,3.4-4.5,8-3.6,12.5l0,0l-0.4,1.1c-0.7,2.2-0.3,4.6,1.1,6.5l1.7,2.4
			c3.9,2.3,23.5,13.5,48.6,7.6c23.3-5.6,35.5-22.2,38.4-26.3c-0.6-0.8-1.2-1.6-1.7-2.3c-4.9,3.1-12.5,7.2-22.6,9.8
			c-5.2,1.3-9,1.7-16.6,2.5c-12.8,1.3-19.4,2-27.3,0c-6.3-1.6-11-4.1-14-6c-0.3-2.3-0.6-4.6-0.9-6.8L732.3,64.7z"/>
		<path class="st85" d="M801.1,74.5c0,1.4,1.8,1.8,2.3,3.7c1.2,4.9-8,10.7-7.8,11.1c0.2,0.3,6.7-3.3,14-10.6
			c3.7-3.7,6.4-7.4,8.5-10.5c-0.9-0.3-1.8-0.5-2.7-0.8C803.5,70.5,801.1,72.9,801.1,74.5z"/>
		<path class="st84" d="M745.8,25.9L745.8,25.9c5.4-5.7,11.9-10.1,19.1-13.2l0.5-0.2c3.7-1.5,7.5-2.4,11.5-2.7l14-1l8.3-2.7
			c4.2-1.3,8.7-1.5,12.9-0.4l0.7,0.2c4.2,1.1,7.9,3.7,10.2,7.4l0,0c-0.5,2.1-1.8,3.9-3.7,5.1l-1.2,0.7l0,0
			c1.2,7.7,1.1,15.5-0.4,23.2v0.1c-7.9-4.8-20.2-11-36.4-14.5C767,25,754.5,25.1,745.8,25.9z"/>
		<path class="st84" d="M749.8,21.1c-0.7-0.1-5.7-0.5-9.6,3.3c-3.7,3.5-3.7,8.1-3.7,8.9c-0.7,0.3-2.9,1.4-4.2,4
			c-1.7,3.5-0.3,6.8,0,7.3c11.4-1.7,26.3-2.9,43.7-1.4c17,1.5,31.3,5.2,42.1,8.8c0.4-2.8,0.8-5.5,1.3-8.3
			c-11.3-8.2-21.3-11.8-28-13.7c-10-2.7-31.6-6.4-39.7-4.4c-0.6,0.2-3.8-0.1-3.8-0.1S748.5,22.6,749.8,21.1z"/>
		<path class="st85" d="M821.2,8.6c-3.5,2.2-6.9,4.4-10.4,6.6l-0.4,16.4c-2.9,1.6-3.6,2-6.5,3.5c-1.3-0.8-2.7-1.6-4.3-2.3
			c-3.1-1.4-6-2.3-8.4-2.8c-3.1-0.6-6.1-1.2-9.2-1.8c-2.1,5.9-6.1,10.9-11.4,14.2l-0.6,0.4c7.8,0.4,16.8,1.3,26.6,3.4
			c7.9,1.6,15,3.7,21.2,5.8c0.4-0.6,1.5-2.3,1.5-4.6c0-2.5-1.1-4.3-1.6-4.9c0.6-2.7,1.1-5.4,1.7-8c0.2-1.6,0.3-3.4,0.2-5.4
			c-0.1-4.3-1-8-2-10.7c0.5,0,1.4,0,2.5-0.5c1.5-0.7,2.3-1.9,2.6-2.3c0.1-0.6,0.2-1.3,0.2-2.1C823,11,821.8,9.3,821.2,8.6z"/>
		<path class="st86" d="M836.3,79.7c1.1-0.7,14.8-8.9,29.6-2.2c12.4,5.6,16.3,17.5,16.9,19.4c-4.9,2.5-11.4,6.5-17.9,12.7
			c-7.8,7.4-12.7,15-15.5,20.5c-0.4-2.5-0.8-4.9-1.1-7.4c-0.7-0.1-1.5-0.1-2.5,0.1c-2.3,0.4-3.8,1.8-4.5,2.4c-2,2-4.1,4.2-6.1,6.7
			c-6.6,7.9-11.3,15.8-14.7,22.8c-2.3,1.3-38.5,22-66.3,25.9c-9,1.3-20,1.2-22.4,1.1c-12.1-0.2-16.9-1.5-20.4-2.8
			c-4.8-1.8-8.3-4.2-10.7-6.1c-4.2-4.3-5.2-8-5.3-10.5c-0.8-12.2,16.4-26.1,43.5-32.8c12.3-2,28.2-5.9,45.5-13.8
			C808.6,104.6,825.7,90.2,836.3,79.7z"/>
		<g class="st87">
			<path class="st88" d="M749.2,180.9c-9.3,0.4-21.6,0.9-31-7.4c-1.7-1.5-8.1-7.2-8.6-14.6c-0.8-11.9,13.5-25.7,36.4-30.7
				c-35.4,4.8-73.1,34.1-34.7,50.7c20.4,7.1,58.7,1.1,81.2-10.3c-9,4.2-17,6.9-23.2,8.7C762.4,179.2,756.8,180.6,749.2,180.9z"/>
			<path class="st88" d="M816.4,104.8c19.3-8.8,34-19.6,44.5-29c-12.8-3.2-23.7,3.3-24.7,3.9c-10.6,10.5-27.7,24.9-52,35.9
				c-0.4,0.2-0.7,0.3-1.1,0.5C793.1,113.8,804.4,110.3,816.4,104.8z"/>
		</g>
		<path class="st89" d="M822.5,106.1c-3.7,4.8-14.4,17-33,22.7c-15.6,4.8-28.9,2.6-34.9,1.2c-7.8,2.7-11.9,11.4-9.2,19.2
			c2.8,7.8,11.4,12,19.2,9.2c12.4-0.4,18.3-4.3,21.4-7.9c1.6-1.8,3.1-3.9,4.4-5.9c3.1-4.8,9.3-6.5,14.4-3.9c0,0,0.1,0,0.1,0.1
			c4.6,2.3,12.6,2.9,27.6-6.3c0.9-0.3,5.9-2.2,8.6-7.7c1.7-3.5,2-7.6,0.6-11.5l0,0C839,107.4,830.4,103.3,822.5,106.1z"/>
		<g>
			<g>
				<g>
					<path class="st29" d="M178.1,79.3h21.1c12.5,0,21,4.8,21,14.5v0.1c0,9.8-8.6,15.1-21.3,15.1h-5.1v11.1h-15.7V79.3z M198,99.2
						c4,0,6.7-1.6,6.7-4.5v-0.1c0-3-2.5-4.5-6.6-4.5h-4.3v9.1H198z"/>
				</g>
				<g>
					<path d="M197.8,124h-23.7V75.3h25.1c15.4,0,25,7.1,25,18.5v0.1c0,11.8-9.7,19.1-25.3,19.1h-1.1V124z M182.1,116h7.7v-11.1h9.1
						c5.2,0,17.3-1.1,17.3-11.1v-0.1c0-9.1-10.6-10.5-17-10.5h-17.1V116z M198,103.2h-8.2V86.1h8.3c7.8,0,10.6,4.4,10.6,8.5v0.1
						C208.7,99,205.4,103.2,198,103.2z M197.8,95.2h0.2c1.6,0,2.4-0.3,2.7-0.5v-0.1l0,0c-0.2-0.1-0.9-0.4-2.6-0.4h-0.3V95.2z"/>
				</g>
			</g>
			<g>
				<g>
					<path class="st29" d="M224.1,79.3h40v11.2h-24.6v4.1h22.9v9.8h-22.9v4.4h24.9V120h-40.3V79.3z"/>
				</g>
				<g>
					<path d="M268.4,124h-48.3V75.3h48v19.2h-1.7v10.4h2V124z M228.1,116h32.3v-3.2h-24.9v-12.4h22.9v-1.8h-22.9V86.5h24.6v-3.2h-32
						V116z"/>
				</g>
			</g>
			<g>
				<g>
					<path class="st29" d="M269.2,79.3h14.7l16.7,18v-18h15.5V120h-13.9l-17.4-18.8V120h-15.5L269.2,79.3L269.2,79.3z"/>
				</g>
				<g>
					<path d="M320.1,124h-19.7l-11.6-12.6V124h-23.5V75.3h20.4l10.9,11.8V75.3h23.5V124z M303.9,116h8.2V83.3h-7.5v24.2l-22.4-24.2
						h-8.9V116h7.5V91L303.9,116z"/>
				</g>
			</g>
			<g>
				<g>
					<path class="st29" d="M321,99.7L321,99.7c0-12.3,11-21.3,25.8-21.3c8,0,14.5,2.3,19.6,6.2l-8.8,9.2c-3.1-2.3-6.5-3.5-10.4-3.5
						c-6.1,0-10.5,4.1-10.5,9.6v0.1c0,5.8,4.6,9.7,11.2,9.7c2.7,0,4.2-0.3,5.4-0.9v-4.1h-8v-8.8H368v18.9
						c-5.1,3.6-12.2,6.1-20.7,6.1C332.7,120.9,321,112.4,321,99.7z"/>
				</g>
				<g>
					<path d="M347.3,124.9c-17.3,0-30.3-10.8-30.3-25.1v-0.1c0-14.4,12.8-25.2,29.8-25.2c8.5,0,15.9,2.3,22,7l3.6,2.7l-7.5,7.8h7
						v24.9l-1.7,1.2C364.1,122.4,355.9,124.9,347.3,124.9z M346.8,82.4c-12.5,0-21.8,7.4-21.8,17.2v0.1c0,9.9,9.4,17.1,22.3,17.1
						c6.2,0,12-1.5,16.7-4.3V99.9h-14.7v0.7h8v10.6l-2.3,1.1c-1.9,0.9-4.1,1.3-7.1,1.3c-8.8,0-15.2-5.8-15.2-13.7v-0.1
						c0-7.8,6.2-13.6,14.5-13.6c3.4,0,6.7,0.8,9.7,2.4l3.1-3.3C356.3,83.4,351.8,82.4,346.8,82.4z M341.3,97.5
						c-0.3,0.7-0.5,1.5-0.5,2.3v0.1c0,0.9,0.2,1.7,0.5,2.4V97.5z"/>
				</g>
			</g>
			<g>
				<g>
					<path class="st29" d="M372.7,101.7V79.3h15.9v22.3c0,5.1,3,7.2,7.2,7.2s7.2-2,7.2-6.9V79.3h15.9v22.2
						c0,13.9-9.3,19.4-23.3,19.4C381.8,120.8,372.7,115.2,372.7,101.7z"/>
				</g>
				<g>
					<path d="M395.8,124.8c-23.5,0-27-14.5-27-23.1V75.3h23.9v26.3c0,2.4,0.8,3.2,3.2,3.2c2.8,0,3.2-0.9,3.2-2.9V75.3H423v26.2
						C423.1,110.2,419.5,124.8,395.8,124.8z M376.7,83.3v18.5c0,6.5,2,15.1,19,15.1c17.3,0,19.3-8.8,19.3-15.4V83.3h-7.9v18.6
						c0,6.7-4.3,10.9-11.2,10.9c-6.8,0-11.2-4.4-11.2-11.2V83.3C384.7,83.3,376.7,83.3,376.7,83.3z"/>
				</g>
			</g>
			<g>
				<g>
					<path class="st29" d="M424.8,79.3h15.7V120h-15.7V79.3z"/>
				</g>
				<g>
					<path d="M444.4,124h-23.6V75.3h23.7V124H444.4z M428.8,116h7.7V83.3h-7.7V116z"/>
				</g>
			</g>
			<g>
				<g>
					<path class="st29" d="M446.5,79.3h14.7l16.7,18v-18h15.5V120h-13.9l-17.4-18.8V120h-15.5L446.5,79.3L446.5,79.3z"/>
				</g>
				<g>
					<path d="M497.4,124h-19.7L466,111.4V124h-23.5V75.3h20.4l10.9,11.8V75.3h23.5L497.4,124L497.4,124z M481.2,116h8.2V83.3h-7.5
						v24.2l-22.4-24.2h-8.9V116h7.5V91L481.2,116z"/>
				</g>
			</g>
			<g>
				<g>
					<path class="st29" d="M517,79.3h22.9c8.3,0,13.6,1.8,16.9,4.7c2.8,2.4,4.3,5.5,4.3,9.7v0.1c0,5.9-3.5,10.1-9.2,12.5l10.9,13.8
						h-18l-8.8-11.6h-3.3v11.6H517V79.3z M539.4,98.6c3.7,0,6-1.5,6-4v-0.1c0-2.6-2.3-3.9-6-3.9h-6.8v8H539.4z"/>
				</g>
				<g>
					<path d="M570.9,124h-28.1l-6.2-8.2v8.2h-23.7V75.3h26.9c8.8,0,15.1,1.8,19.5,5.6c3.8,3.3,5.7,7.5,5.7,12.7v0.1
						c0,5.6-2.5,10.4-7.2,13.7L570.9,124z M546.8,116h7.6l-9.1-11.5l4.9-2c4.6-1.9,6.8-4.8,6.8-8.8v-0.1c0-2.9-0.9-4.9-2.9-6.6
						c-2.8-2.4-7.6-3.7-14.2-3.7H521V116h7.7v-11.6h9.3L546.8,116z M539.4,102.6h-10.8v-16h10.8c7.4,0,10,4.3,10,7.9v0.1
						C549.4,98.6,546.3,102.6,539.4,102.6z"/>
				</g>
			</g>
			<g>
				<g>
					<path class="st29" d="M565,101.7V79.3h15.9v22.3c0,5.1,3,7.2,7.2,7.2s7.2-2,7.2-6.9V79.3h15.9v22.2c0,13.9-9.3,19.4-23.3,19.4
						C574.1,120.8,565,115.2,565,101.7z"/>
				</g>
				<g>
					<path d="M588.1,124.8c-23.5,0-27-14.5-27-23.1V75.3H585v26.3c0,2.4,0.8,3.2,3.2,3.2c2.8,0,3.2-0.9,3.2-2.9V75.3h23.9v26.2
						C615.4,110.2,611.8,124.8,588.1,124.8z M569,83.3v18.5c0,6.5,2,15.1,19,15.1c17.3,0,19.3-8.8,19.3-15.4V83.3h-7.9v18.6
						c0,6.7-4.3,10.9-11.2,10.9c-6.8,0-11.2-4.4-11.2-11.2V83.3C577,83.3,569,83.3,569,83.3z"/>
				</g>
			</g>
			<g>
				<g>
					<path class="st29" d="M613.1,113.9l8.4-8.7c5.1,3.4,10.9,4.8,16.4,4.8c2.8,0,4-0.6,4-1.7v-0.1c0-1.2-1.5-1.8-6.5-2.7
						c-10.5-1.9-19.8-4.5-19.8-13.1v-0.1c0-7.7,7-13.7,19.9-13.7c9,0,15.7,1.9,21.2,5.6l-7.6,9.2c-4.4-2.8-9.7-4-14.1-4
						c-2.3,0-3.4,0.7-3.4,1.7v0.1c0,1.1,1.3,1.8,6.2,2.6c12,1.9,20,4.9,20,13.1v0.1c0,8.6-8.1,13.8-20.7,13.8
						C627.6,120.7,619,118.4,613.1,113.9z"/>
				</g>
				<g>
					<path d="M637.1,124.7c-10.6,0-20-2.7-26.5-7.7l-3.6-2.7l10.4-10.8c-3.4-2.5-5.9-6-5.9-11.2v-0.1c0-12.2,12-17.7,23.9-17.7
						c9.7,0,17.2,2,23.4,6.3l3.6,2.5l-9,10.8c4.6,2.5,8.2,6.4,8.2,12.8v0.1C661.8,117.8,652.1,124.7,637.1,124.7z M619.4,113.1
						c4.8,2.4,10.9,3.7,17.7,3.7c8.1,0,16.7-2.6,16.7-9.8v-0.1c0-3.9-2.8-7-16.7-9.2c-3.8-0.6-9.6-1.6-9.6-6.6V91
						c0-0.6,0.2-5.7,7.4-5.7c4.4,0,9,1,13.1,2.9l2.5-3c-4.1-1.8-9-2.7-15-2.7c-9.8,0-15.9,3.7-15.9,9.7v0.1c0,4.5,4.5,7,16.4,9.2
						c4.4,0.8,9.8,1.7,9.8,6.6v0.1c0,1.3-0.6,5.7-8,5.7c-5.6,0-11-1.3-15.7-3.7L619.4,113.1z"/>
				</g>
			</g>
			<g>
				<g>
					<path class="st29" d="M662,79.3h15.7v14.4H692V79.3h15.7V120H692v-14.6h-14.3V120H662V79.3z"/>
				</g>
				<g>
					<path d="M711.7,124H688v-14.6h-6.3V124H658V75.3h23.7v14.4h6.3V75.3h23.7V124z M696,116h7.7V83.3H696v14.4h-22.3V83.3H666V116
						h7.7v-14.6H696V116z"/>
				</g>
			</g>
		</g>
		<g>
			<path class="st29" d="M178.1,79.3h21.1c12.5,0,21,4.8,21,14.5v0.1c0,9.8-8.6,15.1-21.3,15.1h-5.1v11.1h-15.7V79.3z M198,99.2
				c4,0,6.7-1.6,6.7-4.5v-0.1c0-3-2.5-4.5-6.6-4.5h-4.3v9.1H198z"/>
			<path class="st29" d="M224.1,79.3h40v11.2h-24.6v4.1h22.9v9.8h-22.9v4.4h24.9V120h-40.3V79.3z"/>
			<path class="st29" d="M269.2,79.3h14.7l16.7,18v-18h15.5V120h-13.9l-17.4-18.8V120h-15.5L269.2,79.3L269.2,79.3z"/>
			<path class="st29" d="M321,99.7L321,99.7c0-12.3,11-21.3,25.8-21.3c8,0,14.5,2.3,19.6,6.2l-8.8,9.2c-3.1-2.3-6.5-3.5-10.4-3.5
				c-6.1,0-10.5,4.1-10.5,9.6v0.1c0,5.8,4.6,9.7,11.2,9.7c2.7,0,4.2-0.3,5.4-0.9v-4.1h-8v-8.8H368v18.9c-5.1,3.6-12.2,6.1-20.7,6.1
				C332.7,120.9,321,112.4,321,99.7z"/>
			<path class="st29" d="M372.7,101.7V79.3h15.9v22.3c0,5.1,3,7.2,7.2,7.2s7.2-2,7.2-6.9V79.3h15.9v22.2c0,13.9-9.3,19.4-23.3,19.4
				C381.8,120.8,372.7,115.2,372.7,101.7z"/>
			<path class="st29" d="M424.8,79.3h15.7V120h-15.7V79.3z"/>
			<path class="st29" d="M446.5,79.3h14.7l16.7,18v-18h15.5V120h-13.9l-17.4-18.8V120h-15.5L446.5,79.3L446.5,79.3z"/>
			<path class="st29" d="M517,79.3h22.9c8.3,0,13.6,1.8,16.9,4.7c2.8,2.4,4.3,5.5,4.3,9.7v0.1c0,5.9-3.5,10.1-9.2,12.5l10.9,13.8
				h-18l-8.8-11.6h-3.3v11.6H517V79.3z M539.4,98.6c3.7,0,6-1.5,6-4v-0.1c0-2.6-2.3-3.9-6-3.9h-6.8v8H539.4z"/>
			<path class="st29" d="M565,101.7V79.3h15.9v22.3c0,5.1,3,7.2,7.2,7.2s7.2-2,7.2-6.9V79.3h15.9v22.2c0,13.9-9.3,19.4-23.3,19.4
				C574.1,120.8,565,115.2,565,101.7z"/>
			<path class="st29" d="M613.1,113.9l8.4-8.7c5.1,3.4,10.9,4.8,16.4,4.8c2.8,0,4-0.6,4-1.7v-0.1c0-1.2-1.5-1.8-6.5-2.7
				c-10.5-1.9-19.8-4.5-19.8-13.1v-0.1c0-7.7,7-13.7,19.9-13.7c9,0,15.7,1.9,21.2,5.6l-7.6,9.2c-4.4-2.8-9.7-4-14.1-4
				c-2.3,0-3.4,0.7-3.4,1.7v0.1c0,1.1,1.3,1.8,6.2,2.6c12,1.9,20,4.9,20,13.1v0.1c0,8.6-8.1,13.8-20.7,13.8
				C627.6,120.7,619,118.4,613.1,113.9z"/>
			<path class="st29" d="M662,79.3h15.7v14.4H692V79.3h15.7V120H692v-14.6h-14.3V120H662V79.3z"/>
		</g>
		<path class="st90" d="M779.9,143.6l-14.3-5.4l-19.3-0.6l-7.5,1.6l-1.5,5.8l7,0.9l15.1,0.2l12.3,3.8l6,1.1c0,0,3.2-3,3-3.2
			C780.5,147.6,779.9,143.6,779.9,143.6z"/>
		<path class="st91" d="M752.5,135.2c-1.7,0.8-4.2,2.1-6.7,4.5c-3.5,3.4-7.6,9.5-5.8,11.9c1.4,1.8,5.7,0.9,8.3,0.1
			c0.6,2.9,2.7,5.2,5.4,6c3,0.9,6.3-0.1,8.3-2.6c0.4,0.4,2.3,2.2,5.1,2.1c2.8-0.1,5.3-2,6.4-4.9c0.6-1.5,1.2-3.7,1.3-6.5
			c0.1-3.5-0.7-6.3-1.3-8C766.5,137,759.5,136.1,752.5,135.2z"/>
		<path class="st91" d="M822.9,106.4c1.7-0.8,4.4-1.8,7.8-2.1c4.9-0.4,12.2,0.6,12.8,3.5c0.5,2.2-3.1,4.9-5.4,6.3
			c1.8,2.3,2.1,5.4,0.9,8c-1.3,2.8-4.3,4.6-7.4,4.5c0,0.5,0.1,3.2-1.8,5.2c-1.9,2-5,2.7-7.9,1.6c-1.5-0.5-3.6-1.5-5.7-3.3
			c-2.7-2.2-4.3-4.7-5.1-6.3C815,118.1,818.9,112.2,822.9,106.4z"/>
		<g>
			<path class="st30" d="M755.9,159.5c-0.9,0-1.8-0.1-2.6-0.4c-2.8-0.8-5-2.9-6-5.6c-4.3,1-7.2,0.7-8.5-1.1
				c-2.9-3.9,3.5-11.5,6-13.9c2.1-2,4.4-3.6,7.1-4.8l0.4-0.2l22.3,2.9l0.3,0.8c1.1,2.7,1.5,5.6,1.4,8.5c-0.1,2.4-0.6,4.7-1.4,7
				c-1.3,3.4-4.4,5.7-7.8,5.8c-2.2,0.1-3.9-0.8-5-1.6C760.4,158.7,758.2,159.5,755.9,159.5z M749.5,149.8l0.3,1.6
				c0.5,2.3,2.2,4.2,4.4,4.8c2.4,0.7,5.1-0.1,6.7-2.1l1-1.3l1.2,1.2c0.4,0.4,1.9,1.7,4,1.7c2.2-0.1,4.2-1.6,5-3.9
				c0.7-1.9,1.2-3.9,1.2-6c0.1-2.2-0.2-4.4-0.9-6.5l-19.6-2.6c-2.2,1-4.2,2.4-5.9,4c-3.9,3.8-6.5,8.8-5.7,9.9
				c0.3,0.4,2.1,0.9,6.7-0.4L749.5,149.8z"/>
		</g>
		<g>
			<path class="st30" d="M777,152.6c-0.6,0-1.2-0.1-1.7-0.4c-5.7-2.5-11.8-4.2-18-4.8c-5.8-0.6-11.6-0.4-17.3,0.7
				c-1.2,0.2-2.4-0.1-3.3-0.8c-0.9-0.8-1.5-1.9-1.5-3.1c-0.1-2.8,1.4-4.8,2.7-6.1c0.9-0.8,2-1.4,3.3-1.7c6.3-1.3,12.7-1.6,19.1-1
				c6.1,0.6,12.1,2.2,17.8,4.6c3.2,1.3,4.9,4.8,3.9,8c-0.1,0.2-0.1,0.4-0.2,0.6c-0.4,1-1,1.9-1.8,2.7l0,0
				C779.1,152.2,778,152.6,777,152.6z M751.1,144.1c2.2,0,4.3,0.1,6.5,0.3c6.5,0.7,12.9,2.4,18.9,5.1c0.4,0.2,0.9,0.1,1.3-0.2
				c0.5-0.5,0.9-1,1.1-1.6c0.1-0.1,0.1-0.3,0.1-0.4c0.5-1.7-0.5-3.6-2.2-4.3c-5.4-2.3-11.1-3.7-16.9-4.3c-6.1-0.6-12.2-0.3-18.2,0.9
				c-0.7,0.1-1.3,0.5-1.8,0.9c-0.8,0.8-1.8,2.1-1.8,3.8c0,0.5,0.3,0.7,0.4,0.9c0.1,0.1,0.4,0.3,0.9,0.2
				C743.2,144.4,747.1,144.1,751.1,144.1z"/>
		</g>
		<g>
			<path class="st30" d="M824.7,135.5c-1.1,0-2.2-0.2-3.3-0.6c-2.2-0.8-4.3-2-6.2-3.5c-2.3-1.9-4.1-4.1-5.5-6.7l-0.4-0.8l12.5-18.6
				l0.4-0.2c2.7-1.2,5.5-1.9,8.3-2.2c3.4-0.3,13.4,0,14.4,4.7c0.5,2.2-1.2,4.5-4.8,7.1c1.3,2.6,1.4,5.6,0.2,8.2
				c-1.4,2.9-4.2,4.9-7.3,5.3c-0.1,1.4-0.7,3.2-2.1,4.8C829.3,134.6,827.1,135.5,824.7,135.5z M812.8,124c1.1,1.9,2.6,3.6,4.3,5
				c1.6,1.3,3.4,2.3,5.3,3c2.3,0.9,4.8,0.4,6.3-1.2c1.4-1.5,1.4-3.5,1.4-4.1L830,125l1.7,0.1c2.6,0.1,5-1.3,6-3.6
				c1-2.1,0.7-4.6-0.7-6.5l-1-1.3l1.4-0.9c4-2.5,4.8-4.2,4.7-4.7c-0.3-1.4-5.8-2.8-11.2-2.3c-2.4,0.2-4.7,0.8-6.9,1.8L812.8,124z"/>
		</g>
		<path class="st90" d="M816.8,136.1c1.1-0.1,2-0.8,2.3-1.9c1.4-4.5,3.9-10.7,8.5-17.1c4.2-5.9,8.7-10,12.3-12.8
			c1.3-1,1.3-2.8,0.2-3.9l0,0c-1.6-1.5-3.7-1.7-5.2-1.5c-1,0.1-1.9,0.5-2.6,1c-3.7,2.8-8.6,7.1-13,13.4c-4.2,5.9-6.7,11.6-8.1,16
			c-0.8,2.5,0.2,5.3,2.6,6.4c0.2,0.1,0.3,0.1,0.5,0.2C815.2,136.1,816.1,136.2,816.8,136.1z"/>
		<g>
			<path class="st30" d="M816.3,137.6c-0.9,0-1.8-0.1-2.6-0.4c-0.2-0.1-0.4-0.2-0.6-0.3c-3-1.4-4.5-4.9-3.4-8.2
				c2-5.8,4.8-11.3,8.3-16.4c3.7-5.2,8.2-9.9,13.4-13.7c1-0.8,2.2-1.2,3.4-1.3c1.8-0.2,4.3,0.1,6.3,1.9c0.9,0.9,1.4,2,1.3,3.2
				c-0.1,1.2-0.6,2.3-1.6,3c-4.6,3.6-8.6,7.8-12,12.5c-3.6,5.1-6.4,10.7-8.3,16.7c-0.5,1.6-1.9,2.8-3.7,2.9l0,0
				C816.8,137.6,816.5,137.6,816.3,137.6z M835.8,100.3c-0.2,0-0.5,0-0.7,0c-0.7,0.1-1.3,0.3-1.9,0.7c-4.9,3.7-9.2,8.1-12.7,13.1
				c-3.4,4.8-6.1,10-7.9,15.6c-0.6,1.8,0.2,3.8,1.8,4.5c0.1,0.1,0.2,0.1,0.4,0.2c0.6,0.2,1.3,0.3,2,0.3l0,0c0.5,0,0.9-0.4,1-0.8
				c2-6.3,4.9-12.2,8.7-17.5c3.5-5,7.8-9.4,12.6-13.2c0.3-0.3,0.4-0.6,0.4-0.8c0-0.2,0-0.6-0.3-0.9
				C838.1,100.5,836.8,100.3,835.8,100.3z"/>
		</g>
		<g>
			<path class="st30" d="M881.3,97.3c-1.2-4.1-4.3-11.7-11.9-16.6c-9.3-6-21.7-5.9-32.3,0.3l-1.5-2.6c11.6-6.8,25.2-6.9,35.5-0.3
				c8.5,5.5,11.9,13.8,13.2,18.3L881.3,97.3z"/>
		</g>
		<g>
			<path class="st30" d="M735.4,183.7c-6.5,0-13-0.6-19.4-2c-10.8-2.3-22.3-8.9-22.3-20.3c-0.1-13.4,16.2-25.4,45.9-33.7l0.8,2.9
				c-28.2,7.9-43.8,18.9-43.7,30.8c0,9.7,10.3,15.3,19.9,17.4c42.2,9.1,89.1-16.4,103.5-27.1l1.8,2.4
				C809.4,163.4,772.8,183.7,735.4,183.7z"/>
		</g>
		<path class="st30" d="M902.5,102.2c1.1-1.5,2.2-3,3.2-4.6c0.9-1.6,1.8-3.3,1.9-4.8c0-0.8-0.2-1.4-0.6-1.9
			c-0.2-0.2-0.6-0.7-0.8-0.8c-0.2-0.1-0.5-0.3-0.9-0.3c-1.5-0.3-3.3,0.1-5,0.5c-3.4,1-6.9,2.4-10.2,4s-6.5,3.5-9.6,5.5
			c-6.2,4-12,8.6-17.1,14c-5,5.4-9.4,11.4-13.1,17.8l0,0l-3.3,5.8l0.8-6.7c0.2-1.3,0.2-2.7,0.2-4c0-0.6-0.1-1.2-0.3-1.8
			c-0.1-0.5-0.4-0.9-0.5-0.9s-0.3-0.1-0.8,0s-1,0.4-1.5,0.7c-1.1,0.6-2.1,1.4-3.1,2.3c-2,1.8-3.9,3.8-5.7,5.8
			c-1.8,2.1-3.5,4.2-5.2,6.4c-1.6,2.2-3.2,4.5-4.6,6.8c-1.4,2.3-2.6,4.8-3.9,7.3c-2.7,4.9-5.2,9.9-7.7,14.9c0.7-2.7,1.5-5.4,2.4-8.1
			c0.9-2.7,1.8-5.3,2.9-8c1.1-2.6,2.3-5.2,3.8-7.7s3-4.8,4.7-7.1c3.4-4.6,6.9-9,11.4-12.8c1.1-0.9,2.3-1.9,3.7-2.6
			c0.7-0.4,1.4-0.7,2.3-1c0.5-0.1,1-0.2,1.5-0.1c0.6,0.1,1.2,0.3,1.7,0.6c1,0.8,1.4,1.8,1.6,2.6c0.2,0.8,0.3,1.6,0.3,2.4
			c0,1.5-0.1,3-0.3,4.4l-2.6-0.9l0,0c3.7-6.6,8.2-12.9,13.4-18.4s11.2-10.3,17.6-14.4c3.2-2,6.5-3.9,9.9-5.6
			c3.4-1.6,6.9-3.2,10.7-4.1c1-0.2,1.9-0.4,2.9-0.5s2.1-0.1,3.2,0.2c0.6,0.2,1.1,0.4,1.6,0.8c0.6,0.5,0.7,0.8,1.1,1.3
			c0.3,0.5,0.6,1,0.7,1.6s0.1,1.2,0,1.7c-0.4,2.2-1.6,3.7-2.8,5.2C905.3,99.7,903.9,101,902.5,102.2z"/>
		<path class="st30" d="M828.1,164.9c1-1.6,1.9-3.1,3-4.6c0.5-0.7,1.1-1.5,1.6-2.2l1.6-2.3c1-1.5,2.4-2.8,3.6-4.1
			c1.3-1.3,2.6-2.6,4-3.8s2.8-2.4,4.4-3.5c1.6-1.1,3.2-2.1,5.1-2.8c1-0.3,2.1-0.6,3.4-0.4c0.6,0.1,1.3,0.3,1.9,0.7
			c0.6,0.4,1.1,1,1.4,1.5c0.6,1.1,0.7,2.3,0.7,3.3s-0.1,2-0.3,3l0,0l-2.5-1.2c2.1-2.5,4.3-5,6.7-7.3s4.8-4.5,7.4-6.5
			c2.6-2,5.3-3.9,8.1-5.6c2.8-1.7,5.8-3.2,9-4c-2.7,1.9-5.4,3.7-7.9,5.7c-2.6,1.9-5.1,3.9-7.5,6s-4.8,4.3-7,6.6
			c-1.1,1.1-2.2,2.3-3.3,3.5s-2.2,2.4-3.2,3.6l-3.5,3.8l1-5.1l0,0c0.2-0.8,0.3-1.6,0.3-2.4c0-0.8-0.1-1.5-0.4-2
			c-0.1-0.2-0.3-0.4-0.4-0.5c-0.2-0.1-0.4-0.2-0.7-0.2c-0.5-0.1-1.3,0.1-2,0.3c-1.5,0.5-2.9,1.5-4.3,2.5c-1.4,1-2.8,2.2-4.1,3.3
			c-1.3,1.2-2.6,2.4-3.9,3.7c-1.3,1.2-2.5,2.6-3.9,3.7c-0.7,0.6-1.4,1.2-2.1,1.8l-2,1.9C830.8,162.4,829.4,163.6,828.1,164.9z"/>
		<path class="st30" d="M644.5,165c0.6-2.5,1.7-4.8,3.3-6.9c1.5-2.1,3.5-3.9,5.6-5.4c2.2-1.5,4.6-2.6,7.2-3.2
			c2.5-0.7,5.2-0.9,7.8-0.7l0,0l-1.1,0.6c1.6-3.2,3.7-6.1,6.3-8.5c1.3-1.2,2.7-2.3,4.2-3.3s3.1-1.9,4.8-2.5c3.3-1.4,6.7-2,10.2-2.5
			c1.7-0.2,3.4-0.4,5.2-0.4c1.7-0.1,3.5-0.1,5.2,0.2c-3.4,0.6-6.7,1.4-9.9,2.3c-3.2,0.9-6.4,1.9-9.4,3.2c-0.8,0.3-1.5,0.7-2.2,1.1
			c-0.7,0.4-1.4,0.8-2,1.2c-1.4,0.9-2.6,1.9-3.8,3c-2.4,2.2-4.5,4.7-6.2,7.5l-0.4,0.6h-0.7l0,0c-2.4,0.1-4.7,0.5-7,1.1
			s-4.4,1.5-6.5,2.7c-2,1.2-3.9,2.7-5.6,4.3C647.4,161,645.9,163,644.5,165z"/>
		<g>
			<path class="st30" d="M645.6,161.6c-5-4.5-7.8-11-7.8-17.7c0-13.3,10.8-24.1,24.1-24.1c10,0,19,6.3,22.5,15.6l-2.8,1.1
				c-3.1-8.2-11-13.6-19.7-13.6c-11.6,0-21.1,9.5-21.1,21.1c0,5.9,2.5,11.5,6.8,15.5L645.6,161.6z"/>
		</g>
		<g>
			<path class="st30" d="M653.2,156.1c-0.3,0-0.7-0.1-0.9-0.3c-3.6-2.9-5.7-7.3-5.7-11.9c0-6.2,3.7-11.7,9.3-14.1
				c0.8-0.3,1.6,0,2,0.8c0.3,0.8,0,1.6-0.8,2c-4.6,1.9-7.5,6.4-7.5,11.3c0,3.7,1.7,7.2,4.6,9.6c0.6,0.5,0.7,1.5,0.2,2.1
				C654.1,155.9,653.6,156.1,653.2,156.1z"/>
		</g>
		<g>
			<path class="st30" d="M675.3,142.3c-0.7,0-1.3-0.5-1.5-1.2c-0.6-2.6-2-5-4.1-6.7c-0.6-0.5-0.7-1.5-0.2-2.1s1.5-0.7,2.1-0.2
				c2.5,2.1,4.4,5.1,5.1,8.3c0.2,0.8-0.3,1.6-1.1,1.8C675.5,142.3,675.4,142.3,675.3,142.3z"/>
		</g>
		<path class="st92" d="M818,68.2c2.5,7.9,5.4,10.8,7.8,11.9c3.2,1.5,6,3.9,9.3,4.9c0,0,0.1,0,0.1,0.1c0.7,0.8-5.6,7.1-12.7,13.9
			c1.1,2.1,3.5,7.5,2.2,14.1c-0.5,2.4-1.3,4.4-2.2,5.8c-5.3,3.9-10,5.9-13.3,7c-4.3,1.4-6.9,1.6-14.3,3.6c-4.2,1.1-7.5,2.2-9.7,3
			c-2.2,1.1-5.1,2.7-8.5,4.7c-7.7,4.5-10,6.4-14.5,7.5c-3.1,0.7-6.2,0.8-9.1,0.4c-6.6-4.7-10-9.7-11.8-12.9
			c-3.8-6.8-4.5-13.2-5.7-25c-0.7-6.9-0.9-12.7-0.9-16.6c3.8,2.1,22.7,12,46.4,5.6C804.4,89.6,815.7,72,818,68.2z"/>
		<path class="st92" d="M728.2,79.7l-2.5-0.5c0.3,1.9,0.6,6.2-1.4,11c-2.3,5.6-6.4,8.5-8,9.5c1.7,2,4.2,4.6,7.5,6.9
			c3.8,2.7,7.4,4.3,10.1,5.3c0.7,0,1.4,0,2.1,0v-22c-1.4-0.3-3.3-0.9-5.3-2c-1.6-0.9-2.8-1.8-3.7-2.7c-0.1-0.6-0.2-1.4,0-2.4
			C727.2,81.3,727.8,80.3,728.2,79.7z"/>
		<path class="st93" d="M725.5,78.4l-5.9-2.2c0.3,1.2,1.4,6.6-1.8,11.8c-2.1,3.5-5.2,5.3-6.5,5.9c1.4,1.8,2.8,3.6,4.2,5.4
			c1.6-0.8,5.4-2.9,8-7.4C727,86,725.9,79.9,725.5,78.4z"/>
		<path class="st93" d="M824.4,63.7c0.3,1.7,1.3,5.2,4,8.5c3.5,4.2,7.8,5.7,9.5,6.1c-1.1,2.2-2.2,4.4-3.3,6.6
			c-1.6-0.3-6.6-1.4-10.7-5.9c-4.2-4.7-4.8-10-4.9-11.5C820.9,66.2,822.7,64.9,824.4,63.7z"/>
		<path class="st93" d="M720.3,76.5c-1.5-0.9-4.9-2.8-9.5-2.8c-2.7,0-4.8,0.7-6.2,1.2c-0.5,1.5-1.3,4.3-0.8,7.7
			c1.1,6.7,6.4,10.3,7.4,11c1.5-0.8,4.4-2.8,6.6-6.4C720.6,82.6,720.4,78.1,720.3,76.5z"/>
		<path class="st93" d="M841,57.7c-1.9,0-5.4,0.2-9.3,2.1c-2.7,1.3-4.6,3-5.8,4.3c0.9,2.7,1.7,5.4,2.6,8.1l8.4,6.3l3.4-4.7
			c0.7-1.4,1.3-3.2,1.8-5.4c0.6-3,0.6-5.6,0.4-7.5C841.9,59.8,841.4,58.8,841,57.7z"/>
		<path class="st94" d="M758.6,113.3c-0.2,1.3-1.6,9.2,3.6,15.6c2.6,3.2,5.7,4.7,7.5,5.4c1.1-1.1,2.2-2.2,3.3-3.4
			c-1.4-1.3-3.7-4-5.3-8c-1.6-4.3-1.5-8-1.3-9.9C763.9,113.1,761.2,113.2,758.6,113.3z"/>
		<path class="st94" d="M760.3,97c-0.5,0.2-9.8,10.6-9.8,10.6h19.3L767.9,97H760.3z"/>
		<polygon class="st95" points="750.6,108.1 750.4,112.5 769.2,113.6 769.2,109.2 		"/>
		<polyline class="st95" points="771,126.6 764.3,132.3 769.7,135.2 773.9,130.9 771,126.6 		"/>
		<path class="st96" d="M721.8,77c-5.3,1.6-7.1,4.3-7.7,5.5c-3.3,6.3,1.3,17.5,13.3,25.6c-2.6-0.8-12.8-4.5-18.8-15.3
			c-4.2-7.5-4.3-14.7-4.1-17.9c1.5-0.6,3.6-1.2,6.2-1.2C716.2,73.6,720.1,75.9,721.8,77"/>
		<g>
			
				<linearGradient id="SVGID_154_" gradientUnits="userSpaceOnUse" x1="748.6877" y1="146.0695" x2="746.1537" y2="118.4766" gradientTransform="matrix(1 0 0 -1 0 189.8132)">
				<stop  offset="0" style="stop-color:#F8D6D2"/>
				<stop  offset="1" style="stop-color:#FBE493"/>
			</linearGradient>
			<path class="st97" d="M753.1,67.8C753.1,67.9,753.2,67.9,753.1,67.8l-2.7,4.2c-2.7,0.5-6.5,1-11.1,1.3l9.8-14.7
				C749.5,60.7,750.4,64.3,753.1,67.8z"/>
			
				<linearGradient id="SVGID_155_" gradientUnits="userSpaceOnUse" x1="759.1841" y1="145.1055" x2="756.6501" y2="117.5126" gradientTransform="matrix(1 0 0 -1 0 189.8132)">
				<stop  offset="0" style="stop-color:#F8D6D2"/>
				<stop  offset="1" style="stop-color:#FBE493"/>
			</linearGradient>
			<path class="st98" d="M767.7,46.1l-10.1,15.1l-8.3-3l7.9-11.9C760.6,46.1,764.1,46,767.7,46.1z"/>
			<path class="st82" d="M770.9,69.4c-0.4-2.2-1.6-3.6-2.2-4.3l-3-1.1l-8-2.8l-8.3-3l-0.2,0.4c0.4,2.1,1.3,5.7,4,9.2
				c0,0,0,0,0.1,0.1c3.9,5.2,9.2,6.9,11,7.5c0.4,0.1,2.1,0.5,3.9-0.4c2.1-1.1,2.7-3.1,2.8-3.4C771,71,771,70.2,770.9,69.4z"/>
			<path class="st83" d="M770.9,69.4c-0.4-2.2-1.6-3.6-2.2-4.3l-2.8-1c0.3,0.6,0.5,1.3,0.7,2c0.1,0.8,0.1,1.6,0,2.2
				c-0.1,0.3-0.7,2.4-2.8,3.4c-1.8,0.9-3.5,0.5-3.9,0.4c-0.9-0.3-2.6-0.8-4.6-1.9c3.5,3.4,7.4,4.7,9,5.1c0.4,0.1,2.1,0.5,3.9-0.4
				c2.1-1.1,2.7-3.1,2.8-3.4C771,71,771,70.2,770.9,69.4z"/>
			
				<linearGradient id="SVGID_156_" gradientUnits="userSpaceOnUse" x1="784.7399" y1="142.7585" x2="782.2059" y2="115.1657" gradientTransform="matrix(1 0 0 -1 0 189.8132)">
				<stop  offset="0" style="stop-color:#F8D6D2"/>
				<stop  offset="1" style="stop-color:#FBE493"/>
			</linearGradient>
			<path class="st99" d="M797.6,66.9c-3.4,4.4-8,5.9-9.7,6.4c-2.7,0.3-6.6,0.4-10.8-1c-3.4-1.1-3.5-2.1-6.2-3
				c-0.4-2.2-1.6-3.6-2.2-4.3l-3-1.1l11.6-17.4c9.2,0.8,17.2,2.4,23.5,4.2C801.1,51.8,803,60,797.6,66.9z"/>
		</g>
		<path class="st100" d="M756.1,64.4l8.4,1.2l3.2,0.4c0.7,0.5,2.3,1.7,3.1,3.7c0.1,0.3,0.2,0.7,0.3,1c0-0.4,0-0.9-0.1-1.4
			c-0.4-2.2-1.6-3.6-2.2-4.3l-3-1.1l-8-2.8l-8.3-3l-0.2,0.4c0.2,1.3,0.6,3.1,1.5,5.1L756.1,64.4z"/>
		<g>
			<path class="st30" d="M818.6,43.3l-2.7-1.3c1.3-2.8,2.8-7.3,2.5-12.9c-0.3-5.1-0.8-8.1-1.8-10.1l-0.9-1.9l2.1-0.3
				c2.6-0.4,3.5-0.7,3.9-1.8c0.6-2-0.7-4.7-3.3-6.4c-9.1-6.3-23.3-1.4-26.4,1.3l-0.6,0.5l-0.7-0.2c-3.3-0.7-11.4-1-21.2,1.9
				c-11.2,3.4-18.9,11.7-21.7,15.1l-2.3-1.9c3-3.6,11.2-12.5,23.2-16.1c8.7-2.6,17.1-2.9,22-2.1c4.8-3.6,19.5-7.9,29.5-1
				c3.7,2.5,5.4,6.4,4.4,9.7c-0.7,2.3-2.5,3.1-4.4,3.5c0.7,2.2,1.1,5.1,1.4,9.5C821.7,35.1,820.1,40.2,818.6,43.3z"/>
		</g>
		<g>
			<path class="st30" d="M816.1,53.6l-0.4-0.2c-4.3-1.7-8.8-3.1-13.2-4.3c-7.7-2.1-28.6-6.7-56.1-4c-4.5,0.4-9,1-13.4,1.8l-0.9,0.2
				l-0.5-0.8c-0.5-0.7-2.7-4.2-1.3-8.6c1-3.1,3.2-4.7,4.5-5.5c0.1-2,0.9-6,4.4-9.1c5.1-4.4,11.3-2.8,12-2.6c0.8,0.2,1.3,1,1,1.8
				c-0.2,0.8-1.1,1.3-1.8,1c-0.2-0.1-5.3-1.4-9.2,2c-3.3,2.9-3.4,6.9-3.4,7.7v1l-0.9,0.4c-0.7,0.3-2.9,1.5-3.7,4.2
				c-0.7,2.2,0,4.2,0.5,5.2c4.1-0.7,8.4-1.3,12.6-1.7c28-2.7,49.3,2,57.1,4.1c4.4,1.2,8.8,2.6,13.1,4.2c1.2-0.4,2.1-1.4,2.3-2.5
				c0.3-1.5-0.5-3.2-2-3.9l-0.1-0.1c-10.9-6.8-22.6-11.5-34.9-14.2c-17.1-3.7-32.4-2.3-38.2-1.6c-0.8,0.1-1.6-0.5-1.7-1.3
				c-0.1-0.8,0.5-1.6,1.3-1.7c6-0.8,21.7-2.2,39.2,1.6c12.7,2.8,24.6,7.7,35.6,14.6c2.7,1.4,4.1,4.3,3.5,7.2c-0.5,2.4-2.5,4.3-5,4.9
				L816.1,53.6z"/>
		</g>
		<g>
			<path class="st30" d="M745.7,74.7c-2.7,0-5.7-0.6-8.4-2.3c-9.2-5.8-9.8-19.1-4.7-28l2.6,1.5c-4.5,7.6-4.1,19.1,3.7,23.9
				c6.7,4.2,15.2,0,15.6-0.2l1.4,2.7C755.5,72.5,751,74.7,745.7,74.7z"/>
		</g>
		<g>
			<path class="st30" d="M764.7,77.3c-0.4,0-0.6,0-0.6,0l-0.5-0.1c-2.2-0.7-5.9-1.9-9.7-6c-4.9-5.2-6.2-12.5-6.2-12.8l-0.5-2.7
				l2.5,1c3.4,1.4,6.6,2.4,9.8,3.5s6.5,2.2,10,3.6l0.3,0.1l0.2,0.2c2.9,2.9,3.5,7.3,1.2,10.3C769.1,77,766,77.3,764.7,77.3z
				 M764.5,74.3c0.6,0,2.9,0,4.1-1.7c1.3-1.7,1-4.4-0.7-6.2c-3.3-1.3-6.4-2.4-9.5-3.4c-2.3-0.8-4.7-1.6-7.2-2.5
				c0.8,2.4,2.2,5.8,4.8,8.5C759.3,72.6,762.4,73.6,764.5,74.3L764.5,74.3z"/>
		</g>
		<g>
			<path class="st30" d="M785.8,74.8c-6,0-12-2.3-16.7-6.8l2.1-2.2c7.2,6.9,18.2,8,25.7,2.4c5.7-4.3,8.4-12,6.9-19.7l2.9-0.6
				c1.8,8.8-1.4,17.6-8,22.6C794.9,73.5,790.4,74.8,785.8,74.8z"/>
		</g>
		<g>
			<path class="st30" d="M816.8,61.7l-11.1-3.2l0.8-2.9l9.2,2.6c0.3-0.5,0.7-1.3,0.7-2.3c0.1-1.6-0.7-2.7-1.1-3.1l2.5-1.9
				c0.6,0.7,1.8,2.5,1.7,5.2c-0.1,2.6-1.5,4.3-2,5L816.8,61.7z"/>
		</g>
		<g>
			<path class="st30" d="M751.5,43c-0.1-2.9,0.2-5.8,1-8.6c1-3.4,2.6-6.6,4.8-9.5l2.4,1.8c-2,2.5-3.4,5.4-4.2,8.4
				c-0.7,2.5-1,5.1-0.9,7.7L751.5,43z"/>
		</g>
		<g>
			<path class="st30" d="M786.7,43.8l-3-0.1c0.2-4.8,1.7-9.5,4.3-13.6l2.5,1.6C788.2,35.3,786.9,39.5,786.7,43.8z"/>
		</g>
		<g>
			<path class="st30" d="M810.9,50.5l-2.5-1.6c0.8-1.3,1.4-2.6,1.8-4.1c0.4-1.7,0.5-3.4,0.3-5.1l3-0.4c0.2,2.1,0.1,4.2-0.4,6.2
				C812.6,47.3,811.9,49,810.9,50.5z"/>
		</g>
		<g>
			<rect x="795.8" y="69.8" class="st30" width="3" height="6"/>
		</g>
		<g>
			<rect x="813.8" y="59.9" class="st30" width="3" height="7.5"/>
		</g>
		<g>
			<path class="st30" d="M764.5,99.4c-12.6,0-25.2-4-37.4-11.8l-0.2-0.1c-0.3-0.2-2.6-2.4-2.1-5.5c0.2-1.3,0.8-2.3,1.3-2.9
				c-0.5-1.5-0.8-3-0.8-4.6c0-1.1,0.2-2.2,0.5-3.3v-0.1c0.6-1.5,1.4-2.9,2.6-4.1c1.1-1.1,2.4-2.1,3.9-2.7c0.8-0.3,1.6,0,2,0.8
				c0.3,0.8,0,1.6-0.8,2c-1.1,0.5-2.1,1.2-2.9,2c-0.8,0.9-1.5,1.9-1.9,3c-0.2,0.8-0.4,1.6-0.4,2.5c0,1.4,0.3,2.9,0.9,4.2l0.5,1
				l-0.9,0.7c-0.3,0.2-0.9,0.9-1.1,1.9c-0.2,1.4,0.8,2.5,1,2.8c12.3,7.9,24.9,11.6,37.6,11.2c29.1-1,46.5-22.8,49.8-27.4
				c0-0.1,0-0.2,0-0.2s-0.2-0.1-0.3,0c-13.1,7.4-27.9,11.9-42.9,12.7c-1.2,0.1-2.4,0.2-3.7,0.3c-8.7,0.8-20.6,1.8-37.3-6.6
				c-0.7-0.4-1-1.3-0.7-2c0.4-0.7,1.3-1,2-0.7c16,8.1,27.4,7.1,35.7,6.3c1.3-0.1,2.6-0.2,3.8-0.3c14.5-0.9,29-5.1,41.7-12.4
				c1.5-0.8,3.3-0.4,4.2,0.9c0.7,1,0.7,2.4,0,3.5l-0.1,0.1c-3.3,4.6-21.6,27.6-52.2,28.7C765.8,99.4,765.1,99.4,764.5,99.4z"/>
		</g>
		<g>
			<rect x="733.2" y="68.2" class="st30" width="3" height="6.3"/>
		</g>
		<path d="M728.7,77.3c0.3,0.6,1,1.4,1.7,2.1c0.8,0.7,1.5,1.3,2.4,1.9c1.7,1.2,3.5,2.2,5.4,3.2c-2-0.6-4-1.2-6-2
			c-1-0.4-2-0.9-2.9-1.4c-1-0.5-2-1-2.9-2L728.7,77.3z"/>
		<g>
			<path class="st30" d="M735.6,114.4c-4-1.4-17.4-7.9-26.3-19.8c-3.2-4.2-5.6-8.5-7-12.5c-1.3-3.7-1.1-6.5,0.6-8.4
				c1.7-1.9,4.7-2.4,8.2-1.5c1.2,0.3,2.5,0.6,3.8,1c4.6,1.3,9.2,2.9,13.6,4.8l-1.2,2.8c-4.3-1.8-8.8-3.4-13.3-4.6
				c-1.3-0.4-2.5-0.7-3.7-1c-2.3-0.6-4.4-0.3-5.2,0.6c-1.1,1.2-0.6,3.6,0,5.4c1.3,3.7,3.5,7.7,6.5,11.7
				c8.5,11.2,21.2,17.4,24.9,18.7L735.6,114.4z"/>
		</g>
		<path class="st101" d="M834.7,84.9c2.7-3.4,9.4-12.8,7.3-23.5c-0.2-1.2-0.6-2.4-1.1-3.7c-3.8,11.2-9.2,18.1-13.6,22.4L834.7,84.9z
			"/>
		<path class="st83" d="M833.8,85.7l-11.3,13.2c0,0,1.7,10.9,2.2,14.1s-2.2,5.8-2.2,5.8l-7.1,4.9l-34.7,9.5L759.4,146l-13.5-6.4
			c4,0.7,10,1.1,15.8-1.7c2.7-1.3,4.6-3,6.2-4.8c0.7-0.8,3.3,0.6,3.9-0.3c0.8-1.1-0.3-4.3,0.6-5.5c0.5-0.7,1.1-1.4,1.7-2
			c1.8-2,4.7-3.5,8.6-4.9c4.7-1.6,8.9-4,12.7-7c0.1-0.1,0.3-0.8,0.8-0.6c10.7,4.5,13.7-9.4,13.6-10.7c-0.1-2.6,1.6,1.4,0.1-3.4
			c-0.5-1.5,0-4.1,1.1-5.4c5.4-6,9.7-7.3,15.5-12.5L833.8,85.7z"/>
		<path class="st83" d="M750.8,121.4c0.1,0.7,0.4,5.5-3.1,8.9c-1.7,1.7-3.6,2.3-4.7,2.6c0.6,1.2,1.2,2.3,1.8,3.5
			c0.8,0,1.9-0.2,3-0.6c2.5-0.9,3.9-2.6,4.6-3.5C751.9,128.6,751.3,125,750.8,121.4z"/>
		<g>
			<path class="st30" d="M711.6,95.5l-1.5-2.6c1.7-1,5-3.2,6.8-7.4c1.7-3.8,1.4-7.3,1.1-9l3-0.5c0.3,2.1,0.6,6.3-1.4,10.7
				C717.5,91.7,713.7,94.4,711.6,95.5z"/>
		</g>
		<g>
			<path class="st30" d="M717,100.6l-1.6-2.5c2-1.3,4.9-3.7,7-7.6c2.3-4.3,2.5-8.5,2.3-11.2l3-0.2c0.3,3.1,0,7.9-2.6,12.8
				C722.7,96.4,719.4,99.1,717,100.6z"/>
		</g>
		<g>
			<path class="st30" d="M838.4,79.9c-2.3-0.4-6.8-1.8-10.5-5.9c-3.3-3.6-4.3-7.7-4.6-9.8l3-0.5c0.3,1.8,1.1,5.2,3.9,8.2
				c3.1,3.4,6.8,4.6,8.8,4.9L838.4,79.9z"/>
		</g>
		<g>
			<path class="st30" d="M834.8,86.5c-2.7-0.7-6.7-2.3-10.3-5.8c-4-3.9-5.7-8.4-6.4-11.4l2.9-0.7c0.6,2.6,2.1,6.5,5.6,9.9
				c3.1,3,6.6,4.4,9,5L834.8,86.5z"/>
		</g>
		<g>
			<path class="st30" d="M758.6,146.5c-1.2,0-2.5-0.1-3.8-0.5c-4-1-6.6-3.1-7.6-3.9c-6.5-5.2-10.7-14.9-12.6-28.8
				c-1.4-10-1.1-19.4-0.9-22.9l3,0.2c-0.3,6.3-1.2,38.2,12.4,49.2c1.4,1.2,3.5,2.6,6.5,3.3c6,1.5,10.8-1.6,17-5.5
				c2.8-1.8,6.1-3.8,9.7-5.6c5.7-2.8,12.4-4.3,18.8-5.7c9.5-2.2,18.4-4.2,21-9.7c1.9-4.1,1.2-9.7-2.1-16.5l2.7-1.3
				c3.7,7.7,4.4,14.1,2.1,19.1c-3.2,6.9-12.9,9.1-23.1,11.4c-6.3,1.4-12.8,2.9-18.2,5.5c-3.5,1.7-6.5,3.6-9.4,5.4
				C768.8,143.5,764.1,146.5,758.6,146.5z"/>
		</g>
		<g>
			<path class="st30" d="M818.2,103.2c-0.5,0-1-0.2-1.2-0.7c-0.5-0.7-0.3-1.6,0.4-2.1c7.9-5.4,14.1-12.1,18.2-20
				c4.4-8.3,7.5-18.6,5-20.7c-2.2-1.8-10.4,1.2-21.8,10.7c-0.6,0.5-1.6,0.4-2.1-0.2s-0.4-1.6,0.2-2.1c4.5-3.7,19.7-15.5,25.6-10.7
				c5.9,4.8-3.2,22.5-4.2,24.4c-4.4,8.4-10.9,15.5-19.2,21.1C818.7,103.1,818.4,103.2,818.2,103.2z"/>
		</g>
		<g>
			<path class="st30" d="M744.8,138.6l-0.2-3c1.2-0.1,4.1-0.6,5.8-2.8c2.2-3,1.9-6.3-1-9.6l-10.4,3.1l-0.9-2.9l12.2-3.7l0.6,0.7
				c4.5,4.6,5.2,9.8,1.9,14.2C750.3,137.8,746.4,138.4,744.8,138.6z"/>
		</g>
		<g>
			<g>
				<g>
					<path class="st102" d="M792.1,110.1"/>
				</g>
			</g>
		</g>
		<g>
			<path class="st30" d="M805.5,120.8c-1.4,0-2.9-0.2-4.3-0.7c-4.1-1.4-7.4-4.6-9-8.7l-0.5-1.2l20.4-11.3l0.8,1
				c2.6,3.5,3.6,7.8,2.8,12c-0.7,3.4-2.5,6.2-5.1,7.7C809.2,120.3,807.4,120.8,805.5,120.8z M795.5,111.4c1.4,2.7,3.8,4.8,6.6,5.8
				c2.5,0.9,5.1,0.8,7-0.3c1.8-1,3.1-3.2,3.7-5.7c0.6-2.9,0-5.9-1.5-8.5L795.5,111.4z"/>
		</g>
		<g>
			<path class="st30" d="M770.9,110.1l-22.6-1.2l9.9-12.5h11.1L770.9,110.1z M754.3,106.2l13.2,0.7l-0.9-7.5h-7L754.3,106.2z"/>
		</g>
		<g>
			<polygon class="st30" points="771.3,115.2 748.3,114.6 748.3,108.8 751.3,108.8 751.3,111.6 768.1,112.1 768,109.6 771,109.4 			
				"/>
		</g>
		<g>
			<path class="st30" d="M763,101.3c-1.9,0-3.5-1.5-3.5-3.5h3c0,0.2,0.2,0.5,0.5,0.5s0.5-0.2,0.5-0.5h3
				C766.4,99.8,764.9,101.3,763,101.3z"/>
		</g>
		<g>
			<path class="st30" d="M769,135.8c-2,0-3.5-0.9-3.8-1.1l-0.3-0.2c-2.3-2.5-4.2-5.3-5.6-8.4c-1.8-4-2.7-8.3-2.8-12.7h3
				c0,4,0.9,7.9,2.5,11.5c1.2,2.7,2.9,5.2,4.9,7.5c0.4,0.2,1.7,0.8,3.1,0.4c0.7-0.2,1.1-0.7,1.3-1.4s0.1-1.4-0.4-2
				c-1.5-1.9-2.8-4.1-3.8-6.3c-1.3-2.9-2.2-6-2.5-9.2l3-0.3c0.3,2.9,1.1,5.7,2.3,8.4c0.9,2,2.1,3.9,3.4,5.7c1,1.3,1.4,3.1,0.9,4.7
				c-0.5,1.6-1.6,2.8-3.2,3.3h-0.1C770.4,135.7,769.7,135.8,769,135.8z"/>
		</g>
		<g>
			
				<rect x="763.7" y="128" transform="matrix(0.9374 -0.3483 0.3483 0.9374 2.9888 275.5518)" class="st30" width="8.3" height="3"/>
		</g>
		<g>
			
				<rect x="760.7" y="122.3" transform="matrix(0.9374 -0.3483 0.3483 0.9374 4.7818 274.1428)" class="st30" width="8.3" height="3"/>
		</g>
		<g>
			
				<rect x="758.3" y="115.9" transform="matrix(0.9374 -0.3483 0.3483 0.9374 6.8543 272.9062)" class="st30" width="8.3" height="3"/>
		</g>
	</g>
	<polygon points="195.5,92.6 198.1,96.9 203.2,94.7 198.7,91.3 	"/>
</g>
</svg>
