<svg width="21" height="21" viewBox="0 0 21 21" fill="none" xmlns="http://www.w3.org/2000/svg">
<path opacity="0.4" d="M10.5757 19.25C10.4673 19.25 10.359 19.2251 10.2612 19.1745L7.11024 17.5434C6.21614 17.0801 5.51671 16.5601 4.97055 15.9544C3.77518 14.6296 3.1101 12.929 3.09953 11.1649L3.06253 5.35873C3.05813 4.68862 3.49065 4.08715 4.13722 3.86063L9.92294 1.84344C10.2665 1.72074 10.6497 1.71903 10.9994 1.83743L16.8071 3.78599C17.4572 4.00306 17.8968 4.60024 17.9003 5.2695L17.9373 11.08C17.9488 12.8415 17.3066 14.5489 16.1297 15.8883C15.5897 16.5026 14.8965 17.0303 14.0112 17.5022L10.8884 19.1702C10.7915 19.2225 10.684 19.2491 10.5757 19.25" fill="white"/>
<path d="M9.90426 12.5308C9.73513 12.5317 9.566 12.4707 9.43562 12.3455L7.7584 10.7324C7.49942 10.4819 7.49677 10.0752 7.75311 9.8229C8.00946 9.56979 8.42788 9.56721 8.68774 9.8169L9.89457 10.9769L12.8412 8.07169C13.0984 7.81858 13.5168 7.816 13.7758 8.06569C14.0357 8.31623 14.0383 8.72378 13.782 8.97518L10.3703 12.3395C10.2416 12.4664 10.0734 12.5299 9.90426 12.5308Z" fill="white"/>
</svg>
