<svg width="19" height="19" viewBox="0 0 19 19" fill="currentColor" xmlns="http://www.w3.org/2000/svg">
<path class='step' opacity="0.4" d="M10.2736 2.46496L12.0362 6.0071C12.166 6.26373 12.4139 6.44194 12.6997 6.48155L16.6589 7.05817C16.8901 7.09065 17.1 7.21263 17.2417 7.39876C17.3819 7.58252 17.4421 7.81539 17.408 8.0443C17.3803 8.2344 17.2908 8.41024 17.1538 8.54489L14.285 11.3258C14.0752 11.5199 13.9801 11.8074 14.0308 12.0886L14.7371 15.9983C14.8124 16.4703 14.4996 16.9155 14.0308 17.005C13.8376 17.0359 13.6397 17.0034 13.4655 16.9147L9.93386 15.0747C9.67176 14.9424 9.36215 14.9424 9.10006 15.0747L5.56846 16.9147C5.13454 17.1452 4.59688 16.9883 4.35537 16.5606C4.26589 16.3903 4.23422 16.1963 4.26352 16.007L4.96984 12.0965C5.02051 11.8161 4.9247 11.527 4.71566 11.333L1.84683 8.5536C1.50555 8.2241 1.49526 7.68153 1.82387 7.34015C1.83099 7.33302 1.83891 7.3251 1.84683 7.31718C1.98303 7.17857 2.16198 7.09065 2.35519 7.06768L6.31437 6.49026C6.59943 6.44987 6.84728 6.27323 6.97793 6.01502L8.67721 2.46496C8.82845 2.16081 9.14202 1.97151 9.48251 1.97943H9.58862C9.88397 2.01507 10.1413 2.19804 10.2736 2.46496Z" fill="#5E4AAF"/>
<path class='step' d="M9.49433 14.9761C9.34098 14.9808 9.19159 15.022 9.05721 15.0957L5.54289 16.9315C5.11289 17.1367 4.59831 16.9775 4.35722 16.5662C4.2679 16.3983 4.23549 16.2057 4.26553 16.0172L4.96744 12.115C5.01487 11.8314 4.92002 11.543 4.71371 11.3433L1.8436 8.56465C1.50292 8.23108 1.4966 7.68359 1.83016 7.3421C1.83491 7.33735 1.83886 7.33339 1.8436 7.32943C1.97956 7.19473 2.15504 7.10599 2.34395 7.07826L6.30646 6.49512C6.59339 6.45867 6.84238 6.27961 6.96885 6.01973L8.69123 2.42499C8.85486 2.135 9.16866 1.96228 9.50065 1.9805C9.49433 2.21582 9.49433 14.816 9.49433 14.9761Z" fill="#5E4AAF"/>
</svg>
