<svg width="18" height="18" viewBox="0 0 18 18" fill="currentColor" xmlns="http://www.w3.org/2000/svg">
<path class='step' opacity="0.4" d="M15.9375 10.1073C15.3217 10.1073 14.8207 9.61087 14.8207 9.00074C14.8207 8.38988 15.3217 7.89345 15.9375 7.89345C16.0868 7.89345 16.23 7.83475 16.335 7.73071C16.4408 7.62592 16.5 7.48398 16.5 7.33609L16.4993 5.32811C16.4993 3.63077 15.105 2.25 13.392 2.25H4.608C2.895 2.25 1.50075 3.63077 1.50075 5.32811L1.5 7.40075C1.5 7.54864 1.55925 7.69058 1.665 7.79536C1.77 7.8994 1.91325 7.95811 2.0625 7.95811C2.69925 7.95811 3.17925 8.40623 3.17925 9.00074C3.17925 9.61087 2.67825 10.1073 2.0625 10.1073C1.752 10.1073 1.5 10.357 1.5 10.6646V12.6711C1.5 14.3685 2.8935 15.75 4.60725 15.75H13.3927C15.1065 15.75 16.5 14.3685 16.5 12.6711V10.6646C16.5 10.357 16.248 10.1073 15.9375 10.1073Z" fill="#5E4AAF"/>
<path class='step' d="M11.5724 8.69145L10.6881 9.55245L10.8974 10.7697C10.9334 10.9805 10.8486 11.1882 10.6754 11.3127C10.5036 11.4387 10.2794 11.4545 10.0904 11.354L8.99914 10.7802L7.90564 11.3547C7.82464 11.3975 7.73614 11.42 7.64839 11.42C7.53364 11.42 7.42039 11.384 7.32289 11.3135C7.15039 11.1882 7.06564 10.9805 7.10164 10.7697L7.31014 9.55245L6.42589 8.69145C6.27289 8.54295 6.21964 8.3247 6.28564 8.12145C6.35239 7.91895 6.52489 7.77495 6.73564 7.74495L7.95514 7.5672L8.50189 6.45945C8.59714 6.26895 8.78764 6.15045 8.99914 6.15045H9.00064C9.21289 6.1512 9.40339 6.2697 9.49714 6.4602L10.0439 7.5672L11.2656 7.7457C11.4741 7.77495 11.6466 7.91895 11.7126 8.12145C11.7794 8.3247 11.7261 8.54295 11.5724 8.69145Z" fill="#5E4AAF"/>
</svg>
