<svg width="19" height="19" viewBox="0 0 19 19" fill="none" xmlns="http://www.w3.org/2000/svg">
<path opacity="0.4" d="M12.9365 1.58319H6.07273C3.38898 1.58319 1.58398 3.46736 1.58398 6.26986V12.7378C1.58398 15.5324 3.38898 17.4165 6.07273 17.4165H12.9365C15.6202 17.4165 17.4173 15.5324 17.4173 12.7378V6.26986C17.4173 3.46736 15.6202 1.58319 12.9365 1.58319Z" fill="#5E4AAF"/>
<path d="M8.56196 12.0713C8.38463 12.0713 8.2073 12.004 8.07192 11.8686L6.1933 9.98999C5.92255 9.71924 5.92255 9.28066 6.1933 9.0107C6.46405 8.73995 6.90184 8.73916 7.17259 9.00991L8.56196 10.3993L11.83 7.13129C12.1007 6.86054 12.5385 6.86054 12.8093 7.13129C13.08 7.40204 13.08 7.84062 12.8093 8.11137L9.05201 11.8686C8.91663 12.004 8.7393 12.0713 8.56196 12.0713Z" fill="#5E4AAF"/>
</svg>
