<svg id="Layer_4" data-name="Layer 4" xmlns="http://www.w3.org/2000/svg" xmlns:xlink="http://www.w3.org/1999/xlink" viewBox="0 0 550.37513 491.12305"><defs><style>.cls-1{fill:#fff;}.cls-2{fill:url(#linear-gradient);}.cls-3{fill:#111f2c;}.cls-4{fill:#5e7083;}.cls-5{fill:#04182d;}.cls-6{fill:#97a3af;}.cls-7{fill:#e94043;}.cls-8{fill:#515171;}.cls-9{fill:#bac7d4;}.cls-10{fill:#bebcff;}.cls-11{fill:#243c54;}.cls-12{fill:url(#linear-gradient-2);}.cls-13{fill:url(#linear-gradient-3);}.cls-14{fill:#af1c2f;}.cls-15{fill:#293039;}.cls-16{fill:none;stroke:#000;stroke-miterlimit:10;stroke-width:9px;}.cls-17{fill:#a3adb8;}</style><linearGradient id="linear-gradient" x1="286.34973" y1="228.32808" x2="302.39864" y2="385.43838" gradientUnits="userSpaceOnUse"><stop offset="0.31179" stop-color="#00d7ff"/><stop offset="0.5638" stop-color="#02cefa"/><stop offset="0.97381" stop-color="#07b6ec"/><stop offset="1" stop-color="#07b4eb"/></linearGradient><linearGradient id="linear-gradient-2" x1="395.84271" y1="216.98885" x2="413.32063" y2="367.29891" gradientUnits="userSpaceOnUse"><stop offset="0.35315" stop-color="#4358ff"/><stop offset="0.45601" stop-color="#5540ff"/><stop offset="0.67026" stop-color="#7812ff"/><stop offset="0.7779" stop-color="#8500ff"/></linearGradient><linearGradient id="linear-gradient-3" x1="250.95548" y1="234.37413" x2="268.39307" y2="384.33743" xlink:href="#linear-gradient-2"/></defs><path class="cls-1" d="M426.80827,210.46028c-7.3645-8.74688-49.52795-57.10553-122.05517-62.36337-74.632-5.4104-124.26068,38.96124-132.40265,46.4899-13.4176,19.60367-39.79358,64.051-42.5437,125.77451-4.1864,93.96,49.47644,158.36218,62.36774,173.03949a252.66971,252.66971,0,0,0,194.33374-12.66364Q455.48443,400.629,524.46062,320.52086Z" transform="translate(-88.02385 -86.20647)"/><path class="cls-2" d="M467.23735,198.1325a1519.99813,1519.99813,0,0,1-159.36279,41.65823,1520.6418,1520.6418,0,0,1-208.907,27.75265,295.2421,295.2421,0,0,0-5.63636,45.18079c-1.4104,26.07471-.00518,59.118,11.25721,86.99243L198.878,398.061s-2.675-50.1513,44.71393-49.58819c0,0,31.93591-4.94483,45.57519,40.04309,0,0,168.65222-31.90949,202.08032-49.77271l10.9032-6.03772c-6.78027-4.26117-32.92944-21.79638-43.36011-56.87506C447.07268,236.42269,463.91374,204.20507,467.23735,198.1325Z" transform="translate(-88.02385 -86.20647)"/><circle class="cls-3" cx="453.18429" cy="164.97051" r="87.56617"/><path class="cls-1" d="M541.20814,339.24358a88.06641,88.06641,0,1,1,88.0664-88.0664A88.16595,88.16595,0,0,1,541.20814,339.24358Zm0-175.13281a87.06641,87.06641,0,1,0,87.0664,87.06641A87.16464,87.16464,0,0,0,541.20814,164.11077Z" transform="translate(-88.02385 -86.20647)"/><ellipse class="cls-4" cx="466.79759" cy="162.91971" rx="60.93326" ry="63.91357"/><path class="cls-1" d="M554.82142,313.53948c-33.87451,0-61.43311-28.89551-61.43311-64.41309s27.5586-64.41357,61.43311-64.41357,61.4331,28.896,61.4331,64.41357S588.69593,313.53948,554.82142,313.53948Zm0-127.82666c-33.32276,0-60.43311,28.44727-60.43311,63.41357s27.11035,63.41309,60.43311,63.41309,60.4331-28.44678,60.4331-63.41309S588.14417,185.71282,554.82142,185.71282Z" transform="translate(-88.02385 -86.20647)"/><path class="cls-5" d="M611.66081,299.1183c2.33619,17.59922,12.724,109.2772-50.38256,184.50309-31.25928,37.26251-68.01648,55.546-89.86658,64.2218a56.50717,56.50717,0,0,1-25.57288-18.046,57.40406,57.40406,0,0,1-12.11047-37.00549Q422.23076,443.04583,410.7332,393.3Z" transform="translate(-88.02385 -86.20647)"/><path class="cls-6" d="M386.50823,480.73717a283.88306,283.88306,0,0,1-194.33374,12.66364c14.20184,15.90637,55.24011,57.64087,123.58374,73.56225,78.4187,18.2685,140.94311-9.52545,158.8955-18.29321L454.58911,534.9521a25.52369,25.52369,0,0,1-7.03543-7.2224l-7.01026-10.854a25.52374,25.52374,0,0,1-3.52993-8.56265l-3.28517-15.52128Z" transform="translate(-88.02385 -86.20647)"/><path class="cls-7" d="M234.669,363.23156a266.31825,266.31825,0,0,1-85.96954,30.85388,92.481,92.481,0,0,0,98.91766,23.8316c1.33472-2.57367,8.83338-17.631,2.52906-34.75757A42.63423,42.63423,0,0,0,234.669,363.23156Z" transform="translate(-88.02385 -86.20647)"/><path class="cls-1" d="M215.98353,423.853a91.79654,91.79654,0,0,1-23.6543-3.082,93.24231,93.24231,0,0,1-43.99463-26.34375l-.63379-.67579.9126-.1582a265.8755,265.8755,0,0,0,85.80859-30.7959l.27539-.15625.25928.18164a42.75692,42.75692,0,0,1,15.65869,20.16407c6.03858,16.40527-.42822,31.05957-2.5542,35.16113l-.09033.17383-.18506.0664A95.536,95.536,0,0,1,215.98353,423.853Zm-66.28125-29.43653a92.2005,92.2005,0,0,0,42.88379,25.3877,93.395,93.395,0,0,0,54.67724-2.291c2.1626-4.23535,8.22852-18.38379,2.41358-34.18066a41.72432,41.72432,0,0,0-15.0376-19.50879,266.80024,266.80024,0,0,1-84.937,30.59277Z" transform="translate(-88.02385 -86.20647)"/><path class="cls-7" d="M406.88078,396.7614s-12.98132,9.21027-25.17919,26.53467c-10.38868,14.7547-15.58289,22.132-15.09729,29.07715,1.16735,16.69409,22.30883,28.725,35.31115,32.656,5.7273,1.73151,11.79566,2.28058,23.93262,3.37873a87.16547,87.16547,0,0,0,19.76245-.322s5.85946-32.05736-4.68164-51.87958C425.59627,407.37384,406.88078,396.7614,406.88078,396.7614Z" transform="translate(-88.02385 -86.20647)"/><path class="cls-1" d="M434.44642,489.29241c-2.582,0-5.50147-.10254-8.64307-.38672-12.15527-1.09961-18.25635-1.65137-24.03223-3.39844-13.6958-4.13964-34.49609-16.37109-35.666-33.09863-.49756-7.12207,4.74365-14.56641,15.186-29.39746,12.10889-17.19824,25.16993-26.56543,25.3003-26.6582l.25976-.1836.27637.15723c.18848.10644,19.01807,11.01465,34.24268,39.64551,10.50146,19.74707,4.791,51.88183,4.73193,52.2041l-.06348.34668-.34814.05664A78.628,78.628,0,0,1,434.44642,489.29241Zm-27.5376-91.93164a121.35894,121.35894,0,0,0-24.79834,26.22363c-10.30762,14.63965-15.48047,21.98633-15.00732,28.75391.63867,9.13769,7.438,16.33105,13.0288,20.75683a69.79986,69.79986,0,0,0,21.92823,11.45508c5.67871,1.71778,11.7456,2.2666,23.833,3.35938a89.47449,89.47449,0,0,0,19.28565-.26563c.58935-3.54785,5.05664-32.87109-4.69141-51.20312C426.40052,409.95061,409.27454,398.81,406.90882,397.36077Z" transform="translate(-88.02385 -86.20647)"/><path class="cls-7" d="M182.80309,180.61513c8.452-10.84561,69.6535-86.66055,176.87848-91.02588,105.34484-4.28877,171.85363,63.77811,181.52661,74.02158a109.33225,109.33225,0,0,0-73.97083,34.52167l-40.42908,12.32778c-12.38171-14.15856-41.021-42.80938-87.05627-56.07339C259.845,131.36354,193.34569,173.664,182.80309,180.61513Z" transform="translate(-88.02385 -86.20647)"/><path class="cls-1" d="M426.64466,211.03313l-.21289-.24365c-16.48389-18.84912-44.92627-43.852-86.81836-55.92236-75.4502-21.73877-138.88965,14.53076-156.53516,26.16552l-2.53906,1.67383,1.86914-2.39844c6.16943-7.9165,23.53858-28.4458,51.50733-48.04541,38.25439-26.8081,80.56152-41.33349,125.7456-43.17285,44.42627-1.80713,87.11816,8.83252,126.90918,31.627a245.92093,245.92093,0,0,1,55.00147,42.55078l.74023.78418-1.07715.0581a108.836,108.836,0,0,0-73.63232,34.36377l-.09131.09815ZM291.36829,147.06194a174.61164,174.61164,0,0,1,48.522,6.84424c41.94532,12.08545,70.47754,37.06006,87.08106,55.98193L466.964,197.6928a109.833,109.833,0,0,1,73.13964-34.51758,246.234,246.234,0,0,0-54.03027-41.59082c-39.625-22.69971-82.14551-33.29687-126.37109-31.4956-44.98975,1.83154-87.11768,16.29638-125.21289,42.99267a248.35328,248.35328,0,0,0-49.40088,45.46436C200.98548,168.50335,240.88587,147.06194,291.36829,147.06194Z" transform="translate(-88.02385 -86.20647)"/><path class="cls-8" d="M463.29546,389.19561l-20.27222,24.03588a76.80069,76.80069,0,0,1,9.00989,38.29212,73.72006,73.72006,0,0,1-2.81568,17.73828,138.14758,138.14758,0,0,0-8.16528-29.22089,139.89545,139.89545,0,0,0-28.43738-44.06207l5.25574-6.39844Z" transform="translate(-88.02385 -86.20647)"/><path class="cls-8" d="M470.0529,416.89177a66.45055,66.45055,0,0,1,4.012,50.39917q4.18415-8.16393,8.36816-16.32782a15.85249,15.85249,0,0,0-.72742-15.73169Z" transform="translate(-88.02385 -86.20647)"/><path class="cls-9" d="M467.83476,554.02629a230.81386,230.81386,0,0,1-37.20019,12.93677c-114.94129,29.30866-202.10492-39.92633-210.98828-47.24029,13.26928,8.27111,111.28491,67.08337,227.31872,27.53112q5.289-1.80285,10.35669-3.7901l8.6486,5.206Z" transform="translate(-88.02385 -86.20647)"/><path class="cls-8" d="M477.06694,549.65758l-13.434-8.7431c82.919-34.87073,121.79126-102.83734,130.95447-119.87641-3.328,8.64917-35.18152,87.30176-117.52051,128.61951a4.604,4.604,0,0,0-1.82434-2.29938" transform="translate(-88.02385 -86.20647)"/><path class="cls-10" d="M581.269,303.14165c-27.36438,3.17423-53.78052-10.90689-65.88489-34.91339-13.031-25.84424-6.85779-58.00061,15.32446-77.84158-6.51892,3.81634-21.78613,13.98516-29.96557,33.35516-8.66931,20.53018-9.77869,52.34921,11.54394,72.07925,14.96424,13.84653,36.40991,17.51316,53.49634,13.5149A56.21269,56.21269,0,0,0,581.269,303.14165Z" transform="translate(-88.02385 -86.20647)"/><path class="cls-11" d="M550.48686,338.25472c-37.00659-5.76306-67.26391-31.91034-77.05517-66.5539-11.29663-39.96978,6.64026-84.20538,44.2987-106.61724-43.78637,12.36889-71.28564,56.27957-63.44482,100.61065C462.26177,310.79091,504.41838,342.80474,550.48686,338.25472Z" transform="translate(-88.02385 -86.20647)"/><path class="cls-12" d="M322.11492,383.05962c31.76342-6.73487,65.02465-14.80191,99.54772-24.47726q36.22632-10.15272,69.58484-21.22208,5.23645-4.97718,10.47278-9.95436L484.178,315.58084a101.27408,101.27408,0,0,1-18.0669-22.77232,103.911,103.911,0,0,1-11.82556-30.77661,60.06168,60.06168,0,0,1-1.68933-29.61525,57.97962,57.97962,0,0,1,6.19433-16.84006,1078.79646,1078.79646,0,0,1-108.73718,34.0316Q336.0841,316.33393,322.11492,383.05962Z" transform="translate(-88.02385 -86.20647)"/><path class="cls-13" d="M279.661,366.91934a45.475,45.475,0,0,0-16.836-14.29964c-16.29724-7.97087-36.07825-5.3111-50.83722,6.77672l19.86566-86.525c23.70366-3.29619,48.96744-7.61818,75.54032-13.27258Z" transform="translate(-88.02385 -86.20647)"/><path class="cls-14" d="M146.7191,394.21849a166.91493,166.91493,0,0,0,104.28034,8.03217q-2.81562,8.72836-5.63111,17.45673c-9.79712,2.72033-40.06787,9.73626-71.23462-5.34967A94.75323,94.75323,0,0,1,146.7191,394.21849Z" transform="translate(-88.02385 -86.20647)"/><path class="cls-15" d="M575.51,230.37252a2.49163,2.49163,0,0,1,4.39788-1.34734l22.20934,26.78753a5.23071,5.23071,0,0,1-2.55631,8.37372l-22.01005,5.7575a4.37507,4.37507,0,0,1-5.46142-4.65926Z" transform="translate(-88.02385 -86.20647)"/><path class="cls-15" d="M567.2331,267.73724a7.17063,7.17063,0,0,1-5.32752,6.29928l-21.48085,5.61907a5.05538,5.05538,0,0,1-6.12852-5.839l11.48391-72.94442a4.92718,4.92718,0,0,1,8.68483-2.53475l15.28012,19.65385a7.17061,7.17061,0,0,1,1.48117,5.03915Z" transform="translate(-88.02385 -86.20647)"/><path d="M285.70667,393.58343l-.92725-4.06739c-4.91406-21.56347-21.67773-36.54492-40.83154-36.54492-.106,0-.21142.001-.31738.002-18.68457.16016-35.044,11.44043-39.7832,27.43262l-8.62891-2.55664c5.853-19.75195,25.729-33.68262,48.335-33.876.13232-.001.26465-.002.39648-.002,22.13331,0,41.56055,15.99219,48.542,39.49024,11.11279-1.70508,22.24267-3.59375,33.14111-5.625a1052.45062,1052.45062,0,0,0,179.54688-50.335l3.18945,8.416A1061.52218,1061.52218,0,0,1,327.28235,386.684c-12.30908,2.29395-24.90918,4.4082-37.45019,6.28223Z" transform="translate(-88.02385 -86.20647)"/><path d="M142.97278,404.60491c-12.55761,0-29.34033-.1416-38.50634-.39063l-3.17627-.08593-.98145-3.02149a251.02287,251.02287,0,0,1-5.72363-134.58545l.75879-3.25488,3.33545-.21387A1582.595,1582.595,0,0,0,302.7804,236.50188a1582.4461,1582.4461,0,0,0,167.40918-42.6626l2.69727,8.58594A1591.56015,1591.56015,0,0,1,304.52161,245.332a1591.78706,1591.78706,0,0,1-201.90625,26.48291,242.02266,242.02266,0,0,0,5.29,123.47949c11.647.24512,30.91748.3584,42.17529.292l.05274,9C147.99915,404.59905,145.57581,404.60491,142.97278,404.60491Z" transform="translate(-88.02385 -86.20647)"/><path d="M143.82093,264.21868l-8.62695-2.56543a247.467,247.467,0,0,1,87.29443-125.76856,245.591,245.591,0,0,1,323.64551,24.1626l-6.43262,6.29395A236.59218,236.59218,0,0,0,227.92151,143.0595,238.40414,238.40414,0,0,0,143.82093,264.21868Z" transform="translate(-88.02385 -86.20647)"/><path d="M370.59925,577.32952A243.38076,243.38076,0,0,1,222.276,527.49065,247.43653,247.43653,0,0,1,135.0387,401.35979l8.63233-2.54687a238.3734,238.3734,0,0,0,84.04589,121.50879A236.57213,236.57213,0,0,0,607.16077,331.768a240.16727,240.16727,0,0,0-1.46484-26.48l8.94433-.9961a249.23405,249.23405,0,0,1,1.52051,27.47608A245.56081,245.56081,0,0,1,370.59925,577.32952Z" transform="translate(-88.02385 -86.20647)"/><path d="M541.20814,343.24358a92.06641,92.06641,0,1,1,92.0664-92.0664A92.17052,92.17052,0,0,1,541.20814,343.24358Zm0-175.13281a83.06641,83.06641,0,1,0,83.0664,83.06641A83.16037,83.16037,0,0,0,541.20814,168.11077Z" transform="translate(-88.02385 -86.20647)"/><path d="M554.82142,317.53948c-36.167,0-65.59082-30.68994-65.59082-68.41309s29.42382-68.41357,65.59082-68.41357,65.59082,30.69043,65.59082,68.41357S590.98841,317.53948,554.82142,317.53948Zm0-127.82666c-31.2041,0-56.59082,26.65283-56.59082,59.41357,0,32.76026,25.38672,59.41309,56.59082,59.41309s56.59082-26.65283,56.59082-59.41309C611.41224,216.36565,586.02552,189.71282,554.82142,189.71282Z" transform="translate(-88.02385 -86.20647)"/><path class="cls-16" d="M95.01543,261.18926" transform="translate(-88.02385 -86.20647)"/><path d="M270.17689,509.95061a259.9241,259.9241,0,0,1-79.37452-12.26367l2.74414-8.57226a250.6904,250.6904,0,0,0,77.64161,11.834,286.36948,286.36948,0,0,0,74.97607-10.69141A288.6892,288.6892,0,0,0,386.068,476.019l3.64453,8.22852A297.674,297.674,0,0,1,348.56019,498.933a295.41581,295.41581,0,0,1-77.33692,11.01563C270.8761,509.94964,270.52405,509.95061,270.17689,509.95061Z" transform="translate(-88.02385 -86.20647)"/><path d="M435.02259,493.65081a167.47272,167.47272,0,0,1-23.72022-1.69922c-17.67578-2.52637-31.06884-8.87988-39.80615-18.88477-2.62988-3.01269-9.61474-11.01269-9.4126-22.09179a29.95182,29.95182,0,0,1,4.73731-14.84766c42.12207-65.11914,132.729-106.71875,136.56543-108.458a4.50017,4.50017,0,0,1,3.71631,8.19727,427.23032,427.23032,0,0,0-51.13575,28.86719c-25.52734,16.72265-60.4038,43.53027-81.58935,76.28222a21.109,21.109,0,0,0-3.29492,10.06348c-.13965,7.66894,5.1875,13.77051,7.19287,16.06738,7.27881,8.335,18.81885,13.68262,34.30029,15.89453a158.273,158.273,0,0,0,91.74951-14.7041c21.84326-10.63183,34.56006-22.749,34.686-22.87012,17.81152-17.21,30.67529-38.72265,38.22851-63.93554a4.49973,4.49973,0,1,1,8.6211,2.582c-8.001,26.709-21.66162,49.53027-40.60156,67.83105C543.2931,453.83636,501.07142,493.64788,435.02259,493.65081Z" transform="translate(-88.02385 -86.20647)"/><path class="cls-5" d="M630.41692,285.91658l-19.36963-12.1203a793.45055,793.45055,0,0,0-76.2356,37.51062c-.00012.00006-28.19311,15.82053-115.78369,74.92081q57.9159-2.944,115.83191-5.888l6.34827-30.17761A34.73176,34.73176,0,0,1,570.97685,371.702l58.02356-11.67773a265.92258,265.92258,0,0,0,1.41651-74.10764Z" transform="translate(-88.02385 -86.20647)"/><path class="cls-8" d="M428.73906,386.95256q54.48577-28.066,109.26355-55.56109,37.29-18.71723,74.70728-37.16587a78.58679,78.58679,0,0,1,13.1394,27.02973c4.50037,17.38061,3.15112,38.76864,3.15112,38.76889h0q1.25922-35.90264,2.51856-71.80524-9.92908-6.00658-19.85816-12.01321-20.43456,7.91382-41.748,17.64441a754.47474,754.47474,0,0,0-142.66126,85.80056q-2.43824,4.77247-4.87658,9.54487Z" transform="translate(-88.02385 -86.20647)"/><path d="M402.50013,394.67132l9.53467-8.457c19.49365-17.291,94.853-70.44531,191.80175-115.75878a13.2256,13.2256,0,0,1,12.58838.6499l13.76563,8.50342a13.0377,13.0377,0,0,1,6.06738,9.16015,192.37989,192.37989,0,0,1-2.87451,72.27539l-.57031,2.44922-2.38477.79785a243.19626,243.19626,0,0,1-59.11719,11.89746l-2.88037.21485-1.395-2.5293a40.2977,40.2977,0,0,0-16.28467-16.30469,37.29213,37.29213,0,0,0-4.833-2.124c-.54981,3.13867-1.15723,6.63672-1.76465,10.1377-.96094,5.53515-1.92285,11.07519-2.65869,15.21191l-.56153,3.15625-3.1665.501c-31.78711,5.02343-121.65918,9.582-122.53516,9.623ZM609.57435,278.1718a4.55368,4.55368,0,0,0-1.92676.437C524.41321,317.51214,457.44935,362.061,428.56751,384.33733c25.43311-1.44043,79.48486-4.76758,104.62891-8.30371.63086-3.58789,1.36035-7.79,2.08935-11.99023.95459-5.4961,1.90772-10.98731,2.63819-15.09571l.82421-4.63379,4.59278,1.03125a46.99987,46.99987,0,0,1,11.606,4.26172,48.72869,48.72869,0,0,1,18.47656,17.38282,234.314,234.314,0,0,0,51.749-10.44434,183.37464,183.37464,0,0,0,2.18555-66.438,4.05363,4.05363,0,0,0-1.897-2.84131l-13.76612-8.50342A4.01957,4.01957,0,0,0,609.57435,278.1718Z" transform="translate(-88.02385 -86.20647)"/><path d="M473.714,553.06975a49.35578,49.35578,0,0,1-19.10547-8.71093c-15.3667-11.49219-24.61621-31.56934-25.37793-55.084l8.99511-.291c.6626,20.46093,8.80225,38.46679,21.77295,48.168a40.3022,40.3022,0,0,0,15.59522,7.11719Z" transform="translate(-88.02385 -86.20647)"/><path d="M450.03284,488.91741l-8.84472-1.66211a92.73322,92.73322,0,0,0-4.32373-48.70508c-6.00879-16.17871-16.09815-29.62988-29.17823-38.89941l5.2041-7.34375C442.07923,412.99456,457.0055,451.81975,450.03284,488.91741Z" transform="translate(-88.02385 -86.20647)"/><path d="M219.58167,427.9428a119.34648,119.34648,0,0,1-79.21631-29.74414l-7.15869-6.25293,9.374-1.57324a269.477,269.477,0,0,0,86.42139-30.17774,11.466,11.466,0,0,1,14.19287,2.35059,54.931,54.931,0,0,1,13.14063,26.56836,54.16956,54.16956,0,0,1-1.01709,24.14453,17.71417,17.71417,0,0,1-13.97949,12.793A126.25457,126.25457,0,0,1,219.58167,427.9428Zm-65.79394-30.50195a110.4869,110.4869,0,0,0,29.19238,15.38769,113.71734,113.71734,0,0,0,56.80176,4.3584,8.68171,8.68171,0,0,0,6.84716-6.27246h0a45.2432,45.2432,0,0,0,.85694-20.16406,45.94636,45.94636,0,0,0-10.99756-22.2041,2.51673,2.51673,0,0,0-3.11865-.48243,278.24054,278.24054,0,0,1-79.582,29.377Z" transform="translate(-88.02385 -86.20647)"/><path d="M427.255,215.52678a4.4912,4.4912,0,0,1-3.57178-1.75781c-27.18164-35.37207-69.04687-58.06054-114.86084-62.24853-47.9707-4.38135-95.36914,12.09717-133.46,46.40967a4.49976,4.49976,0,0,1-6.02343-6.68653c39.97509-36.01123,89.80126-53.29834,140.30273-48.68555,48.30469,4.415,92.47217,28.37159,121.17822,65.72657a4.49993,4.49993,0,0,1-3.56494,7.24218Z" transform="translate(-88.02385 -86.20647)"/><circle class="cls-17" cx="505.30528" cy="234.64712" r="9.99537"/><path d="M593.32923,335.34905a14.49561,14.49561,0,1,1,14.49512-14.49512A14.51221,14.51221,0,0,1,593.32923,335.34905Zm0-19.99121a5.49561,5.49561,0,1,0,5.49512,5.49609A5.50227,5.50227,0,0,0,593.32923,315.35784Z" transform="translate(-88.02385 -86.20647)"/></svg>