<svg style="white-space: pre;" shape-rendering="geometricPrecision" text-rendering="geometricPrecision" viewBox="0 0 970 250" xmlns="http://www.w3.org/2000/svg">
    <style>
@keyframes a0_t { 0% { transform: translate(0px,0px); } 100% { transform: translate(-797px,0.000002px); } }
@keyframes a1_t { 0% { transform: translate(-209.121977px,0px); } 20% { transform: translate(-209.121977px,0px); animation-timing-function: cubic-bezier(0.645,0.045,0.355,1); } 30% { transform: translate(-9.121977px,0px); animation-timing-function: cubic-bezier(0.645,0.045,0.355,1); } 70% { transform: translate(-9.121948px,-0.000047px); animation-timing-function: cubic-bezier(0.645,0.045,0.355,1); } 80% { transform: translate(190.878023px,0px); } 100% { transform: translate(190.878023px,0px); } }
@keyframes cyan_o { 0% { opacity: 1; animation-timing-function: cubic-bezier(0.42,0,0.58,1); } 5% { opacity: 0; } 30% { opacity: 0; animation-timing-function: cubic-bezier(0.42,0,0.58,1); } 35% { opacity: 1; } 60% { opacity: 1; animation-timing-function: cubic-bezier(0.42,0,0.58,1); } 65% { opacity: 0; } 90% { opacity: 0; animation-timing-function: cubic-bezier(0.42,0,0.58,1); } 95% { opacity: 1; } 100% { opacity: 1; } }
@keyframes magenta_o { 0% { opacity: 1; } 5% { opacity: 1; animation-timing-function: cubic-bezier(0.42,0,0.58,1); } 10% { opacity: 0; } 35% { opacity: 0; animation-timing-function: cubic-bezier(0.42,0,0.58,1); } 40% { opacity: 1; } 65% { opacity: 1; animation-timing-function: cubic-bezier(0.42,0,0.58,1); } 70% { opacity: 0; } 95% { opacity: 0; animation-timing-function: cubic-bezier(0.42,0,0.58,1); } 100% { opacity: 1; } }
@keyframes light_o { 0% { opacity: 1; animation-timing-function: cubic-bezier(0.42,0,0.58,1); } 10% { opacity: 0; animation-timing-function: cubic-bezier(0.42,0,0.58,1); } 20% { opacity: 1; animation-timing-function: cubic-bezier(0.42,0,0.58,1); } 30% { opacity: 0; animation-timing-function: cubic-bezier(0.42,0,0.58,1); } 40% { opacity: 1; animation-timing-function: cubic-bezier(0.42,0,0.58,1); } 50% { opacity: 0; animation-timing-function: cubic-bezier(0.42,0,0.58,1); } 60% { opacity: 1; animation-timing-function: cubic-bezier(0.42,0,0.58,1); } 70% { opacity: 0; animation-timing-function: cubic-bezier(0.42,0,0.58,1); } 80% { opacity: 1; animation-timing-function: cubic-bezier(0.42,0,0.58,1); } 90% { opacity: 0; animation-timing-function: cubic-bezier(0.42,0,0.58,1); } 100% { opacity: 1; } }
    </style>
    <defs>
        <filter color-interpolation-filters="sRGB" height="256%" width="256%" y="-52%" x="-52%" id="Filter-0">
            <feGaussianBlur stdDeviation="1"></feGaussianBlur>
        </filter>
        <filter color-interpolation-filters="sRGB" height="256%" width="256%" y="-52%" x="-52%" id="Filter-1">
            <feGaussianBlur stdDeviation="1"></feGaussianBlur>
        </filter>
        <filter color-interpolation-filters="sRGB" height="304%" width="304%" y="-68%" x="-68%" id="Filter-2">
            <feGaussianBlur stdDeviation="5"></feGaussianBlur>
        </filter>
        <filter color-interpolation-filters="sRGB" height="385%" width="385%" y="-95%" x="-95%" id="Filter-3">
            <feGaussianBlur stdDeviation="4"></feGaussianBlur>
        </filter>
        <linearGradient gradientUnits="userSpaceOnUse" y2="125.593" x2="827.774" y1="-7.3032" x1="813.696" id="Gradient-0">
            <stop stop-color="#ffffff" offset="0"></stop>
            <stop stop-color="#ffffff" offset="0"></stop>
            <stop stop-color="#fef1f6" offset="0.1067"></stop>
            <stop stop-color="#fbccdf" offset="0.3084"></stop>
            <stop stop-color="#f690ba" offset="0.584"></stop>
            <stop stop-color="#f03f88" offset="0.9196"></stop>
            <stop stop-color="#ee2a7b" offset="1"></stop>
        </linearGradient>
        <linearGradient gradientUnits="userSpaceOnUse" y2="42.9037" x2="822.295" y1="117.935" x1="827.699" id="Gradient-1">
            <stop stop-color="#ffffff" offset="0"></stop>
            <stop stop-color="#ec008c" offset="0"></stop>
            <stop stop-color="#d5088d" offset="0.095833"></stop>
            <stop stop-color="#ae158e" offset="0.29"></stop>
            <stop stop-color="#8e1f8f" offset="0.4812"></stop>
            <stop stop-color="#782790" offset="0.6662"></stop>
            <stop stop-color="#6b2b91" offset="0.8423"></stop>
            <stop stop-color="#662d91" offset="1"></stop>
        </linearGradient>
        <linearGradient gradientUnits="userSpaceOnUse" y2="128.166" x2="803.488" y1="-4.7305" x1="789.41" id="Gradient-2">
            <stop stop-color="#ffffff" offset="0"></stop>
            <stop stop-color="#ffffff" offset="0"></stop>
            <stop stop-color="#fef1f6" offset="0.1067"></stop>
            <stop stop-color="#fbccdf" offset="0.3084"></stop>
            <stop stop-color="#f690ba" offset="0.584"></stop>
            <stop stop-color="#f03f88" offset="0.9196"></stop>
            <stop stop-color="#ee2a7b" offset="1"></stop>
        </linearGradient>
        <linearGradient gradientUnits="userSpaceOnUse" y2="128.166" x2="803.488" y1="3.00707" x1="792.935" id="Gradient-3">
            <stop stop-color="#ffffff" offset="0"></stop>
            <stop stop-color="#ffffff" offset="0"></stop>
            <stop stop-color="#fef1f6" offset="0.1067"></stop>
            <stop stop-color="#fbccdf" offset="0.3084"></stop>
            <stop stop-color="#f690ba" offset="0.584"></stop>
            <stop stop-color="#f03f88" offset="0.9196"></stop>
            <stop stop-color="#ee2a7b" offset="1"></stop>
        </linearGradient>
        <linearGradient gradientUnits="userSpaceOnUse" y2="128.166" x2="803.488" y1="3.28094" x1="790.723" id="Gradient-4">
            <stop stop-color="#ffffff" offset="0"></stop>
            <stop stop-color="#ffffff" offset="0"></stop>
            <stop stop-color="#fef1f6" offset="0.1067"></stop>
            <stop stop-color="#fbccdf" offset="0.3084"></stop>
            <stop stop-color="#f690ba" offset="0.584"></stop>
            <stop stop-color="#f03f88" offset="0.9196"></stop>
            <stop stop-color="#ee2a7b" offset="1"></stop>
        </linearGradient>
        <linearGradient gradientUnits="userSpaceOnUse" y2="128.166" x2="803.488" y1="1.63464" x1="790.254" id="Gradient-5">
            <stop stop-color="#ffffff" offset="0"></stop>
            <stop stop-color="#ffffff" offset="0"></stop>
            <stop stop-color="#fef1f6" offset="0.1067"></stop>
            <stop stop-color="#fbccdf" offset="0.3084"></stop>
            <stop stop-color="#f690ba" offset="0.584"></stop>
            <stop stop-color="#f03f88" offset="0.9196"></stop>
            <stop stop-color="#ee2a7b" offset="1"></stop>
        </linearGradient>
        <linearGradient gradientUnits="userSpaceOnUse" y2="42.9037" x2="822.295" y1="117.935" x1="827.699" id="Gradient-6">
            <stop stop-color="#ffffff" offset="0"></stop>
            <stop stop-color="#ec008c" offset="0"></stop>
            <stop stop-color="#d5088d" offset="0.095833"></stop>
            <stop stop-color="#ae158e" offset="0.29"></stop>
            <stop stop-color="#8e1f8f" offset="0.4812"></stop>
            <stop stop-color="#782790" offset="0.6662"></stop>
            <stop stop-color="#6b2b91" offset="0.8423"></stop>
            <stop stop-color="#662d91" offset="1"></stop>
        </linearGradient>
        <clipPath id="ClipPath-1">
            <path transform="translate(-160.8,-39.6)" fill="#332452" d="M907.4,168.7L24,168.7C11.6,168.7,1.5,158.6,1.5,146.2L1.5,62.1C1.5,49.7,11.6,39.6,24,39.6L907.4,39.6C919.8,39.6,929.9,49.7,929.9,62.1L929.9,146.2C929.9,158.6,919.8,168.7,907.4,168.7Z" class="st1" id="background-2"></path>
        </clipPath>
        <clipPath id="ClipPath-2">
            <path transform="translate(-769.4,-29.4)" fill="url(#Gradient-6)" d="M886.766,44.2227C865.866,42.9227,842.9,45.8,819.4,49.1C797.8,52.2,777.3,60.6,759.8,73.7C756.3,76.3,751.719,79.4595,748.319,82.0595L750.025,101.047C796.825,84.7473,851.061,81.5746,899.961,88.6746C885.3,81.1974,886.361,77.3153,885.666,68.7403C885.117,61.9623,885.052,47.6513,886.766,44.2227Z" class="st7"></path>
        </clipPath>
    </defs>
    <g transform="translate(19.3,17.3597)" id="cable">
        <path fill="#746D99" stroke-miterlimit="10" stroke="#14142B" stroke-width="3" d="M156.6,143.2C161,176.1,135.1,203.7,107.3,203.5C80,203.2,54.8,176.1,58.9,143.7L63.1,142.5C59.4,173.1,82.4,198.8,107.3,199C132.7,199.2,156.4,173.2,152.4,142L156.6,143.2Z" class="st0"></path>
        <path fill="#746D99" stroke-miterlimit="10" stroke="#14142B" stroke-width="3" d="M17.9,154.3C13.8,186.7,39,213.9,66.3,214.1C94.1,214.4,120,186.8,115.6,153.8L111.4,152.7C115.4,183.8,91.7,209.9,66.3,209.7C41.3,209.5,18.3,183.8,22.1,153.2L17.9,154.3Z" class="st0"></path>
    </g>
    <path transform="translate(19.3,17.3597)" fill="#482c90" d="M907.4,168.7L24,168.7C11.6,168.7,1.5,158.6,1.5,146.2L1.5,62.1C1.5,49.7,11.6,39.6,24,39.6L907.4,39.6C919.8,39.6,929.9,49.7,929.9,62.1L929.9,146.2C929.9,158.6,919.8,168.7,907.4,168.7Z" class="st1" id="background"></path>
    <g transform="translate(899.626,121.31) translate(-719.526,-64.35)" clip-path="url(#ClipPath-1)" id="pattern">
        <g style="animation: 10s linear infinite both a0_t;" transform="translate(719.526,64.35) translate(-719.526,-64.35)">
            <g transform="translate(-160.8,-39.6)">
                <path opacity="0.37" fill="none" stroke-miterlimit="10" stroke="#161638" stroke-width="3" d="M160.8,39.6L160.8,69.8L187.2,69.8L187.2,92.3" class="st2"></path>
                <path opacity="0.37" fill="none" stroke-miterlimit="10" stroke="#161638" stroke-width="3" d="M273.4,92.3L273.4,145.2L299.9,145.2L299.9,167.8" class="st2"></path>
                <path opacity="0.37" fill="none" stroke-miterlimit="10" stroke="#161638" stroke-width="3" d="M527.6,39.6L527.6,69.8L501.2,69.8L501.2,92.3" class="st2"></path>
                <path opacity="0.37" fill="none" stroke-miterlimit="10" stroke="#161638" stroke-width="3" d="M514.4,124.8L514.4,168.3" class="st2"></path>
                <path opacity="0.37" fill="none" stroke-miterlimit="10" stroke="#161638" stroke-width="3" d="M654.3,39.6L654.3,60.7L627.8,60.7L627.8,95.5" class="st2"></path>
                <path opacity="0.37" fill="none" stroke-miterlimit="10" stroke="#161638" stroke-width="3" d="M803.4,144.6L721.5,144.6L721.5,118.1L686.6,118.1" class="st2"></path>
                <path fill="#161638" d="M171.3,64.4L171.3,64.4C169.9,64.4,168.8,63.3,168.8,61.9L168.8,61.9C168.8,60.5,169.9,59.4,171.3,59.4L171.3,59.4C172.7,59.4,173.8,60.5,173.8,61.9L173.8,61.9C173.8,63.2,172.7,64.4,171.3,64.4Z" class="st3"></path>
                <path fill="#161638" d="M172.9,79.1L172.9,79.1C171.8,80,170.3,79.9,169.4,78.8L169.4,78.8C168.5,77.7,168.6,76.2,169.7,75.3L169.7,75.3C170.8,74.4,172.3,74.5,173.2,75.6L173.2,75.6C174.1,76.6,174,78.2,172.9,79.1Z" class="st3"></path>
                <path fill="#161638" d="M288,139.6L288,139.6C286.6,139.6,285.5,138.5,285.5,137.1L285.5,137.1C285.5,135.7,286.6,134.6,288,134.6L288,134.6C289.4,134.6,290.5,135.7,290.5,137.1L290.5,137.1C290.5,138.5,289.4,139.6,288,139.6Z" class="st3"></path>
                <path fill="#161638" d="M289.6,154.3L289.6,154.3C288.5,155.2,287,155.1,286.1,154L286.1,154C285.2,152.9,285.3,151.4,286.4,150.5L286.4,150.5C287.5,149.6,289,149.7,289.9,150.8L289.9,150.8C290.8,151.9,290.7,153.4,289.6,154.3Z" class="st3"></path>
                <path fill="#161638" d="M534.4,51.7L534.4,51.7C534.4,50.3,535.5,49.2,536.9,49.2L536.9,49.2C538.3,49.2,539.4,50.3,539.4,51.7L539.4,51.7C539.4,53.1,538.3,54.2,536.9,54.2L536.9,54.2C535.5,54.2,534.4,53.1,534.4,51.7Z" class="st3"></path>
                <path fill="#161638" d="M519.7,53.3L519.7,53.3C518.8,52.2,518.9,50.7,520,49.8L520,49.8C521.1,48.9,522.6,49,523.5,50.1L523.5,50.1C524.4,51.2,524.3,52.7,523.2,53.6L523.2,53.6C522.2,54.5,520.6,54.4,519.7,53.3Z" class="st3"></path>
                <path fill="#161638" d="M728.1,129.7L728.1,129.7C728.1,128.3,729.2,127.2,730.6,127.2L730.6,127.2C732,127.2,733.1,128.3,733.1,129.7L733.1,129.7C733.1,131.1,732,132.2,730.6,132.2L730.6,132.2C729.3,132.2,728.1,131,728.1,129.7Z" class="st3"></path>
                <path fill="#161638" d="M713.4,131.3L713.4,131.3C712.5,130.2,712.6,128.7,713.7,127.8L713.7,127.8C714.8,126.9,716.3,127,717.2,128.1L717.2,128.1C718.1,129.2,718,130.7,716.9,131.6L716.9,131.6C715.9,132.5,714.3,132.3,713.4,131.3Z" class="st3"></path>
            </g>
            <g transform="translate(635.653,-39.6)">
                <path opacity="0.37" fill="none" stroke-miterlimit="10" stroke="#161638" stroke-width="3" d="M273.4,92.3L273.4,145.2L299.9,145.2L299.9,167.8" class="st2"></path>
                <path opacity="0.37" fill="none" stroke-miterlimit="10" stroke="#161638" stroke-width="3" d="M527.6,39.6L527.6,69.8L501.2,69.8L501.2,92.3" class="st2"></path>
                <path opacity="0.37" fill="none" stroke-miterlimit="10" stroke="#161638" stroke-width="3" d="M514.4,124.8L514.4,168.3" class="st2"></path>
                <path opacity="0.37" fill="none" stroke-miterlimit="10" stroke="#161638" stroke-width="3" d="M654.3,39.6L654.3,60.7L627.8,60.7L627.8,95.5" class="st2"></path>
                <path opacity="0.37" fill="none" stroke-miterlimit="10" stroke="#161638" stroke-width="3" d="M803.4,144.6L721.5,144.6L721.5,118.1L686.6,118.1" class="st2"></path>
                <path fill="#161638" d="M171.3,64.4L171.3,64.4C169.9,64.4,168.8,63.3,168.8,61.9L168.8,61.9C168.8,60.5,169.9,59.4,171.3,59.4L171.3,59.4C172.7,59.4,173.8,60.5,173.8,61.9L173.8,61.9C173.8,63.2,172.7,64.4,171.3,64.4Z" class="st3"></path>
                <path fill="#161638" d="M172.9,79.1L172.9,79.1C171.8,80,170.3,79.9,169.4,78.8L169.4,78.8C168.5,77.7,168.6,76.2,169.7,75.3L169.7,75.3C170.8,74.4,172.3,74.5,173.2,75.6L173.2,75.6C174.1,76.6,174,78.2,172.9,79.1Z" class="st3"></path>
                <path fill="#161638" d="M288,139.6L288,139.6C286.6,139.6,285.5,138.5,285.5,137.1L285.5,137.1C285.5,135.7,286.6,134.6,288,134.6L288,134.6C289.4,134.6,290.5,135.7,290.5,137.1L290.5,137.1C290.5,138.5,289.4,139.6,288,139.6Z" class="st3"></path>
                <path fill="#161638" d="M289.6,154.3L289.6,154.3C288.5,155.2,287,155.1,286.1,154L286.1,154C285.2,152.9,285.3,151.4,286.4,150.5L286.4,150.5C287.5,149.6,289,149.7,289.9,150.8L289.9,150.8C290.8,151.9,290.7,153.4,289.6,154.3Z" class="st3"></path>
                <path fill="#161638" d="M534.4,51.7L534.4,51.7C534.4,50.3,535.5,49.2,536.9,49.2L536.9,49.2C538.3,49.2,539.4,50.3,539.4,51.7L539.4,51.7C539.4,53.1,538.3,54.2,536.9,54.2L536.9,54.2C535.5,54.2,534.4,53.1,534.4,51.7Z" class="st3"></path>
                <path fill="#161638" d="M519.7,53.3L519.7,53.3C518.8,52.2,518.9,50.7,520,49.8L520,49.8C521.1,48.9,522.6,49,523.5,50.1L523.5,50.1C524.4,51.2,524.3,52.7,523.2,53.6L523.2,53.6C522.2,54.5,520.6,54.4,519.7,53.3Z" class="st3"></path>
                <path fill="#161638" d="M728.1,129.7L728.1,129.7C728.1,128.3,729.2,127.2,730.6,127.2L730.6,127.2C732,127.2,733.1,128.3,733.1,129.7L733.1,129.7C733.1,131.1,732,132.2,730.6,132.2L730.6,132.2C729.3,132.2,728.1,131,728.1,129.7Z" class="st3"></path>
                <path fill="#161638" d="M713.4,131.3L713.4,131.3C712.5,130.2,712.6,128.7,713.7,127.8L713.7,127.8C714.8,126.9,716.3,127,717.2,128.1L717.2,128.1C718.1,129.2,718,130.7,716.9,131.6L716.9,131.6C715.9,132.5,714.3,132.3,713.4,131.3Z" class="st3"></path>
            </g>
        </g>
    </g>
    <g transform="translate(19.3,17.3597)" id="penguin">
        <path fill="#534E7A" d="M884.9,168.7C883.2,154.8,881.5,140.9,879.7,127C858.8,125.4,833.7,125.3,805.7,128.8C789.4,130.8,774.5,133.7,761.2,137.1C762.5,147.7,763.8,158.2,765.1,168.8L884.9,168.8Z" class="st4"></path>
        <path fill="#746D99" d="M884.9,168.7C884.6,166.3,884.3,163.9,884,161.5C865.6,165.3,841.5,167.2,814.6,161C792,155.8,774.1,146.6,761.4,138.2C762.7,148.4,763.9,158.6,765.2,168.7L884.9,168.7Z" class="st5"></path>
        <path fill="url(#Gradient-0)" d="M888.6,44.3C857.5,42.4,815.8,43.9,784.2,48.3C771.9,57.5,759.6,66.6,747.3,75.8L749.3,101.6C796.1,85.3,850.7,80.1,899.6,87.2C896,72.9,892.3,58.6,888.6,44.3Z" class="st6"></path>
        <path fill="url(#Gradient-1)" d="M888.6,44.3C867.7,43,856.442,45.4282,819.4,50.1C782.358,54.7718,752.8,78.9,749.4,81.5L751.4,107.3C798.2,91,852.8,85.8,901.7,92.9C897.9,78.6,892.3,58.6,888.6,44.3Z" class="st7"></path>
        <path fill="#E94043" d="M787.5,31.9C786.7,31,785.3,29.8,783.4,28.7C780.2,26.9,775.2,25.6,764.1,28.6C757.7,30.3,749,32.6,740,39.3C721.8,53,717.3,73.7,716.2,79.5C716.2,82.9,716.6,99.4,729.6,112.8C741.3,124.9,755.6,126.7,759.4,127.1C759.2,117.7,759,108.4,758.8,99L748.4,102.5L747.3,75.8L785.7,47C786.5,46.2,788.6,43.6,789.1,39.6C789.5,35.8,788,32.9,787.5,31.9Z" class="st8"></path>
        <g transform="translate(797.4,71.05) translate(-28,-41.65)" clip-path="url(#ClipPath-2)">
            <g style="animation: 10s linear infinite both a1_t;" transform="translate(-111.899,41.7835) translate(-97.2234,-41.7835)">
                <g transform="translate(217.223,41.7835) translate(-47.8985,-41.7835)">
                    <path transform="translate(-729.603,-29.4)" fill="url(#Gradient-2)" d="M792.4,112.7L769.4,102.3L802.5,29.4L825.4,39.8Z" class="st9"></path>
                    <path transform="translate(-769.4,-29.1329)" fill="url(#Gradient-3)" d="M792.4,112.7L769.4,102.3L802.5,29.4L825.4,39.8Z" class="st9"></path>
                </g>
                <g transform="translate(17.2234,41.7835) translate(-47.8985,-41.7835)">
                    <path transform="translate(-729.603,-29.4)" fill="url(#Gradient-2)" d="M792.4,112.7L769.4,102.3L802.5,29.4L825.4,39.8Z" class="st9"></path>
                    <path transform="translate(-769.4,-29.1329)" fill="url(#Gradient-4)" d="M792.4,112.7L769.4,102.3L802.5,29.4L825.4,39.8Z" class="st9"></path>
                </g>
                <g transform="translate(-182.777,41.7835) translate(-47.8985,-41.7835)">
                    <path transform="translate(-729.603,-29.4)" fill="url(#Gradient-2)" d="M792.4,112.7L769.4,102.3L802.5,29.4L825.4,39.8Z" class="st9"></path>
                    <path transform="translate(-769.4,-29.1329)" fill="url(#Gradient-5)" d="M792.4,112.7L769.4,102.3L802.5,29.4L825.4,39.8Z" class="st9"></path>
                </g>
            </g>
        </g>
        <path fill="#C63158" d="M785.2,30.1C785.2,30.1,784.9,29.1,782.5,28.1C775,25,767.1,27.3,762.1,29C755.6,31.3,745,35.9,732.9,45.6C729.2,49.1,722,56.7,718.5,68.7C716.5,75.5,716.4,81.5,716.6,85.7C720.4,75.9,728,59.9,747.3,44.9C767.4,29.2,785.2,30.1,785.2,30.1Z" class="st11"></path>
        <path fill="#534E7A" d="M784.2,48.3C800.7,45.4,819.7,43,841,42.4C858,41.9,873.7,42.5,887.7,43.7C888.3,42.6,890.1,39.8,893.6,38.1C896.1,36.9,898.4,36.8,899.7,36.8C895.3,30.2,881.3,11.5,855.9,4.1C812,-8.7,776,24.6,774.3,26.3C775.2,26.2,780.9,25.8,785.3,30.1C788,32.7,788.9,35.8,789.1,37.2C789.2,38.3,789.3,40.6,788.3,43.2C787,46,785.1,47.6,784.2,48.3Z" class="st4"></path>
        <path fill="#534E7A" d="M917,39.6L910.2,37.1L896,37.8L887.7,45.4L886.7,75.8L895.7,86.8L912,86.8L920.6,79.9L922.1,52.8L919.5,42Z" class="st4"></path>
        <path fill="#746D99" d="M916.2,39C887.8,26.2,885.2,69.7,897,84.1C903.5,90.3,919.4,87,920.8,77.3C920.3,67.8,925.9,45.2,916.2,39Z" class="st5"></path>
        <path fill="#534E7A" d="M916.4,37.9L920.3,41.2L924,28.7L923.9,26.1L922.1,26.7Z" class="st4"></path>
        <rect transform="translate(0,0) translate(899.6,51.9)" fill="#534E7A" height="5.1" width="8.5" class="st4"></rect>
        <rect transform="translate(0,0) translate(910.1,51.9)" fill="#534E7A" height="5.1" width="4.2" class="st4"></rect>
        <rect transform="translate(0,0) translate(900.5,64.9)" fill="#534E7A" height="3.3" width="7.4" class="st4"></rect>
        <rect transform="translate(0,0) translate(909.8,64.9)" stroke="none" fill="#534e7a" height="3.3" width="3.7" class="st12"></rect>
        <rect transform="translate(0,0) translate(906.5,64.9)" stroke="none" fill="#534e7a" height="3.3" width="3.7" class="st13"></rect>
        <path fill="#534E7A" d="M920.6,64C920.6,73.7,913.2,81.5,904.1,81.5C899.9,81.5,896.1,79.8,893.2,77.1C894.2,79.8,895.5,82.2,897.1,84.1C903.6,90.3,919.5,87,920.9,77.3" class="st4"></path>
        <path fill="#746D99" d="M841,42.4C858,41.9,873.7,42.5,887.7,43.7C888.3,42.6,890,40,893.3,38.3C886.2,30,873.8,18.5,855.2,13.1C823.6,3.9,796.1,18.6,782.5,28.1C783.4,28.6,784.3,29.3,785.2,30.1C787.9,32.7,788.8,35.8,789,37.2C789.1,38.3,789.2,40.6,788.2,43.2C788.1,43.5,787.9,43.8,787.8,44.1C788.1,44.9,788.3,45.7,788.4,46.1C788.4,46.5,788.5,47,788.5,47.7C803.9,45,821.6,43,841,42.4Z" class="st5"></path>
        <path fill="none" stroke-miterlimit="10" stroke="#534E7A" stroke-width="4" stroke-linecap="round" d="M825.5,2.4C822.1,5.5,816.4,11.5,812.4,20.6C808.2,30.1,807.8,38.7,807.9,43.4" class="st14"></path>
        <path fill="none" stroke-miterlimit="10" stroke="#534E7A" stroke-width="4" stroke-linecap="round" d="M816.7,18.7L853.2,18C852,21.1,850.9,24.6,850,28.5C848.8,33.7,848.3,38.5,848.1,42.6" class="st14"></path>
        <path fill="#FFFFFF" d="M873.3,84.9C853.8,83.6,829.4,83.8,801.9,88.5C785.8,91.2,771.4,95,758.8,99.1C759,111.7,759.2,124.2,759.4,136.8C775.4,132.7,794.5,128.9,816.2,127C840.4,124.8,861.9,125.4,879.7,127C877.5,112.9,875.4,98.9,873.3,84.9Z" class="st15"></path>
        <path fill="#C63158" d="M816.4,78.7L776,67.3L778,75.8L796.3,95.1L809.5,100.9C814.2,100.4,818.3,97.5,820.1,93.3C822,88.3,820.6,82.4,816.4,78.7Z" class="st11"></path>
        <path fill="#E94043" d="M872.3,84.7C875.4,101.2,878.4,117.8,881.5,134.3C874.3,135.2,868.4,136.4,864.3,137.4C847.8,141.3,839.3,146.1,837.1,147.3C829.8,151.5,827.2,154.6,825.9,156.5C822.6,161.1,821.5,165.8,821.1,168.6C822.8,171,824.4,173.4,826.1,175.8L834.4,177.9L870.1,170.7L895.6,170.5C900.2,168.6,904.8,166.7,909.4,164.8C911.4,156,913.1,145,913.2,132.4C913.4,113.6,910.2,98,906.9,86.8C895.4,86.1,883.8,85.4,872.3,84.7Z" class="st8"></path>
        <path fill="#E94043" d="M813.9,84L777.5,73.7L778,75.8L796.3,95.1L809.5,100.9C813,100.6,816.1,98.9,818.2,96.3C819,91.9,817.5,87.2,813.9,84Z" class="st8"></path>
        <path fill="#C63158" d="M908.5,92.9C909.3,105.4,909.4,134.7,891.1,147.9C888.7,149.6,884.8,152,868.3,156.3C849.7,161.2,834.1,163.7,823.3,165L821.2,168.7C821.6,169.9,822.7,172.5,825.4,174.8C828.1,177.1,830.9,177.8,832.2,178C843.5,175.5,856.3,173.2,870.3,171.8C881.4,170.7,891.8,170.2,901.4,170.1C902.6,169.4,903.7,168.8,904.9,168.1C913.3,157.1,912.3,145.5,913.4,131.3L908.5,92.9Z" class="st11"></path>
        <g>
            <path fill="none" stroke-miterlimit="10" stroke="#14142B" stroke-width="3" stroke-linecap="round" d="M885.5,134.4C868.6,133.8,852.3,138.1,838,146.8C824.6,153.2,814.6,170.5,827.2,176.5C829.9,177.8,833.1,178.1,836.1,177.7C846.9,176.2,857.3,173.1,868.1,171.7C879.4,170.1,891.4,172.7,902.1,169C905.2,167.9,907.6,165.7,909.1,162.8C919.3,142,910.2,108,907.5,87.2" class="st16"></path>
            <path fill="none" stroke-miterlimit="10" stroke="#14142B" stroke-width="3" d="M873.3,84.9C874.9,107,877.7,120.7,881.6,134.3" class="st17"></path>
            <path fill="none" stroke-miterlimit="10" stroke="#14142B" stroke-width="3" d="M746.2,77.2C756.1,69.6,766.3,62.1,776.7,54.9C784,49.7,791.8,42.4,788.1,33.1C786.5,30,783.4,27.9,779.8,27.4C762.6,26.4,746.5,33.1,733.5,44.6C731.4,46.7,729.9,48.8,728.3,50.8C715.8,64.8,712.2,84.6,721,101.7C728.8,115.7,742.8,125.6,758.7,127.3" class="st17"></path>
            <path fill="none" stroke-miterlimit="10" stroke="#14142B" stroke-width="3" d="M773.4,27.1C786.8,13.1,804.5,4.4,823.7,2.1C843.1,-0.2,863.2,3.9,879.4,15.3C887.5,20.9,894.3,28.3,898.7,37.2" class="st17"></path>
            <path fill="none" stroke-miterlimit="10" stroke="#14142B" stroke-width="3" d="M790.8,90C774.5,93.2,761,97.4,749.3,101.6C748.2,96.5,747,82.9,746.8,75.8" class="st17"></path>
            <path fill="none" stroke-miterlimit="10" stroke="#14142B" stroke-width="3" d="M899.9,87C878.4,84.4,851.2,83.1,821.6,85.5C820.7,85.6,820.7,85.6,819.7,85.7" class="st17"></path>
            <path fill="none" stroke-miterlimit="10" stroke="#14142B" stroke-width="3" d="M783.5,49.1C809.5,42.4,857,42,889,43.7" class="st17"></path>
            <path fill="none" stroke-miterlimit="10" stroke="#14142B" stroke-width="3" d="M815.8,78.1C802.5,74.5,789.2,70.9,775.9,67.3C775.2,67.1,774.6,67.8,774.9,68.4C777.1,73.5,781.4,81.6,789.5,88.9C797.5,96.2,805.6,99.6,810.5,101.3C811.9,100.9,815.9,99.5,818.3,95.7C821.5,90.7,820.6,83.5,815.8,78.1Z" class="st17"></path>
            <path fill="none" stroke-miterlimit="10" stroke="#14142B" stroke-width="3" d="M827.6,1.8C818.7,9.7,813.3,21.3,811.4,32.8C810.7,36.8,810.5,40.8,810.4,44.8" class="st17"></path>
            <path fill="none" stroke-miterlimit="10" stroke="#14142B" stroke-width="3" d="M814.8,20C827.6,19.7,840.3,19.4,853.1,19.2C850.1,26.7,848.7,34.8,849,42.8" class="st17"></path>
            <path fill="none" stroke-miterlimit="10" stroke="#14142B" stroke-width="3" d="M908.1,87.3L904.9,87.2C897.5,87.1,891.6,81,891.7,73.6L892.1,49.8C892.2,42.4,898.3,36.5,905.7,36.6L908.9,36.7C916.3,36.8,922.2,42.9,922.1,50.3L921.7,74.1C921.6,81.5,915.5,87.4,908.1,87.3Z" class="st17"></path>
            <path fill="none" stroke-miterlimit="10" stroke="#14142B" stroke-width="3" d="M905.5,87.2L901.7,87.1C892.9,86.9,885.9,79.7,886,70.9L886.3,52.2C886.5,43.4,893.7,36.4,902.5,36.5L906.3,36.6C915.1,36.8,922.1,44,922,52.8L921.7,71.5C921.6,80.4,914.3,87.4,905.5,87.2Z" class="st17"></path>
            <path fill="none" stroke-miterlimit="10" stroke="#14142B" stroke-width="3" d="M916.4,38.4L920.7,27.3C921.2,26.3,922.2,25.5,923.8,26.1C924.8,26.6,924.9,27.9,924.9,28.9L919.5,42" class="st17"></path>
        </g>
        <g>
            <path fill="none" stroke-miterlimit="10" stroke="#534E7A" stroke-width="3" d="M777.2,135.1C777.6,141.5,778.4,148.7,779.8,156.4C781.4,165.1,782.6,168.3,782.6,168.3" class="st20"></path>
            <path fill="none" stroke-miterlimit="10" stroke="#14142B" stroke-width="3" d="M778,132.4C778.4,139.1,779.2,146.5,780.6,154.5C781.8,162.7,782,163.6,783.8,168.3" class="st17"></path>
            <path fill="none" stroke-miterlimit="10" stroke="#14142B" stroke-width="3" d="M765.4,168.1C765.4,168.1,764.3,165.5,763.8,163.2C759,140.3,758.9,121.6,759.1,98.3" class="st17"></path>
            <path fill="#534E7A" d="M787.6,165.7L787.6,165.7C786.6,165.9,785.6,165.2,785.4,164.1L785.4,164.1C785.2,163.1,785.9,162.1,787,161.9L787,161.9C788,161.7,789,162.4,789.2,163.5L789.2,163.5C789.3,164.5,788.6,165.5,787.6,165.7Z" class="st4"></path>
            <path fill="#534E7A" d="M775.1,160.2L775.1,160.2C774.1,160.4,773.1,159.7,772.9,158.6L772.9,158.6C772.7,157.6,773.4,156.6,774.5,156.4L774.5,156.4C775.5,156.2,776.5,156.9,776.7,158L776.7,158C776.9,159,776.2,160,775.1,160.2Z" class="st4"></path>
            <path fill="none" stroke-miterlimit="10" stroke="#14142B" stroke-width="3" d="M759.7,136.4C776,132.3,795.6,128.6,818,126.7C843.3,124.5,861.6,124.9,879.9,126.6" class="st17"></path>
        </g>
        <g style="animation: 10s linear infinite both cyan_o;" transform="translate(912.865,66.45) translate(-3.85,-3.85)" opacity="1" id="cyan">
            <path transform="translate(-908.1,-62.6)" filter="url(#Filter-0)" opacity="0" fill="#00EDFF" d="M912.1,70.3L911.8,70.3C909.8,70.3,908.1,68.7,908.1,66.6L908.1,66.3C908.1,64.3,909.7,62.6,911.8,62.6L912.1,62.6C914.1,62.6,915.8,64.2,915.8,66.3L915.8,66.6C915.7,68.7,914.1,70.3,912.1,70.3Z" class="st18"></path>
            <path transform="translate(-908.053,-61.8943)" opacity="0" fill="#00EDFF" d="M911.901,67.4886L911.901,67.4886C910.924,67.4886,910.157,66.7211,910.157,65.7443L910.157,65.7443C910.157,64.7675,910.924,64,911.901,64L911.901,64C912.878,64,913.645,64.7675,913.645,65.7443L913.645,65.7443C913.715,66.7211,912.878,67.4886,911.901,67.4886Z" class="st18"></path>
        </g>
        <g style="animation: 10s linear infinite both magenta_o;" transform="translate(908.774,66.45) translate(-3.85,-3.85)" opacity="1" id="magenta">
            <path transform="translate(-904.7,-62.6)" filter="url(#Filter-1)" opacity="0" fill="#FF00FF" d="M908.7,70.3L908.4,70.3C906.4,70.3,904.7,68.7,904.7,66.6L904.7,66.3C904.7,64.3,906.3,62.6,908.4,62.6L908.7,62.6C910.7,62.6,912.4,64.2,912.4,66.3L912.4,66.6C912.4,68.7,910.7,70.3,908.7,70.3Z" class="st19"></path>
            <path transform="translate(-905.485,-62.65)" opacity="0" fill="#FF00FF" d="M909.335,68.2653L909.335,68.2653C908.346,68.2653,907.569,67.4886,907.569,66.5L907.569,66.5C907.569,65.5114,908.346,64.7347,909.335,64.7347L909.335,64.7347C910.323,64.7347,911.1,65.5114,911.1,66.5L911.1,66.5C911.1,67.4886,910.323,68.2653,909.335,68.2653Z" class="st19"></path>
        </g>
    </g>
    <g transform="translate(19.3,17.3597)" id="leftpart">
        <path fill="#534E7A" d="M44.8,147.5C37.5,147.5,31.5,141.5,31.5,134.2L31.5,74.1C31.5,66.8,37.5,60.8,44.8,60.8L94.7,60.8C96.7,60.8,98.3,59.2,98.3,57.2L98.3,36.8C98.3,34.8,96.7,33.2,94.7,33.2L27.4,33.2C13.1,33.2,1.5,44.8,1.5,59L1.5,149.2C1.5,163.4,13.1,175.1,27.4,175.1L94.8,175.1C96.8,175.1,98.4,173.5,98.4,171.5L98.4,151.2C98.4,149.2,96.8,147.6,94.8,147.6L44.8,147.6Z" class="st4"></path>
        <path fill="#746D99" d="M96.4,155L37.7,155C29.1,155,22.1,148,22.1,139.4L22.1,68.9C22.1,60.3,29.1,53.3,37.7,53.3L96.3,53.3C97,53.3,97.7,53.1,98.3,52.8L98.3,36.8C98.3,34.8,96.7,33.2,94.7,33.2L27.4,33.2C13.1,33.2,1.5,44.8,1.5,59L1.5,149.2C1.5,163.4,13.1,175.1,27.4,175.1L94.8,175.1C96.8,175.1,98.4,173.5,98.4,171.5L98.4,155.6C97.8,155.2,97.1,155,96.4,155Z" class="st5"></path>
        <path fill="#abbbbb" stroke-miterlimit="10" stroke="#231F20" stroke-width="3" d="M15.8,95.9L15.8,95.9C20.4,95.9,24.1,99.6,24.1,104.2L24.1,104.2C24.1,108.8,20.4,112.5,15.8,112.5L15.8,112.5C11.2,112.5,7.5,108.8,7.5,104.2L7.5,104.2C7.5,99.6,11.2,95.9,15.8,95.9Z" class="st21"></path>
        <path fill="none" stroke-miterlimit="10" stroke="#534E7A" stroke-width="3" d="M45,149.3L45,162.2L32.2,162.2L32.2,175.7" class="st20"></path>
        <path fill="none" stroke-miterlimit="10" stroke="#534E7A" stroke-width="3" d="M32.8,128.3L13.1,128.3L13.1,135.2L2.8,135.2" class="st20"></path>
        <path fill="none" stroke-miterlimit="10" stroke="#534E7A" stroke-width="3" d="M63.8,32L63.8,44.5L51,44.5L51,58.9" class="st20"></path>
        <path fill="none" stroke-miterlimit="10" stroke="#14142B" stroke-width="3" d="M65.3,33.2L65.3,46L52.6,46L52.6,60.8" class="st17"></path>
        <path fill="none" stroke-miterlimit="10" stroke="#14142B" stroke-width="3" d="M43.7,148L43.7,160.9L31,160.9L31,175.7" class="st17"></path>
        <path fill="none" stroke-miterlimit="10" stroke="#14142B" stroke-width="3" d="M31.5,126.5L11.8,126.5L11.8,133.4L1.5,133.4" class="st17"></path>
        <path fill="none" stroke-miterlimit="10" stroke="#14142B" stroke-width="3" d="M44.8,147.5C37.5,147.5,31.5,141.5,31.5,134.2L31.5,74.1C31.5,66.8,37.5,60.8,44.8,60.8L94.7,60.8C96.7,60.8,98.3,59.2,98.3,57.2L98.3,36.8C98.3,34.8,96.7,33.2,94.7,33.2L27.4,33.2C13.1,33.2,1.5,44.8,1.5,59L1.5,149.2C1.5,163.4,13.1,175.1,27.4,175.1L94.8,175.1C96.8,175.1,98.4,173.5,98.4,171.5L98.4,151.2C98.4,149.2,96.8,147.6,94.8,147.6L44.8,147.6Z" class="st17"></path>
        <g style="animation: 10s linear infinite both light_o;" transform="translate(15.8,104.2) translate(-11.8,-11.8)" opacity="1" id="light">
            <path transform="translate(-4,-92.4)" opacity="0" fill="#22EAFF" d="M15.8,92.4L15.8,92.4C22.3,92.4,27.6,97.7,27.6,104.2L27.6,104.2C27.6,110.7,22.3,116,15.8,116L15.8,116C9.3,116,4,110.7,4,104.2L4,104.2C4,97.6,9.3,92.4,15.8,92.4Z" class="st22"></path>
            <path transform="translate(-4,-92.4)" filter="url(#Filter-2)" opacity="0" fill="#22EAFF" d="M15.8,92.4L15.8,92.4C22.3,92.4,27.6,97.7,27.6,104.2L27.6,104.2C27.6,110.7,22.3,116,15.8,116L15.8,116C9.3,116,4,110.7,4,104.2L4,104.2C4,97.6,9.3,92.4,15.8,92.4Z" class="st22"></path>
            <path transform="translate(-4,-87.5165)" opacity="0" fill="#22EAFF" d="M15.8,92.4L15.8,92.4C19.5788,92.4,22.66,95.4812,22.66,99.26L22.66,99.26C22.66,103.039,19.5788,106.12,15.8,106.12L15.8,106.12C12.0212,106.12,8.93998,103.039,8.93998,99.26L8.93998,99.26C8.93998,95.423,12.0212,92.4,15.8,92.4Z" class="st22"></path>
            <path transform="translate(-4,-87.5165)" filter="url(#Filter-3)" opacity="0" fill="#22EAFF" d="M15.8,92.4L15.8,92.4C19.5788,92.4,22.66,95.4812,22.66,99.26L22.66,99.26C22.66,103.039,19.5788,106.12,15.8,106.12L15.8,106.12C12.0212,106.12,8.93998,103.039,8.93998,99.26L8.93998,99.26C8.93998,95.423,12.0212,92.4,15.8,92.4Z" class="st22"></path>
        </g>
    </g>
    <g transform="translate(19.3,17.3597)" id="text">
        <g>
            <path fill="#FFFFFF" stroke-miterlimit="10" stroke="#14142B" stroke-width="8" d="M136,126.5C132.5,126.5,129.1,126,125.9,124.9C122.7,123.8,119.9,122.2,117.5,120.2C115.1,118.2,113.1,115.8,111.7,112.9C110.3,110.1,109.6,107,109.6,103.5L109.6,103.4C109.6,100.1,110.3,97.1,111.7,94.2C113.1,91.4,115,88.9,117.5,86.9C120,84.8,122.8,83.2,126.1,82.1C129.4,80.9,132.9,80.4,136.7,80.4C139.5,80.4,142.1,80.7,144.5,81.3C146.9,81.9,149,82.7,150.9,83.7C152.8,84.7,154.5,85.9,156,87.3C157.5,88.7,158.8,90.3,159.8,91.9L145.8,99C144.8,97.4,143.6,96.1,142.2,95.1C140.8,94.1,138.9,93.6,136.6,93.6C135.1,93.6,133.8,93.9,132.7,94.4C131.5,94.9,130.5,95.6,129.7,96.5C128.9,97.4,128.2,98.4,127.8,99.6C127.3,100.8,127.1,102,127.1,103.3L127.1,103.4C127.1,104.8,127.3,106.2,127.8,107.4C128.3,108.6,128.9,109.6,129.8,110.5C130.6,111.4,131.7,112,132.8,112.5C134,113,135.3,113.2,136.7,113.2C139.1,113.2,141.1,112.7,142.5,111.7C144,110.7,145.2,109.3,146.3,107.7L160.3,114.6C159.2,116.2,158,117.8,156.5,119.2C155,120.7,153.3,121.9,151.4,123C149.5,124.1,147.2,124.9,144.7,125.6C142,126.2,139.1,126.5,136,126.5Z" class="st23"></path>
            <path fill="#FFFFFF" stroke-miterlimit="10" stroke="#14142B" stroke-width="8" d="M190.6,126.5C186.7,126.5,183,125.9,179.6,124.7C176.2,123.5,173.3,121.9,170.8,119.8C168.3,117.7,166.3,115.3,164.9,112.5C163.5,109.7,162.8,106.7,162.8,103.5L162.8,103.4C162.8,100.2,163.5,97.2,164.9,94.4C166.3,91.6,168.3,89.2,170.8,87.1C173.3,85,176.2,83.4,179.6,82.2C183,81,186.7,80.4,190.6,80.4C194.5,80.4,198.2,81,201.6,82.2C205,83.4,207.9,85,210.4,87.1C212.9,89.2,214.9,91.6,216.3,94.4C217.7,97.2,218.4,100.2,218.4,103.4L218.4,103.5C218.4,106.7,217.7,109.7,216.3,112.5C214.9,115.3,212.9,117.7,210.4,119.8C207.9,121.9,205,123.5,201.6,124.7C198.2,125.9,194.5,126.5,190.6,126.5ZM190.7,113.4C192.3,113.4,193.8,113.1,195.1,112.6C196.4,112.1,197.5,111.3,198.4,110.4C199.3,109.5,200,108.5,200.5,107.3C201,106.1,201.2,104.9,201.2,103.6L201.2,103.5C201.2,102.2,200.9,100.9,200.4,99.7C199.9,98.5,199.2,97.4,198.3,96.5C197.4,95.6,196.3,94.8,195,94.3C193.7,93.8,192.2,93.5,190.6,93.5C189,93.5,187.5,93.8,186.2,94.3C184.9,94.8,183.8,95.6,182.9,96.5C182,97.4,181.3,98.5,180.8,99.6C180.3,100.8,180.1,102,180.1,103.3L180.1,103.4C180.1,104.7,180.4,106,180.9,107.2C181.4,108.4,182.1,109.5,183,110.4C183.9,111.3,185,112.1,186.3,112.6C187.6,113.2,189.1,113.4,190.7,113.4Z" class="st23"></path>
            <path fill="#FFFFFF" stroke-miterlimit="10" stroke="#14142B" stroke-width="8" d="M223.8,81.3L240.8,81.3L240.8,112.9L264.7,112.9L264.7,125.5L223.7,125.5L223.7,81.3Z" class="st23"></path>
            <path fill="#FFFFFF" stroke-miterlimit="10" stroke="#14142B" stroke-width="8" d="M269.1,81.3L286.1,81.3L286.1,112.9L310,112.9L310,125.5L269,125.5L269,81.3Z" class="st23"></path>
            <path fill="#FFFFFF" stroke-miterlimit="10" stroke="#14142B" stroke-width="8" d="M314.5,81.3L358,81.3L358,93.4L331.3,93.4L331.3,97.9L356.2,97.9L356.2,108.6L331.3,108.6L331.3,113.4L358.4,113.4L358.4,125.5L314.6,125.5L314.6,81.3Z" class="st23"></path>
            <path fill="#FFFFFF" stroke-miterlimit="10" stroke="#14142B" stroke-width="8" d="M388.8,126.5C385.3,126.5,381.9,126,378.7,124.9C375.5,123.8,372.7,122.2,370.3,120.2C367.9,118.2,365.9,115.8,364.5,112.9C363.1,110.1,362.4,107,362.4,103.5L362.4,103.4C362.4,100.1,363.1,97.1,364.5,94.2C365.9,91.4,367.8,88.9,370.3,86.9C372.8,84.8,375.6,83.2,378.9,82.1C382.2,80.9,385.7,80.4,389.5,80.4C392.3,80.4,394.9,80.7,397.3,81.3C399.7,81.9,401.8,82.7,403.7,83.7C405.6,84.7,407.3,85.9,408.8,87.3C410.3,88.7,411.6,90.3,412.6,91.9L398.6,99C397.6,97.4,396.4,96.1,395,95.1C393.6,94.1,391.7,93.6,389.4,93.6C387.9,93.6,386.6,93.9,385.5,94.4C384.3,94.9,383.3,95.6,382.5,96.5C381.7,97.4,381,98.4,380.6,99.6C380.1,100.8,379.9,102,379.9,103.3L379.9,103.4C379.9,104.8,380.1,106.2,380.6,107.4C381.1,108.6,381.7,109.6,382.6,110.5C383.4,111.4,384.5,112,385.6,112.5C386.8,113,388.1,113.2,389.5,113.2C391.9,113.2,393.9,112.7,395.3,111.7C396.8,110.7,398,109.3,399.1,107.7L413.1,114.6C412,116.2,410.8,117.8,409.3,119.2C407.8,120.7,406.1,121.9,404.2,123C402.3,124.1,400,124.9,397.5,125.6C394.8,126.2,391.9,126.5,388.8,126.5Z" class="st23"></path>
            <path fill="#FFFFFF" stroke-miterlimit="10" stroke="#14142B" stroke-width="8" d="M429.8,93.8L414.8,93.8L414.8,81.3L461.8,81.3L461.8,93.8L446.8,93.8L446.8,125.5L429.8,125.5L429.8,93.8Z" class="st23"></path>
            <path fill="#FFFFFF" stroke-miterlimit="10" stroke="#14142B" stroke-width="8" d="M466.5,81.3L483.5,81.3L483.5,125.6L466.5,125.6L466.5,81.3Z" class="st23"></path>
            <path fill="#FFFFFF" stroke-miterlimit="10" stroke="#14142B" stroke-width="8" d="M490.2,81.3L518.7,81.3C522.2,81.3,525.2,81.6,527.5,82.3C529.8,83,531.7,84,533.2,85.3C534.1,86.1,534.9,87.1,535.5,88.2C536.1,89.3,536.4,90.7,536.4,92.2L536.4,92.3C536.4,95,535.6,97.1,533.9,98.7C532.2,100.3,530,101.6,527.3,102.4C530.6,103.2,533.3,104.5,535.2,106.1C537.2,107.7,538.1,110.1,538.1,113.1L538.1,113.2C538.1,115,537.7,116.6,536.9,118.1C536.1,119.6,534.8,120.9,533.2,122C531.5,123.1,529.5,124,527,124.6C524.5,125.2,521.7,125.5,518.5,125.5L490.2,125.5L490.2,81.3ZM514.2,98.7C517.8,98.7,519.6,97.7,519.6,95.7L519.6,95.6C519.6,93.6,517.8,92.6,514.1,92.6L506.7,92.6L506.7,98.8L514.2,98.8ZM515.3,114.4C517.1,114.4,518.5,114.1,519.5,113.5C520.4,112.9,520.9,112.1,520.9,111.2L520.9,111C520.9,110,520.4,109.3,519.5,108.7C518.6,108.1,517.2,107.8,515.4,107.8L506.8,107.8L506.8,114.4L515.3,114.4Z" class="st23"></path>
            <path fill="#FFFFFF" stroke-miterlimit="10" stroke="#14142B" stroke-width="8" d="M542.4,81.3L559.4,81.3L559.4,112.9L583.3,112.9L583.3,125.5L542.3,125.5L542.3,81.3Z" class="st23"></path>
            <path fill="#FFFFFF" stroke-miterlimit="10" stroke="#14142B" stroke-width="8" d="M587.7,81.3L631.2,81.3L631.2,93.4L604.5,93.4L604.5,97.9L629.4,97.9L629.4,108.6L604.5,108.6L604.5,113.4L631.6,113.4L631.6,125.5L587.8,125.5L587.8,81.3Z" class="st23"></path>
            <path fill="#FFFFFF" stroke-miterlimit="10" stroke="#14142B" stroke-width="8" d="M658.7,126.4C653.5,126.4,648.7,125.8,644.2,124.5C639.7,123.3,635.8,121.4,632.6,118.9L641.7,109.5C644.5,111.4,647.4,112.7,650.4,113.5C653.5,114.3,656.5,114.7,659.5,114.7C661.1,114.7,662.2,114.5,662.8,114.2C663.5,113.9,663.8,113.4,663.8,112.8L663.8,112.7C663.8,112.1,663.3,111.5,662.3,111.1C661.3,110.7,659.4,110.2,656.7,109.8C653.8,109.3,651.1,108.7,648.5,108C645.9,107.3,643.6,106.5,641.7,105.4C639.7,104.3,638.2,103,637,101.4C635.8,99.8,635.3,97.8,635.3,95.5L635.3,95.4C635.3,93.3,635.8,91.3,636.7,89.5C637.6,87.7,639,86.1,640.8,84.8C642.6,83.5,644.9,82.4,647.6,81.6C650.3,80.8,653.4,80.5,656.9,80.5C661.8,80.5,666.2,81,669.9,82C673.6,83,676.9,84.5,679.9,86.6L671.6,96.6C669.2,95.1,666.6,94,663.9,93.3C661.2,92.6,658.7,92.3,656.3,92.3C655,92.3,654.1,92.5,653.5,92.8C652.9,93.1,652.6,93.6,652.6,94.1L652.6,94.2C652.6,94.5,652.7,94.8,652.9,95C653.1,95.3,653.4,95.5,654,95.7C654.5,95.9,655.2,96.2,656.1,96.4C657,96.6,658.1,96.8,659.4,97C662.7,97.5,665.6,98.1,668.3,98.8C671,99.5,673.3,100.4,675.2,101.6C677.1,102.7,678.6,104.1,679.6,105.6C680.6,107.2,681.2,109.1,681.2,111.3L681.2,111.4C681.2,113.7,680.7,115.8,679.6,117.7C678.5,119.6,677,121.1,675.1,122.4C673.2,123.7,670.8,124.7,668,125.4C665.2,126,662.1,126.4,658.7,126.4Z" class="st23"></path>
        </g>
        <g>
            <path fill="#FFFFFF" d="M136,126.5C132.5,126.5,129.1,126,125.9,124.9C122.7,123.8,119.9,122.2,117.5,120.2C115.1,118.2,113.1,115.8,111.7,112.9C110.3,110.1,109.6,107,109.6,103.5L109.6,103.4C109.6,100.1,110.3,97.1,111.7,94.2C113.1,91.4,115,88.9,117.5,86.9C120,84.8,122.8,83.2,126.1,82.1C129.4,80.9,132.9,80.4,136.7,80.4C139.5,80.4,142.1,80.7,144.5,81.3C146.9,81.9,149,82.7,150.9,83.7C152.8,84.7,154.5,85.9,156,87.3C157.5,88.7,158.8,90.3,159.8,91.9L145.8,99C144.8,97.4,143.6,96.1,142.2,95.1C140.8,94.1,138.9,93.6,136.6,93.6C135.1,93.6,133.8,93.9,132.7,94.4C131.5,94.9,130.5,95.6,129.7,96.5C128.9,97.4,128.2,98.4,127.8,99.6C127.3,100.8,127.1,102,127.1,103.3L127.1,103.4C127.1,104.8,127.3,106.2,127.8,107.4C128.3,108.6,128.9,109.6,129.8,110.5C130.6,111.4,131.7,112,132.8,112.5C134,113,135.3,113.2,136.7,113.2C139.1,113.2,141.1,112.7,142.5,111.7C144,110.7,145.2,109.3,146.3,107.7L160.3,114.6C159.2,116.2,158,117.8,156.5,119.2C155,120.7,153.3,121.9,151.4,123C149.5,124.1,147.2,124.9,144.7,125.6C142,126.2,139.1,126.5,136,126.5Z" class="st15"></path>
            <path fill="#FFFFFF" d="M190.6,126.5C186.7,126.5,183,125.9,179.6,124.7C176.2,123.5,173.3,121.9,170.8,119.8C168.3,117.7,166.3,115.3,164.9,112.5C163.5,109.7,162.8,106.7,162.8,103.5L162.8,103.4C162.8,100.2,163.5,97.2,164.9,94.4C166.3,91.6,168.3,89.2,170.8,87.1C173.3,85,176.2,83.4,179.6,82.2C183,81,186.7,80.4,190.6,80.4C194.5,80.4,198.2,81,201.6,82.2C205,83.4,207.9,85,210.4,87.1C212.9,89.2,214.9,91.6,216.3,94.4C217.7,97.2,218.4,100.2,218.4,103.4L218.4,103.5C218.4,106.7,217.7,109.7,216.3,112.5C214.9,115.3,212.9,117.7,210.4,119.8C207.9,121.9,205,123.5,201.6,124.7C198.2,125.9,194.5,126.5,190.6,126.5ZM190.7,113.4C192.3,113.4,193.8,113.1,195.1,112.6C196.4,112.1,197.5,111.3,198.4,110.4C199.3,109.5,200,108.5,200.5,107.3C201,106.1,201.2,104.9,201.2,103.6L201.2,103.5C201.2,102.2,200.9,100.9,200.4,99.7C199.9,98.5,199.2,97.4,198.3,96.5C197.4,95.6,196.3,94.8,195,94.3C193.7,93.8,192.2,93.5,190.6,93.5C189,93.5,187.5,93.8,186.2,94.3C184.9,94.8,183.8,95.6,182.9,96.5C182,97.4,181.3,98.5,180.8,99.6C180.3,100.8,180.1,102,180.1,103.3L180.1,103.4C180.1,104.7,180.4,106,180.9,107.2C181.4,108.4,182.1,109.5,183,110.4C183.9,111.3,185,112.1,186.3,112.6C187.6,113.2,189.1,113.4,190.7,113.4Z" class="st15"></path>
            <path fill="#FFFFFF" d="M223.8,81.3L240.8,81.3L240.8,112.9L264.7,112.9L264.7,125.5L223.7,125.5L223.7,81.3Z" class="st15"></path>
            <path fill="#FFFFFF" d="M269.1,81.3L286.1,81.3L286.1,112.9L310,112.9L310,125.5L269,125.5L269,81.3Z" class="st15"></path>
            <path fill="#FFFFFF" d="M314.5,81.3L358,81.3L358,93.4L331.3,93.4L331.3,97.9L356.2,97.9L356.2,108.6L331.3,108.6L331.3,113.4L358.4,113.4L358.4,125.5L314.6,125.5L314.6,81.3Z" class="st15"></path>
            <path fill="#FFFFFF" d="M388.8,126.5C385.3,126.5,381.9,126,378.7,124.9C375.5,123.8,372.7,122.2,370.3,120.2C367.9,118.2,365.9,115.8,364.5,112.9C363.1,110.1,362.4,107,362.4,103.5L362.4,103.4C362.4,100.1,363.1,97.1,364.5,94.2C365.9,91.4,367.8,88.9,370.3,86.9C372.8,84.8,375.6,83.2,378.9,82.1C382.2,80.9,385.7,80.4,389.5,80.4C392.3,80.4,394.9,80.7,397.3,81.3C399.7,81.9,401.8,82.7,403.7,83.7C405.6,84.7,407.3,85.9,408.8,87.3C410.3,88.7,411.6,90.3,412.6,91.9L398.6,99C397.6,97.4,396.4,96.1,395,95.1C393.6,94.1,391.7,93.6,389.4,93.6C387.9,93.6,386.6,93.9,385.5,94.4C384.3,94.9,383.3,95.6,382.5,96.5C381.7,97.4,381,98.4,380.6,99.6C380.1,100.8,379.9,102,379.9,103.3L379.9,103.4C379.9,104.8,380.1,106.2,380.6,107.4C381.1,108.6,381.7,109.6,382.6,110.5C383.4,111.4,384.5,112,385.6,112.5C386.8,113,388.1,113.2,389.5,113.2C391.9,113.2,393.9,112.7,395.3,111.7C396.8,110.7,398,109.3,399.1,107.7L413.1,114.6C412,116.2,410.8,117.8,409.3,119.2C407.8,120.7,406.1,121.9,404.2,123C402.3,124.1,400,124.9,397.5,125.6C394.8,126.2,391.9,126.5,388.8,126.5Z" class="st15"></path>
            <path fill="#FFFFFF" d="M429.8,93.8L414.8,93.8L414.8,81.3L461.8,81.3L461.8,93.8L446.8,93.8L446.8,125.5L429.8,125.5L429.8,93.8Z" class="st15"></path>
            <path fill="#FFFFFF" d="M466.5,81.3L483.5,81.3L483.5,125.6L466.5,125.6L466.5,81.3Z" class="st15"></path>
            <path fill="#FFFFFF" d="M490.2,81.3L518.7,81.3C522.2,81.3,525.2,81.6,527.5,82.3C529.8,83,531.7,84,533.2,85.3C534.1,86.1,534.9,87.1,535.5,88.2C536.1,89.3,536.4,90.7,536.4,92.2L536.4,92.3C536.4,95,535.6,97.1,533.9,98.7C532.2,100.3,530,101.6,527.3,102.4C530.6,103.2,533.3,104.5,535.2,106.1C537.2,107.7,538.1,110.1,538.1,113.1L538.1,113.2C538.1,115,537.7,116.6,536.9,118.1C536.1,119.6,534.8,120.9,533.2,122C531.5,123.1,529.5,124,527,124.6C524.5,125.2,521.7,125.5,518.5,125.5L490.2,125.5L490.2,81.3ZM514.2,98.7C517.8,98.7,519.6,97.7,519.6,95.7L519.6,95.6C519.6,93.6,517.8,92.6,514.1,92.6L506.7,92.6L506.7,98.8L514.2,98.8ZM515.3,114.4C517.1,114.4,518.5,114.1,519.5,113.5C520.4,112.9,520.9,112.1,520.9,111.2L520.9,111C520.9,110,520.4,109.3,519.5,108.7C518.6,108.1,517.2,107.8,515.4,107.8L506.8,107.8L506.8,114.4L515.3,114.4Z" class="st15"></path>
            <path fill="#FFFFFF" d="M542.4,81.3L559.4,81.3L559.4,112.9L583.3,112.9L583.3,125.5L542.3,125.5L542.3,81.3Z" class="st15"></path>
            <path fill="#FFFFFF" d="M587.7,81.3L631.2,81.3L631.2,93.4L604.5,93.4L604.5,97.9L629.4,97.9L629.4,108.6L604.5,108.6L604.5,113.4L631.6,113.4L631.6,125.5L587.8,125.5L587.8,81.3Z" class="st15"></path>
            <path fill="#FFFFFF" d="M658.7,126.4C653.5,126.4,648.7,125.8,644.2,124.5C639.7,123.3,635.8,121.4,632.6,118.9L641.7,109.5C644.5,111.4,647.4,112.7,650.4,113.5C653.5,114.3,656.5,114.7,659.5,114.7C661.1,114.7,662.2,114.5,662.8,114.2C663.5,113.9,663.8,113.4,663.8,112.8L663.8,112.7C663.8,112.1,663.3,111.5,662.3,111.1C661.3,110.7,659.4,110.2,656.7,109.8C653.8,109.3,651.1,108.7,648.5,108C645.9,107.3,643.6,106.5,641.7,105.4C639.7,104.3,638.2,103,637,101.4C635.8,99.8,635.3,97.8,635.3,95.5L635.3,95.4C635.3,93.3,635.8,91.3,636.7,89.5C637.6,87.7,639,86.1,640.8,84.8C642.6,83.5,644.9,82.4,647.6,81.6C650.3,80.8,653.4,80.5,656.9,80.5C661.8,80.5,666.2,81,669.9,82C673.6,83,676.9,84.5,679.9,86.6L671.6,96.6C669.2,95.1,666.6,94,663.9,93.3C661.2,92.6,658.7,92.3,656.3,92.3C655,92.3,654.1,92.5,653.5,92.8C652.9,93.1,652.6,93.6,652.6,94.1L652.6,94.2C652.6,94.5,652.7,94.8,652.9,95C653.1,95.3,653.4,95.5,654,95.7C654.5,95.9,655.2,96.2,656.1,96.4C657,96.6,658.1,96.8,659.4,97C662.7,97.5,665.6,98.1,668.3,98.8C671,99.5,673.3,100.4,675.2,101.6C677.1,102.7,678.6,104.1,679.6,105.6C680.6,107.2,681.2,109.1,681.2,111.3L681.2,111.4C681.2,113.7,680.7,115.8,679.6,117.7C678.5,119.6,677,121.1,675.1,122.4C673.2,123.7,670.8,124.7,668,125.4C665.2,126,662.1,126.4,658.7,126.4Z" class="st15"></path>
        </g>
    </g>
</svg>
