<?xml version="1.0" encoding="utf-8"?>
<!-- Generator: Adobe Illustrator 25.2.3, SVG Export Plug-In . SVG Version: 6.00 Build 0)  -->
<svg version="1.1" xmlns="http://www.w3.org/2000/svg" xmlns:xlink="http://www.w3.org/1999/xlink" x="0px" y="0px"
	 viewBox="0 0 603.1 139" style="enable-background:new 0 0 603.1 139;" xml:space="preserve">
<style type="text/css">
	.st0{display:none;}
	.st1{display:inline;}
	.st2{display:inline;opacity:0.61;fill:#FFFFFF;}
	.st3{fill:#EE3240;}
	.st4{fill:#BBC3D2;}
	.st5{fill:#2F566E;}
	.st6{fill:#D12442;}
	.st7{fill:#1E4356;}
	.st8{fill:#FFFFFF;}
	.st9{fill:none;stroke:#000000;stroke-width:4;stroke-linecap:round;stroke-miterlimit:10;}
</style>
<g id="Layer_1" class="st0">
	
		<image style="display:inline;overflow:visible;" width="2048" height="2048" xlink:href="../../../Downloads/pinguino cohete espacial.png"  transform="matrix(8.744331e-02 0 0 8.744331e-02 -38.8513 -20.5459)">
	</image>
	<g class="st1">
		<g>
			<path d="M162.4,24h28.3c3.8,0,7,0.6,9.8,1.9c2.8,1.3,4.9,3.1,6.4,5.4c1.5,2.3,2.2,5.1,2.2,8.3c0,3.2-0.8,5.9-2.2,8.2
				c-1.5,2.3-3.7,4.1-6.5,5.3c-2.8,1.2-6.1,1.9-10,1.9h-11.2v12.2h-17V24z M186.2,44.4c1.2,0,2.3-0.2,3.2-0.6
				c0.9-0.4,1.6-0.9,2.1-1.7c0.5-0.7,0.7-1.6,0.7-2.7c0-1.6-0.5-2.8-1.6-3.6c-1.1-0.9-2.5-1.3-4.4-1.3h-6.8l0.1,9.8H186.2z"/>
			<path d="M213.4,24h37.2v11.8h-20.8v4.6h18.4v10h-18.4v5.2h21.4v11.8h-37.8V24z"/>
			<path d="M255.4,24h19.5l15.6,25h0.1V24h15.8v43.2H287L271.3,42h-0.1v25.1h-15.8V24z"/>
			<path d="M322,65.5c-3.5-1.8-6.2-4.4-8.1-7.8c-1.9-3.4-2.9-7.3-2.9-11.7c0-4.7,1.1-8.8,3.2-12.3c2.2-3.5,5.2-6.2,9.2-8.2
				c4-1.9,8.6-2.9,13.9-2.9c4,0,7.7,0.6,11,1.9c3.3,1.2,6,3,8.1,5.3c2.1,2.3,3.4,4.9,4,7.9l-15.7,2.6c-0.3-1-0.8-1.8-1.5-2.5
				c-0.7-0.7-1.6-1.2-2.5-1.6c-1-0.4-2.1-0.6-3.3-0.6c-1.8,0-3.5,0.4-4.9,1.2c-1.4,0.8-2.5,2-3.3,3.6c-0.8,1.6-1.1,3.3-1.1,5.3
				c0,2.1,0.5,3.9,1.4,5.4c0.9,1.5,2.3,2.7,4,3.6c1.7,0.8,3.7,1.3,6,1.3c1.6,0,3.1-0.2,4.5-0.7c1.3-0.5,2.4-1.1,3.2-1.9
				c0.8-0.8,1.3-1.8,1.5-2.9h-15.5V42H365v25.2h-12.4l-1.2-7.4h-0.1c-0.9,1.8-2.2,3.3-3.9,4.5c-1.7,1.3-3.7,2.2-6,2.9
				c-2.3,0.7-4.8,1.1-7.4,1.1C329.5,68.3,325.4,67.3,322,65.5z"/>
			<path d="M380.9,66.2c-3.6-1.5-6.4-3.7-8.2-6.6c-1.9-2.9-2.8-6.4-2.8-10.6V24h17v24.2c0,1.5,0.3,2.8,0.8,3.9
				c0.6,1.1,1.4,1.8,2.5,2.3c1.1,0.5,2.4,0.8,3.9,0.8c1.6,0,2.9-0.2,4-0.8c1.1-0.5,1.9-1.3,2.5-2.3c0.6-1.1,0.8-2.3,0.8-3.9V24h17
				v25.1c0,4.1-0.9,7.6-2.8,10.6c-1.9,2.9-4.6,5.1-8.2,6.6c-3.6,1.5-8.1,2.2-13.3,2.2C388.9,68.4,384.5,67.7,380.9,66.2z"/>
			<path d="M424,24h16.9v43.2H424V24z"/>
			<path d="M446.9,24h19.5L482,49h0.1V24h15.8v43.2h-19.4L462.8,42h-0.1v25.1h-15.8V24z"/>
			<path d="M162.4,96h17v29.8h18.5v13.4h-35.5V96z"/>
			<path d="M216.1,96h20.3l16.8,43.2h-17.7l-2-6.6h-14.9l-2,6.6H199L216.1,96z M230.9,122.4l-4.8-15.1H226l-4.8,15.1H230.9z"/>
			<path d="M266.7,138.2c-3.6-1.5-6.4-3.7-8.2-6.6s-2.8-6.4-2.8-10.6V96h17v24.2c0,1.5,0.3,2.8,0.8,3.9c0.6,1.1,1.4,1.8,2.5,2.3
				c1.1,0.5,2.4,0.8,3.9,0.8c1.6,0,2.9-0.2,4-0.8s1.9-1.3,2.5-2.3c0.6-1.1,0.8-2.3,0.8-3.9V96h17v25.1c0,4.1-0.9,7.6-2.8,10.6
				c-1.9,2.9-4.6,5.1-8.2,6.6c-3.6,1.5-8.1,2.2-13.3,2.2C274.8,140.4,270.4,139.7,266.7,138.2z"/>
			<path d="M309.9,96h19.5l15.6,25h0.1V96h15.8v43.2h-19.4L325.8,114h-0.1v25.1h-15.8V96z"/>
			<path d="M378.3,137.7c-4.1-1.8-7.2-4.5-9.5-8c-2.2-3.5-3.3-7.5-3.3-12.2c0-4.6,1-8.6,3.1-12.1c2.1-3.5,5.1-6.1,9-8
				c3.9-1.9,8.5-2.8,13.7-2.8c4.3,0,8.2,0.7,11.6,2c3.4,1.4,6.2,3.3,8.4,5.7c2.2,2.5,3.5,5.4,4.1,8.7l-15.4,3.4
				c-0.3-1.4-0.8-2.5-1.6-3.5c-0.8-1-1.7-1.8-2.8-2.3c-1.1-0.5-2.4-0.8-3.9-0.8c-1.9,0-3.5,0.4-4.8,1.1c-1.3,0.8-2.4,1.9-3.1,3.4
				c-0.8,1.5-1.1,3.2-1.1,5.2s0.4,3.7,1.3,5.1s2.1,2.6,3.7,3.4c1.6,0.8,3.4,1.2,5.5,1.2c1.8,0,3.4-0.3,4.9-1
				c1.5-0.6,2.7-1.6,3.6-2.8s1.5-2.6,1.8-4.3l15.7,2.1c-0.4,3.9-1.8,7.3-4.1,10.1c-2.3,2.9-5.4,5.1-9.2,6.6c-3.8,1.5-8.1,2.3-13,2.3
				C387.2,140.4,382.4,139.5,378.3,137.7z"/>
			<path d="M422.7,96h17v14.8h14.6V96h17v43.2h-17V123h-14.6v16.2h-17V96z"/>
			<path d="M477.3,96h28.3c3.8,0,7,0.6,9.8,1.9c2.8,1.3,4.9,3,6.4,5.4c1.5,2.3,2.2,5.1,2.2,8.3c0,3.2-0.8,5.9-2.2,8.2
				c-1.5,2.3-3.7,4.1-6.5,5.3s-6.1,1.9-10,1.9h-11.2v12.2h-17V96z M501,116.4c1.2,0,2.3-0.2,3.2-0.6c0.9-0.4,1.6-0.9,2.1-1.7
				c0.5-0.7,0.7-1.6,0.7-2.7c0-1.6-0.5-2.8-1.6-3.6c-1.1-0.9-2.5-1.3-4.4-1.3h-6.8l0.1,9.8H501z"/>
			<path d="M542.3,96h20.3l16.8,43.2h-17.7l-2-6.6h-14.9l-2,6.6h-17.5L542.3,96z M557.1,122.4l-4.8-15.1h-0.1l-4.8,15.1H557.1z"/>
			<path d="M582.4,96H607c8,0,14.2,1.9,18.5,5.6c4.3,3.7,6.5,9.1,6.5,16c0,4.6-1,8.5-2.9,11.7c-1.9,3.2-4.8,5.7-8.5,7.4
				c-3.7,1.7-8.3,2.5-13.6,2.5h-24.6V96z M605.8,126.9c2.1,0,3.8-0.4,5.2-1.1c1.4-0.7,2.4-1.8,3.2-3.2c0.7-1.4,1.1-3.1,1.1-5.1
				c0-3-0.8-5.3-2.4-6.9c-1.6-1.6-4-2.4-7-2.4h-7v18.7H605.8z"/>
		</g>
	</g>
</g>
<g id="Layer_2" class="st0">
	<rect x="-72.9" y="-32.9" class="st2" width="741.1" height="228.6"/>
</g>
<g id="Layer_8">
</g>
<g id="Layer_9">
</g>
<g id="Layer_7">
</g>
<g id="Layer_3">
</g>
<g id="Layer_4">
</g>
<g id="Layer_5">
</g>
<g id="Layer_11">
</g>
<g id="Layer_6">
	<g>
		<path d="M137,17.7h28.3c3.8,0,7,0.6,9.8,1.9c2.8,1.3,4.9,3.1,6.4,5.4c1.5,2.3,2.2,5.1,2.2,8.3c0,3.2-0.8,5.9-2.2,8.2
			c-1.5,2.3-3.7,4.1-6.5,5.3c-2.8,1.2-6.1,1.9-10,1.9h-11.2v12.2h-17V17.7z M160.7,38.1c1.2,0,2.3-0.2,3.2-0.6
			c0.9-0.4,1.6-0.9,2.1-1.7c0.5-0.7,0.7-1.6,0.7-2.7c0-1.6-0.5-2.8-1.6-3.6c-1.1-0.9-2.5-1.3-4.4-1.3h-6.8l0.1,9.8H160.7z"/>
		<path d="M188,17.7h37.2v11.8h-20.8V34h18.4v10h-18.4v5.2h21.4v11.8H188V17.7z"/>
		<path d="M230,17.7h19.5l15.6,25h0.1v-25H281v43.2h-19.4l-15.7-25.1h-0.1v25.1H230V17.7z"/>
		<path d="M296.5,59.2c-3.5-1.8-6.2-4.4-8.1-7.8c-1.9-3.4-2.9-7.3-2.9-11.7c0-4.7,1.1-8.8,3.2-12.3c2.2-3.5,5.2-6.2,9.2-8.2
			c4-1.9,8.6-2.9,13.9-2.9c4,0,7.7,0.6,11,1.9c3.3,1.2,6,3,8.1,5.3c2.1,2.3,3.4,4.9,4,7.9l-15.7,2.6c-0.3-1-0.8-1.8-1.5-2.5
			c-0.7-0.7-1.6-1.2-2.5-1.6c-1-0.4-2.1-0.6-3.3-0.6c-1.8,0-3.5,0.4-4.9,1.2c-1.4,0.8-2.5,2-3.3,3.6c-0.8,1.6-1.1,3.3-1.1,5.3
			c0,2.1,0.5,3.9,1.4,5.4c0.9,1.5,2.3,2.7,4,3.6c1.7,0.8,3.7,1.3,6,1.3c1.6,0,3.1-0.2,4.5-0.7c1.3-0.5,2.4-1.1,3.2-1.9
			c0.8-0.8,1.3-1.8,1.5-2.9h-15.5v-8.6h31.9v25.2h-12.4l-1.2-7.4h-0.1c-0.9,1.8-2.2,3.3-3.9,4.5s-3.7,2.2-6,2.9
			c-2.3,0.7-4.8,1.1-7.4,1.1C304,62,300,61,296.5,59.2z"/>
		<path d="M355.4,59.9c-3.6-1.5-6.4-3.7-8.2-6.6c-1.9-2.9-2.8-6.4-2.8-10.6V17.7h17v24.2c0,1.5,0.3,2.8,0.8,3.9
			c0.6,1.1,1.4,1.8,2.5,2.3c1.1,0.5,2.4,0.8,3.9,0.8c1.6,0,2.9-0.2,4-0.8c1.1-0.5,1.9-1.3,2.5-2.3c0.6-1.1,0.8-2.3,0.8-3.9V17.7h17
			v25.1c0,4.1-0.9,7.6-2.8,10.6c-1.9,2.9-4.6,5.1-8.2,6.6c-3.6,1.5-8.1,2.2-13.3,2.2C363.5,62.1,359.1,61.4,355.4,59.9z"/>
		<path d="M398.6,17.7h16.9v43.2h-16.9V17.7z"/>
		<path d="M421.5,17.7H441l15.6,25h0.1v-25h15.8v43.2H453l-15.7-25.1h-0.1v25.1h-15.8V17.7z"/>
		<path d="M137,73.7h17v29.8h18.5v13.4H137V73.7z"/>
		<path d="M190.6,73.7h20.3l16.8,43.2H210l-2-6.6h-14.9l-2,6.6h-17.5L190.6,73.7z M205.4,100.1l-4.8-15.1h-0.1l-4.8,15.1H205.4z"/>
		<path d="M238.7,115.9c-3.6-1.5-6.4-3.7-8.2-6.6s-2.8-6.4-2.8-10.6V73.7h17v24.2c0,1.5,0.3,2.8,0.8,3.9c0.6,1.1,1.4,1.8,2.5,2.3
			c1.1,0.5,2.4,0.8,3.9,0.8c1.6,0,2.9-0.2,4-0.8s1.9-1.3,2.5-2.3c0.6-1.1,0.8-2.3,0.8-3.9V73.7h17v25.1c0,4.1-0.9,7.6-2.8,10.6
			c-1.9,2.9-4.6,5.1-8.2,6.6c-3.6,1.5-8.1,2.2-13.3,2.2C246.7,118.1,242.3,117.4,238.7,115.9z"/>
		<path d="M281.8,73.7h19.5l15.6,25h0.1v-25h15.8v43.2h-19.4l-15.7-25.1h-0.1v25.1h-15.8V73.7z"/>
		<path d="M350.2,115.4c-4.1-1.8-7.2-4.5-9.5-8c-2.2-3.5-3.3-7.5-3.3-12.2c0-4.6,1-8.6,3.1-12.1c2.1-3.5,5.1-6.1,9-8
			c3.9-1.9,8.5-2.8,13.7-2.8c4.3,0,8.2,0.7,11.6,2c3.4,1.4,6.2,3.3,8.4,5.7c2.2,2.5,3.5,5.4,4.1,8.7l-15.4,3.4
			c-0.3-1.4-0.8-2.5-1.6-3.5c-0.8-1-1.7-1.8-2.8-2.3c-1.1-0.5-2.4-0.8-3.9-0.8c-1.9,0-3.5,0.4-4.8,1.1c-1.3,0.8-2.4,1.9-3.1,3.4
			c-0.8,1.5-1.1,3.2-1.1,5.2s0.4,3.7,1.3,5.1s2.1,2.6,3.7,3.4c1.6,0.8,3.4,1.2,5.5,1.2c1.8,0,3.4-0.3,4.9-1c1.5-0.6,2.7-1.6,3.6-2.8
			s1.5-2.6,1.8-4.3l15.7,2.1c-0.4,3.9-1.8,7.3-4.1,10.1c-2.3,2.9-5.4,5.1-9.2,6.6c-3.8,1.5-8.1,2.3-13,2.3
			C359.1,118.1,354.3,117.2,350.2,115.4z"/>
		<path d="M394.6,73.7h17v14.8h14.6V73.7h17v43.2h-17v-16.2h-14.6v16.2h-17V73.7z"/>
		<path d="M449.2,73.7h28.3c3.8,0,7,0.6,9.8,1.9c2.8,1.3,4.9,3,6.4,5.4c1.5,2.3,2.2,5.1,2.2,8.3c0,3.2-0.8,5.9-2.2,8.2
			c-1.5,2.3-3.7,4.1-6.5,5.3s-6.1,1.9-10,1.9h-11.2v12.2h-17V73.7z M473,94.1c1.2,0,2.3-0.2,3.2-0.6c0.9-0.4,1.6-0.9,2.1-1.7
			c0.5-0.7,0.7-1.6,0.7-2.7c0-1.6-0.5-2.8-1.6-3.6c-1.1-0.9-2.5-1.3-4.4-1.3h-6.8l0.1,9.8H473z"/>
		<path d="M508.7,73.7h20.3l16.8,43.2h-17.7l-2-6.6h-14.9l-2,6.6h-17.5L508.7,73.7z M523.5,100.1l-4.8-15.1h-0.1l-4.8,15.1H523.5z"
			/>
		<path d="M548.8,73.7h24.6c8,0,14.2,1.9,18.5,5.6c4.3,3.7,6.5,9.1,6.5,16c0,4.6-1,8.5-2.9,11.7c-1.9,3.2-4.8,5.7-8.5,7.4
			c-3.7,1.7-8.3,2.5-13.6,2.5h-24.6V73.7z M572.2,104.6c2.1,0,3.8-0.4,5.2-1.1c1.4-0.7,2.4-1.8,3.2-3.2c0.7-1.4,1.1-3.1,1.1-5.1
			c0-3-0.8-5.3-2.4-6.9c-1.6-1.6-4-2.4-7-2.4h-7v18.7H572.2z"/>
	</g>
</g>
<g id="Layer_12">
</g>
<g id="Layer_10">
	<g>
		<g>
			<path d="M145.6,102.3c-1.4,0-2.6-0.9-2.9-2.3c-5-21.4-14.1-28.8-16.9-29.6c-3.1-1-5.2-0.7-6.6-0.4l-2,0.4L82.8,20.2
				c-3.6-5.2-8.9-8.7-15.1-9.8c-6.2-1.2-12.4,0.2-17.6,3.7c-1.8,1.2-3.4,2.8-4.9,4.5l-1.2,1.5L42,19.6c-6.7-1.9-13.9-0.7-19.6,3.3
				c-5.2,3.6-8.7,8.9-9.8,15.1c-1,5.6,2.7,16.4,6.8,22.4c0.9,1.4,0.6,3.2-0.8,4.2c-1.4,0.9-3.2,0.6-4.2-0.8
				c-4-5.9-9.3-18.5-7.7-26.8c1.4-7.8,5.8-14.5,12.3-19c6.7-4.6,14.9-6.2,22.8-4.5c1.5-1.6,3.1-3,4.9-4.2C53.2,4.7,61,3,68.8,4.5
				c7.8,1.4,14.5,5.8,19,12.3l32.2,47c2.5-0.3,5,0,7.7,0.9c0.6,0.2,14.1,4.7,20.9,34c0.4,1.6-0.6,3.2-2.2,3.6
				C146.1,102.3,145.9,102.3,145.6,102.3z"/>
		</g>
		<g>
			<path d="M124.7,103.1c-0.8,0-1.5-0.3-2.1-0.8c-1.2-1.2-1.2-3.1-0.1-4.2c2-2.1,3.3-4.5,3.6-7.3c0.2-1.6,1.7-2.8,3.4-2.6
				c1.6,0.2,2.8,1.7,2.6,3.4c-0.5,4-2.4,7.7-5.3,10.7C126.3,102.8,125.5,103.1,124.7,103.1z"/>
		</g>
		<g>
			<path d="M109.8,117.7c-0.8,0-1.5-0.3-2.1-0.9c-1.2-1.2-1.2-3.1,0-4.2c1.7-1.7,3.1-3.7,4.2-5.8c-0.1-1.5,1-2.9,2.5-3.2
				c1.6-0.3,3.2,0.9,3.4,2.5c0.2,1.1,0,2.2-0.5,3.1c-1.4,2.8-3.2,5.4-5.4,7.6C111.4,117.4,110.6,117.7,109.8,117.7z"/>
		</g>
		<g>
			<path d="M62.7,135c-0.2,0-0.4,0-0.6,0c-12.3-0.2-24-4.7-33.1-12.8c-0.1,0-0.3,0-0.4,0c-3.3,0-6.5-0.8-9.3-2.3
				c-7.9-4.1-12.4-13.3-11.1-22.7c-1.3-2.1-3-5.3-2.9-9.2c0-6.9,1.8-9.6,3.7-11.7c0.2-0.2,0.5-0.6,0.6-0.7l5.6,2
				c-0.4,1.2-1.1,2-1.7,2.6c-1,1.2-2.2,2.5-2.2,7.8c0,2.8,1.5,5.2,2.6,7l0.6,1l-0.2,1.2c-1.3,7.2,1.9,14.3,7.8,17.5
				c2,1,4.3,1.6,6.6,1.6c0.4,0,0.8,0,1.2,0l1.3-0.1l1,0.9c8.2,7.6,18.9,11.9,30.1,12c10,0.2,19.5-3,27.5-9l0.8-0.6l1,0
				c2.5,0,4.9-0.4,7.3-1.2c0.3-0.1,0.9-0.4,1.5-0.6c0.4-0.2,0.8-0.3,0.9-0.4c1.5-0.6,3.3,0.2,3.9,1.7c0.6,1.5-0.2,3.3-1.7,3.9
				c-0.1,0.1-0.4,0.2-0.8,0.3c-1,0.4-1.6,0.7-1.9,0.8c-2.6,0.9-5.3,1.4-8.1,1.5C83.8,131.7,73.5,135,62.7,135z"/>
		</g>
		<g>
			<path class="st3" d="M36,47.7c3.6-1.2,18.5-5.7,34.1,1.6C79,53.6,84.3,59.8,87,63.4l14-5c-1.5-2.3-10.7-16.5-29.3-19.9
				C52.2,34.9,38,46.1,36,47.7z"/>
		</g>
		<g>
			<path class="st3" d="M102.2,64.5c-2.3,1.7-5.6,4.4-8.5,8.4C90,78,88.4,83,87.7,86.1c-0.9,2-1.8,4-2.7,5.9l-21.7,9.6l-2,5.4l8,8.2
				l11.2,2.4l11.2,0.1l8.6-6.8c2.3-5.6,4.6-11.2,6.9-16.8c0.5-4.5,1.1-9,1.6-13.5c-1-4.5-2-8.9-2.9-13.4L102.2,64.5z"/>
		</g>
		<g>
			<path class="st4" d="M41.8,42.4c-0.8-1.4-4.3-8.3-1.9-16.6c1.9-6.5,6.3-10.2,7.8-11.4c2.2-1.3,9.3-5.2,18.7-4.2
				c8.4,0.9,14,5.1,16.1,6.8c14.3,21.3,28.6,42.6,43,64l1.4,11.9l-3,5.3l-19.3,10.6l-3,0l7.6-24l-4.4-19.3l-8.1-12.9L81.6,42
				l-18.4-4.8L41.8,42.4z"/>
		</g>
		<g>
			<path class="st5" d="M68,37.8c-0.5,0.5,3.3,2.2,7-0.5c2.8-2,10.1-9.2,12.6-11.7c-1.2-1.8-3.9-6.9-5-8.6
				c-2.1-1.7-7.7-5.9-16.1-6.8c-9.5-1-16.5,2.8-18.7,4.2c-1.6,1.2-6,4.9-7.8,11.4C37.6,34.2,41,41,41.8,42.4l21.4-5.2l4.2,1.1
				C67.6,38.1,68.1,37.7,68,37.8z"/>
		</g>
		<g>
			<path class="st5" d="M43,18.7l-9.2,0.4c-5.6,0.3-11,2.6-14.9,6.6l-1,1c-2.6,2.6-4.5,5.8-5.5,9.3l0,0c-1.2,4.1-1.3,8.5-0.1,12.7
				l0.1,0.2c0.8,2.7,2,5.2,3.7,7.4l2.4,3.2l6.1-1.1l6.3-7.1l9-7.2l-0.2-2.8c-0.8-1.8-1.8-4.7-1.9-8.4C37.6,25.5,41.6,20.3,43,18.7z"
				/>
		</g>
		<g>
			<path class="st6" d="M118.1,69.9l7.5-0.8l0,0c7.2,5.9,13,13.3,17.1,21.7l2.4,5l0.8,4.9l-18.6-14.1L118.1,69.9z"/>
		</g>
		<g>
			<path class="st6" d="M127.6,112.9l-6.3-13.8c-2.3-5-6-9.3-10.6-12.4l0,0l-1.9,0.3l-1.2,8.4v0c2.5,3.9,5.7,7.4,9.4,10.3l9.8,7.6
				L127.6,112.9z"/>
		</g>
		<g>
			<polygon class="st6" points="108.3,114.2 102.3,118.1 110.9,123.5 			"/>
		</g>
		<g>
			<path class="st7" d="M101.5,59.6c-3.6,1-12.3,3.8-19.6,11.9C72.3,82.2,71.7,94.6,71.7,98c1.9-0.3,4.3-1,6.8-2.2
				c4.3-2.1,7.2-4.9,8.7-6.8c0.4-3.2,1.4-7.9,4-12.9c3.7-7.3,8.8-11.7,11.8-13.9C102.5,61.3,102,60.5,101.5,59.6z"/>
		</g>
		<g>
			<path class="st7" d="M101.6,110.6l9.4-3.3l-4.3,7.6l-10.6,4c-0.1-0.7-0.3-2.5,0.7-4.4C98.3,111.6,101.2,110.8,101.6,110.6z"/>
		</g>
		<g>
			<polygon class="st7" points="11.1,80.6 16.3,85.4 17.4,96.7 11.5,93.1 			"/>
		</g>
		<g>
			<path class="st8" d="M25,57.9l5.4-5.1c0.2-0.2,0.5-0.4,0.8-0.5l13.9-5.1c0.2-0.1,0.3-0.1,0.5-0.1h0c6-0.9,12.2-0.5,18,1.2
				l7.6,2.2c0.3,0.1,0.5,0.2,0.7,0.4l11.8,8.6c0.3,0.2,0.5,0.5,0.7,0.8l1.6,3.1c0.4,0.8,0.3,1.8-0.2,2.5l-7.7,10.1
				c-0.2,0.2-0.3,0.4-0.4,0.7l-5.1,14.9c-0.1,0.2-0.1,0.3-0.1,0.5l-0.7,6.8c-0.1,1.1-0.9,1.9-2,2.1l-5.3,0.8
				c-0.8,0.1-1.5,0.7-1.8,1.5l-1,2.7c-0.3,0.9-0.1,1.9,0.6,2.5l8.5,7.8c0.3,0.3,0.8,0.5,1.2,0.6l12.1,1.7l2.2,0.4
				c1.6,0.3,2.4,2.2,1.5,3.6l-0.6,0.9c-0.3,0.4-0.7,0.7-1.1,0.9l-9,3.1c-4.7,1.6-9.6,2.4-14.6,2.4h0c-3.1,0-6.2-0.4-9.2-1.1l0,0
				c-6.2-1.4-12.1-3.8-17.4-7.2L34,120c-0.2-0.1-0.5-0.3-0.6-0.6l-0.2-0.3c-0.8-1.1-0.5-2.7,0.6-3.4h0c0.8-0.5,1.2-1.4,1.1-2.3
				l-0.3-1.8c-0.1-0.7-0.5-1.3-1.1-1.7l-6.1-3.5c-0.1-0.1-0.3-0.2-0.4-0.3L18.9,99c-0.5-0.4-0.7-1-0.8-1.6l-0.6-9
				c0-0.2,0-0.5,0.1-0.7L24.4,59C24.5,58.6,24.7,58.2,25,57.9z"/>
		</g>
		<g>
			<path d="M62.7,132.1c-0.2,0-0.4,0-0.6,0c-12.8-0.2-24.9-5.3-33.8-14.5S14.5,96.3,14.6,83.5C14.9,57,36.7,35.7,63.3,36
				c26.5,0.3,47.8,22.2,47.5,48.7l0,0C110.4,111,88.9,132.1,62.7,132.1z M62.7,40c-24.1,0-43.8,19.4-44.1,43.5
				c-0.1,11.8,4.3,22.9,12.5,31.3c8.2,8.4,19.2,13.1,31,13.3c0.2,0,0.4,0,0.5,0c24.1,0,43.8-19.4,44.1-43.5
				c0.3-24.3-19.2-44.3-43.5-44.6C63.1,40,62.9,40,62.7,40z"/>
		</g>
		<g>
			<path d="M86.3,66.2C81.1,57.4,72.5,51.2,62,48.7c-10.8-2.6-22.3-0.7-31.5,5l-2.1-3.4C38.5,44,51,42,62.9,44.8
				c11.5,2.8,21.1,9.6,26.8,19.3L86.3,66.2z"/>
		</g>
		<g>
			<path d="M83.7,120.7c-6.3,0-13.9-1.4-20.2-6.9l-0.1-0.1c-2.7-2.4-5-6.4-4.1-10c0.5-1.9,2.1-4.3,6.9-5.2c11-2,16.9-6.6,23.4-13.8
				c0.7-0.8,2-0.9,2.8-0.1c0.8,0.7,0.9,2,0.1,2.8c-6.9,7.6-13.6,12.8-25.6,15c-1.5,0.3-3.4,0.9-3.8,2.3c-0.4,1.6,0.8,4.1,2.8,5.9
				l-1.2,1.6l1.3-1.5c1.8,1.6,11.7,9.2,28.1,4.5c1.1-0.3,2.2,0.3,2.5,1.4s-0.3,2.2-1.4,2.5C93.7,119.6,89.2,120.7,83.7,120.7z"/>
		</g>
		<g>
			<path d="M72,100.3c-1.1,0-2-0.9-2-2c-0.3-20.2,12.3-37,30.8-41l1.4-0.3l3.9,6.5l-1.6,1.1c-3,2-7.4,5.6-11.5,13.2
				c-2.8,5.2-3.9,11-4.2,12.7c-0.2,1.1-1.2,1.8-2.3,1.6c-1.1-0.2-1.8-1.2-1.6-2.3c0.4-2.3,1.7-8.4,4.6-13.9
				c3.8-7.1,8-11.1,11.2-13.5l-0.5-0.8c-15.8,4.1-26.6,19-26.3,36.7C74.1,99.3,73.2,100.2,72,100.3C72.1,100.3,72.1,100.3,72,100.3z
				"/>
		</g>
		<g>
			<path d="M74.1,86.1c0.3-0.5,0.6-1,0.9-1.5c0.1-0.1,0.8-1.7,0.4-0.9c0.2-0.4,0.4-0.9,0.6-1.3c0.8-2.6,1.8-5.2,2.8-7.7
				c0.3-0.8,0.8-1.5,1.4-2.1c-1-7.6-7.5-13.6-15.4-13.7c-8.7-0.1-15.8,6.8-15.9,15.5c-0.1,8.7,6.8,15.8,15.5,15.9
				c3.4,0,6.6-1,9.2-2.8C73.7,87,73.8,86.5,74.1,86.1z"/>
		</g>
		<g>
			<circle cx="24.3" cy="74" r="15.7"/>
		</g>
		<g>
			<circle class="st8" cx="21.8" cy="70" r="7.9"/>
		</g>
		<g>
			<circle class="st8" cx="62.8" cy="70.5" r="7.9"/>
		</g>
		<g>
			<path d="M14.2,99.5c-0.6,0-1.1-0.2-1.5-0.7c-1.8-2.2-4-5.8-4.6-10.8c-0.5-4.4,0.5-8,1.4-10.2c0.4-1,1.6-1.5,2.6-1.1
				c1,0.4,1.5,1.6,1.1,2.6c-0.7,1.8-1.5,4.8-1.1,8.3c0.5,4,2.3,6.9,3.7,8.7c0.7,0.9,0.6,2.1-0.3,2.8C15.1,99.3,14.7,99.5,14.2,99.5z
				"/>
		</g>
		<g>
			<path d="M98.7,115c-0.7,0-1.5-0.4-1.8-1.1c-0.5-1-0.1-2.2,0.9-2.7c4.4-2.1,11.8-6.3,15.8-8.5c1-0.5,2.2-0.2,2.7,0.8
				c0.5,1,0.2,2.2-0.8,2.7c-5.6,3.1-11.9,6.6-16,8.6C99.3,115,99,115,98.7,115z"/>
		</g>
		<g>
			<path d="M123.1,101c-0.5,0-1-0.2-1.4-0.6c-0.8-0.8-0.8-2.1,0-2.8c4.9-4.8,5-11.8,0.3-18.7L82.1,20.7C75,10.4,60.8,7.8,50.5,14.8
				c-8.8,6-12.2,17.5-8.1,27.4c0.4,1-0.1,2.2-1.1,2.6c-1,0.4-2.2-0.1-2.6-1.1c-4.8-11.6-0.8-25.1,9.5-32.2
				C60.4,3.2,77,6.3,85.4,18.4l39.9,58.2c5.8,8.5,5.6,17.7-0.8,23.9C124.1,100.9,123.6,101,123.1,101z"/>
		</g>
		<g>
			<path d="M18.2,62.3c-0.6,0-1.3-0.3-1.7-0.9l-2.8-4.1c-8.3-12.1-5.2-28.8,6.9-37.1c6.7-4.6,15.1-5.9,22.9-3.5
				c1.1,0.3,1.7,1.4,1.3,2.5c-0.3,1.1-1.4,1.6-2.5,1.3c-6.6-2-13.7-1-19.5,3c-5,3.4-8.4,8.6-9.5,14.5c-1.1,6,0.2,12,3.6,17l2.8,4.1
				c0.6,0.9,0.4,2.2-0.5,2.8C19,62.2,18.6,62.3,18.2,62.3z"/>
		</g>
		<g>
			<path d="M74.1,40.8c-0.6,0-1.3-0.3-1.6-0.9c-0.6-0.9-0.4-2.2,0.5-2.8c1.6-1.1,3.1-2.3,4.5-3.5c3.2-2.7,6.1-5.8,8.6-9.1
				c0.7-0.9,1.9-1.1,2.8-0.4c0.9,0.7,1.1,1.9,0.4,2.8c-2.7,3.6-5.8,6.9-9.2,9.8c-1.5,1.3-3.2,2.6-4.8,3.7
				C74.9,40.6,74.5,40.8,74.1,40.8z"/>
		</g>
		<g>
			<path d="M19.6,60.9c-0.8,0-1.6,0-2.3-0.1c-1.1-0.1-1.9-1.1-1.8-2.2c0.1-1.1,1.1-1.9,2.2-1.8c1.6,0.2,3.6,0.1,5.9-0.2
				c1.1-0.1,2.1,0.7,2.2,1.8c0.1,1.1-0.7,2.1-1.8,2.2C22.4,60.8,21,60.9,19.6,60.9z"/>
		</g>
		<g>
			<path d="M146.9,103.4c-0.5,0-0.9-0.1-1.3-0.4l-19-13.6c-0.9-0.6-1.1-1.9-0.5-2.8s1.9-1.1,2.8-0.5l14.2,10.2
				c-1.6-3.8-3.4-7.4-5.4-11c-3.2-5.7-8-12.8-12.1-14.1c-3-0.9-5-0.7-7-0.2c-1.1,0.3-2.2-0.3-2.5-1.4c-0.3-1.1,0.3-2.2,1.4-2.5
				c2.3-0.6,5.1-1.1,9.3,0.2c2.8,0.9,7.4,3.5,14.4,16c3,5.4,5.7,11.1,7.8,17c0.3,0.9,0,2-0.8,2.6
				C147.9,103.3,147.4,103.4,146.9,103.4z"/>
		</g>
		<g>
			<path d="M91.2,122.5c-3.4,0-6.6-0.7-9.5-2c-1-0.5-1.4-1.6-1-2.6c0.5-1,1.6-1.4,2.6-1c7.7,3.5,19.1,1.3,25.5-6.8l-7.9,3
				c-1,0.4-2.2-0.1-2.6-1.2c-0.4-1,0.1-2.2,1.2-2.6l12.3-4.7c0.9-0.4,2-0.1,2.6,0.6c0.7,0.7,0.8,1.8,0.4,2.7
				c-3,6.2-8.4,10.9-15.1,13.1C96.9,122,94,122.5,91.2,122.5z"/>
		</g>
		<g>
			<path d="M128,118.1c-0.6,0-1.1-0.2-1.5-0.6l-20.8-19.4c-0.8-0.8-0.9-2-0.1-2.8c0.8-0.8,2-0.9,2.8-0.1l16.4,15.2
				c-1.1-3.4-2.5-6.7-4.1-9.8l-0.5-0.9c-2.9-5.6-5.7-11-11.8-13.2c-1-0.4-1.6-1.5-1.2-2.6c0.4-1,1.5-1.6,2.6-1.2
				c7.5,2.7,10.9,9.3,13.9,15.1l0.5,0.9c2.7,5.2,4.7,10.8,6,16.6c0.2,1-0.2,2-1.1,2.4C128.8,118,128.4,118.1,128,118.1z
				 M129.2,114.6L129.2,114.6C129.2,114.6,129.2,114.6,129.2,114.6z"/>
		</g>
		<g>
			<path d="M112.3,127.3c-0.4,0-0.8-0.1-1.2-0.3c-2.3-1-4.6-2.3-6.7-3.7c-1.4-0.9-2.8-2-4.1-3.1c-0.8-0.7-1-2-0.2-2.8
				c0.7-0.8,2-0.9,2.8-0.2c1.2,1,2.5,2,3.8,2.8c0.7,0.5,1.4,0.9,2.1,1.3l-2.7-5.6c-0.5-1-0.1-2.2,0.9-2.7c1-0.5,2.2-0.1,2.7,0.9
				l4.8,9.9c0.5,1,0.2,2.2-0.6,2.9C113.4,127.1,112.8,127.3,112.3,127.3z M110.8,125.6L110.8,125.6L110.8,125.6z"/>
		</g>
		<g>
			<path d="M78.8,29.9L78.8,29.9c-1.6,0-2.9-1.3-2.9-3v0c0-1.6,1.3-2.9,3-2.9h0c1.6,0,2.9,1.3,2.9,3v0C81.8,28.7,80.5,30,78.8,29.9z
				"/>
		</g>
		<g>
			<path d="M69.7,36.7L69.7,36.7c-1.6,0-2.9-1.3-2.9-3v0c0-1.6,1.3-2.9,3-2.9h0c1.6,0,2.9,1.3,2.9,3v0
				C72.7,35.4,71.4,36.7,69.7,36.7z"/>
		</g>
		<g>
			<path d="M25.6,56.1L25.6,56.1c-1.6,0-2.9-1.3-2.9-3v0c0-1.6,1.3-2.9,3-2.9h0c1.6,0,2.9,1.3,2.9,3v0
				C28.6,54.8,27.3,56.1,25.6,56.1z"/>
		</g>
		<g>
			<path class="st9" d="M15.7,48.7"/>
		</g>
		<g>
			<path class="st3" d="M37.3,83c-7.2-1.3-14.5-2.5-21.7-3.8c0.6,2.3,1.9,6.1,4.9,9.9c3.9,4.9,8.6,7.1,10.9,8
				c3.7-0.6,6.7-3.2,7.5-6.6C39.9,86.6,37.7,83.4,37.3,83z"/>
			<path d="M31.2,99.1l-0.5-0.2c-3.2-1.3-7.8-3.8-11.7-8.6c-2.5-3.1-4.3-6.8-5.3-10.6l-0.8-3l25.5,4.5l0.5,0.6
				c0.7,1,3.1,4.6,1.9,9.1c-1,4.2-4.6,7.4-9.1,8.1L31.2,99.1z M18.6,81.7c0.9,2.2,2.1,4.2,3.5,6.1c3.1,3.9,6.8,6,9.5,7.2
				c2.7-0.6,4.7-2.6,5.4-5c0.6-2.2-0.3-4.1-0.8-5.1L18.6,81.7z"/>
		</g>
		<g>
			<path class="st3" d="M13.5,95.2c-2.4,8.3,1.2,16.8,8,20.4c3.5,1.8,7.5,2.2,11.4,1.3c2.7-0.6,3.3-4.1,1.2-5.8
				C27.2,105.7,20.3,100.5,13.5,95.2z"/>
			<path d="M28.8,119.3c-2.9,0-5.7-0.7-8.2-2c-7.8-4.1-11.6-13.6-9-22.7l0.8-2.8l22.9,17.7c1.6,1.3,2.4,3.3,1.9,5.3
				c-0.4,2-1.9,3.5-3.9,4C31.8,119.2,30.3,119.3,28.8,119.3z M14.9,98.7c-0.6,6.3,2.3,12.3,7.6,15.1c3,1.6,6.5,1.9,10,1.1
				c0.6-0.2,0.8-0.7,0.9-0.9c0-0.2,0.1-0.9-0.5-1.3L14.9,98.7z"/>
		</g>
	</g>
</g>
</svg>
