<?xml version="1.0" encoding="utf-8"?>
<!-- Generator: Adobe Illustrator 25.2.1, SVG Export Plug-In . SVG Version: 6.00 Build 0)  -->
<svg version="1.1" id="Layer_1" xmlns="http://www.w3.org/2000/svg" xmlns:xlink="http://www.w3.org/1999/xlink" x="0px" y="0px"
	 viewBox="0 0 68 51.8" style="enable-background:new 0 0 68 51.8;" xml:space="preserve">
<style type="text/css">
	.st0{fill:#FFFFFF;}
</style>
<g>
	<g>
		<path fill="#FFFFFF" d="M57.5,4.3c-4.3-2-9-3.5-13.8-4.3c-0.1,0-0.2,0-0.2,0.1c-0.6,1.1-1.3,2.4-1.7,3.5c-5.2-0.8-10.4-0.8-15.5,0
			c-0.5-1.1-1.1-2.5-1.7-3.5C24.4,0,24.3,0,24.2,0c-4.9,0.8-9.5,2.3-13.8,4.3c0,0-0.1,0-0.1,0.1C1.5,17.5-0.9,30.4,0.3,43
			c0,0.1,0,0.1,0.1,0.2c5.8,4.3,11.4,6.9,17,8.6c0.1,0,0.2,0,0.2-0.1c1.3-1.8,2.5-3.7,3.5-5.6c0.1-0.1,0-0.3-0.1-0.3
			c-1.8-0.7-3.6-1.6-5.3-2.5c-0.1-0.1-0.1-0.3,0-0.4c0.4-0.3,0.7-0.5,1.1-0.8c0.1-0.1,0.1-0.1,0.2,0C28,47.1,40,47.1,51,42
			c0.1,0,0.2,0,0.2,0c0.3,0.3,0.7,0.6,1.1,0.8c0.1,0.1,0.1,0.3,0,0.4c-1.7,1-3.5,1.8-5.3,2.5c-0.1,0-0.2,0.2-0.1,0.3
			c1,2,2.2,3.9,3.5,5.6c0.1,0.1,0.1,0.1,0.2,0.1c5.6-1.7,11.2-4.3,17-8.6c0.1,0,0.1-0.1,0.1-0.2C69.1,28.4,65.3,15.7,57.5,4.3
			C57.6,4.3,57.6,4.3,57.5,4.3z M22.7,35.3c-3.3,0-6.1-3.1-6.1-6.8s2.7-6.8,6.1-6.8c3.4,0,6.2,3.1,6.1,6.8
			C28.8,32.3,26.1,35.3,22.7,35.3z M45.3,35.3c-3.3,0-6.1-3.1-6.1-6.8s3.2-6.1,6.6-6.1c3.4,0,5.7,2.4,5.7,6.1
			C51.4,32.3,48.7,35.3,45.3,35.3z"/>
	</g>
</g>
</svg>
