<?xml version="1.0" encoding="utf-8"?>
<!-- Generator: Adobe Illustrator 25.2.1, SVG Export Plug-In . SVG Version: 6.00 Build 0)  -->
<svg version="1.1" id="Layer_1" xmlns="http://www.w3.org/2000/svg" xmlns:xlink="http://www.w3.org/1999/xlink" x="0px" y="0px"
	 viewBox="0 0 68.5 54.4" style="enable-background:new 0 0 68.5 54.4;" xml:space="preserve">
<style type="text/css">
	.st0{fill:#FFFFFF;}
</style>
<path class="st0" d="M8.1,11.1c0.1-0.8-0.2-1.7-0.9-2.2L0.9,1.2V0h19.9l15.4,33.7L49.6,0h18.9v1.2l-5.5,5.2c-0.5,0.4-0.7,1-0.6,1.5
	v38.5c-0.1,0.6,0.1,1.2,0.6,1.5l5.3,5.2v1.2H41.5v-1.2l5.5-5.4c0.5-0.5,0.5-0.7,0.5-1.5V15.2L32.2,54.3h-2.1L12.2,15.2v26.2
	c-0.1,1.1,0.2,2.2,1,3l7.2,8.7v1.2H0v-1.2l7.2-8.7c0.8-0.8,1.1-1.9,0.9-3V11.1z"/>
</svg>
