<?xml version="1.0" encoding="utf-8"?>
<!-- Generator: Adobe Illustrator 25.2.1, SVG Export Plug-In . SVG Version: 6.00 Build 0)  -->
<svg version="1.1" id="Layer_1" xmlns="http://www.w3.org/2000/svg" xmlns:xlink="http://www.w3.org/1999/xlink" x="0px" y="0px"
	 viewBox="0 0 65.8 54.4" style="enable-background:new 0 0 65.8 54.4;" xml:space="preserve">
<style type="text/css">
	.st0{fill:#FFFFFF;}
</style>
<path class="st0" d="M4,23.7L43.2,7.5c3.9-1.7,17-7.1,17-7.1s6.1-2.4,5.6,3.4c-0.2,2.4-1.5,10.6-2.9,19.5l-4.2,26.4
	c0,0-0.3,3.9-3.2,4.5s-7.6-2.4-8.4-3c-0.7-0.5-12.6-8.1-17-11.8c-1.2-1-2.5-3,0.2-5.4c6.1-5.6,13.3-12.5,17.7-16.8c2-2,4-6.7-4.4-1
	l-23.7,16c0,0-2.7,1.7-7.7,0.2S1.2,28.9,1.2,28.9S-2.9,26.4,4,23.7L4,23.7z"/>
</svg>
