<?xml version="1.0" encoding="utf-8"?>
<!-- Generator: Adobe Illustrator 25.2.1, SVG Export Plug-In . SVG Version: 6.00 Build 0)  -->
<svg version="1.1" id="Layer_1" xmlns="http://www.w3.org/2000/svg" xmlns:xlink="http://www.w3.org/1999/xlink" x="0px" y="0px"
	 viewBox="0 0 66.8 54.2" style="enable-background:new 0 0 66.8 54.2;" xml:space="preserve">
<style type="text/css">
	.st0{fill:#FFFFFF;}
</style>
<path id="Trazado_2_2_" class="st0" d="M21.2,54.2c21.3,0.2,38.8-17,39-38.3c0-0.2,0-0.5,0-0.7v-1.9c2.6-2,4.9-4.4,6.7-7.1
	c-2.5,1.1-5.1,1.8-7.8,2.2c2.8-1.7,4.9-4.4,5.9-7.4c-2.7,1.5-5.6,2.6-8.5,3.3C53.9,1.6,50.2,0,46.4,0c-7.5,0.1-13.6,6.2-13.7,13.7
	c-0.1,1,0,2,0.4,3C22,16.2,11.7,10.9,4.8,2.2C3.6,4.4,3,6.8,3,9.3c0.1,4.5,2.3,8.8,5.9,11.5c-2.2,0-4.4-0.7-6.3-1.9l0,0
	c0,6.6,4.7,12.2,11.1,13.4c-1.2,0.3-2.5,0.5-3.7,0.4c-0.9,0.1-1.8-0.1-2.6-0.4c1.9,5.6,7.1,9.5,13,9.7c-4.9,3.8-10.9,5.9-17.1,5.9
	C2.2,48,1.1,47.8,0,47.5C6.1,52,13.6,54.3,21.2,54.2"/>
</svg>
