<?xml version="1.0" encoding="utf-8"?>
<!-- Generator: Adobe Illustrator 25.2.1, SVG Export Plug-In . SVG Version: 6.00 Build 0)  -->
<svg version="1.1" id="Layer_1" xmlns="http://www.w3.org/2000/svg" xmlns:xlink="http://www.w3.org/1999/xlink" x="0px" y="0px"
	 viewBox="0 0 1413.3 213.7" style="enable-background:new 0 0 1413.3 213.7;" xml:space="preserve">
<style type="text/css">
	.st0{display:none;opacity:0.59;}
	.st1{clip-path:url(#SVGID_2_);fill:url(#SVGID_3_);}
	.st2{clip-path:url(#SVGID_2_);}
	.st3{fill:#FFFFFF;}
	.st4{fill:#BCCDED;}
	.st5{fill:#D7E0F2;}
	.st6{fill:#4A81A0;}
	.st7{fill:#346384;}
	.st8{fill:#DAEEFF;}
	.st9{fill:url(#SVGID_4_);}
	.st10{fill:url(#SVGID_5_);}
	.st11{fill:#7373FF;}
	.st12{fill:#1A1B2D;}
	.st13{fill:#FF3333;}
	.st14{fill:#110E21;}
	.st15{fill:#010101;}
	.st16{fill:url(#SVGID_6_);}
	.st17{opacity:0.28;}
	.st18{fill:url(#SVGID_9_);}
	.st19{fill:#A4C8E4;}
	.st20{fill:#AED3F1;}
	.st21{clip-path:url(#SVGID_2_);fill:none;}
</style>
<g class="st0">
	
		<image style="display:inline;overflow:visible;" width="3569" height="640" xlink:href="B9F7FEF0.png"  transform="matrix(0.24 0 0 0.24 530.4724 26.2629)">
	</image>
</g>
<g>
	<defs>
		<path id="SVGID_1_" d="M1393.5,214.7H19.7C8.8,214.7,0,205.9,0,195V18.7C0,7.8,8.8-1.1,19.7-1.1h1373.8c10.9,0,19.7,8.8,19.7,19.7
			V195C1413.3,205.9,1404.4,214.7,1393.5,214.7z"/>
	</defs>
	<clipPath id="SVGID_2_">
		<use xlink:href="#SVGID_1_"  style="overflow:visible;"/>
	</clipPath>
	<linearGradient id="SVGID_3_" gradientUnits="userSpaceOnUse" x1="1043.1276" y1="-566.1501" x2="756.6086" y2="6.8879">
		<stop  offset="0" style="stop-color:#C980FF"/>
		<stop  offset="0.1054" style="stop-color:#C17DFB"/>
		<stop  offset="0.2699" style="stop-color:#AB77EF"/>
		<stop  offset="0.4729" style="stop-color:#876BDB"/>
		<stop  offset="0.7065" style="stop-color:#545CC0"/>
		<stop  offset="0.9629" style="stop-color:#15489E"/>
		<stop  offset="1" style="stop-color:#0B4599"/>
	</linearGradient>
	<path class="st1" d="M1394.4,213.8H18.9C8,213.8-0.8,205-0.8,194.1V19.6C-0.8,8.7,8-0.1,18.9-0.1h1375.5c10.9,0,19.7,8.8,19.7,19.7
		v174.5C1414.1,205,1405.3,213.8,1394.4,213.8z"/>
	<g class="st2">
		<g>
			<polygon class="st3" points="729.4,134.1 427.2,257.9 397.6,232.9 397.7,232.7 429.2,129 520.6,33.6 631.4,60.2 652.2,114.1 
				700.6,110.9 			"/>
		</g>
		<polygon class="st4" points="628.1,65 589.9,103.2 604,136 650,121.4 		"/>
		<polygon class="st5" points="522.4,39.3 590.4,103.5 642.8,94.7 631.4,60.2 		"/>
		<polygon class="st6" points="701,109 669.5,147.9 525.8,199.5 403.2,230.6 432.2,255.8 479,253.2 499.9,307 607.8,334.9 
			621.2,276.3 633,258.4 656.2,255.4 675.2,234.7 709.4,220.1 714.1,151.7 724.5,138.4 		"/>
		<polygon class="st7" points="403.6,230.4 447.4,213.3 525.9,199.5 669.2,148 670.3,120.9 700.6,109.1 723.4,136.7 724.2,138.5 
			724.2,138.5 482.9,237.2 424.2,248.3 		"/>
		<polygon class="st7" points="500.6,319 540.3,278.6 527.6,249.3 479.8,265.1 		"/>
		<polygon class="st8" points="563.3,300.4 604.5,305.5 577.1,312.7 		"/>
		<path d="M426.2,263.9l-34.6-29.2l1-3.5l31.9-105l94.4-98.5l116.4,27.9l20.5,52.8l46.5-3.1l41.3,36.3c-9.2,3.5-18.3,7.1-27.5,10.6
			c-1,0.4-4.8,39.8-4.8,39.8C670.2,208,560.8,244,483.2,264c-1.4-3.6-2.8-7.2-4.2-10.8l0,0C479,253.2,440.2,258.6,426.2,263.9z
			 M403.7,231.2l24.5,20.7l56.5-8.6c1.1-0.5,10.2,21.2,10.2,21.2c23.2-10.1,151.8-33.7,205.2-65.1l3.1-52c0,0,5.5-2,21.4-8.9
			c-8.5-7.4-17.1-14.7-25.6-22.1l-50.1,3.3l-21.2-54.9L522.3,39.5l-88.4,92.3L403.7,231.2z"/>
	</g>
	<g class="st2">
		<g>
			<polygon class="st3" points="903.3,222.6 576.9,210.5 560.3,175.6 560.5,175.4 631.9,93.9 754.5,44.8 844.5,114.8 841.3,172.4 
				886.6,189.5 			"/>
		</g>
		<polygon class="st4" points="839.5,117.7 789,136.8 788.3,172.4 836.2,178.2 		"/>
		<polygon class="st5" points="753.9,50.7 789.3,137.2 839.5,117.7 		"/>
		<polygon class="st6" points="887.8,187.9 843,210.3 690.8,198 566.3,175.7 582.3,210.6 626.1,227.6 622.9,285.3 709.6,355.2 
			746,307.4 764.2,296 786.6,302.7 812.4,291.8 849.6,292.6 882.1,232.2 897.1,224.4 		"/>
		<polygon class="st7" points="566.8,175.7 613.7,178.2 691,198 842.7,210.3 858.2,183.5 887.4,187.9 896.8,222.4 896.8,224.4 
			896.8,224.4 636.3,214.7 578.1,200.5 		"/>
		<polygon class="st7" points="618.6,296.4 671.4,276.1 672,244.1 621.9,238.8 		"/>
		<polygon class="st8" points="683.4,305.4 718.8,327 690.8,322.3 		"/>
		<path d="M573.6,215.6l-19.4-40.9l2.3-2.7l72.4-82.5l126.6-50.7l94.5,73.5l-3.2,56.5l43.6,16.4l22.6,50.2
			c-9.8-0.6-19.6-1.1-29.4-1.7c-1-0.1-20.7,34.2-20.7,34.2c-44-2.6-158.5-14.9-237.4-28.8c0.2-3.8,0.4-7.7,0.6-11.5l0,0
			C626.1,227.6,588.5,216.5,573.6,215.6z M566.5,176.4l13.8,28.9l55,15.5c1.2,0,0.5,23.5,0.5,23.5c25.3,0.3,152.2,31.9,213.8,25.4
			l24.3-46.1c0,0,5.9,0.5,23.2,0.7c-4.7-10.2-9.5-20.5-14.2-30.7l-47-17.7l3.3-58.8l-85.4-66.4L635,98.3L566.5,176.4z"/>
	</g>
	<g class="st2">
		<linearGradient id="SVGID_4_" gradientUnits="userSpaceOnUse" x1="903.5416" y1="-13.438" x2="858.5887" y2="206.5948">
			<stop  offset="0" style="stop-color:#F8EDFF"/>
			<stop  offset="0.1054" style="stop-color:#EAE4FC"/>
			<stop  offset="0.3029" style="stop-color:#C7CBF3"/>
			<stop  offset="0.5713" style="stop-color:#8DA2E5"/>
			<stop  offset="0.8972" style="stop-color:#3D6BD2"/>
			<stop  offset="1" style="stop-color:#2359CC"/>
		</linearGradient>
		<path class="st9" d="M411.1,140.9c-21.3,3.3-63.9,11.7-84,19.6c-24.3,9.5-62.1,28.2-44.4,41.9c6.8,5.3,41.1,7.4,49.7,8.2
			c16.1,1.5,45.1,1.8,61.2,3.3c5.8,0.5,12,1.2,16.5,4.9c13.7,10.9,5.7,41.2,23,44c17,2.7,20.6-28.5,37.5-31.5
			c17.1-3,23.6,41.5,40.2,46.8c12.2,3.9,17-45.2,37.2-44.2c20.2,1,16.2,28.1,28.5,28.7c12.3,0.6,18.1-23.3,39.2-21.6
			c31.4,2.4,83.6,13,113.4,23.5c25.5,9,52.8,24,77.8,13.6c11.5-4.8,20.4-14.4,31.8-19.2c12.2-5.1,34.6,13,47.8,13.9
			c23.2,1.7,37.8-13.9,61-12.3c10.4,0.7,22.8,2.8,27.2,12.3c1.8,3.9,5.9,23.1,8,26.8c7.1,12.6,21.9-10,35.2-15.7
			c23.5-10,50.3-6.8,75.7-3.4c17.1,2.3,35.7,5.4,47,18.3c7.3,8.3,15.2,21.5,25.4,17.1c6.6-2.8,8.7-12.2,15.5-14.5
			c9.2-3,15.8,8.7,18.4,17.9c4.4,15.9,8.9,31.8,13.3,47.7c2,7,6,15.6,13.3,15.1c6.8-0.5,9.9-8.6,11.4-15.3
			c4.2-18.6-2.4-56.5,12.5-55.8c15,0.7,15.7,29.7,31.7,29.6c19.3-0.1,6.6-53.6,21.3-52.9c14.7,0.7-2,40.4,16.3,41.3
			c18.4,0.9,26.3-33.9,51.9-45.3c5.1-2.3,52.4-7.5,55.8-11.9c11.1-14.2-26.9-39.5-41.4-50.2c-25.7-19.1-56.8-38.8-87.5-29.7
			c-17.1,5.1-31.1,18.7-48.7,22c-40.1,7.5-75.7-40.8-115.4-31.4c-8.4,2-16.1,6.5-24.6,8.5c-30.2,7-58.8-19.8-89.8-18.9
			c-15.4,0.5-29.7,7.8-44.9,10.3c-36.4,6-71.4-16-108.2-18.8c-59.1-4.6-117.6,40.3-174.1,22.3c-21.9-7-41.1-23.2-64.1-24.5
			c-19-1.1-37,8.1-55.8,11C517.9,181,466.3,134.8,411.1,140.9z"/>
	</g>
	<g class="st2">
		<linearGradient id="SVGID_5_" gradientUnits="userSpaceOnUse" x1="729.834" y1="31.955" x2="697.8938" y2="218.8646">
			<stop  offset="0" style="stop-color:#F8EDFF"/>
			<stop  offset="0.1054" style="stop-color:#EAE4FC"/>
			<stop  offset="0.3029" style="stop-color:#C7CBF3"/>
			<stop  offset="0.5713" style="stop-color:#8DA2E5"/>
			<stop  offset="0.8972" style="stop-color:#3D6BD2"/>
			<stop  offset="1" style="stop-color:#2359CC"/>
		</linearGradient>
		<path class="st10" d="M250.8,155.3c-21.3,3.3-63.9,11.7-84,19.6c-24.3,9.5-62.1,28.2-44.4,41.9c6.8,5.3,41.1,7.4,49.7,8.2
			c16.1,1.5,45.1,1.8,61.2,3.3c5.8,0.5,12,1.2,16.5,4.9c13.7,10.9,5.7,41.2,23,44c17,2.7,20.6-28.5,37.5-31.5
			c17.1-3,23.6,41.5,40.2,46.8c12.2,3.9,17-45.2,37.2-44.2c20.2,1,16.2,28.1,28.5,28.7c12.3,0.6,18.1-23.3,39.2-21.6
			c31.4,2.4,83.6,13,113.4,23.5c25.5,9,52.8,24,77.8,13.6c11.5-4.8,20.4-14.4,31.8-19.2c12.2-5.1,34.6,13,47.8,13.9
			c23.2,1.7,37.8-13.9,61-12.3c10.4,0.7,22.8,2.8,27.2,12.3c1.8,3.9,5.9,23.1,8,26.8c7.1,12.6,21.9-10,35.2-15.7
			c23.5-10,50.3-6.8,75.7-3.4c17.1,2.3,35.7,5.4,47,18.3c7.3,8.3,15.2,21.5,25.4,17.1c6.6-2.8,8.7-12.2,15.5-14.5
			c9.2-3,15.8,8.7,18.4,17.9c4.4,15.9,8.9,31.8,13.3,47.7c2,7,6,15.6,13.3,15.1c6.8-0.5,9.9-8.6,11.4-15.3
			c4.2-18.6-2.4-56.5,12.5-55.8c15,0.7,15.7,29.7,31.7,29.6c19.3-0.1,6.6-53.6,21.3-52.9c14.7,0.7-2,40.4,16.3,41.3
			c18.4,0.9,26.3-33.9,51.9-45.3c5.1-2.3,52.4-7.5,55.8-11.9c11.1-14.2-26.9-39.5-41.4-50.2c-25.7-19.1-56.8-38.8-87.5-29.7
			c-17.1,5.1-31.1,18.7-48.7,22c-40.1,7.5-75.7-40.8-115.4-31.4c-8.4,2-16.1,6.5-24.6,8.5c-30.2,7-58.8-19.8-89.8-18.9
			c-15.4,0.5-29.7,7.8-44.9,10.3c-36.4,6-71.4-16-108.2-18.8c-59.1-4.6-117.6,40.3-174.1,22.3c-21.9-7-41.1-23.2-64.1-24.5
			c-19-1.1-37,8.1-55.8,11C357.7,195.4,306,149.2,250.8,155.3z"/>
	</g>
	<g class="st2">
		<path class="st3" d="M148-3.5c48.3,22.5,63.7,54.6,78.8,122.8c7.3,24.1,14.2,62.5,18,99.1c-22.5-2.8-45.2-0.9-68-1.8
			c-12.5-0.5-25.5-1.5-37.8,1.7c-2.7,0.7-5.3,1.6-7.9,2.7c-8.4-11.5-18.5-25-36.1-41.8C85.2,142,96,155,65.6,153.8
			c-4.2-1.7-7-5.8-11.5-21.9C25.5,63.1,78-3.7,148-3.5z"/>
		<path class="st11" d="M136.2-8.1C59.6-32.3-33,49.4-9.9,134.2c0.5,17.9,50.2,16.5,61.3,21.1c0,0,19.1,0.8,19.1,0.8l-8.8-9.6
			c-24.1-34.3-15-84,8.8-116.1c0,0,36.1-24.1,36.1-24.1C109.4,4.8,137.6-2.4,136.2-8.1z"/>
		<polygon class="st12" points="-7.9,143.2 37.3,156.2 85.9,156.2 95,179.2 117,202.7 120.1,209 101.4,221 90.1,241.2 73.4,237.4 
			40.9,220.4 31,216.7 11.3,218.4 		"/>
		<polygon class="st13" points="124.2,212.3 132.1,231.5 132.1,245.1 122.9,249.2 93.1,244.6 94.1,231.5 107.7,214.1 		"/>
		<polygon class="st12" points="240,143.5 247.1,152 237.4,158.3 234.3,143.5 		"/>
		<polygon class="st12" points="242.4,166.6 259.2,180.6 273.4,204.4 273.4,214.4 245.7,215.9 236.4,166.6 		"/>
		<path class="st14" d="M-14.8,131.4c0,0,11.3,47.3,21.1,88.8c1.9-1.5,5.3-2.2,8-1.6c-3.1-13.1-6.9-29-11.5-48.3
			c20,14.8,42.4,17.6,56.6,17.6c8.4,0,14-1,14.7-1.1l3-0.6l0.3-3c0.4-3.3,1.1-6.5,2.1-9.6c5.8,6.1,11.8,11.8,17.8,17.4
			c5.7,5.4,11.6,10.9,17.1,16.7c-5.9,2.8-13.1,7.4-19.1,15.2c-3.5,4.6-6.2,9.7-8.1,15.2c-8.8-3.6-16.8-7.4-21.3-9.6
			c-1.3-0.6-2.5-1.2-3.3-1.6c-9.6-4.5-20.6-9.8-28.9-14.3c-1.5,1-1,2.6-3.3,2.6c-0.8,0-1.6-0.1-2.3-0.2c-0.5,1.8,0.3,3.7,2,4.6
			c9,4.9,18.5,9.7,29.1,14.6c0.8,0.4,1.9,0.9,3.2,1.6c17.3,8.3,37.5,17.1,52.9,18.6c5.7,0.6,10.8,0.1,14.7-1.7c4.2-2,7-5.4,8.1-10
			c3.8-15.3-7.1-29.4-17-40c-5.9-6.2-12.2-12.1-18.2-17.9c-0.5-0.5-1.1-1-1.6-1.5c-1.6-5.9-11.1-33.6-11.1-33.6l-3.4,0.6
			c-5.9,0.9-11.8,1.5-17.7,1.9c-0.1-0.6-0.3-1.1-0.7-1.6c-8.2-10.4-13.5-21.5-15.9-33C38.9,53.3,86.2,0,149.3,0.7
			c32.5,13.8,58,42.9,65.6,80l27,132.5c2.8-0.1,5.7,0.1,8.4,0.4c0,0-4.1-20-9.1-44.6c9.9,7.8,26.3,24,29.8,46.9
			c1.2,0,2.4-0.1,3.6-0.3c1.7-0.2,3.4,0.2,4.8,1.1c-3.3-28.4-23.8-47.3-34.8-55.5l7.6-2.8c1.3-0.5,2.3-1.6,2.6-2.9
			c0.3-1.3-0.1-2.8-1-3.8l-20.5-21.6c-5.6-27.5-10.4-51.1-10.4-51.1c-7.9-40.1-37.1-73.9-75.3-88C95.2-28.5,30.5-8.3,0.8,39.7
			C-16.8,67.1-22.3,99.7-14.8,131.4z M243.6,152.9l-5.2,1.9c-0.6-3.1-1.3-6.3-1.9-9.4L243.6,152.9z M120.2,214.1
			c7,8.3,12.4,17.5,10,26.8c-0.6,2.2-1.7,3.7-3.7,4.6c-6.6,3.1-19.3,0.1-31.7-4.4c1.3-4,3.4-8.6,6.9-13.2
			C107.7,220.3,114.8,216.3,120.2,214.1z M83.1,165.4c0.7-1.3,1.5-2.6,2.3-3.8l3.2,9.7C86.7,169.3,84.9,167.3,83.1,165.4z
			 M-2.1,149.2c11.7,4.5,23.9,7.8,36.4,9.7c14.1,2.1,28.3,2.5,42.5,1.2c-0.4,0.7-0.9,1.5-1.3,2.3c-2.8,5.3-4.6,10.9-5.6,16.8
			c-10.1,1.1-44.7,2.6-70.2-22.3C-0.9,154.3-1.5,151.8-2.1,149.2z M7.7,44.1C32.5,4,83.5-15.2,129.1-5.7c-59.7,9.3-97.4,64-84.7,125
			c2.3,11.6,7.4,22.8,15,33.3c-8,0-16.1-0.7-24-1.9c-13.7-2.1-27.1-5.9-39.9-11.3c-0.8-3.2-1.6-6.5-2.4-9.9
			C-13.8,100-8.7,69.7,7.7,44.1z"/>
		<g>
			<path class="st15" d="M204.9,97.6l-47.8-3.3c-1-2.2-1.8-4.6-2.3-7c-3.7-18.4,8.1-36.3,26.5-40.1c18.4-3.7,36.3,8.1,40.1,26.5
				c3.7,18.4-8.1,36.3-26.5,40.1c-6.8,1.4-13.5,0.6-19.5-1.8L204.9,97.6z"/>
		</g>
		<g>
			<circle class="st3" cx="178.6" cy="71.2" r="11.1"/>
		</g>
		<g>
			
				<ellipse transform="matrix(0.9798 -0.1999 0.1999 0.9798 -16.0195 22.3648)" class="st15" cx="102.7" cy="90.5" rx="32.8" ry="29.1"/>
		</g>
		<g>
			<circle class="st3" cx="93.5" cy="85.3" r="10.7"/>
		</g>
		<g>
			<path class="st15" d="M147.9,61.4l91.9-16.2l-3.5,52.4l-65.7,9.5c-2.3-6.4-8.6-22-15.3-25c-1.3-0.6-2.6-0.7-3.8-0.5
				c-1.2,0.2-2.4,0.8-3.4,1.7c-5.3,5.1-5.9,21.9-5.9,28.7l-65,13.4L56,77.4L147.9,61.4z"/>
		</g>
		<g>
			<path class="st15" d="M70.9,93.5l-7.2-11.1L11,86.3l1.9,19.1l9.8-0.4l-0.9-4.1c-0.2-0.9,0-1.8,0.5-2.5c0.5-0.7,1.3-1.2,2.2-1.2
				L70.9,93.5z"/>
		</g>
		<g>
			
				<linearGradient id="SVGID_6_" gradientUnits="userSpaceOnUse" x1="214.2405" y1="153.373" x2="191.1783" y2="103.2129" gradientTransform="matrix(-1 0 0 1 372.6868 0)">
				<stop  offset="0" style="stop-color:#A5417B"/>
				<stop  offset="1" style="stop-color:#E8403F"/>
			</linearGradient>
			<path class="st16" d="M168.2,125.9c7.4-0.4,14.6-2.3,21.2-5.6c11.3-5.6,18.3-13.9,22.2-19.8l1.3-2l-1.2-2.2l-1.2-2.1l-2.5,0h-0.9
				l-0.8,0.3c-7.3,3.2-15.3,4.9-23.2,4.9c-0.6,0-1.2,0-1.9,0c-7-0.2-13.8-1.7-20.3-4.4l-0.8-0.3l-2.6,0l-1.3,1.3l-1.2,1.2l0,1.8
				c0.1,3.6,0.6,7.2,1.6,10.8c1.6,5.5,4.2,10.5,7.7,14.9l1.2,1.5l2,0L168.2,125.9z"/>
		</g>
		<g>
			<path d="M208.1,98c0.1,0,0.1,0.1,0.1,0.1c-2.8,4.3-9.2,12.8-20.6,18.4c-7.9,3.9-15.1,4.9-19.7,5.2c0,0,0,0,0,0c0,0-0.1,0-0.1,0
				c-3.1-3.8-5.5-8.4-7-13.4c-0.9-3.2-1.4-6.5-1.5-9.7c0-0.1,0-0.1,0.1-0.1c0,0,0,0,0,0c4.8,2,12.3,4.4,21.7,4.7c0.7,0,1.3,0,2,0
				C194.4,103.2,203.1,100.2,208.1,98C208,98,208.1,98,208.1,98 M208.1,89.8l-1.8,0l-1.6,0.7c-6.8,3-14.2,4.5-21.5,4.5
				c-0.6,0-1.2,0-1.7,0c-6.5-0.2-12.8-1.6-18.8-4.1l-1.6-0.6h-1.6c-2.2,0-4.4,0.9-5.9,2.5l-2.4,2.5l0.1,3.4c0.1,4,0.7,8,1.8,11.8
				c1.7,6,4.6,11.5,8.5,16.3l2.5,3.1h3.9l0.3,0l0.2,0c8-0.5,15.7-2.5,22.8-6c12.2-6,19.7-14.9,23.8-21.3l2.7-4.2l-2.3-4.3l-2.4-4.3
				H208.1L208.1,89.8z"/>
		</g>
		<g class="st17">
			<defs>
				<path id="SVGID_7_" class="st17" d="M147.9,61.4l91.9-16.2l-3.5,52.4l-65.7,9.5c-2.3-6.4-8.6-22-15.3-25
					c-1.3-0.6-2.6-0.7-3.8-0.5c-1.2,0.2-2.4,0.8-3.4,1.7c-5.3,5.1-5.9,21.9-5.9,28.7l-65,13.4L56,77.4L147.9,61.4z"/>
			</defs>
			<clipPath id="SVGID_8_">
				<use xlink:href="#SVGID_7_"  style="overflow:visible;"/>
			</clipPath>
		</g>
		<path class="st11" d="M159.4,98.6c0-0.1,0-0.1,0.1-0.1c0,0,0,0,0,0c4.8,2,12.3,4.4,21.7,4.7c0.7,0,1.3,0,2,0
			c11.1,0,19.9-3,24.8-5.2c0,0,0,0,0,0c0.1,0,0.1,0.1,0.1,0.1c-2.8,4.3-9.2,12.8-20.6,18.4c-7.9,3.9-15.1,4.9-19.7,5.2c0,0,0,0,0,0
			c0,0-0.1,0-0.1,0c-3.1-3.8-5.5-8.4-7-13.4C159.9,105.1,159.4,101.8,159.4,98.6z"/>
	</g>
	<g class="st2">
		<path class="st3" d="M350.5-17.9C297.3,7,280.3,42.3,263.7,117.3c-8.1,26.5-15.7,68.8-19.9,109.2c24.8-3,49.8-1,75-1.9
			c13.8-0.5,28-1.7,41.6,1.9c3,0.8,5.8,1.8,8.7,3c9.3-12.6,20.4-27.5,39.8-46.1c10.8-41-1-26.7,32.4-27.9c4.6-1.9,7.8-6.4,12.7-24.1
			C485.4,55.5,427.6-18,350.5-17.9z"/>
		<path class="st13" d="M363.4-22.9c84.4-26.6,186.4,63.4,160.9,156.8c-0.6,19.7-55.3,18.2-67.5,23.3c0,0-21,0.8-21,0.8l9.7-10.6
			c26.5-37.8,16.5-92.5-9.7-127.9c0,0-39.7-26.6-39.7-26.6C393-8.7,361.9-16.6,363.4-22.9z"/>
		<polygon class="st12" points="522.2,143.7 472.5,158 419,158 408.8,183.4 384.6,209.3 381.2,216.2 401.9,229.5 414.2,251.7 
			432.7,247.5 468.5,228.8 479.3,224.7 501,226.6 		"/>
		<polygon class="st13" points="376.7,219.8 368,241 368,256 378.1,260.4 411,255.4 409.9,241 394.9,221.8 		"/>
		<polygon class="st12" points="249.2,144 241.3,153.4 252,160.4 255.5,144 		"/>
		<polygon class="st12" points="246.5,169.5 228.1,184.9 212.4,211.1 212.4,222.1 242.9,223.8 253.1,169.5 		"/>
		<path class="st14" d="M512.7,29.7c-32.7-52.9-104-75.1-161.7-53.5C308.8-8.3,276.6,29,268,73.1c0,0-5.3,26-11.5,56.3l-22.5,23.7
			c-1,1.1-1.5,2.7-1.1,4.1c0.3,1.5,1.4,2.7,2.8,3.2l8.4,3.1c-12.1,9.1-34.8,29.9-38.4,61.2c1.6-0.9,3.4-1.4,5.3-1.2
			c1.3,0.2,2.6,0.3,3.9,0.3c3.8-25.3,21.9-43,32.8-51.7c-5.5,27.1-10,49.2-10,49.2c3.1-0.4,6.2-0.6,9.3-0.5l29.8-145.9
			C285.2,34,313.2,2,349-13.2c69.6-0.8,121.6,57.9,106.7,128.9c-2.6,12.7-8.5,24.9-17.5,36.4c-0.4,0.5-0.7,1.1-0.8,1.7
			c-6.5-0.3-13-1-19.5-2l-3.8-0.6c0,0-10.5,30.5-12.2,37c-0.6,0.6-1.2,1.1-1.8,1.7c-6.7,6.3-13.6,12.8-20.1,19.7
			c-10.9,11.6-22.9,27.2-18.7,44c1.3,5.1,4.4,8.9,9,11c4.4,2.1,9.9,2.5,16.2,1.9c16.9-1.7,39.1-11.3,58.2-20.5
			c1.4-0.7,2.6-1.3,3.6-1.7c11.6-5.4,22.1-10.7,32-16.1c1.9-1,2.7-3.1,2.2-5.1c-0.8,0.2-1.6,0.3-2.5,0.3c-2.5,0-2-1.8-3.7-2.9
			c-9.1,4.9-21.3,10.8-31.8,15.7c-1,0.4-2.2,1-3.7,1.8c-4.9,2.4-13.7,6.6-23.4,10.5c-2-6.1-5-11.8-8.9-16.8
			c-6.6-8.6-14.5-13.7-21-16.8c6-6.3,12.5-12.4,18.8-18.3c6.5-6.1,13.2-12.5,19.6-19.2c1.1,3.4,1.9,6.9,2.3,10.5l0.4,3.3l3.3,0.6
			c0.7,0.1,6.9,1.2,16.2,1.2c15.7,0,40.4-3.2,62.4-19.4c-5.1,21.3-9.2,38.8-12.7,53.2c3-0.6,6.8,0.1,8.9,1.8
			c10.8-45.6,23.2-97.8,23.2-97.8C538.1,95.8,532,59.9,512.7,29.7z M253.1,146.1c-0.7,3.5-1.4,6.9-2.1,10.4l-5.8-2.1L253.1,146.1z
			 M401.4,237c3.9,5,6.2,10.1,7.6,14.5c-13.6,4.9-27.6,8.2-34.9,4.8c-2.2-1-3.4-2.6-4.1-5.1c-2.5-10.2,3.4-20.4,11.1-29.5
			C387,224.2,394.9,228.7,401.4,237z M415.9,174.6l3.5-10.6c0.9,1.4,1.8,2.8,2.6,4.2C420,170.3,418,172.5,415.9,174.6z M513.9,158.7
			c-28,27.5-66.1,25.8-77.3,24.6c-1.1-6.5-3.1-12.7-6.2-18.5c-0.4-0.8-0.9-1.7-1.4-2.5c15.6,1.5,31.3,1,46.8-1.3
			c13.7-2.1,27.1-5.7,40-10.6C515.2,153.2,514.5,156,513.9,158.7z M521,128.6c-0.9,3.7-1.7,7.4-2.6,10.9c-14.1,6-28.9,10.2-44,12.5
			c-8.8,1.3-17.6,2-26.5,2.1c8.4-11.6,14-23.9,16.6-36.7C478.6,50.2,437-10,371.3-20.3c50.3-10.5,106.4,10.7,133.8,54.9
			C523.1,62.7,528.7,96.1,521,128.6z"/>
		<g>
			<path class="st15" d="M287.8,93.5l52.7-3.6c1.1-2.4,1.9-5,2.5-7.8c4.1-20.2-8.9-40-29.2-44.1s-40,8.9-44.1,29.2
				c-4.1,20.2,8.9,40,29.2,44.1c7.5,1.5,14.9,0.7,21.4-2L287.8,93.5z"/>
		</g>
		<g>
			<circle class="st3" cx="316.8" cy="64.4" r="12.2"/>
		</g>
		<g>
			<circle class="st15" cx="399.6" cy="89.7" r="36.1"/>
		</g>
		<g>
			<circle class="st3" cx="410.5" cy="79.9" r="11.8"/>
		</g>
		<g>
			<path class="st15" d="M346.3,70.1L245.2,52.3l3.9,57.7l72.3,10.5c2.6-7,9.5-24.2,16.9-27.5c1.4-0.6,2.8-0.8,4.2-0.5
				c1.4,0.2,2.6,0.8,3.7,1.9c5.9,5.6,6.5,24.2,6.5,31.6l71.6,14.7l23.3-52.9L346.3,70.1z"/>
		</g>
		<g>
			<path class="st15" d="M435.9,109.3l5.6-13.5l57.8-6.1l1.7,21.1l-10.8,1.5l0.2-4.7c0-1-0.4-1.9-1.1-2.6c-0.7-0.7-1.7-1-2.6-0.9
				L435.9,109.3z"/>
		</g>
		<g>
			<linearGradient id="SVGID_9_" gradientUnits="userSpaceOnUse" x1="338.9942" y1="154.9291" x2="313.5926" y2="99.6805">
				<stop  offset="0" style="stop-color:#A5417B"/>
				<stop  offset="1" style="stop-color:#E8403F"/>
			</linearGradient>
			<path class="st18" d="M328.3,124.6c-8.2-0.5-16-2.6-23.4-6.2c-12.5-6.2-20.2-15.3-24.5-21.9l-1.5-2.3l1.3-2.5l1.3-2.4l2.8-0.1
				h0.9l0.9,0.4c8,3.5,16.8,5.4,25.5,5.4c0.7,0,1.4,0,2.1,0c7.7-0.3,15.2-1.9,22.3-4.9l0.8-0.3l2.8,0l1.4,1.4l1.3,1.4l0,2
				c-0.1,4-0.7,8-1.8,11.8c-1.7,6-4.6,11.5-8.5,16.4l-1.4,1.7l-2.2,0L328.3,124.6z"/>
		</g>
		<g>
			<path d="M284.3,94C284.4,94,284.4,94,284.3,94c5.5,2.4,15.1,5.7,27.4,5.7c0.7,0,1.5,0,2.2,0c10.4-0.3,18.7-3,23.9-5.2
				c0,0,0,0,0,0c0.1,0,0.1,0.1,0.1,0.1c-0.1,3.6-0.6,7.2-1.6,10.7c-1.6,5.6-4.3,10.5-7.7,14.8c0,0,0,0-0.1,0c0,0,0,0,0,0
				c-5-0.3-13-1.4-21.7-5.7c-12.6-6.2-19.6-15.5-22.7-20.3C284.2,94.1,284.3,94,284.3,94 M284.3,85H279l-2.7,4.8l-2.6,4.7l2.9,4.6
				c4.6,7.1,12.8,16.8,26.3,23.5c7.8,3.9,16.3,6.1,25.1,6.6l0.3,0l0.3,0h4.3l2.8-3.4c4.3-5.3,7.4-11.3,9.3-17.9
				c1.2-4.2,1.9-8.6,2-13l0.1-3.8l-2.7-2.8c-1.7-1.7-4.1-2.7-6.5-2.7h-1.8l-1.7,0.7c-6.6,2.8-13.6,4.3-20.8,4.5c-0.6,0-1.3,0-1.9,0
				c-8,0-16.2-1.7-23.7-5l-1.7-0.8L284.3,85L284.3,85z"/>
		</g>
		<g class="st17">
			<defs>
				<path id="SVGID_10_" class="st17" d="M346.3,70.1L245.2,52.3l3.9,57.7l72.3,10.5c2.6-7,9.5-24.2,16.9-27.5
					c1.4-0.6,2.8-0.8,4.2-0.5c1.4,0.2,2.6,0.8,3.7,1.9c5.9,5.6,6.5,24.2,6.5,31.6l71.6,14.7l23.3-52.9L346.3,70.1z"/>
			</defs>
			<clipPath id="SVGID_11_">
				<use xlink:href="#SVGID_10_"  style="overflow:visible;"/>
			</clipPath>
		</g>
		<path class="st13" d="M338,94.6c0-0.1-0.1-0.1-0.1-0.1c0,0,0,0,0,0c-5.2,2.2-13.5,4.9-23.9,5.2c-0.7,0-1.5,0-2.2,0
			c-12.3,0-21.9-3.4-27.3-5.7c0,0,0,0,0,0c-0.1,0-0.1,0.1-0.1,0.2c3.1,4.7,10.1,14.1,22.7,20.3c8.7,4.3,16.6,5.4,21.7,5.7
			c0,0,0,0,0,0c0,0,0.1,0,0.1,0c3.4-4.2,6.1-9.2,7.7-14.8C337.4,101.7,337.9,98.1,338,94.6z"/>
	</g>
	<g class="st2">
		<g>
			<polygon class="st3" points="1343.5,311.4 1260.5,207.2 1330.4,168.6 1338.3,128.9 1383.4,82.2 1520.5,103.3 1555.5,157.6 
				1565.6,285.2 1449.1,339.8 			"/>
			<path d="M1385.1,87l132.7,20.4l33.3,51.7l9.7,123.4L1448.6,335l-102.6-27.6l-78.8-98.8l67.1-37l8-40.5L1385.1,87 M1381.8,77.4
				l-3.2,3.3l-42.6,44l-1.8,1.9l-0.5,2.6l-7.2,36.4l-63.4,35l-9.3,5.2l6.6,8.3l78.8,98.8l1.8,2.3l2.9,0.8l102.6,27.6l3.2,0.9l3-1.4
				l112.2-52.6l5.6-2.6l-0.5-6.2l-9.7-123.4l-0.2-2.3l-1.2-1.9l-33.3-51.7l-2.2-3.4l-4-0.6l-132.7-20.4L1381.8,77.4L1381.8,77.4z"/>
		</g>
		<polygon class="st19" points="1448.6,335 1560.8,282.5 1551.1,159.1 1550.6,158.3 1517.8,107.4 1471.5,167.3 1466.1,207.1 
			1457.6,269.5 1451.2,316.4 		"/>
		<polygon class="st20" points="1457.6,269.5 1555.6,215.6 1551.1,159.1 1550.6,158.3 1466.1,207.1 		"/>
		<polygon class="st20" points="1448.6,335 1560.8,282.5 1558.6,254.4 1451.2,316.4 		"/>
		<polygon class="st20" points="1503.9,239.7 1558.6,254.4 1533.3,269.8 1478.3,250.1 		"/>
		<polygon class="st8" points="1385.1,87 1471.5,167.3 1517.8,107.4 		"/>
		<polygon class="st19" points="1490.6,142.7 1498.9,132.2 1482.9,114.9 1505.1,126.7 		"/>
		<polygon class="st4" points="1267.3,208.6 1331.6,198.8 1331.6,198.8 1336.8,197.7 1334.4,171.6 		"/>
	</g>
	<g class="st2">
		<g>
			<polygon class="st3" points="1049.9,315 1035.2,252.1 1115.2,138.9 1180.1,138.7 1214.2,160.7 1290.5,137.2 1307.8,269.3 
				1254.9,365 1134.7,410.9 			"/>
			<path d="M1286.8,143l16.4,125.3l-51.4,93l-115.7,44.2l-82-92.7l-14-59.9l77.5-109.6l61.3-0.1l34.7,22.4L1286.8,143 M1294.3,131.3
				l-10.2,3.1l-69.2,21.3l-31.2-20.1l-2.2-1.4l-2.7,0l-61.3,0.1l-4.6,0l-2.7,3.8l-77.5,109.6l-2.3,3.3l0.9,3.9l14,59.9l0.5,2.2
				l1.5,1.7l82,92.7l4.1,4.7l5.8-2.2l115.7-44.2l3.1-1.2l1.6-2.9l51.4-93l1.4-2.6l-0.4-2.9l-16.4-125.3L1294.3,131.3L1294.3,131.3z"
				/>
		</g>
		<polygon class="st19" points="1251.8,361.3 1136.1,405.6 1054.1,312.9 1053.8,312 1040,253 1115.2,261.3 1147.7,285.1 
			1198.5,322.3 1236.7,350.3 		"/>
		<polygon class="st20" points="1198.5,322.3 1091.6,355.3 1054.1,312.9 1053.8,312 1147.7,285.1 		"/>
		<polygon class="st20" points="1251.8,361.3 1136.1,405.6 1117.4,384.5 1236.7,350.3 		"/>
		<polygon class="st20" points="1144.8,334.9 1117.4,384.5 1146.1,377 1170.1,323.7 		"/>
		<polygon class="st5" points="1117.6,143.4 1115.2,261.3 1040,253 		"/>
		<polygon class="st19" points="1084.3,258 1070.9,256.6 1069.6,233.2 1062.7,257.3 		"/>
		<polygon class="st20" points="1147.7,285.1 1221.6,297.6 1159.9,295.3 		"/>
		<polygon class="st4" points="1286.8,143 1235.1,182.5 1235.1,182.5 1230.7,185.4 1213.6,165.6 		"/>
	</g>
	<g class="st2">
		<g>
			<path class="st3" d="M589.7,144.1c-21.7,0-38.1-16.4-38.1-38.1v-0.2c0-21.8,16.8-38.3,39-38.3c14.7,0,26.5,6.8,33.3,19.1l0.7,1.3
				l-22.1,12.9l-0.7-1.4c-2.8-5.4-6.3-7.8-11.5-7.8c-6.8,0-11.7,5.9-11.7,13.9v0.2c0,8.3,4.8,14.1,11.7,14.1c5.2,0,8.8-2.4,12-8.1
				l0.7-1.3l22.1,12.5l-0.7,1.3C616.9,137.4,605.3,144.1,589.7,144.1z"/>
			<path class="st14" d="M590.6,69c15.5,0,26,7.6,32,18.3l-19.5,11.4c-2.6-5-6.4-8.6-12.8-8.6c-8,0-13.2,7-13.2,15.4v0.2
				c0,9.2,5.4,15.6,13.2,15.6c6.7,0,10.4-3.6,13.3-8.9l19.5,11c-5.9,10.5-15.8,19.1-33.4,19.1c-19.6,0-36.6-14.7-36.6-36.6v-0.2
				C553.1,84.7,569.6,69,590.6,69 M590.6,66c-11,0-21.2,4-28.7,11.3c-7.6,7.4-11.8,17.5-11.8,28.4v0.2c0,11.2,4.2,21.3,11.9,28.7
				c7.4,7,17.2,10.9,27.7,10.9c16.1,0,28.2-6.9,36-20.6l1.5-2.6l-2.6-1.5l-19.5-11l-2.6-1.5l-1.5,2.6c-2.9,5.2-6,7.3-10.7,7.3
				c-6.1,0-10.2-5.1-10.2-12.6v-0.2c0-6.2,3.5-12.4,10.2-12.4c4.6,0,7.6,2.1,10.1,7l1.5,2.8l2.7-1.6l19.5-11.4l2.5-1.5l-1.4-2.6
				C618.1,73.1,605.8,66,590.6,66L590.6,66z"/>
		</g>
		<g>
			<polygon class="st3" points="626.1,142.6 626.1,69 652.7,69 652.7,119.4 685.9,119.4 685.9,142.6 			"/>
			<path class="st14" d="M651.2,70.5v50.4h33.2v20.2h-56.8V70.5H651.2 M654.2,67.5h-3h-23.6h-3v3v70.6v3h3h56.8h3v-3v-20.2v-3h-3
				h-30.2V70.5V67.5L654.2,67.5z"/>
		</g>
		<g>
			<path class="st3" d="M721.6,144c-23.7,0-36.2-12-36.2-34.6V69h27v40.1c0,7.2,3.2,11,9.4,11c6.2,0,9.4-3.5,9.4-10.5V69h27v39.9
				C758.1,131.9,745.5,144,721.6,144z"/>
			<path class="st14" d="M756.6,70.5v38.4c0,24.1-14,33.6-35.1,33.6c-21.1,0-34.7-9.7-34.7-33.1V70.5h24v38.6
				c0,8.8,4.5,12.5,10.9,12.5s10.9-3.4,10.9-12V70.5H756.6 M759.6,67.5h-3h-24h-3v3v39.1c0,6.1-2.5,9-7.9,9c-5.3,0-7.9-3.1-7.9-9.5
				V70.5v-3h-3h-24h-3v3v38.9c0,12.1,3.5,21.4,10.4,27.5c6.4,5.7,15.5,8.5,27.2,8.5c24.9,0,38.1-12.6,38.1-36.6V70.5V67.5
				L759.6,67.5z"/>
		</g>
		<g>
			<path class="st3" d="M762.6,142.6V69h41c9.8,0,16.5,2.2,21.1,6.8c3.1,3.1,4.8,7.3,4.8,12v0.2c0,7.1-3.4,12.6-9.9,16
				c8.2,3.4,12.3,9.1,12.3,17.3v0.2c0,13-11,21.1-28.6,21.1H762.6z M798.9,121.7c1.9,0,6.3-0.4,6.3-3.6v-0.2c0-3.3-4.3-3.6-6.2-3.6
				h-10.4v7.5H798.9z M797.4,96.7c6,0,6-2.4,6-3.3v-0.2c0-0.8,0-3.3-6.1-3.3h-8.7v6.9H797.4z"/>
			<path class="st14" d="M803.6,70.5c9.8,0,15.9,2.2,20.1,6.4c2.5,2.5,4.3,6.1,4.3,11v0.2c0,8.4-5,13.5-12.6,16.1
				c9.1,2.6,14.9,7.5,14.9,17.1v0.2c0,11.3-9.3,19.6-27.1,19.6h-39.1V70.5H803.6 M787.1,98.2h10.3c5,0,7.5-1.7,7.5-4.8v-0.2
				c0-3.1-2.5-4.8-7.6-4.8h-10.2V98.2 M787.1,123.2h11.8c5.1,0,7.8-2.1,7.8-5.1v-0.2c0-3-2.5-5.1-7.7-5.1h-11.9V123.2 M803.6,67.5
				h-39.5h-3v3v70.6v3h3h39.1c9.2,0,16.8-2.1,22.1-6.2c5.3-4,8-9.7,8-16.4v-0.2c0-8-3.5-13.8-10.6-17.5c5.4-3.7,8.2-9.1,8.2-15.8
				v-0.2c0-5.2-1.8-9.7-5.2-13.1C820.9,69.8,813.8,67.5,803.6,67.5L803.6,67.5z M790.1,91.4h7.2c3,0,4.6,0.6,4.6,1.8v0.2
				c0,0.5,0,1.8-4.5,1.8h-7.3V91.4L790.1,91.4z M790.1,115.8h8.9c1.4,0,4.7,0.2,4.7,2.1v0.2c0,2-3.6,2.1-4.8,2.1h-8.8V115.8
				L790.1,115.8z"/>
		</g>
		<g>
			<path class="st3" d="M859.6,142.6V69h33.3c20.7,0,33,9.9,33,26.6v0.2c0,17-12.9,27.6-33.6,27.6h-6.2v19.2H859.6z M891,103.6
				c2.6,0,8.6-0.6,8.6-6.3v-0.2c0-4.2-2.9-6.3-8.5-6.3h-5v12.7H891z"/>
			<path class="st14" d="M892.8,70.5c18.7,0,31.5,8.4,31.5,25.1v0.2c0,17-13,26.1-32.1,26.1h-7.7v19.2h-23.6V70.5H892.8
				 M884.7,105.1h6.4c6,0,10.1-2.7,10.1-7.8v-0.2c0-5.1-3.7-7.8-10-7.8h-6.5V105.1 M892.8,67.5h-31.8h-3v3v70.6v3h3h23.6h3v-3v-16.2
				h4.7c21.6,0,35.1-11.2,35.1-29.1v-0.2C927.4,78,914.5,67.5,892.8,67.5L892.8,67.5z M887.7,92.4h3.5c7,0,7,3.5,7,4.8v0.2
				c0,4.1-4.4,4.8-7.1,4.8h-3.4V92.4L887.7,92.4z"/>
		</g>
		<g>
			<polygon class="st3" points="927.9,142.6 927.9,69 991.1,69 991.1,91.4 954.1,91.4 954.1,95.5 988.6,95.5 988.6,115.6 
				954.1,115.6 954.1,120.2 991.6,120.2 991.6,142.6 			"/>
			<path class="st14" d="M989.6,70.5v19.4h-37V97h34.5v17h-34.5v7.7h37.5v19.4h-60.7V70.5H989.6 M992.6,67.5h-3h-60.2h-3v3v70.6v3h3
				h60.7h3v-3v-19.4v-3h-3h-34.5v-1.7h31.5h3v-3V97v-3h-3h-31.5v-1.2h34h3v-3V70.5V67.5L992.6,67.5z"/>
		</g>
		<g>
			<polygon class="st3" points="1045.3,142.6 1021.3,112.8 1021.3,142.6 994.9,142.6 994.9,69 1019.2,69 1042.1,97.4 1042.1,69 
				1068.5,69 1068.5,142.6 			"/>
			<path class="st14" d="M1067,70.5v70.6h-21l-26.2-32.6v32.6h-23.4V70.5h22.1l25.1,31.1V70.5H1067 M1070,67.5h-3h-23.4h-3v3v22.6
				l-19.8-24.5l-0.9-1.1h-1.4h-22.1h-3v3v70.6v3h3h23.4h3v-3v-24l20.9,25.9l0.9,1.1h1.4h21h3v-3V70.5V67.5L1070,67.5z"/>
		</g>
		<g>
			<path class="st3" d="M1113.1,144.1c-23.8,0-41.1-16-41.1-38.1v-0.2c0-21.8,17.4-38.3,40.4-38.3c11.8,0,22.1,3.7,30.5,11.1l1.1,1
				l-15.1,18.2l-1.2-1c-4.6-3.9-9.4-5.8-14.7-5.8c-8.3,0-14.3,6.4-14.3,15.1v0.2c0,9.2,6.2,15.3,15.3,15.3c3.4,0,5.3-0.5,6.6-1V116
				h-12.1V97.9h37.2v34.9l-0.6,0.4C1136.5,140.2,1125.1,144.1,1113.1,144.1z"/>
			<path class="st14" d="M1112.4,69c12.1,0,21.9,4,29.5,10.7l-13.2,15.9c-4.6-3.9-9.8-6.1-15.6-6.1c-9.2,0-15.8,7.1-15.8,16.6v0.2
				c0,10,7,16.8,16.8,16.8c4,0,6.2-0.6,8.1-1.6v-7.1H1110V99.4h34.2V132c-7.7,6.2-18.3,10.6-31.1,10.6c-22,0-39.6-14.7-39.6-36.6
				v-0.2C1073.4,84.7,1090.1,69,1112.4,69 M1112.4,66c-23.9,0-41.9,17.1-41.9,39.8v0.2c0,11.3,4.5,21.5,12.6,28.7
				c7.8,7,18.5,10.9,30,10.9c12.4,0,24.1-4,33-11.3l1.1-0.9V132V99.4v-3h-3H1132l12.2-14.7l1.9-2.3l-2.2-1.9
				C1135.1,69.9,1124.5,66,1112.4,66L1112.4,66z M1114.1,120.1c-8.3,0-13.8-5.6-13.8-13.8v-0.2c0-7.9,5.4-13.6,12.8-13.6
				c4.1,0,8,1.3,11.7,3.9H1110h-3v3v15.1v3h3h9.1v2.1C1118,119.9,1116.5,120.1,1114.1,120.1L1114.1,120.1z"/>
		</g>
		<g>
			<path class="st3" d="M1185.1,144c-23.7,0-36.2-12-36.2-34.6V69h27v40.1c0,7.2,3.2,11,9.4,11c6.2,0,9.4-3.5,9.4-10.5V69h27v39.9
				C1221.7,131.9,1209.1,144,1185.1,144z"/>
			<path class="st14" d="M1220.2,70.5v38.4c0,24.1-14,33.6-35.1,33.6c-21.1,0-34.7-9.7-34.7-33.1V70.5h24v38.6
				c0,8.8,4.5,12.5,10.9,12.5s10.9-3.4,10.9-12V70.5H1220.2 M1223.2,67.5h-3h-24h-3v3v39.1c0,6.1-2.5,9-7.9,9
				c-5.3,0-7.9-3.1-7.9-9.5V70.5v-3h-3h-24h-3v3v38.9c0,12.1,3.5,21.4,10.4,27.5c6.4,5.7,15.5,8.5,27.2,8.5
				c24.9,0,38.1-12.6,38.1-36.6V70.5V67.5L1223.2,67.5z"/>
		</g>
		<g>
			<rect x="1226.4" y="69" class="st3" width="26.6" height="73.6"/>
			<path class="st14" d="M1251.5,70.5v70.6h-23.6V70.5H1251.5 M1254.5,67.5h-3h-23.6h-3v3v70.6v3h3h23.6h3v-3V70.5V67.5L1254.5,67.5
				z"/>
		</g>
		<g>
			<polygon class="st3" points="1308.6,142.6 1284.6,112.8 1284.6,142.6 1258.2,142.6 1258.2,69 1282.5,69 1305.4,97.4 1305.4,69 
				1331.8,69 1331.8,142.6 			"/>
			<path class="st14" d="M1330.3,70.5v70.6h-21l-26.2-32.6v32.6h-23.4V70.5h22.1l25.1,31.1V70.5H1330.3 M1333.3,67.5h-3h-23.4h-3v3
				v22.6l-19.8-24.5l-0.9-1.1h-1.4h-22.1h-3v3v70.6v3h3h23.4h3v-3v-24L1307,143l0.9,1.1h1.4h21h3v-3V70.5V67.5L1333.3,67.5z"/>
		</g>
	</g>
	<path class="st21" d="M1394.4,213.8H18.9C8,213.8-0.8,205-0.8,194.1V19.6C-0.8,8.7,8-0.1,18.9-0.1h1375.5
		c10.9,0,19.7,8.8,19.7,19.7v174.5C1414.1,205,1405.3,213.8,1394.4,213.8z"/>
</g>
</svg>
