<?xml version="1.0" encoding="utf-8"?>
<!-- Generator: Adobe Illustrator 25.2.1, SVG Export Plug-In . SVG Version: 6.00 Build 0)  -->
<svg version="1.1" id="Layer_1" xmlns="http://www.w3.org/2000/svg" xmlns:xlink="http://www.w3.org/1999/xlink" x="0px" y="0px"
	 viewBox="0 0 1413.3 213.7" style="enable-background:new 0 0 1413.3 213.7;" xml:space="preserve">
<style type="text/css">
	.st0{display:none;opacity:0.59;}
	.st1{clip-path:url(#SVGID_2_);fill:url(#SVGID_3_);}
	.st2{clip-path:url(#SVGID_2_);}
	.st3{fill:#FFFFFF;}
	.st4{fill:#BCCDED;}
	.st5{fill:#D7E0F2;}
	.st6{fill:#4A81A0;}
	.st7{fill:#346384;}
	.st8{fill:#DAEEFF;}
	.st9{fill:url(#SVGID_4_);}
	.st10{fill:url(#SVGID_5_);}
	.st11{fill:#7373FF;}
	.st12{fill:#1A1B2D;}
	.st13{fill:#FF3333;}
	.st14{fill:#110E21;}
	.st15{fill:#010101;}
	.st16{fill:url(#SVGID_6_);}
	.st17{opacity:0.28;}
	.st18{fill:url(#SVGID_9_);}
	.st19{fill:#A4C8E4;}
	.st20{fill:#AED3F1;}
	.st21{clip-path:url(#SVGID_2_);fill:none;}
</style>
<g class="st0">
	
		<image style="display:inline;overflow:visible;" width="3569" height="640" xlink:href="556351DE.png"  transform="matrix(0.24 0 0 0.24 530.4724 26.2629)">
	</image>
</g>
<g>
	<defs>
		<path id="SVGID_1_" d="M1393.5,214.7H19.7C8.8,214.7,0,205.9,0,195V18.7C0,7.8,8.8-1.1,19.7-1.1h1373.8c10.9,0,19.7,8.8,19.7,19.7
			V195C1413.3,205.9,1404.4,214.7,1393.5,214.7z"/>
	</defs>
	<clipPath id="SVGID_2_">
		<use xlink:href="#SVGID_1_"  style="overflow:visible;"/>
	</clipPath>
	<linearGradient id="SVGID_3_" gradientUnits="userSpaceOnUse" x1="1042.731" y1="-565.3568" x2="756.5497" y2="7.0057">
		<stop  offset="0" style="stop-color:#FFA6DE"/>
		<stop  offset="1" style="stop-color:#63A4FF"/>
	</linearGradient>
	<path class="st1" d="M1393.5,213.7H19.7C8.8,213.7,0,204.9,0,194V19.7C0,8.8,8.8,0,19.7,0h1373.8c10.9,0,19.7,8.8,19.7,19.7V194
		C1413.3,204.9,1404.4,213.7,1393.5,213.7z"/>
	<g class="st2">
		<g>
			<polygon class="st3" points="729.4,134.1 427.5,257.7 398,232.8 398,232.6 429.5,129 520.8,33.7 631.5,60.3 652.3,114.1 
				700.6,110.9 			"/>
		</g>
		<polygon class="st4" points="628.2,65 590,103.2 604.1,135.9 650.1,121.4 		"/>
		<polygon class="st5" points="522.6,39.4 590.5,103.5 642.9,94.8 631.5,60.3 		"/>
		<polygon class="st6" points="701,109 669.5,147.8 526,199.4 403.5,230.5 432.5,255.6 479.3,253.1 500.1,306.8 607.9,334.6 
			621.3,276.1 633.1,258.3 656.2,255.2 675.3,234.6 709.4,220 714.1,151.6 724.5,138.3 		"/>
		<polygon class="st7" points="404,230.3 447.7,213.2 526.1,199.4 669.2,147.9 670.4,120.9 700.6,109.1 723.4,136.6 724.2,138.5 
			724.2,138.5 483.2,237.1 424.5,248.2 		"/>
		<polygon class="st7" points="500.9,318.7 540.5,278.4 527.8,249.1 480,264.9 		"/>
		<polygon class="st8" points="563.5,300.1 604.6,305.3 577.2,312.5 		"/>
		<path d="M426.5,263.8L392,234.6l1-3.5l31.8-104.9l94.2-98.3l116.3,27.9l20.4,52.8l46.5-3.1l41.3,36.3c-9.2,3.5-18.3,7-27.5,10.6
			c-1,0.4-4.7,39.7-4.7,39.7c-41.1,15.8-150.4,51.8-227.9,71.7c-1.4-3.6-2.8-7.2-4.2-10.8l0,0C479.3,253.1,440.5,258.4,426.5,263.8z
			 M404,231l24.4,20.6l56.4-8.5c1.1-0.5,10.1,21.1,10.1,21.1c23.1-10.1,151.6-33.7,205-65.1l3.1-51.9c0,0,5.5-2,21.4-8.9
			c-8.5-7.4-17.1-14.7-25.6-22.1l-50.1,3.3l-21.2-54.8L522.5,39.5l-88.3,92.2L404,231z"/>
	</g>
	<g class="st2">
		<g>
			<polygon class="st3" points="903.1,222.4 577.1,210.4 560.5,175.5 560.6,175.3 632,93.9 754.5,44.9 844.4,114.8 841.1,172.3 
				886.4,189.4 			"/>
		</g>
		<polygon class="st4" points="839.4,117.7 788.9,136.8 788.2,172.3 836.1,178.1 		"/>
		<polygon class="st5" points="753.8,50.7 789.2,137.2 839.4,117.7 		"/>
		<polygon class="st6" points="887.6,187.8 842.9,210.2 690.9,197.9 566.5,175.6 582.5,210.5 626.1,227.5 623,285.1 709.6,354.9 
			746,307.1 764.1,295.7 786.5,302.5 812.3,291.6 849.4,292.4 881.9,232.1 896.8,224.2 		"/>
		<polygon class="st7" points="567,175.7 613.8,178.1 691,197.9 842.6,210.2 858,183.5 887.2,187.8 896.6,222.2 896.6,224.3 
			896.6,224.3 636.3,214.5 578.3,200.4 		"/>
		<polygon class="st7" points="618.7,296.2 671.4,275.9 672,244 622,238.6 		"/>
		<polygon class="st8" points="683.4,305.1 718.7,326.8 690.8,322 		"/>
		<path d="M573.7,215.5l-19.4-40.8l2.3-2.7l72.3-82.4l126.4-50.7l94.4,73.4l-3.2,56.5l43.6,16.4l22.6,50.1
			c-9.8-0.6-19.6-1.1-29.4-1.7c-1-0.1-20.7,34.2-20.7,34.2c-44-2.6-158.3-14.9-237.2-28.8c0.2-3.8,0.4-7.7,0.6-11.5l0,0
			C626.1,227.5,588.7,216.4,573.7,215.5z M566.7,176.4l13.7,28.9l54.9,15.5c1.2,0,0.5,23.4,0.5,23.4c25.3,0.3,152,31.9,213.6,25.4
			l24.3-46c0,0,5.9,0.5,23.1,0.7c-4.7-10.2-9.5-20.5-14.2-30.7l-47-17.7l3.3-58.7l-85.3-66.4L635.1,98.3L566.7,176.4z"/>
	</g>
	<g class="st2">
		<linearGradient id="SVGID_4_" gradientUnits="userSpaceOnUse" x1="991.1747" y1="-49.0223" x2="835.2034" y2="267.6466">
			<stop  offset="0" style="stop-color:#F8EDFF"/>
			<stop  offset="0.1236" style="stop-color:#EAE5FF"/>
			<stop  offset="0.3554" style="stop-color:#C7CFFE"/>
			<stop  offset="0.6703" style="stop-color:#8DABFC"/>
			<stop  offset="1" style="stop-color:#4981FA"/>
		</linearGradient>
		<path class="st9" d="M411.4,140.9c-21.3,3.3-63.9,11.7-83.9,19.6c-24.3,9.5-62,28.2-44.4,41.9c6.8,5.3,41,7.4,49.6,8.2
			c16.1,1.5,45,1.8,61.1,3.3c5.8,0.5,12,1.2,16.5,4.9c13.6,10.9,5.7,41.2,23,43.9c17,2.7,20.6-28.4,37.5-31.4
			c17.1-3,23.6,41.5,40.1,46.8c12.2,3.9,16.9-45.1,37.1-44.1c20.2,1,16.2,28.1,28.5,28.7c12.3,0.6,18.1-23.2,39.2-21.6
			c31.4,2.4,83.5,13,113.2,23.5c25.4,9,52.8,24,77.7,13.6c11.4-4.8,20.3-14.4,31.8-19.2c12.2-5.1,34.5,13,47.7,13.9
			c23.2,1.7,37.8-13.9,60.9-12.3c10.4,0.7,22.8,2.8,27.2,12.3c1.8,3.9,5.9,23,8,26.8c7.1,12.6,21.8-10,35.2-15.7
			c23.5-10,50.3-6.8,75.6-3.4c17,2.3,35.6,5.4,47,18.3c7.3,8.3,15.2,21.5,25.4,17.1c6.6-2.8,8.7-12.2,15.5-14.5
			c9.1-3,15.8,8.6,18.4,17.9c4.4,15.9,8.9,31.8,13.3,47.7c2,7,6,15.6,13.2,15.1c6.8-0.5,9.9-8.6,11.4-15.2
			c4.2-18.6-2.4-56.4,12.5-55.7c15,0.7,15.7,29.7,31.6,29.6c19.2-0.1,6.6-53.6,21.3-52.9c14.7,0.7-2,40.3,16.3,41.2
			c18.3,0.9,26.2-33.9,51.9-45.2c5.1-2.3,52.3-7.5,55.7-11.9c11.1-14.2-26.9-39.4-41.3-50.2c-25.6-19.1-56.7-38.8-87.4-29.7
			c-17.1,5.1-31.1,18.6-48.6,21.9c-40,7.5-75.6-40.8-115.3-31.4c-8.4,2-16.1,6.5-24.5,8.5c-30.2,7-58.8-19.8-89.7-18.9
			c-15.4,0.5-29.7,7.8-44.8,10.3c-36.3,6-71.4-16-108.1-18.8c-59-4.6-117.5,40.3-173.9,22.3c-21.9-7-41.1-23.1-64-24.5
			c-19-1.1-37,8.1-55.8,11C518.1,181,466.5,134.8,411.4,140.9z"/>
	</g>
	<g class="st2">
		<linearGradient id="SVGID_5_" gradientUnits="userSpaceOnUse" x1="831.1106" y1="-34.6569" x2="675.1393" y2="282.012">
			<stop  offset="0" style="stop-color:#F8EDFF"/>
			<stop  offset="0.1236" style="stop-color:#EAE5FF"/>
			<stop  offset="0.3554" style="stop-color:#C7CFFE"/>
			<stop  offset="0.6703" style="stop-color:#8DABFC"/>
			<stop  offset="1" style="stop-color:#4981FA"/>
		</linearGradient>
		<path class="st10" d="M251.3,155.3c-21.3,3.3-63.9,11.7-83.9,19.6c-24.3,9.5-62,28.2-44.4,41.9c6.8,5.3,41,7.4,49.6,8.2
			c16.1,1.5,45,1.8,61.1,3.3c5.8,0.5,12,1.2,16.5,4.9c13.6,10.9,5.7,41.2,23,43.9c17,2.7,20.6-28.4,37.5-31.4
			c17.1-3,23.6,41.5,40.1,46.8c12.2,3.9,16.9-45.1,37.1-44.1c20.2,1,16.2,28.1,28.5,28.7c12.3,0.6,18.1-23.2,39.2-21.6
			c31.4,2.4,83.6,13,113.2,23.5c25.4,9,52.8,24,77.7,13.6c11.4-4.8,20.3-14.4,31.8-19.2c12.2-5.1,34.5,13,47.7,13.9
			c23.2,1.7,37.8-13.9,60.9-12.3c10.4,0.7,22.8,2.8,27.2,12.3c1.8,3.9,5.9,23,8,26.8c7.1,12.6,21.8-10,35.2-15.7
			c23.5-10,50.3-6.8,75.6-3.4c17,2.3,35.6,5.4,47,18.3c7.3,8.3,15.2,21.5,25.4,17.1c6.6-2.8,8.7-12.2,15.5-14.5
			c9.1-3,15.8,8.6,18.4,17.9c4.4,15.9,8.9,31.8,13.3,47.7c2,7,6,15.6,13.2,15.1c6.8-0.5,9.9-8.6,11.4-15.2
			c4.2-18.6-2.4-56.4,12.5-55.7c15,0.7,15.7,29.7,31.6,29.6c19.2-0.1,6.6-53.6,21.3-52.9c14.7,0.7-2,40.3,16.3,41.2
			c18.3,0.9,26.2-33.9,51.9-45.2c5.1-2.3,52.3-7.5,55.7-11.9c11.1-14.2-26.9-39.4-41.3-50.2c-25.6-19.1-56.7-38.8-87.4-29.7
			c-17.1,5.1-31.1,18.6-48.6,21.9c-40,7.5-75.6-40.8-115.3-31.4c-8.4,2-16.1,6.5-24.5,8.5c-30.2,7-58.8-19.8-89.7-18.9
			c-15.4,0.5-29.7,7.8-44.8,10.3c-36.3,6-71.4-16-108.1-18.8c-59-4.6-117.5,40.3-173.9,22.3c-21.9-7-41.1-23.1-64-24.5
			c-19-1.1-37,8.1-55.8,11C358.1,195.3,306.5,149.2,251.3,155.3z"/>
	</g>
	<g class="st2">
		<path class="st3" d="M148.6-3.4c48.3,22.5,63.7,54.6,78.7,122.6c7.3,24.1,14.2,62.4,18,99c-22.5-2.8-45.2-0.9-68-1.8
			c-12.5-0.5-25.4-1.5-37.7,1.7c-2.7,0.7-5.3,1.6-7.9,2.7c-8.4-11.5-18.5-25-36.1-41.8c-9.8-37.2,0.9-24.2-29.4-25.3
			c-4.2-1.7-7-5.8-11.5-21.9C26.3,63.1,78.7-3.5,148.6-3.4z"/>
		<path class="st11" d="M136.9-8C60.4-32.1-32.1,49.5-9,134.2c0.5,17.9,50.2,16.5,61.2,21.1c0,0,19.1,0.8,19.1,0.8l-8.8-9.6
			c-24-34.3-15-83.9,8.8-116c0,0,36-24.1,36-24.1C110.1,4.9,138.3-2.3,136.9-8z"/>
		<polygon class="st12" points="-7.1,143.1 38.1,156.1 86.6,156.1 95.7,179.1 117.7,202.6 120.8,208.9 102.1,220.9 90.8,241 
			74.1,237.3 41.7,220.3 31.8,216.6 12.1,218.3 		"/>
		<polygon class="st13" points="124.9,212.1 132.8,231.3 132.8,245 123.6,249 93.8,244.4 94.8,231.3 108.4,214 		"/>
		<polygon class="st12" points="240.6,143.4 247.6,151.9 238,158.3 234.8,143.4 		"/>
		<polygon class="st12" points="243,166.6 259.7,180.5 273.9,204.3 273.9,214.3 246.2,215.8 237,166.6 		"/>
		<path class="st14" d="M-14,131.4c0,0,11.2,47.3,21.1,88.7c1.9-1.5,5.3-2.2,8-1.6c-3.1-13.1-6.9-29-11.5-48.3
			c19.9,14.8,42.3,17.6,56.6,17.6c8.4,0,14-1,14.7-1.1l3-0.6l0.3-3c0.4-3.3,1.1-6.5,2.1-9.6c5.7,6.1,11.8,11.8,17.8,17.4
			c5.7,5.4,11.6,10.9,17,16.6c-5.9,2.8-13.1,7.4-19.1,15.2c-3.5,4.6-6.2,9.7-8.1,15.2c-8.8-3.6-16.8-7.4-21.2-9.5
			c-1.3-0.6-2.5-1.2-3.3-1.6c-9.6-4.5-20.6-9.8-28.8-14.2c-1.5,1-1,2.6-3.3,2.6c-0.8,0-1.6-0.1-2.3-0.2c-0.5,1.8,0.3,3.7,2,4.6
			c9,4.9,18.5,9.7,29,14.6c0.8,0.4,1.9,0.9,3.2,1.5c17.3,8.3,37.5,17.1,52.8,18.6c5.7,0.6,10.8,0.1,14.7-1.7c4.2-2,7-5.4,8.1-10
			c3.8-15.3-7.1-29.4-17-39.9c-5.9-6.2-12.1-12.1-18.2-17.8c-0.5-0.5-1.1-1-1.6-1.5c-1.6-5.9-11.1-33.5-11.1-33.5l-3.4,0.6
			c-5.9,0.9-11.8,1.5-17.7,1.8c-0.1-0.6-0.3-1.1-0.7-1.6c-8.2-10.4-13.5-21.5-15.8-33C39.7,53.3,86.9,0.1,150,0.8
			c32.5,13.8,57.9,42.8,65.5,79.9l27,132.3c2.8-0.1,5.6,0.1,8.4,0.4c0,0-4.1-20-9.1-44.6c9.9,7.8,26.3,24,29.7,46.9
			c1.2,0,2.4-0.1,3.6-0.3c1.7-0.2,3.4,0.2,4.8,1.1c-3.3-28.4-23.8-47.3-34.8-55.5l7.6-2.8c1.3-0.5,2.3-1.6,2.6-2.9
			c0.3-1.3-0.1-2.8-1-3.7l-20.4-21.5c-5.6-27.4-10.4-51-10.4-51c-7.8-40-37.1-73.9-75.2-87.9C95.9-28.3,31.3-8.2,1.6,39.8
			C-15.9,67.2-21.4,99.7-14,131.4z M244.1,152.8l-5.2,1.9c-0.6-3.1-1.3-6.3-1.9-9.4L244.1,152.8z M120.9,214
			c6.9,8.3,12.3,17.5,10,26.7c-0.6,2.2-1.7,3.7-3.7,4.6c-6.6,3.1-19.3,0.1-31.6-4.4c1.3-4,3.4-8.6,6.9-13.2
			C108.4,220.2,115.5,216.1,120.9,214z M83.8,165.3c0.7-1.3,1.5-2.6,2.3-3.8l3.2,9.6C87.4,169.2,85.6,167.3,83.8,165.3z M-1.3,149.1
			c11.7,4.5,23.9,7.8,36.3,9.6c14,2.1,28.3,2.5,42.4,1.2c-0.4,0.7-0.9,1.5-1.3,2.3c-2.8,5.3-4.6,10.9-5.6,16.8
			c-10.1,1.1-44.7,2.6-70.1-22.3C-0.1,154.3-0.7,151.7-1.3,149.1z M8.5,44.2C33.3,4.1,84.2-15.1,129.8-5.6
			C70.2,3.7,32.5,58.3,45.2,119.3c2.3,11.6,7.4,22.8,15,33.3c-8,0-16.1-0.7-24-1.9c-13.7-2.1-27.1-5.9-39.9-11.3
			c-0.8-3.2-1.6-6.5-2.4-9.9C-13,100-7.8,69.7,8.5,44.2z"/>
		<g>
			<path class="st15" d="M205.5,97.6l-47.7-3.3c-1-2.2-1.8-4.6-2.3-7c-3.7-18.4,8.1-36.3,26.5-40s36.3,8.1,40,26.5
				c3.7,18.4-8.1,36.3-26.5,40c-6.8,1.4-13.5,0.6-19.4-1.8L205.5,97.6z"/>
		</g>
		<g>
			<circle class="st3" cx="179.2" cy="71.3" r="11"/>
		</g>
		<g>
			
				<ellipse transform="matrix(0.9798 -0.1999 0.1999 0.9798 -16.0091 22.5052)" class="st15" cx="103.4" cy="90.5" rx="32.7" ry="29"/>
		</g>
		<g>
			<circle class="st3" cx="94.3" cy="85.3" r="10.7"/>
		</g>
		<g>
			<path class="st15" d="M148.6,61.4l91.8-16.1l-3.5,52.3l-65.6,9.5c-2.3-6.4-8.6-22-15.3-25c-1.3-0.6-2.6-0.7-3.8-0.5
				c-1.2,0.2-2.4,0.8-3.4,1.7c-5.3,5.1-5.9,21.9-5.9,28.7l-64.9,13.3l-21.1-48L148.6,61.4z"/>
		</g>
		<g>
			<path class="st15" d="M71.6,93.5l-7.2-11.1l-52.6,3.9l1.9,19.1l9.8-0.4l-0.9-4.1c-0.2-0.9,0-1.8,0.5-2.5c0.5-0.7,1.3-1.2,2.2-1.2
				L71.6,93.5z"/>
		</g>
		<g>
			
				<linearGradient id="SVGID_6_" gradientUnits="userSpaceOnUse" x1="213.6048" y1="153.3191" x2="190.5694" y2="103.2171" gradientTransform="matrix(-1 0 0 1 372.6868 0)">
				<stop  offset="0" style="stop-color:#A5417B"/>
				<stop  offset="1" style="stop-color:#E8403F"/>
			</linearGradient>
			<path class="st16" d="M168.8,125.8c7.4-0.4,14.6-2.3,21.2-5.6c11.3-5.6,18.3-13.9,22.2-19.8l1.3-2l-1.2-2.2l-1.2-2.1l-2.5,0h-0.9
				l-0.8,0.3c-7.3,3.2-15.3,4.9-23.1,4.9c-0.6,0-1.2,0-1.9,0c-7-0.2-13.8-1.7-20.3-4.4l-0.8-0.3l-2.6,0l-1.3,1.3l-1.2,1.2l0,1.8
				c0.1,3.6,0.6,7.2,1.6,10.7c1.6,5.5,4.2,10.5,7.7,14.8l1.2,1.5l2,0L168.8,125.8z"/>
		</g>
		<g>
			<path d="M208.6,98c0.1,0,0.1,0.1,0.1,0.1c-2.8,4.3-9.2,12.8-20.6,18.4c-7.8,3.9-15.1,4.9-19.6,5.2c0,0,0,0,0,0c0,0-0.1,0-0.1,0
				c-3.1-3.8-5.5-8.4-7-13.4c-0.9-3.2-1.4-6.5-1.5-9.7c0-0.1,0-0.1,0.1-0.1c0,0,0,0,0,0c4.8,2,12.3,4.4,21.7,4.7c0.7,0,1.3,0,2,0
				C195,103.3,203.7,100.2,208.6,98C208.6,98.1,208.6,98,208.6,98 M208.6,89.9l-1.8,0l-1.6,0.7c-6.8,3-14.2,4.5-21.5,4.5
				c-0.6,0-1.2,0-1.7,0c-6.5-0.2-12.8-1.6-18.8-4.1l-1.6-0.6h-1.6c-2.2,0-4.4,0.9-5.9,2.5l-2.4,2.5l0.1,3.4c0.1,4,0.7,8,1.8,11.8
				c1.7,6,4.6,11.5,8.5,16.3l2.5,3.1h3.9l0.3,0l0.2,0c8-0.5,15.7-2.5,22.8-6c12.2-6,19.7-14.9,23.8-21.3l2.6-4.2l-2.3-4.3l-2.4-4.3
				H208.6L208.6,89.9z"/>
		</g>
		<g class="st17">
			<defs>
				<path id="SVGID_7_" class="st17" d="M148.6,61.4l91.8-16.1l-3.5,52.3l-65.6,9.5c-2.3-6.4-8.6-22-15.3-25
					c-1.3-0.6-2.6-0.7-3.8-0.5c-1.2,0.2-2.4,0.8-3.4,1.7c-5.3,5.1-5.9,21.9-5.9,28.7l-64.9,13.3l-21.1-48L148.6,61.4z"/>
			</defs>
			<clipPath id="SVGID_8_">
				<use xlink:href="#SVGID_7_"  style="overflow:visible;"/>
			</clipPath>
		</g>
		<path class="st11" d="M160,98.6c0-0.1,0-0.1,0.1-0.1c0,0,0,0,0,0c4.8,2,12.3,4.4,21.7,4.7c0.7,0,1.3,0,2,0c11.1,0,19.8-3,24.8-5.2
			c0,0,0,0,0,0c0.1,0,0.1,0.1,0.1,0.1c-2.8,4.3-9.2,12.8-20.6,18.4c-7.8,3.9-15.1,4.9-19.6,5.2c0,0,0,0,0,0c0,0-0.1,0-0.1,0
			c-3.1-3.8-5.5-8.4-7-13.4C160.5,105.1,160.1,101.8,160,98.6z"/>
	</g>
	<g class="st2">
		<path class="st3" d="M350.9-17.7c-53.2,24.8-70.1,60.1-86.7,135.1c-8.1,26.5-15.7,68.7-19.8,109.1c24.8-3,49.7-1,74.9-1.9
			c13.8-0.5,28-1.7,41.5,1.9c3,0.8,5.8,1.8,8.7,3c9.3-12.6,20.3-27.5,39.7-46c10.8-40.9-1-26.6,32.3-27.9c4.6-1.9,7.7-6.4,12.7-24.1
			C485.6,55.5,427.9-17.9,350.9-17.7z"/>
		<path class="st13" d="M363.8-22.8C448.2-49.4,550,40.5,524.6,133.8c-0.6,19.7-55.3,18.2-67.4,23.3c0,0-21,0.8-21,0.8l9.6-10.6
			c26.5-37.8,16.5-92.4-9.7-127.8c0,0-39.7-26.6-39.7-26.6C393.3-8.6,362.3-16.5,363.8-22.8z"/>
		<polygon class="st12" points="522.4,143.7 472.7,157.9 419.3,157.9 409.2,183.3 385,209.2 381.6,216.1 402.2,229.3 414.6,251.5 
			433,247.4 468.7,228.6 479.6,224.6 501.3,226.4 		"/>
		<polygon class="st13" points="377,219.7 368.4,240.8 368.4,255.8 378.5,260.3 411.3,255.2 410.2,240.8 395.2,221.7 		"/>
		<polygon class="st12" points="249.7,144 241.9,153.3 252.5,160.3 256,144 		"/>
		<polygon class="st12" points="247,169.5 228.6,184.8 213,211 213,222 243.4,223.7 253.6,169.5 		"/>
		<path class="st14" d="M512.9,29.8C480.2-23,409-45.2,351.4-23.6c-42.1,15.5-74.2,52.7-82.9,96.8c0,0-5.3,26-11.5,56.2l-22.5,23.7
			c-1,1.1-1.5,2.7-1.1,4.1c0.3,1.5,1.4,2.7,2.8,3.2l8.4,3.1c-12.1,9-34.7,29.9-38.3,61.1c1.6-0.9,3.4-1.4,5.3-1.2
			c1.3,0.2,2.6,0.3,3.9,0.3c3.8-25.2,21.9-43,32.8-51.6c-5.5,27.1-10,49.1-10,49.1c3.1-0.4,6.2-0.6,9.3-0.5L277.3,75
			c8.3-40.9,36.3-72.8,72.1-88.1c69.5-0.8,121.5,57.8,106.6,128.8c-2.6,12.6-8.4,24.9-17.5,36.4c-0.4,0.5-0.7,1.1-0.8,1.7
			c-6.5-0.3-13-1-19.5-2l-3.8-0.6c0,0-10.5,30.5-12.2,36.9c-0.6,0.6-1.2,1.1-1.8,1.7c-6.7,6.3-13.6,12.8-20.1,19.6
			c-10.9,11.6-22.9,27.1-18.7,44c1.3,5,4.4,8.9,9,11c4.4,2,9.9,2.5,16.2,1.9c16.9-1.7,39.1-11.3,58.1-20.5c1.4-0.7,2.6-1.3,3.6-1.7
			c11.6-5.4,22.1-10.7,32-16.1c1.9-1,2.7-3.1,2.2-5.1c-0.8,0.2-1.6,0.3-2.5,0.3c-2.5,0-2-1.8-3.7-2.9c-9.1,4.9-21.2,10.8-31.8,15.7
			c-1,0.4-2.2,1-3.7,1.8c-4.9,2.4-13.7,6.6-23.4,10.5c-2-6.1-5-11.8-8.9-16.8c-6.6-8.6-14.5-13.7-21-16.8c6-6.3,12.5-12.4,18.8-18.3
			c6.5-6.1,13.2-12.5,19.6-19.2c1.1,3.4,1.9,6.9,2.3,10.5l0.4,3.3l3.3,0.6c0.7,0.1,6.9,1.2,16.2,1.2c15.7,0,40.4-3.2,62.3-19.4
			c-5.1,21.3-9.2,38.8-12.6,53.2c3-0.6,6.8,0.1,8.8,1.8c10.8-45.6,23.2-97.7,23.2-97.7C538.3,95.8,532.2,60,512.9,29.8z M253.6,146
			c-0.7,3.5-1.4,6.9-2.1,10.4l-5.7-2.1L253.6,146z M401.7,236.9c3.9,5,6.2,10.1,7.6,14.5c-13.6,4.9-27.5,8.2-34.8,4.8
			c-2.2-1-3.4-2.6-4.1-5c-2.5-10.2,3.4-20.3,11.1-29.5C387.4,224.1,395.3,228.5,401.7,236.9z M416.3,174.5l3.5-10.6
			c0.9,1.4,1.8,2.8,2.6,4.2C420.3,170.2,418.3,172.4,416.3,174.5z M514.1,158.6c-28,27.5-66,25.7-77.2,24.5
			c-1.1-6.5-3.1-12.7-6.2-18.5c-0.4-0.8-0.9-1.7-1.4-2.5c15.6,1.5,31.3,1,46.7-1.3c13.7-2.1,27.1-5.7,40-10.6
			C515.4,153.1,514.8,155.9,514.1,158.6z M521.2,128.6c-0.9,3.7-1.7,7.3-2.6,10.9c-14.1,6-28.8,10.2-43.9,12.5
			c-8.8,1.3-17.6,2-26.5,2.1c8.4-11.6,14-23.9,16.5-36.7c14-67.1-27.5-127.3-93.1-137.5c50.2-10.5,106.2,10.7,133.6,54.8
			C523.3,62.8,528.9,96.2,521.2,128.6z"/>
		<g>
			<path class="st15" d="M288.3,93.5l52.6-3.6c1.1-2.4,1.9-5,2.5-7.8c4.1-20.2-8.9-39.9-29.1-44.1s-39.9,8.9-44.1,29.1
				c-4.1,20.2,8.9,39.9,29.1,44.1c7.5,1.5,14.9,0.7,21.4-2L288.3,93.5z"/>
		</g>
		<g>
			<circle class="st3" cx="317.3" cy="64.5" r="12.2"/>
		</g>
		<g>
			<circle class="st15" cx="399.9" cy="89.7" r="36.1"/>
		</g>
		<g>
			<circle class="st3" cx="410.8" cy="80" r="11.7"/>
		</g>
		<g>
			<path class="st15" d="M346.8,70.1L245.7,52.3l3.9,57.6l72.2,10.5c2.6-7,9.5-24.2,16.9-27.5c1.4-0.6,2.8-0.8,4.2-0.5
				c1.4,0.2,2.6,0.8,3.7,1.9c5.9,5.6,6.5,24.1,6.5,31.6l71.5,14.7l23.2-52.9L346.8,70.1z"/>
		</g>
		<g>
			<path class="st15" d="M436.2,109.3l5.6-13.5l57.8-6.1l1.7,21.1l-10.7,1.5l0.2-4.7c0-1-0.4-1.9-1.1-2.6c-0.7-0.7-1.7-1-2.6-0.9
				L436.2,109.3z"/>
		</g>
		<g>
			<linearGradient id="SVGID_9_" gradientUnits="userSpaceOnUse" x1="339.4205" y1="154.8733" x2="314.0483" y2="99.6888">
				<stop  offset="0" style="stop-color:#A5417B"/>
				<stop  offset="1" style="stop-color:#E8403F"/>
			</linearGradient>
			<path class="st18" d="M328.7,124.6c-8.2-0.5-16-2.6-23.3-6.2c-12.5-6.2-20.2-15.3-24.4-21.8l-1.5-2.3l1.3-2.5l1.3-2.3l2.8-0.1
				h0.9l0.9,0.4c8,3.5,16.8,5.3,25.5,5.3c0.7,0,1.4,0,2.1,0c7.7-0.3,15.2-1.9,22.3-4.9l0.8-0.3l2.8,0l1.4,1.4l1.3,1.4l0,2
				c-0.1,4-0.7,8-1.8,11.8c-1.7,6-4.6,11.5-8.5,16.4l-1.4,1.7l-2.2,0L328.7,124.6z"/>
		</g>
		<g>
			<path d="M284.8,94C284.8,94,284.9,94,284.8,94c5.5,2.4,15.1,5.7,27.3,5.7c0.7,0,1.5,0,2.2,0c10.4-0.3,18.7-3,23.9-5.2
				c0,0,0,0,0,0c0.1,0,0.1,0.1,0.1,0.1c-0.1,3.5-0.6,7.1-1.6,10.7c-1.6,5.6-4.3,10.5-7.7,14.8c0,0,0,0-0.1,0c0,0,0,0,0,0
				c-5-0.3-13-1.4-21.6-5.7c-12.6-6.2-19.6-15.5-22.6-20.2C284.7,94.1,284.8,94,284.8,94 M284.8,85h-5.4l-2.7,4.8l-2.6,4.7l2.9,4.6
				c4.6,7,12.8,16.8,26.2,23.4c7.8,3.9,16.3,6.1,25.1,6.6l0.3,0l0.3,0h4.3l2.8-3.4c4.3-5.3,7.4-11.3,9.3-17.9c1.2-4.2,1.9-8.6,2-13
				l0.1-3.8l-2.7-2.8c-1.7-1.7-4.1-2.7-6.5-2.7h-1.8l-1.7,0.7c-6.6,2.8-13.6,4.3-20.7,4.5c-0.6,0-1.3,0-1.9,0c-8,0-16.2-1.7-23.7-5
				l-1.7-0.8L284.8,85L284.8,85z"/>
		</g>
		<g class="st17">
			<defs>
				<path id="SVGID_10_" class="st17" d="M346.8,70.1L245.7,52.3l3.9,57.6l72.2,10.5c2.6-7,9.5-24.2,16.9-27.5
					c1.4-0.6,2.8-0.8,4.2-0.5c1.4,0.2,2.6,0.8,3.7,1.9c5.9,5.6,6.5,24.1,6.5,31.6l71.5,14.7l23.2-52.9L346.8,70.1z"/>
			</defs>
			<clipPath id="SVGID_11_">
				<use xlink:href="#SVGID_10_"  style="overflow:visible;"/>
			</clipPath>
		</g>
		<path class="st13" d="M338.4,94.6c0-0.1-0.1-0.1-0.1-0.1c0,0,0,0,0,0c-5.2,2.2-13.5,4.9-23.9,5.2c-0.7,0-1.5,0-2.2,0
			c-12.3,0-21.8-3.4-27.3-5.7c0,0,0,0,0,0c-0.1,0-0.1,0.1-0.1,0.2c3.1,4.7,10.1,14.1,22.6,20.2c8.6,4.3,16.6,5.4,21.6,5.7
			c0,0,0,0,0,0c0,0,0.1,0,0.1,0c3.4-4.2,6.1-9.2,7.7-14.8C337.8,101.7,338.3,98.1,338.4,94.6z"/>
	</g>
	<g class="st2">
		<g>
			<polygon class="st3" points="1342.8,311.1 1259.8,207.1 1329.6,168.6 1337.5,128.8 1382.7,82.3 1519.5,103.3 1554.5,157.5 
				1564.6,285 1448.2,339.5 			"/>
			<path d="M1384.3,87.1l132.6,20.3l33.3,51.6l9.7,123.2l-112.1,52.5l-102.4-27.6l-78.7-98.7l67-37l8-40.5L1384.3,87.1 M1381,77.5
				l-3.2,3.3l-42.6,43.9l-1.8,1.9l-0.5,2.6l-7.2,36.4l-63.3,34.9l-9.3,5.2l6.6,8.3l78.7,98.7l1.8,2.3l2.9,0.8l102.4,27.6l3.2,0.9
				l3-1.4l112.1-52.5l5.6-2.6l-0.5-6.2l-9.7-123.2l-0.2-2.3l-1.2-1.9l-33.3-51.6l-2.2-3.4l-4-0.6l-132.6-20.3L1381,77.5L1381,77.5z"
				/>
		</g>
		<polygon class="st19" points="1447.8,334.8 1559.9,282.3 1550.1,159 1549.6,158.3 1516.8,107.4 1470.7,167.3 1465.2,207 
			1456.7,269.3 1450.3,316.2 		"/>
		<polygon class="st20" points="1456.7,269.3 1554.6,215.5 1550.1,159 1549.6,158.3 1465.2,207 		"/>
		<polygon class="st20" points="1447.8,334.8 1559.9,282.3 1557.6,254.2 1450.3,316.2 		"/>
		<polygon class="st20" points="1503,239.5 1557.6,254.2 1532.4,269.7 1477.4,250 		"/>
		<polygon class="st8" points="1384.3,87.1 1470.7,167.3 1516.8,107.4 		"/>
		<polygon class="st19" points="1489.7,142.7 1498,132.1 1482,114.9 1504.2,126.7 		"/>
		<polygon class="st4" points="1266.7,208.4 1330.8,198.7 1330.8,198.7 1336,197.6 1333.7,171.5 		"/>
	</g>
	<g class="st2">
		<g>
			<polygon class="st3" points="1049.5,314.8 1034.8,251.9 1114.7,138.8 1179.6,138.7 1213.6,160.6 1289.9,137.1 1307.1,269.1 
				1254.3,364.7 1134.2,410.5 			"/>
			<path d="M1286.1,143l16.4,125.2l-51.3,92.9l-115.6,44.2l-81.9-92.6l-14-59.8l77.4-109.5l61.2-0.1l34.7,22.3L1286.1,143
				 M1293.6,131.3l-10.2,3.1l-69.1,21.3l-31.2-20.1l-2.2-1.4l-2.7,0l-61.2,0.1l-4.6,0l-2.7,3.8l-77.4,109.5l-2.3,3.3l0.9,3.9
				l14,59.8l0.5,2.2l1.5,1.7l81.9,92.6l4.1,4.7l5.8-2.2l115.6-44.2l3.1-1.2l1.6-2.9l51.3-92.9l1.4-2.6l-0.4-2.9L1295,141.8
				L1293.6,131.3L1293.6,131.3z"/>
		</g>
		<polygon class="st19" points="1251.2,361 1135.6,405.2 1053.7,312.6 1053.4,311.7 1039.6,252.8 1114.8,261.2 1147.1,284.9 
			1197.9,322 1236.1,350 		"/>
		<polygon class="st20" points="1197.9,322 1091.2,355 1053.7,312.6 1053.4,311.7 1147.1,284.9 		"/>
		<polygon class="st20" points="1251.2,361 1135.6,405.2 1116.9,384.2 1236.1,350 		"/>
		<polygon class="st20" points="1144.3,334.6 1116.9,384.2 1145.6,376.7 1169.6,323.5 		"/>
		<polygon class="st5" points="1117.1,143.3 1114.8,261.2 1039.6,252.8 		"/>
		<polygon class="st19" points="1083.8,257.8 1070.5,256.4 1069.2,233 1062.3,257.1 		"/>
		<polygon class="st20" points="1147.1,284.9 1221,297.4 1159.4,295.1 		"/>
		<polygon class="st4" points="1286.1,143 1234.5,182.4 1234.5,182.4 1230.1,185.3 1213,165.5 		"/>
	</g>
	<g class="st2">
		<g>
			<path class="st3" d="M589.8,143.6c-21.7,0-38-16.4-38-38v-0.2c0-21.8,16.7-38.2,39-38.2c14.6,0,26.4,6.8,33.2,19.1l0.7,1.3
				l-22.1,12.9l-0.7-1.4c-2.8-5.4-6.3-7.7-11.5-7.7c-6.8,0-11.7,5.8-11.7,13.9v0.2c0,8.3,4.8,14.1,11.7,14.1c5.2,0,8.8-2.4,12-8.1
				l0.7-1.3l22.1,12.5l-0.7,1.3C617,137,605.4,143.6,589.8,143.6z"/>
			<path class="st12" d="M590.8,68.6c15.5,0,26,7.6,31.9,18.3l-19.4,11.4c-2.6-5-6.3-8.6-12.8-8.6c-8,0-13.2,6.9-13.2,15.4v0.2
				c0,9.2,5.4,15.6,13.2,15.6c6.6,0,10.4-3.6,13.3-8.9l19.4,11c-5.9,10.5-15.8,19-33.3,19c-19.5,0-36.5-14.7-36.5-36.5v-0.2
				C553.3,84.3,569.7,68.6,590.8,68.6 M590.8,65.6c-11,0-21.2,4-28.7,11.3c-7.6,7.4-11.7,17.5-11.7,28.4v0.2
				c0,11.1,4.2,21.3,11.9,28.6c7.4,7,17.2,10.9,27.7,10.9c16.1,0,28.2-6.9,35.9-20.5l1.5-2.6l-2.6-1.5l-19.4-11l-2.6-1.5l-1.5,2.6
				c-2.9,5.2-6,7.3-10.7,7.3c-6.1,0-10.2-5.1-10.2-12.6v-0.2c0-6.2,3.5-12.4,10.2-12.4c4.6,0,7.6,2.1,10.1,6.9l1.5,2.8l2.7-1.6
				l19.4-11.4l2.5-1.5l-1.4-2.6C618.2,72.7,606,65.6,590.8,65.6L590.8,65.6z"/>
		</g>
		<g>
			<polygon class="st3" points="626.2,142.1 626.2,68.7 652.8,68.7 652.8,119 685.9,119 685.9,142.1 			"/>
			<path class="st12" d="M651.3,70.2v50.3h33.1v20.1h-56.7V70.2H651.3 M654.3,67.2h-3h-23.6h-3v3v70.5v3h3h56.7h3v-3v-20.1v-3h-3
				h-30.1V70.2V67.2L654.3,67.2z"/>
		</g>
		<g>
			<path class="st3" d="M721.5,143.5c-23.6,0-36.1-11.9-36.1-34.5V68.7h27v40.1c0,7.2,3.2,11,9.4,11c6.2,0,9.4-3.5,9.4-10.5V68.7h27
				v39.9C758.1,131.4,745.4,143.5,721.5,143.5z"/>
			<path class="st12" d="M756.6,70.2v38.4c0,24.1-14,33.5-35,33.5c-21,0-34.6-9.7-34.6-33V70.2h24v38.6c0,8.8,4.5,12.5,10.9,12.5
				s10.9-3.4,10.9-12V70.2H756.6 M759.6,67.2h-3h-24h-3v3v39.1c0,6.1-2.5,9-7.9,9c-5.3,0-7.9-3.1-7.9-9.5V70.2v-3h-3h-24h-3v3V109
				c0,12.1,3.5,21.4,10.4,27.5c6.4,5.6,15.5,8.5,27.2,8.5c24.9,0,38-12.6,38-36.5V70.2V67.2L759.6,67.2z"/>
		</g>
		<g>
			<path class="st3" d="M762.5,142.1V68.7h41c9.8,0,16.5,2.2,21.1,6.8c3.1,3.1,4.8,7.3,4.8,12v0.2c0,7.1-3.4,12.6-9.9,16
				c8.2,3.4,12.2,9,12.2,17.3v0.2c0,13-11,21-28.6,21H762.5z M798.8,121.3c1.9,0,6.3-0.4,6.3-3.6v-0.2c0-3.3-4.3-3.6-6.2-3.6h-10.4
				v7.5H798.8z M797.3,96.3c6,0,6-2.4,6-3.3v-0.2c0-0.8,0-3.3-6.1-3.3h-8.7v6.9H797.3z"/>
			<path class="st12" d="M803.5,70.2c9.8,0,15.9,2.2,20,6.3c2.5,2.5,4.3,6.1,4.3,11v0.2c0,8.4-5,13.5-12.6,16.1
				c9.1,2.6,14.9,7.5,14.9,17.1v0.2c0,11.3-9.3,19.5-27.1,19.5H764V70.2H803.5 M787,97.8h10.3c5,0,7.5-1.7,7.5-4.8v-0.2
				c0-3.1-2.5-4.8-7.6-4.8H787V97.8 M787,122.8h11.8c5.1,0,7.8-2.1,7.8-5.1v-0.2c0-3-2.5-5.1-7.7-5.1H787V122.8 M803.5,67.2H764h-3
				v3v70.5v3h3h39.1c9.2,0,16.8-2.1,22-6.2c5.3-4,8-9.7,8-16.4v-0.2c0-8-3.5-13.7-10.5-17.4c5.4-3.7,8.2-9.1,8.2-15.8v-0.2
				c0-5.2-1.8-9.7-5.2-13.1C820.7,69.4,813.7,67.2,803.5,67.2L803.5,67.2z M790,91h7.2c3,0,4.6,0.6,4.6,1.8V93c0,0.5,0,1.8-4.5,1.8
				H790V91L790,91z M790,115.3h8.9c1.4,0,4.7,0.2,4.7,2.1v0.2c0,2-3.6,2.1-4.8,2.1H790V115.3L790,115.3z"/>
		</g>
		<g>
			<path class="st3" d="M859.4,142.1V68.7h33.2c20.7,0,33,9.9,33,26.6v0.2c0,17-12.8,27.6-33.5,27.6h-6.2v19.1H859.4z M890.8,103.2
				c2.6,0,8.6-0.6,8.6-6.3v-0.2c0-4.1-2.8-6.3-8.5-6.3h-4.9v12.7H890.8z"/>
			<path class="st12" d="M892.6,70.2c18.7,0,31.5,8.4,31.5,25.1v0.2c0,17-13,26.1-32,26.1h-7.7v19.1h-23.6V70.2H892.6 M884.4,104.7
				h6.3c6,0,10.1-2.7,10.1-7.8v-0.2c0-5.1-3.7-7.8-10-7.8h-6.4V104.7 M892.6,67.2h-31.7h-3v3v70.5v3h3h23.6h3v-3v-16.1h4.7
				c21.6,0,35-11.1,35-29.1v-0.2C927.1,77.6,914.2,67.2,892.6,67.2L892.6,67.2z M887.4,92h3.4c7,0,7,3.5,7,4.8v0.2
				c0,4.1-4.4,4.8-7.1,4.8h-3.3V92L887.4,92z"/>
		</g>
		<g>
			<polygon class="st3" points="927.6,142.1 927.6,68.7 990.7,68.7 990.7,91 953.8,91 953.8,95.1 988.2,95.1 988.2,115.1 
				953.8,115.1 953.8,119.8 991.3,119.8 991.3,142.1 			"/>
			<path class="st12" d="M989.2,70.2v19.3h-36.9v7.1h34.4v17h-34.4v7.7h37.5v19.3h-60.6V70.2H989.2 M992.2,67.2h-3h-60.1h-3v3v70.5
				v3h3h60.6h3v-3v-19.3v-3h-3h-34.5v-1.7h31.4h3v-3v-17v-3h-3h-31.4v-1.1h33.9h3v-3V70.2V67.2L992.2,67.2z"/>
		</g>
		<g>
			<polygon class="st3" points="1044.9,142.1 1021,112.4 1021,142.1 994.6,142.1 994.6,68.7 1018.9,68.7 1041.7,97 1041.7,68.7 
				1068.1,68.7 1068.1,142.1 			"/>
			<path class="st12" d="M1066.6,70.2v70.5h-20.9l-26.2-32.5v32.5h-23.4V70.2h22l25.1,31.1V70.2H1066.6 M1069.6,67.2h-3h-23.4h-3v3
				v22.6l-19.7-24.5l-0.9-1.1h-1.4h-22h-3v3v70.5v3h3h23.4h3v-3v-24l20.8,25.9l0.9,1.1h1.4h20.9h3v-3V70.2V67.2L1069.6,67.2z"/>
		</g>
		<g>
			<path class="st3" d="M1112.6,143.6c-23.8,0-41.1-16-41.1-38v-0.2c0-21.8,17.4-38.2,40.4-38.2c11.8,0,22,3.7,30.5,11l1.1,1
				l-15.1,18.2l-1.2-1c-4.6-3.9-9.4-5.8-14.6-5.8c-8.3,0-14.3,6.4-14.3,15.1v0.2c0,9.2,6.2,15.3,15.3,15.3c3.4,0,5.3-0.5,6.6-1v-4.6
				h-12.1V97.4h37.1v34.8l-0.6,0.5C1136,139.8,1124.6,143.6,1112.6,143.6z"/>
			<path class="st12" d="M1111.9,68.6c12.1,0,21.8,4,29.5,10.7l-13.2,15.9c-4.6-3.9-9.8-6.1-15.6-6.1c-9.2,0-15.8,7-15.8,16.6v0.2
				c0,10,6.9,16.8,16.8,16.8c4,0,6.2-0.6,8.1-1.6v-7h-12.1V98.9h34.1v32.6c-7.7,6.2-18.3,10.6-31.1,10.6
				c-21.9,0-39.6-14.7-39.6-36.5v-0.2C1073,84.3,1089.6,68.6,1111.9,68.6 M1111.9,65.6c-23.9,0-41.9,17.1-41.9,39.7v0.2
				c0,11.3,4.5,21.4,12.6,28.7c7.8,7,18.5,10.8,30,10.8c12.4,0,24.1-4,33-11.2l1.1-0.9v-1.4V98.9v-3h-3h-12.2l12.2-14.7l1.9-2.3
				l-2.2-1.9C1134.6,69.5,1124,65.6,1111.9,65.6L1111.9,65.6z M1113.6,119.7c-8.3,0-13.8-5.6-13.8-13.8v-0.2
				c0-7.9,5.4-13.6,12.8-13.6c4.1,0,8,1.3,11.6,3.9h-14.7h-3v3V114v3h3h9.1v2.1C1117.6,119.5,1116,119.7,1113.6,119.7L1113.6,119.7z
				"/>
		</g>
		<g>
			<path class="st3" d="M1184.6,143.5c-23.6,0-36.1-11.9-36.1-34.5V68.7h27v40.1c0,7.2,3.2,11,9.4,11c6.2,0,9.4-3.5,9.4-10.5V68.7
				h27v39.9C1221.1,131.4,1208.5,143.5,1184.6,143.5z"/>
			<path class="st12" d="M1219.6,70.2v38.4c0,24.1-14,33.5-35,33.5c-21,0-34.6-9.7-34.6-33V70.2h24v38.6c0,8.8,4.5,12.5,10.9,12.5
				s10.9-3.4,10.9-12V70.2H1219.6 M1222.6,67.2h-3h-24h-3v3v39.1c0,6.1-2.5,9-7.9,9c-5.3,0-7.9-3.1-7.9-9.5V70.2v-3h-3h-24h-3v3V109
				c0,12.1,3.5,21.4,10.4,27.5c6.4,5.6,15.5,8.5,27.2,8.5c24.9,0,38-12.6,38-36.5V70.2V67.2L1222.6,67.2z"/>
		</g>
		<g>
			<rect x="1225.8" y="68.7" class="st3" width="26.6" height="73.5"/>
			<path class="st12" d="M1250.8,70.2v70.5h-23.6V70.2H1250.8 M1253.8,67.2h-3h-23.6h-3v3v70.5v3h3h23.6h3v-3V70.2V67.2L1253.8,67.2
				z"/>
		</g>
		<g>
			<polygon class="st3" points="1307.9,142.1 1283.9,112.4 1283.9,142.1 1257.6,142.1 1257.6,68.7 1281.8,68.7 1304.7,97 
				1304.7,68.7 1331,68.7 1331,142.1 			"/>
			<path class="st12" d="M1329.5,70.2v70.5h-20.9l-26.2-32.5v32.5h-23.4V70.2h22l25.1,31.1V70.2H1329.5 M1332.5,67.2h-3h-23.4h-3v3
				v22.6l-19.7-24.5l-0.9-1.1h-1.4h-22h-3v3v70.5v3h3h23.4h3v-3v-24l20.8,25.9l0.9,1.1h1.4h20.9h3v-3V70.2V67.2L1332.5,67.2z"/>
		</g>
	</g>
	<path class="st21" d="M1393.5,213.7H19.7C8.8,213.7,0,204.9,0,194V19.7C0,8.8,8.8,0,19.7,0h1373.8c10.9,0,19.7,8.8,19.7,19.7V194
		C1413.3,204.9,1404.4,213.7,1393.5,213.7z"/>
</g>
</svg>
