<?xml version="1.0" encoding="utf-8"?>
<!-- Generator: Adobe Illustrator 25.2.1, SVG Export Plug-In . SVG Version: 6.00 Build 0)  -->
<svg version="1.1" id="Layer_1" xmlns="http://www.w3.org/2000/svg" xmlns:xlink="http://www.w3.org/1999/xlink" x="0px" y="0px"
	 viewBox="0 0 1347 203.7" style="enable-background:new 0 0 1347 203.7;" xml:space="preserve">
<style type="text/css">
	.st0{fill:url(#SVGID_1_);}
	.st1{clip-path:url(#SVGID_3_);}
	.st2{fill:#FFFFFF;}
	.st3{fill:#BDCDEA;}
	.st4{fill:#D8E0F2;}
	.st5{fill:#4B82A1;}
	.st6{fill:#366485;}
	.st7{fill:#DBECFA;}
	.st8{fill:#010101;}
	.st9{fill:url(#SVGID_4_);}
	.st10{fill:url(#SVGID_5_);}
	.st11{fill:#6B70B4;}
	.st12{fill:#1A1B2D;}
	.st13{fill:#EF3D39;}
	.st14{fill:#151323;}
	.st15{fill:#020202;}
	.st16{fill:url(#SVGID_6_);}
	.st17{opacity:0.28;}
	.st18{opacity:0.44;clip-path:url(#SVGID_8_);fill:#FFFFFF;}
	.st19{fill:url(#SVGID_9_);}
	.st20{opacity:0.44;clip-path:url(#SVGID_11_);fill:#FFFFFF;}
	.st21{fill:#A4C8E4;}
	.st22{fill:#B0D3F0;}
	.st23{opacity:0.59;clip-path:url(#SVGID_3_);}
	.st24{opacity:0.47;clip-path:url(#SVGID_3_);fill:url(#SVGID_12_);}
</style>
<g>
	<linearGradient id="SVGID_1_" gradientUnits="userSpaceOnUse" x1="993.6139" y1="-538.3443" x2="721.0641" y2="6.7552">
		<stop  offset="0" style="stop-color:#EFA8CB"/>
		<stop  offset="1" style="stop-color:#749ED3"/>
	</linearGradient>
	<path class="st0" d="M1327.3,203.7H19.7C8.8,203.7,0,194.9,0,184V19.7C0,8.8,8.8,0,19.7,0h1307.6c10.9,0,19.7,8.8,19.7,19.7V184
		C1347,194.9,1338.2,203.7,1327.3,203.7z"/>
	<g>
		<defs>
			<path id="SVGID_2_" d="M1327.3,203.7H19.7C8.8,203.7,0,194.9,0,184V19.7C0,8.8,8.8,0,19.7,0h1307.6c10.9,0,19.7,8.8,19.7,19.7
				V184C1347,194.9,1338.2,203.7,1327.3,203.7z"/>
		</defs>
		<clipPath id="SVGID_3_">
			<use xlink:href="#SVGID_2_"  style="overflow:visible;"/>
		</clipPath>
		<g class="st1">
			<g>
				<polygon class="st2" points="695.2,127.8 407.5,245.6 379.3,221.9 379.4,221.7 409.4,122.9 496.4,32.2 601.9,57.5 621.7,108.7 
					667.7,105.7 				"/>
			</g>
			<polygon class="st3" points="598.7,62 562.4,98.4 575.8,129.6 619.6,115.7 			"/>
			<polygon class="st4" points="498.1,37.5 562.8,98.6 612.8,90.3 601.9,57.5 			"/>
			<polygon class="st5" points="668.2,103.9 638.1,140.9 501.4,190.1 384.6,219.7 412.2,243.6 456.8,241.2 476.7,292.4 579.4,318.9 
				592.2,263.2 603.5,246.2 625.5,243.2 643.6,223.6 676.2,209.6 680.7,144.5 690.5,131.9 			"/>
			<polygon class="st6" points="385,219.5 426.7,203.2 501.5,190 637.9,141 638.9,115.2 667.8,104 689.5,130.2 690.3,132 690.3,132 
				460.6,225.9 404.6,236.5 			"/>
			<polygon class="st6" points="477.4,303.8 515.2,265.4 503.1,237.5 457.6,252.5 			"/>
			<polygon class="st7" points="537.1,286.1 576.3,291 550.2,297.8 			"/>
			<path class="st8" d="M406.6,251.4l-32.9-27.8l1-3.3l30.3-100l89.8-93.7l110.9,26.6l19.5,50.3l44.3-2.9l39.4,34.6
				c-8.7,3.4-17.5,6.7-26.2,10.1c-0.9,0.4-4.5,37.8-4.5,37.8c-39.2,15.1-143.3,49.3-217.2,68.3c-1.3-3.4-2.7-6.8-4-10.3l0,0
				C456.8,241.2,419.9,246.3,406.6,251.4z M385.1,220.2l23.3,19.7l53.8-8.1c1.1-0.5,9.7,20.1,9.7,20.1c22.1-9.6,144.5-32.1,195.4-62
				l3-49.5c0,0,5.3-1.9,20.4-8.5c-8.1-7-16.3-14-24.4-21l-47.7,3.1l-20.2-52.2L498,37.7l-84.2,87.9L385.1,220.2z"/>
		</g>
		<g class="st1">
			<g>
				<polygon class="st2" points="860.8,212 550,200.5 534.2,167.3 534.4,167.1 602.4,89.5 719.1,42.8 804.8,109.4 801.7,164.3 
					844.9,180.5 				"/>
			</g>
			<polygon class="st3" points="800.1,112.2 751.9,130.3 751.2,164.3 796.9,169.8 			"/>
			<polygon class="st4" points="718.5,48.4 752.2,130.8 800.1,112.2 			"/>
			<polygon class="st5" points="846,179 803.4,200.3 658.5,188.6 540,167.4 555.2,200.6 596.8,216.8 593.8,271.7 676.4,338.3 
				711,292.7 728.3,281.9 749.6,288.3 774.2,277.9 809.6,278.7 840.6,221.2 854.8,213.7 			"/>
			<polygon class="st6" points="540.4,167.4 585.1,169.8 658.6,188.6 803.1,200.3 817.8,174.9 845.6,179 854.6,211.8 854.6,213.8 
				854.6,213.8 606.5,204.5 551.2,191 			"/>
			<polygon class="st6" points="589.7,282.3 640,263 640.5,232.6 592.8,227.5 			"/>
			<polygon class="st7" points="651.4,290.8 685.1,311.5 658.5,307 			"/>
			<path class="st8" d="M546.8,205.4l-18.5-38.9l2.2-2.6l68.9-78.5l120.5-48.3l90,70l-3,53.8l41.5,15.6l21.6,47.8
				c-9.3-0.5-18.7-1.1-28-1.6c-1-0.1-19.7,32.6-19.7,32.6c-41.9-2.4-150.9-14.2-226.1-27.4c0.2-3.7,0.4-7.3,0.6-11l0,0
				C596.8,216.8,561.1,206.2,546.8,205.4z M540.2,168.1l13.1,27.5l52.3,14.8c1.2,0,0.5,22.3,0.5,22.3
				c24.1,0.3,144.9,30.4,203.5,24.2l23.1-43.8c0,0,5.6,0.4,22.1,0.7c-4.5-9.7-9-19.5-13.5-29.2l-44.8-16.8l3.1-55.9l-81.3-63.2
				l-113,45.3L540.2,168.1z"/>
		</g>
		<g class="st1">
			<linearGradient id="SVGID_4_" gradientUnits="userSpaceOnUse" x1="944.735" y1="-46.7254" x2="796.0715" y2="255.1066">
				<stop  offset="0" style="stop-color:#F7EDF5"/>
				<stop  offset="0.1234" style="stop-color:#E8E1F0"/>
				<stop  offset="0.3548" style="stop-color:#C5C5E3"/>
				<stop  offset="0.6693" style="stop-color:#919ED0"/>
				<stop  offset="1" style="stop-color:#5879BC"/>
			</linearGradient>
			<path class="st9" d="M392.1,134.3c-20.3,3.2-60.9,11.2-80,18.7c-23.2,9.1-59.1,26.8-42.3,39.9c6.5,5,39.1,7.1,47.3,7.8
				c15.3,1.4,42.9,1.7,58.2,3.1c5.5,0.5,11.4,1.2,15.7,4.6c13,10.4,5.5,39.3,21.9,41.9c16.2,2.6,19.6-27.1,35.7-30
				c16.3-2.9,22.5,39.5,38.2,44.6c11.7,3.7,16.2-43,35.4-42c19.2,1,15.4,26.7,27.2,27.3c11.7,0.6,17.3-22.1,37.3-20.6
				c29.9,2.3,79.6,12.4,107.9,22.4c24.2,8.6,50.3,22.8,74,12.9c10.9-4.5,19.4-13.7,30.3-18.3c11.6-4.9,32.9,12.4,45.5,13.3
				c22.1,1.6,36-13.3,58.1-11.7c9.9,0.7,21.8,2.6,25.9,11.7c1.7,3.8,5.6,22,7.6,25.6c6.8,12,20.8-9.5,33.5-14.9
				c22.4-9.6,47.9-6.5,72-3.2c16.2,2.2,34,5.1,44.8,17.4c7,7.9,14.5,20.5,24.2,16.3c6.3-2.7,8.3-11.6,14.8-13.8
				c8.7-2.9,15,8.2,17.5,17.1c4.2,15.1,8.4,30.3,12.7,45.4c1.9,6.7,5.7,14.9,12.6,14.4c6.5-0.4,9.4-8.2,10.9-14.5
				c4-17.7-2.3-53.8,11.9-53.1c14.3,0.7,15,28.3,30.1,28.2c18.3-0.1,6.3-51.1,20.3-50.4c14,0.7-1.9,38.4,15.6,39.3
				s25-32.3,49.4-43.1c4.9-2.1,49.8-7.2,53.1-11.4c10.6-13.5-25.6-37.6-39.4-47.8c-24.4-18.2-54.1-36.9-83.3-28.3
				c-16.3,4.8-29.6,17.8-46.4,20.9c-38.2,7.1-72.1-38.9-109.9-29.9c-8,1.9-15.3,6.2-23.4,8.1c-28.7,6.7-56-18.9-85.5-18
				c-14.6,0.4-28.3,7.4-42.7,9.8c-34.6,5.7-68-15.2-103-17.9c-56.2-4.3-112,38.4-165.7,21.2c-20.9-6.7-39.2-22-61-23.4
				c-18.1-1.1-35.2,7.7-53.2,10.4C493.9,172.5,444.7,128.5,392.1,134.3z"/>
		</g>
		<g class="st1">
			<linearGradient id="SVGID_5_" gradientUnits="userSpaceOnUse" x1="792.1705" y1="-33.0331" x2="643.507" y2="268.7989">
				<stop  offset="0" style="stop-color:#F7EDF5"/>
				<stop  offset="0.1234" style="stop-color:#E8E1F0"/>
				<stop  offset="0.3548" style="stop-color:#C5C5E3"/>
				<stop  offset="0.6693" style="stop-color:#919ED0"/>
				<stop  offset="1" style="stop-color:#5879BC"/>
			</linearGradient>
			<path class="st10" d="M239.6,148c-20.3,3.2-60.9,11.2-80,18.7c-23.2,9.1-59.1,26.8-42.3,39.9c6.5,5,39.1,7.1,47.3,7.8
				c15.3,1.4,42.9,1.7,58.2,3.1c5.5,0.5,11.4,1.2,15.7,4.6c13,10.4,5.5,39.3,21.9,41.9c16.2,2.6,19.6-27.1,35.7-30
				c16.3-2.9,22.5,39.5,38.2,44.6c11.7,3.7,16.2-43,35.4-42c19.2,1,15.4,26.7,27.2,27.3c11.7,0.6,17.3-22.1,37.3-20.6
				c29.9,2.3,79.6,12.4,107.9,22.4c24.2,8.6,50.3,22.8,74,12.9c10.9-4.5,19.4-13.7,30.3-18.3c11.6-4.9,32.9,12.4,45.5,13.3
				c22.1,1.6,36-13.3,58.1-11.7c9.9,0.7,21.8,2.6,25.9,11.7c1.7,3.8,5.6,22,7.6,25.6c6.8,12,20.8-9.5,33.5-14.9
				c22.4-9.6,47.9-6.5,72-3.2c16.2,2.2,34,5.1,44.8,17.4c7,7.9,14.5,20.5,24.2,16.3c6.3-2.7,8.3-11.6,14.8-13.8
				c8.7-2.9,15,8.2,17.5,17.1c4.2,15.1,8.4,30.3,12.7,45.4c1.9,6.7,5.7,14.9,12.6,14.4c6.5-0.4,9.4-8.2,10.9-14.5
				c4-17.7-2.3-53.8,11.9-53.1c14.3,0.7,15,28.3,30.1,28.2c18.3-0.1,6.3-51.1,20.3-50.4c14,0.7-1.9,38.4,15.6,39.3
				s25-32.3,49.4-43.1c4.9-2.1,49.8-7.2,53.1-11.4c10.6-13.5-25.6-37.6-39.4-47.8c-24.4-18.2-54.1-36.9-83.3-28.3
				c-16.3,4.8-29.6,17.8-46.4,20.9c-38.2,7.1-72.1-38.9-109.9-29.9c-8,1.9-15.3,6.2-23.4,8.1c-28.7,6.7-56-18.9-85.5-18
				c-14.6,0.4-28.3,7.4-42.7,9.8c-34.6,5.7-68-15.2-103-17.9c-56.2-4.3-112,38.4-165.7,21.2c-20.9-6.7-39.2-22-61-23.4
				c-18.1-1.1-35.2,7.7-53.2,10.4C341.3,186.2,292.1,142.2,239.6,148z"/>
		</g>
		<g class="st1">
			<path class="st2" d="M141.7-3.2c46,21.5,60.7,52,75,116.9c7,22.9,13.6,59.5,17.2,94.4c-21.4-2.6-43-0.8-64.8-1.7
				c-11.9-0.5-24.2-1.4-35.9,1.6c-2.6,0.7-5.1,1.6-7.5,2.6c-8-10.9-17.6-23.8-34.4-39.8c-9.3-35.4,0.9-23-28-24.2
				c-4-1.6-6.7-5.5-11-20.9C25.1,60.2,75.1-3.4,141.7-3.2z"/>
			<path class="st11" d="M130.5-7.6c-73-23-161.1,54.8-139.1,135.5c0.5,17.1,47.8,15.8,58.3,20.1c0,0,18.2,0.7,18.2,0.7l-8.3-9.1
				c-22.9-32.7-14.3-80,8.4-110.6c0,0,34.3-23,34.3-23C105,4.7,131.8-2.2,130.5-7.6z"/>
			<polygon class="st12" points="-6.7,136.4 36.3,148.8 82.5,148.8 91.3,170.7 112.2,193.1 115.1,199.1 97.3,210.6 86.6,229.7 
				70.7,226.2 39.7,210 30.3,206.4 11.6,208.1 			"/>
			<polygon class="st13" points="119.1,202.2 126.6,220.5 126.6,233.5 117.8,237.3 89.4,232.9 90.3,220.5 103.3,204 			"/>
			<polygon class="st12" points="229.3,136.7 236,144.8 226.8,150.8 223.8,136.7 			"/>
			<polygon class="st12" points="231.6,158.8 247.5,172 261.1,194.7 261.1,204.2 234.7,205.7 225.9,158.8 			"/>
			<path class="st14" d="M-13.3,125.2c0,0,10.7,45.1,20.1,84.5c1.8-1.4,5.1-2.1,7.7-1.5c-3-12.5-6.6-27.6-10.9-46
				c19,14.1,40.3,16.8,53.9,16.8c8,0,13.4-0.9,14-1.1l2.9-0.5l0.3-2.9c0.3-3.1,1-6.2,2-9.1c5.5,5.8,11.3,11.3,16.9,16.6
				c5.4,5.1,11,10.4,16.2,15.9c-5.7,2.6-12.4,7.1-18.2,14.5c-3.3,4.3-5.9,9.3-7.7,14.5c-8.4-3.4-16-7-20.2-9.1
				c-1.3-0.6-2.4-1.1-3.2-1.5c-9.1-4.3-19.6-9.3-27.5-13.6c-1.4,1-1,2.5-3.2,2.5c-0.8,0-1.5-0.1-2.2-0.2c-0.4,1.7,0.3,3.5,1.9,4.4
				c8.6,4.7,17.6,9.3,27.7,13.9c0.8,0.4,1.8,0.9,3.1,1.5c16.5,7.9,35.7,16.3,50.3,17.7c5.5,0.5,10.3,0.1,14-1.7
				c4-1.9,6.7-5.2,7.8-9.5c3.6-14.6-6.7-28-16.2-38c-5.6-5.9-11.6-11.6-17.4-17c-0.5-0.5-1-1-1.5-1.4c-1.5-5.6-10.6-31.9-10.6-31.9
				l-3.3,0.5c-5.6,0.9-11.2,1.5-16.9,1.8c-0.1-0.5-0.3-1-0.7-1.5c-7.8-9.9-12.9-20.5-15.1-31.5C37.8,50.8,82.8,0.1,143,0.8
				c31,13.2,55.2,40.8,62.4,76.2l25.7,126.1c2.7-0.1,5.4,0.1,8,0.4c0,0-3.9-19.1-8.7-42.5c9.4,7.5,25,22.8,28.3,44.7
				c1.1,0,2.3-0.1,3.4-0.3c1.7-0.2,3.2,0.2,4.6,1c-3.1-27-22.7-45-33.2-52.9l7.3-2.7c1.2-0.5,2.2-1.5,2.5-2.8c0.3-1.3-0.1-2.6-1-3.6
				l-19.5-20.5c-5.3-26.1-9.9-48.6-9.9-48.6C205.5,37.3,177.7,5,141.3-8.3C91.4-27,29.8-7.8,1.5,37.9C-15.2,64-20.4,95-13.3,125.2z
				 M232.7,145.6l-5,1.8c-0.6-3-1.2-6-1.8-9L232.7,145.6z M115.2,204c6.6,7.9,11.8,16.7,9.6,25.5c-0.5,2.1-1.6,3.5-3.5,4.4
				c-6.3,3-18.4,0.1-30.1-4.2c1.2-3.8,3.2-8.2,6.6-12.5C103.3,209.9,110.1,206,115.2,204z M79.9,157.6c0.7-1.2,1.4-2.5,2.2-3.7
				l3,9.2C83.4,161.3,81.6,159.4,79.9,157.6z M-1.3,142.2c11.2,4.3,22.8,7.4,34.6,9.2c13.4,2,27,2.4,40.4,1.1
				c-0.4,0.7-0.8,1.4-1.2,2.2c-2.6,5-4.4,10.4-5.3,16c-9.6,1-42.6,2.5-66.8-21.2C-0.1,147-0.7,144.6-1.3,142.2z M8.1,42.1
				C31.8,3.9,80.3-14.4,123.7-5.3C66.9,3.5,31,55.6,43.1,113.7c2.2,11.1,7.1,21.7,14.3,31.7c-7.7,0-15.3-0.6-22.9-1.8
				c-13-2-25.8-5.6-38-10.8c-0.7-3.1-1.5-6.2-2.2-9.4C-12.4,95.3-7.5,66.4,8.1,42.1z"/>
			<g>
				<path class="st15" d="M195.9,93l-45.5-3.1c-0.9-2.1-1.7-4.4-2.2-6.7c-3.6-17.5,7.7-34.6,25.2-38.1c17.5-3.6,34.6,7.7,38.1,25.2
					c3.6,17.5-7.7,34.6-25.2,38.1c-6.5,1.3-12.9,0.6-18.5-1.7L195.9,93z"/>
			</g>
			<g>
				<circle class="st2" cx="170.8" cy="67.9" r="10.5"/>
			</g>
			<g>
				
					<ellipse transform="matrix(0.9798 -0.1999 0.1999 0.9798 -15.2591 21.4507)" class="st15" cx="98.6" cy="86.3" rx="31.2" ry="27.7"/>
			</g>
			<g>
				<circle class="st2" cx="89.8" cy="81.3" r="10.2"/>
			</g>
			<g>
				<path class="st15" d="M141.6,58.6l87.5-15.4L225.7,93l-62.5,9.1C161,96,155,81.1,148.6,78.3c-1.2-0.5-2.4-0.7-3.6-0.4
					c-1.2,0.2-2.3,0.7-3.2,1.6c-5.1,4.9-5.6,20.9-5.7,27.3l-61.9,12.7L54.1,73.8L141.6,58.6z"/>
			</g>
			<g>
				<path class="st15" d="M68.2,89.1l-6.9-10.6l-50.1,3.8l1.8,18.2l9.4-0.4l-0.9-3.9c-0.2-0.8,0-1.7,0.5-2.4
					c0.5-0.7,1.3-1.1,2.1-1.2L68.2,89.1z"/>
			</g>
			<g>
				
					<linearGradient id="SVGID_6_" gradientUnits="userSpaceOnUse" x1="153.2793" y1="146.1356" x2="131.3232" y2="98.381" gradientTransform="matrix(-1 0 0 1 304.9078 0)">
					<stop  offset="0" style="stop-color:#A5417B"/>
					<stop  offset="1" style="stop-color:#E8413F"/>
				</linearGradient>
				<path class="st16" d="M160.9,119.9c7.1-0.4,13.9-2.2,20.2-5.3c10.8-5.3,17.5-13.2,21.1-18.9l1.3-1.9l-1.1-2.1l-1.1-2l-2.4,0
					h-0.8l-0.8,0.3c-6.9,3-14.6,4.6-22,4.6c-0.6,0-1.2,0-1.8,0c-6.6-0.2-13.1-1.6-19.3-4.2l-0.7-0.3l-2.5,0l-1.2,1.2l-1.1,1.2l0,1.7
					c0.1,3.4,0.6,6.9,1.6,10.2c1.5,5.2,4,10,7.4,14.2l1.2,1.4l1.9,0L160.9,119.9z"/>
			</g>
			<g>
				<path class="st8" d="M198.9,93.5c0.1,0,0.1,0.1,0.1,0.1c-2.7,4.1-8.7,12.2-19.6,17.5c-7.5,3.7-14.4,4.7-18.7,4.9c0,0,0,0,0,0
					c0,0-0.1,0-0.1,0c-3-3.7-5.3-8-6.6-12.8c-0.9-3.1-1.3-6.2-1.4-9.3c0-0.1,0-0.1,0.1-0.1c0,0,0,0,0,0c4.5,1.9,11.7,4.2,20.7,4.5
					c0.6,0,1.3,0,1.9,0C185.8,98.4,194.1,95.5,198.9,93.5C198.8,93.5,198.9,93.5,198.9,93.5 M198.9,85.7l-1.7,0l-1.5,0.7
					c-6.4,2.8-13.5,4.3-20.5,4.3c-0.5,0-1.1,0-1.7,0c-6.2-0.2-12.2-1.5-17.9-3.9l-1.5-0.6h-1.6c-2.1,0-4.2,0.9-5.6,2.4l-2.3,2.4
					l0.1,3.3c0.1,3.8,0.7,7.6,1.7,11.3c1.6,5.7,4.4,10.9,8.1,15.5l2.4,2.9h3.7l0.2,0l0.2,0c7.6-0.5,14.9-2.4,21.7-5.7
					c11.6-5.7,18.7-14.2,22.7-20.3l2.5-4l-2.2-4.1l-2.3-4.1H198.9L198.9,85.7z"/>
			</g>
			<g class="st17">
				<defs>
					<path id="SVGID_7_" class="st17" d="M141.6,58.6l87.5-15.4L225.7,93l-62.5,9.1C161,96,155,81.1,148.6,78.3
						c-1.2-0.5-2.4-0.7-3.6-0.4c-1.2,0.2-2.3,0.7-3.2,1.6c-5.1,4.9-5.6,20.9-5.7,27.3l-61.9,12.7L54.1,73.8L141.6,58.6z"/>
				</defs>
				<clipPath id="SVGID_8_">
					<use xlink:href="#SVGID_7_"  style="overflow:visible;"/>
				</clipPath>
				
					<rect x="204.4" y="7.8" transform="matrix(-0.8972 0.4416 -0.4416 -0.8972 421.0845 6.5469)" class="st18" width="10.8" height="88.9"/>
				
					<rect x="191.8" y="12.3" transform="matrix(-0.8972 0.4416 -0.4416 -0.8972 396.2915 21.2395)" class="st18" width="7.7" height="88.9"/>
				
					<rect x="115.3" y="36.1" transform="matrix(-0.8972 0.4416 -0.4416 -0.8972 264.5453 99.5237)" class="st18" width="10.8" height="88.9"/>
				<polygon class="st18" points="122.8,126.6 133.4,137.4 94.1,57.6 83.5,46.8 				"/>
			</g>
			<path class="st11" d="M152.5,94c0-0.1,0-0.1,0.1-0.1c0,0,0,0,0,0c4.5,1.9,11.7,4.2,20.7,4.5c0.6,0,1.3,0,1.9,0
				c10.6,0,18.9-2.9,23.6-5c0,0,0,0,0,0c0.1,0,0.1,0.1,0.1,0.1c-2.7,4.1-8.7,12.2-19.6,17.5c-7.5,3.7-14.4,4.7-18.7,4.9c0,0,0,0,0,0
				c0,0-0.1,0-0.1,0c-3-3.7-5.3-8-6.6-12.8C153,100.2,152.6,97,152.5,94z"/>
		</g>
		<g class="st1">
			<path class="st2" d="M334.5-16.9c-50.7,23.6-66.8,57.3-82.6,128.7c-7.7,25.3-14.9,65.5-18.9,104c23.6-2.9,47.4-0.9,71.4-1.8
				c13.1-0.5,26.7-1.6,39.6,1.8c2.8,0.7,5.6,1.7,8.3,2.8c8.9-12,19.4-26.2,37.9-43.9c10.3-39-1-25.4,30.8-26.6
				c4.4-1.8,7.4-6.1,12.1-23C462.9,52.9,407.9-17.1,334.5-16.9z"/>
			<path class="st13" d="M346.8-21.7C427.2-47,524.3,38.6,500,127.6c-0.5,18.8-52.7,17.4-64.2,22.2c0,0-20,0.8-20,0.8l9.2-10.1
				c25.2-36,15.7-88.1-9.2-121.8c0,0-37.8-25.3-37.8-25.3C374.9-8.2,345.3-15.7,346.8-21.7z"/>
			<polygon class="st12" points="497.9,136.9 450.6,150.5 399.6,150.5 390,174.7 367,199.4 363.7,206 383.4,218.6 395.2,239.7 
				412.7,235.8 446.8,217.9 457.1,214 477.8,215.8 			"/>
			<polygon class="st13" points="359.4,209.4 351.1,229.5 351.1,243.8 360.8,248.1 392,243.2 391,229.5 376.7,211.3 			"/>
			<polygon class="st12" points="238,137.2 230.6,146.1 240.7,152.8 244,137.2 			"/>
			<polygon class="st12" points="235.4,161.5 217.9,176.1 203,201.1 203,211.6 232,213.2 241.7,161.5 			"/>
			<path class="st14" d="M488.9,28.4c-31.2-50.3-99-71.5-154-50.9c-40.1,14.7-70.8,50.3-79,92.3c0,0-5.1,24.8-10.9,53.6l-21.5,22.6
				c-1,1-1.4,2.5-1.1,3.9c0.3,1.4,1.3,2.6,2.7,3.1l8,2.9c-11.5,8.6-33.1,28.5-36.5,58.2c1.5-0.9,3.2-1.3,5.1-1.1
				c1.3,0.2,2.5,0.2,3.8,0.3c3.6-24,20.9-41,31.2-49.2c-5.3,25.8-9.6,46.8-9.6,46.8c2.9-0.4,5.9-0.6,8.9-0.5l28.4-138.9
				c8-39,34.6-69.4,68.7-83.9c66.3-0.8,115.8,55.1,101.6,122.8c-2.5,12.1-8.1,23.7-16.6,34.6c-0.4,0.5-0.6,1.1-0.8,1.7
				c-6.2-0.3-12.4-1-18.6-1.9l-3.6-0.6c0,0-10,29-11.6,35.2c-0.6,0.5-1.1,1.1-1.7,1.6c-6.4,6-13,12.2-19.1,18.7
				c-10.4,11.1-21.8,25.9-17.8,41.9c1.2,4.8,4.2,8.4,8.5,10.5c4.2,2,9.5,2.4,15.5,1.8c16.1-1.6,37.2-10.8,55.4-19.5
				c1.4-0.7,2.5-1.2,3.4-1.6c11.1-5.2,21-10.2,30.5-15.4c1.8-1,2.6-3,2.1-4.9c-0.8,0.2-1.6,0.2-2.4,0.2c-2.4,0-1.9-1.7-3.5-2.8
				c-8.6,4.7-20.2,10.3-30.3,15c-0.9,0.4-2.1,1-3.5,1.7c-4.7,2.3-13,6.3-22.3,10c-1.9-5.8-4.8-11.2-8.5-16c-6.3-8.2-13.8-13.1-20-16
				c5.7-6,11.9-11.8,17.9-17.5c6.2-5.8,12.6-11.9,18.6-18.3c1,3.2,1.8,6.6,2.2,10l0.3,3.2l3.1,0.6c0.7,0.1,6.6,1.2,15.4,1.2
				c15,0,38.5-3,59.4-18.5c-4.8,20.3-8.8,37-12,50.7c2.8-0.6,6.4,0.1,8.4,1.7c10.3-43.4,22.1-93.1,22.1-93.1
				C513,91.3,507.3,57.2,488.9,28.4z M241.7,139.2c-0.7,3.3-1.3,6.6-2,9.9l-5.5-2L241.7,139.2z M382.9,225.8
				c3.7,4.8,5.9,9.6,7.2,13.8c-13,4.7-26.2,7.9-33.2,4.6c-2.1-1-3.3-2.5-3.9-4.8c-2.4-9.7,3.2-19.4,10.5-28.1
				C369.3,213.6,376.7,217.8,382.9,225.8z M396.7,166.3l3.3-10.1c0.9,1.3,1.7,2.6,2.4,4C400.6,162.3,398.7,164.3,396.7,166.3z
				 M490,151.2c-26.7,26.2-63,24.5-73.6,23.4c-1-6.2-3-12.1-5.9-17.6c-0.4-0.8-0.9-1.6-1.3-2.4c14.9,1.4,29.8,1,44.5-1.3
				c13-2,25.8-5.4,38.1-10.1C491.3,145.9,490.6,148.6,490,151.2z M496.8,122.6c-0.8,3.6-1.7,7-2.5,10.4
				c-13.4,5.7-27.5,9.7-41.9,11.9c-8.4,1.3-16.8,1.9-25.2,2c8-11,13.3-22.8,15.8-34.9c13.3-64-26.2-121.3-88.8-131.1
				C402.1-29.2,455.5-9,481.6,33C498.8,59.8,504.1,91.6,496.8,122.6z"/>
			<g>
				<path class="st15" d="M274.8,89.1l50.1-3.4c1-2.3,1.8-4.8,2.4-7.4c3.9-19.3-8.5-38.1-27.8-42c-19.3-3.9-38.1,8.5-42,27.8
					c-3.9,19.3,8.5,38.1,27.8,42c7.1,1.5,14.2,0.7,20.4-1.9L274.8,89.1z"/>
			</g>
			<g>
				<circle class="st2" cx="302.4" cy="61.5" r="11.6"/>
			</g>
			<g>
				<circle class="st15" cx="381.2" cy="85.5" r="34.4"/>
			</g>
			<g>
				<circle class="st2" cx="391.6" cy="76.2" r="11.2"/>
			</g>
			<g>
				<path class="st15" d="M330.5,66.8l-96.3-17l3.7,54.9l68.8,10c2.4-6.7,9-23.1,16.1-26.2c1.3-0.6,2.7-0.7,4-0.5
					c1.3,0.2,2.5,0.8,3.6,1.8c5.6,5.4,6.2,23,6.2,30.1l68.1,14l22.1-50.4L330.5,66.8z"/>
			</g>
			<g>
				<path class="st15" d="M415.7,104.2l5.3-12.8l55.1-5.8l1.7,20.1l-10.2,1.4l0.2-4.4c0-0.9-0.3-1.8-1-2.5c-0.7-0.6-1.6-0.9-2.5-0.8
					L415.7,104.2z"/>
			</g>
			<g>
				<linearGradient id="SVGID_9_" gradientUnits="userSpaceOnUse" x1="323.5176" y1="147.6171" x2="299.3342" y2="95.018">
					<stop  offset="0" style="stop-color:#A5417B"/>
					<stop  offset="1" style="stop-color:#E8413F"/>
				</linearGradient>
				<path class="st19" d="M313.3,118.8c-7.8-0.5-15.3-2.4-22.2-5.9c-11.9-5.9-19.2-14.6-23.3-20.8l-1.4-2.1l1.2-2.4l1.2-2.2l2.6-0.1
					h0.9l0.9,0.4c7.6,3.3,16,5.1,24.3,5.1c0.6,0,1.3,0,2,0c7.3-0.2,14.5-1.8,21.3-4.6l0.8-0.3l2.7,0l1.3,1.3l1.3,1.3l0,1.9
					c-0.1,3.8-0.7,7.6-1.7,11.3c-1.6,5.7-4.4,11-8.1,15.6l-1.3,1.6l-2.1,0L313.3,118.8z"/>
			</g>
			<g>
				<path class="st8" d="M271.5,89.6C271.5,89.6,271.5,89.6,271.5,89.6c5.2,2.3,14.4,5.5,26,5.5c0.7,0,1.4,0,2.1,0
					c9.9-0.3,17.8-2.9,22.8-5c0,0,0,0,0,0c0.1,0,0.1,0,0.1,0.1c-0.1,3.4-0.6,6.8-1.6,10.2c-1.5,5.3-4.1,10-7.3,14.1c0,0,0,0-0.1,0
					c0,0,0,0,0,0c-4.8-0.3-12.4-1.4-20.6-5.4c-12-5.9-18.7-14.8-21.6-19.3C271.4,89.7,271.4,89.6,271.5,89.6 M271.5,81h-5.1
					l-2.5,4.5l-2.4,4.5l2.8,4.4c4.4,6.7,12.2,16,25,22.3c7.5,3.7,15.5,5.8,23.9,6.3l0.3,0l0.3,0h4.1l2.7-3.2
					c4.1-5,7.1-10.8,8.9-17.1c1.2-4,1.8-8.2,1.9-12.4l0.1-3.6l-2.6-2.7c-1.6-1.7-3.9-2.6-6.2-2.6h-1.7l-1.6,0.7
					c-6.3,2.6-13,4.1-19.8,4.3c-0.6,0-1.2,0-1.8,0c-7.7,0-15.5-1.6-22.6-4.7l-1.6-0.7L271.5,81L271.5,81z"/>
			</g>
			<g class="st17">
				<defs>
					<path id="SVGID_10_" class="st17" d="M330.5,66.8l-96.3-17l3.7,54.9l68.8,10c2.4-6.7,9-23.1,16.1-26.2c1.3-0.6,2.7-0.7,4-0.5
						c1.3,0.2,2.5,0.8,3.6,1.8c5.6,5.4,6.2,23,6.2,30.1l68.1,14l22.1-50.4L330.5,66.8z"/>
				</defs>
				<clipPath id="SVGID_11_">
					<use xlink:href="#SVGID_10_"  style="overflow:visible;"/>
				</clipPath>
				
					<rect x="245.5" y="26.6" transform="matrix(0.8972 0.4416 -0.4416 0.8972 59.2216 -103.2486)" class="st20" width="11.9" height="98"/>
				
					<rect x="262.7" y="31.5" transform="matrix(0.8972 0.4416 -0.4416 0.8972 62.9887 -109.6055)" class="st20" width="8.5" height="98"/>
				
					<rect x="343.6" y="57.7" transform="matrix(0.8972 0.4416 -0.4416 0.8972 83.0606 -143.3849)" class="st20" width="11.9" height="98"/>
				
					<rect x="360.8" y="62.7" transform="matrix(0.8972 0.4416 -0.4416 0.8972 86.8278 -149.7418)" class="st20" width="8.5" height="98"/>
			</g>
			<path class="st13" d="M322.6,90.2c0-0.1,0-0.1-0.1-0.1c0,0,0,0,0,0c-5,2.1-12.9,4.6-22.8,5c-0.7,0-1.4,0-2.1,0
				c-11.7,0-20.8-3.2-26-5.5c0,0,0,0,0,0c-0.1,0-0.1,0.1-0.1,0.2c2.9,4.5,9.6,13.4,21.6,19.3c8.2,4.1,15.8,5.1,20.6,5.4c0,0,0,0,0,0
				c0,0,0.1,0,0.1,0c3.3-4,5.8-8.8,7.3-14.1C322,97,322.5,93.5,322.6,90.2z"/>
		</g>
		<g class="st1">
			<g>
				<polygon class="st2" points="1279.7,296.7 1200.5,197.3 1267.2,160.5 1274.7,122.7 1317.8,78.2 1448.5,98.2 1481.9,150.1 
					1491.5,271.8 1380.4,323.8 				"/>
				<path class="st8" d="M1319.4,83l126.4,19.4l31.7,49.2l9.3,117.5l-106.8,50l-97.6-26.3l-75-94.1l63.9-35.2l7.7-38.6L1319.4,83
					 M1316.2,73.4l-3.2,3.3l-40.6,41.9l-1.8,1.9l-0.5,2.6l-6.8,34.5l-60.2,33.2l-9.3,5.2l6.6,8.3l75,94.1l1.8,2.3l2.9,0.8l97.6,26.3
					l3.2,0.9l3-1.4l106.8-50l5.6-2.6l-0.5-6.2l-9.3-117.5l-0.2-2.3l-1.2-1.9l-31.7-49.2l-2.2-3.4l-4-0.6l-126.4-19.4L1316.2,73.4
					L1316.2,73.4z"/>
			</g>
			<polygon class="st21" points="1380,319.1 1486.8,269 1477.5,151.6 1477,150.8 1445.8,102.4 1401.8,159.4 1396.6,197.3 
				1388.5,256.7 1382.4,301.4 			"/>
			<polygon class="st22" points="1388.5,256.7 1481.7,205.4 1477.5,151.6 1477,150.8 1396.6,197.3 			"/>
			<polygon class="st22" points="1380,319.1 1486.8,269 1484.7,242.3 1382.4,301.4 			"/>
			<polygon class="st22" points="1432.6,228.3 1484.7,242.3 1460.6,257 1408.2,238.3 			"/>
			<polygon class="st7" points="1319.4,83 1401.8,159.4 1445.8,102.4 			"/>
			<polygon class="st21" points="1419.9,136 1427.8,125.9 1412.6,109.5 1433.7,120.7 			"/>
			<polygon class="st3" points="1207.3,198.7 1268.5,189.4 1268.5,189.4 1273.4,188.3 1271.2,163.5 			"/>
		</g>
		<g class="st1">
			<g>
				<polygon class="st2" points="1000.2,300.1 986.1,240 1062.4,132.1 1124.4,132 1156.8,152.9 1229.6,130.4 1246.1,256.5 
					1195.7,347.7 1081,391.5 				"/>
				<path class="st8" d="M1225.8,136.3l15.6,119.3l-48.9,88.5l-110.2,42.1l-78.1-88.3l-13.4-57l73.8-104.4l58.3-0.1l33.1,21.3
					L1225.8,136.3 M1233.4,124.6l-10.2,3.1l-65.7,20.2l-29.5-19l-2.2-1.4l-2.7,0l-58.3,0.1l-4.6,0l-2.7,3.8l-73.8,104.4l-2.3,3.3
					l0.9,3.9l13.4,57l0.5,2.2l1.5,1.7l78.1,88.3l4.1,4.7l5.8-2.2l110.2-42.1l3.1-1.2l1.6-2.9l48.9-88.5l1.4-2.6l-0.4-2.9
					l-15.6-119.3L1233.4,124.6L1233.4,124.6z"/>
			</g>
			<polygon class="st21" points="1192.5,344.1 1082.4,386.2 1004.3,298 1004.1,297.1 990.9,241 1062.5,248.9 1093.4,271.5 
				1141.8,307 1178.1,333.6 			"/>
			<polygon class="st22" points="1141.8,307 1040,338.4 1004.3,298 1004.1,297.1 1093.4,271.5 			"/>
			<polygon class="st22" points="1192.5,344.1 1082.4,386.2 1064.6,366.2 1178.1,333.6 			"/>
			<polygon class="st22" points="1090.7,319 1064.6,366.2 1091.9,359 1114.8,308.3 			"/>
			<polygon class="st4" points="1064.7,136.6 1062.5,248.9 990.9,241 			"/>
			<polygon class="st21" points="1033.1,245.7 1020.4,244.4 1019.1,222.1 1012.5,245 			"/>
			<polygon class="st22" points="1093.4,271.5 1163.8,283.5 1105,281.2 			"/>
			<polygon class="st3" points="1225.8,136.3 1176.7,173.9 1176.7,173.9 1172.4,176.7 1156.1,157.8 			"/>
		</g>
		<g class="st23">
			
				<image style="overflow:visible;" width="3417" height="626" xlink:href="705E590.png"  transform="matrix(0.24 0 0 0.24 503.8629 23.0577)">
			</image>
		</g>
		<g class="st1">
			<path class="st2" d="M543.9,98.4v-0.2c0-20.1,15.6-35,35.7-35c14.8,0,24.8,7.2,30.4,17.5l-18.5,10.8c-2.5-4.8-6-8.2-12.2-8.2
				c-7.6,0-12.6,6.6-12.6,14.7v0.2c0,8.7,5.2,14.9,12.6,14.9c6.3,0,9.9-3.5,12.7-8.4l18.5,10.5c-5.7,10-15.1,18.1-31.8,18.1
				C560.1,133.3,543.9,119.3,543.9,98.4z"/>
			<path class="st2" d="M614.8,64.7h22.5v48h31.6v19.2h-54V64.7z"/>
			<path class="st2" d="M671.2,101.7v-37h22.8v36.8c0,8.3,4.3,11.9,10.4,11.9s10.4-3.3,10.4-11.4V64.7h22.8v36.6
				c0,22.9-13.3,32-33.4,32C684.2,133.2,671.2,124,671.2,101.7z"/>
			<path class="st2" d="M744.7,64.7h37.6c9.3,0,15.2,2.1,19.1,6c2.4,2.4,4.1,5.9,4.1,10.5v0.2c0,8-4.8,12.9-12,15.4
				c8.6,2.5,14.2,7.1,14.2,16.3v0.2c0,10.7-8.8,18.6-25.8,18.6h-37.2V64.7z M776.4,91.1c4.8,0,7.1-1.6,7.1-4.6v-0.2
				c0-3-2.4-4.6-7.2-4.6h-9.7v9.4H776.4z M777.8,114.8c4.9,0,7.4-2,7.4-4.9v-0.2c0-2.9-2.4-4.9-7.3-4.9h-11.3v10H777.8z"/>
			<path class="st2" d="M837.1,64.7h30.2c17.8,0,30,8,30,23.9v0.2c0,16.2-12.4,24.9-30.5,24.9h-7.3v18.2h-22.5V64.7z M865.6,97.6
				c5.8,0,9.6-2.6,9.6-7.4V90c0-4.9-3.6-7.4-9.5-7.4h-6.1v15H865.6z"/>
			<path class="st2" d="M902.1,64.7h57.3v18.4h-35.2v6.8H957v16.2h-32.8v7.3h35.7v18.4h-57.8V64.7z"/>
			<path class="st2" d="M965.9,64.7h21l23.9,29.7V64.7h22.3v67.2h-20l-25-31v31h-22.3V64.7z"/>
			<path class="st2" d="M1039.2,98.4v-0.2c0-20.1,15.8-35,37-35c11.5,0,20.8,3.8,28.1,10.2l-12.6,15.2c-4.4-3.7-9.3-5.9-14.9-5.9
				c-8.7,0-15.1,6.7-15.1,15.8v0.2c0,9.5,6.6,16,16,16c3.8,0,6-0.6,7.7-1.5v-6.7h-11.5V92.1h32.5v31.1c-7.3,5.9-17.5,10.1-29.7,10.1
				C1056,133.3,1039.2,119.3,1039.2,98.4z"/>
			<path class="st2" d="M1112.6,101.7v-37h22.8v36.8c0,8.3,4.3,11.9,10.4,11.9s10.4-3.3,10.4-11.4V64.7h22.8v36.6
				c0,22.9-13.3,32-33.4,32C1125.5,133.2,1112.6,124,1112.6,101.7z"/>
			<path class="st2" d="M1186.3,64.7h22.5v67.2h-22.5V64.7z"/>
			<path class="st2" d="M1216.6,64.7h21l23.9,29.7V64.7h22.3v67.2h-20l-25-31v31h-22.3V64.7z"/>
		</g>
		
			<linearGradient id="SVGID_12_" gradientUnits="userSpaceOnUse" x1="1012.9011" y1="10.3003" x2="1012.9011" y2="261.0314" gradientTransform="matrix(-1 0 0 1 1626.9801 0)">
			<stop  offset="0" style="stop-color:#FFFFFF;stop-opacity:0"/>
			<stop  offset="9.983509e-02" style="stop-color:#F9F8FA;stop-opacity:9.983509e-02"/>
			<stop  offset="0.2442" style="stop-color:#E8E5EE;stop-opacity:0.2442"/>
			<stop  offset="0.4156" style="stop-color:#CCC5D9;stop-opacity:0.4156"/>
			<stop  offset="0.6078" style="stop-color:#A599BC;stop-opacity:0.6078"/>
			<stop  offset="0.8145" style="stop-color:#746297;stop-opacity:0.8145"/>
			<stop  offset="1" style="stop-color:#432A72"/>
		</linearGradient>
		<polygon class="st24" points="-131.8,261 1360,261 1360,10.3 -131.8,10.3 		"/>
	</g>
</g>
<g>
</g>
<g>
</g>
<g>
</g>
<g>
</g>
<g>
</g>
<g>
</g>
</svg>
