<?xml version="1.0" encoding="utf-8"?>
<!-- Generator: Adobe Illustrator 25.2.1, SVG Export Plug-In . SVG Version: 6.00 Build 0)  -->
<svg version="1.1" id="Layer_1" xmlns="http://www.w3.org/2000/svg" xmlns:xlink="http://www.w3.org/1999/xlink" x="0px" y="0px"
	 viewBox="0 0 746.7 562.2" style="enable-background:new 0 0 746.7 562.2;" xml:space="preserve">
<style type="text/css">
	.st0{fill:#FFC50D;}
	.st1{fill:#EFAA0F;}
	.st2{fill:#FEE100;}
	.st3{fill:none;stroke:#EFAA0F;stroke-width:3;stroke-miterlimit:10;}
</style>
<g>
	<g>
		<path class="st0" d="M149.9,450.8v29.5c0,15,44.6,27.1,99.6,27.1s99.6-12.2,99.6-27.1v-29.5H149.9z"/>
		<g>
			<path class="st1" d="M149.9,480.3c0.1,1.6,0.7,3,1.5,4.3l0.7,0.9c0.2,0.3,0.5,0.6,0.8,0.8c0.5,0.6,1.1,1,1.7,1.6
				c2.4,1.9,5.1,3.4,7.8,4.7c2.8,1.3,5.7,2.3,8.6,3.3c2.9,1,5.9,1.7,8.9,2.5c3,0.8,5.9,1.5,9,2.1c3,0.6,6.1,1,9.1,1.4
				c6.1,0.8,12.3,1.5,18.4,2c3.1,0.3,6.2,0.5,9.2,0.7c3.1,0.2,6.2,0.4,9.2,0.5c6.2,0.3,12.3,0.3,18.5,0.3c6.2,0,12.4-0.2,18.5-0.5
				c6.2-0.3,12.3-0.7,18.5-1.3l0.2,0l3.8-0.5l4-0.6c2.7-0.4,5.4-0.9,8.1-1.4c5.4-1,10.7-2.2,16-3.6c5.3-1.4,10.5-2.9,15.1-5.8
				c4.6-2.8,8.5-6.8,11.5-11.4c-2.5,4.9-6.2,9.3-10.7,12.5c-4.6,3.3-9.9,5.3-15.2,6.9c-5.3,1.6-10.6,3.1-16,4.3
				c-2.7,0.6-5.4,1.2-8.1,1.7c-1.4,0.3-2.7,0.5-4.1,0.7l-2.1,0.3l-1,0.2l-0.5,0.1c-0.2,0-0.3,0-0.7,0.1l0.2,0
				c-6.2,0.7-12.4,1.3-18.6,1.7c-6.2,0.4-12.5,0.5-18.7,0.6c-6.2,0.1-12.5-0.1-18.7-0.4c-6.2-0.3-12.5-0.8-18.7-1.4
				c-6.2-0.7-12.4-1.4-18.5-2.5c-3.1-0.5-6.2-1.1-9.2-1.8c-3.1-0.7-6.1-1.6-9.1-2.5c-6-1.8-11.9-3.9-17.5-6.9
				c-2.8-1.5-5.4-3.2-7.7-5.4c-1.1-1.1-2.2-2.3-2.9-3.7C150.3,483.4,149.8,481.9,149.9,480.3z"/>
		</g>
		<g>
			<path class="st1" d="M149.9,453.2c0.1,1.6,0.7,3,1.5,4.3l0.7,0.9c0.2,0.3,0.5,0.6,0.8,0.8c0.5,0.6,1.1,1,1.7,1.6
				c2.4,1.9,5.1,3.4,7.8,4.7c2.8,1.3,5.7,2.3,8.6,3.3c2.9,1,5.9,1.7,8.9,2.5c3,0.8,5.9,1.5,9,2.1c3,0.6,6.1,1,9.1,1.4
				c6.1,0.8,12.3,1.5,18.4,2c3.1,0.3,6.2,0.5,9.2,0.7c3.1,0.2,6.2,0.4,9.2,0.5c6.2,0.3,12.3,0.3,18.5,0.3c6.2,0,12.4-0.2,18.5-0.5
				c6.2-0.3,12.3-0.7,18.5-1.3l0.2,0l3.8-0.5l4-0.6c2.7-0.4,5.4-0.9,8.1-1.4c5.4-1,10.7-2.2,16-3.6c5.3-1.4,10.5-2.9,15.1-5.8
				c4.6-2.8,8.5-6.8,11.5-11.4c-2.5,4.9-6.2,9.3-10.7,12.5c-4.6,3.3-9.9,5.3-15.2,6.9c-5.3,1.6-10.6,3.1-16,4.3
				c-2.7,0.6-5.4,1.2-8.1,1.7c-1.4,0.3-2.7,0.5-4.1,0.7l-2.1,0.3l-1,0.2l-0.5,0.1c-0.2,0-0.3,0-0.7,0.1l0.2,0
				c-6.2,0.7-12.4,1.3-18.6,1.7c-6.2,0.4-12.5,0.5-18.7,0.6c-6.2,0.1-12.5-0.1-18.7-0.4c-6.2-0.3-12.5-0.8-18.7-1.4
				c-6.2-0.7-12.4-1.4-18.5-2.5c-3.1-0.5-6.2-1.1-9.2-1.8c-3.1-0.7-6.1-1.6-9.1-2.5c-6-1.8-11.9-3.9-17.5-6.9
				c-2.8-1.5-5.4-3.2-7.7-5.4c-1.1-1.1-2.2-2.3-2.9-3.7C150.3,456.3,149.8,454.7,149.9,453.2z"/>
		</g>
		<ellipse class="st2" cx="249.4" cy="451" rx="99.6" ry="27.1"/>
		<ellipse class="st0" cx="249.4" cy="451" rx="74.3" ry="12.7"/>
		<path class="st3" d="M323.8,451c0.2,4.8-21.7,9.2-26.6,10.2c-9.6,1.9-21.5,3.7-54.3,2.4c-23.4-0.9-31.6-0.8-38.2-2.1
			c-12.6-2.3-29.8-6-29.5-10.6c0.2-2.7,6.5-4.6,11.7-6.1c3.4-1,5.1-1.1,15.8-2.7c8.9-1.3,7.5-1.2,11.3-1.7
			c3.8-0.5,10.3-1.2,18.3-1.7c6.4-0.4,11.7-0.5,17.3-0.5c20.3-0.1,31.9,1,47.4,2.4c0,0,9.5,0.9,20.9,6
			C323.1,449.2,323.8,450.2,323.8,451z"/>
	</g>
	<g>
		<path class="st0" d="M149.9,423.5V453c0,15,44.6,27.1,99.6,27.1S349,468,349,453v-29.5H149.9z"/>
		<g>
			<path class="st1" d="M149.9,453c0.1,1.6,0.7,3,1.5,4.3l0.7,0.9c0.2,0.3,0.5,0.6,0.8,0.8c0.5,0.6,1.1,1,1.7,1.6
				c2.4,1.9,5.1,3.4,7.8,4.7c2.8,1.3,5.7,2.3,8.6,3.3c2.9,1,5.9,1.7,8.9,2.5c3,0.8,5.9,1.5,9,2.1c3,0.6,6.1,1,9.1,1.4
				c6.1,0.8,12.3,1.5,18.4,2c3.1,0.3,6.2,0.5,9.2,0.7c3.1,0.2,6.2,0.4,9.2,0.5c6.2,0.3,12.3,0.3,18.5,0.3c6.2,0,12.4-0.2,18.5-0.5
				c6.2-0.3,12.3-0.7,18.5-1.3l0.2,0l3.8-0.5l4-0.6c2.7-0.4,5.4-0.9,8.1-1.4c5.4-1,10.7-2.2,16-3.6c5.3-1.4,10.5-2.9,15.1-5.8
				c4.6-2.8,8.5-6.8,11.5-11.4c-2.5,4.9-6.2,9.3-10.7,12.5c-4.6,3.3-9.9,5.3-15.2,6.9c-5.3,1.6-10.6,3.1-16,4.3
				c-2.7,0.6-5.4,1.2-8.1,1.7c-1.4,0.3-2.7,0.5-4.1,0.7l-2.1,0.3l-1,0.2l-0.5,0.1c-0.2,0-0.3,0-0.7,0.1l0.2,0
				c-6.2,0.7-12.4,1.3-18.6,1.7c-6.2,0.4-12.5,0.5-18.7,0.6c-6.2,0.1-12.5-0.1-18.7-0.4c-6.2-0.3-12.5-0.8-18.7-1.4
				c-6.2-0.7-12.4-1.4-18.5-2.5c-3.1-0.5-6.2-1.1-9.2-1.8c-3.1-0.7-6.1-1.6-9.1-2.5c-6-1.8-11.9-3.9-17.5-6.9
				c-2.8-1.5-5.4-3.2-7.7-5.4c-1.1-1.1-2.2-2.3-2.9-3.7C150.3,456.1,149.8,454.6,149.9,453z"/>
		</g>
		<g>
			<path class="st1" d="M149.9,425.9c0.1,1.6,0.7,3,1.5,4.3l0.7,0.9c0.2,0.3,0.5,0.6,0.8,0.8c0.5,0.6,1.1,1,1.7,1.6
				c2.4,1.9,5.1,3.4,7.8,4.7c2.8,1.3,5.7,2.3,8.6,3.3c2.9,1,5.9,1.7,8.9,2.5c3,0.8,5.9,1.5,9,2.1c3,0.6,6.1,1,9.1,1.4
				c6.1,0.8,12.3,1.5,18.4,2c3.1,0.3,6.2,0.5,9.2,0.7c3.1,0.2,6.2,0.4,9.2,0.5c6.2,0.3,12.3,0.3,18.5,0.3c6.2,0,12.4-0.2,18.5-0.5
				c6.2-0.3,12.3-0.7,18.5-1.3l0.2,0l3.8-0.5l4-0.6c2.7-0.4,5.4-0.9,8.1-1.4c5.4-1,10.7-2.2,16-3.6c5.3-1.4,10.5-2.9,15.1-5.8
				c4.6-2.8,8.5-6.8,11.5-11.4c-2.5,4.9-6.2,9.3-10.7,12.5c-4.6,3.3-9.9,5.3-15.2,6.9c-5.3,1.6-10.6,3.1-16,4.3
				c-2.7,0.6-5.4,1.2-8.1,1.7c-1.4,0.3-2.7,0.5-4.1,0.7l-2.1,0.3l-1,0.2l-0.5,0.1c-0.2,0-0.3,0-0.7,0.1l0.2,0
				c-6.2,0.7-12.4,1.3-18.6,1.7c-6.2,0.4-12.5,0.5-18.7,0.6c-6.2,0.1-12.5-0.1-18.7-0.4c-6.2-0.3-12.5-0.8-18.7-1.4
				c-6.2-0.7-12.4-1.4-18.5-2.5c-3.1-0.5-6.2-1.1-9.2-1.8c-3.1-0.7-6.1-1.6-9.1-2.5c-6-1.8-11.9-3.9-17.5-6.9
				c-2.8-1.5-5.4-3.2-7.7-5.4c-1.1-1.1-2.2-2.3-2.9-3.7C150.3,429,149.8,427.4,149.9,425.9z"/>
		</g>
		<ellipse class="st2" cx="249.4" cy="423.7" rx="99.6" ry="27.1"/>
		<ellipse class="st0" cx="249.4" cy="423.7" rx="74.3" ry="12.7"/>
		<path class="st3" d="M323.8,423.7c0.2,4.8-21.7,9.2-26.6,10.2c-9.6,1.9-21.5,3.7-54.3,2.4c-23.4-0.9-31.6-0.8-38.2-2.1
			c-12.6-2.3-29.8-6-29.5-10.6c0.2-2.7,6.5-4.6,11.7-6.1c3.4-1,5.1-1.1,15.8-2.7c8.9-1.3,7.5-1.2,11.3-1.7
			c3.8-0.5,10.3-1.2,18.3-1.7c6.4-0.4,11.7-0.5,17.3-0.5c20.3-0.1,31.9,1,47.4,2.4c0,0,9.5,0.9,20.9,6
			C323.1,421.9,323.8,422.9,323.8,423.7z"/>
	</g>
	<g>
		<path class="st0" d="M175.1,396.2v29.5c0,15,44.6,27.1,99.6,27.1s99.6-12.2,99.6-27.1v-29.5H175.1z"/>
		<g>
			<path class="st1" d="M175.1,425.7c0.1,1.6,0.7,3,1.5,4.3l0.7,0.9c0.2,0.3,0.5,0.6,0.8,0.8c0.5,0.6,1.1,1,1.7,1.6
				c2.4,1.9,5.1,3.4,7.8,4.7c2.8,1.3,5.7,2.3,8.6,3.3c2.9,1,5.9,1.7,8.9,2.5c3,0.8,5.9,1.5,9,2.1c3,0.6,6.1,1,9.1,1.4
				c6.1,0.8,12.3,1.5,18.4,2c3.1,0.3,6.2,0.5,9.2,0.7c3.1,0.2,6.2,0.4,9.2,0.5c6.2,0.3,12.3,0.3,18.5,0.3c6.2,0,12.4-0.2,18.5-0.5
				c6.2-0.3,12.3-0.7,18.5-1.3l0.2,0l3.8-0.5l4-0.6c2.7-0.4,5.4-0.9,8.1-1.4c5.4-1,10.7-2.2,16-3.6c5.3-1.4,10.5-2.9,15.1-5.8
				c4.6-2.8,8.5-6.8,11.5-11.4c-2.5,4.9-6.2,9.3-10.7,12.5c-4.6,3.3-9.9,5.3-15.2,6.9c-5.3,1.6-10.6,3.1-16,4.3
				c-2.7,0.6-5.4,1.2-8.1,1.7c-1.4,0.3-2.7,0.5-4.1,0.7l-2.1,0.3l-1,0.2l-0.5,0.1c-0.2,0-0.3,0-0.7,0.1l0.2,0
				c-6.2,0.7-12.4,1.3-18.6,1.7c-6.2,0.4-12.5,0.5-18.7,0.6c-6.2,0.1-12.5-0.1-18.7-0.4c-6.2-0.3-12.5-0.8-18.7-1.4
				c-6.2-0.7-12.4-1.4-18.5-2.5c-3.1-0.5-6.2-1.1-9.2-1.8c-3.1-0.7-6.1-1.6-9.1-2.5c-6-1.8-11.9-3.9-17.5-6.9
				c-2.8-1.5-5.4-3.2-7.7-5.4c-1.1-1.1-2.2-2.3-2.9-3.7C175.5,428.8,175.1,427.3,175.1,425.7z"/>
		</g>
		<g>
			<path class="st1" d="M175.1,398.6c0.1,1.6,0.7,3,1.5,4.3l0.7,0.9c0.2,0.3,0.5,0.6,0.8,0.8c0.5,0.6,1.1,1,1.7,1.6
				c2.4,1.9,5.1,3.4,7.8,4.7c2.8,1.3,5.7,2.3,8.6,3.3c2.9,1,5.9,1.7,8.9,2.5c3,0.8,5.9,1.5,9,2.1c3,0.6,6.1,1,9.1,1.4
				c6.1,0.8,12.3,1.5,18.4,2c3.1,0.3,6.2,0.5,9.2,0.7c3.1,0.2,6.2,0.4,9.2,0.5c6.2,0.3,12.3,0.3,18.5,0.3c6.2,0,12.4-0.2,18.5-0.5
				c6.2-0.3,12.3-0.7,18.5-1.3l0.2,0l3.8-0.5l4-0.6c2.7-0.4,5.4-0.9,8.1-1.4c5.4-1,10.7-2.2,16-3.6c5.3-1.4,10.5-2.9,15.1-5.8
				c4.6-2.8,8.5-6.8,11.5-11.4c-2.5,4.9-6.2,9.3-10.7,12.5c-4.6,3.3-9.9,5.3-15.2,6.9c-5.3,1.6-10.6,3.1-16,4.3
				c-2.7,0.6-5.4,1.2-8.1,1.7c-1.4,0.3-2.7,0.5-4.1,0.7l-2.1,0.3l-1,0.2l-0.5,0.1c-0.2,0-0.3,0-0.7,0.1l0.2,0
				c-6.2,0.7-12.4,1.3-18.6,1.7c-6.2,0.4-12.5,0.5-18.7,0.6c-6.2,0.1-12.5-0.1-18.7-0.4c-6.2-0.3-12.5-0.8-18.7-1.4
				c-6.2-0.7-12.4-1.4-18.5-2.5c-3.1-0.5-6.2-1.1-9.2-1.8c-3.1-0.7-6.1-1.6-9.1-2.5c-6-1.8-11.9-3.9-17.5-6.9
				c-2.8-1.5-5.4-3.2-7.7-5.4c-1.1-1.1-2.2-2.3-2.9-3.7C175.5,401.7,175.1,400.1,175.1,398.6z"/>
		</g>
		<ellipse class="st2" cx="274.7" cy="396.4" rx="99.6" ry="27.1"/>
		<ellipse class="st0" cx="274.7" cy="396.4" rx="74.3" ry="12.7"/>
		<path class="st3" d="M349,396.4c0.2,4.8-21.7,9.2-26.6,10.2c-9.6,1.9-21.5,3.7-54.3,2.4c-23.4-0.9-31.6-0.8-38.2-2.1
			c-12.6-2.3-29.8-6-29.5-10.6c0.2-2.7,6.5-4.6,11.7-6.1c3.4-1,5.1-1.1,15.8-2.7c8.9-1.3,7.5-1.2,11.3-1.7
			c3.8-0.5,10.3-1.2,18.3-1.7c6.4-0.4,11.7-0.5,17.3-0.5c20.3-0.1,31.9,1,47.4,2.4c0,0,9.5,0.9,20.9,6
			C348.4,394.6,349,395.6,349,396.4z"/>
	</g>
	<g>
		<path class="st0" d="M124.7,362v29.5c0,15,44.6,27.1,99.6,27.1s99.6-12.2,99.6-27.1V362H124.7z"/>
		<g>
			<path class="st1" d="M124.7,391.5c0.1,1.6,0.7,3,1.5,4.3l0.7,0.9c0.2,0.3,0.5,0.6,0.8,0.8c0.5,0.6,1.1,1,1.7,1.6
				c2.4,1.9,5.1,3.4,7.8,4.7c2.8,1.3,5.7,2.3,8.6,3.3c2.9,1,5.9,1.7,8.9,2.5c3,0.8,5.9,1.5,9,2.1c3,0.6,6.1,1,9.1,1.4
				c6.1,0.8,12.3,1.5,18.4,2c3.1,0.3,6.2,0.5,9.2,0.7c3.1,0.2,6.2,0.4,9.2,0.5c6.2,0.3,12.3,0.3,18.5,0.3c6.2,0,12.4-0.2,18.5-0.5
				c6.2-0.3,12.3-0.7,18.5-1.3l0.2,0l3.8-0.5l4-0.6c2.7-0.4,5.4-0.9,8.1-1.4c5.4-1,10.7-2.2,16-3.6c5.3-1.4,10.5-2.9,15.1-5.8
				c4.6-2.8,8.5-6.8,11.5-11.4c-2.5,4.9-6.2,9.3-10.7,12.5c-4.6,3.3-9.9,5.3-15.2,6.9c-5.3,1.6-10.6,3.1-16,4.3
				c-2.7,0.6-5.4,1.2-8.1,1.7c-1.4,0.3-2.7,0.5-4.1,0.7l-2.1,0.3l-1,0.2l-0.5,0.1c-0.2,0-0.3,0-0.7,0.1l0.2,0
				c-6.2,0.7-12.4,1.3-18.6,1.7c-6.2,0.4-12.5,0.5-18.7,0.6c-6.2,0.1-12.5-0.1-18.7-0.4c-6.2-0.3-12.5-0.8-18.7-1.4
				c-6.2-0.7-12.4-1.4-18.5-2.5c-3.1-0.5-6.2-1.1-9.2-1.8c-3.1-0.7-6.1-1.6-9.1-2.5c-6-1.8-11.9-3.9-17.5-6.9
				c-2.8-1.5-5.4-3.2-7.7-5.4c-1.1-1.1-2.2-2.3-2.9-3.7C125.1,394.7,124.6,393.1,124.7,391.5z"/>
		</g>
		<g>
			<path class="st1" d="M124.7,364.4c0.1,1.6,0.7,3,1.5,4.3l0.7,0.9c0.2,0.3,0.5,0.6,0.8,0.8c0.5,0.6,1.1,1,1.7,1.6
				c2.4,1.9,5.1,3.4,7.8,4.7c2.8,1.3,5.7,2.3,8.6,3.3c2.9,1,5.9,1.7,8.9,2.5c3,0.8,5.9,1.5,9,2.1c3,0.6,6.1,1,9.1,1.4
				c6.1,0.8,12.3,1.5,18.4,2c3.1,0.3,6.2,0.5,9.2,0.7c3.1,0.2,6.2,0.4,9.2,0.5c6.2,0.3,12.3,0.3,18.5,0.3c6.2,0,12.4-0.2,18.5-0.5
				c6.2-0.3,12.3-0.7,18.5-1.3l0.2,0l3.8-0.5l4-0.6c2.7-0.4,5.4-0.9,8.1-1.4c5.4-1,10.7-2.2,16-3.6c5.3-1.4,10.5-2.9,15.1-5.8
				c4.6-2.8,8.5-6.8,11.5-11.4c-2.5,4.9-6.2,9.3-10.7,12.5c-4.6,3.3-9.9,5.3-15.2,6.9c-5.3,1.6-10.6,3.1-16,4.3
				c-2.7,0.6-5.4,1.2-8.1,1.7c-1.4,0.3-2.7,0.5-4.1,0.7l-2.1,0.3l-1,0.2l-0.5,0.1c-0.2,0-0.3,0-0.7,0.1l0.2,0
				c-6.2,0.7-12.4,1.3-18.6,1.7c-6.2,0.4-12.5,0.5-18.7,0.6c-6.2,0.1-12.5-0.1-18.7-0.4c-6.2-0.3-12.5-0.8-18.7-1.4
				c-6.2-0.7-12.4-1.4-18.5-2.5c-3.1-0.5-6.2-1.1-9.2-1.8c-3.1-0.7-6.1-1.6-9.1-2.5c-6-1.8-11.9-3.9-17.5-6.9
				c-2.8-1.5-5.4-3.2-7.7-5.4c-1.1-1.1-2.2-2.3-2.9-3.7C125.1,367.5,124.6,366,124.7,364.4z"/>
		</g>
		<ellipse class="st2" cx="224.2" cy="362.3" rx="99.6" ry="27.1"/>
		<ellipse class="st0" cx="224.2" cy="362.3" rx="74.3" ry="12.7"/>
		<path class="st3" d="M298.6,362.3c0.2,4.8-21.7,9.2-26.6,10.2c-9.6,1.9-21.5,3.7-54.3,2.4c-23.4-0.9-31.6-0.8-38.2-2.1
			c-12.6-2.3-29.8-6-29.5-10.6c0.2-2.7,6.5-4.6,11.7-6.1c3.4-1,5.1-1.1,15.8-2.7c8.9-1.3,7.5-1.2,11.3-1.7
			c3.8-0.5,10.3-1.2,18.3-1.7c6.4-0.4,11.7-0.5,17.3-0.5c20.3-0.1,31.9,1,47.4,2.4c0,0,9.5,0.9,20.9,6
			C297.9,360.4,298.5,361.5,298.6,362.3z"/>
	</g>
	<g>
		<path class="st0" d="M323.8,460.8v29.5c0,15,44.6,27.1,99.6,27.1s99.6-12.2,99.6-27.1v-29.5H323.8z"/>
		<g>
			<path class="st1" d="M323.8,490.3c0.1,1.6,0.7,3,1.5,4.3l0.7,0.9c0.2,0.3,0.5,0.6,0.8,0.8c0.5,0.6,1.1,1,1.7,1.6
				c2.4,1.9,5.1,3.4,7.8,4.7c2.8,1.3,5.7,2.3,8.6,3.3c2.9,1,5.9,1.7,8.9,2.5c3,0.8,5.9,1.5,9,2.1c3,0.6,6.1,1,9.1,1.4
				c6.1,0.8,12.3,1.5,18.4,2c3.1,0.3,6.2,0.5,9.2,0.7c3.1,0.2,6.2,0.4,9.2,0.5c6.2,0.3,12.3,0.3,18.5,0.3c6.2,0,12.4-0.2,18.5-0.5
				c6.2-0.3,12.3-0.7,18.5-1.3l0.2,0l3.8-0.5l4-0.6c2.7-0.4,5.4-0.9,8.1-1.4c5.4-1,10.7-2.2,16-3.6c5.3-1.4,10.5-2.9,15.1-5.8
				c4.6-2.8,8.5-6.8,11.5-11.4c-2.5,4.9-6.2,9.3-10.7,12.5c-4.6,3.3-9.9,5.3-15.2,6.9c-5.3,1.6-10.6,3.1-16,4.3
				c-2.7,0.6-5.4,1.2-8.1,1.7c-1.4,0.3-2.7,0.5-4.1,0.7l-2.1,0.3l-1,0.2l-0.5,0.1c-0.2,0-0.3,0-0.7,0.1l0.2,0
				c-6.2,0.7-12.4,1.3-18.6,1.7c-6.2,0.4-12.5,0.5-18.7,0.6c-6.2,0.1-12.5-0.1-18.7-0.4c-6.2-0.3-12.5-0.8-18.7-1.4
				c-6.2-0.7-12.4-1.4-18.5-2.5c-3.1-0.5-6.2-1.1-9.2-1.8c-3.1-0.7-6.1-1.6-9.1-2.5c-6-1.8-11.9-3.9-17.5-6.9
				c-2.8-1.5-5.4-3.2-7.7-5.4c-1.1-1.1-2.2-2.3-2.9-3.7C324.2,493.4,323.7,491.9,323.8,490.3z"/>
		</g>
		<g>
			<path class="st1" d="M323.8,463.2c0.1,1.6,0.7,3,1.5,4.3l0.7,0.9c0.2,0.3,0.5,0.6,0.8,0.8c0.5,0.6,1.1,1,1.7,1.6
				c2.4,1.9,5.1,3.4,7.8,4.7c2.8,1.3,5.7,2.3,8.6,3.3c2.9,1,5.9,1.7,8.9,2.5c3,0.8,5.9,1.5,9,2.1c3,0.6,6.1,1,9.1,1.4
				c6.1,0.8,12.3,1.5,18.4,2c3.1,0.3,6.2,0.5,9.2,0.7c3.1,0.2,6.2,0.4,9.2,0.5c6.2,0.3,12.3,0.3,18.5,0.3c6.2,0,12.4-0.2,18.5-0.5
				c6.2-0.3,12.3-0.7,18.5-1.3l0.2,0l3.8-0.5l4-0.6c2.7-0.4,5.4-0.9,8.1-1.4c5.4-1,10.7-2.2,16-3.6c5.3-1.4,10.5-2.9,15.1-5.8
				c4.6-2.8,8.5-6.8,11.5-11.4c-2.5,4.9-6.2,9.3-10.7,12.5c-4.6,3.3-9.9,5.3-15.2,6.9c-5.3,1.6-10.6,3.1-16,4.3
				c-2.7,0.6-5.4,1.2-8.1,1.7c-1.4,0.3-2.7,0.5-4.1,0.7l-2.1,0.3l-1,0.2l-0.5,0.1c-0.2,0-0.3,0-0.7,0.1l0.2,0
				c-6.2,0.7-12.4,1.3-18.6,1.7c-6.2,0.4-12.5,0.5-18.7,0.6c-6.2,0.1-12.5-0.1-18.7-0.4c-6.2-0.3-12.5-0.8-18.7-1.4
				c-6.2-0.7-12.4-1.4-18.5-2.5c-3.1-0.5-6.2-1.1-9.2-1.8c-3.1-0.7-6.1-1.6-9.1-2.5c-6-1.8-11.9-3.9-17.5-6.9
				c-2.8-1.5-5.4-3.2-7.7-5.4c-1.1-1.1-2.2-2.3-2.9-3.7C324.2,466.3,323.7,464.7,323.8,463.2z"/>
		</g>
		<ellipse class="st2" cx="423.3" cy="461" rx="99.6" ry="27.1"/>
		<ellipse class="st0" cx="423.3" cy="461" rx="74.3" ry="12.7"/>
		<path class="st3" d="M497.7,461c0.2,4.8-21.7,9.2-26.6,10.2c-9.6,1.9-21.5,3.7-54.3,2.4c-23.4-0.9-31.6-0.8-38.2-2.1
			c-12.6-2.3-29.8-6-29.5-10.6c0.2-2.7,6.5-4.6,11.7-6.1c3.4-1,5.1-1.1,15.8-2.7c8.9-1.3,7.5-1.2,11.3-1.7
			c3.8-0.5,10.3-1.2,18.3-1.7c6.4-0.4,11.7-0.5,17.3-0.5c20.3-0.1,31.9,1,47.4,2.4c0,0,9.5,0.9,20.9,6
			C497,459.2,497.7,460.2,497.7,461z"/>
	</g>
	<g>
		<path class="st0" d="M371.1,428.7v29.5c0,15,44.6,27.1,99.6,27.1s99.6-12.2,99.6-27.1v-29.5H371.1z"/>
		<g>
			<path class="st1" d="M371.1,458.2c0.1,1.6,0.7,3,1.5,4.3l0.7,0.9c0.2,0.3,0.5,0.6,0.8,0.8c0.5,0.6,1.1,1,1.7,1.6
				c2.4,1.9,5.1,3.4,7.8,4.7c2.8,1.3,5.7,2.3,8.6,3.3c2.9,1,5.9,1.7,8.9,2.5c3,0.8,5.9,1.5,9,2.1c3,0.6,6.1,1,9.1,1.4
				c6.1,0.8,12.3,1.5,18.4,2c3.1,0.3,6.2,0.5,9.2,0.7c3.1,0.2,6.2,0.4,9.2,0.5c6.2,0.3,12.3,0.3,18.5,0.3c6.2,0,12.4-0.2,18.5-0.5
				c6.2-0.3,12.3-0.7,18.5-1.3l0.2,0l3.8-0.5l4-0.6c2.7-0.4,5.4-0.9,8.1-1.4c5.4-1,10.7-2.2,16-3.6c5.3-1.4,10.5-2.9,15.1-5.8
				c4.6-2.8,8.5-6.8,11.5-11.4c-2.5,4.9-6.2,9.3-10.7,12.5c-4.6,3.3-9.9,5.3-15.2,6.9c-5.3,1.6-10.6,3.1-16,4.3
				c-2.7,0.6-5.4,1.2-8.1,1.7c-1.4,0.3-2.7,0.5-4.1,0.7l-2.1,0.3l-1,0.2l-0.5,0.1c-0.2,0-0.3,0-0.7,0.1l0.2,0
				c-6.2,0.7-12.4,1.3-18.6,1.7c-6.2,0.4-12.5,0.5-18.7,0.6c-6.2,0.1-12.5-0.1-18.7-0.4c-6.2-0.3-12.5-0.8-18.7-1.4
				c-6.2-0.7-12.4-1.4-18.5-2.5c-3.1-0.5-6.2-1.1-9.2-1.8c-3.1-0.7-6.1-1.6-9.1-2.5c-6-1.8-11.9-3.9-17.5-6.9
				c-2.8-1.5-5.4-3.2-7.7-5.4c-1.1-1.1-2.2-2.3-2.9-3.7C371.5,461.3,371,459.8,371.1,458.2z"/>
		</g>
		<g>
			<path class="st1" d="M371.1,431.1c0.1,1.6,0.7,3,1.5,4.3l0.7,0.9c0.2,0.3,0.5,0.6,0.8,0.8c0.5,0.6,1.1,1,1.7,1.6
				c2.4,1.9,5.1,3.4,7.8,4.7c2.8,1.3,5.7,2.3,8.6,3.3c2.9,1,5.9,1.7,8.9,2.5c3,0.8,5.9,1.5,9,2.1c3,0.6,6.1,1,9.1,1.4
				c6.1,0.8,12.3,1.5,18.4,2c3.1,0.3,6.2,0.5,9.2,0.7c3.1,0.2,6.2,0.4,9.2,0.5c6.2,0.3,12.3,0.3,18.5,0.3c6.2,0,12.4-0.2,18.5-0.5
				c6.2-0.3,12.3-0.7,18.5-1.3l0.2,0l3.8-0.5l4-0.6c2.7-0.4,5.4-0.9,8.1-1.4c5.4-1,10.7-2.2,16-3.6c5.3-1.4,10.5-2.9,15.1-5.8
				c4.6-2.8,8.5-6.8,11.5-11.4c-2.5,4.9-6.2,9.3-10.7,12.5c-4.6,3.3-9.9,5.3-15.2,6.9c-5.3,1.6-10.6,3.1-16,4.3
				c-2.7,0.6-5.4,1.2-8.1,1.7c-1.4,0.3-2.7,0.5-4.1,0.7l-2.1,0.3l-1,0.2l-0.5,0.1c-0.2,0-0.3,0-0.7,0.1l0.2,0
				c-6.2,0.7-12.4,1.3-18.6,1.7c-6.2,0.4-12.5,0.5-18.7,0.6c-6.2,0.1-12.5-0.1-18.7-0.4c-6.2-0.3-12.5-0.8-18.7-1.4
				c-6.2-0.7-12.4-1.4-18.5-2.5c-3.1-0.5-6.2-1.1-9.2-1.8c-3.1-0.7-6.1-1.6-9.1-2.5c-6-1.8-11.9-3.9-17.5-6.9
				c-2.8-1.5-5.4-3.2-7.7-5.4c-1.1-1.1-2.2-2.3-2.9-3.7C371.5,434.2,371,432.6,371.1,431.1z"/>
		</g>
		<ellipse class="st2" cx="470.6" cy="428.9" rx="99.6" ry="27.1"/>
		<ellipse class="st0" cx="470.6" cy="428.9" rx="74.3" ry="12.7"/>
		<path class="st3" d="M545,428.9c0.2,4.8-21.7,9.2-26.6,10.2c-9.6,1.9-21.5,3.7-54.3,2.4c-23.4-0.9-31.6-0.8-38.2-2.1
			c-12.6-2.3-29.8-6-29.5-10.6c0.2-2.7,6.5-4.6,11.7-6.1c3.4-1,5.1-1.1,15.8-2.7c8.9-1.3,7.5-1.2,11.3-1.7
			c3.8-0.5,10.3-1.2,18.3-1.7c6.4-0.4,11.7-0.5,17.3-0.5c20.3-0.1,31.9,1,47.4,2.4c0,0,9.5,0.9,20.9,6
			C544.3,427.1,545,428.1,545,428.9z"/>
	</g>
	<g>
		<path class="st0" d="M371.1,401.4v29.5c0,15,44.6,27.1,99.6,27.1s99.6-12.2,99.6-27.1v-29.5H371.1z"/>
		<g>
			<path class="st1" d="M371.1,430.9c0.1,1.6,0.7,3,1.5,4.3l0.7,0.9c0.2,0.3,0.5,0.6,0.8,0.8c0.5,0.6,1.1,1,1.7,1.6
				c2.4,1.9,5.1,3.4,7.8,4.7c2.8,1.3,5.7,2.3,8.6,3.3c2.9,1,5.9,1.7,8.9,2.5c3,0.8,5.9,1.5,9,2.1c3,0.6,6.1,1,9.1,1.4
				c6.1,0.8,12.3,1.5,18.4,2c3.1,0.3,6.2,0.5,9.2,0.7c3.1,0.2,6.2,0.4,9.2,0.5c6.2,0.3,12.3,0.3,18.5,0.3c6.2,0,12.4-0.2,18.5-0.5
				c6.2-0.3,12.3-0.7,18.5-1.3l0.2,0l3.8-0.5l4-0.6c2.7-0.4,5.4-0.9,8.1-1.4c5.4-1,10.7-2.2,16-3.6c5.3-1.4,10.5-2.9,15.1-5.8
				c4.6-2.8,8.5-6.8,11.5-11.4c-2.5,4.9-6.2,9.3-10.7,12.5c-4.6,3.3-9.9,5.3-15.2,6.9c-5.3,1.6-10.6,3.1-16,4.3
				c-2.7,0.6-5.4,1.2-8.1,1.7c-1.4,0.3-2.7,0.5-4.1,0.7l-2.1,0.3l-1,0.2l-0.5,0.1c-0.2,0-0.3,0-0.7,0.1l0.2,0
				c-6.2,0.7-12.4,1.3-18.6,1.7c-6.2,0.4-12.5,0.5-18.7,0.6c-6.2,0.1-12.5-0.1-18.7-0.4c-6.2-0.3-12.5-0.8-18.7-1.4
				c-6.2-0.7-12.4-1.4-18.5-2.5c-3.1-0.5-6.2-1.1-9.2-1.8c-3.1-0.7-6.1-1.6-9.1-2.5c-6-1.8-11.9-3.9-17.5-6.9
				c-2.8-1.5-5.4-3.2-7.7-5.4c-1.1-1.1-2.2-2.3-2.9-3.7C371.5,434,371,432.5,371.1,430.9z"/>
		</g>
		<g>
			<path class="st1" d="M371.1,403.8c0.1,1.6,0.7,3,1.5,4.3l0.7,0.9c0.2,0.3,0.5,0.6,0.8,0.8c0.5,0.6,1.1,1,1.7,1.6
				c2.4,1.9,5.1,3.4,7.8,4.7c2.8,1.3,5.7,2.3,8.6,3.3c2.9,1,5.9,1.7,8.9,2.5c3,0.8,5.9,1.5,9,2.1c3,0.6,6.1,1,9.1,1.4
				c6.1,0.8,12.3,1.5,18.4,2c3.1,0.3,6.2,0.5,9.2,0.7c3.1,0.2,6.2,0.4,9.2,0.5c6.2,0.3,12.3,0.3,18.5,0.3c6.2,0,12.4-0.2,18.5-0.5
				c6.2-0.3,12.3-0.7,18.5-1.3l0.2,0l3.8-0.5l4-0.6c2.7-0.4,5.4-0.9,8.1-1.4c5.4-1,10.7-2.2,16-3.6c5.3-1.4,10.5-2.9,15.1-5.8
				c4.6-2.8,8.5-6.8,11.5-11.4c-2.5,4.9-6.2,9.3-10.7,12.5c-4.6,3.3-9.9,5.3-15.2,6.9c-5.3,1.6-10.6,3.1-16,4.3
				c-2.7,0.6-5.4,1.2-8.1,1.7c-1.4,0.3-2.7,0.5-4.1,0.7l-2.1,0.3l-1,0.2l-0.5,0.1c-0.2,0-0.3,0-0.7,0.1l0.2,0
				c-6.2,0.7-12.4,1.3-18.6,1.7c-6.2,0.4-12.5,0.5-18.7,0.6c-6.2,0.1-12.5-0.1-18.7-0.4c-6.2-0.3-12.5-0.8-18.7-1.4
				c-6.2-0.7-12.4-1.4-18.5-2.5c-3.1-0.5-6.2-1.1-9.2-1.8c-3.1-0.7-6.1-1.6-9.1-2.5c-6-1.8-11.9-3.9-17.5-6.9
				c-2.8-1.5-5.4-3.2-7.7-5.4c-1.1-1.1-2.2-2.3-2.9-3.7C371.5,406.9,371,405.3,371.1,403.8z"/>
		</g>
		<ellipse class="st2" cx="470.6" cy="401.6" rx="99.6" ry="27.1"/>
		<ellipse class="st0" cx="470.6" cy="401.6" rx="74.3" ry="12.7"/>
		<path class="st3" d="M545,401.6c0.2,4.8-21.7,9.2-26.6,10.2c-9.6,1.9-21.5,3.7-54.3,2.4c-23.4-0.9-31.6-0.8-38.2-2.1
			c-12.6-2.3-29.8-6-29.5-10.6c0.2-2.7,6.5-4.6,11.7-6.1c3.4-1,5.1-1.1,15.8-2.7c8.9-1.3,7.5-1.2,11.3-1.7
			c3.8-0.5,10.3-1.2,18.3-1.7c6.4-0.4,11.7-0.5,17.3-0.5c20.3-0.1,31.9,1,47.4,2.4c0,0,9.5,0.9,20.9,6
			C544.3,399.8,545,400.8,545,401.6z"/>
	</g>
</g>
</svg>
