<?xml version="1.0" encoding="utf-8"?>
<!-- Generator: Adobe Illustrator 25.2.1, SVG Export Plug-In . SVG Version: 6.00 Build 0)  -->
<svg version="1.1" id="Layer_1" xmlns="http://www.w3.org/2000/svg" xmlns:xlink="http://www.w3.org/1999/xlink" x="0px" y="0px"
	 viewBox="0 0 746.7 562.2" style="enable-background:new 0 0 746.7 562.2;" xml:space="preserve">
<style type="text/css">
	.st0{fill:#FFC50D;}
	.st1{fill:#EFAA0F;}
	.st2{fill:#FEE100;}
	.st3{fill:none;stroke:#EFAA0F;stroke-width:3;stroke-miterlimit:10;}
</style>
<g>
	<g>
		<path class="st0" d="M373.4,456v29.5c0,15,44.6,27.1,99.6,27.1s99.6-12.2,99.6-27.1V456H373.4z"/>
		<g>
			<path class="st1" d="M373.4,485.5c0.1,1.6,0.7,3,1.5,4.3l0.7,0.9c0.2,0.3,0.5,0.6,0.8,0.8c0.5,0.6,1.1,1,1.7,1.6
				c2.4,1.9,5.1,3.4,7.8,4.7c2.8,1.3,5.7,2.3,8.6,3.3c2.9,1,5.9,1.7,8.9,2.5c3,0.8,5.9,1.5,9,2.1c3,0.6,6.1,1,9.1,1.4
				c6.1,0.8,12.3,1.5,18.4,2c3.1,0.3,6.2,0.5,9.2,0.7c3.1,0.2,6.2,0.4,9.2,0.5c6.2,0.3,12.3,0.3,18.5,0.3c6.2,0,12.4-0.2,18.5-0.5
				c6.2-0.3,12.3-0.7,18.5-1.3l0.2,0l3.8-0.5l4-0.6c2.7-0.4,5.4-0.9,8.1-1.4c5.4-1,10.7-2.2,16-3.6c5.3-1.4,10.5-2.9,15.1-5.8
				c4.6-2.8,8.5-6.8,11.5-11.4c-2.5,4.9-6.2,9.3-10.7,12.5c-4.6,3.3-9.9,5.3-15.2,6.9c-5.3,1.6-10.6,3.1-16,4.3
				c-2.7,0.6-5.4,1.2-8.1,1.7c-1.4,0.3-2.7,0.5-4.1,0.7l-2.1,0.3l-1,0.2l-0.5,0.1c-0.2,0-0.3,0-0.7,0.1l0.2,0
				c-6.2,0.7-12.4,1.3-18.6,1.7c-6.2,0.4-12.5,0.5-18.7,0.6c-6.2,0.1-12.5-0.1-18.7-0.4c-6.2-0.3-12.5-0.8-18.7-1.4
				c-6.2-0.7-12.4-1.4-18.5-2.5c-3.1-0.5-6.2-1.1-9.2-1.8c-3.1-0.7-6.1-1.6-9.1-2.5c-6-1.8-11.9-3.9-17.5-6.9
				c-2.8-1.5-5.4-3.2-7.7-5.4c-1.1-1.1-2.2-2.3-2.9-3.7C373.9,488.6,373.4,487.1,373.4,485.5z"/>
		</g>
		<g>
			<path class="st1" d="M373.4,458.4c0.1,1.6,0.7,3,1.5,4.3l0.7,0.9c0.2,0.3,0.5,0.6,0.8,0.8c0.5,0.6,1.1,1,1.7,1.6
				c2.4,1.9,5.1,3.4,7.8,4.7c2.8,1.3,5.7,2.3,8.6,3.3c2.9,1,5.9,1.7,8.9,2.5c3,0.8,5.9,1.5,9,2.1c3,0.6,6.1,1,9.1,1.4
				c6.1,0.8,12.3,1.5,18.4,2c3.1,0.3,6.2,0.5,9.2,0.7c3.1,0.2,6.2,0.4,9.2,0.5c6.2,0.3,12.3,0.3,18.5,0.3c6.2,0,12.4-0.2,18.5-0.5
				c6.2-0.3,12.3-0.7,18.5-1.3l0.2,0l3.8-0.5l4-0.6c2.7-0.4,5.4-0.9,8.1-1.4c5.4-1,10.7-2.2,16-3.6c5.3-1.4,10.5-2.9,15.1-5.8
				c4.6-2.8,8.5-6.8,11.5-11.4c-2.5,4.9-6.2,9.3-10.7,12.5c-4.6,3.3-9.9,5.3-15.2,6.9c-5.3,1.6-10.6,3.1-16,4.3
				c-2.7,0.6-5.4,1.2-8.1,1.7c-1.4,0.3-2.7,0.5-4.1,0.7l-2.1,0.3l-1,0.2l-0.5,0.1c-0.2,0-0.3,0-0.7,0.1l0.2,0
				c-6.2,0.7-12.4,1.3-18.6,1.7c-6.2,0.4-12.5,0.5-18.7,0.6c-6.2,0.1-12.5-0.1-18.7-0.4c-6.2-0.3-12.5-0.8-18.7-1.4
				c-6.2-0.7-12.4-1.4-18.5-2.5c-3.1-0.5-6.2-1.1-9.2-1.8c-3.1-0.7-6.1-1.6-9.1-2.5c-6-1.8-11.9-3.9-17.5-6.9
				c-2.8-1.5-5.4-3.2-7.7-5.4c-1.1-1.1-2.2-2.3-2.9-3.7C373.9,461.5,373.4,459.9,373.4,458.4z"/>
		</g>
		<ellipse class="st2" cx="473" cy="456.2" rx="99.6" ry="27.1"/>
		<ellipse class="st0" cx="473" cy="456.2" rx="74.3" ry="12.7"/>
		<path class="st3" d="M547.3,456.2c0.2,4.8-21.7,9.2-26.6,10.2c-9.6,1.9-21.5,3.7-54.3,2.4c-23.4-0.9-31.6-0.8-38.2-2.1
			c-12.6-2.3-29.8-6-29.5-10.6c0.2-2.7,6.5-4.6,11.7-6.1c3.4-1,5.1-1.1,15.8-2.7c8.9-1.3,7.5-1.2,11.3-1.7
			c3.8-0.5,10.3-1.2,18.3-1.7c6.4-0.4,11.7-0.5,17.3-0.5c20.3-0.1,31.9,1,47.4,2.4c0,0,9.5,0.9,20.9,6
			C546.7,454.4,547.3,455.4,547.3,456.2z"/>
	</g>
	<g>
		<path class="st0" d="M145.4,454.4v29.5c0,15,44.6,27.1,99.6,27.1s99.6-12.2,99.6-27.1v-29.5H145.4z"/>
		<g>
			<path class="st1" d="M145.4,483.9c0.1,1.6,0.7,3,1.5,4.3l0.7,0.9c0.2,0.3,0.5,0.6,0.8,0.8c0.5,0.6,1.1,1,1.7,1.6
				c2.4,1.9,5.1,3.4,7.8,4.7c2.8,1.3,5.7,2.3,8.6,3.3c2.9,1,5.9,1.7,8.9,2.5c3,0.8,5.9,1.5,9,2.1c3,0.6,6.1,1,9.1,1.4
				c6.1,0.8,12.3,1.5,18.4,2c3.1,0.3,6.2,0.5,9.2,0.7c3.1,0.2,6.2,0.4,9.2,0.5c6.2,0.3,12.3,0.3,18.5,0.3c6.2,0,12.4-0.2,18.5-0.5
				c6.2-0.3,12.3-0.7,18.5-1.3l0.2,0l3.8-0.5l4-0.6c2.7-0.4,5.4-0.9,8.1-1.4c5.4-1,10.7-2.2,16-3.6c5.3-1.4,10.5-2.9,15.1-5.8
				c4.6-2.8,8.5-6.8,11.5-11.4c-2.5,4.9-6.2,9.3-10.7,12.5c-4.6,3.3-9.9,5.3-15.2,6.9c-5.3,1.6-10.6,3.1-16,4.3
				c-2.7,0.6-5.4,1.2-8.1,1.7c-1.4,0.3-2.7,0.5-4.1,0.7l-2.1,0.3l-1,0.2l-0.5,0.1c-0.2,0-0.3,0-0.7,0.1l0.2,0
				c-6.2,0.7-12.4,1.3-18.6,1.7c-6.2,0.4-12.5,0.5-18.7,0.6c-6.2,0.1-12.5-0.1-18.7-0.4c-6.2-0.3-12.5-0.8-18.7-1.4
				c-6.2-0.7-12.4-1.4-18.5-2.5c-3.1-0.5-6.2-1.1-9.2-1.8c-3.1-0.7-6.1-1.6-9.1-2.5c-6-1.8-11.9-3.9-17.5-6.9
				c-2.8-1.5-5.4-3.2-7.7-5.4c-1.1-1.1-2.2-2.3-2.9-3.7C145.8,487.1,145.3,485.5,145.4,483.9z"/>
		</g>
		<g>
			<path class="st1" d="M145.4,456.8c0.1,1.6,0.7,3,1.5,4.3l0.7,0.9c0.2,0.3,0.5,0.6,0.8,0.8c0.5,0.6,1.1,1,1.7,1.6
				c2.4,1.9,5.1,3.4,7.8,4.7c2.8,1.3,5.7,2.3,8.6,3.3c2.9,1,5.9,1.7,8.9,2.5c3,0.8,5.9,1.5,9,2.1c3,0.6,6.1,1,9.1,1.4
				c6.1,0.8,12.3,1.5,18.4,2c3.1,0.3,6.2,0.5,9.2,0.7c3.1,0.2,6.2,0.4,9.2,0.5c6.2,0.3,12.3,0.3,18.5,0.3c6.2,0,12.4-0.2,18.5-0.5
				c6.2-0.3,12.3-0.7,18.5-1.3l0.2,0l3.8-0.5l4-0.6c2.7-0.4,5.4-0.9,8.1-1.4c5.4-1,10.7-2.2,16-3.6c5.3-1.4,10.5-2.9,15.1-5.8
				c4.6-2.8,8.5-6.8,11.5-11.4c-2.5,4.9-6.2,9.3-10.7,12.5c-4.6,3.3-9.9,5.3-15.2,6.9c-5.3,1.6-10.6,3.1-16,4.3
				c-2.7,0.6-5.4,1.2-8.1,1.7c-1.4,0.3-2.7,0.5-4.1,0.7l-2.1,0.3l-1,0.2l-0.5,0.1c-0.2,0-0.3,0-0.7,0.1l0.2,0
				c-6.2,0.7-12.4,1.3-18.6,1.7c-6.2,0.4-12.5,0.5-18.7,0.6c-6.2,0.1-12.5-0.1-18.7-0.4c-6.2-0.3-12.5-0.8-18.7-1.4
				c-6.2-0.7-12.4-1.4-18.5-2.5c-3.1-0.5-6.2-1.1-9.2-1.8c-3.1-0.7-6.1-1.6-9.1-2.5c-6-1.8-11.9-3.9-17.5-6.9
				c-2.8-1.5-5.4-3.2-7.7-5.4c-1.1-1.1-2.2-2.3-2.9-3.7C145.8,459.9,145.3,458.4,145.4,456.8z"/>
		</g>
		<ellipse class="st2" cx="244.9" cy="454.7" rx="99.6" ry="27.1"/>
		<ellipse class="st0" cx="244.9" cy="454.7" rx="74.3" ry="12.7"/>
		<path class="st3" d="M319.3,454.7c0.2,4.8-21.7,9.2-26.6,10.2c-9.6,1.9-21.5,3.7-54.3,2.4c-23.4-0.9-31.6-0.8-38.2-2.1
			c-12.6-2.3-29.8-6-29.5-10.6c0.2-2.7,6.5-4.6,11.7-6.1c3.4-1,5.1-1.1,15.8-2.7c8.9-1.3,7.5-1.2,11.3-1.7
			c3.8-0.5,10.3-1.2,18.3-1.7c6.4-0.4,11.7-0.5,17.3-0.5c20.3-0.1,31.9,1,47.4,2.4c0,0,9.5,0.9,20.9,6
			C318.6,452.8,319.3,453.9,319.3,454.7z"/>
	</g>
	<g>
		<path class="st0" d="M145.4,427.1v29.5c0,15,44.6,27.1,99.6,27.1s99.6-12.2,99.6-27.1v-29.5H145.4z"/>
		<g>
			<path class="st1" d="M145.4,456.6c0.1,1.6,0.7,3,1.5,4.3l0.7,0.9c0.2,0.3,0.5,0.6,0.8,0.8c0.5,0.6,1.1,1,1.7,1.6
				c2.4,1.9,5.1,3.4,7.8,4.7c2.8,1.3,5.7,2.3,8.6,3.3c2.9,1,5.9,1.7,8.9,2.5c3,0.8,5.9,1.5,9,2.1c3,0.6,6.1,1,9.1,1.4
				c6.1,0.8,12.3,1.5,18.4,2c3.1,0.3,6.2,0.5,9.2,0.7c3.1,0.2,6.2,0.4,9.2,0.5c6.2,0.3,12.3,0.3,18.5,0.3c6.2,0,12.4-0.2,18.5-0.5
				c6.2-0.3,12.3-0.7,18.5-1.3l0.2,0l3.8-0.5l4-0.6c2.7-0.4,5.4-0.9,8.1-1.4c5.4-1,10.7-2.2,16-3.6c5.3-1.4,10.5-2.9,15.1-5.8
				c4.6-2.8,8.5-6.8,11.5-11.4c-2.5,4.9-6.2,9.3-10.7,12.5c-4.6,3.3-9.9,5.3-15.2,6.9c-5.3,1.6-10.6,3.1-16,4.3
				c-2.7,0.6-5.4,1.2-8.1,1.7c-1.4,0.3-2.7,0.5-4.1,0.7l-2.1,0.3l-1,0.2l-0.5,0.1c-0.2,0-0.3,0-0.7,0.1l0.2,0
				c-6.2,0.7-12.4,1.3-18.6,1.7c-6.2,0.4-12.5,0.5-18.7,0.6c-6.2,0.1-12.5-0.1-18.7-0.4c-6.2-0.3-12.5-0.8-18.7-1.4
				c-6.2-0.7-12.4-1.4-18.5-2.5c-3.1-0.5-6.2-1.1-9.2-1.8c-3.1-0.7-6.1-1.6-9.1-2.5c-6-1.8-11.9-3.9-17.5-6.9
				c-2.8-1.5-5.4-3.2-7.7-5.4c-1.1-1.1-2.2-2.3-2.9-3.7C145.8,459.8,145.3,458.2,145.4,456.6z"/>
		</g>
		<g>
			<path class="st1" d="M145.4,429.5c0.1,1.6,0.7,3,1.5,4.3l0.7,0.9c0.2,0.3,0.5,0.6,0.8,0.8c0.5,0.6,1.1,1,1.7,1.6
				c2.4,1.9,5.1,3.4,7.8,4.7c2.8,1.3,5.7,2.3,8.6,3.3c2.9,1,5.9,1.7,8.9,2.5c3,0.8,5.9,1.5,9,2.1c3,0.6,6.1,1,9.1,1.4
				c6.1,0.8,12.3,1.5,18.4,2c3.1,0.3,6.2,0.5,9.2,0.7c3.1,0.2,6.2,0.4,9.2,0.5c6.2,0.3,12.3,0.3,18.5,0.3c6.2,0,12.4-0.2,18.5-0.5
				c6.2-0.3,12.3-0.7,18.5-1.3l0.2,0l3.8-0.5l4-0.6c2.7-0.4,5.4-0.9,8.1-1.4c5.4-1,10.7-2.2,16-3.6c5.3-1.4,10.5-2.9,15.1-5.8
				c4.6-2.8,8.5-6.8,11.5-11.4c-2.5,4.9-6.2,9.3-10.7,12.5c-4.6,3.3-9.9,5.3-15.2,6.9c-5.3,1.6-10.6,3.1-16,4.3
				c-2.7,0.6-5.4,1.2-8.1,1.7c-1.4,0.3-2.7,0.5-4.1,0.7l-2.1,0.3l-1,0.2l-0.5,0.1c-0.2,0-0.3,0-0.7,0.1l0.2,0
				c-6.2,0.7-12.4,1.3-18.6,1.7c-6.2,0.4-12.5,0.5-18.7,0.6c-6.2,0.1-12.5-0.1-18.7-0.4c-6.2-0.3-12.5-0.8-18.7-1.4
				c-6.2-0.7-12.4-1.4-18.5-2.5c-3.1-0.5-6.2-1.1-9.2-1.8c-3.1-0.7-6.1-1.6-9.1-2.5c-6-1.8-11.9-3.9-17.5-6.9
				c-2.8-1.5-5.4-3.2-7.7-5.4c-1.1-1.1-2.2-2.3-2.9-3.7C145.8,432.6,145.3,431.1,145.4,429.5z"/>
		</g>
		<ellipse class="st2" cx="244.9" cy="427.4" rx="99.6" ry="27.1"/>
		<ellipse class="st0" cx="244.9" cy="427.4" rx="74.3" ry="12.7"/>
		<path class="st3" d="M319.3,427.4c0.2,4.8-21.7,9.2-26.6,10.2c-9.6,1.9-21.5,3.7-54.3,2.4c-23.4-0.9-31.6-0.8-38.2-2.1
			c-12.6-2.3-29.8-6-29.5-10.6c0.2-2.7,6.5-4.6,11.7-6.1c3.4-1,5.1-1.1,15.8-2.7c8.9-1.3,7.5-1.2,11.3-1.7
			c3.8-0.5,10.3-1.2,18.3-1.7c6.4-0.4,11.7-0.5,17.3-0.5c20.3-0.1,31.9,1,47.4,2.4c0,0,9.5,0.9,20.9,6
			C318.6,425.5,319.3,426.6,319.3,427.4z"/>
	</g>
	<g>
		<path class="st0" d="M170.6,399.8v29.5c0,15,44.6,27.1,99.6,27.1s99.6-12.2,99.6-27.1v-29.5H170.6z"/>
		<g>
			<path class="st1" d="M170.6,429.4c0.1,1.6,0.7,3,1.5,4.3l0.7,0.9c0.2,0.3,0.5,0.6,0.8,0.8c0.5,0.6,1.1,1,1.7,1.6
				c2.4,1.9,5.1,3.4,7.8,4.7c2.8,1.3,5.7,2.3,8.6,3.3c2.9,1,5.9,1.7,8.9,2.5c3,0.8,5.9,1.5,9,2.1c3,0.6,6.1,1,9.1,1.4
				c6.1,0.8,12.3,1.5,18.4,2c3.1,0.3,6.2,0.5,9.2,0.7c3.1,0.2,6.2,0.4,9.2,0.5c6.2,0.3,12.3,0.3,18.5,0.3c6.2,0,12.4-0.2,18.5-0.5
				c6.2-0.3,12.3-0.7,18.5-1.3l0.2,0l3.8-0.5l4-0.6c2.7-0.4,5.4-0.9,8.1-1.4c5.4-1,10.7-2.2,16-3.6c5.3-1.4,10.5-2.9,15.1-5.8
				c4.6-2.8,8.5-6.8,11.5-11.4c-2.5,4.9-6.2,9.3-10.7,12.5c-4.6,3.3-9.9,5.3-15.2,6.9c-5.3,1.6-10.6,3.1-16,4.3
				c-2.7,0.6-5.4,1.2-8.1,1.7c-1.4,0.3-2.7,0.5-4.1,0.7l-2.1,0.3l-1,0.2l-0.5,0.1c-0.2,0-0.3,0-0.7,0.1l0.2,0
				c-6.2,0.7-12.4,1.3-18.6,1.7c-6.2,0.4-12.5,0.5-18.7,0.6c-6.2,0.1-12.5-0.1-18.7-0.4c-6.2-0.3-12.5-0.8-18.7-1.4
				c-6.2-0.7-12.4-1.4-18.5-2.5c-3.1-0.5-6.2-1.1-9.2-1.8c-3.1-0.7-6.1-1.6-9.1-2.5c-6-1.8-11.9-3.9-17.5-6.9
				c-2.8-1.5-5.4-3.2-7.7-5.4c-1.1-1.1-2.2-2.3-2.9-3.7C171,432.5,170.6,430.9,170.6,429.4z"/>
		</g>
		<g>
			<path class="st1" d="M170.6,402.2c0.1,1.6,0.7,3,1.5,4.3l0.7,0.9c0.2,0.3,0.5,0.6,0.8,0.8c0.5,0.6,1.1,1,1.7,1.6
				c2.4,1.9,5.1,3.4,7.8,4.7c2.8,1.3,5.7,2.3,8.6,3.3c2.9,1,5.9,1.7,8.9,2.5c3,0.8,5.9,1.5,9,2.1c3,0.6,6.1,1,9.1,1.4
				c6.1,0.8,12.3,1.5,18.4,2c3.1,0.3,6.2,0.5,9.2,0.7c3.1,0.2,6.2,0.4,9.2,0.5c6.2,0.3,12.3,0.3,18.5,0.3c6.2,0,12.4-0.2,18.5-0.5
				c6.2-0.3,12.3-0.7,18.5-1.3l0.2,0l3.8-0.5l4-0.6c2.7-0.4,5.4-0.9,8.1-1.4c5.4-1,10.7-2.2,16-3.6c5.3-1.4,10.5-2.9,15.1-5.8
				c4.6-2.8,8.5-6.8,11.5-11.4c-2.5,4.9-6.2,9.3-10.7,12.5c-4.6,3.3-9.9,5.3-15.2,6.9c-5.3,1.6-10.6,3.1-16,4.3
				c-2.7,0.6-5.4,1.2-8.1,1.7c-1.4,0.3-2.7,0.5-4.1,0.7l-2.1,0.3l-1,0.2L312,429c-0.2,0-0.3,0-0.7,0.1l0.2,0
				c-6.2,0.7-12.4,1.3-18.6,1.7c-6.2,0.4-12.5,0.5-18.7,0.6c-6.2,0.1-12.5-0.1-18.7-0.4c-6.2-0.3-12.5-0.8-18.7-1.4
				c-6.2-0.7-12.4-1.4-18.5-2.5c-3.1-0.5-6.2-1.1-9.2-1.8c-3.1-0.7-6.1-1.6-9.1-2.5c-6-1.8-11.9-3.9-17.5-6.9
				c-2.8-1.5-5.4-3.2-7.7-5.4c-1.1-1.1-2.2-2.3-2.9-3.7C171,405.3,170.6,403.8,170.6,402.2z"/>
		</g>
		<ellipse class="st2" cx="270.2" cy="400.1" rx="99.6" ry="27.1"/>
		<ellipse class="st0" cx="270.2" cy="400.1" rx="74.3" ry="12.7"/>
		<path class="st3" d="M344.5,400.1c0.2,4.8-21.7,9.2-26.6,10.2c-9.6,1.9-21.5,3.7-54.3,2.4c-23.4-0.9-31.6-0.8-38.2-2.1
			c-12.6-2.3-29.8-6-29.5-10.6c0.2-2.7,6.5-4.6,11.7-6.1c3.4-1,5.1-1.1,15.8-2.7c8.9-1.3,7.5-1.2,11.3-1.7
			c3.8-0.5,10.3-1.2,18.3-1.7c6.4-0.4,11.7-0.5,17.3-0.5c20.3-0.1,31.9,1,47.4,2.4c0,0,9.5,0.9,20.9,6
			C343.8,398.2,344.5,399.3,344.5,400.1z"/>
	</g>
	<g>
		<path class="st0" d="M120.2,365.7v29.5c0,15,44.6,27.1,99.6,27.1s99.6-12.2,99.6-27.1v-29.5H120.2z"/>
		<g>
			<path class="st1" d="M120.2,395.2c0.1,1.6,0.7,3,1.5,4.3l0.7,0.9c0.2,0.3,0.5,0.6,0.8,0.8c0.5,0.6,1.1,1,1.7,1.6
				c2.4,1.9,5.1,3.4,7.8,4.7c2.8,1.3,5.7,2.3,8.6,3.3c2.9,1,5.9,1.7,8.9,2.5c3,0.8,5.9,1.5,9,2.1c3,0.6,6.1,1,9.1,1.4
				c6.1,0.8,12.3,1.5,18.4,2c3.1,0.3,6.2,0.5,9.2,0.7c3.1,0.2,6.2,0.4,9.2,0.5c6.2,0.3,12.3,0.3,18.5,0.3c6.2,0,12.4-0.2,18.5-0.5
				c6.2-0.3,12.3-0.7,18.5-1.3l0.2,0l3.8-0.5l4-0.6c2.7-0.4,5.4-0.9,8.1-1.4c5.4-1,10.7-2.2,16-3.6c5.3-1.4,10.5-2.9,15.1-5.8
				c4.6-2.8,8.5-6.8,11.5-11.4c-2.5,4.9-6.2,9.3-10.7,12.5c-4.6,3.3-9.9,5.3-15.2,6.9c-5.3,1.6-10.6,3.1-16,4.3
				c-2.7,0.6-5.4,1.2-8.1,1.7c-1.4,0.3-2.7,0.5-4.1,0.7l-2.1,0.3l-1,0.2l-0.5,0.1c-0.2,0-0.3,0-0.7,0.1l0.2,0
				c-6.2,0.7-12.4,1.3-18.6,1.7c-6.2,0.4-12.5,0.5-18.7,0.6c-6.2,0.1-12.5-0.1-18.7-0.4c-6.2-0.3-12.5-0.8-18.7-1.4
				c-6.2-0.7-12.4-1.4-18.5-2.5c-3.1-0.5-6.2-1.1-9.2-1.8c-3.1-0.7-6.1-1.6-9.1-2.5c-6-1.8-11.9-3.9-17.5-6.9
				c-2.8-1.5-5.4-3.2-7.7-5.4c-1.1-1.1-2.2-2.3-2.9-3.7C120.6,398.3,120.1,396.8,120.2,395.2z"/>
		</g>
		<g>
			<path class="st1" d="M120.2,368c0.1,1.6,0.7,3,1.5,4.3l0.7,0.9c0.2,0.3,0.5,0.6,0.8,0.8c0.5,0.6,1.1,1,1.7,1.6
				c2.4,1.9,5.1,3.4,7.8,4.7c2.8,1.3,5.7,2.3,8.6,3.3c2.9,1,5.9,1.7,8.9,2.5c3,0.8,5.9,1.5,9,2.1c3,0.6,6.1,1,9.1,1.4
				c6.1,0.8,12.3,1.5,18.4,2c3.1,0.3,6.2,0.5,9.2,0.7c3.1,0.2,6.2,0.4,9.2,0.5c6.2,0.3,12.3,0.3,18.5,0.3c6.2,0,12.4-0.2,18.5-0.5
				c6.2-0.3,12.3-0.7,18.5-1.3l0.2,0l3.8-0.5l4-0.6c2.7-0.4,5.4-0.9,8.1-1.4c5.4-1,10.7-2.2,16-3.6c5.3-1.4,10.5-2.9,15.1-5.8
				c4.6-2.8,8.5-6.8,11.5-11.4c-2.5,4.9-6.2,9.3-10.7,12.5c-4.6,3.3-9.9,5.3-15.2,6.9c-5.3,1.6-10.6,3.1-16,4.3
				c-2.7,0.6-5.4,1.2-8.1,1.7c-1.4,0.3-2.7,0.5-4.1,0.7l-2.1,0.3l-1,0.2l-0.5,0.1c-0.2,0-0.3,0-0.7,0.1l0.2,0
				c-6.2,0.7-12.4,1.3-18.6,1.7c-6.2,0.4-12.5,0.5-18.7,0.6c-6.2,0.1-12.5-0.1-18.7-0.4c-6.2-0.3-12.5-0.8-18.7-1.4
				c-6.2-0.7-12.4-1.4-18.5-2.5c-3.1-0.5-6.2-1.1-9.2-1.8c-3.1-0.7-6.1-1.6-9.1-2.5c-6-1.8-11.9-3.9-17.5-6.9
				c-2.8-1.5-5.4-3.2-7.7-5.4c-1.1-1.1-2.2-2.3-2.9-3.7C120.6,371.2,120.1,369.6,120.2,368z"/>
		</g>
		<ellipse class="st2" cx="219.7" cy="365.9" rx="99.6" ry="27.1"/>
		<ellipse class="st0" cx="219.7" cy="365.9" rx="74.3" ry="12.7"/>
		<path class="st3" d="M294.1,365.9c0.2,4.8-21.7,9.2-26.6,10.2c-9.6,1.9-21.5,3.7-54.3,2.4c-23.4-0.9-31.6-0.8-38.2-2.1
			c-12.6-2.3-29.8-6-29.5-10.6c0.2-2.7,6.5-4.6,11.7-6.1c3.4-1,5.1-1.1,15.8-2.7c8.9-1.3,7.5-1.2,11.3-1.7
			c3.8-0.5,10.3-1.2,18.3-1.7c6.4-0.4,11.7-0.5,17.3-0.5c20.3-0.1,31.9,1,47.4,2.4c0,0,9.5,0.9,20.9,6
			C293.4,364.1,294,365.1,294.1,365.9z"/>
	</g>
</g>
</svg>
