<?xml version="1.0" encoding="utf-8"?>
<!-- Generator: Adobe Illustrator 25.2.1, SVG Export Plug-In . SVG Version: 6.00 Build 0)  -->
<svg version="1.1" id="Layer_1" xmlns="http://www.w3.org/2000/svg" xmlns:xlink="http://www.w3.org/1999/xlink" x="0px" y="0px"
	 viewBox="0 0 746.7 562.2" style="enable-background:new 0 0 746.7 562.2;" xml:space="preserve">
<style type="text/css">
	.st0{fill:#FFC50D;}
	.st1{fill:#EFAA0F;}
	.st2{fill:#FEE100;}
	.st3{fill:none;stroke:#EFAA0F;stroke-width:3;stroke-miterlimit:10;}
</style>
<g>
	<g>
		<path class="st0" d="M147.7,450.3v29.5c0,15,44.6,27.1,99.6,27.1s99.6-12.2,99.6-27.1v-29.5H147.7z"/>
		<g>
			<path class="st1" d="M147.7,479.8c0.1,1.6,0.7,3,1.5,4.3l0.7,0.9c0.2,0.3,0.5,0.6,0.8,0.8c0.5,0.6,1.1,1,1.7,1.6
				c2.4,1.9,5.1,3.4,7.8,4.7c2.8,1.3,5.7,2.3,8.6,3.3c2.9,1,5.9,1.7,8.9,2.5c3,0.8,5.9,1.5,9,2.1c3,0.6,6.1,1,9.1,1.4
				c6.1,0.8,12.3,1.5,18.4,2c3.1,0.3,6.2,0.5,9.2,0.7c3.1,0.2,6.2,0.4,9.2,0.5c6.2,0.3,12.3,0.3,18.5,0.3c6.2,0,12.4-0.2,18.5-0.5
				c6.2-0.3,12.3-0.7,18.5-1.3l0.2,0l3.8-0.5l4-0.6c2.7-0.4,5.4-0.9,8.1-1.4c5.4-1,10.7-2.2,16-3.6c5.3-1.4,10.5-2.9,15.1-5.8
				c4.6-2.8,8.5-6.8,11.5-11.4c-2.5,4.9-6.2,9.3-10.7,12.5c-4.6,3.3-9.9,5.3-15.2,6.9c-5.3,1.6-10.6,3.1-16,4.3
				c-2.7,0.6-5.4,1.2-8.1,1.7c-1.4,0.3-2.7,0.5-4.1,0.7l-2.1,0.3l-1,0.2l-0.5,0.1c-0.2,0-0.3,0-0.7,0.1l0.2,0
				c-6.2,0.7-12.4,1.3-18.6,1.7c-6.2,0.4-12.5,0.5-18.7,0.6c-6.2,0.1-12.5-0.1-18.7-0.4c-6.2-0.3-12.5-0.8-18.7-1.4
				c-6.2-0.7-12.4-1.4-18.5-2.5c-3.1-0.5-6.2-1.1-9.2-1.8c-3.1-0.7-6.1-1.6-9.1-2.5c-6-1.8-11.9-3.9-17.5-6.9
				c-2.8-1.5-5.4-3.2-7.7-5.4c-1.1-1.1-2.2-2.3-2.9-3.7C148.1,482.9,147.6,481.4,147.7,479.8z"/>
		</g>
		<g>
			<path class="st1" d="M147.7,452.7c0.1,1.6,0.7,3,1.5,4.3l0.7,0.9c0.2,0.3,0.5,0.6,0.8,0.8c0.5,0.6,1.1,1,1.7,1.6
				c2.4,1.9,5.1,3.4,7.8,4.7c2.8,1.3,5.7,2.3,8.6,3.3c2.9,1,5.9,1.7,8.9,2.5c3,0.8,5.9,1.5,9,2.1c3,0.6,6.1,1,9.1,1.4
				c6.1,0.8,12.3,1.5,18.4,2c3.1,0.3,6.2,0.5,9.2,0.7c3.1,0.2,6.2,0.4,9.2,0.5c6.2,0.3,12.3,0.3,18.5,0.3c6.2,0,12.4-0.2,18.5-0.5
				c6.2-0.3,12.3-0.7,18.5-1.3l0.2,0l3.8-0.5l4-0.6c2.7-0.4,5.4-0.9,8.1-1.4c5.4-1,10.7-2.2,16-3.6c5.3-1.4,10.5-2.9,15.1-5.8
				c4.6-2.8,8.5-6.8,11.5-11.4c-2.5,4.9-6.2,9.3-10.7,12.5c-4.6,3.3-9.9,5.3-15.2,6.9c-5.3,1.6-10.6,3.1-16,4.3
				c-2.7,0.6-5.4,1.2-8.1,1.7c-1.4,0.3-2.7,0.5-4.1,0.7l-2.1,0.3l-1,0.2l-0.5,0.1c-0.2,0-0.3,0-0.7,0.1l0.2,0
				c-6.2,0.7-12.4,1.3-18.6,1.7c-6.2,0.4-12.5,0.5-18.7,0.6c-6.2,0.1-12.5-0.1-18.7-0.4c-6.2-0.3-12.5-0.8-18.7-1.4
				c-6.2-0.7-12.4-1.4-18.5-2.5c-3.1-0.5-6.2-1.1-9.2-1.8c-3.1-0.7-6.1-1.6-9.1-2.5c-6-1.8-11.9-3.9-17.5-6.9
				c-2.8-1.5-5.4-3.2-7.7-5.4c-1.1-1.1-2.2-2.3-2.9-3.7C148.1,455.8,147.6,454.2,147.7,452.7z"/>
		</g>
		<ellipse class="st2" cx="247.2" cy="450.5" rx="99.6" ry="27.1"/>
		<ellipse class="st0" cx="247.2" cy="450.5" rx="74.3" ry="12.7"/>
		<path class="st3" d="M321.6,450.5c0.2,4.8-21.7,9.2-26.6,10.2c-9.6,1.9-21.5,3.7-54.3,2.4c-23.4-0.9-31.6-0.8-38.2-2.1
			c-12.6-2.3-29.8-6-29.5-10.6c0.2-2.7,6.5-4.6,11.7-6.1c3.4-1,5.1-1.1,15.8-2.7c8.9-1.3,7.5-1.2,11.3-1.7
			c3.8-0.5,10.3-1.2,18.3-1.7c6.4-0.4,11.7-0.5,17.3-0.5c20.3-0.1,31.9,1,47.4,2.4c0,0,9.5,0.9,20.9,6
			C320.9,448.7,321.6,449.8,321.6,450.5z"/>
	</g>
	<g>
		<path class="st0" d="M147.7,423v29.5c0,15,44.6,27.1,99.6,27.1s99.6-12.2,99.6-27.1V423H147.7z"/>
		<g>
			<path class="st1" d="M147.7,452.5c0.1,1.6,0.7,3,1.5,4.3l0.7,0.9c0.2,0.3,0.5,0.6,0.8,0.8c0.5,0.6,1.1,1,1.7,1.6
				c2.4,1.9,5.1,3.4,7.8,4.7c2.8,1.3,5.7,2.3,8.6,3.3c2.9,1,5.9,1.7,8.9,2.5c3,0.8,5.9,1.5,9,2.1c3,0.6,6.1,1,9.1,1.4
				c6.1,0.8,12.3,1.5,18.4,2c3.1,0.3,6.2,0.5,9.2,0.7c3.1,0.2,6.2,0.4,9.2,0.5c6.2,0.3,12.3,0.3,18.5,0.3c6.2,0,12.4-0.2,18.5-0.5
				c6.2-0.3,12.3-0.7,18.5-1.3l0.2,0l3.8-0.5l4-0.6c2.7-0.4,5.4-0.9,8.1-1.4c5.4-1,10.7-2.2,16-3.6c5.3-1.4,10.5-2.9,15.1-5.8
				c4.6-2.8,8.5-6.8,11.5-11.4c-2.5,4.9-6.2,9.3-10.7,12.5c-4.6,3.3-9.9,5.3-15.2,6.9c-5.3,1.6-10.6,3.1-16,4.3
				c-2.7,0.6-5.4,1.2-8.1,1.7c-1.4,0.3-2.7,0.5-4.1,0.7l-2.1,0.3l-1,0.2l-0.5,0.1c-0.2,0-0.3,0-0.7,0.1l0.2,0
				c-6.2,0.7-12.4,1.3-18.6,1.7c-6.2,0.4-12.5,0.5-18.7,0.6c-6.2,0.1-12.5-0.1-18.7-0.4c-6.2-0.3-12.5-0.8-18.7-1.4
				c-6.2-0.7-12.4-1.4-18.5-2.5c-3.1-0.5-6.2-1.1-9.2-1.8c-3.1-0.7-6.1-1.6-9.1-2.5c-6-1.8-11.9-3.9-17.5-6.9
				c-2.8-1.5-5.4-3.2-7.7-5.4c-1.1-1.1-2.2-2.3-2.9-3.7C148.1,455.6,147.6,454.1,147.7,452.5z"/>
		</g>
		<g>
			<path class="st1" d="M147.7,425.4c0.1,1.6,0.7,3,1.5,4.3l0.7,0.9c0.2,0.3,0.5,0.6,0.8,0.8c0.5,0.6,1.1,1,1.7,1.6
				c2.4,1.9,5.1,3.4,7.8,4.7c2.8,1.3,5.7,2.3,8.6,3.3c2.9,1,5.9,1.7,8.9,2.5c3,0.8,5.9,1.5,9,2.1c3,0.6,6.1,1,9.1,1.4
				c6.1,0.8,12.3,1.5,18.4,2c3.1,0.3,6.2,0.5,9.2,0.7c3.1,0.2,6.2,0.4,9.2,0.5c6.2,0.3,12.3,0.3,18.5,0.3c6.2,0,12.4-0.2,18.5-0.5
				c6.2-0.3,12.3-0.7,18.5-1.3l0.2,0l3.8-0.5l4-0.6c2.7-0.4,5.4-0.9,8.1-1.4c5.4-1,10.7-2.2,16-3.6c5.3-1.4,10.5-2.9,15.1-5.8
				c4.6-2.8,8.5-6.8,11.5-11.4c-2.5,4.9-6.2,9.3-10.7,12.5c-4.6,3.3-9.9,5.3-15.2,6.9c-5.3,1.6-10.6,3.1-16,4.3
				c-2.7,0.6-5.4,1.2-8.1,1.7c-1.4,0.3-2.7,0.5-4.1,0.7l-2.1,0.3l-1,0.2l-0.5,0.1c-0.2,0-0.3,0-0.7,0.1l0.2,0
				c-6.2,0.7-12.4,1.3-18.6,1.7c-6.2,0.4-12.5,0.5-18.7,0.6c-6.2,0.1-12.5-0.1-18.7-0.4c-6.2-0.3-12.5-0.8-18.7-1.4
				c-6.2-0.7-12.4-1.4-18.5-2.5c-3.1-0.5-6.2-1.1-9.2-1.8c-3.1-0.7-6.1-1.6-9.1-2.5c-6-1.8-11.9-3.9-17.5-6.9
				c-2.8-1.5-5.4-3.2-7.7-5.4c-1.1-1.1-2.2-2.3-2.9-3.7C148.1,428.5,147.6,426.9,147.7,425.4z"/>
		</g>
		<ellipse class="st2" cx="247.2" cy="423.2" rx="99.6" ry="27.1"/>
		<ellipse class="st0" cx="247.2" cy="423.2" rx="74.3" ry="12.7"/>
		<path class="st3" d="M321.6,423.2c0.2,4.8-21.7,9.2-26.6,10.2c-9.6,1.9-21.5,3.7-54.3,2.4c-23.4-0.9-31.6-0.8-38.2-2.1
			c-12.6-2.3-29.8-6-29.5-10.6c0.2-2.7,6.5-4.6,11.7-6.1c3.4-1,5.1-1.1,15.8-2.7c8.9-1.3,7.5-1.2,11.3-1.7
			c3.8-0.5,10.3-1.2,18.3-1.7c6.4-0.4,11.7-0.5,17.3-0.5c20.3-0.1,31.9,1,47.4,2.4c0,0,9.5,0.9,20.9,6
			C320.9,421.4,321.6,422.5,321.6,423.2z"/>
	</g>
	<g>
		<path class="st0" d="M172.9,395.7v29.5c0,15,44.6,27.1,99.6,27.1s99.6-12.2,99.6-27.1v-29.5H172.9z"/>
		<g>
			<path class="st1" d="M172.9,425.2c0.1,1.6,0.7,3,1.5,4.3l0.7,0.9c0.2,0.3,0.5,0.6,0.8,0.8c0.5,0.6,1.1,1,1.7,1.6
				c2.4,1.9,5.1,3.4,7.8,4.7c2.8,1.3,5.7,2.3,8.6,3.3c2.9,1,5.9,1.7,8.9,2.5c3,0.8,5.9,1.5,9,2.1c3,0.6,6.1,1,9.1,1.4
				c6.1,0.8,12.3,1.5,18.4,2c3.1,0.3,6.2,0.5,9.2,0.7c3.1,0.2,6.2,0.4,9.2,0.5c6.2,0.3,12.3,0.3,18.5,0.3c6.2,0,12.4-0.2,18.5-0.5
				c6.2-0.3,12.3-0.7,18.5-1.3l0.2,0l3.8-0.5l4-0.6c2.7-0.4,5.4-0.9,8.1-1.4c5.4-1,10.7-2.2,16-3.6c5.3-1.4,10.5-2.9,15.1-5.8
				c4.6-2.8,8.5-6.8,11.5-11.4c-2.5,4.9-6.2,9.3-10.7,12.5c-4.6,3.3-9.9,5.3-15.2,6.9c-5.3,1.6-10.6,3.1-16,4.3
				c-2.7,0.6-5.4,1.2-8.1,1.7c-1.4,0.3-2.7,0.5-4.1,0.7l-2.1,0.3l-1,0.2l-0.5,0.1c-0.2,0-0.3,0-0.7,0.1l0.2,0
				c-6.2,0.7-12.4,1.3-18.6,1.7c-6.2,0.4-12.5,0.5-18.7,0.6c-6.2,0.1-12.5-0.1-18.7-0.4c-6.2-0.3-12.5-0.8-18.7-1.4
				c-6.2-0.7-12.4-1.4-18.5-2.5c-3.1-0.5-6.2-1.1-9.2-1.8c-3.1-0.7-6.1-1.6-9.1-2.5c-6-1.8-11.9-3.9-17.5-6.9
				c-2.8-1.5-5.4-3.2-7.7-5.4c-1.1-1.1-2.2-2.3-2.9-3.7C173.3,428.3,172.9,426.8,172.9,425.2z"/>
		</g>
		<g>
			<path class="st1" d="M172.9,398.1c0.1,1.6,0.7,3,1.5,4.3l0.7,0.9c0.2,0.3,0.5,0.6,0.8,0.8c0.5,0.6,1.1,1,1.7,1.6
				c2.4,1.9,5.1,3.4,7.8,4.7c2.8,1.3,5.7,2.3,8.6,3.3c2.9,1,5.9,1.7,8.9,2.5c3,0.8,5.9,1.5,9,2.1c3,0.6,6.1,1,9.1,1.4
				c6.1,0.8,12.3,1.5,18.4,2c3.1,0.3,6.2,0.5,9.2,0.7c3.1,0.2,6.2,0.4,9.2,0.5c6.2,0.3,12.3,0.3,18.5,0.3c6.2,0,12.4-0.2,18.5-0.5
				c6.2-0.3,12.3-0.7,18.5-1.3l0.2,0l3.8-0.5l4-0.6c2.7-0.4,5.4-0.9,8.1-1.4c5.4-1,10.7-2.2,16-3.6c5.3-1.4,10.5-2.9,15.1-5.8
				c4.6-2.8,8.5-6.8,11.5-11.4c-2.5,4.9-6.2,9.3-10.7,12.5c-4.6,3.3-9.9,5.3-15.2,6.9c-5.3,1.6-10.6,3.1-16,4.3
				c-2.7,0.6-5.4,1.2-8.1,1.7c-1.4,0.3-2.7,0.5-4.1,0.7l-2.1,0.3l-1,0.2l-0.5,0.1c-0.2,0-0.3,0-0.7,0.1l0.2,0
				c-6.2,0.7-12.4,1.3-18.6,1.7c-6.2,0.4-12.5,0.5-18.7,0.6c-6.2,0.1-12.5-0.1-18.7-0.4c-6.2-0.3-12.5-0.8-18.7-1.4
				c-6.2-0.7-12.4-1.4-18.5-2.5c-3.1-0.5-6.2-1.1-9.2-1.8c-3.1-0.7-6.1-1.6-9.1-2.5c-6-1.8-11.9-3.9-17.5-6.9
				c-2.8-1.5-5.4-3.2-7.7-5.4c-1.1-1.1-2.2-2.3-2.9-3.7C173.3,401.2,172.9,399.6,172.9,398.1z"/>
		</g>
		<ellipse class="st2" cx="272.5" cy="395.9" rx="99.6" ry="27.1"/>
		<ellipse class="st0" cx="272.5" cy="395.9" rx="74.3" ry="12.7"/>
		<path class="st3" d="M346.8,395.9c0.2,4.8-21.7,9.2-26.6,10.2c-9.6,1.9-21.5,3.7-54.3,2.4c-23.4-0.9-31.6-0.8-38.2-2.1
			c-12.6-2.3-29.8-6-29.5-10.6c0.2-2.7,6.5-4.6,11.7-6.1c3.4-1,5.1-1.1,15.8-2.7c8.9-1.3,7.5-1.2,11.3-1.7
			c3.8-0.5,10.3-1.2,18.3-1.7c6.4-0.4,11.7-0.5,17.3-0.5c20.3-0.1,31.9,1,47.4,2.4c0,0,9.5,0.9,20.9,6
			C346.2,394.1,346.8,395.2,346.8,395.9z"/>
	</g>
	<g>
		<path class="st0" d="M122.5,361.5v29.5c0,15,44.6,27.1,99.6,27.1s99.6-12.2,99.6-27.1v-29.5H122.5z"/>
		<g>
			<path class="st1" d="M122.5,391.1c0.1,1.6,0.7,3,1.5,4.3l0.7,0.9c0.2,0.3,0.5,0.6,0.8,0.8c0.5,0.6,1.1,1,1.7,1.6
				c2.4,1.9,5.1,3.4,7.8,4.7c2.8,1.3,5.7,2.3,8.6,3.3c2.9,1,5.9,1.7,8.9,2.5c3,0.8,5.9,1.5,9,2.1c3,0.6,6.1,1,9.1,1.4
				c6.1,0.8,12.3,1.5,18.4,2c3.1,0.3,6.2,0.5,9.2,0.7c3.1,0.2,6.2,0.4,9.2,0.5c6.2,0.3,12.3,0.3,18.5,0.3c6.2,0,12.4-0.2,18.5-0.5
				c6.2-0.3,12.3-0.7,18.5-1.3l0.2,0l3.8-0.5l4-0.6c2.7-0.4,5.4-0.9,8.1-1.4c5.4-1,10.7-2.2,16-3.6c5.3-1.4,10.5-2.9,15.1-5.8
				c4.6-2.8,8.5-6.8,11.5-11.4c-2.5,4.9-6.2,9.3-10.7,12.5c-4.6,3.3-9.9,5.3-15.2,6.9c-5.3,1.6-10.6,3.1-16,4.3
				c-2.7,0.6-5.4,1.2-8.1,1.7c-1.4,0.3-2.7,0.5-4.1,0.7l-2.1,0.3l-1,0.2l-0.5,0.1c-0.2,0-0.3,0-0.7,0.1l0.2,0
				c-6.2,0.7-12.4,1.3-18.6,1.7c-6.2,0.4-12.5,0.5-18.7,0.6c-6.2,0.1-12.5-0.1-18.7-0.4c-6.2-0.3-12.5-0.8-18.7-1.4
				c-6.2-0.7-12.4-1.4-18.5-2.5c-3.1-0.5-6.2-1.1-9.2-1.8c-3.1-0.7-6.1-1.6-9.1-2.5c-6-1.8-11.9-3.9-17.5-6.9
				c-2.8-1.5-5.4-3.2-7.7-5.4c-1.1-1.1-2.2-2.3-2.9-3.7C122.9,394.2,122.4,392.6,122.5,391.1z"/>
		</g>
		<g>
			<path class="st1" d="M122.5,363.9c0.1,1.6,0.7,3,1.5,4.3l0.7,0.9c0.2,0.3,0.5,0.6,0.8,0.8c0.5,0.6,1.1,1,1.7,1.6
				c2.4,1.9,5.1,3.4,7.8,4.7c2.8,1.3,5.7,2.3,8.6,3.3c2.9,1,5.9,1.7,8.9,2.5c3,0.8,5.9,1.5,9,2.1c3,0.6,6.1,1,9.1,1.4
				c6.1,0.8,12.3,1.5,18.4,2c3.1,0.3,6.2,0.5,9.2,0.7c3.1,0.2,6.2,0.4,9.2,0.5c6.2,0.3,12.3,0.3,18.5,0.3c6.2,0,12.4-0.2,18.5-0.5
				c6.2-0.3,12.3-0.7,18.5-1.3l0.2,0l3.8-0.5l4-0.6c2.7-0.4,5.4-0.9,8.1-1.4c5.4-1,10.7-2.2,16-3.6c5.3-1.4,10.5-2.9,15.1-5.8
				c4.6-2.8,8.5-6.8,11.5-11.4c-2.5,4.9-6.2,9.3-10.7,12.5c-4.6,3.3-9.9,5.3-15.2,6.9c-5.3,1.6-10.6,3.1-16,4.3
				c-2.7,0.6-5.4,1.2-8.1,1.7c-1.4,0.3-2.7,0.5-4.1,0.7l-2.1,0.3l-1,0.2l-0.5,0.1c-0.2,0-0.3,0-0.7,0.1l0.2,0
				c-6.2,0.7-12.4,1.3-18.6,1.7c-6.2,0.4-12.5,0.5-18.7,0.6c-6.2,0.1-12.5-0.1-18.7-0.4c-6.2-0.3-12.5-0.8-18.7-1.4
				c-6.2-0.7-12.4-1.4-18.5-2.5c-3.1-0.5-6.2-1.1-9.2-1.8c-3.1-0.7-6.1-1.6-9.1-2.5c-6-1.8-11.9-3.9-17.5-6.9
				c-2.8-1.5-5.4-3.2-7.7-5.4c-1.1-1.1-2.2-2.3-2.9-3.7C122.9,367,122.4,365.5,122.5,363.9z"/>
		</g>
		<ellipse class="st2" cx="222" cy="361.8" rx="99.6" ry="27.1"/>
		<ellipse class="st0" cx="222" cy="361.8" rx="74.3" ry="12.7"/>
		<path class="st3" d="M296.4,361.8c0.2,4.8-21.7,9.2-26.6,10.2c-9.6,1.9-21.5,3.7-54.3,2.4c-23.4-0.9-31.6-0.8-38.2-2.1
			c-12.6-2.3-29.8-6-29.5-10.6c0.2-2.7,6.5-4.6,11.7-6.1c3.4-1,5.1-1.1,15.8-2.7c8.9-1.3,7.5-1.2,11.3-1.7
			c3.8-0.5,10.3-1.2,18.3-1.7c6.4-0.4,11.7-0.5,17.3-0.5c20.3-0.1,31.9,1,47.4,2.4c0,0,9.5,0.9,20.9,6
			C295.7,359.9,296.3,361,296.4,361.8z"/>
	</g>
	<g>
		<path class="st0" d="M163,331.8v29.5c0,15,44.6,27.1,99.6,27.1s99.6-12.2,99.6-27.1v-29.5H163z"/>
		<g>
			<path class="st1" d="M163,361.3c0.1,1.6,0.7,3,1.5,4.3l0.7,0.9c0.2,0.3,0.5,0.6,0.8,0.8c0.5,0.6,1.1,1,1.7,1.6
				c2.4,1.9,5.1,3.4,7.8,4.7c2.8,1.3,5.7,2.3,8.6,3.3c2.9,1,5.9,1.7,8.9,2.5c3,0.8,5.9,1.5,9,2.1c3,0.6,6.1,1,9.1,1.4
				c6.1,0.8,12.3,1.5,18.4,2c3.1,0.3,6.2,0.5,9.2,0.7c3.1,0.2,6.2,0.4,9.2,0.5c6.2,0.3,12.3,0.3,18.5,0.3c6.2,0,12.4-0.2,18.5-0.5
				c6.2-0.3,12.3-0.7,18.5-1.3l0.2,0l3.8-0.5l4-0.6c2.7-0.4,5.4-0.9,8.1-1.4c5.4-1,10.7-2.2,16-3.6c5.3-1.4,10.5-2.9,15.1-5.8
				c4.6-2.8,8.5-6.8,11.5-11.4c-2.5,4.9-6.2,9.3-10.7,12.5c-4.6,3.3-9.9,5.3-15.2,6.9c-5.3,1.6-10.6,3.1-16,4.3
				c-2.7,0.6-5.4,1.2-8.1,1.7c-1.4,0.3-2.7,0.5-4.1,0.7l-2.1,0.3l-1,0.2l-0.5,0.1c-0.2,0-0.3,0-0.7,0.1l0.2,0
				c-6.2,0.7-12.4,1.3-18.6,1.7c-6.2,0.4-12.5,0.5-18.7,0.6c-6.2,0.1-12.5-0.1-18.7-0.4c-6.2-0.3-12.5-0.8-18.7-1.4
				c-6.2-0.7-12.4-1.4-18.5-2.5c-3.1-0.5-6.2-1.1-9.2-1.8c-3.1-0.7-6.1-1.6-9.1-2.5c-6-1.8-11.9-3.9-17.5-6.9
				c-2.8-1.5-5.4-3.2-7.7-5.4c-1.1-1.1-2.2-2.3-2.9-3.7C163.4,364.5,163,362.9,163,361.3z"/>
		</g>
		<g>
			<path class="st1" d="M163,334.2c0.1,1.6,0.7,3,1.5,4.3l0.7,0.9c0.2,0.3,0.5,0.6,0.8,0.8c0.5,0.6,1.1,1,1.7,1.6
				c2.4,1.9,5.1,3.4,7.8,4.7c2.8,1.3,5.7,2.3,8.6,3.3c2.9,1,5.9,1.7,8.9,2.5c3,0.8,5.9,1.5,9,2.1c3,0.6,6.1,1,9.1,1.4
				c6.1,0.8,12.3,1.5,18.4,2c3.1,0.3,6.2,0.5,9.2,0.7c3.1,0.2,6.2,0.4,9.2,0.5c6.2,0.3,12.3,0.3,18.5,0.3c6.2,0,12.4-0.2,18.5-0.5
				c6.2-0.3,12.3-0.7,18.5-1.3l0.2,0l3.8-0.5l4-0.6c2.7-0.4,5.4-0.9,8.1-1.4c5.4-1,10.7-2.2,16-3.6c5.3-1.4,10.5-2.9,15.1-5.8
				c4.6-2.8,8.5-6.8,11.5-11.4c-2.5,4.9-6.2,9.3-10.7,12.5c-4.6,3.3-9.9,5.3-15.2,6.9c-5.3,1.6-10.6,3.1-16,4.3
				c-2.7,0.6-5.4,1.2-8.1,1.7c-1.4,0.3-2.7,0.5-4.1,0.7l-2.1,0.3l-1,0.2l-0.5,0.1c-0.2,0-0.3,0-0.7,0.1l0.2,0
				c-6.2,0.7-12.4,1.3-18.6,1.7c-6.2,0.4-12.5,0.5-18.7,0.6c-6.2,0.1-12.5-0.1-18.7-0.4c-6.2-0.3-12.5-0.8-18.7-1.4
				c-6.2-0.7-12.4-1.4-18.5-2.5c-3.1-0.5-6.2-1.1-9.2-1.8c-3.1-0.7-6.1-1.6-9.1-2.5c-6-1.8-11.9-3.9-17.5-6.9
				c-2.8-1.5-5.4-3.2-7.7-5.4c-1.1-1.1-2.2-2.3-2.9-3.7C163.4,337.3,163,335.8,163,334.2z"/>
		</g>
		<ellipse class="st2" cx="262.6" cy="332.1" rx="99.6" ry="27.1"/>
		<ellipse class="st0" cx="262.6" cy="332.1" rx="74.3" ry="12.7"/>
		<path class="st3" d="M336.9,332.1c0.2,4.8-21.7,9.2-26.6,10.2c-9.6,1.9-21.5,3.7-54.3,2.4c-23.4-0.9-31.6-0.8-38.2-2.1
			c-12.6-2.3-29.8-6-29.5-10.6c0.2-2.7,6.5-4.6,11.7-6.1c3.4-1,5.1-1.1,15.8-2.7c8.9-1.3,7.5-1.2,11.3-1.7
			c3.8-0.5,10.3-1.2,18.3-1.7c6.4-0.4,11.7-0.5,17.3-0.5c20.3-0.1,31.9,1,47.4,2.4c0,0,9.5,0.9,20.9,6
			C336.3,330.2,336.9,331.3,336.9,332.1z"/>
	</g>
	<g>
		<path class="st0" d="M163,304.5V334c0,15,44.6,27.1,99.6,27.1s99.6-12.2,99.6-27.1v-29.5H163z"/>
		<g>
			<path class="st1" d="M163,334c0.1,1.6,0.7,3,1.5,4.3l0.7,0.9c0.2,0.3,0.5,0.6,0.8,0.8c0.5,0.6,1.1,1,1.7,1.6
				c2.4,1.9,5.1,3.4,7.8,4.7c2.8,1.3,5.7,2.3,8.6,3.3c2.9,1,5.9,1.7,8.9,2.5c3,0.8,5.9,1.5,9,2.1c3,0.6,6.1,1,9.1,1.4
				c6.1,0.8,12.3,1.5,18.4,2c3.1,0.3,6.2,0.5,9.2,0.7c3.1,0.2,6.2,0.4,9.2,0.5c6.2,0.3,12.3,0.3,18.5,0.3c6.2,0,12.4-0.2,18.5-0.5
				c6.2-0.3,12.3-0.7,18.5-1.3l0.2,0l3.8-0.5l4-0.6c2.7-0.4,5.4-0.9,8.1-1.4c5.4-1,10.7-2.2,16-3.6c5.3-1.4,10.5-2.9,15.1-5.8
				c4.6-2.8,8.5-6.8,11.5-11.4c-2.5,4.9-6.2,9.3-10.7,12.5c-4.6,3.3-9.9,5.3-15.2,6.9c-5.3,1.6-10.6,3.1-16,4.3
				c-2.7,0.6-5.4,1.2-8.1,1.7c-1.4,0.3-2.7,0.5-4.1,0.7l-2.1,0.3l-1,0.2l-0.5,0.1c-0.2,0-0.3,0-0.7,0.1l0.2,0
				c-6.2,0.7-12.4,1.3-18.6,1.7c-6.2,0.4-12.5,0.5-18.7,0.6c-6.2,0.1-12.5-0.1-18.7-0.4c-6.2-0.3-12.5-0.8-18.7-1.4
				c-6.2-0.7-12.4-1.4-18.5-2.5c-3.1-0.5-6.2-1.1-9.2-1.8c-3.1-0.7-6.1-1.6-9.1-2.5c-6-1.8-11.9-3.9-17.5-6.9
				c-2.8-1.5-5.4-3.2-7.7-5.4c-1.1-1.1-2.2-2.3-2.9-3.7C163.4,337.2,163,335.6,163,334z"/>
		</g>
		<g>
			<path class="st1" d="M163,306.9c0.1,1.6,0.7,3,1.5,4.3l0.7,0.9c0.2,0.3,0.5,0.6,0.8,0.8c0.5,0.6,1.1,1,1.7,1.6
				c2.4,1.9,5.1,3.4,7.8,4.7c2.8,1.3,5.7,2.3,8.6,3.3c2.9,1,5.9,1.7,8.9,2.5c3,0.8,5.9,1.5,9,2.1c3,0.6,6.1,1,9.1,1.4
				c6.1,0.8,12.3,1.5,18.4,2c3.1,0.3,6.2,0.5,9.2,0.7c3.1,0.2,6.2,0.4,9.2,0.5c6.2,0.3,12.3,0.3,18.5,0.3c6.2,0,12.4-0.2,18.5-0.5
				c6.2-0.3,12.3-0.7,18.5-1.3l0.2,0l3.8-0.5l4-0.6c2.7-0.4,5.4-0.9,8.1-1.4c5.4-1,10.7-2.2,16-3.6c5.3-1.4,10.5-2.9,15.1-5.8
				c4.6-2.8,8.5-6.8,11.5-11.4c-2.5,4.9-6.2,9.3-10.7,12.5c-4.6,3.3-9.9,5.3-15.2,6.9c-5.3,1.6-10.6,3.1-16,4.3
				c-2.7,0.6-5.4,1.2-8.1,1.7c-1.4,0.3-2.7,0.5-4.1,0.7l-2.1,0.3l-1,0.2l-0.5,0.1c-0.2,0-0.3,0-0.7,0.1l0.2,0
				c-6.2,0.7-12.4,1.3-18.6,1.7c-6.2,0.4-12.5,0.5-18.7,0.6c-6.2,0.1-12.5-0.1-18.7-0.4c-6.2-0.3-12.5-0.8-18.7-1.4
				c-6.2-0.7-12.4-1.4-18.5-2.5c-3.1-0.5-6.2-1.1-9.2-1.8c-3.1-0.7-6.1-1.6-9.1-2.5c-6-1.8-11.9-3.9-17.5-6.9
				c-2.8-1.5-5.4-3.2-7.7-5.4c-1.1-1.1-2.2-2.3-2.9-3.7C163.4,310,163,308.5,163,306.9z"/>
		</g>
		<ellipse class="st2" cx="262.6" cy="304.8" rx="99.6" ry="27.1"/>
		<ellipse class="st0" cx="262.6" cy="304.8" rx="74.3" ry="12.7"/>
		<path class="st3" d="M336.9,304.8c0.2,4.8-21.7,9.2-26.6,10.2c-9.6,1.9-21.5,3.7-54.3,2.4c-23.4-0.9-31.6-0.8-38.2-2.1
			c-12.6-2.3-29.8-6-29.5-10.6c0.2-2.7,6.5-4.6,11.7-6.1c3.4-1,5.1-1.1,15.8-2.7c8.9-1.3,7.5-1.2,11.3-1.7
			c3.8-0.5,10.3-1.2,18.3-1.7c6.4-0.4,11.7-0.5,17.3-0.5c20.3-0.1,31.9,1,47.4,2.4c0,0,9.5,0.9,20.9,6
			C336.3,302.9,336.9,304,336.9,304.8z"/>
	</g>
	<g>
		<path class="st0" d="M163,277.4v29.5c0,15,44.6,27.1,99.6,27.1s99.6-12.2,99.6-27.1v-29.5H163z"/>
		<g>
			<path class="st1" d="M163,306.9c0.1,1.6,0.7,3,1.5,4.3l0.7,0.9c0.2,0.3,0.5,0.6,0.8,0.8c0.5,0.6,1.1,1,1.7,1.6
				c2.4,1.9,5.1,3.4,7.8,4.7c2.8,1.3,5.7,2.3,8.6,3.3c2.9,1,5.9,1.7,8.9,2.5c3,0.8,5.9,1.5,9,2.1c3,0.6,6.1,1,9.1,1.4
				c6.1,0.8,12.3,1.5,18.4,2c3.1,0.3,6.2,0.5,9.2,0.7c3.1,0.2,6.2,0.4,9.2,0.5c6.2,0.3,12.3,0.3,18.5,0.3c6.2,0,12.4-0.2,18.5-0.5
				c6.2-0.3,12.3-0.7,18.5-1.3l0.2,0l3.8-0.5l4-0.6c2.7-0.4,5.4-0.9,8.1-1.4c5.4-1,10.7-2.2,16-3.6c5.3-1.4,10.5-2.9,15.1-5.8
				c4.6-2.8,8.5-6.8,11.5-11.4c-2.5,4.9-6.2,9.3-10.7,12.5c-4.6,3.3-9.9,5.3-15.2,6.9c-5.3,1.6-10.6,3.1-16,4.3
				c-2.7,0.6-5.4,1.2-8.1,1.7c-1.4,0.3-2.7,0.5-4.1,0.7l-2.1,0.3l-1,0.2l-0.5,0.1c-0.2,0-0.3,0-0.7,0.1l0.2,0
				c-6.2,0.7-12.4,1.3-18.6,1.7c-6.2,0.4-12.5,0.5-18.7,0.6c-6.2,0.1-12.5-0.1-18.7-0.4c-6.2-0.3-12.5-0.8-18.7-1.4
				c-6.2-0.7-12.4-1.4-18.5-2.5c-3.1-0.5-6.2-1.1-9.2-1.8c-3.1-0.7-6.1-1.6-9.1-2.5c-6-1.8-11.9-3.9-17.5-6.9
				c-2.8-1.5-5.4-3.2-7.7-5.4c-1.1-1.1-2.2-2.3-2.9-3.7C163.4,310,163,308.5,163,306.9z"/>
		</g>
		<g>
			<path class="st1" d="M163,279.8c0.1,1.6,0.7,3,1.5,4.3l0.7,0.9c0.2,0.3,0.5,0.6,0.8,0.8c0.5,0.6,1.1,1,1.7,1.6
				c2.4,1.9,5.1,3.4,7.8,4.7c2.8,1.3,5.7,2.3,8.6,3.3c2.9,1,5.9,1.7,8.9,2.5c3,0.8,5.9,1.5,9,2.1c3,0.6,6.1,1,9.1,1.4
				c6.1,0.8,12.3,1.5,18.4,2c3.1,0.3,6.2,0.5,9.2,0.7c3.1,0.2,6.2,0.4,9.2,0.5c6.2,0.3,12.3,0.3,18.5,0.3c6.2,0,12.4-0.2,18.5-0.5
				c6.2-0.3,12.3-0.7,18.5-1.3l0.2,0l3.8-0.5l4-0.6c2.7-0.4,5.4-0.9,8.1-1.4c5.4-1,10.7-2.2,16-3.6c5.3-1.4,10.5-2.9,15.1-5.8
				c4.6-2.8,8.5-6.8,11.5-11.4c-2.5,4.9-6.2,9.3-10.7,12.5c-4.6,3.3-9.9,5.3-15.2,6.9c-5.3,1.6-10.6,3.1-16,4.3
				c-2.7,0.6-5.4,1.2-8.1,1.7c-1.4,0.3-2.7,0.5-4.1,0.7l-2.1,0.3l-1,0.2l-0.5,0.1c-0.2,0-0.3,0-0.7,0.1l0.2,0
				c-6.2,0.7-12.4,1.3-18.6,1.7c-6.2,0.4-12.5,0.5-18.7,0.6c-6.2,0.1-12.5-0.1-18.7-0.4c-6.2-0.3-12.5-0.8-18.7-1.4
				c-6.2-0.7-12.4-1.4-18.5-2.5c-3.1-0.5-6.2-1.1-9.2-1.8c-3.1-0.7-6.1-1.6-9.1-2.5c-6-1.8-11.9-3.9-17.5-6.9
				c-2.8-1.5-5.4-3.2-7.7-5.4c-1.1-1.1-2.2-2.3-2.9-3.7C163.4,282.9,163,281.3,163,279.8z"/>
		</g>
		<ellipse class="st2" cx="262.6" cy="277.6" rx="99.6" ry="27.1"/>
		<ellipse class="st0" cx="262.6" cy="277.6" rx="74.3" ry="12.7"/>
		<path class="st3" d="M336.9,277.6c0.2,4.8-21.7,9.2-26.6,10.2c-9.6,1.9-21.5,3.7-54.3,2.4c-23.4-0.9-31.6-0.8-38.2-2.1
			c-12.6-2.3-29.8-6-29.5-10.6c0.2-2.7,6.5-4.6,11.7-6.1c3.4-1,5.1-1.1,15.8-2.7c8.9-1.3,7.5-1.2,11.3-1.7
			c3.8-0.5,10.3-1.2,18.3-1.7c6.4-0.4,11.7-0.5,17.3-0.5c20.3-0.1,31.9,1,47.4,2.4c0,0,9.5,0.9,20.9,6
			C336.3,275.8,336.9,276.8,336.9,277.6z"/>
	</g>
	<g>
		<path class="st0" d="M201.8,234v29.5c0,15,44.6,27.1,99.6,27.1s99.6-12.2,99.6-27.1V234H201.8z"/>
		<g>
			<path class="st1" d="M201.8,263.6c0.1,1.6,0.7,3,1.5,4.3l0.7,0.9c0.2,0.3,0.5,0.6,0.8,0.8c0.5,0.6,1.1,1,1.7,1.6
				c2.4,1.9,5.1,3.4,7.8,4.7c2.8,1.3,5.7,2.3,8.6,3.3c2.9,1,5.9,1.7,8.9,2.5c3,0.8,5.9,1.5,9,2.1c3,0.6,6.1,1,9.1,1.4
				c6.1,0.8,12.3,1.5,18.4,2c3.1,0.3,6.2,0.5,9.2,0.7c3.1,0.2,6.2,0.4,9.2,0.5c6.2,0.3,12.3,0.3,18.5,0.3c6.2,0,12.4-0.2,18.5-0.5
				c6.2-0.3,12.3-0.7,18.5-1.3l0.2,0l3.8-0.5l4-0.6c2.7-0.4,5.4-0.9,8.1-1.4c5.4-1,10.7-2.2,16-3.6c5.3-1.4,10.5-2.9,15.1-5.8
				c4.6-2.8,8.5-6.8,11.5-11.4c-2.5,4.9-6.2,9.3-10.7,12.5c-4.6,3.3-9.9,5.3-15.2,6.9c-5.3,1.6-10.6,3.1-16,4.3
				c-2.7,0.6-5.4,1.2-8.1,1.7c-1.4,0.3-2.7,0.5-4.1,0.7l-2.1,0.3l-1,0.2l-0.5,0.1c-0.2,0-0.3,0-0.7,0.1l0.2,0
				c-6.2,0.7-12.4,1.3-18.6,1.7c-6.2,0.4-12.5,0.5-18.7,0.6c-6.2,0.1-12.5-0.1-18.7-0.4c-6.2-0.3-12.5-0.8-18.7-1.4
				c-6.2-0.7-12.4-1.4-18.5-2.5c-3.1-0.5-6.2-1.1-9.2-1.8c-3.1-0.7-6.1-1.6-9.1-2.5c-6-1.8-11.9-3.9-17.5-6.9
				c-2.8-1.5-5.4-3.2-7.7-5.4c-1.1-1.1-2.2-2.3-2.9-3.7C202.2,266.7,201.8,265.1,201.8,263.6z"/>
		</g>
		<g>
			<path class="st1" d="M201.8,236.4c0.1,1.6,0.7,3,1.5,4.3l0.7,0.9c0.2,0.3,0.5,0.6,0.8,0.8c0.5,0.6,1.1,1,1.7,1.6
				c2.4,1.9,5.1,3.4,7.8,4.7c2.8,1.3,5.7,2.3,8.6,3.3c2.9,1,5.9,1.7,8.9,2.5c3,0.8,5.9,1.5,9,2.1c3,0.6,6.1,1,9.1,1.4
				c6.1,0.8,12.3,1.5,18.4,2c3.1,0.3,6.2,0.5,9.2,0.7c3.1,0.2,6.2,0.4,9.2,0.5c6.2,0.3,12.3,0.3,18.5,0.3c6.2,0,12.4-0.2,18.5-0.5
				c6.2-0.3,12.3-0.7,18.5-1.3l0.2,0l3.8-0.5l4-0.6c2.7-0.4,5.4-0.9,8.1-1.4c5.4-1,10.7-2.2,16-3.6c5.3-1.4,10.5-2.9,15.1-5.8
				c4.6-2.8,8.5-6.8,11.5-11.4c-2.5,4.9-6.2,9.3-10.7,12.5c-4.6,3.3-9.9,5.3-15.2,6.9c-5.3,1.6-10.6,3.1-16,4.3
				c-2.7,0.6-5.4,1.2-8.1,1.7c-1.4,0.3-2.7,0.5-4.1,0.7l-2.1,0.3l-1,0.2l-0.5,0.1c-0.2,0-0.3,0-0.7,0.1l0.2,0
				c-6.2,0.7-12.4,1.3-18.6,1.7c-6.2,0.4-12.5,0.5-18.7,0.6c-6.2,0.1-12.5-0.1-18.7-0.4c-6.2-0.3-12.5-0.8-18.7-1.4
				c-6.2-0.7-12.4-1.4-18.5-2.5c-3.1-0.5-6.2-1.1-9.2-1.8c-3.1-0.7-6.1-1.6-9.1-2.5c-6-1.8-11.9-3.9-17.5-6.9
				c-2.8-1.5-5.4-3.2-7.7-5.4c-1.1-1.1-2.2-2.3-2.9-3.7C202.2,239.5,201.8,238,201.8,236.4z"/>
		</g>
		<ellipse class="st2" cx="301.4" cy="234.3" rx="99.6" ry="27.1"/>
		<ellipse class="st0" cx="301.4" cy="234.3" rx="74.3" ry="12.7"/>
		<path class="st3" d="M375.7,234.3c0.2,4.8-21.7,9.2-26.6,10.2c-9.6,1.9-21.5,3.7-54.3,2.4c-23.4-0.9-31.6-0.8-38.2-2.1
			c-12.6-2.3-29.8-6-29.5-10.6c0.2-2.7,6.5-4.6,11.7-6.1c3.4-1,5.1-1.1,15.8-2.7c8.9-1.3,7.5-1.2,11.3-1.7
			c3.8-0.5,10.3-1.2,18.3-1.7c6.4-0.4,11.7-0.5,17.3-0.5c20.3-0.1,31.9,1,47.4,2.4c0,0,9.5,0.9,20.9,6
			C375.1,232.4,375.7,233.5,375.7,234.3z"/>
	</g>
	<g>
		<path class="st0" d="M201.8,206.7v29.5c0,15,44.6,27.1,99.6,27.1s99.6-12.2,99.6-27.1v-29.5H201.8z"/>
		<g>
			<path class="st1" d="M201.8,236.3c0.1,1.6,0.7,3,1.5,4.3l0.7,0.9c0.2,0.3,0.5,0.6,0.8,0.8c0.5,0.6,1.1,1,1.7,1.6
				c2.4,1.9,5.1,3.4,7.8,4.7c2.8,1.3,5.7,2.3,8.6,3.3c2.9,1,5.9,1.7,8.9,2.5c3,0.8,5.9,1.5,9,2.1c3,0.6,6.1,1,9.1,1.4
				c6.1,0.8,12.3,1.5,18.4,2c3.1,0.3,6.2,0.5,9.2,0.7c3.1,0.2,6.2,0.4,9.2,0.5c6.2,0.3,12.3,0.3,18.5,0.3c6.2,0,12.4-0.2,18.5-0.5
				c6.2-0.3,12.3-0.7,18.5-1.3l0.2,0l3.8-0.5l4-0.6c2.7-0.4,5.4-0.9,8.1-1.4c5.4-1,10.7-2.2,16-3.6c5.3-1.4,10.5-2.9,15.1-5.8
				c4.6-2.8,8.5-6.8,11.5-11.4c-2.5,4.9-6.2,9.3-10.7,12.5c-4.6,3.3-9.9,5.3-15.2,6.9c-5.3,1.6-10.6,3.1-16,4.3
				c-2.7,0.6-5.4,1.2-8.1,1.7c-1.4,0.3-2.7,0.5-4.1,0.7l-2.1,0.3l-1,0.2l-0.5,0.1c-0.2,0-0.3,0-0.7,0.1l0.2,0
				c-6.2,0.7-12.4,1.3-18.6,1.7c-6.2,0.4-12.5,0.5-18.7,0.6c-6.2,0.1-12.5-0.1-18.7-0.4c-6.2-0.3-12.5-0.8-18.7-1.4
				c-6.2-0.7-12.4-1.4-18.5-2.5c-3.1-0.5-6.2-1.1-9.2-1.8c-3.1-0.7-6.1-1.6-9.1-2.5c-6-1.8-11.9-3.9-17.5-6.9
				c-2.8-1.5-5.4-3.2-7.7-5.4c-1.1-1.1-2.2-2.3-2.9-3.7C202.2,239.4,201.8,237.8,201.8,236.3z"/>
		</g>
		<g>
			<path class="st1" d="M201.8,209.1c0.1,1.6,0.7,3,1.5,4.3l0.7,0.9c0.2,0.3,0.5,0.6,0.8,0.8c0.5,0.6,1.1,1,1.7,1.6
				c2.4,1.9,5.1,3.4,7.8,4.7c2.8,1.3,5.7,2.3,8.6,3.3c2.9,1,5.9,1.7,8.9,2.5c3,0.8,5.9,1.5,9,2.1c3,0.6,6.1,1,9.1,1.4
				c6.1,0.8,12.3,1.5,18.4,2c3.1,0.3,6.2,0.5,9.2,0.7c3.1,0.2,6.2,0.4,9.2,0.5c6.2,0.3,12.3,0.3,18.5,0.3c6.2,0,12.4-0.2,18.5-0.5
				c6.2-0.3,12.3-0.7,18.5-1.3l0.2,0l3.8-0.5l4-0.6c2.7-0.4,5.4-0.9,8.1-1.4c5.4-1,10.7-2.2,16-3.6c5.3-1.4,10.5-2.9,15.1-5.8
				c4.6-2.8,8.5-6.8,11.5-11.4c-2.5,4.9-6.2,9.3-10.7,12.5c-4.6,3.3-9.9,5.3-15.2,6.9c-5.3,1.6-10.6,3.1-16,4.3
				c-2.7,0.6-5.4,1.2-8.1,1.7c-1.4,0.3-2.7,0.5-4.1,0.7l-2.1,0.3l-1,0.2l-0.5,0.1c-0.2,0-0.3,0-0.7,0.1l0.2,0
				c-6.2,0.7-12.4,1.3-18.6,1.7c-6.2,0.4-12.5,0.5-18.7,0.6c-6.2,0.1-12.5-0.1-18.7-0.4c-6.2-0.3-12.5-0.8-18.7-1.4
				c-6.2-0.7-12.4-1.4-18.5-2.5c-3.1-0.5-6.2-1.1-9.2-1.8c-3.1-0.7-6.1-1.6-9.1-2.5c-6-1.8-11.9-3.9-17.5-6.9
				c-2.8-1.5-5.4-3.2-7.7-5.4c-1.1-1.1-2.2-2.3-2.9-3.7C202.2,212.2,201.8,210.7,201.8,209.1z"/>
		</g>
		<ellipse class="st2" cx="301.4" cy="207" rx="99.6" ry="27.1"/>
		<ellipse class="st0" cx="301.4" cy="207" rx="74.3" ry="12.7"/>
		<path class="st3" d="M375.7,207c0.2,4.8-21.7,9.2-26.6,10.2c-9.6,1.9-21.5,3.7-54.3,2.4c-23.4-0.9-31.6-0.8-38.2-2.1
			c-12.6-2.3-29.8-6-29.5-10.6c0.2-2.7,6.5-4.6,11.7-6.1c3.4-1,5.1-1.1,15.8-2.7c8.9-1.3,7.5-1.2,11.3-1.7
			c3.8-0.5,10.3-1.2,18.3-1.7c6.4-0.4,11.7-0.5,17.3-0.5c20.3-0.1,31.9,1,47.4,2.4c0,0,9.5,0.9,20.9,6
			C375.1,205.2,375.7,206.2,375.7,207z"/>
	</g>
	<g>
		<path class="st0" d="M201.8,179.6v29.5c0,15,44.6,27.1,99.6,27.1s99.6-12.2,99.6-27.1v-29.5H201.8z"/>
		<g>
			<path class="st1" d="M201.8,209.1c0.1,1.6,0.7,3,1.5,4.3l0.7,0.9c0.2,0.3,0.5,0.6,0.8,0.8c0.5,0.6,1.1,1,1.7,1.6
				c2.4,1.9,5.1,3.4,7.8,4.7c2.8,1.3,5.7,2.3,8.6,3.3c2.9,1,5.9,1.7,8.9,2.5c3,0.8,5.9,1.5,9,2.1c3,0.6,6.1,1,9.1,1.4
				c6.1,0.8,12.3,1.5,18.4,2c3.1,0.3,6.2,0.5,9.2,0.7c3.1,0.2,6.2,0.4,9.2,0.5c6.2,0.3,12.3,0.3,18.5,0.3c6.2,0,12.4-0.2,18.5-0.5
				c6.2-0.3,12.3-0.7,18.5-1.3l0.2,0l3.8-0.5l4-0.6c2.7-0.4,5.4-0.9,8.1-1.4c5.4-1,10.7-2.2,16-3.6c5.3-1.4,10.5-2.9,15.1-5.8
				c4.6-2.8,8.5-6.8,11.5-11.4c-2.5,4.9-6.2,9.3-10.7,12.5c-4.6,3.3-9.9,5.3-15.2,6.9c-5.3,1.6-10.6,3.1-16,4.3
				c-2.7,0.6-5.4,1.2-8.1,1.7c-1.4,0.3-2.7,0.5-4.1,0.7l-2.1,0.3l-1,0.2l-0.5,0.1c-0.2,0-0.3,0-0.7,0.1l0.2,0
				c-6.2,0.7-12.4,1.3-18.6,1.7c-6.2,0.4-12.5,0.5-18.7,0.6c-6.2,0.1-12.5-0.1-18.7-0.4c-6.2-0.3-12.5-0.8-18.7-1.4
				c-6.2-0.7-12.4-1.4-18.5-2.5c-3.1-0.5-6.2-1.1-9.2-1.8c-3.1-0.7-6.1-1.6-9.1-2.5c-6-1.8-11.9-3.9-17.5-6.9
				c-2.8-1.5-5.4-3.2-7.7-5.4c-1.1-1.1-2.2-2.3-2.9-3.7C202.2,212.2,201.8,210.7,201.8,209.1z"/>
		</g>
		<g>
			<path class="st1" d="M201.8,182c0.1,1.6,0.7,3,1.5,4.3l0.7,0.9c0.2,0.3,0.5,0.6,0.8,0.8c0.5,0.6,1.1,1,1.7,1.6
				c2.4,1.9,5.1,3.4,7.8,4.7c2.8,1.3,5.7,2.3,8.6,3.3c2.9,1,5.9,1.7,8.9,2.5c3,0.8,5.9,1.5,9,2.1c3,0.6,6.1,1,9.1,1.4
				c6.1,0.8,12.3,1.5,18.4,2c3.1,0.3,6.2,0.5,9.2,0.7c3.1,0.2,6.2,0.4,9.2,0.5c6.2,0.3,12.3,0.3,18.5,0.3c6.2,0,12.4-0.2,18.5-0.5
				c6.2-0.3,12.3-0.7,18.5-1.3l0.2,0l3.8-0.5l4-0.6c2.7-0.4,5.4-0.9,8.1-1.4c5.4-1,10.7-2.2,16-3.6c5.3-1.4,10.5-2.9,15.1-5.8
				c4.6-2.8,8.5-6.8,11.5-11.4c-2.5,4.9-6.2,9.3-10.7,12.5c-4.6,3.3-9.9,5.3-15.2,6.9c-5.3,1.6-10.6,3.1-16,4.3
				c-2.7,0.6-5.4,1.2-8.1,1.7c-1.4,0.3-2.7,0.5-4.1,0.7l-2.1,0.3l-1,0.2l-0.5,0.1c-0.2,0-0.3,0-0.7,0.1l0.2,0
				c-6.2,0.7-12.4,1.3-18.6,1.7c-6.2,0.4-12.5,0.5-18.7,0.6c-6.2,0.1-12.5-0.1-18.7-0.4c-6.2-0.3-12.5-0.8-18.7-1.4
				c-6.2-0.7-12.4-1.4-18.5-2.5c-3.1-0.5-6.2-1.1-9.2-1.8c-3.1-0.7-6.1-1.6-9.1-2.5c-6-1.8-11.9-3.9-17.5-6.9
				c-2.8-1.5-5.4-3.2-7.7-5.4c-1.1-1.1-2.2-2.3-2.9-3.7C202.2,185.1,201.8,183.5,201.8,182z"/>
		</g>
		<ellipse class="st2" cx="301.4" cy="179.8" rx="99.6" ry="27.1"/>
		<ellipse class="st0" cx="301.4" cy="179.8" rx="74.3" ry="12.7"/>
		<path class="st3" d="M375.7,179.8c0.2,4.8-21.7,9.2-26.6,10.2c-9.6,1.9-21.5,3.7-54.3,2.4c-23.4-0.9-31.6-0.8-38.2-2.1
			c-12.6-2.3-29.8-6-29.5-10.6c0.2-2.7,6.5-4.6,11.7-6.1c3.4-1,5.1-1.1,15.8-2.7c8.9-1.3,7.5-1.2,11.3-1.7
			c3.8-0.5,10.3-1.2,18.3-1.7c6.4-0.4,11.7-0.5,17.3-0.5c20.3-0.1,31.9,1,47.4,2.4c0,0,9.5,0.9,20.9,6
			C375.1,178,375.7,179.1,375.7,179.8z"/>
	</g>
	<g>
		<path class="st0" d="M84.1,263.3l5.9,28.9c3,14.7,49.1,17.7,103,6.6s95.1-31.9,92.1-46.5l-5.9-28.9L84.1,263.3z"/>
		<g>
			<path class="st1" d="M90,292.2c0.4,1.5,1.3,2.8,2.3,3.9l0.8,0.8c0.3,0.2,0.6,0.4,0.9,0.7c0.6,0.5,1.3,0.8,1.9,1.2
				c2.7,1.4,5.7,2.3,8.6,3c3,0.7,6,1.1,9.1,1.5c3.1,0.4,6.1,0.5,9.2,0.7c3.1,0.2,6.1,0.3,9.2,0.3c3.1-0.1,6.1-0.2,9.2-0.4
				c6.2-0.5,12.3-1,18.4-1.7c3.1-0.4,6.1-0.8,9.2-1.2c3.1-0.4,6.1-0.9,9.2-1.4c6.1-1,12.2-2.1,18.2-3.4c6-1.2,12.1-2.6,18-4.2
				c6-1.5,11.9-3.2,17.8-5l0.2,0l3.7-1.3l3.8-1.4c2.6-1,5.1-1.9,7.6-3c5-2.1,10-4.3,14.9-6.7c4.9-2.4,9.7-5,13.6-8.7
				c3.9-3.7,7-8.4,9-13.5c-1.5,5.3-4.2,10.3-8,14.4c-3.8,4.1-8.7,7.2-13.5,9.8c-4.8,2.7-9.8,5.2-14.8,7.4c-2.5,1.2-5.1,2.2-7.6,3.3
				c-1.3,0.5-2.6,1-3.9,1.5l-2,0.7l-1,0.4l-0.5,0.2c-0.2,0.1-0.2,0.1-0.7,0.2l0.2,0c-5.9,2-11.9,3.8-17.9,5.4
				c-6,1.6-12.1,3-18.2,4.3c-6.1,1.3-12.3,2.4-18.4,3.4c-6.2,1-12.4,1.7-18.6,2.3c-6.2,0.6-12.4,1.1-18.7,1.3
				c-3.1,0.1-6.3,0.2-9.4,0.1c-3.1,0-6.3-0.3-9.4-0.7c-6.2-0.6-12.5-1.4-18.5-3.2c-3-0.9-6-2.1-8.7-3.7c-1.3-0.9-2.6-1.8-3.6-3.1
				C91,295.2,90.3,293.7,90,292.2z"/>
		</g>
		<g>
			<path class="st1" d="M84.6,265.6c0.4,1.5,1.3,2.8,2.3,3.9l0.8,0.8c0.3,0.2,0.6,0.4,0.9,0.7c0.6,0.5,1.3,0.8,1.9,1.2
				c2.7,1.4,5.7,2.3,8.6,3c3,0.7,6,1.1,9.1,1.5c3.1,0.4,6.1,0.5,9.2,0.7c3.1,0.2,6.1,0.3,9.2,0.3c3.1-0.1,6.1-0.2,9.2-0.4
				c6.2-0.5,12.3-1,18.4-1.7c3.1-0.4,6.1-0.8,9.2-1.2c3.1-0.4,6.1-0.9,9.2-1.4c6.1-1,12.2-2.1,18.2-3.4c6-1.2,12.1-2.6,18-4.2
				c6-1.5,11.9-3.2,17.8-5l0.2,0l3.7-1.3l3.8-1.4c2.6-1,5.1-1.9,7.6-3c5-2.1,10-4.3,14.9-6.7c4.9-2.4,9.7-5,13.6-8.7
				c3.9-3.7,7-8.4,9-13.5c-1.5,5.3-4.2,10.3-8,14.4c-3.8,4.1-8.7,7.2-13.5,9.8c-4.8,2.7-9.8,5.2-14.8,7.4c-2.5,1.2-5.1,2.2-7.6,3.3
				c-1.3,0.5-2.6,1-3.9,1.5l-2,0.7l-1,0.4l-0.5,0.2c-0.2,0.1-0.2,0.1-0.7,0.2l0.2,0c-5.9,2-11.9,3.8-17.9,5.4
				c-6,1.6-12.1,3-18.2,4.3c-6.1,1.3-12.3,2.4-18.4,3.4c-6.2,1-12.4,1.7-18.6,2.3c-6.2,0.6-12.4,1.1-18.7,1.3
				c-3.1,0.1-6.3,0.2-9.4,0.1c-3.1,0-6.3-0.3-9.4-0.7c-6.2-0.6-12.5-1.4-18.5-3.2c-3-0.9-6-2.1-8.7-3.7c-1.3-0.9-2.6-1.8-3.6-3.1
				C85.6,268.6,84.8,267.1,84.6,265.6z"/>
		</g>
		
			<ellipse transform="matrix(0.9797 -0.2004 0.2004 0.9797 -45.1205 41.3463)" class="st2" cx="181.7" cy="243.5" rx="99.6" ry="27.1"/>
		
			<ellipse transform="matrix(0.9797 -0.2004 0.2004 0.9797 -45.1204 41.3462)" class="st0" cx="181.7" cy="243.5" rx="74.3" ry="12.7"/>
		<path class="st3" d="M254.5,228.7c1.1,4.7-19.4,13.4-24.1,15.3c-9,3.8-20.3,8-52.7,13.3c-23.1,3.8-31.1,5.5-37.8,5.6
			c-12.8,0.2-30.4,0.1-31.1-4.5c-0.4-2.6,5.4-5.8,10.2-8.3c3.1-1.7,4.8-2.1,14.9-5.8c8.4-3,7.1-2.7,10.7-3.9
			c3.6-1.2,9.8-3.3,17.6-5.3c6.2-1.7,11.4-2.8,16.8-3.9c19.9-4.1,31.5-5.4,46.9-7.1c0,0,9.5-1,21.7,1.7
			C253.5,227,254.3,227.9,254.5,228.7z"/>
	</g>
	<g>
		<path class="st0" d="M321.6,460.3v29.5c0,15,44.6,27.1,99.6,27.1s99.6-12.2,99.6-27.1v-29.5H321.6z"/>
		<g>
			<path class="st1" d="M321.6,489.8c0.1,1.6,0.7,3,1.5,4.3l0.7,0.9c0.2,0.3,0.5,0.6,0.8,0.8c0.5,0.6,1.1,1,1.7,1.6
				c2.4,1.9,5.1,3.4,7.8,4.7c2.8,1.3,5.7,2.3,8.6,3.3c2.9,1,5.9,1.7,8.9,2.5c3,0.8,5.9,1.5,9,2.1c3,0.6,6.1,1,9.1,1.4
				c6.1,0.8,12.3,1.5,18.4,2c3.1,0.3,6.2,0.5,9.2,0.7c3.1,0.2,6.2,0.4,9.2,0.5c6.2,0.3,12.3,0.3,18.5,0.3c6.2,0,12.4-0.2,18.5-0.5
				c6.2-0.3,12.3-0.7,18.5-1.3l0.2,0l3.8-0.5l4-0.6c2.7-0.4,5.4-0.9,8.1-1.4c5.4-1,10.7-2.2,16-3.6c5.3-1.4,10.5-2.9,15.1-5.8
				c4.6-2.8,8.5-6.8,11.5-11.4c-2.5,4.9-6.2,9.3-10.7,12.5c-4.6,3.3-9.9,5.3-15.2,6.9c-5.3,1.6-10.6,3.1-16,4.3
				c-2.7,0.6-5.4,1.2-8.1,1.7c-1.4,0.3-2.7,0.5-4.1,0.7l-2.1,0.3l-1,0.2l-0.5,0.1c-0.2,0-0.3,0-0.7,0.1l0.2,0
				c-6.2,0.7-12.4,1.3-18.6,1.7c-6.2,0.4-12.5,0.5-18.7,0.6c-6.2,0.1-12.5-0.1-18.7-0.4c-6.2-0.3-12.5-0.8-18.7-1.4
				c-6.2-0.7-12.4-1.4-18.5-2.5c-3.1-0.5-6.2-1.1-9.2-1.8c-3.1-0.7-6.1-1.6-9.1-2.5c-6-1.8-11.9-3.9-17.5-6.9
				c-2.8-1.5-5.4-3.2-7.7-5.4c-1.1-1.1-2.2-2.3-2.9-3.7C322,492.9,321.5,491.4,321.6,489.8z"/>
		</g>
		<g>
			<path class="st1" d="M321.6,462.7c0.1,1.6,0.7,3,1.5,4.3l0.7,0.9c0.2,0.3,0.5,0.6,0.8,0.8c0.5,0.6,1.1,1,1.7,1.6
				c2.4,1.9,5.1,3.4,7.8,4.7c2.8,1.3,5.7,2.3,8.6,3.3c2.9,1,5.9,1.7,8.9,2.5c3,0.8,5.9,1.5,9,2.1c3,0.6,6.1,1,9.1,1.4
				c6.1,0.8,12.3,1.5,18.4,2c3.1,0.3,6.2,0.5,9.2,0.7c3.1,0.2,6.2,0.4,9.2,0.5c6.2,0.3,12.3,0.3,18.5,0.3c6.2,0,12.4-0.2,18.5-0.5
				c6.2-0.3,12.3-0.7,18.5-1.3l0.2,0l3.8-0.5l4-0.6c2.7-0.4,5.4-0.9,8.1-1.4c5.4-1,10.7-2.2,16-3.6c5.3-1.4,10.5-2.9,15.1-5.8
				c4.6-2.8,8.5-6.8,11.5-11.4c-2.5,4.9-6.2,9.3-10.7,12.5c-4.6,3.3-9.9,5.3-15.2,6.9c-5.3,1.6-10.6,3.1-16,4.3
				c-2.7,0.6-5.4,1.2-8.1,1.7c-1.4,0.3-2.7,0.5-4.1,0.7l-2.1,0.3l-1,0.2l-0.5,0.1c-0.2,0-0.3,0-0.7,0.1l0.2,0
				c-6.2,0.7-12.4,1.3-18.6,1.7c-6.2,0.4-12.5,0.5-18.7,0.6c-6.2,0.1-12.5-0.1-18.7-0.4c-6.2-0.3-12.5-0.8-18.7-1.4
				c-6.2-0.7-12.4-1.4-18.5-2.5c-3.1-0.5-6.2-1.1-9.2-1.8c-3.1-0.7-6.1-1.6-9.1-2.5c-6-1.8-11.9-3.9-17.5-6.9
				c-2.8-1.5-5.4-3.2-7.7-5.4c-1.1-1.1-2.2-2.3-2.9-3.7C322,465.8,321.5,464.2,321.6,462.7z"/>
		</g>
		<ellipse class="st2" cx="421.1" cy="460.5" rx="99.6" ry="27.1"/>
		<ellipse class="st0" cx="421.1" cy="460.5" rx="74.3" ry="12.7"/>
		<path class="st3" d="M495.5,460.5c0.2,4.8-21.7,9.2-26.6,10.2c-9.6,1.9-21.5,3.7-54.3,2.4c-23.4-0.9-31.6-0.8-38.2-2.1
			c-12.6-2.3-29.8-6-29.5-10.6c0.2-2.7,6.5-4.6,11.7-6.1c3.4-1,5.1-1.1,15.8-2.7c8.9-1.3,7.5-1.2,11.3-1.7
			c3.8-0.5,10.3-1.2,18.3-1.7c6.4-0.4,11.7-0.5,17.3-0.5c20.3-0.1,31.9,1,47.4,2.4c0,0,9.5,0.9,20.9,6
			C494.8,458.7,495.5,459.8,495.5,460.5z"/>
	</g>
	<g>
		<path class="st0" d="M368.9,428.2v29.5c0,15,44.6,27.1,99.6,27.1s99.6-12.2,99.6-27.1v-29.5H368.9z"/>
		<g>
			<path class="st1" d="M368.9,457.7c0.1,1.6,0.7,3,1.5,4.3l0.7,0.9c0.2,0.3,0.5,0.6,0.8,0.8c0.5,0.6,1.1,1,1.7,1.6
				c2.4,1.9,5.1,3.4,7.8,4.7c2.8,1.3,5.7,2.3,8.6,3.3c2.9,1,5.9,1.7,8.9,2.5c3,0.8,5.9,1.5,9,2.1c3,0.6,6.1,1,9.1,1.4
				c6.1,0.8,12.3,1.5,18.4,2c3.1,0.3,6.2,0.5,9.2,0.7c3.1,0.2,6.2,0.4,9.2,0.5c6.2,0.3,12.3,0.3,18.5,0.3c6.2,0,12.4-0.2,18.5-0.5
				c6.2-0.3,12.3-0.7,18.5-1.3l0.2,0l3.8-0.5l4-0.6c2.7-0.4,5.4-0.9,8.1-1.4c5.4-1,10.7-2.2,16-3.6c5.3-1.4,10.5-2.9,15.1-5.8
				c4.6-2.8,8.5-6.8,11.5-11.4c-2.5,4.9-6.2,9.3-10.7,12.5c-4.6,3.3-9.9,5.3-15.2,6.9c-5.3,1.6-10.6,3.1-16,4.3
				c-2.7,0.6-5.4,1.2-8.1,1.7c-1.4,0.3-2.7,0.5-4.1,0.7l-2.1,0.3l-1,0.2l-0.5,0.1c-0.2,0-0.3,0-0.7,0.1l0.2,0
				c-6.2,0.7-12.4,1.3-18.6,1.7c-6.2,0.4-12.5,0.5-18.7,0.6c-6.2,0.1-12.5-0.1-18.7-0.4c-6.2-0.3-12.5-0.8-18.7-1.4
				c-6.2-0.7-12.4-1.4-18.5-2.5c-3.1-0.5-6.2-1.1-9.2-1.8c-3.1-0.7-6.1-1.6-9.1-2.5c-6-1.8-11.9-3.9-17.5-6.9
				c-2.8-1.5-5.4-3.2-7.7-5.4c-1.1-1.1-2.2-2.3-2.9-3.7C369.3,460.8,368.8,459.3,368.9,457.7z"/>
		</g>
		<g>
			<path class="st1" d="M368.9,430.6c0.1,1.6,0.7,3,1.5,4.3l0.7,0.9c0.2,0.3,0.5,0.6,0.8,0.8c0.5,0.6,1.1,1,1.7,1.6
				c2.4,1.9,5.1,3.4,7.8,4.7c2.8,1.3,5.7,2.3,8.6,3.3c2.9,1,5.9,1.7,8.9,2.5c3,0.8,5.9,1.5,9,2.1c3,0.6,6.1,1,9.1,1.4
				c6.1,0.8,12.3,1.5,18.4,2c3.1,0.3,6.2,0.5,9.2,0.7c3.1,0.2,6.2,0.4,9.2,0.5c6.2,0.3,12.3,0.3,18.5,0.3c6.2,0,12.4-0.2,18.5-0.5
				c6.2-0.3,12.3-0.7,18.5-1.3l0.2,0l3.8-0.5l4-0.6c2.7-0.4,5.4-0.9,8.1-1.4c5.4-1,10.7-2.2,16-3.6c5.3-1.4,10.5-2.9,15.1-5.8
				c4.6-2.8,8.5-6.8,11.5-11.4c-2.5,4.9-6.2,9.3-10.7,12.5c-4.6,3.3-9.9,5.3-15.2,6.9c-5.3,1.6-10.6,3.1-16,4.3
				c-2.7,0.6-5.4,1.2-8.1,1.7c-1.4,0.3-2.7,0.5-4.1,0.7l-2.1,0.3l-1,0.2l-0.5,0.1c-0.2,0-0.3,0-0.7,0.1l0.2,0
				c-6.2,0.7-12.4,1.3-18.6,1.7c-6.2,0.4-12.5,0.5-18.7,0.6c-6.2,0.1-12.5-0.1-18.7-0.4c-6.2-0.3-12.5-0.8-18.7-1.4
				c-6.2-0.7-12.4-1.4-18.5-2.5c-3.1-0.5-6.2-1.1-9.2-1.8c-3.1-0.7-6.1-1.6-9.1-2.5c-6-1.8-11.9-3.9-17.5-6.9
				c-2.8-1.5-5.4-3.2-7.7-5.4c-1.1-1.1-2.2-2.3-2.9-3.7C369.3,433.7,368.8,432.1,368.9,430.6z"/>
		</g>
		<ellipse class="st2" cx="468.4" cy="428.4" rx="99.6" ry="27.1"/>
		<ellipse class="st0" cx="468.4" cy="428.4" rx="74.3" ry="12.7"/>
		<path class="st3" d="M542.8,428.4c0.2,4.8-21.7,9.2-26.6,10.2c-9.6,1.9-21.5,3.7-54.3,2.4c-23.4-0.9-31.6-0.8-38.2-2.1
			c-12.6-2.3-29.8-6-29.5-10.6c0.2-2.7,6.5-4.6,11.7-6.1c3.4-1,5.1-1.1,15.8-2.7c8.9-1.3,7.5-1.2,11.3-1.7
			c3.8-0.5,10.3-1.2,18.3-1.7c6.4-0.4,11.7-0.5,17.3-0.5c20.3-0.1,31.9,1,47.4,2.4c0,0,9.5,0.9,20.9,6
			C542.1,426.6,542.8,427.7,542.8,428.4z"/>
	</g>
	<g>
		<path class="st0" d="M368.9,400.9v29.5c0,15,44.6,27.1,99.6,27.1s99.6-12.2,99.6-27.1v-29.5H368.9z"/>
		<g>
			<path class="st1" d="M368.9,430.4c0.1,1.6,0.7,3,1.5,4.3l0.7,0.9c0.2,0.3,0.5,0.6,0.8,0.8c0.5,0.6,1.1,1,1.7,1.6
				c2.4,1.9,5.1,3.4,7.8,4.7c2.8,1.3,5.7,2.3,8.6,3.3c2.9,1,5.9,1.7,8.9,2.5c3,0.8,5.9,1.5,9,2.1c3,0.6,6.1,1,9.1,1.4
				c6.1,0.8,12.3,1.5,18.4,2c3.1,0.3,6.2,0.5,9.2,0.7c3.1,0.2,6.2,0.4,9.2,0.5c6.2,0.3,12.3,0.3,18.5,0.3c6.2,0,12.4-0.2,18.5-0.5
				c6.2-0.3,12.3-0.7,18.5-1.3l0.2,0l3.8-0.5l4-0.6c2.7-0.4,5.4-0.9,8.1-1.4c5.4-1,10.7-2.2,16-3.6c5.3-1.4,10.5-2.9,15.1-5.8
				c4.6-2.8,8.5-6.8,11.5-11.4c-2.5,4.9-6.2,9.3-10.7,12.5c-4.6,3.3-9.9,5.3-15.2,6.9c-5.3,1.6-10.6,3.1-16,4.3
				c-2.7,0.6-5.4,1.2-8.1,1.7c-1.4,0.3-2.7,0.5-4.1,0.7l-2.1,0.3l-1,0.2l-0.5,0.1c-0.2,0-0.3,0-0.7,0.1l0.2,0
				c-6.2,0.7-12.4,1.3-18.6,1.7c-6.2,0.4-12.5,0.5-18.7,0.6c-6.2,0.1-12.5-0.1-18.7-0.4c-6.2-0.3-12.5-0.8-18.7-1.4
				c-6.2-0.7-12.4-1.4-18.5-2.5c-3.1-0.5-6.2-1.1-9.2-1.8c-3.1-0.7-6.1-1.6-9.1-2.5c-6-1.8-11.9-3.9-17.5-6.9
				c-2.8-1.5-5.4-3.2-7.7-5.4c-1.1-1.1-2.2-2.3-2.9-3.7C369.3,433.5,368.8,432,368.9,430.4z"/>
		</g>
		<g>
			<path class="st1" d="M368.9,403.3c0.1,1.6,0.7,3,1.5,4.3l0.7,0.9c0.2,0.3,0.5,0.6,0.8,0.8c0.5,0.6,1.1,1,1.7,1.6
				c2.4,1.9,5.1,3.4,7.8,4.7c2.8,1.3,5.7,2.3,8.6,3.3c2.9,1,5.9,1.7,8.9,2.5c3,0.8,5.9,1.5,9,2.1c3,0.6,6.1,1,9.1,1.4
				c6.1,0.8,12.3,1.5,18.4,2c3.1,0.3,6.2,0.5,9.2,0.7c3.1,0.2,6.2,0.4,9.2,0.5c6.2,0.3,12.3,0.3,18.5,0.3c6.2,0,12.4-0.2,18.5-0.5
				c6.2-0.3,12.3-0.7,18.5-1.3l0.2,0l3.8-0.5l4-0.6c2.7-0.4,5.4-0.9,8.1-1.4c5.4-1,10.7-2.2,16-3.6c5.3-1.4,10.5-2.9,15.1-5.8
				c4.6-2.8,8.5-6.8,11.5-11.4c-2.5,4.9-6.2,9.3-10.7,12.5c-4.6,3.3-9.9,5.3-15.2,6.9c-5.3,1.6-10.6,3.1-16,4.3
				c-2.7,0.6-5.4,1.2-8.1,1.7c-1.4,0.3-2.7,0.5-4.1,0.7l-2.1,0.3l-1,0.2l-0.5,0.1c-0.2,0-0.3,0-0.7,0.1l0.2,0
				c-6.2,0.7-12.4,1.3-18.6,1.7c-6.2,0.4-12.5,0.5-18.7,0.6c-6.2,0.1-12.5-0.1-18.7-0.4c-6.2-0.3-12.5-0.8-18.7-1.4
				c-6.2-0.7-12.4-1.4-18.5-2.5c-3.1-0.5-6.2-1.1-9.2-1.8c-3.1-0.7-6.1-1.6-9.1-2.5c-6-1.8-11.9-3.9-17.5-6.9
				c-2.8-1.5-5.4-3.2-7.7-5.4c-1.1-1.1-2.2-2.3-2.9-3.7C369.3,406.4,368.8,404.8,368.9,403.3z"/>
		</g>
		<ellipse class="st2" cx="468.4" cy="401.1" rx="99.6" ry="27.1"/>
		<ellipse class="st0" cx="468.4" cy="401.1" rx="74.3" ry="12.7"/>
		<path class="st3" d="M542.8,401.1c0.2,4.8-21.7,9.2-26.6,10.2c-9.6,1.9-21.5,3.7-54.3,2.4c-23.4-0.9-31.6-0.8-38.2-2.1
			c-12.6-2.3-29.8-6-29.5-10.6c0.2-2.7,6.5-4.6,11.7-6.1c3.4-1,5.1-1.1,15.8-2.7c8.9-1.3,7.5-1.2,11.3-1.7
			c3.8-0.5,10.3-1.2,18.3-1.7c6.4-0.4,11.7-0.5,17.3-0.5c20.3-0.1,31.9,1,47.4,2.4c0,0,9.5,0.9,20.9,6
			C542.1,399.3,542.8,400.4,542.8,401.1z"/>
	</g>
	<g>
		<path class="st0" d="M401,373.6v29.5c0,15,44.6,27.1,99.6,27.1s99.6-12.2,99.6-27.1v-29.5H401z"/>
		<g>
			<path class="st1" d="M401,403.1c0.1,1.6,0.7,3,1.5,4.3l0.7,0.9c0.2,0.3,0.5,0.6,0.8,0.8c0.5,0.6,1.1,1,1.7,1.6
				c2.4,1.9,5.1,3.4,7.8,4.7c2.8,1.3,5.7,2.3,8.6,3.3c2.9,1,5.9,1.7,8.9,2.5c3,0.8,5.9,1.5,9,2.1c3,0.6,6.1,1,9.1,1.4
				c6.1,0.8,12.3,1.5,18.4,2c3.1,0.3,6.2,0.5,9.2,0.7c3.1,0.2,6.2,0.4,9.2,0.5c6.2,0.3,12.3,0.3,18.5,0.3c6.2,0,12.4-0.2,18.5-0.5
				c6.2-0.3,12.3-0.7,18.5-1.3l0.2,0l3.8-0.5l4-0.6c2.7-0.4,5.4-0.9,8.1-1.4c5.4-1,10.7-2.2,16-3.6c5.3-1.4,10.5-2.9,15.1-5.8
				c4.6-2.8,8.5-6.8,11.5-11.4c-2.5,4.9-6.2,9.3-10.7,12.5c-4.6,3.3-9.9,5.3-15.2,6.9c-5.3,1.6-10.6,3.1-16,4.3
				c-2.7,0.6-5.4,1.2-8.1,1.7c-1.4,0.3-2.7,0.5-4.1,0.7l-2.1,0.3l-1,0.2l-0.5,0.1c-0.2,0-0.3,0-0.7,0.1l0.2,0
				c-6.2,0.7-12.4,1.3-18.6,1.7c-6.2,0.4-12.5,0.5-18.7,0.6c-6.2,0.1-12.5-0.1-18.7-0.4c-6.2-0.3-12.5-0.8-18.7-1.4
				c-6.2-0.7-12.4-1.4-18.5-2.5c-3.1-0.5-6.2-1.1-9.2-1.8c-3.1-0.7-6.1-1.6-9.1-2.5c-6-1.8-11.9-3.9-17.5-6.9
				c-2.8-1.5-5.4-3.2-7.7-5.4c-1.1-1.1-2.2-2.3-2.9-3.7C401.4,406.2,400.9,404.7,401,403.1z"/>
		</g>
		<g>
			<path class="st1" d="M401,376c0.1,1.6,0.7,3,1.5,4.3l0.7,0.9c0.2,0.3,0.5,0.6,0.8,0.8c0.5,0.6,1.1,1,1.7,1.6
				c2.4,1.9,5.1,3.4,7.8,4.7c2.8,1.3,5.7,2.3,8.6,3.3c2.9,1,5.9,1.7,8.9,2.5c3,0.8,5.9,1.5,9,2.1c3,0.6,6.1,1,9.1,1.4
				c6.1,0.8,12.3,1.5,18.4,2c3.1,0.3,6.2,0.5,9.2,0.7c3.1,0.2,6.2,0.4,9.2,0.5c6.2,0.3,12.3,0.3,18.5,0.3c6.2,0,12.4-0.2,18.5-0.5
				c6.2-0.3,12.3-0.7,18.5-1.3l0.2,0l3.8-0.5l4-0.6c2.7-0.4,5.4-0.9,8.1-1.4c5.4-1,10.7-2.2,16-3.6c5.3-1.4,10.5-2.9,15.1-5.8
				c4.6-2.8,8.5-6.8,11.5-11.4c-2.5,4.9-6.2,9.3-10.7,12.5c-4.6,3.3-9.9,5.3-15.2,6.9c-5.3,1.6-10.6,3.1-16,4.3
				c-2.7,0.6-5.4,1.2-8.1,1.7c-1.4,0.3-2.7,0.5-4.1,0.7l-2.1,0.3l-1,0.2l-0.5,0.1c-0.2,0-0.3,0-0.7,0.1l0.2,0
				c-6.2,0.7-12.4,1.3-18.6,1.7c-6.2,0.4-12.5,0.5-18.7,0.6c-6.2,0.1-12.5-0.1-18.7-0.4c-6.2-0.3-12.5-0.8-18.7-1.4
				c-6.2-0.7-12.4-1.4-18.5-2.5c-3.1-0.5-6.2-1.1-9.2-1.8c-3.1-0.7-6.1-1.6-9.1-2.5c-6-1.8-11.9-3.9-17.5-6.9
				c-2.8-1.5-5.4-3.2-7.7-5.4c-1.1-1.1-2.2-2.3-2.9-3.7C401.4,379.1,400.9,377.5,401,376z"/>
		</g>
		<ellipse class="st2" cx="500.5" cy="373.8" rx="99.6" ry="27.1"/>
		<ellipse class="st0" cx="500.5" cy="373.8" rx="74.3" ry="12.7"/>
		<path class="st3" d="M574.9,373.8c0.2,4.8-21.7,9.2-26.6,10.2c-9.6,1.9-21.5,3.7-54.3,2.4c-23.4-0.9-31.6-0.8-38.2-2.1
			c-12.6-2.3-29.8-6-29.5-10.6c0.2-2.7,6.5-4.6,11.7-6.1c3.4-1,5.1-1.1,15.8-2.7c8.9-1.3,7.5-1.2,11.3-1.7
			c3.8-0.5,10.3-1.2,18.3-1.7c6.4-0.4,11.7-0.5,17.3-0.5c20.3-0.1,31.9,1,47.4,2.4c0,0,9.5,0.9,20.9,6
			C574.2,372,574.9,373.1,574.9,373.8z"/>
	</g>
	<g>
		<path class="st0" d="M401,347.1v29.5c0,15,44.6,27.1,99.6,27.1s99.6-12.2,99.6-27.1v-29.5H401z"/>
		<g>
			<path class="st1" d="M401,376.6c0.1,1.6,0.7,3,1.5,4.3l0.7,0.9c0.2,0.3,0.5,0.6,0.8,0.8c0.5,0.6,1.1,1,1.7,1.6
				c2.4,1.9,5.1,3.4,7.8,4.7c2.8,1.3,5.7,2.3,8.6,3.3c2.9,1,5.9,1.7,8.9,2.5c3,0.8,5.9,1.5,9,2.1c3,0.6,6.1,1,9.1,1.4
				c6.1,0.8,12.3,1.5,18.4,2c3.1,0.3,6.2,0.5,9.2,0.7c3.1,0.2,6.2,0.4,9.2,0.5c6.2,0.3,12.3,0.3,18.5,0.3c6.2,0,12.4-0.2,18.5-0.5
				c6.2-0.3,12.3-0.7,18.5-1.3l0.2,0l3.8-0.5l4-0.6c2.7-0.4,5.4-0.9,8.1-1.4c5.4-1,10.7-2.2,16-3.6c5.3-1.4,10.5-2.9,15.1-5.8
				c4.6-2.8,8.5-6.8,11.5-11.4c-2.5,4.9-6.2,9.3-10.7,12.5c-4.6,3.3-9.9,5.3-15.2,6.9c-5.3,1.6-10.6,3.1-16,4.3
				c-2.7,0.6-5.4,1.2-8.1,1.7c-1.4,0.3-2.7,0.5-4.1,0.7l-2.1,0.3l-1,0.2l-0.5,0.1c-0.2,0-0.3,0-0.7,0.1l0.2,0
				c-6.2,0.7-12.4,1.3-18.6,1.7c-6.2,0.4-12.5,0.5-18.7,0.6c-6.2,0.1-12.5-0.1-18.7-0.4c-6.2-0.3-12.5-0.8-18.7-1.4
				c-6.2-0.7-12.4-1.4-18.5-2.5c-3.1-0.5-6.2-1.1-9.2-1.8c-3.1-0.7-6.1-1.6-9.1-2.5c-6-1.8-11.9-3.9-17.5-6.9
				c-2.8-1.5-5.4-3.2-7.7-5.4c-1.1-1.1-2.2-2.3-2.9-3.7C401.4,379.8,400.9,378.2,401,376.6z"/>
		</g>
		<g>
			<path class="st1" d="M401,349.5c0.1,1.6,0.7,3,1.5,4.3l0.7,0.9c0.2,0.3,0.5,0.6,0.8,0.8c0.5,0.6,1.1,1,1.7,1.6
				c2.4,1.9,5.1,3.4,7.8,4.7c2.8,1.3,5.7,2.3,8.6,3.3c2.9,1,5.9,1.7,8.9,2.5c3,0.8,5.9,1.5,9,2.1c3,0.6,6.1,1,9.1,1.4
				c6.1,0.8,12.3,1.5,18.4,2c3.1,0.3,6.2,0.5,9.2,0.7c3.1,0.2,6.2,0.4,9.2,0.5c6.2,0.3,12.3,0.3,18.5,0.3c6.2,0,12.4-0.2,18.5-0.5
				c6.2-0.3,12.3-0.7,18.5-1.3l0.2,0l3.8-0.5l4-0.6c2.7-0.4,5.4-0.9,8.1-1.4c5.4-1,10.7-2.2,16-3.6c5.3-1.4,10.5-2.9,15.1-5.8
				c4.6-2.8,8.5-6.8,11.5-11.4c-2.5,4.9-6.2,9.3-10.7,12.5c-4.6,3.3-9.9,5.3-15.2,6.9c-5.3,1.6-10.6,3.1-16,4.3
				c-2.7,0.6-5.4,1.2-8.1,1.7c-1.4,0.3-2.7,0.5-4.1,0.7l-2.1,0.3l-1,0.2l-0.5,0.1c-0.2,0-0.3,0-0.7,0.1l0.2,0
				c-6.2,0.7-12.4,1.3-18.6,1.7c-6.2,0.4-12.5,0.5-18.7,0.6c-6.2,0.1-12.5-0.1-18.7-0.4c-6.2-0.3-12.5-0.8-18.7-1.4
				c-6.2-0.7-12.4-1.4-18.5-2.5c-3.1-0.5-6.2-1.1-9.2-1.8c-3.1-0.7-6.1-1.6-9.1-2.5c-6-1.8-11.9-3.9-17.5-6.9
				c-2.8-1.5-5.4-3.2-7.7-5.4c-1.1-1.1-2.2-2.3-2.9-3.7C401.4,352.6,400.9,351.1,401,349.5z"/>
		</g>
		<ellipse class="st2" cx="500.5" cy="347.4" rx="99.6" ry="27.1"/>
		<ellipse class="st0" cx="500.5" cy="347.4" rx="74.3" ry="12.7"/>
		<path class="st3" d="M574.9,347.4c0.2,4.8-21.7,9.2-26.6,10.2c-9.6,1.9-21.5,3.7-54.3,2.4c-23.4-0.9-31.6-0.8-38.2-2.1
			c-12.6-2.3-29.8-6-29.5-10.6c0.2-2.7,6.5-4.6,11.7-6.1c3.4-1,5.1-1.1,15.8-2.7c8.9-1.3,7.5-1.2,11.3-1.7
			c3.8-0.5,10.3-1.2,18.3-1.7c6.4-0.4,11.7-0.5,17.3-0.5c20.3-0.1,31.9,1,47.4,2.4c0,0,9.5,0.9,20.9,6
			C574.2,345.5,574.9,346.6,574.9,347.4z"/>
	</g>
	<g>
		<path class="st0" d="M379.9,319.8v29.5c0,15,44.6,27.1,99.6,27.1s99.6-12.2,99.6-27.1v-29.5H379.9z"/>
		<g>
			<path class="st1" d="M379.9,349.3c0.1,1.6,0.7,3,1.5,4.3l0.7,0.9c0.2,0.3,0.5,0.6,0.8,0.8c0.5,0.6,1.1,1,1.7,1.6
				c2.4,1.9,5.1,3.4,7.8,4.7c2.8,1.3,5.7,2.3,8.6,3.3c2.9,1,5.9,1.7,8.9,2.5c3,0.8,5.9,1.5,9,2.1c3,0.6,6.1,1,9.1,1.4
				c6.1,0.8,12.3,1.5,18.4,2c3.1,0.3,6.2,0.5,9.2,0.7c3.1,0.2,6.2,0.4,9.2,0.5c6.2,0.3,12.3,0.3,18.5,0.3c6.2,0,12.4-0.2,18.5-0.5
				c6.2-0.3,12.3-0.7,18.5-1.3l0.2,0l3.8-0.5l4-0.6c2.7-0.4,5.4-0.9,8.1-1.4c5.4-1,10.7-2.2,16-3.6c5.3-1.4,10.5-2.9,15.1-5.8
				c4.6-2.8,8.5-6.8,11.5-11.4c-2.5,4.9-6.2,9.3-10.7,12.5c-4.6,3.3-9.9,5.3-15.2,6.9c-5.3,1.6-10.6,3.1-16,4.3
				c-2.7,0.6-5.4,1.2-8.1,1.7c-1.4,0.3-2.7,0.5-4.1,0.7l-2.1,0.3l-1,0.2l-0.5,0.1c-0.2,0-0.3,0-0.7,0.1l0.2,0
				c-6.2,0.7-12.4,1.3-18.6,1.7c-6.2,0.4-12.5,0.5-18.7,0.6c-6.2,0.1-12.5-0.1-18.7-0.4c-6.2-0.3-12.5-0.8-18.7-1.4
				c-6.2-0.7-12.4-1.4-18.5-2.5c-3.1-0.5-6.2-1.1-9.2-1.8c-3.1-0.7-6.1-1.6-9.1-2.5c-6-1.8-11.9-3.9-17.5-6.9
				c-2.8-1.5-5.4-3.2-7.7-5.4c-1.1-1.1-2.2-2.3-2.9-3.7C380.3,352.5,379.8,350.9,379.9,349.3z"/>
		</g>
		<g>
			<path class="st1" d="M379.9,322.2c0.1,1.6,0.7,3,1.5,4.3l0.7,0.9c0.2,0.3,0.5,0.6,0.8,0.8c0.5,0.6,1.1,1,1.7,1.6
				c2.4,1.9,5.1,3.4,7.8,4.7c2.8,1.3,5.7,2.3,8.6,3.3c2.9,1,5.9,1.7,8.9,2.5c3,0.8,5.9,1.5,9,2.1c3,0.6,6.1,1,9.1,1.4
				c6.1,0.8,12.3,1.5,18.4,2c3.1,0.3,6.2,0.5,9.2,0.7c3.1,0.2,6.2,0.4,9.2,0.5c6.2,0.3,12.3,0.3,18.5,0.3c6.2,0,12.4-0.2,18.5-0.5
				c6.2-0.3,12.3-0.7,18.5-1.3l0.2,0l3.8-0.5l4-0.6c2.7-0.4,5.4-0.9,8.1-1.4c5.4-1,10.7-2.2,16-3.6c5.3-1.4,10.5-2.9,15.1-5.8
				c4.6-2.8,8.5-6.8,11.5-11.4c-2.5,4.9-6.2,9.3-10.7,12.5c-4.6,3.3-9.9,5.3-15.2,6.9c-5.3,1.6-10.6,3.1-16,4.3
				c-2.7,0.6-5.4,1.2-8.1,1.7c-1.4,0.3-2.7,0.5-4.1,0.7l-2.1,0.3l-1,0.2l-0.5,0.1c-0.2,0-0.3,0-0.7,0.1l0.2,0
				c-6.2,0.7-12.4,1.3-18.6,1.7c-6.2,0.4-12.5,0.5-18.7,0.6c-6.2,0.1-12.5-0.1-18.7-0.4c-6.2-0.3-12.5-0.8-18.7-1.4
				c-6.2-0.7-12.4-1.4-18.5-2.5c-3.1-0.5-6.2-1.1-9.2-1.8c-3.1-0.7-6.1-1.6-9.1-2.5c-6-1.8-11.9-3.9-17.5-6.9
				c-2.8-1.5-5.4-3.2-7.7-5.4c-1.1-1.1-2.2-2.3-2.9-3.7C380.3,325.3,379.8,323.8,379.9,322.2z"/>
		</g>
		<ellipse class="st2" cx="479.4" cy="320.1" rx="99.6" ry="27.1"/>
		<ellipse class="st0" cx="479.4" cy="320.1" rx="74.3" ry="12.7"/>
		<path class="st3" d="M553.8,320.1c0.2,4.8-21.7,9.2-26.6,10.2c-9.6,1.9-21.5,3.7-54.3,2.4c-23.4-0.9-31.6-0.8-38.2-2.1
			c-12.6-2.3-29.8-6-29.5-10.6c0.2-2.7,6.5-4.6,11.7-6.1c3.4-1,5.1-1.1,15.8-2.7c8.9-1.3,7.5-1.2,11.3-1.7
			c3.8-0.5,10.3-1.2,18.3-1.7c6.4-0.4,11.7-0.5,17.3-0.5c20.3-0.1,31.9,1,47.4,2.4c0,0,9.5,0.9,20.9,6
			C553.1,318.2,553.7,319.3,553.8,320.1z"/>
	</g>
	<g>
		<path class="st0" d="M363.8,289.6v29.5c0,15,44.6,27.1,99.6,27.1s99.6-12.2,99.6-27.1v-29.5H363.8z"/>
		<g>
			<path class="st1" d="M363.8,319.2c0.1,1.6,0.7,3,1.5,4.3l0.7,0.9c0.2,0.3,0.5,0.6,0.8,0.8c0.5,0.6,1.1,1,1.7,1.6
				c2.4,1.9,5.1,3.4,7.8,4.7c2.8,1.3,5.7,2.3,8.6,3.3c2.9,1,5.9,1.7,8.9,2.5c3,0.8,5.9,1.5,9,2.1c3,0.6,6.1,1,9.1,1.4
				c6.1,0.8,12.3,1.5,18.4,2c3.1,0.3,6.2,0.5,9.2,0.7c3.1,0.2,6.2,0.4,9.2,0.5c6.2,0.3,12.3,0.3,18.5,0.3c6.2,0,12.4-0.2,18.5-0.5
				c6.2-0.3,12.3-0.7,18.5-1.3l0.2,0l3.8-0.5l4-0.6c2.7-0.4,5.4-0.9,8.1-1.4c5.4-1,10.7-2.2,16-3.6c5.3-1.4,10.5-2.9,15.1-5.8
				c4.6-2.8,8.5-6.8,11.5-11.4c-2.5,4.9-6.2,9.3-10.7,12.5c-4.6,3.3-9.9,5.3-15.2,6.9c-5.3,1.6-10.6,3.1-16,4.3
				c-2.7,0.6-5.4,1.2-8.1,1.7c-1.4,0.3-2.7,0.5-4.1,0.7l-2.1,0.3l-1,0.2l-0.5,0.1c-0.2,0-0.3,0-0.7,0.1l0.2,0
				c-6.2,0.7-12.4,1.3-18.6,1.7c-6.2,0.4-12.5,0.5-18.7,0.6c-6.2,0.1-12.5-0.1-18.7-0.4c-6.2-0.3-12.5-0.8-18.7-1.4
				c-6.2-0.7-12.4-1.4-18.5-2.5c-3.1-0.5-6.2-1.1-9.2-1.8c-3.1-0.7-6.1-1.6-9.1-2.5c-6-1.8-11.9-3.9-17.5-6.9
				c-2.8-1.5-5.4-3.2-7.7-5.4c-1.1-1.1-2.2-2.3-2.9-3.7C364.2,322.3,363.8,320.7,363.8,319.2z"/>
		</g>
		<g>
			<path class="st1" d="M363.8,292c0.1,1.6,0.7,3,1.5,4.3l0.7,0.9c0.2,0.3,0.5,0.6,0.8,0.8c0.5,0.6,1.1,1,1.7,1.6
				c2.4,1.9,5.1,3.4,7.8,4.7c2.8,1.3,5.7,2.3,8.6,3.3c2.9,1,5.9,1.7,8.9,2.5c3,0.8,5.9,1.5,9,2.1c3,0.6,6.1,1,9.1,1.4
				c6.1,0.8,12.3,1.5,18.4,2c3.1,0.3,6.2,0.5,9.2,0.7c3.1,0.2,6.2,0.4,9.2,0.5c6.2,0.3,12.3,0.3,18.5,0.3c6.2,0,12.4-0.2,18.5-0.5
				c6.2-0.3,12.3-0.7,18.5-1.3l0.2,0l3.8-0.5l4-0.6c2.7-0.4,5.4-0.9,8.1-1.4c5.4-1,10.7-2.2,16-3.6c5.3-1.4,10.5-2.9,15.1-5.8
				c4.6-2.8,8.5-6.8,11.5-11.4c-2.5,4.9-6.2,9.3-10.7,12.5c-4.6,3.3-9.9,5.3-15.2,6.9c-5.3,1.6-10.6,3.1-16,4.3
				c-2.7,0.6-5.4,1.2-8.1,1.7c-1.4,0.3-2.7,0.5-4.1,0.7l-2.1,0.3l-1,0.2l-0.5,0.1c-0.2,0-0.3,0-0.7,0.1l0.2,0
				c-6.2,0.7-12.4,1.3-18.6,1.7c-6.2,0.4-12.5,0.5-18.7,0.6c-6.2,0.1-12.5-0.1-18.7-0.4c-6.2-0.3-12.5-0.8-18.7-1.4
				c-6.2-0.7-12.4-1.4-18.5-2.5c-3.1-0.5-6.2-1.1-9.2-1.8c-3.1-0.7-6.1-1.6-9.1-2.5c-6-1.8-11.9-3.9-17.5-6.9
				c-2.8-1.5-5.4-3.2-7.7-5.4c-1.1-1.1-2.2-2.3-2.9-3.7C364.2,295.1,363.8,293.6,363.8,292z"/>
		</g>
		<ellipse class="st2" cx="463.4" cy="289.9" rx="99.6" ry="27.1"/>
		<ellipse class="st0" cx="463.4" cy="289.9" rx="74.3" ry="12.7"/>
		<path class="st3" d="M537.7,289.9c0.2,4.8-21.7,9.2-26.6,10.2c-9.6,1.9-21.5,3.7-54.3,2.4c-23.4-0.9-31.6-0.8-38.2-2.1
			c-12.6-2.3-29.8-6-29.5-10.6c0.2-2.7,6.5-4.6,11.7-6.1c3.4-1,5.1-1.1,15.8-2.7c8.9-1.3,7.5-1.2,11.3-1.7
			c3.8-0.5,10.3-1.2,18.3-1.7c6.4-0.4,11.7-0.5,17.3-0.5c20.3-0.1,31.9,1,47.4,2.4c0,0,9.5,0.9,20.9,6
			C537.1,288,537.7,289.1,537.7,289.9z"/>
	</g>
	<g>
		<path class="st0" d="M452.4,497.8v29.5c0,15,44.6,27.1,99.6,27.1s99.6-12.2,99.6-27.1v-29.5H452.4z"/>
		<g>
			<path class="st1" d="M452.4,527.3c0.1,1.6,0.7,3,1.5,4.3l0.7,0.9c0.2,0.3,0.5,0.6,0.8,0.8c0.5,0.6,1.1,1,1.7,1.6
				c2.4,1.9,5.1,3.4,7.8,4.7c2.8,1.3,5.7,2.3,8.6,3.3c2.9,1,5.9,1.7,8.9,2.5c3,0.8,5.9,1.5,9,2.1c3,0.6,6.1,1,9.1,1.4
				c6.1,0.8,12.3,1.5,18.4,2c3.1,0.3,6.2,0.5,9.2,0.7c3.1,0.2,6.2,0.4,9.2,0.5c6.2,0.3,12.3,0.3,18.5,0.3c6.2,0,12.4-0.2,18.5-0.5
				c6.2-0.3,12.3-0.7,18.5-1.3l0.2,0l3.8-0.5l4-0.6c2.7-0.4,5.4-0.9,8.1-1.4c5.4-1,10.7-2.2,16-3.6c5.3-1.4,10.5-2.9,15.1-5.8
				c4.6-2.8,8.5-6.8,11.5-11.4c-2.5,4.9-6.2,9.3-10.7,12.5c-4.6,3.3-9.9,5.3-15.2,6.9c-5.3,1.6-10.6,3.1-16,4.3
				c-2.7,0.6-5.4,1.2-8.1,1.7c-1.4,0.3-2.7,0.5-4.1,0.7l-2.1,0.3l-1,0.2l-0.5,0.1c-0.2,0-0.3,0-0.7,0.1l0.2,0
				c-6.2,0.7-12.4,1.3-18.6,1.7c-6.2,0.4-12.5,0.5-18.7,0.6c-6.2,0.1-12.5-0.1-18.7-0.4c-6.2-0.3-12.5-0.8-18.7-1.4
				c-6.2-0.7-12.4-1.4-18.5-2.5c-3.1-0.5-6.2-1.1-9.2-1.8c-3.1-0.7-6.1-1.6-9.1-2.5c-6-1.8-11.9-3.9-17.5-6.9
				c-2.8-1.5-5.4-3.2-7.7-5.4c-1.1-1.1-2.2-2.3-2.9-3.7C452.8,530.5,452.4,528.9,452.4,527.3z"/>
		</g>
		<g>
			<path class="st1" d="M452.4,500.2c0.1,1.6,0.7,3,1.5,4.3l0.7,0.9c0.2,0.3,0.5,0.6,0.8,0.8c0.5,0.6,1.1,1,1.7,1.6
				c2.4,1.9,5.1,3.4,7.8,4.7c2.8,1.3,5.7,2.3,8.6,3.3c2.9,1,5.9,1.7,8.9,2.5c3,0.8,5.9,1.5,9,2.1c3,0.6,6.1,1,9.1,1.4
				c6.1,0.8,12.3,1.5,18.4,2c3.1,0.3,6.2,0.5,9.2,0.7c3.1,0.2,6.2,0.4,9.2,0.5c6.2,0.3,12.3,0.3,18.5,0.3c6.2,0,12.4-0.2,18.5-0.5
				c6.2-0.3,12.3-0.7,18.5-1.3l0.2,0l3.8-0.5l4-0.6c2.7-0.4,5.4-0.9,8.1-1.4c5.4-1,10.7-2.2,16-3.6c5.3-1.4,10.5-2.9,15.1-5.8
				c4.6-2.8,8.5-6.8,11.5-11.4c-2.5,4.9-6.2,9.3-10.7,12.5c-4.6,3.3-9.9,5.3-15.2,6.9c-5.3,1.6-10.6,3.1-16,4.3
				c-2.7,0.6-5.4,1.2-8.1,1.7c-1.4,0.3-2.7,0.5-4.1,0.7l-2.1,0.3l-1,0.2l-0.5,0.1c-0.2,0-0.3,0-0.7,0.1l0.2,0
				c-6.2,0.7-12.4,1.3-18.6,1.7c-6.2,0.4-12.5,0.5-18.7,0.6c-6.2,0.1-12.5-0.1-18.7-0.4c-6.2-0.3-12.5-0.8-18.7-1.4
				c-6.2-0.7-12.4-1.4-18.5-2.5c-3.1-0.5-6.2-1.1-9.2-1.8c-3.1-0.7-6.1-1.6-9.1-2.5c-6-1.8-11.9-3.9-17.5-6.9
				c-2.8-1.5-5.4-3.2-7.7-5.4c-1.1-1.1-2.2-2.3-2.9-3.7C452.8,503.3,452.4,501.8,452.4,500.2z"/>
		</g>
		<ellipse class="st2" cx="552" cy="498.1" rx="99.6" ry="27.1"/>
		<ellipse class="st0" cx="552" cy="498.1" rx="74.3" ry="12.7"/>
		<path class="st3" d="M626.3,498.1c0.2,4.8-21.7,9.2-26.6,10.2c-9.6,1.9-21.5,3.7-54.3,2.4c-23.4-0.9-31.6-0.8-38.2-2.1
			c-12.6-2.3-29.8-6-29.5-10.6c0.2-2.7,6.5-4.6,11.7-6.1c3.4-1,5.1-1.1,15.8-2.7c8.9-1.3,7.5-1.2,11.3-1.7
			c3.8-0.5,10.3-1.2,18.3-1.7c6.4-0.4,11.7-0.5,17.3-0.5c20.3-0.1,31.9,1,47.4,2.4c0,0,9.5,0.9,20.9,6
			C625.6,496.2,626.3,497.3,626.3,498.1z"/>
	</g>
	<g>
		<path class="st0" d="M452.4,470.5V500c0,15,44.6,27.1,99.6,27.1s99.6-12.2,99.6-27.1v-29.5H452.4z"/>
		<g>
			<path class="st1" d="M452.4,500c0.1,1.6,0.7,3,1.5,4.3l0.7,0.9c0.2,0.3,0.5,0.6,0.8,0.8c0.5,0.6,1.1,1,1.7,1.6
				c2.4,1.9,5.1,3.4,7.8,4.7c2.8,1.3,5.7,2.3,8.6,3.3c2.9,1,5.9,1.7,8.9,2.5c3,0.8,5.9,1.5,9,2.1c3,0.6,6.1,1,9.1,1.4
				c6.1,0.8,12.3,1.5,18.4,2c3.1,0.3,6.2,0.5,9.2,0.7c3.1,0.2,6.2,0.4,9.2,0.5c6.2,0.3,12.3,0.3,18.5,0.3c6.2,0,12.4-0.2,18.5-0.5
				c6.2-0.3,12.3-0.7,18.5-1.3l0.2,0l3.8-0.5l4-0.6c2.7-0.4,5.4-0.9,8.1-1.4c5.4-1,10.7-2.2,16-3.6c5.3-1.4,10.5-2.9,15.1-5.8
				c4.6-2.8,8.5-6.8,11.5-11.4c-2.5,4.9-6.2,9.3-10.7,12.5c-4.6,3.3-9.9,5.3-15.2,6.9c-5.3,1.6-10.6,3.1-16,4.3
				c-2.7,0.6-5.4,1.2-8.1,1.7c-1.4,0.3-2.7,0.5-4.1,0.7l-2.1,0.3l-1,0.2l-0.5,0.1c-0.2,0-0.3,0-0.7,0.1l0.2,0
				c-6.2,0.7-12.4,1.3-18.6,1.7c-6.2,0.4-12.5,0.5-18.7,0.6c-6.2,0.1-12.5-0.1-18.7-0.4c-6.2-0.3-12.5-0.8-18.7-1.4
				c-6.2-0.7-12.4-1.4-18.5-2.5c-3.1-0.5-6.2-1.1-9.2-1.8c-3.1-0.7-6.1-1.6-9.1-2.5c-6-1.8-11.9-3.9-17.5-6.9
				c-2.8-1.5-5.4-3.2-7.7-5.4c-1.1-1.1-2.2-2.3-2.9-3.7C452.8,503.2,452.4,501.6,452.4,500z"/>
		</g>
		<g>
			<path class="st1" d="M452.4,472.9c0.1,1.6,0.7,3,1.5,4.3l0.7,0.9c0.2,0.3,0.5,0.6,0.8,0.8c0.5,0.6,1.1,1,1.7,1.6
				c2.4,1.9,5.1,3.4,7.8,4.7c2.8,1.3,5.7,2.3,8.6,3.3c2.9,1,5.9,1.7,8.9,2.5c3,0.8,5.9,1.5,9,2.1c3,0.6,6.1,1,9.1,1.4
				c6.1,0.8,12.3,1.5,18.4,2c3.1,0.3,6.2,0.5,9.2,0.7c3.1,0.2,6.2,0.4,9.2,0.5c6.2,0.3,12.3,0.3,18.5,0.3c6.2,0,12.4-0.2,18.5-0.5
				c6.2-0.3,12.3-0.7,18.5-1.3l0.2,0l3.8-0.5l4-0.6c2.7-0.4,5.4-0.9,8.1-1.4c5.4-1,10.7-2.2,16-3.6c5.3-1.4,10.5-2.9,15.1-5.8
				c4.6-2.8,8.5-6.8,11.5-11.4c-2.5,4.9-6.2,9.3-10.7,12.5c-4.6,3.3-9.9,5.3-15.2,6.9c-5.3,1.6-10.6,3.1-16,4.3
				c-2.7,0.6-5.4,1.2-8.1,1.7c-1.4,0.3-2.7,0.5-4.1,0.7l-2.1,0.3l-1,0.2l-0.5,0.1c-0.2,0-0.3,0-0.7,0.1l0.2,0
				c-6.2,0.7-12.4,1.3-18.6,1.7c-6.2,0.4-12.5,0.5-18.7,0.6c-6.2,0.1-12.5-0.1-18.7-0.4c-6.2-0.3-12.5-0.8-18.7-1.4
				c-6.2-0.7-12.4-1.4-18.5-2.5c-3.1-0.5-6.2-1.1-9.2-1.8c-3.1-0.7-6.1-1.6-9.1-2.5c-6-1.8-11.9-3.9-17.5-6.9
				c-2.8-1.5-5.4-3.2-7.7-5.4c-1.1-1.1-2.2-2.3-2.9-3.7C452.8,476,452.3,474.5,452.4,472.9z"/>
		</g>
		<ellipse class="st2" cx="552" cy="470.8" rx="99.6" ry="27.1"/>
		<ellipse class="st0" cx="552" cy="470.8" rx="74.3" ry="12.7"/>
		<path class="st3" d="M626.3,470.8c0.2,4.8-21.7,9.2-26.6,10.2c-9.6,1.9-21.5,3.7-54.3,2.4c-23.4-0.9-31.6-0.8-38.2-2.1
			c-12.6-2.3-29.8-6-29.5-10.6c0.2-2.7,6.5-4.6,11.7-6.1c3.4-1,5.1-1.1,15.8-2.7c8.9-1.3,7.5-1.2,11.3-1.7
			c3.8-0.5,10.3-1.2,18.3-1.7c6.4-0.4,11.7-0.5,17.3-0.5c20.3-0.1,31.9,1,47.4,2.4c0,0,9.5,0.9,20.9,6
			C625.6,468.9,626.3,470,626.3,470.8z"/>
	</g>
	<g>
		<path class="st0" d="M497.6,440.7v29.5c0,15,44.6,27.1,99.6,27.1s99.6-12.2,99.6-27.1v-29.5H497.6z"/>
		<g>
			<path class="st1" d="M497.6,470.2c0.1,1.6,0.7,3,1.5,4.3l0.7,0.9c0.2,0.3,0.5,0.6,0.8,0.8c0.5,0.6,1.1,1,1.7,1.6
				c2.4,1.9,5.1,3.4,7.8,4.7c2.8,1.3,5.7,2.3,8.6,3.3c2.9,1,5.9,1.7,8.9,2.5c3,0.8,5.9,1.5,9,2.1c3,0.6,6.1,1,9.1,1.4
				c6.1,0.8,12.3,1.5,18.4,2c3.1,0.3,6.2,0.5,9.2,0.7c3.1,0.2,6.2,0.4,9.2,0.5c6.2,0.3,12.3,0.3,18.5,0.3c6.2,0,12.4-0.2,18.5-0.5
				c6.2-0.3,12.3-0.7,18.5-1.3l0.2,0l3.8-0.5l4-0.6c2.7-0.4,5.4-0.9,8.1-1.4c5.4-1,10.7-2.2,16-3.6c5.3-1.4,10.5-2.9,15.1-5.8
				c4.6-2.8,8.5-6.8,11.5-11.4c-2.5,4.9-6.2,9.3-10.7,12.5c-4.6,3.3-9.9,5.3-15.2,6.9c-5.3,1.6-10.6,3.1-16,4.3
				c-2.7,0.6-5.4,1.2-8.1,1.7c-1.4,0.3-2.7,0.5-4.1,0.7l-2.1,0.3l-1,0.2L639,497c-0.2,0-0.3,0-0.7,0.1l0.2,0
				c-6.2,0.7-12.4,1.3-18.6,1.7c-6.2,0.4-12.5,0.5-18.7,0.6c-6.2,0.1-12.5-0.1-18.7-0.4c-6.2-0.3-12.5-0.8-18.7-1.4
				c-6.2-0.7-12.4-1.4-18.5-2.5c-3.1-0.5-6.2-1.1-9.2-1.8c-3.1-0.7-6.1-1.6-9.1-2.5c-6-1.8-11.9-3.9-17.5-6.9
				c-2.8-1.5-5.4-3.2-7.7-5.4c-1.1-1.1-2.2-2.3-2.9-3.7C498,473.3,497.6,471.8,497.6,470.2z"/>
		</g>
		<g>
			<path class="st1" d="M497.6,443.1c0.1,1.6,0.7,3,1.5,4.3l0.7,0.9c0.2,0.3,0.5,0.6,0.8,0.8c0.5,0.6,1.1,1,1.7,1.6
				c2.4,1.9,5.1,3.4,7.8,4.7c2.8,1.3,5.7,2.3,8.6,3.3c2.9,1,5.9,1.7,8.9,2.5c3,0.8,5.9,1.5,9,2.1c3,0.6,6.1,1,9.1,1.4
				c6.1,0.8,12.3,1.5,18.4,2c3.1,0.3,6.2,0.5,9.2,0.7c3.1,0.2,6.2,0.4,9.2,0.5c6.2,0.3,12.3,0.3,18.5,0.3c6.2,0,12.4-0.2,18.5-0.5
				c6.2-0.3,12.3-0.7,18.5-1.3l0.2,0l3.8-0.5l4-0.6c2.7-0.4,5.4-0.9,8.1-1.4c5.4-1,10.7-2.2,16-3.6c5.3-1.4,10.5-2.9,15.1-5.8
				c4.6-2.8,8.5-6.8,11.5-11.4c-2.5,4.9-6.2,9.3-10.7,12.5c-4.6,3.3-9.9,5.3-15.2,6.9c-5.3,1.6-10.6,3.1-16,4.3
				c-2.7,0.6-5.4,1.2-8.1,1.7c-1.4,0.3-2.7,0.5-4.1,0.7l-2.1,0.3l-1,0.2l-0.5,0.1c-0.2,0-0.3,0-0.7,0.1l0.2,0
				c-6.2,0.7-12.4,1.3-18.6,1.7c-6.2,0.4-12.5,0.5-18.7,0.6c-6.2,0.1-12.5-0.1-18.7-0.4c-6.2-0.3-12.5-0.8-18.7-1.4
				c-6.2-0.7-12.4-1.4-18.5-2.5c-3.1-0.5-6.2-1.1-9.2-1.8c-3.1-0.7-6.1-1.6-9.1-2.5c-6-1.8-11.9-3.9-17.5-6.9
				c-2.8-1.5-5.4-3.2-7.7-5.4c-1.1-1.1-2.2-2.3-2.9-3.7C498,446.2,497.6,444.6,497.6,443.1z"/>
		</g>
		<ellipse class="st2" cx="597.2" cy="440.9" rx="99.6" ry="27.1"/>
		<ellipse class="st0" cx="597.2" cy="440.9" rx="74.3" ry="12.7"/>
		<path class="st3" d="M671.5,440.9c0.2,4.8-21.7,9.2-26.6,10.2c-9.6,1.9-21.5,3.7-54.3,2.4c-23.4-0.9-31.6-0.8-38.2-2.1
			c-12.6-2.3-29.8-6-29.5-10.6c0.2-2.7,6.5-4.6,11.7-6.1c3.4-1,5.1-1.1,15.8-2.7c8.9-1.3,7.5-1.2,11.3-1.7
			c3.8-0.5,10.3-1.2,18.3-1.7c6.4-0.4,11.7-0.5,17.3-0.5c20.3-0.1,31.9,1,47.4,2.4c0,0,9.5,0.9,20.9,6
			C670.9,439.1,671.5,440.2,671.5,440.9z"/>
	</g>
	<g>
		<path class="st0" d="M463.4,416.7v29.5c0,15,44.6,27.1,99.6,27.1s99.6-12.2,99.6-27.1v-29.5H463.4z"/>
		<g>
			<path class="st1" d="M463.4,446.3c0.1,1.6,0.7,3,1.5,4.3l0.7,0.9c0.2,0.3,0.5,0.6,0.8,0.8c0.5,0.6,1.1,1,1.7,1.6
				c2.4,1.9,5.1,3.4,7.8,4.7c2.8,1.3,5.7,2.3,8.6,3.3c2.9,1,5.9,1.7,8.9,2.5c3,0.8,5.9,1.5,9,2.1c3,0.6,6.1,1,9.1,1.4
				c6.1,0.8,12.3,1.5,18.4,2c3.1,0.3,6.2,0.5,9.2,0.7c3.1,0.2,6.2,0.4,9.2,0.5c6.2,0.3,12.3,0.3,18.5,0.3c6.2,0,12.4-0.2,18.5-0.5
				c6.2-0.3,12.3-0.7,18.5-1.3l0.2,0l3.8-0.5l4-0.6c2.7-0.4,5.4-0.9,8.1-1.4c5.4-1,10.7-2.2,16-3.6c5.3-1.4,10.5-2.9,15.1-5.8
				c4.6-2.8,8.5-6.8,11.5-11.4c-2.5,4.9-6.2,9.3-10.7,12.5c-4.6,3.3-9.9,5.3-15.2,6.9c-5.3,1.6-10.6,3.1-16,4.3
				c-2.7,0.6-5.4,1.2-8.1,1.7c-1.4,0.3-2.7,0.5-4.1,0.7l-2.1,0.3l-1,0.2l-0.5,0.1c-0.2,0-0.3,0-0.7,0.1l0.2,0
				c-6.2,0.7-12.4,1.3-18.6,1.7c-6.2,0.4-12.5,0.5-18.7,0.6c-6.2,0.1-12.5-0.1-18.7-0.4c-6.2-0.3-12.5-0.8-18.7-1.4
				c-6.2-0.7-12.4-1.4-18.5-2.5c-3.1-0.5-6.2-1.1-9.2-1.8c-3.1-0.7-6.1-1.6-9.1-2.5c-6-1.8-11.9-3.9-17.5-6.9
				c-2.8-1.5-5.4-3.2-7.7-5.4c-1.1-1.1-2.2-2.3-2.9-3.7C463.8,449.4,463.3,447.8,463.4,446.3z"/>
		</g>
		<g>
			<path class="st1" d="M463.4,419.1c0.1,1.6,0.7,3,1.5,4.3l0.7,0.9c0.2,0.3,0.5,0.6,0.8,0.8c0.5,0.6,1.1,1,1.7,1.6
				c2.4,1.9,5.1,3.4,7.8,4.7c2.8,1.3,5.7,2.3,8.6,3.3c2.9,1,5.9,1.7,8.9,2.5c3,0.8,5.9,1.5,9,2.1c3,0.6,6.1,1,9.1,1.4
				c6.1,0.8,12.3,1.5,18.4,2c3.1,0.3,6.2,0.5,9.2,0.7c3.1,0.2,6.2,0.4,9.2,0.5c6.2,0.3,12.3,0.3,18.5,0.3c6.2,0,12.4-0.2,18.5-0.5
				c6.2-0.3,12.3-0.7,18.5-1.3l0.2,0l3.8-0.5l4-0.6c2.7-0.4,5.4-0.9,8.1-1.4c5.4-1,10.7-2.2,16-3.6c5.3-1.4,10.5-2.9,15.1-5.8
				c4.6-2.8,8.5-6.8,11.5-11.4c-2.5,4.9-6.2,9.3-10.7,12.5c-4.6,3.3-9.9,5.3-15.2,6.9c-5.3,1.6-10.6,3.1-16,4.3
				c-2.7,0.6-5.4,1.2-8.1,1.7c-1.4,0.3-2.7,0.5-4.1,0.7l-2.1,0.3l-1,0.2l-0.5,0.1c-0.2,0-0.3,0-0.7,0.1l0.2,0
				c-6.2,0.7-12.4,1.3-18.6,1.7c-6.2,0.4-12.5,0.5-18.7,0.6c-6.2,0.1-12.5-0.1-18.7-0.4c-6.2-0.3-12.5-0.8-18.7-1.4
				c-6.2-0.7-12.4-1.4-18.5-2.5c-3.1-0.5-6.2-1.1-9.2-1.8c-3.1-0.7-6.1-1.6-9.1-2.5c-6-1.8-11.9-3.9-17.5-6.9
				c-2.8-1.5-5.4-3.2-7.7-5.4c-1.1-1.1-2.2-2.3-2.9-3.7C463.8,422.2,463.3,420.7,463.4,419.1z"/>
		</g>
		<ellipse class="st2" cx="562.9" cy="417" rx="99.6" ry="27.1"/>
		<ellipse class="st0" cx="562.9" cy="417" rx="74.3" ry="12.7"/>
		<path class="st3" d="M637.3,417c0.2,4.8-21.7,9.2-26.6,10.2c-9.6,1.9-21.5,3.7-54.3,2.4c-23.4-0.9-31.6-0.8-38.2-2.1
			c-12.6-2.3-29.8-6-29.5-10.6c0.2-2.7,6.5-4.6,11.7-6.1c3.4-1,5.1-1.1,15.8-2.7c8.9-1.3,7.5-1.2,11.3-1.7
			c3.8-0.5,10.3-1.2,18.3-1.7c6.4-0.4,11.7-0.5,17.3-0.5c20.3-0.1,31.9,1,47.4,2.4c0,0,9.5,0.9,20.9,6
			C636.6,415.1,637.2,416.2,637.3,417z"/>
	</g>
	<g>
		<path class="st0" d="M463.4,393v29.5c0,15,44.6,27.1,99.6,27.1s99.6-12.2,99.6-27.1V393H463.4z"/>
		<g>
			<path class="st1" d="M463.4,422.5c0.1,1.6,0.7,3,1.5,4.3l0.7,0.9c0.2,0.3,0.5,0.6,0.8,0.8c0.5,0.6,1.1,1,1.7,1.6
				c2.4,1.9,5.1,3.4,7.8,4.7c2.8,1.3,5.7,2.3,8.6,3.3c2.9,1,5.9,1.7,8.9,2.5c3,0.8,5.9,1.5,9,2.1c3,0.6,6.1,1,9.1,1.4
				c6.1,0.8,12.3,1.5,18.4,2c3.1,0.3,6.2,0.5,9.2,0.7c3.1,0.2,6.2,0.4,9.2,0.5c6.2,0.3,12.3,0.3,18.5,0.3c6.2,0,12.4-0.2,18.5-0.5
				c6.2-0.3,12.3-0.7,18.5-1.3l0.2,0l3.8-0.5l4-0.6c2.7-0.4,5.4-0.9,8.1-1.4c5.4-1,10.7-2.2,16-3.6c5.3-1.4,10.5-2.9,15.1-5.8
				c4.6-2.8,8.5-6.8,11.5-11.4c-2.5,4.9-6.2,9.3-10.7,12.5c-4.6,3.3-9.9,5.3-15.2,6.9c-5.3,1.6-10.6,3.1-16,4.3
				c-2.7,0.6-5.4,1.2-8.1,1.7c-1.4,0.3-2.7,0.5-4.1,0.7l-2.1,0.3l-1,0.2l-0.5,0.1c-0.2,0-0.3,0-0.7,0.1l0.2,0
				c-6.2,0.7-12.4,1.3-18.6,1.7c-6.2,0.4-12.5,0.5-18.7,0.6c-6.2,0.1-12.5-0.1-18.7-0.4c-6.2-0.3-12.5-0.8-18.7-1.4
				c-6.2-0.7-12.4-1.4-18.5-2.5c-3.1-0.5-6.2-1.1-9.2-1.8c-3.1-0.7-6.1-1.6-9.1-2.5c-6-1.8-11.9-3.9-17.5-6.9
				c-2.8-1.5-5.4-3.2-7.7-5.4c-1.1-1.1-2.2-2.3-2.9-3.7C463.8,425.7,463.3,424.1,463.4,422.5z"/>
		</g>
		<g>
			<path class="st1" d="M463.4,395.4c0.1,1.6,0.7,3,1.5,4.3l0.7,0.9c0.2,0.3,0.5,0.6,0.8,0.8c0.5,0.6,1.1,1,1.7,1.6
				c2.4,1.9,5.1,3.4,7.8,4.7c2.8,1.3,5.7,2.3,8.6,3.3c2.9,1,5.9,1.7,8.9,2.5c3,0.8,5.9,1.5,9,2.1c3,0.6,6.1,1,9.1,1.4
				c6.1,0.8,12.3,1.5,18.4,2c3.1,0.3,6.2,0.5,9.2,0.7c3.1,0.2,6.2,0.4,9.2,0.5c6.2,0.3,12.3,0.3,18.5,0.3c6.2,0,12.4-0.2,18.5-0.5
				c6.2-0.3,12.3-0.7,18.5-1.3l0.2,0l3.8-0.5l4-0.6c2.7-0.4,5.4-0.9,8.1-1.4c5.4-1,10.7-2.2,16-3.6c5.3-1.4,10.5-2.9,15.1-5.8
				c4.6-2.8,8.5-6.8,11.5-11.4c-2.5,4.9-6.2,9.3-10.7,12.5c-4.6,3.3-9.9,5.3-15.2,6.9c-5.3,1.6-10.6,3.1-16,4.3
				c-2.7,0.6-5.4,1.2-8.1,1.7c-1.4,0.3-2.7,0.5-4.1,0.7l-2.1,0.3l-1,0.2l-0.5,0.1c-0.2,0-0.3,0-0.7,0.1l0.2,0
				c-6.2,0.7-12.4,1.3-18.6,1.7c-6.2,0.4-12.5,0.5-18.7,0.6c-6.2,0.1-12.5-0.1-18.7-0.4c-6.2-0.3-12.5-0.8-18.7-1.4
				c-6.2-0.7-12.4-1.4-18.5-2.5c-3.1-0.5-6.2-1.1-9.2-1.8c-3.1-0.7-6.1-1.6-9.1-2.5c-6-1.8-11.9-3.9-17.5-6.9
				c-2.8-1.5-5.4-3.2-7.7-5.4c-1.1-1.1-2.2-2.3-2.9-3.7C463.8,398.5,463.3,397,463.4,395.4z"/>
		</g>
		<ellipse class="st2" cx="562.9" cy="393.3" rx="99.6" ry="27.1"/>
		<ellipse class="st0" cx="562.9" cy="393.3" rx="74.3" ry="12.7"/>
		<path class="st3" d="M637.3,393.3c0.2,4.8-21.7,9.2-26.6,10.2c-9.6,1.9-21.5,3.7-54.3,2.4c-23.4-0.9-31.6-0.8-38.2-2.1
			c-12.6-2.3-29.8-6-29.5-10.6c0.2-2.7,6.5-4.6,11.7-6.1c3.4-1,5.1-1.1,15.8-2.7c8.9-1.3,7.5-1.2,11.3-1.7
			c3.8-0.5,10.3-1.2,18.3-1.7c6.4-0.4,11.7-0.5,17.3-0.5c20.3-0.1,31.9,1,47.4,2.4c0,0,9.5,0.9,20.9,6
			C636.6,391.4,637.2,392.5,637.3,393.3z"/>
	</g>
	<g>
		<path class="st0" d="M438.2,230.4L427.7,258c-5.3,14,32,41.2,83.4,60.8s97.4,24.1,102.7,10.1l10.5-27.6L438.2,230.4z"/>
		<g>
			<path class="st1" d="M427.7,258c-0.5,1.5-0.4,3.1-0.1,4.6l0.3,1.1c0.1,0.4,0.3,0.7,0.4,1.1c0.2,0.7,0.7,1.4,1,2.1
				c1.5,2.7,3.5,5,5.7,7.2c2.1,2.2,4.5,4.2,6.9,6.1c2.4,2,4.9,3.7,7.4,5.5c2.5,1.9,5,3.5,7.6,5.1c2.6,1.6,5.3,3.1,8,4.6
				c5.4,2.9,10.9,5.7,16.5,8.4c2.8,1.3,5.6,2.6,8.4,3.9c2.8,1.3,5.6,2.5,8.5,3.8c5.7,2.5,11.4,4.7,17.2,6.9
				c5.8,2.2,11.6,4.2,17.5,6.2c5.9,1.9,11.8,3.7,17.7,5.3l0.2,0.1l3.8,0.9l4,0.9c2.7,0.6,5.3,1.1,8,1.6c5.4,0.9,10.8,1.7,16.2,2.3
				c5.4,0.6,10.8,1,16.2-0.1c5.3-1,10.4-3.3,14.8-6.6c-4.1,3.7-9.1,6.4-14.5,7.9c-5.4,1.5-11.2,1.4-16.6,1c-5.5-0.3-11-0.9-16.5-1.7
				c-2.7-0.4-5.5-0.8-8.2-1.3c-1.4-0.2-2.7-0.5-4.1-0.8l-2-0.4l-1-0.2l-0.5-0.1c-0.2-0.1-0.3,0-0.7-0.2l0.2,0.1
				c-6.1-1.5-12.1-3.2-18-5c-5.9-1.9-11.8-3.9-17.7-6.1c-5.9-2.2-11.6-4.5-17.3-7c-5.7-2.5-11.4-5.2-16.9-8
				c-5.6-2.8-11.1-5.8-16.5-8.9c-2.7-1.6-5.4-3.2-8-4.9c-2.6-1.7-5.2-3.6-7.6-5.6c-4.9-3.8-9.8-7.9-13.9-12.6
				c-2-2.4-3.9-4.9-5.3-7.8c-0.6-1.4-1.2-2.9-1.4-4.5C426.9,261,427.1,259.4,427.7,258z"/>
		</g>
		<g>
			<path class="st1" d="M437.3,232.6c-0.5,1.5-0.4,3.1-0.1,4.6l0.3,1.1c0.1,0.4,0.3,0.7,0.4,1.1c0.2,0.7,0.7,1.4,1,2.1
				c1.5,2.7,3.5,5,5.7,7.2c2.1,2.2,4.5,4.2,6.9,6.1c2.4,2,4.9,3.7,7.4,5.5c2.5,1.9,5,3.5,7.6,5.1c2.6,1.6,5.3,3.1,8,4.6
				c5.4,2.9,10.9,5.7,16.5,8.4c2.8,1.3,5.6,2.6,8.4,3.9c2.8,1.3,5.6,2.5,8.5,3.8c5.7,2.5,11.4,4.7,17.2,6.9
				c5.8,2.2,11.6,4.2,17.5,6.2c5.9,1.9,11.8,3.7,17.7,5.3l0.2,0.1l3.8,0.9l4,0.9c2.7,0.6,5.3,1.1,8,1.6c5.4,0.9,10.8,1.7,16.2,2.3
				c5.4,0.6,10.8,1,16.2-0.1c5.3-1,10.4-3.3,14.8-6.6c-4.1,3.7-9.1,6.4-14.5,7.9c-5.4,1.5-11.2,1.4-16.6,1c-5.5-0.3-11-0.9-16.5-1.7
				c-2.7-0.4-5.5-0.8-8.2-1.3c-1.4-0.2-2.7-0.5-4.1-0.8l-2-0.4l-1-0.2l-0.5-0.1c-0.2-0.1-0.3,0-0.7-0.2l0.2,0.1
				c-6.1-1.5-12.1-3.2-18-5c-5.9-1.9-11.8-3.9-17.7-6.1c-5.9-2.2-11.6-4.5-17.3-7c-5.7-2.5-11.4-5.2-16.9-8
				c-5.6-2.8-11.1-5.8-16.5-8.9c-2.7-1.6-5.4-3.2-8-4.9c-2.6-1.7-5.2-3.6-7.6-5.6c-4.9-3.8-9.8-7.9-13.9-12.6
				c-2-2.4-3.9-4.9-5.3-7.8c-0.6-1.4-1.2-2.9-1.4-4.5C436.6,235.7,436.7,234,437.3,232.6z"/>
		</g>
		
			<ellipse transform="matrix(0.356 -0.9345 0.9345 0.356 93.4185 667.6616)" class="st2" cx="531.1" cy="266.1" rx="27.1" ry="99.6"/>
		
			<ellipse transform="matrix(0.356 -0.9345 0.9345 0.356 93.4183 667.6615)" class="st0" cx="531.1" cy="266.1" rx="12.7" ry="74.3"/>
		<path class="st3" d="M600.6,292.5c-1.5,4.6-23.6,0.9-28.5,0.1c-9.6-1.6-21.5-4.2-51.6-17.1c-21.6-9.2-29.2-12-34.9-15.5
			c-10.9-6.7-25.7-16.2-23.8-20.4c1.1-2.4,7.7-2,13.1-1.6c3.6,0.3,5.2,0.8,15.7,3.1c8.8,2,7.4,1.6,11.2,2.5c3.7,0.9,10,2.5,17.7,4.9
			c6.1,1.9,11.1,3.7,16.3,5.7c19,7.2,29.5,12.3,43.4,19.1c0,0,8.6,4.2,17.4,13.1C600.6,290.6,600.8,291.8,600.6,292.5z"/>
	</g>
	<g>
		<path class="st0" d="M188.2,498.2v29.5c0,15,44.6,27.1,99.6,27.1s99.6-12.2,99.6-27.1v-29.5H188.2z"/>
		<g>
			<path class="st1" d="M188.2,527.7c0.1,1.6,0.7,3,1.5,4.3l0.7,0.9c0.2,0.3,0.5,0.6,0.8,0.8c0.5,0.6,1.1,1,1.7,1.6
				c2.4,1.9,5.1,3.4,7.8,4.7c2.8,1.3,5.7,2.3,8.6,3.3c2.9,1,5.9,1.7,8.9,2.5c3,0.8,5.9,1.5,9,2.1c3,0.6,6.1,1,9.1,1.4
				c6.1,0.8,12.3,1.5,18.4,2c3.1,0.3,6.2,0.5,9.2,0.7c3.1,0.2,6.2,0.4,9.2,0.5c6.2,0.3,12.3,0.3,18.5,0.3c6.2,0,12.4-0.2,18.5-0.5
				c6.2-0.3,12.3-0.7,18.5-1.3l0.2,0l3.8-0.5l4-0.6c2.7-0.4,5.4-0.9,8.1-1.4c5.4-1,10.7-2.2,16-3.6c5.3-1.4,10.5-2.9,15.1-5.8
				c4.6-2.8,8.5-6.8,11.5-11.4c-2.5,4.9-6.2,9.3-10.7,12.5c-4.6,3.3-9.9,5.3-15.2,6.9c-5.3,1.6-10.6,3.1-16,4.3
				c-2.7,0.6-5.4,1.2-8.1,1.7c-1.4,0.3-2.7,0.5-4.1,0.7l-2.1,0.3l-1,0.2l-0.5,0.1c-0.2,0-0.3,0-0.7,0.1l0.2,0
				c-6.2,0.7-12.4,1.3-18.6,1.7c-6.2,0.4-12.5,0.5-18.7,0.6c-6.2,0.1-12.5-0.1-18.7-0.4c-6.2-0.3-12.5-0.8-18.7-1.4
				c-6.2-0.7-12.4-1.4-18.5-2.5c-3.1-0.5-6.2-1.1-9.2-1.8c-3.1-0.7-6.1-1.6-9.1-2.5c-6-1.8-11.9-3.9-17.5-6.9
				c-2.8-1.5-5.4-3.2-7.7-5.4c-1.1-1.1-2.2-2.3-2.9-3.7C188.6,530.8,188.2,529.3,188.2,527.7z"/>
		</g>
		<g>
			<path class="st1" d="M188.2,500.6c0.1,1.6,0.7,3,1.5,4.3l0.7,0.9c0.2,0.3,0.5,0.6,0.8,0.8c0.5,0.6,1.1,1,1.7,1.6
				c2.4,1.9,5.1,3.4,7.8,4.7c2.8,1.3,5.7,2.3,8.6,3.3c2.9,1,5.9,1.7,8.9,2.5c3,0.8,5.9,1.5,9,2.1c3,0.6,6.1,1,9.1,1.4
				c6.1,0.8,12.3,1.5,18.4,2c3.1,0.3,6.2,0.5,9.2,0.7c3.1,0.2,6.2,0.4,9.2,0.5c6.2,0.3,12.3,0.3,18.5,0.3c6.2,0,12.4-0.2,18.5-0.5
				c6.2-0.3,12.3-0.7,18.5-1.3l0.2,0l3.8-0.5l4-0.6c2.7-0.4,5.4-0.9,8.1-1.4c5.4-1,10.7-2.2,16-3.6c5.3-1.4,10.5-2.9,15.1-5.8
				c4.6-2.8,8.5-6.8,11.5-11.4c-2.5,4.9-6.2,9.3-10.7,12.5c-4.6,3.3-9.9,5.3-15.2,6.9c-5.3,1.6-10.6,3.1-16,4.3
				c-2.7,0.6-5.4,1.2-8.1,1.7c-1.4,0.3-2.7,0.5-4.1,0.7l-2.1,0.3l-1,0.2l-0.5,0.1c-0.2,0-0.3,0-0.7,0.1l0.2,0
				c-6.2,0.7-12.4,1.3-18.6,1.7c-6.2,0.4-12.5,0.5-18.7,0.6c-6.2,0.1-12.5-0.1-18.7-0.4c-6.2-0.3-12.5-0.8-18.7-1.4
				c-6.2-0.7-12.4-1.4-18.5-2.5c-3.1-0.5-6.2-1.1-9.2-1.8c-3.1-0.7-6.1-1.6-9.1-2.5c-6-1.8-11.9-3.9-17.5-6.9
				c-2.8-1.5-5.4-3.2-7.7-5.4c-1.1-1.1-2.2-2.3-2.9-3.7C188.6,503.7,188.2,502.1,188.2,500.6z"/>
		</g>
		<ellipse class="st2" cx="287.8" cy="498.4" rx="99.6" ry="27.1"/>
		<ellipse class="st0" cx="287.8" cy="498.4" rx="74.3" ry="12.7"/>
		<path class="st3" d="M362.1,498.4c0.2,4.8-21.7,9.2-26.6,10.2c-9.6,1.9-21.5,3.7-54.3,2.4c-23.4-0.9-31.6-0.8-38.2-2.1
			c-12.6-2.3-29.8-6-29.5-10.6c0.2-2.7,6.5-4.6,11.7-6.1c3.4-1,5.1-1.1,15.8-2.7c8.9-1.3,7.5-1.2,11.3-1.7
			c3.8-0.5,10.3-1.2,18.3-1.7c6.4-0.4,11.7-0.5,17.3-0.5c20.3-0.1,31.9,1,47.4,2.4c0,0,9.5,0.9,20.9,6
			C361.5,496.6,362.1,497.7,362.1,498.4z"/>
	</g>
	<g>
		<path class="st0" d="M312.4,451.2l-10.5,27.6c-5.3,14,32,41.2,83.4,60.8s97.4,24.1,102.7,10.1l10.5-27.6L312.4,451.2z"/>
		<g>
			<path class="st1" d="M301.9,478.8c-0.5,1.5-0.4,3.1-0.1,4.6l0.3,1.1c0.1,0.4,0.3,0.7,0.4,1.1c0.2,0.7,0.7,1.4,1,2.1
				c1.5,2.7,3.5,5,5.7,7.2c2.1,2.2,4.5,4.2,6.9,6.1c2.4,2,4.9,3.7,7.4,5.5c2.5,1.9,5,3.5,7.6,5.1c2.6,1.6,5.3,3.1,8,4.6
				c5.4,2.9,10.9,5.7,16.5,8.4c2.8,1.3,5.6,2.6,8.4,3.9c2.8,1.3,5.6,2.5,8.5,3.8c5.7,2.5,11.4,4.7,17.2,6.9
				c5.8,2.2,11.6,4.2,17.5,6.2c5.9,1.9,11.8,3.7,17.7,5.3l0.2,0.1l3.8,0.9l4,0.9c2.7,0.6,5.3,1.1,8,1.6c5.4,0.9,10.8,1.7,16.2,2.3
				c5.4,0.6,10.8,1,16.2-0.1c5.3-1,10.4-3.3,14.8-6.6c-4.1,3.7-9.1,6.4-14.5,7.9c-5.4,1.5-11.2,1.4-16.6,1c-5.5-0.3-11-0.9-16.5-1.7
				c-2.7-0.4-5.5-0.8-8.2-1.3c-1.4-0.2-2.7-0.5-4.1-0.8l-2-0.4l-1-0.2l-0.5-0.1c-0.2-0.1-0.3,0-0.7-0.2l0.2,0.1
				c-6.1-1.5-12.1-3.2-18-5c-5.9-1.9-11.8-3.9-17.7-6.1c-5.9-2.2-11.6-4.5-17.3-7c-5.7-2.5-11.4-5.2-16.9-8
				c-5.6-2.8-11.1-5.8-16.5-8.9c-2.7-1.6-5.4-3.2-8-4.9c-2.6-1.7-5.2-3.6-7.6-5.6c-4.9-3.8-9.8-7.9-13.9-12.6
				c-2-2.4-3.9-4.9-5.3-7.8c-0.6-1.4-1.2-2.9-1.4-4.5C301.2,481.9,301.3,480.3,301.9,478.8z"/>
		</g>
		<g>
			<path class="st1" d="M311.6,453.4c-0.5,1.5-0.4,3.1-0.1,4.6l0.3,1.1c0.1,0.4,0.3,0.7,0.4,1.1c0.2,0.7,0.7,1.4,1,2.1
				c1.5,2.7,3.5,5,5.7,7.2c2.1,2.2,4.5,4.2,6.9,6.1c2.4,2,4.9,3.7,7.4,5.5c2.5,1.9,5,3.5,7.6,5.1c2.6,1.6,5.3,3.1,8,4.6
				c5.4,2.9,10.9,5.7,16.5,8.4c2.8,1.3,5.6,2.6,8.4,3.9c2.8,1.3,5.6,2.5,8.5,3.8c5.7,2.5,11.4,4.7,17.2,6.9
				c5.8,2.2,11.6,4.2,17.5,6.2c5.9,1.9,11.8,3.7,17.7,5.3l0.2,0.1l3.8,0.9l4,0.9c2.7,0.6,5.3,1.1,8,1.6c5.4,0.9,10.8,1.7,16.2,2.3
				c5.4,0.6,10.8,1,16.2-0.1c5.3-1,10.4-3.3,14.8-6.6c-4.1,3.7-9.1,6.4-14.5,7.9c-5.4,1.5-11.2,1.4-16.6,1c-5.5-0.3-11-0.9-16.5-1.7
				c-2.7-0.4-5.5-0.8-8.2-1.3c-1.4-0.2-2.7-0.5-4.1-0.8l-2-0.4l-1-0.2l-0.5-0.1c-0.2-0.1-0.3,0-0.7-0.2l0.2,0.1
				c-6.1-1.5-12.1-3.2-18-5c-5.9-1.9-11.8-3.9-17.7-6.1c-5.9-2.2-11.6-4.5-17.3-7c-5.7-2.5-11.4-5.2-16.9-8
				c-5.6-2.8-11.1-5.8-16.5-8.9c-2.7-1.6-5.4-3.2-8-4.9c-2.6-1.7-5.2-3.6-7.6-5.6c-4.9-3.8-9.8-7.9-13.9-12.6
				c-2-2.4-3.9-4.9-5.3-7.8c-0.6-1.4-1.2-2.9-1.4-4.5C310.8,456.5,311,454.9,311.6,453.4z"/>
		</g>
		
			<ellipse transform="matrix(0.356 -0.9345 0.9345 0.356 -193.9498 692.3434)" class="st2" cx="405.4" cy="486.9" rx="27.1" ry="99.6"/>
		
			<ellipse transform="matrix(0.356 -0.9345 0.9345 0.356 -193.9499 692.3432)" class="st0" cx="405.4" cy="486.9" rx="12.7" ry="74.3"/>
		<path class="st3" d="M474.8,513.4c-1.5,4.6-23.6,0.9-28.5,0.1c-9.6-1.6-21.5-4.2-51.6-17.1c-21.6-9.2-29.2-12-34.9-15.5
			c-10.9-6.7-25.7-16.2-23.8-20.4c1.1-2.4,7.7-2,13.1-1.6c3.6,0.3,5.2,0.8,15.7,3.1c8.8,2,7.4,1.6,11.2,2.5c3.7,0.9,10,2.5,17.7,4.9
			c6.1,1.9,11.1,3.7,16.3,5.7c19,7.2,29.5,12.3,43.4,19.1c0,0,8.6,4.2,17.4,13.1C474.9,511.4,475.1,512.6,474.8,513.4z"/>
	</g>
	<g>
		<path class="st0" d="M73.4,508.6l8.7,28.2c4.4,14.3,50.6,12.8,103.1-3.5s91.5-41,87.1-55.3l-8.7-28.2L73.4,508.6z"/>
		<g>
			<path class="st1" d="M82.1,536.8c0.6,1.5,1.5,2.7,2.7,3.7l0.9,0.7c0.3,0.2,0.7,0.4,1,0.6c0.6,0.4,1.4,0.7,2,1
				c2.8,1.2,5.9,1.7,8.9,2.2c3,0.4,6.1,0.5,9.2,0.6c3.1,0.1,6.1-0.1,9.2-0.2c3.1-0.1,6.1-0.3,9.2-0.7c3-0.4,6.1-0.8,9.1-1.3
				c6.1-1.1,12.2-2.2,18.2-3.5c3-0.7,6-1.4,9-2.1c3-0.7,6-1.5,9-2.2c6-1.6,11.9-3.3,17.8-5.2c5.9-1.8,11.8-3.8,17.6-5.9
				c5.8-2.1,11.6-4.3,17.3-6.7l0.2-0.1l3.5-1.6l3.7-1.8c2.4-1.2,4.9-2.4,7.3-3.7c4.8-2.6,9.6-5.3,14.2-8.2c4.6-2.9,9.2-5.9,12.7-10
				c3.5-4.1,6.1-9,7.6-14.3c-1,5.4-3.2,10.7-6.6,15.1c-3.4,4.5-7.9,8-12.5,11.1c-4.6,3.1-9.2,6.1-14,8.9c-2.4,1.4-4.8,2.7-7.3,4
				c-1.2,0.7-2.4,1.3-3.7,1.9l-1.9,0.9l-0.9,0.4l-0.5,0.2c-0.2,0.1-0.2,0.1-0.7,0.3l0.2-0.1c-5.7,2.5-11.5,4.9-17.3,7.1
				c-5.8,2.2-11.7,4.2-17.7,6.1c-5.9,1.9-12,3.6-18,5.1c-6,1.6-12.1,2.9-18.3,4.1c-6.1,1.2-12.3,2.3-18.5,3.1
				c-3.1,0.4-6.2,0.8-9.3,1c-3.1,0.3-6.3,0.3-9.4,0.3c-6.2,0.1-12.5-0.2-18.7-1.4c-3.1-0.6-6.1-1.5-9-2.9c-1.4-0.7-2.8-1.6-3.9-2.7
				C83.4,539.6,82.5,538.3,82.1,536.8z"/>
		</g>
		<g>
			<path class="st1" d="M74.1,510.9c0.6,1.5,1.5,2.7,2.7,3.7l0.9,0.7c0.3,0.2,0.7,0.4,1,0.6c0.6,0.4,1.4,0.7,2,1
				c2.8,1.2,5.9,1.7,8.9,2.2c3,0.4,6.1,0.5,9.2,0.6c3.1,0.1,6.1-0.1,9.2-0.2c3.1-0.1,6.1-0.3,9.2-0.7c3-0.4,6.1-0.8,9.1-1.3
				c6.1-1.1,12.2-2.2,18.2-3.5c3-0.7,6-1.4,9-2.1c3-0.7,6-1.5,9-2.2c6-1.6,11.9-3.3,17.8-5.2c5.9-1.8,11.8-3.8,17.6-5.9
				c5.8-2.1,11.6-4.3,17.3-6.7l0.2-0.1l3.5-1.6l3.7-1.8c2.4-1.2,4.9-2.4,7.3-3.7c4.8-2.6,9.6-5.3,14.2-8.2c4.6-2.9,9.2-5.9,12.7-10
				c3.5-4.1,6.1-9,7.6-14.3c-1,5.4-3.2,10.7-6.6,15.1c-3.4,4.5-7.9,8-12.5,11.1c-4.6,3.1-9.2,6.1-14,8.9c-2.4,1.4-4.8,2.7-7.3,4
				c-1.2,0.7-2.4,1.3-3.7,1.9l-1.9,0.9l-0.9,0.4l-0.5,0.2c-0.2,0.1-0.2,0.1-0.7,0.3l0.2-0.1c-5.7,2.5-11.5,4.9-17.3,7.1
				c-5.8,2.2-11.7,4.2-17.7,6.1c-5.9,1.9-12,3.6-18,5.1c-6,1.6-12.1,2.9-18.3,4.1c-6.1,1.2-12.3,2.3-18.5,3.1
				c-3.1,0.4-6.2,0.8-9.3,1c-3.1,0.3-6.3,0.3-9.4,0.3c-6.2,0.1-12.5-0.2-18.7-1.4c-3.1-0.6-6.1-1.5-9-2.9c-1.4-0.7-2.8-1.6-3.9-2.7
				C75.4,513.7,74.5,512.4,74.1,510.9z"/>
		</g>
		
			<ellipse transform="matrix(0.9554 -0.2954 0.2954 0.9554 -134.0808 71.1831)" class="st2" cx="168.6" cy="479.4" rx="99.6" ry="27.1"/>
		
			<ellipse transform="matrix(0.9554 -0.2954 0.2954 0.9554 -134.0807 71.183)" class="st0" cx="168.6" cy="479.4" rx="74.3" ry="12.7"/>
		<path class="st3" d="M239.6,457.5c1.6,4.5-18,15.2-22.4,17.6c-8.6,4.7-19.5,9.9-51.2,18.4c-22.7,6-30.4,8.5-37.1,9.3
			c-12.7,1.5-30.3,3.1-31.3-1.4c-0.6-2.6,4.8-6.3,9.3-9.3c3-2,4.6-2.6,14.3-7.2c8.1-3.8,6.8-3.4,10.3-4.9c3.5-1.6,9.4-4.2,17-7
			c6-2.2,11-3.9,16.4-5.6c19.4-6,30.8-8.5,46-11.7c0,0,9.4-2,21.8-0.4C238.4,455.9,239.3,456.7,239.6,457.5z"/>
	</g>
</g>
</svg>
