<?xml version="1.0" encoding="utf-8"?>
<!-- Generator: Adobe Illustrator 25.2.1, SVG Export Plug-In . SVG Version: 6.00 Build 0)  -->
<svg version="1.1" id="Layer_1" xmlns="http://www.w3.org/2000/svg" xmlns:xlink="http://www.w3.org/1999/xlink" x="0px" y="0px"
	 viewBox="0 0 746.7 562.2" style="enable-background:new 0 0 746.7 562.2;" xml:space="preserve">
<style type="text/css">
	.st0{fill:#FFC50D;}
	.st1{fill:#EFAA0F;}
	.st2{fill:#FEE100;}
	.st3{fill:none;stroke:#EFAA0F;stroke-width:3;stroke-miterlimit:10;}
</style>
<g>
	<g>
		<path class="st0" d="M149.9,451.2v29.5c0,15,44.6,27.1,99.6,27.1s99.6-12.2,99.6-27.1v-29.5H149.9z"/>
		<g>
			<path class="st1" d="M149.9,480.7c0.1,1.6,0.7,3,1.5,4.3l0.7,0.9c0.2,0.3,0.5,0.6,0.8,0.8c0.5,0.6,1.1,1,1.7,1.6
				c2.4,1.9,5.1,3.4,7.8,4.7c2.8,1.3,5.7,2.3,8.6,3.3c2.9,1,5.9,1.7,8.9,2.5c3,0.8,5.9,1.5,9,2.1c3,0.6,6.1,1,9.1,1.4
				c6.1,0.8,12.3,1.5,18.4,2c3.1,0.3,6.2,0.5,9.2,0.7c3.1,0.2,6.2,0.4,9.2,0.5c6.2,0.3,12.3,0.3,18.5,0.3c6.2,0,12.4-0.2,18.5-0.5
				c6.2-0.3,12.3-0.7,18.5-1.3l0.2,0l3.8-0.5l4-0.6c2.7-0.4,5.4-0.9,8.1-1.4c5.4-1,10.7-2.2,16-3.6c5.3-1.4,10.5-2.9,15.1-5.8
				c4.6-2.8,8.5-6.8,11.5-11.4c-2.5,4.9-6.2,9.3-10.7,12.5c-4.6,3.3-9.9,5.3-15.2,6.9c-5.3,1.6-10.6,3.1-16,4.3
				c-2.7,0.6-5.4,1.2-8.1,1.7c-1.4,0.3-2.7,0.5-4.1,0.7l-2.1,0.3l-1,0.2l-0.5,0.1c-0.2,0-0.3,0-0.7,0.1l0.2,0
				c-6.2,0.7-12.4,1.3-18.6,1.7c-6.2,0.4-12.5,0.5-18.7,0.6c-6.2,0.1-12.5-0.1-18.7-0.4c-6.2-0.3-12.5-0.8-18.7-1.4
				c-6.2-0.7-12.4-1.4-18.5-2.5c-3.1-0.5-6.2-1.1-9.2-1.8c-3.1-0.7-6.1-1.6-9.1-2.5c-6-1.8-11.9-3.9-17.5-6.9
				c-2.8-1.5-5.4-3.2-7.7-5.4c-1.1-1.1-2.2-2.3-2.9-3.7C150.3,483.8,149.8,482.3,149.9,480.7z"/>
		</g>
		<g>
			<path class="st1" d="M149.9,453.6c0.1,1.6,0.7,3,1.5,4.3l0.7,0.9c0.2,0.3,0.5,0.6,0.8,0.8c0.5,0.6,1.1,1,1.7,1.6
				c2.4,1.9,5.1,3.4,7.8,4.7c2.8,1.3,5.7,2.3,8.6,3.3c2.9,1,5.9,1.7,8.9,2.5c3,0.8,5.9,1.5,9,2.1c3,0.6,6.1,1,9.1,1.4
				c6.1,0.8,12.3,1.5,18.4,2c3.1,0.3,6.2,0.5,9.2,0.7c3.1,0.2,6.2,0.4,9.2,0.5c6.2,0.3,12.3,0.3,18.5,0.3c6.2,0,12.4-0.2,18.5-0.5
				c6.2-0.3,12.3-0.7,18.5-1.3l0.2,0l3.8-0.5l4-0.6c2.7-0.4,5.4-0.9,8.1-1.4c5.4-1,10.7-2.2,16-3.6c5.3-1.4,10.5-2.9,15.1-5.8
				c4.6-2.8,8.5-6.8,11.5-11.4c-2.5,4.9-6.2,9.3-10.7,12.5c-4.6,3.3-9.9,5.3-15.2,6.9c-5.3,1.6-10.6,3.1-16,4.3
				c-2.7,0.6-5.4,1.2-8.1,1.7c-1.4,0.3-2.7,0.5-4.1,0.7l-2.1,0.3l-1,0.2l-0.5,0.1c-0.2,0-0.3,0-0.7,0.1l0.2,0
				c-6.2,0.7-12.4,1.3-18.6,1.7c-6.2,0.4-12.5,0.5-18.7,0.6c-6.2,0.1-12.5-0.1-18.7-0.4c-6.2-0.3-12.5-0.8-18.7-1.4
				c-6.2-0.7-12.4-1.4-18.5-2.5c-3.1-0.5-6.2-1.1-9.2-1.8c-3.1-0.7-6.1-1.6-9.1-2.5c-6-1.8-11.9-3.9-17.5-6.9
				c-2.8-1.5-5.4-3.2-7.7-5.4c-1.1-1.1-2.2-2.3-2.9-3.7C150.3,456.7,149.8,455.1,149.9,453.6z"/>
		</g>
		<ellipse class="st2" cx="249.4" cy="451.4" rx="99.6" ry="27.1"/>
		<ellipse class="st0" cx="249.4" cy="451.4" rx="74.3" ry="12.7"/>
		<path class="st3" d="M323.8,451.4c0.2,4.8-21.7,9.2-26.6,10.2c-9.6,1.9-21.5,3.7-54.3,2.4c-23.4-0.9-31.6-0.8-38.2-2.1
			c-12.6-2.3-29.8-6-29.5-10.6c0.2-2.7,6.5-4.6,11.7-6.1c3.4-1,5.1-1.1,15.8-2.7c8.9-1.3,7.5-1.2,11.3-1.7
			c3.8-0.5,10.3-1.2,18.3-1.7c6.4-0.4,11.7-0.5,17.3-0.5c20.3-0.1,31.9,1,47.4,2.4c0,0,9.5,0.9,20.9,6
			C323.1,449.6,323.8,450.7,323.8,451.4z"/>
	</g>
	<g>
		<path class="st0" d="M149.9,423.9v29.5c0,15,44.6,27.1,99.6,27.1s99.6-12.2,99.6-27.1v-29.5H149.9z"/>
		<g>
			<path class="st1" d="M149.9,453.4c0.1,1.6,0.7,3,1.5,4.3l0.7,0.9c0.2,0.3,0.5,0.6,0.8,0.8c0.5,0.6,1.1,1,1.7,1.6
				c2.4,1.9,5.1,3.4,7.8,4.7c2.8,1.3,5.7,2.3,8.6,3.3c2.9,1,5.9,1.7,8.9,2.5c3,0.8,5.9,1.5,9,2.1c3,0.6,6.1,1,9.1,1.4
				c6.1,0.8,12.3,1.5,18.4,2c3.1,0.3,6.2,0.5,9.2,0.7c3.1,0.2,6.2,0.4,9.2,0.5c6.2,0.3,12.3,0.3,18.5,0.3c6.2,0,12.4-0.2,18.5-0.5
				c6.2-0.3,12.3-0.7,18.5-1.3l0.2,0l3.8-0.5l4-0.6c2.7-0.4,5.4-0.9,8.1-1.4c5.4-1,10.7-2.2,16-3.6c5.3-1.4,10.5-2.9,15.1-5.8
				c4.6-2.8,8.5-6.8,11.5-11.4c-2.5,4.9-6.2,9.3-10.7,12.5c-4.6,3.3-9.9,5.3-15.2,6.9c-5.3,1.6-10.6,3.1-16,4.3
				c-2.7,0.6-5.4,1.2-8.1,1.7c-1.4,0.3-2.7,0.5-4.1,0.7l-2.1,0.3l-1,0.2l-0.5,0.1c-0.2,0-0.3,0-0.7,0.1l0.2,0
				c-6.2,0.7-12.4,1.3-18.6,1.7c-6.2,0.4-12.5,0.5-18.7,0.6c-6.2,0.1-12.5-0.1-18.7-0.4c-6.2-0.3-12.5-0.8-18.7-1.4
				c-6.2-0.7-12.4-1.4-18.5-2.5c-3.1-0.5-6.2-1.1-9.2-1.8c-3.1-0.7-6.1-1.6-9.1-2.5c-6-1.8-11.9-3.9-17.5-6.9
				c-2.8-1.5-5.4-3.2-7.7-5.4c-1.1-1.1-2.2-2.3-2.9-3.7C150.3,456.5,149.8,455,149.9,453.4z"/>
		</g>
		<g>
			<path class="st1" d="M149.9,426.3c0.1,1.6,0.7,3,1.5,4.3l0.7,0.9c0.2,0.3,0.5,0.6,0.8,0.8c0.5,0.6,1.1,1,1.7,1.6
				c2.4,1.9,5.1,3.4,7.8,4.7c2.8,1.3,5.7,2.3,8.6,3.3c2.9,1,5.9,1.7,8.9,2.5c3,0.8,5.9,1.5,9,2.1c3,0.6,6.1,1,9.1,1.4
				c6.1,0.8,12.3,1.5,18.4,2c3.1,0.3,6.2,0.5,9.2,0.7c3.1,0.2,6.2,0.4,9.2,0.5c6.2,0.3,12.3,0.3,18.5,0.3c6.2,0,12.4-0.2,18.5-0.5
				c6.2-0.3,12.3-0.7,18.5-1.3l0.2,0l3.8-0.5l4-0.6c2.7-0.4,5.4-0.9,8.1-1.4c5.4-1,10.7-2.2,16-3.6c5.3-1.4,10.5-2.9,15.1-5.8
				c4.6-2.8,8.5-6.8,11.5-11.4c-2.5,4.9-6.2,9.3-10.7,12.5c-4.6,3.3-9.9,5.3-15.2,6.9c-5.3,1.6-10.6,3.1-16,4.3
				c-2.7,0.6-5.4,1.2-8.1,1.7c-1.4,0.3-2.7,0.5-4.1,0.7l-2.1,0.3l-1,0.2l-0.5,0.1c-0.2,0-0.3,0-0.7,0.1l0.2,0
				c-6.2,0.7-12.4,1.3-18.6,1.7c-6.2,0.4-12.5,0.5-18.7,0.6c-6.2,0.1-12.5-0.1-18.7-0.4c-6.2-0.3-12.5-0.8-18.7-1.4
				c-6.2-0.7-12.4-1.4-18.5-2.5c-3.1-0.5-6.2-1.1-9.2-1.8c-3.1-0.7-6.1-1.6-9.1-2.5c-6-1.8-11.9-3.9-17.5-6.9
				c-2.8-1.5-5.4-3.2-7.7-5.4c-1.1-1.1-2.2-2.3-2.9-3.7C150.3,429.4,149.8,427.8,149.9,426.3z"/>
		</g>
		<ellipse class="st2" cx="249.4" cy="424.1" rx="99.6" ry="27.1"/>
		<ellipse class="st0" cx="249.4" cy="424.1" rx="74.3" ry="12.7"/>
		<path class="st3" d="M323.8,424.1c0.2,4.8-21.7,9.2-26.6,10.2c-9.6,1.9-21.5,3.7-54.3,2.4c-23.4-0.9-31.6-0.8-38.2-2.1
			c-12.6-2.3-29.8-6-29.5-10.6c0.2-2.7,6.5-4.6,11.7-6.1c3.4-1,5.1-1.1,15.8-2.7c8.9-1.3,7.5-1.2,11.3-1.7
			c3.8-0.5,10.3-1.2,18.3-1.7c6.4-0.4,11.7-0.5,17.3-0.5c20.3-0.1,31.9,1,47.4,2.4c0,0,9.5,0.9,20.9,6
			C323.1,422.3,323.8,423.4,323.8,424.1z"/>
	</g>
	<g>
		<path class="st0" d="M175.1,396.6v29.5c0,15,44.6,27.1,99.6,27.1s99.6-12.2,99.6-27.1v-29.5H175.1z"/>
		<g>
			<path class="st1" d="M175.1,426.1c0.1,1.6,0.7,3,1.5,4.3l0.7,0.9c0.2,0.3,0.5,0.6,0.8,0.8c0.5,0.6,1.1,1,1.7,1.6
				c2.4,1.9,5.1,3.4,7.8,4.7c2.8,1.3,5.7,2.3,8.6,3.3c2.9,1,5.9,1.7,8.9,2.5c3,0.8,5.9,1.5,9,2.1c3,0.6,6.1,1,9.1,1.4
				c6.1,0.8,12.3,1.5,18.4,2c3.1,0.3,6.2,0.5,9.2,0.7c3.1,0.2,6.2,0.4,9.2,0.5c6.2,0.3,12.3,0.3,18.5,0.3c6.2,0,12.4-0.2,18.5-0.5
				c6.2-0.3,12.3-0.7,18.5-1.3l0.2,0l3.8-0.5l4-0.6c2.7-0.4,5.4-0.9,8.1-1.4c5.4-1,10.7-2.2,16-3.6c5.3-1.4,10.5-2.9,15.1-5.8
				c4.6-2.8,8.5-6.8,11.5-11.4c-2.5,4.9-6.2,9.3-10.7,12.5c-4.6,3.3-9.9,5.3-15.2,6.9c-5.3,1.6-10.6,3.1-16,4.3
				c-2.7,0.6-5.4,1.2-8.1,1.7c-1.4,0.3-2.7,0.5-4.1,0.7l-2.1,0.3l-1,0.2l-0.5,0.1c-0.2,0-0.3,0-0.7,0.1l0.2,0
				c-6.2,0.7-12.4,1.3-18.6,1.7c-6.2,0.4-12.5,0.5-18.7,0.6c-6.2,0.1-12.5-0.1-18.7-0.4c-6.2-0.3-12.5-0.8-18.7-1.4
				c-6.2-0.7-12.4-1.4-18.5-2.5c-3.1-0.5-6.2-1.1-9.2-1.8c-3.1-0.7-6.1-1.6-9.1-2.5c-6-1.8-11.9-3.9-17.5-6.9
				c-2.8-1.5-5.4-3.2-7.7-5.4c-1.1-1.1-2.2-2.3-2.9-3.7C175.5,429.2,175.1,427.7,175.1,426.1z"/>
		</g>
		<g>
			<path class="st1" d="M175.1,399c0.1,1.6,0.7,3,1.5,4.3l0.7,0.9c0.2,0.3,0.5,0.6,0.8,0.8c0.5,0.6,1.1,1,1.7,1.6
				c2.4,1.9,5.1,3.4,7.8,4.7c2.8,1.3,5.7,2.3,8.6,3.3c2.9,1,5.9,1.7,8.9,2.5c3,0.8,5.9,1.5,9,2.1c3,0.6,6.1,1,9.1,1.4
				c6.1,0.8,12.3,1.5,18.4,2c3.1,0.3,6.2,0.5,9.2,0.7c3.1,0.2,6.2,0.4,9.2,0.5c6.2,0.3,12.3,0.3,18.5,0.3c6.2,0,12.4-0.2,18.5-0.5
				c6.2-0.3,12.3-0.7,18.5-1.3l0.2,0l3.8-0.5l4-0.6c2.7-0.4,5.4-0.9,8.1-1.4c5.4-1,10.7-2.2,16-3.6c5.3-1.4,10.5-2.9,15.1-5.8
				c4.6-2.8,8.5-6.8,11.5-11.4c-2.5,4.9-6.2,9.3-10.7,12.5c-4.6,3.3-9.9,5.3-15.2,6.9c-5.3,1.6-10.6,3.1-16,4.3
				c-2.7,0.6-5.4,1.2-8.1,1.7c-1.4,0.3-2.7,0.5-4.1,0.7l-2.1,0.3l-1,0.2l-0.5,0.1c-0.2,0-0.3,0-0.7,0.1l0.2,0
				c-6.2,0.7-12.4,1.3-18.6,1.7c-6.2,0.4-12.5,0.5-18.7,0.6c-6.2,0.1-12.5-0.1-18.7-0.4c-6.2-0.3-12.5-0.8-18.7-1.4
				c-6.2-0.7-12.4-1.4-18.5-2.5c-3.1-0.5-6.2-1.1-9.2-1.8c-3.1-0.7-6.1-1.6-9.1-2.5c-6-1.8-11.9-3.9-17.5-6.9
				c-2.8-1.5-5.4-3.2-7.7-5.4c-1.1-1.1-2.2-2.3-2.9-3.7C175.5,402.1,175.1,400.5,175.1,399z"/>
		</g>
		<ellipse class="st2" cx="274.7" cy="396.8" rx="99.6" ry="27.1"/>
		<ellipse class="st0" cx="274.7" cy="396.8" rx="74.3" ry="12.7"/>
		<path class="st3" d="M349,396.8c0.2,4.8-21.7,9.2-26.6,10.2c-9.6,1.9-21.5,3.7-54.3,2.4c-23.4-0.9-31.6-0.8-38.2-2.1
			c-12.6-2.3-29.8-6-29.5-10.6c0.2-2.7,6.5-4.6,11.7-6.1c3.4-1,5.1-1.1,15.8-2.7c8.9-1.3,7.5-1.2,11.3-1.7
			c3.8-0.5,10.3-1.2,18.3-1.7c6.4-0.4,11.7-0.5,17.3-0.5c20.3-0.1,31.9,1,47.4,2.4c0,0,9.5,0.9,20.9,6
			C348.4,395,349,396.1,349,396.8z"/>
	</g>
	<g>
		<path class="st0" d="M124.7,362.4V392c0,15,44.6,27.1,99.6,27.1s99.6-12.2,99.6-27.1v-29.5H124.7z"/>
		<g>
			<path class="st1" d="M124.7,392c0.1,1.6,0.7,3,1.5,4.3l0.7,0.9c0.2,0.3,0.5,0.6,0.8,0.8c0.5,0.6,1.1,1,1.7,1.6
				c2.4,1.9,5.1,3.4,7.8,4.7c2.8,1.3,5.7,2.3,8.6,3.3c2.9,1,5.9,1.7,8.9,2.5c3,0.8,5.9,1.5,9,2.1c3,0.6,6.1,1,9.1,1.4
				c6.1,0.8,12.3,1.5,18.4,2c3.1,0.3,6.2,0.5,9.2,0.7c3.1,0.2,6.2,0.4,9.2,0.5c6.2,0.3,12.3,0.3,18.5,0.3c6.2,0,12.4-0.2,18.5-0.5
				c6.2-0.3,12.3-0.7,18.5-1.3l0.2,0l3.8-0.5l4-0.6c2.7-0.4,5.4-0.9,8.1-1.4c5.4-1,10.7-2.2,16-3.6c5.3-1.4,10.5-2.9,15.1-5.8
				c4.6-2.8,8.5-6.8,11.5-11.4c-2.5,4.9-6.2,9.3-10.7,12.5c-4.6,3.3-9.9,5.3-15.2,6.9c-5.3,1.6-10.6,3.1-16,4.3
				c-2.7,0.6-5.4,1.2-8.1,1.7c-1.4,0.3-2.7,0.5-4.1,0.7l-2.1,0.3l-1,0.2l-0.5,0.1c-0.2,0-0.3,0-0.7,0.1l0.2,0
				c-6.2,0.7-12.4,1.3-18.6,1.7c-6.2,0.4-12.5,0.5-18.7,0.6c-6.2,0.1-12.5-0.1-18.7-0.4c-6.2-0.3-12.5-0.8-18.7-1.4
				c-6.2-0.7-12.4-1.4-18.5-2.5c-3.1-0.5-6.2-1.1-9.2-1.8c-3.1-0.7-6.1-1.6-9.1-2.5c-6-1.8-11.9-3.9-17.5-6.9
				c-2.8-1.5-5.4-3.2-7.7-5.4c-1.1-1.1-2.2-2.3-2.9-3.7C125.1,395.1,124.6,393.5,124.7,392z"/>
		</g>
		<g>
			<path class="st1" d="M124.7,364.8c0.1,1.6,0.7,3,1.5,4.3l0.7,0.9c0.2,0.3,0.5,0.6,0.8,0.8c0.5,0.6,1.1,1,1.7,1.6
				c2.4,1.9,5.1,3.4,7.8,4.7c2.8,1.3,5.7,2.3,8.6,3.3c2.9,1,5.9,1.7,8.9,2.5c3,0.8,5.9,1.5,9,2.1c3,0.6,6.1,1,9.1,1.4
				c6.1,0.8,12.3,1.5,18.4,2c3.1,0.3,6.2,0.5,9.2,0.7c3.1,0.2,6.2,0.4,9.2,0.5c6.2,0.3,12.3,0.3,18.5,0.3c6.2,0,12.4-0.2,18.5-0.5
				c6.2-0.3,12.3-0.7,18.5-1.3l0.2,0l3.8-0.5l4-0.6c2.7-0.4,5.4-0.9,8.1-1.4c5.4-1,10.7-2.2,16-3.6c5.3-1.4,10.5-2.9,15.1-5.8
				c4.6-2.8,8.5-6.8,11.5-11.4c-2.5,4.9-6.2,9.3-10.7,12.5c-4.6,3.3-9.9,5.3-15.2,6.9c-5.3,1.6-10.6,3.1-16,4.3
				c-2.7,0.6-5.4,1.2-8.1,1.7c-1.4,0.3-2.7,0.5-4.1,0.7l-2.1,0.3l-1,0.2l-0.5,0.1c-0.2,0-0.3,0-0.7,0.1l0.2,0
				c-6.2,0.7-12.4,1.3-18.6,1.7c-6.2,0.4-12.5,0.5-18.7,0.6c-6.2,0.1-12.5-0.1-18.7-0.4c-6.2-0.3-12.5-0.8-18.7-1.4
				c-6.2-0.7-12.4-1.4-18.5-2.5c-3.1-0.5-6.2-1.1-9.2-1.8c-3.1-0.7-6.1-1.6-9.1-2.5c-6-1.8-11.9-3.9-17.5-6.9
				c-2.8-1.5-5.4-3.2-7.7-5.4c-1.1-1.1-2.2-2.3-2.9-3.7C125.1,367.9,124.6,366.4,124.7,364.8z"/>
		</g>
		<ellipse class="st2" cx="224.2" cy="362.7" rx="99.6" ry="27.1"/>
		<ellipse class="st0" cx="224.2" cy="362.7" rx="74.3" ry="12.7"/>
		<path class="st3" d="M298.6,362.7c0.2,4.8-21.7,9.2-26.6,10.2c-9.6,1.9-21.5,3.7-54.3,2.4c-23.4-0.9-31.6-0.8-38.2-2.1
			c-12.6-2.3-29.8-6-29.5-10.6c0.2-2.7,6.5-4.6,11.7-6.1c3.4-1,5.1-1.1,15.8-2.7c8.9-1.3,7.5-1.2,11.3-1.7
			c3.8-0.5,10.3-1.2,18.3-1.7c6.4-0.4,11.7-0.5,17.3-0.5c20.3-0.1,31.9,1,47.4,2.4c0,0,9.5,0.9,20.9,6
			C297.9,360.8,298.5,361.9,298.6,362.7z"/>
	</g>
	<g>
		<path class="st0" d="M323.8,461.2v29.5c0,15,44.6,27.1,99.6,27.1s99.6-12.2,99.6-27.1v-29.5H323.8z"/>
		<g>
			<path class="st1" d="M323.8,490.7c0.1,1.6,0.7,3,1.5,4.3l0.7,0.9c0.2,0.3,0.5,0.6,0.8,0.8c0.5,0.6,1.1,1,1.7,1.6
				c2.4,1.9,5.1,3.4,7.8,4.7c2.8,1.3,5.7,2.3,8.6,3.3c2.9,1,5.9,1.7,8.9,2.5c3,0.8,5.9,1.5,9,2.1c3,0.6,6.1,1,9.1,1.4
				c6.1,0.8,12.3,1.5,18.4,2c3.1,0.3,6.2,0.5,9.2,0.7c3.1,0.2,6.2,0.4,9.2,0.5c6.2,0.3,12.3,0.3,18.5,0.3c6.2,0,12.4-0.2,18.5-0.5
				c6.2-0.3,12.3-0.7,18.5-1.3l0.2,0l3.8-0.5l4-0.6c2.7-0.4,5.4-0.9,8.1-1.4c5.4-1,10.7-2.2,16-3.6c5.3-1.4,10.5-2.9,15.1-5.8
				c4.6-2.8,8.5-6.8,11.5-11.4c-2.5,4.9-6.2,9.3-10.7,12.5c-4.6,3.3-9.9,5.3-15.2,6.9c-5.3,1.6-10.6,3.1-16,4.3
				c-2.7,0.6-5.4,1.2-8.1,1.7c-1.4,0.3-2.7,0.5-4.1,0.7l-2.1,0.3l-1,0.2l-0.5,0.1c-0.2,0-0.3,0-0.7,0.1l0.2,0
				c-6.2,0.7-12.4,1.3-18.6,1.7c-6.2,0.4-12.5,0.5-18.7,0.6c-6.2,0.1-12.5-0.1-18.7-0.4c-6.2-0.3-12.5-0.8-18.7-1.4
				c-6.2-0.7-12.4-1.4-18.5-2.5c-3.1-0.5-6.2-1.1-9.2-1.8c-3.1-0.7-6.1-1.6-9.1-2.5c-6-1.8-11.9-3.9-17.5-6.9
				c-2.8-1.5-5.4-3.2-7.7-5.4c-1.1-1.1-2.2-2.3-2.9-3.7C324.2,493.8,323.7,492.3,323.8,490.7z"/>
		</g>
		<g>
			<path class="st1" d="M323.8,463.6c0.1,1.6,0.7,3,1.5,4.3l0.7,0.9c0.2,0.3,0.5,0.6,0.8,0.8c0.5,0.6,1.1,1,1.7,1.6
				c2.4,1.9,5.1,3.4,7.8,4.7c2.8,1.3,5.7,2.3,8.6,3.3c2.9,1,5.9,1.7,8.9,2.5c3,0.8,5.9,1.5,9,2.1c3,0.6,6.1,1,9.1,1.4
				c6.1,0.8,12.3,1.5,18.4,2c3.1,0.3,6.2,0.5,9.2,0.7c3.1,0.2,6.2,0.4,9.2,0.5c6.2,0.3,12.3,0.3,18.5,0.3c6.2,0,12.4-0.2,18.5-0.5
				c6.2-0.3,12.3-0.7,18.5-1.3l0.2,0l3.8-0.5l4-0.6c2.7-0.4,5.4-0.9,8.1-1.4c5.4-1,10.7-2.2,16-3.6c5.3-1.4,10.5-2.9,15.1-5.8
				c4.6-2.8,8.5-6.8,11.5-11.4c-2.5,4.9-6.2,9.3-10.7,12.5c-4.6,3.3-9.9,5.3-15.2,6.9c-5.3,1.6-10.6,3.1-16,4.3
				c-2.7,0.6-5.4,1.2-8.1,1.7c-1.4,0.3-2.7,0.5-4.1,0.7l-2.1,0.3l-1,0.2l-0.5,0.1c-0.2,0-0.3,0-0.7,0.1l0.2,0
				c-6.2,0.7-12.4,1.3-18.6,1.7c-6.2,0.4-12.5,0.5-18.7,0.6c-6.2,0.1-12.5-0.1-18.7-0.4c-6.2-0.3-12.5-0.8-18.7-1.4
				c-6.2-0.7-12.4-1.4-18.5-2.5c-3.1-0.5-6.2-1.1-9.2-1.8c-3.1-0.7-6.1-1.6-9.1-2.5c-6-1.8-11.9-3.9-17.5-6.9
				c-2.8-1.5-5.4-3.2-7.7-5.4c-1.1-1.1-2.2-2.3-2.9-3.7C324.2,466.7,323.7,465.1,323.8,463.6z"/>
		</g>
		<ellipse class="st2" cx="423.3" cy="461.4" rx="99.6" ry="27.1"/>
		<ellipse class="st0" cx="423.3" cy="461.4" rx="74.3" ry="12.7"/>
		<path class="st3" d="M497.7,461.4c0.2,4.8-21.7,9.2-26.6,10.2c-9.6,1.9-21.5,3.7-54.3,2.4c-23.4-0.9-31.6-0.8-38.2-2.1
			c-12.6-2.3-29.8-6-29.5-10.6c0.2-2.7,6.5-4.6,11.7-6.1c3.4-1,5.1-1.1,15.8-2.7c8.9-1.3,7.5-1.2,11.3-1.7
			c3.8-0.5,10.3-1.2,18.3-1.7c6.4-0.4,11.7-0.5,17.3-0.5c20.3-0.1,31.9,1,47.4,2.4c0,0,9.5,0.9,20.9,6
			C497,459.6,497.7,460.7,497.7,461.4z"/>
	</g>
	<g>
		<path class="st0" d="M371.1,429.1v29.5c0,15,44.6,27.1,99.6,27.1s99.6-12.2,99.6-27.1v-29.5H371.1z"/>
		<g>
			<path class="st1" d="M371.1,458.6c0.1,1.6,0.7,3,1.5,4.3l0.7,0.9c0.2,0.3,0.5,0.6,0.8,0.8c0.5,0.6,1.1,1,1.7,1.6
				c2.4,1.9,5.1,3.4,7.8,4.7c2.8,1.3,5.7,2.3,8.6,3.3c2.9,1,5.9,1.7,8.9,2.5c3,0.8,5.9,1.5,9,2.1c3,0.6,6.1,1,9.1,1.4
				c6.1,0.8,12.3,1.5,18.4,2c3.1,0.3,6.2,0.5,9.2,0.7c3.1,0.2,6.2,0.4,9.2,0.5c6.2,0.3,12.3,0.3,18.5,0.3c6.2,0,12.4-0.2,18.5-0.5
				c6.2-0.3,12.3-0.7,18.5-1.3l0.2,0l3.8-0.5l4-0.6c2.7-0.4,5.4-0.9,8.1-1.4c5.4-1,10.7-2.2,16-3.6c5.3-1.4,10.5-2.9,15.1-5.8
				c4.6-2.8,8.5-6.8,11.5-11.4c-2.5,4.9-6.2,9.3-10.7,12.5c-4.6,3.3-9.9,5.3-15.2,6.9c-5.3,1.6-10.6,3.1-16,4.3
				c-2.7,0.6-5.4,1.2-8.1,1.7c-1.4,0.3-2.7,0.5-4.1,0.7l-2.1,0.3l-1,0.2l-0.5,0.1c-0.2,0-0.3,0-0.7,0.1l0.2,0
				c-6.2,0.7-12.4,1.3-18.6,1.7c-6.2,0.4-12.5,0.5-18.7,0.6c-6.2,0.1-12.5-0.1-18.7-0.4c-6.2-0.3-12.5-0.8-18.7-1.4
				c-6.2-0.7-12.4-1.4-18.5-2.5c-3.1-0.5-6.2-1.1-9.2-1.8c-3.1-0.7-6.1-1.6-9.1-2.5c-6-1.8-11.9-3.9-17.5-6.9
				c-2.8-1.5-5.4-3.2-7.7-5.4c-1.1-1.1-2.2-2.3-2.9-3.7C371.5,461.7,371,460.2,371.1,458.6z"/>
		</g>
		<g>
			<path class="st1" d="M371.1,431.5c0.1,1.6,0.7,3,1.5,4.3l0.7,0.9c0.2,0.3,0.5,0.6,0.8,0.8c0.5,0.6,1.1,1,1.7,1.6
				c2.4,1.9,5.1,3.4,7.8,4.7c2.8,1.3,5.7,2.3,8.6,3.3c2.9,1,5.9,1.7,8.9,2.5c3,0.8,5.9,1.5,9,2.1c3,0.6,6.1,1,9.1,1.4
				c6.1,0.8,12.3,1.5,18.4,2c3.1,0.3,6.2,0.5,9.2,0.7c3.1,0.2,6.2,0.4,9.2,0.5c6.2,0.3,12.3,0.3,18.5,0.3c6.2,0,12.4-0.2,18.5-0.5
				c6.2-0.3,12.3-0.7,18.5-1.3l0.2,0l3.8-0.5l4-0.6c2.7-0.4,5.4-0.9,8.1-1.4c5.4-1,10.7-2.2,16-3.6c5.3-1.4,10.5-2.9,15.1-5.8
				c4.6-2.8,8.5-6.8,11.5-11.4c-2.5,4.9-6.2,9.3-10.7,12.5c-4.6,3.3-9.9,5.3-15.2,6.9c-5.3,1.6-10.6,3.1-16,4.3
				c-2.7,0.6-5.4,1.2-8.1,1.7c-1.4,0.3-2.7,0.5-4.1,0.7L514,458l-1,0.2l-0.5,0.1c-0.2,0-0.3,0-0.7,0.1l0.2,0
				c-6.2,0.7-12.4,1.3-18.6,1.7c-6.2,0.4-12.5,0.5-18.7,0.6c-6.2,0.1-12.5-0.1-18.7-0.4c-6.2-0.3-12.5-0.8-18.7-1.4
				c-6.2-0.7-12.4-1.4-18.5-2.5c-3.1-0.5-6.2-1.1-9.2-1.8c-3.1-0.7-6.1-1.6-9.1-2.5c-6-1.8-11.9-3.9-17.5-6.9
				c-2.8-1.5-5.4-3.2-7.7-5.4c-1.1-1.1-2.2-2.3-2.9-3.7C371.5,434.6,371,433,371.1,431.5z"/>
		</g>
		<ellipse class="st2" cx="470.6" cy="429.3" rx="99.6" ry="27.1"/>
		<ellipse class="st0" cx="470.6" cy="429.3" rx="74.3" ry="12.7"/>
		<path class="st3" d="M545,429.3c0.2,4.8-21.7,9.2-26.6,10.2c-9.6,1.9-21.5,3.7-54.3,2.4c-23.4-0.9-31.6-0.8-38.2-2.1
			c-12.6-2.3-29.8-6-29.5-10.6c0.2-2.7,6.5-4.6,11.7-6.1c3.4-1,5.1-1.1,15.8-2.7c8.9-1.3,7.5-1.2,11.3-1.7
			c3.8-0.5,10.3-1.2,18.3-1.7c6.4-0.4,11.7-0.5,17.3-0.5c20.3-0.1,31.9,1,47.4,2.4c0,0,9.5,0.9,20.9,6
			C544.3,427.5,545,428.6,545,429.3z"/>
	</g>
	<g>
		<path class="st0" d="M371.1,401.8v29.5c0,15,44.6,27.1,99.6,27.1s99.6-12.2,99.6-27.1v-29.5H371.1z"/>
		<g>
			<path class="st1" d="M371.1,431.3c0.1,1.6,0.7,3,1.5,4.3l0.7,0.9c0.2,0.3,0.5,0.6,0.8,0.8c0.5,0.6,1.1,1,1.7,1.6
				c2.4,1.9,5.1,3.4,7.8,4.7c2.8,1.3,5.7,2.3,8.6,3.3c2.9,1,5.9,1.7,8.9,2.5c3,0.8,5.9,1.5,9,2.1c3,0.6,6.1,1,9.1,1.4
				c6.1,0.8,12.3,1.5,18.4,2c3.1,0.3,6.2,0.5,9.2,0.7c3.1,0.2,6.2,0.4,9.2,0.5c6.2,0.3,12.3,0.3,18.5,0.3c6.2,0,12.4-0.2,18.5-0.5
				c6.2-0.3,12.3-0.7,18.5-1.3l0.2,0l3.8-0.5l4-0.6c2.7-0.4,5.4-0.9,8.1-1.4c5.4-1,10.7-2.2,16-3.6c5.3-1.4,10.5-2.9,15.1-5.8
				c4.6-2.8,8.5-6.8,11.5-11.4c-2.5,4.9-6.2,9.3-10.7,12.5c-4.6,3.3-9.9,5.3-15.2,6.9c-5.3,1.6-10.6,3.1-16,4.3
				c-2.7,0.6-5.4,1.2-8.1,1.7c-1.4,0.3-2.7,0.5-4.1,0.7l-2.1,0.3l-1,0.2l-0.5,0.1c-0.2,0-0.3,0-0.7,0.1l0.2,0
				c-6.2,0.7-12.4,1.3-18.6,1.7c-6.2,0.4-12.5,0.5-18.7,0.6c-6.2,0.1-12.5-0.1-18.7-0.4c-6.2-0.3-12.5-0.8-18.7-1.4
				c-6.2-0.7-12.4-1.4-18.5-2.5c-3.1-0.5-6.2-1.1-9.2-1.8c-3.1-0.7-6.1-1.6-9.1-2.5c-6-1.8-11.9-3.9-17.5-6.9
				c-2.8-1.5-5.4-3.2-7.7-5.4c-1.1-1.1-2.2-2.3-2.9-3.7C371.5,434.4,371,432.9,371.1,431.3z"/>
		</g>
		<g>
			<path class="st1" d="M371.1,404.2c0.1,1.6,0.7,3,1.5,4.3l0.7,0.9c0.2,0.3,0.5,0.6,0.8,0.8c0.5,0.6,1.1,1,1.7,1.6
				c2.4,1.9,5.1,3.4,7.8,4.7c2.8,1.3,5.7,2.3,8.6,3.3c2.9,1,5.9,1.7,8.9,2.5c3,0.8,5.9,1.5,9,2.1c3,0.6,6.1,1,9.1,1.4
				c6.1,0.8,12.3,1.5,18.4,2c3.1,0.3,6.2,0.5,9.2,0.7c3.1,0.2,6.2,0.4,9.2,0.5c6.2,0.3,12.3,0.3,18.5,0.3c6.2,0,12.4-0.2,18.5-0.5
				c6.2-0.3,12.3-0.7,18.5-1.3l0.2,0l3.8-0.5l4-0.6c2.7-0.4,5.4-0.9,8.1-1.4c5.4-1,10.7-2.2,16-3.6c5.3-1.4,10.5-2.9,15.1-5.8
				c4.6-2.8,8.5-6.8,11.5-11.4c-2.5,4.9-6.2,9.3-10.7,12.5c-4.6,3.3-9.9,5.3-15.2,6.9c-5.3,1.6-10.6,3.1-16,4.3
				c-2.7,0.6-5.4,1.2-8.1,1.7c-1.4,0.3-2.7,0.5-4.1,0.7l-2.1,0.3l-1,0.2l-0.5,0.1c-0.2,0-0.3,0-0.7,0.1l0.2,0
				c-6.2,0.7-12.4,1.3-18.6,1.7c-6.2,0.4-12.5,0.5-18.7,0.6c-6.2,0.1-12.5-0.1-18.7-0.4c-6.2-0.3-12.5-0.8-18.7-1.4
				c-6.2-0.7-12.4-1.4-18.5-2.5c-3.1-0.5-6.2-1.1-9.2-1.8c-3.1-0.7-6.1-1.6-9.1-2.5c-6-1.8-11.9-3.9-17.5-6.9
				c-2.8-1.5-5.4-3.2-7.7-5.4c-1.1-1.1-2.2-2.3-2.9-3.7C371.5,407.3,371,405.7,371.1,404.2z"/>
		</g>
		<ellipse class="st2" cx="470.6" cy="402" rx="99.6" ry="27.1"/>
		<ellipse class="st0" cx="470.6" cy="402" rx="74.3" ry="12.7"/>
		<path class="st3" d="M545,402c0.2,4.8-21.7,9.2-26.6,10.2c-9.6,1.9-21.5,3.7-54.3,2.4c-23.4-0.9-31.6-0.8-38.2-2.1
			c-12.6-2.3-29.8-6-29.5-10.6c0.2-2.7,6.5-4.6,11.7-6.1c3.4-1,5.1-1.1,15.8-2.7c8.9-1.3,7.5-1.2,11.3-1.7
			c3.8-0.5,10.3-1.2,18.3-1.7c6.4-0.4,11.7-0.5,17.3-0.5c20.3-0.1,31.9,1,47.4,2.4c0,0,9.5,0.9,20.9,6
			C544.3,400.2,545,401.3,545,402z"/>
	</g>
	<g>
		<path class="st0" d="M403.2,374.5V404c0,15,44.6,27.1,99.6,27.1s99.6-12.2,99.6-27.1v-29.5H403.2z"/>
		<g>
			<path class="st1" d="M403.2,404c0.1,1.6,0.7,3,1.5,4.3l0.7,0.9c0.2,0.3,0.5,0.6,0.8,0.8c0.5,0.6,1.1,1,1.7,1.6
				c2.4,1.9,5.1,3.4,7.8,4.7c2.8,1.3,5.7,2.3,8.6,3.3c2.9,1,5.9,1.7,8.9,2.5c3,0.8,5.9,1.5,9,2.1c3,0.6,6.1,1,9.1,1.4
				c6.1,0.8,12.3,1.5,18.4,2c3.1,0.3,6.2,0.5,9.2,0.7c3.1,0.2,6.2,0.4,9.2,0.5c6.2,0.3,12.3,0.3,18.5,0.3c6.2,0,12.4-0.2,18.5-0.5
				c6.2-0.3,12.3-0.7,18.5-1.3l0.2,0l3.8-0.5l4-0.6c2.7-0.4,5.4-0.9,8.1-1.4c5.4-1,10.7-2.2,16-3.6c5.3-1.4,10.5-2.9,15.1-5.8
				c4.6-2.8,8.5-6.8,11.5-11.4c-2.5,4.9-6.2,9.3-10.7,12.5c-4.6,3.3-9.9,5.3-15.2,6.9c-5.3,1.6-10.6,3.1-16,4.3
				c-2.7,0.6-5.4,1.2-8.1,1.7c-1.4,0.3-2.7,0.5-4.1,0.7l-2.1,0.3l-1,0.2l-0.5,0.1c-0.2,0-0.3,0-0.7,0.1l0.2,0
				c-6.2,0.7-12.4,1.3-18.6,1.7c-6.2,0.4-12.5,0.5-18.7,0.6c-6.2,0.1-12.5-0.1-18.7-0.4c-6.2-0.3-12.5-0.8-18.7-1.4
				c-6.2-0.7-12.4-1.4-18.5-2.5c-3.1-0.5-6.2-1.1-9.2-1.8c-3.1-0.7-6.1-1.6-9.1-2.5c-6-1.8-11.9-3.9-17.5-6.9
				c-2.8-1.5-5.4-3.2-7.7-5.4c-1.1-1.1-2.2-2.3-2.9-3.7C403.6,407.1,403.1,405.6,403.2,404z"/>
		</g>
		<g>
			<path class="st1" d="M403.2,376.9c0.1,1.6,0.7,3,1.5,4.3l0.7,0.9c0.2,0.3,0.5,0.6,0.8,0.8c0.5,0.6,1.1,1,1.7,1.6
				c2.4,1.9,5.1,3.4,7.8,4.7c2.8,1.3,5.7,2.3,8.6,3.3c2.9,1,5.9,1.7,8.9,2.5c3,0.8,5.9,1.5,9,2.1c3,0.6,6.1,1,9.1,1.4
				c6.1,0.8,12.3,1.5,18.4,2c3.1,0.3,6.2,0.5,9.2,0.7c3.1,0.2,6.2,0.4,9.2,0.5c6.2,0.3,12.3,0.3,18.5,0.3c6.2,0,12.4-0.2,18.5-0.5
				c6.2-0.3,12.3-0.7,18.5-1.3l0.2,0l3.8-0.5l4-0.6c2.7-0.4,5.4-0.9,8.1-1.4c5.4-1,10.7-2.2,16-3.6c5.3-1.4,10.5-2.9,15.1-5.8
				c4.6-2.8,8.5-6.8,11.5-11.4c-2.5,4.9-6.2,9.3-10.7,12.5c-4.6,3.3-9.9,5.3-15.2,6.9c-5.3,1.6-10.6,3.1-16,4.3
				c-2.7,0.6-5.4,1.2-8.1,1.7c-1.4,0.3-2.7,0.5-4.1,0.7l-2.1,0.3l-1,0.2l-0.5,0.1c-0.2,0-0.3,0-0.7,0.1l0.2,0
				c-6.2,0.7-12.4,1.3-18.6,1.7c-6.2,0.4-12.5,0.5-18.7,0.6c-6.2,0.1-12.5-0.1-18.7-0.4c-6.2-0.3-12.5-0.8-18.7-1.4
				c-6.2-0.7-12.4-1.4-18.5-2.5c-3.1-0.5-6.2-1.1-9.2-1.8c-3.1-0.7-6.1-1.6-9.1-2.5c-6-1.8-11.9-3.9-17.5-6.9
				c-2.8-1.5-5.4-3.2-7.7-5.4c-1.1-1.1-2.2-2.3-2.9-3.7C403.6,380,403.1,378.4,403.2,376.9z"/>
		</g>
		<ellipse class="st2" cx="502.7" cy="374.7" rx="99.6" ry="27.1"/>
		<ellipse class="st0" cx="502.7" cy="374.7" rx="74.3" ry="12.7"/>
		<path class="st3" d="M577.1,374.7c0.2,4.8-21.7,9.2-26.6,10.2c-9.6,1.9-21.5,3.7-54.3,2.4c-23.4-0.9-31.6-0.8-38.2-2.1
			c-12.6-2.3-29.8-6-29.5-10.6c0.2-2.7,6.5-4.6,11.7-6.1c3.4-1,5.1-1.1,15.8-2.7c8.9-1.3,7.5-1.2,11.3-1.7
			c3.8-0.5,10.3-1.2,18.3-1.7c6.4-0.4,11.7-0.5,17.3-0.5c20.3-0.1,31.9,1,47.4,2.4c0,0,9.5,0.9,20.9,6
			C576.4,372.9,577.1,374,577.1,374.7z"/>
	</g>
	<g>
		<path class="st0" d="M215,287.2l-12.8,26.6c-6.5,13.5,28.4,43.8,77.9,67.6c49.5,23.8,95,32.2,101.5,18.7l12.8-26.6L215,287.2z"/>
		<g>
			<path class="st1" d="M202.2,313.8c-0.6,1.4-0.7,3-0.5,4.5l0.2,1.1c0.1,0.4,0.2,0.7,0.3,1.1c0.2,0.7,0.5,1.4,0.8,2.1
				c1.3,2.8,3.1,5.3,5,7.6c2,2.4,4.1,4.6,6.3,6.7c2.2,2.1,4.5,4.1,6.9,6.1c2.4,2.1,4.7,3.9,7.2,5.8c2.5,1.8,5,3.6,7.6,5.2
				c5.2,3.3,10.4,6.6,15.7,9.8c2.7,1.6,5.3,3.1,8,4.6c2.7,1.5,5.4,3,8.1,4.5c5.4,2.9,11,5.6,16.5,8.3c5.6,2.7,11.2,5.2,16.9,7.6
				c5.7,2.4,11.4,4.7,17.2,6.8l0.2,0.1l3.7,1.2l3.9,1.2c2.6,0.8,5.2,1.5,7.9,2.2c5.3,1.4,10.6,2.6,16,3.7c5.4,1.1,10.7,1.9,16.1,1.3
				c5.4-0.6,10.6-2.4,15.3-5.3c-4.4,3.3-9.6,5.7-15.1,6.6c-5.5,1-11.2,0.5-16.7-0.4c-5.5-0.8-10.9-1.8-16.3-3
				c-2.7-0.6-5.4-1.3-8.1-2c-1.3-0.4-2.7-0.7-4-1.1l-2-0.6l-1-0.3l-0.5-0.2c-0.2-0.1-0.2-0.1-0.7-0.2l0.2,0.1
				c-5.9-2-11.8-4.2-17.5-6.6c-5.8-2.4-11.5-4.9-17.1-7.6c-5.6-2.6-11.2-5.5-16.7-8.5c-5.5-3-10.9-6.1-16.2-9.4
				c-5.3-3.3-10.5-6.7-15.6-10.3c-2.6-1.8-5.1-3.7-7.5-5.6c-2.5-1.9-4.9-4.1-7.1-6.2c-4.6-4.2-9-8.7-12.8-13.8
				c-1.8-2.5-3.5-5.3-4.6-8.2c-0.5-1.5-1-3-1-4.6C201.2,316.8,201.5,315.2,202.2,313.8z"/>
		</g>
		<g>
			<path class="st1" d="M213.9,289.3c-0.6,1.4-0.7,3-0.5,4.5l0.2,1.1c0.1,0.4,0.2,0.7,0.3,1.1c0.2,0.7,0.5,1.4,0.8,2.1
				c1.3,2.8,3.1,5.3,5,7.6c2,2.4,4.1,4.6,6.3,6.7c2.2,2.1,4.5,4.1,6.9,6.1c2.4,2.1,4.7,3.9,7.2,5.8c2.5,1.8,5,3.6,7.6,5.2
				c5.2,3.3,10.4,6.6,15.7,9.8c2.7,1.6,5.3,3.1,8,4.6c2.7,1.5,5.4,3,8.1,4.5c5.4,2.9,11,5.6,16.5,8.3c5.6,2.7,11.2,5.2,16.9,7.6
				c5.7,2.4,11.4,4.7,17.2,6.8l0.2,0.1l3.7,1.2l3.9,1.2c2.6,0.8,5.2,1.5,7.9,2.2c5.3,1.4,10.6,2.6,16,3.7c5.4,1.1,10.7,1.9,16.1,1.3
				c5.4-0.6,10.6-2.4,15.3-5.3c-4.4,3.3-9.6,5.7-15.1,6.6c-5.5,1-11.2,0.5-16.7-0.4c-5.5-0.8-10.9-1.8-16.3-3
				c-2.7-0.6-5.4-1.3-8.1-2c-1.3-0.4-2.7-0.7-4-1.1l-2-0.6l-1-0.3l-0.5-0.2c-0.2-0.1-0.2-0.1-0.7-0.2l0.2,0.1
				c-5.9-2-11.8-4.2-17.5-6.6c-5.8-2.4-11.5-4.9-17.1-7.6c-5.6-2.6-11.2-5.5-16.7-8.5c-5.5-3-10.9-6.1-16.2-9.4
				c-5.3-3.3-10.5-6.7-15.6-10.3c-2.6-1.8-5.1-3.7-7.5-5.6c-2.5-1.9-4.9-4.1-7.1-6.2c-4.6-4.2-9-8.7-12.8-13.8
				c-1.8-2.5-3.5-5.3-4.6-8.2c-0.5-1.5-1-3-1-4.6C213,292.3,213.2,290.7,213.9,289.3z"/>
		</g>
		
			<ellipse transform="matrix(0.4336 -0.9011 0.9011 0.4336 -125.3599 461.6857)" class="st2" cx="304.6" cy="330.6" rx="27.1" ry="99.6"/>
		
			<ellipse transform="matrix(0.4336 -0.9011 0.9011 0.4336 -125.36 461.6855)" class="st0" cx="304.6" cy="330.6" rx="12.7" ry="74.3"/>
		<path class="st3" d="M371.6,362.8c-1.9,4.4-23.5-1.1-28.4-2.3c-9.4-2.4-21-6-50-21.4c-20.7-11-28.1-14.5-33.5-18.4
			c-10.3-7.6-24.3-18.3-22-22.4c1.3-2.3,7.8-1.3,13.2-0.5c3.5,0.6,5.1,1.2,15.4,4.5c8.6,2.7,7.3,2.2,10.9,3.4
			c3.6,1.2,9.8,3.3,17.2,6.4c5.9,2.4,10.7,4.6,15.8,7c18.3,8.8,28.3,14.7,41.7,22.7c0,0,8.2,4.9,16.3,14.5
			C371.8,360.9,371.9,362.1,371.6,362.8z"/>
	</g>
	<g>
		<path class="st0" d="M190.4,499.1v29.5c0,15,44.6,27.1,99.6,27.1s99.6-12.2,99.6-27.1v-29.5H190.4z"/>
		<g>
			<path class="st1" d="M190.4,528.6c0.1,1.6,0.7,3,1.5,4.3l0.7,0.9c0.2,0.3,0.5,0.6,0.8,0.8c0.5,0.6,1.1,1,1.7,1.6
				c2.4,1.9,5.1,3.4,7.8,4.7c2.8,1.3,5.7,2.3,8.6,3.3c2.9,1,5.9,1.7,8.9,2.5c3,0.8,5.9,1.5,9,2.1c3,0.6,6.1,1,9.1,1.4
				c6.1,0.8,12.3,1.5,18.4,2c3.1,0.3,6.2,0.5,9.2,0.7c3.1,0.2,6.2,0.4,9.2,0.5c6.2,0.3,12.3,0.3,18.5,0.3c6.2,0,12.4-0.2,18.5-0.5
				c6.2-0.3,12.3-0.7,18.5-1.3l0.2,0l3.8-0.5l4-0.6c2.7-0.4,5.4-0.9,8.1-1.4c5.4-1,10.7-2.2,16-3.6c5.3-1.4,10.5-2.9,15.1-5.8
				c4.6-2.8,8.5-6.8,11.5-11.4c-2.5,4.9-6.2,9.3-10.7,12.5c-4.6,3.3-9.9,5.3-15.2,6.9c-5.3,1.6-10.6,3.1-16,4.3
				c-2.7,0.6-5.4,1.2-8.1,1.7c-1.4,0.3-2.7,0.5-4.1,0.7l-2.1,0.3l-1,0.2l-0.5,0.1c-0.2,0-0.3,0-0.7,0.1l0.2,0
				c-6.2,0.7-12.4,1.3-18.6,1.7c-6.2,0.4-12.5,0.5-18.7,0.6c-6.2,0.1-12.5-0.1-18.7-0.4c-6.2-0.3-12.5-0.8-18.7-1.4
				c-6.2-0.7-12.4-1.4-18.5-2.5c-3.1-0.5-6.2-1.1-9.2-1.8c-3.1-0.7-6.1-1.6-9.1-2.5c-6-1.8-11.9-3.9-17.5-6.9
				c-2.8-1.5-5.4-3.2-7.7-5.4c-1.1-1.1-2.2-2.3-2.9-3.7C190.8,531.7,190.4,530.2,190.4,528.6z"/>
		</g>
		<g>
			<path class="st1" d="M190.4,501.5c0.1,1.6,0.7,3,1.5,4.3l0.7,0.9c0.2,0.3,0.5,0.6,0.8,0.8c0.5,0.6,1.1,1,1.7,1.6
				c2.4,1.9,5.1,3.4,7.8,4.7c2.8,1.3,5.7,2.3,8.6,3.3c2.9,1,5.9,1.7,8.9,2.5c3,0.8,5.9,1.5,9,2.1c3,0.6,6.1,1,9.1,1.4
				c6.1,0.8,12.3,1.5,18.4,2c3.1,0.3,6.2,0.5,9.2,0.7c3.1,0.2,6.2,0.4,9.2,0.5c6.2,0.3,12.3,0.3,18.5,0.3c6.2,0,12.4-0.2,18.5-0.5
				c6.2-0.3,12.3-0.7,18.5-1.3l0.2,0l3.8-0.5l4-0.6c2.7-0.4,5.4-0.9,8.1-1.4c5.4-1,10.7-2.2,16-3.6c5.3-1.4,10.5-2.9,15.1-5.8
				c4.6-2.8,8.5-6.8,11.5-11.4c-2.5,4.9-6.2,9.3-10.7,12.5c-4.6,3.3-9.9,5.3-15.2,6.9c-5.3,1.6-10.6,3.1-16,4.3
				c-2.7,0.6-5.4,1.2-8.1,1.7c-1.4,0.3-2.7,0.5-4.1,0.7l-2.1,0.3l-1,0.2l-0.5,0.1c-0.2,0-0.3,0-0.7,0.1l0.2,0
				c-6.2,0.7-12.4,1.3-18.6,1.7c-6.2,0.4-12.5,0.5-18.7,0.6c-6.2,0.1-12.5-0.1-18.7-0.4c-6.2-0.3-12.5-0.8-18.7-1.4
				c-6.2-0.7-12.4-1.4-18.5-2.5c-3.1-0.5-6.2-1.1-9.2-1.8c-3.1-0.7-6.1-1.6-9.1-2.5c-6-1.8-11.9-3.9-17.5-6.9
				c-2.8-1.5-5.4-3.2-7.7-5.4c-1.1-1.1-2.2-2.3-2.9-3.7C190.8,504.6,190.4,503,190.4,501.5z"/>
		</g>
		<ellipse class="st2" cx="290" cy="499.3" rx="99.6" ry="27.1"/>
		<ellipse class="st0" cx="290" cy="499.3" rx="74.3" ry="12.7"/>
		<path class="st3" d="M364.3,499.3c0.2,4.8-21.7,9.2-26.6,10.2c-9.6,1.9-21.5,3.7-54.3,2.4c-23.4-0.9-31.6-0.8-38.2-2.1
			c-12.6-2.3-29.8-6-29.5-10.6c0.2-2.7,6.5-4.6,11.7-6.1c3.4-1,5.1-1.1,15.8-2.7c8.9-1.3,7.5-1.2,11.3-1.7
			c3.8-0.5,10.3-1.2,18.3-1.7c6.4-0.4,11.7-0.5,17.3-0.5c20.3-0.1,31.9,1,47.4,2.4c0,0,9.5,0.9,20.9,6
			C363.7,497.5,364.3,498.6,364.3,499.3z"/>
	</g>
</g>
</svg>
