<?xml version="1.0" encoding="utf-8"?>
<!-- Generator: Adobe Illustrator 25.2.1, SVG Export Plug-In . SVG Version: 6.00 Build 0)  -->
<svg version="1.1" id="Layer_1" xmlns="http://www.w3.org/2000/svg" xmlns:xlink="http://www.w3.org/1999/xlink" x="0px" y="0px"
	 viewBox="0 0 746.7 562.2" style="enable-background:new 0 0 746.7 562.2;" xml:space="preserve">
<style type="text/css">
	.st0{fill:#FFC50D;}
	.st1{fill:#EFAA0F;}
	.st2{fill:#FEE100;}
	.st3{fill:none;stroke:#EFAA0F;stroke-width:3;stroke-miterlimit:10;}
</style>
<g>
	<g>
		<path class="st0" d="M148,449.4v29.5c0,15,44.6,27.1,99.6,27.1s99.6-12.2,99.6-27.1v-29.5H148z"/>
		<g>
			<path class="st1" d="M148,478.9c0.1,1.6,0.7,3,1.5,4.3l0.7,0.9c0.2,0.3,0.5,0.6,0.8,0.8c0.5,0.6,1.1,1,1.7,1.6
				c2.4,1.9,5.1,3.4,7.8,4.7c2.8,1.3,5.7,2.3,8.6,3.3c2.9,1,5.9,1.7,8.9,2.5c3,0.8,5.9,1.5,9,2.1c3,0.6,6.1,1,9.1,1.4
				c6.1,0.8,12.3,1.5,18.4,2c3.1,0.3,6.2,0.5,9.2,0.7c3.1,0.2,6.2,0.4,9.2,0.5c6.2,0.3,12.3,0.3,18.5,0.3c6.2,0,12.4-0.2,18.5-0.5
				c6.2-0.3,12.3-0.7,18.5-1.3l0.2,0l3.8-0.5l4-0.6c2.7-0.4,5.4-0.9,8.1-1.4c5.4-1,10.7-2.2,16-3.6c5.3-1.4,10.5-2.9,15.1-5.8
				c4.6-2.8,8.5-6.8,11.5-11.4c-2.5,4.9-6.2,9.3-10.7,12.5c-4.6,3.3-9.9,5.3-15.2,6.9c-5.3,1.6-10.6,3.1-16,4.3
				c-2.7,0.6-5.4,1.2-8.1,1.7c-1.4,0.3-2.7,0.5-4.1,0.7l-2.1,0.3l-1,0.2l-0.5,0.1c-0.2,0-0.3,0-0.7,0.1l0.2,0
				c-6.2,0.7-12.4,1.3-18.6,1.7c-6.2,0.4-12.5,0.5-18.7,0.6c-6.2,0.1-12.5-0.1-18.7-0.4c-6.2-0.3-12.5-0.8-18.7-1.4
				c-6.2-0.7-12.4-1.4-18.5-2.5c-3.1-0.5-6.2-1.1-9.2-1.8c-3.1-0.7-6.1-1.6-9.1-2.5c-6-1.8-11.9-3.9-17.5-6.9
				c-2.8-1.5-5.4-3.2-7.7-5.4c-1.1-1.1-2.2-2.3-2.9-3.7C148.4,482,147.9,480.5,148,478.9z"/>
		</g>
		<g>
			<path class="st1" d="M148,451.8c0.1,1.6,0.7,3,1.5,4.3l0.7,0.9c0.2,0.3,0.5,0.6,0.8,0.8c0.5,0.6,1.1,1,1.7,1.6
				c2.4,1.9,5.1,3.4,7.8,4.7c2.8,1.3,5.7,2.3,8.6,3.3c2.9,1,5.9,1.7,8.9,2.5c3,0.8,5.9,1.5,9,2.1c3,0.6,6.1,1,9.1,1.4
				c6.1,0.8,12.3,1.5,18.4,2c3.1,0.3,6.2,0.5,9.2,0.7c3.1,0.2,6.2,0.4,9.2,0.5c6.2,0.3,12.3,0.3,18.5,0.3c6.2,0,12.4-0.2,18.5-0.5
				c6.2-0.3,12.3-0.7,18.5-1.3l0.2,0l3.8-0.5l4-0.6c2.7-0.4,5.4-0.9,8.1-1.4c5.4-1,10.7-2.2,16-3.6c5.3-1.4,10.5-2.9,15.1-5.8
				c4.6-2.8,8.5-6.8,11.5-11.4c-2.5,4.9-6.2,9.3-10.7,12.5c-4.6,3.3-9.9,5.3-15.2,6.9c-5.3,1.6-10.6,3.1-16,4.3
				c-2.7,0.6-5.4,1.2-8.1,1.7c-1.4,0.3-2.7,0.5-4.1,0.7l-2.1,0.3l-1,0.2l-0.5,0.1c-0.2,0-0.3,0-0.7,0.1l0.2,0
				c-6.2,0.7-12.4,1.3-18.6,1.7c-6.2,0.4-12.5,0.5-18.7,0.6c-6.2,0.1-12.5-0.1-18.7-0.4c-6.2-0.3-12.5-0.8-18.7-1.4
				c-6.2-0.7-12.4-1.4-18.5-2.5c-3.1-0.5-6.2-1.1-9.2-1.8c-3.1-0.7-6.1-1.6-9.1-2.5c-6-1.8-11.9-3.9-17.5-6.9
				c-2.8-1.5-5.4-3.2-7.7-5.4c-1.1-1.1-2.2-2.3-2.9-3.7C148.4,454.9,147.9,453.4,148,451.8z"/>
		</g>
		<ellipse class="st2" cx="247.5" cy="449.7" rx="99.6" ry="27.1"/>
		<ellipse class="st0" cx="247.5" cy="449.7" rx="74.3" ry="12.7"/>
		<path class="st3" d="M321.9,449.7c0.2,4.8-21.7,9.2-26.6,10.2c-9.6,1.9-21.5,3.7-54.3,2.4c-23.4-0.9-31.6-0.8-38.2-2.1
			c-12.6-2.3-29.8-6-29.5-10.6c0.2-2.7,6.5-4.6,11.7-6.1c3.4-1,5.1-1.1,15.8-2.7c8.9-1.3,7.5-1.2,11.3-1.7
			c3.8-0.5,10.3-1.2,18.3-1.7c6.4-0.4,11.7-0.5,17.3-0.5c20.3-0.1,31.9,1,47.4,2.4c0,0,9.5,0.9,20.9,6
			C321.2,447.8,321.9,448.9,321.9,449.7z"/>
	</g>
	<g>
		<path class="st0" d="M148,422.1v29.5c0,15,44.6,27.1,99.6,27.1s99.6-12.2,99.6-27.1v-29.5H148z"/>
		<g>
			<path class="st1" d="M148,451.6c0.1,1.6,0.7,3,1.5,4.3l0.7,0.9c0.2,0.3,0.5,0.6,0.8,0.8c0.5,0.6,1.1,1,1.7,1.6
				c2.4,1.9,5.1,3.4,7.8,4.7c2.8,1.3,5.7,2.3,8.6,3.3c2.9,1,5.9,1.7,8.9,2.5c3,0.8,5.9,1.5,9,2.1c3,0.6,6.1,1,9.1,1.4
				c6.1,0.8,12.3,1.5,18.4,2c3.1,0.3,6.2,0.5,9.2,0.7c3.1,0.2,6.2,0.4,9.2,0.5c6.2,0.3,12.3,0.3,18.5,0.3c6.2,0,12.4-0.2,18.5-0.5
				c6.2-0.3,12.3-0.7,18.5-1.3l0.2,0l3.8-0.5l4-0.6c2.7-0.4,5.4-0.9,8.1-1.4c5.4-1,10.7-2.2,16-3.6c5.3-1.4,10.5-2.9,15.1-5.8
				c4.6-2.8,8.5-6.8,11.5-11.4c-2.5,4.9-6.2,9.3-10.7,12.5c-4.6,3.3-9.9,5.3-15.2,6.9c-5.3,1.6-10.6,3.1-16,4.3
				c-2.7,0.6-5.4,1.2-8.1,1.7c-1.4,0.3-2.7,0.5-4.1,0.7l-2.1,0.3l-1,0.2l-0.5,0.1c-0.2,0-0.3,0-0.7,0.1l0.2,0
				c-6.2,0.7-12.4,1.3-18.6,1.7c-6.2,0.4-12.5,0.5-18.7,0.6c-6.2,0.1-12.5-0.1-18.7-0.4c-6.2-0.3-12.5-0.8-18.7-1.4
				c-6.2-0.7-12.4-1.4-18.5-2.5c-3.1-0.5-6.2-1.1-9.2-1.8c-3.1-0.7-6.1-1.6-9.1-2.5c-6-1.8-11.9-3.9-17.5-6.9
				c-2.8-1.5-5.4-3.2-7.7-5.4c-1.1-1.1-2.2-2.3-2.9-3.7C148.4,454.7,147.9,453.2,148,451.6z"/>
		</g>
		<g>
			<path class="st1" d="M148,424.5c0.1,1.6,0.7,3,1.5,4.3l0.7,0.9c0.2,0.3,0.5,0.6,0.8,0.8c0.5,0.6,1.1,1,1.7,1.6
				c2.4,1.9,5.1,3.4,7.8,4.7c2.8,1.3,5.7,2.3,8.6,3.3c2.9,1,5.9,1.7,8.9,2.5c3,0.8,5.9,1.5,9,2.1c3,0.6,6.1,1,9.1,1.4
				c6.1,0.8,12.3,1.5,18.4,2c3.1,0.3,6.2,0.5,9.2,0.7c3.1,0.2,6.2,0.4,9.2,0.5c6.2,0.3,12.3,0.3,18.5,0.3c6.2,0,12.4-0.2,18.5-0.5
				c6.2-0.3,12.3-0.7,18.5-1.3l0.2,0l3.8-0.5l4-0.6c2.7-0.4,5.4-0.9,8.1-1.4c5.4-1,10.7-2.2,16-3.6c5.3-1.4,10.5-2.9,15.1-5.8
				c4.6-2.8,8.5-6.8,11.5-11.4c-2.5,4.9-6.2,9.3-10.7,12.5c-4.6,3.3-9.9,5.3-15.2,6.9c-5.3,1.6-10.6,3.1-16,4.3
				c-2.7,0.6-5.4,1.2-8.1,1.7c-1.4,0.3-2.7,0.5-4.1,0.7l-2.1,0.3l-1,0.2l-0.5,0.1c-0.2,0-0.3,0-0.7,0.1l0.2,0
				c-6.2,0.7-12.4,1.3-18.6,1.7c-6.2,0.4-12.5,0.5-18.7,0.6c-6.2,0.1-12.5-0.1-18.7-0.4c-6.2-0.3-12.5-0.8-18.7-1.4
				c-6.2-0.7-12.4-1.4-18.5-2.5c-3.1-0.5-6.2-1.1-9.2-1.8c-3.1-0.7-6.1-1.6-9.1-2.5c-6-1.8-11.9-3.9-17.5-6.9
				c-2.8-1.5-5.4-3.2-7.7-5.4c-1.1-1.1-2.2-2.3-2.9-3.7C148.4,427.6,147.9,426.1,148,424.5z"/>
		</g>
		<ellipse class="st2" cx="247.5" cy="422.4" rx="99.6" ry="27.1"/>
		<ellipse class="st0" cx="247.5" cy="422.4" rx="74.3" ry="12.7"/>
		<path class="st3" d="M321.9,422.4c0.2,4.8-21.7,9.2-26.6,10.2c-9.6,1.9-21.5,3.7-54.3,2.4c-23.4-0.9-31.6-0.8-38.2-2.1
			c-12.6-2.3-29.8-6-29.5-10.6c0.2-2.7,6.5-4.6,11.7-6.1c3.4-1,5.1-1.1,15.8-2.7c8.9-1.3,7.5-1.2,11.3-1.7
			c3.8-0.5,10.3-1.2,18.3-1.7c6.4-0.4,11.7-0.5,17.3-0.5c20.3-0.1,31.9,1,47.4,2.4c0,0,9.5,0.9,20.9,6
			C321.2,420.5,321.9,421.6,321.9,422.4z"/>
	</g>
	<g>
		<path class="st0" d="M173.2,394.8v29.5c0,15,44.6,27.1,99.6,27.1s99.6-12.2,99.6-27.1v-29.5H173.2z"/>
		<g>
			<path class="st1" d="M173.2,424.3c0.1,1.6,0.7,3,1.5,4.3l0.7,0.9c0.2,0.3,0.5,0.6,0.8,0.8c0.5,0.6,1.1,1,1.7,1.6
				c2.4,1.9,5.1,3.4,7.8,4.7c2.8,1.3,5.7,2.3,8.6,3.3c2.9,1,5.9,1.7,8.9,2.5c3,0.8,5.9,1.5,9,2.1c3,0.6,6.1,1,9.1,1.4
				c6.1,0.8,12.3,1.5,18.4,2c3.1,0.3,6.2,0.5,9.2,0.7c3.1,0.2,6.2,0.4,9.2,0.5c6.2,0.3,12.3,0.3,18.5,0.3c6.2,0,12.4-0.2,18.5-0.5
				c6.2-0.3,12.3-0.7,18.5-1.3l0.2,0l3.8-0.5l4-0.6c2.7-0.4,5.4-0.9,8.1-1.4c5.4-1,10.7-2.2,16-3.6c5.3-1.4,10.5-2.9,15.1-5.8
				c4.6-2.8,8.5-6.8,11.5-11.4c-2.5,4.9-6.2,9.3-10.7,12.5c-4.6,3.3-9.9,5.3-15.2,6.9c-5.3,1.6-10.6,3.1-16,4.3
				c-2.7,0.6-5.4,1.2-8.1,1.7c-1.4,0.3-2.7,0.5-4.1,0.7l-2.1,0.3l-1,0.2l-0.5,0.1c-0.2,0-0.3,0-0.7,0.1l0.2,0
				c-6.2,0.7-12.4,1.3-18.6,1.7c-6.2,0.4-12.5,0.5-18.7,0.6c-6.2,0.1-12.5-0.1-18.7-0.4c-6.2-0.3-12.5-0.8-18.7-1.4
				c-6.2-0.7-12.4-1.4-18.5-2.5c-3.1-0.5-6.2-1.1-9.2-1.8c-3.1-0.7-6.1-1.6-9.1-2.5c-6-1.8-11.9-3.9-17.5-6.9
				c-2.8-1.5-5.4-3.2-7.7-5.4c-1.1-1.1-2.2-2.3-2.9-3.7C173.6,427.5,173.2,425.9,173.2,424.3z"/>
		</g>
		<g>
			<path class="st1" d="M173.2,397.2c0.1,1.6,0.7,3,1.5,4.3l0.7,0.9c0.2,0.3,0.5,0.6,0.8,0.8c0.5,0.6,1.1,1,1.7,1.6
				c2.4,1.9,5.1,3.4,7.8,4.7c2.8,1.3,5.7,2.3,8.6,3.3c2.9,1,5.9,1.7,8.9,2.5c3,0.8,5.9,1.5,9,2.1c3,0.6,6.1,1,9.1,1.4
				c6.1,0.8,12.3,1.5,18.4,2c3.1,0.3,6.2,0.5,9.2,0.7c3.1,0.2,6.2,0.4,9.2,0.5c6.2,0.3,12.3,0.3,18.5,0.3c6.2,0,12.4-0.2,18.5-0.5
				c6.2-0.3,12.3-0.7,18.5-1.3l0.2,0l3.8-0.5l4-0.6c2.7-0.4,5.4-0.9,8.1-1.4c5.4-1,10.7-2.2,16-3.6c5.3-1.4,10.5-2.9,15.1-5.8
				c4.6-2.8,8.5-6.8,11.5-11.4c-2.5,4.9-6.2,9.3-10.7,12.5c-4.6,3.3-9.9,5.3-15.2,6.9c-5.3,1.6-10.6,3.1-16,4.3
				c-2.7,0.6-5.4,1.2-8.1,1.7c-1.4,0.3-2.7,0.5-4.1,0.7l-2.1,0.3l-1,0.2l-0.5,0.1c-0.2,0-0.3,0-0.7,0.1l0.2,0
				c-6.2,0.7-12.4,1.3-18.6,1.7c-6.2,0.4-12.5,0.5-18.7,0.6c-6.2,0.1-12.5-0.1-18.7-0.4c-6.2-0.3-12.5-0.8-18.7-1.4
				c-6.2-0.7-12.4-1.4-18.5-2.5c-3.1-0.5-6.2-1.1-9.2-1.8c-3.1-0.7-6.1-1.6-9.1-2.5c-6-1.8-11.9-3.9-17.5-6.9
				c-2.8-1.5-5.4-3.2-7.7-5.4c-1.1-1.1-2.2-2.3-2.9-3.7C173.6,400.3,173.2,398.8,173.2,397.2z"/>
		</g>
		<ellipse class="st2" cx="272.8" cy="395.1" rx="99.6" ry="27.1"/>
		<ellipse class="st0" cx="272.8" cy="395.1" rx="74.3" ry="12.7"/>
		<path class="st3" d="M347.1,395.1c0.2,4.8-21.7,9.2-26.6,10.2c-9.6,1.9-21.5,3.7-54.3,2.4c-23.4-0.9-31.6-0.8-38.2-2.1
			c-12.6-2.3-29.8-6-29.5-10.6c0.2-2.7,6.5-4.6,11.7-6.1c3.4-1,5.1-1.1,15.8-2.7c8.9-1.3,7.5-1.2,11.3-1.7
			c3.8-0.5,10.3-1.2,18.3-1.7c6.4-0.4,11.7-0.5,17.3-0.5c20.3-0.1,31.9,1,47.4,2.4c0,0,9.5,0.9,20.9,6
			C346.4,393.2,347.1,394.3,347.1,395.1z"/>
	</g>
	<g>
		<path class="st0" d="M122.8,360.7v29.5c0,15,44.6,27.1,99.6,27.1s99.6-12.2,99.6-27.1v-29.5H122.8z"/>
		<g>
			<path class="st1" d="M122.8,390.2c0.1,1.6,0.7,3,1.5,4.3l0.7,0.9c0.2,0.3,0.5,0.6,0.8,0.8c0.5,0.6,1.1,1,1.7,1.6
				c2.4,1.9,5.1,3.4,7.8,4.7c2.8,1.3,5.7,2.3,8.6,3.3c2.9,1,5.9,1.7,8.9,2.5c3,0.8,5.9,1.5,9,2.1c3,0.6,6.1,1,9.1,1.4
				c6.1,0.8,12.3,1.5,18.4,2c3.1,0.3,6.2,0.5,9.2,0.7c3.1,0.2,6.2,0.4,9.2,0.5c6.2,0.3,12.3,0.3,18.5,0.3c6.2,0,12.4-0.2,18.5-0.5
				c6.2-0.3,12.3-0.7,18.5-1.3l0.2,0l3.8-0.5l4-0.6c2.7-0.4,5.4-0.9,8.1-1.4c5.4-1,10.7-2.2,16-3.6c5.3-1.4,10.5-2.9,15.1-5.8
				c4.6-2.8,8.5-6.8,11.5-11.4c-2.5,4.9-6.2,9.3-10.7,12.5c-4.6,3.3-9.9,5.3-15.2,6.9c-5.3,1.6-10.6,3.1-16,4.3
				c-2.7,0.6-5.4,1.2-8.1,1.7c-1.4,0.3-2.7,0.5-4.1,0.7l-2.1,0.3l-1,0.2l-0.5,0.1c-0.2,0-0.3,0-0.7,0.1l0.2,0
				c-6.2,0.7-12.4,1.3-18.6,1.7c-6.2,0.4-12.5,0.5-18.7,0.6c-6.2,0.1-12.5-0.1-18.7-0.4c-6.2-0.3-12.5-0.8-18.7-1.4
				c-6.2-0.7-12.4-1.4-18.5-2.5c-3.1-0.5-6.2-1.1-9.2-1.8c-3.1-0.7-6.1-1.6-9.1-2.5c-6-1.8-11.9-3.9-17.5-6.9
				c-2.8-1.5-5.4-3.2-7.7-5.4c-1.1-1.1-2.2-2.3-2.9-3.7C123.2,393.3,122.7,391.7,122.8,390.2z"/>
		</g>
		<g>
			<path class="st1" d="M122.8,363c0.1,1.6,0.7,3,1.5,4.3l0.7,0.9c0.2,0.3,0.5,0.6,0.8,0.8c0.5,0.6,1.1,1,1.7,1.6
				c2.4,1.9,5.1,3.4,7.8,4.7c2.8,1.3,5.7,2.3,8.6,3.3c2.9,1,5.9,1.7,8.9,2.5c3,0.8,5.9,1.5,9,2.1c3,0.6,6.1,1,9.1,1.4
				c6.1,0.8,12.3,1.5,18.4,2c3.1,0.3,6.2,0.5,9.2,0.7c3.1,0.2,6.2,0.4,9.2,0.5c6.2,0.3,12.3,0.3,18.5,0.3c6.2,0,12.4-0.2,18.5-0.5
				c6.2-0.3,12.3-0.7,18.5-1.3l0.2,0l3.8-0.5l4-0.6c2.7-0.4,5.4-0.9,8.1-1.4c5.4-1,10.7-2.2,16-3.6c5.3-1.4,10.5-2.9,15.1-5.8
				c4.6-2.8,8.5-6.8,11.5-11.4c-2.5,4.9-6.2,9.3-10.7,12.5c-4.6,3.3-9.9,5.3-15.2,6.9c-5.3,1.6-10.6,3.1-16,4.3
				c-2.7,0.6-5.4,1.2-8.1,1.7c-1.4,0.3-2.7,0.5-4.1,0.7l-2.1,0.3l-1,0.2l-0.5,0.1c-0.2,0-0.3,0-0.7,0.1l0.2,0
				c-6.2,0.7-12.4,1.3-18.6,1.7c-6.2,0.4-12.5,0.5-18.7,0.6c-6.2,0.1-12.5-0.1-18.7-0.4c-6.2-0.3-12.5-0.8-18.7-1.4
				c-6.2-0.7-12.4-1.4-18.5-2.5c-3.1-0.5-6.2-1.1-9.2-1.8c-3.1-0.7-6.1-1.6-9.1-2.5c-6-1.8-11.9-3.9-17.5-6.9
				c-2.8-1.5-5.4-3.2-7.7-5.4c-1.1-1.1-2.2-2.3-2.9-3.7C123.2,366.1,122.7,364.6,122.8,363z"/>
		</g>
		<ellipse class="st2" cx="222.3" cy="360.9" rx="99.6" ry="27.1"/>
		<ellipse class="st0" cx="222.3" cy="360.9" rx="74.3" ry="12.7"/>
		<path class="st3" d="M296.7,360.9c0.2,4.8-21.7,9.2-26.6,10.2c-9.6,1.9-21.5,3.7-54.3,2.4c-23.4-0.9-31.6-0.8-38.2-2.1
			c-12.6-2.3-29.8-6-29.5-10.6c0.2-2.7,6.5-4.6,11.7-6.1c3.4-1,5.1-1.1,15.8-2.7c8.9-1.3,7.5-1.2,11.3-1.7
			c3.8-0.5,10.3-1.2,18.3-1.7c6.4-0.4,11.7-0.5,17.3-0.5c20.3-0.1,31.9,1,47.4,2.4c0,0,9.5,0.9,20.9,6
			C296,359.1,296.6,360.1,296.7,360.9z"/>
	</g>
	<g>
		<path class="st0" d="M163.3,330.9v29.5c0,15,44.6,27.1,99.6,27.1s99.6-12.2,99.6-27.1v-29.5H163.3z"/>
		<g>
			<path class="st1" d="M163.3,360.5c0.1,1.6,0.7,3,1.5,4.3l0.7,0.9c0.2,0.3,0.5,0.6,0.8,0.8c0.5,0.6,1.1,1,1.7,1.6
				c2.4,1.9,5.1,3.4,7.8,4.7c2.8,1.3,5.7,2.3,8.6,3.3c2.9,1,5.9,1.7,8.9,2.5c3,0.8,5.9,1.5,9,2.1c3,0.6,6.1,1,9.1,1.4
				c6.1,0.8,12.3,1.5,18.4,2c3.1,0.3,6.2,0.5,9.2,0.7c3.1,0.2,6.2,0.4,9.2,0.5c6.2,0.3,12.3,0.3,18.5,0.3c6.2,0,12.4-0.2,18.5-0.5
				c6.2-0.3,12.3-0.7,18.5-1.3l0.2,0l3.8-0.5l4-0.6c2.7-0.4,5.4-0.9,8.1-1.4c5.4-1,10.7-2.2,16-3.6c5.3-1.4,10.5-2.9,15.1-5.8
				c4.6-2.8,8.5-6.8,11.5-11.4c-2.5,4.9-6.2,9.3-10.7,12.5c-4.6,3.3-9.9,5.3-15.2,6.9c-5.3,1.6-10.6,3.1-16,4.3
				c-2.7,0.6-5.4,1.2-8.1,1.7c-1.4,0.3-2.7,0.5-4.1,0.7l-2.1,0.3l-1,0.2l-0.5,0.1c-0.2,0-0.3,0-0.7,0.1l0.2,0
				c-6.2,0.7-12.4,1.3-18.6,1.7c-6.2,0.4-12.5,0.5-18.7,0.6c-6.2,0.1-12.5-0.1-18.7-0.4c-6.2-0.3-12.5-0.8-18.7-1.4
				c-6.2-0.7-12.4-1.4-18.5-2.5c-3.1-0.5-6.2-1.1-9.2-1.8c-3.1-0.7-6.1-1.6-9.1-2.5c-6-1.8-11.9-3.9-17.5-6.9
				c-2.8-1.5-5.4-3.2-7.7-5.4c-1.1-1.1-2.2-2.3-2.9-3.7C163.7,363.6,163.3,362,163.3,360.5z"/>
		</g>
		<g>
			<path class="st1" d="M163.3,333.3c0.1,1.6,0.7,3,1.5,4.3l0.7,0.9c0.2,0.3,0.5,0.6,0.8,0.8c0.5,0.6,1.1,1,1.7,1.6
				c2.4,1.9,5.1,3.4,7.8,4.7c2.8,1.3,5.7,2.3,8.6,3.3c2.9,1,5.9,1.7,8.9,2.5c3,0.8,5.9,1.5,9,2.1c3,0.6,6.1,1,9.1,1.4
				c6.1,0.8,12.3,1.5,18.4,2c3.1,0.3,6.2,0.5,9.2,0.7c3.1,0.2,6.2,0.4,9.2,0.5c6.2,0.3,12.3,0.3,18.5,0.3c6.2,0,12.4-0.2,18.5-0.5
				c6.2-0.3,12.3-0.7,18.5-1.3l0.2,0l3.8-0.5l4-0.6c2.7-0.4,5.4-0.9,8.1-1.4c5.4-1,10.7-2.2,16-3.6c5.3-1.4,10.5-2.9,15.1-5.8
				c4.6-2.8,8.5-6.8,11.5-11.4c-2.5,4.9-6.2,9.3-10.7,12.5c-4.6,3.3-9.9,5.3-15.2,6.9c-5.3,1.6-10.6,3.1-16,4.3
				c-2.7,0.6-5.4,1.2-8.1,1.7c-1.4,0.3-2.7,0.5-4.1,0.7l-2.1,0.3l-1,0.2l-0.5,0.1c-0.2,0-0.3,0-0.7,0.1l0.2,0
				c-6.2,0.7-12.4,1.3-18.6,1.7c-6.2,0.4-12.5,0.5-18.7,0.6c-6.2,0.1-12.5-0.1-18.7-0.4c-6.2-0.3-12.5-0.8-18.7-1.4
				c-6.2-0.7-12.4-1.4-18.5-2.5c-3.1-0.5-6.2-1.1-9.2-1.8c-3.1-0.7-6.1-1.6-9.1-2.5c-6-1.8-11.9-3.9-17.5-6.9
				c-2.8-1.5-5.4-3.2-7.7-5.4c-1.1-1.1-2.2-2.3-2.9-3.7C163.7,336.4,163.3,334.9,163.3,333.3z"/>
		</g>
		<ellipse class="st2" cx="262.9" cy="331.2" rx="99.6" ry="27.1"/>
		<ellipse class="st0" cx="262.9" cy="331.2" rx="74.3" ry="12.7"/>
		<path class="st3" d="M337.2,331.2c0.2,4.8-21.7,9.2-26.6,10.2c-9.6,1.9-21.5,3.7-54.3,2.4c-23.4-0.9-31.6-0.8-38.2-2.1
			c-12.6-2.3-29.8-6-29.5-10.6c0.2-2.7,6.5-4.6,11.7-6.1c3.4-1,5.1-1.1,15.8-2.7c8.9-1.3,7.5-1.2,11.3-1.7
			c3.8-0.5,10.3-1.2,18.3-1.7c6.4-0.4,11.7-0.5,17.3-0.5c20.3-0.1,31.9,1,47.4,2.4c0,0,9.5,0.9,20.9,6
			C336.6,329.3,337.2,330.4,337.2,331.2z"/>
	</g>
	<g>
		<path class="st0" d="M163.3,303.6v29.5c0,15,44.6,27.1,99.6,27.1s99.6-12.2,99.6-27.1v-29.5H163.3z"/>
		<g>
			<path class="st1" d="M163.3,333.2c0.1,1.6,0.7,3,1.5,4.3l0.7,0.9c0.2,0.3,0.5,0.6,0.8,0.8c0.5,0.6,1.1,1,1.7,1.6
				c2.4,1.9,5.1,3.4,7.8,4.7c2.8,1.3,5.7,2.3,8.6,3.3c2.9,1,5.9,1.7,8.9,2.5c3,0.8,5.9,1.5,9,2.1c3,0.6,6.1,1,9.1,1.4
				c6.1,0.8,12.3,1.5,18.4,2c3.1,0.3,6.2,0.5,9.2,0.7c3.1,0.2,6.2,0.4,9.2,0.5c6.2,0.3,12.3,0.3,18.5,0.3c6.2,0,12.4-0.2,18.5-0.5
				c6.2-0.3,12.3-0.7,18.5-1.3l0.2,0l3.8-0.5l4-0.6c2.7-0.4,5.4-0.9,8.1-1.4c5.4-1,10.7-2.2,16-3.6c5.3-1.4,10.5-2.9,15.1-5.8
				c4.6-2.8,8.5-6.8,11.5-11.4c-2.5,4.9-6.2,9.3-10.7,12.5c-4.6,3.3-9.9,5.3-15.2,6.9c-5.3,1.6-10.6,3.1-16,4.3
				c-2.7,0.6-5.4,1.2-8.1,1.7c-1.4,0.3-2.7,0.5-4.1,0.7l-2.1,0.3l-1,0.2l-0.5,0.1c-0.2,0-0.3,0-0.7,0.1l0.2,0
				c-6.2,0.7-12.4,1.3-18.6,1.7c-6.2,0.4-12.5,0.5-18.7,0.6c-6.2,0.1-12.5-0.1-18.7-0.4c-6.2-0.3-12.5-0.8-18.7-1.4
				c-6.2-0.7-12.4-1.4-18.5-2.5c-3.1-0.5-6.2-1.1-9.2-1.8c-3.1-0.7-6.1-1.6-9.1-2.5c-6-1.8-11.9-3.9-17.5-6.9
				c-2.8-1.5-5.4-3.2-7.7-5.4c-1.1-1.1-2.2-2.3-2.9-3.7C163.7,336.3,163.3,334.7,163.3,333.2z"/>
		</g>
		<g>
			<path class="st1" d="M163.3,306c0.1,1.6,0.7,3,1.5,4.3l0.7,0.9c0.2,0.3,0.5,0.6,0.8,0.8c0.5,0.6,1.1,1,1.7,1.6
				c2.4,1.9,5.1,3.4,7.8,4.7c2.8,1.3,5.7,2.3,8.6,3.3c2.9,1,5.9,1.7,8.9,2.5c3,0.8,5.9,1.5,9,2.1c3,0.6,6.1,1,9.1,1.4
				c6.1,0.8,12.3,1.5,18.4,2c3.1,0.3,6.2,0.5,9.2,0.7c3.1,0.2,6.2,0.4,9.2,0.5c6.2,0.3,12.3,0.3,18.5,0.3c6.2,0,12.4-0.2,18.5-0.5
				c6.2-0.3,12.3-0.7,18.5-1.3l0.2,0l3.8-0.5l4-0.6c2.7-0.4,5.4-0.9,8.1-1.4c5.4-1,10.7-2.2,16-3.6c5.3-1.4,10.5-2.9,15.1-5.8
				c4.6-2.8,8.5-6.8,11.5-11.4c-2.5,4.9-6.2,9.3-10.7,12.5c-4.6,3.3-9.9,5.3-15.2,6.9c-5.3,1.6-10.6,3.1-16,4.3
				c-2.7,0.6-5.4,1.2-8.1,1.7c-1.4,0.3-2.7,0.5-4.1,0.7l-2.1,0.3l-1,0.2l-0.5,0.1c-0.2,0-0.3,0-0.7,0.1l0.2,0
				c-6.2,0.7-12.4,1.3-18.6,1.7c-6.2,0.4-12.5,0.5-18.7,0.6c-6.2,0.1-12.5-0.1-18.7-0.4c-6.2-0.3-12.5-0.8-18.7-1.4
				c-6.2-0.7-12.4-1.4-18.5-2.5c-3.1-0.5-6.2-1.1-9.2-1.8c-3.1-0.7-6.1-1.6-9.1-2.5c-6-1.8-11.9-3.9-17.5-6.9
				c-2.8-1.5-5.4-3.2-7.7-5.4c-1.1-1.1-2.2-2.3-2.9-3.7C163.7,309.1,163.3,307.6,163.3,306z"/>
		</g>
		<ellipse class="st2" cx="262.9" cy="303.9" rx="99.6" ry="27.1"/>
		<ellipse class="st0" cx="262.9" cy="303.9" rx="74.3" ry="12.7"/>
		<path class="st3" d="M337.2,303.9c0.2,4.8-21.7,9.2-26.6,10.2c-9.6,1.9-21.5,3.7-54.3,2.4c-23.4-0.9-31.6-0.8-38.2-2.1
			c-12.6-2.3-29.8-6-29.5-10.6c0.2-2.7,6.5-4.6,11.7-6.1c3.4-1,5.1-1.1,15.8-2.7c8.9-1.3,7.5-1.2,11.3-1.7
			c3.8-0.5,10.3-1.2,18.3-1.7c6.4-0.4,11.7-0.5,17.3-0.5c20.3-0.1,31.9,1,47.4,2.4c0,0,9.5,0.9,20.9,6
			C336.6,302,337.2,303.1,337.2,303.9z"/>
	</g>
	<g>
		<path class="st0" d="M163.3,276.5V306c0,15,44.6,27.1,99.6,27.1s99.6-12.2,99.6-27.1v-29.5H163.3z"/>
		<g>
			<path class="st1" d="M163.3,306c0.1,1.6,0.7,3,1.5,4.3l0.7,0.9c0.2,0.3,0.5,0.6,0.8,0.8c0.5,0.6,1.1,1,1.7,1.6
				c2.4,1.9,5.1,3.4,7.8,4.7c2.8,1.3,5.7,2.3,8.6,3.3c2.9,1,5.9,1.7,8.9,2.5c3,0.8,5.9,1.5,9,2.1c3,0.6,6.1,1,9.1,1.4
				c6.1,0.8,12.3,1.5,18.4,2c3.1,0.3,6.2,0.5,9.2,0.7c3.1,0.2,6.2,0.4,9.2,0.5c6.2,0.3,12.3,0.3,18.5,0.3c6.2,0,12.4-0.2,18.5-0.5
				c6.2-0.3,12.3-0.7,18.5-1.3l0.2,0l3.8-0.5l4-0.6c2.7-0.4,5.4-0.9,8.1-1.4c5.4-1,10.7-2.2,16-3.6c5.3-1.4,10.5-2.9,15.1-5.8
				c4.6-2.8,8.5-6.8,11.5-11.4c-2.5,4.9-6.2,9.3-10.7,12.5c-4.6,3.3-9.9,5.3-15.2,6.9c-5.3,1.6-10.6,3.1-16,4.3
				c-2.7,0.6-5.4,1.2-8.1,1.7c-1.4,0.3-2.7,0.5-4.1,0.7l-2.1,0.3l-1,0.2l-0.5,0.1c-0.2,0-0.3,0-0.7,0.1l0.2,0
				c-6.2,0.7-12.4,1.3-18.6,1.7c-6.2,0.4-12.5,0.5-18.7,0.6c-6.2,0.1-12.5-0.1-18.7-0.4c-6.2-0.3-12.5-0.8-18.7-1.4
				c-6.2-0.7-12.4-1.4-18.5-2.5c-3.1-0.5-6.2-1.1-9.2-1.8c-3.1-0.7-6.1-1.6-9.1-2.5c-6-1.8-11.9-3.9-17.5-6.9
				c-2.8-1.5-5.4-3.2-7.7-5.4c-1.1-1.1-2.2-2.3-2.9-3.7C163.7,309.1,163.3,307.6,163.3,306z"/>
		</g>
		<g>
			<path class="st1" d="M163.3,278.9c0.1,1.6,0.7,3,1.5,4.3l0.7,0.9c0.2,0.3,0.5,0.6,0.8,0.8c0.5,0.6,1.1,1,1.7,1.6
				c2.4,1.9,5.1,3.4,7.8,4.7c2.8,1.3,5.7,2.3,8.6,3.3c2.9,1,5.9,1.7,8.9,2.5c3,0.8,5.9,1.5,9,2.1c3,0.6,6.1,1,9.1,1.4
				c6.1,0.8,12.3,1.5,18.4,2c3.1,0.3,6.2,0.5,9.2,0.7c3.1,0.2,6.2,0.4,9.2,0.5c6.2,0.3,12.3,0.3,18.5,0.3c6.2,0,12.4-0.2,18.5-0.5
				c6.2-0.3,12.3-0.7,18.5-1.3l0.2,0l3.8-0.5l4-0.6c2.7-0.4,5.4-0.9,8.1-1.4c5.4-1,10.7-2.2,16-3.6c5.3-1.4,10.5-2.9,15.1-5.8
				c4.6-2.8,8.5-6.8,11.5-11.4c-2.5,4.9-6.2,9.3-10.7,12.5c-4.6,3.3-9.9,5.3-15.2,6.9c-5.3,1.6-10.6,3.1-16,4.3
				c-2.7,0.6-5.4,1.2-8.1,1.7c-1.4,0.3-2.7,0.5-4.1,0.7l-2.1,0.3l-1,0.2l-0.5,0.1c-0.2,0-0.3,0-0.7,0.1l0.2,0
				c-6.2,0.7-12.4,1.3-18.6,1.7c-6.2,0.4-12.5,0.5-18.7,0.6c-6.2,0.1-12.5-0.1-18.7-0.4c-6.2-0.3-12.5-0.8-18.7-1.4
				c-6.2-0.7-12.4-1.4-18.5-2.5c-3.1-0.5-6.2-1.1-9.2-1.8c-3.1-0.7-6.1-1.6-9.1-2.5c-6-1.8-11.9-3.9-17.5-6.9
				c-2.8-1.5-5.4-3.2-7.7-5.4c-1.1-1.1-2.2-2.3-2.9-3.7C163.7,282,163.3,280.4,163.3,278.9z"/>
		</g>
		<ellipse class="st2" cx="262.9" cy="276.7" rx="99.6" ry="27.1"/>
		<ellipse class="st0" cx="262.9" cy="276.7" rx="74.3" ry="12.7"/>
		<path class="st3" d="M337.2,276.7c0.2,4.8-21.7,9.2-26.6,10.2c-9.6,1.9-21.5,3.7-54.3,2.4c-23.4-0.9-31.6-0.8-38.2-2.1
			c-12.6-2.3-29.8-6-29.5-10.6c0.2-2.7,6.5-4.6,11.7-6.1c3.4-1,5.1-1.1,15.8-2.7c8.9-1.3,7.5-1.2,11.3-1.7
			c3.8-0.5,10.3-1.2,18.3-1.7c6.4-0.4,11.7-0.5,17.3-0.5c20.3-0.1,31.9,1,47.4,2.4c0,0,9.5,0.9,20.9,6
			C336.6,274.9,337.2,275.9,337.2,276.7z"/>
	</g>
	<g>
		<path class="st0" d="M321.9,459.4v29.5c0,15,44.6,27.1,99.6,27.1s99.6-12.2,99.6-27.1v-29.5H321.9z"/>
		<g>
			<path class="st1" d="M321.9,488.9c0.1,1.6,0.7,3,1.5,4.3l0.7,0.9c0.2,0.3,0.5,0.6,0.8,0.8c0.5,0.6,1.1,1,1.7,1.6
				c2.4,1.9,5.1,3.4,7.8,4.7c2.8,1.3,5.7,2.3,8.6,3.3c2.9,1,5.9,1.7,8.9,2.5c3,0.8,5.9,1.5,9,2.1c3,0.6,6.1,1,9.1,1.4
				c6.1,0.8,12.3,1.5,18.4,2c3.1,0.3,6.2,0.5,9.2,0.7c3.1,0.2,6.2,0.4,9.2,0.5c6.2,0.3,12.3,0.3,18.5,0.3c6.2,0,12.4-0.2,18.5-0.5
				c6.2-0.3,12.3-0.7,18.5-1.3l0.2,0l3.8-0.5l4-0.6c2.7-0.4,5.4-0.9,8.1-1.4c5.4-1,10.7-2.2,16-3.6c5.3-1.4,10.5-2.9,15.1-5.8
				c4.6-2.8,8.5-6.8,11.5-11.4c-2.5,4.9-6.2,9.3-10.7,12.5c-4.6,3.3-9.9,5.3-15.2,6.9c-5.3,1.6-10.6,3.1-16,4.3
				c-2.7,0.6-5.4,1.2-8.1,1.7c-1.4,0.3-2.7,0.5-4.1,0.7l-2.1,0.3l-1,0.2l-0.5,0.1c-0.2,0-0.3,0-0.7,0.1l0.2,0
				c-6.2,0.7-12.4,1.3-18.6,1.7c-6.2,0.4-12.5,0.5-18.7,0.6c-6.2,0.1-12.5-0.1-18.7-0.4c-6.2-0.3-12.5-0.8-18.7-1.4
				c-6.2-0.7-12.4-1.4-18.5-2.5c-3.1-0.5-6.2-1.1-9.2-1.8c-3.1-0.7-6.1-1.6-9.1-2.5c-6-1.8-11.9-3.9-17.5-6.9
				c-2.8-1.5-5.4-3.2-7.7-5.4c-1.1-1.1-2.2-2.3-2.9-3.7C322.3,492,321.8,490.5,321.9,488.9z"/>
		</g>
		<g>
			<path class="st1" d="M321.9,461.8c0.1,1.6,0.7,3,1.5,4.3l0.7,0.9c0.2,0.3,0.5,0.6,0.8,0.8c0.5,0.6,1.1,1,1.7,1.6
				c2.4,1.9,5.1,3.4,7.8,4.7c2.8,1.3,5.7,2.3,8.6,3.3c2.9,1,5.9,1.7,8.9,2.5c3,0.8,5.9,1.5,9,2.1c3,0.6,6.1,1,9.1,1.4
				c6.1,0.8,12.3,1.5,18.4,2c3.1,0.3,6.2,0.5,9.2,0.7c3.1,0.2,6.2,0.4,9.2,0.5c6.2,0.3,12.3,0.3,18.5,0.3c6.2,0,12.4-0.2,18.5-0.5
				c6.2-0.3,12.3-0.7,18.5-1.3l0.2,0l3.8-0.5l4-0.6c2.7-0.4,5.4-0.9,8.1-1.4c5.4-1,10.7-2.2,16-3.6c5.3-1.4,10.5-2.9,15.1-5.8
				c4.6-2.8,8.5-6.8,11.5-11.4c-2.5,4.9-6.2,9.3-10.7,12.5c-4.6,3.3-9.9,5.3-15.2,6.9c-5.3,1.6-10.6,3.1-16,4.3
				c-2.7,0.6-5.4,1.2-8.1,1.7c-1.4,0.3-2.7,0.5-4.1,0.7l-2.1,0.3l-1,0.2l-0.5,0.1c-0.2,0-0.3,0-0.7,0.1l0.2,0
				c-6.2,0.7-12.4,1.3-18.6,1.7c-6.2,0.4-12.5,0.5-18.7,0.6c-6.2,0.1-12.5-0.1-18.7-0.4c-6.2-0.3-12.5-0.8-18.7-1.4
				c-6.2-0.7-12.4-1.4-18.5-2.5c-3.1-0.5-6.2-1.1-9.2-1.8c-3.1-0.7-6.1-1.6-9.1-2.5c-6-1.8-11.9-3.9-17.5-6.9
				c-2.8-1.5-5.4-3.2-7.7-5.4c-1.1-1.1-2.2-2.3-2.9-3.7C322.3,464.9,321.8,463.3,321.9,461.8z"/>
		</g>
		<ellipse class="st2" cx="421.4" cy="459.6" rx="99.6" ry="27.1"/>
		<ellipse class="st0" cx="421.4" cy="459.6" rx="74.3" ry="12.7"/>
		<path class="st3" d="M495.8,459.6c0.2,4.8-21.7,9.2-26.6,10.2c-9.6,1.9-21.5,3.7-54.3,2.4c-23.4-0.9-31.6-0.8-38.2-2.1
			c-12.6-2.3-29.8-6-29.5-10.6c0.2-2.7,6.5-4.6,11.7-6.1c3.4-1,5.1-1.1,15.8-2.7c8.9-1.3,7.5-1.2,11.3-1.7
			c3.8-0.5,10.3-1.2,18.3-1.7c6.4-0.4,11.7-0.5,17.3-0.5c20.3-0.1,31.9,1,47.4,2.4c0,0,9.5,0.9,20.9,6
			C495.1,457.8,495.8,458.9,495.8,459.6z"/>
	</g>
	<g>
		<path class="st0" d="M369.2,427.3v29.5c0,15,44.6,27.1,99.6,27.1s99.6-12.2,99.6-27.1v-29.5H369.2z"/>
		<g>
			<path class="st1" d="M369.2,456.8c0.1,1.6,0.7,3,1.5,4.3l0.7,0.9c0.2,0.3,0.5,0.6,0.8,0.8c0.5,0.6,1.1,1,1.7,1.6
				c2.4,1.9,5.1,3.4,7.8,4.7c2.8,1.3,5.7,2.3,8.6,3.3c2.9,1,5.9,1.7,8.9,2.5c3,0.8,5.9,1.5,9,2.1c3,0.6,6.1,1,9.1,1.4
				c6.1,0.8,12.3,1.5,18.4,2c3.1,0.3,6.2,0.5,9.2,0.7c3.1,0.2,6.2,0.4,9.2,0.5c6.2,0.3,12.3,0.3,18.5,0.3c6.2,0,12.4-0.2,18.5-0.5
				c6.2-0.3,12.3-0.7,18.5-1.3l0.2,0l3.8-0.5l4-0.6c2.7-0.4,5.4-0.9,8.1-1.4c5.4-1,10.7-2.2,16-3.6c5.3-1.4,10.5-2.9,15.1-5.8
				c4.6-2.8,8.5-6.8,11.5-11.4c-2.5,4.9-6.2,9.3-10.7,12.5c-4.6,3.3-9.9,5.3-15.2,6.9c-5.3,1.6-10.6,3.1-16,4.3
				c-2.7,0.6-5.4,1.2-8.1,1.7c-1.4,0.3-2.7,0.5-4.1,0.7l-2.1,0.3l-1,0.2l-0.5,0.1c-0.2,0-0.3,0-0.7,0.1l0.2,0
				c-6.2,0.7-12.4,1.3-18.6,1.7c-6.2,0.4-12.5,0.5-18.7,0.6c-6.2,0.1-12.5-0.1-18.7-0.4c-6.2-0.3-12.5-0.8-18.7-1.4
				c-6.2-0.7-12.4-1.4-18.5-2.5c-3.1-0.5-6.2-1.1-9.2-1.8c-3.1-0.7-6.1-1.6-9.1-2.5c-6-1.8-11.9-3.9-17.5-6.9
				c-2.8-1.5-5.4-3.2-7.7-5.4c-1.1-1.1-2.2-2.3-2.9-3.7C369.6,459.9,369.1,458.4,369.2,456.8z"/>
		</g>
		<g>
			<path class="st1" d="M369.2,429.7c0.1,1.6,0.7,3,1.5,4.3l0.7,0.9c0.2,0.3,0.5,0.6,0.8,0.8c0.5,0.6,1.1,1,1.7,1.6
				c2.4,1.9,5.1,3.4,7.8,4.7c2.8,1.3,5.7,2.3,8.6,3.3c2.9,1,5.9,1.7,8.9,2.5c3,0.8,5.9,1.5,9,2.1c3,0.6,6.1,1,9.1,1.4
				c6.1,0.8,12.3,1.5,18.4,2c3.1,0.3,6.2,0.5,9.2,0.7c3.1,0.2,6.2,0.4,9.2,0.5c6.2,0.3,12.3,0.3,18.5,0.3c6.2,0,12.4-0.2,18.5-0.5
				c6.2-0.3,12.3-0.7,18.5-1.3l0.2,0l3.8-0.5l4-0.6c2.7-0.4,5.4-0.9,8.1-1.4c5.4-1,10.7-2.2,16-3.6c5.3-1.4,10.5-2.9,15.1-5.8
				c4.6-2.8,8.5-6.8,11.5-11.4c-2.5,4.9-6.2,9.3-10.7,12.5c-4.6,3.3-9.9,5.3-15.2,6.9c-5.3,1.6-10.6,3.1-16,4.3
				c-2.7,0.6-5.4,1.2-8.1,1.7c-1.4,0.3-2.7,0.5-4.1,0.7l-2.1,0.3l-1,0.2l-0.5,0.1c-0.2,0-0.3,0-0.7,0.1l0.2,0
				c-6.2,0.7-12.4,1.3-18.6,1.7c-6.2,0.4-12.5,0.5-18.7,0.6c-6.2,0.1-12.5-0.1-18.7-0.4c-6.2-0.3-12.5-0.8-18.7-1.4
				c-6.2-0.7-12.4-1.4-18.5-2.5c-3.1-0.5-6.2-1.1-9.2-1.8c-3.1-0.7-6.1-1.6-9.1-2.5c-6-1.8-11.9-3.9-17.5-6.9
				c-2.8-1.5-5.4-3.2-7.7-5.4c-1.1-1.1-2.2-2.3-2.9-3.7C369.6,432.8,369.1,431.3,369.2,429.7z"/>
		</g>
		<ellipse class="st2" cx="468.7" cy="427.6" rx="99.6" ry="27.1"/>
		<ellipse class="st0" cx="468.7" cy="427.6" rx="74.3" ry="12.7"/>
		<path class="st3" d="M543.1,427.6c0.2,4.8-21.7,9.2-26.6,10.2c-9.6,1.9-21.5,3.7-54.3,2.4c-23.4-0.9-31.6-0.8-38.2-2.1
			c-12.6-2.3-29.8-6-29.5-10.6c0.2-2.7,6.5-4.6,11.7-6.1c3.4-1,5.1-1.1,15.8-2.7c8.9-1.3,7.5-1.2,11.3-1.7
			c3.8-0.5,10.3-1.2,18.3-1.7c6.4-0.4,11.7-0.5,17.3-0.5c20.3-0.1,31.9,1,47.4,2.4c0,0,9.5,0.9,20.9,6
			C542.4,425.7,543.1,426.8,543.1,427.6z"/>
	</g>
	<g>
		<path class="st0" d="M369.2,400v29.5c0,15,44.6,27.1,99.6,27.1s99.6-12.2,99.6-27.1V400H369.2z"/>
		<g>
			<path class="st1" d="M369.2,429.5c0.1,1.6,0.7,3,1.5,4.3l0.7,0.9c0.2,0.3,0.5,0.6,0.8,0.8c0.5,0.6,1.1,1,1.7,1.6
				c2.4,1.9,5.1,3.4,7.8,4.7c2.8,1.3,5.7,2.3,8.6,3.3c2.9,1,5.9,1.7,8.9,2.5c3,0.8,5.9,1.5,9,2.1c3,0.6,6.1,1,9.1,1.4
				c6.1,0.8,12.3,1.5,18.4,2c3.1,0.3,6.2,0.5,9.2,0.7c3.1,0.2,6.2,0.4,9.2,0.5c6.2,0.3,12.3,0.3,18.5,0.3c6.2,0,12.4-0.2,18.5-0.5
				c6.2-0.3,12.3-0.7,18.5-1.3l0.2,0l3.8-0.5l4-0.6c2.7-0.4,5.4-0.9,8.1-1.4c5.4-1,10.7-2.2,16-3.6c5.3-1.4,10.5-2.9,15.1-5.8
				c4.6-2.8,8.5-6.8,11.5-11.4c-2.5,4.9-6.2,9.3-10.7,12.5c-4.6,3.3-9.9,5.3-15.2,6.9c-5.3,1.6-10.6,3.1-16,4.3
				c-2.7,0.6-5.4,1.2-8.1,1.7c-1.4,0.3-2.7,0.5-4.1,0.7l-2.1,0.3l-1,0.2l-0.5,0.1c-0.2,0-0.3,0-0.7,0.1l0.2,0
				c-6.2,0.7-12.4,1.3-18.6,1.7c-6.2,0.4-12.5,0.5-18.7,0.6c-6.2,0.1-12.5-0.1-18.7-0.4c-6.2-0.3-12.5-0.8-18.7-1.4
				c-6.2-0.7-12.4-1.4-18.5-2.5c-3.1-0.5-6.2-1.1-9.2-1.8c-3.1-0.7-6.1-1.6-9.1-2.5c-6-1.8-11.9-3.9-17.5-6.9
				c-2.8-1.5-5.4-3.2-7.7-5.4c-1.1-1.1-2.2-2.3-2.9-3.7C369.6,432.6,369.1,431.1,369.2,429.5z"/>
		</g>
		<g>
			<path class="st1" d="M369.2,402.4c0.1,1.6,0.7,3,1.5,4.3l0.7,0.9c0.2,0.3,0.5,0.6,0.8,0.8c0.5,0.6,1.1,1,1.7,1.6
				c2.4,1.9,5.1,3.4,7.8,4.7c2.8,1.3,5.7,2.3,8.6,3.3c2.9,1,5.9,1.7,8.9,2.5c3,0.8,5.9,1.5,9,2.1c3,0.6,6.1,1,9.1,1.4
				c6.1,0.8,12.3,1.5,18.4,2c3.1,0.3,6.2,0.5,9.2,0.7c3.1,0.2,6.2,0.4,9.2,0.5c6.2,0.3,12.3,0.3,18.5,0.3c6.2,0,12.4-0.2,18.5-0.5
				c6.2-0.3,12.3-0.7,18.5-1.3l0.2,0l3.8-0.5l4-0.6c2.7-0.4,5.4-0.9,8.1-1.4c5.4-1,10.7-2.2,16-3.6c5.3-1.4,10.5-2.9,15.1-5.8
				c4.6-2.8,8.5-6.8,11.5-11.4c-2.5,4.9-6.2,9.3-10.7,12.5c-4.6,3.3-9.9,5.3-15.2,6.9c-5.3,1.6-10.6,3.1-16,4.3
				c-2.7,0.6-5.4,1.2-8.1,1.7c-1.4,0.3-2.7,0.5-4.1,0.7l-2.1,0.3l-1,0.2l-0.5,0.1c-0.2,0-0.3,0-0.7,0.1l0.2,0
				c-6.2,0.7-12.4,1.3-18.6,1.7c-6.2,0.4-12.5,0.5-18.7,0.6c-6.2,0.1-12.5-0.1-18.7-0.4c-6.2-0.3-12.5-0.8-18.7-1.4
				c-6.2-0.7-12.4-1.4-18.5-2.5c-3.1-0.5-6.2-1.1-9.2-1.8c-3.1-0.7-6.1-1.6-9.1-2.5c-6-1.8-11.9-3.9-17.5-6.9
				c-2.8-1.5-5.4-3.2-7.7-5.4c-1.1-1.1-2.2-2.3-2.9-3.7C369.6,405.5,369.1,404,369.2,402.4z"/>
		</g>
		<ellipse class="st2" cx="468.7" cy="400.3" rx="99.6" ry="27.1"/>
		<ellipse class="st0" cx="468.7" cy="400.3" rx="74.3" ry="12.7"/>
		<path class="st3" d="M543.1,400.3c0.2,4.8-21.7,9.2-26.6,10.2c-9.6,1.9-21.5,3.7-54.3,2.4c-23.4-0.9-31.6-0.8-38.2-2.1
			c-12.6-2.3-29.8-6-29.5-10.6c0.2-2.7,6.5-4.6,11.7-6.1c3.4-1,5.1-1.1,15.8-2.7c8.9-1.3,7.5-1.2,11.3-1.7
			c3.8-0.5,10.3-1.2,18.3-1.7c6.4-0.4,11.7-0.5,17.3-0.5c20.3-0.1,31.9,1,47.4,2.4c0,0,9.5,0.9,20.9,6
			C542.4,398.4,543.1,399.5,543.1,400.3z"/>
	</g>
	<g>
		<path class="st0" d="M401.3,372.7v29.5c0,15,44.6,27.1,99.6,27.1s99.6-12.2,99.6-27.1v-29.5H401.3z"/>
		<g>
			<path class="st1" d="M401.3,402.2c0.1,1.6,0.7,3,1.5,4.3l0.7,0.9c0.2,0.3,0.5,0.6,0.8,0.8c0.5,0.6,1.1,1,1.7,1.6
				c2.4,1.9,5.1,3.4,7.8,4.7c2.8,1.3,5.7,2.3,8.6,3.3c2.9,1,5.9,1.7,8.9,2.5c3,0.8,5.9,1.5,9,2.1c3,0.6,6.1,1,9.1,1.4
				c6.1,0.8,12.3,1.5,18.4,2c3.1,0.3,6.2,0.5,9.2,0.7c3.1,0.2,6.2,0.4,9.2,0.5c6.2,0.3,12.3,0.3,18.5,0.3c6.2,0,12.4-0.2,18.5-0.5
				c6.2-0.3,12.3-0.7,18.5-1.3l0.2,0l3.8-0.5l4-0.6c2.7-0.4,5.4-0.9,8.1-1.4c5.4-1,10.7-2.2,16-3.6c5.3-1.4,10.5-2.9,15.1-5.8
				c4.6-2.8,8.5-6.8,11.5-11.4c-2.5,4.9-6.2,9.3-10.7,12.5c-4.6,3.3-9.9,5.3-15.2,6.9c-5.3,1.6-10.6,3.1-16,4.3
				c-2.7,0.6-5.4,1.2-8.1,1.7c-1.4,0.3-2.7,0.5-4.1,0.7l-2.1,0.3l-1,0.2l-0.5,0.1c-0.2,0-0.3,0-0.7,0.1l0.2,0
				c-6.2,0.7-12.4,1.3-18.6,1.7c-6.2,0.4-12.5,0.5-18.7,0.6c-6.2,0.1-12.5-0.1-18.7-0.4c-6.2-0.3-12.5-0.8-18.7-1.4
				c-6.2-0.7-12.4-1.4-18.5-2.5c-3.1-0.5-6.2-1.1-9.2-1.8c-3.1-0.7-6.1-1.6-9.1-2.5c-6-1.8-11.9-3.9-17.5-6.9
				c-2.8-1.5-5.4-3.2-7.7-5.4c-1.1-1.1-2.2-2.3-2.9-3.7C401.7,405.4,401.2,403.8,401.3,402.2z"/>
		</g>
		<g>
			<path class="st1" d="M401.3,375.1c0.1,1.6,0.7,3,1.5,4.3l0.7,0.9c0.2,0.3,0.5,0.6,0.8,0.8c0.5,0.6,1.1,1,1.7,1.6
				c2.4,1.9,5.1,3.4,7.8,4.7c2.8,1.3,5.7,2.3,8.6,3.3c2.9,1,5.9,1.7,8.9,2.5c3,0.8,5.9,1.5,9,2.1c3,0.6,6.1,1,9.1,1.4
				c6.1,0.8,12.3,1.5,18.4,2c3.1,0.3,6.2,0.5,9.2,0.7c3.1,0.2,6.2,0.4,9.2,0.5c6.2,0.3,12.3,0.3,18.5,0.3c6.2,0,12.4-0.2,18.5-0.5
				c6.2-0.3,12.3-0.7,18.5-1.3l0.2,0l3.8-0.5l4-0.6c2.7-0.4,5.4-0.9,8.1-1.4c5.4-1,10.7-2.2,16-3.6c5.3-1.4,10.5-2.9,15.1-5.8
				c4.6-2.8,8.5-6.8,11.5-11.4c-2.5,4.9-6.2,9.3-10.7,12.5c-4.6,3.3-9.9,5.3-15.2,6.9c-5.3,1.6-10.6,3.1-16,4.3
				c-2.7,0.6-5.4,1.2-8.1,1.7c-1.4,0.3-2.7,0.5-4.1,0.7l-2.1,0.3l-1,0.2l-0.5,0.1c-0.2,0-0.3,0-0.7,0.1l0.2,0
				c-6.2,0.7-12.4,1.3-18.6,1.7c-6.2,0.4-12.5,0.5-18.7,0.6c-6.2,0.1-12.5-0.1-18.7-0.4c-6.2-0.3-12.5-0.8-18.7-1.4
				c-6.2-0.7-12.4-1.4-18.5-2.5c-3.1-0.5-6.2-1.1-9.2-1.8c-3.1-0.7-6.1-1.6-9.1-2.5c-6-1.8-11.9-3.9-17.5-6.9
				c-2.8-1.5-5.4-3.2-7.7-5.4c-1.1-1.1-2.2-2.3-2.9-3.7C401.7,378.2,401.2,376.7,401.3,375.1z"/>
		</g>
		<ellipse class="st2" cx="500.8" cy="373" rx="99.6" ry="27.1"/>
		<ellipse class="st0" cx="500.8" cy="373" rx="74.3" ry="12.7"/>
		<path class="st3" d="M575.2,373c0.2,4.8-21.7,9.2-26.6,10.2c-9.6,1.9-21.5,3.7-54.3,2.4c-23.4-0.9-31.6-0.8-38.2-2.1
			c-12.6-2.3-29.8-6-29.5-10.6c0.2-2.7,6.5-4.6,11.7-6.1c3.4-1,5.1-1.1,15.8-2.7c8.9-1.3,7.5-1.2,11.3-1.7
			c3.8-0.5,10.3-1.2,18.3-1.7c6.4-0.4,11.7-0.5,17.3-0.5c20.3-0.1,31.9,1,47.4,2.4c0,0,9.5,0.9,20.9,6
			C574.5,371.1,575.2,372.2,575.2,373z"/>
	</g>
	<g>
		<path class="st0" d="M401.3,346.2v29.5c0,15,44.6,27.1,99.6,27.1s99.6-12.2,99.6-27.1v-29.5H401.3z"/>
		<g>
			<path class="st1" d="M401.3,375.7c0.1,1.6,0.7,3,1.5,4.3l0.7,0.9c0.2,0.3,0.5,0.6,0.8,0.8c0.5,0.6,1.1,1,1.7,1.6
				c2.4,1.9,5.1,3.4,7.8,4.7c2.8,1.3,5.7,2.3,8.6,3.3c2.9,1,5.9,1.7,8.9,2.5c3,0.8,5.9,1.5,9,2.1c3,0.6,6.1,1,9.1,1.4
				c6.1,0.8,12.3,1.5,18.4,2c3.1,0.3,6.2,0.5,9.2,0.7c3.1,0.2,6.2,0.4,9.2,0.5c6.2,0.3,12.3,0.3,18.5,0.3c6.2,0,12.4-0.2,18.5-0.5
				c6.2-0.3,12.3-0.7,18.5-1.3l0.2,0l3.8-0.5l4-0.6c2.7-0.4,5.4-0.9,8.1-1.4c5.4-1,10.7-2.2,16-3.6c5.3-1.4,10.5-2.9,15.1-5.8
				c4.6-2.8,8.5-6.8,11.5-11.4c-2.5,4.9-6.2,9.3-10.7,12.5c-4.6,3.3-9.9,5.3-15.2,6.9c-5.3,1.6-10.6,3.1-16,4.3
				c-2.7,0.6-5.4,1.2-8.1,1.7c-1.4,0.3-2.7,0.5-4.1,0.7l-2.1,0.3l-1,0.2l-0.5,0.1c-0.2,0-0.3,0-0.7,0.1l0.2,0
				c-6.2,0.7-12.4,1.3-18.6,1.7c-6.2,0.4-12.5,0.5-18.7,0.6c-6.2,0.1-12.5-0.1-18.7-0.4c-6.2-0.3-12.5-0.8-18.7-1.4
				c-6.2-0.7-12.4-1.4-18.5-2.5c-3.1-0.5-6.2-1.1-9.2-1.8c-3.1-0.7-6.1-1.6-9.1-2.5c-6-1.8-11.9-3.9-17.5-6.9
				c-2.8-1.5-5.4-3.2-7.7-5.4c-1.1-1.1-2.2-2.3-2.9-3.7C401.7,378.9,401.2,377.3,401.3,375.7z"/>
		</g>
		<g>
			<path class="st1" d="M401.3,348.6c0.1,1.6,0.7,3,1.5,4.3l0.7,0.9c0.2,0.3,0.5,0.6,0.8,0.8c0.5,0.6,1.1,1,1.7,1.6
				c2.4,1.9,5.1,3.4,7.8,4.7c2.8,1.3,5.7,2.3,8.6,3.3c2.9,1,5.9,1.7,8.9,2.5c3,0.8,5.9,1.5,9,2.1c3,0.6,6.1,1,9.1,1.4
				c6.1,0.8,12.3,1.5,18.4,2c3.1,0.3,6.2,0.5,9.2,0.7c3.1,0.2,6.2,0.4,9.2,0.5c6.2,0.3,12.3,0.3,18.5,0.3c6.2,0,12.4-0.2,18.5-0.5
				c6.2-0.3,12.3-0.7,18.5-1.3l0.2,0l3.8-0.5l4-0.6c2.7-0.4,5.4-0.9,8.1-1.4c5.4-1,10.7-2.2,16-3.6c5.3-1.4,10.5-2.9,15.1-5.8
				c4.6-2.8,8.5-6.8,11.5-11.4c-2.5,4.9-6.2,9.3-10.7,12.5c-4.6,3.3-9.9,5.3-15.2,6.9c-5.3,1.6-10.6,3.1-16,4.3
				c-2.7,0.6-5.4,1.2-8.1,1.7c-1.4,0.3-2.7,0.5-4.1,0.7l-2.1,0.3l-1,0.2l-0.5,0.1c-0.2,0-0.3,0-0.7,0.1l0.2,0
				c-6.2,0.7-12.4,1.3-18.6,1.7c-6.2,0.4-12.5,0.5-18.7,0.6c-6.2,0.1-12.5-0.1-18.7-0.4c-6.2-0.3-12.5-0.8-18.7-1.4
				c-6.2-0.7-12.4-1.4-18.5-2.5c-3.1-0.5-6.2-1.1-9.2-1.8c-3.1-0.7-6.1-1.6-9.1-2.5c-6-1.8-11.9-3.9-17.5-6.9
				c-2.8-1.5-5.4-3.2-7.7-5.4c-1.1-1.1-2.2-2.3-2.9-3.7C401.7,351.7,401.2,350.2,401.3,348.6z"/>
		</g>
		<ellipse class="st2" cx="500.8" cy="346.5" rx="99.6" ry="27.1"/>
		<ellipse class="st0" cx="500.8" cy="346.5" rx="74.3" ry="12.7"/>
		<path class="st3" d="M575.2,346.5c0.2,4.8-21.7,9.2-26.6,10.2c-9.6,1.9-21.5,3.7-54.3,2.4c-23.4-0.9-31.6-0.8-38.2-2.1
			c-12.6-2.3-29.8-6-29.5-10.6c0.2-2.7,6.5-4.6,11.7-6.1c3.4-1,5.1-1.1,15.8-2.7c8.9-1.3,7.5-1.2,11.3-1.7
			c3.8-0.5,10.3-1.2,18.3-1.7c6.4-0.4,11.7-0.5,17.3-0.5c20.3-0.1,31.9,1,47.4,2.4c0,0,9.5,0.9,20.9,6
			C574.5,344.6,575.1,345.7,575.2,346.5z"/>
	</g>
	<g>
		<path class="st0" d="M401.3,318.9v29.5c0,15,44.6,27.1,99.6,27.1s99.6-12.2,99.6-27.1v-29.5H401.3z"/>
		<g>
			<path class="st1" d="M401.3,348.5c0.1,1.6,0.7,3,1.5,4.3l0.7,0.9c0.2,0.3,0.5,0.6,0.8,0.8c0.5,0.6,1.1,1,1.7,1.6
				c2.4,1.9,5.1,3.4,7.8,4.7c2.8,1.3,5.7,2.3,8.6,3.3c2.9,1,5.9,1.7,8.9,2.5c3,0.8,5.9,1.5,9,2.1c3,0.6,6.1,1,9.1,1.4
				c6.1,0.8,12.3,1.5,18.4,2c3.1,0.3,6.2,0.5,9.2,0.7c3.1,0.2,6.2,0.4,9.2,0.5c6.2,0.3,12.3,0.3,18.5,0.3c6.2,0,12.4-0.2,18.5-0.5
				c6.2-0.3,12.3-0.7,18.5-1.3l0.2,0l3.8-0.5l4-0.6c2.7-0.4,5.4-0.9,8.1-1.4c5.4-1,10.7-2.2,16-3.6c5.3-1.4,10.5-2.9,15.1-5.8
				c4.6-2.8,8.5-6.8,11.5-11.4c-2.5,4.9-6.2,9.3-10.7,12.5c-4.6,3.3-9.9,5.3-15.2,6.9c-5.3,1.6-10.6,3.1-16,4.3
				c-2.7,0.6-5.4,1.2-8.1,1.7c-1.4,0.3-2.7,0.5-4.1,0.7l-2.1,0.3l-1,0.2l-0.5,0.1c-0.2,0-0.3,0-0.7,0.1l0.2,0
				c-6.2,0.7-12.4,1.3-18.6,1.7c-6.2,0.4-12.5,0.5-18.7,0.6c-6.2,0.1-12.5-0.1-18.7-0.4c-6.2-0.3-12.5-0.8-18.7-1.4
				c-6.2-0.7-12.4-1.4-18.5-2.5c-3.1-0.5-6.2-1.1-9.2-1.8c-3.1-0.7-6.1-1.6-9.1-2.5c-6-1.8-11.9-3.9-17.5-6.9
				c-2.8-1.5-5.4-3.2-7.7-5.4c-1.1-1.1-2.2-2.3-2.9-3.7C401.7,351.6,401.2,350,401.3,348.5z"/>
		</g>
		<g>
			<path class="st1" d="M401.3,321.3c0.1,1.6,0.7,3,1.5,4.3l0.7,0.9c0.2,0.3,0.5,0.6,0.8,0.8c0.5,0.6,1.1,1,1.7,1.6
				c2.4,1.9,5.1,3.4,7.8,4.7c2.8,1.3,5.7,2.3,8.6,3.3c2.9,1,5.9,1.7,8.9,2.5c3,0.8,5.9,1.5,9,2.1c3,0.6,6.1,1,9.1,1.4
				c6.1,0.8,12.3,1.5,18.4,2c3.1,0.3,6.2,0.5,9.2,0.7c3.1,0.2,6.2,0.4,9.2,0.5c6.2,0.3,12.3,0.3,18.5,0.3c6.2,0,12.4-0.2,18.5-0.5
				c6.2-0.3,12.3-0.7,18.5-1.3l0.2,0l3.8-0.5l4-0.6c2.7-0.4,5.4-0.9,8.1-1.4c5.4-1,10.7-2.2,16-3.6c5.3-1.4,10.5-2.9,15.1-5.8
				c4.6-2.8,8.5-6.8,11.5-11.4c-2.5,4.9-6.2,9.3-10.7,12.5c-4.6,3.3-9.9,5.3-15.2,6.9c-5.3,1.6-10.6,3.1-16,4.3
				c-2.7,0.6-5.4,1.2-8.1,1.7c-1.4,0.3-2.7,0.5-4.1,0.7l-2.1,0.3l-1,0.2l-0.5,0.1c-0.2,0-0.3,0-0.7,0.1l0.2,0
				c-6.2,0.7-12.4,1.3-18.6,1.7c-6.2,0.4-12.5,0.5-18.7,0.6c-6.2,0.1-12.5-0.1-18.7-0.4c-6.2-0.3-12.5-0.8-18.7-1.4
				c-6.2-0.7-12.4-1.4-18.5-2.5c-3.1-0.5-6.2-1.1-9.2-1.8c-3.1-0.7-6.1-1.6-9.1-2.5c-6-1.8-11.9-3.9-17.5-6.9
				c-2.8-1.5-5.4-3.2-7.7-5.4c-1.1-1.1-2.2-2.3-2.9-3.7C401.7,324.4,401.2,322.9,401.3,321.3z"/>
		</g>
		<ellipse class="st2" cx="500.8" cy="319.2" rx="99.6" ry="27.1"/>
		<ellipse class="st0" cx="500.8" cy="319.2" rx="74.3" ry="12.7"/>
		<path class="st3" d="M575.2,319.2c0.2,4.8-21.7,9.2-26.6,10.2c-9.6,1.9-21.5,3.7-54.3,2.4c-23.4-0.9-31.6-0.8-38.2-2.1
			c-12.6-2.3-29.8-6-29.5-10.6c0.2-2.7,6.5-4.6,11.7-6.1c3.4-1,5.1-1.1,15.8-2.7c8.9-1.3,7.5-1.2,11.3-1.7
			c3.8-0.5,10.3-1.2,18.3-1.7c6.4-0.4,11.7-0.5,17.3-0.5c20.3-0.1,31.9,1,47.4,2.4c0,0,9.5,0.9,20.9,6
			C574.5,317.3,575.2,318.4,575.2,319.2z"/>
	</g>
	<g>
		<path class="st0" d="M363.5,274.9v29.5c0,15,44.6,27.1,99.6,27.1s99.6-12.2,99.6-27.1v-29.5H363.5z"/>
		<g>
			<path class="st1" d="M363.5,304.5c0.1,1.6,0.7,3,1.5,4.3l0.7,0.9c0.2,0.3,0.5,0.6,0.8,0.8c0.5,0.6,1.1,1,1.7,1.6
				c2.4,1.9,5.1,3.4,7.8,4.7c2.8,1.3,5.7,2.3,8.6,3.3c2.9,1,5.9,1.7,8.9,2.5c3,0.8,5.9,1.5,9,2.1c3,0.6,6.1,1,9.1,1.4
				c6.1,0.8,12.3,1.5,18.4,2c3.1,0.3,6.2,0.5,9.2,0.7c3.1,0.2,6.2,0.4,9.2,0.5c6.2,0.3,12.3,0.3,18.5,0.3c6.2,0,12.4-0.2,18.5-0.5
				c6.2-0.3,12.3-0.7,18.5-1.3l0.2,0l3.8-0.5l4-0.6c2.7-0.4,5.4-0.9,8.1-1.4c5.4-1,10.7-2.2,16-3.6c5.3-1.4,10.5-2.9,15.1-5.8
				c4.6-2.8,8.5-6.8,11.5-11.4c-2.5,4.9-6.2,9.3-10.7,12.5c-4.6,3.3-9.9,5.3-15.2,6.9c-5.3,1.6-10.6,3.1-16,4.3
				c-2.7,0.6-5.4,1.2-8.1,1.7c-1.4,0.3-2.7,0.5-4.1,0.7l-2.1,0.3l-1,0.2l-0.5,0.1c-0.2,0-0.3,0-0.7,0.1l0.2,0
				c-6.2,0.7-12.4,1.3-18.6,1.7c-6.2,0.4-12.5,0.5-18.7,0.6c-6.2,0.1-12.5-0.1-18.7-0.4c-6.2-0.3-12.5-0.8-18.7-1.4
				c-6.2-0.7-12.4-1.4-18.5-2.5c-3.1-0.5-6.2-1.1-9.2-1.8c-3.1-0.7-6.1-1.6-9.1-2.5c-6-1.8-11.9-3.9-17.5-6.9
				c-2.8-1.5-5.4-3.2-7.7-5.4c-1.1-1.1-2.2-2.3-2.9-3.7C363.9,307.6,363.4,306,363.5,304.5z"/>
		</g>
		<g>
			<path class="st1" d="M363.5,277.3c0.1,1.6,0.7,3,1.5,4.3l0.7,0.9c0.2,0.3,0.5,0.6,0.8,0.8c0.5,0.6,1.1,1,1.7,1.6
				c2.4,1.9,5.1,3.4,7.8,4.7c2.8,1.3,5.7,2.3,8.6,3.3c2.9,1,5.9,1.7,8.9,2.5c3,0.8,5.9,1.5,9,2.1c3,0.6,6.1,1,9.1,1.4
				c6.1,0.8,12.3,1.5,18.4,2c3.1,0.3,6.2,0.5,9.2,0.7c3.1,0.2,6.2,0.4,9.2,0.5c6.2,0.3,12.3,0.3,18.5,0.3c6.2,0,12.4-0.2,18.5-0.5
				c6.2-0.3,12.3-0.7,18.5-1.3l0.2,0l3.8-0.5l4-0.6c2.7-0.4,5.4-0.9,8.1-1.4c5.4-1,10.7-2.2,16-3.6c5.3-1.4,10.5-2.9,15.1-5.8
				c4.6-2.8,8.5-6.8,11.5-11.4c-2.5,4.9-6.2,9.3-10.7,12.5c-4.6,3.3-9.9,5.3-15.2,6.9c-5.3,1.6-10.6,3.1-16,4.3
				c-2.7,0.6-5.4,1.2-8.1,1.7c-1.4,0.3-2.7,0.5-4.1,0.7l-2.1,0.3l-1,0.2l-0.5,0.1c-0.2,0-0.3,0-0.7,0.1l0.2,0
				c-6.2,0.7-12.4,1.3-18.6,1.7c-6.2,0.4-12.5,0.5-18.7,0.6c-6.2,0.1-12.5-0.1-18.7-0.4c-6.2-0.3-12.5-0.8-18.7-1.4
				c-6.2-0.7-12.4-1.4-18.5-2.5c-3.1-0.5-6.2-1.1-9.2-1.8c-3.1-0.7-6.1-1.6-9.1-2.5c-6-1.8-11.9-3.9-17.5-6.9
				c-2.8-1.5-5.4-3.2-7.7-5.4c-1.1-1.1-2.2-2.3-2.9-3.7C363.9,280.4,363.4,278.9,363.5,277.3z"/>
		</g>
		<ellipse class="st2" cx="463" cy="275.2" rx="99.6" ry="27.1"/>
		<ellipse class="st0" cx="463" cy="275.2" rx="74.3" ry="12.7"/>
		<path class="st3" d="M537.4,275.2c0.2,4.8-21.7,9.2-26.6,10.2c-9.6,1.9-21.5,3.7-54.3,2.4c-23.4-0.9-31.6-0.8-38.2-2.1
			c-12.6-2.3-29.8-6-29.5-10.6c0.2-2.7,6.5-4.6,11.7-6.1c3.4-1,5.1-1.1,15.8-2.7c8.9-1.3,7.5-1.2,11.3-1.7
			c3.8-0.5,10.3-1.2,18.3-1.7c6.4-0.4,11.7-0.5,17.3-0.5c20.3-0.1,31.9,1,47.4,2.4c0,0,9.5,0.9,20.9,6
			C536.7,273.3,537.4,274.4,537.4,275.2z"/>
	</g>
	<g>
		<path class="st0" d="M251.7,184.8l-8.8,28.2c-4.4,14.3,34.5,39.1,87,55.4s98.7,17.9,103.1,3.6l8.8-28.2L251.7,184.8z"/>
		<g>
			<path class="st1" d="M242.9,213c-0.4,1.5-0.2,3.1,0.2,4.5l0.4,1.1c0.1,0.4,0.3,0.7,0.5,1c0.3,0.7,0.7,1.3,1.1,2
				c1.7,2.6,3.8,4.8,6.1,6.8c2.3,2.1,4.7,3.9,7.2,5.7c2.5,1.8,5.1,3.4,7.7,5c2.6,1.7,5.2,3.2,7.9,4.7c2.7,1.4,5.5,2.8,8.3,4.1
				c5.6,2.5,11.3,5,17,7.4c2.9,1.2,5.7,2.3,8.6,3.4c2.9,1.1,5.8,2.2,8.7,3.2c5.8,2.1,11.7,4,17.6,5.8c5.9,1.8,11.8,3.5,17.8,5
				c6,1.5,12,3,18,4.2l0.2,0l3.8,0.7l4,0.6c2.7,0.4,5.4,0.8,8.1,1c5.4,0.6,10.9,1,16.3,1.3c5.4,0.3,10.9,0.3,16.1-1.1
				c5.2-1.4,10.2-4,14.4-7.5c-3.8,3.9-8.7,7-14,8.8c-5.3,1.8-11,2.1-16.5,2.1c-5.5,0-11.1-0.2-16.6-0.6c-2.8-0.2-5.5-0.5-8.3-0.8
				c-1.4-0.2-2.8-0.3-4.1-0.5l-2.1-0.3l-1-0.2l-0.5-0.1c-0.2,0-0.3,0-0.7-0.1l0.2,0c-6.1-1.1-12.3-2.4-18.3-3.9
				c-6.1-1.5-12.1-3.2-18-5c-6-1.8-11.9-3.8-17.8-5.9c-5.9-2.1-11.7-4.4-17.4-6.9c-5.7-2.5-11.4-5.1-17-7.9
				c-2.8-1.4-5.6-2.9-8.3-4.4c-2.7-1.5-5.4-3.3-7.9-5.1c-5.2-3.5-10.2-7.3-14.6-11.7c-2.2-2.2-4.2-4.7-5.8-7.5
				c-0.7-1.4-1.4-2.9-1.7-4.4C242.4,216.1,242.4,214.4,242.9,213z"/>
		</g>
		<g>
			<path class="st1" d="M251,187c-0.4,1.5-0.2,3.1,0.2,4.5l0.4,1.1c0.1,0.4,0.3,0.7,0.5,1c0.3,0.7,0.7,1.3,1.1,2
				c1.7,2.6,3.8,4.8,6.1,6.8c2.3,2.1,4.7,3.9,7.2,5.7c2.5,1.8,5.1,3.4,7.7,5c2.6,1.7,5.2,3.2,7.9,4.7c2.7,1.4,5.5,2.8,8.3,4.1
				c5.6,2.5,11.3,5,17,7.4c2.9,1.2,5.7,2.3,8.6,3.4c2.9,1.1,5.8,2.2,8.7,3.2c5.8,2.1,11.7,4,17.6,5.8c5.9,1.8,11.8,3.5,17.8,5
				c6,1.5,12,3,18,4.2l0.2,0l3.8,0.7l4,0.6c2.7,0.4,5.4,0.8,8.1,1c5.4,0.6,10.9,1,16.3,1.3c5.4,0.3,10.9,0.3,16.1-1.1
				c5.2-1.4,10.2-4,14.4-7.5c-3.8,3.9-8.7,7-14,8.8c-5.3,1.8-11,2.1-16.5,2.1c-5.5,0-11.1-0.2-16.6-0.6c-2.8-0.2-5.5-0.5-8.3-0.8
				c-1.4-0.2-2.8-0.3-4.1-0.5l-2.1-0.3l-1-0.2l-0.5-0.1c-0.2,0-0.3,0-0.7-0.1l0.2,0c-6.1-1.1-12.3-2.4-18.3-3.9
				c-6.1-1.5-12.1-3.2-18-5c-6-1.8-11.9-3.8-17.8-5.9c-5.9-2.1-11.7-4.4-17.4-6.9c-5.7-2.5-11.4-5.1-17-7.9
				c-2.8-1.4-5.6-2.9-8.3-4.4c-2.7-1.5-5.4-3.3-7.9-5.1c-5.2-3.5-10.2-7.3-14.6-11.7c-2.2-2.2-4.2-4.7-5.8-7.5
				c-0.7-1.4-1.4-2.9-1.7-4.4C250.5,190.1,250.5,188.5,251,187z"/>
		</g>
		
			<ellipse transform="matrix(0.2966 -0.955 0.955 0.2966 39.0251 482.0145)" class="st2" cx="346.7" cy="214.5" rx="27.1" ry="99.6"/>
		
			<ellipse transform="matrix(0.2966 -0.955 0.955 0.2966 39.025 482.0144)" class="st0" cx="346.7" cy="214.5" rx="12.7" ry="74.3"/>
		<path class="st3" d="M417.7,236.6c-1.3,4.6-23.5,2.4-28.5,1.9c-9.7-1-21.7-2.8-52.6-13.8c-22.1-7.8-29.9-10.2-35.8-13.3
			c-11.3-6-26.7-14.6-25.1-18.9c1-2.5,7.5-2.4,13-2.4c3.6,0,5.2,0.4,15.9,2.1c8.9,1.4,7.5,1.1,11.3,1.8c3.7,0.7,10.2,1.9,18,3.8
			c6.2,1.5,11.3,3,16.6,4.7c19.4,6,30.2,10.4,44.6,16.4c0,0,8.8,3.7,18.2,11.9C417.6,234.6,417.9,235.8,417.7,236.6z"/>
	</g>
	<g>
		<path class="st0" d="M188.5,497.3v29.5c0,15,44.6,27.1,99.6,27.1s99.6-12.2,99.6-27.1v-29.5H188.5z"/>
		<g>
			<path class="st1" d="M188.5,526.8c0.1,1.6,0.7,3,1.5,4.3l0.7,0.9c0.2,0.3,0.5,0.6,0.8,0.8c0.5,0.6,1.1,1,1.7,1.6
				c2.4,1.9,5.1,3.4,7.8,4.7c2.8,1.3,5.7,2.3,8.6,3.3c2.9,1,5.9,1.7,8.9,2.5c3,0.8,5.9,1.5,9,2.1c3,0.6,6.1,1,9.1,1.4
				c6.1,0.8,12.3,1.5,18.4,2c3.1,0.3,6.2,0.5,9.2,0.7c3.1,0.2,6.2,0.4,9.2,0.5c6.2,0.3,12.3,0.3,18.5,0.3c6.2,0,12.4-0.2,18.5-0.5
				c6.2-0.3,12.3-0.7,18.5-1.3l0.2,0l3.8-0.5l4-0.6c2.7-0.4,5.4-0.9,8.1-1.4c5.4-1,10.7-2.2,16-3.6c5.3-1.4,10.5-2.9,15.1-5.8
				c4.6-2.8,8.5-6.8,11.5-11.4c-2.5,4.9-6.2,9.3-10.7,12.5c-4.6,3.3-9.9,5.3-15.2,6.9c-5.3,1.6-10.6,3.1-16,4.3
				c-2.7,0.6-5.4,1.2-8.1,1.7c-1.4,0.3-2.7,0.5-4.1,0.7l-2.1,0.3l-1,0.2l-0.5,0.1c-0.2,0-0.3,0-0.7,0.1l0.2,0
				c-6.2,0.7-12.4,1.3-18.6,1.7c-6.2,0.4-12.5,0.5-18.7,0.6c-6.2,0.1-12.5-0.1-18.7-0.4c-6.2-0.3-12.5-0.8-18.7-1.4
				c-6.2-0.7-12.4-1.4-18.5-2.5c-3.1-0.5-6.2-1.1-9.2-1.8c-3.1-0.7-6.1-1.6-9.1-2.5c-6-1.8-11.9-3.9-17.5-6.9
				c-2.8-1.5-5.4-3.2-7.7-5.4c-1.1-1.1-2.2-2.3-2.9-3.7C188.9,529.9,188.5,528.4,188.5,526.8z"/>
		</g>
		<g>
			<path class="st1" d="M188.5,499.7c0.1,1.6,0.7,3,1.5,4.3l0.7,0.9c0.2,0.3,0.5,0.6,0.8,0.8c0.5,0.6,1.1,1,1.7,1.6
				c2.4,1.9,5.1,3.4,7.8,4.7c2.8,1.3,5.7,2.3,8.6,3.3c2.9,1,5.9,1.7,8.9,2.5c3,0.8,5.9,1.5,9,2.1c3,0.6,6.1,1,9.1,1.4
				c6.1,0.8,12.3,1.5,18.4,2c3.1,0.3,6.2,0.5,9.2,0.7c3.1,0.2,6.2,0.4,9.2,0.5c6.2,0.3,12.3,0.3,18.5,0.3c6.2,0,12.4-0.2,18.5-0.5
				c6.2-0.3,12.3-0.7,18.5-1.3l0.2,0l3.8-0.5l4-0.6c2.7-0.4,5.4-0.9,8.1-1.4c5.4-1,10.7-2.2,16-3.6c5.3-1.4,10.5-2.9,15.1-5.8
				c4.6-2.8,8.5-6.8,11.5-11.4c-2.5,4.9-6.2,9.3-10.7,12.5c-4.6,3.3-9.9,5.3-15.2,6.9c-5.3,1.6-10.6,3.1-16,4.3
				c-2.7,0.6-5.4,1.2-8.1,1.7c-1.4,0.3-2.7,0.5-4.1,0.7l-2.1,0.3l-1,0.2l-0.5,0.1c-0.2,0-0.3,0-0.7,0.1l0.2,0
				c-6.2,0.7-12.4,1.3-18.6,1.7c-6.2,0.4-12.5,0.5-18.7,0.6c-6.2,0.1-12.5-0.1-18.7-0.4c-6.2-0.3-12.5-0.8-18.7-1.4
				c-6.2-0.7-12.4-1.4-18.5-2.5c-3.1-0.5-6.2-1.1-9.2-1.8c-3.1-0.7-6.1-1.6-9.1-2.5c-6-1.8-11.9-3.9-17.5-6.9
				c-2.8-1.5-5.4-3.2-7.7-5.4c-1.1-1.1-2.2-2.3-2.9-3.7C188.9,502.8,188.5,501.2,188.5,499.7z"/>
		</g>
		<ellipse class="st2" cx="288.1" cy="497.5" rx="99.6" ry="27.1"/>
		<ellipse class="st0" cx="288.1" cy="497.5" rx="74.3" ry="12.7"/>
		<path class="st3" d="M362.4,497.5c0.2,4.8-21.7,9.2-26.6,10.2c-9.6,1.9-21.5,3.7-54.3,2.4c-23.4-0.9-31.6-0.8-38.2-2.1
			c-12.6-2.3-29.8-6-29.5-10.6c0.2-2.7,6.5-4.6,11.7-6.1c3.4-1,5.1-1.1,15.8-2.7c8.9-1.3,7.5-1.2,11.3-1.7
			c3.8-0.5,10.3-1.2,18.3-1.7c6.4-0.4,11.7-0.5,17.3-0.5c20.3-0.1,31.9,1,47.4,2.4c0,0,9.5,0.9,20.9,6
			C361.8,495.7,362.4,496.8,362.4,497.5z"/>
	</g>
	<g>
		<path class="st0" d="M312.7,450.3l-10.5,27.6c-5.3,14,32,41.2,83.4,60.8s97.4,24.1,102.7,10.1l10.5-27.6L312.7,450.3z"/>
		<g>
			<path class="st1" d="M302.2,477.9c-0.5,1.5-0.4,3.1-0.1,4.6l0.3,1.1c0.1,0.4,0.3,0.7,0.4,1.1c0.2,0.7,0.7,1.4,1,2.1
				c1.5,2.7,3.5,5,5.7,7.2c2.1,2.2,4.5,4.2,6.9,6.1c2.4,2,4.9,3.7,7.4,5.5c2.5,1.9,5,3.5,7.6,5.1c2.6,1.6,5.3,3.1,8,4.6
				c5.4,2.9,10.9,5.7,16.5,8.4c2.8,1.3,5.6,2.6,8.4,3.9c2.8,1.3,5.6,2.5,8.5,3.8c5.7,2.5,11.4,4.7,17.2,6.9
				c5.8,2.2,11.6,4.2,17.5,6.2c5.9,1.9,11.8,3.7,17.7,5.3l0.2,0.1l3.8,0.9l4,0.9c2.7,0.6,5.3,1.1,8,1.6c5.4,0.9,10.8,1.7,16.2,2.3
				c5.4,0.6,10.8,1,16.2-0.1c5.3-1,10.4-3.3,14.8-6.6c-4.1,3.7-9.1,6.4-14.5,7.9c-5.4,1.5-11.2,1.4-16.6,1c-5.5-0.3-11-0.9-16.5-1.7
				c-2.7-0.4-5.5-0.8-8.2-1.3c-1.4-0.2-2.7-0.5-4.1-0.8l-2-0.4l-1-0.2l-0.5-0.1c-0.2-0.1-0.3,0-0.7-0.2l0.2,0.1
				c-6.1-1.5-12.1-3.2-18-5c-5.9-1.9-11.8-3.9-17.7-6.1c-5.9-2.2-11.6-4.5-17.3-7c-5.7-2.5-11.4-5.2-16.9-8
				c-5.6-2.8-11.1-5.8-16.5-8.9c-2.7-1.6-5.4-3.2-8-4.9c-2.6-1.7-5.2-3.6-7.6-5.6c-4.9-3.8-9.8-7.9-13.9-12.6
				c-2-2.4-3.9-4.9-5.3-7.8c-0.6-1.4-1.2-2.9-1.4-4.5C301.5,481,301.6,479.4,302.2,477.9z"/>
		</g>
		<g>
			<path class="st1" d="M311.9,452.6c-0.5,1.5-0.4,3.1-0.1,4.6l0.3,1.1c0.1,0.4,0.3,0.7,0.4,1.1c0.2,0.7,0.7,1.4,1,2.1
				c1.5,2.7,3.5,5,5.7,7.2c2.1,2.2,4.5,4.2,6.9,6.1c2.4,2,4.9,3.7,7.4,5.5c2.5,1.9,5,3.5,7.6,5.1c2.6,1.6,5.3,3.1,8,4.6
				c5.4,2.9,10.9,5.7,16.5,8.4c2.8,1.3,5.6,2.6,8.4,3.9c2.8,1.3,5.6,2.5,8.5,3.8c5.7,2.5,11.4,4.7,17.2,6.9
				c5.8,2.2,11.6,4.2,17.5,6.2c5.9,1.9,11.8,3.7,17.7,5.3l0.2,0.1l3.8,0.9l4,0.9c2.7,0.6,5.3,1.1,8,1.6c5.4,0.9,10.8,1.7,16.2,2.3
				c5.4,0.6,10.8,1,16.2-0.1c5.3-1,10.4-3.3,14.8-6.6c-4.1,3.7-9.1,6.4-14.5,7.9c-5.4,1.5-11.2,1.4-16.6,1c-5.5-0.3-11-0.9-16.5-1.7
				c-2.7-0.4-5.5-0.8-8.2-1.3c-1.4-0.2-2.7-0.5-4.1-0.8l-2-0.4l-1-0.2l-0.5-0.1c-0.2-0.1-0.3,0-0.7-0.2l0.2,0.1
				c-6.1-1.5-12.1-3.2-18-5c-5.9-1.9-11.8-3.9-17.7-6.1c-5.9-2.2-11.6-4.5-17.3-7c-5.7-2.5-11.4-5.2-16.9-8
				c-5.6-2.8-11.1-5.8-16.5-8.9c-2.7-1.6-5.4-3.2-8-4.9c-2.6-1.7-5.2-3.6-7.6-5.6c-4.9-3.8-9.8-7.9-13.9-12.6
				c-2-2.4-3.9-4.9-5.3-7.8c-0.6-1.4-1.2-2.9-1.4-4.5C311.1,455.6,311.3,454,311.9,452.6z"/>
		</g>
		
			<ellipse transform="matrix(0.356 -0.9345 0.9345 0.356 -192.9254 692.0474)" class="st2" cx="405.7" cy="486" rx="27.1" ry="99.6"/>
		
			<ellipse transform="matrix(0.356 -0.9345 0.9345 0.356 -192.9255 692.0472)" class="st0" cx="405.7" cy="486" rx="12.7" ry="74.3"/>
		<path class="st3" d="M475.1,512.5c-1.5,4.6-23.6,0.9-28.5,0.1c-9.6-1.6-21.5-4.2-51.6-17.1c-21.6-9.2-29.2-12-34.9-15.5
			c-10.9-6.7-25.7-16.2-23.8-20.4c1.1-2.4,7.7-2,13.1-1.6c3.6,0.3,5.2,0.8,15.7,3.1c8.8,2,7.4,1.6,11.2,2.5c3.7,0.9,10,2.5,17.7,4.9
			c6.1,1.9,11.1,3.7,16.3,5.7c19,7.2,29.5,12.3,43.4,19.1c0,0,8.6,4.2,17.4,13.1C475.2,510.5,475.4,511.7,475.1,512.5z"/>
	</g>
	<g>
		<path class="st0" d="M73.7,507.7l8.7,28.2c4.4,14.3,50.6,12.8,103.1-3.5s91.5-41,87.1-55.3l-8.7-28.2L73.7,507.7z"/>
		<g>
			<path class="st1" d="M82.4,535.9c0.6,1.5,1.5,2.7,2.7,3.7l0.9,0.7c0.3,0.2,0.7,0.4,1,0.6c0.6,0.4,1.4,0.7,2,1
				c2.8,1.2,5.9,1.7,8.9,2.2c3,0.4,6.1,0.5,9.2,0.6c3.1,0.1,6.1-0.1,9.2-0.2c3.1-0.1,6.1-0.3,9.2-0.7c3-0.4,6.1-0.8,9.1-1.3
				c6.1-1.1,12.2-2.2,18.2-3.5c3-0.7,6-1.4,9-2.1c3-0.7,6-1.5,9-2.2c6-1.6,11.9-3.3,17.8-5.2c5.9-1.8,11.8-3.8,17.6-5.9
				c5.8-2.1,11.6-4.3,17.3-6.7l0.2-0.1l3.5-1.6l3.7-1.8c2.4-1.2,4.9-2.4,7.3-3.7c4.8-2.6,9.6-5.3,14.2-8.2c4.6-2.9,9.2-5.9,12.7-10
				c3.5-4.1,6.1-9,7.6-14.3c-1,5.4-3.2,10.7-6.6,15.1c-3.4,4.5-7.9,8-12.5,11.1c-4.6,3.1-9.2,6.1-14,8.9c-2.4,1.4-4.8,2.7-7.3,4
				c-1.2,0.7-2.4,1.3-3.7,1.9l-1.9,0.9l-0.9,0.4l-0.5,0.2c-0.2,0.1-0.2,0.1-0.7,0.3l0.2-0.1c-5.7,2.5-11.5,4.9-17.3,7.1
				c-5.8,2.2-11.7,4.2-17.7,6.1c-5.9,1.9-12,3.6-18,5.1c-6,1.6-12.1,2.9-18.3,4.1c-6.1,1.2-12.3,2.3-18.5,3.1
				c-3.1,0.4-6.2,0.8-9.3,1c-3.1,0.3-6.3,0.3-9.4,0.3c-6.2,0.1-12.5-0.2-18.7-1.4c-3.1-0.6-6.1-1.5-9-2.9c-1.4-0.7-2.8-1.6-3.9-2.7
				C83.7,538.8,82.8,537.4,82.4,535.9z"/>
		</g>
		<g>
			<path class="st1" d="M74.4,510c0.6,1.5,1.5,2.7,2.7,3.7l0.9,0.7c0.3,0.2,0.7,0.4,1,0.6c0.6,0.4,1.4,0.7,2,1
				c2.8,1.2,5.9,1.7,8.9,2.2c3,0.4,6.1,0.5,9.2,0.6c3.1,0.1,6.1-0.1,9.2-0.2c3.1-0.1,6.1-0.3,9.2-0.7c3-0.4,6.1-0.8,9.1-1.3
				c6.1-1.1,12.2-2.2,18.2-3.5c3-0.7,6-1.4,9-2.1c3-0.7,6-1.5,9-2.2c6-1.6,11.9-3.3,17.8-5.2c5.9-1.8,11.8-3.8,17.6-5.9
				c5.8-2.1,11.6-4.3,17.3-6.7l0.2-0.1l3.5-1.6l3.7-1.8c2.4-1.2,4.9-2.4,7.3-3.7c4.8-2.6,9.6-5.3,14.2-8.2c4.6-2.9,9.2-5.9,12.7-10
				c3.5-4.1,6.1-9,7.6-14.3c-1,5.4-3.2,10.7-6.6,15.1c-3.4,4.5-7.9,8-12.5,11.1c-4.6,3.1-9.2,6.1-14,8.9c-2.4,1.4-4.8,2.7-7.3,4
				c-1.2,0.7-2.4,1.3-3.7,1.9l-1.9,0.9l-0.9,0.4l-0.5,0.2c-0.2,0.1-0.2,0.1-0.7,0.3l0.2-0.1c-5.7,2.5-11.5,4.9-17.3,7.1
				c-5.8,2.2-11.7,4.2-17.7,6.1c-5.9,1.9-12,3.6-18,5.1c-6,1.6-12.1,2.9-18.3,4.1c-6.1,1.2-12.3,2.3-18.5,3.1
				c-3.1,0.4-6.2,0.8-9.3,1c-3.1,0.3-6.3,0.3-9.4,0.3c-6.2,0.1-12.5-0.2-18.7-1.4c-3.1-0.6-6.1-1.5-9-2.9c-1.4-0.7-2.8-1.6-3.9-2.7
				C75.7,512.8,74.8,511.5,74.4,510z"/>
		</g>
		
			<ellipse transform="matrix(0.9554 -0.2954 0.2954 0.9554 -133.8043 71.2312)" class="st2" cx="168.9" cy="478.5" rx="99.6" ry="27.1"/>
		
			<ellipse transform="matrix(0.9554 -0.2954 0.2954 0.9554 -133.8041 71.2311)" class="st0" cx="168.9" cy="478.5" rx="74.3" ry="12.7"/>
		<path class="st3" d="M239.9,456.6c1.6,4.5-18,15.2-22.4,17.6c-8.6,4.7-19.5,9.9-51.2,18.4c-22.7,6-30.4,8.5-37.1,9.3
			c-12.7,1.5-30.3,3.1-31.3-1.4c-0.6-2.6,4.8-6.3,9.3-9.3c3-2,4.6-2.6,14.3-7.2c8.1-3.8,6.8-3.4,10.3-4.9c3.5-1.6,9.4-4.2,17-7
			c6-2.2,11-3.9,16.4-5.6c19.4-6,30.8-8.5,46-11.7c0,0,9.4-2,21.8-0.4C238.7,455,239.6,455.8,239.9,456.6z"/>
	</g>
</g>
</svg>
