<svg width="18" height="18" viewBox="0 0 18 18" fill="none" xmlns="http://www.w3.org/2000/svg">
<path fill-rule="evenodd" clip-rule="evenodd" d="M12.9584 10.4172C13.4644 10.4172 13.8892 10.8349 13.8118 11.3346C13.3579 14.2746 10.841 16.4575 7.8055 16.4575C4.44708 16.4575 1.72498 13.7354 1.72498 10.3778C1.72498 7.61144 3.82655 5.03459 6.19261 4.45196C6.70103 4.32644 7.22208 4.68407 7.22208 5.20749C7.22208 8.7538 7.34129 9.67117 8.01471 10.1701C8.68813 10.6691 9.47998 10.4172 12.9584 10.4172Z" stroke="#130F26" stroke-width="1.5" stroke-linecap="round" stroke-linejoin="round"/>
<path fill-rule="evenodd" clip-rule="evenodd" d="M16.2694 7.46389C16.3096 5.18547 13.5109 1.51284 10.1004 1.576C9.83514 1.58074 9.62277 1.80179 9.61093 2.06626C9.52488 3.93968 9.64093 6.36732 9.70567 7.46784C9.7254 7.81047 9.99461 8.07968 10.3365 8.09942C11.4678 8.16416 13.9838 8.25258 15.8304 7.9731C16.0815 7.93521 16.2654 7.71732 16.2694 7.46389Z" stroke="#130F26" stroke-width="1.5" stroke-linecap="round" stroke-linejoin="round"/>
</svg>
