<?xml version="1.0" encoding="utf-8"?>
<!-- Generator: Adobe Illustrator 24.0.0, SVG Export Plug-In . SVG Version: 6.00 Build 0)  -->
<svg version="1.1" id="Fedora" xmlns="http://www.w3.org/2000/svg" xmlns:xlink="http://www.w3.org/1999/xlink" x="0px" y="0px"
	 viewBox="0 0 104.8 103.7" style="enable-background:new 0 0 104.8 103.7;" xml:space="preserve">
<style type="text/css">
	.st0{fill:#A51C1C;}
	.st1{fill:#E5C333;}
	.st2{fill:#FFFFFF;}
	.st3{fill:#2B2B2B;}
	.st4{clip-path:url(#fedora_SVGID_2_);}
	.st5{fill:#161616;}
	.st6{clip-path:url(#fedora_SVGID_4_);}
	.st7{clip-path:url(#fedora_SVGID_6_);}
</style>
<g id="Color_body">
	<path class="st0" d="M68.8,47.9l-1.1,35.4c0,1.7-0.3,3.4-0.9,5c-1.9,4.8-6.6,7.6-11.3,9.1c0.9-1.4,4.2-7.2,2.1-9.4
		c-0.5-0.5-1.2-0.7-1.9-0.6c0.3-1.4-0.4-3.4-2.2-3.3c0.7-2.4,1.3-4.8,1.8-7.3c4.1-2.4,7.5-4.7,7.7-4.9c0.3-0.2,0.4-0.7,0.1-1.1
		c-0.2-0.3-0.7-0.4-1-0.1c-1.7,1.2-4.7,3.2-7.9,5c-0.1,0-0.1,0-0.2,0.1c-4.7,2.7-9.8,5-12.4,4.5c-0.5-0.1-0.9-0.4-1.2-0.8
		c-2-3.4,1.4-7.2,5.7-12c4.6-5.2,9.8-11.1,10.1-18.6l0,0v-0.7C56.3,33.5,44.7,23,30.6,24.1C48.5,15.6,69.3,27.9,68.8,47.9z"/>
	<path class="st0" d="M14.6,66.1v6.4c-0.4,0.3-0.8,0.7-1.2,1.1c-0.4,0.4-0.8,0.9-1.2,1.4C11.9,71.9,12.8,68.7,14.6,66.1z"/>
	<path class="st0" d="M21.3,50.8l9.8-2.7c0.1,0.6,0.2,1.3,0.2,1.9c0,1.1-0.2,2.2-0.6,3.3L21.3,50.8z"/>
</g>
<g id="Shape">
	<polygon class="st1" points="51.1,85.5 50.3,83.9 49.2,83.6 47.5,85.2 45.5,86.6 43.5,89.2 42,92 40.9,95.8 41.2,99.1 42.7,101.6 
		44.2,102.6 47.1,103 50.9,101.7 54.5,97.5 56.7,93.3 57.5,89.8 56.7,88.2 54.9,88.5 54.9,85.8 53.5,84.8 51.8,85.2 	"/>
	<polygon class="st1" points="7.3,84.1 5.7,82.9 4.5,82.7 3.5,83.6 3.5,85.2 3,86.1 1.3,86.4 0.8,87.2 0.8,88.9 3.7,95.1 6.2,98.1 
		9.2,100.6 12.2,100.8 14.9,100 17,97.5 17.5,93.3 16.4,89.8 14.1,86 12.2,83.6 10.3,82 8.6,81.5 7.4,82.8 	"/>
	<path class="st2" d="M40.7,99.8c-9.6,0.4-18.5-1-20.9-1.9c-0.7-0.2-1.3-0.5-1.9-0.8c1.6-5.3-2.4-12.3-7.2-15.8
		c1.3-5.4,5.7-9.5,11.1-10.5c0.4-0.1,0.7-0.5,0.6-0.9c-0.3-1.7-5.3,0.9-6.2,1.4v-19c2.6,2.2,6.2,2.6,9.2,1.2l6.3,1.6
		c1.3-2.8,1.5-5.9,0.6-8.8l-2.2,0.6c0.9-6.6-6.5-11.7-12.3-8.4c1.9-5.1,5.2-9.5,9.7-12.6c14.3-3.2,27.7,6.9,27.5,22.2
		c0,7.3-5.2,13.1-9.8,18.3c-4.5,5.1-8.4,9.4-5.8,13.8c2.7,3.9,10-0.2,14.3-2.4c-0.5,2.3-1.1,4.6-1.9,6.9l0,0
		c-2.1-5.3-7.8,2.2-9.3,4.8C40.2,93,39.6,97,40.7,99.8z"/>
	<circle cx="42.9" cy="45" r="8.1"/>
	<path d="M62.6,28.1c-9.1-9.7-25.2-11-36.1-3.5c-3.6,2.5-6.6,5.8-8.7,9.7c-0.9,1.8-1.7,3.7-2.2,5.6c-2.7,2.9-3.2,7.3-1,10.6v13
		c-1,1.1-5.2,6.3-3.7,13.1c-0.8,1.3-1.3,2.7-1.7,4.1c-1.2-0.2-2.4,0.6-2.6,1.8c-2.3-1.7-4.5,0.1-4,2.7c-0.7-0.1-1.4,0.1-1.9,0.6
		c-2.2,2.4,1.8,8.9,2.3,9.7c3.4,5.5,10.7,8.8,14.3,3c0.6,0.3,1.3,0.6,2,0.8c2,1,14.9,2.5,22.2,1.9c3.3,4.6,9.6,1.9,12.6-1.8
		c7.8-2,15.3-7.2,15.1-16c0-0.2,1.1-35.4,1.1-35.4C70.5,40.6,67.7,33.5,62.6,28.1z M21.3,50.8l9.8-2.7c0.3,1.7,0.2,3.5-0.4,5.1
		L21.3,50.8z M14.6,66.1v6.4c-0.4,0.3-0.8,0.7-1.2,1.1c-0.4,0.4-0.8,0.9-1.2,1.4C11.9,71.9,12.8,68.7,14.6,66.1z M14.5,99.4
		c-2.9,1.8-7.5-0.3-10.2-4.7C2,91.3,0,85.2,3.2,87c0.6,0.5,1.4-0.2,1.2-0.9c-0.9-2.8,0.3-3.8,2.3-1.6c0.3,0.3,0.7,0.3,1.1,0.1
		C7.9,84.4,8,84.2,8,83.9c-0.2-4.1,3.8-0.4,6.7,4.2C17.5,92.6,17.4,97.6,14.5,99.4L14.5,99.4z M40.7,99.8c-9.6,0.4-18.5-1-20.9-1.9
		c-0.7-0.2-1.3-0.5-1.9-0.8c1.6-5.3-2.4-12.3-7.2-15.8c1.3-5.4,5.7-9.5,11.1-10.5c0.4-0.1,0.7-0.5,0.6-0.9c-0.3-1.7-5.3,0.9-6.2,1.4
		v-19c2.6,2.2,6.2,2.6,9.2,1.2l6.3,1.6c1.3-2.8,1.5-5.9,0.6-8.8l-2.2,0.6c0.9-6.6-6.5-11.7-12.3-8.4c1.9-5.1,5.2-9.5,9.7-12.6
		c14.3-3.2,27.7,6.9,27.5,22.2c0,7.3-5.2,13.1-9.8,18.3c-4.5,5.1-8.4,9.4-5.8,13.8c2.7,3.9,10-0.2,14.3-2.4
		c-0.5,2.3-1.1,4.6-1.9,6.9l0,0c-2.1-5.3-7.8,2.2-9.3,4.8C40.2,93,39.6,97,40.7,99.8z M54.1,96.9c-6.3,9.8-17,5-10.4-6.6
		c2.7-4.3,6.8-8.4,6.7-4.2c-0.1,0.4,0.2,0.8,0.6,0.8c0.3,0,0.5-0.1,0.7-0.2c0.3-0.3,1.6-1.5,2.3-1.1s0.3,2.1,0.1,2.7
		c-0.3,0.7,0.6,1.3,1.2,0.9C58.3,87.4,56.3,93.5,54.1,96.9z M68.8,47.9l-1.1,35.4c0,1.7-0.3,3.4-0.9,5c-1.9,4.8-6.6,7.6-11.3,9.1
		c0.9-1.4,4.2-7.2,2.1-9.4c-0.5-0.5-1.2-0.7-1.9-0.6c0.3-1.4-0.4-3.4-2.2-3.3c0.7-2.4,1.3-4.8,1.8-7.3c4.1-2.4,7.5-4.7,7.7-4.9
		c0.3-0.2,0.4-0.7,0.1-1.1c-0.2-0.3-0.7-0.4-1-0.1c-1.7,1.2-4.7,3.2-7.9,5c-0.1,0-0.1,0-0.2,0.1c-4.7,2.7-9.8,5-12.4,4.5
		c-0.5-0.1-0.9-0.4-1.2-0.8c-2-3.4,1.4-7.2,5.7-12c4.6-5.2,9.8-11.1,10.1-18.6l0,0v-0.7C56.3,33.5,44.7,23,30.6,24.1
		C48.5,15.6,69.3,27.9,68.8,47.9z"/>
	<circle class="st2" cx="39.9" cy="42.5" r="2.6"/>
	<circle class="st2" cx="18.6" cy="43.3" r="2.7"/>
	<g id="Fedora-2">
		<path class="st3" d="M31.9,16.7c0,0-15.2-0.8-15.9,7.7c0,0,1,12.2,32.3,15.2c0,0,15.4,1.1,25.6-1.8c0,0,5.9-2.8-1-5.8L31.9,16.7z"
			/>
		<path d="M55.3,40.5c-3.9,0-6.7-0.2-7-0.2c-31.5-3-32.9-15.3-32.9-15.8v-0.2c0.7-9,15.9-8.3,16.5-8.3h0.2l41,15.3
			c2.5,1.1,3.7,2.3,3.8,3.6c0,2-2.5,3.2-2.7,3.3h-0.1C68.2,40.1,60.7,40.5,55.3,40.5z M16.7,24.4c0.1,0.8,2.4,11.7,31.7,14.6
			c0.1,0,15.4,1,25.3-1.8c0.6-0.3,2-1.2,2-2.1c0-0.8-1.1-1.6-2.9-2.5L31.9,17.3C30.5,17.3,17.3,17.1,16.7,24.4L16.7,24.4z"/>
		<g>
			<defs>
				<path id="fedora_SVGID_1_" d="M31.9,16.2c0,0-15.2-0.8-15.9,7.7c0,0,1,12.2,32.3,15.2c0,0,15.4,1.1,25.6-1.8c0,0,5.9-2.8-1-5.8
					L31.9,16.2z"/>
			</defs>
			<clipPath id="fedora_SVGID_2_">
				<use xlink:href="#fedora_SVGID_1_"  style="overflow:visible;"/>
			</clipPath>
			<g class="st4">
				<path class="st5" d="M64.2,9.5c0,0-16.4-1.5-21,11.8c0,0-4.4,19.1,28.7,24.3c0,0,16.5,1.9,29-2.4c0,0,7.8-4.3,1.6-9L64.2,9.5z"
					/>
			</g>
		</g>
		<path d="M55.3,40.5c-3.9,0-6.7-0.2-7-0.2c-31.5-3-32.9-15.3-32.9-15.8v-0.2c0.7-9,15.9-8.3,16.5-8.3h0.2l41,15.3
			c2.5,1.1,3.7,2.3,3.8,3.6c0,2-2.5,3.2-2.7,3.3h-0.1C68.2,40.1,60.7,40.5,55.3,40.5z M16.7,24.4c0.1,0.8,2.4,11.7,31.7,14.6
			c0.1,0,15.4,1,25.3-1.8c0.6-0.3,2-1.2,2-2.1c0-0.8-1.1-1.6-2.9-2.5L31.9,17.3C30.5,17.3,17.3,17.1,16.7,24.4L16.7,24.4z"/>
		<path class="st5" d="M26.7,27.6L33.4,11c1.1-2.7,3-5,5.5-6.6c1.6-1,3.4-1.5,5.3-1.3c4.4,0.2,8.6,1.5,12.3,3.8
			c2.3,1.4,4.9,2.3,7.5,2.8c2.6,0.5,5.3,2.1,4.4,7.4l-3.5,17.5C64.9,34.6,28.5,38.4,26.7,27.6z"/>
		<path d="M51.4,35.9c-10.8,0-24.2-1.4-25.3-8.3v-0.2l6.8-16.7C34,7.9,36,5.4,38.7,3.8c1.7-1.1,3.6-1.5,5.6-1.4
			c4.5,0.2,8.8,1.6,12.6,3.9c2.2,1.4,4.7,2.3,7.3,2.7c2.3,0.4,6,2,5,8.2l-3.7,17.9H65C60.4,35.7,55.9,36,51.4,35.9z M27.4,27.6
			C29,35.7,54.1,35,64.3,34l3.5-17c0.7-3.8-0.7-6.1-3.9-6.7c-2.7-0.5-5.3-1.5-7.7-2.9c-3.6-2.2-7.8-3.5-12-3.7
			c-1.7-0.1-3.4,0.3-4.9,1.2C36.8,6.4,35,8.6,34,11.2L27.4,27.6z"/>
		<g>
			<defs>
				<path id="fedora_SVGID_3_" d="M26.7,27.6L33.4,11c1.1-2.7,3-5,5.5-6.6c1.6-1,3.4-1.5,5.3-1.3c4.4,0.2,8.6,1.5,12.3,3.8
					c2.3,1.4,4.9,2.3,7.5,2.8c2.6,0.5,5.3,2.1,4.4,7.4l-3.5,17.5C64.9,34.6,28.5,38.4,26.7,27.6z"/>
			</defs>
			<clipPath id="fedora_SVGID_4_">
				<use xlink:href="#fedora_SVGID_3_"  style="overflow:visible;"/>
			</clipPath>
			<g class="st6">
				<path class="st3" d="M19.9,24.5l6.7-16.6c1.1-2.7,3-5,5.5-6.6c1.6-1,3.4-1.5,5.3-1.3c4.4,0.2,8.6,1.5,12.3,3.8
					c2.3,1.4,4.9,2.3,7.5,2.8c2.6,0.5,5.3,2.1,4.4,7.4L58,31.6C58,31.6,21.6,35.4,19.9,24.5z"/>
			</g>
		</g>
		<path d="M51.4,35.9c-10.8,0-24.2-1.4-25.3-8.3v-0.2l6.8-16.7C34,7.9,36,5.4,38.7,3.8c1.7-1.1,3.6-1.5,5.6-1.4
			c4.5,0.2,8.8,1.6,12.6,3.9c2.2,1.4,4.7,2.3,7.3,2.7c2.3,0.4,6,2,5,8.2l-3.7,17.9H65C60.4,35.7,55.9,36,51.4,35.9z M27.4,27.6
			C29,35.7,54.1,35,64.3,34l3.5-17c0.7-3.8-0.7-6.1-3.9-6.7c-2.7-0.5-5.3-1.5-7.7-2.9c-3.6-2.2-7.8-3.5-12-3.7
			c-1.7-0.1-3.4,0.3-4.9,1.2C36.8,6.4,35,8.6,34,11.2L27.4,27.6z"/>
		<g>
			<defs>
				<path id="fedora_SVGID_5_" d="M28.5,23.3c0,0,9.5,10.1,37.3,7l-0.9,4.3c0,0-36.4,3.8-38.1-7.1L28.5,23.3z"/>
			</defs>
			<clipPath id="fedora_SVGID_6_">
				<use xlink:href="#fedora_SVGID_5_"  style="overflow:visible;"/>
			</clipPath>
			<g class="st7">
				
					<image style="overflow:visible;enable-background:new    ;" width="167" height="54" xlink:href="A102ECEF.png"  transform="matrix(0.2349 0 0 0.2349 26.5657 22.9776)">
				</image>
			</g>
		</g>
		<path d="M51.4,35.9c-10.8,0-24.2-1.4-25.3-8.3v-0.2l2.2-5.4l0.7,0.7c0.1,0.1,9.7,9.8,36.8,6.8l0.9-0.1L65.5,35H65
			C64.4,35.3,58.5,35.9,51.4,35.9z M27.4,27.6C29,35.7,54.1,35,64.3,34l0.6-3c-23.3,2.3-33.6-4.4-36.2-6.7L27.4,27.6z"/>
	</g>
</g>
</svg>
