<?xml version="1.0" encoding="utf-8"?>
<!-- Generator: Adobe Illustrator 25.2.3, SVG Export Plug-In . SVG Version: 6.00 Build 0)  -->
<svg version="1.1" id="Layer_1" xmlns="http://www.w3.org/2000/svg" xmlns:xlink="http://www.w3.org/1999/xlink" x="0px" y="0px"
	 viewBox="0 0 1003.5 190.4" style="enable-background:new 0 0 1003.5 190.4;" xml:space="preserve">
<style type="text/css">
	.st0{fill:#332452;}
	.st1{opacity:0.17;}
	.st2{clip-path:url(#SVGID_2_);fill:none;stroke:#AE00FF;stroke-width:2.5;stroke-linecap:round;stroke-miterlimit:10;}
	
		.st3{clip-path:url(#SVGID_2_);fill:none;stroke:#AE00FF;stroke-width:2.5;stroke-linecap:round;stroke-linejoin:round;stroke-miterlimit:10;}
	.st4{clip-path:url(#SVGID_2_);fill:#AE00FF;}
	.st5{fill:#FFFFFF;stroke:#14142B;stroke-width:8;stroke-miterlimit:10;}
	.st6{fill:#FFFFFF;}
	.st7{fill:#D4DCFC;stroke:#1B193C;stroke-width:2.5;stroke-miterlimit:10;}
	.st8{fill:#928A99;}
	.st9{fill:#CFC3D9;}
	.st10{fill:#96ACE2;stroke:#1B193C;stroke-width:2.5;stroke-miterlimit:10;}
	.st11{fill:none;stroke:#1B193C;stroke-width:2.5;stroke-miterlimit:10;}
	.st12{fill:#0C5B27;stroke:#1B193C;stroke-width:2.5;stroke-miterlimit:10;}
	.st13{fill:#8DDB00;}
	.st14{fill:#1B193C;}
	.st15{fill:#FFCF00;stroke:#1B193C;stroke-width:2.5;stroke-miterlimit:10;}
	.st16{fill:none;stroke:#1B193C;stroke-width:2.5;stroke-linecap:round;stroke-miterlimit:10;}
	.st17{fill:#EFEFEF;stroke:#1B193C;stroke-width:2.5;stroke-miterlimit:10;}
	.st18{fill:#BFC7D8;}
	.st19{opacity:0.2;fill:#1B193C;}
	.st20{fill:#0DB5FF;}
	.st21{fill:#FFCF00;}
	.st22{opacity:0.26;fill:#FF9D00;}
	.st23{fill:#FFBC00;stroke:#1B193C;stroke-width:2.5;stroke-miterlimit:10;}
	.st24{opacity:0.31;fill:url(#SVGID_3_);}
	.st25{fill:none;stroke:#00FFEF;stroke-width:2.5;stroke-linecap:round;stroke-miterlimit:10;}
	.st26{opacity:0.21;fill:#98B7D5;}
	.st27{fill:#FF9147;}
	.st28{fill:#FFC849;}
	.st29{fill:url(#SVGID_4_);}
	.st30{fill:none;stroke:#9B5CFF;stroke-width:4;stroke-miterlimit:10;}
	.st31{fill:#D9DBF0;}
	.st32{opacity:0.28;fill:#55528C;}
	.st33{fill:none;stroke:#1B193C;stroke-width:2;stroke-miterlimit:10;}
	.st34{fill:#FF2134;}
	.st35{fill:#D61456;}
	.st36{fill:#9887FA;}
	.st37{opacity:0.3982;fill:#6A63D9;}
	.st38{fill:url(#SVGID_5_);}
	.st39{fill:url(#SVGID_6_);}
	.st40{fill:url(#SVGID_7_);}
	.st41{fill:url(#SVGID_8_);}
	.st42{fill:none;stroke:#000000;stroke-width:7;stroke-miterlimit:10;}
	.st43{fill:#22303D;stroke:#1B193C;stroke-width:2.5;stroke-miterlimit:10;}
	.st44{fill:#344355;}
	.st45{fill:#8B96A3;stroke:#1B193C;stroke-width:2.5;stroke-linecap:round;stroke-miterlimit:10;}
	.st46{fill:#E3E3E3;}
	.st47{fill:#FF2134;stroke:#1B193C;stroke-width:2.5;stroke-linecap:round;stroke-miterlimit:10;}
</style>
<g>
	<path class="st0" d="M937.1,168.9H53.6c-12.4,0-22.5-10.1-22.5-22.5V62.3c0-12.4,10.1-22.5,22.5-22.5h883.4
		c12.4,0,22.5,10.1,22.5,22.5v84.1C959.5,158.8,949.5,168.9,937.1,168.9z"/>
</g>
<g class="st1">
	<defs>
		<path id="SVGID_1_" class="st1" d="M937.1,168.9H53.6c-12.4,0-22.5-10.1-22.5-22.5V62.3c0-12.4,10.1-22.5,22.5-22.5h883.4
			c12.4,0,22.5,10.1,22.5,22.5v84.1C959.5,158.8,949.5,168.9,937.1,168.9z"/>
	</defs>
	<clipPath id="SVGID_2_">
		<use xlink:href="#SVGID_1_"  style="overflow:visible;"/>
	</clipPath>
	<path class="st2" d="M283.1,55.4c26.4-12.2,52.4-25.4,78.8-37.6"/>
	<path class="st2" d="M4.3,187c18-9.6,37-16.6,55-25.6c29-14,56-27,85-40c4-2,8-5,12-7c3-1,6-2,9-3c30-14,59-28,89.3-42.8"/>
	<path class="st2" d="M299.3,120.3c63-28.9,124-59.9,188-89.9c2-1,3,0,5-1c22-11,43-19,65-30c2-2,4-4,7.3-4.8"/>
	<path class="st2" d="M207.1,163.8c22.2-9.4,44.2-21.4,65.9-31.2"/>
	<path class="st3" d="M517.2,54.4c24.1-11,48.1-22,72.3-34.2"/>
	<path class="st3" d="M231.9,189.3c90.4-42,180.4-86,270.8-128.1"/>
	<path class="st2" d="M739,52.4c24.3-12,48.3-22,72.6-34.3"/>
	<path class="st2" d="M454,187.2c85.4-40.9,170.4-81.9,256-121.2"/>
	<path class="st2" d="M732.5,97.2c31.9-14.9,62.9-29.9,94.9-44.9"/>
	<path class="st2" d="M469.8,221.5c28.9-13.7,57.9-27.4,86.8-41.1c28.8-13.6,57.7-27.3,86.5-40.9c16.3-7.7,32.6-15.4,48.9-23"/>
	<path class="st2" d="M662.6,173.6c26.4-12.2,52.4-25.4,78.8-37.6"/>
	<path class="st2" d="M383.8,305.2c18-9.6,37-16.6,55-25.6c29-14,56-27,85-40c4-2,8-5,12-7c3-1,6-2,9-3c30-14,59-28,89.3-42.8"/>
	<path class="st2" d="M678.8,238.5c63-28.9,124-59.9,188-89.9c2-1,3,0,5-1c22-11,43-19,65-30c2-2,4-4,7.3-4.8"/>
	<path class="st2" d="M586.6,282c22.2-9.4,44.2-21.4,65.9-31.2"/>
	<path class="st3" d="M896.7,172.6c24.1-11,48.1-22,72.3-34.2"/>
	<path class="st3" d="M611.5,307.6c90.4-42,180.4-86,270.8-128.1"/>
	<path class="st2" d="M203.6,12.9c24.3-12,48.3-22,72.6-34.3"/>
	<path class="st2" d="M-81.4,147.8C4,106.9,89,65.9,174.6,26.5"/>
	<path class="st2" d="M197.1,57.8C229,42.9,260,27.9,292,12.9"/>
	
		<rect x="237.4" y="-135.2" transform="matrix(0.4367 0.8996 -0.8996 0.4367 224.2588 -166.2985)" class="st4" width="15" height="462.2"/>
	
		<rect x="509.4" y="-122.7" transform="matrix(0.4367 0.8996 -0.8996 0.4367 391.5121 -408.532)" class="st4" width="25.2" height="462.2"/>
	
		<rect x="778.6" y="-88.4" transform="matrix(0.4367 0.8996 -0.8996 0.4367 578.3132 -638.2802)" class="st4" width="40.4" height="462.2"/>
	<path class="st2" d="M-65.6,182.1c28.9-13.7,57.9-27.4,86.8-41.1c28.8-13.6,57.7-27.3,86.5-40.9c16.3-7.7,32.6-15.4,48.9-23"/>
</g>
<g>
	<path class="st5" d="M369.8,77.5h20.3l23.1,24.9V77.5h21.5v56.3h-19.3l-24.1-26v26h-21.5V77.5z"/>
	<path class="st5" d="M442.8,77.5h55.3v15.4h-34v5.7h31.7v13.6h-31.7v6.1h34.4v15.4h-55.7V77.5z"/>
	<path class="st5" d="M499.9,125.3l11.6-12c7,4.7,15.1,6.6,22.7,6.6c3.9,0,5.6-0.9,5.6-2.4v-0.2c0-1.6-2-2.5-9-3.7
		c-14.5-2.6-27.3-6.2-27.3-18.1v-0.2c0-10.7,9.6-19,27.5-19c12.5,0,21.8,2.6,29.3,7.7l-10.6,12.7c-6.1-3.9-13.4-5.5-19.4-5.5
		c-3.2,0-4.7,1-4.7,2.3v0.2c0,1.5,1.8,2.5,8.6,3.6c16.6,2.7,27.7,6.8,27.7,18.2v0.2c0,11.8-11.2,19.1-28.6,19.1
		C520,134.8,508.1,131.6,499.9,125.3z"/>
	<path class="st5" d="M581.8,93.4h-19.1V77.5h59.8v15.9h-19.1v40.4h-21.7V93.4z"/>
</g>
<g>
	<path class="st6" d="M369.8,77.5h20.3l23.1,24.9V77.5h21.5v56.3h-19.3l-24.1-26v26h-21.5V77.5z"/>
	<path class="st6" d="M442.8,77.5h55.3v15.4h-34v5.7h31.7v13.6h-31.7v6.1h34.4v15.4h-55.7V77.5z"/>
	<path class="st6" d="M499.9,125.3l11.6-12c7,4.7,15.1,6.6,22.7,6.6c3.9,0,5.6-0.9,5.6-2.4v-0.2c0-1.6-2-2.5-9-3.7
		c-14.5-2.6-27.3-6.2-27.3-18.1v-0.2c0-10.7,9.6-19,27.5-19c12.5,0,21.8,2.6,29.3,7.7l-10.6,12.7c-6.1-3.9-13.4-5.5-19.4-5.5
		c-3.2,0-4.7,1-4.7,2.3v0.2c0,1.5,1.8,2.5,8.6,3.6c16.6,2.7,27.7,6.8,27.7,18.2v0.2c0,11.8-11.2,19.1-28.6,19.1
		C520,134.8,508.1,131.6,499.9,125.3z"/>
	<path class="st6" d="M581.8,93.4h-19.1V77.5h59.8v15.9h-19.1v40.4h-21.7V93.4z"/>
</g>
<g>
	
		<ellipse transform="matrix(0.111 -0.9938 0.9938 0.111 -39.1788 224.1929)" class="st7" cx="105.7" cy="134" rx="46.9" ry="101.9"/>
	<path class="st8" d="M47.6,117.7l-10.4,5.5l-6.5,6.4l-6.3,10.1l-0.3,6.5l16.1,18l19.1,6.7l2.6-12.7l3.7-13.6c0,0,5.2-8.1,4.7-7.4
		c-0.5,0.7,4-5.3,4-5.3l-1.7-0.1l-15.2-5.7l-4.5-2.8L47.6,117.7z"/>
	<path class="st9" d="M32.8,112.9l-10.4,5.5l-6.5,6.4L9.6,135l-0.3,6.5l16.3,15.2l18.8,9.5l0.8-13.5l3.9-13c0,0,5.6-9,5.1-8.3
		s2.5-2.9,2.5-2.9l0.9-1.5l-15.2-5.7l-4.5-2.8L32.8,112.9z"/>
	
		<ellipse transform="matrix(0.111 -0.9938 0.9938 0.111 -20.231 210.7004)" class="st10" cx="107.7" cy="116.7" rx="21.4" ry="74.6"/>
	<path class="st11" d="M181.8,124.9c-1.3,11.8-35.6,17.6-76.5,13"/>
	<path class="st9" d="M74.2,132c-3.2,3.7-8.2,10.6-11,20.6c-2.4,8.3-2.3,15.4-1.9,20c12.7,4.5,31.5,9.5,54.6,10.2
		c25.6,0.7,46.4-4.2,59.8-8.5c1.1-3.7,2.7-11.3,0.8-20.6c-1.8-9.1-6.1-15.3-8.5-18.3c-13,2.8-30.8,5.3-51.9,4
		C99.6,138.3,85.3,135.2,74.2,132z"/>
	
		<ellipse transform="matrix(0.111 -0.9938 0.9938 0.111 -39.1788 224.1929)" class="st11" cx="105.7" cy="134" rx="46.9" ry="101.9"/>
	<path class="st7" d="M140,181.4c0-6.9-0.4-14.5-1.5-22.7c-1.7-13.4-4.7-24.8-7.7-34c-6.5,0.2-13.1,0.4-19.6,0.6
		c-3.2,9.1-6.3,19.7-8.6,31.6c-1.7,8.4-2.8,16.3-3.4,23.6c0.5,0.1,0.9,0.1,1.4,0.2C114.4,182.2,127.7,182.4,140,181.4z"/>
	<path class="st12" d="M133.4,158.9c-1.2-9.6-3.4-17.8-5.5-24.4c-4.7,0.2-9.4,0.3-14.1,0.5c-2.3,6.5-4.5,14.1-6.2,22.7
		c-1.7,8.6-2.6,16.5-3,23.4c10.3,1,20.3,1.2,29.7,0.7C134.7,175.2,134.5,167.5,133.4,158.9z"/>
	
		<rect x="117.4" y="148.1" transform="matrix(0.9998 -1.908617e-02 1.908617e-02 0.9998 -2.8616 2.3366)" class="st13" width="7.2" height="5.9"/>
	
		<rect x="117" y="162.4" transform="matrix(0.9998 -1.908617e-02 1.908617e-02 0.9998 -3.1344 2.333)" class="st13" width="7.2" height="5.9"/>
	
		<rect x="106.6" y="168.6" transform="matrix(0.9998 -1.908617e-02 1.908617e-02 0.9998 -3.2543 2.1483)" class="st13" width="8.7" height="5.9"/>
	
		<rect x="124.7" y="175.1" transform="matrix(0.9998 -1.908617e-02 1.908617e-02 0.9998 -3.3744 2.4957)" class="st13" width="8.7" height="5.9"/>
	
		<rect x="125.9" y="161.9" transform="matrix(0.9998 -1.908617e-02 1.908617e-02 0.9998 -3.1234 2.5152)" class="st13" width="8.7" height="5.9"/>
	
		<rect x="125.2" y="154.5" transform="matrix(0.9998 -1.908617e-02 1.908617e-02 0.9998 -2.9826 2.5011)" class="st13" width="8.7" height="5.9"/>
	
		<rect x="111.3" y="139.6" transform="matrix(0.9998 -1.908617e-02 1.908617e-02 0.9998 -2.7053 2.2061)" class="st13" width="5.9" height="6.5"/>
	<path class="st14" d="M129.9,146.2c-5.9,0.1-12-0.1-18.1-0.6c-0.2,0.8-0.5,1.6-0.7,2.5c6.5,0.5,13,0.7,19.3,0.6
		C130.2,147.9,130.1,147.1,129.9,146.2z"/>
	<path class="st14" d="M131.3,153.1c-7,0.2-14.1,0-21.3-0.6c-0.2,0.8-0.4,1.6-0.5,2.5c7.5,0.6,15,0.8,22.2,0.7
		C131.5,154.7,131.4,153.9,131.3,153.1z"/>
	<path class="st14" d="M132.3,159.9c-7.7,0.2-15.7,0-23.7-0.6c-0.2,0.8-0.3,1.6-0.4,2.5c8.3,0.7,16.5,0.9,24.4,0.7
		C132.5,161.6,132.4,160.7,132.3,159.9z"/>
	<path class="st14" d="M133.1,170.1c0,1.2,0,2.3-0.1,3.5c-8.6,0.4-17.5,0.2-26.5-0.6c-0.1,0.8-0.2,1.7-0.2,2.5
		c9.1,0.8,18.2,1,26.9,0.6C133.2,174.1,133.2,172.1,133.1,170.1z"/>
	<path class="st14" d="M132.9,166.7c-8.3,0.3-16.8,0.1-25.5-0.6c-0.1,0.8-0.3,1.7-0.4,2.5c8.8,0.7,17.6,1,26,0.6
		C133,168.4,133,167.6,132.9,166.7z"/>
	<path class="st11" d="M124.3,138.7c0.9,8.8,1.4,18.7,0.8,29.6c-0.3,5-0.7,9.8-1.3,14.2"/>
	<path class="st11" d="M117,138.4c0.4,8.8,0.3,18.7-0.9,29.6c-0.6,5-1.3,9.7-2.1,14.1"/>
	<path class="st11" d="M133.4,158.9c-1.2-9.6-3.4-17.8-5.5-24.4c-4.7,0.2-9.4,0.3-14.1,0.5c-2.3,6.5-4.5,14.1-6.2,22.7
		c-1.7,8.6-2.6,16.5-3,23.4c10.3,1,20.3,1.2,29.7,0.7C134.7,175.2,134.5,167.5,133.4,158.9z"/>
	<circle class="st15" cx="112.5" cy="88.8" r="26"/>
	<path class="st16" d="M119.3,74.3c-1.5-0.7-3.2-1.2-5-1.4c-8.8-1-16.7,5.3-17.7,14.1c-1,8.8,5.3,16.7,14.1,17.7
		c8.8,1,16.7-5.3,17.7-14.1c0.4-3.4-0.3-6.7-1.9-9.4"/>
	<path class="st17" d="M105.3,138c2.2,0.2,4.3,0.4,6.5,0.6c4.4-7,6.4-15.7,4.8-25.7c-3.7-23-27.4-59.1-48.7-55.6
		c-19,3.1-29.8,36.5-29.3,60C48.9,126.2,74.6,134.5,105.3,138z"/>
	<path class="st18" d="M113.3,130.3c-2.1-0.2-4.3-0.4-6.5-0.6C76.2,126.2,50.4,117.9,40,109c-0.1-4.6,0.2-9.6,1-14.7
		c-1.8,7.8-2.7,15.9-2.6,23c10.4,8.9,36.1,17.2,66.8,20.6c2.2,0.2,4.3,0.4,6.5,0.6c3-4.6,4.8-10.1,5.2-16.1
		C116.1,125.3,114.9,127.9,113.3,130.3z"/>
	<path class="st11" d="M105.3,138c2.2,0.2,4.3,0.4,6.5,0.6c4.4-7,6.4-15.7,4.8-25.7c-3.7-23-27.4-59.1-48.7-55.6
		c-19,3.1-29.8,36.5-29.3,60C48.9,126.2,74.6,134.5,105.3,138z"/>
	<path class="st17" d="M105.3,138c2.8,0.3,5.5,0.6,8.2,0.8c27.7,2.2,51.4-0.4,62.2-6.5c4.2-23.2-2.4-60.3-21.7-65.8
		C133.1,60.6,105.4,93.7,99,116c-2.2,7.6-2.1,14.8-0.2,21.1C101,137.5,103.1,137.7,105.3,138z"/>
	<path class="st18" d="M176.6,112.1c0,5-0.4,9.8-1.2,14.2c-10.8,6-34.4,8.7-62.2,6.5c-2.7-0.2-5.4-0.5-8.2-0.8
		c-2.2-0.2-4.3-0.5-6.4-0.8c-0.6-1.9-1-3.9-1.2-6c-0.2,4.2,0.2,8.2,1.4,12c2.1,0.3,4.3,0.6,6.4,0.8c2.8,0.3,5.5,0.6,8.2,0.8
		c27.7,2.2,51.4-0.4,62.2-6.5C176.7,126.2,177,119.3,176.6,112.1z"/>
	<path class="st11" d="M105.3,138c2.8,0.3,5.5,0.6,8.2,0.8c27.7,2.2,51.4-0.4,62.2-6.5c4.2-23.2-2.4-60.3-21.7-65.8
		C133.1,60.6,105.4,93.7,99,116c-2.2,7.6-2.1,14.8-0.2,21.1C101,137.5,103.1,137.7,105.3,138z"/>
	<path class="st19" d="M207.1,143.1c-8.5,22.5-53.3,35.6-105.1,29.8c-54.3-6.1-96.4-30.7-96.2-55.7c-0.7,1.8-1.1,3.6-1.3,5.5
		c-2.9,25.7,40.1,51.7,96,57.9c55.9,6.2,103.6-9.6,106.4-35.3C207,144.6,207.1,143.8,207.1,143.1z"/>
	<path class="st11" d="M60.6,171.6c0-2.6,0.1-5.3,0.4-8c1.4-13.1,6.6-24.3,13.4-30.8"/>
	<path class="st11" d="M43.7,166.6c0-2.6,0.1-5.3,0.4-8c1.5-13.6,7-25.1,14.2-31.5"/>
	<path class="st16" d="M33.4,104.8c-8.3-0.3-16.6,1.8-23.7,5.8"/>
	<path class="st16" d="M9.2,138.4C12.3,126,21.9,116,34,112.6"/>
	<path class="st16" d="M168.1,135.5c7.6,11.2,10.4,25.5,7.4,38.6"/>
	<path class="st16" d="M181.7,126.1c8.8,11.7,12,27.2,8.3,41.4"/>
	<g>
		<path class="st20" d="M77,145c-0.9,0-1.8-0.4-2.4-1.1c-1-1.3-0.8-3.2,0.5-4.3c0.5-0.4,1.2-0.7,1.9-0.7c0.9,0,1.8,0.4,2.4,1.1
			c1,1.3,0.8,3.2-0.5,4.3C78.3,144.8,77.6,145,77,145z"/>
		<path class="st14" d="M77,139.9c0.6,0,1.2,0.3,1.6,0.8c0.7,0.9,0.6,2.2-0.3,2.9c-0.4,0.3-0.8,0.4-1.3,0.4c-0.6,0-1.2-0.3-1.6-0.8
			c-0.7-0.9-0.6-2.2,0.3-2.9C76.1,140.1,76.5,139.9,77,139.9 M77,137.9c-0.9,0-1.8,0.3-2.5,0.9c-1.7,1.4-2,3.9-0.6,5.7
			c0.8,1,1.9,1.5,3.2,1.5c0.9,0,1.8-0.3,2.5-0.9c0.8-0.7,1.4-1.6,1.5-2.7c0.1-1.1-0.2-2.1-0.9-3C79.3,138.5,78.2,137.9,77,137.9
			L77,137.9z"/>
	</g>
	<g>
		<path class="st20" d="M72.1,157.4c-0.1,0-0.2,0-0.3,0c-1.7-0.2-2.9-1.7-2.7-3.4c0.2-1.5,1.5-2.7,3-2.7c0.1,0,0.2,0,0.3,0
			c0.8,0.1,1.5,0.5,2,1.1s0.7,1.4,0.6,2.2C74.9,156.2,73.6,157.4,72.1,157.4z"/>
		<path class="st14" d="M72.1,152.3c0.1,0,0.2,0,0.2,0c1.1,0.1,1.9,1.1,1.8,2.3c-0.1,1-1,1.8-2,1.8c-0.1,0-0.2,0-0.2,0
			c-1.1-0.1-1.9-1.1-1.8-2.3C70.2,153,71,152.3,72.1,152.3 M72.1,150.3L72.1,150.3c-2.1,0-3.8,1.5-4,3.6c-0.1,1.1,0.2,2.1,0.9,3
			s1.6,1.4,2.7,1.5c0.2,0,0.3,0,0.5,0c2.1,0,3.8-1.5,4-3.6c0.2-2.2-1.4-4.2-3.6-4.5C72.4,150.3,72.2,150.3,72.1,150.3L72.1,150.3z"
			/>
	</g>
	<g>
		<path class="st20" d="M69.9,170c-0.1,0-0.2,0-0.3,0c-1.7-0.2-2.9-1.7-2.7-3.4c0.2-1.5,1.5-2.7,3-2.7c0.1,0,0.2,0,0.3,0
			c0.8,0.1,1.5,0.5,2,1.1s0.7,1.4,0.6,2.2C72.7,168.8,71.4,170,69.9,170z"/>
		<path class="st14" d="M69.8,164.9c0.1,0,0.2,0,0.2,0c1.1,0.1,1.9,1.1,1.8,2.3c-0.1,1-1,1.8-2,1.8c-0.1,0-0.2,0-0.2,0
			c-1.1-0.1-1.9-1.1-1.8-2.3C67.9,165.7,68.8,164.9,69.8,164.9 M69.8,162.9L69.8,162.9c-2.1,0-3.8,1.5-4,3.6
			c-0.2,2.2,1.4,4.2,3.6,4.5c0.2,0,0.3,0,0.5,0c2.1,0,3.8-1.5,4-3.6c0.2-2.2-1.4-4.2-3.6-4.5C70.1,162.9,70,162.9,69.8,162.9
			L69.8,162.9z"/>
	</g>
	<g>
		<path class="st21" d="M42.6,120.4c-1.2-5,13.2-17,26.6-15.1c16.5,2.3,26.8,24.7,22.8,29.7c-1,1.2-2.1,0.4-26.6-4.6
			c0,0-7-1.4-17.5-6.3C43.6,122,42.8,121.3,42.6,120.4z"/>
		<path class="st22" d="M68,125.7c0,0-7-1.4-17.5-6.3c-4.2-2-5-2.7-5.2-3.6c-0.1-0.4-0.1-0.8,0-1.2c-2,2.2-3,4.3-2.7,5.8
			c0.2,1,1,1.7,5.2,3.6c10.5,4.9,17.5,6.3,17.5,6.3c24.5,5,25.6,5.8,26.6,4.6c0.7-0.9,1-2.4,0.8-4.2C90.3,130.5,84.4,129,68,125.7z"
			/>
		<path class="st11" d="M69.2,105.2c-11.5-1.3-22,5.1-26.6,15.1c10.1,6.4,27.9,12.2,49.1,15.7c0.1-0.7,0.3-1.4,0.3-2.2
			C93.7,119.7,83.4,106.8,69.2,105.2z"/>
		<path class="st16" d="M82,134c0.1-0.6,0.1-0.6,0.2-1.2c0.4-3.4-0.3-6.7-1.9-9.4"/>
		<path class="st16" d="M73.1,116.6c-1.5-0.7-3.2-1.2-5-1.4c-7.1-0.8-13.7,3.2-16.4,9.5"/>
	</g>
	<g>
		<path class="st23" d="M105.3,138c6.4,0.7,12.6,1.2,18.6,1.4l24.1-21.7c0.7-0.6,0.8-1.7,0.1-2.4l-4.3-4.8
			c-4.6-5.1-18.1-0.4-30.1,10.5c-6,5.4-10.4,11.3-12.8,16.5C102.3,137.6,103.8,137.8,105.3,138z"/>
		<path class="st15" d="M141.1,139.3c8.2-9.4,11.7-19.1,7.8-23.3c-4.6-5.1-18.1-0.4-30.1,10.5c-4.2,3.8-7.6,7.9-10.2,11.8
			C120.3,139.5,131.3,139.8,141.1,139.3z"/>
		<path class="st16" d="M142.2,125.5c0.3-1.3,0.3-2.4-0.3-3.1c-2.2-2.5-10.6,1.5-18.7,8.9c-2.8,2.6-5.2,5.2-7.1,7.6
			c5.5,0.4,10.8,0.6,15.9,0.6c1.8-1.7,3.5-3.4,4.9-5.1"/>
	</g>
	<g>
		
			<linearGradient id="SVGID_3_" gradientUnits="userSpaceOnUse" x1="106.1555" y1="161.2666" x2="100.881" y2="14.7132" gradientTransform="matrix(0.9822 0.1877 -0.1877 0.9822 26.0645 -15.6021)">
			<stop  offset="0" style="stop-color:#FFFFFF;stop-opacity:0"/>
			<stop  offset="0.4111" style="stop-color:#8BFFF8;stop-opacity:0.4331"/>
			<stop  offset="0.7836" style="stop-color:#27FFF1;stop-opacity:0.8256"/>
			<stop  offset="0.9491" style="stop-color:#00FFEF"/>
		</linearGradient>
		<path class="st24" d="M181,125.1c3.7-18,1.6-37.2-6-54c-13.2-29-43.8-48.1-75.9-43.2c-38.3,5.9-63,41.9-65.3,78.9
			c0.8,1.4,2,3.6,3.8,6c14.7,19.6,40.5,22.3,67.3,25c21.6,2.2,43.3,4.2,66.2-7.1C175.4,128.7,178.7,126.7,181,125.1z"/>
		<path class="st25" d="M33.8,106.9c2.2-37,27-73.1,65.3-78.9c32.1-4.9,62.7,14.1,75.9,43.2c7.6,16.8,9.6,36,6,54"/>
		<g>
			<polyline class="st25" points="106.1,27.6 96.4,35.9 101.3,54.7 132.9,58.2 147.7,39.2 			"/>
			<polyline class="st25" points="176.9,75.8 170.2,84.5 141,81.2 132.9,58.2 			"/>
			<polyline class="st25" points="101.3,54.7 86.9,76.3 94.8,98.6 124.9,101.6 140.9,81.8 			"/>
			<polyline class="st25" points="170.1,84.7 178,109.3 163.8,127.8 136,125.6 124.9,101.6 			"/>
			<line class="st25" x1="163.8" y1="127.8" x2="164.4" y2="133.3"/>
		</g>
		<line class="st25" x1="178" y1="109.2" x2="182.3" y2="109.7"/>
	</g>
</g>
<g>
	<path class="st6" d="M770.2,48.9c-4.3,3.9-7.7,11.9-9.5,21.4c-7.3,37.1,29.9,70.1,36.6,76.1c10.5,9.3,21.1,15.4,29.5,19.3
		c3.5,1.8,48,24.3,82.2,2c5.2-3.4,11.9-9,17.9-18.2c0,0-22.3,0.8-46.1-13c-22.4-12.9-35.1-44.2-42-67c-0.5-1.5-0.9-3-1.3-4.4
		C830.9,42,793.5,28,770.2,48.9z"/>
	<path class="st26" d="M926.3,150.3c-15.9,21.5-49.3,44.9-111.7,8.3c0.8-1.1,1.5-2.4,1.9-3.8c21.6,9,59.5,19.8,97.8-6L926.3,150.3z"
		/>
	<path class="st27" d="M922.6,155.4l8.5,9.1l1.9,0.3l2-1.5l-0.3-8.1l8.3,2.9l2.2-0.5c0,0,4,0.7-0.8-14.8l4.8,0.7c0,0,3-0.5,1.5-4.3
		c-1.5-3.8-10.1-12.5-12.3-12.3C938.6,126.9,932.4,145.8,922.6,155.4z"/>
	<path class="st27" d="M907.8,168.1L907.8,168.1l3.4,9l-0.5,1.9c-0.7,0.3-1.4,0.6-2.1,0.8c-2.4-1.2-4.8-2.3-7.2-3.5
		c-0.5,2.7-1,5.5-1.5,8.2c-0.1,0.4-0.5,1.2-1.5,1.8c0,0-0.6,0.3-1.3,0.5c-1.8,0.3-3.3-0.8-4.4-1.6c-1.7-1.3-4-3.1-6.7-5.5
		c-0.5,1.5-1,3.1-1.5,4.6c0,0-1.8,2.5-4.5-0.5c-1-1.1-2.3-3.5-3.3-6c0,0-0.8,1.2,0,0C876.5,177.8,890.5,178.4,907.8,168.1z"/>
	<path class="st11" d="M922.6,155.4c2.6,2.9,5.3,5.7,7.9,8.6c1.7,1.8,4.8,0.6,4.8-1.8c0,0,0,0,0-0.1c0-2.6-0.2-4.9-0.5-6.8
		c0.8,0,4.3,1.4,7.4,2.6c2.4,1,4.9-1,4.7-3.5c-0.1-1.2-0.3-2.4-0.4-3.3c-0.5-3.2-1.2-5.9-1.9-8.2c1.3,0.2,2.6,0.3,4,0.5
		c1.8,0.2,3.2-1.6,2.4-3.3c-1.1-2.3-2.7-5.1-5.3-7.8c-2.5-2.6-5.2-4.3-7.1-5.3"/>
	<path class="st11" d="M908,168.1c1,2.7,2.1,5.3,3.1,8c0.9,2.3-1.5,4.6-3.7,3.5c0,0,0,0-0.1,0c-2.3-1.1-4.3-2.3-5.9-3.5
		c-0.3,0.7-0.8,3.9-1.3,7.2c-0.6,3.7-3.7,4.7-6.8,2.5c-1-0.7-5.6-4.6-7.3-6.3c-0.4,1.3-0.9,2.5-1.3,3.8c-0.6,1.7-2.9,2.1-4,0.7
		c-1.3-1.6-2.7-3.6-3.9-6.1"/>
	<path class="st28" d="M999.8,118.4c-18.4,3.6-11-14-3.8-6.5c0,0,2.4-10.5-6.8-10.9c-7.2-0.3-4.4-10,1-5.3c0,0-3.2-10.7-11.6-16.3
		c-11.1-7.3-24.5-3.3-31.9,7.8c-7.3,11.1-5.7,25,5.3,32.4c5.9,3.9,12,4.3,21.6,3.7c-5.4-4.4,1.4-10.7,4.9-3.6
		C983.1,129,995.1,125.5,999.8,118.4L999.8,118.4z M999.8,118.4"/>
	<path class="st16" d="M999.8,118.4c-18.4,3.6-11-14-3.8-6.5c0,0,2.4-10.5-6.8-10.9c-7.2-0.3-4.4-10,1-5.3c0,0-3.2-10.7-11.6-16.3
		c-11.1-7.3-24.5-3.3-31.9,7.8c-7.3,11.1-5.7,25,5.3,32.4c5.9,3.9,12,4.3,21.6,3.7c-5.4-4.4,1.4-10.7,4.9-3.6
		C983.1,129,995.1,125.5,999.8,118.4L999.8,118.4z M999.8,118.4"/>
	
		<linearGradient id="SVGID_4_" gradientUnits="userSpaceOnUse" x1="947.3817" y1="99.0791" x2="979.2496" y2="132.1273" gradientTransform="matrix(0.9849 -0.1732 0.1732 0.9849 -10.9442 147.0865)">
		<stop  offset="2.758789e-03" style="stop-color:#FED5D1"/>
		<stop  offset="0.2056" style="stop-color:#FED6CB"/>
		<stop  offset="0.4702" style="stop-color:#FED9BB"/>
		<stop  offset="0.7676" style="stop-color:#FFDFA0"/>
		<stop  offset="1" style="stop-color:#FFE486"/>
	</linearGradient>
	<path class="st29" d="M982.4,113.2c0,0,5.9-7.7-3.6-12.4c-5.5-2.8-0.5-8.3,2.4-3.5c-3.5-19.2-21.7-17.7-29.1-6.6
		s-0.5,26.9,13.6,24.6c-8.3-2.1-2.2-11.3,3.1-6.5c4.5,4,7,3.3,9.3,2.1c-4-1.4-1.4-5.8,1.4-3.6C982.1,109.4,982.4,113.2,982.4,113.2
		L982.4,113.2z M982.4,113.2"/>
	<path class="st30" d="M943.2,110.7c14.2-1.6,27.4-20.6,24-34.5"/>
	<path class="st31" d="M841.1,33.4c3.7,1.5,8,3.6,12.5,6.5c5.9,3.8,10.3,7.9,13.6,11.3c3-1.1,7.5,1.6,7.5,1.6l4.8,6.2L922,85.7
		c0,0,4.6-0.2,6.8-0.3c2.3-0.1,5.1,3.8,5.1,3.8c2.4-0.8,4.7-1.5,7.1-2.3c0.2,0,0.5,0,0.7,0.2c0.8,0.6,0.7,2.1,0.7,2.6
		c-0.2,4.1,1.4,5.5,0.6,14.6c-0.1,1.2-0.3,3-0.6,5.1c4.5-1.2,7.7-3,9.6-4.3c9.3-6.3,12.2-16,13-18.5c0.2-0.8,1.1-3.8,1.4-7.9
		c0.2-2.9,0.4-5-0.2-7.5c-0.4-1.6-1.5-5.1-5.4-8.6l-3.8-2.8L867.6,8c-1-0.5-19.2-10.2-33.2-1c-3.7,2.5-6.3,5.6-7.9,8.5
		c-0.7,1.2-1.9,3.3-2.3,6.3c-0.4,2.9,0,5.2,0.4,6.5c2.4,0.3,5.2,0.9,8.2,1.8C836,31.1,838.7,32.2,841.1,33.4z"/>
	<path class="st31" d="M823.8,28.3c-2.5-1.7-6-3.9-10.4-5.8c-2.7-1.2-6-2.7-10.1-3.6c-4.1-0.9-12.6-2.7-21,1.6c-2,1-6.1,3.2-9,8
		c-5,8.2-2.1,17.2-1.6,18.7c3.3-3.9,8.6-9.1,16.4-13.3C803.3,25.8,818.2,27.4,823.8,28.3z"/>
	<path class="st32" d="M781.4,27.7c-2,1-6.1,3.2-9,8c-1,1.6-1.6,3.2-2.1,4.8c0.2,3.4,1,6,1.3,6.8c3.3-3.9,8.6-9.1,16.4-13.3
		c7.3-3.8,14.4-5.5,20.5-6.1c-1.8-0.7-3.8-1.3-6-1.8C798.4,25.2,789.8,23.3,781.4,27.7z"/>
	<path class="st11" d="M824.6,28.3c-1.3-6.8,0.5-10.8,1.3-12.3c6.8-12.6,24.8-18.5,47.7-4.9l83.6,48.5c5.9,3.4,10.1,9.6,9.8,16.4
		c-0.6,18-14.7,32.3-24.4,33.2"/>
	<path class="st33" d="M942.6,112.6c6,0.5,13.8-3.8,19.8-11.5c8.1-10.4,9.9-23,4.1-28.1"/>
	<path class="st32" d="M951.5,81.4l-3.8-2.8l-89.5-51.6c-1-0.5-19.2-10.2-33.2-1c-4.6,3,24.3,8.3,28.5,14
		c10.3,7,10.6,10.4,21.1,12.9c0,0,4.8,6.2,4.8,6.2L922,85.7c2.8-0.3,9.9-1.2,11.9,3.5c2.7-0.4,9.1-4.9,8.5,0.5
		c0.1,3.5,1.7,12.2,0.1,19.7C957.5,106.4,963,92.7,951.5,81.4z"/>
	<path class="st11" d="M771.6,47.1c-4.8-11.8,2.7-24.8,15-28.3c12.9-3.5,26.9,2.8,37.6,9.6"/>
	<path class="st34" d="M933.5,89.3c3-0.7,3.7-1,3.7-1c1.3-0.6,2.4-1.5,4.1-1.4c0.3,0,0.6,0.1,0.7,0.1c1.3,9.4,2.2,26.1-5,44.5
		c-2.9,7.3-6.4,13.3-9.7,17.9c-95-10.9-70.8-62.4-97.2-95.8c-7.4-9.4-16-12.5-23.6-14.1c-2.3-0.5-14.5-3-25.4,2.7
		c-3.8,1.9-11.6,7-11.6,7c0,0,8.7-9.5,19.8-15.8c20.7-11.7,47.7-3.5,57.4,1.9c7.7,4.2,13.3,9.2,13.3,9.2c3.1,2.7,3.8,3.9,6.9,6.5
		c5,4.1,9.3,6.2,12.6,7.8c11.5,5.9,21.8,13.2,30,19.1c0.6,0.4,4.4,2.7,12.1,7.4C924.8,87.3,929.7,90.2,933.5,89.3z"/>
	<path class="st35" d="M927.2,149c8.2-11.5,11.4-22.1,11.4-22.1c-7.3,8.3-14.7,15-22.1,20.3L927.2,149z"/>
	<path class="st11" d="M879.2,58.9c14.3,8.9,28.5,17.9,42.8,26.8"/>
	<path class="st11" d="M769.7,49.5c7.8-10.1,17.9-15.4,19.4-16.2c21.9-11.2,43.6-3.3,50.1-0.9c14,5.1,23.1,13.5,28,18.7"/>
	<path class="st11" d="M933.6,89.2c0.6-0.1,1.2-0.2,1.8-0.5l4.9-1.8c0.8-0.3,1.7,0.2,1.8,1c0.5,2.9,0.8,5.9,0.9,8.9
		c0.4,19.2-5.4,38-15.8,52.6"/>
	<path class="st11" d="M814.1,158.7c2.7,1.7,5.4,3.2,8.1,4.6c11.5,5.9,52.3,26.8,86.9,4c7-4.6,13.2-10.7,18.2-17.9
		c-19.9-1.3-35-6.2-46.5-13"/>
	<path class="st11" d="M846.4,92c-2.6-7.2-4.4-13.9-6-19.2c-5.2-18-19.6-31.3-36.5-33.7c-12.1-1.7-24.5,2.3-34.2,10.5
		c-2.8,3.6-5.3,7.9-7,12.7c-9.5,26.8,8.5,61.4,35.5,84.7"/>
	<path class="st36" d="M867.2,51.2c-8,0.4-23,19.8-21.1,39.8c1.9,20.6,21.4,40.1,44,40.7c20,0.5,39.1-14.3,43.2-31
		c3.7-15-4-15.4-4-15.4l-7.2,0.4c0,12.4-7.8,23.5-19.3,27.7c-12.4,4.4-25.8-0.3-32.6-9.2c-9.5-12.4-6.7-33.3,9.1-45.2
		c-0.5-1.3-2-4.2-5.1-6.1C874.1,52.8,871.1,51,867.2,51.2z"/>
	<path class="st36" d="M771.7,115.5c-0.5,1.6-3.6,12.7,3.4,23.4c6.9,10.5,18.1,12.2,19.8,12.5l3.3-4.3c-4-3.5-8.4-7.6-12.7-12.6
		C779.6,127.7,775.1,121.2,771.7,115.5z"/>
	<path class="st11" d="M908.6,110.7c7.4-5.4,12.5-14.2,13.4-25l7.2-0.4c5,1.1,6.2,7.8,4.8,12.8c-2.4,8.6-8.1,21.1-21.8,28.4
		c-7.9,4.3-15.6,5.4-22.2,5.2"/>
	<path class="st37" d="M897.5,123.9c-0.9,2.6-2.7,4.7-5.4,6.5c-0.7,0.5-1.4,0.9-2.2,1.3c0.1,0,0.1,0,0.2,0c20,0.5,39.1-14.3,43.2-31
		c0.2-0.9,0.4-1.8,0.6-2.6C928.1,111.3,913.5,122.3,897.5,123.9z"/>
	<path class="st37" d="M859.3,107.9c-6.1-7-10.2-15.7-11-24.5c-0.4-4-0.1-8,0.7-11.8c-2.3,5.9-3.6,12.6-3,19.4
		c0.6,6.3,2.8,12.4,6.2,18C854.7,108.7,857.2,108.7,859.3,107.9z"/>
	<path class="st37" d="M795.4,145.5c-1.6-0.2-12.9-1.9-19.8-12.5c-3.5-5.4-4.5-10.9-4.5-15.3c-0.8,4.1-1.5,12.7,3.9,21
		c6.9,10.5,18.1,12.2,19.8,12.5l3.3-4.3c-0.8-0.7-1.5-1.4-2.3-2.1L795.4,145.5z"/>
	<path class="st11" d="M770.5,113.4c7.1,12.7,16.7,24.1,27.7,33.6"/>
	<path class="st34" d="M840,114.2c2.4-3.2,6.1-2.8,11.8-4.5c1-0.3,7.9-2.3,13.5-7.1c2.2-1.9,5.5-5.2,8.1-10.8
		c0,0,16.7-20.2,35.7-2.9c1.1,2.7,2.4,7.1,2.1,12.5c-0.5,8.7-5.1,14.6-8.5,18.9c-2.4,3.1-9.6,11.5-22,16c-4,1.4-11.6,4.1-20.8,2.3
		c-3-0.6-5.2-1.4-5.7-1.7c-7.2-2.9-16.4-10.1-15.7-18C838.5,118.2,838.6,116.1,840,114.2z"/>
	<path class="st34" d="M771.2,128.4c-0.7,3.5-1.5,8.7-1.1,15c0.2,3.6,0.5,7,1.9,10.8c0.9,2.2,5,11.9,15,15.1
		c10.1,3.2,22-1.6,27.4-10.7c4.3-7.3,3-14.8,2.6-17.1c-0.2-0.8-0.8-3.4-3.3-5.3c-0.7-0.5-2.6-2-4.7-1.7c-1.8,0.2-2.7,1.5-7.4,7.9
		c-2,2.7-4,5.4-6,8.2l0,0c-2.2-0.2-11.7-1.3-18.6-9.4C773,136.2,771.7,131.1,771.2,128.4z"/>
	<path class="st35" d="M772,154.2c0,0,24.1,24.6,45.4-10.8c0.7,10.1-4.1,19.5-12.3,23.9c-8.6,4.6-17.3,1.6-18.7,1.1
		C776.2,164.7,772.6,155.6,772,154.2z"/>
	
		<linearGradient id="SVGID_5_" gradientUnits="userSpaceOnUse" x1="808.6115" y1="46.5526" x2="810.3819" y2="73.1092" gradientTransform="matrix(0.9849 -0.1732 0.1732 0.9849 -10.9442 147.0865)">
		<stop  offset="2.758789e-03" style="stop-color:#FED5D1"/>
		<stop  offset="0.2056" style="stop-color:#FED6CB"/>
		<stop  offset="0.4702" style="stop-color:#FED9BB"/>
		<stop  offset="0.7676" style="stop-color:#FFDFA0"/>
		<stop  offset="1" style="stop-color:#FFE486"/>
	</linearGradient>
	<path class="st38" d="M834.9,43.2c-14.2,1.6-39.2,6.6-63.4,24.4c-9.3,6.8-16.5,14.1-21.9,20.6c0.4,2.4,1.1,5.4,2.6,8.7
		c2,4.4,4.5,7.7,6.4,9.8c0.8,0.7,2,1.5,3.5,2.2c2.3,1,4.5,1.2,5.8,1.3l-2-4.2l12-10.9l-1.3-6.1l2.3-10.6l7.4-4l7.4,1.4l4.4,2.5
		l1.8,2.1c6.7-3.2,15.1-6.5,24.8-9.2c9.3-2.5,17.8-3.9,25-4.5c-1.5-0.4-7.6-2.1-11.7-8.2C833.3,51.7,834.6,44.6,834.9,43.2z"/>
	<g>
		
			<linearGradient id="SVGID_6_" gradientUnits="userSpaceOnUse" x1="816.1325" y1="50.3672" x2="822.9108" y2="69.1071" gradientTransform="matrix(0.9849 -0.1732 0.1732 0.9849 -10.9442 147.0865)">
			<stop  offset="2.758789e-03" style="stop-color:#FF7773"/>
			<stop  offset="1" style="stop-color:#FFAB47"/>
		</linearGradient>
		<path class="st39" d="M808.9,76.9l2.6-23c-0.9,0.4-3.9,1.1-4.8,1.5l-2.6,23.1C805,78.1,808,77.3,808.9,76.9z"/>
		
			<linearGradient id="SVGID_7_" gradientUnits="userSpaceOnUse" x1="782.2263" y1="57.8349" x2="792.903" y2="87.353" gradientTransform="matrix(0.9849 -0.1732 0.1732 0.9849 -10.9442 147.0865)">
			<stop  offset="2.758789e-03" style="stop-color:#FF7773"/>
			<stop  offset="1" style="stop-color:#FFAB47"/>
		</linearGradient>
		<path class="st40" d="M795.7,77.1l1.8-18.6c-6.2,2.8-12.7,5.9-19.2,9.8c-15.8,9.4-20.4,14.2-28.6,20.7c0.4,2.2,1.2,4.9,2.4,7.8
			c2,4.4,4.5,7.7,6.4,9.8c0.8,0.7,2,1.5,3.5,2.2c2.3,1,4.5,1.2,5.8,1.3l-2-4.2l12-10.9l-1.3-6.1l2.3-10.6l7.4-4l7.4,1.4L795.7,77.1z
			"/>
		
			<linearGradient id="SVGID_8_" gradientUnits="userSpaceOnUse" x1="857.3807" y1="66.0827" x2="858.8948" y2="70.2687" gradientTransform="matrix(0.9849 -0.1732 0.1732 0.9849 -10.9442 147.0865)">
			<stop  offset="2.758789e-03" style="stop-color:#FF7773"/>
			<stop  offset="1" style="stop-color:#FFAB47"/>
		</linearGradient>
		<path class="st41" d="M844.1,67.3c1.9-0.3,3.7-0.5,5.5-0.6c-0.8-0.2-2.8-0.8-5.1-2.1L844.1,67.3z"/>
	</g>
	<path class="st16" d="M771.1,127.8c-0.6,2.3-1,4.9-1.3,7.6c-0.7,8.4,0.6,15.9,3.3,21.3c4.8,9.7,12.7,14.5,24,13.2
		c6.4-0.8,12.5-5,17-11.1c3.1-4.3,6.7-18.4-1.6-23.6c-6.3-4-9.4,6.8-18.8,17.5"/>
	<path class="st16" d="M873.5,91.5c-1.8,4.4-4.8,8.7-10.9,13.5c-9.6,7.7-21,3.1-24,11.7c-1.8,5.3,1.6,12.1,10,17.5
		c27.4,18,72.3-16.3,60.5-45.2"/>
	<path class="st11" d="M771.7,115.5c-0.5,1.7-3.3,13.2,3.9,23.6c4.5,6.5,11.7,10.7,19.6,11.7"/>
	<path class="st42" d="M822.5,163.6"/>
	<path class="st11" d="M835.9,43.1c-12.7,1.6-33.7,6.1-55.5,19.7c-13.9,8.7-23.9,18.4-30.7,26.2c0,1.3,0.4,11.7,8.8,17.6
		c3.9,2.7,7.8,3.3,10.1,3.5"/>
	<path class="st16" d="M799.9,80.3c14.8-7.3,31.7-12.1,48.2-13.6"/>
	<path class="st16" d="M765,106.1c3.9-4.1,8-7.9,12.4-11.4"/>
	<path class="st43" d="M863.1,52.6c0-2.6-0.6-5.4-1.9-8c-4-7.7-12.7-11.1-19.6-7.6c-6.9,3.5-9.3,12.6-5.3,20.4c3,5.9,8.8,9.3,14.5,9
		"/>
	<path class="st44" d="M840.1,56.7c-4-7.7-1.6-16.8,5.3-20.4c0.6-0.3,1.1-0.5,1.7-0.7c-1.9,0-3.8,0.5-5.6,1.4
		c-6.9,3.5-9.3,12.6-5.3,20.4c3,5.9,8.8,9.3,14.5,9l0.8-0.9C847,64.7,842.6,61.6,840.1,56.7z"/>
	<path class="st11" d="M863.1,52.6c0-2.6-0.6-5.4-1.9-8c-4-7.7-12.7-11.1-19.6-7.6c-6.9,3.5-9.3,12.6-5.3,20.4c3,5.9,8.8,9.3,14.5,9
		"/>
	<path class="st45" d="M861.7,52.4c0.2-1.5,0.4-4.9-1.5-8.3c-2.6-4.5-9-8.5-14-5.9c-4.8,2.5-6.3,9.1-3.4,14.8
		c2.4,4.7,7.1,7.3,11.3,6.8c1.8-1.6,3.7-3.3,5.5-5.2C860.4,53.8,861.1,53.1,861.7,52.4z"/>
	<path class="st46" d="M846.7,52.4c-2.9-5.7-1.4-12.4,3.4-14.8c0.1,0,0.1-0.1,0.2-0.1c-1.4-0.1-2.8,0.1-4.1,0.8
		c-4.8,2.5-6.3,9.1-3.4,14.8c2.4,4.7,7.1,7.3,11.3,6.8c0.3-0.3,0.6-0.5,0.9-0.8C851.7,58.4,848.5,56,846.7,52.4z"/>
	<path class="st16" d="M861.7,52.4c0.2-1.5,0.4-4.9-1.5-8.3c-2.6-4.5-9-8.5-14-5.9c-4.8,2.5-6.3,9.1-3.4,14.8
		c2.4,4.7,7.1,7.3,11.3,6.8c1.8-1.6,3.7-3.3,5.5-5.2C860.4,53.8,861.1,53.1,861.7,52.4z"/>
	<path class="st16" d="M799.7,80.4c-2.8-4-7.8-6.3-12.9-5.4c-7.1,1.2-11.8,8-10.6,15.1c0.3,1.5,0.8,3,1.5,4.2"/>
	<path class="st47" d="M790.5,95.8c-0.1,0.1-0.2,0.1-0.4,0.1c-3,0.1-9.1,0-15.8-3.4c-6.7-3.4-10.6-8.5-12.5-11.6
		c-0.4-0.6,0.1-1.2,0.9-1.2c0,0,7.7,0.3,13,0.3c6.4,0,15.2-0.8,15.5-0.9c0.3,0,0.6,0,0.8,0.2c1,1,3.6,3.9,3.4,8.2
		C795.1,92.4,791.4,95.2,790.5,95.8z"/>
	<path class="st35" d="M793.3,81c0.8,1.4,1.5,3.3,1.4,5.6c0,0.8-0.2,1.6-0.4,2.3c-1,1.2-2,1.9-2.4,2.2c-0.1,0.1-0.2,0.1-0.4,0.1
		c-3,0.1-9.1,0-15.8-3.4c-4.5-2.3-7.7-5.3-9.9-7.9c-1.9-0.1-3.2-0.1-3.2-0.1c-0.8,0-1.3,0.5-0.9,1.2c1.9,3.1,5.8,8.2,12.5,11.6
		c6.6,3.4,12.8,3.5,15.8,3.4c0.1,0,0.3,0,0.4-0.1c0.9-0.6,4.5-3.3,4.8-8.2C795.5,84.7,794.4,82.5,793.3,81z"/>
	<path class="st16" d="M790.5,95.8c-0.1,0.1-0.2,0.1-0.4,0.1c-3,0.1-9.1,0-15.8-3.4c-6.7-3.4-10.6-8.5-12.5-11.6
		c-0.4-0.6,0.1-1.2,0.9-1.2c0,0,7.7,0.3,13,0.3c6.4,0,15.2-0.8,15.5-0.9c0.3,0,0.6,0,0.8,0.2c1,1,3.6,3.9,3.4,8.2
		C795.1,92.4,791.4,95.2,790.5,95.8z"/>
	<path class="st11" d="M852.4,109.6c-4-6.7-6.3-14.5-6.3-22.6c-0.1-14.1,6.5-24.5,12.1-30.8c3.9-4.4,10.7-6.9,15.8-3.8
		c2.1,1.3,5.3,6.5,5.3,6.5c-15,13.2-17.7,28.4-11.4,41.4"/>
</g>
</svg>
