<svg style="white-space: pre;" shape-rendering="geometricPrecision" text-rendering="geometricPrecision" viewBox="0 0 1000 200" xmlns="http://www.w3.org/2000/svg">
    <defs>
        <linearGradient gradientUnits="userSpaceOnUse" y2="244.34" x2="526.38" y1="-87.9003" x1="461.058" id="Gradient-0">
            <stop stop-color="#604e84" offset="0"></stop>
            <stop stop-color="#30264f" offset="1"></stop>
        </linearGradient>
    </defs>
    <style>
@keyframes a0_t { 0% { transform: translate(0px,0px); animation-timing-function: cubic-bezier(0.42,0,0.58,1); } 50% { transform: translate(-20px,0px); animation-timing-function: cubic-bezier(0.42,0,0.58,1); } 100% { transform: translate(0px,0px); } }
@keyframes a1_t { 0% { transform: translate(0px,0px); animation-timing-function: cubic-bezier(0.42,0,0.58,1); } 50% { transform: translate(20px,0px); animation-timing-function: cubic-bezier(0.42,0,0.58,1); } 100% { transform: translate(0px,0px); } }
@keyframes a2_t { 0% { transform: translate(0px,0px); animation-timing-function: cubic-bezier(0.42,0,0.58,1); } 50% { transform: translate(-20px,0px); animation-timing-function: cubic-bezier(0.42,0,0.58,1); } 100% { transform: translate(0px,0px); } }
@keyframes penguin_t { 0% { transform: translate(0px,9.9996px); animation-timing-function: cubic-bezier(0.42,0,0.58,1); } 16.6666% { transform: translate(0px,2px); animation-timing-function: cubic-bezier(0.42,0,0.58,1); } 33.3333% { transform: translate(0px,9.9996px); animation-timing-function: cubic-bezier(0.42,0,0.58,1); } 50% { transform: translate(0px,2px); animation-timing-function: cubic-bezier(0.42,0,0.58,1); } 66.6666% { transform: translate(0px,9.9996px); animation-timing-function: cubic-bezier(0.42,0,0.58,1); } 83.3333% { transform: translate(0px,2px); animation-timing-function: cubic-bezier(0.42,0,0.58,1); } 100% { transform: translate(0px,9.9996px); } }
@keyframes a3_t { 0% { transform: translate(946.782px,95.6269px) scale(1,1) translate(-7.85116px,-6.80323px); animation-timing-function: cubic-bezier(0.42,0,0.58,1); } 8.3333% { transform: translate(946.782px,95.6269px) scale(0.9,0.9) translate(-7.85116px,-6.80323px); animation-timing-function: cubic-bezier(0.42,0,0.58,1); } 16.6666% { transform: translate(946.782px,95.6269px) scale(1,1) translate(-7.85116px,-6.80323px); animation-timing-function: cubic-bezier(0.42,0,0.58,1); } 25% { transform: translate(946.782px,95.6269px) scale(0.9,0.9) translate(-7.85116px,-6.80323px); animation-timing-function: cubic-bezier(0.42,0,0.58,1); } 33.3333% { transform: translate(946.782px,95.6269px) scale(1,1) translate(-7.85116px,-6.80323px); animation-timing-function: cubic-bezier(0.42,0,0.58,1); } 41.6666% { transform: translate(946.782px,95.6269px) scale(0.9,0.9) translate(-7.85116px,-6.80323px); animation-timing-function: cubic-bezier(0.42,0,0.58,1); } 50% { transform: translate(946.782px,95.6269px) scale(1,1) translate(-7.85116px,-6.80323px); animation-timing-function: cubic-bezier(0.42,0,0.58,1); } 58.3333% { transform: translate(946.782px,95.6269px) scale(0.9,0.9) translate(-7.85116px,-6.80323px); animation-timing-function: cubic-bezier(0.42,0,0.58,1); } 66.6666% { transform: translate(946.782px,95.6269px) scale(1,1) translate(-7.85116px,-6.80323px); animation-timing-function: cubic-bezier(0.42,0,0.58,1); } 75% { transform: translate(946.782px,95.6269px) scale(0.9,0.9) translate(-7.85116px,-6.80323px); animation-timing-function: cubic-bezier(0.42,0,0.58,1); } 83.3333% { transform: translate(946.782px,95.6269px) scale(1,1) translate(-7.85116px,-6.80323px); animation-timing-function: cubic-bezier(0.42,0,0.58,1); } 91.6666% { transform: translate(946.782px,95.6269px) scale(0.9,0.9) translate(-7.85116px,-6.80323px); animation-timing-function: cubic-bezier(0.42,0,0.58,1); } 100% { transform: translate(946.782px,95.6269px) scale(1,1) translate(-7.85116px,-6.80323px); } }
@keyframes egg2_t { 0% { transform: translate(129.199px,116.202px) rotate(0deg) scale(0.9,0.9) translate(-83.3891px,-82.26px); } 36.6666% { transform: translate(129.199px,116.202px) rotate(0deg) scale(0.9,0.9) translate(-83.3891px,-82.26px); animation-timing-function: cubic-bezier(0.42,0,0.58,1); } 45% { transform: translate(129.199px,116.202px) rotate(-10deg) scale(0.9,0.9) translate(-83.3891px,-82.26px); animation-timing-function: cubic-bezier(0.42,0,0.58,1); } 53.3333% { transform: translate(129.199px,116.202px) rotate(0deg) scale(0.9,0.9) translate(-83.3891px,-82.26px); animation-timing-function: cubic-bezier(0.42,0,0.58,1); } 61.6666% { transform: translate(129.199px,116.202px) rotate(-10deg) scale(0.9,0.9) translate(-83.3891px,-82.26px); animation-timing-function: cubic-bezier(0.42,0,0.58,1); } 70% { transform: translate(129.199px,116.202px) rotate(0deg) scale(0.9,0.9) translate(-83.3891px,-82.26px); } 100% { transform: translate(129.199px,116.202px) rotate(0deg) scale(0.9,0.9) translate(-83.3891px,-82.26px); } }
@keyframes egg1_t { 0% { transform: translate(126.901px,122.921px) rotate(0deg) translate(-80.672px,-77.912px); } 33.3333% { transform: translate(126.901px,122.921px) rotate(0deg) translate(-80.672px,-77.912px); animation-timing-function: cubic-bezier(0.42,0,0.58,1); } 41.6666% { transform: translate(126.901px,122.921px) rotate(5deg) translate(-80.672px,-77.912px); animation-timing-function: cubic-bezier(0.42,0,0.58,1); } 50% { transform: translate(126.901px,122.921px) rotate(0deg) translate(-80.672px,-77.912px); animation-timing-function: cubic-bezier(0.42,0,0.58,1); } 58.3333% { transform: translate(126.901px,122.921px) rotate(5deg) translate(-80.672px,-77.912px); animation-timing-function: cubic-bezier(0.42,0,0.58,1); } 66.6666% { transform: translate(126.901px,122.921px) rotate(0deg) translate(-80.672px,-77.912px); } 100% { transform: translate(126.901px,122.921px) rotate(0deg) translate(-80.672px,-77.912px); } }
    </style>
    <g transform="translate(0,10)" id="background">
        <path fill="url(#Gradient-0)" d="M936.4,147.5L52.9,147.5C40.5,147.5,30.4,137.4,30.4,125L30.4,40.9C30.4,28.5,40.5,18.4,52.9,18.4L936.3,18.4C948.7,18.4,958.8,28.5,958.8,40.9L958.8,125C958.9,137.5,948.8,147.5,936.4,147.5Z" class="st0"></path>
        <path fill="#634D94" d="M901.3,37.5C894.4,41.1,888.7,46.7,881.7,50.2C856.9,62.8,826.1,45.5,799.3,53C786,56.7,775.1,66.2,762.4,71.6C732,84.6,696.7,73,664,78.5C611.5,87.2,592.5,135.5,517,135.4C496.3,135.4,476.1,124.1,455.8,127.8C440.4,130.6,427.7,140.8,413.5,147.6L826.3,147.6C843.9,136.6,865.8,134,886.7,131.7C902.1,130,919,128.7,931.7,137.6C935.6,140.3,939.8,143.9,944,146.3C952.7,143.2,958.9,134.9,958.9,125.1L958.9,40.9C958.9,40.3,958.9,39.7,958.8,39.1C938.8,34.2,918.8,28.5,901.3,37.5Z" class="st1"></path>
        <path fill="#8668C4" d="M911.2,60.3C904.3,63.9,898.6,69.5,891.6,73C866.8,85.6,836,68.3,809.2,75.8C795.9,79.6,785,89,772.3,94.5C741.9,107.5,706.6,95.9,673.9,101.4C628.4,109,618.8,134.8,566,147.6L936.4,147.6C948.8,147.6,958.9,137.5,958.9,125.1L958.9,59.6C942.2,55.6,925.8,52.8,911.2,60.3Z" class="st2"></path>
        <g>
            <path style="animation: 6s linear infinite both a0_t;" transform="translate(296.15,124.1) translate(-296.15,-124.1)" fill="#6D569E" d="M362.8,147.9C362.8,147.8,362.8,147.8,362.8,147.7C362.8,138.7,355.5,131.3,346.4,131.3C342.5,131.3,339,132.7,336.2,134.9C332.5,127.4,324.8,122.3,315.9,122.3C315,122.3,314.1,122.4,313.3,122.5C310.8,117.1,305.3,113.3,298.9,113.3C296.6,113.3,294.4,113.8,292.4,114.7C288.1,106.1,279.2,100.2,268.9,100.2C254.4,100.2,242.6,112,242.6,126.5C242.6,128.2,242.8,129.9,243.1,131.5C235.3,133,229.5,139.8,229.5,148L362.8,148Z" class="st3"></path>
        </g>
        <g>
            <path style="animation: 6s linear infinite both a1_t;" transform="translate(167.05,49.55) translate(-167.05,-49.55)" fill="#8166B4" d="M228.2,73.8C228.9,72.2,229.3,70.3,229.3,68.4C229.3,61.1,223.4,55.2,216.1,55.2C213.7,55.2,211.5,55.8,209.6,56.9C208.2,48.1,200.6,41.3,191.4,41.3C189.6,41.3,187.9,41.6,186.3,42C183.2,32.3,174.1,25.3,163.3,25.3C151.9,25.3,142.3,33.2,139.8,43.8C139.3,43.7,138.7,43.6,138.2,43.6C134.3,43.6,131.2,46.7,131.2,50.6C131.2,51.2,131.3,51.8,131.4,52.4C126.2,53,121.7,56.1,119.3,60.5C118.9,60.5,118.5,60.4,118,60.4C110.7,60.4,104.8,66.3,104.8,73.6L228.2,73.6Z" class="st4"></path>
        </g>
        <g>
            <path style="mix-blend-mode: overlay; animation: 6s linear infinite both a2_t;" transform="translate(758.75,97.85) translate(-758.75,-97.85)" opacity="1" fill="#FFFFFF" d="M819.9,122.1C820.6,120.5,821,118.6,821,116.7C821,109.4,815.1,103.5,807.8,103.5C805.4,103.5,803.2,104.1,801.3,105.2C799.9,96.4,792.3,89.6,783.1,89.6C781.3,89.6,779.6,89.9,778,90.3C774.9,80.6,765.8,73.6,755,73.6C743.6,73.6,734,81.5,731.5,92.1C731,92,730.4,91.9,729.9,91.9C726,91.9,722.9,95,722.9,98.9C722.9,99.5,723,100.1,723.1,100.7C717.9,101.3,713.4,104.4,711,108.8C710.6,108.8,710.2,108.7,709.7,108.7C702.4,108.7,696.5,114.6,696.5,121.9L819.9,121.9Z" class="st5"></path>
        </g>
        <path fill="#FFFFFF" d="M349,102.9L349,102.9C347.2,102.9,345.7,101.4,345.7,99.6L345.7,99.6C345.7,97.8,347.2,96.3,349,96.3L349,96.3C350.8,96.3,352.3,97.8,352.3,99.6L352.3,99.6C352.2,101.4,350.8,102.9,349,102.9Z" class="st5"></path>
        <path fill="#FFFFFF" d="M259.4,79.3L259.4,79.3C260.3,79.3,261,80,261,80.9L261,80.9C261,81.8,260.3,82.5,259.4,82.5L259.4,82.5C258.5,82.5,257.8,81.8,257.8,80.9L257.8,80.9C257.8,80,258.5,79.3,259.4,79.3Z" class="st5"></path>
        <path fill="#FFFFFF" d="M696.6,92.7L696.6,92.7C697.5,92.7,698.2,93.4,698.2,94.3L698.2,94.3C698.2,95.2,697.5,95.9,696.6,95.9L696.6,95.9C695.7,95.9,695,95.2,695,94.3L695,94.3C695,93.4,695.8,92.7,696.6,92.7Z" class="st5"></path>
        <path fill="#FFFFFF" d="M668.5,37L668.5,37C669.4,37,670.1,37.7,670.1,38.6L670.1,38.6C670.1,39.5,669.4,40.2,668.5,40.2L668.5,40.2C667.6,40.2,666.9,39.5,666.9,38.6L666.9,38.6C666.9,37.7,667.6,37,668.5,37Z" class="st5"></path>
        <path fill="#FFFFFF" d="M566.2,120.5L566.2,120.5C567.1,120.5,567.8,121.2,567.8,122.1L567.8,122.1C567.8,123,567.1,123.7,566.2,123.7L566.2,123.7C565.3,123.7,564.6,123,564.6,122.1L564.6,122.1C564.6,121.2,565.3,120.5,566.2,120.5Z" class="st5"></path>
        <path fill="#FFFFFF" d="M203.6,81.4L203.6,81.4C204.5,81.4,205.2,82.1,205.2,83L205.2,83C205.2,83.9,204.5,84.6,203.6,84.6L203.6,84.6C202.7,84.6,202,83.9,202,83L202,83C202,82.1,202.7,81.4,203.6,81.4Z" class="st5"></path>
        <path fill="#FFFFFF" d="M286.4,46.7L286.4,46.7C284.6,46.7,283.1,45.2,283.1,43.4L283.1,43.4C283.1,41.6,284.6,40.1,286.4,40.1L286.4,40.1C288.2,40.1,289.7,41.6,289.7,43.4L289.7,43.4C289.7,45.2,288.2,46.7,286.4,46.7Z" class="st5"></path>
        <path transform="translate(10,1)" fill="#FFFFFF" d="M773.7,41.9L773.7,41.9C771.9,41.9,770.4,40.4,770.4,38.6L770.4,38.6C770.4,36.8,771.9,35.3,773.7,35.3L773.7,35.3C775.5,35.3,777,36.8,777,38.6L777,38.6C777,40.4,775.5,41.9,773.7,41.9Z" class="st5"></path>
        <g>
            <path fill="none" stroke-linejoin="round" stroke-width="8" stroke="#1A1A3A" stroke-linecap="round" stroke-miterlimit="10" d="M374.4,53.1L394.5,53.1L417.3,77.7L417.3,53.1L438.6,53.1L438.6,108.8L419.5,108.8L395.7,83.1L395.7,108.8L374.4,108.8L374.4,53.1Z" class="st6"></path>
            <path fill="none" stroke-linejoin="round" stroke-width="8" stroke="#1A1A3A" stroke-linecap="round" stroke-miterlimit="10" d="M446.7,53.1L501.4,53.1L501.4,68.4L467.8,68.4L467.8,74L499.1,74L499.1,87.5L467.8,87.5L467.8,93.6L501.9,93.6L501.9,108.9L446.7,108.9L446.7,53.1Z" class="st6"></path>
            <path fill="none" stroke-linejoin="round" stroke-width="8" stroke="#1A1A3A" stroke-linecap="round" stroke-miterlimit="10" d="M536.1,109.9C529.6,109.9,523.5,109.1,517.8,107.6C512.1,106,507.3,103.7,503.2,100.6L514.7,88.7C518.2,91,521.8,92.7,525.7,93.7C529.5,94.7,533.4,95.2,537.2,95.2C539.2,95.2,540.6,95,541.4,94.6C542.3,94.2,542.7,93.6,542.7,92.8L542.7,92.6C542.7,91.8,542.1,91.1,540.8,90.6C539.5,90.1,537.2,89.5,533.8,88.9C530.2,88.3,526.8,87.5,523.5,86.7C520.2,85.9,517.4,84.8,514.9,83.4C512.4,82,510.5,80.4,509,78.4C507.5,76.4,506.8,73.9,506.8,71L506.8,70.8C506.8,68.1,507.4,65.7,508.6,63.4C509.8,61.1,511.5,59.1,513.8,57.4C516.1,55.7,518.9,54.4,522.3,53.4C525.7,52.4,529.6,52,534,52C540.2,52,545.7,52.6,550.4,53.9C555.1,55.2,559.3,57.1,563,59.6L552.6,72.2C549.5,70.3,546.3,68.9,542.9,68C539.5,67.1,536.3,66.7,533.3,66.7C531.7,66.7,530.5,66.9,529.8,67.3C529,67.7,528.7,68.3,528.7,69L528.7,69.2C528.7,69.6,528.8,69.9,529.1,70.2C529.3,70.5,529.8,70.8,530.4,71.1C531,71.4,531.9,71.7,533,71.9C534.1,72.2,535.5,72.4,537.2,72.7C541.3,73.3,545,74.1,548.4,75C551.8,75.9,554.6,77.1,557.1,78.5C559.5,79.9,561.4,81.6,562.7,83.6C564,85.6,564.7,88,564.7,90.8L564.7,91C564.7,93.9,564,96.5,562.7,98.9C561.4,101.2,559.5,103.2,557,104.8C554.6,106.4,551.6,107.7,548.1,108.5C544.3,109.4,540.4,109.9,536.1,109.9Z" class="st6"></path>
            <path fill="none" stroke-linejoin="round" stroke-width="8" stroke="#1A1A3A" stroke-linecap="round" stroke-miterlimit="10" d="M586.6,68.9L567.7,68.9L567.7,53.1L626.9,53.1L626.9,68.9L608,68.9L608,108.9L586.6,108.9L586.6,68.9Z" class="st6"></path>
        </g>
        <g>
            <path fill="#FFFFFF" d="M374.4,53.1L394.5,53.1L417.3,77.7L417.3,53.1L438.6,53.1L438.6,108.8L419.5,108.8L395.7,83.1L395.7,108.8L374.4,108.8L374.4,53.1Z" class="st5"></path>
            <path fill="#FFFFFF" d="M446.7,53.1L501.4,53.1L501.4,68.4L467.8,68.4L467.8,74L499.1,74L499.1,87.5L467.8,87.5L467.8,93.6L501.9,93.6L501.9,108.9L446.7,108.9L446.7,53.1Z" class="st5"></path>
            <path fill="#FFFFFF" d="M536.1,109.9C529.6,109.9,523.5,109.1,517.8,107.6C512.1,106,507.3,103.7,503.2,100.6L514.7,88.7C518.2,91,521.8,92.7,525.7,93.7C529.5,94.7,533.4,95.2,537.2,95.2C539.2,95.2,540.6,95,541.4,94.6C542.3,94.2,542.7,93.6,542.7,92.8L542.7,92.6C542.7,91.8,542.1,91.1,540.8,90.6C539.5,90.1,537.2,89.5,533.8,88.9C530.2,88.3,526.8,87.5,523.5,86.7C520.2,85.9,517.4,84.8,514.9,83.4C512.4,82,510.5,80.4,509,78.4C507.5,76.4,506.8,73.9,506.8,71L506.8,70.8C506.8,68.1,507.4,65.7,508.6,63.4C509.8,61.1,511.5,59.1,513.8,57.4C516.1,55.7,518.9,54.4,522.3,53.4C525.7,52.4,529.6,52,534,52C540.2,52,545.7,52.6,550.4,53.9C555.1,55.2,559.3,57.1,563,59.6L552.6,72.2C549.5,70.3,546.3,68.9,542.9,68C539.5,67.1,536.3,66.7,533.3,66.7C531.7,66.7,530.5,66.9,529.8,67.3C529,67.7,528.7,68.3,528.7,69L528.7,69.2C528.7,69.6,528.8,69.9,529.1,70.2C529.3,70.5,529.8,70.8,530.4,71.1C531,71.4,531.9,71.7,533,71.9C534.1,72.2,535.5,72.4,537.2,72.7C541.3,73.3,545,74.1,548.4,75C551.8,75.9,554.6,77.1,557.1,78.5C559.5,79.9,561.4,81.6,562.7,83.6C564,85.6,564.7,88,564.7,90.8L564.7,91C564.7,93.9,564,96.5,562.7,98.9C561.4,101.2,559.5,103.2,557,104.8C554.6,106.4,551.6,107.7,548.1,108.5C544.3,109.4,540.4,109.9,536.1,109.9Z" class="st5"></path>
            <path fill="#FFFFFF" d="M586.6,68.9L567.7,68.9L567.7,53.1L626.9,53.1L626.9,68.9L608,68.9L608,108.9L586.6,108.9L586.6,68.9Z" class="st5"></path>
        </g>
    </g>
    <g style="animation: 6s linear infinite both penguin_t;" transform="translate(877.25,101.548) translate(-877.25,-91.5484)" id="penguin">
        <g style="animation: 6s linear infinite both a3_t;" transform="translate(946.782,95.6269) translate(-7.85116,-6.80323)">
            <path transform="translate(-938.931,-88.8236)" fill="#4C569E" d="M990.5,134.8C972.6,135.1,982.5,119.8,988,128C988,128,992,118.5,983.4,116.6C976.7,115.1,981,106.5,985.2,111.8C985.2,111.8,984,101.2,977,94.6C967.8,85.9,954.5,87.4,945.8,96.6C937.1,105.8,936.3,119.2,945.5,127.9C950.4,132.5,956.1,134,965.2,134.9C960.9,129.9,968.3,125,970.4,132.3C973.1,141.9,984.9,140.7,990.5,134.8L990.5,134.8ZM990.5,134.8" class="st7"></path>
            <path transform="translate(-938.931,-88.8236)" fill="none" stroke-miterlimit="10" stroke="#1A193A" stroke-width="2.5" stroke-linecap="round" d="M990.5,134.8C972.6,135.1,982.5,119.8,988,128C988,128,992,118.5,983.4,116.6C976.7,115.1,981,106.5,985.2,111.8C985.2,111.8,984,101.2,977,94.6C967.8,85.9,954.5,87.4,945.8,96.6C937.1,105.8,936.3,119.2,945.5,127.9C950.4,132.5,956.1,134,965.2,134.9C960.9,129.9,968.3,125,970.4,132.3C973.1,141.9,984.9,140.7,990.5,134.8L990.5,134.8ZM990.5,134.8" class="st8"></path>
            <path transform="translate(-938.931,-88.8236)" fill="#67C2EE" d="M974.9,127C974.9,127,981.7,120.8,973.6,114.7C968.9,111.2,974.5,106.9,976.4,111.8C976.3,93.2,958.9,91.6,950.1,100.8C941.3,110,945.2,126,958.8,126.2C951.4,122.8,958.5,115.2,962.8,120.6C966.3,125.1,968.8,124.9,971.2,124.1C967.7,122.2,970.9,118.4,973.1,120.9C975.4,123.4,974.9,127,974.9,127L974.9,127ZM974.9,127" class="st9"></path>
        </g>
        <path fill="#FFFFFF" d="M786.2,31.5C781.5,34.4,777,41.4,773.7,50C760.7,83.7,790.2,120.8,795.6,127.6C803.9,138.1,812.9,145.5,820.2,150.6C823.2,152.9,861.3,181.4,897.1,166C902.5,163.7,909.8,159.5,916.9,151.8C916.9,151.8,895.8,148.8,875.7,131.9C856.8,116.1,850,84.6,847.3,62C847.1,60.5,847,59.1,846.8,57.6C844.4,35.1,811.6,15.7,786.2,31.5Z" class="st5"></path>
        <path opacity="0.21" fill="#9EB6D2" d="M916.1,152.6C897.6,170.1,862.4,186.6,809.7,141.9C810.7,141,811.5,139.9,812.1,138.6C830.9,150.7,864.8,167,905,149.1L916.1,152.6Z" class="st10"></path>
        <path fill="#F09657" d="M911.8,156.8L918.3,166.7L920.1,167.3L922.2,166.2L923.3,158.6L930.7,162.7L932.8,162.6C932.8,162.6,936.4,164,934.5,148.6L938.9,150C938.9,150,941.8,150,941,146.2C940.2,142.4,933.6,132.8,931.4,132.6C931.6,132.7,922.6,149.4,911.8,156.8Z" class="st11"></path>
        <path fill="#F09657" d="M895.8,166.3L895.8,166.3L897.5,175.3L896.7,177C896,177.1,895.3,177.3,894.5,177.4C892.4,175.9,890.4,174.4,888.3,172.9C887.4,175.4,886.4,177.9,885.5,180.4C885.3,180.7,884.8,181.5,883.8,181.9C883.8,181.9,883.2,182.1,882.5,182.1C880.8,182.1,879.6,180.8,878.6,179.8C877.2,178.3,875.3,176.2,873.2,173.5C872.5,174.9,871.7,176.2,871,177.6C871,177.6,868.9,179.7,866.8,176.4C866,175.2,865.3,172.8,864.7,170.2C864.7,170.2,863.8,171.2,864.7,170.2C864.8,170.2,877.8,173.1,895.8,166.3Z" class="st11"></path>
        <path fill="none" stroke-miterlimit="10" stroke="#1A193A" stroke-width="2.5" d="M911.8,156.8C913.8,159.9,915.8,163,917.8,166.2C919.1,168.2,922.2,167.6,922.6,165.3C922.6,165.3,922.6,165.3,922.6,165.2C923,162.8,923.2,160.6,923.2,158.7C923.9,158.9,927,160.7,929.8,162.4C931.9,163.7,934.6,162.3,934.8,159.9C934.9,158.7,935,157.6,935,156.8C935.1,153.8,934.9,151,934.6,148.8C935.8,149.2,937,149.5,938.2,149.9C939.9,150.4,941.5,148.9,941,147.2C940.4,144.8,939.3,141.9,937.3,139C935.3,136.1,933.2,134.1,931.5,132.8" class="st12"></path>
        <path fill="none" stroke-miterlimit="10" stroke="#1A193A" stroke-width="2.5" d="M896,166.3C896.5,169,897.1,171.6,897.6,174.3C898.1,176.6,895.4,178.3,893.5,176.9C893.5,176.9,893.5,176.9,893.4,176.9C891.4,175.5,889.8,174,888.4,172.7C888,173.3,887,176.2,886,179.3C884.9,182.6,881.8,183.1,879.2,180.5C878.4,179.7,874.7,175.2,873.4,173.4C872.8,174.5,872.2,175.6,871.5,176.7C870.6,178.2,868.5,178.2,867.6,176.7C866.6,175,865.7,172.8,865,170.3" class="st12"></path>
        <path fill="none" stroke-miterlimit="10" stroke="#6A5DFF" stroke-width="4" d="M938.6,118.2C952.2,119.1,967.7,103.4,966.8,89.8" class="st13"></path>
        <path fill="#D9DBEE" d="M855.4,28.6C858.6,30.6,862.3,33.3,866.1,36.8C871,41.3,874.5,45.9,877,49.7C880,49.1,883.8,52.4,883.8,52.4L887.3,59.1L922.9,91.2C922.9,91.2,927.2,91.7,929.4,92C931.5,92.3,933.6,96.4,933.6,96.4C935.9,96.1,938.3,95.7,940.6,95.4C940.8,95.4,941,95.5,941.3,95.7C942,96.4,941.6,97.8,941.5,98.2C940.6,102,941.9,103.6,939.7,112C939.4,113.2,938.9,114.8,938.3,116.7C942.7,116.4,946,115.2,948,114.2C957.8,109.8,962.1,101.2,963.2,98.9C963.6,98.2,964.9,95.5,965.8,91.7C966.5,89,967,87,966.9,84.6C966.8,83,966.3,79.5,963.3,75.6L960.2,72.3L884.5,9.2C883.7,8.5,868.2,-3.6,853.5,2.8C849.6,4.5,846.7,7.1,844.6,9.5C843.7,10.5,842.3,12.3,841.4,15C840.5,17.6,840.6,19.9,840.7,21.2C842.9,21.9,845.4,22.9,848.1,24.2C850.9,25.7,853.4,27.2,855.4,28.6Z" class="st14"></path>
        <path fill="#D9DBEE" d="M840,21C837.9,19,835,16.4,831.2,13.8C828.8,12.2,826,10.3,822.3,8.8C818.6,7.3,810.9,4.2,802.3,6.8C800.3,7.4,796,8.8,792.5,12.8C786.5,19.7,787.7,28.6,787.9,30.1C791.6,27,797.5,22.9,805.5,20.3C821.1,15.3,834.8,19.3,840,21Z" class="st14"></path>
        <path opacity="0.28" fill="#555288" d="M800.3,13.4C798.3,14,794,15.4,790.5,19.4C789.3,20.7,788.4,22.2,787.7,23.6C787.3,26.8,787.7,29.4,787.8,30.2C791.5,27.1,797.4,23,805.4,20.4C812.9,18,819.8,17.6,825.7,18.1C824.1,17.2,822.4,16.2,820.3,15.4C816.6,13.9,808.9,10.7,800.3,13.4Z" class="st15"></path>
        <path fill="none" stroke-miterlimit="10" stroke="#1A193A" stroke-width="2.5" d="M840.7,21.2C840.6,14.6,842.9,11.1,843.9,9.9C852.4,-0.8,870.3,-3.4,889.5,13.2L960,72.6C965,76.8,967.9,83.3,966.5,89.7C962.9,106.5,947.3,117.6,938.1,116.9" class="st12"></path>
        <path fill="none" stroke-miterlimit="10" stroke="#1A193A" stroke-width="2" d="M937.7,119.8C943.3,121.3,951.3,118.5,958.3,112.2C967.6,103.8,971.4,92.3,966.8,86.4" class="st16"></path>
        <path opacity="0.28" fill="#555288" d="M951.2,92L948.1,88.7L872.6,25.4C871.8,24.7,856.3,12.6,841.6,19C836.8,21.1,863.1,30.8,866.1,36.9C874.6,45.2,874.3,48.4,883.8,52.5C883.8,52.5,887.3,59.2,887.3,59.2L922.9,91.3C925.6,91.4,932.4,91.8,933.5,96.5C936.1,96.6,942.8,93.4,941.4,98.3C940.9,101.6,941,110.1,938.2,116.8C952.7,116.5,960.1,104.6,951.2,92Z" class="st15"></path>
        <path fill="none" stroke-miterlimit="10" stroke="#1A193A" stroke-width="2.5" d="M787.8,30C785.2,18.1,794.4,7.1,806.6,5.9C819.3,4.7,831.4,13,840.3,21.1" class="st12"></path>
        <path fill="#E74043" d="M933,96.5C935.9,96.3,936.6,96.1,936.6,96.1C937.9,95.7,939.1,95.1,940.7,95.5C941,95.6,941.2,95.7,941.4,95.7C941.1,104.7,939.2,120.6,929.4,136.7C925.5,143.1,921.2,148.1,917.3,152C829.8,126.1,861.1,81.6,841.7,45.9C836.3,35.9,828.7,31.5,821.8,28.8C819.7,28,808.7,23.6,797.5,27.1C793.6,28.3,785.5,31.8,785.5,31.8C785.5,31.8,795.3,24.3,806.7,20.3C828.1,12.7,852.1,24.9,860.3,31.6C866.8,36.9,871.3,42.4,871.3,42.4C873.7,45.5,874.3,46.7,876.7,49.6C880.7,54.3,884.4,56.9,887.2,59C897.1,66.4,905.5,75.1,912.2,81.9C912.7,82.4,915.9,85.2,922.3,90.8C925.1,93.1,929.2,96.7,933,96.5Z" class="st17"></path>
        <path fill="#C43058" d="M917.2,151.6C926.8,142.1,931.5,132.7,931.5,132.7C923.3,139.3,915.2,144.4,907.4,148.1L917.2,151.6Z" class="st18"></path>
        <path fill="none" stroke-miterlimit="10" stroke="#1A193A" stroke-width="2.5" d="M809.3,142C811.5,144,813.8,145.9,816.2,147.7C826.1,155.2,860.9,181.6,897.2,165.8C904.6,162.6,911.3,157.9,917.3,152C898.8,147.5,885.5,140.4,875.7,132.1" class="st12"></path>
        <path fill="none" stroke-miterlimit="10" stroke="#1A193A" stroke-width="2.5" d="M850.7,84.6C849.5,77.4,848.8,70.8,848.3,65.6C846.4,47.8,835,32.9,819.6,27.9C808.5,24.3,796.2,26,785.7,32.1C782.5,35,779.4,38.6,777,42.9C763.7,66.5,774.9,102,796.4,128.4" class="st12"></path>
        <path fill="none" stroke-miterlimit="10" stroke="#1A193A" stroke-width="2.5" d="M887,58.9C898.9,69.7,910.9,80.4,922.8,91.2" class="st12"></path>
        <path fill="none" stroke-miterlimit="10" stroke="#1A193A" stroke-width="2.5" d="M785.7,32C794.7,23.8,805,20.5,806.6,20C829,13.1,848.1,24.1,853.8,27.4C866.1,34.5,873.3,43.9,877,49.6" class="st12"></path>
        <path fill="none" stroke-miterlimit="10" stroke="#1A193A" stroke-width="2.5" d="M933.1,96.4C933.7,96.4,934.3,96.4,934.9,96.3L939.8,95.4C940.6,95.2,941.4,95.9,941.4,96.7C941.4,99.5,941.2,102.4,940.8,105.2C938,123.3,929.4,140,917.3,152" class="st12"></path>
        <path fill="#89A7F4" d="M876.9,49.7C869.3,48.7,852,64.5,850.5,83.6C848.9,103.3,864,124.9,885.1,129.1C903.8,132.9,924.2,122.1,930.9,107.1C936.8,93.6,929.6,92,929.6,92L922.8,91.1C920.8,102.8,911.6,111.9,900,113.9C887.6,116,875.8,109.4,870.9,99.8C864.1,86.6,870.1,67.4,887,58.8C886.7,57.5,885.9,54.5,883.2,52.2C883.2,52.3,880.6,50.1,876.9,49.7Z" class="st19"></path>
        <path fill="#89A7F4" d="M776.6,94.3C775.9,95.7,771.1,105.6,775.9,116.8C780.6,127.8,790.9,131.3,792.4,131.8L796.3,128.3C793.1,124.4,789.7,119.7,786.4,114.3C782,107.1,778.9,100.2,776.6,94.3Z" class="st19"></path>
        <path fill="none" stroke-miterlimit="10" stroke="#1A193A" stroke-width="2.5" d="M853.4,102.1C850.8,95.1,849.9,87.5,851.2,79.8C853.4,66.6,861.3,57.9,867.6,52.8C872,49.3,878.8,48.1,883.1,51.8C884.9,53.3,887,58.7,887,58.7C870.7,68.6,865.6,82.4,869.4,95.8" class="st12"></path>
        <path fill="none" stroke-miterlimit="10" stroke="#1A193A" stroke-width="2.5" d="M906,112.5C913.8,108.7,920.1,101.2,922.8,91.2L929.6,92.1C934.1,94,934.1,100.5,932,104.9C928.3,112.6,920.9,123.4,906.8,128C898.7,130.7,891.2,130.5,885,129.2" class="st12"></path>
        <path opacity="0.3982" fill="#6863D2" d="M893.4,123C892.1,125.3,890.1,127,887.3,128.2C886.6,128.5,885.8,128.8,885,129.1C885.1,129.1,885.1,129.1,885.2,129.1C903.9,132.9,924.3,122.1,931,107.1C931.4,106.3,931.7,105.5,932,104.7C924.3,116.2,908.7,124.1,893.4,123Z" class="st20"></path>
        <path opacity="0.3982" fill="#6863D2" d="M860.2,101.6C855.6,94,853.2,85.2,853.9,76.8C854.2,73,855.2,69.3,856.5,65.8C853.4,71,851,77.1,850.5,83.6C850,89.6,851.1,95.7,853.4,101.5C855.7,101.7,858.1,102.1,860.2,101.6Z" class="st20"></path>
        <path opacity="0.3982" fill="#6863D2" d="M793.9,126.5C792.4,126,782.1,122.5,777.4,111.5C775,105.8,775,100.5,775.7,96.4C774.3,100.1,772.2,108.1,775.9,116.8C780.6,127.8,790.9,131.3,792.4,131.8L796.3,128.3C795.7,127.6,795.1,126.8,794.4,126L793.9,126.5Z" class="st20"></path>
        <path fill="none" stroke-miterlimit="10" stroke="#0B0E00" stroke-width="2.5" d="M775.8,92.2C780.3,105.3,787.5,117.6,796.3,128.3" class="st21"></path>
        <path fill="#E74043" d="M841,104.4C843.8,101.8,847.1,102.8,852.8,102.2C853.8,102.1,860.6,101.3,866.6,97.8C869,96.4,872.6,93.8,876,89C876,89,895.1,72.8,910.1,92.2C910.7,94.9,911.2,99.3,910,104.3C908,112.4,902.8,117.2,898.9,120.7C896.1,123.2,888,130,875.6,132.1C871.6,132.8,864,134,855.7,130.8C852.9,129.7,851.1,128.6,850.6,128.3C844.3,124.3,836.9,116.1,838.8,108.7C838.9,107.9,839.4,106,841,104.4Z" class="st17"></path>
        <path fill="#E74043" d="M774,106.4C772.7,109.5,771.2,114.3,770.5,120.3C770.1,123.8,769.8,127,770.5,130.7C770.9,133,773.2,142.7,782.1,147.4C791.1,152.1,803.1,149.6,809.6,141.8C814.8,135.7,814.9,128.4,814.8,126.2C814.8,125.4,814.6,122.8,812.6,120.6C812,120,810.5,118.3,808.4,118.2C806.6,118.1,805.6,119.1,800.1,124.4C797.8,126.6,795.4,128.8,793.1,131.1L793.1,131.1C791.1,130.6,782.3,127.9,777.2,119.1C774.4,114,774,109,774,106.4Z" class="st17"></path>
        <path fill="#C43058" d="M770.5,130.7C770.5,130.7,789,157.8,814.9,128.1C813.9,137.7,807.8,145.8,799.4,148.5C790.5,151.4,782.9,147.2,781.6,146.5C772.7,141.4,770.8,132.1,770.5,130.7Z" class="st18"></path>
        <path fill="none" stroke-miterlimit="10" stroke="#1A193A" stroke-width="2.5" stroke-linecap="round" d="M876.3,88.6C873.9,92.5,870.3,95.9,863.8,99.5C853.5,105.1,843.6,98.9,839.3,106.6C836.7,111.3,838.8,118.2,845.8,124.7C868.6,146.1,916.4,121.4,910.1,92.2" class="st8"></path>
        <path fill="none" stroke-miterlimit="10" stroke="#1A193A" stroke-width="2.5" d="M776.6,94.3C775.9,95.8,771.3,106.2,776.3,117.2C779.5,124.1,785.5,129.2,792.8,131.5" class="st12"></path>
        <path fill="none" stroke-miterlimit="10" stroke="#1A193A" stroke-width="2.5" stroke-linecap="round" d="M774,105.8C773.1,107.9,772.2,110.2,771.5,112.8C769.5,120.6,769.4,127.8,771.1,133.4C774,143.3,780.6,149.1,791.5,149.7C797.7,150.1,804.1,147.1,809.3,142C813,138.5,818.7,125.8,811.7,119.5C806.4,114.7,801.7,124.3,791.2,132.8" class="st8"></path>
        <g transform="translate(802.811,61.4795) translate(-38.6266,-17.6601)">
            <g transform="translate(13.9402,17.4572) translate(-13.9402,-17.4572)" id="left">
                <ellipse transform="translate(17.4572,17.4572) translate(-3.51695,0)" stroke="none" fill="#1a193a" ry="17.4572" rx="13.9402"></ellipse>
                <ellipse transform="translate(17.4569,17.4572) translate(-5.82828,2.89444)" stroke="none" fill="#ffffff" ry="9.23179" rx="7.37194"></ellipse>
            </g>
            <g transform="translate(59.7959,17.863) translate(-17.4572,-17.4572)" id="right">
                <ellipse transform="translate(17.4572,17.4572)" stroke="none" fill="#1a193a" ry="17.4572" rx="17.4572"></ellipse>
                <ellipse transform="translate(17.4572,17.4572) translate(-3.3169,2.13631)" stroke="none" fill="#ffffff" ry="10" rx="9.86769"></ellipse>
            </g>
        </g>
        <path fill="#E74043" d="M800,69.4C800,69.4,785.5,72,773.1,64.8C773.1,64.8,776.5,79.9,795.6,83.8C797.5,83.4,798.7,82.5,799.3,81.9C802.9,78.6,802.1,74.2,801.6,72.8C801.2,71.3,800.5,70.1,800,69.4Z" class="st17"></path>
        <path fill="#C43058" d="M801.7,73.3C801.4,74.8,800.7,76.5,799.1,78C798.5,78.5,797.4,79.4,795.4,79.9C783.5,77.4,777.7,70.7,775,65.9C774.3,65.6,773.7,65.2,773,64.9C773,64.9,776.4,80,795.5,83.9C797.4,83.5,798.6,82.6,799.2,82C802.6,79,802.2,75.1,801.7,73.3Z" class="st18"></path>
        <path fill="none" stroke-miterlimit="10" stroke="#1A193A" stroke-width="2" d="M796.5,83.9C796.4,84,796.3,84,796.1,84C793.5,83.7,788.1,82.6,782.8,78.6C777.4,74.6,774.8,69.5,773.6,66.5C773.4,65.9,774,65.4,774.6,65.6C777.4,66.9,781.2,68.4,785.9,69.2C791.5,70.2,796.3,69.9,799.6,69.5C799.9,69.5,800.1,69.6,800.2,69.8C800.9,70.8,802.8,73.7,801.9,77.5C801,81.7,797.4,83.5,796.5,83.9Z" class="st16"></path>
    </g>
    <g transform="translate(0,10)" id="egg">
        <path fill="#F29657" d="M121.3,89.3C121.3,89.3,128.3,88.7,132.3,90.1C136.3,91.5,193.9,89.7,208.6,95.6C208.6,95.6,229.1,84.4,250.5,101.6L242.6,106.7C242.6,106.7,272.2,119.8,266.6,153.4L259.8,147C259.8,147,261,163.1,249.7,172.9L248,164.8C248,164.8,217.1,174.9,180.6,158.8L183.9,172C183.9,172,158.2,168.5,145.1,155.4L134.3,158.2C132.4,158.3,129.6,158.7,126.3,159.7C120.7,161.4,117.9,163.7,114.6,165.6C105.9,170.7,91.9,173.7,83,169.6C81.7,169,79.2,167.7,75.4,167C71,166.2,67.5,166.8,66.8,166.9C62.1,167.5,48.7,164.9,14.9,153.5C18.1,152.9,21.3,152.2,24.5,151.6C24.5,151.6,9.4,143.1,3.9,131.2C5.1,131.2,7.3,131.2,9.7,130.1C11.2,129.4,12.3,128.6,13,127.9C13,127.9,5.8,121.4,2.3,120.6C3.5,119.3,5.4,117.3,7.5,114.6C10.9,110.1,11.7,107.8,14.2,104.5C15.8,102.4,18.5,99.5,22.6,96.6L8.1,96.6C12.5,86.2,21.8,79.2,31.9,78.7C40.7,78.3,47.1,82.9,49.2,84.5L121.3,89.3Z" class="st23"></path>
        <g>
            <path fill="#D67D41" d="M13.3,127.7C15,126.9,13.3,128.3,14.2,127.5C14.2,127.5,10.1,119.1,5.8,117C3.7,119.9,3.9,120.2,2.6,121.6C4.9,122.2,8.6,124.9,11.3,127.3C12.4,127,12.1,128.3,13.3,127.7Z" class="st24"></path>
            <path fill="#D67D41" d="M26.9,94.2L11.6,91.3C10.4,93,9.3,95,8.4,97.1L19.6,96.8C21.2,95,23.8,95.3,26.9,94.2Z" class="st24"></path>
            <path fill="#D67D41" d="M249,102.6L250.5,101.6C249.6,100.9,248.7,100.2,247.8,99.6L245.8,100.9C245.8,100.9,247.1,101.5,249,102.6Z" class="st24"></path>
            <path fill="#D67D41" d="M252.9,167L251.2,158.9C251.2,158.9,220.3,169,183.8,152.9L185.8,160.8C220,173.8,248,164.7,248,164.7L249.7,172.8C253.3,169.7,255.7,165.9,257.2,162.2C256,163.9,254.6,165.6,252.9,167Z" class="st24"></path>
            <path fill="#D67D41" d="M148.4,149.5C146.5,149.6,130,153.8,126.8,154.7C124.9,155.3,123.6,155.9,122.7,156.5C120.2,158.1,118.4,159.3,118,159.7C111.5,165,89.1,165.9,88.9,165.9L88.9,165.9L88.9,165.9C88.9,165.9,91.9,162.7,91.9,162.7L91.9,162.7C87.5,162.1,83.1,161.7,78.8,161C77.4,160.8,74.7,160.3,71.1,160.7C70.7,160.7,70.4,160.8,70.2,160.8C65.6,161.4,52.4,158.8,19.4,147.7C22.5,150,24.8,151.3,24.8,151.3C21.6,151.9,18.4,152.6,15.2,153.2C49,164.7,62.4,167.4,67,166.7C67.7,166.6,71.2,166,75.6,166.8C79.4,167.5,82,168.8,83.2,169.4C92,173.5,106.1,170.4,114.8,165.4C118.1,163.5,120.8,161.2,126.5,159.5C129.7,158.5,132.6,158.2,134.5,158L145.3,155.2C158.3,168.3,184.1,171.8,184.1,171.8L182.4,165.1C174.2,163.5,157.9,159,148.4,149.5Z" class="st24"></path>
            <path fill="#D67D41" d="M27.9,145.5C27.9,145.5,16.6,139.2,10,129.8C10,129.8,9.9,129.8,9.9,129.8C7.5,130.9,5.3,131,4.1,130.9C7.3,137.9,13.8,143.7,18.7,147.3C21.8,146.7,24.9,146.1,27.9,145.5Z" class="st24"></path>
        </g>
        <path fill="none" stroke-miterlimit="10" stroke="#1A1A3A" stroke-width="2.5" stroke-linecap="round" d="M198.5,93.4C199.3,93.5,200.1,93.6,200.9,93.8C204.2,94.4,206.9,95.1,208.6,95.6C212,94.1,220.9,90.7,232.2,92.9C241.4,94.7,247.7,99.2,250.5,101.6C247.9,103.3,245.3,105,242.6,106.7C245.7,108.2,259.4,115.3,265,131.3C268.3,140.8,267.4,149.2,266.6,153.4C264.3,151.4,262,149.3,259.7,147.3C259.8,150.4,259.7,156.4,256.7,162.9C254.5,167.6,251.7,170.8,249.7,172.8C249.1,170.1,248.5,167.5,248,164.8C241.2,166.5,232.6,167.9,222.6,167.9C204.2,167.8,189.6,162.7,180.8,158.7L184.1,171.9C184.1,171.9,164.3,170.2,145.2,155.5C138.6,157.2,132.4,158.5,126.5,159.5C107,171.8,87.1,171.2,79.5,170L84.8,165.7C55,171.4,15.2,153.1,15.2,153.1L24.3,151.3C7.1,139.7,4.2,131,4.2,131C11.1,130.5,13.3,128,13.3,128L2.2,120.5C9.7,115.1,12.1,103,23,96.3C23.8,95.8,8.1,96.7,8.1,96.7C8.1,96.7,16,79.5,32.8,78.9C41.2,78.6,48.1,82.6,49.3,84.6" class="st25"></path>
        <path fill="none" stroke-miterlimit="10" stroke="#1A1A3A" stroke-width="2.5" stroke-linecap="round" d="M49.9816,84.251C51.9816,84.151,125.5,89.3,128,89.5C129.6,89.7,198.983,94.0473,200.283,94.2473" class="st25"></path>
        <path fill="#EFA972" d="M126.8,99.9" class="st27"></path>
        <g style="animation: 6s linear infinite both egg2_t;" transform="translate(129.199,116.202) scale(0.9,0.9) translate(-83.3891,-82.26)" id="egg2">
            <g>
                <path fill="#FFFFFF" d="M105.8,115.8C90.5,111,66.3,89.2,78.7,57.6C92.8,22,119.1,12.9,133.6,15.6C154.7,19.6,171.8,57.6,159.3,89.3C146.9,120.6,121.6,120.7,105.8,115.8Z" class="st0"></path>
            </g>
            <path opacity="0.1" d="M131.7,94.2C116.4,89.4,92.1,67.7,104.6,36.1C107.3,29.2,110.5,23.3,114,18.2C101.4,23.2,87.6,35.1,78.7,57.7C66.2,89.3,90.5,111.1,105.8,115.8C120.5,120.4,143.4,120.6,156.5,95.5C147.7,97.5,138.7,96.4,131.7,94.2Z" class="st1"></path>
            <g>
                <path fill="none" stroke-miterlimit="10" stroke="#1A1A3A" stroke-width="2.5" stroke-linecap="round" d="M105.8,115.8C90.5,111,66.3,89.2,78.7,57.6C92.8,22,119.1,12.9,133.6,15.6C154.7,19.6,171.8,57.6,159.3,89.3C146.9,120.6,121.6,120.7,105.8,115.8Z" class="st2"></path>
            </g>
        </g>
        <g style="animation: 6s linear infinite both egg1_t;" transform="translate(126.901,122.921) translate(-80.672,-77.912)" id="egg1">
            <g>
                <path fill="#FFFFFF" d="M47.8,104.9C31.8,106.1,1.3,94.8,1.3,60.8C1.3,22.5,22.4,4.4,36.9,1.6C58,-2.4,87.9,26.6,87.9,60.7C87.8,94.3,64.3,103.7,47.8,104.9Z" class="st0"></path>
            </g>
            <path opacity="0.1" d="M63.9,75.3C47.9,76.5,17.4,65.2,17.4,31.2C17.4,23.7,18.2,17.1,19.6,11.1C9.7,20.4,1.3,36.6,1.3,60.8C1.3,94.8,31.8,106.1,47.8,104.9C63.2,103.8,84.6,95.6,87.5,67.4C80,72.6,71.3,74.8,63.9,75.3Z" class="st1"></path>
            <g>
                <path fill="none" stroke-miterlimit="10" stroke="#1A1A3A" stroke-width="2.5" stroke-linecap="round" d="M47.8,104.9C31.8,106.1,1.3,94.8,1.3,60.8C1.3,22.5,22.4,4.4,36.9,1.6C58,-2.4,87.9,26.6,87.9,60.7C87.8,94.3,64.3,103.7,47.8,104.9Z" class="st2"></path>
            </g>
        </g>
        <path transform="translate(0,-7)" fill="#f29657" stroke-miterlimit="10" stroke="none" stroke-width="2.5" stroke-linecap="round" d="M187.284,157.64C160.59,164.219,146.738,154.937,146.738,154.937C146.738,154.937,97.5762,174.553,65.6461,163.432C33.716,152.311,39.7,103.2,39.7,103.2C42.8,103.9,46,104.5,49.1,105.2C49.1,103.1,49.2,99.2,51.3,94.9C52.8,91.6,54.9,89.4,56.2,88.1C63.6,96,66.9,102.7,74.3,110.6C78.4,115,83.4,118.4,89,120.7C95.8,123.5,103.1,126.1,110.8,128.7C121.6,132.2,131.8,135,141.4,137.1C148,138.6,154.9,138.1,161.1,135.6C168.3,132.8,175.6,129.7,183.1,126.5C194.4,121.6,205.1,116.7,215.3,111.7C215.7,113.3,216.1,115.5,216.1,118C216,122.7,213.3,128.2,213.3,128.2C213.3,128.2,213.978,151.061,187.284,157.64Z" class="st25"></path>
        <path transform="translate(0,-7)" fill="none" stroke-miterlimit="10" stroke="#1A1A3A" stroke-width="2.5" stroke-linecap="round" d="M181.216,150.35M63.8602,151.086M39.7,103.2C42.8,103.9,46,104.5,49.1,105.2C49.1,103.1,49.2,99.2,51.3,94.9C52.8,91.6,54.9,89.4,56.2,88.1C63.6,96,66.9,102.7,74.3,110.6C78.4,115,83.4,118.4,89,120.7C95.8,123.5,103.1,126.1,110.8,128.7C121.6,132.2,131.8,135,141.4,137.1C148,138.6,154.9,138.1,161.1,135.6C168.3,132.8,175.6,129.7,183.1,126.5C194.4,121.6,205.1,116.7,215.3,111.7C215.7,113.3,216.1,115.5,216.1,118C216,122.7,213.3,128.2,213.3,128.2" class="st25"></path>
    </g>
</svg>
