<?xml version="1.0" encoding="utf-8"?>
<!-- Generator: Adobe Illustrator 25.2.1, SVG Export Plug-In . SVG Version: 6.00 Build 0)  -->
<svg version="1.1" id="Layer_1" xmlns="http://www.w3.org/2000/svg" xmlns:xlink="http://www.w3.org/1999/xlink" x="0px" y="0px"
	 viewBox="0 0 1008.4 183.4" style="enable-background:new 0 0 1008.4 183.4;" xml:space="preserve">
<style type="text/css">
	.st0{fill:url(#SVGID_1_);}
	.st1{clip-path:url(#SVGID_3_);}
	.st2{fill:#644994;}
	.st3{fill:#8E69CA;}
	.st4{fill:#7053A1;}
	.st5{fill:#8563B8;}
	.st6{fill:#FFFFFF;}
	.st7{fill:#4B589F;}
	.st8{fill:none;stroke:#1A1A3A;stroke-width:2.5;stroke-linecap:round;stroke-miterlimit:10;}
	.st9{fill:#65C4EF;}
	.st10{fill:none;stroke:#1A1A3A;stroke-width:8;stroke-linecap:round;stroke-linejoin:round;}
	.st11{opacity:0.21;fill:#9FB8D3;enable-background:new    ;}
	.st12{fill:#F29657;}
	.st13{fill:none;stroke:#1A1A3A;stroke-width:2.5;stroke-miterlimit:10;}
	.st14{fill:none;stroke:#6864FF;stroke-width:4;stroke-miterlimit:10;}
	.st15{fill:#DADCEF;}
	.st16{opacity:0.28;fill:#545489;enable-background:new    ;}
	.st17{fill:none;stroke:#1A1A3A;stroke-width:2;stroke-miterlimit:10;}
	.st18{fill:#E94043;}
	.st19{fill:#C63158;}
	.st20{fill:#89AAF5;}
	.st21{opacity:0.3982;fill:#6767D3;enable-background:new    ;}
	.st22{fill:none;stroke:#0B0E00;stroke-width:2.5;stroke-miterlimit:10;}
	.st23{fill:#1A1A3A;}
	.st24{fill:#D67D41;}
	.st25{opacity:0.16;enable-background:new    ;}
</style>
<g>
	<g id="Fondo">
		<g id="Layer_17">
			
				<linearGradient id="SVGID_1_" gradientUnits="userSpaceOnUse" x1="469.0583" y1="273.9003" x2="534.3801" y2="-58.3401" gradientTransform="matrix(1 0 0 -1 0 186)">
				<stop  offset="0" style="stop-color:#604E84"/>
				<stop  offset="1" style="stop-color:#30264F"/>
			</linearGradient>
			<path class="st0" d="M60.9,18.4h883.4c12.4,0,22.5,10.1,22.5,22.5v84.1c0,12.4-10.1,22.5-22.5,22.5H60.9
				c-12.4,0-22.5-10.1-22.5-22.5V40.9C38.5,28.5,48.5,18.4,60.9,18.4z"/>
		</g>
		<g id="Layer_22">
			<g>
				<defs>
					<path id="SVGID_2_" d="M60.9,18.4h883.4c12.4,0,22.5,10.1,22.5,22.5v84.1c0,12.4-10.1,22.5-22.5,22.5H60.9
						c-12.4,0-22.5-10.1-22.5-22.5V40.9C38.5,28.5,48.5,18.4,60.9,18.4z"/>
				</defs>
				<clipPath id="SVGID_3_">
					<use xlink:href="#SVGID_2_"  style="overflow:visible;"/>
				</clipPath>
				<g class="st1">
					<path class="st2" d="M802.1,172.1c8.9,9.5,16.9-13.4,27.3-21.3c18.3-13.8,42.4-16.8,65.2-19.2c15.4-1.7,32.3-3,45,5.9
						c8.2,5.7,17.9,15.5,25.8,9.5c5.1-3.9,5-12.5,10.4-16c7.3-4.6,15.6,4.2,19.9,11.7c7.3,12.9,14.6,25.8,21.9,38.8
						c3.2,5.7,8.6,12.3,14.8,10.3c5.9-1.9,6.8-9.6,6.7-15.8c-0.4-17.1-14.3-48.8-1.1-51.3c13.2-2.6,20.1,22.5,34,19
						c16.8-4.2-5.7-48.2,7.2-50.7s6.9,35.6,23.1,32.5s15.6-35.2,35.6-50.6c4-3.1,44-17.8,46.1-22.4c6.6-14.8-32-28.6-46.9-34.9
						c-26.5-11.1-57.9-21.6-82.7-7.1c-13.9,8.1-23.1,23-37.7,29.6c-33.3,15.2-74.8-19.3-107.4-2.6c-6.9,3.6-12.6,9.2-19.6,12.7
						c-24.8,12.6-55.6-4.7-82.4,2.8c-13.3,3.7-24.2,13.2-36.9,18.6c-30.4,13-65.7,1.4-98.4,6.9c-52.5,8.7-71.5,57.1-147,56.9
						c-20.7,0-40.9-11.3-61.2-7.6c-16.8,3.1-30.5,15-46.3,21.6c-46.1,19.1-101.1-10.1-147.9,7.1c-17.9,7.5-53.2,24-69.1,35.2
						c-19.2,13.6-48.1,37.9-29.7,46.1c7.1,3.2,37.4-2.4,45.1-3.5c14.3-2.1,39.7-8.1,54.1-10.3c5.2-0.8,10.7-1.5,15.5,0.7
						c14.3,6.6,13.9,34.7,29.5,33.4c15.4-1.3,11.8-29.3,25.9-35.5c14.3-6.3,29.5,31.2,45.1,32.2c11.5,0.8,5.1-43,22.9-46.5
						c17.8-3.5,20.2,21,31,18.9s10.8-24.2,29.5-27.3c27.9-4.7,75.7-6.7,103.9-3.9c24.2,2.4,51.2,9.6,70.7-4.9
						c9-6.6,14.7-16.9,23.6-23.6c9.6-7.1,32.9,3.9,44.7,1.9"/>
					<path class="st3" d="M279.5,179.3c-17.9,7.5-53.2,24-69.1,35.2c-19.2,13.6-48.1,37.9-29.7,46.1c7.1,3.2,37.4-2.4,45.1-3.5
						c14.3-2.1,39.7-8.1,54.1-10.3c5.2-0.8,10.7-1.5,15.5,0.7c14.3,6.6,13.9,34.7,29.5,33.4c15.4-1.3,11.8-29.3,25.9-35.5
						c14.3-6.3,29.5,31.2,45.1,32.2c11.5,0.8,5.1-43,22.9-46.5c17.8-3.5,20.2,21,31,18.9s10.8-24.2,29.5-27.3
						c27.9-4.7,75.7-6.7,103.9-3.9c24.2,2.4,51.2,9.6,70.7-4.9c9-6.6,14.7-16.9,23.6-23.6c9.6-7.1,32.9,3.9,44.7,1.9
						c20.6-3.5,30-20.3,50.6-23.8c9.3-1.6,20.5-2.5,26.4,4.9c2.4,3.1,10.1,18.8,12.7,21.7c8.9,9.5,16.9-13.4,27.3-21.3
						c18.3-13.8,42.4-16.8,65.2-19.2c15.4-1.7,32.3-3,45,5.9c8.2,5.7,17.9,15.5,25.8,9.5c5.1-3.9,5-12.5,10.4-16
						c7.3-4.6,15.6,4.2,19.9,11.7c7.3,12.9,14.6,25.8,21.9,38.8c3.2,5.7,8.6,12.3,14.8,10.3c5.9-1.9,6.8-9.6,6.7-15.8
						c-0.4-17.1-14.3-48.8-1.1-51.3c13.2-2.6,20.1,22.5,34,19c16.8-4.2-5.7-48.2,7.2-50.7s6.9,35.6,23.1,32.5s15.6-35.2,35.6-50.6
						c4-3.1,44-17.8,46.1-22.4c6.6-14.8-32-28.6-46.9-34.9c-26.5-11.1-57.9-21.6-82.7-7.1c-13.9,8.1-23.1,23-37.7,29.6
						c-33.3,15.2-74.8-19.3-107.4-2.6c-6.9,3.6-12.6,9.2-19.6,12.7c-24.8,12.6-55.6-4.7-82.4,2.8C803.9,79.6,793,89,780.3,94.5
						c-30.4,13-65.7,1.4-98.4,6.9c-52.5,8.7-57.3,41.8-135.8,51.1c-20.5,2.4-39.1-8.1-72.4-1.8c-16.8,3.1-30.5,15-46.3,21.6
						C381.3,191.3,326.3,162.1,279.5,179.3z"/>
				</g>
			</g>
		</g>
		<g id="Layer_20">
			<g>
				<path class="st4" d="M370.8,147.9c0-0.1,0-0.1,0-0.2c0-9-7.3-16.4-16.3-16.4c-3.7,0-7.3,1.3-10.2,3.6
					c-4.2-8.6-13.4-13.6-22.9-12.4c-3.6-7.9-12.9-11.4-20.9-7.9c-6.5-13-22.3-18.3-35.3-11.8c-10.6,5.3-16.3,16.9-14.1,28.5
					c-7.9,1.5-13.6,8.4-13.6,16.5L370.8,147.9z"/>
			</g>
			<g>
				<path class="st5" d="M236.2,73.8c3-6.6,0-14.4-6.6-17.4c-3.8-1.7-8.3-1.5-11.9,0.6c-1.6-10.1-11-16.9-21.1-15.4
					c-0.8,0.1-1.5,0.3-2.3,0.5c-4.1-12.7-17.7-19.6-30.4-15.5c-8,2.6-14.1,9.2-16,17.3c-3.8-0.9-7.5,1.4-8.4,5.2
					c-0.3,1.1-0.3,2.3,0,3.4c-5.1,0.6-9.6,3.6-12.1,8.1c-0.4,0-0.8-0.1-1.3-0.1c-7.3,0-13.2,5.9-13.2,13.2c0,0,0,0,0,0H236.2z"/>
			</g>
			<path class="st6" d="M357,96.3L357,96.3c1.8,0,3.3,1.5,3.3,3.3v0c0,1.8-1.5,3.3-3.3,3.3h0c-1.8,0-3.3-1.5-3.3-3.3v0
				C353.7,97.8,355.1,96.3,357,96.3z"/>
			<path class="st6" d="M267.4,82.5L267.4,82.5c-0.9,0-1.6-0.7-1.6-1.6l0,0c0-0.9,0.7-1.6,1.6-1.6h0c0.9,0,1.6,0.7,1.6,1.6l0,0
				C269,81.7,268.3,82.5,267.4,82.5z"/>
			<path class="st6" d="M704.6,95.9L704.6,95.9c-0.9,0-1.6-0.7-1.6-1.6l0,0c0-0.9,0.7-1.6,1.6-1.6l0,0c0.9,0,1.6,0.7,1.6,1.6l0,0
				C706.2,95.2,705.5,95.9,704.6,95.9z"/>
			<path class="st6" d="M676.5,40.2L676.5,40.2c-0.9,0-1.6-0.7-1.6-1.6l0,0c0-0.9,0.7-1.6,1.6-1.6l0,0c0.9,0,1.6,0.7,1.6,1.6l0,0
				C678.1,39.5,677.4,40.2,676.5,40.2z"/>
			<path class="st6" d="M574.2,123.7L574.2,123.7c-0.9,0-1.6-0.7-1.6-1.6l0,0c0-0.9,0.7-1.6,1.6-1.6l0,0c0.9,0,1.6,0.7,1.6,1.6l0,0
				C575.8,123,575.1,123.7,574.2,123.7z"/>
			<path class="st6" d="M211.6,84.6L211.6,84.6c-0.9,0-1.6-0.7-1.6-1.6l0,0c0-0.9,0.7-1.6,1.6-1.6l0,0c0.9,0,1.6,0.7,1.6,1.6l0,0
				C213.2,83.9,212.4,84.6,211.6,84.6z"/>
			<path class="st6" d="M294.4,40.1L294.4,40.1c1.8,0,3.3,1.5,3.3,3.3v0c0,1.8-1.5,3.3-3.3,3.3h0c-1.8,0-3.3-1.5-3.3-3.3v0
				C291.1,41.6,292.6,40.1,294.4,40.1z"/>
			<path class="st6" d="M781.7,35.3L781.7,35.3c1.8,0,3.3,1.5,3.3,3.3v0c0,1.8-1.5,3.3-3.3,3.3l0,0c-1.8,0-3.3-1.5-3.3-3.3v0
				C778.4,36.8,779.9,35.3,781.7,35.3z"/>
			<path class="st7" d="M1005.5,134.8c-17.9,0.3-8-15-2.5-6.8c0,0,4-9.5-4.6-11.4c-6.7-1.5-2.4-10.1,1.8-4.8c0,0-1.2-10.6-8.2-17.2
				c-9.2-8.7-22.5-7.2-31.2,2c-8.7,9.2-9.5,22.6-0.3,31.3c4.9,4.6,10.6,6.1,19.7,7c-4.3-5,3.1-9.9,5.2-2.6
				C988.1,141.9,999.9,140.7,1005.5,134.8L1005.5,134.8z"/>
			<path class="st8" d="M1005.5,134.8c-17.9,0.3-8-15-2.5-6.8c0,0,4-9.5-4.6-11.4c-6.7-1.5-2.4-10.1,1.8-4.8c0,0-1.2-10.6-8.2-17.2
				c-9.2-8.7-22.5-7.2-31.2,2c-8.7,9.2-9.5,22.6-0.3,31.3c4.9,4.6,10.6,6.1,19.7,7c-4.3-5,3.1-9.9,5.2-2.6
				C988.1,141.9,999.9,140.7,1005.5,134.8L1005.5,134.8z"/>
			<path class="st9" d="M989.9,127c0,0,6.8-6.2-1.3-12.3c-4.7-3.5,0.9-7.8,2.8-2.9c-0.1-18.6-17.5-20.2-26.3-11s-4.9,25.2,8.7,25.4
				c-7.4-3.4-0.3-11,4-5.6c3.5,4.5,6,4.3,8.4,3.5c-3.5-1.9-0.3-5.7,1.9-3.2C990.4,123.4,989.9,127,989.9,127L989.9,127z"/>
		</g>
		<g id="Layer_23">
			<g>
				<path class="st10" d="M382.4,53.1h20.1l22.8,24.6V53.1h21.3v55.7h-19.1l-23.8-25.7v25.7h-21.3V53.1z"/>
				<path class="st10" d="M454.7,53.1h54.7v15.3h-33.6V74h31.3v13.5h-31.3v6.1h34.1v15.3h-55.2V53.1z"/>
				<path class="st10" d="M511.2,100.5l11.5-11.9c6.7,4.3,14.5,6.6,22.5,6.5c3.9,0,5.5-0.9,5.5-2.4v-0.2c0-1.6-2-2.5-8.9-3.7
					c-14.4-2.5-27-6.1-27-17.9v-0.2c0-10.6,9.5-18.8,27.2-18.8c12.4,0,21.5,2.5,29,7.6l-10.4,12.6c-5.8-3.6-12.5-5.5-19.2-5.5
					c-3.2,0-4.7,1-4.7,2.3v0.2c0,1.5,1.7,2.5,8.5,3.6c16.4,2.6,27.4,6.8,27.4,18V91c0,11.7-11.1,18.9-28.3,18.9
					C531.1,109.9,519.3,106.7,511.2,100.5z"/>
				<path class="st10" d="M592.3,68.9h-18.9V53.1h59.2v15.8h-18.9v40h-21.4V68.9z"/>
			</g>
			<g>
				<path class="st6" d="M382.4,53.1h20.1l22.8,24.6V53.1h21.3v55.7h-19.1l-23.8-25.7v25.7h-21.3V53.1z"/>
				<path class="st6" d="M454.7,53.1h54.7v15.3h-33.6V74h31.3v13.5h-31.3v6.1h34.1v15.3h-55.2V53.1z"/>
				<path class="st6" d="M511.2,100.5l11.5-11.9c6.7,4.3,14.5,6.6,22.5,6.5c3.9,0,5.5-0.9,5.5-2.4v-0.2c0-1.6-2-2.5-8.9-3.7
					c-14.4-2.5-27-6.1-27-17.9v-0.2c0-10.6,9.5-18.8,27.2-18.8c12.4,0,21.5,2.5,29,7.6l-10.4,12.6c-5.8-3.6-12.5-5.5-19.2-5.5
					c-3.2,0-4.7,1-4.7,2.3v0.2c0,1.5,1.7,2.5,8.5,3.6c16.4,2.6,27.4,6.8,27.4,18V91c0,11.7-11.1,18.9-28.3,18.9
					C531.1,109.9,519.3,106.7,511.2,100.5z"/>
				<path class="st6" d="M592.3,68.9h-18.9V53.1h59.2v15.8h-18.9v40h-21.4V68.9z"/>
			</g>
		</g>
	</g>
	<g id="Pinguino">
		<g id="Fondo-2">
			<path class="st6" d="M801.2,31.5c-4.7,2.9-9.2,9.9-12.5,18.5c-13,33.7,16.5,70.8,21.9,77.6c7,8.8,15.3,16.6,24.6,23
				c3,2.3,41.1,30.8,76.9,15.4c7.5-3.3,14.3-8.1,19.8-14.2c0,0-21.1-3-41.2-19.9c-18.9-15.8-25.7-47.3-28.4-69.9
				c-0.2-1.5-0.3-2.9-0.5-4.4C859.4,35.1,826.6,15.7,801.2,31.5z"/>
			<path class="st11" d="M931.1,152.6c-18.5,17.5-53.7,34-106.4-10.7c1-0.9,1.8-2.1,2.4-3.3c18.8,12.1,52.7,28.4,92.9,10.5
				L931.1,152.6z"/>
		</g>
		<g id="Patas">
			<g id="Layer_13">
				<path class="st12" d="M926.8,156.8l6.5,9.9l1.8,0.6l2.1-1.1l1.1-7.6l7.4,4.1l2.1-0.1c0,0,3.6,1.4,1.7-14l4.4,1.4
					c0,0,2.9,0,2.1-3.8s-7.4-13.4-9.6-13.6C946.6,132.7,937.6,149.4,926.8,156.8z"/>
				<path class="st12" d="M910.8,166.3L910.8,166.3l1.7,9l-0.8,1.7c-0.7,0.1-1.4,0.3-2.2,0.4c-2.1-1.5-4.1-3-6.2-4.5
					c-0.9,2.5-1.9,5-2.8,7.5c-0.4,0.7-1,1.2-1.7,1.5c-0.4,0.1-0.9,0.2-1.3,0.2c-1.7,0-2.9-1.3-3.9-2.3c-1.9-2-3.7-4.1-5.4-6.3
					c-0.7,1.4-1.5,2.7-2.2,4.1c-1.1,2.1-2.1,2.1-4.2-1.2c-1-2-1.7-4.1-2.1-6.2l0,0C879.8,170.2,892.8,173.1,910.8,166.3z"/>
			</g>
			<path class="st13" d="M926.8,156.8c2,3.1,4,6.2,6,9.4c0.8,1.2,2.4,1.6,3.6,0.8c0.6-0.4,1-1,1.2-1.7l0-0.1
				c0.4-2.2,0.6-4.3,0.6-6.5c2.3,1.1,4.5,2.3,6.6,3.7c1.5,1,3.5,0.5,4.5-1c0.3-0.4,0.4-1,0.5-1.5c0.1-1.2,0.2-2.3,0.2-3.1
				c0.1-2.7-0.1-5.4-0.4-8l3.6,1.1c1.2,0.4,2.4-0.3,2.8-1.5c0.1-0.4,0.1-0.8,0-1.2c-1.5-5.7-4.8-10.8-9.5-14.4"/>
			<path class="st13" d="M911,166.3c0.5,2.7,1.1,5.3,1.6,8c0.3,1.4-0.6,2.8-2.1,3.1c-0.7,0.1-1.4,0-2-0.4l-0.1,0
				c-1.8-1.3-3.4-2.7-5-4.2c-0.9,2.1-1.7,4.3-2.4,6.6c-1.1,3.3-4.2,3.8-6.8,1.2c-0.8-0.8-4.5-5.3-5.8-7.1c-0.6,1.1-1.2,2.2-1.9,3.3
				c-0.6,1.1-2,1.5-3.1,0.9c-0.4-0.2-0.7-0.5-0.9-0.8c-1.1-2-2-4.2-2.6-6.4"/>
		</g>
		<g id="Propulsores">
			<path class="st14" d="M953.6,118.2c13.6,0.9,29.1-14.8,28.2-28.4"/>
			<path class="st15" d="M870.4,28.6c8.6,5.4,16,12.6,21.6,21.1c3-0.6,6.8,2.7,6.8,2.7l3.5,6.7l35.6,32.1c0,0,4.3,0.5,6.5,0.8
				s4.2,4.4,4.2,4.4c2.3-0.3,4.7-0.7,7-1c0.2,0,0.5,0.2,0.7,0.3c0.7,0.7,0.3,2.1,0.2,2.5c-0.9,3.8,0.4,5.4-1.8,13.8
				c-0.3,1.2-0.8,2.8-1.4,4.7c3.4-0.3,6.7-1.1,9.7-2.5c9.8-4.4,14.1-13,15.2-15.3c1.1-2.3,2-4.7,2.6-7.2c0.8-2.3,1.1-4.7,1.1-7.1
				c-0.3-3.3-1.5-6.4-3.6-9l-3.1-3.3L899.5,9.2c-0.8-0.7-16.3-12.8-31-6.4c-3.4,1.5-6.5,3.8-8.9,6.7c-2.9,3.2-4.3,7.4-3.9,11.7
				C860.9,22.9,865.9,25.4,870.4,28.6L870.4,28.6z"/>
			<path class="st15" d="M855,21c-2.7-2.7-5.7-5.1-8.8-7.2c-2.8-2-5.8-3.7-8.9-5c-3.7-1.5-11.4-4.6-20-2c-3.8,1-7.2,3.1-9.8,6
				c-6,6.9-4.8,15.8-4.6,17.3c5.2-4.4,11.1-7.7,17.6-9.8C831.7,16.9,843.8,17.1,855,21z"/>
			<path class="st16" d="M815.3,13.4c-3.8,1-7.2,3.1-9.8,6c-1.1,1.3-2,2.7-2.8,4.2c-0.3,2.2-0.2,4.4,0.1,6.6
				c10.5-8.9,24.1-13.3,37.8-12.1c-1.7-1-3.5-1.9-5.4-2.7C831.6,13.9,823.9,10.7,815.3,13.4z"/>
			<path class="st13" d="M855.7,21.2c-0.1-6.6,2.2-10.1,3.2-11.3c8.5-10.7,26.4-13.3,45.6,3.3l70.5,59.4c5,4.2,7.9,10.7,6.5,17.1
				c-3.6,16.8-19.2,27.9-28.4,27.2"/>
			<path class="st17" d="M952.7,119.8c5.6,1.5,13.6-1.3,20.6-7.6c9.3-8.4,13.1-19.9,8.5-25.8"/>
			<path class="st16" d="M966.2,92l-3.1-3.3l-75.5-63.3c-0.8-0.7-16.3-12.8-31-6.4c-4.8,2.1,21.5,11.8,24.5,17.9
				c8.5,8.3,8.2,11.5,17.7,15.6l3.5,6.7l35.6,32.1c2.7,0.1,9.5,0.5,10.6,5.2c2.6,0.1,9.3-3.1,7.9,1.8c-0.5,3.3-0.4,11.8-3.2,18.5
				C967.7,116.5,975.1,104.6,966.2,92z"/>
			<path class="st13" d="M802.8,30c-2.6-11.9,6.6-22.9,18.8-24.1c12.7-1.2,24.8,7.1,33.7,15.2"/>
		</g>
		<g id="Body">
			<g id="Layer_9">
				<path class="st18" d="M948,96.5c1.2,0,2.4-0.1,3.6-0.4c1.3-0.4,2.5-1,4.1-0.6c0.2,0.1,0.4,0.1,0.7,0.2c-0.4,14.5-4.6,28.6-12,41
					c-3.4,5.6-7.5,10.7-12.1,15.3c-87.5-25.9-56.2-70.4-75.6-106.1c-5.4-10-13-14.4-19.9-17.1c-2.1-0.8-13.1-5.2-24.3-1.7
					c-3.9,1.2-12,4.7-12,4.7c6.5-4.8,13.6-8.7,21.2-11.5c21.4-7.6,45.4,4.6,53.6,11.3c4,3.2,7.7,6.9,11,10.8c2.4,3.1,3,4.3,5.4,7.2
					c3.1,3.6,6.6,6.7,10.5,9.4c9.9,7.4,18.3,16.1,25,22.9c0.5,0.5,3.7,3.3,10.1,8.9C940.1,93.1,944.2,96.7,948,96.5z"/>
				<path class="st19" d="M932.2,151.6c5.7-5.6,10.5-11.9,14.3-18.9c-7.4,6.1-15.5,11.2-24.1,15.4L932.2,151.6z"/>
			</g>
			<path class="st13" d="M902,58.9c11.9,10.8,23.9,21.5,35.8,32.3"/>
			<path class="st13" d="M800.7,32c6.1-5.4,13.2-9.5,20.9-12c22.4-6.9,41.5,4.1,47.2,7.4c9.4,5.5,17.3,13.1,23.2,22.2"/>
			<path class="st13" d="M948.1,96.4c0.6,0,1.2,0,1.8-0.1l4.9-0.9c0.7-0.1,1.4,0.3,1.5,1.1c0,0.1,0,0.2,0,0.2c0,2.8-0.2,5.7-0.6,8.5
				c-2.7,17.7-10.9,34.1-23.5,46.8"/>
			<g id="Layer_25">
				<path class="st13" d="M824.3,142c2.2,2,4.5,3.9,6.9,5.7c9.9,7.5,44.7,33.9,81,18.1c7.5-3.3,14.3-8,20.1-13.8
					c-18.5-4.5-31.8-11.6-41.6-19.9"/>
				<path class="st13" d="M865.7,84.6c-1.2-7.2-1.9-13.8-2.4-19c-1.9-17.8-13.3-32.7-28.7-37.7c-11.1-3.6-23.4-1.9-33.9,4.2
					c-3.5,3.1-6.4,6.8-8.7,10.8c-13.3,23.6-2.1,59.1,19.4,85.5"/>
			</g>
		</g>
		<g id="Morral">
			<path class="st20" d="M891.9,49.7c-7.6-1-24.9,14.8-26.4,33.9c-1.6,19.7,13.5,41.3,34.6,45.5c18.7,3.8,39.1-7,45.8-22
				c5.9-13.5-1.3-15.1-1.3-15.1l-6.8-0.9c-2,11.6-11.1,20.8-22.8,22.8c-12.4,2.1-24.2-4.5-29.1-14.1c-6.8-13.2-0.8-32.4,16.1-41
				c-0.5-2.5-1.9-4.9-3.8-6.6C896.4,50.9,894.2,50,891.9,49.7z"/>
			<path class="st20" d="M791.6,94.3c-0.7,1.4-5.5,11.3-0.7,22.5c3.1,7.1,9.1,12.5,16.5,15l3.9-3.5
				C803,118.1,796.3,106.6,791.6,94.3L791.6,94.3z"/>
			<path class="st13" d="M868.4,102.1c-2.7-7.1-3.5-14.8-2.2-22.3c2.2-13.2,10.1-21.9,16.4-27c4.4-3.5,11.2-4.7,15.5-1
				c1.8,1.5,3.9,6.9,3.9,6.9c-16.3,9.9-21.4,23.7-17.6,37.1"/>
			<path class="st13" d="M921,112.5c7.8-3.8,14.1-11.3,16.8-21.3l6.8,0.9c4.5,1.9,4.5,8.4,2.4,12.8c-3.7,7.7-11.1,18.5-25.2,23.1
				c-7,2.4-14.5,2.8-21.8,1.2"/>
			<path class="st21" d="M908.4,123c-1.4,2.4-3.6,4.2-6.1,5.2c-0.7,0.3-1.5,0.6-2.3,0.9c0.1,0,0.1,0,0.2,0c18.7,3.8,39.1-7,45.8-22
				c0.4-0.8,0.7-1.6,1-2.4C939.3,116.2,923.7,124.1,908.4,123z"/>
			<path class="st21" d="M875.2,101.6c-4.6-7.4-6.8-16.1-6.3-24.8c0.3-3.8,1.2-7.5,2.6-11c-3.4,5.4-5.4,11.5-6,17.8
				c-0.4,6.1,0.6,12.2,2.9,17.9C870.7,101.7,873.1,102.1,875.2,101.6z"/>
			<path class="st21" d="M808.9,126.5c-7.4-2.5-13.4-7.9-16.5-15c-2-4.8-2.6-10-1.7-15.1c-5.5,13.7,1.2,29.2,14.9,34.7
				c0.6,0.2,1.2,0.5,1.8,0.7l3.9-3.5c-0.6-0.7-1.2-1.5-1.9-2.3L808.9,126.5z"/>
			<path class="st22" d="M790.8,92.2c4.7,13.1,11.6,25.4,20.5,36.1"/>
		</g>
		<g id="Brazos">
			<g id="Layer_10">
				<path class="st18" d="M856,104.4c2.8-2.6,6.1-1.6,11.8-2.2c4.9-0.6,9.5-2.1,13.8-4.4c3.7-2.2,6.9-5.2,9.4-8.8
					c0,0,19.1-16.2,34.1,3.2c0.9,4,0.8,8.1-0.1,12.1c-2,8.1-7.2,12.9-11.1,16.4c-6.6,5.9-14.6,9.8-23.3,11.4
					c-4,0.7-11.6,1.9-19.9-1.3c-1.8-0.7-3.5-1.5-5.1-2.5c-6.3-4-13.7-12.2-11.8-19.6C854,107.1,854.9,105.6,856,104.4z"/>
				<path class="st18" d="M789,106.4c-1.8,4.4-3,9.1-3.5,13.9c-0.6,3.5-0.6,7,0,10.4c0.4,2.3,2.7,12,11.6,16.7
					c9,4.7,21,2.2,27.5-5.6c3.6-4.4,5.4-10,5.2-15.6c-0.1-2.1-0.8-4-2.2-5.6c-1-1.3-2.5-2.2-4.2-2.4c-1.8-0.1-2.8,0.9-8.3,6.2
					c-2.3,2.2-4.7,4.4-7,6.7l0,0c-2-0.5-10.8-3.2-15.9-12C790.2,115.3,789,110.9,789,106.4z"/>
				<path class="st19" d="M785.5,130.7c0,0,18.5,27.1,44.4-2.6c-1,9.6-7.1,17.7-15.5,20.4c-8.9,2.9-16.5-1.3-17.8-2
					C787.7,141.4,785.8,132.1,785.5,130.7z"/>
			</g>
			<path class="st8" d="M789,105.8c-1,2.2-1.8,4.6-2.5,7c-2,7.8-2.1,15-0.4,20.6c2.9,9.9,9.5,15.7,20.4,16.3
				c6.2,0.4,12.6-2.6,17.8-7.7c3.7-3.5,9.4-16.2,2.4-22.5c-5.3-4.8-10,4.8-20.5,13.3"/>
			<g id="Layer_4">
				<path class="st8" d="M891.3,88.6c-2.4,3.9-6,7.3-12.5,10.9c-10.3,5.6-20.2-0.6-24.5,7.1c-2.6,4.7-0.5,11.6,6.5,18.1
					c22.8,21.4,70.6-3.3,64.3-32.5"/>
			</g>
			<g id="Layer_6">
				<path class="st13" d="M791.6,94.3c-0.7,1.5-5.3,11.9-0.3,22.9c3.3,6.9,9.3,12,16.5,14.3"/>
			</g>
		</g>
		<g id="Ojos">
			<circle class="st23" cx="839.3" cy="61.6" r="18.2"/>
			
				<ellipse transform="matrix(1 -1.119999e-03 1.119999e-03 1 -6.790775e-02 0.8884)" class="st23" cx="793.2" cy="61.1" rx="14.2" ry="17.1"/>
			<g id="Layer_19">
				<circle class="st6" cx="835.6" cy="63.7" r="10"/>
				<ellipse transform="matrix(0.9948 -0.1022 0.1022 0.9948 -2.434 81.1889)" class="st6" cx="791" cy="64.3" rx="7.2" ry="9.5"/>
			</g>
		</g>
		<g id="Nariz">
			<path class="st18" d="M815,69.4c0,0-14.5,2.6-26.9-4.6c0,0,3.4,15.1,22.5,19c1.4-0.3,2.6-0.9,3.7-1.9c2.5-2.3,3.4-5.9,2.3-9.1
				C816.3,71.6,815.7,70.4,815,69.4z"/>
			<path class="st19" d="M816.7,73.3c-0.3,1.8-1.2,3.4-2.6,4.7c-1,0.9-2.3,1.6-3.7,1.9c-11.9-2.5-17.7-9.2-20.4-14
				c-0.7-0.3-1.3-0.7-2-1c0,0,3.4,15.1,22.5,19c1.4-0.3,2.6-0.9,3.7-1.9C816.7,79.8,817.6,76.4,816.7,73.3z"/>
			<path class="st17" d="M811.5,83.9c-0.1,0-0.2,0.1-0.4,0.1c-10.1-1.3-18.7-8-22.5-17.5c-0.1-0.4,0-0.8,0.4-0.9
				c0.2-0.1,0.4-0.1,0.6,0c7.8,3.7,16.5,5.1,25,3.9c0.2,0,0.5,0.1,0.6,0.3c3.1,4,2.4,9.8-1.7,12.9C812.9,83.1,812.2,83.6,811.5,83.9
				z"/>
		</g>
	</g>
	<g id="Nido">
		<path class="st12" d="M121.3,89.3c0,0,7-0.6,11,0.8c4,1.4,61.6-0.4,76.3,5.5c0,0,20.5-11.2,41.9,6l-7.9,5.1c0,0,29.6,13.1,24,46.7
			l-6.8-6.4c0,0,1.2,16.1-10.1,25.9l-1.7-8.1c0,0-30.9,10.1-67.4-6l3.3,13.2c0,0-25.7-3.5-38.8-16.6l-10.8,2.8
			c-2.7,0.2-5.4,0.7-8,1.5c-5.6,1.7-8.4,4-11.7,5.9c-8.7,5.1-22.7,8.1-31.6,4c-2.4-1.2-5-2.1-7.6-2.6c-2.8-0.5-5.7-0.6-8.6-0.1
			c-4.7,0.6-18.1-2-51.9-13.4l9.6-1.9c0,0-15.1-8.5-20.6-20.4c2,0.1,4-0.3,5.8-1.1c1.2-0.6,2.3-1.3,3.3-2.2c0,0-7.2-6.5-10.7-7.3
			c1.8-1.9,3.6-3.9,5.2-6c3.4-4.5,4.2-6.8,6.7-10.1c2.4-3.1,5.2-5.7,8.4-7.9L8.1,96.6c4.4-10.4,13.7-17.4,23.8-17.9
			c6.3-0.2,12.4,1.9,17.3,5.8L121.3,89.3z"/>
		<g>
			<path class="st24" d="M13.3,127.7c1.7-0.8,0,0.6,0.9-0.2c0,0-4.1-8.4-8.4-10.5c-2.1,2.9-1.9,3.2-3.2,4.6c2.3,0.6,6,3.3,8.7,5.7
				C12.4,127,12.1,128.3,13.3,127.7z"/>
			<path class="st24" d="M26.9,94.2l-15.3-2.9c-1.3,1.8-2.4,3.8-3.2,5.8l11.2-0.3C21.2,95,23.8,95.3,26.9,94.2z"/>
			<path class="st24" d="M249,102.6l1.5-1c-0.9-0.7-1.8-1.4-2.7-2l-2,1.3C246.9,101.4,248,102,249,102.6z"/>
			<path class="st24" d="M252.9,167l-1.7-8.1c0,0-30.9,10.1-67.4-6l2,7.9c34.2,13,62.2,3.9,62.2,3.9l1.7,8.1
				c3.3-2.9,5.9-6.5,7.5-10.6C256,164,254.5,165.6,252.9,167z"/>
			<path class="st24" d="M148.4,149.5c-1.9,0.1-18.4,4.3-21.6,5.2c-1.4,0.4-2.8,1-4.1,1.8c-2.5,1.6-4.3,2.8-4.7,3.2
				c-6.5,5.3-28.9,6.2-29.1,6.2l0,0l3-3.2l0,0c-4.4-0.6-8.8-1-13.1-1.7c-2.5-0.4-5.1-0.5-7.7-0.3c-0.4,0-0.7,0.1-0.9,0.1
				c-4.6,0.6-17.8-2-50.8-13.1c1.7,1.3,3.6,2.5,5.4,3.6l-9.6,1.9C49,164.7,62.4,167.4,67,166.7c2.8-0.4,5.7-0.4,8.6,0.1
				c2.7,0.5,5.2,1.4,7.6,2.6c8.8,4.1,22.9,1,31.6-4c3.3-1.9,6-4.2,11.7-5.9c2.6-0.8,5.3-1.3,8-1.5l10.8-2.8
				c13,13.1,38.8,16.6,38.8,16.6l-1.7-6.7C174.2,163.5,157.9,159,148.4,149.5z"/>
			<path class="st24" d="M27.9,145.5c0,0-11.3-6.3-17.9-15.7c0,0-0.1,0-0.1,0c-1.8,0.8-3.8,1.2-5.8,1.1c3.2,7,9.7,12.8,14.6,16.4
				L27.9,145.5z"/>
		</g>
		<path class="st8" d="M198.5,93.4c0.8,0.1,1.6,0.2,2.4,0.4c2.6,0.5,5.2,1.1,7.7,1.8c14-6.2,30.2-3.9,41.9,6
			c-2.6,1.7-5.2,3.4-7.9,5.1c3.1,1.5,16.8,8.6,22.4,24.6c2.5,7.1,3,14.7,1.6,22.1c-2.3-2-4.6-4.1-6.9-6.1c0.5,9.6-3.2,18.9-10,25.5
			l-1.7-8c-8.3,2.1-16.9,3.1-25.4,3.1c-14.4-0.1-28.7-3.2-41.8-9.1l3.3,13.2c-14.2-2-27.6-7.6-38.9-16.4c-6.6,1.7-12.8,3-18.7,4
			c-14,8.8-30.6,12.5-47,10.5l5.3-4.3c-29.8,5.7-69.6-12.6-69.6-12.6l9.1-1.8C7.1,139.7,4.2,131,4.2,131c6.9-0.5,9.1-3,9.1-3
			l-11.1-7.5c7.5-5.4,9.9-17.5,20.8-24.2c0.8-0.5-14.9,0.4-14.9,0.4S16,79.5,32.8,78.9c8.4-0.3,15.3,3.7,16.5,5.7"/>
		<path class="st8" d="M121.3,89.3c2.2-0.1,4.4,0,6.7,0.2c1.6,0.2,3.1,0.4,4.4,0.6"/>
	</g>
	<g id="Huevos">
		<path class="st6" d="M42.9,103.9c0.5-5.5,2.6-11.4,7.7-22.1c2.8-5.8,6.8-11,11.8-15.3c3.8-3.4,7-6.2,12.2-7.8
			c2.7-0.7,5.4-1.1,8.2-1.1c10.2,0.2,26.1,11.9,36.5,28.2c9.1,14.5,13.3,31.6,11.9,48.7c-11.3-3.2-20.5-6.1-27.2-8.3
			c-14.3-4.7-17-6.2-19.2-7.5c-2.2-1.4-6.3-4.1-19.2-17.7c-5.5-5.8-6-9.4-9.2-13c0,0-8,5.4-7.1,17.1L42.9,103.9z"/>
		<path class="st6" d="M125.8,98.5c0,0,23.5-33.6,48.9-29.4c0,0,23.4,2.7,29.4,48l-42.9,18.5c0,0-6.3,5.9-30.1-1
			c0.3-3.6,0.4-7.2,0.2-10.8C130.7,115.2,128.9,106.6,125.8,98.5z"/>
		<path class="st25" d="M145.2,118.6c-5.5-17.7-4.3-30.1-1.3-38.9c-6.8,5.5-12.9,11.8-18,18.9c3.1,8.1,5,16.7,5.4,25.4
			c0.2,3.6,0.1,7.2-0.2,10.8c15.7,4.6,23.8,3.5,27.5,2.3C152.8,132.3,147.6,126.4,145.2,118.6z"/>
		<path class="st25" d="M77.5,97.1C71.6,85.9,69,73.3,70,60.7c-2.8,1.7-5.3,3.6-7.7,5.8c-4.9,4.2-9,9.4-11.8,15.3
			c-5.1,10.7-7.1,16.6-7.7,22.1l6.2,1.3c-0.9-11.7,7.1-17.1,7.1-17.1c3.1,3.6,3.7,7.2,9.2,13c13,13.6,17,16.3,19.2,17.7
			c2.2,1.3,5,2.8,19.2,7.5c6.7,2.2,15.9,5.1,27.2,8.3c0-0.4,0.1-0.9,0.1-1.4C108.2,130.2,88,116.9,77.5,97.1z"/>
		<path class="st8" d="M131,134.6c0.5-6.8,0.3-13.7-0.8-20.5c-4.4-29.4-32.4-60-53-56.3c-15.5,2.8-29.8,23.4-34.3,46"/>
		<path class="st8" d="M204.1,117.1c-1.9-22.5-12.9-44.1-27.7-47.7c-15.5-3.8-37.5,9.7-50.6,29"/>
		<path class="st8" d="M39.7,103.2c3.1,0.7,6.3,1.3,9.4,2c-0.2-6.5,2.4-12.7,7.1-17.1c7.4,7.9,10.7,14.6,18.1,22.5
			c4.1,4.4,9.1,7.8,14.7,10.1c6.8,2.8,14.1,5.4,21.8,8c10.8,3.5,21,6.3,30.6,8.4c6.6,1.5,13.5,1,19.7-1.5c7.2-2.8,14.5-5.9,22-9.1
			c11.3-4.9,22-9.8,32.2-14.8c0.6,2.1,0.8,4.2,0.8,6.3c-0.1,3.6-1.1,7-2.8,10.2"/>
	</g>
</g>
</svg>
