<svg xmlns="http://www.w3.org/2000/svg" xmlns:xlink="http://www.w3.org/1999/xlink" viewBox="0 0 1008.43958 183.38915">
  <defs>
    <style>
      .cls-1, .cls-10, .cls-12, .cls-14, .cls-17, .cls-22, .cls-7 {
        fill: none;
      }

      .cls-2 {
        isolation: isolate;
      }

      .cls-3 {
        fill: url(#linear-gradient);
      }

      .cls-4 {
        clip-path: url(#clip-path);
      }

      .cls-5, .cls-6 {
        fill: #fff;
      }

      .cls-5 {
        opacity: 0.49;
        mix-blend-mode: overlay;
      }

      .cls-10, .cls-12, .cls-17, .cls-7 {
        stroke: #1a1a3a;
      }

      .cls-12, .cls-7 {
        stroke-linecap: round;
      }

      .cls-7 {
        stroke-linejoin: round;
        stroke-width: 8px;
      }

      .cls-8 {
        fill: #9fb8d3;
        opacity: 0.21;
      }

      .cls-16, .cls-21, .cls-8 {
        mix-blend-mode: darken;
      }

      .cls-9 {
        fill: #f29657;
      }

      .cls-10, .cls-12, .cls-14, .cls-17, .cls-22 {
        stroke-miterlimit: 10;
      }

      .cls-10, .cls-12, .cls-22 {
        stroke-width: 2.5px;
      }

      .cls-11 {
        fill: #f7ca61;
      }

      .cls-13 {
        fill: #fbf089;
      }

      .cls-14 {
        stroke: #9266ff;
        stroke-width: 4px;
      }

      .cls-15 {
        fill: #dadcef;
      }

      .cls-16 {
        fill: #545489;
        opacity: 0.28;
      }

      .cls-17 {
        stroke-width: 2px;
      }

      .cls-18 {
        fill: #ec3e3f;
      }

      .cls-19 {
        fill: #c63158;
      }

      .cls-20 {
        fill: #958cf4;
      }

      .cls-21 {
        fill: #6767d3;
        opacity: 0.39822;
      }

      .cls-22 {
        stroke: #0b0e00;
      }

      .cls-23 {
        fill: #1a1a3a;
      }

      .cls-24 {
        fill: #d67d41;
      }

      .cls-25 {
        opacity: 0.16;
      }
    </style>
    <linearGradient id="linear-gradient" x1="517.05152" y1="-64.73076" x2="484.95372" y2="264.69407" gradientUnits="userSpaceOnUse">
      <stop offset="0" stop-color="#ece8f2"/>
      <stop offset="0.02497" stop-color="#d9d4e4"/>
      <stop offset="0.08093" stop-color="#b3abc9"/>
      <stop offset="0.14234" stop-color="#9188b1"/>
      <stop offset="0.20863" stop-color="#756a9d"/>
      <stop offset="0.28137" stop-color="#5e528d"/>
      <stop offset="0.3632" stop-color="#4d3f80"/>
      <stop offset="0.45936" stop-color="#403278"/>
      <stop offset="0.58328" stop-color="#392a72"/>
      <stop offset="0.83411" stop-color="#372871"/>
    </linearGradient>
    <clipPath id="clip-path">
      <rect class="cls-1" x="38.45316" y="18.44981" width="928.40935" height="129.08835" rx="22.48675"/>
    </clipPath>
  </defs>
  <g class="cls-2">
    <g id="Fondo">
      <g id="Layer_17" data-name="Layer 17">
        <rect class="cls-3" x="38.45316" y="18.44981" width="928.40935" height="129.08835" rx="22.48675"/>
      </g>
      <g id="Layer_22" data-name="Layer 22">
        <g class="cls-4">
          <path class="cls-5" d="M802.10665,172.13454c8.91665,9.49575,16.92188-13.42809,27.32768-21.26373,18.34866-13.81666,42.41393-16.76309,65.24881-19.2406,15.37518-1.66831,32.27127-2.97642,44.97006,5.85119,8.15444,5.66837,17.92173,15.49611,25.833,9.493,5.14283-3.90276,4.96745-12.53845,10.44157-15.96068,7.33537-4.58608,15.63465,4.15063,19.88438,11.68546q10.931,19.38063,21.862,38.76129c3.21815,5.70563,8.57837,12.33417,14.81752,10.339,5.85211-1.87109,6.80187-9.62267,6.67526-15.76532-.35207-17.11006-14.29093-48.75617-1.05627-51.33042,13.23443-2.5742,20.11752,22.50456,33.98528,19.02535,16.78477-4.21141-5.74885-48.21552,7.2135-50.7368s6.93353,35.64653,23.13641,32.49494,15.606-35.24918,35.55382-50.63691c3.97257-3.06439,44.033-17.83958,46.08736-22.41712,6.62465-14.76157-31.98507-28.63118-46.90192-34.89824-26.49531-11.13112-57.87168-21.62347-82.673-7.1047-13.85789,8.11244-23.13261,22.973-37.74928,29.62242C983.41476,55.223,941.93348,20.74347,909.33876,37.47141c-6.93057,3.55671-12.64323,9.17021-19.58494,12.70433-24.81165,12.632-55.58518-4.65158-82.40022,2.84059-13.31685,3.72045-24.23384,13.19815-36.94161,18.64714-30.43116,13.04877-65.73557,1.42269-98.39829,6.851-52.4842,8.722-71.45984,57.05-147.01237,56.88142-20.67236-.04613-40.85047-11.34866-61.18351-7.61832-16.82838,3.08743-30.53255,15.03631-46.33983,21.58212-46.0836,19.083-101.0697-10.11834-147.88965,7.07934-17.89287,7.48594-53.23145,23.97352-69.06484,35.17607-19.15823,13.55445-48.11186,37.9451-29.70288,46.13548,7.091,3.15484,37.41544-2.35509,45.09131-3.50471,14.34318-2.14835,39.71314-8.12319,54.05656-10.27159,5.18078-.77585,10.70937-1.50707,15.46567.68832,14.26357,6.58321,13.87077,34.72536,29.52417,33.3996,15.38124-1.30283,11.83087-29.25874,25.94565-35.50786,14.29068-6.32711,29.50978,31.15247,45.10359,32.19627,11.5141.7709,5.08338-43.02848,22.90664-46.49525,17.823-3.46672,20.15908,21.00937,31.049,18.89119s10.8191-24.19045,29.532-27.31154c27.93874-4.65949,75.74043-6.67381,103.92627-3.87179,24.15041,2.40071,51.21711,9.55686,70.73617-4.86586,8.96232-6.62249,14.66408-16.921,23.60671-23.57022,9.55922-7.10774,32.9455,3.88706,44.68509,1.86722"/>
          <path class="cls-5" d="M279.4698,179.25686c-17.89287,7.486-53.23144,23.97352-69.06484,35.17607-19.15823,13.55446-48.11186,37.94511-29.70287,46.13549,7.091,3.15484,37.41543-2.35509,45.09131-3.50472,14.34317-2.14835,39.71314-8.12318,54.05656-10.27158,5.18077-.77586,10.70937-1.50707,15.46566.68832,14.26357,6.5832,13.87078,34.72535,29.52418,33.3996,15.38124-1.30283,11.83086-29.25875,25.94564-35.50787,14.29069-6.3271,29.50978,31.15248,45.1036,32.19628,11.5141.7709,5.08337-43.02848,22.90664-46.49525,17.823-3.46672,20.15907,21.00936,31.049,18.89119s10.81911-24.19045,29.532-27.31154c27.93874-4.65949,75.74044-6.67382,103.92628-3.8718,24.15041,2.40071,51.2171,9.55686,70.73617-4.86585,8.96232-6.62249,14.66407-16.92105,23.6067-23.57022,9.55922-7.10775,32.9455,3.88705,44.6851,1.86722,20.573-3.53967,29.98058-20.29389,50.55357-23.83356,9.27261-1.59526,20.5243-2.491,26.36208,4.88771,2.41674,3.05512,10.07514,18.84633,12.74161,21.68606,8.91664,9.49574,16.92188-13.42809,27.32767-21.26373,18.34867-13.81667,42.41394-16.76309,65.24882-19.2406,15.37518-1.66831,32.27127-2.97642,44.97006,5.85119,8.15443,5.66837,17.92172,15.49611,25.833,9.493,5.14283-3.90276,4.96746-12.53845,10.44157-15.96068,7.33538-4.58608,15.63466,4.15063,19.88438,11.68545q10.93105,19.38065,21.862,38.76129c3.21816,5.70564,8.57838,12.33418,14.81752,10.339,5.85211-1.87108,6.80187-9.62267,6.67526-15.76532-.35207-17.11-14.29093-48.75616-1.05626-51.33041,13.23442-2.5742,20.11751,22.50456,33.98527,19.02535,16.78478-4.21141-5.74885-48.21552,7.2135-50.7368s6.93354,35.64653,23.13642,32.49494,15.60595-35.24918,35.55381-50.63692c3.97258-3.06438,44.033-17.83957,46.08736-22.41712,6.62465-14.76156-31.98506-28.63118-46.90192-34.89824-26.49531-11.13112-57.87167-21.62346-82.673-7.10469-13.85789,8.11244-23.13262,22.973-37.74928,29.62242-33.34813,15.17028-74.82942-19.30921-107.42414-2.58127-6.93056,3.5567-12.64323,9.17021-19.58494,12.70432-24.81164,12.632-55.58517-4.65157-82.40022,2.8406-13.31684,3.72045-24.23383,13.19815-36.9416,18.64713-30.43117,13.04878-65.73557,1.42269-98.39829,6.851-52.4842,8.722-57.25279,41.82091-135.80795,51.10605-20.5295,2.42657-39.05557-8.08225-72.38794-1.84294-16.81717,3.14792-30.53254,15.0363-46.33983,21.58212C381.27585,191.26055,326.28975,162.05919,279.4698,179.25686Z"/>
        </g>
      </g>
      <g id="Layer_20" data-name="Layer 20">
        <path class="cls-6" d="M370.76619,147.85822c.0007-.06356.00483-.12635.00483-.19015a16.35084,16.35084,0,0,0-26.58853-12.7527,22.58991,22.58991,0,0,0-22.92736-12.42244,15.85328,15.85328,0,0,0-20.88013-7.85118,26.32448,26.32448,0,0,0-49.39343,16.75658,16.75548,16.75548,0,0,0-13.63931,16.45989Z"/>
        <path class="cls-6" d="M236.19906,73.785a13.15014,13.15014,0,0,0-18.55694-16.76655,18.42606,18.42606,0,0,0-23.34147-14.845,24.15932,24.15932,0,0,0-46.47338,1.81376,6.98614,6.98614,0,0,0-8.38474,8.57581,15.9725,15.9725,0,0,0-12.12789,8.13081c-.41342-.03911-.83182-.0611-1.25554-.0611A13.15224,13.15224,0,0,0,112.90683,73.785Z"/>
        <path class="cls-6" d="M827.93344,122.10418a13.15014,13.15014,0,0,0-18.55694-16.76655,18.42606,18.42606,0,0,0-23.34147-14.845,24.15931,24.15931,0,0,0-46.47337,1.81376,6.98614,6.98614,0,0,0-8.38475,8.57581A15.97251,15.97251,0,0,0,719.049,109.013c-.41342-.03911-.83182-.0611-1.25554-.0611a13.15224,13.15224,0,0,0-13.15227,13.15226Z"/>
      </g>
      <g id="Layer_23" data-name="Layer 23">
        <g>
          <path class="cls-7" d="M382.39273,53.09409H402.467l22.82324,24.60742V53.09409h21.26465v55.74512H427.48941L403.65836,83.11655v25.72266H382.39273Z"/>
          <path class="cls-7" d="M454.71207,53.09409h54.7207v15.29H475.7941v5.6543h31.34766v13.458H475.7941v6.05273h34.09766v15.29H454.71207Z"/>
          <path class="cls-7" d="M511.174,100.47788l11.457-11.86621a40.56516,40.56516,0,0,0,22.45606,6.53027c3.85059,0,5.5-.876,5.5-2.38867v-.16015c0-1.5918-2.0166-2.46875-8.89063-3.66309-14.39062-2.54785-27.04-6.13184-27.04-17.918v-.15918c0-10.5918,9.5332-18.79394,27.22265-18.79394,12.374,0,21.54,2.54882,28.96485,7.6455l-10.44922,12.582a37.21291,37.21291,0,0,0-19.248-5.49511c-3.209,0-4.6748.95605-4.6748,2.30957v.15918c0,1.51367,1.74121,2.46875,8.52441,3.584C561.4025,75.472,572.4025,79.61265,572.4025,90.84116v.16016c0,11.706-11.09082,18.873-28.32324,18.873C531.06363,109.87437,519.33121,106.68882,511.174,100.47788Z"/>
          <path class="cls-7" d="M592.29117,68.86167H573.40934V53.09409h59.21191V68.86167H613.73941v39.97754H592.29117Z"/>
        </g>
        <g>
          <path class="cls-6" d="M382.39273,53.09409H402.467l22.82324,24.60742V53.09409h21.26465v55.74512H427.48941L403.65836,83.11655v25.72266H382.39273Z"/>
          <path class="cls-6" d="M454.71207,53.09409h54.7207v15.29H475.7941v5.6543h31.34766v13.458H475.7941v6.05273h34.09766v15.29H454.71207Z"/>
          <path class="cls-6" d="M511.174,100.47788l11.457-11.86621a40.56516,40.56516,0,0,0,22.45606,6.53027c3.85059,0,5.5-.876,5.5-2.38867v-.16015c0-1.5918-2.0166-2.46875-8.89063-3.66309-14.39062-2.54785-27.04-6.13184-27.04-17.918v-.15918c0-10.5918,9.5332-18.79394,27.22265-18.79394,12.374,0,21.54,2.54882,28.96485,7.6455l-10.44922,12.582a37.21291,37.21291,0,0,0-19.248-5.49511c-3.209,0-4.6748.95605-4.6748,2.30957v.15918c0,1.51367,1.74121,2.46875,8.52441,3.584C561.4025,75.472,572.4025,79.61265,572.4025,90.84116v.16016c0,11.706-11.09082,18.873-28.32324,18.873C531.06363,109.87437,519.33121,106.68882,511.174,100.47788Z"/>
          <path class="cls-6" d="M592.29117,68.86167H573.40934V53.09409h59.21191V68.86167H613.73941v39.97754H592.29117Z"/>
        </g>
      </g>
    </g>
    <g id="Pinguino">
      <g id="Fondo-2" data-name="Fondo">
        <path class="cls-6" d="M801.2343,31.52567c-4.68577,2.91916-9.17977,9.93574-12.50349,18.52856-13.02013,33.66053,16.48386,70.79164,21.85623,77.55289a116.46339,116.46339,0,0,0,24.57425,23.0225c2.99875,2.31149,41.12552,30.82287,76.90044,15.42911a58.49894,58.49894,0,0,0,19.825-14.18834s-21.08512-2.96258-41.20386-19.85725c-18.87032-15.84633-25.70278-47.324-28.42536-69.89434q-.27019-2.23992-.48872-4.35576C859.40885,35.07058,826.57787,15.73678,801.2343,31.52567Z"/>
        <path class="cls-8" d="M931.14583,152.60135c-18.48422,17.5475-53.71778,34.0338-106.37468-10.68988a11.92061,11.92061,0,0,0,2.399-3.27868c18.788,12.05129,52.67175,28.42,92.88507,10.539Z"/>
      </g>
      <g id="Patas">
        <g id="Layer_13" data-name="Layer 13">
          <path class="cls-9" d="M926.82919,156.79815l6.52462,9.92605,1.762.64705,2.095-1.07911,1.09545-7.63974,7.3727,4.07111,2.1267-.11581s3.61644,1.36116,1.72783-14.01416l4.43881,1.42027s2.90966.0476,2.14214-3.77556-7.42769-13.449-9.5544-13.55236C946.5601,132.68589,937.61782,149.3508,926.82919,156.79815Z"/>
          <path class="cls-9" d="M910.7977,166.316h0l1.70977,9.04571-.81739,1.68979q-1.07566.21054-2.15127.42113-3.10093-2.2368-6.20193-4.47361-1.40622,3.73695-2.81237,7.47383a3.47121,3.47121,0,0,1-1.67982,1.46642,3.8639,3.8639,0,0,1-1.30153.2184c-1.69808-.02519-2.93-1.26751-3.88573-2.27614a82.24016,82.24016,0,0,1-5.384-6.3136q-1.1025,2.05295-2.20492,4.1059s-2.0592,2.05621-4.16406-1.22634a21.79645,21.79645,0,0,1-2.11533-6.21751h0S892.81393,173.07754,910.7977,166.316Z"/>
        </g>
        <path class="cls-10" d="M926.82919,156.79815q3.02492,4.68616,6.04989,9.37229a2.61509,2.61509,0,0,0,4.7715-.93935l.01209-.069a44.11152,44.11152,0,0,0,.64365-6.50974,49.46159,49.46159,0,0,1,6.55794,3.705,3.26119,3.26119,0,0,0,4.97471-2.52886c.08749-1.16466.15309-2.28415.18124-3.142a45.82109,45.82109,0,0,0-.4429-8.02723l3.63833,1.09808a2.24427,2.24427,0,0,0,2.827-2.70122,26.3529,26.3529,0,0,0-9.48257-14.37032"/>
        <path class="cls-10" d="M910.98481,166.32161q.79278,4.00307,1.58542,8.00619a2.61507,2.61507,0,0,1-4.08282,2.64193l-.05663-.04114a44.105,44.105,0,0,1-4.98828-4.23179,59.51,59.51,0,0,0-2.404,6.555c-1.13532,3.33712-4.22653,3.82877-6.833,1.22811-.82678-.82493-4.46884-5.27233-5.81186-7.1305q-.92589,1.6594-1.85185,3.31874a2.24423,2.24423,0,0,1-3.90995.02372,26.66416,26.66416,0,0,1-2.60928-6.41365"/>
      </g>
      <g id="Fuego">
        <path class="cls-11" d="M1005.48747,134.77187c-17.91144.29975-8.02154-14.98191-2.49892-6.77284,0,0,3.9525-9.48193-4.62517-11.36231-6.68915-1.46643-2.44746-10.07285,1.81252-4.79983,0,0-1.22637-10.56444-8.24537-17.21094-9.20156-8.71322-22.51563-7.1726-31.22872,2.02881-8.71322,9.20156-9.5261,22.57964-.32453,31.29287,4.87878,4.61986,10.57467,6.0689,19.73651,7.02194-4.34879-5.04727,3.08807-9.85652,5.19749-2.58419,2.77362,9.56281,14.57568,8.3009,20.17619,2.38649Zm0,0"/>
        <path class="cls-12" d="M1005.48747,134.77187c-17.91144.29975-8.02154-14.98191-2.49892-6.77284,0,0,3.9525-9.48193-4.62517-11.36231-6.68915-1.46643-2.44746-10.07285,1.81252-4.79983,0,0-1.22637-10.56444-8.24537-17.21094-9.20156-8.71322-22.51563-7.1726-31.22872,2.02881-8.71322,9.20156-9.5261,22.57964-.32453,31.29287,4.87878,4.61986,10.57467,6.0689,19.73651,7.02194-4.34879-5.04727,3.08807-9.85652,5.19749-2.58419,2.77362,9.56281,14.57568,8.3009,20.17619,2.38649Zm0,0"/>
        <path class="cls-13" d="M989.9457,127.0224s6.79856-6.23417-1.32118-12.27377c-4.70433-3.499.91894-7.83584,2.79667-2.89363-.06766-18.64072-17.50957-20.23035-26.266-10.98318s-4.86832,25.1723,8.701,25.38583c-7.42838-3.36786-.251-10.95738,3.97485-5.626,3.54094,4.46709,5.99849,4.27809,8.43672,3.49558-3.49462-1.94151-.33353-5.66756,1.9261-3.16416,2.16083,2.39416,1.75182,6.05936,1.75182,6.05936Zm0,0"/>
      </g>
      <g id="Propulsores">
        <path class="cls-14" d="M953.57363,118.21213c13.64946.85678,29.14848-14.79037,28.23368-28.43915"/>
        <path class="cls-15" d="M870.35837,28.60359A71.77136,71.77136,0,0,1,891.93305,49.6672c2.99983-.55774,6.766,2.71652,6.766,2.71652l3.4572,6.6592,35.64025,32.1337s4.32528.54429,6.46647.81378,4.16065,4.40649,4.16065,4.40649q3.51658-.50462,7.03318-1.00928a1.31465,1.31465,0,0,1,.65126.32471c.69135.665.3339,2.06594.22618,2.51736-.91579,3.83743.38371,5.39306-1.80407,13.82417-.29952,1.15438-.75386,2.782-1.40526,4.71667a29.33647,29.33647,0,0,0,9.73339-2.45272c9.81522-4.39834,14.11991-13.00976,15.24842-15.26719a37.57737,37.57737,0,0,0,2.64982-7.16288,21.398,21.398,0,0,0,1.06153-7.11784,16.10626,16.10626,0,0,0-3.64352-8.97894l-3.11336-3.28585L899.51847,9.20662c-.81728-.65893-16.30636-12.77641-31.01981-6.43345A24.11278,24.11278,0,0,0,859.6278,9.491a15.25952,15.25952,0,0,0-3.93311,11.685,54.25383,54.25383,0,0,1,14.66368,7.42766Z"/>
        <path class="cls-15" d="M854.95235,21.031a63.06918,63.06918,0,0,0-8.82683-7.21474,46.57784,46.57784,0,0,0-8.94077-5.02477c-3.68682-1.49785-11.40857-4.635-20.01913-1.96212a20.52144,20.52144,0,0,0-9.77418,6.01281c-6.03789,6.89747-4.81838,15.80914-4.58307,17.34615a52.67622,52.67622,0,0,1,17.576-9.77791A54.90821,54.90821,0,0,1,854.95235,21.031Z"/>
        <path class="cls-16" d="M815.27677,13.399A20.52206,20.52206,0,0,0,805.5026,19.412a18.489,18.489,0,0,0-2.7649,4.20948,24.44276,24.44276,0,0,0,.07068,6.56689,51.93578,51.93578,0,0,1,37.84778-12.12085,38.13731,38.13731,0,0,0-5.36035-2.7063C831.609,13.86338,823.88736,10.72617,815.27677,13.399Z"/>
        <path class="cls-10" d="M855.69469,21.1759c-.11542-6.64974,2.22666-10.0665,3.22238-11.32293C867.39621-.84624,885.29293-3.4699,904.513,13.1064l70.54822,59.3987c4.97363,4.18757,7.85994,10.71754,6.51282,17.07814-3.56751,16.84432-19.17655,27.92708-28.4491,27.18728"/>
        <path class="cls-17" d="M952.731,119.84081c5.55188,1.45182,13.59534-1.267,20.552-7.55062,9.30005-8.40039,13.09986-19.9323,8.48719-25.75706"/>
        <path class="cls-16" d="M966.24918,91.97861l-3.11328-3.28589L887.59317,25.39426c-.81738-.65893-16.30639-12.77636-31.01977-6.43347-4.78055,2.0931,21.50224,11.79587,24.45015,17.85017,8.54024,8.32361,8.22487,11.52626,17.67648,15.57123l3.45625,6.66063,35.64026,32.13379c2.68514.14075,9.51813.54847,10.6272,5.22022,2.58168.08225,9.33845-3.06853,7.9107,1.8326-.52,3.32892-.44209,11.75221-3.20953,18.54105C967.7263,116.47453,975.10483,104.56114,966.24918,91.97861Z"/>
        <path class="cls-10" d="M802.81289,30.00987c-2.58744-11.91175,6.64724-22.903,18.78264-24.07249,12.71335-1.17016,24.78141,7.1003,33.705,15.21352"/>
      </g>
      <g id="Body">
        <g id="Layer_9" data-name="Layer 9">
          <path class="cls-18" d="M947.99986,96.45373a21.84726,21.84726,0,0,0,3.63373-.35669c1.32238-.37518,2.54314-1.02292,4.05736-.62362a3.99585,3.99585,0,0,1,.66124.23863,84.317,84.317,0,0,1-12.0362,40.9794,81.003,81.003,0,0,1-12.0773,15.266c-87.45136-25.91349-56.1797-70.36635-75.562-106.07046-5.44927-10.03808-13.00007-14.409-19.856-17.11952-2.101-.83061-13.11627-5.18551-24.347-1.69616-3.86292,1.20023-12.0409,4.66118-12.04252,4.662a88.42187,88.42187,0,0,1,21.209-11.53654C843.02957,12.6249,867.03555,24.8153,875.28965,31.46A78.10039,78.10039,0,0,1,886.26646,42.3088c2.43937,3.06848,2.96722,4.32507,5.43227,7.208a58.71154,58.71154,0,0,0,10.51855,9.43388c9.87362,7.446,18.31413,16.05334,24.99687,22.86815.47556.48492,3.69971,3.29811,10.148,8.92443C940.10669,93.138,944.2207,96.65615,947.99986,96.45373Z"/>
          <path class="cls-19" d="M932.21049,151.57165a80.71473,80.71473,0,0,0,14.34961-18.88576,122.29958,122.29958,0,0,1-24.13927,15.39766Z"/>
        </g>
        <path class="cls-10" d="M902.01006,58.91108q17.89325,16.13277,35.78648,32.26554"/>
        <path class="cls-10" d="M800.66109,32.03837A58.68138,58.68138,0,0,1,821.53137,20.034c22.40268-6.90943,41.51249,4.14355,47.19843,7.4323A69.01238,69.01238,0,0,1,891.933,49.66723"/>
        <path class="cls-10" d="M948.137,96.39477a8.29686,8.29686,0,0,0,1.7813-.136l4.88218-.90887a1.31254,1.31254,0,0,1,1.55276,1.28888,55.99811,55.99811,0,0,1-.61022,8.50941,84.1846,84.1846,0,0,1-23.49763,46.816"/>
        <g id="Layer_25" data-name="Layer 25">
          <path class="cls-10" d="M824.30886,141.99035q3.34316,2.99828,6.86009,5.66715c9.86681,7.47721,44.669,33.85087,81.00092,18.07567a66.43589,66.43589,0,0,0,20.06882-13.77577c-18.49065-4.52705-31.84991-11.60578-41.55589-19.94429"/>
          <path class="cls-10" d="M865.66956,84.55538C864.43508,77.37557,863.7918,70.78772,863.24,65.55c-1.87067-17.75675-13.25319-32.67175-28.68191-37.71984-11.073-3.623-23.41929-1.87738-33.893,4.21262a43.97129,43.97129,0,0,0-8.7239,10.80588c-13.348,23.58143-2.13538,59.06507,19.36,85.45861"/>
        </g>
      </g>
      <g id="Morral">
        <path class="cls-20" d="M891.93305,49.6672c-7.57756-.95744-24.85636,14.77512-26.4238,33.93854-1.60969,19.67974,13.49016,41.26536,34.6186,45.54836,18.72929,3.79672,39.13764-6.9851,45.75733-22.00224,5.94012-13.4755-1.25329-15.115-1.25329-15.115l-6.83535-.86021a28.01771,28.01771,0,0,1-22.75577,22.807c-12.37681,2.1241-24.15183-4.54346-29.08927-14.0701-6.84945-13.21569-.77-32.37628,16.05854-41.00247A12.07248,12.07248,0,0,0,898.21083,52.33,13.08585,13.08585,0,0,0,891.93305,49.6672Z"/>
        <path class="cls-20" d="M791.61839,94.31941c-.69631,1.39265-5.4582,11.34007-.67885,22.51576a27.60162,27.60162,0,0,0,16.4996,14.984l3.86208-3.5119a122.26751,122.26751,0,0,1-19.68283-33.98789Z"/>
        <path class="cls-10" d="M868.41363,102.1349a42.99207,42.99207,0,0,1-2.22849-22.26847c2.20662-13.2348,10.12193-21.946,16.43027-26.95189,4.44369-3.52621,11.19991-4.66705,15.48528-.95006,1.77942,1.54341,3.90937,6.9466,3.90937,6.9466-16.31942,9.91059-21.3561,23.71354-17.59869,37.05042"/>
        <path class="cls-10" d="M921.04441,112.48149c7.80941-3.81188,14.09687-11.32423,16.75213-21.30487l6.83538.86021c4.535,1.9035,4.54483,8.35709,2.42991,12.79745-3.65662,7.67723-11.09683,18.4567-25.17095,23.136a40.80291,40.80291,0,0,1-21.763,1.18385"/>
        <path class="cls-21" d="M908.38675,123.037a12.14287,12.14287,0,0,1-6.14941,5.18714c-.73.30957-1.48914.61023-2.266.89392.05261.011.10388.02539.15649.03613,18.72925,3.79663,39.1377-6.98511,45.75733-22.00232.36669-.83191.68261-1.6178.95385-2.36194C939.32193,116.207,923.74332,124.13779,908.38675,123.037Z"/>
        <path class="cls-21" d="M875.18241,101.64731A42.018,42.018,0,0,1,868.888,76.82676a38.35247,38.35247,0,0,1,2.63843-10.99707,41.04785,41.04785,0,0,0-6.01721,17.77612,40.02484,40.02484,0,0,0,2.86426,17.91321C870.673,101.70847,873.09989,102.08921,875.18241,101.64731Z"/>
        <path class="cls-21" d="M808.894,126.48374a27.60186,27.60186,0,0,1-16.49975-14.98413,26.492,26.492,0,0,1-1.68555-15.07251,26.71688,26.71688,0,0,0,16.73047,35.39209l3.86206-3.512c-.61084-.7461-1.23059-1.52735-1.85364-2.32691Z"/>
        <path class="cls-22" d="M790.84982,92.18466a119.601,119.601,0,0,0,20.4514,36.12263"/>
      </g>
      <g id="Brazos">
        <g id="Layer_10" data-name="Layer 10">
          <path class="cls-18" d="M856.04052,104.41245c2.78318-2.61917,6.14984-1.633,11.79033-2.24938a37.98892,37.98892,0,0,0,13.8332-4.41436,29.3661,29.3661,0,0,0,9.38092-8.79624s19.06776-16.18672,34.06018,3.21481a27.56275,27.56275,0,0,1-.11827,12.09495c-1.95512,8.1071-7.2198,12.86479-11.11728,16.38689a47.20911,47.20911,0,0,1-23.34146,11.38564c-4.02088.691-11.589,1.89711-19.94656-1.29481a29.75538,29.75538,0,0,1-5.08178-2.49356c-6.30117-3.95228-13.727-12.204-11.8121-19.56371A8.65226,8.65226,0,0,1,856.04052,104.41245Z"/>
          <path class="cls-18" d="M789.01427,106.42357a52.6834,52.6834,0,0,0-3.495,13.88914,32.66738,32.66738,0,0,0,.00072,10.43655c.44375,2.25666,2.72331,12.02424,11.63741,16.6711,9.00114,4.69228,20.95323,2.17534,27.54843-5.56356a23.44073,23.44073,0,0,0,5.23948-15.63183,8.68924,8.68924,0,0,0-2.19863-5.55293,6.65048,6.65048,0,0,0-4.15546-2.42286c-1.75229-.12071-2.80026.92283-8.28872,6.17955-2.32739,2.22915-4.675,4.43716-6.98971,6.67955h0c-2.0071-.5428-10.81684-3.16192-15.91769-11.95445A25.51833,25.51833,0,0,1,789.01427,106.42357Z"/>
          <path class="cls-19" d="M785.52005,130.74924s18.54554,27.05237,44.43421-2.64526c-1.00293,9.639-7.09265,17.68164-15.50061,20.42017-8.85767,2.885-16.53638-1.33863-17.76819-2.04212C787.72733,141.3657,785.78446,132.12229,785.52005,130.74924Z"/>
        </g>
        <path class="cls-12" d="M789.01331,105.77414a43.80981,43.80981,0,0,0-2.45582,6.95456c-2.02859,7.78283-2.05912,15.0469-.426,20.59351,2.924,9.93065,9.52547,15.70424,20.35623,16.3217,6.16551.3515,12.58662-2.6043,17.824-7.65686,3.66617-3.53678,9.36928-16.19891,2.4301-22.48005-5.26678-4.76733-9.975,4.8387-20.54252,13.33661"/>
        <g id="Layer_4" data-name="Layer 4">
          <path class="cls-12" d="M891.25634,88.62536c-2.44069,3.85529-5.97415,7.33784-12.46516,10.8623-10.31717,5.602-20.23271-.57392-24.455,7.07888-2.59964,4.71182-.45548,11.59811,6.47511,18.10935,22.80781,21.42775,70.61862-3.33385,64.29383-32.50861"/>
        </g>
        <g id="Layer_6" data-name="Layer 6">
          <path class="cls-10" d="M791.61839,94.31941c-.71006,1.52325-5.33244,11.88528-.25066,22.8506a27.00061,27.00061,0,0,0,16.52718,14.26052"/>
        </g>
      </g>
      <g id="Ojos">
        <circle class="cls-23" cx="839.29293" cy="61.62703" r="18.21826"/>
        <ellipse class="cls-23" cx="793.21462" cy="61.07311" rx="14.20165" ry="17.12223" transform="matrix(1, -0.00112, 0.00112, 1, -0.06813, 0.89145)"/>
        <g id="Layer_19" data-name="Layer 19">
          <circle class="cls-6" cx="835.6234" cy="63.73697" r="10.02716"/>
          <ellipse class="cls-6" cx="791.00809" cy="64.34525" rx="7.16878" ry="9.47964" transform="translate(-2.43403 81.18893) rotate(-5.86666)"/>
        </g>
      </g>
      <g id="Nariz">
        <path class="cls-18" d="M814.99643,69.40112S800.516,72.01763,788.06,64.80562c0,0,3.43122,15.059,22.5304,19.04a7.96826,7.96826,0,0,0,3.69017-1.86432,8.6195,8.6195,0,0,0,2.29241-9.1164A10.18653,10.18653,0,0,0,814.99643,69.40112Z"/>
        <path class="cls-19" d="M816.71549,73.32944a8.16022,8.16022,0,0,1-2.603,4.65149,7.96893,7.96893,0,0,1-3.69019,1.86438C798.54312,77.36924,792.72721,70.609,790.026,65.85068c-.659-.3247-1.31567-.66858-1.96606-1.04516,0,0,3.43127,15.05908,22.53052,19.04a7.969,7.969,0,0,0,3.69018-1.86426A8.56768,8.56768,0,0,0,816.71549,73.32944Z"/>
        <path class="cls-17" d="M811.472,83.86852a.648.648,0,0,1-.35451.05084A27.87951,27.87951,0,0,1,788.65841,66.455a.69136.69136,0,0,1,.95061-.87145,43.91843,43.91843,0,0,0,24.99969,3.87327.66661.66661,0,0,1,.64017.26817,9.21361,9.21361,0,0,1-3.7769,14.14352Z"/>
      </g>
    </g>
    <g id="Nido">
      <path class="cls-9" d="M121.30305,89.32815s6.96626-.59862,11.0152.84151c4.04907,1.44013,61.61215-.39033,76.28544,5.48264,0,0,20.5415-11.21216,41.902,6.00831l-7.8699,5.09668s29.6134,13.13848,23.96917,46.66175l-6.80428-6.39671s1.23866,16.11869-10.10266,25.85251l-1.66669-8.12065S217.14208,174.845,180.6782,158.7976l3.32695,13.15069s-25.71216-3.52147-38.75-16.63318l-10.80716,2.766a36.71758,36.71758,0,0,0-7.97077,1.47783c-5.60461,1.70143-8.39456,4.04573-11.65151,5.93961-8.70178,5.05989-22.74557,8.07215-31.59182,4.01331a28.30821,28.30821,0,0,0-7.63937-2.63017,26.56787,26.56787,0,0,0-8.58251-.13946c-4.655.62615-18.05864-2.03334-51.87338-13.44852l9.64351-1.92361S9.65925,142.89581,4.17673,130.97464a12.95337,12.95337,0,0,0,5.79514-1.12429,12.79567,12.79567,0,0,0,3.33775-2.19467S6.145,121.11552,2.62635,120.30629a63.19176,63.19176,0,0,0,5.15663-6.036c3.37963-4.49832,4.16724-6.79836,6.7388-10.14448a36.781,36.781,0,0,1,8.435-7.907l-14.851.41092c4.4-10.38918,13.66408-17.37962,23.838-17.86013a26.5679,26.5679,0,0,1,17.26576,5.78111Z"/>
      <g>
        <path class="cls-24" d="M13.30962,127.65568c1.73475-.82505.03077.63761.89595-.19053,0,0-4.06331-8.35854-8.403-10.53894-2.12244,2.88682-1.87169,3.16215-3.17622,4.57835,2.306.55861,5.95724,3.34457,8.70756,5.67227C12.40835,126.97742,12.05623,128.25172,13.30962,127.65568Z"/>
        <path class="cls-24" d="M26.90248,94.15206,11.64011,91.22921a32.05892,32.05892,0,0,0-3.23766,5.8457l11.2157-.31031C21.22225,94.97068,23.75119,95.25254,26.90248,94.15206Z"/>
        <path class="cls-24" d="M248.98811,102.64339l1.51758-.98278c-.90982-.73357-1.81708-1.39742-2.7224-2.03077l-1.98228,1.28382A32.76826,32.76826,0,0,1,248.98811,102.64339Z"/>
        <path class="cls-24" d="M252.86324,167.03108l-1.66668-8.12053s-30.88925,10.09071-67.35313-5.95659l2.01109,7.94916c34.16139,12.98357,62.17681,3.85107,62.17681,3.85107l1.66669,8.12065a27.41412,27.41412,0,0,0,7.49475-10.62641A25.97308,25.97308,0,0,1,252.86324,167.03108Z"/>
        <path class="cls-24" d="M148.42035,149.47135c-1.91447.141-18.36548,4.25813-21.6097,5.24309a16.33123,16.33123,0,0,0-4.08123,1.76189c-2.51052,1.58358-4.3083,2.8306-4.73851,3.17861-6.52949,5.28284-28.88395,6.22856-29.0696,6.24657h0l2.96749-3.19006h0c-4.36761-.62242-8.77034-.99165-13.12908-1.6735a27.28176,27.28176,0,0,0-7.67963-.25731c-.43369.0494-.74206.09623-.90288.11785-4.60587.61959-17.7897-1.98305-50.822-13.09537a61.18441,61.18441,0,0,0,5.42687,3.567l-9.64351,1.92361C48.95334,164.70891,62.357,167.3684,67.012,166.74225a26.56787,26.56787,0,0,1,8.58251.13946,28.30821,28.30821,0,0,1,7.63937,2.63017c8.84625,4.05884,22.89,1.04658,31.59182-4.01331,3.25695-1.89388,6.0469-4.23818,11.65151-5.93961a36.71758,36.71758,0,0,1,7.97077-1.47783l10.80716-2.766c13.03787,13.11171,38.75,16.63318,38.75,16.63318l-1.70387-6.73481C174.21163,163.50369,157.94151,159.04667,148.42035,149.47135Z"/>
        <path class="cls-24" d="M27.94734,145.52636S16.674,139.20414,10.06585,129.80249c-.03313.01544-.06047.03268-.094.04786a12.95337,12.95337,0,0,1-5.79514,1.12429c3.2111,6.98234,9.72669,12.77838,14.57648,16.38578Z"/>
      </g>
      <path class="cls-12" d="M198.51106,93.44013q1.16076.1592,2.37736.37141a65.38751,65.38751,0,0,1,7.71527,1.84076,39.89209,39.89209,0,0,1,41.902,6.00831q-3.935,2.54827-7.8699,5.09668c3.11865,1.5127,16.76144,8.55216,22.40116,24.57745a42.67562,42.67562,0,0,1,1.568,22.0843q-3.43365-3.0396-6.86706-6.0792a33.21874,33.21874,0,0,1-10.03988,25.535l-1.72986-7.99354a102.61433,102.61433,0,0,1-25.44508,3.0663,104.07547,104.07547,0,0,1-41.84488-9.15l3.32695,13.15069a81.81957,81.81957,0,0,1-38.87649-16.37909c-6.56358,1.72793-12.78558,3.0295-18.65147,3.98976a71.84513,71.84513,0,0,1-47.00211,10.54635l5.25153-4.25873c-29.76322,5.72232-69.588-12.55285-69.588-12.55285l9.136-1.79573C7.05044,139.6642,4.17673,130.97464,4.17673,130.97464c6.85375-.45813,9.13321-3.03773,9.13347-3.03786L2.18366,120.40626c7.48253-5.385,9.93329-17.5012,20.77307-24.18738.84988-.52425-14.851.41092-14.851.41092s7.89885-17.15281,24.65361-17.758c8.39384-.30311,15.26567,3.711,16.4501,5.679"/>
      <path class="cls-12" d="M121.303,89.32817a49.58165,49.58165,0,0,1,6.65038.20412c1.60225.15813,3.05532.38231,4.36492.63734"/>
    </g>
    <g id="Huevos">
      <path class="cls-6" d="M42.87419,103.91756c.51784-5.50642,2.58474-11.42931,7.66259-22.09866A46.68647,46.68647,0,0,1,62.31117,66.56237c3.78353-3.36983,7.0178-6.189,12.17037-7.76792a29.67652,29.67652,0,0,1,8.1806-1.10534c10.241.17358,26.08593,11.911,36.49345,28.24318a78.91386,78.91386,0,0,1,11.85732,48.7067c-11.27288-3.1606-20.52483-6.08135-27.18508-8.27348-14.26527-4.6952-17.04061-6.17922-19.22813-7.51774-2.24786-1.37538-6.26076-4.0567-19.23629-17.69774-5.52034-5.80351-6.04864-9.44164-9.17348-12.99419,0,0-7.99923,5.40953-7.12895,17.08627Z"/>
      <path class="cls-6" d="M125.78022,98.50073s23.52251-33.62363,48.86623-29.36619c0,0,23.43667,2.73806,29.4467,48.00554L161.14967,135.643s-6.30486,5.91547-30.13676-1.004a80.997,80.997,0,0,0,.17533-10.76434A82.33048,82.33048,0,0,0,125.78022,98.50073Z"/>
      <path class="cls-25" d="M145.15375,118.57129c-5.508-17.748-4.307-30.09636-1.3295-38.92319a100.5784,100.5784,0,0,0-18.044,18.85256,82.33176,82.33176,0,0,1,5.408,25.37406,80.98742,80.98742,0,0,1-.17548,10.76432c15.70238,4.55905,23.79357,3.54617,27.48807,2.32462C152.8227,132.25962,147.57768,126.38163,145.15375,118.57129Z"/>
      <path class="cls-25" d="M77.49675,97.1071A67.44717,67.44717,0,0,1,69.9823,60.72093a43.0655,43.0655,0,0,0-7.67114,5.84145A46.68572,46.68572,0,0,0,50.53679,81.81885C45.459,92.48823,43.392,98.41112,42.8742,103.91756L49.061,105.242C48.19069,93.5653,56.19,88.15574,56.19,88.15574c3.1247,3.5526,3.653,7.19075,9.17341,12.99425,12.9756,13.64112,16.98839,16.32235,19.23633,17.69777,2.18747,1.3385,4.96288,2.8225,19.22809,7.51766,6.66032,2.19224,15.91221,5.1129,27.185,8.27362.04052-.43484.0777-.90506.11244-1.39407C108.17449,130.1936,88.039,116.93239,77.49675,97.1071Z"/>
      <path class="cls-12" d="M131.01287,134.639a86.07153,86.07153,0,0,0-.81556-20.4646C125.84591,84.72806,97.80505,54.14045,77.15205,57.914c-15.48279,2.82885-29.82449,23.443-34.27784,46.0036"/>
      <path class="cls-12" d="M204.09317,117.14c-1.933-22.5168-12.92779-44.08959-27.68952-47.66047-15.53955-3.759-37.45361,9.73114-50.62342,29.02119"/>
      <path class="cls-12" d="M39.6633,103.23021q4.699,1.00577,9.39768,2.01184a22.64337,22.64337,0,0,1,7.12895-17.08621c7.39826,7.89931,10.677,14.59966,18.07544,22.499a41.42184,41.42184,0,0,0,14.688,10.09394c6.81083,2.75676,14.09756,5.4475,21.84747,7.9788,10.76206,3.51545,21.02262,6.26787,30.61865,8.43076a33.56933,33.56933,0,0,0,19.73025-1.51528q10.78436-4.26291,22.00181-9.093,16.91061-7.29707,32.21253-14.79008a21.96944,21.96944,0,0,1,.77456,6.3454,22.38427,22.38427,0,0,1-2.772,10.16071"/>
    </g>
  </g>
</svg>
