<?xml version="1.0" encoding="utf-8"?>
<!-- Generator: Adobe Illustrator 25.2.3, SVG Export Plug-In . SVG Version: 6.00 Build 0)  -->
<svg version="1.1" id="Layer_1" xmlns="http://www.w3.org/2000/svg" xmlns:xlink="http://www.w3.org/1999/xlink" x="0px" y="0px"
	 viewBox="0 0 1000.4 190.6" style="enable-background:new 0 0 1000.4 190.6;" xml:space="preserve">
<style type="text/css">
	.st0{fill:url(#SVGID_1_);}
	.st1{opacity:0.17;}
	.st2{clip-path:url(#SVGID_3_);fill:none;stroke:#AE00FF;stroke-width:2.5;stroke-linecap:round;stroke-miterlimit:10;}
	
		.st3{clip-path:url(#SVGID_3_);fill:none;stroke:#AE00FF;stroke-width:2.5;stroke-linecap:round;stroke-linejoin:round;stroke-miterlimit:10;}
	.st4{clip-path:url(#SVGID_3_);fill:#AE00FF;}
	.st5{fill:#FFFFFF;stroke:#14142B;stroke-width:8;stroke-miterlimit:10;}
	.st6{fill:#FFFFFF;}
	.st7{fill:#D4DCFC;stroke:#1B193C;stroke-width:2.5;stroke-miterlimit:10;}
	.st8{fill:#928A99;}
	.st9{fill:#CFC3D9;}
	.st10{fill:#96ACE2;stroke:#1B193C;stroke-width:2.5;stroke-miterlimit:10;}
	.st11{fill:none;stroke:#1B193C;stroke-width:2.5;stroke-miterlimit:10;}
	.st12{fill:#0C5B27;stroke:#1B193C;stroke-width:2.5;stroke-miterlimit:10;}
	.st13{fill:#8DDB00;}
	.st14{fill:#1B193C;}
	.st15{fill:#FFCF00;stroke:#1B193C;stroke-width:2.5;stroke-miterlimit:10;}
	.st16{fill:none;stroke:#1B193C;stroke-width:2.5;stroke-linecap:round;stroke-miterlimit:10;}
	.st17{fill:#EFEFEF;stroke:#1B193C;stroke-width:2.5;stroke-miterlimit:10;}
	.st18{fill:#BFC7D8;}
	.st19{opacity:0.2;fill:#1B193C;}
	.st20{fill:#0DB5FF;}
	.st21{fill:#FFCF00;}
	.st22{opacity:0.26;fill:#FF9D00;}
	.st23{fill:#FFBC00;stroke:#1B193C;stroke-width:2.5;stroke-miterlimit:10;}
	.st24{opacity:0.31;fill:url(#SVGID_4_);}
	.st25{fill:#00FFEF;}
	.st26{opacity:0.21;fill:#98B7D5;}
	.st27{fill:#FF9147;}
	.st28{fill:#FFC849;}
	.st29{fill:url(#SVGID_5_);}
	.st30{fill:none;stroke:#9B5CFF;stroke-width:4;stroke-miterlimit:10;}
	.st31{fill:#D9DBF0;}
	.st32{opacity:0.28;fill:#55528C;}
	.st33{fill:none;stroke:#1B193C;stroke-width:2;stroke-miterlimit:10;}
	.st34{fill:#FF2134;}
	.st35{fill:#D61456;}
	.st36{fill:#9887FA;}
	.st37{opacity:0.3982;fill:#6A63D9;}
	.st38{fill:url(#SVGID_6_);}
	.st39{fill:url(#SVGID_7_);}
	.st40{fill:url(#SVGID_8_);}
	.st41{fill:url(#SVGID_9_);}
	.st42{fill:none;stroke:#000000;stroke-width:7;stroke-miterlimit:10;}
	.st43{fill:#22303D;stroke:#1B193C;stroke-width:2.5;stroke-miterlimit:10;}
	.st44{fill:#344355;}
	.st45{fill:#8B96A3;stroke:#1B193C;stroke-width:2.5;stroke-linecap:round;stroke-miterlimit:10;}
	.st46{fill:#E3E3E3;}
	.st47{fill:#FF2134;stroke:#1B193C;stroke-width:2.5;stroke-linecap:round;stroke-miterlimit:10;}
</style>
<g>
	<linearGradient id="SVGID_1_" gradientUnits="userSpaceOnUse" x1="461.0162" y1="-36.9094" x2="503.4087" y2="150.8289">
		<stop  offset="0" style="stop-color:#4E309C"/>
		<stop  offset="1" style="stop-color:#3B2475"/>
	</linearGradient>
	<path class="st0" d="M934.4,167.8H50.9c-12.4,0-22.5-10.1-22.5-22.5V61.2c0-12.4,10.1-22.5,22.5-22.5l883.4,0
		c12.4,0,22.5,10.1,22.5,22.5v84.1C956.9,157.7,946.8,167.8,934.4,167.8z"/>
</g>
<g class="st1">
	<defs>
		<path id="SVGID_2_" class="st1" d="M934.4,167.8H50.9c-12.4,0-22.5-10.1-22.5-22.5V61.2c0-12.4,10.1-22.5,22.5-22.5l883.4,0
			c12.4,0,22.5,10.1,22.5,22.5v84.1C956.9,157.7,946.8,167.8,934.4,167.8z"/>
	</defs>
	<clipPath id="SVGID_3_">
		<use xlink:href="#SVGID_2_"  style="overflow:visible;"/>
	</clipPath>
	<path class="st2" d="M280.4,54.2c26.4-12.2,52.4-25.4,78.8-37.6"/>
	<path class="st2" d="M1.7,185.8c18-9.6,37-16.6,55-25.6c29-14,56-27,85-40c4-2,8-5,12-7c3-1,6-2,9-3c30-14,59-28,89.3-42.8"/>
	<path class="st2" d="M296.7,119.1c63-28.9,124-59.9,188-89.9c2-1,3,0,5-1c22-11,43-19,65-30c2-2,4-4,7.3-4.8"/>
	<path class="st2" d="M204.4,162.6c22.2-9.4,44.2-21.4,65.9-31.2"/>
	<path class="st3" d="M514.6,53.2c24.1-11,48.1-22,72.3-34.2"/>
	<path class="st3" d="M229.3,188.2c90.4-42,180.4-86,270.8-128.1"/>
	<path class="st2" d="M736.3,51.3c24.3-12,48.3-22,72.6-34.3"/>
	<path class="st2" d="M451.3,186.1c85.4-40.9,170.4-81.9,256-121.2"/>
	<path class="st2" d="M729.8,96.1c31.9-14.9,62.9-29.9,94.9-44.9"/>
	<path class="st2" d="M467.1,220.4c28.9-13.7,57.9-27.4,86.8-41.1c28.8-13.6,57.7-27.3,86.5-40.9c16.3-7.7,32.6-15.4,48.9-23"/>
	<path class="st2" d="M659.9,172.5c26.4-12.2,52.4-25.4,78.8-37.6"/>
	<path class="st2" d="M381.2,304.1c18-9.6,37-16.6,55-25.6c29-14,56-27,85-40c4-2,8-5,12-7c3-1,6-2,9-3c30-14,59-28,89.3-42.8"/>
	<path class="st2" d="M676.2,237.4c63-28.9,124-59.9,188-89.9c2-1,3,0,5-1c22-11,43-19,65-30c2-2,4-4,7.3-4.8"/>
	<path class="st2" d="M583.9,280.9c22.2-9.4,44.2-21.4,65.9-31.2"/>
	<path class="st3" d="M894.1,171.5c24.1-11,48.1-22,72.3-34.2"/>
	<path class="st3" d="M608.8,306.5c90.4-42,180.4-86,270.8-128.1"/>
	<path class="st2" d="M200.9,11.8c24.3-12,48.3-22,72.6-34.3"/>
	<path class="st2" d="M-84.1,146.7c85.4-40.9,170.4-81.9,256-121.2"/>
	<path class="st2" d="M194.4,56.6c31.9-14.9,62.9-29.9,94.9-44.9"/>
	
		<rect x="234.8" y="-136.3" transform="matrix(0.4367 0.8996 -0.8996 0.4367 221.7389 -164.5266)" class="st4" width="15" height="462.2"/>
	
		<rect x="506.7" y="-123.8" transform="matrix(0.4367 0.8996 -0.8996 0.4367 388.9923 -406.7601)" class="st4" width="25.2" height="462.2"/>
	
		<rect x="776" y="-89.5" transform="matrix(0.4367 0.8996 -0.8996 0.4367 575.7933 -636.5084)" class="st4" width="40.4" height="462.2"/>
	<path class="st2" d="M-68.3,180.9c28.9-13.7,57.9-27.4,86.8-41.1C47.4,126.2,76.2,112.6,105,99c16.3-7.7,32.6-15.4,48.9-23"/>
</g>
<g>
	<path class="st5" d="M367.1,74.1h20.3L410.5,99V74.1h21.5v56.3h-19.3l-24.1-26v26h-21.5V74.1z"/>
	<path class="st5" d="M440.2,74.1h55.3v15.4h-34v5.7h31.7v13.6h-31.7v6.1h34.4v15.4h-55.7V74.1z"/>
	<path class="st5" d="M497.2,122l11.6-12c7,4.7,15.1,6.6,22.7,6.6c3.9,0,5.6-0.9,5.6-2.4V114c0-1.6-2-2.5-9-3.7
		c-14.5-2.6-27.3-6.2-27.3-18.1v-0.2c0-10.7,9.6-19,27.5-19c12.5,0,21.8,2.6,29.3,7.7l-10.6,12.7c-6.1-3.9-13.4-5.5-19.4-5.5
		c-3.2,0-4.7,1-4.7,2.3v0.2c0,1.5,1.8,2.5,8.6,3.6c16.6,2.7,27.7,6.8,27.7,18.2v0.2c0,11.8-11.2,19.1-28.6,19.1
		C517.3,131.5,505.4,128.3,497.2,122z"/>
	<path class="st5" d="M579.1,90H560V74.1h59.8V90h-19.1v40.4h-21.7V90z"/>
</g>
<g>
	<path class="st6" d="M367.1,74.1h20.3L410.5,99V74.1h21.5v56.3h-19.3l-24.1-26v26h-21.5V74.1z"/>
	<path class="st6" d="M440.2,74.1h55.3v15.4h-34v5.7h31.7v13.6h-31.7v6.1h34.4v15.4h-55.7V74.1z"/>
	<path class="st6" d="M497.2,122l11.6-12c7,4.7,15.1,6.6,22.7,6.6c3.9,0,5.6-0.9,5.6-2.4V114c0-1.6-2-2.5-9-3.7
		c-14.5-2.6-27.3-6.2-27.3-18.1v-0.2c0-10.7,9.6-19,27.5-19c12.5,0,21.8,2.6,29.3,7.7l-10.6,12.7c-6.1-3.9-13.4-5.5-19.4-5.5
		c-3.2,0-4.7,1-4.7,2.3v0.2c0,1.5,1.8,2.5,8.6,3.6c16.6,2.7,27.7,6.8,27.7,18.2v0.2c0,11.8-11.2,19.1-28.6,19.1
		C517.3,131.5,505.4,128.3,497.2,122z"/>
	<path class="st6" d="M579.1,90H560V74.1h59.8V90h-19.1v40.4h-21.7V90z"/>
</g>
<g>
	
		<ellipse transform="matrix(0.111 -0.9938 0.9938 0.111 -40.4375 220.5334)" class="st7" cx="103" cy="132.9" rx="46.9" ry="101.9"/>
	<path class="st8" d="M44.9,116.6l-10.4,5.5l-6.5,6.4l-6.3,10.1l-0.3,6.5l16.1,18l19.1,6.7l2.6-12.7l3.7-13.6c0,0,5.2-8.1,4.7-7.4
		s4-5.3,4-5.3l-1.7-0.1L54.6,125l-4.5-2.8L44.9,116.6z"/>
	<path class="st9" d="M30.1,111.8l-10.4,5.5l-6.5,6.4l-6.3,10.1l-0.3,6.5L23,155.5l18.8,9.5l0.8-13.5l3.9-13c0,0,5.6-9,5.1-8.3
		c-0.5,0.7,2.5-2.9,2.5-2.9l0.9-1.5l-15.2-5.7l-4.5-2.8L30.1,111.8z"/>
	
		<ellipse transform="matrix(0.111 -0.9938 0.9938 0.111 -21.4897 207.0409)" class="st10" cx="105" cy="115.5" rx="21.4" ry="74.6"/>
	<path class="st11" d="M179.1,123.8c-1.3,11.8-35.6,17.6-76.5,13"/>
	<path class="st9" d="M71.6,130.8c-3.2,3.7-8.2,10.6-11,20.6c-2.4,8.3-2.3,15.4-1.9,20c12.7,4.5,31.5,9.5,54.6,10.2
		c25.6,0.7,46.4-4.2,59.8-8.5c1.1-3.7,2.7-11.3,0.8-20.6c-1.8-9.1-6.1-15.3-8.5-18.3c-13,2.8-30.8,5.3-51.9,4
		C96.9,137.2,82.7,134.1,71.6,130.8z"/>
	
		<ellipse transform="matrix(0.111 -0.9938 0.9938 0.111 -40.4375 220.5334)" class="st11" cx="103" cy="132.9" rx="46.9" ry="101.9"/>
	<path class="st7" d="M137.4,180.2c0-6.9-0.4-14.5-1.5-22.7c-1.7-13.4-4.7-24.8-7.7-34c-6.5,0.2-13.1,0.4-19.6,0.6
		c-3.2,9.1-6.3,19.7-8.6,31.6c-1.7,8.4-2.8,16.3-3.4,23.6c0.5,0.1,0.9,0.1,1.4,0.2C111.7,181,125.1,181.2,137.4,180.2z"/>
	<path class="st12" d="M130.7,157.7c-1.2-9.6-3.4-17.8-5.5-24.4c-4.7,0.2-9.4,0.3-14.1,0.5c-2.3,6.5-4.5,14.1-6.2,22.7
		c-1.7,8.6-2.6,16.5-3,23.4c10.3,1,20.3,1.2,29.7,0.7C132,174.1,131.8,166.3,130.7,157.7z"/>
	
		<rect x="114.7" y="147" transform="matrix(0.9998 -1.908617e-02 1.908617e-02 0.9998 -2.8406 2.2853)" class="st13" width="7.2" height="5.9"/>
	
		<rect x="114.4" y="161.3" transform="matrix(0.9998 -1.908617e-02 1.908617e-02 0.9998 -3.1134 2.2817)" class="st13" width="7.2" height="5.9"/>
	
		<rect x="103.9" y="167.5" transform="matrix(0.9998 -1.908617e-02 1.908617e-02 0.9998 -3.2333 2.0971)" class="st13" width="8.7" height="5.9"/>
	
		<rect x="122" y="173.9" transform="matrix(0.9998 -1.908617e-02 1.908617e-02 0.9998 -3.3534 2.4444)" class="st13" width="8.7" height="5.9"/>
	
		<rect x="123.2" y="160.8" transform="matrix(0.9998 -1.908617e-02 1.908617e-02 0.9998 -3.1024 2.464)" class="st13" width="8.7" height="5.9"/>
	
		<rect x="122.5" y="153.4" transform="matrix(0.9998 -1.908617e-02 1.908617e-02 0.9998 -2.9616 2.4498)" class="st13" width="8.7" height="5.9"/>
	
		<rect x="108.6" y="138.5" transform="matrix(0.9998 -1.908617e-02 1.908617e-02 0.9998 -2.6843 2.1548)" class="st13" width="5.9" height="6.5"/>
	<path class="st14" d="M127.2,145.1c-5.9,0.1-12-0.1-18.1-0.6c-0.2,0.8-0.5,1.6-0.7,2.5c6.5,0.5,13,0.7,19.3,0.6
		C127.6,146.8,127.4,145.9,127.2,145.1z"/>
	<path class="st14" d="M128.6,151.9c-7,0.2-14.1,0-21.3-0.6c-0.2,0.8-0.4,1.6-0.5,2.5c7.5,0.6,15,0.8,22.2,0.7
		C128.9,153.6,128.7,152.8,128.6,151.9z"/>
	<path class="st14" d="M129.6,158.8c-7.7,0.2-15.7,0-23.7-0.6c-0.2,0.8-0.3,1.6-0.4,2.5c8.3,0.7,16.5,0.9,24.4,0.7
		C129.8,160.4,129.7,159.6,129.6,158.8z"/>
	<path class="st14" d="M130.4,169c0,1.2,0,2.3-0.1,3.5c-8.6,0.4-17.5,0.2-26.5-0.6c-0.1,0.8-0.2,1.7-0.2,2.5
		c9.1,0.8,18.2,1,26.9,0.6C130.6,173,130.5,171,130.4,169z"/>
	<path class="st14" d="M130.2,165.6c-8.3,0.3-16.8,0.1-25.5-0.6c-0.1,0.8-0.3,1.7-0.4,2.5c8.8,0.7,17.6,1,26,0.6
		C130.4,167.3,130.3,166.4,130.2,165.6z"/>
	<path class="st11" d="M121.6,137.6c0.9,8.8,1.4,18.7,0.8,29.6c-0.3,5-0.7,9.8-1.3,14.2"/>
	<path class="st11" d="M114.3,137.3c0.4,8.8,0.3,18.7-0.9,29.6c-0.6,5-1.3,9.7-2.1,14.1"/>
	<path class="st11" d="M130.7,157.7c-1.2-9.6-3.4-17.8-5.5-24.4c-4.7,0.2-9.4,0.3-14.1,0.5c-2.3,6.5-4.5,14.1-6.2,22.7
		c-1.7,8.6-2.6,16.5-3,23.4c10.3,1,20.3,1.2,29.7,0.7C132,174.1,131.8,166.3,130.7,157.7z"/>
	<circle class="st15" cx="109.9" cy="87.6" r="26"/>
	<path class="st16" d="M116.7,73.2c-1.5-0.7-3.2-1.2-5-1.4c-8.8-1-16.7,5.3-17.7,14.1c-1,8.8,5.3,16.7,14.1,17.7
		c8.8,1,16.7-5.3,17.7-14.1c0.4-3.4-0.3-6.7-1.9-9.4"/>
	<path class="st17" d="M102.6,136.8c2.2,0.2,4.3,0.4,6.5,0.6c4.4-7,6.4-15.7,4.8-25.7c-3.7-23-27.4-59.1-48.7-55.6
		c-19,3.1-29.8,36.5-29.3,60C46.2,125.1,71.9,133.4,102.6,136.8z"/>
	<path class="st18" d="M110.7,129.2c-2.1-0.2-4.3-0.4-6.5-0.6c-30.7-3.4-56.4-11.7-66.8-20.6c-0.1-4.6,0.2-9.6,1-14.7
		c-1.8,7.8-2.7,15.9-2.6,23c10.4,8.9,36.1,17.2,66.8,20.6c2.2,0.2,4.3,0.4,6.5,0.6c3-4.6,4.8-10.1,5.2-16.1
		C113.4,124.2,112.2,126.8,110.7,129.2z"/>
	<path class="st11" d="M102.6,136.8c2.2,0.2,4.3,0.4,6.5,0.6c4.4-7,6.4-15.7,4.8-25.7c-3.7-23-27.4-59.1-48.7-55.6
		c-19,3.1-29.8,36.5-29.3,60C46.2,125.1,71.9,133.4,102.6,136.8z"/>
	<path class="st17" d="M102.6,136.8c2.8,0.3,5.5,0.6,8.2,0.8c27.7,2.2,51.4-0.4,62.2-6.5c4.2-23.2-2.4-60.3-21.7-65.8
		c-20.8-5.9-48.5,27.2-54.9,49.6c-2.2,7.6-2.1,14.8-0.2,21.1C98.3,136.3,100.4,136.6,102.6,136.8z"/>
	<path class="st18" d="M174,111c0,5-0.4,9.8-1.2,14.2c-10.8,6-34.4,8.7-62.2,6.5c-2.7-0.2-5.4-0.5-8.2-0.8c-2.2-0.2-4.3-0.5-6.4-0.8
		c-0.6-1.9-1-3.9-1.2-6c-0.2,4.2,0.2,8.2,1.4,12c2.1,0.3,4.3,0.6,6.4,0.8c2.8,0.3,5.5,0.6,8.2,0.8c27.7,2.2,51.4-0.4,62.2-6.5
		C174,125.1,174.4,118.1,174,111z"/>
	<path class="st11" d="M102.6,136.8c2.8,0.3,5.5,0.6,8.2,0.8c27.7,2.2,51.4-0.4,62.2-6.5c4.2-23.2-2.4-60.3-21.7-65.8
		c-20.8-5.9-48.5,27.2-54.9,49.6c-2.2,7.6-2.1,14.8-0.2,21.1C98.3,136.3,100.4,136.6,102.6,136.8z"/>
	<path class="st19" d="M204.4,142c-8.5,22.5-53.3,35.6-105.1,29.8C45,165.7,2.9,141.1,3.1,116.1c-0.7,1.8-1.1,3.6-1.3,5.5
		c-2.9,25.7,40.1,51.7,96,57.9s103.6-9.6,106.4-35.3C204.4,143.4,204.4,142.7,204.4,142z"/>
	<path class="st11" d="M58,170.5c0-2.6,0.1-5.3,0.4-8c1.4-13.1,6.6-24.3,13.4-30.8"/>
	<path class="st11" d="M41.1,165.5c0-2.6,0.1-5.3,0.4-8c1.5-13.6,7-25.1,14.2-31.5"/>
	<path class="st16" d="M30.8,103.7c-8.3-0.3-16.6,1.8-23.7,5.8"/>
	<path class="st16" d="M6.5,137.3c3.1-12.4,12.7-22.4,24.7-25.8"/>
	<path class="st16" d="M165.5,134.3c7.6,11.2,10.4,25.5,7.4,38.6"/>
	<path class="st16" d="M179,125c8.8,11.7,12,27.2,8.3,41.4"/>
	<g>
		<path class="st20" d="M74.3,143.9c-0.9,0-1.8-0.4-2.4-1.1c-1-1.3-0.8-3.2,0.5-4.3c0.5-0.4,1.2-0.7,1.9-0.7c0.9,0,1.8,0.4,2.4,1.1
			c1,1.3,0.8,3.2-0.5,4.3C75.6,143.6,75,143.9,74.3,143.9z"/>
		<path class="st14" d="M74.3,138.8c0.6,0,1.2,0.3,1.6,0.8c0.7,0.9,0.6,2.2-0.3,2.9c-0.4,0.3-0.8,0.4-1.3,0.4
			c-0.6,0-1.2-0.3-1.6-0.8c-0.7-0.9-0.6-2.2,0.3-2.9C73.4,138.9,73.8,138.8,74.3,138.8 M74.3,136.8c-0.9,0-1.8,0.3-2.5,0.9
			c-1.7,1.4-2,3.9-0.6,5.7c0.8,1,1.9,1.5,3.2,1.5c0.9,0,1.8-0.3,2.5-0.9c0.8-0.7,1.4-1.6,1.5-2.7c0.1-1.1-0.2-2.1-0.9-3
			C76.7,137.4,75.5,136.8,74.3,136.8L74.3,136.8z"/>
	</g>
	<g>
		<path class="st20" d="M69.4,156.2c-0.1,0-0.2,0-0.3,0c-1.7-0.2-2.9-1.7-2.7-3.4c0.2-1.5,1.5-2.7,3-2.7c0.1,0,0.2,0,0.3,0
			c0.8,0.1,1.5,0.5,2,1.1s0.7,1.4,0.6,2.2C72.2,155.1,70.9,156.2,69.4,156.2z"/>
		<path class="st14" d="M69.4,151.2c0.1,0,0.2,0,0.2,0c1.1,0.1,1.9,1.1,1.8,2.3c-0.1,1-1,1.8-2,1.8c-0.1,0-0.2,0-0.2,0
			c-1.1-0.1-1.9-1.1-1.8-2.3C67.5,151.9,68.4,151.2,69.4,151.2 M69.4,149.2L69.4,149.2c-2.1,0-3.8,1.5-4,3.6c-0.1,1.1,0.2,2.1,0.9,3
			s1.6,1.4,2.7,1.5c0.2,0,0.3,0,0.5,0c2.1,0,3.8-1.5,4-3.6c0.2-2.2-1.4-4.2-3.6-4.5C69.7,149.2,69.5,149.2,69.4,149.2L69.4,149.2z"
			/>
	</g>
	<g>
		<path class="st20" d="M67.2,168.9c-0.1,0-0.2,0-0.3,0c-1.7-0.2-2.9-1.7-2.7-3.4c0.2-1.5,1.5-2.7,3-2.7c0.1,0,0.2,0,0.3,0
			c0.8,0.1,1.5,0.5,2,1.1s0.7,1.4,0.6,2.2C70,167.7,68.7,168.9,67.2,168.9z"/>
		<path class="st14" d="M67.2,163.8c0.1,0,0.2,0,0.2,0c1.1,0.1,1.9,1.1,1.8,2.3c-0.1,1-1,1.8-2,1.8c-0.1,0-0.2,0-0.2,0
			c-1.1-0.1-1.9-1.1-1.8-2.3C65.3,164.6,66.1,163.8,67.2,163.8 M67.2,161.8L67.2,161.8c-2.1,0-3.8,1.5-4,3.6
			c-0.2,2.2,1.4,4.2,3.6,4.5c0.2,0,0.3,0,0.5,0c2.1,0,3.8-1.5,4-3.6c0.2-2.2-1.4-4.2-3.6-4.5C67.5,161.8,67.3,161.8,67.2,161.8
			L67.2,161.8z"/>
	</g>
	<g>
		<path class="st21" d="M39.9,119.2c-1.2-5,13.2-17,26.6-15.1c16.5,2.3,26.8,24.7,22.8,29.7c-1,1.2-2.1,0.4-26.6-4.6
			c0,0-7-1.4-17.5-6.3C40.9,120.9,40.2,120.2,39.9,119.2z"/>
		<path class="st22" d="M65.4,124.5c0,0-7-1.4-17.5-6.3c-4.2-2-5-2.7-5.2-3.6c-0.1-0.4-0.1-0.8,0-1.2c-2,2.2-3,4.3-2.7,5.8
			c0.2,1,1,1.7,5.2,3.6c10.5,4.9,17.5,6.3,17.5,6.3c24.5,5,25.6,5.8,26.6,4.6c0.7-0.9,1-2.4,0.8-4.2
			C87.6,129.4,81.7,127.9,65.4,124.5z"/>
		<path class="st11" d="M66.5,104.1c-11.5-1.3-22,5.1-26.6,15.1c10.1,6.4,27.9,12.2,49.1,15.7c0.1-0.7,0.3-1.4,0.3-2.2
			C91,118.5,80.7,105.7,66.5,104.1z"/>
		<path class="st16" d="M79.3,132.9c0.1-0.6,0.1-0.6,0.2-1.2c0.4-3.4-0.3-6.7-1.9-9.4"/>
		<path class="st16" d="M70.4,115.5c-1.5-0.7-3.2-1.2-5-1.4c-7.1-0.8-13.7,3.2-16.4,9.5"/>
	</g>
	<g>
		<path class="st23" d="M102.6,136.8c6.4,0.7,12.6,1.2,18.6,1.4l24.1-21.7c0.7-0.6,0.8-1.7,0.1-2.4l-4.3-4.8
			c-4.6-5.1-18.1-0.4-30.1,10.5c-6,5.4-10.4,11.3-12.8,16.5C99.6,136.5,101.1,136.7,102.6,136.8z"/>
		<path class="st15" d="M138.4,138.2c8.2-9.4,11.7-19.1,7.8-23.3c-4.6-5.1-18.1-0.4-30.1,10.5c-4.2,3.8-7.6,7.9-10.2,11.8
			C117.6,138.3,128.6,138.7,138.4,138.2z"/>
		<path class="st16" d="M139.5,124.4c0.3-1.3,0.3-2.4-0.3-3.1c-2.2-2.5-10.6,1.5-18.7,8.9c-2.8,2.6-5.2,5.2-7.1,7.6
			c5.5,0.4,10.8,0.6,15.9,0.6c1.8-1.7,3.5-3.4,4.9-5.1"/>
	</g>
	<g>
		
			<linearGradient id="SVGID_4_" gradientUnits="userSpaceOnUse" x1="103.4806" y1="160.1404" x2="98.2062" y2="13.587" gradientTransform="matrix(0.9822 0.1877 -0.1877 0.9822 25.8056 -15.1202)">
			<stop  offset="0" style="stop-color:#FFFFFF;stop-opacity:0"/>
			<stop  offset="0.4111" style="stop-color:#8BFFF8;stop-opacity:0.4331"/>
			<stop  offset="0.7836" style="stop-color:#27FFF1;stop-opacity:0.8256"/>
			<stop  offset="0.9491" style="stop-color:#00FFEF"/>
		</linearGradient>
		<path class="st24" d="M178.3,124c3.7-18,1.6-37.2-6-54c-13.2-29-43.8-48.1-75.9-43.2c-38.3,5.9-63,41.9-65.3,78.9
			c0.8,1.4,2,3.6,3.8,6c14.7,19.6,40.5,22.3,67.3,25c21.6,2.2,43.3,4.2,66.2-7.1C172.7,127.6,176.1,125.5,178.3,124z"/>
		<g>
			<path class="st25" d="M178.3,125.3c-0.1,0-0.2,0-0.2,0c-0.7-0.1-1.1-0.8-1-1.5c3.6-18,1.5-36.9-5.9-53.2
				C157.7,40.9,127,23.4,96.6,28.1c-39.4,6-62.1,43.7-64.2,77.8c0,0.7-0.6,1.2-1.3,1.2c-0.7,0-1.2-0.6-1.2-1.3
				C32,70.6,55.5,31.9,96.2,25.6c31.5-4.8,63.3,13.2,77.2,43.9c7.7,16.8,9.8,36.3,6.1,54.8C179.4,124.9,178.9,125.3,178.3,125.3z"/>
		</g>
		<g>
			<g>
				<path class="st25" d="M130.8,58.4l-33.2-3.6l-5.3-20.4l10.2-8.8c0.5-0.4,1.3-0.4,1.8,0.1c0.5,0.5,0.4,1.3-0.1,1.8l-9,7.8
					l4.4,17.2l30.1,3.3L144,37.3c0.4-0.5,1.2-0.6,1.8-0.2c0.5,0.4,0.6,1.2,0.2,1.8L130.8,58.4z"/>
			</g>
			<g>
				<path class="st25" d="M168.1,84.7l-30.7-3.5l-8.3-23.8c-0.2-0.7,0.1-1.4,0.8-1.6c0.6-0.2,1.4,0.1,1.6,0.8l7.8,22.3l27.7,3.1
					l6.2-8.1c0.4-0.5,1.2-0.7,1.8-0.2c0.5,0.4,0.7,1.2,0.2,1.8L168.1,84.7z"/>
			</g>
			<g>
				<path class="st25" d="M122.8,101.8l-31.6-3.1L82.9,75l14.7-22.1c0.4-0.6,1.2-0.7,1.7-0.3c0.6,0.4,0.7,1.2,0.3,1.7l-14,21l7.4,21
					l28.6,2.9l15.6-19.3c0.4-0.5,1.2-0.6,1.8-0.2c0.5,0.4,0.6,1.2,0.2,1.8L122.8,101.8z"/>
			</g>
			<g>
				<path class="st25" d="M161.7,128l-29.2-2.4L121.1,101c-0.3-0.6,0-1.4,0.6-1.7c0.6-0.3,1.4,0,1.7,0.6l10.8,23.3l26.4,2.2
					l13.4-17.5l-7.7-24c-0.2-0.7,0.2-1.4,0.8-1.6c0.7-0.2,1.4,0.1,1.6,0.8l8.1,25.3L161.7,128z"/>
			</g>
			<g>
				<path class="st25" d="M161.7,133.5c-0.6,0-1.2-0.5-1.2-1.1l-0.6-5.5c-0.1-0.7,0.4-1.3,1.1-1.4c0.7-0.1,1.3,0.4,1.4,1.1l0.6,5.5
					c0.1,0.7-0.4,1.3-1.1,1.4C161.8,133.5,161.8,133.5,161.7,133.5z"/>
			</g>
		</g>
		<g>
			<path class="st25" d="M179.7,109.8c0,0-0.1,0-0.1,0l-4.3-0.5c-0.7-0.1-1.2-0.7-1.1-1.4c0.1-0.7,0.7-1.2,1.4-1.1l4.3,0.5
				c0.7,0.1,1.2,0.7,1.1,1.4C180.8,109.4,180.3,109.8,179.7,109.8z"/>
		</g>
	</g>
</g>
<g>
	<path class="st6" d="M767.6,47.8c-4.3,3.9-7.7,11.9-9.5,21.4c-7.3,37.1,29.9,70.1,36.6,76.1c10.5,9.3,21.1,15.4,29.5,19.3
		c3.5,1.8,48,24.3,82.2,2c5.2-3.4,11.9-9,17.9-18.2c0,0-22.3,0.8-46.1-13c-22.4-12.9-35.1-44.2-42-67c-0.5-1.5-0.9-3-1.3-4.4
		C828.3,40.9,790.9,26.9,767.6,47.8z"/>
	<path class="st26" d="M923.6,149.2c-15.9,21.5-49.3,44.9-111.7,8.3c0.8-1.1,1.5-2.4,1.9-3.8c21.6,9,59.5,19.8,97.8-6L923.6,149.2z"
		/>
	<path class="st27" d="M919.9,154.3l8.5,9.1l1.9,0.3l2-1.5l-0.3-8.1l8.3,2.9l2.2-0.5c0,0,4,0.7-0.8-14.8l4.8,0.7c0,0,3-0.5,1.5-4.3
		c-1.5-3.8-10.1-12.5-12.3-12.3C935.9,125.8,929.7,144.6,919.9,154.3z"/>
	<path class="st27" d="M905.1,167L905.1,167l3.4,9l-0.5,1.9c-0.7,0.3-1.4,0.6-2.1,0.8c-2.4-1.2-4.8-2.3-7.2-3.5
		c-0.5,2.7-1,5.5-1.5,8.2c-0.1,0.4-0.5,1.2-1.5,1.8c0,0-0.6,0.3-1.3,0.5c-1.8,0.3-3.3-0.8-4.4-1.6c-1.7-1.3-4-3.1-6.7-5.5
		c-0.5,1.5-1,3.1-1.5,4.6c0,0-1.8,2.5-4.5-0.5c-1-1.1-2.3-3.5-3.3-6c0,0-0.8,1.2,0,0C873.8,176.7,887.8,177.3,905.1,167z"/>
	<path class="st11" d="M919.9,154.3c2.6,2.9,5.3,5.7,7.9,8.6c1.7,1.8,4.8,0.6,4.8-1.8c0,0,0,0,0-0.1c0-2.6-0.2-4.9-0.5-6.8
		c0.8,0,4.3,1.4,7.4,2.6c2.4,1,4.9-1,4.7-3.5c-0.1-1.2-0.3-2.4-0.4-3.3c-0.5-3.2-1.2-5.9-1.9-8.2c1.3,0.2,2.6,0.3,4,0.5
		c1.8,0.2,3.2-1.6,2.4-3.3c-1.1-2.3-2.7-5.1-5.3-7.8c-2.5-2.6-5.2-4.3-7.1-5.3"/>
	<path class="st11" d="M905.3,167c1,2.7,2.1,5.3,3.1,8c0.9,2.3-1.5,4.6-3.7,3.5c0,0,0,0-0.1,0c-2.3-1.1-4.3-2.3-5.9-3.5
		c-0.3,0.7-0.8,3.9-1.3,7.2c-0.6,3.7-3.7,4.7-6.8,2.5c-1-0.7-5.6-4.6-7.3-6.3c-0.4,1.3-0.9,2.5-1.3,3.8c-0.6,1.7-2.9,2.1-4,0.7
		c-1.3-1.6-2.7-3.6-3.9-6.1"/>
	<path class="st28" d="M997.1,117.3c-18.4,3.6-11-14-3.8-6.5c0,0,2.4-10.5-6.8-10.9c-7.2-0.3-4.4-10,1-5.3c0,0-3.2-10.7-11.6-16.3
		C964.8,71,951.3,75,944,86.1c-7.3,11.1-5.7,25,5.3,32.4c5.9,3.9,12,4.3,21.6,3.7c-5.4-4.4,1.4-10.7,4.9-3.6
		C980.5,127.8,992.4,124.4,997.1,117.3L997.1,117.3z M997.1,117.3"/>
	<path class="st16" d="M997.1,117.3c-18.4,3.6-11-14-3.8-6.5c0,0,2.4-10.5-6.8-10.9c-7.2-0.3-4.4-10,1-5.3c0,0-3.2-10.7-11.6-16.3
		C964.8,71,951.3,75,944,86.1c-7.3,11.1-5.7,25,5.3,32.4c5.9,3.9,12,4.3,21.6,3.7c-5.4-4.4,1.4-10.7,4.9-3.6
		C980.5,127.8,992.4,124.4,997.1,117.3L997.1,117.3z M997.1,117.3"/>
	
		<linearGradient id="SVGID_5_" gradientUnits="userSpaceOnUse" x1="944.7068" y1="97.9529" x2="976.5748" y2="131.0011" gradientTransform="matrix(0.9849 -0.1732 0.1732 0.9849 -10.7896 146.6061)">
		<stop  offset="2.758789e-03" style="stop-color:#FED5D1"/>
		<stop  offset="0.2056" style="stop-color:#FED6CB"/>
		<stop  offset="0.4702" style="stop-color:#FED9BB"/>
		<stop  offset="0.7676" style="stop-color:#FFDFA0"/>
		<stop  offset="1" style="stop-color:#FFE486"/>
	</linearGradient>
	<path class="st29" d="M979.7,112.1c0,0,5.9-7.7-3.6-12.4c-5.5-2.8-0.5-8.3,2.4-3.5c-3.5-19.2-21.7-17.7-29.1-6.6
		s-0.5,26.9,13.6,24.6c-8.3-2.1-2.2-11.3,3.1-6.5c4.5,4,7,3.3,9.3,2.1c-4-1.4-1.4-5.8,1.4-3.6C979.4,108.2,979.7,112.1,979.7,112.1
		L979.7,112.1z M979.7,112.1"/>
	<path class="st30" d="M940.5,109.6c14.2-1.6,27.4-20.6,24-34.5"/>
	<path class="st31" d="M838.4,32.2c3.7,1.5,8,3.6,12.5,6.5c5.9,3.8,10.3,7.9,13.6,11.3c3-1.1,7.5,1.6,7.5,1.6l4.8,6.2l42.6,26.7
		c0,0,4.6-0.2,6.8-0.3c2.3-0.1,5.1,3.8,5.1,3.8c2.4-0.8,4.7-1.5,7.1-2.3c0.2,0,0.5,0,0.7,0.2c0.8,0.6,0.7,2.1,0.7,2.6
		c-0.2,4.1,1.4,5.5,0.6,14.6c-0.1,1.2-0.3,3-0.6,5.1c4.5-1.2,7.7-3,9.6-4.3c9.3-6.3,12.2-16,13-18.5c0.2-0.8,1.1-3.8,1.4-7.9
		c0.2-2.9,0.4-5-0.2-7.5c-0.4-1.6-1.5-5.1-5.4-8.6l-3.8-2.8L865,6.9c-1-0.5-19.2-10.2-33.2-1c-3.7,2.5-6.3,5.6-7.9,8.5
		c-0.7,1.2-1.9,3.3-2.3,6.3c-0.4,2.9,0,5.2,0.4,6.5c2.4,0.3,5.2,0.9,8.2,1.8C833.3,30,836.1,31.1,838.4,32.2z"/>
	<path class="st31" d="M821.1,27.2c-2.5-1.7-6-3.9-10.4-5.8c-2.7-1.2-6-2.7-10.1-3.6c-4.1-0.9-12.6-2.7-21,1.6c-2,1-6.1,3.2-9,8
		c-5,8.2-2.1,17.2-1.6,18.7c3.3-3.9,8.6-9.1,16.4-13.3C800.6,24.7,815.5,26.3,821.1,27.2z"/>
	<path class="st32" d="M778.8,26.5c-2,1-6.1,3.2-9,8c-1,1.6-1.6,3.2-2.1,4.8c0.2,3.4,1,6,1.3,6.8c3.3-3.9,8.6-9.1,16.4-13.3
		c7.3-3.8,14.4-5.5,20.5-6.1c-1.8-0.7-3.8-1.3-6-1.8C795.7,24,787.2,22.2,778.8,26.5z"/>
	<path class="st11" d="M821.9,27.2c-1.3-6.8,0.5-10.8,1.3-12.3C830,2.4,848-3.6,870.8,10l83.6,48.5c5.9,3.4,10.1,9.6,9.8,16.4
		c-0.6,18-14.7,32.3-24.4,33.2"/>
	<path class="st33" d="M940,111.4c6,0.5,13.8-3.8,19.8-11.5c8.1-10.4,9.9-23,4.1-28.1"/>
	<path class="st32" d="M948.9,80.2l-3.8-2.8l-89.5-51.6c-1-0.5-19.2-10.2-33.2-1c-4.6,3,24.3,8.3,28.5,14
		c10.3,7,10.6,10.4,21.1,12.9c0,0,4.8,6.2,4.8,6.2l42.6,26.7c2.8-0.3,9.9-1.2,11.9,3.5c2.7-0.4,9.1-4.9,8.5,0.5
		c0.1,3.5,1.7,12.2,0.1,19.7C954.8,105.2,960.3,91.6,948.9,80.2z"/>
	<path class="st11" d="M768.9,45.9c-4.8-11.8,2.7-24.8,15-28.3c12.9-3.5,26.9,2.8,37.6,9.6"/>
	<path class="st34" d="M930.8,88.2c3-0.7,3.7-1,3.7-1c1.3-0.6,2.4-1.5,4.1-1.4c0.3,0,0.6,0.1,0.7,0.1c1.3,9.4,2.2,26.1-5,44.5
		c-2.9,7.3-6.4,13.3-9.7,17.9c-95-10.9-70.8-62.4-97.2-95.8c-7.4-9.4-16-12.5-23.6-14.1c-2.3-0.5-14.5-3-25.4,2.7
		c-3.8,1.9-11.6,7-11.6,7c0,0,8.7-9.5,19.8-15.8c20.7-11.7,47.7-3.5,57.4,1.9c7.7,4.2,13.3,9.2,13.3,9.2c3.1,2.7,3.8,3.9,6.9,6.5
		c5,4.1,9.3,6.2,12.6,7.8c11.5,5.9,21.8,13.2,30,19.1c0.6,0.4,4.4,2.7,12.1,7.4C922.1,86.2,927,89.1,930.8,88.2z"/>
	<path class="st35" d="M924.6,147.9c8.2-11.5,11.4-22.1,11.4-22.1c-7.3,8.3-14.7,15-22.1,20.3L924.6,147.9z"/>
	<path class="st11" d="M876.6,57.8c14.3,8.9,28.5,17.9,42.8,26.8"/>
	<path class="st11" d="M767.1,48.4c7.8-10.1,17.9-15.4,19.4-16.2C808.3,21,830,29,836.5,31.3c14,5.1,23.1,13.5,28,18.7"/>
	<path class="st11" d="M931,88.1c0.6-0.1,1.2-0.2,1.8-0.5l4.9-1.8c0.8-0.3,1.7,0.2,1.8,1c0.5,2.9,0.8,5.9,0.9,8.9
		c0.4,19.2-5.4,38-15.8,52.6"/>
	<path class="st11" d="M811.4,157.6c2.7,1.7,5.4,3.2,8.1,4.6c11.5,5.9,52.3,26.8,86.9,4c7-4.6,13.2-10.7,18.2-17.9
		c-19.9-1.3-35-6.2-46.5-13"/>
	<path class="st11" d="M843.7,90.8c-2.6-7.2-4.4-13.9-6-19.2c-5.2-18-19.6-31.3-36.5-33.7c-12.1-1.7-24.5,2.3-34.2,10.5
		c-2.8,3.6-5.3,7.9-7,12.7c-9.5,26.8,8.5,61.4,35.5,84.7"/>
	<path class="st36" d="M864.5,50c-8,0.4-23,19.8-21.1,39.8c1.9,20.6,21.4,40.1,44,40.7c20,0.5,39.1-14.3,43.2-31
		c3.7-15-4-15.4-4-15.4l-7.2,0.4c0,12.4-7.8,23.5-19.3,27.7c-12.4,4.4-25.8-0.3-32.6-9.2c-9.5-12.4-6.7-33.3,9.1-45.2
		c-0.5-1.3-2-4.2-5.1-6.1C871.4,51.7,868.4,49.9,864.5,50z"/>
	<path class="st36" d="M769,114.3c-0.5,1.6-3.6,12.7,3.4,23.4c6.9,10.5,18.1,12.2,19.8,12.5l3.3-4.3c-4-3.5-8.4-7.6-12.7-12.6
		C776.9,126.5,772.4,120,769,114.3z"/>
	<path class="st11" d="M905.9,109.6c7.4-5.4,12.5-14.2,13.4-25l7.2-0.4c5,1.1,6.2,7.8,4.8,12.8c-2.4,8.6-8.1,21.1-21.8,28.4
		c-7.9,4.3-15.6,5.4-22.2,5.2"/>
	<path class="st37" d="M894.8,122.8c-0.9,2.6-2.7,4.7-5.4,6.5c-0.7,0.5-1.4,0.9-2.2,1.3c0.1,0,0.1,0,0.2,0c20,0.5,39.1-14.3,43.2-31
		c0.2-0.9,0.4-1.8,0.6-2.6C925.5,110.1,910.8,121.1,894.8,122.8z"/>
	<path class="st37" d="M856.6,106.7c-6.1-7-10.2-15.7-11-24.5c-0.4-4-0.1-8,0.7-11.8c-2.3,5.9-3.6,12.6-3,19.4
		c0.6,6.3,2.8,12.4,6.2,18C852,107.6,854.6,107.6,856.6,106.7z"/>
	<path class="st37" d="M792.7,144.4c-1.6-0.2-12.9-1.9-19.8-12.5c-3.5-5.4-4.5-10.9-4.5-15.3c-0.8,4.1-1.5,12.7,3.9,21
		c6.9,10.5,18.1,12.2,19.8,12.5l3.3-4.3c-0.8-0.7-1.5-1.4-2.3-2.1L792.7,144.4z"/>
	<path class="st11" d="M767.9,112.3c7.1,12.7,16.7,24.1,27.7,33.6"/>
	<path class="st34" d="M837.4,113.1c2.4-3.2,6.1-2.8,11.8-4.5c1-0.3,7.9-2.3,13.5-7.1c2.2-1.9,5.5-5.2,8.1-10.8
		c0,0,16.7-20.2,35.7-2.9c1.1,2.7,2.4,7.1,2.1,12.5c-0.5,8.7-5.1,14.6-8.5,18.9c-2.4,3.1-9.6,11.5-22,16c-4,1.4-11.6,4.1-20.8,2.3
		c-3-0.6-5.2-1.4-5.7-1.7c-7.2-2.9-16.4-10.1-15.7-18C835.8,117.1,835.9,115,837.4,113.1z"/>
	<path class="st34" d="M768.6,127.3c-0.7,3.5-1.5,8.7-1.1,15c0.2,3.6,0.5,7,1.9,10.8c0.9,2.2,5,11.9,15,15.1
		c10.1,3.2,22-1.6,27.4-10.7c4.3-7.3,3-14.8,2.6-17.1c-0.2-0.8-0.8-3.4-3.3-5.3c-0.7-0.5-2.6-2-4.7-1.7c-1.8,0.2-2.7,1.5-7.4,7.9
		c-2,2.7-4,5.4-6,8.2l0,0c-2.2-0.2-11.7-1.3-18.6-9.4C770.3,135,769,130,768.6,127.3z"/>
	<path class="st35" d="M769.4,153.1c0,0,24.1,24.6,45.4-10.8c0.7,10.1-4.1,19.5-12.3,23.9c-8.6,4.6-17.3,1.6-18.7,1.1
		C773.6,163.6,769.9,154.4,769.4,153.1z"/>
	
		<linearGradient id="SVGID_6_" gradientUnits="userSpaceOnUse" x1="805.9366" y1="45.4263" x2="807.7071" y2="71.983" gradientTransform="matrix(0.9849 -0.1732 0.1732 0.9849 -10.7896 146.6061)">
		<stop  offset="2.758789e-03" style="stop-color:#FED5D1"/>
		<stop  offset="0.2056" style="stop-color:#FED6CB"/>
		<stop  offset="0.4702" style="stop-color:#FED9BB"/>
		<stop  offset="0.7676" style="stop-color:#FFDFA0"/>
		<stop  offset="1" style="stop-color:#FFE486"/>
	</linearGradient>
	<path class="st38" d="M832.2,42.1c-14.2,1.6-39.2,6.6-63.4,24.4c-9.3,6.8-16.5,14.1-21.9,20.6c0.4,2.4,1.1,5.4,2.6,8.7
		c2,4.4,4.5,7.7,6.4,9.8c0.8,0.7,2,1.5,3.5,2.2c2.3,1,4.5,1.2,5.8,1.3l-2-4.2l12-10.9l-1.3-6.1l2.3-10.6l7.4-4l7.4,1.4l4.4,2.5
		l1.8,2.1c6.7-3.2,15.1-6.5,24.8-9.2c9.3-2.5,17.8-3.9,25-4.5c-1.5-0.4-7.6-2.1-11.7-8.2C830.7,50.6,831.9,43.5,832.2,42.1z"/>
	<g>
		
			<linearGradient id="SVGID_7_" gradientUnits="userSpaceOnUse" x1="813.4577" y1="49.241" x2="820.236" y2="67.9809" gradientTransform="matrix(0.9849 -0.1732 0.1732 0.9849 -10.7896 146.6061)">
			<stop  offset="2.758789e-03" style="stop-color:#FF7773"/>
			<stop  offset="1" style="stop-color:#FFAB47"/>
		</linearGradient>
		<path class="st39" d="M806.2,75.8l2.6-23c-0.9,0.4-3.9,1.1-4.8,1.5l-2.6,23.1C802.3,76.9,805.3,76.2,806.2,75.8z"/>
		
			<linearGradient id="SVGID_8_" gradientUnits="userSpaceOnUse" x1="779.5515" y1="56.7087" x2="790.2282" y2="86.2268" gradientTransform="matrix(0.9849 -0.1732 0.1732 0.9849 -10.7896 146.6061)">
			<stop  offset="2.758789e-03" style="stop-color:#FF7773"/>
			<stop  offset="1" style="stop-color:#FFAB47"/>
		</linearGradient>
		<path class="st40" d="M793.1,76l1.8-18.6c-6.2,2.8-12.7,5.9-19.2,9.8c-15.8,9.4-20.4,14.2-28.6,20.7c0.4,2.2,1.2,4.9,2.4,7.8
			c2,4.4,4.5,7.7,6.4,9.8c0.8,0.7,2,1.5,3.5,2.2c2.3,1,4.5,1.2,5.8,1.3l-2-4.2l12-10.9l-1.3-6.1l2.3-10.6l7.4-4l7.4,1.4L793.1,76z"
			/>
		
			<linearGradient id="SVGID_9_" gradientUnits="userSpaceOnUse" x1="854.7059" y1="64.9565" x2="856.22" y2="69.1425" gradientTransform="matrix(0.9849 -0.1732 0.1732 0.9849 -10.7896 146.6061)">
			<stop  offset="2.758789e-03" style="stop-color:#FF7773"/>
			<stop  offset="1" style="stop-color:#FFAB47"/>
		</linearGradient>
		<path class="st41" d="M841.4,66.2c1.9-0.3,3.7-0.5,5.5-0.6c-0.8-0.2-2.8-0.8-5.1-2.1L841.4,66.2z"/>
	</g>
	<path class="st16" d="M768.4,126.6c-0.6,2.3-1,4.9-1.3,7.6c-0.7,8.4,0.6,15.9,3.3,21.3c4.8,9.7,12.7,14.5,24,13.2
		c6.4-0.8,12.5-5,17-11.1c3.1-4.3,6.7-18.4-1.6-23.6c-6.3-4-9.4,6.8-18.8,17.5"/>
	<path class="st16" d="M870.9,90.4C869,94.8,866,99,860,103.9c-9.6,7.7-21,3.1-24,11.7c-1.8,5.3,1.6,12.1,10,17.5
		c27.4,18,72.3-16.3,60.5-45.2"/>
	<path class="st11" d="M769,114.3c-0.5,1.7-3.3,13.2,3.9,23.6c4.5,6.5,11.7,10.7,19.6,11.7"/>
	<path class="st42" d="M819.9,162.5"/>
	<path class="st11" d="M833.3,42c-12.7,1.6-33.7,6.1-55.5,19.7c-13.9,8.7-23.9,18.4-30.7,26.2c0,1.3,0.4,11.7,8.8,17.6
		c3.9,2.7,7.8,3.3,10.1,3.5"/>
	<path class="st16" d="M797.3,79.2c14.8-7.3,31.7-12.1,48.2-13.6"/>
	<path class="st16" d="M762.3,104.9c3.9-4.1,8-7.9,12.4-11.4"/>
	<path class="st43" d="M860.4,51.5c0-2.6-0.6-5.4-1.9-8c-4-7.7-12.7-11.1-19.6-7.6c-6.9,3.5-9.3,12.6-5.3,20.4c3,5.9,8.8,9.3,14.5,9
		"/>
	<path class="st44" d="M837.5,55.6c-4-7.7-1.6-16.8,5.3-20.4c0.6-0.3,1.1-0.5,1.7-0.7c-1.9,0-3.8,0.5-5.6,1.4
		c-6.9,3.5-9.3,12.6-5.3,20.4c3,5.9,8.8,9.3,14.5,9l0.8-0.9C844.3,63.6,839.9,60.4,837.5,55.6z"/>
	<path class="st11" d="M860.4,51.5c0-2.6-0.6-5.4-1.9-8c-4-7.7-12.7-11.1-19.6-7.6c-6.9,3.5-9.3,12.6-5.3,20.4c3,5.9,8.8,9.3,14.5,9
		"/>
	<path class="st45" d="M859.1,51.3c0.2-1.5,0.4-4.9-1.5-8.3c-2.6-4.5-9-8.5-14-5.9c-4.8,2.5-6.3,9.1-3.4,14.8
		c2.4,4.7,7.1,7.3,11.3,6.8c1.8-1.6,3.7-3.3,5.5-5.2C857.7,52.7,858.4,52,859.1,51.3z"/>
	<path class="st46" d="M844,51.2c-2.9-5.7-1.4-12.4,3.4-14.8c0.1,0,0.1-0.1,0.2-0.1c-1.4-0.1-2.8,0.1-4.1,0.8
		c-4.8,2.5-6.3,9.1-3.4,14.8c2.4,4.7,7.1,7.3,11.3,6.8c0.3-0.3,0.6-0.5,0.9-0.8C849,57.3,845.8,54.9,844,51.2z"/>
	<path class="st16" d="M859.1,51.3c0.2-1.5,0.4-4.9-1.5-8.3c-2.6-4.5-9-8.5-14-5.9c-4.8,2.5-6.3,9.1-3.4,14.8
		c2.4,4.7,7.1,7.3,11.3,6.8c1.8-1.6,3.7-3.3,5.5-5.2C857.7,52.7,858.4,52,859.1,51.3z"/>
	<path class="st16" d="M797.1,79.3c-2.8-4-7.8-6.3-12.9-5.4c-7.1,1.2-11.8,8-10.6,15.1c0.3,1.5,0.8,3,1.5,4.2"/>
	<path class="st47" d="M787.9,94.6c-0.1,0.1-0.2,0.1-0.4,0.1c-3,0.1-9.1,0-15.8-3.4c-6.7-3.4-10.6-8.5-12.5-11.6
		c-0.4-0.6,0.1-1.2,0.9-1.2c0,0,7.7,0.3,13,0.3c6.4,0,15.2-0.8,15.5-0.9c0.3,0,0.6,0,0.8,0.2c1,1,3.6,3.9,3.4,8.2
		C792.4,91.3,788.8,94,787.9,94.6z"/>
	<path class="st35" d="M790.7,79.9c0.8,1.4,1.5,3.3,1.4,5.6c0,0.8-0.2,1.6-0.4,2.3c-1,1.2-2,1.9-2.4,2.2c-0.1,0.1-0.2,0.1-0.4,0.1
		c-3,0.1-9.1,0-15.8-3.4c-4.5-2.3-7.7-5.3-9.9-7.9c-1.9-0.1-3.2-0.1-3.2-0.1c-0.8,0-1.3,0.5-0.9,1.2c1.9,3.1,5.8,8.2,12.5,11.6
		c6.6,3.4,12.8,3.5,15.8,3.4c0.1,0,0.3,0,0.4-0.1c0.9-0.6,4.5-3.3,4.8-8.2C792.8,83.6,791.7,81.3,790.7,79.9z"/>
	<path class="st16" d="M787.9,94.6c-0.1,0.1-0.2,0.1-0.4,0.1c-3,0.1-9.1,0-15.8-3.4c-6.7-3.4-10.6-8.5-12.5-11.6
		c-0.4-0.6,0.1-1.2,0.9-1.2c0,0,7.7,0.3,13,0.3c6.4,0,15.2-0.8,15.5-0.9c0.3,0,0.6,0,0.8,0.2c1,1,3.6,3.9,3.4,8.2
		C792.4,91.3,788.8,94,787.9,94.6z"/>
	<path class="st11" d="M849.7,108.5c-4-6.7-6.3-14.5-6.3-22.6c-0.1-14.1,6.5-24.5,12.1-30.8c3.9-4.4,10.7-6.9,15.8-3.8
		c2.1,1.3,5.3,6.5,5.3,6.5c-15,13.2-17.7,28.4-11.4,41.4"/>
</g>
</svg>
