<svg width="21" height="21" viewBox="0 0 21 21" fill="none" xmlns="http://www.w3.org/2000/svg">
<path fill-rule="evenodd" clip-rule="evenodd" d="M15.1174 12.1531C15.7078 12.1531 16.2033 12.6403 16.113 13.2233C15.5834 16.6533 12.6471 19.2 9.10567 19.2C5.18751 19.2 2.01172 16.0242 2.01172 12.107C2.01172 8.87964 4.46356 5.87333 7.22396 5.19359C7.81711 5.04714 8.42501 5.46438 8.42501 6.07504C8.42501 10.2124 8.56409 11.2827 9.34974 11.8648C10.1354 12.4469 11.0592 12.1531 15.1174 12.1531Z" stroke="#9A70D3" stroke-width="1.5" stroke-linecap="round" stroke-linejoin="round"/>
<path fill-rule="evenodd" clip-rule="evenodd" d="M18.9796 8.70767C19.0266 6.04952 15.7615 1.76478 11.7825 1.83846C11.4731 1.84399 11.2253 2.10188 11.2115 2.41044C11.1111 4.59609 11.2465 7.42833 11.322 8.71228C11.345 9.11202 11.6591 9.42609 12.0579 9.44912C13.3778 9.52465 16.3132 9.6278 18.4675 9.30175C18.7604 9.25754 18.975 9.00333 18.9796 8.70767Z" stroke="#9A70D3" stroke-width="1.5" stroke-linecap="round" stroke-linejoin="round"/>
</svg>
