<svg width="18" height="18" viewBox="0 0 18 18" fill="none" xmlns="http://www.w3.org/2000/svg">
<path fill-rule="evenodd" clip-rule="evenodd" d="M7.19363 11.4053C9.96038 11.4053 12.3251 11.8245 12.3251 13.4993C12.3251 15.174 9.97613 15.6053 7.19363 15.6053C4.42613 15.6053 2.06213 15.1898 2.06213 13.5143C2.06213 11.8388 4.41038 11.4053 7.19363 11.4053Z" stroke="#B8A7D9" stroke-width="1.5" stroke-linecap="round" stroke-linejoin="round"/>
<path fill-rule="evenodd" clip-rule="evenodd" d="M7.19361 9.015C5.37711 9.015 3.90411 7.54275 3.90411 5.72625C3.90411 3.90975 5.37711 2.4375 7.19361 2.4375C9.00936 2.4375 10.4824 3.90975 10.4824 5.72625C10.4891 7.536 9.02661 9.00825 7.21686 9.015H7.19361Z" stroke="#B8A7D9" stroke-width="1.5" stroke-linecap="round" stroke-linejoin="round"/>
<path d="M12.3623 8.16145C13.5631 7.9927 14.4878 6.9622 14.4901 5.71495C14.4901 4.4857 13.5938 3.4657 12.4186 3.27295" stroke="#B8A7D9" stroke-width="1.5" stroke-linecap="round" stroke-linejoin="round"/>
<path d="M13.9465 11.0493C15.1098 11.2226 15.922 11.6306 15.922 12.4706C15.922 13.0488 15.5395 13.4238 14.9215 13.6586" stroke="#B8A7D9" stroke-width="1.5" stroke-linecap="round" stroke-linejoin="round"/>
</svg>
