<svg width="21" height="21" viewBox="0 0 21 21" fill="none" xmlns="http://www.w3.org/2000/svg">
<path fill-rule="evenodd" clip-rule="evenodd" d="M8.393 13.306C11.6209 13.306 14.3798 13.7952 14.3798 15.749C14.3798 17.7029 11.6393 18.206 8.393 18.206C5.16425 18.206 2.40625 17.7213 2.40625 15.7665C2.40625 13.8118 5.14588 13.306 8.393 13.306Z" stroke="#9A70D3" stroke-width="1.5" stroke-linecap="round" stroke-linejoin="round"/>
<path fill-rule="evenodd" clip-rule="evenodd" d="M8.39244 10.5174C6.27319 10.5174 4.55469 8.79975 4.55469 6.6805C4.55469 4.56125 6.27319 2.84363 8.39244 2.84363C10.5108 2.84363 12.2293 4.56125 12.2293 6.6805C12.2372 8.79188 10.5309 10.5095 8.41956 10.5174H8.39244Z" stroke="#9A70D3" stroke-width="1.5" stroke-linecap="round" stroke-linejoin="round"/>
<path d="M14.4238 9.52149C15.8247 9.32461 16.9036 8.12236 16.9062 6.66724C16.9062 5.23311 15.8606 4.04311 14.4895 3.81824" stroke="#9A70D3" stroke-width="1.5" stroke-linecap="round" stroke-linejoin="round"/>
<path d="M16.2715 12.8907C17.6286 13.0929 18.5762 13.5689 18.5762 14.5489C18.5762 15.2235 18.13 15.661 17.409 15.9349" stroke="#9A70D3" stroke-width="1.5" stroke-linecap="round" stroke-linejoin="round"/>
</svg>
