<?xml version="1.0" encoding="utf-8"?>
<!-- Generator: Adobe Illustrator 25.2.1, SVG Export Plug-In . SVG Version: 6.00 Build 0)  -->
<svg version="1.1" id="Layer_1" xmlns="http://www.w3.org/2000/svg" xmlns:xlink="http://www.w3.org/1999/xlink" x="0px" y="0px"
	 viewBox="0 0 32 32" style="enable-background:new 0 0 32 32;" xml:space="preserve">
<path d="M32,16c0-8.8-7.2-16-16-16S0,7.2,0,16s7.2,16,16,16S32,24.8,32,16z M14.5,23.5c-0.7-0.7-0.7-2,0-2.7l2.8-2.8H9.9
	C8.9,18,8,17.1,8,16.1v-0.1C8,14.9,8.9,14,9.9,14h7.4l-2.8-2.7c-0.7-0.7-0.7-2,0-2.7c0.8-0.7,2-0.7,2.7,0l6.2,6.1
	c0.7,0.7,0.7,2,0,2.7l-6.2,6.1C16.5,24.2,15.3,24.2,14.5,23.5z"/>
</svg>
