<?xml version="1.0" encoding="utf-8"?>
<!-- Generator: Adobe Illustrator 25.2.1, SVG Export Plug-In . SVG Version: 6.00 Build 0)  -->
<svg version="1.1" id="Layer_1" xmlns="http://www.w3.org/2000/svg" xmlns:xlink="http://www.w3.org/1999/xlink" x="0px" y="0px"
	 viewBox="0 0 90 90" style="enable-background:new 0 0 90 90;" xml:space="preserve">
<path d="M45,90c24.9,0,45-20.1,45-45S69.9,0,45,0S0,20.1,0,45S20.1,90,45,90z M47.5,15.8c4.1,0,7.5,3.4,7.5,7.5s-3.4,7.5-7.5,7.5
	S40,27.4,40,23.2S43.4,15.8,47.5,15.8z M45,34.2c7.5,0,9.3,4.4,8.5,9.9L50,66.8c0,0,2.5,0,7.5-2.5c0,0-2.5,10-12.5,10
	c-7.5,0-9.3-4.4-8.5-9.9L40,41.8c0,0-2.5,0-7.5,2.5C32.5,44.2,35,34.2,45,34.2z"/>
</svg>
