<svg style="white-space: pre;" shape-rendering="geometricPrecision" text-rendering="geometricPrecision" viewBox="0 0 1000 200" xmlns="http://www.w3.org/2000/svg">
    <defs>
        <clipPath id="SVGID_2_">
            <path d="M920.5,169.4L37.1,169.4C24.7,169.4,14.6,159.3,14.6,146.9L14.6,62.8C14.6,50.4,24.7,40.3,37.1,40.3L920.5,40.3C932.9,40.3,943,50.4,943,62.8L943,146.9C943,159.3,932.9,169.4,920.5,169.4Z" id="SVGID_1_"></path>
        </clipPath>
        <clipPath id="SVGID_2_-2">
            <path d="M920.5,169.4L37.1,169.4C24.7,169.4,14.6,159.3,14.6,146.9L14.6,62.8C14.6,50.4,24.7,40.3,37.1,40.3L920.5,40.3C932.9,40.3,943,50.4,943,62.8L943,146.9C943,159.3,932.9,169.4,920.5,169.4Z" id="SVGID_1_-2"></path>
        </clipPath>
        <clipPath id="SVGID_4_">
            <path d="M917.3,71.5C885.8,67.4,849,62.6,817.6,58.5C815.2,58.2,812.9,59.9,812.6,62.4L809.3,87.7C808.6,93.2,812.3,98.1,817.6,98.8L845.7,102.5C851,103.2,855.9,99.3,856.6,93.9L858,83.3C858.4,80,861.4,77.7,864.6,78.1L866.8,78.4C870,78.8,872.3,81.8,871.8,85.1L870.4,95.7C869.7,101.2,873.4,106.1,878.7,106.8L906.8,110.5C912.1,111.2,917,107.3,917.7,101.9L921,76.6C921.5,74.1,919.7,71.8,917.3,71.5Z" id="SVGID_3_"></path>
        </clipPath>
        <clipPath id="SVGID_4_-2">
            <path transform="translate(-818.3,-52.1)" d="M917.3,71.5C885.8,67.4,849,62.6,817.6,58.5C815.2,58.2,812.9,59.9,812.6,62.4L809.3,87.7C808.6,93.2,812.3,98.1,817.6,98.8L845.7,102.5C851,103.2,855.9,99.3,856.6,93.9L858,83.3C858.4,80,861.4,77.7,864.6,78.1L866.8,78.4C870,78.8,872.3,81.8,871.8,85.1L870.4,95.7C869.7,101.2,873.4,106.1,878.7,106.8L906.8,110.5C912.1,111.2,917,107.3,917.7,101.9L921,76.6C921.5,74.1,919.7,71.8,917.3,71.5Z" id="SVGID_3_-2"></path>
        </clipPath>
        <clipPath id="SVGID_4_-3">
            <path transform="translate(-832.6,-56)" d="M917.3,71.5C885.8,67.4,849,62.6,817.6,58.5C815.2,58.2,812.9,59.9,812.6,62.4L809.3,87.7C808.6,93.2,812.3,98.1,817.6,98.8L845.7,102.5C851,103.2,855.9,99.3,856.6,93.9L858,83.3C858.4,80,861.4,77.7,864.6,78.1L866.8,78.4C870,78.8,872.3,81.8,871.8,85.1L870.4,95.7C869.7,101.2,873.4,106.1,878.7,106.8L906.8,110.5C912.1,111.2,917,107.3,917.7,101.9L921,76.6C921.5,74.1,919.7,71.8,917.3,71.5Z" id="SVGID_3_-3"></path>
        </clipPath>
        <clipPath id="SVGID_4_-4">
            <path transform="translate(-876.3,-56.1)" d="M917.3,71.5C885.8,67.4,849,62.6,817.6,58.5C815.2,58.2,812.9,59.9,812.6,62.4L809.3,87.7C808.6,93.2,812.3,98.1,817.6,98.8L845.7,102.5C851,103.2,855.9,99.3,856.6,93.9L858,83.3C858.4,80,861.4,77.7,864.6,78.1L866.8,78.4C870,78.8,872.3,81.8,871.8,85.1L870.4,95.7C869.7,101.2,873.4,106.1,878.7,106.8L906.8,110.5C912.1,111.2,917,107.3,917.7,101.9L921,76.6C921.5,74.1,919.7,71.8,917.3,71.5Z" id="SVGID_3_-4"></path>
        </clipPath>
        <clipPath id="SVGID_4_-5">
            <path transform="translate(-890.6,-59.6)" d="M917.3,71.5C885.8,67.4,849,62.6,817.6,58.5C815.2,58.2,812.9,59.9,812.6,62.4L809.3,87.7C808.6,93.2,812.3,98.1,817.6,98.8L845.7,102.5C851,103.2,855.9,99.3,856.6,93.9L858,83.3C858.4,80,861.4,77.7,864.6,78.1L866.8,78.4C870,78.8,872.3,81.8,871.8,85.1L870.4,95.7C869.7,101.2,873.4,106.1,878.7,106.8L906.8,110.5C912.1,111.2,917,107.3,917.7,101.9L921,76.6C921.5,74.1,919.7,71.8,917.3,71.5Z" id="SVGID_3_-5"></path>
        </clipPath>
    </defs>
    <style>
@keyframes redpenguin1_t { 0% { transform: translate(76.7416px,159.576px) rotate(0deg) translate(-62.7724px,-141.391px); animation-timing-function: cubic-bezier(0.42,0,0.58,1); } 16.6666% { transform: translate(76.7416px,159.576px) rotate(-5deg) translate(-62.7724px,-141.391px); animation-timing-function: cubic-bezier(0.42,0,0.58,1); } 33.3333% { transform: translate(76.7416px,159.576px) rotate(-6deg) translate(-62.7724px,-141.391px); animation-timing-function: cubic-bezier(0.42,0,0.58,1); } 50% { transform: translate(76.7416px,159.576px) rotate(0deg) translate(-62.7724px,-141.391px); animation-timing-function: cubic-bezier(0.42,0,0.58,1); } 66.6666% { transform: translate(76.7416px,159.576px) rotate(0deg) translate(-62.7724px,-141.391px); animation-timing-function: cubic-bezier(0.42,0,0.58,1); } 83.3333% { transform: translate(76.7416px,159.576px) rotate(5deg) translate(-62.7724px,-141.391px); animation-timing-function: cubic-bezier(0.42,0,0.58,1); } 100% { transform: translate(76.7416px,159.576px) rotate(0deg) translate(-62.7724px,-141.391px); } }
@keyframes a0_t { 0% { transform: translate(82.4783px,73.6153px) scale(1,1) translate(-87.05px,-91.8px); } 25.8333% { transform: translate(82.4783px,73.6153px) scale(1,1) translate(-87.05px,-91.8px); animation-timing-function: cubic-bezier(0.42,0,0.58,1); } 30% { transform: translate(82.4783px,73.6153px) scale(1,0) translate(-87.05px,-91.8px); animation-timing-function: cubic-bezier(0.42,0,0.58,1); } 34.1666% { transform: translate(82.4783px,73.6153px) scale(1,1) translate(-87.05px,-91.8px); } 100% { transform: translate(82.4783px,73.6153px) scale(1,1) translate(-87.05px,-91.8px); } }
@keyframes egg_t { 0% { transform: translate(50.6883px,3.42196px) rotate(0deg) translate(-55.26px,-21.6067px); } 16.6666% { transform: translate(50.6883px,3.42196px) rotate(0deg) translate(-55.26px,-21.6067px); animation-timing-function: cubic-bezier(0.42,0,0.58,1); } 33.3333% { transform: translate(50.6883px,3.42196px) rotate(3deg) translate(-55.26px,-21.6067px); animation-timing-function: cubic-bezier(0.42,0,0.58,1); } 50% { transform: translate(50.6883px,3.42196px) rotate(0deg) translate(-55.26px,-21.6067px); } 100% { transform: translate(50.6883px,3.42196px) rotate(0deg) translate(-55.26px,-21.6067px); } }
@keyframes redpenguin2_t { 0% { transform: translate(167.763px,157.624px) rotate(0deg) translate(-51.6396px,-93.224px); } 8.3333% { transform: translate(167.763px,157.624px) rotate(0deg) translate(-51.6396px,-93.224px); animation-timing-function: cubic-bezier(0.42,0,0.58,1); } 25% { transform: translate(167.763px,157.624px) rotate(5deg) translate(-51.6396px,-93.224px); animation-timing-function: cubic-bezier(0.42,0,0.58,1); } 41.6666% { transform: translate(167.763px,157.624px) rotate(0deg) translate(-51.6396px,-93.224px); } 100% { transform: translate(167.763px,157.624px) rotate(0deg) translate(-51.6396px,-93.224px); } }
@keyframes hand_left_t { 0% { transform: translate(81.7715px,65.9024px) rotate(0deg) translate(-191.171px,-130.302px); animation-timing-function: cubic-bezier(0.42,0,0.58,1); } 16.6666% { transform: translate(81.7715px,65.9024px) rotate(10deg) translate(-191.171px,-130.302px); animation-timing-function: cubic-bezier(0.42,0,0.58,1); } 33.3333% { transform: translate(81.7715px,65.9024px) rotate(0deg) translate(-191.171px,-130.302px); animation-timing-function: cubic-bezier(0.42,0,0.58,1); } 50% { transform: translate(81.7715px,65.9024px) rotate(10deg) translate(-191.171px,-130.302px); animation-timing-function: cubic-bezier(0.42,0,0.58,1); } 66.6666% { transform: translate(81.7715px,65.9024px) rotate(0deg) translate(-191.171px,-130.302px); animation-timing-function: cubic-bezier(0.42,0,0.58,1); } 83.3333% { transform: translate(81.7715px,65.9024px) rotate(10deg) translate(-191.171px,-130.302px); animation-timing-function: cubic-bezier(0.42,0,0.58,1); } 100% { transform: translate(81.7715px,65.9024px) rotate(0deg) translate(-191.171px,-130.302px); } }
@keyframes eyes_t { 0% { transform: translate(24.1px,21px); } 16.6666% { transform: translate(24.1px,21px); animation-timing-function: cubic-bezier(0.42,0,0.58,1); } 25% { transform: translate(26.4272px,20.23px); animation-timing-function: cubic-bezier(0.42,0,0.58,1); } 33.3333% { transform: translate(22.9015px,20.0579px); animation-timing-function: cubic-bezier(0.42,0,0.58,1); } 41.6666% { transform: translate(24.1px,21px); } 100% { transform: translate(24.1px,21px); } }
@keyframes eyes-2_t { 0% { transform: translate(33.8915px,18.5633px) rotate(-5deg) scale(1,1) translate(-33.95px,-21.3px); } 8.3333% { transform: translate(33.8915px,18.5633px) rotate(-5deg) scale(1,1) translate(-33.95px,-21.3px); animation-timing-function: cubic-bezier(0.42,0,0.58,1); } 12.5% { transform: translate(33.8915px,18.5633px) rotate(-5deg) scale(1,0) translate(-33.95px,-21.3px); animation-timing-function: cubic-bezier(0.42,0,0.58,1); } 16.6666% { transform: translate(33.8915px,18.5633px) rotate(-5deg) scale(1,1) translate(-33.95px,-21.3px); } 66.6666% { transform: translate(33.8915px,18.5633px) rotate(-5deg) scale(1,1) translate(-33.95px,-21.3px); animation-timing-function: cubic-bezier(0.42,0,0.58,1); } 70.8333% { transform: translate(33.8915px,18.5633px) rotate(-5deg) scale(1,0) translate(-33.95px,-21.3px); animation-timing-function: cubic-bezier(0.42,0,0.58,1); } 75% { transform: translate(33.8915px,18.5633px) rotate(-5deg) scale(1,1) translate(-33.95px,-21.3px); } 100% { transform: translate(33.8915px,18.5633px) rotate(-5deg) scale(1,1) translate(-33.95px,-21.3px); } }
@keyframes a1_t { 0% { transform: translate(828.004px,169.097px) rotate(0deg) translate(-821.004px,-169.097px); } 33.3333% { transform: translate(828.004px,169.097px) rotate(0deg) translate(-821.004px,-169.097px); animation-timing-function: cubic-bezier(0.42,0,0.58,1); } 50% { transform: translate(828.004px,169.097px) rotate(5deg) translate(-821.004px,-169.097px); animation-timing-function: cubic-bezier(0.42,0,0.58,1); } 66.6666% { transform: translate(828.004px,169.097px) rotate(5deg) translate(-821.004px,-169.097px); animation-timing-function: cubic-bezier(0.42,0,0.58,1); } 83.3333% { transform: translate(828.004px,169.097px) rotate(0deg) translate(-821.004px,-169.097px); } 100% { transform: translate(828.004px,169.097px) rotate(0deg) translate(-821.004px,-169.097px); } }
@keyframes a2_t { 0% { transform: translate(832.534px,132.43px); } 33.3333% { transform: translate(832.534px,132.43px); animation-timing-function: cubic-bezier(0.42,0,0.58,1); } 50% { transform: translate(832.534px,142.43px); animation-timing-function: cubic-bezier(0.42,0,0.58,1); } 58.3333% { transform: translate(831.963px,136.878px); animation-timing-function: cubic-bezier(0.42,0,0.58,1); } 66.6666% { transform: translate(832.534px,142.43px); animation-timing-function: cubic-bezier(0.42,0,0.58,1); } 83.3333% { transform: translate(832.534px,132.43px); } 100% { transform: translate(832.534px,132.43px); } }
@keyframes hand_right_t { 0% { transform: rotate(0deg) translate(-832.534px,-132.43px); animation-timing-function: cubic-bezier(0.42,0,0.58,1); } 16.6666% { transform: rotate(-10deg) translate(-832.534px,-132.43px); animation-timing-function: cubic-bezier(0.42,0,0.58,1); } 33.3333% { transform: rotate(40deg) translate(-832.534px,-132.43px); animation-timing-function: cubic-bezier(0.42,0,0.58,1); } 83.3333% { transform: rotate(40deg) translate(-832.534px,-132.43px); animation-timing-function: cubic-bezier(0.42,0,0.58,1); } 100% { transform: rotate(0deg) translate(-832.534px,-132.43px); } }
@keyframes eyebrow_right_t { 0% { transform: translate(-2.597px,8.7361px); } 33.3333% { transform: translate(-2.597px,8.7361px); animation-timing-function: cubic-bezier(0.42,0,0.58,1); } 50% { transform: translate(2.125px,-3.0694px); animation-timing-function: cubic-bezier(0.42,0,0.58,1); } 66.6666% { transform: translate(2.125px,-3.0694px); animation-timing-function: cubic-bezier(0.42,0,0.58,1); } 83.3333% { transform: translate(-2.597px,8.7361px); } 100% { transform: translate(-2.597px,8.7361px); } }
@keyframes glasses_t { 0% { transform: translate(0px,0px); } 33.3333% { transform: translate(0px,0px); animation-timing-function: cubic-bezier(0.42,0,0.58,1); } 50% { transform: translate(-1.114px,7.7987px); animation-timing-function: cubic-bezier(0.42,0,0.58,1); } 66.6666% { transform: translate(-1.114px,7.7987px); animation-timing-function: cubic-bezier(0.42,0,0.58,1); } 83.3333% { transform: translate(0px,0px); } 100% { transform: translate(0px,0px); } }
@keyframes hand_left-2_t { 0% { transform: translate(933.821px,155.025px) rotate(0deg) translate(-933.821px,-155.025px); } 33.3333% { transform: translate(933.821px,155.025px) rotate(0deg) translate(-933.821px,-155.025px); animation-timing-function: cubic-bezier(0.42,0,0.58,1); } 50% { transform: translate(933.821px,155.025px) rotate(10deg) translate(-933.821px,-155.025px); animation-timing-function: cubic-bezier(0.42,0,0.58,1); } 66.6666% { transform: translate(933.821px,155.025px) rotate(10deg) translate(-933.821px,-155.025px); animation-timing-function: cubic-bezier(0.42,0,0.58,1); } 83.3333% { transform: translate(933.821px,155.025px) rotate(0deg) translate(-933.821px,-155.025px); } 100% { transform: translate(933.821px,155.025px) rotate(0deg) translate(-933.821px,-155.025px); } }
    </style>
    <g style="white-space: preserve-spaces;" transform="translate(7,0)">
        <path fill="#322352" d="M920.5,169.4L37.1,169.4C24.7,169.4,14.6,159.3,14.6,146.9L14.6,62.8C14.6,50.4,24.7,40.3,37.1,40.3L920.5,40.3C932.9,40.3,943,50.4,943,62.8L943,146.9C943,159.3,932.9,169.4,920.5,169.4Z" class="st0"></path>
        <path fill="#5a3f94" d="M894.8,82.6C888.4,86.2,883.3,91.7,876.9,95.3C854.1,108.2,824.5,93.2,799.7,101.3C787.4,105.3,777.5,114.7,765.8,120.3C737.8,133.8,704.2,124.3,673.7,130.7C646.4,136.4,622.9,154.6,598.8,169.3L920.5,169.3C932.9,169.3,943,159.2,943,146.8L943,80.8C926,77.3,909.2,74.5,894.8,82.6Z" class="st1"></path>
        <path fill="#a271ea" d="M943,103.7C930.5,101.9,918.4,101.8,907.6,107.9C901.2,111.5,896.1,117,889.7,120.6C866.9,133.5,837.3,118.5,812.5,126.6C800.2,130.6,790.3,140,778.6,145.6C750.6,159.1,717,149.6,686.5,156C674.6,158.5,663.3,163.4,652.5,169.4L920.5,169.4C932.9,169.4,943,159.3,943,146.9L943,103.7Z" class="st2"></path>
        <path fill="#5a3f94" d="M37.1,40.3C24.7,40.3,14.6,50.4,14.6,62.8L14.6,131.2C33.1,139.1,59.6,145.2,68.8,146.8C95.4,151.2,126.4,153.9,145.9,135.3C156.8,124.9,162,109.3,173.9,100C201.1,78.9,246.5,101.3,272.6,78.9C278.2,74.1,282.2,67.8,287.7,63C307.6,46,339.5,55.1,362.4,42.4C363.6,41.7,364.7,41,365.8,40.3L37.1,40.3Z" class="st1"></path>
        <path fill="#a271ea" d="M37.1,40.3C24.7,40.3,14.6,50.4,14.6,62.8L14.6,116.7C26.4,121,42.7,123,51.4,124.4C78,128.8,109,131.5,128.5,112.9C139.4,102.5,144.6,86.9,156.5,77.6C183.7,56.5,229.1,78.9,255.2,56.5C260.8,51.7,264.8,45.4,270.3,40.6C270.4,40.5,270.6,40.4,270.7,40.3L37.1,40.3Z" class="st2"></path>
        <g clip-path="url(#SVGID_2_)">
            <g clip-path="url(#SVGID_2_-2)" class="st3">
                <g>
                    <path fill="#FFFFFF" d="M801.6,8.9L694,69.8L796.1,0Z" class="st4"></path>
                </g>
                <g>
                    <path fill="#FFFFFF" d="M912.6,87L788.4,80.9L912.7,76.6Z" class="st4"></path>
                </g>
                <g>
                    <path fill="#FFFFFF" d="M719,258.1L664.4,148.6L728.1,253.1Z" class="st4"></path>
                </g>
                <g>
                    <path fill="#FFFFFF" d="M716.5,182L694,155.2L720.1,178.5Z" class="st4"></path>
                </g>
                <g>
                    <path fill="#FFFFFF" d="M799.9,39.3L749.8,60.5L797.8,34.8Z" class="st4"></path>
                </g>
                <g>
                    <path fill="#FFFFFF" d="M827.4,210.3L703.3,129.6L832.7,201.4Z" class="st4"></path>
                </g>
                <g>
                    <path fill="#FFFFFF" d="M179.3,11.7L240.4,56L173.8,20.6Z" class="st4"></path>
                </g>
                <g>
                    <path fill="#FFFFFF" d="M87.5,61.3L200.1,70L87.2,71.7Z" class="st4"></path>
                </g>
                <g>
                    <path fill="#FFFFFF" d="M241.2,181.8L286.8,148.6L248.1,189.6Z" class="st4"></path>
                </g>
                <g>
                    <path fill="#FFFFFF" d="M171.1,158L254.3,118.2L176.1,167.2Z" class="st4"></path>
                </g>
            </g>
        </g>
        <g>
            <rect transform="translate(0,0) translate(255.4,66.5)" fill="none" height="55.6" width="446.8" class="st5"></rect>
            <path transform="translate(285.013,102.063)" d="M12.2,0L12.2,-11.5L18.1,-11.5C26.25,-11.5,29.9,-17.15,29.9,-22.95C29.9,-28.7,26.25,-34.45,18.1,-34.45L3.85,-34.45L3.85,0ZM17.7,-27.15C20.45,-27.15,21.45,-24.95,21.45,-22.95C21.45,-20.9,20.45,-18.7,17.7,-18.7L12.2,-18.7L12.2,-27.15ZM56.2125,-12C56.2125,-19.35,50.7625,-23.9,44.1125,-23.9C37.4625,-23.9,31.7125,-19.2,31.7125,-11.8C31.7125,-4.45,37.4625,0.45,44.1125,0.45C47.8125,0.45,52.2125,-0.65,54.6625,-3.9C53.3625,-4.8,50.0625,-7.1,49.1625,-7.85C47.8125,-6.25,46.0625,-5.9,44.7125,-5.9C42.1625,-5.9,39.6125,-7.25,39.3625,-9.45L56.0625,-9.45C56.1125,-10.1,56.2125,-11.4,56.2125,-12ZM39.3625,-13.9C39.9125,-16.9,42.8625,-17.35,44.0125,-17.35C45.2625,-17.35,47.8625,-16.9,48.6625,-13.9ZM68.5125,-12.25C68.5125,-15.25,70.7625,-16.2,72.6125,-16.2C74.2625,-16.2,76.4125,-15.2,76.4125,-12.15L76.4125,0L84.3625,0L84.3625,-12.4C84.3625,-19.65,81.3125,-23.9,75.0625,-23.9C73.0125,-23.9,69.3125,-22.6,68.5125,-19.65L68.5125,-23.3L60.5625,-23.3L60.5625,0L68.5125,0ZM96.8125,-11.65C96.8125,-14.3,99.0125,-16.5,101.662,-16.5C104.312,-16.5,106.512,-14.3,106.512,-11.65C106.512,-9,104.312,-6.8,101.662,-6.8C99.0125,-6.8,96.8125,-9,96.8125,-11.65ZM89.2125,4.2C90.9625,8.65,95.5625,11.85,101.062,11.85C109.662,11.85,114.463,6.8,114.463,-2.95L114.463,-23.3L106.512,-23.3L106.512,-20.8C105.062,-22.85,102.412,-23.9,100.062,-23.9C94.3125,-23.9,88.7125,-19.25,88.7125,-11.7C88.7125,-4.1,94.3125,0.45,100.062,0.45C103.662,0.45,106.062,-0.95,107.213,-2.9C107.213,2.1,105.012,4.6,101.062,4.6C98.6125,4.6,96.6625,3.3,95.9125,1.5ZM136.019,-11.05C136.019,-8.05,133.669,-7.25,131.919,-7.25C130.269,-7.25,128.119,-8.25,128.119,-11.3L128.119,-23.3L120.169,-23.3L120.169,-11.05C120.169,-3.8,123.219,0.45,129.469,0.45C131.519,0.45,135.219,-0.7,136.019,-3.65L136.019,0L143.969,0L143.969,-23.3L136.019,-23.3ZM149.969,0L157.919,0L157.919,-23.3L149.969,-23.3ZM149.119,-31.05C149.119,-28.5,151.319,-26.5,153.919,-26.5C156.569,-26.5,158.669,-28.5,158.669,-31.05C158.669,-33.6,156.569,-35.55,153.919,-35.55C151.319,-35.55,149.119,-33.6,149.119,-31.05ZM171.872,-12.25C171.872,-15.25,174.122,-16.2,175.972,-16.2C177.622,-16.2,179.772,-15.2,179.772,-12.15L179.772,0L187.722,0L187.722,-12.4C187.722,-19.65,184.672,-23.9,178.422,-23.9C176.372,-23.9,172.672,-22.6,171.872,-19.65L171.872,-23.3L163.922,-23.3L163.922,0L171.872,0ZM214.628,0L214.628,-13.35L225.478,-13.35L225.478,-20.55L214.628,-20.55L214.628,-27.15L228.328,-27.15L228.328,-34.45L206.178,-34.45L206.178,0ZM232.578,0L240.528,0L240.528,-23.3L232.578,-23.3ZM231.728,-31.05C231.728,-28.5,233.928,-26.5,236.528,-26.5C239.178,-26.5,241.278,-28.5,241.278,-31.05C241.278,-33.6,239.178,-35.55,236.528,-35.55C233.928,-35.55,231.728,-33.6,231.728,-31.05ZM254.481,-12.25C254.481,-15.25,256.731,-16.2,258.581,-16.2C260.231,-16.2,262.381,-15.2,262.381,-12.15L262.381,0L270.331,0L270.331,-12.4C270.331,-19.65,267.281,-23.9,261.031,-23.9C258.981,-23.9,255.281,-22.6,254.481,-19.65L254.481,-23.3L246.531,-23.3L246.531,0L254.481,0ZM292.481,-20.8C291.031,-22.85,288.381,-23.9,286.031,-23.9C280.281,-23.9,274.681,-19.25,274.681,-11.7C274.681,-4.1,280.281,0.45,286.031,0.45C288.581,0.45,291.031,-0.6,292.481,-2.65L292.481,0L300.431,0L300.431,-23.3L292.481,-23.3ZM282.781,-11.65C282.781,-14.3,284.981,-16.5,287.631,-16.5C290.281,-16.5,292.481,-14.3,292.481,-11.65C292.481,-9,290.281,-6.8,287.631,-6.8C284.981,-6.8,282.781,-9,282.781,-11.65ZM314.388,-12.25C314.388,-15.25,316.638,-16.2,318.487,-16.2C320.138,-16.2,322.288,-15.2,322.288,-12.15L322.288,0L330.237,0L330.237,-12.4C330.237,-19.65,327.188,-23.9,320.938,-23.9C318.888,-23.9,315.188,-22.6,314.388,-19.65L314.388,-23.3L306.438,-23.3L306.438,0L314.388,0ZM351.188,-9C350.237,-7.65,348.837,-6.85,347.188,-6.85C344.538,-6.85,342.337,-9.05,342.337,-11.7C342.337,-14.35,344.538,-16.55,347.188,-16.55C348.938,-16.55,350.438,-15.65,351.288,-14.25L357.788,-18.15C355.438,-21.6,352.087,-23.9,347.538,-23.9C340.587,-23.9,334.587,-19.1,334.587,-11.7C334.587,-4.3,340.587,0.45,347.538,0.45C352.087,0.45,355.487,-1.85,357.837,-5.3ZM385.087,-12C385.087,-19.35,379.638,-23.9,372.987,-23.9C366.337,-23.9,360.587,-19.2,360.587,-11.8C360.587,-4.45,366.337,0.45,372.987,0.45C376.688,0.45,381.087,-0.65,383.538,-3.9C382.237,-4.8,378.938,-7.1,378.038,-7.85C376.688,-6.25,374.938,-5.9,373.587,-5.9C371.038,-5.9,368.487,-7.25,368.237,-9.45L384.938,-9.45C384.987,-10.1,385.087,-11.4,385.087,-12ZM368.237,-13.9C368.788,-16.9,371.737,-17.35,372.888,-17.35C374.138,-17.35,376.737,-16.9,377.538,-13.9Z" stroke-width="5" stroke-miterlimit="10" stroke="#24173F" fill="none"></path>
        </g>
        <g>
            <path fill="#FFFFFF" d="M289.4,102.1L289.4,67.6L303.7,67.6C311.9,67.6,315.5,73.4,315.5,79.1C315.5,84.9,311.8,90.6,303.7,90.6L297.8,90.6L297.8,102.1L289.4,102.1ZM297.8,74.9L297.8,83.4L303.3,83.4C306.1,83.4,307.1,81.2,307.1,79.2C307.1,77.2,306.1,75,303.3,75L297.8,75Z" class="st4"></path>
            <path fill="#FFFFFF" d="M341.6,92.6L324.9,92.6C325.1,94.8,327.7,96.2,330.3,96.2C331.7,96.2,333.4,95.8,334.8,94.2C335.7,95,339,97.3,340.3,98.2C337.8,101.5,333.4,102.6,329.7,102.6C323,102.6,317.3,97.7,317.3,90.3C317.3,82.9,323.1,78.2,329.7,78.2C336.3,78.2,341.8,82.8,341.8,90.1C341.8,90.7,341.7,92,341.6,92.6ZM334.2,88.2C333.4,85.2,330.8,84.7,329.5,84.7C328.4,84.7,325.4,85.2,324.9,88.2L334.2,88.2Z" class="st4"></path>
            <path fill="#FFFFFF" d="M354.1,102.1L346.1,102.1L346.1,78.8L354.1,78.8L354.1,82.4C354.9,79.4,358.6,78.2,360.7,78.2C367,78.2,370,82.4,370,89.7L370,102.1L362,102.1L362,89.9C362,86.9,359.9,85.8,358.2,85.8C356.3,85.8,354.1,86.8,354.1,89.8L354.1,102.1Z" class="st4"></path>
            <path fill="#FFFFFF" d="M381.5,103.6C382.3,105.4,384.2,106.7,386.7,106.7C390.7,106.7,392.9,104.2,392.9,99.2C391.7,101.2,389.3,102.6,385.7,102.6C379.9,102.6,374.3,98,374.3,90.4C374.3,82.8,379.9,78.2,385.7,78.2C388.1,78.2,390.7,79.2,392.2,81.3L392.2,78.8L400.2,78.8L400.2,99.2C400.2,109,395.4,114,386.8,114C381.3,114,376.7,110.8,374.9,106.3L381.5,103.6ZM387.2,95.3C389.8,95.3,392.1,93.1,392.1,90.4C392.1,87.8,389.9,85.5,387.2,85.5C384.5,85.5,382.3,87.7,382.3,90.4C382.4,93.1,384.6,95.3,387.2,95.3Z" class="st4"></path>
            <path fill="#FFFFFF" d="M421.6,78.8L429.6,78.8L429.6,102.1L421.6,102.1L421.6,98.4C420.8,101.4,417.1,102.5,415,102.5C408.7,102.5,405.7,98.2,405.7,91L405.7,78.8L413.7,78.8L413.7,90.8C413.7,93.9,415.8,94.9,417.5,94.9C419.3,94.9,421.6,94.1,421.6,91.1L421.6,78.8Z" class="st4"></path>
            <path fill="#FFFFFF" d="M439.5,66.5C442.2,66.5,444.3,68.5,444.3,71C444.3,73.5,442.2,75.6,439.5,75.6C436.9,75.6,434.7,73.6,434.7,71C434.7,68.5,436.9,66.5,439.5,66.5ZM435.5,78.8L443.5,78.8L443.5,102.1L435.5,102.1L435.5,78.8Z" class="st4"></path>
            <path fill="#FFFFFF" d="M457.4,102.1L449.4,102.1L449.4,78.8L457.4,78.8L457.4,82.4C458.2,79.4,461.9,78.2,464,78.2C470.3,78.2,473.3,82.4,473.3,89.7L473.3,102.1L465.3,102.1L465.3,89.9C465.3,86.9,463.2,85.8,461.5,85.8C459.6,85.8,457.4,86.8,457.4,89.8L457.4,102.1Z" class="st4"></path>
            <path fill="#FFFFFF" d="M491.7,102.1L491.7,67.6L513.9,67.6L513.9,74.9L500.2,74.9L500.2,81.5L511,81.5L511,88.7L500.1,88.7L500.1,102.1L491.7,102.1Z" class="st4"></path>
            <path fill="#FFFFFF" d="M522.1,66.5C524.8,66.5,526.9,68.5,526.9,71C526.9,73.5,524.8,75.6,522.1,75.6C519.5,75.6,517.3,73.6,517.3,71C517.3,68.5,519.5,66.5,522.1,66.5ZM518.1,78.8L526.1,78.8L526.1,102.1L518.1,102.1L518.1,78.8Z" class="st4"></path>
            <path fill="#FFFFFF" d="M540,102.1L532,102.1L532,78.8L540,78.8L540,82.4C540.8,79.4,544.5,78.2,546.6,78.2C552.8,78.2,555.9,82.4,555.9,89.7L555.9,102.1L547.9,102.1L547.9,89.9C547.9,86.9,545.8,85.8,544.1,85.8C542.2,85.8,540,86.8,540,89.8L540,102.1Z" class="st4"></path>
            <path fill="#FFFFFF" d="M578,78.8L586,78.8L586,102.1L578,102.1L578,99.4C576.5,101.5,574.1,102.5,571.5,102.5C565.7,102.5,560.1,97.9,560.1,90.3C560.1,82.7,565.7,78.1,571.5,78.1C573.8,78.1,576.5,79.1,578,81.2L578,78.8ZM573.2,95.3C575.9,95.3,578.1,93.1,578.1,90.4C578.1,87.8,575.9,85.5,573.2,85.5C570.6,85.5,568.4,87.7,568.4,90.4C568.3,93.1,570.5,95.3,573.2,95.3Z" class="st4"></path>
            <path fill="#FFFFFF" d="M599.9,102.1L591.9,102.1L591.9,78.8L599.9,78.8L599.9,82.4C600.7,79.4,604.4,78.2,606.5,78.2C612.7,78.2,615.8,82.4,615.8,89.7L615.8,102.1L607.8,102.1L607.8,89.9C607.8,86.9,605.6,85.8,604,85.8C602.2,85.8,599.9,86.8,599.9,89.8L599.9,102.1Z" class="st4"></path>
            <path fill="#FFFFFF" d="M643.4,96.8C641.1,100.3,637.6,102.6,633.1,102.6C626.1,102.6,620.1,97.8,620.1,90.4C620.1,83,626.1,78.2,633.1,78.2C637.7,78.2,641,80.5,643.4,84L636.9,87.9C636,86.5,634.5,85.6,632.8,85.6C630.1,85.6,627.9,87.8,627.9,90.5C627.9,93.1,630.1,95.4,632.8,95.4C634.5,95.4,635.8,94.6,636.8,93.3L643.4,96.8Z" class="st4"></path>
            <path fill="#FFFFFF" d="M670.5,92.6L653.8,92.6C654,94.8,656.6,96.2,659.2,96.2C660.5,96.2,662.3,95.8,663.7,94.2C664.6,95,667.9,97.3,669.2,98.2C666.7,101.5,662.3,102.6,658.6,102.6C651.9,102.6,646.2,97.7,646.2,90.3C646.2,82.9,652,78.2,658.6,78.2C665.2,78.2,670.7,82.8,670.7,90.1C670.6,90.7,670.5,92,670.5,92.6ZM663.1,88.2C662.3,85.2,659.7,84.7,658.4,84.7C657.2,84.7,654.3,85.2,653.7,88.2L663.1,88.2Z" class="st4"></path>
        </g>
        <g>
            <path fill="#FFFFFF" d="M363.6,136.7L363.6,124.6L360.6,124.6L360.6,123.1L369.7,123.1L369.7,124.6L366.7,124.6L366.7,136.7L363.6,136.7Z" class="st4"></path>
            <path fill="#FFFFFF" d="M371.2,136.7L371.2,123.1L374.2,123.1L374.2,127.6C374.3,127.1,374.4,126.7,374.7,126.5C375,126.3,375.3,126.1,375.7,126.1L377.2,126.1C378,126.1,378.7,126.4,379.3,127C379.9,127.6,380.2,128.3,380.2,129.1L380.2,136.7L377.2,136.7L377.2,129.1C377.2,128.7,377.1,128.3,376.7,128C376.4,127.7,376,127.6,375.6,127.6C375.2,127.6,374.8,127.7,374.5,128C374.2,128.3,374.1,128.7,374.1,129.1L374.1,136.7L371.2,136.7Z" class="st4"></path>
            <path fill="#FFFFFF" d="M392.4,132.2L386.3,132.2L386.3,133.7C386.3,134.1,386.4,134.5,386.7,134.8C387,135.1,387.4,135.2,387.8,135.2L389.3,135.2C390.3,135.2,390.8,134.7,390.8,133.7L392.3,133.7C392.1,135.7,391.1,136.7,389.3,136.7L386.3,136.7C385.5,136.7,384.8,136.4,384.2,135.8C383.6,135.2,383.3,134.5,383.3,133.7L383.3,129.2C383.3,128.4,383.6,127.6,384.2,127.1C384.8,126.5,385.5,126.2,386.3,126.2L389.3,126.2C390.1,126.2,390.8,126.5,391.4,127.1C392,127.7,392.3,128.4,392.3,129.2L392.3,132.2ZM386.3,130.7L389.3,130.7L389.3,129.2C389.3,128.8,389.2,128.4,388.8,128.1C388.5,127.8,388.1,127.7,387.7,127.7C387.3,127.7,386.9,127.8,386.6,128.1C386.3,128.4,386.2,128.8,386.2,129.2L386.2,130.7Z" class="st4"></path>
            <path fill="#FFFFFF" d="M404.4,123.1L405.9,123.1L405.1,126.1L408.1,126.1L408.9,123.1L410.4,123.1L409.6,126.1L411.9,126.1L411.9,127.6L409.2,127.6L408.4,130.6L410.3,130.6L410.3,132.1L408,132.1L407.2,135.1L405.7,135.1L406.5,132.1L403.5,132.1L402.7,135.1L401.2,135.1L402,132.1L399.7,132.1L399.7,130.6L402.3,130.6L403.1,127.6L401.2,127.6L401.2,126.1L403.5,126.1L404.4,123.1ZM404.7,127.7L403.9,130.7L406.9,130.7L407.7,127.7L404.7,127.7Z" class="st4"></path>
            <path fill="#FFFFFF" d="M418,136.7L418,126.1L416.5,126.1L416.5,124.6L419.5,123.1L421,123.1L421,136.7L418,136.7Z" class="st4"></path>
            <path fill="#FFFFFF" d="M431.5,136.7L431.5,123.1L437.6,123.1C438.4,123.1,439.1,123.4,439.7,124C440.3,124.6,440.6,125.3,440.6,126.1L440.6,127.6C440.6,128.4,440.3,129.1,439.7,129.7C439.1,130.3,438.4,130.6,437.6,130.6L434.6,130.6L434.6,136.7L431.5,136.7ZM434.5,129.2L436,129.2C436.4,129.2,436.8,129.1,437.1,128.7C437.4,128.4,437.6,128,437.6,127.6L437.6,126.1C437.6,125.7,437.5,125.3,437.1,125C436.8,124.7,436.4,124.6,436,124.6L434.5,124.6L434.5,129.2Z" class="st4"></path>
            <path fill="#FFFFFF" d="M446.6,136.7L443.6,136.7L443.6,126.1L446.6,126.1L446.6,129.1C446.7,128.1,447,127.3,447.5,126.8C448,126.3,448.7,126,449.6,126L451.1,126L451.1,129L448.1,129C447.7,129,447.3,129.1,447,129.4C446.7,129.7,446.6,130,446.6,130.5L446.6,136.7Z" class="st4"></path>
            <path fill="#FFFFFF" d="M455.7,126.1L458.7,126.1C459.5,126.1,460.2,126.4,460.8,127C461.4,127.6,461.7,128.3,461.7,129.1L461.7,133.6C461.7,134.4,461.4,135.1,460.8,135.7C460.2,136.3,459.5,136.6,458.7,136.6L455.7,136.6C454.9,136.6,454.2,136.3,453.6,135.7C453,135.1,452.7,134.4,452.7,133.6L452.7,129.1C452.7,128.3,453,127.5,453.6,127C454.1,126.4,454.8,126.1,455.7,126.1ZM455.7,129.2L455.7,133.7C455.7,134.1,455.8,134.5,456.1,134.8C456.4,135.1,456.8,135.2,457.2,135.2C457.6,135.2,458,135.1,458.3,134.8C458.6,134.5,458.7,134.2,458.7,133.7L458.7,129.2C458.7,128.8,458.6,128.4,458.2,128.1C457.9,127.8,457.5,127.7,457.1,127.7C456.7,127.7,456.3,127.8,456,128.1C455.8,128.4,455.7,128.8,455.7,129.2Z" class="st4"></path>
            <path fill="#FFFFFF" d="M467.7,126.1L470.7,126.1L470.7,136.7C470.7,137.5,470.4,138.2,469.8,138.8C469.2,139.4,468.5,139.7,467.7,139.7L466.2,139.7C464.4,139.7,463.4,138.7,463.2,136.7L464.7,136.7C464.8,137.7,465.3,138.2,466.2,138.2C466.6,138.2,467,138.1,467.3,137.8C467.6,137.5,467.7,137.1,467.7,136.7L467.7,126.1ZM467.7,124.6L467.7,123.1L470.7,123.1L470.7,124.6L467.7,124.6Z" class="st4"></path>
            <path fill="#FFFFFF" d="M482.9,132.2L476.8,132.2L476.8,133.7C476.8,134.1,476.9,134.5,477.2,134.8C477.5,135.1,477.9,135.2,478.3,135.2L479.8,135.2C480.8,135.2,481.3,134.7,481.3,133.7L482.8,133.7C482.6,135.7,481.6,136.7,479.8,136.7L476.8,136.7C476,136.7,475.3,136.4,474.7,135.8C474.1,135.2,473.8,134.5,473.8,133.7L473.8,129.2C473.8,128.4,474.1,127.6,474.7,127.1C475.3,126.5,476,126.2,476.8,126.2L479.8,126.2C480.6,126.2,481.3,126.5,481.9,127.1C482.5,127.7,482.8,128.4,482.8,129.2L482.8,132.2ZM476.8,130.7L479.8,130.7L479.8,129.2C479.8,128.8,479.7,128.4,479.3,128.1C479,127.8,478.6,127.7,478.2,127.7C477.8,127.7,477.4,127.8,477.1,128.1C476.8,128.4,476.7,128.8,476.7,129.2L476.7,130.7Z" class="st4"></path>
            <path fill="#FFFFFF" d="M493.4,129.2L491.9,129.2C491.8,128.2,491.3,127.7,490.4,127.7C490,127.7,489.6,127.8,489.3,128.1C489,128.4,488.9,128.8,488.9,129.2L488.9,133.7C488.9,134.1,489,134.5,489.3,134.8C489.6,135.1,490,135.2,490.4,135.2C491.3,135.2,491.8,134.7,491.9,133.7L493.4,133.7C493.3,135.7,492.3,136.7,490.4,136.7L488.9,136.7C488.1,136.7,487.4,136.4,486.8,135.8C486.2,135.2,485.9,134.5,485.9,133.7L485.9,129.2C485.9,128.4,486.2,127.6,486.8,127.1C487.4,126.5,488.1,126.2,488.9,126.2L490.4,126.2C492.3,126.1,493.3,127.2,493.4,129.2Z" class="st4"></path>
            <path fill="#FFFFFF" d="M498,123.1L501,123.1L501,126.1L502.5,126.1L502.5,127.6L501,127.6L501,133.7C501,134.2,501.2,134.6,501.5,134.8C501.8,135,502.1,135.2,502.4,135.2L502.5,135.2L502.5,136.7L501,136.7C500.2,136.7,499.5,136.4,498.9,135.8C498.3,135.2,498,134.5,498,133.7L498,127.6L496.5,127.6L496.5,126.1L498,126.1L498,123.1Z" class="st4"></path>
            <path fill="#FFFFFF" d="M513,126.1L516,126.1C516.8,126.1,517.5,126.4,518.1,127C518.7,127.6,519,128.3,519,129.1L519,133.6C519,134.4,518.7,135.1,518.1,135.7C517.5,136.3,516.8,136.6,516,136.6L513,136.6C512.2,136.6,511.5,136.3,510.9,135.7C510.3,135.1,510,134.4,510,133.6L510,129.1C510,128.3,510.3,127.5,510.9,127C511.5,126.4,512.2,126.1,513,126.1ZM513,129.2L513,133.7C513,134.1,513.1,134.5,513.4,134.8C513.7,135.1,514.1,135.2,514.5,135.2C514.9,135.2,515.3,135.1,515.6,134.8C515.9,134.5,516,134.2,516,133.7L516,129.2C516,128.8,515.9,128.4,515.5,128.1C515.2,127.8,514.8,127.7,514.4,127.7C514,127.7,513.6,127.8,513.3,128.1C513.1,128.4,513,128.8,513,129.2Z" class="st4"></path>
            <path fill="#FFFFFF" d="M522.1,136.7L522.1,126.1L525.1,126.1L525.1,127.6C525.2,127.1,525.3,126.7,525.6,126.5C525.9,126.3,526.2,126.1,526.6,126.1L528.1,126.1C528.9,126.1,529.6,126.4,530.2,127C530.8,127.6,531.1,128.3,531.1,129.1L531.1,136.7L528.1,136.7L528.1,129.1C528.1,128.7,528,128.3,527.6,128C527.3,127.7,526.9,127.6,526.5,127.6C526.1,127.6,525.7,127.7,525.4,128C525.1,128.3,525,128.7,525,129.1L525,136.7L522.1,136.7Z" class="st4"></path>
            <path fill="#FFFFFF" d="M538.6,136.7L538.6,126.1C538.6,125.3,538.9,124.6,539.5,124C540.1,123.4,540.8,123.1,541.6,123.1L544.6,123.1C545.4,123.1,546.1,123.4,546.7,124C547.3,124.6,547.6,125.3,547.6,126.1L547.6,136.7L544.6,136.7L544.6,130.6L541.6,130.6L541.6,136.7L538.6,136.7ZM541.6,129.2L544.6,129.2L544.6,126.2C544.6,125.8,544.5,125.4,544.1,125.1C543.8,124.8,543.4,124.7,543,124.7C542.6,124.7,542.2,124.8,541.9,125.1C541.6,125.4,541.5,125.7,541.5,126.2L541.5,129.2Z" class="st4"></path>
            <path fill="#FFFFFF" d="M556.7,123.1L559.7,123.1L559.7,131.5C559.7,132.9,559.2,134.1,558.2,135.1C557.2,136.1,556,136.6,554.6,136.6L550.7,136.6L550.7,123L553.7,123L553.7,135.1L555.2,135.1C555.6,135.1,556,135,556.3,134.7C556.6,134.4,556.7,134.1,556.7,133.6L556.7,123.1Z" class="st4"></path>
            <path fill="#FFFFFF" d="M562.8,136.7L562.8,126.1C562.8,125.3,563.1,124.6,563.7,124C564.3,123.4,565,123.1,565.8,123.1L568.8,123.1C569.6,123.1,570.3,123.4,570.9,124C571.5,124.6,571.8,125.3,571.8,126.1L571.8,136.7L568.8,136.7L568.8,130.6L565.8,130.6L565.8,136.7L562.8,136.7ZM565.8,129.2L568.8,129.2L568.8,126.2C568.8,125.8,568.6,125.4,568.3,125.1C568,124.8,567.6,124.7,567.2,124.7C566.8,124.7,566.4,124.8,566.1,125.1C565.8,125.4,565.7,125.7,565.7,126.2L565.7,129.2Z" class="st4"></path>
            <path fill="#FFFFFF" d="M574.9,136.7L574.9,133C574.9,131.2,575.9,130.2,577.9,130C575.9,129.8,574.9,128.8,574.9,127L574.9,123.2L577.9,123.2L577.9,127.7C577.9,128.1,578,128.5,578.3,128.8C578.6,129.1,579,129.3,579.4,129.3C579.8,129.3,580.2,129.2,580.5,128.8C580.8,128.5,581,128.1,581,127.7L581,123.2L584,123.2L584,127C584,128.8,583,129.8,581,130C583,130.2,584,131.3,584,133L584,136.8L581,136.8L581,132.3C581,131.9,580.8,131.5,580.5,131.2C580.2,130.9,579.8,130.8,579.4,130.8C579,130.8,578.6,130.9,578.3,131.2C578,131.5,577.9,131.9,577.9,132.3L577.9,136.8L574.9,136.8Z" class="st4"></path>
            <path fill="#FFFFFF" d="M587,136.7L587,133.7L590,133.7L590,136.7L587,136.7Z" class="st4"></path>
        </g>
    </g>
    <g style="animation: 6s linear infinite both redpenguin1_t;" transform="translate(76.7416,159.576) translate(-62.7724,-141.391)" id="redpenguin1">
        <g transform="translate(-4.57167,-18.1847)">
            <g>
                <path fill="#FFFFFF" d="M122.9,161.4C126.1,127.5,124.8,90,122.4,77.3C120.3,65.8,114.2,55.2,105.1,47.9C88.1,34.3,65.7,35.1,40.3,47.9C16,58.6,14.3,92.7,14.3,131.4L14.3,161.4L122.9,161.4L122.9,161.4Z" class="st4"></path>
                <path fill="#332031" d="M124.1,162.8L13,162.8L13,131.5C13,91.6,15,57.7,39.8,46.8C66.3,33.5,89.2,33.5,106,47C115.2,54.4,121.6,65.1,123.8,77.2C126.1,89.6,127.6,126.7,124.3,161.7L124.1,162.8ZM15.6,160.1L121.7,160.1C123.7,137.8,124.6,96.5,121.1,77.6C119,66.1,113,55.9,104.3,49C88.1,36,66.8,36.1,40.9,49.1L40.8,49.1C17.4,59.3,15.5,92.4,15.5,131.4L15.5,160.1Z" class="st20"></path>
            </g>
            <rect transform="translate(16.0999,94.0145) rotate(4.87562) translate(-4.79694,-4.63419)" stroke="none" fill="#1e1e3f" height="9.08918" width="4.75212"></rect>
            <path fill="#E94043" d="M62.5,47.9C71.1,43.6,79.3,40.7,87,39.2C73.3,36.1,57.5,39.3,40.3,47.9C16,58.6,14.3,92.7,14.3,131.4L14.3,161.4L36.4,161.4L36.4,131.4C36.4,92.7,38.2,58.6,62.5,47.9Z" class="st21"></path>
            <g>
                <path fill="#1E1E3F" d="M36.4,162.4L14.3,162.4C13.7,162.4,13.3,162,13.3,161.4L13.3,131.4C13.3,91.6,15.3,57.7,40,47C57.7,38.1,73.6,35.1,87.3,38.2C87.8,38.3,88.1,38.7,88.1,39.2C88.1,39.7,87.8,40.1,87.3,40.2C79.7,41.7,71.5,44.6,63,48.8C63,48.8,63,48.8,63,48.8C39.5,59.1,37.5,92.3,37.5,131.4L37.5,161.4C37.4,162,37,162.4,36.4,162.4ZM15.3,160.4L35.4,160.4L35.4,131.4C35.4,91.6,37.4,57.8,62,47C68.8,43.6,75.5,41,81.8,39.3C69.8,38,56,41.2,40.8,48.8C17.2,59.1,15.3,92.3,15.3,131.4L15.3,160.4Z" class="st19"></path>
            </g>
        </g>
        <g style="animation: 6s linear infinite both a0_t;" transform="translate(82.4783,73.6153) translate(-87.05,-91.8)">
            <ellipse transform="translate(0,0) translate(111.1,90.1)" fill="#1E1E3F" ry="19.4" rx="19.4" class="st19"></ellipse>
            <ellipse transform="translate(0,0) translate(115.5,91.1)" fill="#FFFFFF" ry="12.6" rx="12.6" class="st4"></ellipse>
            <ellipse transform="translate(0,0) translate(63,93.5)" fill="#1E1E3F" ry="19.4" rx="19.4" class="st19"></ellipse>
            <ellipse transform="translate(0,0) translate(67.9,93.5)" fill="#FFFFFF" ry="12.6" rx="12.6" class="st4"></ellipse>
        </g>
        <g transform="translate(94.4566,90.4964) translate(-15.4404,-8.51891)">
            <path transform="translate(-83.5879,-100.162)" fill="#E94043" d="M113.2,102.5C113.6,101.7,112.8,100.9,112,101.3C106.9,103.4,96.7,104.3,90.8,102.5C79.7,98.8,84.6,119.5,95,115.9C100.9,114.6,111,107.8,113.2,102.5Z" class="st21"></path>
            <path transform="translate(-83.5879,-100.162)" opacity="0.4253" fill="#F9FF7B" d="M87,102.7C87,102.7,95.1,109.7,112.6,102.7L112.6,101.5C114.5,102,101.2,103.7,87,102.7Z" class="st23"></path>
            <g transform="translate(-83.5879,-100.162)">
                <path fill="#1E1E3F" d="M92.6,117.2C90.1,117.2,87.7,115.9,86,113.5C83.4,110,82.8,105.3,84.7,102.7C85.5,101.6,87.3,100.1,91.3,101.4C96.9,103.2,107,102.3,111.8,100.3C112.6,100,113.4,100.2,114,100.8C114.5,101.4,114.6,102.2,114.3,102.9C111.9,108.5,101.7,115.5,95.4,116.7C94.3,117,93.4,117.2,92.6,117.2ZM88.4,102.9C87.5,102.9,86.7,103.2,86.2,103.9C84.9,105.7,85.5,109.6,87.5,112.3C88.6,113.8,91,116.1,94.6,114.8L94.7,114.8C100.2,113.7,109.9,107.2,112.1,102.2C106.7,104.3,96.4,105.2,90.4,103.3C89.9,103.1,89.1,102.9,88.4,102.9ZM112.3,102L113.2,102.5L112.3,102C112.3,102,112.3,102,112.3,102Z" class="st19"></path>
            </g>
        </g>
        <g style="animation: 6s linear infinite both egg_t;" transform="translate(50.6883,3.42196) translate(-55.26,-21.6067)" id="egg">
            <g>
                <path fill="#1E1E3F" d="M87,39.2C87,39.2,87,39.2,87,39.2C87,39.2,87,39.2,87,39.2C93.6,40.7,99.6,43.5,105.1,47.9C113.4,54.5,119.1,63.7,121.7,74C123.5,72.9,125.1,71.8,126.6,70.8L96.4,35.1L81.4,38.3C83.3,38.5,85.2,38.8,87,39.2Z" class="st19"></path>
                <path fill="#1E1E3F" d="M15.3,98L15.3,98L15.3,98C17.4,74.1,23.3,55.3,40.3,47.9C41.3,47.4,42.2,47,43.2,46.5C43.4,46.4,43.5,46.4,43.7,46.3L13.5,52.7C10.9,67.8,8.1,84,5.6,99.2C8.5,99.6,11.7,100,15.2,100.2C15.2,99.5,15.3,98.8,15.3,98Z" class="st19"></path>
            </g>
            <path fill="#562f9f" d="M5.8,98C3.8,65.4,15,36.6,36.2,25.5C47,19.9,63.5,18.7,69.4,19.5C107.4,24.6,125.7,68.1,126.3,69.9L95.1,58.6L86.1,76.1L71.4,69.6L54.4,73.8L47.3,65.4L43.7,83.5L5.8,98Z" class="st9"></path>
            <path fill="#3c246e" d="M98.9,49.5C103.5,49.5,107.6,47.4,110.2,44C104.4,37.2,97,30.4,88,25.6C85.8,28.1,84.4,31.4,84.4,35.1C84.5,43,91,49.5,98.9,49.5Z" class="st26"></path>
            <path fill="#3c246e" d="M64,58.7C59,58.7,54.9,62.8,54.9,67.8C54.9,69.8,55.6,71.7,56.7,73.2L71.3,69.6L72.7,70.2C72.9,69.4,73,68.6,73,67.8C73.1,62.8,69,58.7,64,58.7Z" class="st26"></path>
            <path fill="#3c246e" d="M57.5,26.9C57.5,24.5,57.1,22.1,56.4,19.9C49.8,20.7,42.2,22.4,36.3,25.5C29.4,29.1,23.6,34.6,18.9,41.4C22.9,46,28.8,48.9,35.4,48.9C47.6,49,57.5,39.1,57.5,26.9Z" class="st26"></path>
            <path opacity="0.27" d="M34.9,26.3C42,21.9,20.2,36.7,21.4,66.1C22.1,80.9,29.3,89,29.3,89L5.8,98C5.8,98,1.6,47.2,34.9,26.3Z" class="st12"></path>
            <g>
                <path fill="#1E1E3F" d="M5.8,99C5.6,99,5.4,98.9,5.3,98.8C5,98.6,4.9,98.3,4.8,98C3.8,81.6,6.1,66.2,11.4,53.2C16.9,39.9,25.3,30,35.8,24.5C46.6,18.9,63.3,17.6,69.6,18.4C108.8,23.7,127.1,69,127.3,69.4C127.4,69.8,127.3,70.2,127.1,70.4C126.8,70.7,126.4,70.8,126.1,70.6L95.6,59.8L87,76.5C86.8,77,86.2,77.2,85.7,77L71.3,70.7L54.6,74.8C54.2,74.9,53.8,74.8,53.6,74.5L47.8,67.7L44.6,83.7C44.5,84,44.3,84.3,44,84.4L6.2,99C6.1,99,6,99,5.8,99ZM65.1,20.4C57.6,20.4,45.2,22.1,36.7,26.5C16.8,36.9,5.1,64.3,6.8,96.6L42.8,82.7L46.3,65.2C46.4,64.8,46.7,64.5,47,64.4C47.4,64.3,47.8,64.4,48,64.7L54.7,72.6L71.1,68.5C71.3,68.4,71.5,68.5,71.7,68.6L85.5,74.7L94.1,58C94.3,57.6,94.9,57.3,95.3,57.5L124.3,68.1C120.2,59.3,102.4,24.9,69.1,20.5C68.2,20.4,66.8,20.4,65.1,20.4Z" class="st19"></path>
            </g>
        </g>
    </g>
    <g style="animation: 6s linear infinite both redpenguin2_t;" transform="translate(167.763,157.624) translate(-51.6396,-93.224)" id="redpenguin2">
        <g style="animation: 6s linear infinite both hand_left_t;" transform="translate(81.7715,65.9024) translate(-191.171,-130.302)" id="hand_left">
            <path fill="#E94043" d="M228.1,114.1C226.6,119.9,221.2,125.9,216.6,130.5C216.5,130.6,216.4,130.7,216.3,130.8C209.7,136.7,202.8,139.8,197.5,141.5C194,142.6,190.2,140.9,188.7,137.5L184.9,128.5C183.4,125,184.9,120.9,188.3,119.2C192.6,117.1,196.9,115,201.4,112.9C201.6,112.8,201.8,112.7,202.1,112.6C207.3,110.7,214.5,105.6,220.6,105C225.4,104.7,229.3,109.3,228.1,114.1Z" class="st21"></path>
            <path fill="#C63158" d="M224.6,120.3C221.8,122.9,215.9,127.8,206.9,130.2C198.2,132.6,190.8,131.6,187.1,130.9L186.3,131.7L188.8,137.5C189.2,138.4,189.7,139.1,190.3,139.8C193.2,140.5,197.1,140.7,201.8,139.6C202.5,139.4,203.2,139.2,203.9,139C207.8,137.2,212.1,134.6,216.3,130.8C216.4,130.7,216.5,130.6,216.6,130.5C217.6,129.5,218.7,128.4,219.7,127.2C222.8,123.5,224.6,120.3,224.6,120.3Z" class="st22"></path>
            <g>
                <path fill="#1E1E3F" d="M195.3,142.9C192.1,142.9,189.1,141,187.8,137.9L184,128.9C182.3,124.9,184,120.3,187.9,118.3C192.2,116.2,196.6,114,201,112C201.2,111.9,201.5,111.8,201.8,111.7C203.6,111.1,205.7,110,208,108.8C212,106.8,216.5,104.4,220.6,104.1C223.2,103.8,225.7,104.9,227.5,106.9C229.2,108.9,229.9,111.7,229.2,114.3C227.7,120.2,222.4,126.1,217.4,131.2C217.3,131.3,217.1,131.5,217,131.6C211.5,136.6,205.1,140.2,197.9,142.5C196.9,142.8,196.1,142.9,195.3,142.9ZM221.2,106.2C221,106.2,220.8,106.2,220.6,106.2C216.9,106.5,212.6,108.8,208.8,110.7C206.5,111.9,204.3,113,202.4,113.7C202.2,113.8,202,113.8,201.8,113.9C197.5,115.9,193.1,118,188.7,120.2C185.8,121.7,184.5,125.2,185.7,128.2L189.5,137.2C190.8,140.1,194,141.6,197,140.7C203.9,138.5,210.1,135,215.4,130.3C215.5,130.2,215.6,130.1,215.7,130C220.5,125.1,225.6,119.4,226.9,114L226.9,114C227.4,112,226.9,110,225.6,108.4C224.6,106.9,223,106.2,221.2,106.2Z" class="st19"></path>
            </g>
        </g>
        <g transform="translate(-109.4,-64.4)">
            <path fill="#FFFFFF" d="M198.5,161.4L110.4,161.4L110.4,107.2C110.4,84.1,129.1,65.4,152.2,65.4L152.2,65.4C177.8,65.4,198.5,86.1,198.5,111.7L198.5,161.4Z" class="st4"></path>
            <g>
                <path fill="#1E1E3F" d="M199.5,162.4L109.4,162.4L109.4,107.2C109.4,83.6,128.6,64.4,152.2,64.4C178.3,64.4,199.5,85.6,199.5,111.7L199.5,162.4ZM111.3,160.4L197.4,160.4L197.4,111.7C197.4,86.7,177.1,66.4,152.1,66.4C129.6,66.4,111.3,84.7,111.3,107.2L111.3,160.4Z" class="st19"></path>
            </g>
            <path fill="#E94043" d="M126.3,117.2C126.3,94.1,145,75.4,168.1,75.4L168.1,75.4C173.8,75.4,179.2,76.4,184.2,78.3C175.9,70.3,164.6,65.4,152.2,65.4L152.2,65.4C129.1,65.4,110.4,84.1,110.4,107.2L110.4,161.4L126.3,161.4L126.3,117.2Z" class="st21"></path>
            <path fill="#C63158" d="M111.1,106.1C111.1,106.1,113.1,131.6,125.6,132.6L112.6,144.2L110.3,130.8L111.1,106.1Z" class="st22"></path>
            <path opacity="0.4253" fill="#F9FF7B" d="M181.3,76.3C184.6,79.7,169.3,70.9,161,69C148.8,66.3,138.6,68.4,133.4,69.8C133.3,69.8,162.1,56.5,181.3,76.3Z" class="st23"></path>
            <g>
                <path fill="#1E1E3F" d="M126.3,162.4L110.4,162.4C109.8,162.4,109.4,162,109.4,161.4L109.4,107.2C109.4,83.6,128.6,64.4,152.2,64.4C164.5,64.4,176.1,69.1,184.9,77.5C185.2,77.8,185.3,78.4,185.1,78.8C184.8,79.2,184.3,79.4,183.9,79.2C178.9,77.3,173.6,76.4,168.1,76.4C145.6,76.4,127.3,94.7,127.3,117.2L127.3,132.9L125.3,132.9L125.3,117.2C125.3,93.6,144.5,74.4,168.1,74.4C172.1,74.4,176.1,74.9,179.9,75.9C172,69.8,162.3,66.4,152.2,66.4C129.7,66.4,111.4,84.7,111.4,107.2L111.4,160.4L125.3,160.4L125.3,145.5L127.3,145.5L127.3,161.4C127.3,162,126.8,162.4,126.3,162.4Z" class="st19"></path>
            </g>
        </g>
        <g style="animation: 6s linear infinite both eyes_t;" transform="translate(58.05,42.3) translate(-33.95,-21.3)" id="eyes">
            <g style="animation: 6s linear infinite both eyes-2_t;" transform="translate(33.8915,18.5633) rotate(-5) translate(-33.95,-21.3)" id="eyes-2">
                <ellipse transform="translate(-133.003,-79.7152) translate(185.9,100.9)" fill="#1E1E3F" ry="15.5" rx="15.5" class="st19"></ellipse>
                <ellipse transform="translate(-133.5,-85.4) translate(149,112.5)" fill="#1E1E3F" ry="15.5" rx="15.5" class="st19"></ellipse>
                <ellipse transform="translate(-133.003,-79.7152) translate(189.5,100.8)" fill="#FFFFFF" ry="10.1" rx="10.1" class="st4"></ellipse>
                <ellipse transform="translate(-133.5,-85.4) translate(152.8,111.6)" fill="#FFFFFF" ry="10.1" rx="10.1" class="st4"></ellipse>
            </g>
            <g transform="translate(45.6948,30.7727) translate(-11.4669,-8.72732)" id="nose">
                <path transform="translate(-167.728,-107.445)" fill="#E94043" d="M189.6,109.4C189.8,108.7,189,108.3,188.5,108.7C185.1,111.3,177.6,114,172.8,113.8C163.7,113.2,171.5,127.8,178.6,123C182.8,120.9,189,113.8,189.6,109.4Z" class="st21"></path>
                <path transform="translate(-167.728,-107.445)" opacity="0.4253" fill="#F9FF7B" d="M168.6,115.3C168.6,115.3,177.1,120.4,189.9,109.8L189.6,108.7C191.2,108.7,180.6,113.2,168.6,115.3Z" class="st23"></path>
                <g transform="translate(-167.728,-107.445)">
                    <path fill="#1E1E3F" d="M175.6,124.9C174.1,124.9,172.6,124.3,171.2,123.2C168.5,121,167.1,117.5,168,115.1C168.4,114.1,169.5,112.4,172.9,112.7C177.4,112.9,184.7,110.3,187.9,107.8C188.5,107.4,189.3,107.3,189.9,107.7C190.5,108.1,190.8,108.8,190.6,109.4C189.9,114.2,183.6,121.4,179.1,123.7C178,124.6,176.8,124.9,175.6,124.9ZM172.3,114.7C171,114.7,170.2,115.1,169.9,115.9C169.3,117.4,170.5,120.1,172.5,121.7C173.6,122.6,175.7,123.7,178.1,122.1C178.1,122.1,178.2,122.1,178.2,122C181.9,120.2,187.5,114,188.6,109.8C184.8,112.3,177.6,114.9,172.8,114.6C172.6,114.7,172.4,114.7,172.3,114.7Z" class="st19"></path>
                </g>
            </g>
        </g>
    </g>
    <g style="animation: 6s linear infinite both a1_t;" transform="translate(828.004,169.097) translate(-821.004,-169.097)">
        <g style="animation: 6s linear infinite both a2_t;" id="hand_right">
            <g style="animation: 6s linear infinite both hand_right_t;" transform="translate(832.534,132.43) translate(-832.534,-132.43)">
                <path fill="#665DD2" d="M823.8,138.7L823.8,138.7C773.8,156.2,752.4,91.2,771,80.2C774.2,78.3,778.2,78.6,781.3,80.6C791.4,87,795,105.7,821.3,111.8C826.3,119.9,831.1,130.3,823.8,138.7Z" class="st9"></path>
                <g>
                    <path fill="#14142B" d="M807.2,142.7C788.2,142.7,774.9,130,768.2,115.9C760.9,100.4,761.8,84.4,770.4,79.3C773.8,77.3,778.2,77.4,781.7,79.7C785.2,81.9,787.8,85.4,790.9,89.4C796.8,97.1,804.1,106.8,821.4,110.8L821.8,110.9L822,111.2C827.2,119.6,832.2,130.4,824.4,139.3L824.2,139.6L823.9,139.7C818,141.8,812.4,142.7,807.2,142.7ZM775.7,79.9C774.2,79.9,772.7,80.3,771.4,81C763.8,85.5,763.2,100.7,770,115C778.1,132.1,796.3,147,823.1,137.8C829.8,130,825.4,120.2,820.6,112.5C802.9,108.3,795.4,98.4,789.4,90.5C786.5,86.6,783.9,83.3,780.8,81.3C779.2,80.4,777.4,79.9,775.7,79.9Z" class="st10"></path>
                </g>
                <path opacity="0.999" fill="#13121E" d="M822.6,111.3C811.2,108.7,803.8,103.8,798.4,98.5C797.5,97.6,795.9,97.8,795.3,99C790.9,108.1,781.2,114.4,770.9,117.1C769.7,117.4,769.1,118.8,769.8,119.9C779.6,136.4,798.6,149.3,825.2,140L825.3,139.9C833.1,130.9,828,119.9,822.6,111.3Z" class="st11"></path>
                <g>
                    <path d="M807.9,144C791.9,144,778,135.8,768.9,120.4C768.4,119.6,768.4,118.7,768.7,117.8C769,117,769.7,116.4,770.6,116.1C781.6,113.2,790.5,106.6,794.4,98.5C794.8,97.7,795.6,97.1,796.5,96.9C797.4,96.7,798.4,97,799.1,97.7C805.6,104,813.2,108,822.9,110.3L823.3,110.4L823.5,110.7C829,119.6,834.3,131,826.1,140.4L825.9,140.7L825.6,140.8C819.5,143,813.6,144,807.9,144ZM797,98.9C796.9,98.9,796.9,98.9,796.8,98.9C796.6,98.9,796.3,99,796.1,99.4C792,108,782.6,115,771.1,118C770.7,118.1,770.6,118.4,770.5,118.5C770.4,118.8,770.4,119.1,770.6,119.3C774.3,125.5,780.9,133.9,791.5,138.6C801.4,143,812.6,143.1,824.6,139C831.8,130.7,827,120.3,822,112C812.1,109.6,804.4,105.5,797.7,99C797.5,99,797.3,98.9,797,98.9Z"></path>
                </g>
                <path opacity="0.999" fill="#13121E" d="M777.1,130C778,129.8,779.3,129.4,780.9,128.9C784.4,127.7,797,123.6,803.4,112C804.4,110.2,805.7,107.4,806.5,103.7C804.4,102.7,803.1,101.4,802.1,100.6C800.7,99.5,799.5,98.4,798.3,97.3C797.3,96.4,795.7,96.6,795.1,97.8C790.6,107.2,780.6,113.6,770,116.4C765.2,118,775.4,127.8,777.1,130Z" class="st11"></path>
                <g>
                    <path d="M776.8,131.1L776.4,130.6C776.1,130.3,775.6,129.7,775,129C771,124.6,767.1,120.1,767.8,117.3C768,116.7,768.4,115.8,769.7,115.4L769.8,115.4C781.1,112.4,790.2,105.7,794.2,97.3C794.6,96.4,795.4,95.9,796.3,95.7C797.3,95.5,798.2,95.8,798.9,96.5C800.1,97.7,801.4,98.8,802.6,99.8C802.8,100,803,100.2,803.3,100.4C804.2,101.1,805.3,102.1,806.9,102.9L807.6,103.2L807.4,103.9C806.8,107,805.7,109.9,804.2,112.5C799.8,120.4,792.1,126.3,781.2,129.9C779.9,130.3,778.6,130.7,777.3,131L776.8,131.1ZM770.3,117.2C769.8,117.4,769.8,117.6,769.7,117.7C769.2,119.7,774.4,125.5,776.4,127.6C776.8,128.1,777.2,128.5,777.5,128.8C778.6,128.5,779.6,128.2,780.6,127.9C791,124.5,798.4,118.9,802.5,111.5C803.7,109.2,804.7,106.8,805.3,104.2C803.9,103.4,802.8,102.5,802,101.8C801.8,101.6,801.6,101.4,801.4,101.3C800.1,100.3,798.8,99.1,797.5,97.9C797.3,97.7,796.9,97.6,796.6,97.6C796.3,97.7,796,97.8,795.9,98.1C791.7,107,782.1,114.1,770.3,117.2Z"></path>
                </g>
                <path opacity="0.27" d="M769.1,108.8C769.7,109.5,770.4,110.2,771.1,110.8C772.7,112.3,776.9,116.1,787.6,126.3C801.8,139.7,818.9,141,823.6,141.2C818.3,142.5,803.3,145.5,788.8,137.7C780.8,133.4,772.9,126.5,768.8,118.9C768.5,118.3,770.1,117.5,769.5,117.1C767.7,116.1,766.2,110.5,764.1,103.7C763.9,102.8,767.3,106.7,769.1,108.8Z" class="st12"></path>
            </g>
        </g>
        <g>
            <path opacity="0.999" fill="#13121E" d="M934.4,173.1L869.7,167.2C871.9,162.1,894.7,137.6,897,132.5C912.7,131.3,928.3,130.2,944,129C946.3,132.2,948.8,136.2,951,141.2C953.8,147.5,955.2,153.2,956,157.7C956.1,158.3,956.6,164,952.1,167.9C948.2,171.2,935.1,173.1,934.4,173.1Z" class="st11"></path>
            <g>
                <path d="M945.6,171.6C939.5,173.3,933.2,173.9,926.8,173.4L865.1,169L864.2,168.6L896.2,131.5L944.3,127.9L944.6,128.3C947.4,132.2,949.8,136.3,951.7,140.6C954.1,145.9,955.8,151.5,956.8,157.3C956.9,158,957.4,164.1,952.6,168.4C951.2,169.7,948.5,170.8,945.6,171.6ZM867.6,166.9L927.3,171.6C933.4,172.1,939.5,171.5,945.3,169.8C947.8,169,950.1,168.1,951.3,167.1C955.4,163.5,954.9,158.3,954.9,157.7C953.9,152.2,952.3,146.7,950,141.5C948.2,137.4,946,133.5,943.4,129.9L897.5,133.3L867.6,166.9Z"></path>
            </g>
            <path opacity="0.999" fill="#13121E" d="M851.9,168.7C851.4,167.1,849.9,127.6,944.9,113.9C951.3,113,955.8,123.6,955.9,132.6C955.9,132.6,896.1,139.3,896.1,139.3C895.8,142.3,898.4,150.7,893.9,151.8C894,151.8,866.7,173.1,851.9,168.7Z" class="st11"></path>
            <g>
                <path d="M864.7,169.4L850.7,169.4L850.6,168.6C850.6,168.3,852.3,152.5,863.5,142.7C878.2,129.9,905.5,119.9,944.8,113.1C946.4,112.8,948,113.4,949.2,114.5C952.4,117.8,957.6,124.6,957,132.8L956.9,133.6L897.2,140.3L897.6,148.1C897.7,150.2,896.4,152.2,894.4,152.8L866.3,169.2C865.7,169.3,865.2,169.4,864.7,169.4ZM852.5,167.5L864.7,167.5C865,167.5,865.3,167.5,865.6,167.4L893.7,151C894.9,150.6,895.7,149.4,895.7,148.1L895.2,138.6L896.1,138.5L955.2,131.9C955.4,124.5,950.2,118.2,947.9,115.8C947.2,115.1,946.2,114.7,945.2,114.9C918.6,119.5,883.1,128.2,865.1,143.8C856.5,151.2,852.7,165.3,852.5,167.5Z"></path>
            </g>
            <path opacity="0.999" fill="#13121E" d="M805.6,140.5C803.9,143.9,803.1,147.1,802.7,149.4C807.5,160.3,813.1,165.6,818.6,169.4L823.8,169.4C822.7,161.6,822.4,147.9,821.6,141.4C819.9,127.8,819.3,116.4,820.5,107.2C817.6,107.6,816.9,107.5,812.3,109.3C807.6,111.1,801.9,116.1,800.1,119.2C804.5,123.9,807.5,127.1,811.9,131.9C810,133.6,807.6,136.4,805.6,140.5Z" class="st11"></path>
            <path d="M805.2,126.1C806.9,127.9,808.6,129.7,810.5,131.8C808.2,134.3,806.2,137,804.7,140.1C803.3,143,802.3,146.1,801.7,149.2L801.7,149.5L801.8,149.8C806.4,160.2,811.7,165.7,816.9,169.4L820.2,169.4C814.4,165.6,808.6,160.6,803.6,149.3C804.1,146.4,805.1,143.6,806.4,140.9C807.9,137.8,810,134.9,812.4,132.5L813,131.9L812.4,131.2C810.2,128.8,808.3,126.8,806.5,124.8C804.8,123,803.1,121.2,801.1,119C803.2,116,808.3,111.7,812.5,110.1C816.2,108.6,817.3,108.5,819.1,108.3C819.2,108.3,819.3,108.3,819.4,108.3C819.4,114.4,819.5,120.5,819.7,126.5C820.2,140.8,821.3,155.2,822.9,169.4L824.8,169.4C823.2,155.2,822.1,140.7,821.6,126.4C821.4,120,821.3,113.5,821.3,107.2L821.3,106.1L820.2,106.3C819.7,106.4,819.2,106.4,818.8,106.5C816.9,106.8,815.7,106.9,811.7,108.4C806.8,110.3,801,115.4,799,118.7L798.6,119.3L799.1,119.8C801.5,122.1,803.4,124.1,805.2,126.1Z"></path>
            <path opacity="0.37" d="M956,132.7C956,132.7,957.3,120.4,946.3,114L940.4,114.8C940.4,114.8,951.4,122.7,949.8,133.4L956,132.7Z" class="st14"></path>
            <path opacity="0.37" d="M937.8,134.9C937.8,134.9,957.4,144.2,951.7,168C951.7,168,956.4,164.6,955.6,156.1C955.6,156.1,952.4,137.9,946.7,133.7L937.8,134.9Z" class="st14"></path>
        </g>
        <path fill="#FFFFFF" d="M938.9,169.4L947.4,101.2C951.4,74.8,944.8,47.9,922.5,34.3C922.1,34.1,921.7,33.8,921.4,33.6C887.2,13.7,843.6,30.5,830.1,67.6C820.3,94.8,815.5,135.5,819.4,169.3L938.9,169.3Z" class="st4"></path>
        <path fill="#4B48B7" d="M915,119.4L945,114L949,89.9C946,94.7,941.3,101.2,934,107.4C926.9,113.4,920.1,117.1,915,119.4Z" class="st15"></path>
        <path fill="#665DD2" d="M891,35.9C891.4,36.1,891.8,36.3,892.1,36.6C914.4,50.2,920.9,77.1,917,103.5L908.8,169.4L938.8,169.4L947.3,101.2C951.3,74.8,944.7,47.9,922.4,34.3C922,34.1,921.6,33.8,921.3,33.6C905,24.1,881.3,20.3,857.7,34.1C864.2,32.4,876.5,29.3,891,35.9Z" class="st9"></path>
        <path fill="#92A6FF" d="M862,31.8C868.9,29.7,879,27.4,891.3,27.6C901.3,27.8,909.7,29.5,915.8,31.3C915.8,31.3,910.1,23.9,888.9,25.1C867.1,26.3,862,31.8,862,31.8Z" class="st16"></path>
        <path fill="#14142B" d="M820.3,169.4C816.5,136.7,820.8,96.2,831,68C836.1,54,845.7,42.4,858.2,35C899.6,22.9,922.9,63.2,916.1,103.4L907.9,169.4L909.8,169.4L918,103.6C924.8,64.1,902.1,24.8,864.6,31.6C894.1,17.8,933.8,30.5,943.9,63.2C947.6,74.3,948.5,87.4,946.5,101L938,169.4L939.9,169.4L948.3,101.3C952.8,71.3,943.3,45.9,923,33.5C903.2,21.2,877.2,21.1,857.2,33.4C844.3,41.1,834.4,53,829.2,67.4C818.9,95.9,814.6,136.5,818.4,169.5L820.3,169.5Z" class="st10"></path>
        <path style="animation: 6s linear infinite both eyebrow_right_t;" transform="translate(840.646,58.2294) translate(-843.243,-49.4933)" d="M850.5,53.4C849.9,53.4,849.3,53.2,848.9,52.7C848.3,52.1,846.3,50.2,843.1,50C840.3,49.9,838.3,51.2,837.5,51.8C836.6,52.6,835.2,52.4,834.4,51.5C833.6,50.6,833.8,49.2,834.7,48.4C835.8,47.5,838.9,45.4,843.2,45.6C847.9,45.8,850.9,48.5,852,49.7C852.8,50.6,852.8,52,851.9,52.8C851.5,53.2,851,53.4,850.5,53.4Z" id="eyebrow_right"></path>
        <path d="M896.9,62.3C895.9,62.3,894.9,62.2,893.8,61.9C889.2,60.7,886.9,57.4,886.1,56.1C885.5,55.1,885.8,53.7,886.9,53.1C887.9,52.5,889.3,52.8,889.9,53.9C890.3,54.6,891.9,56.9,895,57.7C897.7,58.4,900,57.5,900.8,57.1C901.9,56.6,903.2,57,903.7,58.1C904.2,59.2,903.8,60.5,902.7,61C901.7,61.4,899.6,62.3,896.9,62.3Z" id="eyebrow_left"></path>
        <g style="animation: 6s linear infinite both glasses_t;" transform="translate(864.537,86.1566) translate(-864.537,-86.1566)" id="glasses">
            <path fill="#101011" d="M954.5,98.1C955.7,97.8,956.3,96.6,956,95.4L952.3,81.7L952.3,81.7L913.2,76.8C912,76.6,910.9,77.5,910.8,78.7L910.2,83.5C910,84.7,910.9,85.8,912.1,85.9L943.7,89.9C944.6,90,945.3,90.6,945.5,91.5L947.3,97.9C947.6,99.1,948.8,99.7,950,99.4L954.5,98.1Z" class="st17"></path>
            <g>
                <path d="M949.3,100.4C947.9,100.4,946.7,99.5,946.3,98.1L944.5,91.7C944.4,91.2,944,90.9,943.5,90.8L911.9,86.8C910.2,86.6,909,85,909.2,83.3L909.8,78.5C909.9,77.7,910.3,76.9,911,76.4C911.7,75.9,912.5,75.7,913.3,75.8L953,80.8L956.9,95.1C957.1,95.9,957,96.7,956.6,97.5C956.2,98.2,955.5,98.7,954.7,99L950,100.3C949.8,100.4,949.6,100.4,949.3,100.4ZM912.9,77.7C912.6,77.7,912.4,77.8,912.1,78C911.8,78.2,911.7,78.5,911.6,78.8L911,83.6C910.9,84.3,911.4,84.9,912.1,85L943.7,89C944.9,89.2,946,90,946.3,91.3L948.1,97.7C948.3,98.4,949,98.7,949.6,98.6L954.3,97.3C954.6,97.2,954.9,97,955,96.7C955.2,96.4,955.2,96.1,955.1,95.8L951.5,82.7L913,77.8C913,77.7,913,77.7,912.9,77.7Z"></path>
            </g>
            <path fill="#101011" d="M917.3,71.5C885.8,67.4,849,62.6,817.6,58.5C815.2,58.2,812.9,59.9,812.6,62.4L809.3,87.7C808.6,93.2,812.3,98.1,817.6,98.8L845.7,102.5C851,103.2,855.9,99.3,856.6,93.9L858,83.3C858.4,80,861.4,77.7,864.6,78.1L866.8,78.4C870,78.8,872.3,81.8,871.8,85.1L870.4,95.7C869.7,101.2,873.4,106.1,878.7,106.8L906.8,110.5C912.1,111.2,917,107.3,917.7,101.9L921,76.6C921.5,74.1,919.7,71.8,917.3,71.5Z" class="st17"></path>
            <g clip-path="url(#SVGID_4_)">
                <rect transform="translate(-1.854,132.466) rotate(-9.18917) scale(1.00003,1.00003) translate(818.3,52.1)" clip-path="url(#SVGID_4_-2)" opacity="9.000000e-02" fill="#7A62F4" height="51.3" width="9.8" class="st18"></rect>
                <rect transform="translate(-2.3073,134.405) rotate(-9.18917) scale(1.00003,1.00003) translate(832.6,56)" clip-path="url(#SVGID_4_-3)" opacity="9.000000e-02" fill="#7A62F4" height="51.1" width="4.9" class="st18"></rect>
                <rect transform="translate(-1.9615,141.802) rotate(-9.18917) scale(1.00003,1.00003) translate(876.3,56.1)" clip-path="url(#SVGID_4_-4)" opacity="9.000000e-02" fill="#7A62F4" height="54.1" width="9.8" class="st18"></rect>
                <rect transform="translate(-2.3621,143.83) rotate(-9.18917) scale(1.00003,1.00003) translate(890.6,59.6)" clip-path="url(#SVGID_4_-5)" opacity="9.000000e-02" fill="#7A62F4" height="54.1" width="6" class="st18"></rect>
            </g>
            <g>
                <path d="M908.2,111.5C907.7,111.5,907.3,111.5,906.8,111.4L878.7,107.7C872.9,106.9,868.8,101.5,869.6,95.5L871,84.9C871.2,83.6,870.8,82.2,870,81.1C869.2,80,868,79.4,866.7,79.2L864.5,78.9C861.8,78.6,859.3,80.5,859,83.3L857.6,94C857.2,96.9,855.8,99.4,853.5,101.2C851.2,103,848.4,103.8,845.6,103.4L817.5,99.7C811.7,98.9,807.6,93.5,808.4,87.5L811.7,62.2C812.1,59.2,814.8,57.1,817.7,57.5C832.8,59.5,849,61.6,865.4,63.7C883.2,66,901,68.3,917.5,70.5L917.5,70.5C918.9,70.7,920.2,71.4,921.1,72.6C922,73.8,922.3,75.2,922.2,76.6L918.9,101.9C918.5,104.8,917.1,107.3,914.8,109.1C912.8,110.7,910.5,111.5,908.2,111.5ZM863.9,77.1C864.2,77.1,864.5,77.1,864.8,77.2L867,77.5C868.8,77.7,870.4,78.7,871.5,80.1C872.6,81.6,873.1,83.4,872.8,85.2L871.4,95.8C870.8,100.7,874.1,105.3,878.9,105.9L907,109.6C909.3,109.9,911.6,109.3,913.5,107.8C915.4,106.3,916.6,104.2,916.9,101.8L920.2,76.5C920.3,75.5,920.1,74.6,919.5,73.8C918.9,73,918.1,72.6,917.2,72.4C900.8,70.3,882.9,67.9,865.1,65.6C848.8,63.5,832.5,61.4,817.4,59.4C815.5,59.2,813.7,60.6,813.5,62.5L810.2,87.8C809.6,92.7,812.9,97.3,817.7,97.9L845.8,101.6C848.1,101.9,850.4,101.3,852.3,99.8C854.2,98.3,855.4,96.2,855.7,93.8L857.1,83.2C857.6,79.7,860.5,77.1,863.9,77.1Z"></path>
                <g>
                    <path fill="#665DD2" d="M829.9,90.9C829.2,90.1,830,88.9,831.1,89.1C837.9,90.5,850.8,89.4,857.8,85.7C870.8,78.6,869.4,105.5,855.6,103.3C848,103.2,833.8,97.1,829.9,90.9Z" class="st9"></path>
                    <path fill="#92A6FF" d="M830.2,90C830.2,90,845.3,95.4,865.2,86.3L861.2,84.6C861.2,84.5,851.1,92.2,830.2,90Z" class="st16"></path>
                    <g>
                        <path fill="#1E1E3F" d="M857.1,104.4C856.6,104.4,856,104.4,855.5,104.3C851.7,104.2,846.2,102.7,841,100.3C835.4,97.7,831.1,94.5,829.2,91.5C828.7,90.8,828.6,89.9,829.1,89.2C829.6,88.4,830.5,88.1,831.3,88.2C838,89.6,850.6,88.5,857.3,84.9C861.7,82.5,864.2,83.9,865.4,85C868.1,87.6,868.4,93.6,866.1,98.3C864.1,102.3,860.9,104.4,857.1,104.4ZM830.8,90C830.7,90,830.6,90.1,830.6,90.1C830.5,90.2,830.6,90.2,830.6,90.3C830.6,90.3,830.6,90.4,830.7,90.4C834.4,96.2,848.3,102.3,855.6,102.4C855.6,102.4,855.7,102.4,855.7,102.4C860.7,103.2,863.3,99.7,864.4,97.5C866.4,93.5,866.2,88.4,864.1,86.3C862.4,84.7,860,85.5,858.2,86.5C851,90.3,837.9,91.5,830.8,90C830.8,90,830.8,90,830.8,90Z" class="st19"></path>
                    </g>
                </g>
            </g>
        </g>
        <g style="animation: 6s linear infinite both hand_left-2_t;" transform="translate(933.821,155.025) translate(-933.821,-155.025)" id="hand_left-2">
            <path fill="#665DD2" d="M923.1,139.4C923.1,139.4,872.6,146.6,856.6,170.3C850.5,179.3,858.5,191.3,869.1,189.3C882.5,186.5,921.6,176.7,939.7,172.2C957.8,166.6,947.8,135,923.1,139.4Z" class="st9"></path>
            <g>
                <path fill="#1E1E3F" d="M865.7,190.5C861.3,190.5,857.6,188.7,855.3,185.2C852.3,180.7,852.5,174.6,855.8,169.7C862.6,159.7,875.9,151.4,895.5,145C909.8,140.3,922.4,138.5,922.9,138.4C937,135.9,946.9,144.8,949.3,154.8C951,161.9,948.8,170.3,939.9,173L933.3,174.7C913.8,179.6,881.3,187.8,869.3,190.2C868.1,190.4,866.9,190.5,865.7,190.5ZM927.6,139.9C926.2,139.9,924.7,140,923.2,140.3L923.2,140.3C922.7,140.4,872.9,147.8,857.3,170.8C854.5,175,854.3,180.4,856.8,184.2C859.2,187.9,863.6,189.4,868.9,188.3C880.9,185.9,913.4,177.7,932.9,172.8L939.5,171.2C944.6,169.6,949.8,164.5,947.6,155.2C945.6,147.2,938.3,139.9,927.6,139.9Z" class="st19"></path>
            </g>
            <path opacity="0.999" fill="#13121E" d="M923.3,138.8C923.3,138.8,900.5,142.1,880.3,151.4C883.3,155,885.2,160.1,886.7,163.9C889.4,170.5,891.1,177.6,890.4,184.8C907.4,180.7,928.4,175.4,940.3,172.4C958.8,166.7,948.6,134.3,923.3,138.8Z" class="st11"></path>
            <g>
                <path d="M889.3,186L889.4,184.7C890.1,178.5,888.9,171.8,885.8,164.3L885.6,163.9C884.2,160.1,882.4,155.4,879.5,152.1L878.7,151.2L879.8,150.7C899.6,141.5,922.3,138.1,923,138C937.5,135.5,947.5,144.5,950,154.8C951.7,162.1,949.5,170.7,940.4,173.4L938.5,173.9C926.6,176.9,906.6,181.9,890.4,185.8L889.3,186ZM881.8,151.7C884.4,155.2,886,159.5,887.4,163.1L887.6,163.5C890.6,170.8,891.9,177.4,891.5,183.5C907.4,179.6,926.7,174.8,938.3,171.9L940.2,171.4C945.4,169.8,950.8,164.5,948.5,155C946.2,145.6,937,137.3,923.6,139.6L923.6,139.6C923.2,139.8,901.3,143,881.8,151.7Z"></path>
            </g>
            <path opacity="0.999" fill="#13121E" d="M908.1,181.2C908.1,167.9,904,154.9,897,143.7C891.1,145.5,884.8,147.8,878.7,150.6C881.9,154.4,883.8,159.7,885.4,163.7C888.3,170.6,890.1,178.1,889.3,185.7C895.2,184.4,901.7,182.8,908.1,181.2Z" class="st11"></path>
            <g>
                <path d="M888.2,187L888.3,185.7C889,179.2,887.8,172.1,884.5,164.2L884.3,163.7C882.8,159.7,880.9,154.8,877.9,151.3L877.1,150.4L878.2,149.9C883.7,147.4,889.9,145,896.7,142.9L897.4,142.7L897.8,143.3C905.1,154.9,909,168.1,909,181.2L909,181.9L908.3,182.1C901.3,183.8,894.9,185.4,889.5,186.7L888.2,187ZM880.2,151C882.9,154.6,884.7,159.3,886.1,163L886.3,163.4C889.5,171.1,890.8,178,890.3,184.5C895.3,183.3,900.9,181.9,907.1,180.4C906.9,168,903.3,155.8,896.6,144.8C890.7,146.7,885.1,148.8,880.2,151Z"></path>
            </g>
            <path opacity="0.27" d="M854.5,178.6C854.5,178.6,883.7,193.3,949.8,159.2C949.8,159.2,954.6,171.2,939.6,172.8C937.4,173,931.3,175.2,929.2,175.7L872.2,188.6C872.3,188.6,857.3,193.3,854.5,178.6Z" class="st12"></path>
        </g>
    </g>
    <g>
        <path fill="#F29657" d="M40.3,152.9L9.9,129.1C9.9,129.1,7.2,139.4,12.9,148.3L1,162.5L20.7,169.3L15.1,176.8C15.1,176.8,25.1,181.9,48.9,171.9L49.9,179.4L63.9,168.5L134.2,168.5C134.2,168.5,137.5,174.4,147.5,176.6L146.3,168.7C146.3,168.7,164,183.6,188.7,182.5L179.8,172C179.8,172,194,178.7,219.4,172.5L208.8,161.2L228.3,152.5C228.3,152.5,222.8,144.4,202.1,142.4L202.9,131.8L150,147.9L130.2,139.7L111.2,145.3L114.6,130.9C114.6,130.9,97.2,128.4,76.3,146.7L69.6,132.4C69.6,132.4,59.2,137.9,56.6,148.1L40.3,152.9Z" class="st24"></path>
        <g>
            <path opacity="0.7361" fill="#D36688" d="M9.9,129.1C9.9,129.1,12.7,142.8,18.3,146.5L8.1,158.9L23.1,168.9L15.1,176.8L19.8,168.7L1,162.5C4.7,158.1,8.5,153.7,12.2,149.2C11.1,147.7,8.8,144.2,8.3,139.1C7.9,134.4,9.2,130.8,9.9,129.1Z" class="st25"></path>
            <path opacity="0.7361" fill="#D36688" d="M19.3,177.8C30.2,173.7,41.1,169.6,52,165.6L52.8,171.7L63.1,166.3L99,168.3L63.6,168.7L49.9,179.3L48.4,171.4C48.3,171.3,27.3,183.4,19.3,177.8" class="st25"></path>
            <path opacity="0.7361" fill="#D36688" d="M133.5,168.3C133.5,168.3,141.2,173.5,143.9,172.4L140.4,162.6C140.4,162.6,171,183.1,184.2,178.1L188.5,182.4C188.5,182.4,162.4,182,152.7,173.1L146,169.7L147.2,176.5C147.4,176.4,138.1,176.6,133.5,168.3Z" class="st25"></path>
            <path opacity="0.7361" fill="#D36688" d="M174.7,168.4C179.7,169.5,185.5,170.4,192,170.7C201.5,171.2,209.8,170.5,216.4,169.3L219.2,172.3C214.2,173.5,210,174.2,207,174.5C207,174.5,196.9,175.7,186.1,174.3C184.1,174,181.4,173.6,178.5,171.8C176.8,170.7,175.5,169.3,174.7,168.4Z" class="st25"></path>
        </g>
        <g>
            <path d="M186.1,183.4C167.3,183.4,152.7,174.4,147.6,170.8L148.4,176.2C148.4,176.5,148.3,176.9,148.1,177.1C147.9,177.3,147.5,177.4,147.2,177.3C138.5,175.4,134.6,170.8,133.5,169.2L64.2,169.2L50.5,179.9C50.2,180.1,49.8,180.2,49.5,180C49.2,179.9,48.9,179.6,48.9,179.2L48.1,173C25,182.4,15.1,177.6,14.7,177.4C14.4,177.3,14.2,177,14.2,176.7C14.1,176.4,14.2,176.1,14.4,175.9L19.1,169.5L0.7,163.1C0.4,163,0.2,162.7,0.1,162.4C0,162.1,0.1,161.7,0.3,161.5L11.7,147.9C6.3,138.9,8.8,129,9,128.5C9.1,128.2,9.3,127.9,9.6,127.8C9.9,127.7,10.3,127.8,10.5,128L40.6,151.5L55.8,147C58.7,136.8,68.8,131.4,69.2,131.2C69.4,131.1,69.7,131,70,131.1C70.3,131.2,70.5,131.4,70.6,131.6L76.8,144.7C97.4,127.2,114.2,129.4,114.9,129.5C115.2,129.5,115.4,129.7,115.6,129.9C115.8,130.1,115.8,130.4,115.7,130.7L112.7,143.4L130.1,138.3C130.3,138.2,130.6,138.2,130.8,138.3L150.2,146.3L202.7,130.2C203,130.1,203.4,130.2,203.6,130.4C203.9,130.6,204,130.9,204,131.3L203.2,140.9C223.3,143.1,228.9,151,229.1,151.3C229.3,151.5,229.3,151.9,229.2,152.1C229.1,152.4,228.9,152.6,228.6,152.7L210.4,160.8L220,171.1C220.2,171.4,220.3,171.7,220.2,172.1C220.1,172.4,219.8,172.7,219.5,172.8C201.1,177.3,188.5,175.1,182.8,173.5L189.3,181.2C189.5,181.5,189.6,181.9,189.5,182.2C189.3,182.5,189,182.8,188.6,182.8C187.8,183.4,186.9,183.4,186.1,183.4ZM146.2,167.6C146.4,167.6,146.7,167.7,146.8,167.8C147,167.9,163.3,181.4,186,181.4C186.1,181.4,186.3,181.4,186.4,181.4L178.8,172.5C178.5,172.1,178.5,171.6,178.8,171.2C179.1,170.8,179.6,170.7,180,170.9C180.1,171,193.6,177.1,217.3,171.7L207.9,161.7C207.7,161.5,207.6,161.1,207.6,160.8C207.7,160.5,207.9,160.2,208.2,160.1L226.5,152C224.3,149.9,217.6,144.8,201.9,143.2C201.4,143.1,201,142.7,201,142.1L201.7,133L150.3,148.8C150.1,148.9,149.8,148.9,149.6,148.8L130.2,140.8L111.5,146.3C111.2,146.4,110.8,146.3,110.5,146.1C110.2,145.9,110.1,145.5,110.2,145.1L113.3,131.9C109.2,131.7,94.2,132.4,76.9,147.5C76.7,147.7,76.3,147.8,76,147.7C75.7,147.6,75.4,147.4,75.3,147.1L69.1,133.8C66.6,135.4,59.5,140.4,57.5,148.3C57.4,148.6,57.2,148.9,56.8,149L40.6,153.8C40.3,153.9,40,153.8,39.7,153.6L10.5,130.8C10,133.9,9.5,141.2,13.7,147.7C13.9,148.1,13.9,148.5,13.6,148.9L2.6,161.9L20.9,168.2C21.2,168.3,21.4,168.5,21.5,168.9C21.6,169.2,21.5,169.5,21.3,169.8L16.6,176.2C19.8,177.1,29.8,178.6,48.4,170.9C48.7,170.8,49,170.8,49.3,171C49.6,171.2,49.8,171.4,49.8,171.7L50.5,177.4L63.1,167.5C63.3,167.4,63.5,167.3,63.7,167.3L134,167.3C134.4,167.3,134.7,167.5,134.9,167.8C134.9,167.9,137.9,172.8,146.1,175.1L145.1,168.7C145,168.3,145.2,167.9,145.6,167.7C145.9,167.6,146.1,167.6,146.2,167.6Z"></path>
        </g>
    </g>
    <g transform="translate(40.7563,142.068) translate(-25.3563,-17.532)">
        <path transform="translate(-15.4,-124.536)" fill="#E94043" d="M39,153.1C35.9,149.7,29.7,144.1,16.4,134.3C30.8,125,46.4,122.7,56.2,129.4C57.7,130.4,64.7,135.1,65.1,142.9C65.4,149.4,60.8,156.5,54.3,158.2C49.6,159.5,45.2,157.6,44,157C41.2,155.6,39.5,153.7,39,153.1Z" class="st21"></path>
        <path transform="translate(-15.4,-124.536)" fill="#C63158" d="M18.7,134.4C23,135,30.9,136.6,39.2,141.9C47.3,147.1,51.9,153.5,54.2,157.1C54.2,157.1,55.8,159.7,50.7,158.7C45.6,157.7,40.8,154.9,40.8,154.9L16.5,134.3L18.7,134.4Z" class="st22"></path>
        <g transform="translate(-15.4,-124.536)">
            <path fill="#1E1E3F" d="M51,159.6C47.6,159.6,44.8,158.5,43.5,157.8C40.6,156.4,38.9,154.5,38.2,153.8L38.9,153.1L38.2,153.8C34.4,149.6,26.8,143.3,15.8,135.1C15.5,134.9,15.4,134.6,15.4,134.3C15.4,134,15.6,133.7,15.9,133.5C31.1,123.6,46.8,121.8,56.8,128.6C62.7,132.6,65.9,137.5,66.1,142.9C66.4,150.1,61.3,157.4,54.6,159.2C53.4,159.5,52.2,159.6,51,159.6ZM39.7,152.5C39.7,152.5,39.8,152.5,39.7,152.5C40.3,153.2,41.9,154.9,44.4,156.1C45.9,156.8,49.9,158.4,54,157.3C59.8,155.7,64.3,149.3,64,143C63.8,138.3,60.9,133.9,55.6,130.3C46.6,124.2,32,125.8,18.1,134.4C28.8,142.3,35.9,148.2,39.7,152.5L39.7,152.5Z" class="st19"></path>
        </g>
    </g>
    <path fill="#E94043" d="M115.5,141.7C122,131.1,147.7,123.4,158.9,136.3C160.5,138.1,161.4,140.5,161.2,142.8C160.2,158,121.8,143.9,115.5,141.7Z" class="st21"></path>
    <path fill="#C63158" d="M127.3,132.6C127.3,132.6,130.5,148.7,155,148.9C155,148.9,147.3,153,120.4,143.5L112.6,144.3C112.6,144.2,122.8,132.2,127.3,132.6Z" class="st22"></path>
    <g>
        <path fill="#1E1E3F" d="M150.3,150.2C141.3,150.2,128.8,147.2,119.8,144.2C119,143.9,116.6,144.6,115,145.1C112.9,145.7,111.8,146,111.1,145.7C110.8,145.6,110.6,145.4,110.5,145.1C110.4,144.8,110.5,144.5,110.7,144.2C111.7,142.8,117.7,137.6,119.9,135.8C126.5,130.5,135.8,128.1,145.5,129.3C152.1,130.1,157.6,132.5,159.9,135.6C161.3,137.4,162,139.3,162.1,141.3C162.3,145.4,159.4,149,155.3,149.7C153.7,150.1,152.1,150.2,150.3,150.2ZM119.3,142.2C119.7,142.2,120.1,142.2,120.4,142.3C131.9,146.1,147,149.2,154.9,147.8C158,147.3,160.2,144.5,160,141.5C159.9,139.9,159.3,138.4,158.2,136.9C156.2,134.3,151.1,132.1,145.1,131.4C140.8,130.9,129.8,130.4,121,137.4C119.3,138.7,116.4,141.3,114.3,143.2C114.3,143.2,114.3,143.2,114.3,143.2C116.4,142.6,118,142.2,119.3,142.2ZM111.6,143.9L111.6,143.9L111.6,143.9Z" class="st19"></path>
    </g>
</svg>
