<svg xmlns="http://www.w3.org/2000/svg" xmlns:xlink="http://www.w3.org/1999/xlink" viewBox="0 0 957.04642 172.18392">
  <defs>
    <style>
      .cls-1, .cls-8 {
        fill: none;
      }

      .cls-2 {
        isolation: isolate;
      }

      .cls-3 {
        fill: #372871;
      }

      .cls-4 {
        clip-path: url(#clip-path);
      }

      .cls-5, .cls-7 {
        fill: #fff;
      }

      .cls-5 {
        opacity: 0.8;
      }

      .cls-12, .cls-15, .cls-5 {
        mix-blend-mode: overlay;
      }

      .cls-6 {
        mix-blend-mode: color-dodge;
      }

      .cls-8 {
        stroke: #24173f;
        stroke-miterlimit: 10;
        stroke-width: 5px;
      }

      .cls-9 {
        fill: #665dd2;
      }

      .cls-10 {
        fill: #14142b;
      }

      .cls-11 {
        fill: #13121e;
        opacity: 0.99903;
      }

      .cls-12 {
        opacity: 0.27;
      }

      .cls-13 {
        fill: #4b48b7;
      }

      .cls-14 {
        fill: #92a6ff;
      }

      .cls-15 {
        opacity: 0.37;
      }

      .cls-16 {
        fill: #101011;
      }

      .cls-17 {
        clip-path: url(#clip-path-3);
      }

      .cls-18 {
        fill: #7a62f4;
        opacity: 0.09;
      }

      .cls-19 {
        fill: #1e1e3f;
      }

      .cls-20 {
        fill: #332031;
      }

      .cls-21 {
        fill: #e94043;
      }

      .cls-22 {
        fill: #c63158;
      }

      .cls-23 {
        fill: #f9ff7b;
        opacity: 0.42532;
      }

      .cls-24 {
        fill: #f29657;
      }

      .cls-25 {
        fill: #d36688;
        opacity: 0.73606;
      }

      .cls-26 {
        fill: #5041aa;
      }
    </style>
    <clipPath id="clip-path">
      <rect class="cls-1" x="14.58061" y="21.92859" width="928.40935" height="129.08835" rx="22.48675"/>
    </clipPath>
    <clipPath id="clip-path-3">
      <path class="cls-1" d="M917.31626,53.11911c-31.51837-4.09056-68.26078-8.86973-99.74-12.95621a4.494,4.494,0,0,0-4.98325,3.94268l-3.286,25.29628a9.83586,9.83586,0,0,0,8.34011,11.12943l28.12008,3.65279A9.83581,9.83581,0,0,0,856.674,75.55487l1.37727-10.60256a5.93125,5.93125,0,0,1,6.577-5.20365l2.19366.285a5.93126,5.93126,0,0,1,5.02929,6.71131l-1.37727,10.60251a9.83587,9.83587,0,0,0,8.34012,11.12943l28.12008,3.65279a9.8358,9.8358,0,0,0,10.90671-8.62921l3.286-25.29633A4.494,4.494,0,0,0,917.31626,53.11911Z"/>
    </clipPath>
  </defs>
  <g class="cls-2">
    <g id="Recuadro">
      <g id="Fondo">
        <rect class="cls-3" x="14.58061" y="21.92859" width="928.40935" height="129.08835" rx="22.48675"/>
      </g>
      <g id="Olas">
        <g class="cls-4">
          <path class="cls-5" d="M299.22006,201.77533c-16.489,7.74812-48.986,24.64866-63.39213,35.80138-17.43123,13.4942-43.61705,37.55334-26.01032,44.49572,6.782,2.67412,35.01711-3.72192,42.174-5.11093,13.37346-2.59565,36.94032-9.2278,50.314-11.82351,4.83051-.93743,9.98924-1.847,14.54146.02105,13.65156,5.60163,14.42005,32.02732,29.05631,30.15068,14.38179-1.84413,9.92038-27.93571,22.9138-34.37048,13.15535-6.51506,28.952,28.04247,43.6281,28.39193,10.83648.25821,3.03185-40.5852,19.6179-44.55873,16.58583-3.97348,19.76706,18.90156,29.901,16.47376s9.17568-23.13853,26.61053-26.82361c26.03066-5.50156,70.80846-9.32336,97.3725-7.8327,22.76079,1.27711,48.45051,6.8991,66.18529-7.42449,8.143-6.577,13.07769-16.472,21.20118-23.07317,8.68359-7.05647,31.07455,2.31659,42.00988-.05326,19.16355-4.15305,27.31509-20.25606,46.47866-24.40912,8.63736-1.87173,19.16024-3.167,24.93681,3.52166,2.39143,2.76941,10.21646,17.27913,12.83353,19.83631,8.75145,8.55093,15.33765-13.28525,24.78629-21.059,16.66091-13.70755,39.12576-17.445,60.45489-20.69265,14.36134-2.18686,30.1645-4.09715,42.43829,3.674,7.88151,4.98995,17.44466,13.81808,24.62642,7.8648,4.66856-3.87032,4.155-11.96734,9.15391-15.40009,6.69853-4.60018,14.84,3.2634,19.13253,10.16269q11.04126,17.74595,22.08244,35.49192c3.2506,5.22439,8.5487,11.22831,14.32317,9.10389,5.41626-1.99236,5.99435-9.30516,5.62734-15.06458-1.02175-16.0426-15.38127-45.17747-3.0653-48.128,12.31574-2.95049,19.78847,20.30639,32.662,16.481,15.5814-4.63037-7.34316-45.01525,4.7194-47.90508s7.94706,33.1721,23.02521,29.55982,13.221-33.70994,31.31921-48.95647c3.60422-3.03627,40.60168-18.52063,42.3446-22.89941,5.6204-14.12057-31.173-25.57636-45.4249-30.85491-25.31411-9.37536-55.183-17.954-77.871-3.32687-12.67705,8.173-20.7804,22.4936-34.22864,29.32425C965.0161,77.947,924.69509,47.266,894.78269,64.28126c-6.36023,3.61781-11.49443,9.11659-17.866,12.71364-22.77392,12.857-52.3515-2.11927-77.21317,5.9952-12.34678,4.02951-22.2088,13.36491-33.91416,18.99194-28.03068,13.47514-61.63163,3.99122-92.06441,10.40512-48.901,10.30577-85.70406,60.52928-135.66446,59.32017-19.41218-.47-38.79441-8.99947-57.7251-4.67718-15.66773,3.57735-28.04551,15.34442-42.61527,22.126C395.24431,208.92655,342.46305,183.74448,299.22006,201.77533Z"/>
          <path class="cls-5" d="M312.04749,227.03c-16.489,7.74812-48.986,24.64866-63.39213,35.80139-17.43123,13.49419-43.61705,37.55334-26.01032,44.49571,6.782,2.67412,35.01711-3.72192,42.174-5.11093,13.37345-2.59565,36.94031-9.2278,50.314-11.82351,4.83052-.93743,9.98924-1.847,14.54147.02105,13.65155,5.60163,14.42,32.02732,29.05631,30.15068,14.38178-1.84412,9.92037-27.93571,22.91379-34.37048,13.15535-6.51506,28.952,28.04247,43.6281,28.39193,10.83648.25821,3.03185-40.5852,19.6179-44.55873,16.58583-3.97347,19.76706,18.90156,29.901,16.47376s9.17568-23.13853,26.61053-26.82361c26.03065-5.50156,70.80845-9.32336,97.37249-7.83269,22.7608,1.27711,48.45051,6.89909,66.18529-7.4245,8.143-6.577,13.0777-16.472,21.20118-23.07317,8.68359-7.05646,31.07455,2.31659,42.00989-.05326,19.16354-4.153,27.31508-20.25606,46.47865-24.40912,8.63736-1.87173,19.16025-3.167,24.93682,3.52167,2.39142,2.7694,10.21645,17.27912,12.83352,19.8363,8.75145,8.55093,15.33765-13.28525,24.78629-21.059,16.66092-13.70756,39.12576-17.445,60.4549-20.69266,14.36133-2.18686,30.1645-4.09715,42.43828,3.674,7.88151,4.99,17.44466,13.81808,24.62642,7.8648,4.66856-3.87032,4.15505-11.96734,9.15392-15.40009,6.69853-4.60017,14.83995,3.2634,19.13252,10.16269q11.04127,17.74594,22.08244,35.49192c3.2506,5.22439,8.5487,11.22831,14.32317,9.10389,5.41627-1.99236,5.99435-9.30516,5.62734-15.06458-1.02175-16.04259-15.38127-45.17746-3.0653-48.128,12.31575-2.95049,19.78847,20.30639,32.662,16.481,15.58139-4.63038-7.34317-45.01525,4.71939-47.90509s7.94706,33.1721,23.02521,29.55982,13.221-33.70994,31.31922-48.95647c3.60421-3.03627,40.60167-18.52063,42.34459-22.89941,5.62041-14.12057-31.173-25.57635-45.4249-30.85491-25.31411-9.37536-55.183-17.954-77.871-3.32687-12.67706,8.173-20.78041,22.4936-34.22865,29.32426-30.68236,15.58391-71.00338-15.09705-100.91578,1.9182-6.36023,3.6178-11.49442,9.11658-17.866,12.71363-22.77392,12.857-52.35149-2.11927-77.21317,5.9952-12.34678,4.02951-22.2088,13.36491-33.91415,18.99194-28.03069,13.47514-61.63164,3.99122-92.06442,10.40512-48.901,10.30577-85.70406,60.52928-135.66446,59.32018-19.41218-.47-38.79441-8.99948-57.7251-4.67718-15.66773,3.57734-28.04551,15.34441-42.61526,22.126C408.07174,234.18124,355.29048,208.99918,312.04749,227.03Z"/>
          <path class="cls-5" d="M831.11872-187.74016c14.7149-10.742,43.40558-33.51332,55.42825-47.20179,14.5474-16.56244,35.68083-45.16171,17.07526-48.62963-7.16675-1.33579-33.67057,10.31226-40.43282,13.03677-12.63593,5.09117-34.51179,16.08339-47.14793,21.17465-4.56415,1.83881-9.45581,3.71271-14.28018,2.74429-14.46762-2.90369-20.24674-28.70116-34.25916-24.07578-13.76876,4.54508-4.42762,29.31235-15.96046,38.10034-11.67656,8.89759-33.7559-22.02587-48.23069-19.5784-10.68788,1.807,4.74044,40.42126-10.78749,47.476-15.52771,7.05466-23.00042-14.79816-32.48788-10.48775s-4.60866,24.46109-21.02475,31.39405c-24.50968,10.35073-67.74389,22.617-94.10674,26.20447-22.5884,3.074-48.87842,2.43928-63.56612,19.8737-6.74393,8.00532-9.70709,18.65808-16.4272,26.68348-7.18344,8.57886-30.94813,3.63428-41.23335,8.04017-18.02426,7.72109-22.96522,25.08028-40.9895,32.80138-8.12389,3.47992-18.20852,6.7524-25.1515,1.28415-2.87438-2.26418-13.31557-15.02131-16.37113-17.03422C330.94764-92.66517,328.63359-69.975,320.83545-60.5465,307.08488-43.92108,285.74052-35.9803,265.418-28.7363c-13.68351,4.87767-28.83515,9.758-42.36263,4.4624-8.68653-3.40031-19.75382-10.249-25.67258-3.03879-3.84748,4.68741-1.80374,12.53907-6.0587,16.8597-5.70164,5.78992-15.18973-.38216-20.71585-6.33938Q156.39417-32.11515,142.18015-47.438c-4.18467-4.511-10.52771-9.398-15.7929-6.21435-4.93862,2.98588-4.11568,10.27519-2.66025,15.85974,4.05349,15.55565,23.69083,41.42864,12.16057,46.66715C124.35752,14.113,112.599-7.29874,100.6877-1.09534c-14.41671,7.50859-8.84861-5.56674-20.14163-.436S78.33183-5.69226,64.21561.72112,19.95707-14.30978,5.08808,4.09984C2.12694,7.766-3.60642,91.669-4.485,96.29933c-2.83294,14.93164,58.23287,29.62539,73.2284,32.09775,26.635,4.391,57.59011,7.13385,77.08292-11.54042,10.89175-10.43435,16.12431-26.03448,28.0284-35.29761,27.15944-21.13364,72.57863,1.32085,98.71-21.0716,5.5563-4.76116,9.55127-11.13585,15.12268-15.8788C307.60123,27.656,339.48683,36.735,362.352,24.0413c11.35535-6.30364,19.26239-17.34392,29.68426-25.094,24.9571-18.55913,59.74835-15.63721,88.40638-27.72068,46.04934-19.41593,72.6313-75.721,121.91015-84.03357,19.1474-3.22971,39.79785,1.45882,57.56132-6.38416,14.70169-6.49118,24.61624-20.39713,37.63072-29.82533C735.48654-176.5026,792.09306-161.81592,831.11872-187.74016Z"/>
          <path class="cls-5" d="M813.7233-210.09507c14.71491-10.742,43.40559-33.51332,55.42826-47.2018,14.5474-16.56244,35.68083-45.1617,17.07526-48.62963-7.16675-1.33578-33.67058,10.31227-40.43282,13.03678-12.63593,5.09116-34.51179,16.08338-47.14794,21.17464-4.56414,1.83882-9.4558,3.71271-14.28017,2.7443-14.46762-2.9037-20.24674-28.70117-34.25916-24.07579-13.76876,4.54508-4.42762,29.31236-15.96047,38.10034-11.67655,8.8976-33.75589-22.02586-48.23068-19.5784-10.68789,1.807,4.74043,40.42127-10.78749,47.476-15.52771,7.05466-23.00043-14.79816-32.48788-10.48775s-4.60866,24.46108-21.02475,31.394c-24.50969,10.35073-67.74389,22.617-94.10674,26.20448-22.5884,3.074-48.87842,2.43928-63.56612,19.87369-6.74393,8.00532-9.70709,18.65809-16.4272,26.68349-7.18344,8.57885-30.94813,3.63427-41.23335,8.04017-18.02426,7.72109-22.96522,25.08028-40.9895,32.80138C357.16866-89.05918,347.084-85.7867,340.141-91.255c-2.87437-2.26417-13.31556-15.0213-16.37112-17.03422-10.21769-6.7309-12.53174,15.95923-20.32988,25.38776C289.68947-66.276,268.34511-58.33521,248.02261-51.09121c-13.68351,4.87766-28.83515,9.758-42.36263,4.4624-8.68653-3.40031-19.75382-10.249-25.67258-3.03879-3.84748,4.68741-1.80374,12.53907-6.0587,16.85969-5.70164,5.78993-15.18973-.38215-20.71585-6.33937q-14.21409-15.32279-28.42811-30.64561c-4.18467-4.511-10.52772-9.398-15.7929-6.21436-4.93862,2.98588-4.11568,10.27519-2.66026,15.85975,4.0535,15.55564,23.69084,41.42863,12.16058,46.66714-11.53005,5.23842-23.28857-16.17329-35.19987-9.96989-14.41671,7.50859-25.80348-15.30964-37.0965-10.17891S73.65828-6.57761,59.54206-.16423,1.37413-4.17363-13.49486,14.236C-16.456,17.90218,1.76354,79.75708.885,84.38738c-2.83294,14.93164,35.4675,19.18243,50.463,21.65479,26.635,4.391,57.59011,7.13385,77.08292-11.54042,10.89175-10.43435,16.12431-26.03448,28.0284-35.29761,27.15944-21.13364,72.57863,1.32084,98.71-21.07161,5.5563-4.76115,9.55127-11.13585,15.12268-15.87879C290.20582,5.301,322.09141,14.38009,344.95662,1.68639,356.312-4.61726,364.219-15.65754,374.64088-23.4076c24.9571-18.55914,59.74835-15.63722,88.40638-27.72068,46.04934-19.41593,72.6313-75.721,121.91015-84.03357,19.1474-3.22971,39.79785,1.45882,57.56132-6.38416,14.70169-6.49119,24.61623-20.39713,37.63071-29.82533C718.09113-198.85751,774.69765-184.17083,813.7233-210.09507Z"/>
        </g>
      </g>
      <g id="Brillo">
        <g class="cls-6">
          <g class="cls-4">
            <g>
              <polygon class="cls-7" points="801.593 -9.499 694.001 51.391 796.07 -18.363 801.593 -9.499"/>
              <polygon class="cls-7" points="912.616 68.636 788.399 62.567 912.687 58.193 912.616 68.636"/>
              <polygon class="cls-7" points="718.997 239.782 664.434 130.244 728.138 234.73 718.997 239.782"/>
              <polygon class="cls-7" points="716.464 163.594 694.001 136.87 720.052 160.111 716.464 163.594"/>
              <polygon class="cls-7" points="799.91 20.985 749.832 42.174 797.752 16.475 799.91 20.985"/>
              <polygon class="cls-7" points="827.352 191.963 703.3 111.234 832.736 183.014 827.352 191.963"/>
              <polygon class="cls-7" points="179.336 -6.632 240.432 37.591 173.813 2.232 179.336 -6.632"/>
              <polygon class="cls-7" points="87.487 42.931 200.095 51.678 87.16 53.37 87.487 42.931"/>
              <polygon class="cls-7" points="241.244 163.433 286.84 130.244 248.146 171.272 241.244 163.433"/>
              <polygon class="cls-7" points="171.083 139.681 254.27 99.84 176.12 148.83 171.083 139.681"/>
            </g>
          </g>
        </g>
      </g>
      <g id="Texto">
        <g>
          <path class="cls-8" d="M303.863,49.74776c8.00049,0,11.60107,5.7002,11.60107,11.40088,0,5.75-3.60058,11.35059-11.60107,11.35059h-6.3501V84.19991h-7.85059V49.74776Zm-.34961,15.90088c2.95019,0,4.05029-2.2998,4.05029-4.5s-1.1001-4.55029-4.00049-4.55029h-6.05029v9.05029Z"/>
          <path class="cls-8" d="M342.1643,74.69942H325.06322c.69971,2.25,2.64991,3.64991,5.4502,3.64991a8.85666,8.85666,0,0,0,5.90039-2.39991l3.80029,4.8003A14.3066,14.3066,0,0,1,330.01342,84.8c-7.40039,0-12.60059-5.10059-12.60059-12.20068,0-7.60059,5.8501-12.35108,12.55078-12.35108,6.7002,0,12.30079,4.70069,12.30079,11.80078C342.2644,72.69942,342.2141,73.549,342.1643,74.69942Zm-7.25049-4.35058c-.1001-2.29981-2.15039-3.8501-4.80029-3.8501a4.94942,4.94942,0,0,0-5.10059,3.8501Z"/>
          <path class="cls-8" d="M370.31371,71.64913V84.19991h-7.40039V72.09933c0-3.60059-2.20019-5.00049-4.05029-5.00049-2,0-4.50049,1.05029-4.50049,4.95019V84.19991h-7.40039V60.84835h7.40039v4.2002c.80029-3.29981,4.50049-4.8003,6.70068-4.8003C367.26342,60.24825,370.31371,64.49874,370.31371,71.64913Z"/>
          <path class="cls-8" d="M393.46264,60.84835h7.35058V81.39962c0,9.90088-5.20019,14.90088-13.65088,14.90088A12.53083,12.53083,0,0,1,375.512,88.8l6.1001-2.4502A6.243,6.243,0,0,0,387.16234,89.8c3.8501,0,6.3003-2.1499,6.3003-7.5v-.7002A9.62132,9.62132,0,0,1,386.21215,84.8c-5.80029,0-11.30029-4.75049-11.30029-12.30078s5.5-12.251,11.30029-12.251a9.56925,9.56925,0,0,1,7.25049,3.15039Zm-.29981,11.65088a5.37576,5.37576,0,1,0-5.35058,5.45019A5.46582,5.46582,0,0,0,393.16283,72.49923Z"/>
          <path class="cls-8" d="M422.66234,60.84835h7.4004V84.19991h-7.4004V80.19942c-.7998,3.25049-4.55029,4.60059-6.70019,4.60059-6.2002,0-9.25049-4.2002-9.25049-11.35059V60.84835h7.40039V72.99923c0,3.6001,2.1499,4.95019,4.05029,4.95019,1.9502,0,4.5-1.0498,4.5-4.95019Z"/>
          <path class="cls-8" d="M435.36108,53.04806a4.43442,4.43442,0,0,1,4.60009-4.3003,4.34685,4.34685,0,0,1,4.50049,4.3003,4.41042,4.41042,0,0,1-4.50049,4.30029A4.5004,4.5004,0,0,1,435.36108,53.04806Zm.8999,31.15185V60.84835h7.40039V84.19991Z"/>
          <path class="cls-8" d="M473.21215,71.64913V84.19991h-7.40039V72.09933c0-3.60059-2.2002-5.00049-4.05029-5.00049-2,0-4.50049,1.05029-4.50049,4.95019V84.19991h-7.40039V60.84835H457.261v4.2002c.80029-3.29981,4.50049-4.8003,6.70068-4.8003C470.16186,60.24825,473.21215,64.49874,473.21215,71.64913Z"/>
          <path class="cls-8" d="M513.41088,56.59835H499.4602v7.25049H510.511v6.80029H499.4602V84.19991h-7.85059V49.74776h21.80127Z"/>
          <path class="cls-8" d="M517.05981,53.04806a4.43442,4.43442,0,0,1,4.60009-4.3003,4.34685,4.34685,0,0,1,4.50049,4.3003,4.41042,4.41042,0,0,1-4.50049,4.30029A4.5004,4.5004,0,0,1,517.05981,53.04806Zm.8999,31.15185V60.84835h7.40039V84.19991Z"/>
          <path class="cls-8" d="M554.91039,71.64913V84.19991h-7.3999V72.09933c0-3.60059-2.2002-5.00049-4.05029-5.00049-2,0-4.50049,1.05029-4.50049,4.95019V84.19991h-7.40039V60.84835h7.40039v4.2002c.80029-3.29981,4.50049-4.8003,6.70068-4.8003C551.86059,60.24825,554.91039,64.49874,554.91039,71.64913Z"/>
          <path class="cls-8" d="M578.06078,60.84835h7.40039V84.19991h-7.40039V81.24972A9.2234,9.2234,0,0,1,570.66039,84.8c-6.55078,0-11.15137-4.9502-11.15137-12.251,0-7.35009,4.60059-12.30078,11.251-12.30078a9.191,9.191,0,0,1,7.30078,3.40039Zm-.25,11.70068a5.38928,5.38928,0,0,0-5.40039-5.45019,5.28566,5.28566,0,0,0-5.35058,5.45019,5.3446,5.3446,0,0,0,5.40039,5.40039A5.43162,5.43162,0,0,0,577.81078,72.549Z"/>
          <path class="cls-8" d="M615.01,71.64913V84.19991h-7.40039V72.09933c0-3.60059-2.2002-5.00049-4.0498-5.00049-2,0-4.5,1.05029-4.5,4.95019V84.19991h-7.4004V60.84835h7.4004v4.2002c.7998-3.29981,4.5-4.8003,6.70019-4.8003C611.9602,60.24825,615.01,64.49874,615.01,71.64913Z"/>
          <path class="cls-8" d="M619.509,72.44942c0-7.40087,6.10059-12.20117,12.90039-12.20117a12.00655,12.00655,0,0,1,10.20118,5.50049l-5.751,3.6001a5.49354,5.49354,0,0,0-4.39941-2.25,5.15659,5.15659,0,0,0-5.40039,5.35058,5.248,5.248,0,0,0,5.40039,5.5,5.49351,5.49351,0,0,0,4.39941-2.25l5.751,3.6001A12.00655,12.00655,0,0,1,632.40941,84.8C625.60961,84.8,619.509,79.84981,619.509,72.44942Z"/>
          <path class="cls-8" d="M670.16039,74.69942H653.05883c.70019,2.25,2.65039,3.64991,5.45117,3.64991a8.85859,8.85859,0,0,0,5.90039-2.39991l3.79981,4.8003A14.30631,14.30631,0,0,1,658.01,84.8c-7.40137,0-12.60156-5.10059-12.60156-12.20068,0-7.60059,5.85058-12.35108,12.55078-12.35108,6.70117,0,12.30078,4.70069,12.30078,11.80078C670.26,72.69942,670.2102,73.549,670.16039,74.69942Zm-7.251-4.35058c-.0996-2.29981-2.14941-3.8501-4.7998-3.8501a4.94942,4.94942,0,0,0-5.10059,3.8501Z"/>
        </g>
        <g>
          <path class="cls-7" d="M303.863,49.74776c8.00049,0,11.60107,5.7002,11.60107,11.40088,0,5.75-3.60058,11.35059-11.60107,11.35059h-6.3501V84.19991h-7.85059V49.74776Zm-.34961,15.90088c2.95019,0,4.05029-2.2998,4.05029-4.5s-1.1001-4.55029-4.00049-4.55029h-6.05029v9.05029Z"/>
          <path class="cls-7" d="M342.1643,74.69942H325.06322c.69971,2.25,2.64991,3.64991,5.4502,3.64991a8.85666,8.85666,0,0,0,5.90039-2.39991l3.80029,4.8003A14.3066,14.3066,0,0,1,330.01342,84.8c-7.40039,0-12.60059-5.10059-12.60059-12.20068,0-7.60059,5.8501-12.35108,12.55078-12.35108,6.7002,0,12.30079,4.70069,12.30079,11.80078C342.2644,72.69942,342.2141,73.549,342.1643,74.69942Zm-7.25049-4.35058c-.1001-2.29981-2.15039-3.8501-4.80029-3.8501a4.94942,4.94942,0,0,0-5.10059,3.8501Z"/>
          <path class="cls-7" d="M370.31371,71.64913V84.19991h-7.40039V72.09933c0-3.60059-2.20019-5.00049-4.05029-5.00049-2,0-4.50049,1.05029-4.50049,4.95019V84.19991h-7.40039V60.84835h7.40039v4.2002c.80029-3.29981,4.50049-4.8003,6.70068-4.8003C367.26342,60.24825,370.31371,64.49874,370.31371,71.64913Z"/>
          <path class="cls-7" d="M393.46264,60.84835h7.35058V81.39962c0,9.90088-5.20019,14.90088-13.65088,14.90088A12.53083,12.53083,0,0,1,375.512,88.8l6.1001-2.4502A6.243,6.243,0,0,0,387.16234,89.8c3.8501,0,6.3003-2.1499,6.3003-7.5v-.7002A9.62132,9.62132,0,0,1,386.21215,84.8c-5.80029,0-11.30029-4.75049-11.30029-12.30078s5.5-12.251,11.30029-12.251a9.56925,9.56925,0,0,1,7.25049,3.15039Zm-.29981,11.65088a5.37576,5.37576,0,1,0-5.35058,5.45019A5.46582,5.46582,0,0,0,393.16283,72.49923Z"/>
          <path class="cls-7" d="M422.66234,60.84835h7.4004V84.19991h-7.4004V80.19942c-.7998,3.25049-4.55029,4.60059-6.70019,4.60059-6.2002,0-9.25049-4.2002-9.25049-11.35059V60.84835h7.40039V72.99923c0,3.6001,2.1499,4.95019,4.05029,4.95019,1.9502,0,4.5-1.0498,4.5-4.95019Z"/>
          <path class="cls-7" d="M435.36108,53.04806a4.43442,4.43442,0,0,1,4.60009-4.3003,4.34685,4.34685,0,0,1,4.50049,4.3003,4.41042,4.41042,0,0,1-4.50049,4.30029A4.5004,4.5004,0,0,1,435.36108,53.04806Zm.8999,31.15185V60.84835h7.40039V84.19991Z"/>
          <path class="cls-7" d="M473.21215,71.64913V84.19991h-7.40039V72.09933c0-3.60059-2.2002-5.00049-4.05029-5.00049-2,0-4.50049,1.05029-4.50049,4.95019V84.19991h-7.40039V60.84835H457.261v4.2002c.80029-3.29981,4.50049-4.8003,6.70068-4.8003C470.16186,60.24825,473.21215,64.49874,473.21215,71.64913Z"/>
          <path class="cls-7" d="M513.41088,56.59835H499.4602v7.25049H510.511v6.80029H499.4602V84.19991h-7.85059V49.74776h21.80127Z"/>
          <path class="cls-7" d="M517.05981,53.04806a4.43442,4.43442,0,0,1,4.60009-4.3003,4.34685,4.34685,0,0,1,4.50049,4.3003,4.41042,4.41042,0,0,1-4.50049,4.30029A4.5004,4.5004,0,0,1,517.05981,53.04806Zm.8999,31.15185V60.84835h7.40039V84.19991Z"/>
          <path class="cls-7" d="M554.91039,71.64913V84.19991h-7.3999V72.09933c0-3.60059-2.2002-5.00049-4.05029-5.00049-2,0-4.50049,1.05029-4.50049,4.95019V84.19991h-7.40039V60.84835h7.40039v4.2002c.80029-3.29981,4.50049-4.8003,6.70068-4.8003C551.86059,60.24825,554.91039,64.49874,554.91039,71.64913Z"/>
          <path class="cls-7" d="M578.06078,60.84835h7.40039V84.19991h-7.40039V81.24972A9.2234,9.2234,0,0,1,570.66039,84.8c-6.55078,0-11.15137-4.9502-11.15137-12.251,0-7.35009,4.60059-12.30078,11.251-12.30078a9.191,9.191,0,0,1,7.30078,3.40039Zm-.25,11.70068a5.38928,5.38928,0,0,0-5.40039-5.45019,5.28566,5.28566,0,0,0-5.35058,5.45019,5.3446,5.3446,0,0,0,5.40039,5.40039A5.43162,5.43162,0,0,0,577.81078,72.549Z"/>
          <path class="cls-7" d="M615.01,71.64913V84.19991h-7.40039V72.09933c0-3.60059-2.2002-5.00049-4.0498-5.00049-2,0-4.5,1.05029-4.5,4.95019V84.19991h-7.4004V60.84835h7.4004v4.2002c.7998-3.29981,4.5-4.8003,6.70019-4.8003C611.9602,60.24825,615.01,64.49874,615.01,71.64913Z"/>
          <path class="cls-7" d="M619.509,72.44942c0-7.40087,6.10059-12.20117,12.90039-12.20117a12.00655,12.00655,0,0,1,10.20118,5.50049l-5.751,3.6001a5.49354,5.49354,0,0,0-4.39941-2.25,5.15659,5.15659,0,0,0-5.40039,5.35058,5.248,5.248,0,0,0,5.40039,5.5,5.49351,5.49351,0,0,0,4.39941-2.25l5.751,3.6001A12.00655,12.00655,0,0,1,632.40941,84.8C625.60961,84.8,619.509,79.84981,619.509,72.44942Z"/>
          <path class="cls-7" d="M670.16039,74.69942H653.05883c.70019,2.25,2.65039,3.64991,5.45117,3.64991a8.85859,8.85859,0,0,0,5.90039-2.39991l3.79981,4.8003A14.30631,14.30631,0,0,1,658.01,84.8c-7.40137,0-12.60156-5.10059-12.60156-12.20068,0-7.60059,5.85058-12.35108,12.55078-12.35108,6.70117,0,12.30078,4.70069,12.30078,11.80078C670.26,72.69942,670.2102,73.549,670.16039,74.69942Zm-7.251-4.35058c-.0996-2.29981-2.14941-3.8501-4.7998-3.8501a4.94942,4.94942,0,0,0-5.10059,3.8501Z"/>
        </g>
        <g>
          <path class="cls-7" d="M375.39916,107.55782H371.97v-2.24951h9.78028v2.24951h-3.42969v9.43555h-2.92139Z"/>
          <path class="cls-7" d="M382.87475,104.76437h2.92138v4.26318a4.35033,4.35033,0,0,1,1.23389-.58887,5.1379,5.1379,0,0,1,1.54248-.22754,2.90072,2.90072,0,0,1,3.33838,3.32129v5.46094h-2.92139v-5.26172a1.43351,1.43351,0,0,0-.31738-1.05273,1.55969,1.55969,0,0,0-1.09766-.3086,2.36645,2.36645,0,0,0-.96191.21778,2.68248,2.68248,0,0,0-.81641.54492v5.86035h-2.92138Z"/>
          <path class="cls-7" d="M394.64135,116.03146a4.15234,4.15234,0,0,1-1.3335-3.3379,4.53342,4.53342,0,0,1,1.15235-3.29394,5.28562,5.28562,0,0,1,6.50488-.13574,3.66136,3.66136,0,0,1,1.14307,2.83105v1.542h-6.09668a1.66594,1.66594,0,0,0,.90722,1.17969,4.77084,4.77084,0,0,0,2.03223.34473,8.528,8.528,0,0,0,1.44238-.127,5.96914,5.96914,0,0,0,1.2251-.32714v1.90527a8.18139,8.18139,0,0,1-3.33887.5625A5.40454,5.40454,0,0,1,394.64135,116.03146Zm4.92676-4.082v-.38086q0-1.37988-1.66944-1.3789a2.0566,2.0566,0,0,0-1.46093.417,1.8158,1.8158,0,0,0-.42627,1.34277Z"/>
          <path class="cls-7" d="M410.83568,114.14474h-1.252v-1.90528h1.85059l.67138-2.15918h-1.75976v-1.92285h2.377l.88916-2.84912h2.522l-.90722,2.84912h2.37695l.88916-2.84912h2.522l-.90722,2.84912h1.19775v1.92285H419.509l-.68945,2.15918h1.72363v1.90528h-2.32226l-.88916,2.84863h-2.5044l.88916-2.84863h-2.377l-.88916,2.84863h-2.50391Zm5.48-1.90528.67139-2.15918h-2.35889l-.68945,2.15918Z"/>
          <path class="cls-7" d="M424.35375,107.99337l-1.92334.30859v-2.44922l4.84473-.72558v11.86621h-2.92139Z"/>
          <path class="cls-7" d="M435.47631,105.30831h5.75195a3.91747,3.91747,0,0,1,3.05762,1.15186,4.81105,4.81105,0,0,1,.53516,5.14453,3.57088,3.57088,0,0,1-1.46045,1.44238,4.55007,4.55007,0,0,1-2.20459.51758h-2.7583v3.42871h-2.92139Zm5.02637,6.00635a1.81075,1.81075,0,0,0,1.3789-.499,1.88873,1.88873,0,0,0,.47168-1.35253,2.065,2.065,0,0,0-.43554-1.415,1.68282,1.68282,0,0,0-1.32422-.49024h-2.1958v3.75684Z"/>
          <path class="cls-7" d="M446.47191,108.39278h2.77637l.09082.79883a7.37418,7.37418,0,0,1,1.415-.626,7.16572,7.16572,0,0,1,1.65137-.35449v2.19629a12.24018,12.24018,0,0,0-1.6333.31738,7.30372,7.30372,0,0,0-1.37891.48047v5.78809h-2.92139Z"/>
          <path class="cls-7" d="M452.35082,112.69356a4.38838,4.38838,0,0,1,1.20654-3.33007,6.36779,6.36779,0,0,1,7.29444-.00879,4.38326,4.38326,0,0,1,1.20654,3.33886q0,4.481-4.86279,4.48145Q452.35058,117.175,452.35082,112.69356Zm6.29639,1.6875a2.59377,2.59377,0,0,0,.43554-1.6875,2.55311,2.55311,0,0,0-.44482-1.6875,1.82506,1.82506,0,0,0-1.44238-.50878,1.7786,1.7786,0,0,0-1.4336.51757,3.46985,3.46985,0,0,0,0,3.36621,1.79535,1.79535,0,0,0,1.4336.50782A1.82112,1.82112,0,0,0,458.64721,114.38106Z"/>
          <path class="cls-7" d="M462.00365,120.87618v-1.97754a3.41958,3.41958,0,0,0,1.08838.18164,1.46027,1.46027,0,0,0,.96192-.26367,1.02545,1.02545,0,0,0,.3081-.82519V110.552h-1.27l.25391-2.15918h3.9375v9.85254a2.99285,2.99285,0,0,1-.78906,2.18653,3.14667,3.14667,0,0,1-2.34961.80761A5.48411,5.48411,0,0,1,462.00365,120.87618Zm2.1045-16.03955h3.17529v2.1958h-3.17529Z"/>
          <path class="cls-7" d="M470.10473,116.03146a4.15234,4.15234,0,0,1-1.3335-3.3379,4.53342,4.53342,0,0,1,1.15235-3.29394,5.28562,5.28562,0,0,1,6.50488-.13574,3.66139,3.66139,0,0,1,1.14306,2.83105v1.542h-6.09668a1.666,1.666,0,0,0,.90723,1.17969,4.77084,4.77084,0,0,0,2.03223.34473,8.52808,8.52808,0,0,0,1.44238-.127,5.96932,5.96932,0,0,0,1.2251-.32714v1.90527a8.18142,8.18142,0,0,1-3.33887.5625A5.40454,5.40454,0,0,1,470.10473,116.03146Zm4.92676-4.082v-.38086q0-1.37988-1.66944-1.3789a2.05664,2.05664,0,0,0-1.46094.417,1.8158,1.8158,0,0,0-.42627,1.34277Z"/>
          <path class="cls-7" d="M479.97582,116.03146a4.24155,4.24155,0,0,1-1.2793-3.3379,4.163,4.163,0,0,1,1.32471-3.34765,5.39914,5.39914,0,0,1,3.62891-1.13477,8.67564,8.67564,0,0,1,1.64209.13672,5.69548,5.69548,0,0,1,1.35156.44434v2.06836a5.42176,5.42176,0,0,0-2.377-.49024,3.03521,3.03521,0,0,0-1.95948.52637,2.22,2.22,0,0,0-.63525,1.79687,2.26334,2.26334,0,0,0,.61719,1.76856,2.88209,2.88209,0,0,0,1.95947.55371,5.33026,5.33026,0,0,0,2.41357-.54395v2.15821a7.68141,7.68141,0,0,1-3.06689.54492A5.24706,5.24706,0,0,1,479.97582,116.03146Z"/>
          <path class="cls-7" d="M488.90258,116.37618a3.1298,3.1298,0,0,1-.771-2.26758v-3.50195h-1.16113v-2.21387h1.16113v-1.7959l2.92139-.78027v2.57617h2.08643l-.127,2.21387H491.053v3.30273a1.07731,1.07731,0,0,0,.29053.86133,1.45836,1.45836,0,0,0,.94336.24512,3.36833,3.36833,0,0,0,1.07031-.18164v1.97754a5.4311,5.4311,0,0,1-2.12256.36328A3.10413,3.10413,0,0,1,488.90258,116.37618Z"/>
          <path class="cls-7" d="M500.47,112.69356a4.38838,4.38838,0,0,1,1.20654-3.33007,6.36779,6.36779,0,0,1,7.29444-.00879,4.38326,4.38326,0,0,1,1.20654,3.33886q0,4.481-4.86279,4.48145Q500.46972,117.175,500.47,112.69356Zm6.29639,1.6875a2.59377,2.59377,0,0,0,.43555-1.6875,2.55311,2.55311,0,0,0-.44483-1.6875,1.82506,1.82506,0,0,0-1.44238-.50878,1.7786,1.7786,0,0,0-1.4336.51757,3.46985,3.46985,0,0,0,0,3.36621,1.79535,1.79535,0,0,0,1.4336.50782A1.82112,1.82112,0,0,0,506.76635,114.38106Z"/>
          <path class="cls-7" d="M511.66479,108.39278h2.72168l.09082.74414a5.06163,5.06163,0,0,1,1.37011-.66211,5.31221,5.31221,0,0,1,1.66016-.26367,3.23809,3.23809,0,0,1,2.42236.79883,3.43771,3.43771,0,0,1,.771,2.46777v5.51563h-2.92139V111.7131a1.40392,1.40392,0,0,0-.31738-1.03418,1.55969,1.55969,0,0,0-1.09766-.3086,2.36645,2.36645,0,0,0-.96191.21778,2.68248,2.68248,0,0,0-.81641.54492v5.86035h-2.92138Z"/>
          <path class="cls-7" d="M532.91234,105.30831h3.15723l4.46338,11.68506h-3.04834l-1.05225-2.64844H532.531l-1.03418,2.64844h-3.04834Zm3.12061,6.87647-1.56055-4.06446-1.542,4.06446Z"/>
          <path class="cls-7" d="M539.75316,105.30831h3.04834l2.97559,8.34619,2.99414-8.34619h3.06641l-4.46338,11.68506H544.217Z"/>
          <path class="cls-7" d="M555.52123,105.30831h3.15723l4.46338,11.68506H560.0935l-1.05225-2.64844h-3.90137l-1.03418,2.64844h-3.04834Zm3.12061,6.87647-1.56055-4.06446-1.542,4.06446Z"/>
          <path class="cls-7" d="M568.53149,111.11446l-4.13721-5.80615h3.48388l2.41309,3.48389,2.43164-3.48389h3.48438l-4.13672,5.80615,4.26367,5.87891h-3.52148l-2.52149-3.53809-2.50391,3.53809h-3.52Z"/>
          <path class="cls-7" d="M577.45824,114.85274h2.34082v2.14063h-2.34082Z"/>
        </g>
      </g>
    </g>
    <g id="Personaje_lentes" data-name="Personaje lentes">
      <g id="Brazo1">
        <g id="Layer_45" data-name="Layer 45">
          <g>
            <path class="cls-9" d="M823.75753,120.31565l-.07242.08876c-49.91973,17.43328-71.35809-47.578-52.728-58.56138a9.91652,9.91652,0,0,1,10.306.35061c10.07136,6.3501,13.67319,25.08419,39.98182,31.196C826.30683,101.54241,831.09562,111.92353,823.75753,120.31565Z"/>
            <path class="cls-10" d="M807.22373,124.36739c-19.04818,0-32.29883-12.69735-38.98585-26.80155-7.32717-15.45353-6.35564-31.5153,2.21178-36.56574a10.866,10.866,0,0,1,11.347.36608c3.47141,2.18885,6.1063,5.651,9.15654,9.66006,5.89571,7.74913,13.23321,17.39258,30.51856,21.408l.40244.09327.21639.3482c5.21164,8.395,10.19719,19.17062,2.42754,28.07039l-.23966.29134-.26355.092A50.83721,50.83721,0,0,1,807.22373,124.36739ZM775.72395,61.53932a8.35643,8.35643,0,0,0-4.25884,1.14617c-7.57263,4.46523-8.21472,19.7386-1.43081,34.04724,8.10943,17.10252,26.30042,32.04877,53.06529,22.83466,6.7064-7.80407,2.27379-17.57785-2.48567-25.318-17.69553-4.232-25.20357-14.101-31.24656-22.04308-2.93462-3.85635-5.46873-7.1869-8.63783-9.18536A9.403,9.403,0,0,0,775.72395,61.53932Z"/>
            <path class="cls-11" d="M822.61209,92.90222c-11.394-2.64694-18.773-7.52515-24.24426-12.83034a1.92613,1.92613,0,0,0-3.07313.51391c-4.37631,9.10866-14.12826,15.39554-24.39337,18.10167a1.89449,1.89449,0,0,0-1.138,2.80728c9.78421,16.5417,28.78487,29.38236,55.43816,20.07434l.07686-.09418C833.06515,112.56955,827.98349,101.55359,822.61209,92.90222Z"/>
            <path d="M807.91556,125.63879c-15.95724,0-29.88035-8.21552-39.00846-23.648a2.87282,2.87282,0,0,1,1.73893-4.25119c10.97622-2.89418,19.85564-9.46392,23.75274-17.57466a2.84293,2.84293,0,0,1,2.09809-1.58,2.97052,2.97052,0,0,1,2.56512.78584c6.52488,6.327,14.08008,10.32323,23.77664,12.576l.40243.09328.2164.3482c5.52235,8.89466,10.805,20.31167,2.57158,29.729l-.23254.28495-.26485.092A53.42709,53.42709,0,0,1,807.91556,125.63879ZM797.013,80.50294a.95186.95186,0,0,0-.16924.01469.877.877,0,0,0-.65307.48939c-4.14321,8.62441-13.50193,15.58834-25.03368,18.62884a.88162.88162,0,0,0-.59881.522.9341.9341,0,0,0,.062.84142c3.67941,6.22154,10.29925,14.6249,20.9415,19.33034,9.94591,4.3975,21.06618,4.53422,33.054.4025,7.1534-8.3401,2.42882-18.74-2.63489-26.97021-9.87162-2.355-17.60445-6.48924-24.30762-12.98933A.94224.94224,0,0,0,797.013,80.50294Z"/>
            <path class="cls-11" d="M777.14835,111.595c.89844-.2098,2.23562-.55107,3.82163-1.07208,3.54443-1.16432,16.08353-5.28338,22.459-16.903a30.0567,30.0567,0,0,0,3.05546-8.33176,21.69824,21.69824,0,0,1-4.44373-3.12839,50.50443,50.50443,0,0,1-3.80965-3.34557,1.97878,1.97878,0,0,0-3.15708.52793c-4.4958,9.35739-14.514,15.81591-25.05941,18.596C765.1533,99.60927,775.38415,109.40331,777.14835,111.595Z"/>
            <path d="M776.764,112.69354l-.3921-.48683c-.26872-.33478-.79453-.90851-1.40368-1.57232-4.01983-4.38536-7.88334-8.90361-7.15275-11.73646a2.6817,2.6817,0,0,1,1.87329-1.88665l.06977-.02108c11.28369-2.97532,20.41245-9.73034,24.41937-18.06916a2.89222,2.89222,0,0,1,2.13491-1.60746,3.00553,3.00553,0,0,1,2.61292.7999c1.206,1.16917,2.46242,2.27254,3.735,3.28007.20993.16611.43279.35331.67244.5552a16.93357,16.93357,0,0,0,3.59092,2.45974l.6873.33669-.15567.7424a31.15257,31.15257,0,0,1-3.15489,8.60077c-4.3538,7.935-12.09761,13.77772-23.01634,17.36574-1.28095.42039-2.59548.789-3.90744,1.09634Zm-6.45511-13.81733c-.48448.17506-.54261.39867-.57039.50664-.5284,2.04765,4.72264,7.77661,6.69994,9.93287.41988.45872.78355.85548,1.0723,1.182,1.05873-.26322,2.11424-.5667,3.14649-.906,10.4265-3.42574,17.79437-8.95728,21.89947-16.44A29.03591,29.03591,0,0,0,805.353,85.807a20.06879,20.06879,0,0,1-3.30475-2.36262c-.22415-.18912-.43215-.36353-.62787-.51878-1.32358-1.04843-2.63037-2.19588-3.88354-3.41041a.99268.99268,0,0,0-.87657-.269.933.933,0,0,0-.69054.51751C791.72125,88.60665,782.13,95.74947,770.30884,98.87621Z"/>
            <path class="cls-12" d="M769.08983,90.407a23.08334,23.08334,0,0,0,1.98367,2.03412c1.62388,1.47326,5.81367,5.34475,16.52182,15.45784,14.22985,13.43911,31.3395,14.72089,36.01975,14.91875-5.282,1.32738-20.31193,4.32358-34.78411-3.52-7.96784-4.31842-15.85271-11.21968-19.99256-18.80114-.34848-.63819,1.2823-1.426.65413-1.78382-1.79785-1.024-3.33071-6.55457-5.35655-13.40611C763.8756,84.426,767.3409,88.37661,769.08983,90.407Z"/>
          </g>
        </g>
      </g>
      <g id="Cuerpo">
        <path class="cls-7" d="M938.87689,151.01405l8.46092-68.23645c3.95076-26.36964-2.59765-53.28021-24.8841-66.87582q-.5633-.34371-1.132-.67466c-34.18179-19.89357-77.80961-3.14554-91.25983,34.04635-9.84534,27.224-14.61968,67.92084-10.73779,101.74058Z"/>
        <path class="cls-13" d="M915.04169,100.988,944.96,95.59773,948.92978,71.526a76.22121,76.22121,0,0,1-33.88809,29.462Z"/>
        <path class="cls-9" d="M890.99424,17.56a11.1692,11.1692,0,0,1,1.13213.6746c22.28645,13.59567,28.83474,40.50618,24.884,66.87588l-8.17168,65.90355h30.03809l8.461-68.23645c3.95076-26.36964-2.59765-53.28021-24.8841-66.87582q-.5633-.34371-1.132-.67466c-16.2905-9.48093-39.971-13.32261-63.58854.51232C864.16878,14.05031,876.53679,10.9398,890.99424,17.56Z"/>
        <path class="cls-14" d="M862.00544,13.42691a93.31,93.31,0,0,1,53.81495-.42756s-5.71668-7.37451-26.90748-6.21571C867.10656,7.9761,862.00544,13.42691,862.00544,13.42691Z"/>
        <path class="cls-10" d="M820.26408,151.01405c-3.77146-32.69461.45429-73.15853,10.67563-101.42308a63.40024,63.40024,0,0,1,27.221-32.99851c41.38568-12.12332,64.67417,28.23441,57.92352,68.403l-8.18616,66.01856h1.881l8.15461-65.76511c6.8373-39.53079-15.94475-78.77205-53.3705-71.98884,29.52188-13.81281,69.21661-1.10388,79.28632,31.586,3.71955,11.09814,4.60694,24.16694,2.56234,37.81676l-8.47564,68.35117h1.88108l8.444-68.09771c4.50111-30.04375-4.96481-55.39374-25.32132-67.81159a63.18875,63.18875,0,0,0-65.76052-.10013A65.2574,65.2574,0,0,0,829.18459,48.9558c-10.288,28.47368-14.56152,69.05527-10.80571,102.05825Z"/>
        <g id="Layer_32" data-name="Layer 32">
          <rect x="817.03473" y="149.57666" width="127.47987" height="1.44657"/>
        </g>
        <g id="Chaqueta">
          <g>
            <path class="cls-11" d="M934.37735,154.68951,869.634,148.76859c2.2218-5.11013,25.04737-29.55363,27.26917-34.66376l46.98659-3.51984a69.10988,69.10988,0,0,1,12.00387,28.64248,12.48926,12.48926,0,0,1-3.89012,10.20381C948.177,152.82852,935.12768,154.77141,934.37735,154.68951Z"/>
            <path d="M945.6012,153.23236a54.9089,54.9089,0,0,1-18.75687,1.80616l-61.72114-4.36638-.85574-.37256,32.00419-37.083,48.07011-3.60162.3057.42483a70.03211,70.03211,0,0,1,12.16628,29.02937c.07962.74148.57009,6.83373-4.19055,11.06075C951.22179,151.37386,948.52063,152.41041,945.6012,153.23236Zm-77.98715-4.64645,59.73272,4.65285a49.92369,49.92369,0,0,0,18.01138-1.78481,17.34318,17.34318,0,0,0,6.02518-2.72072,11.54482,11.54482,0,0,0,3.58157-9.40762A68.209,68.209,0,0,0,943.435,111.55492l-45.90038,3.43874Z"/>
            <path class="cls-11" d="M851.93016,150.36746c-.49879-1.604-2.042-41.06289,93.0299-54.76974,6.37877-.91965,10.89919,9.724,11.044,18.72823l-59.84145,6.66643c-.31985,2.9736,2.27781,11.39715-2.16067,12.46136C894.00192,133.45374,866.68941,154.692,851.93016,150.36746Z"/>
            <path d="M864.72037,151.01405H850.71985l-.09177-.83142c-.03586-.3282,1.7087-16.13122,12.89708-25.929,14.66359-12.84151,42.00824-22.79187,81.27606-29.57576a4.89171,4.89171,0,0,1,4.36377,1.43251c3.1932,3.32874,8.44856,10.13086,7.76847,18.29439l-.06381.76518-59.72951,6.65261.3987,7.77942a4.74725,4.74725,0,0,1-3.24487,4.73876l-28.09065,16.4351A4.71966,4.71966,0,0,1,864.72037,151.01405ZM852.50364,149.147h12.21673a2.86122,2.86122,0,0,0,.89767-.144l28.09126-16.43571a2.8741,2.8741,0,0,0,1.96491-2.86926l-.48865-9.53587.874-.09785,59.05732-6.57786c.237-7.38254-4.98308-13.66928-7.29868-16.08333a3.01326,3.01326,0,0,0-2.69909-.88491c-26.58554,4.59228-62.06151,13.33562-80.09638,28.90721C856.45744,132.82068,852.68354,146.973,852.50364,149.147Z"/>
            <path class="cls-11" d="M805.58767,122.10326a32.61385,32.61385,0,0,0-2.88832,8.88714c4.79753,10.93556,10.39192,16.24177,15.90414,20.02365h5.15211c-1.098-7.75877-1.41125-21.5076-2.21776-28.04135-1.67519-13.56865-2.31419-24.951-1.06821-34.1652a25.6822,25.6822,0,0,0-8.21654,2.07962c-4.73867,1.84748-10.36449,6.75667-12.21991,9.887,4.36949,4.73979,7.406,7.92435,11.77551,12.66414A32.65166,32.65166,0,0,0,805.58767,122.10326Z"/>
            <path d="M805.21178,107.71444c1.68707,1.805,3.37309,3.60889,5.31009,5.7057a33.49478,33.49478,0,0,0-8.74275,17.41192l-.04744.27653.11242.25711c4.566,10.4071,9.90891,15.851,15.14436,19.64835h3.29563c-5.80417-3.77947-11.5935-8.81315-16.616-20.14008a31.6271,31.6271,0,0,1,8.79973-16.77493l.63523-.63334-.60839-.66c-2.19646-2.38364-4.05694-4.37409-5.91907-6.36636-1.70109-1.81963-3.40288-3.64114-5.366-5.7665a29.87273,29.87273,0,0,1,11.3829-8.91592,22.4528,22.4528,0,0,1,6.61987-1.83246c.10572-.01395.21379-.02855.32444-.04314.01036,6.06369.12408,12.19307.3374,18.23545.50338,14.26191,1.59325,28.67228,3.22888,42.89729h1.88073c-1.64446-14.24538-2.73951-28.67876-3.24384-42.96292-.22543-6.37789-.33845-12.85243-.33668-19.24374l.00059-1.08487-1.07339.16169c-.51351.07717-.95591.13556-1.36134.189a24.15125,24.15125,0,0,0-7.05485,1.94424c-4.906,1.91263-10.743,7.00512-12.68409,10.281l-.35434.598.47089.5105C801.5226,103.767,803.36778,105.7416,805.21178,107.71444Z"/>
            <path class="cls-15" d="M956.00279,114.327s1.28283-12.25916-9.69534-18.72478l-5.92557.82033s10.973,7.85773,9.39987,18.59739Z"/>
            <path class="cls-15" d="M937.7825,116.56s19.60185,9.28688,13.91882,33.11825c0,0,4.71107-3.37581,3.924-11.90956,0,0-3.18227-18.181-8.877-22.41089Z"/>
          </g>
        </g>
      </g>
      <g id="Cejas">
        <path d="M850.46486,35.06381a2.17194,2.17194,0,0,1-1.596-.69528,8.31163,8.31163,0,0,0-11.33789-.84389,2.1783,2.1783,0,1,1-2.72036-3.40289,12.66779,12.66779,0,0,1,17.249,1.28087,2.17824,2.17824,0,0,1-1.59478,3.66119Z"/>
        <path d="M896.939,43.94055a12.37761,12.37761,0,0,1-3.14033-.40356,12.88364,12.88364,0,0,1-7.72229-5.84489,2.178,2.178,0,1,1,3.74871-2.21835,8.62154,8.62154,0,0,0,5.07607,3.84838,8.50456,8.50456,0,0,0,5.8224-.60959,2.17824,2.17824,0,0,1,1.93392,3.90369A13.17768,13.17768,0,0,1,896.939,43.94055Z"/>
      </g>
      <g id="Lentes">
        <g>
          <path class="cls-16" d="M954.5179,79.73653a2.165,2.165,0,0,0,1.51683-2.6597L952.28712,63.3814l.00039-.003-39.07034-4.9482a2.165,2.165,0,0,0-2.41991,1.87586L910.19,65.10075a2.16505,2.16505,0,0,0,1.87586,2.41991l31.56294,3.99739a2.165,2.165,0,0,1,1.81624,1.57645l1.75153,6.40081a2.165,2.165,0,0,0,2.65971,1.51683Z"/>
          <path d="M949.28593,82.02292a3.10485,3.10485,0,0,1-2.9896-2.281l-1.7522-6.40161a1.226,1.226,0,0,0-1.03259-.89585l-31.56316-3.99789a3.10208,3.10208,0,0,1-2.68451-3.463l.60716-4.79468a3.09922,3.09922,0,0,1,3.46367-2.68481l39.68839,5.02958,3.9122,14.29711a3.0989,3.0989,0,0,1-2.171,3.80644l-4.66218,1.2757A3.10393,3.10393,0,0,1,949.28593,82.02292ZM912.94269,59.34653a1.232,1.232,0,0,0-1.21918,1.077l-.60716,4.79467a1.23252,1.23252,0,0,0,1.06663,1.376L943.74614,70.592a3.08991,3.08991,0,0,1,2.59942,2.256l1.75158,6.401a1.23013,1.23013,0,0,0,1.51273.86242l4.66218-1.2757a1.23054,1.23054,0,0,0,.86242-1.51213l-3.58339-13.09433-38.451-4.87277A1.25057,1.25057,0,0,0,912.94269,59.34653Z"/>
          <path class="cls-16" d="M917.31626,53.11911c-31.51837-4.09056-68.26078-8.86973-99.74-12.95621a4.494,4.494,0,0,0-4.98325,3.94268l-3.286,25.29628a9.83586,9.83586,0,0,0,8.34011,11.12943l28.12008,3.65279A9.83581,9.83581,0,0,0,856.674,75.55487l1.37727-10.60256a5.93125,5.93125,0,0,1,6.577-5.20365l2.19366.285a5.93126,5.93126,0,0,1,5.02929,6.71131l-1.37727,10.60251a9.83587,9.83587,0,0,0,8.34012,11.12943l28.12008,3.65279a9.8358,9.8358,0,0,0,10.90671-8.62921l3.286-25.29633A4.494,4.494,0,0,0,917.31626,53.11911Z"/>
          <g class="cls-17">
            <rect class="cls-18" x="818.28809" y="33.74945" width="9.83555" height="51.30919" transform="translate(1.07868 132.23004) rotate(-9.1896)"/>
            <rect class="cls-18" x="832.5873" y="37.64577" width="4.91777" height="51.09695" transform="translate(0.62534 134.16961) rotate(-9.1896)"/>
            <rect class="cls-18" x="876.31838" y="37.68825" width="9.83555" height="54.10579" transform="translate(0.97114 141.5661) rotate(-9.1896)"/>
            <rect class="cls-18" x="890.63587" y="41.19459" width="6.03503" height="54.10579" transform="translate(0.57054 143.59416) rotate(-9.1896)"/>
          </g>
          <path d="M908.17476,93.14384a10.58921,10.58921,0,0,1-1.36079-.08874l-28.12016-3.65268A10.78141,10.78141,0,0,1,869.54813,77.227l1.3772-10.60249a5.12,5.12,0,0,0-.97364-3.75327,4.81313,4.81313,0,0,0-3.25034-1.912l-2.19343-.285a5.007,5.007,0,0,0-5.53128,4.39871l-1.3772,10.60249a10.96132,10.96132,0,0,1-4.072,7.23121,10.44262,10.44262,0,0,1-7.88031,2.20316l-28.12016-3.65268a10.78142,10.78142,0,0,1-9.14567-12.1754l3.28619-25.29647a5.43378,5.43378,0,0,1,6.029-4.74787c15.0635,1.95518,31.33282,4.0693,47.658,6.19071,17.78995,2.31164,35.64614,4.63209,52.082,6.76536h0a5.27351,5.27351,0,0,1,3.56455,2.09193,5.51258,5.51258,0,0,1,1.05144,4.03922l-3.2862,25.29617a10.95987,10.95987,0,0,1-4.072,7.23121A10.46305,10.46305,0,0,1,908.17476,93.14384ZM863.88922,58.767a6.63741,6.63741,0,0,1,.85938.05592l2.19343.285a6.6634,6.6634,0,0,1,4.50355,2.64379,6.97346,6.97346,0,0,1,1.331,5.11344l-1.3772,10.6025a8.91325,8.91325,0,0,0,7.53509,10.08346l28.12016,3.65267a8.60991,8.60991,0,0,0,6.48123-1.816,9.10394,9.10394,0,0,0,3.37918-6.00778l3.2862-25.29617a3.654,3.654,0,0,0-.69468-2.679,3.4218,3.4218,0,0,0-2.31073-1.36019c-16.43584-2.133-34.292-4.45341-52.082-6.76505-16.32523-2.12141-32.59393-4.23553-47.658-6.191a3.56554,3.56554,0,0,0-3.93712,3.1373l-3.28619,25.29647a8.91323,8.91323,0,0,0,7.53509,10.08346l28.12016,3.65268a8.60371,8.60371,0,0,0,6.48122-1.816,9.104,9.104,0,0,0,3.37919-6.00777l1.3772-10.6025A6.90041,6.90041,0,0,1,863.88922,58.767Z"/>
        </g>
      </g>
      <g id="Brazo2">
        <g>
          <path class="cls-9" d="M923.08873,120.99238s-50.52328,7.24235-66.52433,30.93029c-6.0848,9.008,1.85957,21.00787,12.53877,18.97692,13.44634-2.78382,52.45186-12.57265,70.57179-17.10981C957.77085,148.23354,947.78791,116.65093,923.08873,120.99238Z"/>
          <path class="cls-19" d="M865.72528,172.18392a12.036,12.036,0,0,1-10.43961-5.29061c-3.00419-4.51024-2.80606-10.59156.505-15.4932,6.75533-10.00019,20.128-18.31505,39.74674-24.713a184.33765,184.33765,0,0,1,27.4036-6.61676c14.133-2.47847,23.96546,6.37487,26.37648,16.40241,1.70843,7.10723-.52572,15.49441-9.36873,18.20931l-6.61737,1.661c-19.45644,4.88219-52.02,13.05362-64.044,15.47192A18.11076,18.11076,0,0,1,865.72528,172.18392Zm61.8889-50.66284a25.16467,25.16467,0,0,0-4.36377.39079l-.02917.00426c-.50141.07232-50.29879,7.45791-65.88314,30.52934-2.84071,4.20514-3.04127,9.59543-.499,13.41281,2.44748,3.67334,6.84892,5.17817,12.08,4.12613,11.98091-2.4098,44.51771-10.57393,63.95774-15.45247l6.57118-1.64766c5.084-1.56257,10.28524-6.69516,8.05413-15.97515A20.10848,20.10848,0,0,0,927.61418,121.52108Z"/>
          <path class="cls-11" d="M923.291,120.43367s-22.84007,3.27674-42.98948,12.5882c3.01407,3.589,4.89392,8.65612,6.36812,12.50112,2.71478,6.60042,4.44878,13.73556,3.67859,20.89394,17.03032-4.11,37.95119-9.35787,49.946-12.36132C958.84509,148.35969,948.61115,115.98308,923.291,120.43367Z"/>
          <path d="M889.27807,167.63539l.14222-1.31824c.66854-6.21564-.51357-12.90107-3.61439-20.4392l-.16532-.43152c-1.44648-3.77909-3.24669-8.482-6.054-11.8241l-.78584-.93536,1.10917-.51234c19.82171-9.16027,42.51451-12.55708,43.23289-12.66283,14.47093-2.53317,24.54466,6.52742,27.01341,16.79625,1.74916,7.27558-.53726,15.86089-9.58813,18.6396l-1.92905.48439c-11.92985,2.98839-31.89682,7.9891-48.07193,11.89217ZM881.77154,133.378c2.57329,3.46,4.24525,7.82926,5.61273,11.40049l.1568.41025c2.99933,7.29138,4.26592,13.86073,3.8502,20.01558,15.93261-3.85385,35.17573-8.67344,46.79441-11.58342l1.88164-.471c5.22315-1.60512,10.56481-6.87567,8.27353-16.40485-2.26636-9.42464-11.54088-17.73585-24.88805-15.39169l-.02917.00425C923.20058,121.3898,901.29666,124.6055,881.77154,133.378Z"/>
          <path class="cls-11" d="M908.0836,162.84685a71.3068,71.3068,0,0,0-11.05527-37.45612,149.73609,149.73609,0,0,0-18.33694,6.93946c3.16967,3.77425,5.14657,9.103,6.69688,13.14649,2.85493,6.94117,4.67845,14.44466,3.86849,21.9726C895.24308,166.00456,901.68636,164.42611,908.0836,162.84685Z"/>
          <path d="M888.18652,168.668l.14222-1.31825c.70379-6.54382-.54031-13.58237-3.804-21.518l-.17443-.4546c-1.52245-3.97662-3.41686-8.92567-6.37365-12.44646l-.78584-.93536L878.3,131.483a150.1718,150.1718,0,0,1,18.4518-6.98385l.68617-.21272.38167.60837a71.88362,71.88362,0,0,1,11.1975,37.94958l.00182.733-.71169.17565c-7.0422,1.73882-13.37816,3.288-18.83166,4.60383Zm-8.02374-35.98284c2.72158,3.64113,4.48836,8.2553,5.9312,12.02467l.16592.43273c3.16221,7.68886,4.4914,14.61132,4.041,21.09437,4.96849-1.20156,10.62377-2.58483,16.843-4.12a70.00256,70.00256,0,0,0-10.52773-35.6194A149.51647,149.51647,0,0,0,880.16278,132.68515Z"/>
          <path class="cls-12" d="M854.45145,160.19221s29.17715,14.74551,95.3303-19.43737c0,0,4.77536,11.98994-10.15816,13.58814-2.15358.23048-8.266,2.41037-10.36893,2.92874l-56.9618,12.94291S857.33336,174.9115,854.45145,160.19221Z"/>
        </g>
      </g>
      <g id="Pico">
        <g>
          <path class="cls-9" d="M829.87034,72.55462a1.13292,1.13292,0,0,1,1.16424-1.80507c6.7964,1.423,19.6964.30715,26.67363-3.37145,12.9731-7.14461,11.57753,19.77187-2.15585,17.607C847.96757,84.84866,833.83113,78.7161,829.87034,72.55462Z"/>
          <path class="cls-14" d="M830.1915,71.61366s15.11342,5.40278,35.002-3.70917L861.20714,66.168S851.076,73.82543,830.1915,71.61366Z"/>
          <path class="cls-19" d="M857.0956,86.04269a10.79969,10.79969,0,0,1-1.624-.1252c-3.84291-.08509-9.26115-1.59357-14.51408-4.04226-5.60665-2.614-9.92118-5.81086-11.8478-8.77737a2.01757,2.01757,0,0,1-.13371-2.30283,2.0942,2.0942,0,0,1,2.24934-.959c6.697,1.40029,19.25953.29476,26.04768-3.28377,4.38807-2.41648,6.94009-.96513,8.07053.11669,2.7307,2.61522,3.04248,8.59747.69468,13.33562C864.10436,83.907,860.90265,86.04269,857.0956,86.04269ZM830.77382,71.65563a.22927.22927,0,0,0-.203.11061.154.154,0,0,0,.0237.19935.92063.92063,0,0,1,.06078.08387c3.72743,5.79871,17.63739,11.87091,24.91418,12.00218a1.007,1.007,0,0,1,.12824.01155c5.04143.79435,7.59405-2.72158,8.66737-4.88766,1.97767-3.99181,1.83484-9.10131-.313-11.158-1.67987-1.60876-4.13221-.79131-5.89352.17807-7.14308,3.76634-20.30731,4.93568-27.31547,3.46731A.36362.36362,0,0,0,830.77382,71.65563Z"/>
        </g>
      </g>
    </g>
    <g id="Personajes_en_el_Nido" data-name="Personajes en el Nido">
      <g id="Cuerpo_P1" data-name="Cuerpo P1">
        <g id="Cuerpo-2" data-name="Cuerpo">
          <g>
            <g>
              <path class="cls-7" d="M122.91945,143.06217c3.19372-33.85336,1.8784-71.396-.47138-84.083A48.95025,48.95025,0,0,0,105.128,29.55669c-16.96931-13.57236-39.381-12.785-64.784-.006C16.02333,40.19849,14.28634,74.289,14.28634,113.078v29.98415Z"/>
              <path class="cls-20" d="M124.13291,144.395H12.95313V113.0779c0-39.91765,2.018-73.8458,26.82322-84.73412,26.4997-13.32129,49.3872-13.263,66.1843.17185a50.2755,50.2755,0,0,1,17.79861,30.2206c2.28911,12.36177,3.78014,49.548.48757,84.45062ZM15.61947,141.72869H121.7032c2.0004-22.31693,2.93291-63.614-.566-82.50685a47.60691,47.60691,0,0,0-16.8417-28.62378c-16.15818-12.92388-37.473-12.87571-63.35229.14354l-.06444.03027C17.52028,40.99848,15.61947,74.097,15.61947,113.0779Z"/>
            </g>
            <path class="cls-21" d="M62.47518,29.55067a94.98469,94.98469,0,0,1,24.54148-8.73174c-13.68515-3.059-29.49334.08963-46.67266,8.73174C16.02334,40.19849,14.28634,74.289,14.28634,113.078v29.98415H36.41752V113.078C36.41752,74.289,38.15449,40.19849,62.47518,29.55067Z"/>
            <path class="cls-19" d="M36.41739,144.06174H14.2863a.99993.99993,0,0,1-.99988-.99988v-29.984c0-39.81545,2.00594-73.65084,26.65658-84.44314,17.66451-8.88791,33.5929-11.85337,47.29175-8.79157a.99985.99985,0,0,1-.02962,1.95777,94.27744,94.27744,0,0,0-24.28089,8.64282c-.01562.00814-.03189.01563-.04817.02279-23.543,10.30733-25.4588,43.51128-25.4588,82.61133v29.984A.99993.99993,0,0,1,36.41739,144.06174ZM15.28618,142.062H35.41751V113.0779c0-39.80309,2.00236-73.62936,26.63184-84.4324a102.52532,102.52532,0,0,1,19.799-7.67224c-12.09259-1.341-25.87639,1.83506-41.05488,9.47052C17.202,40.7739,15.28618,73.97785,15.28618,113.0779Z"/>
          </g>
        </g>
      </g>
      <g id="Ojos1X">
        <g>
          <circle class="cls-19" cx="111.05159" cy="71.76519" r="19.35019"/>
          <circle class="cls-7" cx="115.53499" cy="72.75673" r="12.59868"/>
          <circle class="cls-19" cx="62.98173" cy="75.09676" r="19.35019"/>
          <circle class="cls-7" cx="67.8678" cy="75.09676" r="12.59868"/>
        </g>
      </g>
      <g id="Mano_P2X" data-name="Mano P2X">
        <g>
          <path class="cls-21" d="M228.06732,95.74689c-1.45866,5.789-6.8975,11.77684-11.49362,16.44892-.1122.11406-.22683.22441-.34552.3317a50.26358,50.26358,0,0,1-18.77356,10.65391,7.18732,7.18732,0,0,1-8.75948-4.01653l-3.83273-8.95077a7.17628,7.17628,0,0,1,3.42959-9.26343q6.38824-3.14668,13.0745-6.27473c.21831-.102.441-.18965.66806-.27032,5.21454-1.85255,12.40364-6.99371,18.4953-7.56348A7.1586,7.1586,0,0,1,228.06732,95.74689Z"/>
          <path class="cls-22" d="M224.58447,101.93314a42.39978,42.39978,0,0,1-37.53671,10.60413l-.84857.79869,2.496,5.82892a7.13117,7.13117,0,0,0,1.53627,2.25953,25.94429,25.94429,0,0,0,11.54949-.15037c.71008-.15408,1.40413-.35156,2.08829-.57236a49.62027,49.62027,0,0,0,12.359-8.17417c.11868-.10729.23329-.21767.3455-.33171,1.02091-1.03779,2.08279-2.14333,3.134-3.29435A50.99833,50.99833,0,0,0,224.58447,101.93314Z"/>
          <path class="cls-19" d="M195.28568,124.51335a8.15689,8.15689,0,0,1-7.50982-4.95447l-3.83254-8.95073a8.17811,8.17811,0,0,1,3.90675-10.5547c4.34191-2.13842,8.747-4.25209,13.09312-6.28374.24639-.11522.499-.21482.75675-.306a55.43076,55.43076,0,0,0,6.17307-2.88051c3.97771-2.04142,8.48594-4.35559,12.5639-4.7364a7.94623,7.94623,0,0,1,6.867,2.79328,8.22438,8.22438,0,0,1,1.73286,7.35066c-1.48094,5.87819-6.771,11.84491-11.75019,16.90614-.12662.12824-.25486.25257-.388.37235a50.88919,50.88919,0,0,1-19.14675,10.86716A8.28349,8.28349,0,0,1,195.28568,124.51335ZM221.20179,87.8108c-.19171,0-.38472.00846-.57871.02669-3.69421.34566-8.02018,2.56609-11.83709,4.52484a56.4656,56.4656,0,0,1-6.41686,2.98531c-.19659.0703-.38928.14516-.57806.2337-4.33508,2.02579-8.72777,4.13361-13.05732,6.26616a6.17778,6.17778,0,0,0-2.95212,7.973l3.83254,8.95073a6.17426,6.17426,0,0,0,7.543,3.45531,48.89062,48.89062,0,0,0,18.40042-10.44078c.10448-.09439.20538-.19139.304-.29163,4.79043-4.86985,9.87217-10.57814,11.23593-15.99154h0a6.14114,6.14114,0,0,0-1.312-5.56117A5.99125,5.99125,0,0,0,221.20179,87.8108Z"/>
        </g>
      </g>
      <g id="Cuerpo_P2" data-name="Cuerpo P2">
        <g id="cuerpo-3" data-name="cuerpo">
          <g>
            <path class="cls-7" d="M152.14743,47.001h.00009a46.32728,46.32728,0,0,1,46.32728,46.32728v49.73387a0,0,0,0,1,0,0H110.3269a0,0,0,0,1,0,0V88.82154A41.82053,41.82053,0,0,1,152.14743,47.001Z"/>
            <path class="cls-19" d="M199.47462,144.06174H109.3271v-55.24a42.86925,42.86925,0,0,1,42.8203-42.82061,47.38069,47.38069,0,0,1,47.32722,47.32723ZM111.32686,142.062h86.148V93.32836A45.37876,45.37876,0,0,0,152.1474,48.00088a40.86668,40.86668,0,0,0-40.82054,40.82086Z"/>
            <path class="cls-21" d="M126.27085,98.81627a41.82054,41.82054,0,0,1,41.82053-41.82054h.00011a46.22755,46.22755,0,0,1,16.0991,2.87584A46.16981,46.16981,0,0,0,152.14752,47.001h-.0001a41.8205,41.8205,0,0,0-41.82051,41.82051v54.24065h15.94394Z"/>
            <path class="cls-22" d="M111.05159,87.69544s2.00193,25.5139,14.5298,26.49165l-12.95016,11.62879L110.3269,112.456Z"/>
            <path class="cls-23" d="M181.29212,57.89008c3.31224,3.41983-12.03207-5.42636-20.33237-7.25711a57.14306,57.14306,0,0,0-27.61584.82591S162.1186,38.09374,181.29212,57.89008Z"/>
            <path class="cls-19" d="M126.271,144.06174H110.327a.99993.99993,0,0,1-.99988-.99988V88.82174a42.86925,42.86925,0,0,1,42.8203-42.82061,47.10582,47.10582,0,0,1,32.73493,13.14846.99973.99973,0,0,1-1.03926,1.6593,45.17859,45.17859,0,0,0-15.75166-2.81313A40.86654,40.86654,0,0,0,127.27088,98.816V114.4664h-1.99976V98.816a42.86869,42.86869,0,0,1,42.82029-42.82,47.31838,47.31838,0,0,1,11.80032,1.48387,45.08665,45.08665,0,0,0-27.74433-9.479,40.86668,40.86668,0,0,0-40.82054,40.82086V142.062h13.94426V127.15756h1.99976v15.9043A.99993.99993,0,0,1,126.271,144.06174Z"/>
          </g>
        </g>
      </g>
      <g id="Nido">
        <g>
          <path class="cls-24" d="M40.344,134.57459l-30.4601-23.797s-2.697,10.312,3.01428,19.19621L.99971,144.09337l19.67215,6.82179-5.55262,7.45638s9.99472,5.07669,33.79168-4.918l.95188,7.45638,13.96088-10.9466H134.104s3.33158,5.94924,13.3263,8.091l-1.18985-7.853s17.72874,14.87309,42.35859,13.80223l-8.91873-10.50923s14.15406,6.70172,39.6168.51451l-10.58964-11.30356,19.5135-8.68588s-5.4733-8.091-26.17665-10.11371l.83289-10.58965L150.048,129.4979l-19.75148-8.18249L111.259,126.88024l3.3514-14.37157s-17.39161-2.52427-38.33293,15.79939l-6.71325-14.27818s-10.42056,5.4733-13.03823,15.706Z"/>
          <g>
            <path class="cls-25" d="M9.88391,110.77764s2.80585,13.69331,8.43634,17.43907l-10.26,12.3003,15.01468,9.96362-7.95566,7.89091,4.70248-8.14116-18.822-6.137q5.58867-6.63187,11.17732-13.26376a20.24108,20.24108,0,0,1-2.29313-20.05195Z"/>
            <path class="cls-25" d="M19.25217,159.412,51.9156,147.16488l.75074,6.12358,10.31539-5.37284,35.93585,2.04767L63.552,150.3555,49.8628,160.90989l-1.51318-7.92682s-21.03746,12.00512-29.09745,6.429"/>
            <path class="cls-25" d="M133.53557,149.96328s7.69914,5.19753,10.40755,4.07409l-3.50345-9.81286s30.61024,20.51513,43.84194,15.51024l4.31743,4.26873s-26.0952-.38008-35.751-9.32878l-6.65275-3.44334,1.235,6.8229S138.14272,158.20451,133.53557,149.96328Z"/>
            <path class="cls-25" d="M174.70755,150.02708a111.75579,111.75579,0,0,0,41.75869.96l2.83087,3.02173a102.95732,102.95732,0,0,1-12.18308,2.22145,93.39471,93.39471,0,0,1-20.91086-.24419,18.00136,18.00136,0,0,1-7.60116-2.53375A16.62785,16.62785,0,0,1,174.70755,150.02708Z"/>
          </g>
          <path d="M186.09312,165.05788c-18.776,0-33.36214-8.9631-38.49823-12.59287l.82379,5.43944a.99966.99966,0,0,1-1.19809,1.12747c-8.70825-1.86631-12.57854-6.50962-13.66142-8.06868H64.16888L50.4798,161.697a1,1,0,0,1-1.60885-.66073l-.78637-6.15875c-23.08311,9.38948-33.0002,4.5984-33.41812,4.38553a.99912.99912,0,0,1-.34924-1.4881l4.73771-6.3625L.67241,145.03819a.9998.9998,0,0,1-.43713-1.589l11.4309-13.5654c-5.37141-8.98849-2.86163-18.93129-2.74966-19.35962a.9997.9997,0,0,1,1.58281-.53444l30.0533,23.47891,15.15374-4.53135c2.91013-10.185,12.959-15.56516,13.39257-15.793a1.00045,1.00045,0,0,1,1.37.45958l6.15322,13.087c20.59091-17.47834,37.41536-15.27483,38.13174-15.17133a.99951.99951,0,0,1,.8303,1.21665l-2.96285,12.70418,17.39468-5.08467a.993.993,0,0,1,.66333.03581l19.41951,8.04524,52.48545-16.07681a1.00046,1.00046,0,0,1,1.28988,1.03437l-.75642,9.61667c20.13231,2.1996,25.701,10.10749,25.93141,10.44794a.99951.99951,0,0,1-.4215,1.47378l-18.22955,8.11424,9.62871,10.278a1,1,0,0,1-.49375,1.6554c-18.43525,4.47927-30.95163,2.32719-36.70027.68286l6.52849,7.69307a1.00012,1.00012,0,0,1-.719,1.64628Q187.35631,165.0582,186.09312,165.05788Zm-39.85256-15.85679a.99957.99957,0,0,1,.64218.23369c.1686.14126,16.5416,13.62334,39.20387,13.62334.13182,0,.26527-.00065.39741-.0013l-7.56581-8.91558a.99983.99983,0,0,1,1.19029-1.55059c.13442.06249,13.55889,6.17372,37.27572.83844l-9.4064-10.04044a.99953.99953,0,0,1,.3232-1.59681l18.26307-8.12922c-2.156-2.10716-8.90028-7.22633-24.61711-8.76195a1.0003,1.0003,0,0,1-.89963-1.07344l.71768-9.12453L150.341,130.454a.99316.99316,0,0,1-.6757-.03255l-19.426-8.04784-18.69986,5.46613a.99976.99976,0,0,1-1.25441-1.18671l3.08622-13.23341c-4.08837-.16144-19.07678.45242-36.43533,15.64067a1.00051,1.00051,0,0,1-1.56329-.32678l-6.247-13.28614c-2.526,1.576-9.60136,6.60141-11.63106,14.53663a1.00091,1.00091,0,0,1-.68221.7102l-16.18194,4.83861a1.00426,1.00426,0,0,1-.90191-.17056L10.56085,112.57535c-.46642,3.124-.95041,10.43558,3.17832,16.85732a1.00019,1.00019,0,0,1-.07649,1.1854L2.70178,143.6256l18.29757,6.34493a.99948.99948,0,0,1,.47455,1.54147l-4.74258,6.369c3.2138.90028,13.24219,2.44111,31.79234-5.349a.99923.99923,0,0,1,1.37906.79548l.72875,5.70894,12.575-9.86013a1.00062,1.00062,0,0,1,.61712-.21286H134.104a.99938.99938,0,0,1,.87229.511c.02831.05013,2.95374,5.02869,11.24244,7.25953l-.96668-6.38333a.99981.99981,0,0,1,.98848-1.1496Z"/>
        </g>
      </g>
      <g id="P1">
        <g id="Mano_P1" data-name="Mano P1">
          <path class="cls-21" d="M38.97053,134.76048c-3.09721-3.41117-9.32773-9.01556-22.55925-18.844,14.41165-9.337,29.97018-11.62616,39.79613-4.93721,1.45231.98865,8.52951,5.72531,8.85923,13.54347.27616,6.54812-4.28755,13.58892-10.75082,15.32632a15.51457,15.51457,0,0,1-10.31865-1.241A16.14273,16.14273,0,0,1,38.97053,134.76048Z"/>
          <path class="cls-22" d="M18.69562,116.00942A49.45352,49.45352,0,0,1,54.1678,138.71913s1.642,2.58734-3.5163,1.55435a37.33321,37.33321,0,0,1-9.9066-3.77972L16.41128,115.91644Z"/>
          <path class="cls-19" d="M51.02531,141.273a17.7557,17.7557,0,0,1-7.46329-1.76476,17.013,17.013,0,0,1-5.29-4.02945l.69848-.718-.74047.6718c-3.81724-4.20457-11.359-10.50067-22.4149-18.71321a.99994.99994,0,0,1,.05273-1.64173c15.21233-9.85622,30.88457-11.744,40.90223-4.92518,5.86972,3.99366,9.06822,8.93706,9.29541,14.32768.305,7.22242-4.84967,14.54965-11.49013,16.33394A13.64083,13.64083,0,0,1,51.02531,141.273Zm-11.315-7.18467.04264.04687A15.10421,15.10421,0,0,0,44.432,137.7077a14.44176,14.44176,0,0,0,9.62415,1.17564c5.788-1.5558,10.279-7.97884,10.01147-14.31857-.19985-4.73444-3.0963-9.13495-8.37658-12.72761-8.98165-6.11449-23.57362-4.45388-37.5156,4.14728,10.66211,7.96583,17.71268,13.89414,21.5348,18.10391Z"/>
        </g>
        <g id="Pico_P1" data-name="Pico P1">
          <path class="cls-21" d="M113.21594,84.09409a.896.896,0,0,0-1.16136-1.23978c-5.087,2.069-15.28249,3.02642-21.23214,1.15149-11.1056-3.72334-6.21048,17.02313,4.16923,13.39511C100.87416,96.22132,111.006,89.44893,113.21594,84.09409Z"/>
          <path class="cls-23" d="M87.01668,84.29088s8.06615,7.03817,25.61455,0V83.10931C114.49005,83.60656,101.20529,85.32278,87.01668,84.29088Z"/>
          <path class="cls-19" d="M92.56483,98.83094a8.25093,8.25093,0,0,1-6.647-3.66557c-2.60417-3.49762-3.19655-8.23467-1.34879-10.78449.76846-1.05846,2.64226-2.639,6.57146-1.32275,5.62822,1.77257,15.66736.8508,20.53753-1.13008a1.91549,1.91549,0,0,1,2.18008.49669,1.85294,1.85294,0,0,1,.26364,2.0948c-2.36918,5.64644-12.587,12.55445-18.86619,13.84791A8.31758,8.31758,0,0,1,92.56483,98.83094Zm-4.1743-14.27039a2.564,2.564,0,0,0-2.2022.994c-1.29607,1.78884-.6731,5.7213,1.33349,8.41694,1.09883,1.47573,3.48688,3.76256,7.13976,2.48537l.13344-.03645c5.52993-1.10859,15.24652-7.60129,17.43277-12.55837-5.35286,2.0922-15.655,3.00419-21.70568,1.09753A6.911,6.911,0,0,0,88.39053,84.56055Zm23.94955-.94846.87587.48172-.87554-.483Z"/>
        </g>
      </g>
      <g id="sombrero">
        <g>
          <g>
            <path class="cls-19" d="M87.01468,20.81853l.002.00037-.00012,0A44.08385,44.08385,0,0,1,105.128,29.55668a48.63111,48.63111,0,0,1,16.57134,26.0699c1.7626-1.10936,3.38859-2.18618,4.86741-3.2116L96.3966,16.72484,81.37918,19.91858A46.797,46.797,0,0,1,87.01468,20.81853Z"/>
            <path class="cls-19" d="M15.346,79.68443l-.00484.00118.00927-.05386C17.41877,55.784,23.39461,36.97127,40.344,29.55066c.965-.48541,1.924-.94755,2.88023-1.39822.15155-.07141.30375-.1457.45506-.21624L13.4405,34.36705C10.90805,49.47324,8.14244,65.68126,5.61,80.78745c2.88267.43362,6.081.78445,9.55825,1.02343C15.22271,81.0958,15.28488,80.39085,15.346,79.68443Z"/>
          </g>
          <path class="cls-9" d="M5.84323,79.6856C3.819,47.05986,15.05762,18.27021,36.23674,7.205,46.99493,1.58433,63.51616.433,69.43418,1.2276c37.96375,5.09731,56.26475,48.63734,56.87721,50.367L95.08991,40.19421,86.05607,57.72262l-14.68721-6.482L54.37975,55.459l-7.13834-8.40659-3.61588,18.075Z"/>
          <path class="cls-26" d="M98.91757,31.13938a14.37756,14.37756,0,0,0,11.30062-5.48314A76.106,76.106,0,0,0,88.05732,7.2668,14.4,14.4,0,0,0,98.91757,31.13938Z"/>
          <path class="cls-26" d="M64.01692,40.34394a9.0876,9.0876,0,0,0-7.28866,14.532l14.64059-3.63526,1.41255.62342a9.075,9.075,0,0,0-8.76448-11.52012Z"/>
          <path class="cls-26" d="M57.45364,8.54761A22.00378,22.00378,0,0,0,56.326,1.58952C49.68477,2.40546,42.10464,4.13926,36.23675,7.205A48.16887,48.16887,0,0,0,18.87913,23.11236,22.03509,22.03509,0,0,0,57.45364,8.54761Z"/>
          <path class="cls-12" d="M34.90632,7.93461c7.10415-4.446-14.70751,10.37537-13.458,39.82056.62562,14.74291,7.87693,22.88239,7.87693,22.88239l-23.482,9.048S1.56857,28.79839,34.90632,7.93461Z"/>
          <path class="cls-19" d="M5.84332,80.68537a.99945.99945,0,0,1-.99792-.938C3.8299,63.38344,6.10143,47.90291,11.41393,34.98,16.8716,21.70429,25.29505,11.79339,35.77359,6.3188,46.53985.69384,63.24-.613,69.56731.23653c39.15017,5.25685,57.52553,50.56967,57.68664,51.024a1,1,0,0,1-1.28565,1.27328L95.57488,41.4356l-8.62981,16.745a1.00013,1.00013,0,0,1-1.29248.45665L71.278,52.29365,54.62057,56.42922a1.00018,1.00018,0,0,1-1.00313-.32321l-5.80105-6.83152L44.60584,65.32331a.99934.99934,0,0,1-.62069.73689L6.203,80.61832A.99867.99867,0,0,1,5.84332,80.68537ZM65.11473,1.99088c-7.54009,0-19.898,1.65051-28.41482,6.10049C16.79869,18.48854,5.12564,45.93864,6.76443,78.25923L42.75288,64.39179l3.508-17.53562a.99979.99979,0,0,1,1.74263-.45079l6.73713,7.9336L71.128,50.27046a.99547.99547,0,0,1,.64446.05566l13.82611,6.10179L94.201,39.73627a.99958.99958,0,0,1,1.23195-.48139L124.46523,49.8558c-4.06754-8.84885-21.928-43.17474-55.16416-47.63709A32.64447,32.64447,0,0,0,65.11473,1.99088Z"/>
        </g>
      </g>
      <g id="Ojos_P2X" data-name="Ojos P2X">
        <circle class="cls-19" cx="185.8594" cy="82.50866" r="15.50315"/>
        <circle class="cls-19" cx="149.04228" cy="94.12225" r="15.50315"/>
        <circle class="cls-7" cx="189.5376" cy="82.43983" r="10.09391"/>
        <circle class="cls-7" cx="152.84809" cy="93.20556" r="10.09391"/>
      </g>
      <g id="P2">
        <g id="Mano_P2" data-name="Mano P2">
          <path class="cls-21" d="M115.535,123.35934c6.51183-10.59753,32.17626-18.32462,43.43746-5.43333a9.03039,9.03039,0,0,1,2.28328,6.54143C160.171,139.62233,121.76385,125.53981,115.535,123.35934Z"/>
          <path class="cls-22" d="M127.33544,114.19708s3.16868,16.108,27.6541,16.27469c0,0-7.73079,4.11832-34.606-5.43471l-7.75232.77882S122.75516,113.79237,127.33544,114.19708Z"/>
          <path class="cls-19" d="M150.269,131.83342c-9.0041.00065-21.49346-2.99313-30.54282-5.95826-.79157-.26038-3.21184.4355-4.81223.89507-2.1267.61191-3.18028.89443-3.90252.62883a1.00046,1.00046,0,0,1-.46186-1.52911c.99174-1.356,6.97962-6.58708,9.21665-8.3896,6.59359-5.31185,15.92188-7.66508,25.588-6.46275,6.58383.82021,12.10822,3.23724,14.41718,6.30782a10.15367,10.15367,0,0,1,2.18073,5.74409,8.18616,8.18616,0,0,1-6.78759,8.38635A28.26415,28.26415,0,0,1,150.269,131.83342Zm-30.99426-8.00814a3.45238,3.45238,0,0,1,1.07409.14907c11.46442,3.75736,26.56674,6.91843,34.46552,5.513a6.18348,6.18348,0,0,0,5.14065-6.32149,8.22382,8.22382,0,0,0-1.78169-4.63876c-1.9646-2.61231-7.09321-4.78067-13.06611-5.52472-4.32239-.53834-15.31779-1.02786-24.08658,6.03507-1.66581,1.34229-4.60848,3.90513-6.66194,5.8118l.0026-.00066A20.22012,20.22012,0,0,1,119.27478,123.82528Zm-7.66117,1.67363Z"/>
        </g>
        <g id="Pico_P2" data-name="Pico P2">
          <path class="cls-21" d="M189.64083,91.02389a.69547.69547,0,0,0-1.11675-.70106c-3.40939,2.55841-10.873,5.29205-15.70936,5.06059-9.07177-.59987-1.29721,14.00506,5.77682,9.23043C182.77383,102.56584,189.04034,95.48,189.64083,91.02389Z"/>
          <path class="cls-23" d="M168.55827,96.94112s8.477,5.07436,21.31406-5.52187l-.29633-1.14381C191.24744,90.35608,180.62352,94.88132,168.55827,96.94112Z"/>
          <path class="cls-19" d="M175.59245,106.58325a7.04524,7.04524,0,0,1-4.39335-1.67949c-2.71776-2.16835-4.129-5.71935-3.21249-8.08364.38927-1.00509,1.54538-2.65723,4.89426-2.4346,4.51181.22,11.80877-2.4359,15.04308-4.86269a1.70975,1.70975,0,0,1,1.99292-.0651,1.65969,1.65969,0,0,1,.70857,1.74588c-.677,4.76309-7.032,12.037-11.53277,14.27821A6.29742,6.29742,0,0,1,175.59245,106.58325ZM172.2758,96.36509c-1.31137,0-2.12149.39514-2.42451,1.17759-.58782,1.51675.6246,4.22605,2.59506,5.79812a4.517,4.517,0,0,0,5.5859.44461,1.03962,1.03962,0,0,1,.11946-.06965c3.72155-1.822,9.32535-8.04459,10.36852-12.16518-3.786,2.54461-11.00386,5.05928-15.75328,4.83144Q172.51063,96.36541,172.2758,96.36509Z"/>
        </g>
      </g>
    </g>
  </g>
</svg>
