<svg id="Layer_1" data-name="Layer 1" xmlns="http://www.w3.org/2000/svg" xmlns:xlink="http://www.w3.org/1999/xlink" viewBox="0 0 70.22978 83.90294">
  <defs>
    <style>
      .patch-without-crown-cls-1 {
        fill: #e5c230;
      }

      .patch-without-crown-cls-2 {
        fill: #fff;
      }

      .patch-without-crown-cls-3 {
        fill: #010101;
      }

      .patch-without-crown-cls-4 {
        fill: #a61e22;
      }

      .patch-without-crown-cls-5 {
        fill: none;
        stroke: #010101;
        stroke-linecap: round;
        stroke-miterlimit: 10;
        stroke-width: 1.5px;
      }

      .patch-without-crown-cls-6 {
        fill: url(#radial-gradient);
      }

      .patch-without-crown-cls-7 {
        fill: #5c5c5c;
      }
    </style>
    <radialGradient id="radial-gradient" cx="203.14775" cy="193.79844" r="8.82869" gradientUnits="userSpaceOnUse">
      <stop offset="0" stop-color="#1d1d1d"/>
      <stop offset="0.42895" stop-color="#141414"/>
      <stop offset="1" stop-color="#010101"/>
    </radialGradient>
  </defs>
  <g id="Outline">
    <polygon class="patch-without-crown-cls-1" points="50.991 65.731 50.228 64.059 49.111 63.836 47.383 65.359 45.367 66.775 43.4 69.412 41.863 72.151 40.85 75.948 41.106 79.274 42.602 81.832 44.068 82.78 47.052 83.159 50.844 81.856 54.45 77.711 56.652 73.483 57.418 70.025 56.57 68.444 54.814 68.666 54.793 65.963 53.429 64.991 51.684 65.359 50.991 65.731"/>
    <polygon class="patch-without-crown-cls-1" points="7.198 64.298 5.593 63.055 4.377 62.873 3.375 63.807 3.375 65.359 2.924 66.315 1.208 66.585 0.744 67.38 0.744 69.117 3.572 75.331 6.07 78.32 9.056 80.801 12.06 81.003 14.836 80.245 16.862 77.711 17.369 73.483 16.319 70.032 14.036 66.205 12.079 63.807 10.226 62.191 8.458 61.685 7.259 62.995 7.198 64.298"/>
    <path class="patch-without-crown-cls-2" d="M200.819,248.52085c-9.594.384-18.47937-.95337-20.91077-1.8667a13.83756,13.83756,0,0,1-1.91113-.82617c1.552-5.29968-2.40191-12.25608-7.21875-15.81909a14.09643,14.09643,0,0,1,11.13089-10.4758.74985.74985,0,0,0,.60642-.87015c-.30352-1.7048-5.34041.87923-6.23731,1.43823V200.95811a8.46335,8.46335,0,0,0,9.18091,1.16833l6.26929,1.61658a11.84527,11.84527,0,0,0,.56933-8.76856l-2.18384.60437c.948-6.62137-6.51259-11.68776-12.30981-8.44494a25.91785,25.91785,0,0,1,9.70044-12.56226c14.33245-3.15553,27.71568,6.90654,27.52353,22.21873-.03159,7.27981-5.20835,13.11306-9.78012,18.26027-4.48828,5.05372-8.36426,9.418-5.82617,13.78028,2.68973,3.90968,9.95375-.19182,14.3457-2.39392a51.64334,51.64334,0,0,1-1.86621,6.93225c-.01489.00976-.031.01819-.0459.02807-2.13033-5.33212-7.76509,2.2-9.30747,4.82326C200.32288,241.73887,199.77161,245.67856,200.819,248.52085Z" transform="translate(-160.24086 -168.50415)"/>
    <circle class="patch-without-crown-cls-3" cx="42.76769" cy="25.1838" r="8.12848"/>
    <path class="patch-without-crown-cls-3" d="M222.77539,176.84751c-9.11548-9.68945-25.21985-11.03394-36.083-3.53784a27.45557,27.45557,0,0,0-8.71146,9.73027,27.178,27.178,0,0,0-2.23946,5.64,8.50144,8.50144,0,0,0-.96314,10.60534v13.027c-1.0105,1.12586-5.241,6.34827-3.7019,13.05359a15.46728,15.46728,0,0,0-1.70472,4.08472A2.272,2.272,0,0,0,166.793,231.243c-2.32337-1.65906-4.50794.08825-4.02734,2.69629a2.0415,2.0415,0,0,0-1.86817.6416c-2.20605,2.38574,1.81543,8.91894,2.28125,9.65625,3.41455,5.47461,10.707,8.79211,14.2605,2.98865a15.27689,15.27689,0,0,0,1.96606.84143c2.03931,1.0332,14.94544,2.4906,22.17188,1.922,3.25342,4.566,9.63147,1.92871,12.60571-1.845,7.79016-1.99524,15.30322-7.22558,15.13648-16.0448.00586-.21093,1.13769-35.41113,1.13769-35.41211A27.06359,27.06359,0,0,0,222.77539,176.84751Zm-41.3457,22.69141,9.78515-2.709a9.98072,9.98072,0,0,1-.38183,5.13281Zm-6.65137,15.24743v6.36487c-.41946.36277-.86512.71439-1.2489,1.11255a15.57516,15.57516,0,0,0-1.22046,1.35059A13.71563,13.71563,0,0,1,174.77832,214.78635Zm-.10254,33.32971c-2.86523,1.8125-7.45215-.291-10.22949-4.68066-2.25108-3.37512-4.26669-9.463-1.06934-7.65234a.75466.75466,0,0,0,1.16209-.85355c-.94918-2.83155.3-3.81956,2.334-1.63468a.755.755,0,0,0,1.30856-.60162c-.19425-4.14342,3.80359-.36755,6.6523,4.17379C177.61035,241.25962,177.53906,246.30552,174.67578,248.11606Zm26.14319.40479c-9.594.384-18.47937-.95337-20.91077-1.8667a13.83756,13.83756,0,0,1-1.91113-.82617c1.552-5.29968-2.40191-12.25608-7.21875-15.81909a14.09643,14.09643,0,0,1,11.13089-10.4758.74985.74985,0,0,0,.60642-.87015c-.30352-1.7048-5.34041.87923-6.23731,1.43823V200.95811a8.46335,8.46335,0,0,0,9.18091,1.16833l6.26929,1.61658a11.84527,11.84527,0,0,0,.56933-8.76856l-2.18384.60437c.948-6.62137-6.51259-11.68776-12.30981-8.44494a25.91785,25.91785,0,0,1,9.70044-12.56226c14.33245-3.15553,27.71568,6.90654,27.52353,22.21873-.03159,7.27981-5.20835,13.11306-9.78012,18.26027-4.48828,5.05372-8.36426,9.418-5.82617,13.78028,2.68973,3.90968,9.95375-.19182,14.3457-2.39392a51.64334,51.64334,0,0,1-1.86621,6.93225c-.01489.00976-.031.01819-.0459.02807-2.13033-5.33212-7.76509,2.2-9.30747,4.82326C200.32288,241.73887,199.77161,245.67856,200.819,248.52085Zm13.38318-2.93115c-6.30633,9.82063-16.97656,4.9991-10.38681-6.56851,2.66747-4.27548,6.82935-8.43215,6.65251-4.17373a.75483.75483,0,0,0,1.30853.60158c.30175-.34665,1.57518-1.54391,2.26854-1.10837.65137.41211.31836,2.05762.06543,2.74414a.75528.75528,0,0,0,1.15918.85547C218.45222,236.08126,216.46394,242.22523,214.20215,245.5897ZM228.957,196.6395c-1.13769,35.41016-1.13769,35.42188-1.13769,35.43848a13.9344,13.9344,0,0,1-.89162,4.96044c-1.86907,4.7795-6.61878,7.5743-11.30028,9.09693.86255-1.41357,4.17163-7.18628,2.12354-9.40015a2.02285,2.02285,0,0,0-1.86719-.64062c.29361-1.41615-.42079-3.40946-2.19922-3.34839a54.54757,54.54757,0,0,0,1.79224-7.2666c4.10693-2.36353,7.45508-4.72559,7.74878-4.93384a.75019.75019,0,0,0-.86918-1.22263c-1.69723,1.20505-4.6528,3.15122-7.85739,4.98069a.731.731,0,0,0-.1521.08667c-4.67334,2.65576-9.84521,5.0332-12.44262,4.47363a1.69131,1.69131,0,0,1-1.18555-.78711c-1.99219-3.42383,1.38086-7.22168,5.65137-12.03027,4.618-5.20044,9.8186-11.078,10.1311-18.61524h.0271c-.002-.05311.00311-.69021,0-.72253.10713-14.65488-11.53272-25.24814-25.64111-24.1051C208.67059,164.28692,229.48756,176.57671,228.957,196.6395Z" transform="translate(-160.24086 -168.50415)"/>
    <circle class="patch-without-crown-cls-2" cx="39.83766" cy="22.72635" r="2.64648"/>
    <circle class="patch-without-crown-cls-2" cx="18.48019" cy="23.51893" r="2.74214"/>
  </g>
  <g id="Color">
    <path class="patch-without-crown-cls-4" d="M228.957,196.6395c-1.13769,35.41016-1.13769,35.42188-1.13769,35.43848a13.9344,13.9344,0,0,1-.89162,4.96044c-1.86907,4.7795-6.61878,7.5743-11.30028,9.09693.86255-1.41357,4.17163-7.18628,2.12354-9.40015a2.02285,2.02285,0,0,0-1.86719-.64062c.29361-1.41615-.42079-3.40946-2.19922-3.34839a54.54757,54.54757,0,0,0,1.79224-7.2666c4.10693-2.36353,7.45508-4.72559,7.74878-4.93384a.75019.75019,0,0,0-.86918-1.22263c-1.69723,1.20505-4.6528,3.15122-7.85739,4.98069a.731.731,0,0,0-.1521.08667c-4.67334,2.65576-9.84521,5.0332-12.44262,4.47363a1.69131,1.69131,0,0,1-1.18555-.78711c-1.99219-3.42383,1.38086-7.22168,5.65137-12.03027,4.618-5.20044,9.8186-11.078,10.1311-18.61524h.0271c-.002-.05311.00311-.69021,0-.72253.10713-14.65488-11.53272-25.24814-25.64111-24.1051C208.67059,164.28692,229.48756,176.57671,228.957,196.6395Z" transform="translate(-160.24086 -168.50415)"/>
    <path class="patch-without-crown-cls-4" d="M174.77832,214.78635v6.36487c-.41946.36277-.86512.71439-1.2489,1.11255a15.57516,15.57516,0,0,0-1.22046,1.35059A13.71563,13.71563,0,0,1,174.77832,214.78635Z" transform="translate(-160.24086 -168.50415)"/>
    <path class="patch-without-crown-cls-4" d="M181.42969,199.53892l9.78515-2.709a9.98964,9.98964,0,0,1-.38183,5.13281Z" transform="translate(-160.24086 -168.50415)"/>
  </g>
  <g id="Patch">
    <polyline class="patch-without-crown-cls-5" points="17.74 14.536 37.032 19.576 50.147 21.054 68.914 17.795"/>
    <path class="patch-without-crown-cls-6" d="M212.22275,193.83918c-.56075,4.45407-5.11832,9.04518-10.13035,8.41419s-8.58057-6.24513-8.01983-10.69921,5.13125-6.79864,10.14328-6.16765S212.78349,189.3851,212.22275,193.83918Z" transform="translate(-160.24086 -168.50415)"/>
    <path class="patch-without-crown-cls-7" d="M198.673,187.69a8.42317,8.42317,0,0,1,5.876-.58051,7.37621,7.37621,0,0,1,4.60632,3.19213,7.011,7.011,0,0,0-4.738-2.46278,7.30389,7.30389,0,0,0-4.96066,1.13016.7521.7521,0,1,1-.87964-1.22019A.8778.8778,0,0,1,198.673,187.69Z" transform="translate(-160.24086 -168.50415)"/>
  </g>
</svg>
