<svg version="1.1" id="Primary_Logo" xmlns="http://www.w3.org/2000/svg" x="0" y="0" viewBox="0 0 953.7 883.8" style="enable-background:new 0 0 953.7 883.8" xml:space="preserve"><style>.st0{display:none}.st3{fill:#f7fcfe}.st3,.st4{display:inline}.st6{fill:#ec3e3f}.st7{fill:#fff}.st8{opacity:.3}.st11,.st12{display:inline;fill:#3c1a26}.st12{fill:#29121a}.st13,.st15,.st16{display:inline;fill:#421d2a}.st15,.st16{fill:#a24741}.st16{fill:#db5b54}.st17,.st18,.st20{display:inline;fill:#bd967f}.st18,.st20{fill:#886b59}.st20{fill:#fff}.st21,.st24,.st25{display:inline;fill:#493239}.st24,.st25{fill:#f2716a}.st25{fill:#898989}.st26,.st27,.st28{display:inline;fill:#888}.st27,.st28{fill:#d6d6d6}.st28{fill:#fdfdfd}.st30{fill:none}.st34{fill:#8c8c8c}.st38{display:inline;fill:none}.st41{fill:#ff0839}.st43{fill:#d23837}.st44{fill:#ff4f5f}.st50{fill:#f7fcfe}</style><g class="st8"><circle cx="139.4" cy="744.5" r="139.4" style="fill:#f36c21"/><path class="st7" d="M159.9 647.7c.9.4 1.9.4 2.9.5 5.2.9 10.2 2.3 15.1 4.2 8.5 3.2 16.1 8 23 13.9 7.3 6.3 13.6 13.6 18.8 21.9.9 1.5 1.8 3.1 2.7 4.8-3 1.1-5.9 1.5-9 1.6-6.6.1-12.8-1.7-18.9-4-2-.8-4-1.8-6-2.5-5.4-2-11-3.2-17.1-3.1.4-.3.6-.5.9-.6 4.3-3.1 8.4-6.6 11.7-10.8 1.7-2.2 3.1-4.4 4.2-6.9.5-1.2.3-2.1-.7-3-3.6-3.1-7.9-4.2-12.5-4.1-5.6.1-10.9 1.7-16 3.8-.4.1-.8.3-1.2.5-.1-.3.1-.5.1-.7 1.2-3.2 1.9-6.4 1.9-9.7 0-1.9-.1-3.7-.5-5.5.2-.3.4-.3.6-.3zM134.2 841.3c.1-.4.5-.1.7-.1h7.2c.2 0 .4-.1.6-.1 0 .2.4 0 .3.3-3-.1-5.9-.1-8.8-.1z"/><path class="st7" d="M117.6 651.8c.4 3.6.7 7.1 1.1 10.6 0 .3 0 .6.3.7.4.1.6-.2.8-.4 2.6-2.8 5.3-5.5 8.4-7.7 5.3-3.7 11-6.2 17.4-7 3-.4 5.9-.4 8.9-.1.4.1.6.2.6.6 1.2 7.2-.5 13.6-5 19.3-1.9 2.4-4 4.7-5.9 7-.1.1-.2.2-.3.4-.1.1-.1.2-.1.3.1.1.2.1.3.1l.6-.3c5-2.6 9.7-5.4 14.9-7.6 4-1.7 8.1-3.2 12.5-3.7 3.6-.4 7.1-.4 10.4 1.4 1.1.6 1.1.6.5 1.6-1.7 3-3.9 5.5-6.3 7.9-6.3 6-13.5 10.4-21.3 13.9-.4.2-1.2.2-1.1.8s.8.4 1.2.6c4.2 1.1 8.5 2.2 12.5 3.9 3.9 1.7 7.5 3.8 10.5 6.8.9.9 1.7 1.8 2.2 2.9-2.2.9-4.5 1.7-6.9 2.1-7.8 1.4-15.1-.1-22.3-3.2-3.5-1.5-6.4-3.7-9.4-5.8-.4-.3-.9-.6-1.3-.9-.2-.1-.4-.5-.7-.3-.2.2.1.5.1.7 2.2 5 4.3 10.1 6.5 15.1 2.5 6 5.3 11.9 7.4 18.1.1.1.1.4.2.7-1.1-.6-2.1-1.1-3-1.7-9.2-5.8-16.9-13.1-22.5-22.5-.6-1.1-1.3-2.3-1.9-3.4-.5-.9-.9-1-1.7-.4-6.6 5.2-13.1 10.4-19.6 15.6-4.5 3.6-9.3 7-14.1 10.4-1.9 1.4-4.2 1.5-6.6 1.4-.9-.1-1.7-.2-2.4-.5-1.4-.5-2-1.4-1.7-2.9.1-.5.2-1 .5-1.4 3.5-5.3 5.1-11.2 6.6-17.3 1.2-5 2-10 2.6-15.1.4-4.3 1.1-8.6 2.4-12.7 2-6.6 5.4-12.3 10.1-17.3 4-4.2 8.7-7.6 14-10 .2-.4.3-.5.6-.7zm-16.9 37.1c0-1.7-1.2-2.9-3-2.9-1.7 0-2.8 1.2-2.9 2.9 0 1.6 1.3 3 2.9 3 1.8.1 3-1.2 3-3zm9.8 0c0 1.7 1.3 3 2.9 3 1.7 0 3-1.3 3-3s-1.4-2.9-3-2.8c-1.7 0-2.9 1.2-2.9 2.8z"/><path class="st7" d="M156.5 756.6c-1.1-.4-2.1-.9-3.1-1.4-2.7-1.4-5.3-3-8-4-3.9-1.5-7.9-2.2-12.1-1.9-2.3.1-4.6.4-6.9.9-.4.1-.6 0-.7-.4-.4-1.1-1.1-2.1-1.8-3-.3-.4-.5-.4-.9-.2-3.6 1.8-7.2 3.5-10.9 5-8.4 3.2-16.9 5.9-25.6 7.5-1.4.3-2.9.4-4.3.4-1.2-.1-2.2-.7-2.4-1.7-.3-1.2.2-2.2 1.4-2.9 1.4-.6 2.8-1 4.2-1.6 3.7-1.4 7-3.5 9.9-6.1 5.1-4.7 8.8-10.4 12.2-16.3 1.9-3.4 3.5-6.9 5.4-10.2 2.2-3.9 5.3-6.9 8.6-9.7 1.1-.9 2.2-1.7 3.2-2.6.3-.3.5-.3.7.1 4.6 7.1 10.2 13.3 16.6 18.7 4.1 3.4 8.5 6.2 13.3 8.4.5.2.8.6 1 1.2.8 2.8 1.1 5.7 1.2 8.6.1 3.7-.1 7.4-.8 11.1-.1-.2-.2-.1-.2.1zM168.3 689.4c4-.4 7.8-.1 11.5.6 3.8.7 7.4 2 10.9 3.7 1.1.5 1.9 1.3 2.8 2.1 6.2 5.3 9.9 12.2 11.7 20.1.8 3.5 1.2 7.1 1.3 10.7 0 .4-.1.5-.4.6-6.6 3.8-13.4 6.7-20.9 8-4.7.9-9.4 1-14.1.4-3.7-.5-7.4-1.4-10.9-2.8-.3-.1-.6-.2-.7-.6-1.5-6.3-4.3-12-6.8-17.9-1.1-2.6-2.2-5.1-3.2-7.6.3-.1.4.1.6.1 4.5 2 9.1 3.4 14 3.8 7.2.7 14.1-.6 20.6-3.8 1.2-.6 1.5-1.4 1.1-2.7-.9-2.5-2.5-4.7-4.5-6.6-3.4-3.3-7.4-5.7-11.7-7.6-.4-.2-.8-.3-1.3-.5z"/><path class="st7" d="M111.9 791.9c-1.5.1-2.5-.5-3.1-1.8-3.5-7.3-7.1-14.7-10.5-22.1-.9-1.9-1.7-3.7-2.2-5.7-.3-1.2-.1-1.7.9-2.3 2.1-1.4 4.4-1.4 6.6-.6 3.2 1.1 5.9 3 8.4 5.3.5.4.9 1.3 1.5 1.2.4-.1.7-1 1-1.6 3.5-6.1 8.8-9.7 15.7-10.9 5.2-.9 10.1.1 14.8 2.2 2.3 1.1 4.5 2.3 6.7 3.5 1 .5 2 1.1 3.1 1.4.3.1.4.2.3.6-1.4 3.2-2.7 6.4-4.3 9.4-2.9 5.1-6.9 9.1-11.8 12.2-6.8 4.3-14.3 7-22.3 8.4-.9.1-1.7.3-2.5.4-.8.2-1.6.5-2.3.4zM206.7 731.8c.1 2.1.1 4 .1 6-.1 4.7-.4 9.4-1.6 13.9-1.9 6.7-6 10.3-12.9 11.5-5.6.9-11.2.3-16.7-.8-4.4-.9-8.6-2.2-12.9-3.5-.4-.1-.6-.4-.6-.8-.5-3.5-.4-7.1-.4-10.7-.1-3.2-.2-6.4-1-9.6 0-.1 0-.1.1-.2 16.2 5.3 31.4 2.2 45.9-5.8zM210.4 746.8c1.1 2.3 2.2 4.5 3.7 6.4 3.6 4.9 8.4 7.9 14.5 8.8 1.2.1 2.3.3 3.5.2.5 0 .6.1.5.6-1.2 6.1-3 12.1-5.3 17.9-2.3 5.8-5.3 11.4-8.6 16.6-.2.4-.4.4-.8.3-2.3-.7-4.2-2-5.6-4-2.2-2.8-3.2-6-3.9-9.5-1-5-1.2-10-.9-15.1.1-3.5.4-6.9.9-10.3.4-2.4.9-4.8 1.4-7.2.2-1.4.4-3 .6-4.7zM162.9 763.5c1.6.4 3 .9 4.5 1.3 5.4 1.5 10.8 2.7 16.4 3 5.2.4 10.3 0 15.1-2.1 1.1-.5 2-1.2 3.2-1.8-.5 1.8-1 3.5-1.7 5-2.1 5.6-4.8 10.9-8.5 15.6-2.9 3.7-6.3 6.8-10.4 8.9-3 1.5-5.5 1.1-8-1.2s-4-5.3-5.3-8.4c-2.3-5.5-3.7-11.2-4.8-17-.1-.9-.3-2-.5-3.3zM137.4 818.9c-1.2 1.1-2.4 2.1-3.4 3.2-3.3 3.6-5.9 7.6-7.1 12.5-.4 1.7-.8 3.5-.7 5.3 0 .4-.1.5-.5.5-5.4-.7-10.7-1.9-15.8-3.5-6.6-2-13-4.8-18.9-8.2-1.7-.9-3.2-1.9-4.9-3 1.3-1.2 2.7-2.3 4.1-3.2 4.5-2.8 9.6-4.4 14.9-5 3.7-.5 7.6-.6 11.4-.1 2.7.4 5.4.8 8.1 1 4 .4 8.1.5 12.2.3h.5s0 .1.1.2zM189.7 793.4c-.6 1.9-1.2 3.7-1.6 5.5-.7 3.1-1.2 6.3-1.2 9.4 0 3.3.6 6.6 2.2 9.5 1.1 2 2.5 3.7 4.4 5 .4.4.5.5 0 .9-8.1 5.7-16.9 10-26.4 13.1-.3.1-.5.3-.7-.2-1.7-3.6-2.9-7.4-2.8-11.5.1-4.3 1.4-8.3 3.5-12 3.1-5.2 7.3-9.3 12.2-12.7 3.3-2.3 6.8-4.3 10-6.8 0-.1.2-.1.4-.2zM142.6 841c-.2.1-.4.1-.6.1h-7.2c-1.2-.2-2.3-.2-3.5-.3-.6 0-.9-.2-.9-.9 0-3.6 1.2-6.8 3-9.9 3.2-5.3 7.8-9.4 13-12.7 5.1-3.2 10.6-5.6 16.1-8.1.8-.4 1.6-.7 2.4-1-.7 1.2-1.4 2.2-2.1 3.4-2.7 4.8-4.2 9.9-3.8 15.5.2 3.5 1.1 6.8 2.6 10 .5 1 .4 1-.6 1.2-5.9 1.6-12.1 2.5-18.4 2.7z"/><path class="st7" d="M210.4 719.1c2.4 2.7 4.9 5 7.8 6.9 3.7 2.3 7.7 3.7 12.2 3.4.8-.1 1.7-.1 2.4-.3.4-.1.4.1.4.4.1 1.8.4 3.6.5 5.4.4 4.8.4 9.5.3 14.3-.1 2.7-.3 5.5-.6 8.2-.1.4-.1.5-.5.5-3.8.1-7.4-.6-10.6-2.7-2.7-1.9-4.8-4.3-6.3-7.2-2.4-4.3-3.6-9-4.3-13.8-.6-3.4-.5-6.8-.7-10.2-.1-1.3-.2-2.6-.4-3.9-.2-.3-.2-.6-.2-1zM203 774.7c.1 1.7.2 3.2.4 4.8.6 5.5 1.6 10.8 4.6 15.6 1.9 2.9 4.3 5.1 7.6 6.4.1.1.2.1.4.1-1.3 1.9-2.7 3.5-4.1 5.3-4.1 4.8-8.6 9.3-13.6 13.2-.4.3-.6.3-.9.1-3.3-2-5-5-5.5-8.8-.7-5.3.4-10.4 1.9-15.4 1.5-4.7 3.5-9.2 5.8-13.5 1.2-2.2 2.3-4.5 3.3-6.8-.2-.4-.2-.6.1-1zM148.7 780.8c-.5 1.9-.9 3.8-1.3 5.8-.9 4.4-1.4 8.9-1.1 13.3.3 3.7 1.1 7.2 3.5 10.2.3.4.2.5-.1.6-3 1.5-6 2.5-9.3 3.1-4.8.9-9.7.7-14.5.4-1.2-.1-2.4-.2-3.6-.4-.4 0-.6-.1-.5-.6.4-4.1 2.1-7.6 4.2-11 3.3-5 7.6-9.2 12.3-12.9 3.5-2.7 6.9-5.3 10-8.4.1-.1.2-.1.4-.1zM126.8 793.8c-.1.4-.4.6-.6.9-3.1 3.7-5.8 7.8-7.4 12.5-.6 1.7-1 3.5-1.2 5.3-.1.6-.3.6-.7.5-4-.7-7.9-1.6-11.8-2.7-3.6-1-7.1-2.3-10.4-4-3.5-1.7-6.1-4.4-8.4-7.5-2-2.8-3.7-5.8-5.3-8.9 0-.1 0-.1-.1-.2.2-.1.4.1.5.1 5.3 2.6 10.8 4.5 16.6 5.5 4.9.9 9.9 1.1 14.8.9 4.6-.2 9.1-1.1 13.5-2.3.2-.1.3-.1.5-.1zM82.1 800.6c-1.6-.4-3-.6-4.5-.8-5.3-.4-10.1.6-14 4.4-.4.4-.5.4-.9 0-6.1-7.9-10.9-16.6-14.5-25.9-.2-.5-.1-.6.4-.7 8.9-1.2 16.9.9 23.3 7.3 2 1.9 3.7 4.2 4.9 6.7 1.4 2.9 3 5.8 4.8 8.4.3.2.4.4.5.6zM201.4 697.3c2.1.5 4 .9 6 1.2 5.1.6 10.2.6 15.2-.9.1-.1.3-.1.5-.1 1.3-.4 1.3-.4 1.9.9 1.6 3.7 3 7.3 4.2 11.2 1.4 4.8 2.7 9.8 3.4 14.8.1.4 0 .6-.4.6-4.4.9-8.3-.4-11.9-2.7-4.2-2.8-7.3-6.5-10.2-10.6-1.6-2.3-2.9-4.7-4.1-7.1-1.1-2.2-2.4-4.2-4-6.3-.3-.5-.4-.7-.6-1zM158.7 764.7c.5 3.4 1.2 6.6 1.9 9.8 1.4 5.5 3.1 10.9 5.9 15.8 1.6 2.8 3.6 5.3 6.4 7.1.2.1.5.3.8.4.2.1.5.2.7.4-.1.3-.4.4-.7.5-6.1 3.5-12.3 6.6-18.7 9.6-.6.3-.9.1-1.2-.3-1.8-1.7-2.5-3.9-3-6.3-.6-3.7-.4-7.3.2-11 1.3-8.7 4-17 7.2-25.1.2-.3.3-.5.5-.9zM100.9 813.6c-2.7.6-5.4 1.4-7.9 2.4-3.7 1.6-7.1 3.7-10 6.5-.4.4-.6.4-1.2.1-4.8-3.6-9.2-7.5-13.3-11.9-.7-.8-1.4-1.7-2.2-2.4-.4-.4-.2-.5.1-.8 1.9-1.9 4.2-3 6.8-3.2 3.6-.4 7.1.3 10.5 1.5 2.5.9 4.8 2.1 7.1 3.4 2.9 1.7 6 3.1 9.1 4 .4.1.7.1 1 .4zM61.7 773.9c-1.2-.1-2.4-.4-3.6-.6-2.7-.4-5.5-.4-8.3-.1-.9.1-1.8.2-2.7.4-.4.1-.5-.1-.6-.4-.9-2.7-1.6-5.5-2.2-8.4-1.2-5.9-1.9-11.8-1.9-17.8 0-.9 0-.9.8-.6 1.9.6 3.4 1.9 4.7 3.5 1.8 2.2 3 4.8 3.9 7.6 1.7 4.8 4.2 9 7.1 13 1 1 1.8 2.2 2.8 3.4zM45.7 721.2c1.2 1 1.7 2.4 2.1 3.8.4 1.7.1 3.2 0 4.9-.4 3.5-.4 7 .1 10.4.1 1.2.3 2.3.5 3.6-1.7-1.3-3.5-2.1-5.4-2.3-.3-.1-.4-.2-.4-.5.3-6.6 1.2-13.3 3.1-19.9zM61.7 773.9zM126.8 793.8c.1 0 0 0 0 0z"/></g><circle cx="261.2" cy="252.2" r="252.2" style="fill:#00283f"/><path class="st41" d="M368.8 324.1s48.7 61.7 97.4 37.1c0 0-17.2 3.2-32-67.2l-27.4-171.5s-8.8-43.6-58.4-52.4c0 0-116.4-38.5-207.7 17.6 0 0-15.3 1.4-27.8 53.3L86.4 305.1s-10.2 48.2-28.7 55.6c0 0 43.1 29.2 89.5-33.4l1.9-12.5s-13.4-81.6-7-101.1l235-1.4c0 1 7.9 28.8-8.3 111.8z"/><path d="M142.5 216.5h236s24.6 155.3-118.7 231.8c0 0-127.9-45-117.3-231.8z" style="fill:#e8e9e8"/><path class="st41" d="M158.7 325.4s71.4 38.9 201.2 8.3c0 0-19 73.7-100.1 114 0 .1-83-36.5-101.1-122.3z"/><path class="st43" d="M393.8 108.5s-29.7-5.1-26 33.8l-7.4-.5s-3.7-32.9 16.7-38.5c0-.4 10.2-1.8 16.7 5.2zm-265.7-1.9s31.1-8.3 28.3 35.7l7.4-.5S168 107 146.2 101c-.4.1-11.1-1.8-18.1 5.6zm53.4 229s-1.9-.5-3.7-.9c-4.6-.5-7.9 5.1-4.6 8.8 1.4 1.4 3.2 3.2 7 4.6 0 0 89 32.5 160.9 18.5 0 0-2.3 7.9-16.7 9.3 0 0-69.1 10.2-156.2-25.5 0 0-8.8-12.5-8.8-17.6-.7.5.7-7.4 22.1 2.8z"/><path class="st43" d="M318.7 370c12.1-1.9 20.4-6.5 30.6-18.1 0 0 2.3 15.8-18.1 17.2-8.8.4-12.5.9-12.5.9zm-7.9 9.7h1.9c7 .9 5.6 8.3-3.2 14.8 0 0-12.5 9.7-56.6 10.7 0 0-49.6.5-60.7-18.5 0 0 11.6 20.4 19.9 22.7 0 0 22.3 5.6 53.3 3.2 0 0 50.1-4.6 58-18.5 0 0 8.3-7.9 3.2-14.4-.5.5-6.1-3.7-15.8 0zm-81.1 35.7c-2.3.5-1.9 3.2-.5 4.2 3.7 3.7 13 9.7 26.9 18.1 1.4.9 3.2.9 5.1.5 4.2-1.4 13.4-4.6 24.6-9.3l-4.6 4.6-22.7 14.4-38.5-26.4v-7c-.1 0 5.5.4 9.7.9zm-60.3-284.7h184.1v10.7H169.4v-10.7z"/><path class="st43" d="M353 141.4s1.4-11.6 6-28.3c0 0-11.1 7.9-14.8 28.3h8.8zm-173.9 0s-2.8-21.8-14.4-28.3c0 0 5.6 13.9 6 28.3h8.4zm208.7 50.1v-11.1c0 8.8-4.6 10.7-7.9 11.1H139.7c-3.2-.5-7.9-2.3-7.9-11.1V198c0 6 5.1 11.1 11.1 11.1h233.2c6 0 11.1-5.1 11.1-11.1v-6.5h.6zm0 17.6s2.8 38-1.9 74.6c-1.9 14.8.5 29.7 7 43.1 7.4 14.4 19.9 28.3 42.7 29.7 0 0 12.5 0 4.2-12.5 0 0-15.8-31.1-14.8-86.2 0 0 16.7 89.5 35.2 100.6l6.5 6.5s-21.8 3.2-30.6 3.7c0 0-34.3-2.3-63.1-42.7 0 0-4.2 4.2 2.8-52.9 0 0 5.1-55.2 5.1-56.1-1-1.3 6.9-7.8 6.9-7.8zm-256.9 0s-2.8 38.5 2.3 75.1c1.9 13.4 0 27.8-6 40.3-7 14.8-19.5 30.1-42.2 32-1.9 0-3.7-.5-4.6-1.9-1.4-1.4-1.9-4.2.5-8.8 0 0 17.2-20.4 17.2-86.2 0 0-16.2 70.9-30.1 92.3l-10.7 11.6s16.7 4.2 25.5 5.1c0 0 34.3-2.3 63-42.7 0 0 4.2 4.2-2.8-52.9 0 0-5.1-55.2-5.1-56.1.9-1.8-7-7.8-7-7.8z"/><path class="st44" d="M176.8 83.9c.5-3.2 2.3-6 5.6-6.5 20.4-3.2 113.1-17.2 161.3 4.2 10.2 4.2 12.5 9.3 8.8 15.3-3.7 6.5-11.6 9.7-19 7.4-22.3-6.5-79.7-24.1-151.1-14.4-1.4 0-3.2 0-4.2-1.4-.4-.9-1.4-2.3-1.4-4.6zM369.7 179H149c-4.2 0-7.4-3.2-7.4-7.4v-4.2c0-4.2 3.2-7.4 7.4-7.4h220.7c4.2 0 7.4 3.2 7.4 7.4v4.2c-.5 4.1-3.7 7.4-7.4 7.4zM250.1 352.3c15.8.5 54.7 3.7 90.4-7 2.8-.9 4.6 2.3 2.8 4.2 0 .5-3.7 5.6-11.6 10.2-8.3 5.1-29.2 4.6-36.6 4.6-11.6.5-52.9-4.2-52.9-8.8.5-2.7 6.9-3.2 7.9-3.2zm-54.7 20c7.9 2.3 25 6.5 58.4 11.6 1.4.5 2.8.9 3.7 2.3.9.9 1.4 2.8.5 4.6-.9 1.9-2.3 2.8-4.2 3.7-5.1 1.9-19.5 4.2-51-6-1.9-.5-3.7-1.9-5.1-3.2-1.9-1.9-4.2-4.6-6-7.9-1.4-3.3.9-6.1 3.7-5.1zm52.4 49.1c7 .5 18.1.9 30.1-.5 1.4 0 1.9 1.9.5 2.3l-14.4 6c-2.8 1.4-6 .9-8.8-.5l-8.3-4.6c-1.5-.4-1-2.7.9-2.7zm151.1-291.1s29.2 176.2 16.2 172c-3.2-.9-5.6-4.6-6.5-7.9-4.1-11.1-9.7-51.5-9.7-164.1zm-274.5 0s-29.2 176.2-16.2 172c3.2-.9 5.6-4.6 6.5-7.9 4.2-11.1 9.7-51.5 9.7-164.1z"/><path class="st41" d="M363.2 322.7s-48.7-7.9-82.1-45c0 0-8.3-8.3-21.3-7.9-8.3.5-16.2 4.2-21.8 10.7-7.9 8.8-25.5 25.5-81.1 41.7 0 0 14.8 17.6 106.2 23.6-1 0 71.8 6.5 100.1-23.1z"/><path class="st43" d="M288.1 325.4s19 10.2 32.9 8.3c0 0 26-7.4 28.3-8.3 0 0 8.3-1.4-16.2-10.7l26.9 7.4v6l-45 14.4-26.9-17.1zm-53.3-.4-5.6 9.7c-.5.9 0 2.3 1.4 2.8 7.4 1.4 29.7 4.6 59.8.9 1.4 0 2.3-1.9 1.4-2.8-1.4-1.9-4.2-5.6-7.9-12.1l20.4 13.9-5.1 7.9-39.4.9-42.7-4.2-1.4-5.1 19.1-11.9z"/><path class="st43" d="M225 329.6s-15.8 6.5-27.8 2.3l-22.3-6.5s-1.4-.9 1.9-2.8c4.2-1.9 7.9-4.2 11.6-6.5 1.9-1.4 4.6-3.2 7.9-5.1l-9.7 1.4-27.4 11.6 7 3.7 19 7 16.7 4.2H214l11-9.3zm71.9-22.7s-5.6-7.4-3.7-9.7c0 0 .9-3.7 12.5 2.8l-20.4-16.7-4.6 5.6 14.4 20.4 1.8-2.4zM226 306s5.6-8.3 3.7-10.7c0 0 0-3.7-11.6 2.8l19.5-16.7 4.6 5.6-14.4 20.4-1.8-1.4zm21.8-23.7s1.4-8.3 13.9-8.3c0 0 10.2.5 12.5 8.8l1.4-12.1-14.4-5.6-13 3.2-4.6 8.3 4.2 5.7z"/><path d="M321 274s15.3-1.4 23.6-15.3c0 0-21.8 16.7-40.3 4.2-1.4-.9-3.7-.5-4.6.9s-.5 2.8.9 4.2c3.7 2.7 11.1 6.9 20.4 6zm-120.1 1.8c9.7 0 16.7-4.6 19.9-7.4.9-.9 1.4-2.8.5-4.2-.9-1.4-3.2-1.9-4.6-.9-17.6 13.4-40.3-1.9-40.3-1.9 8.8 14 24.5 14.4 24.5 14.4z" style="fill:#093142"/><path d="M468 361.1c-7.4-1.9-18.1-13-27.8-55.2-6-25.5-29.7-179-29.7-179-5.1-26.4-21.3-45-49.6-57-5.6-2.3-23.6-7.4-23.6-7.4-56.6-12.1-99.2-8.8-149.7.5 0 0-24.1 5.6-32.5 9.3-24.6 11.6-38 28.7-42.7 54.2l-15.3 97.4C80.4 342.1 68.8 355.1 54.9 360.7l-4.6 1.4 4.2 2.3c.5.5 14.8 7 34.3 5.6 11.6-.9 22.7-4.6 32.9-10.7 8.3-5.1 16.2-11.6 23.2-19.9 3.7-4.2 10.7-3.2 13 1.9 4.6 9.7 11.1 22.7 13.4 26.4 18.5 30.6 41.7 55.2 68.1 71.9 10.7 7 18.1 10.2 19 10.2l.5.5.9-.5c42.2-16.7 81.1-69.5 85.3-75.6 8.3-13 14.4-25 18.1-33.8 2.3-5.6 9.7-6.5 13.4-1.9 7.4 8.8 15.3 15.8 24.1 20.9 10.2 6 21.3 9.7 32.9 10.7 1.9 0 3.7.5 5.6.5 16.7 0 28.3-5.6 28.7-6l4.2-2.3-4.1-1.2zM167.1 75.6C197.2 65.4 237.6 63.5 257 63c0 0 54.2-3.7 98.3 13.4 18.1 8.8 9.3 26.9 8.3 28.3-6 8.8-11.1 21.3-10.7 37.1H170.8c.5-15.8-5.1-28.3-10.7-37.1-.4-.9-11.6-21.7 7-29.1zm-53.8 280.9c-.5.5-.9.9-1.9.9-23.2 14.8-45 7.9-50.5 5.6-.5 0-.5-.9 0-.9 1.4-.9 2.8-1.9 3.7-3.2 7.4-6.5 22.3-27.4 32.5-93.6 0 0 11.6-75.1 20.4-126.6 1.9-11.1 4.6-19.9 7.9-26.9 6-13.9 25.5-14.4 32.5-1.4 1.9 3.2 2.8 6.5 4.2 9.7 2.8 9.7 2.3 17.2 1.9 20.9v.5h-15.8c-11.1 0-19.9 8.8-19.9 19.9V199c0 7 3.7 13.4 9.7 16.7V244c0 15.3 1.4 30.1 4.2 45 4.5 26.2-6.6 53.1-28.9 67.5zm185 61.2c-11.1 10.2-23.6 19.9-37.6 27.4-.9.5-2.3.5-3.7 0-13-7-24.6-15.8-35.2-25-2.3-1.9-.5-5.6 2.3-5.1 15.3 2.3 42.7 4.2 71.4-1.9 3.3-1 5.1 2.8 2.8 4.6zm26.4-29.2c-5.6 7-12.5 12.1-20.9 14.8-1.4.5-3.2.9-5.1 1.4-15.3 4.6-39.4 8.8-72.3 5.6-10.7-.9-20.4-6-26.9-14.4-7.9-9.3-14.4-18.5-19-26.4-2.8-4.6 1.4-10.2 6.5-8.8 35.2 10.7 65.8 15.3 89.9 17.2 7.4.5 15.3.9 23.2.9 6.5 0 13-.5 19-.9 5.6.9 8.9 6.4 5.6 10.6zm27.8-42.2s-4.2 8.8-12.5 20.9c-2.3 3.7-6.5 6.5-11.1 7-39.4 5.1-79.7-1.9-108-8.8-23.6-6-43.1-11.1-51.9-16.7-4.2-2.8-5.1-7.4-5.6-8.8-.9-4.6 2.3-9.3 6.5-7.4 27.8 9.3 102 29.2 174.8 5.6 5.5-1.5 10.1 3.6 7.8 8.2zm4.7-19.9c-11.6 5.1-26 9.3-32.9 11.1-3.2.9-7 .9-10.2 0-6.5-1.4-17.6-5.6-32.5-16.7 0 0 6.5 10.7 18.1 16.7 1.9.9 1.4 4.2-.9 4.6-2.8.5-5.1.5-7.9.9-21.8 2.3-31.1 1.4-61.2-1.4 0 0-3.2-.5-6-.9-2.3-.5-2.8-3.2-.9-4.6 10.2-6.5 16.2-15.8 16.2-15.8-11.6 8.3-20.9 13-27.4 15.3-3.7 1.4-7.9 1.4-11.6.5-9.7-2.3-22.3-6-30.6-8.8-2.8-.9-2.3-4.6 0-5.1 12.5-3.7 34.8-13 66.8-37.1 1.9-1.4 4.6.5 3.7 2.8-11.6 26-49.6 39.9-49.6 39.9 45.9-13.4 56.6-35.7 58.9-47.3 1.4-6 6.5-10.2 12.5-10.2h.9c6 .5 10.7 4.6 11.6 10.2 2.3 11.6 13 33.8 58.9 47.3 0 0-37.1-13.9-49.1-38.9-.9-2.3 1.9-4.6 3.7-2.8 15.3 12.1 44 32 69.5 36.2 1.4-.1 1.8 3.1 0 4.1zm7.4-10.2c-7.9-1.9-49.6-12.1-85.3-46.4 0 0-14.8-13.4-34.3-1.4 0 0-55.6 46.4-89.5 49.1-12.5-40.8-11.1-83-10.7-96 0-1.4 1.4-2.8 3.2-2.8h223.5c1.9 0 3.2 1.4 3.2 2.8.5 13.1 1.9 54.3-10.1 94.7zm8.8-107.1h-229s-7.4.5-11.1-9.7c-.9-2.8-1.4-6-1.4-8.8v-24.1c0-2.3.5-4.2.9-6 1.4-4.2 5.1-9.7 13.4-9.7h229s7.4-.5 11.1 9.7c.9 2.8 1.4 5.6 1.4 8.8v24.6c.1-.1.1 15.2-14.3 15.2zM461.9 363c-27.8 5.6-44.5-2.3-52.4-7.4-.5-.5-.9-.9-1.9-.9-22.7-14.4-34.3-41.3-29.7-67.2 2.3-12.5 3.7-26.9 3.2-41.3v-29.7c5.6-3.2 9.3-9.7 9.3-16.7v-38.5c0-11.1-7.4-19.9-19.9-19.9h-11.1c-.5-2.8-.9-8.8.5-16.7.5-3.2 1.9-7.4 3.7-11.6 6.5-14.4 26.9-13.9 32.9 0 2.8 7 5.6 15.3 7.4 26 8.8 51.5 20.4 126.6 20.4 126.6 13.4 77.9 28.7 92.7 36.6 95.5 1.5.4 1.5 1.3 1 1.8z" style="fill:#003346"/><path d="M322.4 236.4s19-4.2 33.4 11.1c.5.5.5.9.9 1.4.9 1.4 3.2 5.6-.5 7.9-2.3 1.4-5.6.9-7.4-1.4-2.8-3.7-10.2-9.7-26-12.1-2.3-.5-3.7-2.8-2.8-4.6.5-.9 1-1.8 2.4-2.3zm-126.1 0s-19-4.2-33.4 11.1c-.5.5-.5.9-.9 1.4-.9 1.4-3.2 5.6.5 7.9 2.3 1.4 5.6.9 7.4-1.4 2.8-3.7 10.2-9.7 26-12.1 2.3-.5 3.7-2.8 2.8-4.6-.1-.9-1-1.8-2.4-2.3z" style="fill:#d1d1d1"/><path class="st44" d="M254.7 282.3c-4.6 5.6-1.9 13.9-4.2 21.3-1.9 6 .9 13 7.4 13.9h1.8c7.4.9 13.4-5.6 12.1-13L269 286c-1.3-5.5-11.5-7.4-14.3-3.7z"/><path d="m232 169.2-5.6-8.8c-.9-1.4-2.8-1.4-3.7 0L200 199.8c-.9 1.4.5 3.2 1.9 3.2h11.6c2.3 0 4.6-1.4 5.6-3.2l13-21.8c1.7-2.8 1.3-6-.1-8.8zm9.3 16.7c-.9-1.4-3.2-1.4-4.2 0l-8.3 13.9c-.9 1.4.5 3.2 1.9 3.2h16.2c1.9 0 2.8-1.9 1.9-3.2l-7.5-13.9zm14.8-25c-1.4-2.3-3.7-3.2-6-3.2h-11.6c-1.9 0-2.8 1.9-1.9 3.2l22.3 39.9c.9 1.4 3.2 1.4 4.2 0l6-10.2c.9-1.9.9-4.6 0-6.5l-13-23.2zm18.1 14.3c.9 1.4 2.8 1.4 3.7 0l7.9-14.4c.9-1.4-.5-3.2-1.9-3.2h-16.2c-1.9 0-2.8 1.9-1.9 3.2l8.4 14.4zm31.5-4.6-6-10.7c-.9-1.4-2.8-1.4-3.7 0l-22.7 39.9c-.9 1.4.5 3.2 1.9 3.2h11.6c2.3 0 4.6-1.4 6-3.2l13-22.7c1.3-1.9 1.3-4.6-.1-6.5zm16.7 29.2-8.3-14.4c-.9-1.4-2.8-1.4-3.7 0l-8.3 13.9c-.9 1.4 0 3.2 1.9 3.2h16.2c2.2.6 3.1-1.3 2.2-2.7z" style="fill:#002941"/><circle cx="617.3" cy="547.5" r="336.3" style="fill:#e74342"/><path class="st50" d="M457.2 720.3h-53.7c-3.6 0-7.3-.5-10.9-1.9-10.8-3.8-15.8-12.8-13-23.9.9-4 2.6-7.6 4.7-11.3 34.8-61.2 69.5-122.3 104.3-183.7 35.5-62.4 70.7-124.6 106.2-187 2.6-4.5 5.6-8.8 9.7-12 8-6.1 17-5.9 24.6.5 3.5 2.9 6.2 6.6 8.5 10.6 17.2 31.5 35.1 62.4 52.8 93.7 4.3 7.6 6.8 16.1 7.6 24.8 1.4 13-.5 25.5-6.4 37.2-3.5 6.9-7.6 13.4-11.5 20.1-38.6 66.9-77 133.6-115.7 200.4-9.9 17-25.2 27.2-44.5 31.3-4 .9-8.2 1.2-12.3 1.2h-50.4zM756.2 720.3H682c-4.2 0-8.2-.7-12-2.1-9.9-3.8-14.7-12.8-12.3-23.6.9-4.2 2.6-7.8 4.7-11.5 24.3-42.1 48.9-84.2 73.1-126.3 2.3-4 5-7.6 8.5-10.6 8-6.8 17.7-6.6 25.7 0 3.5 2.9 6.2 6.6 8.5 10.6 23.9 42.3 48 84.3 72.1 126.5 2.6 4.5 4.7 9 5 14.2.7 10.2-4.2 17.5-13.9 20.8-4.3 1.4-8.7 1.7-13.2 1.7-23.8.3-47.9.3-72 .3z"/></svg>