<svg version="1.1" id="Primary_Logo" xmlns="http://www.w3.org/2000/svg" x="0" y="0" viewBox="0 0 953.7 883.8" style="enable-background:new 0 0 953.7 883.8" xml:space="preserve"><style>.st25{fill:#fff}.st50{fill:#bee0da}.st51{fill:#4e5271}.st52{fill:#001912}.st54{fill:#336}.st55{fill:#5bc4f1}</style><g style="opacity:.3"><circle cx="139.4" cy="744.5" r="139.4" style="fill:#f36c21"/><path class="st25" d="M159.9 647.7c.9.4 1.9.4 2.9.5 5.2.9 10.2 2.3 15.1 4.2 8.5 3.2 16.1 8 23 13.9 7.3 6.3 13.6 13.6 18.8 21.9.9 1.5 1.8 3.1 2.7 4.8-3 1.1-5.9 1.5-9 1.6-6.6.1-12.8-1.7-18.9-4-2-.8-4-1.8-6-2.5-5.4-2-11-3.2-17.1-3.1.4-.3.6-.5.9-.6 4.3-3.1 8.4-6.6 11.7-10.8 1.7-2.2 3.1-4.4 4.2-6.9.5-1.2.3-2.1-.7-3-3.6-3.1-7.9-4.2-12.5-4.1-5.6.1-10.9 1.7-16 3.8-.4.1-.8.3-1.2.5-.1-.3.1-.5.1-.7 1.2-3.2 1.9-6.4 1.9-9.7 0-1.9-.1-3.7-.5-5.5.2-.3.4-.3.6-.3zm-25.7 193.6c.1-.4.5-.1.7-.1h7.2c.2 0 .4-.1.6-.1 0 .2.4 0 .3.3-3-.1-5.9-.1-8.8-.1z"/><path class="st25" d="M117.6 651.8c.4 3.6.7 7.1 1.1 10.6 0 .3 0 .6.3.7.4.1.6-.2.8-.4 2.6-2.8 5.3-5.5 8.4-7.7 5.3-3.7 11-6.2 17.4-7 3-.4 5.9-.4 8.9-.1.4.1.6.2.6.6 1.2 7.2-.5 13.6-5 19.3-1.9 2.4-4 4.7-5.9 7-.1.1-.2.2-.3.4-.1.1-.1.2-.1.3.1.1.2.1.3.1l.6-.3c5-2.6 9.7-5.4 14.9-7.6 4-1.7 8.1-3.2 12.5-3.7 3.6-.4 7.1-.4 10.4 1.4 1.1.6 1.1.6.5 1.6-1.7 3-3.9 5.5-6.3 7.9-6.3 6-13.5 10.4-21.3 13.9-.4.2-1.2.2-1.1.8s.8.4 1.2.6c4.2 1.1 8.5 2.2 12.5 3.9 3.9 1.7 7.5 3.8 10.5 6.8.9.9 1.7 1.8 2.2 2.9-2.2.9-4.5 1.7-6.9 2.1-7.8 1.4-15.1-.1-22.3-3.2-3.5-1.5-6.4-3.7-9.4-5.8-.4-.3-.9-.6-1.3-.9-.2-.1-.4-.5-.7-.3-.2.2.1.5.1.7 2.2 5 4.3 10.1 6.5 15.1 2.5 6 5.3 11.9 7.4 18.1.1.1.1.4.2.7-1.1-.6-2.1-1.1-3-1.7-9.2-5.8-16.9-13.1-22.5-22.5-.6-1.1-1.3-2.3-1.9-3.4-.5-.9-.9-1-1.7-.4-6.6 5.2-13.1 10.4-19.6 15.6-4.5 3.6-9.3 7-14.1 10.4-1.9 1.4-4.2 1.5-6.6 1.4-.9-.1-1.7-.2-2.4-.5-1.4-.5-2-1.4-1.7-2.9.1-.5.2-1 .5-1.4 3.5-5.3 5.1-11.2 6.6-17.3 1.2-5 2-10 2.6-15.1.4-4.3 1.1-8.6 2.4-12.7 2-6.6 5.4-12.3 10.1-17.3 4-4.2 8.7-7.6 14-10 .2-.4.3-.5.6-.7zm-16.9 37.1c0-1.7-1.2-2.9-3-2.9-1.7 0-2.8 1.2-2.9 2.9 0 1.6 1.3 3 2.9 3 1.8.1 3-1.2 3-3zm9.8 0c0 1.7 1.3 3 2.9 3 1.7 0 3-1.3 3-3s-1.4-2.9-3-2.8c-1.7 0-2.9 1.2-2.9 2.8z"/><path class="st25" d="M156.5 756.6c-1.1-.4-2.1-.9-3.1-1.4-2.7-1.4-5.3-3-8-4-3.9-1.5-7.9-2.2-12.1-1.9-2.3.1-4.6.4-6.9.9-.4.1-.6 0-.7-.4-.4-1.1-1.1-2.1-1.8-3-.3-.4-.5-.4-.9-.2-3.6 1.8-7.2 3.5-10.9 5-8.4 3.2-16.9 5.9-25.6 7.5-1.4.3-2.9.4-4.3.4-1.2-.1-2.2-.7-2.4-1.7-.3-1.2.2-2.2 1.4-2.9 1.4-.6 2.8-1 4.2-1.6 3.7-1.4 7-3.5 9.9-6.1 5.1-4.7 8.8-10.4 12.2-16.3 1.9-3.4 3.5-6.9 5.4-10.2 2.2-3.9 5.3-6.9 8.6-9.7 1.1-.9 2.2-1.7 3.2-2.6.3-.3.5-.3.7.1 4.6 7.1 10.2 13.3 16.6 18.7 4.1 3.4 8.5 6.2 13.3 8.4.5.2.8.6 1 1.2.8 2.8 1.1 5.7 1.2 8.6.1 3.7-.1 7.4-.8 11.1-.1-.2-.2-.1-.2.1zm11.8-67.2c4-.4 7.8-.1 11.5.6 3.8.7 7.4 2 10.9 3.7 1.1.5 1.9 1.3 2.8 2.1 6.2 5.3 9.9 12.2 11.7 20.1.8 3.5 1.2 7.1 1.3 10.7 0 .4-.1.5-.4.6-6.6 3.8-13.4 6.7-20.9 8-4.7.9-9.4 1-14.1.4-3.7-.5-7.4-1.4-10.9-2.8-.3-.1-.6-.2-.7-.6-1.5-6.3-4.3-12-6.8-17.9-1.1-2.6-2.2-5.1-3.2-7.6.3-.1.4.1.6.1 4.5 2 9.1 3.4 14 3.8 7.2.7 14.1-.6 20.6-3.8 1.2-.6 1.5-1.4 1.1-2.7-.9-2.5-2.5-4.7-4.5-6.6-3.4-3.3-7.4-5.7-11.7-7.6-.4-.2-.8-.3-1.3-.5z"/><path class="st25" d="M111.9 791.9c-1.5.1-2.5-.5-3.1-1.8-3.5-7.3-7.1-14.7-10.5-22.1-.9-1.9-1.7-3.7-2.2-5.7-.3-1.2-.1-1.7.9-2.3 2.1-1.4 4.4-1.4 6.6-.6 3.2 1.1 5.9 3 8.4 5.3.5.4.9 1.3 1.5 1.2.4-.1.7-1 1-1.6 3.5-6.1 8.8-9.7 15.7-10.9 5.2-.9 10.1.1 14.8 2.2 2.3 1.1 4.5 2.3 6.7 3.5 1 .5 2 1.1 3.1 1.4.3.1.4.2.3.6-1.4 3.2-2.7 6.4-4.3 9.4-2.9 5.1-6.9 9.1-11.8 12.2-6.8 4.3-14.3 7-22.3 8.4-.9.1-1.7.3-2.5.4-.8.2-1.6.5-2.3.4zm94.8-60.1c.1 2.1.1 4 .1 6-.1 4.7-.4 9.4-1.6 13.9-1.9 6.7-6 10.3-12.9 11.5-5.6.9-11.2.3-16.7-.8-4.4-.9-8.6-2.2-12.9-3.5-.4-.1-.6-.4-.6-.8-.5-3.5-.4-7.1-.4-10.7-.1-3.2-.2-6.4-1-9.6 0-.1 0-.1.1-.2 16.2 5.3 31.4 2.2 45.9-5.8zm3.7 15c1.1 2.3 2.2 4.5 3.7 6.4 3.6 4.9 8.4 7.9 14.5 8.8 1.2.1 2.3.3 3.5.2.5 0 .6.1.5.6-1.2 6.1-3 12.1-5.3 17.9-2.3 5.8-5.3 11.4-8.6 16.6-.2.4-.4.4-.8.3-2.3-.7-4.2-2-5.6-4-2.2-2.8-3.2-6-3.9-9.5-1-5-1.2-10-.9-15.1.1-3.5.4-6.9.9-10.3.4-2.4.9-4.8 1.4-7.2.2-1.4.4-3 .6-4.7zm-47.5 16.7c1.6.4 3 .9 4.5 1.3 5.4 1.5 10.8 2.7 16.4 3 5.2.4 10.3 0 15.1-2.1 1.1-.5 2-1.2 3.2-1.8-.5 1.8-1 3.5-1.7 5-2.1 5.6-4.8 10.9-8.5 15.6-2.9 3.7-6.3 6.8-10.4 8.9-3 1.5-5.5 1.1-8-1.2s-4-5.3-5.3-8.4c-2.3-5.5-3.7-11.2-4.8-17-.1-.9-.3-2-.5-3.3zm-25.5 55.4c-1.2 1.1-2.4 2.1-3.4 3.2-3.3 3.6-5.9 7.6-7.1 12.5-.4 1.7-.8 3.5-.7 5.3 0 .4-.1.5-.5.5-5.4-.7-10.7-1.9-15.8-3.5-6.6-2-13-4.8-18.9-8.2-1.7-.9-3.2-1.9-4.9-3 1.3-1.2 2.7-2.3 4.1-3.2 4.5-2.8 9.6-4.4 14.9-5 3.7-.5 7.6-.6 11.4-.1 2.7.4 5.4.8 8.1 1 4 .4 8.1.5 12.2.3h.5s0 .1.1.2zm52.3-25.5c-.6 1.9-1.2 3.7-1.6 5.5-.7 3.1-1.2 6.3-1.2 9.4 0 3.3.6 6.6 2.2 9.5 1.1 2 2.5 3.7 4.4 5 .4.4.5.5 0 .9-8.1 5.7-16.9 10-26.4 13.1-.3.1-.5.3-.7-.2-1.7-3.6-2.9-7.4-2.8-11.5.1-4.3 1.4-8.3 3.5-12 3.1-5.2 7.3-9.3 12.2-12.7 3.3-2.3 6.8-4.3 10-6.8 0-.1.2-.1.4-.2zM142.6 841c-.2.1-.4.1-.6.1h-7.2c-1.2-.2-2.3-.2-3.5-.3-.6 0-.9-.2-.9-.9 0-3.6 1.2-6.8 3-9.9 3.2-5.3 7.8-9.4 13-12.7 5.1-3.2 10.6-5.6 16.1-8.1.8-.4 1.6-.7 2.4-1-.7 1.2-1.4 2.2-2.1 3.4-2.7 4.8-4.2 9.9-3.8 15.5.2 3.5 1.1 6.8 2.6 10 .5 1 .4 1-.6 1.2-5.9 1.6-12.1 2.5-18.4 2.7z"/><path class="st25" d="M210.4 719.1c2.4 2.7 4.9 5 7.8 6.9 3.7 2.3 7.7 3.7 12.2 3.4.8-.1 1.7-.1 2.4-.3.4-.1.4.1.4.4.1 1.8.4 3.6.5 5.4.4 4.8.4 9.5.3 14.3-.1 2.7-.3 5.5-.6 8.2-.1.4-.1.5-.5.5-3.8.1-7.4-.6-10.6-2.7-2.7-1.9-4.8-4.3-6.3-7.2-2.4-4.3-3.6-9-4.3-13.8-.6-3.4-.5-6.8-.7-10.2-.1-1.3-.2-2.6-.4-3.9-.2-.3-.2-.6-.2-1zm-7.4 55.6c.1 1.7.2 3.2.4 4.8.6 5.5 1.6 10.8 4.6 15.6 1.9 2.9 4.3 5.1 7.6 6.4.1.1.2.1.4.1-1.3 1.9-2.7 3.5-4.1 5.3-4.1 4.8-8.6 9.3-13.6 13.2-.4.3-.6.3-.9.1-3.3-2-5-5-5.5-8.8-.7-5.3.4-10.4 1.9-15.4 1.5-4.7 3.5-9.2 5.8-13.5 1.2-2.2 2.3-4.5 3.3-6.8-.2-.4-.2-.6.1-1zm-54.3 6.1c-.5 1.9-.9 3.8-1.3 5.8-.9 4.4-1.4 8.9-1.1 13.3.3 3.7 1.1 7.2 3.5 10.2.3.4.2.5-.1.6-3 1.5-6 2.5-9.3 3.1-4.8.9-9.7.7-14.5.4-1.2-.1-2.4-.2-3.6-.4-.4 0-.6-.1-.5-.6.4-4.1 2.1-7.6 4.2-11 3.3-5 7.6-9.2 12.3-12.9 3.5-2.7 6.9-5.3 10-8.4.1-.1.2-.1.4-.1zm-21.9 13c-.1.4-.4.6-.6.9-3.1 3.7-5.8 7.8-7.4 12.5-.6 1.7-1 3.5-1.2 5.3-.1.6-.3.6-.7.5-4-.7-7.9-1.6-11.8-2.7-3.6-1-7.1-2.3-10.4-4-3.5-1.7-6.1-4.4-8.4-7.5-2-2.8-3.7-5.8-5.3-8.9 0-.1 0-.1-.1-.2.2-.1.4.1.5.1 5.3 2.6 10.8 4.5 16.6 5.5 4.9.9 9.9 1.1 14.8.9 4.6-.2 9.1-1.1 13.5-2.3.2-.1.3-.1.5-.1zm-44.7 6.8c-1.6-.4-3-.6-4.5-.8-5.3-.4-10.1.6-14 4.4-.4.4-.5.4-.9 0-6.1-7.9-10.9-16.6-14.5-25.9-.2-.5-.1-.6.4-.7 8.9-1.2 16.9.9 23.3 7.3 2 1.9 3.7 4.2 4.9 6.7 1.4 2.9 3 5.8 4.8 8.4.3.2.4.4.5.6zm119.3-103.3c2.1.5 4 .9 6 1.2 5.1.6 10.2.6 15.2-.9.1-.1.3-.1.5-.1 1.3-.4 1.3-.4 1.9.9 1.6 3.7 3 7.3 4.2 11.2 1.4 4.8 2.7 9.8 3.4 14.8.1.4 0 .6-.4.6-4.4.9-8.3-.4-11.9-2.7-4.2-2.8-7.3-6.5-10.2-10.6-1.6-2.3-2.9-4.7-4.1-7.1-1.1-2.2-2.4-4.2-4-6.3-.3-.5-.4-.7-.6-1zm-42.7 67.4c.5 3.4 1.2 6.6 1.9 9.8 1.4 5.5 3.1 10.9 5.9 15.8 1.6 2.8 3.6 5.3 6.4 7.1.2.1.5.3.8.4.2.1.5.2.7.4-.1.3-.4.4-.7.5-6.1 3.5-12.3 6.6-18.7 9.6-.6.3-.9.1-1.2-.3-1.8-1.7-2.5-3.9-3-6.3-.6-3.7-.4-7.3.2-11 1.3-8.7 4-17 7.2-25.1.2-.3.3-.5.5-.9zm-57.8 48.9c-2.7.6-5.4 1.4-7.9 2.4-3.7 1.6-7.1 3.7-10 6.5-.4.4-.6.4-1.2.1-4.8-3.6-9.2-7.5-13.3-11.9-.7-.8-1.4-1.7-2.2-2.4-.4-.4-.2-.5.1-.8 1.9-1.9 4.2-3 6.8-3.2 3.6-.4 7.1.3 10.5 1.5 2.5.9 4.8 2.1 7.1 3.4 2.9 1.7 6 3.1 9.1 4 .4.1.7.1 1 .4zm-39.2-39.7c-1.2-.1-2.4-.4-3.6-.6-2.7-.4-5.5-.4-8.3-.1-.9.1-1.8.2-2.7.4-.4.1-.5-.1-.6-.4-.9-2.7-1.6-5.5-2.2-8.4-1.2-5.9-1.9-11.8-1.9-17.8 0-.9 0-.9.8-.6 1.9.6 3.4 1.9 4.7 3.5 1.8 2.2 3 4.8 3.9 7.6 1.7 4.8 4.2 9 7.1 13 1 1 1.8 2.2 2.8 3.4zm-16-52.7c1.2 1 1.7 2.4 2.1 3.8.4 1.7.1 3.2 0 4.9-.4 3.5-.4 7 .1 10.4.1 1.2.3 2.3.5 3.6-1.7-1.3-3.5-2.1-5.4-2.3-.3-.1-.4-.2-.4-.5.3-6.6 1.2-13.3 3.1-19.9zm16 52.7zm65.1 19.9c.1 0 0 0 0 0z"/></g><circle cx="261.2" cy="252.2" r="252.2" style="fill:#e74342"/><path d="M141.2 381.7h-40.3c-2.7 0-5.5-.4-8.2-1.4-8.1-2.9-11.9-9.6-9.8-18 .7-3 2-5.7 3.5-8.5 26.1-45.9 52.1-91.8 78.2-137.8 26.6-46.8 53-93.4 79.6-140.2 2-3.4 4.2-6.6 7.3-9 6-4.6 12.8-4.4 18.5.4 2.6 2.2 4.7 5 6.4 8 12.9 23.6 26.3 46.8 39.6 70.2 3.3 5.7 5.1 12.1 5.7 18.6 1 9.8-.4 19.2-4.8 27.9-2.6 5.2-5.7 10-8.6 15.1-28.9 50.2-57.7 100.2-86.8 150.3-7.4 12.8-18.9 20.3-33.4 23.5-3 .7-6.1.9-9.3.9h-37.6zm224.1 0h-55.7c-3.1 0-6.1-.5-9-1.6-7.4-2.9-11.1-9.6-9.3-17.7.7-3.1 2-5.9 3.5-8.6 18.2-31.5 36.6-63.1 54.9-94.8 1.7-3 3.8-5.7 6.4-8 6-5.1 13.3-5 19.3 0 2.6 2.2 4.7 5 6.4 8 18 31.7 36 63.2 54.1 94.9 2 3.4 3.5 6.8 3.8 10.7.5 7.7-3.1 13.2-10.4 15.6-3.3 1-6.5 1.3-9.9 1.3-18 .2-35.9.2-54.1.2z" style="fill:#f7fcfe"/><g id="Camada_2"><g id="Camada_1-2"><path d="M155.1 104.4h900.5v900.5H155.1z" style="fill:none"/><path class="st50" d="M501.3 268.5c-4.8 2.3-81-120.2-112.6-81S338 389.6 338 389.6l163.3-121.1z"/><path class="st51" d="M481.3 302.8c-3.1 0-50.7-76.8-72-51.8s-32.4 128.3-32.4 128.3l104.4-76.5zm247.6-21.1c4.5 2 75.7-112.6 107.2-76.5S884 395.7 884 395.7l-155.1-114z"/><path class="st50" d="M747.8 313.8c2.8 0 47.8-72.3 68.1-48.7 20.3 23.6 30.4 120.7 30.4 120.7l-98.5-72z"/><path class="st51" d="M610.7 240.1c-190.8 0-345 144.1-345 321.7s154.2 321.4 345 321.4 345-144.1 345-321.4-153.3-321.7-345-321.7m0 641z"/><path class="st50" d="M683.4 560.3c0-172.2-14.1-313.2-61.9-320h-6.2c-187.1-7.6-347.5 138.2-353.5 314.3S417.7 892.4 621.4 882v-2.5c47.9-7.9 62-147 62-319.2z"/><path class="st50" d="M729.8 585.6c-29.2-13.7-62.9-13.7-92 0l45.9 49.2 46.1-49.2zM796.2 327c-31.9-3.2-63.8 6.2-88.9 26.2l14.4 32.6c20.1-23.2 47.5-38.9 77.7-44.5l-3.2-14.3zm-94.6 28.7 7.3 36h9l-16.3-36z"/><ellipse class="st52" cx="801.3" cy="473.1" rx="110" ry="87.2"/><ellipse class="st52" cx="676.9" cy="700.2" rx="34.6" ry="32.4"/><path class="st52" d="m642.8 594.9 39.4 42.2 38.8-41.6c-25-10.2-53-10.4-78.2-.6z"/><path class="st51" d="M545.2 325.6c31.7-2.9 63.4 6.4 88.4 26.2L619 383.6c-20.1-23.3-47.5-38.9-77.7-44.5l3.9-13.5zm97.1 29.6c0 1.4-16 32.9-16 32.9l5.9 4.5 10.1-37.4z"/><path d="m879.8 650.7-2 4.8c-26.7 63.1-71.3 117-128.3 155.1l-5.9 3.7 48.7 20 7-4.5-40.8-16.9c54.5-37.8 97.4-89.9 124.1-150.6l37.7 33.2c0-2 2-3.9 3.1-6.2l-43.6-38.6z" style="fill:#6bc2c6"/><path class="st54" d="M466.1 810.5c-57-38-101.7-91.9-128.3-155.1l-1.7-4.8-42.5 37.1c-.2 1-.2 2.1 0 3.1l2.3 4.5 36.6-32.1c26.4 60.8 69.3 112.9 123.8 150.6l-39.7 16.6 5.6 3.7h1.4l47.6-19.7-5.1-3.9z"/><path class="st55" d="M811.1 445.2c4.2 6 2.7 14.2-3.3 18.4l-57.3 39.8c-6 4.2-14.2 2.7-18.4-3.3-4.2-6-2.7-14.2 3.3-18.4l57.3-39.8c6-4.2 14.2-2.7 18.4 3.3z"/><path class="st55" d="M807.2 505.1c-4.9 5.4-13.3 5.7-18.7.8l-51.4-47.3c-5.4-4.9-5.7-13.3-.8-18.7 4.9-5.4 13.3-5.7 18.7-.8l51.4 47.3c5.4 4.9 5.7 13.3.8 18.7z"/><ellipse class="st52" cx="539.3" cy="476.2" rx="124.1" ry="98.5"/><path class="st55" d="M542.6 470.3c12.4.6 23-8.7 23.9-21.1 0-3.1-.8-6.2-2.3-9 22.6-5.6 45.5 8.2 51.1 30.8 5.6 22.6-8.2 45.5-30.8 51.1s-45.5-8.2-51.1-30.8c-.8-3.4-1.2-6.8-1.2-10.3.1-4.2.7-8.4 2-12.4 2.7 1.1 5.5 1.7 8.4 1.7z"/><path class="st51" d="M615.3 884.2c-81 0-231-21.1-314.1-164.3-68.2-116.5-53.7-263.6 36-364.4 5.1-31.8 28.1-174.2 61.1-180.4h3.9c30.7-.3 79.4 62.2 90.6 77.4 53.3-14.8 109.2-17.9 163.8-9l-7.3 4.5c-52.5-6.3-105.8-1.7-156.5 13.5h-3.1L488 259c-16-22-61.3-76.5-84.4-76.5H400c-19.7 6.5-44.2 110.3-54.6 175.3-89.5 98.3-104.4 243.5-36.9 358 114 197 358 155.6 360.5 155.1l7.6 5.9c-20.1 4.8-40.7 7.4-61.3 7.4z"/><path class="st54" d="m239.3 525.1 47.9 8.9c5.2 1 8.6 6 7.7 11.2l-.1.3c-1 5.2-6 8.6-11.2 7.7l-47.9-8.9c-5.2-1-8.6-6-7.7-11.2l.1-.3c1-5.3 6-8.7 11.2-7.7zm6.5-34.3 47.9 8.9c5.2 1 8.6 6 7.7 11.2l-.1.3c-1 5.2-6 8.6-11.2 7.7l-47.9-8.9c-5.2-1-8.6-6-7.7-11.2l.1-.3c1-5.2 6-8.6 11.2-7.7z"/></g></g></svg>