<svg version="1.1" id="Primary_Logo" xmlns="http://www.w3.org/2000/svg" x="0" y="0" viewBox="0 0 953.7 883.8" style="enable-background:new 0 0 953.7 883.8" xml:space="preserve"><style>.st0{display:none}.st3{fill:#3c1a26}.st4{fill:#29121a}.st5{fill:#421d2a}.st6{fill:#de6660}.st7{fill:#a24741}.st8{fill:#db5b54}.st9{fill:#bd967f}.st10{fill:#886b59}.st11{fill:#b88d73}.st12{fill:#fff}.st13{fill:#493239}.st14{fill:#caa390}.st15{fill:#c4524c}.st16{fill:#f2716a}.st17{fill:#898989}.st18{fill:#888}.st19{fill:#d6d6d6}.st20{fill:#fdfdfd}.st21{fill:#dcdcdc}.st23{display:inline;fill:none}.st24{fill:#f36c21}.st24,.st25{display:inline}.st28{fill:#8c8c8c}.st33,.st36,.st37{display:inline;fill:#fff}.st36,.st37{fill:#e74342}.st37{fill:#f7fcfe}.st41{fill:#ec3e3f}.st42{opacity:.3}.st44{fill:#5a5564}</style><g style="opacity:.5"><path class="st3" d="m195.2 809.8.1 25.6L156 858l-.1-25.6 39.3-22.6z"/><path class="st4" d="m156 858-69.4-40.3-.1-25.6 69.4 40.3.1 25.6z"/><path class="st5" d="m155.9 832.5-69.4-40.3 39.3-22.7 69.4 40.3-39.3 22.7z"/><path class="st3" d="m150.1 835.6.1 25.6-39.2 22.6-.1-25.6 39.2-22.6z"/><path class="st4" d="m111 883.8-69.4-40.3-.1-25.6 69.4 40.3.1 25.6z"/><path class="st5" d="m110.9 858.2-69.4-40.3 39.3-22.7 69.4 40.3-39.3 22.7z"/><path class="st6" d="m193.9 765.6.1 36.5-95.3 55-.1-36.5 95.3-55z"/><path class="st7" d="M98.7 857.1 4 802.1v-36.5l94.7 55v36.5z"/><path class="st8" d="M98.6 820.6 4 765.6l95.3-55 94.7 55-95.4 55z"/><path class="st9" d="m193.4 692.5.2 73-95.3 55-.2-73 95.3-55z"/><path class="st10" d="m98.3 820.5-94.7-55-.2-73 94.7 55 .2 73z"/><path class="st11" d="m98.1 747.6-94.7-55 95.3-55 94.7 55-95.3 55z"/><path class="st12" d="M145.9 738.8v14.6l-12.7 7.3v14.6L146 768l-25.4 14.7-.1-29.2 25.4-14.7z"/><path class="st13" d="M145.9 753.4V768l-12.7 7.3v-14.6l12.7-7.3z"/><path class="st12" d="M183.3 717.3v14.6l-12.7 7.3v14.6l12.7-7.3-25.4 14.7-.1-29.2 25.5-14.7z"/><path class="st13" d="M183.3 731.9v14.6l-12.7 7.3v-14.6l12.7-7.3z"/><path class="st10" d="m41.3 838.5-.1 21.9-31.7-18.3.1-21.9 31.7 18.3z"/><path class="st9" d="m41.3 838.5 31.6-18.3-.1 21.9-31.6 18.3.1-21.9z"/><path class="st14" d="m9.5 820.2 31.6-18.3 31.8 18.3-31.6 18.3-31.8-18.3z"/><path class="st15" d="m50.8 829.4 31.6-18.3v14.6L50.8 844v-14.6z"/><path class="st16" d="m0 800.1 31.6-18.3 50.8 29.3-31.6 18.3L0 800.1z"/><path class="st7" d="M50.8 829.4V844l-9.5-5.5-31.8-18.3-9.5-5.5v-14.6l50.8 29.3z"/><path class="st8" d="m193.5 659.9.1 36.5-95.3 55-.1-36.5 95.3-55z"/><path class="st7" d="m98.3 751.4-94.7-55-.1-36.5 94.7 55 .1 36.5z"/><path class="st16" d="m98.2 714.9-94.7-55 95.3-55 94.7 55-95.3 55z"/><path class="st8" d="M176.1 724.1c7.9-4.7 16.5-8.2 25.4-10.4v14.6c-8.9 2.2-17.5 5.7-25.4 10.4-9.1 5.4-17.7 11.7-25.4 18.9V743c7.8-7.2 16.3-13.5 25.4-18.9z"/><path class="st7" d="m150.8 757.6-31.5-18.3v-14.6l31.6 18.3-.1 14.6z"/><path class="st16" d="m150.7 743-31.6-18.3c7.7-7.2 16.3-13.6 25.4-18.9 9.1-5.4 25.2-10.7 25.2-10.7l31.8 18.8s-16.3 4.9-25.4 10.3c-9.1 5.3-17.6 11.6-25.4 18.8z"/><path class="st17" d="m180.6 794.8-6.3-3.7-1.7-1.2 6.3 3.7 1.7 1.2zM168.5 808.3l-6.3-3.7-3.3-2.9 6.3 3.7 3.3 2.9z"/><path class="st18" d="m104.6 824.3-6.3-3.7v-2.3l6.3 3.7v2.3z"/><path class="st19" d="M200.5 756.2v12.7l-19.9 25.9-1.7-1.2-10.5 14.7-3.3-2.9-12.5 19.4-12.6-4.9-3.3 6.7-10.6-2.5-1.7 3.1-19.9-2.9v-12.7l96-55.4z"/><path class="st18" d="m104.6 822-6.3-3.7v-10.4l6.3 3.7V822z"/><path class="st20" d="m104.5 811.6-6.3-3.7 95.9-55.4 6.3 3.7-95.9 55.4zM51.1 761.3l6.3-3.7 40.9 50.2-6.3 3.7-40.9-50.2z"/><path class="st20" d="m92 811.5 6.3-3.7 6.3 3.7-6.3 3.7-6.3-3.7z"/><path class="st19" d="m98.3 815.2 6.3-3.7v12.8l-6.3 3.7v-12.8z"/><path class="st17" d="m51.2 731.3-.1 30L92 811.5l6.4 3.7V828L51 799.2l-11.3-6.5-5.6-3.2v-12.9l5.7-21.7.1-30 11.3 6.4z"/><path class="st20" d="m51.2 731.3 6.3-3.7-.1 30-6.3 3.7.1-30z"/><path class="st21" d="m39.9 724.8 6.3-3.7 11.3 6.5-6.3 3.7-11.3-6.5z"/></g><path d="M261.2 504.4c139.8 0 252.2-112.4 252.2-252.2S401 0 261.2 0 9 112.4 9 252.2s112.4 252.2 252.2 252.2z" style="fill:#2775ca"/><path class="st12" d="M330.6 292.1c0-36.8-22.1-49.4-66.2-54.6-31.5-4.2-37.8-12.6-37.8-27.3S237 186 258 186c18.9 0 29.4 6.3 34.7 22.1 1.1 3.2 4.2 5.3 7.4 5.3h16.8c4.2 0 7.4-3.2 7.4-7.4v-1.1c-4.2-23.1-23.1-41-47.3-43.1v-25.2c0-4.2-3.2-7.4-8.4-8.4h-15.8c-4.2 0-7.4 3.2-8.4 8.4v24.2c-31.5 4.2-51.5 25.2-51.5 51.5 0 34.7 21 48.3 65.1 53.6 29.4 5.3 38.9 11.6 38.9 28.4s-14.7 28.4-34.7 28.4c-27.3 0-36.8-11.6-39.9-27.3-1-4.2-4.2-6.3-7.4-6.3H197c-4.2 0-7.4 3.2-7.4 7.4v1.1c4.2 26.3 21 45.2 55.7 50.4v25c0 4.2 3.2 7.4 8.4 8.4h15.8c4.2 0 7.4-3.2 8.4-8.4v-25.2c31.6-5.2 52.7-27.3 52.7-55.7z"/><path class="st12" d="M207.6 402.5c-82-29.4-124-120.8-93.5-201.8 15.8-44.1 50.4-77.8 93.5-93.5 4.2-2.1 6.3-5.3 6.3-10.5V82c0-4.2-2.1-7.4-6.3-8.4-1.1 0-3.2 0-4.2 1-99.8 31.5-154.5 137.7-122.9 237.5 18.9 58.8 64.1 104 122.9 122.9 4.2 2.1 8.4 0 9.5-4.2 1.1-1 1.1-2.1 1.1-4.2v-14.7c-.1-3.1-3.2-7.3-6.4-9.4zM319 74.6c-4.2-2.1-8.4 0-9.5 4.2-1.1 1.1-1.1 2.1-1.1 4.2v14.7c0 4.2 3.2 8.4 6.3 10.5 82 29.4 124 120.8 93.5 201.8-15.8 44.1-50.4 77.8-93.5 93.5-4.2 2.1-6.3 5.3-6.3 10.5v14.7c0 4.2 2.1 7.4 6.3 8.4 1.1 0 3.2 0 4.2-1 99.8-31.5 154.5-137.7 122.9-237.5-18.8-59.9-65-105.1-122.8-124z"/><g><circle cx="617.3" cy="547.5" r="336.3" style="fill:#ffbdbb"/><path class="st3" d="m807.1 679 .2 51.4-79 45.4-.2-51.4 79-45.4z"/><path class="st4" d="m728.3 775.8-139.4-81-.2-51.4 139.4 81 .2 51.4z"/><path class="st5" d="m728.1 724.6-139.4-81 79-45.6 139.4 81-79 45.6z"/><path class="st3" d="m716.4 730.8.2 51.4-78.8 45.4-.2-51.4 78.8-45.4z"/><path class="st4" d="m637.9 827.7-139.4-81-.2-51.4 139.4 81 .2 51.4z"/><path class="st5" d="m637.7 776.2-139.4-81 79-45.6 139.4 81-79 45.6z"/><path class="st6" d="m804.4 590.2.2 73.3L613.2 774l-.2-73.3 191.4-110.5z"/><path class="st7" d="M613.2 774 422.9 663.5v-73.3l190.3 110.5V774z"/><path class="st8" d="M613 700.7 422.9 590.2l191.5-110.5 190.3 110.5L613 700.7z"/><path class="st9" d="m803.4 443.3.4 146.7-191.4 110.5-.4-146.7 191.4-110.5z"/><path class="st10" d="M612.4 700.5 422.1 590l-.4-146.7L612 553.8l.4 146.7z"/><path class="st11" d="M612 554 421.7 443.5 613.2 333l190.3 110.5L612 554z"/><path class="st12" d="M708 536.3v29.3l-25.5 14.7v29.3l25.7-14.7-51 29.5-.2-58.7 51-29.4z"/><path class="st13" d="M708 565.7V595l-25.5 14.7v-29.3l25.5-14.7z"/><path class="st12" d="M783.2 493.2v29.3l-25.5 14.7v29.3l25.5-14.7-51 29.5-.2-58.7 51.2-29.4z"/><path class="st13" d="M783.2 522.5v29.3l-25.5 14.7v-29.3l25.5-14.7z"/><path class="st10" d="m497.9 736.7-.2 44-63.7-36.8.2-44 63.7 36.8z"/><path class="st9" d="m497.9 736.7 63.5-36.8-.2 44-63.5 36.8.2-44z"/><path class="st14" d="m434 699.9 63.5-36.8 63.9 36.8-63.5 36.8-63.9-36.8z"/><path class="st15" d="m516.9 718.4 63.5-36.8v29.3l-63.5 36.8v-29.3z"/><path class="st16" d="m414.9 659.5 63.5-36.8 102.1 58.9-63.5 36.8-102.1-58.9z"/><path class="st7" d="M516.9 718.4v29.3l-19.1-11.1-63.8-36.7-19.1-11.1v-29.3l102 58.9z"/><path class="st8" d="m803.6 377.8.2 73.3-191.4 110.6-.2-73.3 191.4-110.6z"/><path class="st7" d="M612.4 561.7 422.1 451.2l-.2-73.3 190.3 110.5.2 73.3z"/><path class="st16" d="M612.2 488.3 421.9 377.8l191.5-110.5 190.3 110.5-191.5 110.5z"/><path class="st8" d="M768.7 506.8c15.9-9.4 33.2-16.5 51-20.9v29.3c-17.9 4.4-35.2 11.5-51 20.9-18.3 10.8-35.6 23.5-51 38v-29.3c15.6-14.5 32.7-27.1 51-38z"/><path class="st7" d="m717.9 574.1-63.3-36.8V508l63.5 36.8-.2 29.3z"/><path class="st16" d="M717.7 544.8 654.2 508c15.5-14.5 32.7-27.3 51-38 18.3-10.8 50.6-21.5 50.6-21.5l63.9 37.8s-32.7 9.8-51 20.7c-18.3 10.7-35.4 23.3-51 37.8z"/><path class="st17" d="m777.7 648.9-12.7-7.4-3.4-2.4 12.7 7.4 3.4 2.4zM753.4 676l-12.7-7.4-6.6-5.8 12.7 7.4 6.6 5.8z"/><path class="st18" d="m625 708.1-12.7-7.4v-4.6l12.7 7.4v4.6z"/><path class="st19" d="M817.7 571.3v25.5l-40 52-3.4-2.4-21.1 29.6-6.6-5.8-25.1 39-25.3-9.8-6.6 13.5-21.3-5-3.4 6.2-40-5.8v-25.5l192.8-111.5z"/><path class="st18" d="m625 703.5-12.7-7.4v-20.9l12.7 7.4v20.9z"/><path class="st20" d="m624.8 682.6-12.7-7.4 192.7-111.3 12.7 7.4-192.7 111.3zM517.5 581.6l12.7-7.4L612.4 675l-12.7 7.4-82.2-100.8z"/><path class="st20" d="m599.7 682.4 12.7-7.4 12.7 7.4-12.7 7.4-12.7-7.4z"/><path class="st19" d="m612.4 689.8 12.7-7.4v25.7l-12.7 7.4v-25.7z"/><path class="st17" d="m517.7 521.3-.2 60.3 82.2 100.9 12.9 7.4v25.7l-95.2-57.9-22.7-13.1-11.3-6.4v-25.9l11.5-43.6.2-60.3 22.6 12.9z"/><path class="st20" d="m517.7 521.3 12.7-7.4-.2 60.3-12.7 7.4.2-60.3z"/><path class="st21" d="m495 508.2 12.7-7.4 22.7 13.1-12.7 7.4-22.7-13.1z"/></g></svg>