<?xml version="1.0" encoding="utf-8"?>
<!-- Generator: Adobe Illustrator 25.2.1, SVG Export Plug-In . SVG Version: 6.00 Build 0)  -->
<svg version="1.1" id="Layer_1" xmlns="http://www.w3.org/2000/svg" xmlns:xlink="http://www.w3.org/1999/xlink" x="0px" y="0px"
	 viewBox="0 0 953.7 883.8" style="enable-background:new 0 0 953.7 883.8;" xml:space="preserve">
<style type="text/css">
	.st0{display:none;}
	.st1{display:none;fill:#77ED0F;}
	.st2{display:inline;fill:#E74342;}
	.st3{display:inline;fill:#F7FCFE;}
	.st4{fill:#FCFCFE;}
	.st5{fill:#9594F8;}
	.st6{fill:#5754FC;}
	.st7{fill:#9997F1;}
	.st8{fill:#A59CD4;}
	.st9{fill:#FAD657;}
	.st10{fill:#FFFAFA;}
	.st11{fill:#EC3E3F;}
	.st12{fill:#FFFFFF;}
	.st13{opacity:0.3;}
	.st14{opacity:0.3;enable-background:new    ;}
	.st15{opacity:0.5;}
	.st16{fill:#3C1A26;}
	.st17{fill:#29121A;}
	.st18{fill:#421D2A;}
	.st19{fill:#DE6660;}
	.st20{fill:#A24741;}
	.st21{fill:#DB5B54;}
	.st22{fill:#BD967F;}
	.st23{fill:#886B59;}
	.st24{fill:#B88D73;}
	.st25{fill:#493239;}
	.st26{fill:#CAA390;}
	.st27{fill:#C4524C;}
	.st28{fill:#F2716A;}
	.st29{fill:#898989;}
	.st30{fill:#888888;}
	.st31{fill:#D6D6D6;}
	.st32{fill:#FDFDFD;}
	.st33{fill:#DCDCDC;}
	.st34{display:none;opacity:0.3;}
	.st35{display:inline;fill:none;}
	.st36{display:inline;fill:#F36C21;}
	.st37{display:inline;}
	.st38{fill:#FFFFFF;stroke:#000000;stroke-width:15.2223;stroke-miterlimit:10;}
	.st39{fill:#373636;}
	.st40{fill:#8C8C8C;}
	.st41{fill:#191819;}
	.st42{fill:#3B3C3B;}
	.st43{fill:#414140;}
</style>
<circle class="st0" cx="618.1" cy="548.3" r="335.6"/>
<circle class="st1" cx="261.2" cy="252.2" r="252.2"/>
<g class="st0">
	<circle class="st2" cx="261.2" cy="252.2" r="252.2"/>
	<path class="st3" d="M141.2,381.7c-13.4,0-26.8,0-40.3,0c-2.7,0-5.5-0.4-8.2-1.4c-8.1-2.9-11.9-9.6-9.8-18c0.7-3,2-5.7,3.5-8.5
		c26.1-45.9,52.1-91.8,78.2-137.8c26.6-46.8,53-93.4,79.6-140.2c2-3.4,4.2-6.6,7.3-9c6-4.6,12.8-4.4,18.5,0.4c2.6,2.2,4.7,5,6.4,8
		c12.9,23.6,26.3,46.8,39.6,70.2c3.3,5.7,5.1,12.1,5.7,18.6c1,9.8-0.4,19.2-4.8,27.9c-2.6,5.2-5.7,10-8.6,15.1
		c-28.9,50.2-57.7,100.2-86.8,150.3c-7.4,12.8-18.9,20.3-33.4,23.5c-3,0.7-6.1,0.9-9.3,0.9C166.4,381.7,153.8,381.7,141.2,381.7
		L141.2,381.7z"/>
	<path class="st3" d="M365.3,381.7c-18.5,0-37,0-55.7,0c-3.1,0-6.1-0.5-9-1.6c-7.4-2.9-11.1-9.6-9.3-17.7c0.7-3.1,2-5.9,3.5-8.6
		c18.2-31.5,36.6-63.1,54.9-94.8c1.7-3,3.8-5.7,6.4-8c6-5.1,13.3-5,19.3,0c2.6,2.2,4.7,5,6.4,8c18,31.7,36,63.2,54.1,94.9
		c2,3.4,3.5,6.8,3.8,10.7c0.5,7.7-3.1,13.2-10.4,15.6c-3.3,1-6.5,1.3-9.9,1.3C401.4,381.7,383.5,381.7,365.3,381.7L365.3,381.7z"/>
</g>
<g>
	<path class="st4" d="M503.6,327.2c0,50.9-0.1,101.7,0.1,152.6c0,4.8-1.1,5.9-5.9,5.9c-50.9-0.2-101.7-0.1-152.6-0.1
		c-0.1-10.3-0.1-20.6-0.4-30.8c-0.2-5.7,1.8-8.3,7.7-7.9c6.7,0.4,13.5-0.3,20.2,0.2c8.2,0.6,11.9-2.3,11.4-10.9
		c-0.5-7.4,0-14.8-0.1-22.2c-0.1-5.3,2.3-7.6,7.6-7.5c7.4,0.2,14.8-0.3,22.2,0.2c7.8,0.5,11.3-2.3,10.8-10.5
		c-0.5-7.4,0.1-14.8-0.1-22.2c-0.2-5.8,2.4-8.1,8.1-8c7.4,0.2,14.8-0.2,22.2,0.2c7.3,0.4,10.7-2.3,10.3-10
		c-0.4-7.4,0.1-14.8-0.1-22.2c-0.3-6.6,3.4-9.1,8.9-8.1C483.7,327.6,493.7,325.9,503.6,327.2z"/>
	<path class="st5" d="M503.6,327.2c-9.9-1.2-19.9,0.5-29.8-1.4c-5.6-1.1-9.2,1.5-8.9,8.1c0.3,7.4-0.3,14.8,0.1,22.2
		c0.4,7.7-3,10.4-10.3,10c-7.4-0.4-14.8,0.1-22.2-0.2c-5.7-0.2-8.3,2.2-8.1,8c0.2,7.4-0.3,14.8,0.1,22.2c0.5,8.2-3,10.9-10.8,10.5
		c-7.4-0.4-14.8,0-22.2-0.2c-5.3-0.1-7.7,2.2-7.6,7.5c0.1,7.4-0.4,14.8,0.1,22.2c0.6,8.6-3.1,11.5-11.4,10.9
		c-6.7-0.5-13.5,0.2-20.2-0.2c-6-0.3-8,2.2-7.7,7.9c0.4,10.3,0.3,20.6,0.4,30.8c-1.9,0-3.9,0-5.8,0c0-10.3-0.1-20.5,0.2-30.8
		c0.2-5.4-1.2-8.2-7.4-8.1c-49.7,0.3-99.3,0.3-149,0.4c-1.6-0.8-3.2-1.7-4.8-2.5c5.7-11.7,1.2-24.3,3-36.3c4.6,1.6,9.3,2,14.2,2
		c44.4-0.1,88.8-0.1,133.2,0c4.9,0,9.6-0.4,14.2-2c0.1,9,0.4,17.9,0.2,26.9c-0.1,5.7,2.4,8.1,8.1,8c35-0.8,28,5.6,28.8-27.4
		c0-0.6-0.1-1.3,0-1.9c0.7-6-2.2-7.8-7.9-7.6c-9.6,0.4-19.2,0.3-28.8,0.3c2-4.8,5.8-6.3,10.7-6.1c5.7,0.2,11.5-0.1,17.2,0.1
		c6.1,0.3,8.6-2.2,8.7-8.4c0-4.9-1.7-10.2,1.5-14.8c3.3,2.3,2.1,5.8,2.2,8.8c0.3,16.4,0.2,16.4,16.3,16.4c20.6,0,20.7,0,20.5-20.7
		c-0.1-18.5,2.4-16.3-16.4-16c-7.6,0.1-16.1-3.3-22.6,3.9c-7.8-4-16.8,0.4-24.6-3.5c5.6-4.4,12.2-1.7,18.3-2c5.6-0.3,9.4-2.7,8-7.8
		c-2.7-9.4,0.8-18.2,0.9-27.3c12.7,0,25.5,0,38.2,0c0.1,8.7,0.3,17.3,0.3,26c0,3.9,0.5,6.5,5.4,7.2c30.5,4.1,34.5,0.6,33.1-29.5
		c0-0.6,0-1.3,0-1.9c0.2-4.2-2.1-5.7-6-5.5c-9.6,0.4-19.1-0.3-28.6-1.7c-0.1-53.4-0.1-106.7-0.2-160.1c12-1.8,24.6,2.7,36.3-3
		c1.5,1.6,3,3.3,4.5,4.9c-1.9,2.4-2.3,5.1-2.3,8.1c0,46.9,0.1,93.8-0.1,140.7c0,6.1,2.5,7.7,8.1,7.5c10.3-0.3,20.6-0.2,30.8-0.2
		C503.6,323.3,503.6,325.2,503.6,327.2z"/>
	<path class="st6" d="M183.2,447.1c49.7-0.1,99.3-0.1,149-0.4c6.2,0,7.6,2.7,7.4,8.1c-0.3,10.2-0.2,20.5-0.2,30.8
		c-52.2,0-104.3,0-156.5,0C183.1,472.7,183.1,459.9,183.2,447.1z"/>
	<path class="st6" d="M503.6,321.4c-10.3,0-20.6-0.1-30.8,0.2c-5.6,0.2-8.1-1.4-8.1-7.5c0.2-46.9,0.1-93.8,0.1-140.7
		c0-3,0.4-5.8,2.3-8.1c12.2-0.1,24.3-0.2,36.5-0.3C503.6,217,503.6,269.2,503.6,321.4z"/>
	<path class="st7" d="M183.2,447.1c-0.1,12.8-0.2,25.7-0.3,38.5c-1.3,0-2.6,0-3.9,0c-0.3-13.5,2.4-27.2-2-40.5
		c0.4-0.3,0.8-0.5,1.3-0.6C180,445.4,181.6,446.2,183.2,447.1z"/>
	<path class="st7" d="M503.6,164.9c-12.2,0.1-24.4,0.2-36.5,0.3c-1.5-1.6-3-3.3-4.5-4.9c0.1-0.5,0.3-0.9,0.6-1.3
		c13.3,4.6,26.9,1.7,40.4,2C503.6,162.3,503.6,163.6,503.6,164.9z"/>
	<path class="st5" d="M423.1,120.4c0.5-0.3,0.9-0.3,1.3,0c0.7,1.5,1.4,2.9,2.2,4.4c-4.8,12.5-1.4,25.4-2.1,38.1
		c-13.8-6.7-27.9-4.1-42.1-1.8c-0.1-9.9-0.5-19.8-0.4-29.6c0.1-5.3-1.7-7.6-7.2-7.3c-9.8,0.4-19.7,0-29.4-1.5
		c-0.1-9.7-0.1-19.5-0.2-29.2c-0.1-2.9,1.2-6.6-3.2-7.8c-0.4-0.4-0.7-0.9-0.8-1.6c-0.6-1.4-1.2-2.7-1.8-4.1c0-9.2-0.3-18.4,0-27.6
		c0.2-5.5-2.1-7.2-7.4-7.2c-46.6,0.1-93.3,0.1-139.9,0c-5.3,0-7.6,1.7-7.4,7.2c0.3,9.2,0,18.4,0,27.6c-0.6,1.3-1.2,2.7-1.8,4
		c0,0,0.1,0,0.1,0c-6.1,0.1-5.9,4.6-5.9,8.8c0,9.9,0,19.7,0,29.6c-4.1,0.1-8.3,0-12.4,0.2c-8.4,0.6-17.3-2.3-24.8,3.7
		c-9.3,0-18.6,0.4-27.9,0c-6.2-0.3-8.6,1.7-8.3,8.1c0.4,9.9-0.1,19.9-0.2,29.8c-0.4,0.5-0.9,0.7-1.5,0.8c-5.4,0.1-6,3.7-6,7.9
		c0,47.4,0,94.9,0,142.3c0,4.2,0.6,7.9,6,7.9c0.6,0.1,1.1,0.4,1.5,0.8c0.2,1.9,0.4,4.5,2.6,4.6c9.9,0.3,19.9,0.4,29.8,0.1
		c2.7-0.1,3.8-3.2,4.3-5.8c0-52.5,0-105,0-157.5c0.3-2.1-2.9-4.1-0.1-6.2c4,4,4,9.1,4,14.3c0,47.2,0,94.4,0,141.6
		c0,2.8-0.1,5.9-1.1,8.5c-4.3,10.9-2,22.2-2.5,33.4c-0.2,4.8,2.2,7.3,7,7c10-0.7,19.8,1.2,29.6,2c0,6-0.2,12,0,17.9
		c0.3,7.7-2.1,15.8,3.7,22.6c-12.7,0-25.4,0-38.2,0.1c-0.8-0.8-1.7-1.7-2.5-2.5c0.1-10.5,0.1-21.1,0.4-31.6c0.1-4.9-1.8-6.9-6.8-6.8
		c-10.5,0.3-21.1,0.3-31.6,0.4c-0.8-0.8-1.7-1.7-2.5-2.5c0.1-9.9,0.2-19.7,0.3-29.6c0-3.6,0-8.2-4.4-8.2
		c-11.3-0.2-22.9-2.9-33.9,2.1c-0.8-1.6-1.7-3.2-2.5-4.7c0-52.6,0-105.3,0-157.9c0.8-1.6,1.7-3.2,2.5-4.7c9.7,5,20,1.7,30.1,2.6
		c6.3,0.6,8.5-2.8,8.3-8.7c-0.3-9.9-0.3-19.7-0.4-29.6c0.8-0.8,1.7-1.7,2.5-2.5c10.2,0.1,20.5,0,30.7,0.4c5.9,0.2,7.9-2.1,7.7-7.8
		c-0.4-10.2-0.4-20.5-0.6-30.7c0.8-0.9,1.7-1.7,2.5-2.6c10.5,0.2,21.1,0.4,31.6,0.5c3.4,0,6.9-0.2,6.7-4.8
		c-0.5-10.8,2.2-21.7-1.8-32.2c1.3-1.3,2.7-2.6,4-4c52.7,0,105.4,0,158,0c1.3,1.3,2.7,2.6,4,4c-4,10.5-1.3,21.5-1.8,32.2
		c-0.2,4.5,3.4,4.8,6.7,4.7c10.5-0.1,21.1-0.3,31.6-0.5c0.8,0.9,1.7,1.7,2.5,2.6c-0.2,10.6-0.3,21.2-0.5,31.8c0,2.9-0.1,6.5,4,6.4
		C399.5,121.9,411.5,124.6,423.1,120.4z M359.4,115.3c3.2,1,6.3,1.2,8.4,2.8c2.6,1.9,5,3,7.8,1.2c3.2-2.1,3-5.6,2-8.7
		c-1.1-3.8-1.8-7.4-1.2-11.3c2-11.8,2-11.8-10.2-11.8c-1.9,0-3.8-0.1-5.8,0c-1.8,0.1-4.3-0.4-4.6,2.2c-0.3,2,1.5,3.6,3.2,4.3
		c1.7,0.8,3.7,1.2,5.5,1.1c5.5-0.1,7.1,3.4,7.6,7.9c0.5,4.8-1.8,7.9-6.4,9.4C363.8,113.2,361.2,111.8,359.4,115.3z"/>
	<path class="st6" d="M59.2,165.1c0,52.6,0,105.3,0,157.9c-12.7,0-25.3,0-38,0c-0.8-52.6-0.8-105.2,0-157.9
		C33.9,165.2,46.6,165.1,59.2,165.1z"/>
	<path class="st6" d="M341.2,41c-52.7,0-105.4,0-158,0c0-12.6,0.1-25.3,0.1-37.9c52.6-0.8,105.2-0.8,157.8,0
		C341.1,15.7,341.1,28.4,341.2,41z"/>
	<path class="st6" d="M102.2,366c10.5-0.1,21.1-0.1,31.6-0.4c4.9-0.1,6.9,1.8,6.8,6.8c-0.3,10.5-0.3,21.1-0.4,31.6
		c-1.3,0.2-2.6,0.5-3.9,0.7c-9,0-17.9-0.1-26.9,0.1c-5.8,0.2-8.1-2.2-8-8c0.2-9,0.1-17.9,0.1-26.9C101.8,368.6,102,367.3,102.2,366z
		"/>
	<path class="st6" d="M140.1,84c0.2,10.2,0.1,20.5,0.6,30.7c0.3,5.8-1.8,8.1-7.7,7.8c-10.2-0.4-20.5-0.3-30.7-0.4
		c-0.2-1.3-0.5-2.6-0.7-4c0.2-10.8,0.4-21.6,0.6-32.4c1.7,0,3.1-0.5,3.6-2.3c10.2,0,20.4-0.1,30.6-0.1
		C137.6,83.6,138.8,83.8,140.1,84z"/>
	<path class="st6" d="M61.8,327.8c11-5,22.6-2.3,33.9-2.1c4.4,0.1,4.5,4.6,4.4,8.2c-0.1,9.9-0.2,19.7-0.3,29.6
		c-12.1,0.1-24.1,0.1-36.2,0.2c-5-7.2-1.4-15.4-2.3-23c-0.5-3.8-0.1-7.6,0-11.4C61.5,328.8,61.7,328.3,61.8,327.8z"/>
	<path class="st6" d="M99.7,124.7c0.1,9.9,0.1,19.8,0.4,29.6c0.2,5.9-2,9.3-8.3,8.7c-10-0.9-20.4,2.4-30.1-2.6
		c-0.1-0.5-0.3-1-0.6-1.4c0-8.6-0.1-17.2,0-25.8c0-3-0.9-6.5,2.4-8.7C75.6,124.6,87.7,124.6,99.7,124.7z"/>
	<path class="st6" d="M424.5,162.9c0.7-12.7-2.8-25.6,2-38.1c11.4-0.1,22.8-0.2,34.2-0.2c5,7.2,1.4,15.4,2.3,23
		c0.5,3.8,0.1,7.6,0,11.4c-0.3,0.4-0.5,0.8-0.6,1.3c-11.7,5.7-24.3,1.2-36.3,3C425.7,163.1,425.1,162.9,424.5,162.9z"/>
	<path class="st6" d="M423.1,120.4c-11.6,4.2-23.5,1.5-35.3,1.9c-4.1,0.1-4-3.5-4-6.4c0.1-10.6,0.3-21.2,0.5-31.8
		c1.2-0.2,2.5-0.4,3.8-0.6c10.2,0,20.4,0,30.6,0.1c0.5,1.8,1.8,2.4,3.6,2.3C422.5,97.4,422.8,108.9,423.1,120.4z"/>
	<path class="st6" d="M142.8,406.5c12.7,0,25.4,0,38.2-0.1c0.1,0.6,0.2,1.2,0.5,1.7c-1.8,12,2.6,24.6-3,36.3c-0.5,0-0.9,0.2-1.3,0.6
		c-11.1-0.7-22.4,1.9-33.4-1.4C143.4,431.3,143.1,418.9,142.8,406.5z"/>
	<path class="st7" d="M140.1,84c-1.2-0.2-2.5-0.4-3.8-0.6c3.5-5.5,2.6-11.7,2.6-17.7c0-27.1-2-24.5,25-24.5c2.2,0,4.5-0.2,6.7,0
		c6.8,0.6,9.1-2.6,8.8-9.1c-0.3-7.3-0.2-14.7,0-22c0.1-2.7-1.7-6.9,3.7-7.1c0,12.6-0.1,25.3-0.1,37.9c-1.3,1.3-2.7,2.6-4,4
		c-8,0.1-16,0.6-23.9,0c-8.2-0.6-11.6,2.2-11.2,10.8c0.4,8.5,1.3,17.2-1.4,25.6C141.8,82.3,140.9,83.2,140.1,84z"/>
	<path class="st7" d="M388,83.4c-1.3,0.2-2.5,0.4-3.8,0.6c-0.8-0.9-1.7-1.7-2.5-2.6c-0.5-9.5-1.3-19-1.5-28.6
		c-0.1-5.8-2.6-7.9-8.2-7.8c-8.9,0.2-17.9-0.1-26.8-0.1c-1.3-1.3-2.7-2.6-4-4c0-12.6-0.1-25.3-0.1-37.9c4.7-0.1,3.7,3.5,3.8,6.1
		c0.1,7.3,0.4,14.7,0,22c-0.4,7.3,2.1,10.9,9.8,10.1c3.2-0.3,6.4-0.1,9.6-0.1c21.1,0,21.1,0,21.2,21.6C385.4,69.8,384.2,77,388,83.4
		z"/>
	<path class="st7" d="M142.8,406.5c0.3,12.4,0.6,24.7,0.9,37.1c-5.8-0.6-4.5-5.1-4.7-8.8c-0.8-10.1,2.2-20.5-2.6-30.2
		c1.3-0.2,2.6-0.5,3.9-0.7C141.1,404.9,141.9,405.7,142.8,406.5z"/>
	<path class="st7" d="M61.1,159c0.4,0.4,0.6,0.9,0.6,1.4c-0.8,1.6-1.7,3.1-2.5,4.7c-12.7,0-25.3,0-38,0c0.4-6,5-3.4,8-3.7
		C39.8,160.4,50.8,163.5,61.1,159z"/>
	<path class="st7" d="M61.8,327.8c-0.1,0.5-0.3,1-0.6,1.4c-10.4-4.5-21.3-1.4-32-2.5c-2.9-0.3-7.6,2.3-8-3.7c12.7,0,25.3,0,38,0
		C60.1,324.6,60.9,326.2,61.8,327.8z"/>
	<path class="st7" d="M63.5,363.7c12.1,0,24.1-0.1,36.2-0.2c0.8,0.8,1.7,1.7,2.5,2.5c-0.2,1.3-0.5,2.6-0.7,3.9
		c-9.6-5-19.9-1.7-29.8-2.7C68.7,366.9,64.2,369.3,63.5,363.7z"/>
	<path class="st7" d="M99.7,124.7c-12.1-0.1-24.1-0.1-36.2-0.2c0.7-5.7,5.2-3.3,8.2-3.6c9.9-1.1,20.2,2.3,29.8-2.7
		c0.2,1.3,0.5,2.6,0.7,4C101.4,123,100.6,123.8,99.7,124.7z"/>
	<path class="st7" d="M460.8,124.5c-11.4,0.1-22.8,0.2-34.2,0.2c-0.7-1.5-1.4-2.9-2.2-4.4c9.7,0.2,19.5,0.2,29.2,0.6
		C456.4,121,460.4,119.4,460.8,124.5z"/>
	<path class="st7" d="M422.2,85.9c-1.7,0-3.1-0.5-3.6-2.3C422,81,422.3,83.1,422.2,85.9z"/>
	<path class="st7" d="M105.7,83.5c-0.5,1.8-1.8,2.4-3.6,2.3C102.1,83.1,102.3,81,105.7,83.5z"/>
	<path class="st6" d="M345.5,122.6c9.8,1.6,19.6,1.9,29.4,1.5c5.4-0.2,7.3,2,7.2,7.3c-0.1,9.9,0.2,19.7,0.4,29.6
		c-1.9,4.2-2.3,8.5-2.3,13.1c0.1,46.8,0.1,93.5,0,140.3c0,5.3,0.9,10.2,3.9,14.5c-0.1,9.1-3.6,17.9-0.9,27.3c1.5,5.1-2.4,7.6-8,7.8
		c-6.1,0.3-12.6-2.4-18.3,2c-1.3,0-2.5,0-3.8,0c-2-0.1-4-0.1-6-0.2c-2.4-4.1-2-8.7-2-13.1c0-45.6,0-91.2,0-136.8
		c0-14.4,0-14.4-14.3-14.4c-27.2,0-27.1,0-26.3-27.3c0.2-5.7,1.8-8.2,7.8-7.9c7.7,0.4,15.4,0,23.1,0.1c4.2,0.1,8.8-1.2,9-5.4
		c0.6-11.6,2.9-23.4-1.3-34.8c0.2-1.3,0.4-2.6,0.6-3.8l0.9,0.3L345.5,122.6z"/>
	<path class="st8" d="M353.1,366.1c1.3,0,2.5,0,3.8,0c7.8,3.9,16.8-0.4,24.6,3.6c0,2.5,0,5.1,0,7.6c-3.3,4.6-1.5,9.9-1.5,14.8
		c0,6.2-2.6,8.6-8.7,8.4c-5.7-0.3-11.5,0.1-17.2-0.1c-5-0.2-8.7,1.2-10.7,6.1c-0.1,0.6-0.2,1.2-0.5,1.7c-4.6,1.6-9.3,2-14.2,2
		c-44.4-0.1-88.8-0.1-133.2,0c-4.9,0-9.6-0.4-14.2-2c-0.3-0.6-0.4-1.1-0.5-1.7c-5.8-6.8-3.3-15-3.7-22.6c-0.3-6,0-12,0-17.9
		c2.4-4.1,2-8.7,2-13.2c0-45.4,0-90.7,0-136.1c0-15,0-14.8,14.8-15.1c30.9-0.6,25,6,25.8-27.8c0.1-5.4-1.9-7.5-7.3-7.3
		c-7.4,0.3-14.8,0.2-22.2,0.1c-4.3,0-9.9-0.8-10.2-5.4c-0.9-11.6-3-23.4,1.3-34.9c3.9,8.3,1.5,17,1.5,25.5
		c0.1,7.7,2.9,10.4,10.3,9.9c5.8-0.4,11.6-0.1,17.3-0.1c11.6,0.1,12.9,1.3,13,12.6c0,6.4,0.2,12.9-0.1,19.3c-0.2,6.1,2,8.8,8.4,8.7
		c20.2-0.2,40.5-0.2,60.7,0c6.3,0.1,8.7-2.5,8.4-8.6c-0.3-7.1,0.1-14.1-0.1-21.2c-0.3-7.9,3.4-11.1,11.1-10.8
		c5.1,0.2,10.3,0,15.4,0.1c14,0,13.7,0,14.1-13.6c0.2-7.2-2.2-14.7,1.6-21.6c4.2,11.4,1.9,23.2,1.3,34.8c-0.2,4.2-4.8,5.5-9,5.4
		c-7.7-0.1-15.4,0.2-23.1-0.1c-6-0.3-7.6,2.1-7.8,7.9c-0.8,27.3-0.9,27.3,26.3,27.3c14.3,0,14.3,0,14.3,14.4c0,45.6,0,91.2,0,136.8
		c0,4.5-0.5,9,2,13.1c0.3,1.6,0.5,3.2,2.4,3.5C352,369.8,352.7,368.1,353.1,366.1z M261.9,404.4c22.8,0,45.7-0.3,68.5,0.1
		c8.2,0.2,11.6-2.2,11.3-10.9c-0.6-15.1-1.3-30.2-1.4-45.3c-0.1-44.1-1.8-88.1,0.9-132.2c0.4-7-1.8-11.2-9.7-10.9
		c-6.7,0.3-13.5,0.1-20.3,0.1c-4.8-0.1-7.1,2.2-7,7c0.1,7.4-0.3,14.8,0.1,22.2c0.4,8.4-3.4,11.5-11.6,11.3
		c-19.3-0.3-38.6-0.1-57.9-0.1c-14.2,0-14.9-0.7-14.9-14.5c0-26.8,0-26.6-26.7-26.1c-8.3,0.2-11.2,4-10.1,11.4
		c1.1,7.7,1.1,15.4,1.1,23.1c-0.1,50.8,0.4,101.7-1.4,152.5c-0.4,12.1,0.1,12.3,12.5,12.3C217.5,404.4,239.7,404.4,261.9,404.4z
		 M262.6,207c-4.2,0-8.4,0-12.5,0c-26.7,0-26.6,0-25.1,27.2c0.3,5.8,2.6,8,8.2,7.9c19.3-0.1,38.6-0.1,57.9,0c5.6,0,8.4-2.1,8.2-8
		c-0.2-6.1-0.4-12.2,0-18.3c0.5-6.6-1.7-9.3-8.7-9C281.3,207.4,272,207,262.6,207z"/>
	<path class="st8" d="M384,329c-3.1-4.4-3.9-9.2-3.9-14.5c0.1-46.8,0.1-93.5,0-140.3c0-4.6,0.4-8.9,2.3-13.1
		c14.1-2.3,28.3-4.9,42.1,1.8c0.6,0,1.2,0.2,1.7,0.5c0.1,53.4,0.1,106.7,0.2,160.1c-1.3,1.9-4,2.8-4.2,5.5
		C409.5,329,396.8,329,384,329z M422.5,244.1c0-23.1-0.2-46.3,0.1-69.4c0.1-7.6-2.6-10.6-10.1-10.1c-6.4,0.4-12.9,0.4-19.3,0
		c-6.8-0.4-9.2,2.9-9.2,9.2c0,46.9,0,93.9,0,140.8c0,6.3,2.5,9.5,9.3,9.1c6.4-0.4,12.9-0.4,19.3,0c7.6,0.5,10.2-2.6,10.1-10.1
		C422.3,290.4,422.5,267.2,422.5,244.1z"/>
	<path class="st6" d="M422.2,329c0.2-2.8,2.9-3.6,4.2-5.5c9.5,1.4,19,2.2,28.6,1.7c3.9-0.2,6.2,1.3,6,5.5c0,0.6,0,1.3,0,1.9
		c1.4,30.1-2.6,33.6-33.1,29.5c-5-0.7-5.4-3.3-5.4-7.2C422.5,346.3,422.3,337.6,422.2,329z"/>
	<path class="st6" d="M381.5,377.3c0-2.5,0-5.1,0-7.6c6.5-7.2,15-3.7,22.6-3.9c18.8-0.3,16.3-2.5,16.4,16c0.1,20.7,0,20.7-20.5,20.7
		c-16,0-16,0-16.3-16.4C383.6,383.1,384.8,379.6,381.5,377.3z"/>
	<path class="st6" d="M342.9,408.2c0.3-0.6,0.4-1.1,0.5-1.7c9.6-0.1,19.2,0,28.8-0.3c5.6-0.2,8.6,1.6,7.9,7.6c-0.1,0.6,0,1.3,0,1.9
		c-0.8,33,6.1,26.6-28.8,27.4c-5.7,0.1-8.1-2.2-8.1-8C343.3,426.1,343,417.2,342.9,408.2z"/>
	<path class="st9" d="M343.1,126.4c-3.9,6.9-1.4,14.4-1.6,21.6c-0.4,13.6-0.1,13.6-14.1,13.6c-5.1,0-10.3,0.2-15.4-0.1
		c-7.7-0.4-11.4,2.8-11.1,10.8c0.3,7.1-0.1,14.1,0.1,21.2c0.2,6.1-2.2,8.7-8.4,8.6c-20.2-0.2-40.5-0.2-60.7,0
		c-6.3,0.1-8.6-2.6-8.4-8.7c0.3-6.4,0.1-12.9,0.1-19.3c-0.1-11.2-1.4-12.5-13-12.6c-5.8,0-11.6-0.3-17.3,0.1
		c-7.4,0.6-10.2-2.2-10.3-9.9c-0.1-8.5,2.3-17.2-1.5-25.5c-0.1-0.6-0.2-1.3-0.3-1.9c2.4-3,1.7-6.6,1.8-10.1
		c0.2-10.1,0.3-20.3,0.4-30.4c0,0-0.1,0-0.1,0c52.7,0,105.5,0.1,158.2,0.1c0.1,0.6,0.3,1.1,0.8,1.6c0.2,12.3-2.7,24.8,1.6,36.9
		C343.4,123.8,343.2,125.1,343.1,126.4z"/>
	<path class="st6" d="M181,124.3c0.1,0.6,0.2,1.3,0.3,1.9c-4.2,11.5-2.1,23.3-1.3,34.9c0.3,4.6,5.9,5.3,10.2,5.4
		c7.4,0.1,14.8,0.2,22.2-0.1c5.4-0.2,7.5,1.9,7.3,7.3c-0.8,33.8,5.1,27.2-25.8,27.8c-14.7,0.3-14.7,0.1-14.8,15.1
		c0,45.4,0,90.7,0,136.1c0,4.5,0.5,9-2,13.2c-9.9-0.8-19.7-2.7-29.6-2c-4.8,0.3-7.2-2.2-7-7c0.5-11.1-1.8-22.5,2.5-33.4
		c1-2.6,1.1-5.7,1.1-8.5c0.1-47.2,0-94.4,0-141.6c0-5.1,0-10.3-4-14.3c-0.1-11-0.2-21.9-0.2-32.9c7.6-6.1,16.5-3.2,24.9-3.7
		c4.1-0.3,8.3-0.2,12.4-0.2C178,123.8,179.2,124.6,181,124.3z"/>
	<path class="st9" d="M102.1,165c0.6-0.1,1.1-0.4,1.5-0.8c12.2,0.4,24.4,0.8,36.7,1.1c0,52.5,0,105,0,157.5
		c-12.2,0.4-24.4,0.8-36.7,1.1c-0.4-0.5-0.9-0.7-1.5-0.8C102.1,270.5,102.1,217.7,102.1,165z"/>
	<path class="st7" d="M184.9,79.9c0-9.2,0.3-18.4,0-27.6c-0.2-5.5,2.1-7.2,7.4-7.2c46.6,0.1,93.3,0.1,139.9,0c5.3,0,7.6,1.7,7.4,7.2
		c-0.3,9.2,0,18.4,0,27.6C287.9,79.9,236.4,79.9,184.9,79.9z"/>
	<path class="st8" d="M140.3,165.3c-12.2-0.4-24.4-0.7-36.7-1.1c0.1-9.9,0.5-19.9,0.2-29.8c-0.2-6.4,2.2-8.4,8.3-8.1
		c9.3,0.4,18.6,0,27.9,0c0.1,11,0.2,21.9,0.2,32.9C137.4,161.2,140.6,163.3,140.3,165.3z"/>
	<path class="st6" d="M345.2,45c8.9,0.1,17.9,0.3,26.8,0.1c5.6-0.1,8.1,2,8.2,7.8c0.2,9.5,1,19,1.5,28.6
		c-10.5,0.2-21.1,0.4-31.6,0.5c-3.3,0-6.9-0.2-6.7-4.7C343.9,66.5,341.2,55.5,345.2,45z"/>
	<path class="st6" d="M142.6,81.4c2.7-8.4,1.9-17.1,1.4-25.6c-0.4-8.6,2.9-11.3,11.2-10.8c7.9,0.5,15.9,0,23.9,0
		c4,10.5,1.3,21.5,1.8,32.2c0.2,4.5-3.4,4.8-6.7,4.8C163.7,81.8,153.2,81.6,142.6,81.4z"/>
	<path class="st8" d="M102.1,165c0,52.7,0,105.5,0,158.2c-5.4-0.1-6-3.7-6-7.9c0-47.4,0-94.9,0-142.3
		C96.1,168.7,96.7,165.1,102.1,165z"/>
	<path class="st8" d="M184.9,79.9c51.5,0,103.1,0,154.6,0c0.6,1.4,1.2,2.7,1.8,4.1c-52.7,0-105.5-0.1-158.2-0.1
		C183.7,82.6,184.3,81.2,184.9,79.9z"/>
	<path class="st7" d="M359.4,115.3c1.9-3.5,4.5-2.2,6.4-2.8c4.6-1.4,6.8-4.6,6.4-9.4c-0.4-4.5-2-8-7.6-7.9c-1.8,0-3.8-0.4-5.5-1.1
		c-1.7-0.8-3.5-2.3-3.2-4.3c0.3-2.6,2.8-2.1,4.6-2.2c1.9-0.1,3.8,0,5.8,0c12.2,0,12.2,0,10.2,11.8c-0.7,3.9,0,7.5,1.2,11.3
		c0.9,3,1.2,6.6-2,8.7c-2.8,1.8-5.1,0.7-7.8-1.2C365.7,116.6,362.6,116.3,359.4,115.3z"/>
	<path class="st8" d="M181,124.3c-1.8,0.3-3-0.5-3.7-2.1c0-9.9,0-19.7,0-29.6c0-4.2-0.2-8.7,5.9-8.8c-0.1,10.1-0.2,20.3-0.4,30.4
		C182.7,117.7,183.3,121.3,181,124.3z"/>
	<path class="st8" d="M103.6,324c12.2-0.4,24.4-0.8,36.7-1.1c-0.5,2.6-1.6,5.7-4.3,5.8c-9.9,0.4-19.9,0.2-29.8-0.1
		C104,328.5,103.8,325.9,103.6,324z"/>
	<path class="st8" d="M343.6,122.5c-4.3-12.2-1.4-24.6-1.6-36.9c4.4,1.3,3.2,4.9,3.2,7.8c0.2,9.7,0.2,19.5,0.2,29.2
		c0,0-0.9,0.1-0.9,0.1L343.6,122.5z"/>
	<path class="st5" d="M353.1,366.1c-0.4,2-1.1,3.7-3.6,3.3c-1.9-0.3-2.2-1.9-2.4-3.5C349.1,366,351.1,366,353.1,366.1z"/>
	<path class="st9" d="M261.9,404.4c-22.2,0-44.4,0-66.6,0c-12.4,0-12.9-0.1-12.5-12.3c1.8-50.8,1.3-101.6,1.4-152.5
		c0-7.7,0-15.4-1.1-23.1c-1.1-7.4,1.8-11.2,10.1-11.4c26.7-0.5,26.7-0.7,26.7,26.1c0,13.9,0.7,14.5,14.9,14.5
		c19.3,0,38.6-0.2,57.9,0.1c8.2,0.1,11.9-2.9,11.6-11.3c-0.3-7.4,0-14.8-0.1-22.2c0-4.8,2.2-7.1,7-7c6.8,0.1,13.5,0.2,20.3-0.1
		c7.9-0.3,10.1,3.9,9.7,10.9c-2.7,44-1,88.1-0.9,132.2c0,15.1,0.8,30.2,1.4,45.3c0.3,8.7-3.1,11.1-11.3,10.9
		C307.6,404.2,284.7,404.4,261.9,404.4z"/>
	<path class="st6" d="M262.6,207c9.3,0,18.7,0.4,28-0.1c6.9-0.4,9.2,2.3,8.7,9c-0.4,6.1-0.2,12.2,0,18.3c0.2,5.8-2.5,8-8.2,8
		c-19.3-0.1-38.6-0.1-57.9,0c-5.6,0-7.9-2.2-8.2-7.9c-1.5-27.2-1.6-27.2,25.1-27.2C254.3,207,258.5,207,262.6,207z"/>
	<path class="st9" d="M422.5,244.1c0,23.1-0.2,46.3,0.1,69.4c0.1,7.5-2.5,10.6-10.1,10.1c-6.4-0.4-12.9-0.4-19.3,0
		c-6.8,0.4-9.3-2.8-9.3-9.1c0-46.9,0-93.9,0-140.8c0-6.3,2.4-9.6,9.2-9.2c6.4,0.4,12.9,0.4,19.3,0c7.5-0.5,10.2,2.5,10.1,10.1
		C422.3,197.8,422.5,220.9,422.5,244.1z"/>
</g>
<g id="Layer_4">
	<g>
		<path class="st10" d="M535.7,722.6c1.9-3.2,3.8-6.5,5.8-9.8c0.5-0.8,0.8-1.7,1.1-2.7c8.5-11.9,19.2-22.5,29.3-32.7
			c13.1-13.3,26.7-26.2,41-38.5c8.5-7.3,16.9-14.7,25.1-22.3c1.4-1.2,2.7-2.5,4.1-3.7c0.1-0.2-0.1,0.8,0,0.6s1.5-1.5,1.7-1.7
			c15.8-11.1,24-31,30.2-48.8c6.8-19.8,9.7-41.5,9-62.4c-1.5-42.7-20-82-48.9-113.1c-59.4-63.9-160.6-88.7-240.9-52
			c-24.8,11.3-48.9,26.2-65.4,47.6c-12,15.5-19.2,35.6-24.7,54.7c-0.4,1.5-0.5,2.8-0.3,4.1c-3.5,8.4-6.6,16.9-8.8,25.6
			c-3.3,13.2-5.5,26.9-6.6,40.5c-2.2,26.4-0.2,53.5,6.2,79.2c2.2,9,5,17.8,8.4,26.4c24.2,117.9,114.5,217.3,239.2,246.9
			c19.7,4.6,39.4,7.4,59,8.3l0.1-1.9c6.9,0.7,15.5,5.5,20.3,1.3c4.6,0.8,8.7-1.4,13.3-0.8c1.5,0.5,3.4,0.1,5,0
			c3.8,0.5,6.4-0.7,10.2-0.6c3.7,0.1,7.5-0.1,11.2,0.3c4.6,0.5,13.7-0.3,16.2-4.6c2.2-4-3.2-9.9-6.6-13
			c-7.5-7.2-13.3-14.9-18.2-24.3c-2.2-4.2-3.6-8-5.4-12.7c-1.6-4.8-3.6-9.6-4.5-14.6c-1.1-6.6-6-10.7-12.8-9.1
			c-8.8,2-15.4,2.1-24.3,3.8c-0.1,0-2.4,0-2.5,0c-7.5-3.2-14.9-2.3-22.7-2.7c-1.4-0.3-2.8-0.7-4.2-1.1c-6.5-4.6-13.5-8.4-20.9-11.6
			c-2-2-3.8-4.1-5.2-6.4c-3.8-5.8-6.3-10.2-8.1-16.8c-1.1-4.1-5.7-6.6-9.8-6.4c-0.2-4.1-0.1-8.1,0.5-11.5
			C532.4,731.3,533.8,726.8,535.7,722.6z"/>
		<path class="st11" d="M942,543.4c-1-34.8-4.7-70.6-12.7-104.6c-4.2-17.8-10-35.9-19.2-51.9c-4.4-7.7-9.5-14.8-15-21.7
			c-5.7-7-12-13.9-20.1-18.1c-0.2-0.1-0.4-0.2-0.7-0.3c-0.8-1.3-1.6-2.5-2.4-3.7c-10.4-15.6-22.2-30.3-35.4-43.6
			c-13.2-13.2-27.9-26.1-44-35.6c-8.6-5-17.3-10.1-26.2-14.5c-3.4-1.7-7-3.2-10.5-4.6c-6.6-3.5-13.4-6.5-20.5-8.6v0.1
			c-2.4-0.5-4.9-0.1-7,1.3c-6.7-3-13.4-5.8-20.1-8.2c-29.9-10.6-61.8-15.4-93.5-16.2c-29.4-0.7-59.3,1.8-88,8.3
			c-14.6,3.3-29.4,8.4-42.7,15.5c-6.7,3.5-12.7,7.7-18.4,12.6c-2.3,2-6.3,1.2-8.1,3.5c-0.8,0.4-1.5,0.8-2.3,1.2
			c-28.9,15.1-54.6,36.4-79.1,57.9c-10.4,9.2-22,19.2-29.3,31.4c-1.3,1.1-2.6,2.2-3.8,3.3c-1.1,2-2.2,4-3.3,6.2
			c-1.8,3.5-3.2,7-6.5,9.4c-0.5,0.9-1.1,1.8-1.6,2.7c2.1,3.1,6.9,4.5,10.6,1.3c10.3-9.2,20.8-17.9,32.5-25.1
			c11.8-7.4,24.4-13.5,37.5-18.3c26.2-9.6,54.1-13.7,82-12.1c54.1,3,105,30.9,140.6,71.7c10.1,11.5,20.2,22.4,27.7,35.8
			c3.7,6.6,6.9,13.5,9.7,20.5c2.1,5.2,3.5,10.8,5.9,15.9c-1.3,0-2.6-0.1-3.8-0.1c0.7,1.2,1.3,2.4,1.6,3.1c2.3,4.9,3.3,10.5,4.4,15.8
			c1.3,6.9,2.5,13.5,2.6,20.6c0,1.6,0,3.2-0.1,4.9c2.2,15.8,1.1,32.3-2.8,47.5c-4.7,18.6-12.7,36.9-23.4,53.3c0,0,0.1-0.1,0.2-0.1
			c7.3-6.7,14.6-13.2,22-19.9c7.5-6.7,15.4-12.5,23-19c0.7-0.6,1.7,0.3,1.1,1c-7.4,7.4-14.1,15.2-21.7,22.4
			c-7.5,7.2-15,14.4-22.7,21.5c-4.5,4.3-9.2,8.6-13.7,12.9c-10.2,9.6-20.2,19.2-30,29.2c-12.3,12.6-25.1,24.7-37.1,37.7
			c-11.2,12-23.8,24.5-30.9,39.7c-5.7,12.2-6.1,27.9,4.9,37.3c9.8,8.3,24.2,10.6,36.5,12.3c27.1,3.8,55.7,0.9,82.1-5.9
			c27.8-7.1,53-21.6,73.9-41c0.9-0.9,2.3,0.4,1.5,1.4c-21.8,25.2-51.6,44.5-83.1,55.3c-5,1.7-10.2,3.2-15.4,4.4
			c0.9,2.8,1,6.1,1.5,8.9c0.7,3.7,1.5,7.4,2.5,11c2,7.1,4.9,13.7,8.1,20.4c3.2,6.9,6.4,13.7,11,19.7c2.4,3.1,5,6.2,7.8,9.1
			c1.2,1.3,2.6,2.6,3.9,4.1c47.6-10.3,92.2-31.3,130.1-61.1c6.5-2.2,12.8-5.4,18.5-8.6c11.9-6.8,23.2-15.2,32.3-25.5
			c14.2-15.8,26.5-35.8,30.2-57.3c12.9-18.6,23.9-38.5,32.3-59.9C938.3,616,943,580,942,543.4z"/>
		<path d="M951.5,506.3c-4.9-43.6-19.1-87.2-40.8-126.1c-10.9-19.4-23.6-37.8-37.9-54.5c-14.2-16.7-30.2-32.2-47.6-46
			c-17.3-13.6-35.9-25.7-55.5-35.7c-19.2-9.9-39.8-18.1-61.3-24.3c-21.1-6.1-42.9-10.1-64.8-12l-12.1-0.8c-1.5-0.1-2.8-0.2-4.2-0.2
			l0,0l-14.3-0.3l-16.4,0.5L582,208c-0.2,0-0.4,0-0.7,0c-0.5,0-1,0.1-1.5,0.1l-1.9,0.2c-21.8,2.3-43.4,6.9-64.4,13.4
			c-20.8,6.6-41.1,15.1-60.5,25.7c-19.4,10.5-37.7,22.9-54.5,36.7c-16.9,14-32.5,29.7-46.2,46.6l-1.3,1.6c-0.3,0.4-0.6,0.8-0.9,1.2
			c-0.1,0.2-0.3,0.3-0.4,0.6l-8.6,11.3l-9.4,13.5l-7.6,12.2c-0.8,1.2-1.5,2.4-2.2,3.7l-6,10.7c-10.3,19.4-18.8,39.9-25.1,60.9
			c-6.5,21.5-10.8,43.2-12.9,64.6c-2.2,21.9-2.3,44.2-0.2,66.1c2.1,22,6.4,43.8,12.7,65c6.4,21.1,14.8,41.7,25.2,61.4
			c10.5,19.7,22.8,38.3,36.7,55.3c14,17.3,29.8,33.1,46.9,47.2c34.3,28.4,74.8,50.1,117.1,62.9c32,9.7,65.7,14.5,99,14.5
			c11.3,0,22.5-0.6,33.6-1.7c22.2-2.3,44.3-6.9,65.7-13.4c21.2-6.6,42.1-15.3,61.9-26c39.3-21.4,74.7-51,102.5-85.6
			c13.7-17.1,26-35.9,36.5-56.2c10.2-19.8,18.6-40.7,24.8-62.2C952.8,596.4,956.5,550.6,951.5,506.3z M642.1,612.8
			c-1.4,1.2-2.7,2.5-4.1,3.7c-8.3,7.6-16.7,15-25.1,22.3c-14.2,12.2-27.9,25-41,38.5c-10.9,11.1-22.5,22.6-31.3,35.6
			c-1,1.6-2,3.1-3,4.7c-0.2,0.3-0.3,0.5-0.5,0.8c-0.9,1.5-1.7,3-2.4,4.5c-0.5,1-0.9,2-1.4,3c-2,4.8-3.4,10-3.9,15.2
			c-0.1,0.8-0.2,1.6-0.2,2.4c-0.4,7.2,0.9,14.3,4.3,20.9c5.2,10,14.6,16.5,25,20.6c1.1,0.5,2.3,0.9,3.5,1.3c3.1,1.1,6.4,2,9.5,2.7
			c4.5,1,9.2,1.8,13.8,2.5c0.5,0.1,0.9,0.1,1.4,0.2c3.4,0.5,6.9,0.8,10.3,1c1.7,0.1,3.4,0.2,5.1,0.3c10.9,0.4,21.9-0.2,32.7-1.8
			c0,3.1,1,6.7,1.7,9.5c0.9,3.8,2.1,7.7,3.4,11.4c2.7,7.7,6,15.4,10.4,22.2c4.2,6.7,9.9,12.2,15.2,18c2.8,3,6,6,9.2,8.6
			c0.2,0.2,0.5,0.4,0.7,0.6c-9.3,1.8-18.7,3.2-28.1,4.2c-42,4.4-85.8,0.5-126.6-11.5c-22-6.5-43.4-15.4-63.7-26.4
			c-83.7-47.5-141.3-130.7-157.3-224.5c-2.4-14.1-5.7-28.3-7.3-42.5c-6.8-56.7,6.1-120,32.3-170.7c0.8-1.5,1.7-4.4,3-5.7
			c12.5-11.3,25.2-22.2,39.5-31.5c17.7-11.5,36.8-20.6,57-26.7c20.1-6,40.8-8.7,61.7-7.5c21.5,1.3,42.8,6.7,62.9,14.4
			c36.3,14,69.5,37.1,93,68.4c21.1,28.2,35.3,62,38.4,97.2c3.2,37.5-6.6,73.6-27.8,104.1c-3.3,3-6.7,6.1-10,9.1 M821.6,792.3
			c-16.3,13.5-34,25.5-52.8,35.8C750,838.3,730.2,846.7,710,853c-9.8,3-19.8,5.7-30,7.8c-0.8-0.9-1.7-1.7-2.4-2.5
			c-2.7-2.9-5.2-6-7.8-9.1c-4.6-6-7.8-12.9-11-19.7c-3.1-6.7-6.1-13.3-8.1-20.4c-1-3.6-1.9-7.3-2.5-11c-0.5-2.8-0.6-6.1-1.5-8.9
			c5.2-1.2,10.4-2.7,15.4-4.4c31.5-10.8,61.3-30.1,83.1-55.3c0.9-1-0.5-2.3-1.5-1.4c-20.9,19.4-46.1,33.9-73.9,41
			c-26.3,6.7-55.1,9.7-82.1,5.9c-12.2-1.7-26.8-4-36.5-12.3c-11-9.4-10.6-25-4.9-37.3c7-15,19.7-27.6,30.9-39.7
			c12-12.9,24.8-25,37.1-37.7c9.8-10,19.8-19.6,30-29.2c4.5-4.3,9.2-8.6,13.7-12.9c7.6-7.2,15.1-14.3,22.7-21.5
			c7.6-7.3,14.3-15,21.7-22.4c0.7-0.7-0.4-1.6-1.1-1c-7.6,6.5-15.5,12.3-23,19c-4.4,3.9-8.9,8-13.3,12c15.1-23.5,23.2-51,23.9-79.4
			c0.9-36.8-11.4-73.9-31.3-104.6c-21.9-33.8-53.1-60.1-89.4-77.3c-40.9-19.4-86.6-28.1-131.1-18.1c-24.4,5.5-47.7,15.5-68.7,29.1
			c-8.9,5.7-17.7,12-25.7,19.2c5.5-8.2,11.2-15.9,17.3-23.5c13.4-16.6,28.5-31.9,44.8-45.5c16.3-13.5,34.1-25.6,52.9-35.9l0,0
			c18.9-10.2,38.7-18.6,58.9-24.8c20.4-6.4,41.4-10.7,62.6-12.9c42.1-4.4,85.9-0.4,126.7,11.6c40.8,12.1,79.6,32.5,112.6,59.2
			c16.6,13.4,31.8,28.5,45.4,44.8c13.5,16.3,25.6,34.1,35.8,52.9c10.2,18.9,18.6,38.7,24.8,58.9c6.4,20.3,10.7,41.4,12.9,62.5
			c4.4,42.1,0.4,85.8-11.6,126.6s-32.5,79.6-59.2,112.5C853.1,763.5,837.9,778.7,821.6,792.3z"/>
		<circle cx="540.7" cy="505.3" r="81.9"/>
		<ellipse class="st12" cx="507.2" cy="496.5" rx="28.3" ry="28.3"/>
		<circle cx="336.5" cy="519" r="81.9"/>
		<path class="st11" d="M446.1,577c2.9,10.3,3.4,21.9,2.6,32.6c-19.4,5.8-38.7,5.9-58.8,2.4c-11.4-1.9-22.4-5.6-33.3-9.5
			c-5.6-2-11-4-16.4-6.4c-2.7-1.2-5.8-2.8-8.9-4c3.3-0.5,6.6-1.5,9.8-2.2c4.5-1.1,9.1-2.2,13.5-3.6c9.6-2.8,19-6.5,28.2-10.5
			c8.7-3.8,17.1-8.3,25.2-13.2c7.5-4.4,15.3-9.1,21.8-15c0.6,2,2.2,3.3,3.4,5c1.9,2.5,3.7,5,5.5,7.7
			C442.1,565.5,444.5,571.2,446.1,577z"/>
		<circle class="st12" cx="301.7" cy="508.3" r="28.3"/>
		<path d="M452.4,575.6c-2.8-6.1-6.3-11.7-10.1-17.3c-1.7-2.5-3.6-5-5.8-7.3c-1.5-1.7-3.1-3.8-5.4-4.5c0.1-0.1,0.2-0.2,0.3-0.3
			c0.3-0.3-0.1-0.8-0.5-0.6c-2.3,1.1-4.5,2.4-6.8,3.7c-5.9,3.4-11.5,7.2-17.4,10.4c-8.7,4.6-17.6,8.9-26.8,12.5
			c-8.6,3.5-17.5,6.6-26.3,9.3c-4.4,1.4-9,2.6-13.4,3.7c-4.6,1.1-9.8,1.7-14.2,3.3c-0.7,0.3-1.2,0.8-1.4,1.5c0,0.1,0,0.1,0,0.2
			c-0.2,1,0.3,2,1.3,2.4c3.6,3.7,9.9,6.1,14.3,8.5c5.1,2.7,10.2,5.6,15.4,8.1c0.4,0.2,0.9,0.4,1.4,0.6c10.4,4.9,21.5,9.2,32.6,12.2
			c20.7,5.7,44.9,6.6,65-1.9c2.6-0.2,5-2.1,5.4-6c0.6-6.9-0.1-13.3-1.4-20.1C457.6,587.4,455.3,581.6,452.4,575.6z M390.1,612.1
			c-11.4-1.9-22.4-5.6-33.3-9.5c-5.6-2-11-4-16.4-6.4c-2.7-1.2-5.8-2.8-8.9-4c3.3-0.5,6.6-1.5,9.8-2.2c4.5-1.1,9.1-2.2,13.5-3.6
			c9.6-2.8,19-6.5,28.2-10.5c8.7-3.8,17.1-8.3,25.2-13.2c7.5-4.4,15.3-9.1,21.8-15c0.6,2,2.2,3.3,3.4,5c1.9,2.5,3.7,5,5.5,7.7
			c3.2,5,5.7,10.8,7.3,16.6c2.9,10.3,3.4,21.9,2.6,32.6C429.4,615.5,410.1,615.5,390.1,612.1z"/>
		<g>
			<g class="st13">
				<path d="M934.2,601c13-61,8-121.9-9.3-181.4c-1-3.4-2.3-7.3-5.6-8.7c-7.6-3.3-11.9,8.7-11.8,17.1
					c0.6,81.4-38.5,172.6-88.1,234.6c-46.9,58.8-113.7,112.5-191.5,124.5c-8.5,1.3-17,2.4-25.6,2c-8.5-0.3-16.9-3.4-24.8-6.3
					c-8.6-3-17.4-5.9-25.6-9.6c-7.9-3.6-13.6-9.9-15.3-18.5c-0.2-0.9-1.5-0.6-1.5,0.3c-0.1,3.4,0.4,6.8,1.5,10
					c0.2,0.5,0.3,1,0.5,1.5c-0.1,0.3-0.2,0.6-0.3,1c-0.8,15.3,10,25.8,23,33.9c-1.2,0-2.4,0-3.6,0c-86.5-0.5-172.2-39.8-229-105.1
					c-2.7-3.1-9.1-5.7-9.9-1.6c-0.3,1.6,0.8,3.1,1.8,4.4c20.7,25.7,39.1,56.5,62.3,79.6c10.2,12.7,21.9,24.3,35.7,33
					c14.3,9,30.5,15.1,46.3,21c1.2,0.9,2.4,1.7,3.6,2.5c5,3.5,10.4,6.4,15.9,9.1c11.6,5.7,23.7,10.4,35.9,14.5
					c24.3,8.2,49.8,12.4,75.3,14.3c116.6,9,217.7-42,282.9-139.4c26.1-39.2,45.8-82.8,56.1-128.7C933.6,603.9,933.9,602.4,934.2,601
					z"/>
			</g>
			<path class="st14" d="M341.9,598.2c4.1,3,7.9,2.4,11.7,5.9c5.2,1.9,10.2,4.3,15.1,6.9c11.5,4.3,23.7,7,35.8,7.8
				c17.1,1.2,33.8-2,50.8-3.8c0.7-4.1,1.1-8.3,2-12.3c-0.6-1.6-1.4-3.2-2.3-4.7c-0.2-0.4-0.6-0.5-1-0.4c-0.2-0.5,0.1-6.9-0.1-7.4
				c-1-2.3-0.7-2.4-2.6-1.8c-12.3,3.8-24.5,8.5-37.4,10.6c-17.8,3-35.8,1.5-53.5-1.3c-9.2-1.5-19.4-3.4-28.2-7.5
				c0.7,1.5-3.1,1.3-2.2,2.6c3.1,1.7,10.6,5.6,13.3,8c0.3,0.2,0.6,0.4,0.8,0.6c-1.3-2.2-1.5-2.3,0-0.3
				C345.7,602.7,341.6,598,341.9,598.2z"/>
			<g class="st13">
				<path d="M763.6,533.8c-3.4,0-6.9,0-10.2,0c-0.9,0-1.8-0.1-2.7-0.4c-3.4-1.2-4.2-3.3-2.2-6.4c5.6-8.4,11.1-16.8,16.7-25.2
					c8.5-12.8,17-25.5,25.4-38.3c0.5-0.8,1-1.5,1.6-2.2c2.2-2.5,4.8-2.6,7.2-0.2c1.8,1.9,3,4.2,4.5,6.5c2.3,3.4,4.5,7.1,6.9,10.5
					c2.8,4,2.7,8.2,0.1,12.1c-8.5,12.7-17.1,25.4-25.7,38.1c-2.6,3.8-6.7,5.2-11,5.6C770.6,534,767,533.8,763.6,533.8z"/>
				<path d="M815.8,533.8c-6.3,0-11.3,0-16.4,0c-0.5,0-1.1,0.1-1.6,0c-4.4-1-7-3.4-4.1-8.1c5.5-8.8,11.1-17.6,16.7-26.2
					c2.7-4.1,6.9-4.1,9.5,0c5.7,8.9,11.1,17.9,16.7,26.9c2.2,3.6,0.9,6.5-3.4,7.1C827,534.3,820.9,533.5,815.8,533.8z"/>
			</g>
		</g>
	</g>
</g>
<g class="st15">
	<path class="st16" d="M195.2,809.8l0.1,25.6L156,858l-0.1-25.6L195.2,809.8z"/>
	<path class="st17" d="M156,858l-69.4-40.3l-0.1-25.6l69.4,40.3L156,858z"/>
	<path class="st18" d="M155.9,832.5l-69.4-40.3l39.3-22.7l69.4,40.3L155.9,832.5z"/>
	<path class="st16" d="M150.1,835.6l0.1,25.6L111,883.8l-0.1-25.6L150.1,835.6z"/>
	<path class="st17" d="M111,883.8l-69.4-40.3l-0.1-25.6l69.4,40.3L111,883.8z"/>
	<path class="st18" d="M110.9,858.2l-69.4-40.3l39.3-22.7l69.4,40.3L110.9,858.2z"/>
	<path class="st19" d="M193.9,765.6l0.1,36.5l-95.3,55l-0.1-36.5L193.9,765.6z"/>
	<path class="st20" d="M98.7,857.1L4,802.1v-36.5l94.7,55V857.1z"/>
	<path class="st21" d="M98.6,820.6L4,765.6l95.3-55l94.7,55L98.6,820.6z"/>
	<path class="st22" d="M193.4,692.5l0.2,73l-95.3,55l-0.2-73L193.4,692.5z"/>
	<path class="st23" d="M98.3,820.5l-94.7-55l-0.2-73l94.7,55L98.3,820.5z"/>
	<path class="st24" d="M98.1,747.6l-94.7-55l95.3-55l94.7,55L98.1,747.6z"/>
	<path class="st12" d="M145.9,738.8v14.6l-12.7,7.3v14.6L146,768l-25.4,14.7l-0.1-29.2L145.9,738.8z"/>
	<path class="st25" d="M145.9,753.4V768l-12.7,7.3v-14.6L145.9,753.4z"/>
	<path class="st12" d="M183.3,717.3v14.6l-12.7,7.3v14.6l12.7-7.3l-25.4,14.7l-0.1-29.2L183.3,717.3z"/>
	<path class="st25" d="M183.3,731.9v14.6l-12.7,7.3v-14.6L183.3,731.9z"/>
	<path class="st23" d="M41.3,838.5l-0.1,21.9L9.5,842.1l0.1-21.9L41.3,838.5z"/>
	<path class="st22" d="M41.3,838.5l31.6-18.3l-0.1,21.9l-31.6,18.3L41.3,838.5z"/>
	<path class="st26" d="M9.5,820.2l31.6-18.3l31.8,18.3l-31.6,18.3L9.5,820.2z"/>
	<path class="st27" d="M50.8,829.4l31.6-18.3v14.6L50.8,844V829.4z"/>
	<path class="st28" d="M0,800.1l31.6-18.3l50.8,29.3l-31.6,18.3L0,800.1z"/>
	<path class="st20" d="M50.8,829.4V844l-9.5-5.5L9.5,820.2L0,814.7v-14.6L50.8,829.4z"/>
	<path class="st21" d="M193.5,659.9l0.1,36.5l-95.3,55l-0.1-36.5L193.5,659.9z"/>
	<path class="st20" d="M98.3,751.4l-94.7-55l-0.1-36.5l94.7,55L98.3,751.4z"/>
	<path class="st28" d="M98.2,714.9l-94.7-55l95.3-55l94.7,55L98.2,714.9z"/>
	<path class="st21" d="M176.1,724.1c7.9-4.7,16.5-8.2,25.4-10.4v14.6c-8.9,2.2-17.5,5.7-25.4,10.4c-9.1,5.4-17.7,11.7-25.4,18.9V743
		C158.5,735.8,167,729.5,176.1,724.1L176.1,724.1z"/>
	<path class="st20" d="M150.8,757.6l-31.5-18.3v-14.6l31.6,18.3L150.8,757.6z"/>
	<path class="st28" d="M150.7,743l-31.6-18.3c7.7-7.2,16.3-13.6,25.4-18.9c9.1-5.4,25.2-10.7,25.2-10.7l31.8,18.8
		c0,0-16.3,4.9-25.4,10.3C167,729.5,158.5,735.8,150.7,743z"/>
	<path class="st29" d="M180.6,794.8l-6.3-3.7l-1.7-1.2l6.3,3.7L180.6,794.8z"/>
	<path class="st29" d="M168.5,808.3l-6.3-3.7l-3.3-2.9l6.3,3.7L168.5,808.3z"/>
	<path class="st30" d="M104.6,824.3l-6.3-3.7v-2.3l6.3,3.7V824.3z"/>
	<path class="st31" d="M200.5,756.2v6.4v4v2.3l-19.9,25.9l-1.7-1.2l-10.5,14.7l-3.3-2.9l-12.5,19.4l-12.6-4.9l-3.3,6.7l-10.6-2.5
		l-1.7,3.1l-19.9-2.9V822v-10.4L200.5,756.2z"/>
	<path class="st30" d="M104.6,822l-6.3-3.7v-10.4l6.3,3.7V822z"/>
	<path class="st32" d="M104.5,811.6l-6.3-3.7l95.9-55.4l6.3,3.7L104.5,811.6z"/>
	<path class="st32" d="M51.1,761.3l6.3-3.7l40.9,50.2l-6.3,3.7L51.1,761.3z"/>
	<path class="st32" d="M92,811.5l6.3-3.7l6.3,3.7l-6.3,3.7L92,811.5z"/>
	<path class="st31" d="M98.3,815.2l6.3-3.7v12.8l-6.3,3.7V815.2z"/>
	<path class="st29" d="M51.2,731.3l-0.1,30L92,811.5l6.4,3.7V828L51,799.2l-11.3-6.5l-5.6-3.2v-12.9l5.7-21.7l0.1-30L51.2,731.3z"/>
	<path class="st32" d="M51.2,731.3l6.3-3.7l-0.1,30l-6.3,3.7L51.2,731.3z"/>
	<path class="st33" d="M39.9,724.8l6.3-3.7l11.3,6.5l-6.3,3.7L39.9,724.8z"/>
</g>
<g class="st34">
	<path class="st35" d="M0,605.1"/>
	<path class="st35" d="M0,605.1"/>
	<path class="st35" d="M0,605.1"/>
	<path class="st35" d="M0,605.1"/>
	<path class="st35" d="M0,605.1"/>
	<circle class="st36" cx="139.4" cy="744.5" r="139.4"/>
	<g class="st37">
		<path class="st12" d="M159.9,647.7c0.9,0.4,1.9,0.4,2.9,0.5c5.2,0.9,10.2,2.3,15.1,4.2c8.5,3.2,16.1,8,23,13.9
			c7.3,6.3,13.6,13.6,18.8,21.9c0.9,1.5,1.8,3.1,2.7,4.8c-3,1.1-5.9,1.5-9,1.6c-6.6,0.1-12.8-1.7-18.9-4c-2-0.8-4-1.8-6-2.5
			c-5.4-2-11-3.2-17.1-3.1c0.4-0.3,0.6-0.5,0.9-0.6c4.3-3.1,8.4-6.6,11.7-10.8c1.7-2.2,3.1-4.4,4.2-6.9c0.5-1.2,0.3-2.1-0.7-3
			c-3.6-3.1-7.9-4.2-12.5-4.1c-5.6,0.1-10.9,1.7-16,3.8c-0.4,0.1-0.8,0.3-1.2,0.5c-0.1-0.3,0.1-0.5,0.1-0.7c1.2-3.2,1.9-6.4,1.9-9.7
			c0-1.9-0.1-3.7-0.5-5.5C159.5,647.7,159.7,647.7,159.9,647.7z"/>
		<path class="st12" d="M134.2,841.3c0.1-0.4,0.5-0.1,0.7-0.1c2.4,0,4.8,0,7.2,0c0.2,0,0.4-0.1,0.6-0.1c0,0.2,0.4,0,0.3,0.3
			C140,841.3,137.1,841.3,134.2,841.3z"/>
		<path class="st12" d="M117.6,651.8c0.4,3.6,0.7,7.1,1.1,10.6c0,0.3,0,0.6,0.3,0.7c0.4,0.1,0.6-0.2,0.8-0.4
			c2.6-2.8,5.3-5.5,8.4-7.7c5.3-3.7,11-6.2,17.4-7c3-0.4,5.9-0.4,8.9-0.1c0.4,0.1,0.6,0.2,0.6,0.6c1.2,7.2-0.5,13.6-5,19.3
			c-1.9,2.4-4,4.7-5.9,7c-0.1,0.1-0.2,0.2-0.3,0.4c-0.1,0.1-0.1,0.2-0.1,0.3c0.1,0.1,0.2,0.1,0.3,0.1c0.2-0.1,0.4-0.2,0.6-0.3
			c5-2.6,9.7-5.4,14.9-7.6c4-1.7,8.1-3.2,12.5-3.7c3.6-0.4,7.1-0.4,10.4,1.4c1.1,0.6,1.1,0.6,0.5,1.6c-1.7,3-3.9,5.5-6.3,7.9
			c-6.3,6-13.5,10.4-21.3,13.9c-0.4,0.2-1.2,0.2-1.1,0.8s0.8,0.4,1.2,0.6c4.2,1.1,8.5,2.2,12.5,3.9c3.9,1.7,7.5,3.8,10.5,6.8
			c0.9,0.9,1.7,1.8,2.2,2.9c-2.2,0.9-4.5,1.7-6.9,2.1c-7.8,1.4-15.1-0.1-22.3-3.2c-3.5-1.5-6.4-3.7-9.4-5.8
			c-0.4-0.3-0.9-0.6-1.3-0.9c-0.2-0.1-0.4-0.5-0.7-0.3c-0.2,0.2,0.1,0.5,0.1,0.7c2.2,5,4.3,10.1,6.5,15.1c2.5,6,5.3,11.9,7.4,18.1
			c0.1,0.1,0.1,0.4,0.2,0.7c-1.1-0.6-2.1-1.1-3-1.7c-9.2-5.8-16.9-13.1-22.5-22.5c-0.6-1.1-1.3-2.3-1.9-3.4c-0.5-0.9-0.9-1-1.7-0.4
			c-6.6,5.2-13.1,10.4-19.6,15.6c-4.5,3.6-9.3,7-14.1,10.4c-1.9,1.4-4.2,1.5-6.6,1.4c-0.9-0.1-1.7-0.2-2.4-0.5
			c-1.4-0.5-2-1.4-1.7-2.9c0.1-0.5,0.2-1,0.5-1.4c3.5-5.3,5.1-11.2,6.6-17.3c1.2-5,2-10,2.6-15.1c0.4-4.3,1.1-8.6,2.4-12.7
			c2-6.6,5.4-12.3,10.1-17.3c4-4.2,8.7-7.6,14-10C117.2,652.1,117.3,652,117.6,651.8z M100.7,688.9c0-1.7-1.2-2.9-3-2.9
			c-1.7,0-2.8,1.2-2.9,2.9c0,1.6,1.3,3,2.9,3C99.5,692,100.7,690.7,100.7,688.9z M110.5,688.9c0,1.7,1.3,3,2.9,3c1.7,0,3-1.3,3-3
			s-1.4-2.9-3-2.8C111.7,686.1,110.5,687.3,110.5,688.9z"/>
		<path class="st12" d="M156.5,756.6c-1.1-0.4-2.1-0.9-3.1-1.4c-2.7-1.4-5.3-3-8-4c-3.9-1.5-7.9-2.2-12.1-1.9
			c-2.3,0.1-4.6,0.4-6.9,0.9c-0.4,0.1-0.6,0-0.7-0.4c-0.4-1.1-1.1-2.1-1.8-3c-0.3-0.4-0.5-0.4-0.9-0.2c-3.6,1.8-7.2,3.5-10.9,5
			c-8.4,3.2-16.9,5.9-25.6,7.5c-1.4,0.3-2.9,0.4-4.3,0.4c-1.2-0.1-2.2-0.7-2.4-1.7c-0.3-1.2,0.2-2.2,1.4-2.9c1.4-0.6,2.8-1,4.2-1.6
			c3.7-1.4,7-3.5,9.9-6.1c5.1-4.7,8.8-10.4,12.2-16.3c1.9-3.4,3.5-6.9,5.4-10.2c2.2-3.9,5.3-6.9,8.6-9.7c1.1-0.9,2.2-1.7,3.2-2.6
			c0.3-0.3,0.5-0.3,0.7,0.1c4.6,7.1,10.2,13.3,16.6,18.7c4.1,3.4,8.5,6.2,13.3,8.4c0.5,0.2,0.8,0.6,1,1.2c0.8,2.8,1.1,5.7,1.2,8.6
			c0.1,3.7-0.1,7.4-0.8,11.1C156.6,756.3,156.5,756.4,156.5,756.6z"/>
		<path class="st12" d="M168.3,689.4c4-0.4,7.8-0.1,11.5,0.6c3.8,0.7,7.4,2,10.9,3.7c1.1,0.5,1.9,1.3,2.8,2.1
			c6.2,5.3,9.9,12.2,11.7,20.1c0.8,3.5,1.2,7.1,1.3,10.7c0,0.4-0.1,0.5-0.4,0.6c-6.6,3.8-13.4,6.7-20.9,8c-4.7,0.9-9.4,1-14.1,0.4
			c-3.7-0.5-7.4-1.4-10.9-2.8c-0.3-0.1-0.6-0.2-0.7-0.6c-1.5-6.3-4.3-12-6.8-17.9c-1.1-2.6-2.2-5.1-3.2-7.6c0.3-0.1,0.4,0.1,0.6,0.1
			c4.5,2,9.1,3.4,14,3.8c7.2,0.7,14.1-0.6,20.6-3.8c1.2-0.6,1.5-1.4,1.1-2.7c-0.9-2.5-2.5-4.7-4.5-6.6c-3.4-3.3-7.4-5.7-11.7-7.6
			C169.2,689.7,168.8,689.6,168.3,689.4z"/>
		<path class="st12" d="M111.9,791.9c-1.5,0.1-2.5-0.5-3.1-1.8c-3.5-7.3-7.1-14.7-10.5-22.1c-0.9-1.9-1.7-3.7-2.2-5.7
			c-0.3-1.2-0.1-1.7,0.9-2.3c2.1-1.4,4.4-1.4,6.6-0.6c3.2,1.1,5.9,3,8.4,5.3c0.5,0.4,0.9,1.3,1.5,1.2c0.4-0.1,0.7-1,1-1.6
			c3.5-6.1,8.8-9.7,15.7-10.9c5.2-0.9,10.1,0.1,14.8,2.2c2.3,1.1,4.5,2.3,6.7,3.5c1,0.5,2,1.1,3.1,1.4c0.3,0.1,0.4,0.2,0.3,0.6
			c-1.4,3.2-2.7,6.4-4.3,9.4c-2.9,5.1-6.9,9.1-11.8,12.2c-6.8,4.3-14.3,7-22.3,8.4c-0.9,0.1-1.7,0.3-2.5,0.4
			C113.4,791.7,112.6,792,111.9,791.9z"/>
		<path class="st12" d="M206.7,731.8c0.1,2.1,0.1,4,0.1,6c-0.1,4.7-0.4,9.4-1.6,13.9c-1.9,6.7-6,10.3-12.9,11.5
			c-5.6,0.9-11.2,0.3-16.7-0.8c-4.4-0.9-8.6-2.2-12.9-3.5c-0.4-0.1-0.6-0.4-0.6-0.8c-0.5-3.5-0.4-7.1-0.4-10.7
			c-0.1-3.2-0.2-6.4-1-9.6c0-0.1,0-0.1,0.1-0.2C177,742.9,192.2,739.8,206.7,731.8z"/>
		<path class="st12" d="M210.4,746.8c1.1,2.3,2.2,4.5,3.7,6.4c3.6,4.9,8.4,7.9,14.5,8.8c1.2,0.1,2.3,0.3,3.5,0.2
			c0.5,0,0.6,0.1,0.5,0.6c-1.2,6.1-3,12.1-5.3,17.9c-2.3,5.8-5.3,11.4-8.6,16.6c-0.2,0.4-0.4,0.4-0.8,0.3c-2.3-0.7-4.2-2-5.6-4
			c-2.2-2.8-3.2-6-3.9-9.5c-1-5-1.2-10-0.9-15.1c0.1-3.5,0.4-6.9,0.9-10.3c0.4-2.4,0.9-4.8,1.4-7.2
			C210,750.1,210.2,748.5,210.4,746.8z"/>
		<path class="st12" d="M162.9,763.5c1.6,0.4,3,0.9,4.5,1.3c5.4,1.5,10.8,2.7,16.4,3c5.2,0.4,10.3,0,15.1-2.1c1.1-0.5,2-1.2,3.2-1.8
			c-0.5,1.8-1,3.5-1.7,5c-2.1,5.6-4.8,10.9-8.5,15.6c-2.9,3.7-6.3,6.8-10.4,8.9c-3,1.5-5.5,1.1-8-1.2s-4-5.3-5.3-8.4
			c-2.3-5.5-3.7-11.2-4.8-17C163.3,765.9,163.1,764.8,162.9,763.5z"/>
		<path class="st12" d="M137.4,818.9c-1.2,1.1-2.4,2.1-3.4,3.2c-3.3,3.6-5.9,7.6-7.1,12.5c-0.4,1.7-0.8,3.5-0.7,5.3
			c0,0.4-0.1,0.5-0.5,0.5c-5.4-0.7-10.7-1.9-15.8-3.5c-6.6-2-13-4.8-18.9-8.2c-1.7-0.9-3.2-1.9-4.9-3c1.3-1.2,2.7-2.3,4.1-3.2
			c4.5-2.8,9.6-4.4,14.9-5c3.7-0.5,7.6-0.6,11.4-0.1c2.7,0.4,5.4,0.8,8.1,1c4,0.4,8.1,0.5,12.2,0.3c0.1,0,0.4,0,0.5,0
			C137.3,818.7,137.3,818.8,137.4,818.9z"/>
		<path class="st12" d="M189.7,793.4c-0.6,1.9-1.2,3.7-1.6,5.5c-0.7,3.1-1.2,6.3-1.2,9.4c0,3.3,0.6,6.6,2.2,9.5c1.1,2,2.5,3.7,4.4,5
			c0.4,0.4,0.5,0.5,0,0.9c-8.1,5.7-16.9,10-26.4,13.1c-0.3,0.1-0.5,0.3-0.7-0.2c-1.7-3.6-2.9-7.4-2.8-11.5c0.1-4.3,1.4-8.3,3.5-12
			c3.1-5.2,7.3-9.3,12.2-12.7c3.3-2.3,6.8-4.3,10-6.8C189.3,793.5,189.5,793.5,189.7,793.4z"/>
		<path class="st12" d="M142.6,841c-0.2,0.1-0.4,0.1-0.6,0.1c-2.4,0-4.8,0-7.2,0c-1.2-0.2-2.3-0.2-3.5-0.3c-0.6,0-0.9-0.2-0.9-0.9
			c0-3.6,1.2-6.8,3-9.9c3.2-5.3,7.8-9.4,13-12.7c5.1-3.2,10.6-5.6,16.1-8.1c0.8-0.4,1.6-0.7,2.4-1c-0.7,1.2-1.4,2.2-2.1,3.4
			c-2.7,4.8-4.2,9.9-3.8,15.5c0.2,3.5,1.1,6.8,2.6,10c0.5,1,0.4,1-0.6,1.2C155.1,839.9,148.9,840.8,142.6,841z"/>
		<path class="st12" d="M210.4,719.1c2.4,2.7,4.9,5,7.8,6.9c3.7,2.3,7.7,3.7,12.2,3.4c0.8-0.1,1.7-0.1,2.4-0.3
			c0.4-0.1,0.4,0.1,0.4,0.4c0.1,1.8,0.4,3.6,0.5,5.4c0.4,4.8,0.4,9.5,0.3,14.3c-0.1,2.7-0.3,5.5-0.6,8.2c-0.1,0.4-0.1,0.5-0.5,0.5
			c-3.8,0.1-7.4-0.6-10.6-2.7c-2.7-1.9-4.8-4.3-6.3-7.2c-2.4-4.3-3.6-9-4.3-13.8c-0.6-3.4-0.5-6.8-0.7-10.2
			c-0.1-1.3-0.2-2.6-0.4-3.9C210.4,719.8,210.4,719.5,210.4,719.1z"/>
		<path class="st12" d="M203,774.7c0.1,1.7,0.2,3.2,0.4,4.8c0.6,5.5,1.6,10.8,4.6,15.6c1.9,2.9,4.3,5.1,7.6,6.4
			c0.1,0.1,0.2,0.1,0.4,0.1c-1.3,1.9-2.7,3.5-4.1,5.3c-4.1,4.8-8.6,9.3-13.6,13.2c-0.4,0.3-0.6,0.3-0.9,0.1c-3.3-2-5-5-5.5-8.8
			c-0.7-5.3,0.4-10.4,1.9-15.4c1.5-4.7,3.5-9.2,5.8-13.5c1.2-2.2,2.3-4.5,3.3-6.8C202.7,775.3,202.7,775.1,203,774.7z"/>
		<path class="st12" d="M148.7,780.8c-0.5,1.9-0.9,3.8-1.3,5.8c-0.9,4.4-1.4,8.9-1.1,13.3c0.3,3.7,1.1,7.2,3.5,10.2
			c0.3,0.4,0.2,0.5-0.1,0.6c-3,1.5-6,2.5-9.3,3.1c-4.8,0.9-9.7,0.7-14.5,0.4c-1.2-0.1-2.4-0.2-3.6-0.4c-0.4,0-0.6-0.1-0.5-0.6
			c0.4-4.1,2.1-7.6,4.2-11c3.3-5,7.6-9.2,12.3-12.9c3.5-2.7,6.9-5.3,10-8.4C148.4,780.8,148.5,780.8,148.7,780.8z"/>
		<path class="st12" d="M126.8,793.8c-0.1,0.4-0.4,0.6-0.6,0.9c-3.1,3.7-5.8,7.8-7.4,12.5c-0.6,1.7-1,3.5-1.2,5.3
			c-0.1,0.6-0.3,0.6-0.7,0.5c-4-0.7-7.9-1.6-11.8-2.7c-3.6-1-7.1-2.3-10.4-4c-3.5-1.7-6.1-4.4-8.4-7.5c-2-2.8-3.7-5.8-5.3-8.9
			c0-0.1,0-0.1-0.1-0.2c0.2-0.1,0.4,0.1,0.5,0.1c5.3,2.6,10.8,4.5,16.6,5.5c4.9,0.9,9.9,1.1,14.8,0.9c4.6-0.2,9.1-1.1,13.5-2.3
			C126.5,793.8,126.6,793.8,126.8,793.8L126.8,793.8z"/>
		<path class="st12" d="M82.1,800.6c-1.6-0.4-3-0.6-4.5-0.8c-5.3-0.4-10.1,0.6-14,4.4c-0.4,0.4-0.5,0.4-0.9,0
			c-6.1-7.9-10.9-16.6-14.5-25.9c-0.2-0.5-0.1-0.6,0.4-0.7c8.9-1.2,16.9,0.9,23.3,7.3c2,1.9,3.7,4.2,4.9,6.7c1.4,2.9,3,5.8,4.8,8.4
			C81.9,800.2,82,800.4,82.1,800.6z"/>
		<path class="st12" d="M201.4,697.3c2.1,0.5,4,0.9,6,1.2c5.1,0.6,10.2,0.6,15.2-0.9c0.1-0.1,0.3-0.1,0.5-0.1
			c1.3-0.4,1.3-0.4,1.9,0.9c1.6,3.7,3,7.3,4.2,11.2c1.4,4.8,2.7,9.8,3.4,14.8c0.1,0.4,0,0.6-0.4,0.6c-4.4,0.9-8.3-0.4-11.9-2.7
			c-4.2-2.8-7.3-6.5-10.2-10.6c-1.6-2.3-2.9-4.7-4.1-7.1c-1.1-2.2-2.4-4.2-4-6.3C201.7,697.8,201.6,697.6,201.4,697.3z"/>
		<path class="st12" d="M158.7,764.7c0.5,3.4,1.2,6.6,1.9,9.8c1.4,5.5,3.1,10.9,5.9,15.8c1.6,2.8,3.6,5.3,6.4,7.1
			c0.2,0.1,0.5,0.3,0.8,0.4c0.2,0.1,0.5,0.2,0.7,0.4c-0.1,0.3-0.4,0.4-0.7,0.5c-6.1,3.5-12.3,6.6-18.7,9.6c-0.6,0.3-0.9,0.1-1.2-0.3
			c-1.8-1.7-2.5-3.9-3-6.3c-0.6-3.7-0.4-7.3,0.2-11c1.3-8.7,4-17,7.2-25.1C158.4,765.3,158.5,765.1,158.7,764.7z"/>
		<path class="st12" d="M100.9,813.6c-2.7,0.6-5.4,1.4-7.9,2.4c-3.7,1.6-7.1,3.7-10,6.5c-0.4,0.4-0.6,0.4-1.2,0.1
			c-4.8-3.6-9.2-7.5-13.3-11.9c-0.7-0.8-1.4-1.7-2.2-2.4c-0.4-0.4-0.2-0.5,0.1-0.8c1.9-1.9,4.2-3,6.8-3.2c3.6-0.4,7.1,0.3,10.5,1.5
			c2.5,0.9,4.8,2.1,7.1,3.4c2.9,1.7,6,3.1,9.1,4C100.3,813.3,100.6,813.3,100.9,813.6z"/>
		<path class="st12" d="M61.7,773.9c-1.2-0.1-2.4-0.4-3.6-0.6c-2.7-0.4-5.5-0.4-8.3-0.1c-0.9,0.1-1.8,0.2-2.7,0.4
			c-0.4,0.1-0.5-0.1-0.6-0.4c-0.9-2.7-1.6-5.5-2.2-8.4c-1.2-5.9-1.9-11.8-1.9-17.8c0-0.9,0-0.9,0.8-0.6c1.9,0.6,3.4,1.9,4.7,3.5
			c1.8,2.2,3,4.8,3.9,7.6c1.7,4.8,4.2,9,7.1,13C59.9,771.5,60.7,772.7,61.7,773.9L61.7,773.9z"/>
		<path class="st12" d="M45.7,721.2c1.2,1,1.7,2.4,2.1,3.8c0.4,1.7,0.1,3.2,0,4.9c-0.4,3.5-0.4,7,0.1,10.4c0.1,1.2,0.3,2.3,0.5,3.6
			c-1.7-1.3-3.5-2.1-5.4-2.3c-0.3-0.1-0.4-0.2-0.4-0.5C42.9,734.5,43.8,727.8,45.7,721.2z"/>
		<path class="st12" d="M61.7,773.9L61.7,773.9L61.7,773.9L61.7,773.9L61.7,773.9z"/>
		<path class="st12" d="M126.8,793.8L126.8,793.8C126.9,793.8,126.8,793.8,126.8,793.8L126.8,793.8z"/>
	</g>
</g>
<g class="st0">
	<g class="st37">
		<g>
			<circle class="st38" cx="261.2" cy="252.2" r="244.3"/>
		</g>
	</g>
	<g class="st37">
		<path class="st39" d="M259.3,101.8c0.8-0.9,1.6-1.9,2.4-2.8c1.1,1.6,2.3,3.2,3.3,5c29.2,48.2,58.3,96.5,87.3,144.8
			c0.6,1.1,1,2.4,1.5,3.8c-4.8,0.6-8.3-2.1-12.3-4c-27-12.2-53.9-24.4-80.9-36.3c0-32.9,0-65.7-0.1-98.5
			C260.6,109.6,261.4,105.6,259.3,101.8z"/>
		<path class="st40" d="M259.3,101.8c2.1,3.8,1.3,7.8,1.3,11.8c0.1,32.9,0.1,65.7,0.1,98.5c-0.4,0.3-0.6,0.6-0.9,1.1
			c-15.7,4.9-29.9,13.3-45.2,19.5c-15.3,6.3-29.5,15.3-46,19.2c6.5-16.3,17.2-30.3,26-45.3c19.1-32,38.4-63.6,57.5-95.2
			C254.3,108,255.4,104,259.3,101.8z"/>
		<path class="st41" d="M259.9,213.3c0.1-0.5,0.4-0.9,0.9-1.1c27,12.2,53.9,24.4,80.9,36.3c4,1.8,7.5,4.6,12.3,4
			c2,1.6,2.3,3.2-0.1,4.6c-31.1,17.8-61,37.8-93.2,53.9C260.3,278.4,260.2,245.8,259.9,213.3z"/>
		<path class="st42" d="M259.9,213.3c0.3,32.5,0.4,65,0.6,97.6c-30.3-17.7-60.7-35.3-91-53c-3.2-1.9-3.5-3.6-0.8-6
			c16.3-3.9,30.5-12.9,46-19.2C229.9,226.6,244.2,218.3,259.9,213.3z"/>
		<path class="st43" d="M260.7,329.8c30.3-17.8,60.8-35.7,91.1-53.5c0.5,0.5,0.9,1,1.4,1.5c-1.5,2.3-3,4.6-4.8,6.8
			c-27.1,38.3-54.3,76.5-81.5,114.7c-1.6,2.4-2,7.3-7.2,5.9C261.7,380.1,260.1,354.9,260.7,329.8z"/>
		<path class="st40" d="M260.7,329.8c-0.6,25.1,1,50.1-0.9,75.2c-14.8-17.4-26.9-36.9-40.3-55.4c-14.6-20.2-28.9-40.6-43.3-61
			c-2-2.8-4.8-5.5-5.3-12.1C201.9,295,231.3,312.5,260.7,329.8z"/>
	</g>
</g>
<g class="st0">
	<circle class="st2" cx="617.3" cy="547.5" r="336.3"/>
	<path class="st3" d="M457.2,720.3c-17.9,0-35.8,0-53.7,0c-3.6,0-7.3-0.5-10.9-1.9c-10.8-3.8-15.8-12.8-13-23.9
		c0.9-4,2.6-7.6,4.7-11.3c34.8-61.2,69.5-122.3,104.3-183.7c35.5-62.4,70.7-124.6,106.2-187c2.6-4.5,5.6-8.8,9.7-12
		c8-6.1,17-5.9,24.6,0.5c3.5,2.9,6.2,6.6,8.5,10.6c17.2,31.5,35.1,62.4,52.8,93.7c4.3,7.6,6.8,16.1,7.6,24.8
		c1.4,13-0.5,25.5-6.4,37.2c-3.5,6.9-7.6,13.4-11.5,20.1c-38.6,66.9-77,133.6-115.7,200.4c-9.9,17-25.2,27.2-44.5,31.3
		c-4,0.9-8.2,1.2-12.3,1.2C491,720.3,474.1,720.3,457.2,720.3L457.2,720.3z"/>
	<path class="st3" d="M756.2,720.3c-24.6,0-49.4,0-74.2,0c-4.2,0-8.2-0.7-12-2.1c-9.9-3.8-14.7-12.8-12.3-23.6
		c0.9-4.2,2.6-7.8,4.7-11.5c24.3-42.1,48.9-84.2,73.1-126.3c2.3-4,5-7.6,8.5-10.6c8-6.8,17.7-6.6,25.7,0c3.5,2.9,6.2,6.6,8.5,10.6
		c23.9,42.3,48,84.3,72.1,126.5c2.6,4.5,4.7,9,5,14.2c0.7,10.2-4.2,17.5-13.9,20.8c-4.3,1.4-8.7,1.7-13.2,1.7
		C804.4,720.3,780.3,720.3,756.2,720.3L756.2,720.3z"/>
</g>
</svg>
