<svg version="1.1" id="Layer_1" xmlns="http://www.w3.org/2000/svg" x="0" y="0" viewBox="0 0 953.7 883.8" style="enable-background:new 0 0 953.7 883.8" xml:space="preserve"><style>.st0{display:none}.st3{fill:#f7fcfe}.st3,.st4{display:inline}.st6{fill:#ec3e3f}.st7{fill:#fff}.st8{opacity:.3}.st11{fill:#3c1a26}.st12{fill:#29121a}.st13{fill:#421d2a}.st15{fill:#a24741}.st16{fill:#db5b54}.st17{fill:#bd967f}.st18{fill:#886b59}.st20{fill:#493239}.st23{fill:#f2716a}.st24{fill:#898989}.st25{fill:#888}.st26{fill:#d6d6d6}.st27{fill:#fdfdfd}.st30{display:inline;fill:none}.st38{fill:#e5f7fe}.st40{fill:#253d82}.st41{fill:#385cc0}.st42{fill:#3752e6}.st43{fill:#233b7b}.st44{fill:#2c45ad}.st47{fill:#e6f6fe}.st48{fill:#c9dbf9}.st49{fill:#2a4082}.st50{fill:#ecfcfe}.st53{fill:#e8f7fc}.st55{fill:#e2f5fd}.st56{fill:#eef9fd}.st62{fill:#58addf}.st106{fill:#002c7c}.st107{fill:#8e9bbe}.st116{fill:#10327d}.st120{fill:#2748e6}.st125{fill:#576999}.st127{fill:#1d3779}.st131{fill:#0e317d}.st139{fill:#ebf8fd}.st142{fill:#ceeefa}.st146{fill:#e3f5fe}.st148{fill:#e3f5fc}.st153{fill:#80d2ef}.st159{fill:#c9f0f9}.st164{fill:#3756e6}.st171{fill:#59b7f0}.st173{fill:#4c80e5}.st212{fill:#4b8cdc}.st213{fill:#3462ab}.st223{fill:#bfc6dd}.st226{fill:#94a0c3}.st231{fill:#59afdf}.st249{fill:#bfe9f8}.st256{fill:#1f44e4}.st258{fill:#285be2}.st278{fill:#325daa}.st305{fill:#5da8e3}.st323{fill:#fe4944}.st324{fill:#fe5144}.st327{fill:#fe5644}.st328{fill:#fe4145}.st329{fill:#fe3945}.st330{fill:#fe3046}.st331{fill:#fe6344}.st332{fill:#fe6144}.st333{fill:#fe5d44}.st334{fill:#fe5044}.st338{fill:#8c8c8c}.st343{fill:#f7fcfe}</style><g style="opacity:.5"><path class="st11" d="m195.2 809.8.1 25.6L156 858l-.1-25.6 39.3-22.6z"/><path class="st12" d="m156 858-69.4-40.3-.1-25.6 69.4 40.3.1 25.6z"/><path class="st13" d="m155.9 832.5-69.4-40.3 39.3-22.7 69.4 40.3-39.3 22.7z"/><path class="st11" d="m150.1 835.6.1 25.6-39.2 22.6-.1-25.6 39.2-22.6z"/><path class="st12" d="m111 883.8-69.4-40.3-.1-25.6 69.4 40.3.1 25.6z"/><path class="st13" d="m110.9 858.2-69.4-40.3 39.3-22.7 69.4 40.3-39.3 22.7z"/><path d="m193.9 765.6.1 36.5-95.3 55-.1-36.5 95.3-55z" style="fill:#de6660"/><path class="st15" d="M98.7 857.1 4 802.1v-36.5l94.7 55v36.5z"/><path class="st16" d="M98.6 820.6 4 765.6l95.3-55 94.7 55-95.4 55z"/><path class="st17" d="m193.4 692.5.2 73-95.3 55-.2-73 95.3-55z"/><path class="st18" d="m98.3 820.5-94.7-55-.2-73 94.7 55 .2 73z"/><path d="m98.1 747.6-94.7-55 95.3-55 94.7 55-95.3 55z" style="fill:#b88d73"/><path class="st7" d="M145.9 738.8v14.6l-12.7 7.3v14.6L146 768l-25.4 14.7-.1-29.2 25.4-14.7z"/><path class="st20" d="M145.9 753.4V768l-12.7 7.3v-14.6l12.7-7.3z"/><path class="st7" d="M183.3 717.3v14.6l-12.7 7.3v14.6l12.7-7.3-25.4 14.7-.1-29.2 25.5-14.7z"/><path class="st20" d="M183.3 731.9v14.6l-12.7 7.3v-14.6l12.7-7.3z"/><path class="st18" d="m41.3 838.5-.1 21.9-31.7-18.3.1-21.9 31.7 18.3z"/><path class="st17" d="m41.3 838.5 31.6-18.3-.1 21.9-31.6 18.3.1-21.9z"/><path d="m9.5 820.2 31.6-18.3 31.8 18.3-31.6 18.3-31.8-18.3z" style="fill:#caa390"/><path d="m50.8 829.4 31.6-18.3v14.6L50.8 844v-14.6z" style="fill:#c4524c"/><path class="st23" d="m0 800.1 31.6-18.3 50.8 29.3-31.6 18.3L0 800.1z"/><path class="st15" d="M50.8 829.4V844l-9.5-5.5-31.8-18.3-9.5-5.5v-14.6l50.8 29.3z"/><path class="st16" d="m193.5 659.9.1 36.5-95.3 55-.1-36.5 95.3-55z"/><path class="st15" d="m98.3 751.4-94.7-55-.1-36.5 94.7 55 .1 36.5z"/><path class="st23" d="m98.2 714.9-94.7-55 95.3-55 94.7 55-95.3 55z"/><path class="st16" d="M176.1 724.1c7.9-4.7 16.5-8.2 25.4-10.4v14.6c-8.9 2.2-17.5 5.7-25.4 10.4-9.1 5.4-17.7 11.7-25.4 18.9V743c7.8-7.2 16.3-13.5 25.4-18.9z"/><path class="st15" d="m150.8 757.6-31.5-18.3v-14.6l31.6 18.3-.1 14.6z"/><path class="st23" d="m150.7 743-31.6-18.3c7.7-7.2 16.3-13.6 25.4-18.9 9.1-5.4 25.2-10.7 25.2-10.7l31.8 18.8s-16.3 4.9-25.4 10.3c-9.1 5.3-17.6 11.6-25.4 18.8z"/><path class="st24" d="m180.6 794.8-6.3-3.7-1.7-1.2 6.3 3.7 1.7 1.2zM168.5 808.3l-6.3-3.7-3.3-2.9 6.3 3.7 3.3 2.9z"/><path class="st25" d="m104.6 824.3-6.3-3.7v-2.3l6.3 3.7v2.3z"/><path class="st26" d="M200.5 756.2v12.7l-19.9 25.9-1.7-1.2-10.5 14.7-3.3-2.9-12.5 19.4-12.6-4.9-3.3 6.7-10.6-2.5-1.7 3.1-19.9-2.9v-12.7l96-55.4z"/><path class="st25" d="m104.6 822-6.3-3.7v-10.4l6.3 3.7V822z"/><path class="st27" d="m104.5 811.6-6.3-3.7 95.9-55.4 6.3 3.7-95.9 55.4zM51.1 761.3l6.3-3.7 40.9 50.2-6.3 3.7-40.9-50.2z"/><path class="st27" d="m92 811.5 6.3-3.7 6.3 3.7-6.3 3.7-6.3-3.7z"/><path class="st26" d="m98.3 815.2 6.3-3.7v12.8l-6.3 3.7v-12.8z"/><path class="st24" d="m51.2 731.3-.1 30L92 811.5l6.4 3.7V828L51 799.2l-11.3-6.5-5.6-3.2v-12.9l5.7-21.7.1-30 11.3 6.4z"/><path class="st27" d="m51.2 731.3 6.3-3.7-.1 30-6.3 3.7.1-30z"/><path d="m39.9 724.8 6.3-3.7 11.3 6.5-6.3 3.7-11.3-6.5z" style="fill:#dcdcdc"/></g><circle cx="261.2" cy="252.2" r="252.2" style="fill:#fef5f6"/><path d="M214.8 117.4c5-10.3 10.2-20.5 20.2-27.2 21.2-14.3 50.4-9.7 64.2 11.8 12.3 19.1 22.1 39.6 32.4 59.9-4.3 3.1-7.4 7.3-11.3 10.7-8.4 7.5-17.4 14.1-28.2 17.9-.5-1.9 1.8-4-.5-5.9-7.3-6.3-14.7-12.5-21.7-19.1-3.4-3.3-8-4.8-10.9-8.5-5-6.3-12.3-10-17.6-15.9-4.7-5.3-11.2-8.2-15.9-13.5-3.2-3.8-7.1-6.9-10.7-10.2z" style="fill:#fe4546"/><path class="st323" d="M423.4 333.2c2.7 6.6 7.6 12 10.1 18.7-2.2.4-4.6 1.4-6.7 1-11-2.3-22.1.7-33.1-.8-7.8-1-15.6 1.5-23.5.9-6.7-.5-13.4-1.1-20-.9-9.2.3-18.4.1-27.6-.1-8.2-.2-16.4.1-24.6.3-4.8.1-10.2-.5-14.9 1.8-13.7-6.2-27.5-6.5-41.4-.8-2.2-1.3-4.7-1.3-7.1-1.3-37.1.4-74.2-.4-111.4.6-11.2.3-22.4-.5-33.7-.6 3-6.4 6.3-12.7 10-18.7 2.4.1 4.9.5 7.3.6 16.9.3 33.8.4 50.7 0 3.7-.1 7.6-1.1 11.2-.4 6.9 1.2 13.7.6 20.6.8 18.4.6 36.7-1 55.1-.1 8.5.4 17 .1 25.6.1 22.2 0 44.4-.5 66.6-.6 9.1 0 18.3-.6 27.5.4 10.8 1.1 21.6-1 32.5.1 8.8.9 17.7-1.4 26.8-1z"/><path class="st324" d="M423.4 333.2c-9-.4-17.9 1.9-26.9 1-10.9-1.1-21.8 1-32.5-.1-9.2-1-18.4-.4-27.5-.4-22.2 0-44.4.5-66.6.6-8.5 0-17.1.3-25.6-.1-18.4-.9-36.7.7-55.1.1-6.8-.2-13.7.4-20.6-.8-3.6-.6-7.5.3-11.2.4-16.9.4-33.8.3-50.7 0-2.4 0-4.8-.5-7.3-.6 2.8-6.1 6-12 9.5-17.7 4.5 1.7 9 .1 13.5 0 23.6-.6 47.2 1 70.8.1 10-.4 20 .5 30 0 10.9-.6 21.8.6 32.7.1 14.6-.6 29.3-.2 44-.2h55.3c6.5 0 12.9.5 19.4.2 13.1-.6 26.2-.2 39.3-.2 3.5 5.7 6.8 11.5 9.5 17.6z"/><path d="M214.8 117.4c3.6 3.3 7.5 6.4 10.8 10.1 4.7 5.3 11.2 8.2 15.9 13.5 5.3 5.9 12.6 9.7 17.6 15.9 3 3.7 7.5 5.3 10.9 8.5 6.9 6.7 14.4 12.9 21.7 19.1 2.3 2 0 4 .5 5.9v1c-2-.2-3.8.6-5.6 1.3-13.7 4.9-27.9 5.6-42.3 4-9.5-1.1-18.1-4.9-26.9-8.2-2.7-1.5-5.3-3-8-4.4-8.1-4.3-13.8-11.7-20.8-17.3 8.6-16.5 17.4-33 26.2-49.4z" style="fill:#fe3e46"/><path d="M414 315.6c-13.1 0-26.2-.4-39.3.2-6.5.3-13-.2-19.4-.2H300c-14.7 0-29.4-.5-44 .2-10.9.5-21.8-.6-32.7-.1-10 .5-20-.4-30 0-23.6.9-47.2-.7-70.8-.1-4.5.1-9 1.7-13.5 0 1.8-4.5 4.1-8.8 6.7-12.9 33.6 0 67.1 0 100.7.1 2.3 0 4.1-.8 5.8-2 1.3.3 2.6.4 3.8.8 16.7 5.8 33.7 6.6 51 3.3 6.9-1.3 13.2-4.6 20-6.1 13.7 1.5 27.5 2.5 41.3 1.4 4.1-.3 8.1-.7 12.2.1 4.9.9 9.9 1 14.7.1 4.1-.7 8.2-.8 12.2-.5 9.4.8 18.8 1 28.2.8 3.4 4.6 6 9.7 8.4 14.9z" style="fill:#fe5844"/><path class="st327" d="M144.3 249.5c.7-2.1 1.4-4.3 3.1-5.9 3.5 2.1 7.3.7 11 .9 8.7.5 17.4 1.2 26.1.7 6.7-.4 13.2-.6 19.9-.1 3.9.3 8.4 1.3 12.1-1.5 2.5 0 4.7 1.1 7 2 10.8 4.6 22.2 6.5 33.7 6.7 9.9.2 19.7-1.6 29.2-4.8-.2 2.5 1.2 3.2 3.4 2.9 5.8-.6 11.6.4 17.5.2 15.4-.6 30.8-.1 46.2-.3 3 0 4.2 1 3.9 4-1.8.7-3.7 1.3-5.3 2.3-5.5 3.4-10.9 7-16.3 10.5-.4-3.4-2.9-3-5.2-2.9-11 .3-22.1 1.3-33.1.7-9.6-.5-19.2-.3-28.8-.1-4.3.1-8.7 1-13 .1-7.6-1.5-15.4-.5-23-.3-9.3.3-18.6-.3-27.9.3-6 .4-12.2-.4-18.3-.8-2.5-.2-4.5.5-6.3 2-1.3-.6-2.9-.8-4-1.7-9.6-7.5-20.6-11.6-31.9-14.9z"/><path class="st328" d="M283 354.1c4.8-2.3 10.1-1.7 14.9-1.8 8.2-.2 16.4-.5 24.6-.3 9.2.2 18.4.4 27.6.1 6.7-.2 13.4.4 20 .9 7.9.6 15.7-1.9 23.5-.9 11 1.5 22.1-1.5 33.1.8 2.1.4 4.5-.6 6.7-1 3.5 5.8 6 12 6.3 18.9h-46c-8.8 0-17.5.7-26.3.2-10.3-.7-20.8.6-31.1.5-9.1-.1-18.2-1.4-27.3.6-9.1-5.3-17.3-12-26-18zM89.4 352c11.2.1 22.5.9 33.7.6 37.1-1 74.2-.2 111.4-.6 2.5 0 4.9-.1 7.1 1.3-10.2 4.5-17.6 13.1-27.2 18.5-1.2-2.5-3.5-2-5.6-2H83.3c.2-6.6 2.7-12.3 6.1-17.8z"/><path class="st329" d="M309.1 372c9.1-2.1 18.1-.7 27.3-.6 10.3.1 20.8-1.2 31.1-.5 8.8.6 17.5-.2 26.3-.2h46c.9 7.5.3 14.8-3 21.7-1.8-.3-3.5-.9-5.3-.9-29.4-.1-58.7 0-88.1 0-1.8 0-3.8-.3-4.1 2.3-10.2-7.2-20.9-13.5-30.2-21.8zM83.3 369.7h125.5c2.1 0 4.4-.5 5.6 2-8.9 6.9-18.2 13.5-27.6 19.7-1.8-2.2-4.3-2-6.7-2H91.2c-2 0-3.9-.1-5.7 1-2.6-6.7-4.5-13.5-2.2-20.7z"/><path class="st327" d="M217.3 188.5c8.8 3.2 17.4 7.1 26.9 8.2 14.4 1.7 28.5.9 42.3-4 1.9-.7 3.6-1.5 5.6-1.3 1.5 1.8 3.6 2 5.8 2h45c1.8 0 3.7.4 4.8-1.7 2.5 3.2 3.8 7 5.6 10.5-5.5.1-8.6 4.6-12.9 6.9.2-3.4-2.3-2.9-4.3-2.9H180.2c-2.1 0-3.9.3-5.2 2-2.6-.2-4.2-3-6.9-3 1.8-4.9 4.6-9.3 7.2-13.8 11.6 0 23.1-.1 34.7 0 2.9.1 5.4-.5 7.3-2.9z"/><path class="st330" d="M85.4 390.4c1.8-1.1 3.8-1 5.7-1H180c2.5 0 5-.2 6.7 2-10.7 7.7-21.2 15.7-32.1 23-24.6 16.4-58.4 5.3-68.8-22.2-.2-.5-.3-1.2-.4-1.8zM339.3 393.7c.3-2.6 2.3-2.3 4.1-2.3h88.1c1.8 0 3.5.6 5.3.9-4.5 11.4-12.3 19.8-23.3 25.1-13.7 6.6-27.7 6.8-40.9-.6-11.9-6.5-22.7-14.7-33.3-23.1z"/><path class="st331" d="M144.3 249.5c11.4 3.2 22.3 7.4 31.6 15.1 1.1.9 2.6 1.2 4 1.7 5.2 5.7 9.8 11.8 15.8 16.7 1.5 2.4 4.8 3.1 5.9 5.9-4.2 1.5-8.6.8-12.8.9-19.6.3-39.3.1-58.9.1-2.3 0-4.5-.3-6.7-1 6.7-13.2 13.5-26.5 21.1-39.4zM335.5 267.3c5.4-3.5 10.8-7.1 16.3-10.5 1.6-1 3.6-1.5 5.3-2.3 6.7-2.8 13.3-6 20.9-6 7 11.9 13.5 24.1 19.6 36.5-2.5.7-5 1.2-7.7.9-6.9-.9-14-.7-20.7-.4-14.7.7-29.3 0-44 .4-2.4.1-4.6-.7-4.5-3.9 4.2-5.6 9.9-9.7 14.8-14.7z"/><path class="st332" d="M168 205.2c2.7 0 4.3 2.7 6.9 3 3 4 7.3 6.4 10.8 9.8 5.1 5.8 10.2 11.6 16.7 15.8.7 1.8 2.6 2.3 4 3.3 3.3 2.2 7.3 3.3 9.8 6.5-3.7 2.8-8.2 1.8-12.1 1.5-6.7-.4-13.2-.2-19.9.1-8.7.5-17.4-.3-26.1-.7-3.7-.2-7.5 1.1-11-.9 6.8-13 13.5-25.8 20.9-38.4z"/><path class="st333" d="M320.7 282.1c-.2 3.2 2 4 4.5 3.9 14.7-.4 29.3.2 44-.4 6.8-.3 13.8-.5 20.7.4 2.7.3 5.2-.2 7.7-.9 3 5.1 6.3 10 8 15.7-9.4.2-18.8 0-28.2-.8-4-.3-8.1-.2-12.2.5-4.8.9-9.8.8-14.7-.1-4.1-.8-8.1-.4-12.2-.1-13.8 1.1-27.6.1-41.3-1.4.7-.7 1.2-1.5 2.1-1.9 6.8-3.4 13-7.7 18.6-12.8 1-.8 2-1.5 3-2.1zM123 289c2.2.7 4.4 1 6.7 1 19.6-.1 39.3.1 58.9-.1 4.3-.1 8.7.6 12.8-.9 6.9 3.9 13.8 7.9 20.7 11.8-1.7 1.3-3.5 2-5.8 2-33.6-.1-67.1-.1-100.7-.1 2.1-4.8 4.7-9.3 7.4-13.7zM378 248.5c-7.5 0-14.1 3.2-20.9 6 .4-3-.8-4-3.9-4-15.4.1-30.8-.3-46.2.3-5.9.2-11.6-.9-17.5-.2-2.1.2-3.6-.4-3.4-2.9 1.7-.6 3.4-1.2 5-1.9 7.7-3.4 15.5-6.7 21.6-12.9h1c.6.6 1.1 1.5 1.7 1.6 8.1 1.2 16.3 1.7 24.5.8 3.3-.3 6.4-.3 9.7-.3 7 .1 14.1 2 21.1-.2 2.8 4.4 5.4 8.9 7.3 13.7z"/><path class="st331" d="M370.7 234.8c-7 2.2-14 .4-21.1.2-3.2-.1-6.4-.1-9.7.3-8.2.9-16.4.4-24.5-.8-.6-.1-1.1-1.1-1.7-1.6 5.3-4.2 10.6-8.4 14.8-13.8 4-3.2 7.4-7.2 11.8-9.9 4.3-2.3 7.4-6.8 12.9-6.9 6.3 10.6 12.1 21.4 17.5 32.5z"/><path class="st333" d="M347.7 191.7c-1.1 2.1-3 1.7-4.8 1.7h-45c-2.2 0-4.3-.2-5.8-2v-1c10.8-3.8 19.8-10.3 28.2-17.9 3.9-3.5 7-7.7 11.3-10.7 5.9 9.8 11.1 19.8 16.1 29.9z"/><path class="st332" d="M217.3 188.5c-1.9 2.4-4.4 3-7.3 3-11.6-.1-23.1 0-34.7 0 4.4-8.2 8.8-16.5 13.2-24.7 7.1 5.6 12.7 13 20.8 17.3 2.7 1.4 5.3 2.9 8 4.4z"/><path class="st323" d="M222.2 300.8c-6.9-3.9-13.8-7.9-20.7-11.8-1.1-2.8-4.4-3.5-5.9-5.9 1.2-2.5 3.5-2 5.6-2h110.9c2.3 0 5.2-.8 5.7 2.9-5.6 5.1-11.8 9.5-18.6 12.8-.8.4-1.4 1.3-2.1 1.9-6.8 1.4-13.1 4.7-20 6.1-17.4 3.4-34.3 2.6-51-3.3-1.3-.3-2.6-.4-3.9-.7z"/><path class="st334" d="M317.7 284c-.5-3.7-3.4-2.9-5.7-2.9H201.1c-2.1 0-4.4-.6-5.6 2-5.9-4.9-10.6-11.1-15.8-16.7 1.9-1.5 3.9-2.2 6.3-2 6.1.4 12.2 1.3 18.3.8 9.3-.7 18.6-.1 27.9-.3 7.6-.2 15.4-1.3 23 .3 4.3.9 8.7 0 13-.1 9.6-.2 19.1-.4 28.8.1 11 .6 22.1-.4 33.1-.7 2.3-.1 4.8-.4 5.2 2.9-4.8 5-10.6 9.1-14.8 14.8-.8.5-1.8 1.2-2.8 1.8z"/><path d="M312.8 232.8c-6 6.2-13.9 9.5-21.6 12.9-1.6.7-3.3 1.3-5 1.9-9.5 3.3-19.2 5-29.2 4.8-11.6-.2-23-2.2-33.7-6.7-2.2-1-4.5-2-7-2-2.6-3.3-6.6-4.3-9.8-6.5-1.4-1-3.3-1.5-4-3.3.8-3.3 3.5-2.9 5.9-2.9h99.3c2-.1 4.1-.5 5.1 1.8z" style="fill:#fe4744"/><path class="st324" d="M340.4 209.2c-4.4 2.7-7.8 6.7-11.8 9.9.2-3.9-2.4-4-5.2-4H191.5c-2.3 0-5.2-.8-5.7 2.9-3.5-3.4-7.8-5.9-10.8-9.8 1.3-1.7 3.1-2 5.2-2h155.9c2 0 4.5-.5 4.3 3z"/><path class="st334" d="M185.8 218c.5-3.7 3.4-2.9 5.7-2.9H323.4c2.8 0 5.5 0 5.2 4-4.1 5.4-9.5 9.6-14.8 13.8h-1c-1.1-2.3-3.1-2-5.1-2h-99.3c-2.4 0-5.1-.3-5.9 2.9-6.6-4.2-11.6-10-16.7-15.8z"/><g><circle cx="617.3" cy="547.5" r="336.3" style="fill:#e74342"/><path class="st343" d="M457.2 720.3h-53.7c-3.6 0-7.3-.5-10.9-1.9-10.8-3.8-15.8-12.8-13-23.9.9-4 2.6-7.6 4.7-11.3 34.8-61.2 69.5-122.3 104.3-183.7 35.5-62.4 70.7-124.6 106.2-187 2.6-4.5 5.6-8.8 9.7-12 8-6.1 17-5.9 24.6.5 3.5 2.9 6.2 6.6 8.5 10.6 17.2 31.5 35.1 62.4 52.8 93.7 4.3 7.6 6.8 16.1 7.6 24.8 1.4 13-.5 25.5-6.4 37.2-3.5 6.9-7.6 13.4-11.5 20.1-38.6 66.9-77 133.6-115.7 200.4-9.9 17-25.2 27.2-44.5 31.3-4 .9-8.2 1.2-12.3 1.2h-50.4zM756.2 720.3H682c-4.2 0-8.2-.7-12-2.1-9.9-3.8-14.7-12.8-12.3-23.6.9-4.2 2.6-7.8 4.7-11.5 24.3-42.1 48.9-84.2 73.1-126.3 2.3-4 5-7.6 8.5-10.6 8-6.8 17.7-6.6 25.7 0 3.5 2.9 6.2 6.6 8.5 10.6 23.9 42.3 48 84.3 72.1 126.5 2.6 4.5 4.7 9 5 14.2.7 10.2-4.2 17.5-13.9 20.8-4.3 1.4-8.7 1.7-13.2 1.7-23.8.3-47.9.3-72 .3z"/></g></svg>