<svg version="1.1" id="Layer_1" xmlns="http://www.w3.org/2000/svg" x="0" y="0" viewBox="0 0 953.7 883.8" style="enable-background:new 0 0 953.7 883.8" xml:space="preserve"><style>.st7{fill:#fff}.st11{fill:#3c1a26}.st12{fill:#29121a}.st13{fill:#421d2a}.st15{fill:#a24741}.st16{fill:#db5b54}.st17{fill:#bd967f}.st18{fill:#886b59}.st20{fill:#493239}.st23{fill:#f2716a}.st24{fill:#898989}.st25{fill:#888}.st26{fill:#d6d6d6}.st27{fill:#fdfdfd}.st40{fill:#9190c6}.st41{fill:#5a61ab}.st42{fill:#7779b8}.st43{fill:#ffd833}.st44{fill:#b4a1b8}</style><circle cx="261.2" cy="252.2" r="252.2" style="fill:#e74342"/><path d="M141.2 381.7h-40.3c-2.7 0-5.5-.4-8.2-1.4-8.1-2.9-11.9-9.6-9.8-18 .7-3 2-5.7 3.5-8.5 26.1-45.9 52.1-91.8 78.2-137.8 26.6-46.8 53-93.4 79.6-140.2 2-3.4 4.2-6.6 7.3-9 6-4.6 12.8-4.4 18.5.4 2.6 2.2 4.7 5 6.4 8 12.9 23.6 26.3 46.8 39.6 70.2 3.3 5.7 5.1 12.1 5.7 18.6 1 9.8-.4 19.2-4.8 27.9-2.6 5.2-5.7 10-8.6 15.1-28.9 50.2-57.7 100.2-86.8 150.3-7.4 12.8-18.9 20.3-33.4 23.5-3 .7-6.1.9-9.3.9h-37.6zm224.1 0h-55.7c-3.1 0-6.1-.5-9-1.6-7.4-2.9-11.1-9.6-9.3-17.7.7-3.1 2-5.9 3.5-8.6 18.2-31.5 36.6-63.1 54.9-94.8 1.7-3 3.8-5.7 6.4-8 6-5.1 13.3-5 19.3 0 2.6 2.2 4.7 5 6.4 8 18 31.7 36 63.2 54.1 94.9 2 3.4 3.5 6.8 3.8 10.7.5 7.7-3.1 13.2-10.4 15.6-3.3 1-6.5 1.3-9.9 1.3-18 .2-35.9.2-54.1.2z" style="fill:#f7fcfe"/><g style="opacity:.5"><path class="st11" d="m195.2 809.8.1 25.6L156 858l-.1-25.6 39.3-22.6z"/><path class="st12" d="m156 858-69.4-40.3-.1-25.6 69.4 40.3.1 25.6z"/><path class="st13" d="m155.9 832.5-69.4-40.3 39.3-22.7 69.4 40.3-39.3 22.7z"/><path class="st11" d="m150.1 835.6.1 25.6-39.2 22.6-.1-25.6 39.2-22.6z"/><path class="st12" d="m111 883.8-69.4-40.3-.1-25.6 69.4 40.3.1 25.6z"/><path class="st13" d="m110.9 858.2-69.4-40.3 39.3-22.7 69.4 40.3-39.3 22.7z"/><path d="m193.9 765.6.1 36.5-95.3 55-.1-36.5 95.3-55z" style="fill:#de6660"/><path class="st15" d="M98.7 857.1 4 802.1v-36.5l94.7 55v36.5z"/><path class="st16" d="M98.6 820.6 4 765.6l95.3-55 94.7 55-95.4 55z"/><path class="st17" d="m193.4 692.5.2 73-95.3 55-.2-73 95.3-55z"/><path class="st18" d="m98.3 820.5-94.7-55-.2-73 94.7 55 .2 73z"/><path d="m98.1 747.6-94.7-55 95.3-55 94.7 55-95.3 55z" style="fill:#b88d73"/><path class="st7" d="M145.9 738.8v14.6l-12.7 7.3v14.6L146 768l-25.4 14.7-.1-29.2 25.4-14.7z"/><path class="st20" d="M145.9 753.4V768l-12.7 7.3v-14.6l12.7-7.3z"/><path class="st7" d="M183.3 717.3v14.6l-12.7 7.3v14.6l12.7-7.3-25.4 14.7-.1-29.2 25.5-14.7z"/><path class="st20" d="M183.3 731.9v14.6l-12.7 7.3v-14.6l12.7-7.3z"/><path class="st18" d="m41.3 838.5-.1 21.9-31.7-18.3.1-21.9 31.7 18.3z"/><path class="st17" d="m41.3 838.5 31.6-18.3-.1 21.9-31.6 18.3.1-21.9z"/><path d="m9.5 820.2 31.6-18.3 31.8 18.3-31.6 18.3-31.8-18.3z" style="fill:#caa390"/><path d="m50.8 829.4 31.6-18.3v14.6L50.8 844v-14.6z" style="fill:#c4524c"/><path class="st23" d="m0 800.1 31.6-18.3 50.8 29.3-31.6 18.3L0 800.1z"/><path class="st15" d="M50.8 829.4V844l-9.5-5.5-31.8-18.3-9.5-5.5v-14.6l50.8 29.3z"/><path class="st16" d="m193.5 659.9.1 36.5-95.3 55-.1-36.5 95.3-55z"/><path class="st15" d="m98.3 751.4-94.7-55-.1-36.5 94.7 55 .1 36.5z"/><path class="st23" d="m98.2 714.9-94.7-55 95.3-55 94.7 55-95.3 55z"/><path class="st16" d="M176.1 724.1c7.9-4.7 16.5-8.2 25.4-10.4v14.6c-8.9 2.2-17.5 5.7-25.4 10.4-9.1 5.4-17.7 11.7-25.4 18.9V743c7.8-7.2 16.3-13.5 25.4-18.9z"/><path class="st15" d="m150.8 757.6-31.5-18.3v-14.6l31.6 18.3-.1 14.6z"/><path class="st23" d="m150.7 743-31.6-18.3c7.7-7.2 16.3-13.6 25.4-18.9 9.1-5.4 25.2-10.7 25.2-10.7l31.8 18.8s-16.3 4.9-25.4 10.3c-9.1 5.3-17.6 11.6-25.4 18.8z"/><path class="st24" d="m180.6 794.8-6.3-3.7-1.7-1.2 6.3 3.7 1.7 1.2zm-12.1 13.5-6.3-3.7-3.3-2.9 6.3 3.7 3.3 2.9z"/><path class="st25" d="m104.6 824.3-6.3-3.7v-2.3l6.3 3.7v2.3z"/><path class="st26" d="M200.5 756.2v12.7l-19.9 25.9-1.7-1.2-10.5 14.7-3.3-2.9-12.5 19.4-12.6-4.9-3.3 6.7-10.6-2.5-1.7 3.1-19.9-2.9v-12.7l96-55.4z"/><path class="st25" d="m104.6 822-6.3-3.7v-10.4l6.3 3.7V822z"/><path class="st27" d="m104.5 811.6-6.3-3.7 95.9-55.4 6.3 3.7-95.9 55.4zm-53.4-50.3 6.3-3.7 40.9 50.2-6.3 3.7-40.9-50.2z"/><path class="st27" d="m92 811.5 6.3-3.7 6.3 3.7-6.3 3.7-6.3-3.7z"/><path class="st26" d="m98.3 815.2 6.3-3.7v12.8l-6.3 3.7v-12.8z"/><path class="st24" d="m51.2 731.3-.1 30L92 811.5l6.4 3.7V828L51 799.2l-11.3-6.5-5.6-3.2v-12.9l5.7-21.7.1-30 11.3 6.4z"/><path class="st27" d="m51.2 731.3 6.3-3.7-.1 30-6.3 3.7.1-30z"/><path d="m39.9 724.8 6.3-3.7 11.3 6.5-6.3 3.7-11.3-6.5z" style="fill:#dcdcdc"/></g><g id="CfKq22_1_"><path class="st40" d="M505.5 883.8c.1-13.8-.1-27.6.6-41.3.5-9.9-3.6-13.1-13-12.5-8.8.6-17.8-.7-26.5.3-13.1 1.5-16.1-5.6-16.7-16.4-.8-14.1 2.9-28.6-3.9-42.1.8-3.2 3.5-3.5 6.1-3.8 1.3 2.5 3.5 3 6.1 3-4.4 17-8.1 36.6.2 50.3 6 9.8 25.8 1.7 39.3 3.2 1.5.2 3 0 4.4-.1 3.3-.2 6.2-1.7 6.1-5.1-.5-15.1 3.6-30.5-2.7-45.3-2.9-5-6.3-8.6-11.8-2.9-7.9 0-15.8 0-23.7-.1-2-3.1-4-3.1-5.9.1h-5.9c-.1-3.4.6-7-3.3-9v-38.6c11.2-5.4 23.1-1.9 34.7-3 4.9-.5 11.3 2.3 13.4-5.3 4.2-5.2 2.5-11.4 2.5-17.2.1-62.8 0-125.6.2-188.3 0-8.1-1.5-18.1 11.9-17.4 0 .8 0 1.7.1 2.5-6.3 3.1-7.4 8.8-7.4 15-.3 82.6-.6 165.1-1.1 247.7-.1 10 3.3 14.1 13.8 14 64.3-.3 128.6-.2 192.9 0 9.7 0 14.8-2.7 14.6-13.4-.5-23.2-.6-46.4-.5-69.6.2-62.8.5-125.6.7-188.3 5.8 4.5 3.5 10.9 3.5 16.6.2 63.3.4 126.6-.1 189.9-.1 11.5 3.7 15.4 14.6 13.3 12 2.4 24.7-2.3 36.3 3.6 0 2 0 3.9.1 5.9-2.6 10.9-6.3 21.8 0 32.6.1 2 .2 3.9.3 5.9-13.2 0-26.5 0-39.7.2-4.6.1-10.4-1.5-11.3 5.9-6.2 14.6-2.4 29.8-2.8 44.8-.2 5.3 4.5 5.7 8.5 5.7 14.6-.2 29.3-.5 43.9-.8l1.7 1.7c-8.3 9.8-19.4 4-29 4.4-22.8 1-22.9.3-22.9 22.9 0 10.4.3 20.7.5 31.1h-5.9c0-13.4-.3-26.7.1-40.1.3-11.1-4.2-16.5-15.7-16.5-61.8.1-123.7.1-185.5 0-11.5 0-15.9 5.5-15.6 16.5.3 13.3.1 26.7.1 40.1-2.3-.1-4.3-.1-6.3-.1zm-50.3-608.3c3-10.2 11.4-5.4 17.2-5.5 38.6-.9 33.2 4.7 33.6-33.4.1-6.8-.3-13.7-.4-20.5h5.9c0 14.3 0 28.6.1 42.9.1 8.5 3.1 13.7 13.1 13.7 63.6-.2 127.3-.2 190.9 0 10 0 12.8-4.7 12.6-13.7-.3-14.3-.1-28.6 0-42.9h5.9c-.2 13.7-.1 27.3-.6 41-.3 9.6 4.1 13.2 13.3 12.8 8.8-.4 17.6-.3 26.4-.1 4.5.1 10.3-1.9 11.7 5.4-13.7.1-27.3.4-41 .1-9.3-.2-13.3 3.6-13.1 13 .3 11.7-.2 23.4-.3 35.1-63.7-.1-127.4-.5-191.1-.1-10.1.1-20.3-5.6-30.3.1-.1-12.3-.6-24.6-.2-36.8.3-8.2-2.6-11.6-11-11.3-14.3.2-28.5.1-42.7.2z"/><path class="st41" d="M900.3 438.1c17.8.2 35.6.3 53.4.5v219.6c-13.3 0-26.6-.7-39.9.2-13.1.9-17-4.2-16.9-17 .5-59.1.3-118.2.1-177.2 0-8.9.7-17.6 3.3-26.1zM285.9 658.2V441.6c14.3 0 28.7.3 43-.1 9.2-.3 13.6 2.9 13.6 12.7-.2 63.8-.2 127.6 0 191.3 0 10-4.5 12.9-13.6 12.7-14.3-.2-28.7 0-43 0zM728.1 216c0 14.3-.3 28.6 0 42.9.2 9-2.6 13.7-12.6 13.7-63.6-.2-127.3-.2-190.9 0-10 0-13-5.2-13.1-13.7-.1-14.3-.1-28.6-.1-42.9h216.7zM511.5 883.8c0-13.4.3-26.7-.1-40.1-.3-11 4.1-16.5 15.6-16.5 61.8.1 123.7.1 185.5 0 11.4 0 16 5.4 15.7 16.5-.4 13.3-.1 26.7-.1 40.1H511.5z"/><path class="st40" d="M285.9 658.2c14.3 0 28.7-.2 43 .1 9.1.2 13.6-2.8 13.6-12.7-.2-63.8-.2-127.6 0-191.3 0-9.9-4.4-13-13.6-12.7-14.3.4-28.7.1-43 .1v-5.9c13.2.2 26.4 0 39.5.7 11.1.6 14.8-4.5 14.2-14.9-.5-8.8-.1-17.6-.1-26.4 0-4.4-.6-9.1 5.4-10.4.1 1.2.3 2.4.4 3.6 0 15.8-.1 31.6-.1 47.4 2.6 6.5 8.3 6 13.8 6 10.4.1 20.7.3 31.1.4-.1 67.1 0 134.2-.3 201.2 0 6.1 1.7 11.6 3.3 17.3-3.4.1-6.9.4-10.3.4-38.6.3-38.6.3-37.7 39.2 0 1 .1 2 0 3-.5 8.2 3.5 11.3 11.6 11.3 9.3 0 18.7-1.4 27.9 1.2-12.5 8.4-26 3.8-39.1 2.4-3.2-.4-5.2-4.2-5.7-7.9-.1-1-.2-2-.2-2.9-1.2-14 6.6-33.8-3.4-40.5-13.2-8.8-33.1-2.6-50.2-2.4-.1-2.3-.1-4.3-.1-6.3zm614.4-220.1c-2.6 8.5-3.3 17.2-3.3 26.1.2 59.1.4 118.2-.1 177.2-.1 12.8 3.7 17.9 16.9 17 13.2-.9 26.6-.2 39.9-.2v5.9c-13.8-.2-27.6.1-41.3-.7-10.1-.5-12.9 3.9-12.4 13.1.5 9.3.2 18.7.1 28.1 0 4.3 1.1 9.3-5.5 10.1 0-14.3-.4-28.6.1-42.8.3-8.3-2.9-11.4-11.2-11.1-12.3.4-24.6-.1-36.9-.3V439.3c17.1-2.6 34.8 2.9 51.6-3.9 1.5.3 2.4 1 2.1 2.7z"/><path class="st41" d="M785.1 768c-.1-2-.2-3.9-.3-5.9 4.3-10.9 4.4-21.8 0-32.6 0-2 0-3.9-.1-5.9l17.7-8.7c1.9 0 3.8 0 5.8.1 10.5 5.6 22.9.3 33.4 5.8-.1 11.4-.5 22.7-.2 34.1.4 12.9-6.1 17.4-18.1 17.1-9.9-.3-19.8.1-29.7.1-.8-3.2-3.3-3.5-6-3.8-.8-.3-1.6-.4-2.5-.3zm61.4-107.4c12.3.1 24.6.6 36.9.3 8.2-.2 11.4 2.8 11.2 11.1-.4 14.3-.1 28.5-.1 42.8-.7.5-1.4.8-2.2.9-2.7-1.1-5.4-1.1-8.1.3-11.6.1-23.1.2-34.7.2-1.9-.8-3.8-1.5-5.7-2.3-.1-16.7-.1-33.5-.2-50.2 1.1-.9 2-2 2.9-3.1z"/><path class="st42" d="M843.8 663.9c.1 16.7.1 33.5.2 50.2-.1 2-.1 4.1-.2 6.1l-1 .7-1.2-.1c-10.5-5.5-22.9-.1-33.4-5.8 3.1-4.4 7.9-3.8 12-3.1 15.6 2.6 19.6-4.6 18-18.8-1-8.6-.3-17.5-.4-26.2 1.3-2.3 3.5-2.9 6-3z"/><path class="st40" d="M787.6 768.2c2.6.2 5.2.6 6 3.8-6.9 11.9-2.8 24.9-4 37.4-.5 5.5 2.5 12.1-4.2 16-.6-.6-1.1-1.2-1.7-1.7l.3-49.5c2.6-1.2 3.5-3.3 3.6-6zm56.2-48c.1-2 .1-4.1.2-6.1 1.9.7 3.8 1.5 5.7 2.3-.7 3.2-3.1 3.8-5.9 3.8zm40.5-4.1c2.6-1.4 5.3-1.4 8.1-.3-2.5 4.7-5.2 4.6-8.1.3z"/><path class="st41" d="M898.1 435.5c-16.8 6.8-34.5 1.3-51.6 3.9-.9-1.2-1.9-2.3-2.8-3.5l.6-50.2c17.4 0 34.9-.1 52.3-.1 5.3 16.5-.3 33.4 1.5 49.9zM794 328.1c12.3 0 24.7.1 37-.1 7.5-.1 10.7 3.3 10.7 10.7-.2 12.3 0 24.7.1 37-.5 1-1 2.1-1.5 3.1-13.2 4.6-26.9 3.4-40.5 3.4-5.7 0-11.8-.6-11.8-7.7 0-15-3.3-30.2 3-44.8 1-.6 2-1.1 3-1.6zm-63.6-4.8c.2-11.7.6-23.4.3-35.1-.2-9.4 3.8-13.2 13.1-13 13.6.3 27.3 0 41-.1v.1c.3 3.4.5 6.7.8 10.1v7.1c-2.9 11-.7 22.3-1.5 33.5l-50.3.3c-1.2-1.1-2.3-2-3.4-2.9z"/><path class="st40" d="M840.3 378.8c.5-1 1-2.1 1.5-3.1 10.7 7.1 22.9 3.7 34.4 4.4 7.2.4 15-1.4 20.4 5.6-17.4.1-34.9.1-52.3.1-1.4-2.4-2.7-4.7-4-7zm-56.2-53c.8-11.1-1.4-22.4 1.5-33.5 6.1 3.6 3.9 9.6 3.9 14.6 0 7.4.1 14.7 4.5 21.1-1 .5-2.1 1.1-3.1 1.6-2.2-1.2-4.5-2.5-6.8-3.8zm1.5-40.6c-.3-3.4-.5-6.7-.8-10.1 7.3 2.9 5.9 6.3.8 10.1z"/><path class="st41" d="M455.2 275.5c14.2-.1 28.5.1 42.7-.4 8.4-.3 11.3 3.1 11 11.3-.4 12.3.1 24.5.2 36.8-1.9 1.1-3.9 2.1-5.8 3.2-15.9-.3-31.8-.5-47.6-.8l-1.2-47.9c-.1-.8.2-1.6.7-2.2zm-57.3 100.2c0-10.8.6-21.6-.2-32.3-1-12.6 4.4-16.5 16.3-15.6 10.7.8 21.5.1 32.3 0-.5.5-.7 1-.4 1.7 5.9 12.7 2.5 26.2 3.5 39.3.7 8.7-3.6 11.1-11.5 10.8-12.8-.6-25.6-.5-38.3-.8-.6-1.1-1.2-2.1-1.7-3.1z"/><path class="st40" d="m454.3 277.7 1.2 47.9c-2.3 3.5-6.3 3.1-9.7 4-.2-.7-.1-1.2.4-1.7 5.6-11 2.9-22.9 3.7-34.5.5-5.5-2.8-12.1 4.4-15.7zm-56.4 98c.5 1 1.1 2 1.6 3.1-1.3 2.3-2.6 4.7-3.9 7h-47.4c-.2-.7-.3-1.3-.3-2 4.1-6.6 10.6-3 16-3.5 11.4-1.1 23.4 2.3 34-4.6z"/><path class="st42" d="M345.4 388.3c-.1-1.2-.3-2.4-.4-3.6 1-.3 2-.7 2.9-1 0 .7.1 1.4.3 2-.9.9-1.9 1.7-2.8 2.6z"/><path class="st41" d="M452.1 768c-2.6.3-5.2.7-6.1 3.8-13.8 0-27.6-.1-41.4-.1-.9-3.5-3.2-5.7-6.6-6.7-.1-13.8-.1-27.6-.2-41.3 4.1-8.2 10.3-11.2 19-7.5 6.1 2.6 11.5-1 17.3-1.4.6 4 3.1 6.7 6.8 4.8 6.3-3.3 9.7 1.4 13.9 3.9v38.6c-2.3 1.3-2.7 3.5-2.7 5.9zm-67.6-52.4c-9.2-2.5-18.6-1.2-27.9-1.2-8.1 0-12-3.1-11.6-11.3.1-1 0-2 0-3-.9-38.8-.9-38.8 37.7-39.2 3.4 0 6.9-.3 10.3-.4 1.7 1.3 3.4 2.5 5.2 3.7.1 11.8-.3 23.6.6 35.4.6 8.3-3.1 12.8-9.9 16-1.4.1-2.9 0-4.4 0z"/><path class="st40" d="M389 715.7c6.8-3.2 10.5-7.7 9.9-16-.9-11.7-.5-23.6-.6-35.4 16.7 4.5 33.7 2.3 50.6 2.5.1 10.8-.4 21.6.5 32.4.9 11.6-3.8 16.5-15.2 15.6-5.8.4-11.2 4-17.3 1.4-8.6-3.7-14.9-.7-19 7.5-4.6-.9-7.2-3.9-8.9-8zm9.1 49.4c3.4 1 5.7 3.2 6.6 6.7-6.8 1.6-8.5-.1-6.6-6.7z"/><path class="st43" d="M730.5 500.2c-.3 62.8-.6 125.6-.7 188.3-.1 23.2 0 46.4.5 69.6.3 10.7-4.8 13.5-14.6 13.4-64.3-.2-128.6-.3-192.9 0-10.5 0-13.8-4-13.8-14 .5-82.6.8-165.1 1.1-247.7 0-6.2 1.1-11.8 7.4-15 4 .5 8 3.7 12-.2 2.7 0 5.5 0 8.2.1 7.2 7.1 19.5-4.2 25.6 7 .2 13.2.4 26.5.5 39.7-1.8 1.8-2.1 3.3.8 4.3l-.1-.1c-.2 2.5 1.2 3.2 3.4 3 34.6 3.9 69.2 4.2 103.8-.3 4.7 0 6.8-1.5 3.9-6.2 0-1.8.1-3.6.1-5.4 2.8-3.2 2.8-6.3 0-9.5.4-8.5.8-17.1 1.2-25.6 13.9-10 30.1-2.7 44.9-6l.8.5.9-.1c1.3.9 2.7 1.9 4 2.8 1 .4 1.9.7 2.9 1.1l.1.3z"/><path class="st41" d="m730.5 500.2.1-.2c.7-2.3-.1-4-1.7-5.6-1.8-2.1-4.1-2.6-6.7-2-11.2-.1-22.4-.2-33.7-.4-5.2-.1-10.7-1-10.5-7.4.5-14.4-3.7-29.2 2.9-43.2 13.9-.5 27.8 2.2 41.6-1.6 6.2-.4 9.6-3.6 10-9.9 3.4-14.8 1-29.9 1.4-44.8l.4.1c7.8-1.6 16.4 3.1 23.6-3.3h20.8c10.1 3.7.7 18.1 11.7 21.2 2.6 16.4-3.7 31.6-6.1 47.4-.4.3-1 .7-1 .8.2.7.7 1.4 1 2.1.2 67.1.5 134.3.7 201.4-.1 1.2-.2 2.4-.2 3.5-.6 4.3 2 6.9 5.1 9.1-.7 8.8-1.4 17.6-2 26.4-4.1 2.6-3.9 7-2.8 10.5 3.9 12.3-1.1 12.2-11.4 11-8.1-.9-18.4-5.7-25.1 4.5-10.9 2.1-14.7-1.8-14.6-13.3.5-63.3.3-126.6.1-189.9-.1-5.5 2.2-11.9-3.6-16.4zm-192.8-5.5c-2.7 0-5.5 0-8.2-.1-3.4-3.7-7.8-2.4-12-2.3-13.4-.7-11.9 9.2-11.9 17.4-.2 62.8 0 125.6-.2 188.3 0 5.8 1.7 11.9-2.5 17.2-12.3-.2-24.6-.7-36.9-.4-8.4.2-11.3-3.1-11.1-11.3.3-15.3-.1-30.5-.1-45.8 0-71.9 0-143.8.1-215.8.1-14.7.6-29.4.1-44-.3-9.2 2.1-13.6 12.2-13 12.7.8 25.4.4 38.2.5.2 12.3 1 24.5.4 36.8-.6 13.7 4.5 20.3 18.8 19.2 8.8-.6 17.7-.2 26.5-.2 4.7 0 9.8.6 10.4 6 1.3 13.1 3 26.8-.5 39.5-2.9 10.5-15.2 2.4-22 7.1-.6.2-1 .6-1.3.9zm-67.8 276.4c7.9 0 15.8 0 23.7.1 3.2 4.1 7.8 2.4 11.8 2.9 6.3 14.8 2.2 30.2 2.7 45.3.1 3.5-2.8 4.9-6.1 5.1-1.5.1-3 .2-4.4.1-13.6-1.5-33.4 6.7-39.3-3.2-8.3-13.7-4.6-33.3-.2-50.3l-.1.1h5.9c2.1 2.9 4.1 2.8 6-.1zm314.1 3-.3 49.5c-14.6.3-29.3.6-43.9.8-4.1.1-8.7-.4-8.5-5.7.4-15-3.4-30.2 2.8-44.8 16.6.2 33.3.2 49.9.2z"/><path class="st42" d="M454.7 657.8c.1 15.3.5 30.5.1 45.8-.2 8.2 2.8 11.5 11.1 11.3 12.3-.3 24.6.2 36.9.4-2.2 7.6-8.5 4.8-13.4 5.3-11.6 1.1-23.5-2.4-34.7 3-4.3-2.5-7.6-7.2-13.9-3.9-3.6 1.9-6.2-.8-6.8-4.8 11.3.9 16.1-4 15.2-15.6-.9-10.7-.4-21.6-.4-32.4 1.1-2.6 2.8-5 1.2-7.9.2-.5.4-1 .8-1.4 1.3 0 2.6.1 3.9.2zm293.7 62.1c6.7-10.2 17.1-5.4 25.1-4.5 10.4 1.2 15.3 1.2 11.4-11-1.1-3.5-1.3-7.8 2.8-10.5 3.2 8.2 2.4 19.1 14.6 21l-17.7 8.7c-11.5-6-24.2-1.3-36.2-3.7zm35.6 54.2c-16.6 0-33.3-.1-49.9-.1.9-7.4 6.7-5.8 11.3-5.9 13.2-.2 26.5-.1 39.7-.2.9-.1 1.7 0 2.5.2-.1 2.8-1 4.9-3.6 6zm.8-44.6c4.4 10.9 4.4 21.8 0 32.6-6.3-10.9-2.6-21.7 0-32.6zM505.5 774c-4-.6-8.7 1.2-11.8-2.9 5.5-5.6 8.8-2.1 11.8 2.9z"/><path class="st44" d="M517.5 492.4c4.2-.1 8.6-1.4 12 2.3-3.9 3.9-8 .7-11.9.2-.1-.9-.1-1.7-.1-2.5z"/><path class="st42" d="M452.1 768c0-2.4.4-4.6 2.7-5.9 3.9 2 3.1 5.7 3.3 9l.1-.1c-2.6.1-4.8-.5-6.1-3zm17.8 3.1c-1.9 3-3.9 3-5.9.1 1.9-3.2 3.9-3.2 5.9-.1z"/><path class="st44" d="M537.7 494.7c.4-.3.7-.7 1.1-1 6.7-4.7 19 3.4 22-7.1 3.5-12.7 1.8-26.3.5-39.5-.5-5.3-5.7-6-10.4-6-8.8 0-17.7-.4-26.5.2-14.3 1.1-19.4-5.5-18.8-19.2.6-12.2-.2-24.5-.4-36.8-.8-2.1-1.7-4.2-2.5-6.3v-47.3c.2-1.8.3-3.7.5-5.5 1.9-1.1 3.9-2.1 5.8-3.2 10.1-5.6 20.2 0 30.3 0 63.7-.3 127.4 0 191.1.1 1.1.9 2.2 1.9 3.3 2.8.1 2.4.6 4.7 3 6 .1 14.7.1 29.4.2 44.1-3.2 2.3-3 5.6-2.6 9l-.4-.1c-1.2.1-2.4.1-3.6.2-.6-14.7-1.4-29.4-1.6-44.1-.1-8.4-2.8-12.9-11.9-12.9-64.7.2-129.3.3-194 .3-10 0-12.4 5.1-12.3 14.1.5 24.7.4 49.3.5 74 0 18.7.9 19.6 20.4 19.1 36.2-1 36.4-1 34.9 35.6-.4 9.2-.7 17.7 8.9 22.6-4 2.6-7.9 5.2-11.9 7.8-6.1-11.1-18.4.3-25.6-6.9zM450 658.9c1.6 2.9-.1 5.4-1.2 8-16.9-.2-33.9 2-50.6-2.5-1.7-1.2-3.5-2.5-5.2-3.7-1.6-5.7-3.3-11.2-3.3-17.3.2-67.1.2-134.2.3-201.2.1-.8.2-1.6.1-2.3 1.8-1.3 3.7-2.7 5.5-4 3-.9 4.9-2.9 6.3-5.6 15.4 3.9 31.2 2.2 46.8 2.9 1 2.5 3 4.7 1.5 7.7-12.1-5.3-24.4 1.5-36.5-.5-11.4-1.9-15.5 2.8-15.4 13.6.2 19.8.1 39.6.1 59.3 0 43.5.1 87 .1 130.6 0 7.1.2 16.7 8.8 16 14.4-1.5 28.7 3.8 42.7-1z"/><path class="st41" d="M395.7 435.7c-1.8 1.3-3.7 2.7-5.5 4-14.4-8.2-30.1-1.9-45-4 0-15.8.1-31.6.1-47.4.9-.8 1.9-1.7 2.8-2.5h47.4c.2 16.6.2 33.3.2 49.9z"/><path class="st42" d="M345.3 435.7c14.9 2.2 30.6-4.2 45 4 0 .8 0 1.6-.1 2.4-10.4-.1-20.7-.3-31.1-.4-5.6 0-11.2.4-13.8-6z"/><path class="st44" d="M789.8 667.5c-3.1-2.2-5.7-4.7-5.1-9.1 1.5-.2 3-.5 4.5-.7 15.9 7 31.9 1.1 47.8-.3 4.1-.3 5.2-5.4 4.9-9.7-3.1-58.7-.6-117.5-1.3-176.3-.4-31.7-.1-31.7-31.4-31.6-19.1.1-20.5 1.5-20.5 21 0 56.3.1 112.7-.1 169 0 8.3 3.2 16.7-.3 24.9H785c-.2-67.1-.5-134.3-.7-201.4.3-1 .3-1.9-.1-2.9 2.3-15.8 8.6-31 6.1-47.4-1.2-12.2 4.4-16.8 16.4-15 4.3.7 8.9.7 13.3 0 14.1-2.1 18.9 3.2 18.4 17.7-.4 9.9-5.9 21.9 5.4 30.1.9 1.2 1.9 2.3 2.8 3.5v221.2c-.9 1.1-1.8 2.2-2.8 3.3-2.4.1-4.6.7-6 3-16 .3-32 .5-48 .7z"/><path class="st40" d="m789.8 667.5 48-.6c.1 8.7-.6 17.6.4 26.2 1.6 14.1-2.4 21.4-18 18.8-4-.7-8.9-1.3-12 3.1-1.9 0-3.8 0-5.8-.1-12.2-1.9-11.4-12.8-14.6-21 .7-8.8 1.3-17.6 2-26.4z"/><path class="st42" d="M843.7 435.9c-11.3-8.2-5.8-20.2-5.4-30.1.5-14.4-4.3-19.7-18.4-17.7-4.3.6-8.9.6-13.3 0-12-1.8-17.5 2.7-16.4 15-11-3.2-1.6-17.6-11.7-21.2 4.9-12.9 2.6-26.3 3-39.5.2-7.4-3.6-10.8-10.9-10.7l-34 .3c-2.3-1.4-2.8-3.6-3-6l50.3-.3 6.9 3.9c-6.3 14.6-3 29.8-3 44.8 0 7.1 6.1 7.8 11.8 7.7 13.6 0 27.3 1.1 40.5-3.4 1.3 2.3 2.6 4.6 4 7 0 16.8-.2 33.5-.4 50.2zm-448-.2c0-16.7-.1-33.3-.1-50 1.3-2.3 2.6-4.7 3.9-7 12.8.2 25.6.2 38.3.8 7.9.3 12.2-2.1 11.5-10.8-1-13.1 2.4-26.6-3.5-39.3 3.4-.8 7.4-.4 9.7-3.9 15.9.3 31.8.5 47.6.8-.2 1.8-.3 3.7-.5 5.5-5.4 0-10.9-.1-16.3-.1-35.3.1-30.5-4.1-31.4 31.9-.3 11.3 3.2 16.6 15.2 15.8 10.8-.7 21.7-.2 32.6-.2.8 2.1 1.7 4.2 2.5 6.3-12.7-.1-25.5.3-38.2-.5-10.1-.6-12.5 3.8-12.2 13 .5 14.7 0 29.3-.1 44-1.3.1-2.5.2-3.8.3-.4-.5-.6-1-.6-1.6 1.5-2.9-.5-5.2-1.5-7.7.1-11.8.1-23.5.3-35.3.1-7.4-2.1-13.7-10.5-12.2-12.2 2.2-26.6-7.3-36.5 6.5-1.2 1.7-.6 4.8-.6 7.2.1 10.3.3 20.6.5 30.9-1.4 2.7-3.3 4.8-6.3 5.6z"/><path class="st41" d="M563.3 501.7c4-2.6 7.9-5.2 11.9-7.8 8 0 16 0 24 .1 6.8 2.3 13.6 2.3 20.4.1 16.3 0 32.6.1 48.9.1 1.7 3.8 4.2 6.7 8.6 7.5-.4 8.5-.8 17.1-1.2 25.6-4.5 3.2-4.8 6.3 0 9.5 0 1.8-.1 3.6-.1 5.4-3.1 1-4 3.3-3.9 6.2-34.6 4.5-69.2 4.1-103.8.3-.4-1.9-1.4-2.9-3.4-3l.1.1c-.3-1.4-.5-2.9-.8-4.3-.3-13.3-.5-26.5-.7-39.8z"/><path class="st44" d="M677 501.7c-4.3-.8-6.9-3.7-8.6-7.5 8-13.8 2.6-28.8 3.8-43.3.5-6.2-.3-12.1 8.2-12.6.1 1.1.3 2.1.4 3.2-6.6 14-2.3 28.8-2.9 43.2-.2 6.4 5.2 7.3 10.5 7.4 11.2.1 22.4.2 33.7.4-.1 1.1-.1 2.2-.2 3.3-14.8 3.2-31-4.1-44.9 5.9zm-1.3 35.1c-4.8-3.2-4.5-6.4 0-9.5 2.9 3.1 2.9 6.3 0 9.5zm-3.9 11.6c-.1-2.9.8-5.3 3.9-6.2 2.9 4.6.8 6.2-3.9 6.2z"/><path class="st40" d="M721.9 495.6c.1-1.1.1-2.2.2-3.3 2.6-.5 4.9-.1 6.7 2l-.8.7c-1.5.3-2.9.6-4.4 1l-.9.1-.8-.5z"/><path class="st44" d="M564.5 545.7c2 0 3 1.1 3.4 3-2.2.2-3.5-.5-3.4-3z"/><path class="st44" d="M563.8 541.5c.3 1.4.5 2.9.8 4.3-2.8-1-2.5-2.5-.8-4.3z"/><path class="st40" d="M728.9 494.4c1.7 1.5 2.4 3.3 1.7 5.6-1-.4-1.9-.7-2.9-1.1.1-1.3.3-2.5.4-3.8l.8-.7z"/><path class="st44" d="M728.1 495.1c-.1 1.2-.3 2.5-.4 3.8-1.3-.9-2.7-1.9-4-2.8 1.4-.4 2.9-.7 4.4-1z"/><path class="st40" d="m736.7 332.1 34-.3c7.3-.1 11.1 3.3 10.9 10.7-.4 13.2 1.9 26.6-3 39.5h-20.8c-6-5.4-14.9-.5-20.9-5.7-.1-14.8-.1-29.5-.2-44.2z"/><path class="st42" d="M736.9 376.2c6.1 5.3 14.9.3 20.9 5.7-7.1 6.4-15.8 1.7-23.6 3.3-.3-3.3-.5-6.6 2.7-9z"/><path class="st40" d="M680.8 441.4c-.1-1.1-.3-2.1-.4-3.2l41.7-2.1c.1 1.2.2 2.4.2 3.6-13.6 3.9-27.6 1.2-41.5 1.7zm49.5-56.1c1.2-.1 2.4-.1 3.6-.2-.4 14.9 2 30-1.4 44.8-.7-.3-1.5-.4-2.2-.6-.1-14.6 0-29.3 0-44z"/><path class="st44" d="M722.4 439.8c-.1-1.2-.2-2.4-.2-3.6 2.7-2.3 5.3-4.5 8-6.8.8.1 1.5.3 2.2.6-.4 6.2-3.8 9.4-10 9.8z"/><path class="st42" d="M784.2 450.6c.3 1 .4 1.9.1 2.9-.4-.7-.8-1.3-1.1-2.1 0-.2.7-.6 1-.8zm.8 204.3h3.3c.3 1 .6 1.9.9 2.9-1.5.2-3 .5-4.5.7.1-1.3.2-2.4.3-3.6z"/><path class="st44" d="M451 442.3c1.3-.1 2.5-.2 3.8-.3 0 71.9 0 143.9-.1 215.8l-3.9-.3c0-71.7.1-143.5.2-215.2z"/><path class="st43" d="M451 442.3c-.1 71.7-.1 143.5-.2 215.2-.3.4-.6.9-.8 1.4-14 4.8-28.3-.5-42.5.8-8.6.7-8.8-8.8-8.8-16 0-43.5 0-87-.1-130.6 0-19.8.1-39.6-.1-59.3-.1-10.8 4-15.5 15.4-13.6 12.1 2 24.4-4.8 36.5.5 0 .6.2 1.1.6 1.6zm279.2-12.9c-2.7 2.3-5.3 4.5-8 6.8l-41.7 2.1c-8.6.5-7.7 6.4-8.2 12.6-1.2 14.4 4.2 29.5-3.8 43.3-16.3 0-32.6-.1-48.9-.1-6.8-4.7-13.6-4.5-20.4-.1-8 0-16 0-24-.1-9.6-5-9.2-13.5-8.9-22.6 1.5-36.6 1.3-36.6-34.9-35.6-19.5.6-20.4-.3-20.4-19.1-.1-24.7-.1-49.3-.5-74-.2-8.9 2.2-14.1 12.3-14.1 64.7.1 129.3 0 194-.3 9.2 0 11.8 4.5 11.9 12.9.2 14.7 1 29.4 1.6 44.1 0 14.8-.1 29.5-.1 44.2z"/><path class="st40" d="M502.7 379.2c-10.9 0-21.8-.5-32.6.2-12 .8-15.4-4.5-15.2-15.8.9-36-3.9-31.8 31.4-31.9 5.4 0 10.9.1 16.3.1.1 15.8.1 31.6.1 47.4zm-100.6 50.9c-.2-10.3-.4-20.6-.5-30.9 0-2.4-.6-5.5.6-7.2 9.8-13.8 24.3-4.3 36.5-6.5 8.4-1.5 10.6 4.8 10.5 12.2-.2 11.8-.2 23.5-.3 35.3-15.7-.7-31.4 1-46.8-2.9z"/><path class="st43" d="M789.2 657.7c-.3-1-.6-1.9-.9-2.9 3.5-8.2.2-16.6.3-24.9.3-56.3.1-112.7.1-169 0-19.5 1.5-21 20.5-21 31.4-.1 31.1-.1 31.4 31.6.7 58.8-1.8 117.5 1.3 176.3.2 4.2-.8 9.3-4.9 9.7-15.9 1.3-31.8 7.2-47.8.2z"/><path class="st44" d="M599.2 494c6.8-4.4 13.6-4.6 20.4.1-6.8 2.2-13.6 2.2-20.4-.1z"/></g></svg>