<?xml version="1.0" encoding="utf-8"?>
<!-- Generator: Adobe Illustrator 25.2.1, SVG Export Plug-In . SVG Version: 6.00 Build 0)  -->
<svg version="1.1" id="Layer_1" xmlns="http://www.w3.org/2000/svg" xmlns:xlink="http://www.w3.org/1999/xlink" x="0px" y="0px"
	 viewBox="0 0 953.7 883.8" style="enable-background:new 0 0 953.7 883.8;" xml:space="preserve">
<style type="text/css">
	.st0{fill:#E74342;}
	.st1{fill:#F7FCFE;}
	.st2{fill:#FFFAFA;}
	.st3{fill:#EC3E3F;}
	.st4{fill:#003EB0;}
	.st5{fill:#FFFFFF;}
	.st6{stroke:#000000;stroke-width:0.75;stroke-miterlimit:10;}
	.st7{fill:#FFFFFF;stroke:#000000;stroke-width:0.75;stroke-miterlimit:10;}
	.st8{opacity:0.3;}
	.st9{opacity:0.3;enable-background:new    ;}
	.st10{opacity:0.4;enable-background:new    ;}
	.st11{opacity:0.5;}
	.st12{fill:#3C1A26;}
	.st13{fill:#29121A;}
	.st14{fill:#421D2A;}
	.st15{fill:#DE6660;}
	.st16{fill:#A24741;}
	.st17{fill:#DB5B54;}
	.st18{fill:#BD967F;}
	.st19{fill:#886B59;}
	.st20{fill:#B88D73;}
	.st21{fill:#493239;}
	.st22{fill:#CAA390;}
	.st23{fill:#C4524C;}
	.st24{fill:#F2716A;}
	.st25{fill:#898989;}
	.st26{fill:#888888;}
	.st27{fill:#D6D6D6;}
	.st28{fill:#FDFDFD;}
	.st29{fill:#DCDCDC;}
</style>
<circle class="st0" cx="261.2" cy="252.2" r="252.2"/>
<path class="st1" d="M141.2,381.7h-40.3c-2.8,0-5.6-0.5-8.2-1.4c-8.1-2.9-11.9-9.6-9.8-18c0.8-3,2-5.8,3.5-8.5
	c26.1-45.9,52.2-91.8,78.2-137.8c26.6-46.8,53-93.4,79.6-140.2c1.8-3.4,4.3-6.5,7.3-9c6-4.6,12.8-4.4,18.5,0.4c2.6,2.3,4.8,5,6.4,8
	c12.9,23.6,26.3,46.8,39.6,70.2c3.2,5.7,5.2,12.1,5.7,18.6c1.1,9.6-0.5,19.3-4.8,27.9c-2.6,5.2-5.7,10-8.6,15.1
	c-28.9,50.2-57.7,100.2-86.8,150.3c-7.4,12.8-18.9,20.3-33.4,23.5c-3.1,0.7-6.2,1-9.3,0.9L141.2,381.7z"/>
<path class="st1" d="M365.3,381.7h-55.7c-3.1,0-6.1-0.5-9-1.6c-7.4-2.9-11.1-9.6-9.3-17.7c0.7-3,1.9-5.9,3.5-8.6
	c18.2-31.5,36.6-63.1,54.9-94.8c1.7-3,3.8-5.7,6.4-8c6-5.1,13.3-5,19.3,0c2.6,2.3,4.8,5,6.4,8c18,31.7,36,63.2,54.1,94.9
	c2.1,3.2,3.4,6.9,3.8,10.7c0.5,7.7-3.1,13.2-10.4,15.6c-3.2,0.9-6.6,1.4-9.9,1.3C401.4,381.7,383.5,381.7,365.3,381.7z"/>
<path class="st2" d="M535.7,722.6c1.9-3.2,3.8-6.5,5.8-9.8c0.5-0.8,0.9-1.8,1.1-2.7c8.5-11.9,19.2-22.5,29.3-32.7
	c13.1-13.3,26.7-26.2,41-38.5c8.5-7.3,16.9-14.7,25.1-22.3c1.4-1.2,2.7-2.5,4.1-3.7c0.1-0.2-0.1,0.8,0,0.6s1.5-1.5,1.7-1.7
	c15.8-11.1,24-31,30.2-48.8c6.7-20.1,9.8-41.2,9-62.4c-1.5-42.7-20-82-48.9-113.1c-59.4-63.9-160.6-88.7-240.9-52
	c-24.8,11.3-48.9,26.2-65.4,47.6c-12,15.5-19.2,35.6-24.7,54.7c-0.4,1.3-0.5,2.7-0.3,4.1c-3.6,8.3-6.5,16.9-8.8,25.6
	c-3.3,13.3-5.5,26.8-6.6,40.5c-2.2,26.6-0.2,53.3,6.2,79.2c2.2,9,5,17.8,8.4,26.4c24.2,117.9,114.5,217.3,239.2,246.9
	c19.4,4.6,39.1,7.3,59,8.3l0.1-1.9c6.9,0.7,15.5,5.5,20.3,1.3c4.6,0.8,8.7-1.4,13.3-0.8c1.5,0.5,3.4,0.1,5,0
	c3.8,0.5,6.4-0.7,10.2-0.6s7.5-0.1,11.2,0.3c4.6,0.5,13.7-0.3,16.2-4.6c2.2-4-3.2-9.9-6.6-13c-7.4-7-13.5-15.2-18.2-24.3
	c-2.1-4.1-3.9-8.4-5.4-12.7c-1.6-4.8-3.6-9.6-4.5-14.6c-1.1-6.6-6-10.7-12.8-9.1c-8.8,2-15.4,2.1-24.3,3.8h-2.5
	c-7.5-3.2-14.9-2.3-22.7-2.7c-1.4-0.3-2.8-0.7-4.2-1.1c-6.5-4.6-13.5-8.5-20.9-11.6c-2-1.9-3.7-4.1-5.2-6.4
	c-3.8-5.8-6.3-10.2-8.1-16.8c-1.1-4.1-5.7-6.6-9.8-6.4c-0.2-3.8-0.1-7.7,0.5-11.5C532.4,731.4,533.7,726.9,535.7,722.6z"/>
<path class="st3" d="M942,543.4c-1-34.8-4.7-70.6-12.7-104.6c-4.2-17.8-10-35.9-19.2-51.9c-4.4-7.6-9.4-14.9-15-21.7
	c-5.7-7-12-13.9-20.1-18.1c-0.2-0.1-0.5-0.2-0.7-0.3c-0.8-1.3-1.6-2.5-2.4-3.7c-10.4-15.6-22.2-30.2-35.4-43.6
	c-13.2-13.2-27.9-26.1-44-35.6c-8.6-5-17.3-10.1-26.2-14.5c-3.4-1.7-7-3.2-10.5-4.6c-6.5-3.5-13.4-6.4-20.5-8.6v0.1
	c-2.4-0.5-4.9-0.1-7,1.3c-6.7-3-13.4-5.8-20.1-8.2c-29.9-10.6-61.8-15.4-93.5-16.2c-29.6-0.8-59.1,1.9-88,8.3
	c-14.9,3.3-29.2,8.5-42.7,15.5c-6.6,3.5-12.8,7.7-18.4,12.6c-2.3,2-6.3,1.2-8.1,3.5c-0.8,0.4-1.5,0.8-2.3,1.2
	c-28.9,15.1-54.6,36.4-79.1,57.9c-10.4,9.2-22,19.2-29.3,31.4c-1.3,1.1-2.6,2.2-3.8,3.3c-1.1,2-2.2,4-3.3,6.2
	c-1.8,3.5-3.2,7-6.5,9.4c-0.5,0.9-1.1,1.8-1.6,2.7c2.2,3.2,6.6,4.1,9.8,1.9c0.3-0.2,0.5-0.4,0.8-0.6c10.3-9.2,20.8-17.9,32.5-25.1
	c11.8-7.4,24.4-13.5,37.5-18.3c26.2-9.6,54.1-13.7,82-12.1c54.1,3,105,30.9,140.6,71.7c10.1,11.5,20.2,22.4,27.7,35.8
	c3.7,6.6,6.9,13.5,9.7,20.5c2.1,5.2,3.5,10.8,5.9,15.9c-1.3,0-2.6-0.1-3.8-0.1c0.6,1,1.1,2,1.6,3.1c2.3,4.9,3.3,10.5,4.4,15.8
	c1.3,6.9,2.5,13.5,2.6,20.6c0,1.6,0,3.2-0.1,4.9c2.1,15.9,1.2,32-2.8,47.5c-4.8,18.9-12.7,36.9-23.4,53.3c0.1-0.1,0.1-0.1,0.2-0.1
	c7.3-6.7,14.6-13.2,22-19.9s15.4-12.5,23-19c0.7-0.6,1.7,0.3,1.1,1c-7.4,7.4-14.1,15.2-21.7,22.4s-15,14.4-22.7,21.5
	c-4.5,4.3-9.2,8.6-13.7,12.9c-10.2,9.6-20.2,19.2-30,29.2c-12.3,12.6-25.1,24.7-37.1,37.7c-11.2,12-23.8,24.5-30.9,39.7
	c-5.7,12.2-6.1,27.9,4.9,37.3c9.8,8.3,24.2,10.6,36.5,12.3c27.1,3.8,55.7,0.9,82.1-5.9c27.8-7.1,53-21.6,73.9-41
	c0.4-0.4,1-0.4,1.5,0s0.4,1,0,1.5c-21.8,25.2-51.6,44.5-83.1,55.3c-5.1,1.7-10.2,3.2-15.4,4.4c0.9,2.8,1,6.1,1.5,8.9
	c0.7,3.7,1.5,7.4,2.5,11c2.1,7,4.8,13.8,8.1,20.4c3.2,6.9,6.4,13.7,11,19.7c2.4,3.2,5,6.2,7.8,9.1c1.2,1.3,2.6,2.6,3.9,4.1
	c47.4-10.2,91.9-31.1,130.1-61.1c6.4-2.3,12.6-5.2,18.5-8.6c11.9-6.8,23.2-15.2,32.3-25.5c14.2-15.8,26.5-35.8,30.2-57.3
	c13.1-18.6,23.9-38.7,32.3-59.9C938.3,616,943,580,942,543.4z"/>
<path d="M951.5,506.3c-18.7-160-147.4-284.8-307.9-298.6l-12.1-0.8c-1.5-0.1-2.8-0.2-4.2-0.2l0,0l-14.3-0.3l-16.4,0.5L582,208h-0.7
	c-0.5,0-1,0.1-1.5,0.1l-1.9,0.2c-43.8,4.7-86.2,18-124.9,39.1c-19.3,10.5-37.5,22.8-54.5,36.7c-16.9,14-32.4,29.6-46.2,46.6
	l-1.3,1.6l-0.9,1.2c-0.1,0.2-0.3,0.3-0.4,0.6l-8.6,11.3l-9.4,13.5l-7.6,12.2c-0.8,1.2-1.5,2.4-2.2,3.7l-6,10.7
	c-31.2,58.8-44.5,125.4-38.2,191.6c2.1,22,6.4,43.8,12.7,65c6.4,21.2,14.9,41.8,25.2,61.4c10.4,19.6,22.7,38.1,36.7,55.3
	c14,17.3,29.7,33.1,46.9,47.2c34.5,28.5,74.3,49.9,117.1,62.9c32.1,9.6,65.5,14.5,99,14.5c11.3,0,22.5-0.6,33.6-1.7
	c44.7-4.6,88.1-18,127.6-39.4c39.4-21.5,74.3-50.6,102.5-85.6c14-17.5,26.2-36.3,36.5-56.2c10.3-19.9,18.6-40.7,24.8-62.2
	C952.8,596.4,956.5,550.6,951.5,506.3z M642.1,612.8c-1.4,1.2-2.7,2.5-4.1,3.7c-8.3,7.6-16.7,15-25.1,22.3
	c-14.2,12.2-27.9,25-41,38.5c-10.9,11.1-22.5,22.6-31.3,35.6c-1,1.6-2,3.1-3,4.7c-0.2,0.3-0.3,0.5-0.5,0.8c-0.9,1.5-1.7,3-2.4,4.5
	c-0.5,1-0.9,2-1.4,3c-2,4.8-3.4,10-3.9,15.2c-0.1,0.8-0.2,1.6-0.2,2.4c-0.5,7.2,1,14.4,4.3,20.9c5.2,10,14.6,16.5,25,20.6
	c1.1,0.5,2.3,0.9,3.5,1.3c3.1,1.1,6.3,2,9.5,2.7c4.5,1,9.2,1.8,13.8,2.5c0.5,0.1,0.9,0.1,1.4,0.2c3.4,0.5,6.9,0.8,10.3,1l5.1,0.3
	c10.9,0.4,21.9-0.2,32.7-1.8c0,3.1,1,6.7,1.7,9.5c0.9,3.9,2.1,7.7,3.4,11.4c2.6,7.8,6.1,15.2,10.4,22.2c4.2,6.7,9.9,12.2,15.2,18
	c2.9,3.1,5.9,5.9,9.2,8.6c0.2,0.2,0.5,0.4,0.7,0.6c-9.3,1.8-18.7,3.2-28.1,4.2c-65.8,7-132.2-6.2-190.3-37.9
	c-83.4-47.5-141.1-129.9-157.3-224.5c-2.4-14.1-5.7-28.3-7.3-42.5c-6.8-56.7,6.1-120,32.3-170.7c0.8-1.5,1.7-4.4,3-5.7
	c12.5-11.3,25.2-22.2,39.5-31.5c17.6-11.6,36.8-20.5,57-26.7c20-6.1,40.9-8.6,61.7-7.5c21.5,1.3,42.8,6.7,62.9,14.4
	c36.3,14,69.5,37.1,93,68.4c21.1,28.2,35.3,62,38.4,97.2c3.3,36.9-6.6,73.8-27.8,104.1l-10,9.1 M821.6,792.3
	c-16.4,13.6-34.1,25.6-52.8,35.8c-18.7,10.2-38.4,18.5-58.8,24.9c-9.8,3-19.8,5.7-30,7.8c-0.8-0.9-1.7-1.7-2.4-2.5
	c-2.7-2.9-5.2-6-7.8-9.1c-4.6-6-7.8-12.9-11-19.7s-6.1-13.3-8.1-20.4c-1-3.6-1.9-7.3-2.5-11c-0.5-2.8-0.6-6.1-1.5-8.9
	c5.2-1.2,10.3-2.7,15.4-4.4c31.5-10.8,61.3-30.1,83.1-55.3c0.4-0.4,0.4-1.1,0-1.5s-1.1-0.4-1.5,0c-20.9,19.4-46.1,33.9-73.9,41
	c-26.3,6.7-55.1,9.7-82.1,5.9c-12.2-1.7-26.8-4-36.5-12.3c-11-9.4-10.6-25-4.9-37.3c7-15,19.7-27.6,30.9-39.7
	c12-12.9,24.8-25,37.1-37.7c9.8-10,19.8-19.6,30-29.2c4.5-4.3,9.2-8.6,13.7-12.9l22.7-21.5c7.6-7.3,14.3-15,21.7-22.4
	c0.7-0.7-0.4-1.6-1.1-1c-7.6,6.5-15.5,12.3-23,19c-4.4,3.9-8.9,8-13.3,12c15.1-23.8,23.4-51.2,23.9-79.4
	c0.9-36.8-11.4-73.9-31.3-104.6c-21.9-33.8-53.1-60.1-89.4-77.3c-40.9-19.4-86.6-28.1-131.1-18.1c-24.4,5.6-47.7,15.4-68.7,29.1
	c-9.1,5.7-17.7,12.1-25.7,19.2c5.5-8.2,11.2-15.9,17.3-23.5c13.4-16.6,28.4-31.8,44.8-45.5c16.5-13.6,34.2-25.6,52.9-35.9l0,0
	c18.8-10.2,38.5-18.5,58.9-24.8c20.4-6.4,41.4-10.7,62.6-12.9c86-9.1,172.1,16.4,239.3,70.8c16.6,13.4,31.8,28.4,45.4,44.8
	c13.6,16.4,25.6,34.1,35.8,52.9c10.2,18.8,18.5,38.5,24.8,58.9c6.4,20.3,10.7,41.3,12.9,62.5c4.4,42.6,0.4,85.5-11.6,126.6
	c-12.2,41-32.3,79.2-59.2,112.5C853,763.6,837.9,778.7,821.6,792.3z"/>
<circle cx="540.7" cy="505.3" r="81.9"/>
<path class="st4" d="M882.3,333.7c-1.4,0.4-2.8,0.9-4.1,1.5c-1.5,0.8-2.9,1.7-4.1,2.9c-0.2,0-0.4,0-0.6,0.1c-8,1.6-15,7.9-21.9,12
	c-6.5,3.9-13.1,7.5-19.8,11c-6,3.1-12.2,6.1-18.4,9c-2.4-3.1-6.3-4.8-11.3-3.4c-41.2,12-82.6,23.1-124.7,31.8c-3,0.6-6,1.2-9,1.8
	c-13.5,2.4-27.1,4.7-40.8,6.5c-28.4,3.8-56.9,6.5-85.6,7.9c-57.5,2.7-115.1,0.9-172.3-5.6c-7.9-0.9-15.7-1.8-23.6-2.9
	c-6.8-0.9-14-1.5-20.6-3.8c-3.5-1.2-9.1-3.6-9.1-7.9c0-0.5,0.5-1.1,1.2-1.5c3.5,2.9,9.2,2.5,10.6-2.9c0,0,0-0.1,0-0.1
	c1.5-1.7,2-4,1.5-6.2c4.1-16.3,8.5-32.5,19.8-45.6c6.2-7.3,13.8-13.3,22.3-17.5c1.8-0.9,3.3-1.5,5.2-2.2c3.5-1.2,6.6-3.4,8.7-6.5
	c3.4-4.3,6.9-8.5,10.5-12.6c28.7-32.7,63.8-59.1,103.1-77.5c79-37.1,170.1-38.6,250.2-4.2c45.8,19.6,86.2,49.8,118,88.1
	c2.6,3.1,7,4,10.9,3.1c0,2.3-0.1,4.5-0.4,6.7c-1,2.6-1.5,5.4-1.3,8.2C877.1,327.7,879.1,331.4,882.3,333.7z"/>
<path class="st4" d="M933.3,344.3c3.6,15.6,4.5,31.6,2.8,47.5c-0.5,4.9-3.1,9.2-8.1,10.6c-4.3,1.2-10.5-0.7-12.4-5.1
	c-5.4-12.5-11.6-25.5-19.8-36.4c-2.6-3.4-5.8-6.8-10-7.6c-1-0.1-1.9-0.1-2.9,0c-5,6.5-13,10.5-19.8,14.7s-14,8.2-21.2,12
	c-14.7,7.7-29.8,14.5-45.4,20.2c-15.5,5.9-31.4,10.4-47.6,13.7c-16,3-31.9,3.6-48.2,4.5c-30.2,6.7-61.1,11.1-91.7,14.7
	c-10,1.2-20.1,2.2-30.1,3c-11,1.2-22.1,2.3-33.2,3.2c-10.8,0.9-21.7,1.5-32.5,1.8s-21.7-0.7-32.6-0.9c-0.7,0-1.4-0.2-2-0.5
	c-22-0.3-43.9-1.3-65.8-2.9c-16.3-1.2-32.5-2.9-48.7-5c-8.6-1.1-17.2-2.4-25.9-3.7c-7-1.1-14.2-2-20.9-4.6
	c-14-5.5-26.1-21.3-19.4-36.8c2.8-6,8.2-10.4,14.6-12c-0.5-14.6,5.4-29.4,13.2-41.6c10.3-16,25.4-28.5,43.1-35.5
	c25.9-33.2,57.9-61.2,94.3-82.4c67.2-39.3,146.5-54.1,223.2-40.9c70.6,12.5,135.4,47.2,184.8,99.2c0.1-1.3,0.3-2.6,0.7-3.9
	c-1.2-1.2-2.1-2.7-2.6-4.3c-10.4-30.4,14.4-58.9,31.5-81.3c5.2-6.9,17-7.2,19.6,2.6c4.5,17.2,8.3,34,7,51.9
	c-1.1,14.2-4.2,28.1-9.2,41.4c6.8,10.6,8.2,24.9,2.9,36.3C928,323.2,931.2,334.9,933.3,344.3z M878.2,335.2c1.3-0.6,2.7-1.2,4.1-1.5
	c-3.2-2.3-5.2-5.9-5.4-9.9c-0.2-2.8,0.2-5.6,1.3-8.2c0.3-2.2,0.4-4.5,0.4-6.7c-3.9,0.9-8.3,0-10.9-3.1
	c-31.8-38.3-72.2-68.5-118-88.1c-80.2-34.4-171.3-32.9-250.2,4.2c-39.3,18.5-74.4,44.8-103.1,77.5c-3.6,4.1-7.1,8.3-10.4,12.7
	c-2.2,3-5.2,5.3-8.7,6.5c-1.9,0.7-3.4,1.4-5.2,2.2c-8.5,4.3-16.1,10.3-22.3,17.5c-11.2,13-15.7,29.3-19.8,45.6
	c0.5,2.2-0.1,4.5-1.5,6.2c0,0,0,0.1,0,0.1c-1.4,5.5-7.1,5.8-10.6,2.9c-0.7,0.5-1.2,1-1.2,1.5c-0.1,4.4,5.6,6.8,9.1,7.9
	c6.5,2.3,13.8,2.8,20.6,3.8c7.8,1.1,15.7,2,23.6,2.9c57.2,6.5,114.8,8.4,172.3,5.6c28.6-1.5,57.2-4.1,85.6-7.9
	c13.7-1.8,27.2-4.1,40.8-6.5c3-0.6,6-1.2,9-1.8c42.1-8.8,83.4-19.9,124.7-31.8c5-1.4,8.9,0.3,11.3,3.4c6.2-2.8,12.3-5.8,18.4-9
	c6.7-3.5,13.2-7.1,19.8-11c6.9-4.1,14-10.4,21.9-12c0.2,0,0.4-0.1,0.6-0.1C875.4,336.9,876.8,335.9,878.2,335.2z"/>
<path class="st5" d="M506.5,187.9c-0.1-0.5-0.1-1-0.2-1.5c-5.2,2-10.4,4.2-15.3,6.6c-14,7-27.6,14.8-40.7,23.4
	c0.2,0.1,0.4,0.2,0.6,0.3l6.9,3.3c2.3,1.1,4.7,2.4,7.2,3.5c3.1,1.1,6.3,1.5,9.3-0.3c9.9-5.9,19.9-11.8,29.7-17.7
	c3-1.6,4.5-5,3.8-8.3C507.3,194.1,507,190.9,506.5,187.9z"/>
<path class="st5" d="M493.3,236.8l-11.2-5.3c-0.4-0.1-0.7-0.3-1.1-0.5c-2.7-2.1-3.7-4.6-0.2-6.8c6.6-4.2,13.2-8.4,19.8-12.5
	c3.2-1.9,6-0.6,6.5,3c1,7.9,1.8,15.8,2.7,23.7c0.3,3.2-1.5,4.7-4.6,3.7C500.8,240.7,496.9,238.2,493.3,236.8z"/>
<path class="st5" d="M570,233.6l-7.2-2.6c-0.7-0.2-1.3-0.6-1.8-1c-2.1-1.7-2.1-3.4,0.1-5.1c6.1-4.5,12.2-9,18.3-13.5
	c9.3-6.9,18.6-13.7,27.8-20.6c0.5-0.4,1.1-0.8,1.7-1.1c2.2-1.2,4.1-0.6,5.2,1.7c0.7,1.9,1.2,3.8,1.5,5.8c0.8,3,1.4,6.2,2.2,9.2
	c1,3.2-0.2,6.7-3,8.6c-9.3,6.8-18.6,13.6-28,20.3c-2.8,2-6.1,1.9-9.2,1.1C574.9,235.5,572.4,234.5,570,233.6z"/>
<path class="st5" d="M606.9,247l-11.6-4.2c-0.4-0.1-0.8-0.2-1.1-0.4c-2.9-1.8-4.1-4.2-0.8-6.8c6.2-4.8,12.4-9.6,18.6-14.2
	c3-2.2,5.9-1.1,6.7,2.4c1.7,7.8,3.2,15.5,4.9,23.3c0.6,3.1-1,4.8-4.2,4.1C614.7,250.3,610.6,248.1,606.9,247z"/>
<path class="st5" d="M488.6,319l-6.9-3.3c-0.6-0.3-1.2-0.7-1.7-1.1c-1.9-1.9-1.8-3.6,0.6-5.1c6.5-3.9,13-7.9,19.5-11.8
	c9.9-6,19.8-11.9,29.6-17.9c0.6-0.4,1.2-0.7,1.8-1c2.3-1,4.1-0.2,5,2.2c0.5,1.9,0.8,3.9,1,5.9c0.5,3,0.8,6.3,1.3,9.4
	c0.7,3.3-0.8,6.7-3.8,8.3c-9.9,5.9-19.8,11.8-29.8,17.7c-3,1.8-6.2,1.4-9.3,0.3C493.3,321.4,490.9,320.1,488.6,319z"/>
<path class="st5" d="M524.1,335.8l-11.2-5.3c-0.4-0.1-0.7-0.3-1.1-0.5c-2.7-2.1-3.7-4.6-0.2-6.8c6.6-4.2,13.2-8.4,19.8-12.5
	c3.2-1.9,6-0.6,6.5,3c1,7.9,1.8,15.8,2.7,23.7c0.3,3.2-1.5,4.7-4.6,3.7C531.6,339.7,527.7,337.2,524.1,335.8z"/>
<path class="st5" d="M600.8,332.6l-7.2-2.6c-0.7-0.2-1.3-0.6-1.8-1c-2.1-1.7-2.1-3.4,0.1-5.1c6.1-4.5,12.2-9,18.3-13.5
	c9.3-6.9,18.6-13.7,27.8-20.6c0.5-0.4,1.1-0.8,1.7-1.1c2.2-1.2,4.1-0.6,5.2,1.7c0.7,1.9,1.2,3.8,1.5,5.8c0.8,3,1.4,6.2,2.2,9.2
	c1,3.2-0.2,6.7-3,8.6c-9.3,6.8-18.6,13.6-28,20.3c-2.8,2-6.1,2-9.2,1.1C605.7,334.6,603.2,333.5,600.8,332.6z"/>
<path class="st5" d="M637.7,346.1l-11.6-4.2c-0.4-0.1-0.8-0.2-1.1-0.4c-2.9-1.8-4.1-4.2-0.8-6.8c6.2-4.8,12.4-9.6,18.6-14.2
	c3-2.2,5.9-1.1,6.7,2.5c1.7,7.8,3.2,15.5,4.9,23.3c0.6,3.1-1,4.8-4.2,4.1C645.5,349.3,641.4,347.2,637.7,346.1z"/>
<path class="st5" d="M687.3,233.6l-6.9-3.3c-0.6-0.3-1.2-0.7-1.7-1.1c-1.9-1.9-1.8-3.6,0.6-5.1c6.5-3.9,13-7.9,19.5-11.8
	c9.9-6,19.8-11.9,29.6-17.9c0.6-0.4,1.2-0.7,1.8-1c2.3-1,4.1-0.2,5,2.2c0.5,1.9,0.8,3.9,1,5.9c0.5,3.1,0.8,6.3,1.3,9.4
	c0.7,3.3-0.8,6.7-3.8,8.3c-9.9,5.9-19.8,11.8-29.8,17.7c-3,1.8-6.2,1.4-9.3,0.3C692,236,689.6,234.7,687.3,233.6z"/>
<path class="st5" d="M722.8,250.4l-11.2-5.3c-0.4-0.1-0.7-0.3-1.1-0.5c-2.7-2.1-3.7-4.6-0.2-6.8c6.6-4.2,13.2-8.4,19.8-12.5
	c3.2-1.9,6-0.6,6.5,3.1c1,7.9,1.8,15.8,2.7,23.7c0.3,3.2-1.5,4.7-4.6,3.7C730.3,254.3,726.4,251.8,722.8,250.4z"/>
<path class="st5" d="M813.4,221.6l-4.5,3.4c-6.1,4.5-12.2,9-18.3,13.5c-2.2,1.7-2.2,3.4-0.1,5.1c0.5,0.4,1.2,0.8,1.8,1l7.2,2.6
	c2.4,0.9,4.9,1.9,7.5,2.8c3.2,0.8,6.4,0.9,9.2-1.1c5.7-4.1,11.3-8.2,17-12.3C826.3,231.9,819.3,227.3,813.4,221.6z"/>
<path class="st5" d="M850.9,250.6c-4.5-4.4-9.3-8.3-14.5-11.8c-4.5,3.4-9.1,6.9-13.5,10.4c-3.3,2.6-2,4.9,0.8,6.8
	c0.4,0.2,0.7,0.3,1.1,0.4l11.6,4.2c3.7,1.1,7.8,3.2,12.4,4.3c3.2,0.7,4.9-1,4.2-4.1C852.3,257.4,851.6,254,850.9,250.6z"/>
<path class="st5" d="M718,332.6l-6.9-3.3c-0.6-0.3-1.2-0.7-1.7-1.1c-1.9-1.9-1.8-3.6,0.6-5.1c6.5-3.9,13-7.9,19.5-11.8
	c9.9-6,19.8-11.9,29.6-17.9c0.6-0.4,1.2-0.7,1.8-1c2.3-1,4.1-0.2,5,2.2c0.5,1.9,0.8,3.9,1,5.9c0.5,3,0.8,6.3,1.3,9.4
	c0.7,3.3-0.8,6.7-3.8,8.3c-9.9,5.9-19.8,11.8-29.8,17.7c-3,1.8-6.2,1.4-9.3,0.3C722.7,335,720.4,333.7,718,332.6z"/>
<path class="st5" d="M753.6,349.4l-11.2-5.3c-0.4-0.1-0.7-0.3-1.1-0.5c-2.7-2.1-3.7-4.6-0.2-6.8c6.6-4.2,13.2-8.4,19.8-12.5
	c3.2-1.9,6-0.6,6.5,3c1,7.9,1.8,15.8,2.7,23.7c0.3,3.2-1.5,4.7-4.6,3.7C761,353.3,757.1,350.8,753.6,349.4z"/>
<path class="st5" d="M830.2,346.2l-7.2-2.6c-0.7-0.2-1.3-0.6-1.8-1c-2.1-1.7-2.1-3.4,0.1-5.1c6.1-4.5,12.2-9,18.3-13.5
	c9.3-6.9,18.6-13.7,27.8-20.6c0.5-0.4,1.1-0.8,1.7-1.1c2.2-1.2,4.1-0.6,5.1,1.7c0.7,1.9,1.2,3.8,1.5,5.8c0.8,3,1.4,6.2,2.2,9.2
	c1,3.2-0.2,6.7-3,8.6c-9.3,6.8-18.6,13.6-28,20.3c-2.8,2-6.1,2-9.2,1.1C835.1,348.2,832.6,347.1,830.2,346.2z"/>
<path class="st5" d="M867.2,359.7l-11.6-4.2c-0.4-0.1-0.8-0.2-1.1-0.4c-2.8-1.8-4.1-4.2-0.8-6.8c6.2-4.8,12.4-9.6,18.5-14.2
	c3-2.2,5.9-1.1,6.7,2.5c1.8,7.8,3.2,15.5,4.9,23.3c0.6,3.1-1,4.8-4.2,4.1C875,362.9,870.8,360.8,867.2,359.7z"/>
<path class="st5" d="M342.3,403l-7-3.3c-0.6-0.3-1.2-0.7-1.7-1.1c-1.9-1.9-1.8-3.6,0.6-5.1c6.5-3.9,13-7.9,19.5-11.8
	c9.9-6,19.8-11.9,29.6-17.9c0.6-0.4,1.2-0.7,1.8-1c2.3-1,4.1-0.2,5,2.2c0.5,1.9,0.8,3.9,1,5.9c0.5,3,0.8,6.3,1.3,9.4
	c0.7,3.3-0.8,6.7-3.8,8.3c-9.9,5.9-19.8,11.8-29.7,17.7c-3,1.8-6.2,1.4-9.3,0.3C347,405.3,344.6,404,342.3,403z"/>
<path class="st5" d="M377.9,419.7l-11.2-5.3c-0.4-0.1-0.7-0.3-1.1-0.5c-2.7-2.1-3.7-4.6-0.2-6.8c6.6-4.2,13.2-8.4,19.8-12.5
	c3.2-1.9,6-0.6,6.5,3.1c1,7.9,1.8,15.8,2.7,23.7c0.3,3.1-1.5,4.7-4.6,3.7C385.3,423.7,381.4,421.2,377.9,419.7z"/>
<path class="st5" d="M454.5,416.6l-7.2-2.6c-0.7-0.2-1.3-0.6-1.8-1c-2.1-1.7-2.1-3.4,0.1-5.1c6.1-4.5,12.2-9,18.3-13.5
	c9.3-6.9,18.6-13.7,27.8-20.6c0.5-0.4,1.1-0.8,1.7-1.1c2.2-1.2,4.1-0.6,5.1,1.7c0.7,1.9,1.2,3.8,1.5,5.8c0.8,3,1.4,6.2,2.2,9.2
	c1,3.2-0.2,6.7-3,8.6c-9.3,6.8-18.6,13.6-28,20.4c-2.8,2-6.1,2-9.2,1.1C459.4,418.5,456.9,417.5,454.5,416.6z"/>
<path class="st5" d="M491.4,430l-11.6-4.2c-0.4-0.1-0.8-0.2-1.1-0.4c-2.9-1.8-4.1-4.2-0.8-6.8c6.2-4.8,12.4-9.6,18.6-14.2
	c3-2.2,5.9-1.1,6.7,2.4c1.7,7.8,3.2,15.5,4.9,23.3c0.6,3.1-1,4.8-4.2,4.1C499.2,433.2,495.1,431.1,491.4,430z"/>
<path class="st5" d="M571.8,416.6l-6.9-3.3c-0.6-0.3-1.2-0.7-1.7-1.1c-1.9-1.9-1.8-3.6,0.6-5.1c6.5-3.9,13-7.9,19.5-11.8
	c9.9-6,19.8-11.9,29.6-17.9c0.6-0.4,1.2-0.7,1.8-1c2.3-1,4.1-0.2,5,2.2c0.5,1.9,0.8,3.9,1,5.9c0.5,3,0.8,6.3,1.3,9.4
	c0.7,3.3-0.8,6.7-3.8,8.3c-9.9,5.9-19.8,11.8-29.8,17.7c-3,1.8-6.2,1.4-9.3,0.3C576.5,419,574.1,417.7,571.8,416.6z"/>
<path class="st5" d="M607.3,433.4l-11.2-5.3c-0.4-0.1-0.7-0.3-1.1-0.5c-2.7-2.1-3.7-4.6-0.2-6.8c6.6-4.2,13.2-8.4,19.8-12.5
	c3.2-1.9,6-0.6,6.5,3.1c1,7.9,1.8,15.8,2.7,23.7c0.3,3.2-1.5,4.7-4.6,3.7C614.8,437.3,610.9,434.8,607.3,433.4z"/>
<path class="st5" d="M684,430.2l-7.2-2.6c-0.7-0.2-1.3-0.6-1.8-1c-2.1-1.7-2.1-3.4,0.1-5.1c6.1-4.5,12.2-9,18.3-13.5
	c9.3-6.9,18.6-13.7,27.8-20.6c0.5-0.4,1.1-0.8,1.7-1.1c2.2-1.2,4.1-0.6,5.2,1.7c0.7,1.9,1.2,3.8,1.5,5.8c0.8,3,1.4,6.2,2.2,9.2
	c1,3.2-0.2,6.7-3,8.6c-9.3,6.8-18.6,13.6-28,20.3c-2.8,2-6.1,2-9.2,1.1C688.9,432.1,686.4,431.1,684,430.2z"/>
<path class="st5" d="M719.4,431c5-1.6,9.6-3.6,14.5-5c-0.4-1.8-0.8-3.7-1.2-5.5c-0.8-3.6-3.8-4.6-6.7-2.4
	c-6.2,4.6-12.4,9.4-18.6,14.2c-0.6,0.5-1.1,1-1.5,1.7C710.4,433.3,714.9,432.3,719.4,431z"/>
<path class="st5" d="M364.7,306.1l-7.2-2.6c-0.6-0.2-1.3-0.6-1.8-1c-2.1-1.7-2.1-3.4,0.1-5.1c6.1-4.5,12.2-9,18.3-13.5
	c9.3-6.9,18.6-13.7,27.8-20.6c0.5-0.4,1.1-0.8,1.7-1.1c2.2-1.2,4.1-0.6,5.1,1.7c0.7,1.9,1.2,3.8,1.5,5.8c0.8,3,1.4,6.2,2.2,9.2
	c1,3.2-0.2,6.7-3,8.6c-9.3,6.8-18.6,13.6-28,20.3c-2.8,2-6.1,2-9.2,1.1C369.6,308,367.1,307,364.7,306.1z"/>
<path class="st5" d="M401.6,319.5l-11.6-4.2c-0.4-0.1-0.8-0.2-1.1-0.4c-2.9-1.8-4.1-4.2-0.8-6.8c6.1-4.8,12.4-9.6,18.5-14.2
	c3-2.2,5.9-1.1,6.7,2.4c1.7,7.8,3.2,15.5,4.9,23.3c0.6,3.1-1,4.8-4.2,4.1C409.4,322.8,405.3,320.6,401.6,319.5z"/>
<ellipse transform="matrix(0.7071 -0.7071 0.7071 0.7071 -202.5602 504.0566)" class="st5" cx="507.2" cy="496.5" rx="28.3" ry="28.3"/>
<circle cx="336.5" cy="519" r="81.9"/>
<circle class="st5" cx="301.7" cy="508.3" r="28.3"/>
<path d="M222.8,628c-2.1,0-3.9-1.6-4-3.7l-1.1-16.9l-12.9,0.8c-1.2,0.1-2.2,0.1-3.1,0.1c-1.8,0.1-3.7-0.4-5.1-1.6
	c-2.2-1.9-2.3-4.4-2.5-7.9l-0.7-10.6l-17,1.1h-0.3c-2.1,0-3.9-1.6-4-3.7l-2.3-36.5l-16.9,1.1h-0.2c-2.1,0-3.9-1.6-4-3.8l-1.5-23.5
	c-0.1-2.2,1.5-4.1,3.7-4.2c0,0,0,0,0,0l639-40.3h0.3c2.1,0,3.9,1.6,4,3.8l1.2,19.6l52.8-3.3h0.2c2.1,0,3.9,1.6,4,3.7l1.6,25.1
	c0.1,2.2-1.5,4.1-3.7,4.2l-57.5,3.6h-0.2c-2.1,0-3.9-1.6-4-3.8l-1.3-20l-102.1,6.4l0.9,14c0.1,2.2-1.5,4.1-3.7,4.2l-17.1,1l1.1,17.2
	c0.1,2.2-1.5,4.1-3.7,4.2l-17.5,1.1l1,16.6c0.1,2.2-1.5,4.1-3.7,4.2l-17.3,1.1l1.1,17c0.1,2.2-1.5,4.1-3.7,4.2c0,0,0,0,0,0
	l-125.4,7.9h-0.2c-2.1,0-3.9-1.6-4-3.7l-1.1-16.8l-18.8,1.2h-0.2c-2.1,0-3.9-1.6-4-3.8l-1-16.6l-17.2,1.1h-0.3c-2.1,0-3.9-1.6-4-3.8
	l-2.5-39.5L411,531l2.5,39.4c0.1,2.2-1.5,4.1-3.7,4.2l-17.4,1.1l1,15.1c0.1,2.2-1.5,4.1-3.7,4.2l-17,1.1l1.2,18.4
	c0.1,2.2-1.5,4.1-3.7,4.2L223,628H222.8z"/>
<path class="st5" d="M790.3,482.3l1.5,23.7l56.8-3.6l1.6,25.1l-57.5,3.6l-1.5-24L681.1,514l1.1,18l-21.1,1.3l1.3,21.2l-21.5,1.3
	l1.3,20.6l-21.3,1.3l1.3,21H622l-125,7.9l-1.3-20.7l-22.8,1.4l-1.3-20.6l-21.2,1.3l-2.7-43.5l-40.9,2.6l2.7,43.3l-21.4,1.3l1.2,19
	l-21,1.3l1.4,22.4h-0.4L222.8,624l-1.3-20.8l-16.9,1.1c-1.2,0.1-2.1,0.1-2.9,0.1c-0.9,0.1-1.8-0.1-2.5-0.6c-0.9-0.8-1-2.2-1.2-5.2
	c-0.2-3.6-0.5-7.2-0.7-11l-0.2-3.7l-21,1.3l-2.6-40.5l-20.9,1.3l-1.5-23.5h0.4L790.3,482.3 M790.3,474.3h-0.5l-638.6,40.3h-0.4
	c-4.4,0.3-7.8,4.1-7.5,8.5c0,0,0,0,0,0l1.5,23.5c0.3,4.2,3.8,7.5,8,7.5h0.5l12.9-0.8l2,32.5c0.3,4.2,3.8,7.5,8,7.5h0.5l13-0.8
	c0.1,2.2,0.3,4.4,0.4,6.6c0.2,3.8,0.5,7.8,3.9,10.7c2.2,1.8,4.9,2.7,7.7,2.5c1,0,2.1-0.1,3.4-0.2l8.9-0.6l0.8,12.9
	c0.3,4.2,3.8,7.5,8,7.5h0.5l146.5-9.2h0.4c4.4-0.3,7.8-4.1,7.5-8.5c0,0,0,0,0,0l-0.9-14.4l13-0.8c4.4-0.3,7.8-4.1,7.5-8.5l-0.7-11.1
	l13.4-0.8c4.4-0.3,7.8-4.1,7.5-8.5l-2.2-35.4l24.9-1.6l2.2,35.5c0.3,4.2,3.8,7.5,8,7.5h0.5l13.2-0.8l0.8,12.6c0.3,4.2,3.8,7.5,8,7.5
	h0.5l14.8-0.9l0.8,12.8c0.3,4.2,3.8,7.5,8,7.5h0.5l125-7.9h0.4c4.4-0.3,7.8-4.1,7.5-8.5c0,0,0,0,0,0l-0.8-13l13.3-0.8
	c4.4-0.3,7.8-4.1,7.5-8.5l-0.8-12.6l13.5-0.8c4.4-0.3,7.8-4.1,7.5-8.5c0,0,0,0,0,0l-0.8-13.3l13.1-0.8c4.4-0.3,7.8-4.1,7.5-8.5
	c0,0,0,0,0,0l-0.6-10l94.1-5.9l1,16c0.3,4.2,3.8,7.5,8,7.5h0.5l57.5-3.6c4.4-0.3,7.8-4.1,7.5-8.5c0,0,0,0,0,0l-1.6-25.1
	c-0.3-4.2-3.8-7.5-8-7.5h-0.5l-48.8,3.1l-1-15.7C798,477.6,794.5,474.4,790.3,474.3L790.3,474.3z"/>
<path class="st6" d="M793,530.7l-1.5-24l-110.8,7l1.1,17.9l-21.1,1.3l1.3,21.2l-21.5,1.4l1.3,20.6l-21.3,1.3l1.3,21l-124.7,7.9
	l-1.3-20.8l-22.8,1.4l-1.3-20.6l-21.2,1.3l-2.7-43.5l-41.6,2.6l2.7,43.3l-21.4,1.3l1.2,19l-21,1.3l1.4,22.4l-146.2,9.2l-1.3-20.9
	l-17.2,1.1c-5.8,0.4-5.8,0.4-6.1-5.3c-0.3-4.9-0.6-9.8-0.9-15l-21,1.3l-2.6-40.4l-20.9,1.3l-1.4-22.8L790,482.7l1.5,23.6l56.8-3.6
	l1.5,24.3L793,530.7z M255.6,559.1l-1.2-19.6l-19.5,1.2l1.2,19.7l-20.7,1.5l-1.3-20l-19,1.2l1.3,20l19.1-1.2l1.2,19.4L237,580
	l1.2,19.7l19.8-1.2c-0.4-6.8-0.8-13.3-1.2-19.8l19.9-1.5l1.4,20.1l19.3-1.2L296,576c-6.6,0.4-13,0.8-19.4,1.2l-1.3-19.2l19.7-1.3
	l-1.3-19.7l-19.6,1.2c0.4,6.8,0.8,13.3,1.2,19.8L255.6,559.1z M509.8,543.1l-19.8,1.3l-1.2-19.8l-19.6,1.2l1.2,19.7l19.7-1.2
	l1.2,19.5l19.7-1.2l1.3,19.9l19.5-1.2l-1.2-19.9l20.2-1.3L552,580l19.4-1.2l-1.2-19.9l-19.5,1.2l-1.2-19.5l-20.2,1.3l-1.2-19.7
	l-19.5,1.2L509.8,543.1z"/>
<path class="st7" d="M215.4,561.9l20.7-1.5l-0.1-0.1l1.2,19.7l19.7-1.2l-0.1-0.1l1.2,19.8l-19.8,1.2L237,580l-20.3,1.3L215.4,561.9
	L215.4,561.9z"/>
<path class="st7" d="M529.3,541.9l20.2-1.3l1.2,19.5l19.5-1.2l1.2,19.8L552,580l-1.2-19.9l-20.2,1.3l0.1,0.1
	C530.2,554.9,529.8,548.4,529.3,541.9L529.3,541.9z"/>
<path class="st7" d="M276.6,577.2L296,576l1.3,20.1l-19.3,1.2l-1.3-20.2L276.6,577.2z"/>
<path class="st7" d="M530.5,561.4l1.2,19.9l-19.5,1.2c-0.4-6.8-0.8-13.3-1.3-19.9l-0.1,0.1l19.7-1.2L530.5,561.4z"/>
<path class="st7" d="M490.1,544.3l-19.7,1.2l-1.2-19.7l19.6-1.2L490.1,544.3L490.1,544.3z"/>
<path class="st7" d="M215.4,561.8l-19.1,1.2l-1.3-20l19-1.2C214.6,548.6,215,555.3,215.4,561.8L215.4,561.8z"/>
<path class="st7" d="M275.4,558l-1.2-19.8l19.6-1.2l1.3,19.7l-19.7,1.3H275.4z"/>
<path class="st7" d="M509.8,543.1l-1.2-19.7l19.5-1.2c0.4,6.6,0.8,13.2,1.2,19.7l0.1-0.1l-19.7,1.2L509.8,543.1z"/>
<path class="st7" d="M236.1,560.4l-1.2-19.7l19.5-1.2c0.4,6.5,0.8,13.1,1.2,19.6l0.1-0.1l-19.7,1.2L236.1,560.4z"/>
<path class="st7" d="M276.7,577.2l-19.9,1.5l0.1,0.1l-1.2-19.7l-0.1,0.1l19.9-1.1l-0.1-0.1c0.4,6.4,0.9,12.9,1.3,19.3L276.7,577.2z"
	/>
<path class="st7" d="M490,544.5l19.8-1.3l-0.1-0.1c0.4,6.6,0.8,13.1,1.2,19.7l0.1-0.1l-19.7,1.2c-0.4-6.6-0.8-13-1.2-19.5L490,544.5
	z"/>
<path class="st6" d="M255.6,559l1.2,19.7l-19.7,1.3l-1.2-19.7L255.6,559z"/>
<path class="st6" d="M511,562.7c-0.4-6.6-0.8-13.1-1.2-19.7l19.7-1.2c0.4,6.6,0.8,13.1,1.2,19.7L511,562.7z"/>
<path class="st3" d="M446.1,577c2.9,10.3,3.4,21.9,2.6,32.6c-19.4,5.8-38.7,5.9-58.8,2.4c-11.4-1.9-22.4-5.6-33.3-9.5
	c-5.6-2-11-4-16.4-6.4c-2.7-1.2-5.8-2.8-8.9-4c3.3-0.5,6.6-1.5,9.8-2.2c4.5-1.1,9.1-2.2,13.5-3.6c9.6-2.9,19-6.4,28.2-10.5
	c8.7-3.8,17.1-8.2,25.2-13.2c7.5-4.4,15.3-9.1,21.8-15c0.6,2,2.2,3.3,3.4,5c1.9,2.5,3.7,5,5.5,7.7C442,565.5,444.5,571.1,446.1,577z
	"/>
<path d="M452.4,575.6c-2.9-6-6.3-11.8-10.1-17.3c-1.7-2.6-3.7-5-5.8-7.3c-1.5-1.7-3.1-3.8-5.4-4.5l0.3-0.3c0.3-0.3-0.1-0.8-0.5-0.6
	c-2.3,1.1-4.5,2.4-6.8,3.7c-5.9,3.4-11.5,7.2-17.4,10.4c-8.7,4.7-17.6,8.8-26.8,12.5c-8.6,3.5-17.5,6.6-26.3,9.3
	c-4.4,1.4-9,2.6-13.4,3.7c-4.6,1.1-9.8,1.7-14.2,3.3c-0.7,0.3-1.2,0.8-1.4,1.5v0.2c-0.2,1,0.3,2,1.3,2.4c3.6,3.7,9.9,6.1,14.3,8.5
	c5.1,2.7,10.2,5.6,15.4,8.1c0.4,0.2,0.9,0.4,1.4,0.6c10.5,5,21.4,9.1,32.6,12.2c20.7,5.7,44.9,6.6,65-1.9c2.6-0.2,5-2.1,5.4-6
	c0.5-6.7,0-13.5-1.4-20.1C457.6,587.4,455.3,581.6,452.4,575.6z M390.1,612.1c-11.4-1.9-22.4-5.6-33.3-9.5c-5.6-2-11-4-16.4-6.4
	c-2.7-1.2-5.8-2.8-8.9-4c3.3-0.5,6.6-1.5,9.8-2.2c4.5-1.1,9.1-2.2,13.5-3.6c9.6-2.9,19-6.4,28.2-10.5c8.7-3.8,17.1-8.2,25.2-13.2
	c7.5-4.4,15.3-9.1,21.8-15c0.6,2,2.2,3.3,3.4,5c1.9,2.5,3.7,5,5.5,7.7c3.2,5.1,5.7,10.7,7.3,16.6c2.9,10.3,3.4,21.9,2.6,32.6
	C429.4,615.5,410.1,615.5,390.1,612.1z"/>
<g class="st8">
	<path d="M934.2,601c13-61,8-121.9-9.3-181.4c-1-3.4-2.3-7.3-5.6-8.7c-7.6-3.3-11.9,8.7-11.8,17.1c0.6,81.4-38.5,172.6-88.1,234.6
		c-46.9,58.8-113.7,112.5-191.5,124.5c-8.5,1.3-17,2.4-25.6,2s-16.9-3.4-24.8-6.3c-8.6-3-17.4-5.9-25.6-9.6
		c-7.9-3.6-13.6-9.9-15.3-18.5c-0.2-0.9-1.5-0.6-1.5,0.3c-0.1,3.4,0.4,6.8,1.5,10c0.2,0.5,0.3,1,0.5,1.5c-0.1,0.3-0.2,0.6-0.3,1
		c-0.8,15.3,10,25.8,23,33.9h-3.6c-86.5-0.5-172.2-39.8-229-105.1c-2.7-3.1-9.1-5.7-9.9-1.6c-0.3,1.6,0.8,3.1,1.8,4.4
		c20.7,25.7,39.1,56.5,62.3,79.6c10.2,12.7,21.9,24.3,35.7,33c14.3,9,30.5,15.1,46.3,21c1.2,0.9,2.4,1.7,3.6,2.5
		c5.1,3.4,10.4,6.5,15.9,9.1c11.6,5.6,23.6,10.5,35.9,14.5c24.3,8.2,49.8,12.4,75.3,14.3c116.6,9,217.7-42,282.9-139.4
		c26.1-39.2,45.8-82.8,56.1-128.7C933.6,603.7,934,602.4,934.2,601z"/>
</g>
<path class="st9" d="M341.9,598.2c4.1,3,7.9,2.4,11.7,5.9c5.2,2,10.2,4.3,15.1,6.9c11.5,4.3,23.6,6.9,35.8,7.8
	c17.1,1.2,33.8-2,50.8-3.8c0.7-4.1,1.1-8.3,2-12.3c-0.6-1.6-1.4-3.2-2.3-4.7c-0.2-0.4-0.6-0.5-1-0.4c-0.2-0.5,0.1-6.9-0.1-7.4
	c-1-2.3-0.7-2.4-2.6-1.8c-12.3,3.8-24.5,8.5-37.4,10.6c-17.8,3-35.8,1.5-53.5-1.3c-9.2-1.5-19.4-3.4-28.2-7.5
	c0.7,1.5-3.1,1.3-2.2,2.6c3.1,1.7,10.6,5.6,13.3,8c0.3,0.2,0.6,0.4,0.8,0.6c-1.3-2.2-1.5-2.3,0-0.3
	C345.7,602.7,341.6,598,341.9,598.2z"/>
<g class="st8">
	<path d="M801,460.6h-10.2c-0.9,0-1.8-0.1-2.7-0.4c-3.4-1.2-4.2-3.3-2.2-6.4c5.6-8.4,11.1-16.8,16.7-25.2
		c8.5-12.8,17-25.5,25.4-38.3c0.5-0.8,1-1.5,1.6-2.2c2.2-2.5,4.8-2.6,7.2-0.2c1.7,2,3.2,4.2,4.5,6.5c2.3,3.4,4.5,7.1,6.9,10.5
		c2.7,3.6,2.8,8.5,0.1,12.1c-8.5,12.7-17.1,25.4-25.7,38.1c-2.6,3.8-6.7,5.2-11,5.6C808,460.8,804.5,460.6,801,460.6z"/>
	<path d="M853.2,460.6h-16.4c-0.5,0.1-1.1,0.1-1.6,0c-4.4-1-7-3.4-4.1-8.1c5.5-8.8,11.1-17.6,16.7-26.2c2.7-4.1,6.9-4.1,9.5,0
		c5.7,8.9,11.1,17.9,16.7,26.9c2.2,3.6,0.9,6.5-3.4,7.1C864.5,461.1,858.3,460.3,853.2,460.6z"/>
</g>
<path d="M306.3,415.9c-1.4-4.3-2.4-8.8-3.5-13.2c-0.9-3.5-1.6-7.3-0.9-10.9c0.5-2.9,1.9-5.5,4-7.6c2.4-2.1,5.5-3.2,7.7-5.6
	c1.6-1.8,1.9-4.8,0-6.5c-9.5-8.5-21,4-23.9,12.8c-1.7,5.6-1.7,11.5-0.1,17.1c1.8,6.6,5.6,11.5,9.5,16.9
	C301.5,422.2,307.7,420.4,306.3,415.9L306.3,415.9z"/>
<path d="M315.7,372.4c1.2-15.5,8.3-32.2,18.2-44.1c10-12.1,22.2-19.1,36.7-24.5c8.3-3.1,5.2-15.3-3.7-13.5
	c-17.1,3.6-33.6,15.6-44.2,29.4c-5.6,7.3-9.8,15.4-12.6,24.2c-1.4,4.5-2.4,9.1-2.9,13.7c-0.6,5.1-0.2,9.8,0,14.9
	C307.5,377.9,315.3,377.9,315.7,372.4L315.7,372.4z"/>
<path d="M370.2,295.4c16-13.1,30.5-28.2,46.3-41.6c14.9-12.7,30.9-24.1,47.7-34.1c32.9-19.3,68.9-32.6,106.4-39.2
	c72.6-13,147.4-0.2,211.6,36.2c17.2,9.8,33.2,21.1,48.8,33.3c8.1,6.3,15.8,13.1,23.2,20.2c7.4,7.1,14,14.9,21.5,21.8
	c5.1,4.7,13.5-1.3,9.8-7.6c-9.3-16.1-23.8-30.2-37.2-42.9c-13.7-13-29.1-24.3-45-34.4c-31.9-20-67.1-34.4-103.9-42.6
	c-78.1-17.4-161.2-4.7-231.3,33.7c-20.1,11.1-39,24.3-56.3,39.5c-17.8,15.5-35.2,32.9-47.6,53.1C361.9,294.7,367.1,298,370.2,295.4
	L370.2,295.4z"/>
<path d="M302,426.6c6,2,11.6,4.6,17.4,7s11.8,3.7,17.8,5.4c11.6,3.2,23.4,5.8,35.2,8c24.2,4.3,48.7,7.2,73.2,8.6
	c48.8,3.2,97.8,1.2,146.4-3.8c48.8-5.2,97.2-13.1,145.1-23.5c20.2-4.3,40.4-9.1,60.1-15.4s39.9-13.8,57.5-25
	c19.3-12.1,37.6-26.8,52.4-44.2c6.9-8.1,13.2-20.2,7.9-30.8c-4.9-9.8-16.7-13.9-25.3-6.3c-5.5,4.8,1.5,11.8,7.2,9.3
	c2.2-1,5.8,1.8,7,3.3c3,3.7,1.5,8.1-0.6,12c-4.7,8.5-13.2,15.4-20.7,21.5c-14.7,12.1-31.7,20.6-49.1,28.2
	c-35.1,15.3-72.3,24.5-109.7,32.3c-88.4,18.3-178.6,29.6-269,25.3c-25.2-1.2-50.3-3.7-75.1-7.6c-12.2-2-24.5-4-36.6-6.2
	c-6.1-1.1-12.1-2.7-18.3-3.7c-6.9-1.1-13.6-1.6-20.3-3.4C298.6,416,296.2,424.8,302,426.6L302,426.6z"/>
<path d="M896.9,308c0.4-5.5-1-10.9-4.2-15.4c-3.4-4.7-9.2-10.3-15.3-7.1c-2.3,1.2-3,4-2.6,6.4c0.7,4,5,5.3,7.4,8.2
	c1.9,2.2,3.1,5.1,3.3,8C885.9,315.4,896.4,315.4,896.9,308L896.9,308z"/>
<path d="M331.1,398.4c17.5,2.7,34.9,5.8,52.6,7c18.1,1.3,36.3,1.8,54.5,1.9c36.1,0.1,72.1-1.9,108-5.8c35.7-3.8,71.2-9,106.4-16
	c35.7-7.1,71-16.1,106.2-25.1c39.5-10.1,79.4-20.4,117.8-34.2c1.3-0.4,2.1-1.8,1.8-3.1s-1.8-2.1-3.1-1.8c-35.2,7.6-70,17.6-105,26.2
	c-34.8,8.6-69.8,16-105,22.4c-70.5,12.7-141,22.7-212.7,24.5c-20.1,0.5-40.2,0.4-60.2-0.4c-20-0.8-40.2-1.1-60.2-2.9
	C328,390.7,327,397.8,331.1,398.4L331.1,398.4z"/>
<path d="M363.6,304.2c32.8,22.2,74,23.3,112.2,25.1c42.4,1.9,85.1,2,127.4-1.3c11.9-0.9,23.7-2.2,35.5-3.7c12-1.5,24.2-2.7,35.9-5.7
	c6.4-1.6,4.8-11.1-1.5-11.2c-10.5-0.3-21,0.7-31.5,1.2c-10.2,0.5-20.4,0.7-30.5,1.2c-20.7,0.9-41.5,1.6-62.2,2
	c-40.1,0.7-80.8,0.3-120.8-3.4c-20.1-1.8-41-4.4-59.7-12.6C362.8,293.3,358.3,300.6,363.6,304.2L363.6,304.2z"/>
<path d="M792,313.9c7.5-2.3,15.7-3.4,23.4-4.3s15.4-2.1,23.1-2.6c7.5-0.5,14.9-0.8,22.4-0.6c7.7,0.2,16.2,1.9,23.8,0.4
	c4.5-0.9,5.5-8.1,1.3-10c-6.9-3.2-15.8-3.2-23.3-3.4c-8.4-0.2-16.8,0.1-25.2,1c-7.8,0.9-16.1,1.8-23.7,4c-8.2,2.4-15.9,5.6-23.9,8.3
	C785.5,308.2,787.3,315.3,792,313.9L792,313.9z"/>
<path d="M876.3,271.1c1.2-7.2,9.8-8.7,15.1-5.2c7,4.6,6.1,13.1,10.7,19.1c1.3,1.8,4.1,2.7,5.8,0.8c9.9-11.3-2.1-29.4-13.8-33.9
	c-6.2-2.4-13.1-2-19,1.2c-6.4,3.6-9,9.5-9.8,16.5C864.5,275.8,875.3,277.3,876.3,271.1L876.3,271.1z"/>
<path d="M910.1,286c5-4.6,7.1,10.8,7,12.7c-0.2,3.2-0.8,6.5-1.9,9.5c-1.1,3.3-3.1,6.1-3.9,9.5c-0.9,4.1,3,6.5,6.5,5
	c11.5-5,13.3-23.5,10.4-34c-1.5-5.5-4.5-10.7-9.9-13.2s-11.9-1.5-15.6,3.1C898.7,283.8,905,290.6,910.1,286L910.1,286z"/>
<path d="M886,274.6c0.4,4.5,0.6,8.9,0.5,13.4c0,4.1-0.7,8.3,0.2,12.4c0.7,3,4.8,2.6,5.7,0c2.7-8-0.4-18.5-2.4-26.3
	C889.4,272,885.8,272.3,886,274.6L886,274.6z"/>
<path d="M873.6,259.5c-3-17.7,5.6-33.5,15.7-47.3s23-27.5,24.9-45.2l-11.5,4.7c14.2,12.8,21.9,33.8,23.1,52.5
	c0.6,9.9-0.4,19.8-3,29.3c-1.3,4.7-2.9,9.2-4.9,13.6c-2.2,4.7-5.7,9.1-6.9,14.1c-1,4,3.8,8.8,7.7,5.9c8.3-6.1,12.5-19.3,15.3-28.8
	c6.4-21.8,5.2-45.1-3.5-66c-4.4-10.6-10.5-19.5-17.2-28.7c-2.8-3.9-9-4.8-11.6,0c-4.4,8.2-8.7,16.1-14,23.8s-11.3,15-16.3,22.9
	c-9.6,15.2-16.5,36.2-6.7,52.9C867.7,268.3,874.5,264.7,873.6,259.5L873.6,259.5z"/>
<path d="M915,320.8c1.6,3.4,1.7,7,2.9,10.5c1.2,3.2,2.5,6.5,3.6,9.7c2.2,6.3,3.9,12.7,5.3,19.2c1.4,6.5,2.3,13,3.1,19.6
	c0.9,6.8,2.1,14.2,0,20.9l6.1-4.6c-2.8,0.1-5.4,0.8-8.2,0.4c-2.6-0.3-5-1.4-7.6-1.9c-6.3-1.3-10.9,6-6.3,10.9
	c5.9,6.3,18.2,7.4,25.2,2.4c1.7-1.2,3.3-3.1,3.1-5.4c-0.7-7.5,0.9-15,0.9-22.5c-0.1-7.9-1-15.7-2.8-23.4c-1.7-7.3-4-14.5-7-21.5
	c-1.4-3.5-3-6.9-5-10.1c-1.9-3-4.8-5.1-6.8-8.1c-1.2-1.8-3.5-2.3-5.3-1.1C914.6,316.9,914,319.1,915,320.8L915,320.8z"/>
<path d="M911.4,275.4c3.5-9.9,5.7-20.2,6.5-30.6c1-10.9-0.5-20.4-3.3-30.9c-0.7-2.7-3.9-3.2-5.9-1.6c-4.1,3.4-8.7,8.2-9.2,13.7
	c-0.2,2.5,3,3.4,4.6,1.9c3.5-3.3,5.6-7.6,9.5-10.7l-6-2.5c-0.2,10-0.8,19.9-1.2,29.9c-0.4,9.9-1.3,19.8-2.8,29.6
	C903.2,278.9,910,279.2,911.4,275.4L911.4,275.4z"/>
<path d="M899.8,349.6l7.3,13.3c2.2,3.9,4.1,8.1,7.8,10.8c2,1.5,5.2-0.5,5-2.9c-0.5-4.5-3.1-8.4-5.3-12.3l-7.7-13.1
	C904.2,340.9,897.3,345,899.8,349.6L899.8,349.6z"/>
<path class="st10" d="M930,390.7c-2.2-19.8-4.1-39.6-6.7-59.3c-0.5-3.7-2-7.1-4.7-9.3c0.9-6.2,1.1-12.4-0.5-18.7
	c-1.1-4.5-3.1-8.6-6-12.2c8.1-11.7,13.2-25.2,14.8-39.3c1-8.7,0.5-17.5-1.5-26.1c-1.7-7.4-5.5-19.9-14.2-21.3
	c-2.4-0.6-4.9,0.4-6.1,2.5c-3.8,6-0.6,14.1,0,20.8c0.7,6.8,0.6,13.6-0.3,20.4c-2.1,13.7-7.3,26.4-16.9,36.6
	c-2.4,2.7-3.5,6.2-3.2,9.8c-0.8-0.8-1.7-1.5-2.7-2.1c-2.1-1.4-4.5-2.3-7-2.8c-19.4-39.2-55.9-69.4-97.8-81.5
	c-0.6-0.2-1.1-0.3-1.7-0.3c-8.6-7.8-17.5-15.3-26.7-22.6c-3.9-3.1-9.3-3.8-13.1,0c-3.2,3.2-3.9,10,0,13.1c9.3,8,18.3,16.5,26.9,25.2
	c0.6,1.7,1.7,3.2,3.1,4.3l3.5,3c11.7,13.8,22.2,28.7,31.3,44.3c-85.4-6.2-169.6,16.5-254.1,25.6c-26.1,2.8-52.1,5.6-78.2,8.3
	c-5.2,0.5-7.5,9-1.4,10c30,4.9,60.1,3.6,90,0.3c10.9,0,21.7-0.3,32.6-0.9c22.3-1.2,44.7-2.1,67.1-3.2c45.1-2.2,90.2-3.1,135.3-2.9
	l6.3,0c-17.7,6-35.5,11.6-53.4,16.8l-147.6,21.7l-203.5,29.9c-4.3,0.6-8.6,1.2-12.8,1.9s-8.3,2.2-12.4,3.6c-10.8,3.5-9,19.7,2.7,20
	c18.2,0.5,36.5-3.6,54.5-6.2l0.9-0.1c5.9,0.4,11.9,0.6,17.9,0.5c15.9-0.3,31.8-0.9,47.7-1.9c32.6-2.2,65-5.9,97.2-10.8
	c54.5-8.2,108.4-20,161.3-35.4l46.3-6.8c17.8-2.6,35.5-5.3,53.3-7.9c10-1.5,22-2.9,30.4-8.6c-46.3,50.8-120.3,63.8-185.4,74.4
	c-82.3,13.5-165,26.7-248.6,27.4c-23,0.2-46.1-0.6-69-2.6c-11.8-1-23.5-2.7-35.2-3.9c-11.5-1.1-23.5-3.2-34.9-0.4
	c-2.5,0.5-4.4,2.6-4.5,5.2c-0.2,0.1-0.4,0.2-0.6,0.4c-2.3,1.4-3,4.4-1.6,6.7c0.4,0.7,1,1.2,1.6,1.6c4.1,2.6,8.3,4.9,12.7,7.1
	c4.7,2.5,10.1,3,15.1,4.4c9.8,2.6,19.8,4.7,29.9,6.2c20.6,3.3,41.2,5.9,62,7.8c41,3.8,82.2,5.2,123.3,4.1
	c41.2-1.1,82.4-4.7,123.2-10.6c37.8-5.5,75.7-12.5,112.2-23.6c40.2-12.2,78.5-29.8,111.4-56.3c1.5-1.2,2.5-2.8,3-4.6
	c2.8,8.8,7,17,12.6,24.4c3.2,4.3,7.9,7,13.4,5.5C925.9,400.9,930.5,395.8,930,390.7z M675.6,432c-16.9,2.7-33.9,4.9-50.9,6.6
	c21.9-3.2,43.7-6.7,65.5-10.2c16.3-2.6,32.6-5.2,48.9-8.3C717.9,424.9,696.5,428.7,675.6,432z M892.3,360.2
	c-1.6-1.7-3.8-2.8-6.1-3.2c1.8-1.6,3.5-3.3,5.3-5c0.2,2.8,0.5,5.6,0.9,8.4L892.3,360.2z M890.5,304.9c-0.2-0.7-0.4-1.5-0.6-2.2
	c0.1,0,0.2,0.1,0.3,0.2c2.1,0.9,3.1,1.5,4,2.9C893,305.3,891.7,305,890.5,304.9z"/>
<g class="st11">
	<path class="st12" d="M195.2,809.8l0.1,25.6L156,858l-0.1-25.6L195.2,809.8z"/>
	<path class="st13" d="M156,858l-69.4-40.3l-0.1-25.6l69.4,40.3L156,858z"/>
	<path class="st14" d="M155.9,832.5l-69.4-40.3l39.3-22.7l69.4,40.3L155.9,832.5z"/>
	<path class="st12" d="M150.1,835.6l0.1,25.6L111,883.8l-0.1-25.6L150.1,835.6z"/>
	<path class="st13" d="M111,883.8l-69.4-40.3l-0.1-25.6l69.4,40.3L111,883.8z"/>
	<path class="st14" d="M110.9,858.2l-69.4-40.3l39.3-22.7l69.4,40.3L110.9,858.2z"/>
	<path class="st15" d="M193.9,765.6l0.1,36.5l-95.3,55l-0.1-36.5L193.9,765.6z"/>
	<path class="st16" d="M98.7,857.1L4,802.1v-36.5l94.7,55V857.1z"/>
	<path class="st17" d="M98.6,820.6L4,765.6l95.3-55l94.7,55L98.6,820.6z"/>
	<path class="st18" d="M193.4,692.5l0.2,73l-95.3,55l-0.2-73L193.4,692.5z"/>
	<path class="st19" d="M98.3,820.5l-94.7-55l-0.2-73l94.7,55L98.3,820.5z"/>
	<path class="st20" d="M98.1,747.6l-94.7-55l95.3-55l94.7,55L98.1,747.6z"/>
	<path class="st5" d="M145.9,738.8v14.6l-12.7,7.3v14.6L146,768l-25.4,14.7l-0.1-29.2L145.9,738.8z"/>
	<path class="st21" d="M145.9,753.4V768l-12.7,7.3v-14.6L145.9,753.4z"/>
	<path class="st5" d="M183.3,717.3v14.6l-12.7,7.3v14.6l12.7-7.3l-25.4,14.7l-0.1-29.2L183.3,717.3z"/>
	<path class="st21" d="M183.3,731.9v14.6l-12.7,7.3v-14.6L183.3,731.9z"/>
	<path class="st19" d="M41.3,838.5l-0.1,21.9L9.5,842.1l0.1-21.9L41.3,838.5z"/>
	<path class="st18" d="M41.3,838.5l31.6-18.3l-0.1,21.9l-31.6,18.3L41.3,838.5z"/>
	<path class="st22" d="M9.5,820.2l31.6-18.3l31.8,18.3l-31.6,18.3L9.5,820.2z"/>
	<path class="st23" d="M50.8,829.4l31.6-18.3v14.6L50.8,844V829.4z"/>
	<path class="st24" d="M0,800.1l31.6-18.3l50.8,29.3l-31.6,18.3L0,800.1z"/>
	<path class="st16" d="M50.8,829.4V844l-9.5-5.5L9.5,820.2L0,814.7v-14.6L50.8,829.4z"/>
	<path class="st17" d="M193.5,659.9l0.1,36.5l-95.3,55l-0.1-36.5L193.5,659.9z"/>
	<path class="st16" d="M98.3,751.4l-94.7-55l-0.1-36.5l94.7,55L98.3,751.4z"/>
	<path class="st24" d="M98.2,714.9l-94.7-55l95.3-55l94.7,55L98.2,714.9z"/>
	<path class="st17" d="M176.1,724.1c7.9-4.7,16.5-8.2,25.4-10.4v14.6c-8.9,2.2-17.5,5.7-25.4,10.4c-9.1,5.4-17.7,11.7-25.4,18.9V743
		C158.5,735.8,167,729.5,176.1,724.1L176.1,724.1z"/>
	<path class="st16" d="M150.8,757.6l-31.5-18.3v-14.6l31.6,18.3L150.8,757.6z"/>
	<path class="st24" d="M150.7,743l-31.6-18.3c7.7-7.2,16.3-13.6,25.4-18.9c9.1-5.4,25.2-10.7,25.2-10.7l31.8,18.8
		c0,0-16.3,4.9-25.4,10.3C167,729.5,158.5,735.8,150.7,743z"/>
	<path class="st25" d="M180.6,794.8l-6.3-3.7l-1.7-1.2l6.3,3.7L180.6,794.8z"/>
	<path class="st25" d="M168.5,808.3l-6.3-3.7l-3.3-2.9l6.3,3.7L168.5,808.3z"/>
	<path class="st26" d="M104.6,824.3l-6.3-3.7v-2.3l6.3,3.7V824.3z"/>
	<path class="st27" d="M200.5,756.2v6.4v4v2.3l-19.9,25.9l-1.7-1.2l-10.5,14.7l-3.3-2.9l-12.5,19.4l-12.6-4.9l-3.3,6.7l-10.6-2.5
		l-1.7,3.1l-19.9-2.9V822v-10.4L200.5,756.2z"/>
	<path class="st26" d="M104.6,822l-6.3-3.7v-10.4l6.3,3.7V822z"/>
	<path class="st28" d="M104.5,811.6l-6.3-3.7l95.9-55.4l6.3,3.7L104.5,811.6z"/>
	<path class="st28" d="M51.1,761.3l6.3-3.7l40.9,50.2l-6.3,3.7L51.1,761.3z"/>
	<path class="st28" d="M92,811.5l6.3-3.7l6.3,3.7l-6.3,3.7L92,811.5z"/>
	<path class="st27" d="M98.3,815.2l6.3-3.7v12.8l-6.3,3.7V815.2z"/>
	<path class="st25" d="M51.2,731.3l-0.1,30L92,811.5l6.4,3.7V828L51,799.2l-11.3-6.5l-5.6-3.2v-12.9l5.7-21.7l0.1-30L51.2,731.3z"/>
	<path class="st28" d="M51.2,731.3l6.3-3.7l-0.1,30l-6.3,3.7L51.2,731.3z"/>
	<path class="st29" d="M39.9,724.8l6.3-3.7l11.3,6.5l-6.3,3.7L39.9,724.8z"/>
</g>
</svg>
