<svg version="1.1" id="Primary_Logo" xmlns="http://www.w3.org/2000/svg" x="0" y="0" viewBox="0 0 953.7 883.8" style="enable-background:new 0 0 953.7 883.8" xml:space="preserve"><style>.st0{display:none}.st3{fill:#3c1a26}.st4{fill:#29121a}.st5{fill:#421d2a}.st6{fill:#de6660}.st7{fill:#a24741}.st8{fill:#db5b54}.st9{fill:#bd967f}.st10{fill:#886b59}.st11{fill:#b88d73}.st12{fill:#fff}.st13{fill:#493239}.st14{fill:#caa390}.st15{fill:#c4524c}.st16{fill:#f2716a}.st17{fill:#898989}.st18{fill:#888}.st19{fill:#d6d6d6}.st20{fill:#fdfdfd}.st21{fill:#dcdcdc}.st23{display:inline;fill:none}.st24{fill:#f36c21}.st24,.st25{display:inline}.st28{fill:#8c8c8c}.st33{display:inline;fill:#fff}.st37{fill:#ff0839}.st40{fill:#d23837}.st41{fill:#ff4f5f}.st42{fill:#093142}.st44{fill:#d1d1d1}.st45{fill:#002941}.st47,.st48{display:inline;fill:#f7fcfe}.st48{fill:#2775ca}.st51{fill:#ec3e3f}.st52{opacity:.3}.st54{fill:#5a5564}.st58{fill:#f7fcfe}</style><g style="opacity:.5"><path class="st3" d="m195.2 809.8.1 25.6L156 858l-.1-25.6 39.3-22.6z"/><path class="st4" d="m156 858-69.4-40.3-.1-25.6 69.4 40.3.1 25.6z"/><path class="st5" d="m155.9 832.5-69.4-40.3 39.3-22.7 69.4 40.3-39.3 22.7z"/><path class="st3" d="m150.1 835.6.1 25.6-39.2 22.6-.1-25.6 39.2-22.6z"/><path class="st4" d="m111 883.8-69.4-40.3-.1-25.6 69.4 40.3.1 25.6z"/><path class="st5" d="m110.9 858.2-69.4-40.3 39.3-22.7 69.4 40.3-39.3 22.7z"/><path class="st6" d="m193.9 765.6.1 36.5-95.3 55-.1-36.5 95.3-55z"/><path class="st7" d="M98.7 857.1 4 802.1v-36.5l94.7 55v36.5z"/><path class="st8" d="M98.6 820.6 4 765.6l95.3-55 94.7 55-95.4 55z"/><path class="st9" d="m193.4 692.5.2 73-95.3 55-.2-73 95.3-55z"/><path class="st10" d="m98.3 820.5-94.7-55-.2-73 94.7 55 .2 73z"/><path class="st11" d="m98.1 747.6-94.7-55 95.3-55 94.7 55-95.3 55z"/><path class="st12" d="M145.9 738.8v14.6l-12.7 7.3v14.6L146 768l-25.4 14.7-.1-29.2 25.4-14.7z"/><path class="st13" d="M145.9 753.4V768l-12.7 7.3v-14.6l12.7-7.3z"/><path class="st12" d="M183.3 717.3v14.6l-12.7 7.3v14.6l12.7-7.3-25.4 14.7-.1-29.2 25.5-14.7z"/><path class="st13" d="M183.3 731.9v14.6l-12.7 7.3v-14.6l12.7-7.3z"/><path class="st10" d="m41.3 838.5-.1 21.9-31.7-18.3.1-21.9 31.7 18.3z"/><path class="st9" d="m41.3 838.5 31.6-18.3-.1 21.9-31.6 18.3.1-21.9z"/><path class="st14" d="m9.5 820.2 31.6-18.3 31.8 18.3-31.6 18.3-31.8-18.3z"/><path class="st15" d="m50.8 829.4 31.6-18.3v14.6L50.8 844v-14.6z"/><path class="st16" d="m0 800.1 31.6-18.3 50.8 29.3-31.6 18.3L0 800.1z"/><path class="st7" d="M50.8 829.4V844l-9.5-5.5-31.8-18.3-9.5-5.5v-14.6l50.8 29.3z"/><path class="st8" d="m193.5 659.9.1 36.5-95.3 55-.1-36.5 95.3-55z"/><path class="st7" d="m98.3 751.4-94.7-55-.1-36.5 94.7 55 .1 36.5z"/><path class="st16" d="m98.2 714.9-94.7-55 95.3-55 94.7 55-95.3 55z"/><path class="st8" d="M176.1 724.1c7.9-4.7 16.5-8.2 25.4-10.4v14.6c-8.9 2.2-17.5 5.7-25.4 10.4-9.1 5.4-17.7 11.7-25.4 18.9V743c7.8-7.2 16.3-13.5 25.4-18.9z"/><path class="st7" d="m150.8 757.6-31.5-18.3v-14.6l31.6 18.3-.1 14.6z"/><path class="st16" d="m150.7 743-31.6-18.3c7.7-7.2 16.3-13.6 25.4-18.9 9.1-5.4 25.2-10.7 25.2-10.7l31.8 18.8s-16.3 4.9-25.4 10.3c-9.1 5.3-17.6 11.6-25.4 18.8z"/><path class="st17" d="m180.6 794.8-6.3-3.7-1.7-1.2 6.3 3.7 1.7 1.2zM168.5 808.3l-6.3-3.7-3.3-2.9 6.3 3.7 3.3 2.9z"/><path class="st18" d="m104.6 824.3-6.3-3.7v-2.3l6.3 3.7v2.3z"/><path class="st19" d="M200.5 756.2v12.7l-19.9 25.9-1.7-1.2-10.5 14.7-3.3-2.9-12.5 19.4-12.6-4.9-3.3 6.7-10.6-2.5-1.7 3.1-19.9-2.9v-12.7l96-55.4z"/><path class="st18" d="m104.6 822-6.3-3.7v-10.4l6.3 3.7V822z"/><path class="st20" d="m104.5 811.6-6.3-3.7 95.9-55.4 6.3 3.7-95.9 55.4zM51.1 761.3l6.3-3.7 40.9 50.2-6.3 3.7-40.9-50.2z"/><path class="st20" d="m92 811.5 6.3-3.7 6.3 3.7-6.3 3.7-6.3-3.7z"/><path class="st19" d="m98.3 815.2 6.3-3.7v12.8l-6.3 3.7v-12.8z"/><path class="st17" d="m51.2 731.3-.1 30L92 811.5l6.4 3.7V828L51 799.2l-11.3-6.5-5.6-3.2v-12.9l5.7-21.7.1-30 11.3 6.4z"/><path class="st20" d="m51.2 731.3 6.3-3.7-.1 30-6.3 3.7.1-30z"/><path class="st21" d="m39.9 724.8 6.3-3.7 11.3 6.5-6.3 3.7-11.3-6.5z"/></g><circle cx="261.2" cy="252.2" r="252.2" style="fill:#00283f"/><path class="st37" d="M368.8 324.1s48.7 61.7 97.4 37.1c0 0-17.2 3.2-32-67.2l-27.4-171.5s-8.8-43.6-58.4-52.4c0 0-116.4-38.5-207.7 17.6 0 0-15.3 1.4-27.8 53.3L86.4 305.1s-10.2 48.2-28.7 55.6c0 0 43.1 29.2 89.5-33.4l1.9-12.5s-13.4-81.6-7-101.1l235-1.4c0 1 7.9 28.8-8.3 111.8z"/><path d="M142.5 216.5h236s24.6 155.3-118.7 231.8c0 0-127.9-45-117.3-231.8z" style="fill:#e8e9e8"/><path class="st37" d="M158.7 325.4s71.4 38.9 201.2 8.3c0 0-19 73.7-100.1 114 0 .1-83-36.5-101.1-122.3z"/><path class="st40" d="M393.8 108.5s-29.7-5.1-26 33.8l-7.4-.5s-3.7-32.9 16.7-38.5c0-.4 10.2-1.8 16.7 5.2zM128.1 106.6s31.1-8.3 28.3 35.7l7.4-.5S168 107 146.2 101c-.4.1-11.1-1.8-18.1 5.6zM181.5 335.6s-1.9-.5-3.7-.9c-4.6-.5-7.9 5.1-4.6 8.8 1.4 1.4 3.2 3.2 7 4.6 0 0 89 32.5 160.9 18.5 0 0-2.3 7.9-16.7 9.3 0 0-69.1 10.2-156.2-25.5 0 0-8.8-12.5-8.8-17.6-.7.5.7-7.4 22.1 2.8z"/><path class="st40" d="M318.7 370c12.1-1.9 20.4-6.5 30.6-18.1 0 0 2.3 15.8-18.1 17.2-8.8.4-12.5.9-12.5.9zM310.8 379.7h1.9c7 .9 5.6 8.3-3.2 14.8 0 0-12.5 9.7-56.6 10.7 0 0-49.6.5-60.7-18.5 0 0 11.6 20.4 19.9 22.7 0 0 22.3 5.6 53.3 3.2 0 0 50.1-4.6 58-18.5 0 0 8.3-7.9 3.2-14.4-.5.5-6.1-3.7-15.8 0zM229.7 415.4c-2.3.5-1.9 3.2-.5 4.2 3.7 3.7 13 9.7 26.9 18.1 1.4.9 3.2.9 5.1.5 4.2-1.4 13.4-4.6 24.6-9.3l-4.6 4.6-22.7 14.4-38.5-26.4v-7c-.1 0 5.5.4 9.7.9zM169.4 130.7h184.1v10.7H169.4z"/><path class="st40" d="M353 141.4s1.4-11.6 6-28.3c0 0-11.1 7.9-14.8 28.3h8.8zM179.1 141.4s-2.8-21.8-14.4-28.3c0 0 5.6 13.9 6 28.3h8.4zM387.8 191.5v-11.1c0 8.8-4.6 10.7-7.9 11.1H139.7c-3.2-.5-7.9-2.3-7.9-11.1V198c0 6 5.1 11.1 11.1 11.1h233.2c6 0 11.1-5.1 11.1-11.1v-6.5h.6zM387.8 209.1s2.8 38-1.9 74.6c-1.9 14.8.5 29.7 7 43.1 7.4 14.4 19.9 28.3 42.7 29.7 0 0 12.5 0 4.2-12.5 0 0-15.8-31.1-14.8-86.2 0 0 16.7 89.5 35.2 100.6l6.5 6.5s-21.8 3.2-30.6 3.7c0 0-34.3-2.3-63.1-42.7 0 0-4.2 4.2 2.8-52.9 0 0 5.1-55.2 5.1-56.1-1-1.3 6.9-7.8 6.9-7.8zM130.9 209.1s-2.8 38.5 2.3 75.1c1.9 13.4 0 27.8-6 40.3-7 14.8-19.5 30.1-42.2 32-1.9 0-3.7-.5-4.6-1.9-1.4-1.4-1.9-4.2.5-8.8 0 0 17.2-20.4 17.2-86.2 0 0-16.2 70.9-30.1 92.3l-10.7 11.6s16.7 4.2 25.5 5.1c0 0 34.3-2.3 63-42.7 0 0 4.2 4.2-2.8-52.9 0 0-5.1-55.2-5.1-56.1.9-1.8-7-7.8-7-7.8z"/><path class="st41" d="M176.8 83.9c.5-3.2 2.3-6 5.6-6.5 20.4-3.2 113.1-17.2 161.3 4.2 10.2 4.2 12.5 9.3 8.8 15.3-3.7 6.5-11.6 9.7-19 7.4-22.3-6.5-79.7-24.1-151.1-14.4-1.4 0-3.2 0-4.2-1.4-.4-.9-1.4-2.3-1.4-4.6zM369.7 179H149c-4.2 0-7.4-3.2-7.4-7.4v-4.2c0-4.2 3.2-7.4 7.4-7.4h220.7c4.2 0 7.4 3.2 7.4 7.4v4.2c-.5 4.1-3.7 7.4-7.4 7.4zM250.1 352.3c15.8.5 54.7 3.7 90.4-7 2.8-.9 4.6 2.3 2.8 4.2 0 .5-3.7 5.6-11.6 10.2-8.3 5.1-29.2 4.6-36.6 4.6-11.6.5-52.9-4.2-52.9-8.8.5-2.7 6.9-3.2 7.9-3.2zM195.4 372.3c7.9 2.3 25 6.5 58.4 11.6 1.4.5 2.8.9 3.7 2.3.9.9 1.4 2.8.5 4.6-.9 1.9-2.3 2.8-4.2 3.7-5.1 1.9-19.5 4.2-51-6-1.9-.5-3.7-1.9-5.1-3.2-1.9-1.9-4.2-4.6-6-7.9-1.4-3.3.9-6.1 3.7-5.1zM247.8 421.4c7 .5 18.1.9 30.1-.5 1.4 0 1.9 1.9.5 2.3l-14.4 6c-2.8 1.4-6 .9-8.8-.5l-8.3-4.6c-1.5-.4-1-2.7.9-2.7zM398.9 130.3s29.2 176.2 16.2 172c-3.2-.9-5.6-4.6-6.5-7.9-4.1-11.1-9.7-51.5-9.7-164.1zM124.4 130.3s-29.2 176.2-16.2 172c3.2-.9 5.6-4.6 6.5-7.9 4.2-11.1 9.7-51.5 9.7-164.1z"/><path class="st37" d="M363.2 322.7s-48.7-7.9-82.1-45c0 0-8.3-8.3-21.3-7.9-8.3.5-16.2 4.2-21.8 10.7-7.9 8.8-25.5 25.5-81.1 41.7 0 0 14.8 17.6 106.2 23.6-1 0 71.8 6.5 100.1-23.1z"/><path class="st40" d="M288.1 325.4s19 10.2 32.9 8.3c0 0 26-7.4 28.3-8.3 0 0 8.3-1.4-16.2-10.7l26.9 7.4v6l-45 14.4-26.9-17.1zM234.8 325l-5.6 9.7c-.5.9 0 2.3 1.4 2.8 7.4 1.4 29.7 4.6 59.8.9 1.4 0 2.3-1.9 1.4-2.8-1.4-1.9-4.2-5.6-7.9-12.1l20.4 13.9-5.1 7.9-39.4.9-42.7-4.2-1.4-5.1 19.1-11.9z"/><path class="st40" d="M225 329.6s-15.8 6.5-27.8 2.3l-22.3-6.5s-1.4-.9 1.9-2.8c4.2-1.9 7.9-4.2 11.6-6.5 1.9-1.4 4.6-3.2 7.9-5.1l-9.7 1.4-27.4 11.6 7 3.7 19 7 16.7 4.2H214l11-9.3zM296.9 306.9s-5.6-7.4-3.7-9.7c0 0 .9-3.7 12.5 2.8l-20.4-16.7-4.6 5.6 14.4 20.4 1.8-2.4zM226 306s5.6-8.3 3.7-10.7c0 0 0-3.7-11.6 2.8l19.5-16.7 4.6 5.6-14.4 20.4-1.8-1.4zM247.8 282.3s1.4-8.3 13.9-8.3c0 0 10.2.5 12.5 8.8l1.4-12.1-14.4-5.6-13 3.2-4.6 8.3 4.2 5.7z"/><path class="st42" d="M321 274s15.3-1.4 23.6-15.3c0 0-21.8 16.7-40.3 4.2-1.4-.9-3.7-.5-4.6.9-.9 1.4-.5 2.8.9 4.2 3.7 2.7 11.1 6.9 20.4 6zM200.9 275.8c9.7 0 16.7-4.6 19.9-7.4.9-.9 1.4-2.8.5-4.2-.9-1.4-3.2-1.9-4.6-.9-17.6 13.4-40.3-1.9-40.3-1.9 8.8 14 24.5 14.4 24.5 14.4z"/><path d="M468 361.1c-7.4-1.9-18.1-13-27.8-55.2-6-25.5-29.7-179-29.7-179-5.1-26.4-21.3-45-49.6-57-5.6-2.3-23.6-7.4-23.6-7.4-56.6-12.1-99.2-8.8-149.7.5 0 0-24.1 5.6-32.5 9.3-24.6 11.6-38 28.7-42.7 54.2l-15.3 97.4C80.4 342.1 68.8 355.1 54.9 360.7l-4.6 1.4 4.2 2.3c.5.5 14.8 7 34.3 5.6 11.6-.9 22.7-4.6 32.9-10.7 8.3-5.1 16.2-11.6 23.2-19.9 3.7-4.2 10.7-3.2 13 1.9 4.6 9.7 11.1 22.7 13.4 26.4 18.5 30.6 41.7 55.2 68.1 71.9 10.7 7 18.1 10.2 19 10.2l.5.5.9-.5c42.2-16.7 81.1-69.5 85.3-75.6 8.3-13 14.4-25 18.1-33.8 2.3-5.6 9.7-6.5 13.4-1.9 7.4 8.8 15.3 15.8 24.1 20.9 10.2 6 21.3 9.7 32.9 10.7 1.9 0 3.7.5 5.6.5 16.7 0 28.3-5.6 28.7-6l4.2-2.3-4.1-1.2zM167.1 75.6C197.2 65.4 237.6 63.5 257 63c0 0 54.2-3.7 98.3 13.4 18.1 8.8 9.3 26.9 8.3 28.3-6 8.8-11.1 21.3-10.7 37.1H170.8c.5-15.8-5.1-28.3-10.7-37.1-.4-.9-11.6-21.7 7-29.1zm-23.7 11.6zm-30.1 269.3c-.5.5-.9.9-1.9.9-23.2 14.8-45 7.9-50.5 5.6-.5 0-.5-.9 0-.9 1.4-.9 2.8-1.9 3.7-3.2 7.4-6.5 22.3-27.4 32.5-93.6 0 0 11.6-75.1 20.4-126.6 1.9-11.1 4.6-19.9 7.9-26.9 6-13.9 25.5-14.4 32.5-1.4 1.9 3.2 2.8 6.5 4.2 9.7 2.8 9.7 2.3 17.2 1.9 20.9v.5h-15.8c-11.1 0-19.9 8.8-19.9 19.9V199c0 7 3.7 13.4 9.7 16.7V244c0 15.3 1.4 30.1 4.2 45 4.5 26.2-6.6 53.1-28.9 67.5zm45.4-28.3zm139.6 89.5c-11.1 10.2-23.6 19.9-37.6 27.4-.9.5-2.3.5-3.7 0-13-7-24.6-15.8-35.2-25-2.3-1.9-.5-5.6 2.3-5.1 15.3 2.3 42.7 4.2 71.4-1.9 3.3-1 5.1 2.8 2.8 4.6zm26.4-29.2c-5.6 7-12.5 12.1-20.9 14.8-1.4.5-3.2.9-5.1 1.4-15.3 4.6-39.4 8.8-72.3 5.6-10.7-.9-20.4-6-26.9-14.4-7.9-9.3-14.4-18.5-19-26.4-2.8-4.6 1.4-10.2 6.5-8.8 35.2 10.7 65.8 15.3 89.9 17.2 7.4.5 15.3.9 23.2.9 6.5 0 13-.5 19-.9 5.6.9 8.9 6.4 5.6 10.6zm27.8-42.2s-4.2 8.8-12.5 20.9c-2.3 3.7-6.5 6.5-11.1 7-39.4 5.1-79.7-1.9-108-8.8-23.6-6-43.1-11.1-51.9-16.7-4.2-2.8-5.1-7.4-5.6-8.8-.9-4.6 2.3-9.3 6.5-7.4 27.8 9.3 102 29.2 174.8 5.6 5.5-1.5 10.1 3.6 7.8 8.2zm4.7-19.9c-11.6 5.1-26 9.3-32.9 11.1-3.2.9-7 .9-10.2 0-6.5-1.4-17.6-5.6-32.5-16.7 0 0 6.5 10.7 18.1 16.7 1.9.9 1.4 4.2-.9 4.6-2.8.5-5.1.5-7.9.9-21.8 2.3-31.1 1.4-61.2-1.4 0 0-3.2-.5-6-.9-2.3-.5-2.8-3.2-.9-4.6 10.2-6.5 16.2-15.8 16.2-15.8-11.6 8.3-20.9 13-27.4 15.3-3.7 1.4-7.9 1.4-11.6.5-9.7-2.3-22.3-6-30.6-8.8-2.8-.9-2.3-4.6 0-5.1 12.5-3.7 34.8-13 66.8-37.1 1.9-1.4 4.6.5 3.7 2.8-11.6 26-49.6 39.9-49.6 39.9 45.9-13.4 56.6-35.7 58.9-47.3 1.4-6 6.5-10.2 12.5-10.2h.9c6 .5 10.7 4.6 11.6 10.2 2.3 11.6 13 33.8 58.9 47.3 0 0-37.1-13.9-49.1-38.9-.9-2.3 1.9-4.6 3.7-2.8 15.3 12.1 44 32 69.5 36.2 1.4-.1 1.8 3.1 0 4.1zm7.4-10.2c-7.9-1.9-49.6-12.1-85.3-46.4 0 0-14.8-13.4-34.3-1.4 0 0-55.6 46.4-89.5 49.1-12.5-40.8-11.1-83-10.7-96 0-1.4 1.4-2.8 3.2-2.8h223.5c1.9 0 3.2 1.4 3.2 2.8.5 13.1 1.9 54.3-10.1 94.7zm8.8-107.1h-229s-7.4.5-11.1-9.7c-.9-2.8-1.4-6-1.4-8.8v-24.1c0-2.3.5-4.2.9-6 1.4-4.2 5.1-9.7 13.4-9.7h229s7.4-.5 11.1 9.7c.9 2.8 1.4 5.6 1.4 8.8v24.6c.1-.1.1 15.2-14.3 15.2zM461.9 363c-27.8 5.6-44.5-2.3-52.4-7.4-.5-.5-.9-.9-1.9-.9-22.7-14.4-34.3-41.3-29.7-67.2 2.3-12.5 3.7-26.9 3.2-41.3v-29.7c5.6-3.2 9.3-9.7 9.3-16.7v-38.5c0-11.1-7.4-19.9-19.9-19.9h-11.1c-.5-2.8-.9-8.8.5-16.7.5-3.2 1.9-7.4 3.7-11.6 6.5-14.4 26.9-13.9 32.9 0 2.8 7 5.6 15.3 7.4 26 8.8 51.5 20.4 126.6 20.4 126.6 13.4 77.9 28.7 92.7 36.6 95.5 1.5.4 1.5 1.3 1 1.8z" style="fill:#003346"/><path class="st44" d="M322.4 236.4s19-4.2 33.4 11.1c.5.5.5.9.9 1.4.9 1.4 3.2 5.6-.5 7.9-2.3 1.4-5.6.9-7.4-1.4-2.8-3.7-10.2-9.7-26-12.1-2.3-.5-3.7-2.8-2.8-4.6.5-.9 1-1.8 2.4-2.3zM196.3 236.4s-19-4.2-33.4 11.1c-.5.5-.5.9-.9 1.4-.9 1.4-3.2 5.6.5 7.9 2.3 1.4 5.6.9 7.4-1.4 2.8-3.7 10.2-9.7 26-12.1 2.3-.5 3.7-2.8 2.8-4.6-.1-.9-1-1.8-2.4-2.3z"/><path class="st41" d="M254.7 282.3c-4.6 5.6-1.9 13.9-4.2 21.3-1.9 6 .9 13 7.4 13.9h1.8c7.4.9 13.4-5.6 12.1-13L269 286c-1.3-5.5-11.5-7.4-14.3-3.7z"/><g><path class="st45" d="m232 169.2-5.6-8.8c-.9-1.4-2.8-1.4-3.7 0L200 199.8c-.9 1.4.5 3.2 1.9 3.2h11.6c2.3 0 4.6-1.4 5.6-3.2l13-21.8c1.7-2.8 1.3-6-.1-8.8zM241.3 185.9c-.9-1.4-3.2-1.4-4.2 0l-8.3 13.9c-.9 1.4.5 3.2 1.9 3.2h16.2c1.9 0 2.8-1.9 1.9-3.2l-7.5-13.9zM256.1 160.9c-1.4-2.3-3.7-3.2-6-3.2h-11.6c-1.9 0-2.8 1.9-1.9 3.2l22.3 39.9c.9 1.4 3.2 1.4 4.2 0l6-10.2c.9-1.9.9-4.6 0-6.5l-13-23.2zM274.2 175.2c.9 1.4 2.8 1.4 3.7 0l7.9-14.4c.9-1.4-.5-3.2-1.9-3.2h-16.2c-1.9 0-2.8 1.9-1.9 3.2l8.4 14.4zM305.7 170.6l-6-10.7c-.9-1.4-2.8-1.4-3.7 0l-22.7 39.9c-.9 1.4.5 3.2 1.9 3.2h11.6c2.3 0 4.6-1.4 6-3.2l13-22.7c1.3-1.9 1.3-4.6-.1-6.5zM322.4 199.8l-8.3-14.4c-.9-1.4-2.8-1.4-3.7 0l-8.3 13.9c-.9 1.4 0 3.2 1.9 3.2h16.2c2.2.6 3.1-1.3 2.2-2.7z"/></g><g><circle cx="617.3" cy="547.5" r="336.3" style="fill:#e74342"/><path class="st58" d="M457.2 720.3h-53.7c-3.6 0-7.3-.5-10.9-1.9-10.8-3.8-15.8-12.8-13-23.9.9-4 2.6-7.6 4.7-11.3 34.8-61.2 69.5-122.3 104.3-183.7 35.5-62.4 70.7-124.6 106.2-187 2.6-4.5 5.6-8.8 9.7-12 8-6.1 17-5.9 24.6.5 3.5 2.9 6.2 6.6 8.5 10.6 17.2 31.5 35.1 62.4 52.8 93.7 4.3 7.6 6.8 16.1 7.6 24.8 1.4 13-.5 25.5-6.4 37.2-3.5 6.9-7.6 13.4-11.5 20.1-38.6 66.9-77 133.6-115.7 200.4-9.9 17-25.2 27.2-44.5 31.3-4 .9-8.2 1.2-12.3 1.2h-50.4zM756.2 720.3H682c-4.2 0-8.2-.7-12-2.1-9.9-3.8-14.7-12.8-12.3-23.6.9-4.2 2.6-7.8 4.7-11.5 24.3-42.1 48.9-84.2 73.1-126.3 2.3-4 5-7.6 8.5-10.6 8-6.8 17.7-6.6 25.7 0 3.5 2.9 6.2 6.6 8.5 10.6 23.9 42.3 48 84.3 72.1 126.5 2.6 4.5 4.7 9 5 14.2.7 10.2-4.2 17.5-13.9 20.8-4.3 1.4-8.7 1.7-13.2 1.7-23.8.3-47.9.3-72 .3z"/></g></svg>