<svg version="1.1" id="Layer_1" xmlns="http://www.w3.org/2000/svg" x="0" y="0" viewBox="0 0 953.7 883.8" style="enable-background:new 0 0 953.7 883.8" xml:space="preserve"><style>.st0{display:none}.st3{fill:#f7fcfe}.st3,.st4{display:inline}.st6{fill:#ec3e3f}.st7{fill:#fff}.st8{opacity:.3}.st11{fill:#3c1a26}.st12{fill:#29121a}.st13{fill:#421d2a}.st15{fill:#a24741}.st16{fill:#db5b54}.st17{fill:#bd967f}.st18{fill:#886b59}.st20{fill:#493239}.st23{fill:#f2716a}.st24{fill:#898989}.st25{fill:#888}.st26{fill:#d6d6d6}.st27{fill:#fdfdfd}.st32{display:inline;fill:none}.st36{fill:#8c8c8c}.st41{fill:#f7fcfe}</style><g style="opacity:.5"><path class="st11" d="m195.2 809.8.1 25.6L156 858l-.1-25.6 39.3-22.6z"/><path class="st12" d="m156 858-69.4-40.3-.1-25.6 69.4 40.3.1 25.6z"/><path class="st13" d="m155.9 832.5-69.4-40.3 39.3-22.7 69.4 40.3-39.3 22.7z"/><path class="st11" d="m150.1 835.6.1 25.6-39.2 22.6-.1-25.6 39.2-22.6z"/><path class="st12" d="m111 883.8-69.4-40.3-.1-25.6 69.4 40.3.1 25.6z"/><path class="st13" d="m110.9 858.2-69.4-40.3 39.3-22.7 69.4 40.3-39.3 22.7z"/><path d="m193.9 765.6.1 36.5-95.3 55-.1-36.5 95.3-55z" style="fill:#de6660"/><path class="st15" d="M98.7 857.1 4 802.1v-36.5l94.7 55v36.5z"/><path class="st16" d="M98.6 820.6 4 765.6l95.3-55 94.7 55-95.4 55z"/><path class="st17" d="m193.4 692.5.2 73-95.3 55-.2-73 95.3-55z"/><path class="st18" d="m98.3 820.5-94.7-55-.2-73 94.7 55 .2 73z"/><path d="m98.1 747.6-94.7-55 95.3-55 94.7 55-95.3 55z" style="fill:#b88d73"/><path class="st7" d="M145.9 738.8v14.6l-12.7 7.3v14.6L146 768l-25.4 14.7-.1-29.2 25.4-14.7z"/><path class="st20" d="M145.9 753.4V768l-12.7 7.3v-14.6l12.7-7.3z"/><path class="st7" d="M183.3 717.3v14.6l-12.7 7.3v14.6l12.7-7.3-25.4 14.7-.1-29.2 25.5-14.7z"/><path class="st20" d="M183.3 731.9v14.6l-12.7 7.3v-14.6l12.7-7.3z"/><path class="st18" d="m41.3 838.5-.1 21.9-31.7-18.3.1-21.9 31.7 18.3z"/><path class="st17" d="m41.3 838.5 31.6-18.3-.1 21.9-31.6 18.3.1-21.9z"/><path d="m9.5 820.2 31.6-18.3 31.8 18.3-31.6 18.3-31.8-18.3z" style="fill:#caa390"/><path d="m50.8 829.4 31.6-18.3v14.6L50.8 844v-14.6z" style="fill:#c4524c"/><path class="st23" d="m0 800.1 31.6-18.3 50.8 29.3-31.6 18.3L0 800.1z"/><path class="st15" d="M50.8 829.4V844l-9.5-5.5-31.8-18.3-9.5-5.5v-14.6l50.8 29.3z"/><path class="st16" d="m193.5 659.9.1 36.5-95.3 55-.1-36.5 95.3-55z"/><path class="st15" d="m98.3 751.4-94.7-55-.1-36.5 94.7 55 .1 36.5z"/><path class="st23" d="m98.2 714.9-94.7-55 95.3-55 94.7 55-95.3 55z"/><path class="st16" d="M176.1 724.1c7.9-4.7 16.5-8.2 25.4-10.4v14.6c-8.9 2.2-17.5 5.7-25.4 10.4-9.1 5.4-17.7 11.7-25.4 18.9V743c7.8-7.2 16.3-13.5 25.4-18.9z"/><path class="st15" d="m150.8 757.6-31.5-18.3v-14.6l31.6 18.3-.1 14.6z"/><path class="st23" d="m150.7 743-31.6-18.3c7.7-7.2 16.3-13.6 25.4-18.9 9.1-5.4 25.2-10.7 25.2-10.7l31.8 18.8s-16.3 4.9-25.4 10.3c-9.1 5.3-17.6 11.6-25.4 18.8z"/><path class="st24" d="m180.6 794.8-6.3-3.7-1.7-1.2 6.3 3.7 1.7 1.2zM168.5 808.3l-6.3-3.7-3.3-2.9 6.3 3.7 3.3 2.9z"/><path class="st25" d="m104.6 824.3-6.3-3.7v-2.3l6.3 3.7v2.3z"/><path class="st26" d="M200.5 756.2v12.7l-19.9 25.9-1.7-1.2-10.5 14.7-3.3-2.9-12.5 19.4-12.6-4.9-3.3 6.7-10.6-2.5-1.7 3.1-19.9-2.9v-12.7l96-55.4z"/><path class="st25" d="m104.6 822-6.3-3.7v-10.4l6.3 3.7V822z"/><path class="st27" d="m104.5 811.6-6.3-3.7 95.9-55.4 6.3 3.7-95.9 55.4zM51.1 761.3l6.3-3.7 40.9 50.2-6.3 3.7-40.9-50.2z"/><path class="st27" d="m92 811.5 6.3-3.7 6.3 3.7-6.3 3.7-6.3-3.7z"/><path class="st26" d="m98.3 815.2 6.3-3.7v12.8l-6.3 3.7v-12.8z"/><path class="st24" d="m51.2 731.3-.1 30L92 811.5l6.4 3.7V828L51 799.2l-11.3-6.5-5.6-3.2v-12.9l5.7-21.7.1-30 11.3 6.4z"/><path class="st27" d="m51.2 731.3 6.3-3.7-.1 30-6.3 3.7.1-30z"/><path d="m39.9 724.8 6.3-3.7 11.3 6.5-6.3 3.7-11.3-6.5z" style="fill:#dcdcdc"/></g><circle cx="261.2" cy="252.2" r="252.2" style="fill:#262626"/><path d="M261.2 267.7c4.7-9.1 9.3-18.1 13.9-27.2 4.7-9.4 9.6-18.7 13.9-28.2 3.6-8.1 9.1-11.6 18.1-11.5 27.1.4 54.2.1 81.3.1 8.3 0 10.3-2 8.6-10.2-2.5-12.5-5.4-25-8.3-37.4-6-25 5.3-43 23.4-58.3.5-.4 1-.8 1.6-1 2.2-1.1 4.4-3.5 6.8-1.5 2.1 1.8.6 4.4-.2 6.5-3.4 9.5-4.3 19.2-3.1 29.2.5 4.2 1.7 7.9 4.1 11.5 8.8 13.4 18.9 26.1 24 41.6 7.8 23.8 4.9 46.4-9.4 66.9-6.4 9.2-16.4 14-28.1 14.1-16.4.1-32.8.3-49.1-.1-10-.2-17.1 3.4-22.8 11.7-6.9 9.9-11 21.2-17.3 31.4-7.2 11.6-11.9 24.4-18.3 36.4-1.5 2.7-1.8 5.5-1.8 8.5.1 17.4.1 34.9 0 52.3 0 7.4-2.8 10.5-10.2 10.5-18.3.1-36.5.1-54.8 0-7.5-.1-10.6-3.3-10.6-10.9-.1-17.2-.1-34.4 0-51.7 0-3.7-.7-6.9-2.4-10.2-10-19.6-20.1-39.2-29.7-59.1-6.3-13.1-15.7-19.8-30.8-19-14 .8-28.1.2-42.2.1-20.5-.1-33.2-8.9-39.8-28.4-7.9-23.4-7-46.2 6-67.9 3.9-6.5 7.4-13.3 12-19.2 11-14.2 11.8-29.5 6.7-45.9-.8-2.6-3.6-6-.7-8.1 3-2.2 6 1 8.3 2.8 19.9 15.9 29.1 35.8 22.5 61.5-2.8 10.8-5.4 21.6-7.7 32.4-2.1 9.5-.1 11.8 9.6 11.7 26.3 0 52.5.1 78.8-.1 9.3-.1 15.2 3.7 19.2 12 8.1 16.8 16.7 33.3 25.2 50 .7 1.5 1 3.5 3.3 4.7z" style="fill:#31c56c"/><g><circle cx="617.3" cy="547.5" r="336.3" style="fill:#e74342"/><path class="st41" d="M457.2 720.3h-53.7c-3.6 0-7.3-.5-10.9-1.9-10.8-3.8-15.8-12.8-13-23.9.9-4 2.6-7.6 4.7-11.3 34.8-61.2 69.5-122.3 104.3-183.7 35.5-62.4 70.7-124.6 106.2-187 2.6-4.5 5.6-8.8 9.7-12 8-6.1 17-5.9 24.6.5 3.5 2.9 6.2 6.6 8.5 10.6 17.2 31.5 35.1 62.4 52.8 93.7 4.3 7.6 6.8 16.1 7.6 24.8 1.4 13-.5 25.5-6.4 37.2-3.5 6.9-7.6 13.4-11.5 20.1-38.6 66.9-77 133.6-115.7 200.4-9.9 17-25.2 27.2-44.5 31.3-4 .9-8.2 1.2-12.3 1.2h-50.4zM756.2 720.3H682c-4.2 0-8.2-.7-12-2.1-9.9-3.8-14.7-12.8-12.3-23.6.9-4.2 2.6-7.8 4.7-11.5 24.3-42.1 48.9-84.2 73.1-126.3 2.3-4 5-7.6 8.5-10.6 8-6.8 17.7-6.6 25.7 0 3.5 2.9 6.2 6.6 8.5 10.6 23.9 42.3 48 84.3 72.1 126.5 2.6 4.5 4.7 9 5 14.2.7 10.2-4.2 17.5-13.9 20.8-4.3 1.4-8.7 1.7-13.2 1.7-23.8.3-47.9.3-72 .3z"/></g></svg>