<svg version="1.1" id="Layer_1" xmlns="http://www.w3.org/2000/svg" x="0" y="0" viewBox="0 0 953.7 883.8" style="enable-background:new 0 0 953.7 883.8" xml:space="preserve"><style>.st0{display:none}.st3{fill:#f7fcfe}.st3,.st4{display:inline}.st6{fill:#ec3e3f}.st7{fill:#fff}.st8{opacity:.3}.st11{fill:#3c1a26}.st12{fill:#29121a}.st13{fill:#421d2a}.st15{fill:#a24741}.st16{fill:#db5b54}.st17{fill:#bd967f}.st18{fill:#886b59}.st20{fill:#493239}.st23{fill:#f2716a}.st24{fill:#898989}.st25{fill:#888}.st26{fill:#d6d6d6}.st27{fill:#fdfdfd}.st30{display:inline;fill:none}.st37{fill:#e5f7fe}.st39{fill:#253d82}.st40{fill:#385cc0}.st41{fill:#3752e6}.st42{fill:#233b7b}.st43{fill:#2c45ad}.st46{fill:#e6f6fe}.st47{fill:#c9dbf9}.st48{fill:#2a4082}.st49{fill:#ecfcfe}.st52{fill:#e8f7fc}.st54{fill:#e2f5fd}.st55{fill:#eef9fd}.st61{fill:#58addf}.st105{fill:#002c7c}.st106{fill:#8e9bbe}.st115{fill:#10327d}.st119{fill:#2748e6}.st124{fill:#576999}.st126{fill:#1d3779}.st130{fill:#0e317d}.st138{fill:#ebf8fd}.st141{fill:#ceeefa}.st145{fill:#e3f5fe}.st147{fill:#e3f5fc}.st152{fill:#80d2ef}.st158{fill:#c9f0f9}.st163{fill:#3756e6}.st170{fill:#59b7f0}.st172{fill:#4c80e5}.st211{fill:#4b8cdc}.st212{fill:#3462ab}.st222{fill:#bfc6dd}.st225{fill:#94a0c3}.st230{fill:#59afdf}.st248{fill:#bfe9f8}.st255{fill:#1f44e4}.st257{fill:#285be2}.st277{fill:#325daa}.st304{fill:#5da8e3}.st322{fill:#8c8c8c}.st327{fill:#f7fcfe}</style><g style="opacity:.5"><path class="st11" d="m195.2 809.8.1 25.6L156 858l-.1-25.6 39.3-22.6z"/><path class="st12" d="m156 858-69.4-40.3-.1-25.6 69.4 40.3.1 25.6z"/><path class="st13" d="m155.9 832.5-69.4-40.3 39.3-22.7 69.4 40.3-39.3 22.7z"/><path class="st11" d="m150.1 835.6.1 25.6-39.2 22.6-.1-25.6 39.2-22.6z"/><path class="st12" d="m111 883.8-69.4-40.3-.1-25.6 69.4 40.3.1 25.6z"/><path class="st13" d="m110.9 858.2-69.4-40.3 39.3-22.7 69.4 40.3-39.3 22.7z"/><path d="m193.9 765.6.1 36.5-95.3 55-.1-36.5 95.3-55z" style="fill:#de6660"/><path class="st15" d="M98.7 857.1 4 802.1v-36.5l94.7 55v36.5z"/><path class="st16" d="M98.6 820.6 4 765.6l95.3-55 94.7 55-95.4 55z"/><path class="st17" d="m193.4 692.5.2 73-95.3 55-.2-73 95.3-55z"/><path class="st18" d="m98.3 820.5-94.7-55-.2-73 94.7 55 .2 73z"/><path d="m98.1 747.6-94.7-55 95.3-55 94.7 55-95.3 55z" style="fill:#b88d73"/><path class="st7" d="M145.9 738.8v14.6l-12.7 7.3v14.6L146 768l-25.4 14.7-.1-29.2 25.4-14.7z"/><path class="st20" d="M145.9 753.4V768l-12.7 7.3v-14.6l12.7-7.3z"/><path class="st7" d="M183.3 717.3v14.6l-12.7 7.3v14.6l12.7-7.3-25.4 14.7-.1-29.2 25.5-14.7z"/><path class="st20" d="M183.3 731.9v14.6l-12.7 7.3v-14.6l12.7-7.3z"/><path class="st18" d="m41.3 838.5-.1 21.9-31.7-18.3.1-21.9 31.7 18.3z"/><path class="st17" d="m41.3 838.5 31.6-18.3-.1 21.9-31.6 18.3.1-21.9z"/><path d="m9.5 820.2 31.6-18.3 31.8 18.3-31.6 18.3-31.8-18.3z" style="fill:#caa390"/><path d="m50.8 829.4 31.6-18.3v14.6L50.8 844v-14.6z" style="fill:#c4524c"/><path class="st23" d="m0 800.1 31.6-18.3 50.8 29.3-31.6 18.3L0 800.1z"/><path class="st15" d="M50.8 829.4V844l-9.5-5.5-31.8-18.3-9.5-5.5v-14.6l50.8 29.3z"/><path class="st16" d="m193.5 659.9.1 36.5-95.3 55-.1-36.5 95.3-55z"/><path class="st15" d="m98.3 751.4-94.7-55-.1-36.5 94.7 55 .1 36.5z"/><path class="st23" d="m98.2 714.9-94.7-55 95.3-55 94.7 55-95.3 55z"/><path class="st16" d="M176.1 724.1c7.9-4.7 16.5-8.2 25.4-10.4v14.6c-8.9 2.2-17.5 5.7-25.4 10.4-9.1 5.4-17.7 11.7-25.4 18.9V743c7.8-7.2 16.3-13.5 25.4-18.9z"/><path class="st15" d="m150.8 757.6-31.5-18.3v-14.6l31.6 18.3-.1 14.6z"/><path class="st23" d="m150.7 743-31.6-18.3c7.7-7.2 16.3-13.6 25.4-18.9 9.1-5.4 25.2-10.7 25.2-10.7l31.8 18.8s-16.3 4.9-25.4 10.3c-9.1 5.3-17.6 11.6-25.4 18.8z"/><path class="st24" d="m180.6 794.8-6.3-3.7-1.7-1.2 6.3 3.7 1.7 1.2zM168.5 808.3l-6.3-3.7-3.3-2.9 6.3 3.7 3.3 2.9z"/><path class="st25" d="m104.6 824.3-6.3-3.7v-2.3l6.3 3.7v2.3z"/><path class="st26" d="M200.5 756.2v12.7l-19.9 25.9-1.7-1.2-10.5 14.7-3.3-2.9-12.5 19.4-12.6-4.9-3.3 6.7-10.6-2.5-1.7 3.1-19.9-2.9v-12.7l96-55.4z"/><path class="st25" d="m104.6 822-6.3-3.7v-10.4l6.3 3.7V822z"/><path class="st27" d="m104.5 811.6-6.3-3.7 95.9-55.4 6.3 3.7-95.9 55.4zM51.1 761.3l6.3-3.7 40.9 50.2-6.3 3.7-40.9-50.2z"/><path class="st27" d="m92 811.5 6.3-3.7 6.3 3.7-6.3 3.7-6.3-3.7z"/><path class="st26" d="m98.3 815.2 6.3-3.7v12.8l-6.3 3.7v-12.8z"/><path class="st24" d="m51.2 731.3-.1 30L92 811.5l6.4 3.7V828L51 799.2l-11.3-6.5-5.6-3.2v-12.9l5.7-21.7.1-30 11.3 6.4z"/><path class="st27" d="m51.2 731.3 6.3-3.7-.1 30-6.3 3.7.1-30z"/><path d="m39.9 724.8 6.3-3.7 11.3 6.5-6.3 3.7-11.3-6.5z" style="fill:#dcdcdc"/></g><circle class="st7" cx="261.2" cy="252.2" r="252.2"/><path d="M240.1 62.3h99.2c0 .5-.2.9-.6 1.2-1.7.9-3.6.7-5.4.7h-87.1c-1.8 0-3.7.2-5.4-.7-.5-.3-.7-.7-.7-1.2z" style="fill:#4c6099"/><path d="M240.1 62.3v.7l-.5.5c-.9.5-1.9.7-2.8.7-18.6 0-37.1.3-55.7-.1-.5-.1-.9-.3-1.3-.5-.4-.3-.5-.7-.3-1.2 20.1-.1 40.4-.1 60.6-.1z" style="fill:#5e7acc"/><path d="M179.4 62.3c0 .3-.1.5-.1.8-1.3 1.3-2.9 1.1-4.5 1.1H146c-1.6 0-3.2.1-4.5-1.2.2-.2.2-.5.1-.7h37.8z" style="fill:#4d619a"/><path d="M339.3 63v-.7h31.8c.2.5.1.8-.3 1.1-.8.5-1.7.6-2.6.7-8 .1-16.1.1-24.1.1-1.5 0-2.9.1-4.3-.7-.2-.2-.3-.4-.5-.5z" style="fill:#475b91"/><path d="M371.2 63v-.7h8.9c-.1.2-.1.5.1.7-3.1 1.8-6.1 1.8-9 0z" style="fill:#54679d"/><path class="st37" d="M187.5 291.1c1.3-.3 1.4-2.3 3-2.2.8-.1 1.5-.5 2.2-.8 1.8-2.8 5.2-3.5 7.7-5 7.3-4.6 14.9-8.7 22.3-13.2 5.4-3.3 11-6.2 16.6-9.1 1.7-.9 2.9-2.3 4.8-2.9 1.4-.5 1.3-2.4-.5-3.3-6.4-3.5-12.9-6.8-19-10.8-6.5-4.2-13.3-8-20-11.9-5.1-3-10.2-6.1-15.4-8.9-5.7-3.1-11.5-6.7-14.3-13.3-.2-.6-1.1-1-1.6-1.4-.1-.8-.5-1.5-.8-2.2-.2-.7-.5-1.5-.7-2.2-1-.5-1.2-1.8-2.2-2.2.4-2-1.6-3.3-1.5-5.2 0-.8 0-1.6-.7-2.2.2-1.2.5-2.5.7-3.7-1.1-1.5-1.1-3.2-1.1-4.9v-61.2c0-1.7 0-3.5 1.1-4.9-.9-4.5 1.5-8.2 4-11.3 1.5-1.8 2.9-4.3 5.6-5 1-.1 1.7-.6 2.2-1.5 1.3 1 1.8-1 3-.7 1.5-.3 2.7-1.3 4.2-1.6 5.8-.1 11.6-.6 17.4.3 1 2.4-.2 5.1-3.4 7.9-2.7.8-5.5.4-8.3.5-7.4-.1-7.4 0-6.6 7.4 2.1 20 6.3 39.6 11.7 58.9.5 1.9 1.2 3.7 2.1 5.5.3 4.2.8 8.4-.3 12.6-2.3 1-2.3-1.1-2.7-2.3-.8-2.3-1.2-4.8-1.8-7.2-5.6-22-11.6-43.9-14.7-66.4-.2-1.3 0-3.2-1.8-3.2-1.5 0-2 1.7-2.5 2.9-1.3 3.1-1.7 6.4-1.8 9.8-.1 18-.1 36 0 54 0 4.1.6 8.1 1 12.1.4 4.3 2.2 8.3 4.8 11.8l.6.9c0 1 .3 1.8 1.2 2.4.8.8 1.6 1.6 2.4 2.3 5.7 6.2 13.5 9.1 20.3 13.6 2.9 1.7 5.8 3.4 8.8 5 1.3.8 2.5 1.7 3.8 2.5 1.6 1.1 3.5 1.8 5.2 3 2.4 1.5 4.8 2.9 7.2 4.3 1.2.9 2.5 1.4 3.7 2.3.5.3 1.1.7 1.6 1 1.1.7 2.4 1.1 3.1 2.3 3.1 3.7 7.3 6.2 10.6 9.7 2.6 2.9 2.7 3.6 0 6.4-3 3.1-6.4 5.7-9.7 8.6-2.1 1.3-3.4 3.5-5.7 4.5-6.3 3.1-12 7.2-18.1 10.4-5 1.8-6.2 5.7-5.8 10.5-.7 2.3-1.5 4.6-3.8 5.9-2.4-1.9-1.3-4.5-1.2-6.8.1-2-.5-2.7-2.3-1.8-9.8 5.2-19.8 10.2-24.6 21.3-2 4.5-2.7 9.3-3 14-.4 6.1-.6 12.3.4 18.5.1.4.1.8.2 1.2 0 3.4.3 6.8-.2 10.3-.9 2 .1 4.5-1.6 6.3-.6 7.8-.1 15.5-.3 23.3 0 1.7.2 3.5 0 4.3.1-8.6-.2-18.1.2-27.5.3-.4.7-.5 1.2-.2 1 1.4.8 3.1.8 4.6v23.6c0 2.3.4 4.4 1.3 6.5.1.3.2.6.3 1 .6 1.9 1.9 3.3 3.8 3.9 1.3.7 2.8 1 4.3 1.2 1.1.3 2.2.2 3.3.3 4.7.1 9.4-.3 14.1.1.5.1.9.2 1.3.4.4.3.7.6.9 1 .4 1 .4 1.8-.7 2.4-8.6.8-17.2.3-25.8.3-.9 0-1.7-.4-2.3-1l-.7-.7c-2-.9-2.8-3.1-4.4-4.4-2.6-2.8-2.5-6.2-2.2-9.6-1.1-1.5-1.1-3.2-1.1-4.9v-59.7c0-2 0-3.9 1.1-5.7-1.1-5.7 1.9-10.5 4.2-15.2 2.9-5.9 7.7-10.4 12.9-14.4.6-.6 1.3-1 2-1.2zM354.1 317.8c-.7 1.9.5 3.7.5 5.3.3 22.3.6 44.6 0 66.8-.2 6.2-1.9 13.1-8.5 16.9 1.4 1.2 3.2-.1 4.3 1.2-1.2 1.3-2.9 1.1-4.4 1.2-2.4-.1-4.8 0-7.1-.1-1.6-.1-3.3.2-4.9-.5-2.4-2.6.8-3 1.6-4.4.4-.4.8-.7 1.3-1 .9-.5 1.9-.9 2.8-1.3 3.2-2.2 6-4.9 6.6-9 .8-1.7 1-3.5.9-5.3 0-2 0-4.1-.1-6.1-.1-1.1 0-2.2 0-3.2v-29.1c0-1.7.4-3.6-1.7-4.4-1.3-.7-3-.6-4.2-1.6-.3-.4-.5-.8-.6-1.2-.4-6.4-.1-12.8-.2-19.2-1.1-13.3-6.8-23.9-18.2-31.2-6.9-4.4-14-8.7-21-13-10.2-6.5-20.6-12.7-30.8-19.1-3.8-2.4-3.8-3.6 0-6 15-9.4 30.1-18.8 45.2-28.2 1.3-.8 2.5-1.6 3.6-2.5 2.2-1.6 4.8-2.7 6.8-4.6 1.8-1.5 3.8-2.8 5.9-4 2.5-1.4 4.6-3.2 6.4-5.4.3-.5.7-1 .7-1.5-.5-1-2.2-.2-2.3-1.7.3-.5.7-.8 1.2-1.1 3.8-4 5.4-9 5.9-14.3 1-11.1 1.3-22.3 1.7-33.5.4-10.2.6-20.4.5-30.6-.1-5.5-1-10.8-6-14.3-1.3-.6-1.9-1.8-2.4-3.1-.7-2.2-2.1-4-3.5-5.9-.6-.9-1.9-1.8-.4-3.1 1.4-.5 2.7-.7 3.9.6-.1.4-.7 1.2.1 1.1 8.3-.3 14.5 9.5 16 15.2 1 3.8 1 7.9 1 11.9-.1 19.6.4 39.2-.3 58.8-.3 8.8-3 17.3-8.9 24.6-4.3 5.5-9.7 8.9-15.5 12.2-5 2.8-9.6 6.4-14.8 8.8-5.4 2.5-10 6-15.2 8.7-4.8 2.6-9.5 5.5-14.3 8.3-2.9 1.6-5.5 3.6-8.6 4.9-.5.2-1.7.2-1.7 1.5-.1 1.4 1.1 1.3 1.6 1.6 6.1 3.4 12 7 18.1 10.4 6.9 3.8 13.7 8 20.6 11.9 5.5 3 11 6.4 16.4 9.5 4.6 2.6 8.6 5.8 11.8 9.4 3.5 4 7.7 8.3 8 14.3 0 1.3 1.8 1 1.3 2.2.2.8.2 1.6.9 2.2z"/><path d="M339.3 441.3c-21.3 0-42.6.1-63.8.1-11.8 0-23.6-.1-35.4-.1-1.8-3.8-1.5-7.7-.2-11.6.4-.3.8-.5 1.3-.5 30.8.2 61.6 0 92.3.1 1.9 0 4-.4 5.8.7 1.8 3.8 1.8 7.5 0 11.3z" style="fill:#253d81"/><path class="st39" d="M141.5 63c12.6 0 25.2.1 37.8.1 2 4.4 1.6 8.8.3 13.2-1.5 1.4-3.4 1.2-5.2 1.2H149c-1.5 0-3.2-.3-4.5 1.1 1.4 1.4 3.1 1 4.6 1 8.5.1 17 0 25.4 0 1.8 0 3.7-.2 5.4.9.4.4.4.8.1 1.2-11.4.3-22.8 0-33.5.1.4-.1 1.4 0 2.5 0h30.7c.5-.1.9-.1 1.4-.1.7.1 1.3.5 1.7 1.1.6.9.7 1.7-.4 2.3-6.2.6-12.4 1.4-18.5-.5-5.6 0-11.3 0-16.9-.1-7.7 0-10.9-3.3-11-11-.2-4.5.2-8.8 5.5-10.5z"/><path class="st40" d="M240 429.6v11.7h-60.7c-1.6-3.7-1.4-7.4-.1-11.2 1.6-1.2 3.5-.8 5.4-.8 17.8-.1 35.6 0 53.4-.1h1.4c.2.2.4.3.6.4z"/><path class="st39" d="M178.6 441.3c-11.6 0-23.1.2-34.7.1-4.6 0-7.8-3.4-8-7.9-.1-1.5 0-3 0-4.4.1-6 3.7-9.7 9.6-9.8 6-.1 12-.1 18.1-.1 2.2-1.5 4.8-1 7.2-1 3.8.1 7.6-.5 11.4.4 2.3 2.5-.4 3.4-1.5 4.8-.4.2-.8.4-1.3.5-11.5.4-23-.1-34.5.2-.3.1-.7.2-1 .4-1.1.9-1.4 2-.5 3.2.3.4.5.8.9 1.2.3.2.6.4 1 .4 9.6 0 19.2-.1 28.8 0 4.6 0 4.9.2 4.8 4.7 0 2.4.5 4.9-.3 7.3z"/><path class="st41" d="M163.8 84.6c6.4 0 12.9-.1 19.3-.1 4.9-1.9 9.8-1.3 14.7-.4 2.2 4.6 1 9.5 1 14.3-2.4 1.7-5.1.5-7.7.8-1.4.2-2.9 0-4.3.1-.8.2-1.5.6-2.2 1-.6.2-1.1.1-1.7-.2-2.8-.1-5.6-.1-8.4-.2-7-.1-10.6-3.6-10.7-10.6.1-1.5.1-3.1 0-4.7z"/><path class="st42" d="M339.3 441.3v-11c0-.2-.1-.5-.1-.7.3-.4.7-.6 1.1-.8 10-.3 20.1-.9 30.1.3 3 3.9 2.4 8 .7 12.1-10.6.1-21.2.1-31.8.1z"/><path class="st43" d="M337.8 100.2c-1.5 0-3 0-4.5-.1 0-.2-.1-.3-.1-.4-.1.5-.2-.6.2-.3.2.2.3-.2.2-.2-.8.4-1.1 1.7-2.3 1.7-5.1.2-10.3.9-15.4-.4-1.1-1.1-.1-1.8.5-2.4 2.1-2.3 2.6-5.1 2.6-8.2 0-2-.5-4.2 1.4-5.8 8-1 16.1-.9 24.1-.2 3.5 5.9.5 14-6 16.1-.2 0-.4.1-.7.2z"/><path class="st41" d="M183.1 419.2c-6.5 0-13-.1-19.5-.1.2-6.8 1.7-9 7.6-11.1 1.5-.5 3.1-.2 4.6-.2 6.6.1 13.2 0 19.8 0 1.3 0 2.7-.1 4 .5.5.3.9.7.7 1.2-1.2 3.4-1.4 7.2-3.5 10.3-4.6.7-9.2 1.4-13.7-.6z"/><path d="M371.1 441.3c-.3-3.9.8-7.9-.7-11.7l.4-.4c2.6-1.2 5.3-.1 7.9-.8.2-.2.5-.4.7-.7 1.1-1.5.7-2.6-.8-3.5-3-.7-6.1.1-9.1-.5-.4-.1-.8-.3-1.2-.5-1.8-1.8-4-2.1-6.4-2.1-4.6 0-9.3.1-13.9-.1-1.3-.1-3.3.4-3.3-2 4.3-1.4 8.7-1.6 13 .1 5.9 0 11.8 0 17.7.1 6.6.1 10.2 3.7 10.2 10.4.1 7.6-2.1 11.2-7.2 11.7-2.3.3-4.8 0-7.3 0z" style="fill:#263e82"/><path d="M371.2 63h8.9c5.1 2.3 6.8 6.6 5.5 13.9-.8 4.6-4.4 7.6-9.4 7.6-4.6.1-9.3-.1-13.9-.1.2-1.9 2.1-1.9 3.2-2.7.7-.3 1.5-.4 2.3-.4 3.4-.2 6.9.3 10.3-.3.3-.2.6-.4.8-.6 1.8-2.1.5-2.7-1.4-3-2.5-.4-5.1.3-7.5-.6-.3-.2-.5-.5-.6-.9-.1-1.6.2-3.2.6-4.7.8-2.9-.2-5.5-1-8.2h2.2z" style="fill:#263d82"/><path class="st41" d="M338.5 99.9c4.4-2.6 6.8-6.2 6-11.5-.2-1.3-.1-2.7.7-3.9 4.3-1.8 8.5-2 12.7.1 0 2 0 3.9-.1 5.9-.2 5.7-3.8 9.3-9.5 9.4-3.2.2-6.5.1-9.8 0zM357.8 419.1c-4.4 0-8.8.1-13.3.1l-.4-.4c-.7-3.3-1.6-6.5-4-9-.4-.4-.3-.9.1-1.3 1.9-.3 3.8.3 5.7-.3 1.5-.1 3-.1 4.5-.2 5.4 1.8 7.5 5.7 7.4 11.1z"/><path class="st42" d="M358 84.7c-4.2 0-8.5-.1-12.7-.1H320V84c1.6-1.7 3.7-1 5.5-1.2 3.4-.3 6.9.8 10.1-1.1.4-.2.9-.3 1.3-.3 8.2-.2 16.3-.1 24.5-.1 1.3 0 2.7-.1 3.8 1-.4 1.5-2.2 1.2-3 2.1-1.3.1-2.8.2-4.2.3z"/><path class="st46" d="M168.3 321.4c-1.6 21.9-.3 43.8-.7 65.7 0 1.6.5 3.1.7 4.7-.5-.1-.9 1.7-1.4.2-.2-.5 0-1.2 0-1.8 0-22.3 0-44.7.1-67-.1-.3-1.9-3.6 1.3-1.8zM168.3 119.3c-.9 3.6-.7 7.3-.7 11v49.1c0 3.7-.2 7.4.7 11-.5-.1-.9 1.7-1.4.2-.2-.5 0-1.2 0-1.8 0-22.3 0-44.5.1-66.8-.1-.9-1.7-3.2 1.3-2.7z"/><path class="st47" d="M175.7 408.2c-1.5-.1-3-.2-4.5-.2 1.3-1.2 3-.4 4.4-.7 6.5-.7 13-.1 19.5-.4 3.3-.1 6.6.4 9.9-.3 1.8-.7 3.6-.4 5.5-.4h30.9c1.5 0 2.9-.2 4.4.4.5.2.8.5 1 1-.1.5-.4.9-.9 1.1-.5.2-.9.3-1.4.3-14.3.1-28.7.2-43 0-2.6-1-5.3-.5-7.9-.6-5.9-.1-11.9.3-17.9-.2z"/><path class="st48" d="M178.6 441.3c0-2.5-.2-4.9.1-7.4.3-3.1-1-3.7-3.8-3.7-10.2.1-20.4.1-30.6 0-.1 0-.3-.1-.3-.1-.1-.2-.1-.4-.1-.6 1-.9 2.2-1 3.4-1 10.2 0 20.3-.2 30.5.1.5.1.9.2 1.3.5s.5.7.3 1.2c0 3.7 0 7.3-.1 11l-.4.1-.3-.1z"/><path class="st49" d="M205.3 407.3h-29.6v-.7h28.9c.6-.2.9.1.7.7zM170.5 401.4c2.1.8 3.1 2.9 4.4 4.4-2.6-.3-3.4-2.4-4.4-4.4z"/><path class="st46" d="M183.1 100.2c.5-.1 1-.2 1.5-.2.5-.3 1.1-.3 1.5.2-.8 1.1-1.6 2.1-3 .6v-.6z"/><path d="M354.1 317.8c-1.6-.3-1.9-1-.7-2.2.8.5.7 1.3.7 2.2z" style="fill:#f2fdfe"/><path d="M167.5 194.1c1.6.3 2 1 .7 2.2-.8-.5-.6-1.4-.7-2.2z" style="fill:#f0fcfe"/><path class="st46" d="M180.1 101.5c-.3 1.2-.7 2.2-2.2 1.5.7-.5 1.5-1 2.2-1.5zM172.7 205.9c.6.6 1.4 1.2.8 2.2-.7-.5-1.5-1.1-.8-2.2zM169.8 201.5c1.5 0 1.7 1.3 2.2 2.2-1.5 0-1.7-1.3-2.2-2.2zM187.5 291.1c-.6.6-1.2 1.4-2.2.8.6-.7 1.2-1.5 2.2-.8zM192.7 288.1c-.6.6-1.2 1.4-2.2.8.6-.7 1.1-1.5 2.2-.8z"/><path class="st39" d="M240 63h99.3v.1c1.9 4.4 1.6 8.8-.3 13.2-.3.4-.7.6-1.2.8-1.8.6-3.7.4-5.5.4h-86c-2 0-3.9.2-5.8-.6-.6-.3-1.2-.7-1.2-1.3-.3-4.2-1.1-8.5.7-12.6z"/><path class="st40" d="M240 63c0 4.4.1 8.8.1 13.3-.3.4-.7.7-1.1.9-1.4.5-2.9.4-4.4.4h-49.8c-1.5 0-3 .1-4.4-.4-.5-.2-.8-.5-1.1-.9V63.2c20.3-.2 40.5-.2 60.7-.2z"/><path class="st42" d="M338.6 76.2c1.2-4.3.7-8.7.7-13.1h29.6c1.9 1.1 2.4 2.8 2.3 4.9-.1 2.8-.5 5.5-1.5 8.2-1 1.4-2.6 1.3-4 1.3-7.7.1-15.4.1-23.1 0-1.5 0-3 0-4-1.3z"/><path class="st46" d="M180.9 205.2c-1.5 0-2-1.1-2.6-2.2-2.6-4.8-3.8-9.9-4.2-15.5-1.3-20.7-.2-41.4-.6-62.1-.1-4.2.6-8.3 2.9-12 .7-1.2 1.5-2.4 3.1-2.2 1.8.2 1.8 2 2 3.1 3.1 24.8 10 48.7 16 72.8.5 1.8 0 4.1 1.9 5.4.7.2 1.2.7 1.5 1.4.7 2.7 1.3 5.5 1.9 8.3.4 1.7.3 3.6-1.9 3.7-6.5.3-13 .9-19.5-.3-.2 0-.3-.3-.5-.4zM173.9 344.4c-.7-8.8-1-17.6.9-26.3 2.4-11.5 9.8-19.1 20-24.4 2.7-1.4 5.4-2.9 8.1-4.4.9-.5 1.9-.8 2.7 0 .7.7.3 1.6.1 2.4-.4 2.5-1.1 5 .3 7.5.6 1.6-.3 2.8-.9 4.2-4.4 9.9-5.2 20.3-4.6 30.9 0 .7.3 1.4.5 2.1.3 1.1-.2 1.8-1.1 2.3-7.8 1.9-15.5 4.1-23.5 5.5-.8.3-1.7.3-2.5.2z"/><path class="st52" d="M233.4 271.8c1.7-1.5 3.5-3 5.2-4.4.6.2 1 .6 1 1.3 0 7.7 1.9 15 4.5 22.2.8 2.1 3.8 3 3.6 5.7.1 1.5 0 2.9-.3 4.4-.7 6.2-1.3 12.4-1.1 18.6.1 2.2.3 4.4-.5 6.5-.2.4-.5.7-.9 1-1.6.8-3.3 1.2-5.1.8-1.5-.4-2.5-1.4-2.9-3-4.1-15.1-6.4-30.5-7.5-46.1-.1-.9 0-1.7.1-2.6.4-2.2 2.4-3.1 3.9-4.4z"/><path d="M201 337.1c-1.5-.2-1.6-1.2-1.6-2.4-.5-12.3.4-24.4 6.7-35.4 1-2 2-3.9 3-5.9.8-1.3 2-2.3 3.2-3.2.9-.6 1.9-1.2 2.6.3.6 1.5.5 3.2.4 4.7-.5 10.9 1.1 21.8.7 32.8-.1 2.8 2 3 3.4 4 .4.7 0 1.2-.4 1.6-5.1 2.7-10.9 2.7-16.3 4.2-.6 0-1.3-.3-1.7-.7z" style="fill:#f0fafe"/><path class="st54" d="M199.4 179.3c-2.8-2.3-2.7-6-3.5-9-2.7-10.1-5.3-20.4-7.3-30.7-1.6-8-2.2-16.2-3.3-24.3v-.7c-.7-7.9-.7-7.9 7.4-7.9 1.1 1.9.9 4 1.1 6.1 1.1 10.9 1.1 21.9 3.5 32.6.8 3.4 1.5 6.7 2.9 9.9.8 7.2.1 14.4.1 21.6 0 .9-.2 1.8-.9 2.4z"/><path class="st55" d="M199.4 179.3v-24.4c-.5-.6-.3-1.2-.4-1.9.2-5.8 0-11.6.1-17.3 0-1 0-2 .2-2.9.1-.6.3-1.3 1-1.4.9-.2 1.1.7 1.4 1.4.1.3.2.7.2 1.1 3.3 21 9.3 41.5 13.2 62.4.2 1.2.5 2.4.7 3.6.6 4.1 0 4.9-4.3 6.1-1 .2-1.9.3-2.9.1-1.2-.3-2.2-.8-1.4-2.3 1.1-1.9.5-3.8.1-5.7-1.9-9-3.8-18.1-6.1-26.7V190c0 1.2 0 2.5-1 3.4l-.7-.7c-.1-4.5-.1-9-.1-13.4z"/><path d="M201.6 106.7c1.2-2.2 2.5-4.4 3.7-6.6.8-1 1.9-1 3-1 12.1 0 24.1-.1 36.2 0 .6 0 1.2.2 1.8.4 1.9 2.4.8 4.8 0 7.3-.3.3-.7.6-1.2.7-4.6.6-9.2.1-13.9.3-4.1-.1-8.3 0-12.4.1-2.7-.3-5.4.1-8.1 0-2.9-.4-5.8.5-8.6-.7l-.5-.5z" style="fill:#eff9fe"/><path d="M176.4 397.7c-1.9-1.5-1.8-3.8-2.2-5.9.3-.5.5-1 .6-1.5.1-.7.1-1.5.1-2.2 0-5.3 0-5.3 5.3-5.2 1.4 0 2.6.1 2.2-1.9-.7-3.4 1.5-4.1 4-4.2 4.4-.2 8.7.7 13.1.9.9 1.2.8 2.6.5 3.9-.4 1.4-1.5 2.2-2.5 3.1-4 3.2-8 6.5-12.1 9.6-2.6 2-5.6 3.2-9 3.4z" style="fill:#59b1df"/><path d="M199.4 153.4v1.5c-3.2-4.5-3.5-9.9-4.2-15-1.4-10.6-2-21.4-2.9-32.1 0-.3.3-.7.4-1h8.9c1.3 1.6.7 3.3.3 4.9-1 4.5-1 9-1.5 13.5-1.1 9.4-.1 18.8-1 28.2z" style="fill:#def3fc"/><path d="M200.1 193.4v-26c2.6 3.1 2.7 6.8 3.6 10.2 1.9 7.3 3.5 14.8 5.1 22.2.4 1.8.9 3.8-1.9 5.4h4.3c2.7-.3 5.3-1.3 8-1.1 2.7.2 5.4-.1 8.1 0 1.4.2 2.9-.1 4 1.1.1.5-.1.9-.6 1.2-1.5.7-3.1.5-4.7.5h-39.9c-1.8 0-3.7.3-5.3-1.1v-.7c6.2 0 12.3-.1 18.5 0 2.7.1 3.2-.8 2.3-3.2-1-2.7-1.8-5.5-1.5-8.5z" style="fill:#f0f9fe"/><path d="M204.6 223.7c-7.2-4.2-15-7.4-20.9-13.7-.7-3 1.6-2.8 3.3-2.9 5-.1 10-.2 14.9 0 4.1 1.1 4.2 5.1 6 8 .1.4.2.8.1 1.2-.4 1.6-1.1 3.2-.9 4.9.3 1.9-.7 2.8-2.5 2.5z" style="fill:#3753e5"/><path class="st61" d="M176.4 397.7c9.1-3 15.4-10.2 22.9-15.5 1.8 2.3.9 4.9.9 7.4-.1 6-4.7 8.1-9.1 10.2-2.3 1.1-5.2 1.3-6.6 3.9-1.7 0-3.2-.2-4.4-1.5-1.5-.9-2.8-2.1-3.7-3.7.1-.3 0-.5 0-.8z"/><path d="M203.8 404.5c-.3-.1-.5-.1-.8-.2-1-.5-1.4-1.3-1-2.3.7-1.3 1.8-2 3.1-2.5 6.3-2.7 10.7-7.2 13.5-13.5.7-1.6 1.5-3.2 3.6-3.3 3.6.1 7.2 0 10.5 1.7.1.4.2.9-.2 1-4.5 1.1-6.5 5.1-9.2 8.2-2.4 2.7-5.1 5-7.4 7.8-2.2 2.8-6 2.1-8.7 3.7-1.2.3-2.3.2-3.4-.6z" style="fill:#7bcfef"/><path d="M246.8 100.1c-13.8-.4-27.6-.3-41.5-.1-6.4 0-12.8 0-19.3.1-.5-.1-1-.1-1.5-.2.5-.2 1-.4 1.5-.7 3.2-.7 6.5-.1 9.8-.3 1.3-.1 2.7.3 3.8-.9.7-.4 1.4-.6 2.1-.6 14.1-.1 28.1-.4 42.2.2.7.1 1.4.3 2.1.5 19.8.2 39.7 0 59.5.1 1.8 0 3.7-.2 5.5.4.5.2.8.5 1 1-.2.5-.5.8-1 1.1-1.3.5-2.6.5-4 .5h-55.4c-1.6 0-3.4.2-4.8-1.1z" style="fill:#4875f2"/><path d="m239.4 268.1-.7-.7c3.4-3 6.7-6.1 10.2-9 1.7-1.5 1.8-2.6 0-4.1-3.4-2.9-6.8-6-10.2-9-.5-.4-1.6-.5-.7-1.5.3-.2.6-.3 1-.2 4.3 1.5 7.8 4.6 11.9 6.4 2.5 1.9 6.4 2.7 6.1 7.1-.4 1.3-1.2 2.5-2.3 3.2-4.4 2.8-9 5.4-13.5 7.9-.6.2-1.3.3-1.8-.1z" style="fill:#f2fbfe"/><path d="M180.9 205.9c16.8 0 33.6.1 50.3.1 2.2-1.7 4.7-.9 7.1-1 2.6-.1 5.2 0 7.8 0h62.2c1.8 0 3.7-.3 5.4.7.4.4.5.8.1 1.3-1.6 1.2-3.5.8-5.4.8H208.1c-1.6 0-3.2 0-4.8-.3-6.7 0-13.3-.2-20 .1-.7 0-1.3-.1-2 0-.5-.5-1.4-.9-.4-1.7z" style="fill:#8aa9ed"/><path d="m205.3 407.3-.7-.7c-.2-.5-.5-1-.7-1.5 7.8-1.7 15.7-.9 23.5-1 5.9-.1 11.8-.1 17.7.1.4 0 .8.2 1.2.3.8.4.8 1.2.8 1.9v.5c-.1.1-.2.3-.3.4-13.9.1-27.7.1-41.5 0z" style="fill:#eff9fd"/><path class="st46" d="M246.8 405.1h-42.9v-.6c1.2-.1 2.5-.1 3.7-.2 2.6-1 5.3-.7 7.9-1 2 .1 4-.1 5.9 0h9.8c2.2.1 4.4-.1 6.6-.1 2.6.2 5.3-.1 7.9 0h1.3c3 .1 5.9-.1 8.9 0 17.2 0 34.5 0 51.7-.1 2 0 4-.2 5.8.7 1.4 1.7.1 2-1.2 2.4-20-.2-39.9 0-59.9-.1-1.8 0-3.9.5-5.5-1z"/><path d="M184.5 403.7c-.1-2.1.8-3.3 3-3.7 3.8-.5 6.5-3.3 9.8-4.9 2.2-1.1.5-3.6 2-4.8 1.1.9.9 2.4 1.4 3.6.3 1.5.5 3 .7 4.5 0 .4-.1.8-.3 1.1-4 3-8.4 4.8-13.5 4.8-1.1.1-2.2.2-3.1-.6z" style="fill:#56a9df"/><path d="M238.6 243.7h-.7c-1-.7-2-1.4-3.1-2.2 2.4-2.9 5.5-4.4 9.2-4.7 2.7-.2 5.3-.6 7.6-2.2.9.2 1.4.8 1.8 1.5.6 1.4.9 2.7.4 4.2-1.9 2.9-5 2.5-7.8 2.9-2.4.3-4.9-.5-7.4.5z" style="fill:#74c0f2"/><path d="M233.4 240.7c-1.3-.6-2.7-1-3.7-2.2v-.6c.8-2.2 2.8-3.1 4.8-3.6 4.2-1.1 8.1-3.4 12.6-3.6 1.1 0 1.9-1.1 3-1.3.6.1.9.6 1.2 1.1.5 1.2 1.5 2.2.7 3.6-1.8 1.2-3.7 1.5-5.8 1.6-4.7.4-8.6 3.1-12.8 5z" style="fill:#6eb6f2"/><path d="M233.4 271.8c-1 1.2-2 2.5-3 3.7-2.5 3-5.6 5.4-8.6 8-2.1 1.6-3.5 4.5-6.8 3.7-1.4-1.6-1.2-3.3-.1-5 5.1-3 10.1-5.9 15.2-8.9 1.1-.6 2.1-1.4 3.3-1.5z" style="fill:#ddf3fc"/><path d="M204.6 223.7c.9-.6 2.5-.7 1.7-2.5-.8-1.9.1-3.4 1.2-4.9 2.4.3 3 2.8 4.8 4 1 1.1 2.3 2 2.9 3.5.1.3.1.7.1 1-.3 1.5-.5 3.1-1.9 4.2-3-1.6-6.1-3.3-8.8-5.3z" style="fill:#3a59e5"/><path d="M233.4 240.7c0-.8.2-1.7 1-1.9 4.3-.8 7.6-4.6 12.3-4 1.9.2 3.4-1 5.2-.8.2.2.2.3.2.5s-.1.3-.1.3c-.9 2.7-3.6 2.8-5.4 2.7-4.6-.3-7.9 2.2-11.7 4-.5-.3-1-.5-1.5-.8z" style="fill:#71bcf2"/><path class="st54" d="M214.9 282.2c0 1.8-.3 3.6.7 5.2.4 1.3-.4 1.9-1.5 2.2-2 .8-2.7 3.5-5.2 3.7-1.4-5 .2-8 6-11.1z"/><path d="M187.6 404.3c4.9-.5 8.8-3.6 13.3-5.1 1.5.5 1.6 1.7 1.5 3 .2.7.5 1.4.7 2.1h-15.5z" style="fill:#53a5df"/><path d="M213.4 228.9c.5-1.5.4-3.2 1.6-4.5 2.1-1 2.8.9 3.9 1.9.6.9 1.2 1.8 1.4 2.8-.4 1.7-1.5 2.3-3.1 2-1.3-.7-2.5-1.5-3.8-2.2z" style="fill:#3f61e5"/><path d="m174.9 391.1-.7.7c-.1-8.4-.1-16.8-.2-25.2 0-1.5-.2-2.9-.3-4.4.1-.5.3-.8.9-.9.4.2.8.5 1 1 .8 6.8 1 13.7-.1 20.5-.5 2.7.4 5.5-.6 8.3z" style="fill:#42acdc"/><path class="st46" d="M173.5 362.2v29.4h-.8v-26c0-1.2-.3-2.5.8-3.4z"/><path d="M217.2 231.1c1.1-.6 2.4-.9 2.9-2.2.2-.1.3-.1.5-.2.9.1 1.6.7 2.3 1.2.9.8 2.1 1.4 2.1 2.9-.5 1.2-1.4 1.6-2.6 1.3-1.9-.8-3.7-1.6-5.2-3z" style="fill:#446be5"/><path d="M181.3 207.6c.2-.5.6-.8 1.1-.8 6.4.6 12.7.1 19.1.3.4 0 .8 0 1.3.1.4.2.5.6.3 1H187c-1.5 0-3.1-.3-3.3 1.9-.8-.9-1.6-1.7-2.4-2.5z" style="fill:#4059e5"/><path d="M173.9 344.4c.6-.8 1.5-.9 2.5-.8.6-.1 1.2.1 1.1.6-1.2 5.2 0 10.5-1.1 15.7-.4.6-.7 1.2-1.6.7-1.2-3.1.3-6.2-.1-9.3-.3-2 .3-4.1-.4-6.1-.2-.3-.3-.5-.4-.8z" style="fill:#3f58e5"/><path d="M222.3 234.1c.8-.5 1.5-1 2.3-1.5.3-.3.6-.3.9-.2 1.4.7 2.3 2 3.4 3 .7.9 1.8 1.7.9 3.1v.1c-2.8-1.1-5.2-2.8-7.5-4.5z" style="fill:#4a76e6"/><path d="M174.2 345.2c1.5 3.5.4 7.2.7 10.8.1 1.6.1 3.2.1 4.8.1.3.1.5-.1.7-.3 0-.5.1-.8.1-.7-1.7-.2-3.5-.3-5.2.2-3.8.3-7.5.4-11.2z" style="fill:#0029e3"/><path class="st46" d="M188.3 405.3h13.9v.3h-13.9v-.3zM176.5 398.4c1.2 1.2 2.4 2.5 3.7 3.7-2.2-.3-3.5-1.5-3.7-3.7zM173.9 356.3c.1 1.7.2 3.5.3 5.2-.1.2-.3.4-.4.6h-.3l-.1-.1c.3-1.8-.4-3.8.5-5.7z"/><path d="M314.1 206.6c0-.2 0-.4.1-.5 0-.2 0-.4-.1-.6 1.1-4.8 2.3-9.5 3.4-14.3.2-.3.5-.7.7-1 .2-16.6 0-33.3.1-49.9 0-2.3-.1-4.7.2-7 .5-1.6.5-3.4.7-5.1.3-2.9 1.7-4.1 4.4-3.4 3.5 1 7 1.8 10.7 2 4.1.3 6.7 4.1 6.8 8.2.1 2.6-.3 5.2.6 7.7.3 6.8.3 13.6 0 20.4-1.2 4.7-.5 9.6-.5 14.3 0 2.7-.8 4.9-2.3 7.2-4.2 6.1-8.7 12-11.7 18.8-.6 1.4-1.5 2.1-3.1 2.1-2.1-.1-4.2 0-5.7 0 4.4.6 9.3-.9 14.3-.7 1.6.1 3.2-.2 4.5 1 .9.1 1.9.1 2.8.2.1 0 .3.1.3.2s-.1.2-.2.3c-1.1 1.1-2.5 1-3.9 1.1H319c-1.4 0-2.9.2-4.3-.6-.2-.1-.4-.3-.6-.4z" style="fill:#7191b6"/><path d="M301.7 277.7c8.3 5.1 17 9.6 24.7 15.4 9.2 6.9 14 16.9 15.1 28.4-.7 5.7-.1 11.4-.3 17.1 0 1.3.5 2.8-1.2 3.5-1.3.4-2.6.3-3.6-.7-3.2-14.2-7.7-27.9-14.4-40.9-1.4-2.6-2.8-5.2-5-7.2-1.4-1.4-2.2-3.2-3.4-4.8-2.7-3.4-6.8-4.7-10.3-7.1-1.2-.8-2.7-1.3-2.7-3.2.1-.5.4-.9 1.1-.5z" style="fill:#8197b8"/><path d="M332.6 214.8c-1.9 1.3-3.8 2.5-5.7 3.8-2.6 1.4-5.2 2.8-7.6 4.7-6 3.4-11.8 7.2-17.7 10.6-1.5.9-2.9 2.4-5 2-1.3-3.3 1.5-4.8 3-6.8 1.1-1.5 3-2.7 2.2-5.1 0-.3 0-.7.1-1 1.2-1.6 3.1-2.5 4.3-4.1 1.1-1.2 2-2.6 3-3.9 1.6-2.3 2.3-5 4-7.3.3-.3.6-.4 1-.6.4-.1.8-.1 1.2-.1H336c1.4 1.3 0 2.2-.5 3.1-.8 1.7-2.2 3-2.9 4.7z" style="fill:#2c46ac"/><path d="M340.1 111.2c.6-.3.7-1.4 1.8-.2 3.7 3.9 5.3 8.6 5.4 13.7.2 8 .5 16 0 24-.7 11.5-.6 23-1.4 34.5-.5 7.2-1.7 14.3-5.4 20.8-1 1.7-1.9 1-2.9 1.2-.9-2.3.6-4.3 1.2-6.3.7-2.5 1.3-5 2-7.5.8-5.9.2-11.8.4-17.7.1-1.3-.1-2.7.6-4 .2-.4.5-.9 1.1-.5.5.4.5 1 0 2-.1-11.8.2-23.1 1-34.3.2-2.8 0-5.7-.3-8.5 0-.1.4-.6-.3-.5-1.8.2-1.9.2-2.1-1.3-.3-2.7.3-5.4-.4-8.1-.3-1.2-.8-2.3-1-3.5 0-1.2-.7-2.6.3-3.8z" style="fill:#dcf3fc"/><path d="M296.4 235.7c6-3.5 12-6.9 18.1-10.4 1.6-.9 3.3-1.7 4.9-2.5.3-.2.6-.1.8.2-6.9 5.3-14.6 9.5-21.9 14.1-9.2 5.9-18.5 11.6-27.9 17.3-2.5 1.5-2.2 2.3.1 3.7 10.5 6.4 20.8 13 31.2 19.5-.3.3-.6.5-.9.8-2.1 1.2-3.5-.4-5-1.3-6.2-3.6-12.5-7.3-18.7-10.9-1.4-.8-2.8-1.5-4.4-1.8-2.8-1.3-4.7-3.7-7.1-5.5-.4-.4-.7-.9-.9-1.4-.4-1.3.1-2.6.6-3.8 1-2 3.1-2.4 4.8-3.4 6-3.2 11.7-6.8 17.6-10.2 2.9-1.4 5.2-4 8.7-4.4z" style="fill:#8398ba"/><path d="M341.6 191.9c-.7 4.6-2.4 8.9-3.9 13.3-.2.3-.4.5-.6.8H316c.5-.4.7-.7.8-.7 6 1.2 9.4-1.1 11.9-6.8 2.5-5.8 6.6-10.9 10.4-16 .8-1.1.9-2.2.9-3.4v-11.8c0-1.2-.4-2.5.7-3.5 1.3 1.3 1 2.9.9 4.5-.3 7-.2 14-.1 21 .4.8.5 1.7.1 2.6z" style="fill:#7592b7"/><path d="M315.7 99.9c5.7.1 11.4.4 17-.2.3-.1.6-.2 1-.2 0 .3-.1.5-.3.6 2.1 2.5 4.4 4.8 5.2 8.1-.3 1.2-1 2-2.3 1.6-5.8-1.9-11.7-2.3-17.7-2.2-1 0-1.8-.6-2.7-1-.4-.1-.7-.2-1-.4-1.3-1.9-2.8-3.6-2.9-6.1l.1-.3c1.1-.8 2.4-.9 3.6.1z" style="fill:#8398b9"/><path d="M315.5 106.2c1.9.7 3.9.7 5.9.5 5.1-.4 10 .3 14.7 2.2 1.3.5 1.8-.1 2.5-.7l1.5 3c.2 1.2.4 2.5.7 3.7-.7.6.2 3.1-2 2.1-5-2.3-10.6-1.2-15.6-3.2-2.1-.8-4.5-.9-6.4-2.3-.4 0-.7-.2-.9-.5-.6-1.7-1.4-3.2-.4-4.8z" style="fill:#7c95b8"/><path d="m337.2 403.7-.9.6c-.6.5-1.3.7-2.1.3-.9-.7-1.3-1.8-1.4-2.9-.8-4.1-2.9-7.4-5.6-10.4-.4-.6-.7-1.3-.8-2.1.4-2.3-.4-4.7-.2-7 .3-.8.9-1.3 1.7-.7 4.9 4 10.3 7.5 13.7 13.1.5 2.8-1 4.9-2.2 7.1-.6 1.1-1.8 1.1-2.2 2z" style="fill:#2c4cac"/><path d="M341.5 342.2c.1.2.1.4.2.6.6.9.8 1.9.8 2.9 0 .6-.1 1.2-.3 1.8-1.3 7.3-1.3 7.3-8.7 5.5-5-1.2-9.5-3.4-14.2-5.4-.9-.9-1-2.2-1.4-3.3-.3-2-.7-4.1.9-6.2 3.9 6.4 10.4 6.4 16.4 7.4 2.7.5 4.5-.5 5.2-3.3.4-.2.7-.3 1.1 0z" style="fill:#386aaa"/><path d="M334.1 404.3c.7 0 1.5 0 2.2.1-.6 1.6-2.6 1.9-2.9 3.6-.1.2-.3.3-.4.5-5.4 1.3-10.9.3-16.3.6-1.2 0-2.3 0-3.5-.2-.4-.1-.7-.2-1-.4-.3-.2-.4-.5-.5-.9.1-.7.4-1.3 1.1-1.6.4-.5.8-1 1.3-1.4.2-.4.6-.7 1-.9 6.3-.4 12.7-1.4 19 .6z" style="fill:#8196b9"/><path d="M338.5 402.2c.5-2.6 2.7-4.6 2.3-7.4-.6-4.9-.4-9.7-.2-14.6.1-.7.3-1.3.8-1.8 2.9 1.1 1.5 3.6 1.9 5.5-1.2 4 1.8 6.5 3.5 9.4 0 4.8-3.4 7.1-6.8 9.5-.4-.4-1.1-.1-1.5-.6z" style="fill:#3c64e2"/><path d="M342.3 384.4c-.3-2 .6-4.1-.6-5.9-1.3-1-1-2.4-1.2-3.8.1-2.6-.5-5.3.8-7.9 1.8.2 1.8.2 2.1 3.3 0 1 .1 1.9-.1 2.9-.4 2.6.8 3.9 3.2 4.2.3.1.6.3.9.4.3.2.5.4.8.7 0 1 0 2 .1 3-.6 2-.1 4-.3 6-.4 1.2-1.1.8-1.5.1-1-1.5-2.6-2.2-4.2-3z" style="fill:#4171e1"/><path d="M342.3 384.4c3.4-1.1 4.1 1.6 5.2 3.7.2-.3.4-.4.7 0 .1 1.9.3 3.8-1.3 5.2-3.7-1.9-5.6-4.7-4.6-8.9z" style="fill:#3f6be2"/><path d="M348 378.5h-.6c-1.6-2-.9-4.4-1-6.7-.1-2.8 0-5.6 0-8.4-.1-3.7.4-7.4-.3-11-.2-.6-.3-1.2-.3-1.8.2-2.3-.4-4.5-1.3-6.7 0-.1.1-.2.2-.3.2-.1.4-.1.7 0 2.1-.2 2.7.9 2.7 2.9-.1 10.6-.1 21.3-.1 32z" style="fill:#4095d9"/><path d="M345.4 343.6c1.9 2 1.3 4.4 1.3 6.8-1.6.2-3.1 1.3-4.8.5-1-1.6.5-3.3-.2-4.9v-3.1c1.2 0 2.6-.2 3.7.7z" style="fill:#519bd9"/><path d="M332.6 214.8c-.1-3.2 2.7-4.8 3.8-7.4 2.7-.6 2.9-.5 2.9 1.3-1.5 2.9-3.9 4.7-6.7 6.1z" style="fill:#3853e3"/><path d="M341.5 342.2h-.6c-.9.5-1.5.4-1.5-.8 2-.3 1.5-1.9 1.5-3.2v-13.3c0-1.2-.4-2.5.6-3.5v20.8z" style="fill:#788eb3"/><path d="M320.1 223c-.3-.1-.5-.1-.8-.2 2.2-1.9 4.6-3.6 7.5-4.2-1.9 1.9-4.4 3-6.7 4.4z" style="fill:#3a56ae"/><path d="M345.9 408.2c-1.8 1.3-3.9.3-5.9.6-.4.4-.9.4-1.4.2-.2-.2-.3-.4-.2-.6 0-.2.1-.3.1-.3 2.5.1 5 .1 7.4.1z" style="fill:#113ee4"/><path d="M348.1 388.1h-.7c.3-2.2-.7-4.5.6-6.6.1 2.2.1 4.4.1 6.6z" style="fill:#1d60df"/><path d="M339.3 208.7c-.3-1.9-1.9-1.1-2.9-1.3h-.1c-.2-.2-.3-.3-.2-.5.1-.1.2-.2.3-.2 1.2 0 2.4-.1 3.6-.1.4 1 .2 1.7-.7 2.1z" style="fill:#133ee5"/><path d="M338.6 408.2v.6c-1.5 1.3-3.1 1.1-4.8.5-.4-.2-.6-.6-.4-1l.1-.2-.2-.1c1.8.1 3.5.1 5.3.2z" style="fill:#0028ad"/><path d="M338.5 402.2c.6 0 1.2 0 1.5.6-.9.3-1.9.6-2.8 1-.7-1.5 1-1 1.3-1.6z" style="fill:#0d4ae2"/><path class="st105" d="M240.8 429.6h-.9c-.1-.5.1-.9.6-1.2.9-.5 1.9-.6 2.9-.6 31.4 0 62.9-.2 94.3.1.5.1.9.2 1.3.5.5.3.6.7.3 1.2-.9.6-1.9.3-2.9.3h-92.7c-.9 0-1.9.2-2.9-.3z"/><path class="st48" d="M240.8 429.6h98.5v.7h-94.2c-1.4 0-3 .5-4.3-.7z"/><path class="st106" d="M180 80.9h-34.7c-1.6 0-3.1-.3-3-2.3 0-2 1.5-2.3 3.1-2.2h29.5c1.5 0 2.9-.1 4.4-.2 0 .1.1.2 0 .4 1 1 1.4 2.2 1.2 3.6 0 .3-.2.5-.5.7z"/><path d="M197.9 84.5h-14.8c-.3-.5-.5-1-.8-1.5 1.2-1.2 2.7-1 4.1-1h49.3c1.5 0 2.9 0 4.4.6 1.1.6 1.4 1.4.4 2.3-1.1.7-2.3.8-3.5.8-11.6.1-23.3 0-34.9 0-1.5 0-3-.1-4.2-1.2z" style="fill:#375bc0"/><path class="st106" d="M180.3 81.4c-.1-.2-.2-.4-.3-.5l.3-.3c1.2-1 2.8-1 4.2-1h51.3c1.1 0 2.2 0 3.3.4.5.2.8.5 1.1.9 0 .2-.1.5-.1.7-.2.1-.4.3-.6.4-11.8.5-23.6.2-35.4.2-7.5 0-15 .4-22.5-.3-.5 0-.9-.1-1.3-.5z"/><path d="M180.9 81.5h59.2c0 .2.1.5.1.7-.4.3-.8.5-1.3.4h-53.3c-1.3 0-2.7.3-4-.3h-.7c-.4-.3-.4-.5 0-.8z" style="fill:#1b50be"/><path d="M181.6 82.3H240c.2.1.2.3.2.4 0 .2-.1.2-.1.2-19.3 0-38.5 0-57.8.1-.2-.2-.4-.5-.7-.7z" style="fill:#3d5ec1"/><path d="M180.9 81.5v.8h-36.3v-.8h35.7c.2-.1.4-.1.6 0z" style="fill:#0e317c"/><path d="M240.1 428.9c0 .2-.1.4-.2.7h-.6c-.3.1-.7.3-1.1.3h-57.8c-.4 0-.7-.2-1-.3l-.1-.1v-.7c.3-.4.7-.6 1.2-.8 5-.6 10-.2 15.1-.2 12.9-.1 25.8 0 38.6 0 1.6 0 3.2-.1 4.8.3.4.1.8.4 1.1.8z" style="fill:#024bbd"/><path d="M179.4 429.6h59.9c-1.1 1.2-2.6.7-3.9.7h-56.1c.1-.2.1-.5.1-.7z" style="fill:#3e60c1"/><path class="st40" d="M183.1 419.2h14.1c1.1-1 2.4-1.1 3.8-1.1 12-.1 24.1-.1 36.1 0 1.1 0 2.2.1 3.2.6 1.7 2.2.1 3.5-1.4 4.9-1.4.6-2.9.4-4.4.4h-48.8c-1.7 0-3.5.4-4.9-1 0-1.8 1.8-2.4 2.3-3.8z"/><path d="M143.2 428c-1.4-1.2-1.6-2.4-.1-3.6.2 0 .4-.1.7-.1 11.5-.4 23 .1 34.5-.3.5 0 .9.1 1.3.4.5.9.5 1.8-.1 2.7-1.3 1.5-3.1 1.3-4.8 1.3-10.1 0-20.1.1-30.2 0-.5-.1-.9-.2-1.3-.4z" style="fill:#909cbf"/><path d="M180.8 422.9h58.6c0 .5-.2.9-.6 1.2-.9.5-1.9.6-2.9.6-18.1 0-36.1.2-54.2-.1-.5-.1-.9-.2-1.3-.5s-.5-.7-.3-1.2h.7z" style="fill:#1f52be"/><path class="st115" d="M180.1 422.9v.6c-1 .8-2.3.8-3.5.8-10.5.1-20.9.1-31.4 0-.7 0-1.5-.1-2.1-.5.9-1.5 2.5-.9 3.7-.9h33.3z"/><path d="M143.2 423.8c11-.1 21.9-.1 32.9-.2 1.4 0 2.7-.1 4.1-.1l.1.3c.2.3.2.5 0 .8-.3.1-.5.1-.7-.2h-.8c-4.8.8-9.6.3-14.4.3-7 0-14 .3-21.1-.2l-.1-.1c-.1-.2-.1-.4 0-.6z" style="fill:#7d89b1"/><path d="M143.2 428h.7c9.5-.6 19-.1 28.4-.3h6.3c.2.1.5.1.7.2.1.2.1.5.2.7 0 .1 0 .3-.1.4-11.8.2-23.7.5-35.5-.2-.3-.2-.5-.5-.7-.8z" style="fill:#6673a1"/><path class="st105" d="M143.8 428.8c11.8.1 23.7.1 35.5.2 0 .2 0 .3-.1.5h-35.4v-.7z"/><path d="M197.9 84.5c14.3 0 28.7-.1 43-.1 1.4-1 2.7-1 4 .1 1.2 4.7 1.7 9.4-.3 14h-45.2c-.2.3-.5.2-.7 0-1.6-4.5-.5-9.3-.8-14z" style="fill:#537bf2"/><path class="st119" d="M198.6 98.6h.7c-4.3 1.5-8.8.3-13.2.7 4.1-1.5 8.4-.3 12.5-.7z"/><path d="M339.3 429.6v-.6c.9-1.1 2.1-1.2 3.3-1.2 8.3-.1 16.6-.1 24.9 0 .9 0 1.7.2 2.5.6.5.3.6.7.4 1.2h-31.1z" style="fill:#1b3678"/><path class="st41" d="M244.5 98.6V84.7c1.2-1.5 2.9-1.3 4.4-1.3h67c1.5 0 3-.2 4.2 1.1l-.1.1c0 2.6.1 5.1 0 7.7-.1 3.3-1.7 5.8-4.4 7.6-1.2 0-2.5 0-3.7-.1v-.5c-.8-.6-1.7-.4-2.5-.4h-61.9c-.7 0-1.5-.1-2.2.3-.2-.2-.5-.4-.8-.6z"/><path d="M333.7 99.5c-.3.1-.6.1-1 .2.1-1.1 1-1.2 1.8-1.1.1 0 .3.2.4.4-.4.2-.8.3-1.2.5z" style="fill:#1237ab"/><path d="M240.9 419.2c-14.6 0-29.1-.1-43.7-.1-.4-3.8 1.1-7.1 3-10.3.6-.6 1.3-.4 2-.4 14.3 0 28.5-.1 42.8.1 1.6 3.6.8 7.2-.2 10.7-1.3 1-2.6 1.1-3.9 0z" style="fill:#537af2"/><path d="M201.5 408.8c-.4 0-.9.1-1.3.1-7 0-13.9 0-20.9-.1-1.2 0-2.5.4-3.5-.6h25.8c.3.1.4.3.3.4-.2.1-.3.2-.4.2z" style="fill:#143fe5"/><path class="st124" d="M370.4 428.9h-31.2l.1-.2c-.3-.2-.5-.5-.6-.8-.1-.3-.2-.7-.2-1.1-.1-.8 0-1.5.2-2.3.1-.4.3-.8.6-1.1.3-.3.7-.5 1.2-.6 8.6-.5 17.2-.1 25.8-.2 1 0 1.9.3 2.9.7 2.1 3 4.9 4.4 8.7 3.9.8-.1 1.7.2 2.3 1v.7c-3.4.6-6.6.4-9.8 0z"/><path class="st42" d="M344.5 419.2c1.9 1.5 4 .6 6.1.7 4.2.1 8.4.2 12.6 0 2.6-.1 4.6.7 5.8 3-6.1.8-12.2.2-18.2.3-3.5.1-7.1 0-10.6 0-2.2-.6-4.1-1.5-2.8-4.4 2.3-1 4.8-1.1 7.1.4z"/><path d="M380.1 428.1c-1.8 0-3.7-.2-5.5.1-3.5.5-5-1-4.8-4.4.2-.1.3-.3.5-.4 3.3.2 6.6-.7 9.8.5 1.2 1.3 1.9 2.8 0 4.2z" style="fill:#8d99bd"/><path class="st126" d="M339.3 422.9h30.3c.2.2.3.3.2.5-.1.2-.2.2-.3.2 0 0 .1.1.1.2h-30.5l-.2-.3v-.3c.2-.1.4-.3.4-.3z"/><path d="M369.7 423.6v-.7c3.4.5 7-1 10.3.9-3.4-.1-6.9-.1-10.3-.2z" style="fill:#0f317d"/><path d="M370.4 428.9c3.2 0 6.4-.1 9.6-.1-3.1 1.7-6.4.3-9.6.8v-.7z" style="fill:#012c7b"/><path class="st124" d="M338.6 76.2h31.1v.3c-.4 2.8.9 3.6 3.6 3.5 2-.1 4.4-.8 6.2 1 0 .2-.1.4-.1.6-3.9.8-7.9.2-11.8.4-7.3-.8-14.6-.2-22-.3-2.6-.1-5.1.2-7.7-.2-2.5-2-.7-3.4.7-4.9v-.4z"/><path d="M379.4 80.9H368c0-2 1.1-3.1 1.6-4.5 2.8 0 5.6 0 8.4-.1 1.5 0 2.8.4 3.2 1.9.3 1.4-.5 2.3-1.8 2.7z" style="fill:#8c98bd"/><path class="st126" d="M337.1 80.8c8.7 0 17.4 0 26.1.1 1.5 0 3-.1 4.3.7.2.2.3.3.2.5-.1.2-.2.2-.2.2H336.4c-.3-.2-.3-.4-.3-.7.1-.3.3-.5.6-.6.1-.1.2-.2.4-.2z"/><path class="st130" d="M367.4 82.3v-.7h11.8c-3.8 1.5-7.8.3-11.8.7z"/><path class="st43" d="M344.5 419.1c-2.5 0-5 .1-7.5.1-5.5 2.1-11 1.2-16.6.6-1.4-2-3.4-9.6-2.9-11.3 5.3.1 10.6-.4 15.8.3h6.7c3.5 2.6 4.8 6.2 4.5 10.3z"/><path d="M320.1 84.5h-70.8c-1.6 0-3.2.1-4.8.1-1.2-.1-2.4-.1-3.6-.2-.3-.5-.5-1-.8-1.5v-.7h.2c1.3-1.3 3-1 4.6-1h86.3c1.6 0 3.3-.3 4.5 1-.9 1.9-2.6 1.3-4.1 1.5-3.9.5-7.8-.8-11.5.8z" style="fill:#263d81"/><path class="st130" d="M335.6 82.3h-95.4c-.1-.2-.1-.5-.2-.7v-.1c1.4-1.1 3-.9 4.6-.9h87.2c1.6 0 3.2-.3 4.5 1v.7h-.7z"/><path class="st41" d="M317 408.9c2.5 3 3.4 6.5 3 10.3-1.4 1.4-3.2 1.2-4.9 1.2h-65.8c-1.7 0-3.5.2-4.8-1.3.2-3.4-.4-6.9.7-10.2-.2-.2-.3-.3-.2-.4.1-.1.2-.2.3-.2h.7c.4.2.8.4 1.3.4 21.1-.1 42.1.1 63.2-.2.4-.1.9-.2 1.3-.2 1.3 0 2.5 0 3.8-.1.4.4 1.1.1 1.4.7z"/><path d="M311.9 408.2v.6c-.8.5-1.7.4-2.5.4h-60.9c-.8 0-1.7.2-2.5-.4v-.6c.2-.1.5-.2.7-.2 1.3-1 2.8-.9 4.2-.9h57c1.3 0 2.7-.1 3.9.8l.1.3z" style="fill:#133fe5"/><path class="st47" d="M311.9 407.9c-10.6.1-21.2.2-31.8.2-11.1 0-22.2-.1-33.3-.1v-.7c1.1-1 2.5-1 3.8-1h57.9c1 0 2 0 2.9.5.2.1.4.3.6.5-.1.1-.1.4-.1.6z"/><path d="M245.3 408.2c0 .2 0 .4-.1.6-14.6 0-29.2-.1-43.8-.1 0-.2.1-.4 0-.5h43.9z" style="fill:#4472f1"/><path d="M338.5 76.5c-.5 1.4-1 2.8-1.5 4.3-.9.6-1.9.4-2.9.4h-91.5c-.9 0-1.7.1-2.5-.3l-.2-.2c-.9-1.3-1.2-2.7-.6-4.3.3-.1.5-.1.8-.2 31.2 0 62.4.1 93.6.1 1.6.1 3.2.2 4.8.2z" style="fill:#8f9bbf"/><path d="M239.3 76.4c.9 1.3.8 2.8.7 4.3-19.9 0-39.8 0-59.7-.1-.3-1.4-.6-2.7-.9-4.1 20 0 39.9-.1 59.9-.1z" style="fill:#c4cbde"/><path d="M175.7 360.1c0-3.9.3-7.8-.2-11.6-.2-1.9 1.9-3.1.8-4.9 7.5-1.9 15.1-3.8 22.6-5.7.1 0 .3.3.5.4.3.3.5.6.6 1 .2.9.2 1.8-.2 2.7-2.3 2.6-5.6 3.9-8.1 6.4-1.7 1.8-2.3 3.3-.3 5.2-1.5 2.1-4.1 1.8-6.2 2.8-1.3.6-2.7 1.2-4 1.8-1.8.6-3.3 2.2-5.5 1.9z" style="fill:#3651e5"/><path d="M199.4 339.2v-.9c.5-.4 1-.8 1.5-1.3 5.3-1.2 10.5-2.5 15.8-3.7.6-.1 1.2 0 1.8 0 .8.2 1.2.8 1.3 1.5 0 4.7-2.4 8.4-5.2 11.9-1.9-.6-3.3-2.1-4.9-3.1-2.2-1.3-4.4-1.7-6.7-.7-2.8 1.3-3.9.7-3.4-2.4.2-.4.2-.9-.2-1.3z" style="fill:#4f7af2"/><path class="st138" d="M221.6 282.9c2.9-2.6 5.3-5.7 8.9-7.4.6 8.8 1.5 17.5 2.6 26.3.9 7.9 4 15.2 4.8 23 .2 1.7 1.6 1.6 2.3 2.6-3.6 3-7.8 3.6-12.3 3.3-1.8-.9-2.2-2.6-2.1-4.4.3-10.7-2.7-21-3.4-31.6-.3-3.9-.4-7.8-.8-11.8z"/><path d="M239.4 268.1c4.7-2.7 9.5-5.5 14.2-8.2 1.2-.7 1.8-2 2.7-2.9 1.6 1.6.9 3.5 1 5.4 0 .6-.1 1.2-.3 1.8-.3.9-.6 1.9-.9 2.8-2.5 8.6-5 17.2-7.4 25.8-.4 1.3 0 3.1-2 3.4-.1-.6 0-1.5-.4-1.7-4.3-2.4-4.6-6.8-5.5-10.9-.9-4-1.5-8.1-2.5-12.1-.4-1.5 0-2.4 1.1-3.4z" style="fill:#e5f6fc"/><path d="M228.2 330.3c4-.7 8-1.7 11.9-2.9 1.5-.2 3-.5 4.5-.7 2 1.1 1.6 3.1 1.7 4.8.1 1.6 0 3.2.1 4.7 0 3.8.1 7.5-.1 11.3-.1.6-.2 1.3-.6 1.8-1 1.2-2.2.6-3.3.2-4.6-2.3-9.1-4.6-13.5-7.2-.9-.5-1.7-1.1-2.5-1.6l-2.1-1.2c-1.9-1.3-4-2.4-4.9-4.7-.2-.5-.5-1-.7-1.5.3-.3.5-.6.8-.8 2.5-1.9 5.5-2.5 8.7-2.2z" style="fill:#9edef2"/><path class="st141" d="M246.8 296.3c2.5-8.7 4.9-17.3 7.4-26 .4-1.3.5-2.7 1.5-3.7 1 .8 1.3 1.8 1.6 3 .6 10.8.1 21.7 0 32.5-.5 1.8-.6 3.6-.7 5.4-.1 1.4-.6 2.7-2.4 2.4-2.7-.3-7.5-6.4-7.3-9.2-.1-1.5-.1-2.9-.1-4.4z"/><path d="M246.8 300.7c1.4 3.4 4 5.9 6.8 8.1 1.4 1.2 2.1.3 2.2-1.4.1-1.5-.6-3.2.7-4.5 1.5 1.4.7 3.5 1.5 5.2.2.6.2 1.2.3 1.9 0 3.4.2 6.8-.2 10.2-.3 1.2-.5 2.4-1.2 3.5-.7.8-1.7 1.1-2.6 1.4-3 .3-5.7 2.4-8.9 1.5.1-7.8-.3-15.7.8-23.4-.1-1-.2-1.9.6-2.5z" style="fill:#d1effa"/><path d="M245.2 326.5c2.9-.9 5.8-2 8.9-2.1 1.1-.3 1.2.6 1.3 1.2.3 3.6 1.9 6.9 3.2 10.2.5 2 2.4 3 3.4 4.7.7 1.2 1.6 2.4 1.3 4-1.5 1.8-3.1 3.1-5.5 3.2-1.9-.8-3.3-2.5-3.7-4.3-1.1-5.1-4.7-8.7-6.9-13.2-.8 2 1.1 4.7-1.8 6-.3-3.2.6-6.5-.7-9.6.1 0 .3 0 .5-.1z" style="fill:#67bae5"/><path class="st55" d="M228.2 330.3c-2.9 1.1-5.8 1.8-8.9 2.2-1.4-1.7-3 .3-4.5-.2.4-14.3-1.3-28.5-.7-42.7.5-.7 1-1.5 1.5-2.2 2-1.5 3.9-3 5.9-4.4 1.3 1 1.4 2.5 1.5 4 .4 10 1.6 20 3.4 29.9.6 3.1.3 6.4.2 9.6.1 1.5.3 2.8 1.6 3.8z"/><path class="st138" d="M219.4 205.2h-8.1c4.2-.7 3.8-3.2 3.2-6.6-3.5-18-7.8-35.8-11.8-53.7-.9-4.2-1.4-8.6-2.5-12.9v17.6c0 1.3.5 2.7-.7 3.8.5-15.6-1.5-31.2 2.2-46.7h8.9c-3.6 5.8-1.2 12-.8 17.9 1.6 19.8 7.6 38.9 11 58.4.9 5.2 2 10.4 2.9 15.6.9 5.2.5 5.8-4.3 6.6z"/><path class="st52" d="M219.4 205.2c4.2-.7 3.8-3.2 3.2-6.6-3.7-20.5-8.5-40.8-12.5-61.2-1.6-8.4-1.7-17-2.6-25.6-.3-2.6.7-4.2 3-5.1h8.1c-3.3 2.9-2.3 6.4-1.9 10 2.6 24.8 9.5 48.8 12.8 73.5.4 3.3.8 6.6 1.4 9.9.5 3-.3 4.8-3.5 5.1h-8z"/><path d="M227.5 205.2c4.8-1.6 2.4-5.4 2-7.9-2.9-20.6-7.1-41-11.2-61.3-1.6-7.9-2-16-3.4-24-.6-3.2 1-4.6 3.7-5.2h12.6c.2.4.2.7-.1 1-.5.3-1.1.5-1.7.6-1.2.1-2.4.1-3.6.2-1.6.3-1.8 1.4-1.7 2.7.2 1.8.5 3.7.9 5.5 5.4 26.3 8.6 53 12.3 79.6.2 1.2.2 2.5.3 3.7.2 4.4-.1 4.8-4.5 5.3-.6.2-1.2.3-1.8-.2h-3.8z" style="fill:#e6f6fc"/><path class="st145" d="M311.9 100.1c1.3 1.8 2.6 3.6 3 5.8.7 2.5-1.3 1.9-2.4 1.9-4.7.2-9.4-.1-14-.1-5.9.1-11.8-.1-17.7.1-9.9-.2-19.9 0-29.8-.1-1.7 0-3.5.4-4.9-1-.1-2.2 0-4.4.7-6.6h65.1z"/><path d="M246 106.7h34.8c3.5.8 7 .1 10.4.4 4.5 3.3 9.5 5.4 14.8 6.9 2.4.7 4.8 1.1 7.1 1.7 1.8.5 3 0 4.3-1.1 1.5.9 1.2 2.5 1.3 3.9-.1 1.9.3 3.9-.6 5.6-.3.4-.6.5-1.1.4-1.1-2-2.8-2.7-5.1-3-7.7-.8-15.3-2.2-22.7-4.6-4.5-1.5-8.8-3.1-11.6-7.3-.8-1.2-2-1.3-3.2-1.4-2.5-.1-4.9 0-7.4 0-5 .1-10 .1-15 0-2.2 0-4.4.2-6.3 1.3-1.3-.2-1.1-1.1-1.1-2 .1-.4.3-.8.6-1.1.3.3.6.3.8.3z" style="fill:#c8ecf9"/><path class="st147" d="M245.3 106.7v.7c-4.7 1.8-9.4 1.9-14.1 0v-.7h14.1z"/><path d="M175.7 360.1c1.7-.9 3.1-2.1 5-2.4 1.1 1.6 2.7 2 4.5 2.3 3.2.6 6.4 1.4 9.6 2.4 2.1.6 4.2 1.3 5.3 3.6.1 4 1.2 8-.8 11.8-2.2 1.2-4.6 1-6.8.5-2.2-.6-4.4-.5-6.6-.4-2.3.1-4.1.6-2.2 3.5 1.5 2.2-.2 3-1.9 2.9-2-.1-4.5-1.6-5.8-.1-1 1.2-.3 3.8-.4 5.7 0 .4-.4.8-.7 1.3v-29.6c0-.2.1-.4.1-.7.3-.3.5-.6.7-.8z" style="fill:#5bb4df"/><path d="M199.3 377.7v-12.6c-1.8-4.3-1.5-8.6-.3-13 .4-.4.8-.5 1.2-.2 1.7 3.6.7 7.4.9 11.1.1 7.1.1 14.2 0 21.3-.3 3.3 1 6.7-1.1 9.8-1.2-1.1-.5-2.5-.7-3.7v-12.7z" style="fill:#7fd0ec"/><path class="st138" d="M231.2 205.2h1.5c1.8-.6 3.8-.3 5.6-1 2.1.1 4.2-.2 6.3.1.4.1.8.2 1.2.5.1.2.3.3.4.5-.1.2-.1.4-.2.6-4.9 0-9.9 0-14.8.1v-.8z"/><path d="M203.1 208.1c0-.2 0-.4.1-.6 1.1-.8 2.4-.4 3.6-.4h38c.5 0 .9.1 1.3.3.6.8.6 1.7 0 2.5-3.9 1.6-8.2 1.2-12.3 1.4-9 .4-17.8 1.4-26.3 4.3-1.4-2.5-2.9-5-4.4-7.5z" style="fill:#547ff2"/><path d="M207.5 215.6c.7-1.5 2.2-1.8 3.6-2.3 5.3-1.7 10.8-2.3 16.3-2.8 6.2-.6 12.4-.6 18.6-.8.5.5.5 1.1.2 1.7-1.6 1.9-4 1.9-6.1 2.1-4.9.3-9.7 1.7-14.6 1.9-5.2.2-9.1 3.4-13.5 5.5-1.9-1.1-3-3-4.4-4.5-.1-.4-.1-.6-.1-.8z" style="fill:#5683f2"/><path class="st152" d="m202.3 402.2-1.5-3c0-.3 0-.5.1-.8 0-3 2-4.9 3.8-6.8 1.9-2.2 4.1-4.3 5.5-6.8 1.7-3 3.9-3.7 7-2.9 1.6.4 3.8-.7 4.5 1.8-1.3 0-1.4 1.1-1.8 2-3 6.9-7.5 12.1-14.7 14.8-1.1.3-2 1.1-2.9 1.7z"/><path d="M215.7 404.3h-8.1c.2-.3.4-.8.7-.8 9.2-1.3 12.6-9.5 18-15.1 1.9-1.9 3.5-3.7 6.5-3.2 1.7-1.3 3.4-1.3 5.1 0-.5 2.4-3 2.8-4.2 4.5-2.7 3.7-5.5 7.5-9.1 10.5-2.8 2-5.7 3.3-8.9 4.1z" style="fill:#75cbef"/><path d="M237.9 385.9c-1.6-1.4-3.5-.5-5.2-.7-3.6-1.1-7.3-1.5-11.1-1.5-1.6-1.4-3.5-.5-5.2-.7-.7-2.4 1.2-2.3 2.5-2.4 2.7-.3 5.4-.3 8 .3 4.9 1.1 10 .2 14.9 1h.7c1.2 0 1.5-2.6 2.9-1.3 1.3 1.2.8 3.2.6 4.9 0 .4-.2.7-.4 1-.5.7-1.3 1-2.2.9-1.5-.3-3.1-.3-4.7-.7-.3-.3-.6-.5-.8-.8z" style="fill:#86d7ef"/><path class="st119" d="M245.4 99.2c1-1.1 2.3-.6 3.5-.6h59.6c1.2 0 2.5-.4 3.5.7-22.3 0-44.5 0-66.6-.1z"/><path d="M238.6 243.7c.4-1.4 1.4-1.5 2.7-1.5 3.1.1 6.2.1 9.4-.6 1.2-.3 1.9-.9 2.7-1.6.8.2 1.2.8 1.5 1.5.6 1.7 1.4 3.3 1.3 5.2-.1.4-.2.7-.4 1-.8 1-1.9 1.3-3.1 1.7-.9.2-1.7-.1-2.5-.2.6.2 1.3.4.7 1.3 0 .1-.2.1-.3 0-.1 0-.2-.1-.3-.1-4.1-1.8-7.9-4.3-11.7-6.7z" style="fill:#78c3f2"/><path d="M250.3 250.5c.5-.4-.5-1.8 1.2-1.7 1.3 0 2.7-.9 4.1-1.3 1.9.8 1.8 2.7 2.4 4.2.3 1.8 1.3 3.5 1.1 5.4-.6 1.9-.8 3.9-1.7 5.8-.3.3-.6.4-1 .2-.1-2-.1-4-.2-6 .3-4.3-3.9-4.5-5.9-6.6z" style="fill:#7fc7f2"/><path d="M246.1 206.8c21.1 0 42.2-.1 63.3-.1 1.6 0 3.2-.1 4.8-.1v.2c.2.1.3.3.2.4l-.2.2h-.1c-1.3.8-2.7 1-4.3 1h-59.9c-1.4 0-2.7 0-3.8-1-.2-.2-.3-.3-.2-.5 0-.1.1-.1.2-.1z" style="fill:#0533e4"/><path class="st158" d="M246 205.9v-.7c1.4-1.4 3.2-1.2 4.9-1.2 19.4 0 38.8-.1 58.3 0 1.8 0 4-.7 5 1.9l.1.1c-20.4 0-40.8-.1-61.2-.1H246z"/><path d="M246.1 206.8c0 .2-.1.4-.1.6-14.3 0-28.6.1-42.8.1l-.1-.1c-.2-.1-.3-.2-.2-.4.1-.1.1-.2.2-.2h43z" style="fill:#326af1"/><path d="M203 206.8c0 .2.1.4 0 .6h-17.5c-1 0-2.2.4-3.1-.6H203z" style="fill:#002be3"/><path d="m312.8 406-.9 1.2v-.1c-.4-.2-.9-.4-1.3-.4-19.7-.1-39.4 0-59.2-.1-1.6 0-3.2.4-4.6-.7v-.7h62.3c1.2 0 2.7-.5 3.7.8z" style="fill:#e9fbfe"/><path class="st145" d="M246.8 405.9h61c1.4 0 3-.6 4.2.7-.8.5-1.7.3-2.5.3h-60.1c-.8 0-1.7.2-2.5-.4-.6-.1-.6-.4-.1-.6z"/><path d="M246.8 406.6h65.1v.5c-4.7.1-9.4.2-14 .2h-51.1v-.7z" style="fill:#eafcfe"/><path class="st163" d="M314 404.6c-16.5-.1-33-.1-49.5-.2-3 0-5.9-.1-8.9-.1.4-2 2.2-1.8 3.6-2.3 1.4-.1 2.7-.6 4-.8.8-.1 1.7-.1 2.5-.1 9.6-.1 19.1-.1 28.7-.1 3.8 0 7.6-.6 11.3-1.3 2.8-.5 5.4-1.5 7.6-3.5.9-.8 1.9-1.6 3.3-1.2 2 1.5 1 3.3.5 5.1-.8 1.5-1.2 3.3-3 4.1 0 .1 0 .3-.1.4z"/><path d="M237.9 385.9h.7c1.2 1.5.3 2.8-.4 4-2.7 4.7-6.4 8.6-10.5 12.2-1.8 1.6-4.2 1.1-6.1 2.2h-5.9c.4-2.3 2.5-1 3.6-1.8 3.7-2.5 7.3-5 9.9-8.7 1.7-2.4 3.6-4.6 5.4-7 .8-1.2 2.1-.9 3.3-.9z" style="fill:#6fc8ef"/><path d="M243.1 386.6h2.2c.1.2.3.3.4.5.9 2.6.7 5.3.2 7.9-3.9 4.7-9.1 7.3-14.7 9.3H226c-.8-1.1 0-1.6.8-1.8 7.4-2.4 11.5-8.1 14.8-14.6.3-.7.4-1.6 1.5-1.3z" style="fill:#65c3f0"/><path d="M243.1 386.6c-3.4 7.5-7.4 14.4-16.3 16.5-.3.1-.5.8-.7 1.2h-4.4c.1-.6.4-1.1 1.1-1.3 8.4-2.5 12.4-9.2 15.9-16.4.1-.2 0-.5 0-.7 1.4.2 3.1-.6 4.4.7z" style="fill:#6bc6f0"/><path d="M259.3 402.9c-1.3.3-2.6.5-3.7 1.4h-8.9c-.2-.4-.1-.7.1-1 7-.9 11.8-5.5 16.8-9.7.5-.4.9-.9 1.4-1.2.9-.7 1.9-1.1 3.1-.9-.3-.5-1.9.2-1.3-1.3.1-.3.5-.5.9-.6 1.7-.3 3.4-.6 4.9.7 0 .3.5 1-.5.8 3.8 1.4.8 2.3-.3 3.1-3.9 3.2-8.1 6-12.5 8.7z" style="fill:#3068e2"/><path d="M231.2 404.3c.3-2.2 2.5-1.7 3.7-2.3 3.7-1.8 6.7-4.7 10.3-6.5.4-.3.7-.2 1 .1.7 1.1.6 2.2.3 3.3-2.2 2.8-5.5 4-8.7 5.3-2.1.1-4.4.1-6.6.1z" style="fill:#5fc0f0"/><path d="M246 399.2v-3.7c-.7-2.7-.2-5.4-.3-8 0-.4.1-.8.4-1.1 2.3-.4 4.6-.4 6.7 1.1 0 3.1-1.6 5.5-3.5 7.8-.9 1.1-1.6 2.1-1.5 3.6v2.8c0 .8-.4 1.5-.9 2.1v.6h-.7c-1.6-1.8-1.2-3.5-.2-5.2z" style="fill:#4182e1"/><path class="st170" d="M246 399.2c0 1.7 0 3.4.1 5.1H238c2.2-2.3 5.2-3.5 8-5.1z"/><path d="M245.3 386.6v-5.9c-.5 2.9-1.8 3.4-4.3 2-3-1.7-6.1.6-9.3-.2-3.9-.9-8.2-1.5-12.4-1-1.2.1-2.6-.3-2.9 1.5-2.4-1-3.7-.5-5.2 2-2.2 3.6-5.2 6.7-7.9 10-.9 1.1-1.6 2.4-2.4 3.6-.9-1.4-.8-2.9-.8-4.4v-9.7c.5-1.3.4-3 2.5-3.1 6.2-.2 12-2.6 18-3.6 6.8.1 13.6-1.3 20.4-.5 2.2.3 2.4-2.3 4.1-2.6 1.6 1.7 1.1 3.9 1.8 5.9.1.8.2 1.7.1 2.5 0 1.3-.1 2.6-1 3.6-.2.3-.5.2-.7-.1z" style="fill:#83d4ef"/><path class="st172" d="M254.2 241.5c-.3-.5-.5-1-.8-1.5-.2-1.2-.5-2.5-.7-3.7.3-.7.2-1.6 1.2-1.8 6.4-.1 12.9-.8 19.2 1.4 3.2 1.2 6 2.6 7.4 6-.3 2.4-1.9 3.3-4.1 3.6-6.9-4.3-14-7-22.2-4z"/><path d="M253.4 234.8c0 .6-.1 1.1-.7 1.5-.3-.5-.5-1-.8-1.5 0-.2 0-.5-.1-.7.2-1.3-1.1-1.9-1.3-3 .7-1.1 1.5-1.7 2.9-1.9 8.1-1 16.2-.9 24.1 1.1 3.6.9 6.8 2.8 8.8 6.2.1.4.1.8 0 1.2-.7 1.4-1.8 2.2-3.4 2.1-.2 0-.5-.1-.7-.2-3.6-3.8-8.3-4.8-13.2-5.6-5.3-1-10.4-.5-15.6.8z" style="fill:#4978e5"/><path d="M286 237.1c-3-3.3-6.2-5.9-11.1-6.1-4.3-.1-8.4-2.5-12.9-1.4-3.7.9-7.7.1-11.4 1.5 0-.5-.1-1-.1-1.5-.2-.4-.3-.8-.2-1.2.8-1.8 2.4-1.9 4-2 8.2-.9 16.4-.7 24.5.9 4.3.9 8.2 2.7 10.4 6.8-.2 1.9-1.1 3-3.2 3z" style="fill:#4774e5"/><path d="M250.5 228.9c0 .3 0 .5-.1.8-.9.7-.8 2.4-2.6 2.2-5.1-.3-9.3 2.6-14 3.7-1.7.4-2.8 1.8-4.2 2.9.2-1.3-1.1-1.9-1.5-2.9-.1-2.5 2.1-2.7 3.7-3.3 5.8-2.1 11.8-3.9 17.8-5.2 1.1.3 1.4.8.9 1.8z" style="fill:#6aaff2"/><path d="M211.9 220.8c4-4.8 9.5-6 15.3-6.8 6.3-.9 12.7-1 18.8-2.9.6.1 1 .5 1.2 1 .2.6.2 1.1.2 1.7-.1.6-.4 1.1-.9 1.4-5.5 1.7-11.3 1.7-17 3-4.1.9-8.2 1.6-11.5 4.4-.9.7-1.9 1-3.1 1-1.3-.6-2.2-1.6-3-2.8z" style="fill:#5989f2"/><path d="M214.9 223.7c7.1-6.5 16.2-6.6 24.9-8.1 2.3-.4 4.6-.5 6.9-.8.4.5.5 1.1.4 1.7-.5 1.3-1.5 2-2.8 2.1-4 .2-7.7 1.9-11.6 2.5-5.2.8-10.1 2-14.2 5.6-1.3-.6-1.9-2.2-3.6-2.3.1-.2.1-.5 0-.7z" style="fill:#5c90f2"/><path d="M218.6 226.7c2-4.5 6.4-5.2 10.4-5.8 5.3-.8 10.3-3.2 15.8-3.1 1 0 1.3-1 2-1.4.5.3.7.8.9 1.4.2.7.3 1.5 0 2.2-.8 1.6-2.3 1.6-3.7 1.9-8.1 1.7-16.4 2.8-23.8 7v.1c-1-.5-1.6-1.2-1.6-2.3z" style="fill:#5f96f2"/><path d="M220.1 228.8c1.3-2.8 4.2-3.4 6.5-4.1 5.9-1.6 11.9-3.4 18.1-3.9 1.3-.1 1.9-.9 2.8-1.5.8.3 1.2.9 1.3 1.8 0 .6-.1 1.2-.5 1.7-.6.7-1.3 1.2-2.2 1.3-8.1 1.6-15.9 4.3-23.8 6.3-.7-.6-1.5-1.1-2.2-1.6z" style="fill:#629df2"/><path d="M222.3 230.3c5.3-3.4 11.6-4.1 17.5-5.8 2.8-.8 5.8-.9 8.4-2.3.4-.2.7-.2 1 .2.4.8.4 1.5.1 2.3-.5 1.1-1.4 1.7-2.5 2.1-7.1 2.4-14.4 4.2-21.7 5.8h-.7c-.6-.8-1.3-1.5-2.1-2.3z" style="fill:#65a3f2"/><path d="M225.3 232.6c5-3.2 11.1-3.3 16.5-5.2 2.4-.9 5.2-1 7.2-2.9.8.2 1.1.8 1.3 1.5 0 .6-.1 1-.5 1.4-2.5 2.3-5.9 1.6-8.8 2.9-4.2 1.9-9.2 1.8-12.7 5.2-1.3-.7-2.3-1.7-3-2.9z" style="fill:#68aaf2"/><path d="M314.1 205.9c-1.1-1.2-2.6-.7-3.8-.7h-64.2c-1.5-1.7-.6-4-1.4-5.9-.1-.4-.2-.9-.2-1.3-.1-12.7-.3-25.5.1-38.2 1-4.3.7-8.6.2-12.9-.2-.9-.2-1.7 0-2.6 1.4-2.6.4-5.3.4-8 0-1.3-.2-3.3 1.2-3.5 1.9-.3 2 1.8 2.3 3.2 3.1 14.6 5.6 29.3 7.4 44.5.8-3 .8-5.7.9-8.3.1-4 .6-4.7 4.7-5.3 6.6-1 13.2-1.3 19.9-1.9 9.5-.8 18.9-1 28.4-.8 6.1.1 7.5 1.6 7.6 7.8 0 2-.2 4 .5 5.9.6 4.1 0 8.1.4 12.2 0 .4-.1.9-.3 1.2-.8 5-1.4 10.1-4.1 14.6z" style="fill:#c2eaf8"/><path d="M340.8 142.3c-1.6-2.5-.5-5.2-.7-7.9-.2-3.2-4-7.4-7.1-6.8-3.1.6-5.4-.5-8-1.4-4.5-1.5-4.8-1.3-5 3.3 0 1.1.3 2.2-.7 3.1-1.7-2-1-4.5-.9-6.7.1-2.2.2-4.4.1-6.6-.1-.4-.2-.8-.3-1.3.5-2 2.1-1.3 3.3-1.2 4.8.5 9.4 1.8 14.1 2.7 4.7.8 5.7 4.5 5.8 8.5.2 4.8 1.5 9.6-.6 14.3z" style="fill:#7492b6"/><path d="M318.6 118.6c1.6 4.6.3 9.4.7 14.1v57.4c0 .4 0 .7-.2 1.1 0 .1-.4 0-.6.1-.7-1.1-.7-2.3-.7-3.6-.5-19.7-.3-39.4-.3-59.2.1-3.4.7-6.7 1.1-9.9z" style="fill:#6989b2"/><path d="M318.6 118.6v72.5c-.2 0-.4 0-.6.1-.1-.3-.1-.6-.2-.8-.4-8.8-.7-17.7-.9-26.5-.2-11.5-.1-22.9 0-34.4 0-1.7-.3-3.5 1-5 .1-2 .1-4 .2-6 .1-.3.3-.2.5.1z" style="fill:#91b4cf"/><path d="M340.8 142.3v-14.8c-.7-2-.2-4-.5-6-.1-.7.2-1.8 1.5-1.2 1.2 14.8 1.6 29.7.7 44.5-.5 8.3.2 16.6-1 24.9-1.2-1.5-.6-3.3-.6-5-.1-7 0-14 0-20.9-.1-7.2-.1-14.4-.1-21.5z" style="fill:#6a89b1"/><path d="M314.1 207.4v-.6h22.2c0 .2 0 .4-.1.7-7.3-.1-14.7-.1-22.1-.1z" style="fill:#1f3aab"/><path d="M314.1 288.1c1 1.5 2 3 3 4.4 2.8 4 4.2 8.7 5.8 13.3.4 1.9 1 3.8 1.6 5.6 2 5.9 1.1 7.6-5 9.7-.4.1-.8.1-1.2 0-.4-.1-.7-.3-.9-.6-1.3-3.4-1.4-7-2.6-10.4-1.8-6.8-4.8-12.8-9.9-17.8-1-.9-1.8-2-2.5-3.1-.8-2.9 1-2.6 2.6-2 3 1.3 6 2.1 9.1.9z" style="fill:#7793b7"/><path d="M314.1 288.1c-3.1 3.7-6.3 1-9.3-.1-1.4-.5-2.4-1.3-1.9 1.1-.4.3-.9.3-1.4.1-.3-.1-.6-.3-.8-.5-1.3-1.2-2.5-2.5-4.2-3.2-6.1-6.1-13-11.2-19.4-16.9-1.6-1.5-4-2.4-4.3-5 5.4 1.2 9.4 5 14.2 7.3 4.7 2.3 8.7 5.9 13.8 7.5 1.9 2.1 4.5 3.1 6.9 4.5 2.4 1.5 4.9 2.7 6.4 5.2z" style="fill:#7693b6"/><path d="M322.3 305.9c-2-4.3-3.8-8.7-5.2-13.3 5.2 4 7.2 10.2 9.6 15.8 4 9.3 7.3 18.9 9.7 28.8.3 1.2.8 2.3 0 3.5-2.6 1.4-4.7.5-6.7-1.3 1-2.6.9-5.2.1-7.8-2.5-8.5-4.2-17.3-7.5-25.7z" style="fill:#7d95b8"/><path d="M329.7 339.2c2.1.9 4.3 1.5 6.6 1.5.8.9 1.9.6 2.9.7.5.3 1 .5 1.5.8.6 3.6-.9 4.7-4.4 4.5-5.4-.3-10.3-1.9-15.3-3.8-1.8-.7-1.7-2.1-2.5-3.6v5.1c.5 1.6.4 3.3 1 4.9 0 1.7.1 3.4 0 5-.1.6-.2 1.2-.7 1.8-.3.3-.7.4-1.2.2-.4-.5-.7-1.1-.8-1.7-.1-1.4-.1-2.9-.1-4.3.1-1.2 0-2.4 0-3.6.1-1.2 0-2.4 0-3.6.1-.8 0-1.6 0-2.5 0-1.3 0-2.5.8-3.7.7-.6 1.5-.8 2.3-.8 3.5.8 7 .9 9.9 3.1z" style="fill:#3b71a9"/><path d="M246.8 217.8v-4.5c.1-2.5 1.7-3.1 3.9-3.3 5.9-.7 11.7-1.1 17.7-.2 1.8.3 3.7.2 5.5 0 10.4-.9 20.6.5 30.8 1.9 2 .3 5.3-.1 5 3.8-.9 1.3-1.5 2.9-3 3.7-4.5-.7-8.7-2.4-13.2-3-13.6-1.9-27.1-2.5-40.7-1.1-1.3.1-2.8 0-3.6 1.5-.5.9-1 2-2.4 1.2z" style="fill:#3b5be5"/><path d="M309.7 215.6c-.9-2.7-3.4-2.6-5.4-2.9-5.7-.6-11.5-.7-17-1.6-9-1.4-18 1-26.9-.7-3.7-.7-7.3 1-11 .7-1.8-.2-1.7 1.6-2.6 2.2v-1.4c-.5-2.1-1.2-4.1 2.4-4.1 21 .1 41.9 0 62.9 0 .5 0 1 .1 1.4.4-.9 2.7-2.1 5.1-3.8 7.4z" style="fill:#3956e5"/><path d="M248.2 216.3c0-1.2.2-2.1 1.8-2.2 10.4-.6 20.8-1.1 31.2-.2 6.4.5 12.6 1.3 18.9 2.5 2.4.4 4.8 1.1 6.6 2.9-1 1.8-2.6 2.9-4.4 3.7-.5 0-1-.1-1.5-.3-14.5-5.9-29.5-5.9-44.8-4.8-2.6.3-5.6 1.3-7.8-1.6z" style="fill:#3d60e5"/><path d="M248.2 216.3c2.8 1.3 5.8.9 8.7.6 13.4-1.2 26.7-.9 39.6 3.1 2 .6 4.4.9 5.7 3v.7c-.9 1.7-1.9 3.1-4.2 2.8-11.7-5.9-24.1-7.3-37-6.3-4.3.3-8.6.8-12.9.6-.3-.5-.5-1-.8-1.5-.2-.5-.5-1-.7-1.5 1.2 0 1.6-.6 1.6-1.5z" style="fill:#3f65e5"/><path d="M298.6 225.9c1.8.2 2-2.3 3.7-2.3 2.6 2 .3 3.5-.8 4.7-2 2.2-4.3 4.2-5.1 7.3l-8.1 5.1c-.4-1.3-2.8-1.1-2.3-3v-.7c1-.8 2-1.5 2.9-2.3.6-1.4 1.4-2.5 2.5-3.5 1-.8 2.1-1.4 3.1-2.2 1.4-.9 2.4-2.5 4.1-3.1z" style="fill:#3354ad"/><path d="M313.4 208.2c-20.9 0-41.8 0-62.7-.1-2.9 0-4.5.6-4 3.8-.2-.3-.5-.5-.7-.8v-3.7h68c-.2.3-.4.5-.6.8z" style="fill:#3e5ae5"/><path d="M341.4 189.6v-69.5c-.6-.8-.6-1.6.1-2.3 1.6 3.3.1 6.8.9 10.2 1.3-.6-.1-2.1.9-2.7 2.3 4.7 2.3 9.6 1.2 14.6-.2 1.1-.1 2.2-.1 3.3.5 9.8-1 19.6-.8 29.5-1.3-.8-.2-2.2-1.4-3.4V188c0 1.3.5 2.7-.7 3.9 0-.8 0-1.5-.1-2.3z" style="fill:#c4e7f6"/><path d="M341.6 117.8c0 .8-.1 1.5-.1 2.3-1.4 2.3-.4 4.9-.7 7.4-.6-5.9-4.4-7.3-9.7-7.7-3.7-.3-7.3-1.7-11.1-2.1-.9-.1-1.4-.1-1.5.9-.2 0-.4 0-.6-.1-.3-1.2.3-2.6-.8-3.7-1.1-1.2-1-2.4-.1-3.6 1.4-1.6 1.7.8 2.9.8 4.9.2 9.4 3.2 14.6 2.2 1.2-.2 3 .6 4 1.5 1.8 1.5 1.4-.8 2.2-1 .3 1.1.6 2.1.9 3.1z" style="fill:#7893b7"/><path d="M272.8 263.7c6.6 5.7 13.2 11.4 19.9 17 1.6 1.4 3.2 2.7 4.4 4.4 1.7 1 2.7 2.8 4.5 3.7 1.8 2.3-.3 2.2-1.5 2.2-2.3 0-4.7-.2-7-.2-8.9-.2-17.8.2-26.6 1.7-1.1-1.7-.7-3.5-.8-5.3-.3-5.8.5-11.7-.5-17.5 0-3.7-1.2-7.5.8-11.1 2.3 1.6 4.5 3.3 6.8 5.1z" style="fill:#cbedf9"/><path d="M257.2 251.8c-.5-1.5-1-2.9-1.5-4.4 0-.3 0-.5.1-.8.2-2.4 1.6-3.3 3.9-3.2 4.6.3 8.7 2.1 12.8 4.1 1.2 2.2-1 2.5-2 3.5-1.2 1.4-3.5 1.2-4.5 3-2.1-.2-4-1.3-5.6-2.4-1.5-1-2.2 0-3.2.2z" style="fill:#528ce5"/><path d="M257.2 251.8c.7-1 1.2-2.4 2.9-1.1 1.8 1.3 4.5 1.3 5.9 3.4-.1 1.3-1 2.4-.6 3.8.2.3.2.6 0 .9-.2.6-.4 1.3-1.1 1.6-.3.1-.7.1-1 0-1.7-.9-4.3-.6-4.7-3.3-.5-1.8-1-3.6-1.4-5.3z" style="fill:#5593e5"/><path d="M270.4 251.1c.8-1 1.6-1.9 2.3-2.9.9-1.3 2-2.5 3.6-3 1.2-1 2.8-1.5 3.7-3 .6-1.4 1.5-2.5 3-2.9 1.2 0 1.9-1.1 2.9-1.6.8 1 1.5 2 2.3 3-5.7 3.7-11.6 7.3-17.8 10.4z" style="fill:#365bad"/><path d="M265.2 258.5c.1-.2.1-.5.1-.7l.6.6v11.2c.1.3.3.6.3 1-.2 16.9 1 33.8.9 50.8 0 .6-.1 1.2-.2 1.8-.8 1.2-1.5.7-2.2-.1-.9-2-.4-4-.6-6.1v-44.8c-.1-.9-.1-1.8 0-2.7.1-2 0-4 .1-6-.1-1.6.4-3.3 1-5z" style="fill:#c5e6f8"/><path d="M291.9 107.5c-3.7-.4-7.5.9-11.1-.7 11 .1 22 .1 33 .2.9 0 1-.4 1.1-1 .2.1.4.2.6.2l.9 4.8c.9 2.3-.2 3-2.3 2.6-2.8-.5-5.6-1.2-7.9-2.8-2.9-1.9-6-2.6-9.4-2.3-1.7.1-3.4 0-4.9-1z" style="fill:#d3effa"/><path class="st141" d="M291.9 107.5c6.1-.4 12.1-.2 17.5 3.6 1.4 1 3.5 1 5.2 1.6 1.8.6 1.8-.6 1.8-1.7l.6.3c0 1.2 0 2.4.1 3.6-.3.9.9 2.7-1.5 2.3-7.1-1.2-14-3.2-20.4-6.4-1.5-.7-2.8-1.7-3.3-3.3z"/><path d="M326.7 382.2c.2 2.5 1.6 4.9 0 7.4-1.1 3.7-4.1 5.3-8.8 4.8-.4-.2-.6-.6-.8-1-.5-1.7-.4-3.4-.4-5.1-.1-4.9 0-9.7 0-14.5-.1-1.3 0-2.5.1-3.8.1-.6.2-1.2.6-1.7 2.8-.7 2.4 2.2 3.8 3.1 2.1 3.6 4.8 6.6 5.5 10.8z" style="fill:#3e76aa"/><path d="M326.7 382.2c-2-3.5-3.9-6.9-5.9-10.4 1-1.9 1.9-.2 2.7.2 4.2 2.4 8.4 5.1 12.4 7.9 2.1 1.4 3.8 2.1 5.7.1-.4 4.9.9 10-.7 14.8-4.1-5-8.8-9.1-14.2-12.6z" style="fill:#2d51ab"/><path d="m314.2 404.2 2.1-3.6c2.1-.7 4.3-.9 6.3-1.8 3.7-1.7 4.3-2.7 4-6.7-.1-.6-.2-1.3.8-1.1 4.6 3.2 5.9 8.1 6.7 13.2-6.6.1-13.2 0-19.9 0z" style="fill:#2b47ac"/><path d="M327.5 391.1c1.6 6.3-3.4 10.7-11.1 9.6.3-1.7.5-3.4.8-5.1 0-.6.2-1 .7-1.4 3.6-.4 6.9-1.2 8.9-4.6.5.3.6.9.7 1.5z" style="fill:#2846ac"/><path d="M319.3 347.4c2.9-.5 5.1 1.5 7.6 2.5 3.3 1.3 6.8 2 10.2 3 3.3.9 4-.2 3.7-3.1-.1-.8-.1-1.7.7-2.4.5 2 .5 4.2 1 6.2 0 1.1 0 2.1-.3 3.1-.3.8-.7 1.5-1.3 2-2.4 1.1-4.6-.1-6.7-1-5-2-9.9-4.3-14.9-6.5-.4-.5-.3-1.1-.3-1.7 0-.6-.3-1.4.3-2.1z" style="fill:#3665aa"/><path class="st211" d="M341.6 354c0-2.2-.1-4.4-.1-6.7 0-.5.1-1 .1-1.4 1.3 1.6.4 3.4.7 5.1.8.8.8 1.7.4 2.7-.3.5-.7.5-1.1.3z"/><path class="st212" d="M319.3 347.4v2.2c-.2.3-.5.3-.7 0v-5.2c1.1.8.6 2 .7 3z"/><path d="M317 408.9c-.5-.2-.9-.5-1.4-.7 5.9.1 11.9.1 17.8.2v.5c-5.4-.1-10.9-.1-16.4 0z" style="fill:#243fad"/><path d="M341.5 380c-1.3.8-.3 2.4-1.5 3.6-5.9-3.8-11.8-7.6-17.8-11.4-.5-.3-.8-1.1-1.5-.3-1.7-.7-1.6-2.7-2.8-3.7-.3-.2-.5-.5-.6-.9v-1.1c.4-1.5-.1-3.2.9-4.6 1.9-.6 1.7 1.4 2.5 2 5.7 4.3 11.7 8.1 18.2 11 .8.4 1.7-.2 2.5.2 0 1.2.1 2.5.1 3.7.1.5.1 1 0 1.5z" style="fill:#2f55ac"/><path d="M341.5 374.8c-.9 1-1.6 1.5-3.1.7-6.1-3.1-11.8-6.8-17.6-10.5-1.5-1-1.1-2.6-2.3-3.6-1.4-1.7-1.3-3.5 0-5.2v-1.5c.4-.1.7-.1 1 .2.6 2.5 2.2 3.9 4.4 5.1 3.9 2.1 7.6 4.6 11.6 6.5 2.4 1.1 4.2 1.5 5.9-.7.2.2.3.4.3.6 0 .2 0 .3-.1.3 0 2.7 0 5.4-.1 8.1z" style="fill:#3059aa"/><path d="M341.6 366.7c0-.3-.1-.5-.1-.8-1.9-3-1-5.9 0-8.9 0-1 .1-2 .1-3h.6c1 .9.9 2.2 1 3.4 0 1.8.2 3.6-.7 5.2 2.4-1.3 3.8-.4 4.5 2.2v7c-.1.7-.5 1.2-1.2.7-1.1-.8-2.4-.9-3.6-1.4-.2-1.5.6-3.1-.6-4.4z" style="fill:#4782de"/><path d="M342.3 371.1c2.1-1.3 3.5-.7 4.4 1.5.6 2 .6 4 0 5.9-4.9-.5-4.8-3.9-4.4-7.4z" style="fill:#4479e0"/><path d="M346.7 378.5v-14c-.4-.4-.4-.9-.2-1.4.3-.2.6-.3.9 0 0 5.2.1 10.3.1 15.5-.3-.1-.5-.1-.8-.1z" style="fill:#3978de"/><path d="M342.3 357.7V351c1.2-1.8 2.7-1.8 4.4-.7v1.5c.7 1.2.2 2.6.3 3.9-1.2 1.4-3.2 1.3-4.7 2z" style="fill:#4f96dd"/><path d="M346.7 356.3v-4.4c1.6 3.6.4 7.4.7 11.1h-.7c-1.5-2.3-1.6-4.5 0-6.7z" style="fill:#3a87db"/><path d="M339.3 428.1v.6c-20.3 0-40.6.1-60.9.1-12.8 0-25.6.1-38.4.1-.3-.1-.5-.2-.8-.3-.2-.3-.3-.7-.2-1.1.2-.4.5-.6 1-.6.9-.1 1.7.1 2.5.1h91c2 .1 4.1-.4 5.8 1.1z" style="fill:#6774a1"/><path class="st124" d="M240.2 80.9c32.3 0 64.6 0 96.9-.1-.2.3-.5.5-.7.8h-91.5c-1.6 0-3.2-.1-4.8-.1 0-.3 0-.5.1-.6z"/><path class="st222" d="M239.2 428.1v.6h-59.8v-.6c1.4-1.3 3.2-1.1 4.9-1.1h50c1.8-.1 3.5-.3 4.9 1.1z"/><path class="st39" d="M244.5 419.1c25.2 0 50.3 0 75.5.1 5.7 0 11.4 0 17.1.1-.1 1.7 1.7 2.3 2.2 3.7-1.7 1.4-3.7 1-5.7 1-30.7.1-61.5 0-92.2.1H240l-.6-.3v-.7c.1-1.4.8-2.5 1.5-3.7 1.2-.2 2.4-.3 3.6-.3z"/><path d="M239.2 428.1h-59.8l-.1.1c-.4-.5-.4-1 0-1.5 0-.7 0-1.5.1-2.2.2 0 .4-.1.6-.1.2-.1.5-.3.7-.3 19.5 0 38.9-.2 58.4.1 1.2 1 1.2 2.1.4 3.3 0 .2-.1.4-.3.6z" style="fill:#c8cedf"/><path d="M179.3 426.6v1.5c-11.8 0-23.6-.1-35.4-.1 1.1-1.1 2.6-.6 3.9-.6h27.3c1.4-.1 2.9.1 4.2-.8z" style="fill:#96a1c4"/><path class="st225" d="M143.2 424.5c11.8 0 23.6-.1 35.4-.1-.6.8-1.5.7-2.4.7h-31c-.7 0-1.4.1-2-.6z"/><path class="st222" d="M239.3 424.4h-59.2c.1-.2.1-.3.1-.5 19.7-.1 39.5-.1 59.2-.2l-.1.1.3.3-.3.3z"/><path d="M239.5 427.5c-.1-1-.2-2.1-.2-3.1h.2c.6-.4 1.3-.6 2.1-.4 30.7.3 61.4 0 92.1.1 1.9 0 4-.4 5.7 1v2.2c-1.3.7-2.7.3-4 .3h-90.5c-1.3 0-2.7-.3-4 .3-.5 0-.9-.2-1.4-.4z" style="fill:#919dc0"/><path d="M240.8 424.4h-1.3c-.1-.2-.2-.4-.2-.6.3-.1.6-.1.8-.2.9-.4 1.9-.3 2.9-.3h93.4c1 0 2-.2 2.9.3l-.1.2v.7c-.9.5-1.9.3-2.9.3h-92.6c-.9-.1-1.9.2-2.9-.4z" style="fill:#7e89b1"/><path d="M240.9 428c1.2-1.2 2.8-.7 4.2-.7h94.2v.7h-98.4z" style="fill:#95a1c4"/><path class="st225" d="M240.8 424.4h98.4c.1.2.1.5 0 .7H245c-1.4 0-2.9.6-4.2-.7z"/><path class="st115" d="M339.3 423.6h-99.2c1.3-1.2 2.8-.6 4.2-.6h94.9c.1.1.1.4.1.6z"/><path d="M246 408.8h65.9c-1 1.1-2.3.7-3.5.7h-59c-1.1.1-2.4.5-3.4-.7z" style="fill:#3c55e6"/><path class="st230" d="M199.4 352.1c0 4.4 0 8.7-.1 13.1-5.4-2.6-11.3-3.6-17.1-4.8-2-.4-2.1-1.2-1.5-2.7 3.1-2.5 7.2-2.6 10.6-4.3 2.1-1.8 4.7-1.8 7.3-2 .4.1.7.3.8.7z"/><path d="M200.1 351.9c-.3 0-.5 0-.7.1v-.3c-1.7-3.2-1.7-6.4 0-9.6 0-1 0-2 .1-3 1.3 1 .3 2.6 1 3.8 6.6-2.8 10-1.9 14.5 3.6.5.9 2.3 1.2 1.2 2.7-1.6 1.4-3.8 1-5.6 1.6-2.9.6-5.9 1.3-8.9 1.4-.6.2-1.1.1-1.6-.3z" style="fill:#4b77f2"/><path d="M199.4 342.2v9.6c-2.7.5-5.3 1.1-8 1.6-3.4-.5-3.4-2.1-1.4-4.3 2.7-3 5.6-5.5 9.4-6.9z" style="fill:#324fe5"/><path d="M216.4 348.8c-.2-.9-2.6-.4-1.5-2.2-.1-3.1 2.9-4.8 3.4-7.8.2-1.2.4-2.7 1-4 1.8 1.4 3.6 2.9 5.4 4.3-2.1 2.8-4.6 5.4-5.1 9.1-.3.5-.7.8-1.2 1.1-.7.2-1.5.2-2-.5z" style="fill:#4f7ff2"/><path d="M256.5 263c.2 0 .4-.1.6-.1 1.4 2.2-.2 4.6.5 6.8.1.5.7-.3.3 0-.1.1-.2 0-.2-.3-.1-.5-.1-1-.1-1.4.2-1-.6-2.4.7-2.9 1.3-.4 2.3.5 3 1.6 1.5 2.9-.6 6.1.6 9.1.1.3.1.7.1 1-.3 1-.9 1.7-1.4 2.6l-.9 1.8c-.3.7-.6 1.3-.9 1.9-1.3 2.9-.4 5.9-.6 8.8v12.4c0 1.4.2 2.9-1.1 4-1-1.7-.3-3.6-.7-5.3v-34.1c-.5-1.5-.4-3 0-4.4 0-.6 0-1 .1-1.5z" style="fill:#5ba0e5"/><path d="M256.3 264.4v4.4c-.8-.6-.6-1.4-.7-2.2.1-.7-.1-1.6.7-2.2z" style="fill:#bfe4f7"/><path d="M257.9 347.4c1.7-1 3.5-2 5.2-3 4.3 2.5 7.2 6.6 11.1 9.6 2.4 1.9 4.8 3.9 7.3 5.7.4.3 0-.1.3.2 1.3 1.4 3.5 2.7 2.2 4.8-1.3 2.1-3.5.7-5.3.3-3.7-.8-6.9-3.1-10.8-3-.9 0-1.8-.3-2.7-.6-2.3-1.2-4.5-2.6-6.9-3.6-1.2-.6-2.4-1.2-3.7-1.8-3.1-2-6.9-2.7-9.5-5.5-.1-.4-.1-.7.2-1v-1.4c3.2-.5 5.9 1.1 8.8 1.9 3.5 1 3.5 1 3.8-2.6z" style="fill:#65bce2"/><path d="M257.9 347.4c.4 1.3 2.2 2.6 1 4-1.1 1.2-2.8.2-4.1-.2-3.1-1-6.3-2-9.4-3v-11.9c1.7-2.6.1-5.5 1.3-9.1 2.1 5.5 6.7 8.9 7.6 14.4.3 2.5 2.2 4 3.6 5.8z" style="fill:#69bee5"/><path d="M229 341.5c4.4 2.5 8.9 4.9 13.3 7.4.1 1.9-1.3 2.4-2.6 2.3-5.5-.2-11-.8-16.5-1.9-.6-.1-1.1-.6-1.4-1.1-1.1-1.7.5-2.4 1.4-3.3 1.8-1.3 3.6-2.8 5.8-3.4z" style="fill:#74c6f0"/><path d="M221.6 347.4c2 1.9 4.5 1.3 6.9 1.6 3.2.4 6.5 1 9.7 1.4 1.5.2 3.3.5 4.1-1.4 1 .2 2 .5 2.9.7v.8c.7 1.1 1.1 2.3 1 3.7-.1 1.5.2 3-.8 4.3-6.3-4.2-13.9-4.2-20.8-6.5-2.2-.7-4.7-.9-6.2-3 .3-.2.5-.5.8-.7.8-.8 1.4-1.4 2.4-.9z" style="fill:#78caf0"/><path d="M221.6 347.4c-.7.2-1.5.5-2.2.7-.3-4.2 2-6.9 5.4-9 .6.3 1.3.6 1.9.9 0 2.2-2.2 3.2-2.9 5.1-.7.8-1.5 1.5-2.2 2.3z" style="fill:#5287f2"/><path d="M223.8 345.2c-.2-2.4 1.5-3.6 2.9-5.1.8.5 1.5.9 2.3 1.4-1.3 1.8-3.3 2.6-5.2 3.7z" style="fill:#5791f1"/><path d="M256.3 323.6c.2-1 0-2.1.7-3 1-1.6 0-3.4.7-5.1.3-.2.7-.2 1-.1.5.6.7 1.3.8 2-1.1 7.2 3.4 11.3 8.2 15.4 4.1 3.4 8.7 6.1 12.7 9.5 1.1 1.7 3.8 2.5 3.3 5.2-2.9.4-5-1.5-7.3-2.8-3.9-2.3-7.4-5.2-11.4-7.2-5.4-3.1-8.1-7.8-8.7-13.9z" style="fill:#60ade4"/><path d="M256.3 323.6c2.2 5 3.7 10.4 8.9 13.4 4.6 3.8 9.4 7.4 14.1 11 1 .8 2.3 1.4 2.6 3 0 .4-.2.7-.4 1-.8.3-1.5.1-2.1-.3-6.9-4.4-14.2-8.4-20.4-13.9-.5-.4-.8-1-1.2-1.4-1.9-3.7-3.1-7.7-3.7-11.9.6-.8 1.4-.8 2.2-.9z" style="fill:#63b4e4"/><path d="M257 308.3c0-5.7.1-11.5.1-17.2 1.8.1 1.4 1.6 1.7 2.7 1.1 4.3.6 8.7 1.4 13.1.6 3.5 1.5 6.7 4.3 9 .2.3.4.7.4 1.1-.1 1.2.2 2.4-.2 3.6-3 1.4-4.4-.6-5.2-2.8-.6-1.6-1.1-3.2-1.5-4.9-.3-1.2-.2-2.3.1-3.5.1-.3 0-.5.1-.8-.2.3-.1.7-.3 1-.3.2-.6.1-.9-.1.1-.3 0-.8 0-1.2z" style="fill:#5797e5"/><path d="M257.1 309.6h.8c.3 2 1.2 3.9 0 5.9v6.7c-1-.5-.6-1.2-.8-1.7v-10.9z" style="fill:#57a6e4"/><path d="M257.9 336.3c7.7 5.5 15.5 10.8 23.7 15.6 4.7 2.5 7.6 6.9 11 10.6.4.5.4 1.1-.2 1.6-3.3 1.1-5.9-.6-8.5-2.1-1-.6-1.9-1.4-3-2-6.8-4.2-12.6-9.5-17.8-15.6-.8-3.3-4.2-5-5.2-8.1z" style="fill:#63b8e3"/><path d="M245.3 144.5v2.2c.6 4.2.6 8.4 0 12.6v40c-2.4-.8-1.8-2.9-1.8-4.6-.3-8.5 1.2-16.9.8-25.4-.2-4.6 0-9.2 0-13-.2-1.3-.9-.6-.5-.8.2-.1.3 0 .3.2.4 9.3.1 18.6.1 28.3-3.1-1.1-3.2-3.7-3.4-5.8-.5-7-1.5-14-2.4-20.9-1.8-13.4-2.9-27-7.2-40-1-3.1-2.2-6.3-1.4-9.7h15.6v2.2c.8.7 1.1 1.7 1.1 2.7-.1 6.8.8 13.7-.6 20.5-.7 3.3.5 6.6-.1 9.9-.2.4-.1 1.1-.5 1.6z" style="fill:#e0f4fb"/><path class="st147" d="M238.6 205.2h-5.9c4.3-1.6 4.5-2.5 3.6-8.7-2-14-3.6-28.1-6-42.1-2.1-11.9-3-24-6.1-35.8-.7-2.5-.5-5.2-1.3-7.6-1.1-3.3.3-3.9 3.1-3.6 1.4 1.1 1.9 2.8 2.4 4.5 4.2 15.1 6.1 30.6 8.2 46.1 1.9 13.6 3.8 27.3 5 41 .3 2.7 1 5.6-3 6.2z"/><path class="st147" d="M238.6 205.2c2.6-.9 2.4-3.1 2.2-5.2-1.7-14.1-3.2-28.2-5.2-42.2-2.1-14.4-3.4-28.9-7.6-42.9-.7-2.5-1.3-5-1.9-7.5h3.7c3.3 12.5 7.1 24.9 8.2 38 .8 8.9 2.4 17.7 3.5 26.5.5 3.7-.2 7.6 2.3 11v-28.8h.8v41.3c0 1.3-.5 2.7.7 3.8.6 2 .6 3.9 0 5.9-2.2.1-4.5.1-6.7.1z"/><path class="st248" d="M245.3 144.5v-34.8c.8-1.6 2-2.3 4-2.3 6.1.2 12.1.1 18.2.1.4 4.6 6.5 11.7 11.7 13 10.8 2.7 21.4 6.8 32.6 7.7 1.3.1 2.7.4 4 .4 1 0 1.7.3 1.6 1.5v43.8c0 1.3.3 2.7-.3 4-1.5-2.4-.6-5-.7-7.5-.2-3.9-1.2-5-5.2-5-14.1-.2-28.2.3-42.3 2.2-2.7.3-5.4.4-8.1.6-2.8.3-3.2 1.5-3 3.8.3 4.1-.6 8.1-1.7 12.2-3.2-16.9-5.5-33.9-9.3-50.7-.8 1.9-1.3 3.6-.6 5.4.8 2 .4 3.8-.9 5.6z"/><path d="M317.1 128.9c-4.5 1.7-8.6-.7-12.9-1.1-6.6-.6-12.9-2.5-19-5.2-1.4-.6-3.1-.4-4.7-.7-5.2-.8-8.2-4.5-11.2-8.2-.6-.8-1.1-1.7-1.9-2.2-2.3-1.5-1.2-2.8.1-4.1h4.8c2.9.1 5.5-.6 7.4 3.2 1.5 3 5.8 4.2 9.4 5.3 7.8 2.4 15.9 3.9 24 4.8 2.2.2 4.9.1 4.1 3.7.5 1.6.5 3-.1 4.5z" style="fill:#c3eaf8"/><path d="M317.1 128.9v-4.4h.7v65.8c-1.4-4.1-.3-8.4-.6-12.5-.1-16.3-.1-32.6-.1-48.9z" style="fill:#c4edfb"/><path d="M200.1 351.9c.5 0 .9-.1 1.4-.1 6.3 2.3 12.8 4 19.1 6.2 5.6 2 11.2 3.6 16.8 5.6 1.5.5 3.2.8 3.8 2.6-1.2 3.7-4.7 4.9-7.5 6.9-1.4.6-2.7 1.5-4.3 1.3-8.2-2.8-16.6-4.9-24.9-7.6-2-.7-3.9-1.5-4.4-3.9v-11z" style="fill:#85d6ef"/><path d="M200.1 362.9c1 1.4 2.4 2.3 4.1 2.8 7.5 2.2 14.9 4.5 22.4 6.7 1.2.3 2.4.6 3.2 1.6-2 3.4-5.6 3.5-8.9 4.4-6 1.4-11.8 3.9-18.2 3.7-1.7-.1-1.6 1.6-2.6 2.2v-21.4z" style="fill:#88d9ef"/><path class="st158" d="M245.3 205.2v-5.9c1.5 1.8.4 4 .7 5.9h-.7z"/><path d="M276.4 245.2c-.9 1.3-1.9 2.6-3.6 3-3.2-1.1-6.3-2.4-9.6-3.2-2.7-.7-5.7-1.9-7.5 1.7-.5-1.7-1-3.4-1.5-5.2 2.1-2.7 5.5-2.8 8-2.5 4.3.6 8.3 2.5 12.5 4 1 .3 1.2 1.4 1.7 2.2z" style="fill:#4f86e5"/><path d="M260.8 267.4c-.9-1.1-1.8-2.9-2.9-.3-.4.9-.1 2.1-.8 3.1v-7.4c0-2.1.2-4.1 1.5-5.9 1.3 1.7 3.7 1.7 5.2 3 .5 2.8-.8 5-2 7.4-.3.3-.6.4-1 .1z" style="fill:#5899e5"/><path class="st255" d="M317.8 394.2c-.2.5-.5.9-.7 1.4-.6.1-1.4 0-1.7.3-5 5.9-12.2 5.9-18.8 6.2-10.4.5-20.9.1-31.3.1-.4-1.1.6-1.3 1.2-1.8.3-.2.6-.3.9-.4 1.8-.6 3.5-1.2 5.4-1.7 3.1-.5 5.9-2.6 9.2-2.3 3.9 2.4 8.4 2.1 12-1 1.7-1.4 3.7-.8 5.5-1.5.6-.1 1.1-.1 1.7 0 1.7.4 3.4.2 5.1.3 3.4 0 6.9.1 10.3-.1.4 0 .8.1 1.2.3v.2z"/><path d="M259.3 402.9c2.3-3.8 6.9-4.8 9.8-7.8.7-.8 1.7-1.4 2.6-2 1.1-.6 2.2-1.1 0-1.7.1-.1.1-.2.2-.3.2-.1.5-.1.7-.2 1.8-1.4 3.7-1.2 5.7-.2 1.1 1.5-1.1 1.4-1.1 2.3-3.1 3-6.7 5.5-10.5 7.5-1.2.6-2.5.8-3.7 1.5-1.2.4-2.4.7-3.7.9z" style="fill:#2c61e2"/><path class="st257" d="M263 402.2c1-1.2 2.3-1.5 3.7-1.5l-1.5 1.5H263z"/><path class="st170" d="M245.3 386.6h.7v8.9h-.7v-8.9z"/><path d="M278.7 391.8c-1.9-1.2-3.9-.5-5.9-.7-1.6-1.2-3.5-.5-5.2-.8-1.5-.1-3 .5-4.6 0-1.7-.6-3.5-.3-5.2-.7-1.6-.7-3.7.1-5.1-1.4-2.1-1.3-4.6-.4-6.7-1.5V383c5.9-.3 11.6.8 17.3 2 9.1 2.1 18.1 4.7 27.4 5.8.6.1 1.2.1 1.8.3.6.2 1.6.3 1.5 1.3-.1.9-1 1-1.7 1.1-.8.2-1.7.1-2.6.2-1.9 0-3.8.1-5.7-.3-1.7-.9-3.9-.1-5.3-1.6z" style="fill:#5ab3df"/><path d="M263.1 389.6c1.5.2 3.1-.5 4.4.7-.6 1.7 1.7-.1 1.3 1.3-1.8.3-3.2 1.4-4.6 2.8-3.5 3.7-8 6-12.1 8.8-1.3.9-3.6.3-5.4.4v-2.2c5.1-2.2 9.3-5.8 13.8-8.9.8-.5 1.3-1.3 1-2.5-.1-1 .9-.8 1.6-.4z" style="fill:#3571e1"/><path d="M263.1 389.6c-.9 5.6-6.7 6-9.9 9.3-1.1 1.2-3.1 1.5-4.2 2.9-1 1.3-1.6.2-2.3-.3v-3c3.3-1.4 6.5-3 8.4-6.2.5-.9 1.4-1.5 1.2-2.9-.2-1 .8-1 1.5-.5 1.8.2 3.7-.6 5.3.7z" style="fill:#3976e1"/><path d="M257.9 388.8c-1.4 4.5-4.4 7.6-8.7 9.6-.8.4-1.6.6-2.4.1.1-.9-.4-2.2.6-2.7 3-1.7 3.1-5.4 5.4-7.7 1.6.2 3.5-.6 5.1.7z" style="fill:#3d7de1"/><path d="M246 380.7c-.6-1.9-.8-3.9-.7-5.9-1.6-1.9-1-4.2-.9-6.4.1-.6.3-1.2.7-1.7 2.8.4 1.5 2.7 1.9 4.2.1.4-1.6 1.6.4 1.3 11.2-1.2 22.6 0 33.8-1.4.9-.1 1.7-.2 2.5-.5 2.3-.6 3.9.7 5.6 1.8 1.2 1.7 4.4 1.5 4 4.5-1.7 1.9-4 1.5-6.2 1.6-11.7.8-23.5.4-35.2 0-2.1-.1-3.9.1-4.8 2.4-.3.3-.7.3-1.1.1z" style="fill:#55a3e0"/><path class="st61" d="M246 380.7h.8c3.9-1 7.8-.3 11.7 0 13 .7 26 1.8 39 .3 1-.1 2-.3 2.7-.9 2.2-1.3 3.6.2 5.2 1.4.9 1 2.3 1.3 3.1 2.4.1.4.1.8-.1 1.2-.8 1.2-2.1 1.6-3.5 1.8-7 .7-13.9 1.1-21 .5-6.9-.6-13.9-1-20.8-1.4-5.6-1.7-11.5-1-17-3-.1-.8-.1-1.6-.1-2.3z"/><path class="st152" d="M245.3 368.1v6.6c-.7 4.1-3.1 3.6-6.5 3.3-5.4-.4-10.9.4-16.3.8-.6 0-1.2.2-1.6-.4 3-1.5 5.9-3 8.9-4.4 1.2-.5 2.5-1 3.7-1.5 2.7.3 4.3-1.9 6.5-2.9 1.6-.7 3.1-2.2 5.3-1.5z"/><path d="M283.1 239.3c-.8 1.2-1.8 2.2-3 2.9-4.7-6.6-11.7-6.9-18.8-6.9-2.7 0-5.3.7-7.9-.5-.2-.7-.5-1.2.7-1.5 7.7-1.8 15.2-.3 22.7 1 2.8.4 3.9 3.7 6.3 5z" style="fill:#4a7ce5"/><path d="M291.9 231.8c-1.1.9-1.5 2.4-3 2.9-3.3-4.3-7.6-6.6-13.2-6.7-2.5 0-5-1.1-7.5-1.3-5.2-.4-10.4 1.2-15.7.7-1-.1-1.3 1-2 1.4-.3-.5-.5-1-.8-1.5v-1.5c.3-1.2 1-1.7 2.3-1.9 9.4-1.1 18.8-1.7 28.1.4 3.4.8 6.6 2 9.5 3.9 1.2 1 2.6 1.8 2.3 3.6z" style="fill:#4570e5"/><path d="M298.6 225.9c-1 1.5-2.2 2.8-3.7 3.7-6.3-4.7-13.6-6-21.1-6.8-5.3-.6-10.6-.3-15.8.1-3 .2-6.1 1.1-9-.7h-.7v-1.5c2.6-2.7 5.9-.8 8.9-1.4 8.7-1.7 17.5-.5 26.2.8 5.3.8 10.7 2.4 15.2 5.8z" style="fill:#4168e5"/><path d="M248.9 222.3c6.7-.4 13.5-1.6 20.1-.9 8.7.8 18 .4 25.1 7.1.3.3.6.8.8 1.2-1 .7-2 1.5-3 2.2-3.6-4.3-8.6-5.5-13.8-6.7-9-2.1-17.9-.4-26.9-.2-.5 0-1 .6-1.5 1-.3-.5-.5-1-.8-1.5v-2.2z" style="fill:#436ce5"/><path class="st248" d="M245.3 159.3v-12.6c1.2 4.2 1.2 8.4 0 12.6z"/><path d="M266.8 323.6c-.9-1.3-.7-2.8-.7-4.3v-49.7c1.3 1.5.7 3.3.7 4.9.1 6 0 12 0 18 1.2 1.2 1.1 2.7 1.1 4.1-.1 4.5.3 9.1-.3 13.6 1-1.9 2.9-2.4 4.9-2.4 12-.3 24-1.2 36 0 2.5.3 4.8 1 7.1 1.8 1.4 3.5 2 7.3 2.4 11 .4.6.5 1.2.5 1.8-.5 3.2-.1 6.4-.3 9.6-.1 1.2-.1 2.8-1.7 2.8-1.5 0-1.2-1.6-1.4-2.6-.8-5.1-1-5.1-6.1-5.4-5.5-.3-11.1-.9-16.6-.7-3.2.1-6.4.4-9.4 1.6-.6.2-1.2.3-1.8.3-2.1-.2-4.1-.9-6.2-1.4-2.1-.6-4.3-1.1-6.4-1.7-.9-.2-1.5-.6-1.8-1.3z" style="fill:#d2effa"/><path class="st141" d="M315.6 309.6c-.6.2-.7 1.1-1.8.8-9.5-2.2-19-2.9-28.7-1.7-3.8.5-7.6.2-11.5.2-2.6 0-5.3-.3-6 3.8-.3-.2-.6-.5-.9-.7v-19.3c1.1-1.1 1.9-2.2 3.9-2.3 7.7-.2 15.3-1 23-.7 2.3.1 4.6-.4 6.9.5 1.5.6 1.3-.5 1-1.4.5.1.9.2 1.4.3 6.4 5.5 10.7 12.3 12.7 20.5z"/><path d="M329.7 339.2c-3.2-.7-6.4-1.5-9.6-2.2-.6-.4-1.4-.8-1.4-1.6-.3-4.9-1.3-9.9.7-14.7 1-.5 1.9-.9 2.9-1.4 2.2-1.2 3.1-2.8 2.2-5.4-.9-2.6-2.3-5.1-2.1-8 3.6 5.6 4.6 12.1 6.6 18.3 1.2 3.6 1.5 7.5 2.7 11 .6 2.3-.5 3.1-2 4z" style="fill:#7a94b7"/><path d="M319.3 320.7c.4 5.4-.8 10.9.7 16.3-.7 0-1.4.1-2.1.1-.3-.3-.5-.8-.5-1.2.6-3.7.2-7.5.3-11.2 0-1.3.2-2.6.7-3.9.4-.1.7-.1.9-.1z" style="fill:#708cb3"/><path d="M318.5 320.7c-.3 5.2.9 10.6-.6 15.7-.1-.2-.3-.4-.4-.5.1-4.6-.3-9.1.3-13.7.1-.5.1-1.1.2-1.6.1.1.3.1.5.1z" style="fill:#9eb9d1"/><path class="st141" d="M301.6 288.8c-2.3-.2-3.3-2.1-4.5-3.7 2.1.5 3.3 2.1 4.5 3.7z"/><path d="M317.8 346.6v3.7c-1.2.3-1.7-.8-2.4-1.4-2.3-2-5-2.3-7.9-2-3-1.1-4.2-3.9-5.8-6.3-1.3-2-2.3-4.3-3.9-6.2-1.4-1.6-.9-2.6.9-3.2 2.2-.2 4.2 0 5.8 1.8-.4 1.3-.7 2.3.5 3.7 2.9 3.5 5.9 6.6 10.7 6.9 2 .2 1.5 2 2.1 3z" style="fill:#4b92e2"/><path d="M317.8 354.8c0 .5.1 1 .1 1.5.4.7.3 1.4.1 2.1-1.5.8-2.2-.5-3.1-1.1-3.1-1.9-6.1-3.9-9.6-5.2-1.1-.6-1.6-1.5-1.3-2.8.6-1.2 1.7-1.7 3-1.9 3.1-.3 9.9 4.3 10.8 7.4z" style="fill:#4083e1"/><path d="M317.8 346.6c-.8-1.4-1.7-2.3-3.6-2.3-3.6 0-10.2-5.7-11.3-9-.6-1.8 1.4-1 1.6-1.9 1.1-1.1 2-.7 3 .2 0 .1.2.3.1.3-.8.9-1.1 1.6.2 2.5 2.6 1.8 5 3.9 8.1 4.9.9.3 1.5.8 1.9 1.6v3.7z" style="fill:#4e9ae1"/><path d="M317.8 354.8c-2.5-3.4-6.3-4.7-9.8-6.5-1.2-.6-2.6.2-3.5 1.3-1.4.2-1.8-.6-1.8-1.8 1.2-1.9 2.9-2 4.7-1.2 3.7-2.1 7.4 0 10.4 3.7v4.5z" style="fill:#448be0"/><path d="M317.8 342.9c-4.3-1-7.7-3.4-11-6.2-2-1.6-.3-1.9.7-2.6 1.1-1.1 2.1-.7 3 .3-.6 1-.3 1.1.8 2 2.1 1.5 4.9 2.1 6.6 4.3-.1.8-.1 1.5-.1 2.2z" style="fill:#52a1e1"/><path d="M317.8 340.7c-2.9-.9-5.4-2.6-7.9-4.2-2.2-1.4 1-.8.5-1.6 2.9-1.8 5 .5 7.4 1.3l.1.2c0 .2 0 .4.1.6-.1 1.3-.1 2.5-.2 3.7z" style="fill:#55a9e1"/><path class="st212" d="M317.8 358.5c0-.7.1-1.5.1-2.2h.6v5.2c-.3 1.7.6 3.6-.6 5.2-1.8-2.8-1.7-5.5-.1-8.2z"/><path class="st277" d="M319.3 354.8h-.8v-5.2h.7v1.5c.9 1 1 2.1.4 3.3 0 .1-.1.2-.3.4z"/><path d="M261.6 267.4c.2-2.6 1.3-5 2.2-7.4h.7c.8 1.1.2 2.4.4 3.6 0 1.2.1 2.5-.1 3.7-.2.5-.3 1-.5 1.4-.5 1-1.4 2.2-2.5 1.6-1.1-.5-.7-1.9-.2-2.9z" style="fill:#4c7ee5"/><path d="M264.5 263.7c0-1.2 0-2.5-.1-3.7.1-.6.2-1.1.8-1.4v5.2c-.2.2-.4.2-.7-.1z" style="fill:#336ae4"/><path d="M266.8 323.6c.5.3 1.1.5 1.6.8 4.4 3.3 8.9 6.6 12.5 10.9.6 1.3 1.7 2.5.8 4.1-1.5.8-2.7-.1-3.7-.9-4.9-3.9-10.4-7.1-15-11.4-2.9-2.7-4-5.7-4.4-9.3v-2.2c-.5-1-.5-2 0-3 1.2 1.3.7 3.2 1.4 4.7 1 2 2.1 3.5 4.5 3.4.7.6 0 1.6.7 2.2.4.5.9.8 1.6.7z" style="fill:#5ba3e4"/><path d="M261.6 267.4c.1.8-.4 2.1.4 2.3 1.4.3 1.5-1.7 2.5-2.3.7.6 0 1.6.7 2.2 0 .8 0 1.5.1 2.3-.3.4-.5.8-.6 1.2-.7 1.3-1 3.1-3 3.2-1.1-.4-1.9-1-1.3-2.4.9-2.1.5-4.3.6-6.5h.6z" style="fill:#5390e5"/><path d="M264.5 272.6c.3-.2.5-.5.8-.7 0 7.9-.1 15.8-.1 23.7-.5.2-.9 0-1.2-.5-.8-7.6-1.4-15.1.5-22.5z" style="fill:#1843e4"/><path d="M264.5 317v-.7c-1.3-1.7-1.2-3.5-.4-5.4.3-.4.6-.5 1.1-.5v6.7c-.2.3-.4.2-.7-.1z" style="fill:#3c7fe2"/><path d="M265.2 310.3h-.7l-.4-.4c-.7-1.7-.7-3.4 0-5.1.3-.3.6-.5 1-.4.1 2 .1 4 .1 5.9z" style="fill:#3471e3"/><path d="M264.5 317h.7c0 2 0 3.9.1 5.9-.9-.5-.7-1.4-.7-2.2-.1-1.2-.1-2.5-.1-3.7z" style="fill:#4691e2"/><path d="M265.2 269.6c-.8-.5-.7-1.4-.7-2.2v-3.7h.7v5.9z" style="fill:#3d7ae4"/><path d="M264.6 295.5h.6v5.2c-.4.1-.7 0-1-.4-.6-1.1-.6-2.2-.5-3.4.1-.5.4-1 .9-1.4z" style="fill:#2051e4"/><path d="M264.6 300.7h.6v3.7h-.6l-.4-.4c-.5-1-.5-2 0-3 .1-.1.2-.2.4-.3z" style="fill:#2c63e4"/><path d="M305.2 382.2c-1.4-.8-2.6-2.1-4.4-2.2-3.3 0-5.4-2.1-7.4-4.4-1.5-1-3.5-1.2-4.4-3 1.7-1.5 3.5-.6 5.1.1 3.5 1.5 7.2 2.4 11.5 3.7-3-3.8-6.2-5.9-9.2-8.4-1.5-1.2-3.2-2.3-3.8-4.3-3.7-3.9-7.4-7.9-11.1-11.8v-.7c1.1-.9 2.2-.3 3 .3 3.6 2.7 7.8 4.5 11.4 7.1 6.2 4.2 11.6 9.5 17.1 14.6 2 1.9 3.1 1.4 4.8.2V389c-3.1-1.9-6.7-2.9-9.6-5.2-.8-.9-2.1-.9-3-1.6z" style="fill:#5fb6e1"/><path class="st230" d="M308.2 383.7c3.5 1.1 7.4 1.6 9.6 5.2 0 1.7-.1 3.4-.1 5.2h-.7c-4.8.1-9.6-.2-14.4.2-.6.2-1.2.3-1.8-.1h-1.5c-1.9.7-4 0-6 .6-1.2-.1-2.4-.4-3.4-1-.3-.3-.5-.6-.3-1 1.3-.3 2.6.3 4.1-.6-10.7-.7-20.6-3.7-30.6-6.1 2.6-1.4 5.5-.7 8.1-.5 11.4.8 22.7 2 34.1.5 1.3-.4 2.7-.7 2.9-2.4z"/><path d="M283.8 347.4c-1.2-1.5-2.5-3-3.7-4.4 1.7-1.3 3 0 4.3.8 3.5 2 6.8 4.3 10.5 5.8 5.6 2.5 9.9 6.8 14.8 10.2 1.2.8 2.3 1.8 3.9 2 2.3 1.3 3.2 3.5 4.2 5.7 0 .2.1.5.2.7 0 .5-.1 1-.1 1.5-1.8 1.3-3.2.1-4.6-.8-3.6-2.6-7.4-5-11.2-7.5-5.4-3.8-10.8-7.5-16.2-11.3-.8-.8-2.4-1.1-2.1-2.7z" style="fill:#5bace1"/><path d="M302.3 360.7c4.1 1.7 7.4 4.5 11 7 1.4 1 2.7 2 4.6 1.9v3.7c-1.3.8-.3 2.4-1.5 3.6-7.1-5.6-13.3-12.3-20.7-17.7 2.6-1.4 4.5.3 6.6 1.5z" style="fill:#5db2e0"/><path class="st277" d="M341.5 357v8.9c-.6 3.8-2.3 3.3-5.3 2-5.5-2.4-10.3-6.1-15.7-8.6-2.3-1.1-.9-3-1.3-4.5 1.6-1.3 3.1-.2 4.4.5 3.4 1.6 6.8 3.5 10.2 5.3 4.2 2.2 5.1 1.8 6.9-2 .1-.7.2-1.3.8-1.6z"/><path class="st212" d="M340.8 358.5c0 5-.1 5.3-4.9 3.6-4.2-1.5-8.1-3.9-12.1-5.8-1.4-.7-2.7-1.7-4.4-1.5v-3.7c5.1.4 9.1 3.8 13.8 5.3 2.5.8 4.8 2.2 7.6 2.1z"/><path d="M317.8 367.4c-1.5-1.7-2.9-3.5-4.4-5.2-3.3-2.1-4.8-5.6-7.1-8.4-.3-.6-.7-1.2-.3-1.9 4.7.9 8.2 3.9 11.9 6.7 0 2.7.1 5.4.1 8.1-.1.2-.2.4-.2.7z" style="fill:#3d7be1"/><path class="st211" d="M346.7 356.3v8.2c-1.3-1.2-2.5-2.7-4.4-.6v-6c.9-2.4 2.3-3 4.4-1.6z"/><path d="M240.8 366.6c-.5-1.2-1.6-1.4-2.7-1.7-11.3-3.6-22.5-7.9-34-10.8-1.7-.4-1.3-2.1-2.6-2.3 2.9-.8 5.8-1.6 8.9-1.5 2.1-.6 3.7.9 5.5 1.4 8.6 2.3 17.1 5 25.7 7.5 1.4.4 2.9.7 3.9 2 .5.7.5 1.5.3 2.3-1.1 1.8-2.3 3.6-5 3.1z" style="fill:#81d2ef"/><path d="M245.3 361.4c-9.7-2.9-19.4-6-29.2-8.8-2-.6-3.8-1.6-5.7-2.4 1.8-1.2 4.1-.6 6-1.5h2.2c8 2.4 16.1 4.8 24.5 6 2.4.3.8 2.9 2.2 3.7.8 1.1.8 2.1 0 3z" style="fill:#7cceef"/><path d="M264.5 310.3v5.9c-2.5-.8-3.9-2.4-4.5-5.1-1.4-5.8-1.2-11.9-2.1-17.7-.1-.8.1-1.7-.7-2.3.6-2.9-1.5-6.3 1.5-8.9 1.3 1.1 1 2.7 1 4.1-.2 6.3 1 12.4 1.7 18.5.1 2.4 1.2 4.2 3.1 5.5z" style="fill:#528ee5"/><path d="M264.6 295.5c0 .5 0 1-.1 1.5-.8 1.2-1.6.9-2.3-.1-.8-1-.9-2.3-.9-3.5.1-5.5-.4-11 .2-16.5v-.7c1-1.2 1.9-2.5 2.9-3.7.1 7.7.1 15.4.2 23z" style="fill:#4063e5"/><path class="st172" d="M264.5 310.3c-3.9.5-4-2.8-4.3-4.9-.9-7.7-2.1-15.4-1.7-23.2 0-.6.2-1.2.8-1.5 1.7 2.9 1.2 6.1 1.6 9.2.4 2.6.5 5.3.7 8 .2 2.7 1.2 4.6 2.9 6.5v5.9z"/><path d="M261.5 277c1.6 5.5.3 11.1.8 16.6.1 1.4-.7 3.6 2.2 3.4 0 1.2 0 2.5.1 3.7h-.1c-2.4 1.9-3.1-.1-3.2-1.7-.4-6.6-1.5-13.1-1.2-19.7 0-1.1.5-1.9 1.4-2.3z" style="fill:#446ee5"/><path d="M260.1 279.2c1 5.9 1.1 11.9 1.5 17.9.1 1.8-.5 4.4 2.9 3.6v3.7c-2-.4-3.4-1.6-3.6-3.6-.6-6.7-1.1-13.4-1.6-20.1.1-.6.2-1.1.8-1.5z" style="fill:#4877e5"/><path d="M292.7 363.7c4.7 4.2 10.2 7.6 14.5 12.8-1.8.9-3.3.2-4.9-.1-4.5-.9-8.5-3.8-13.3-3.8-1.5-.7-3-1.5-4.4-2.2-3.4 1-5.2-2-7.8-2.9-2.5-1.3-5.1-2.4-7.5-4-.8-.5-2-.7-1.7-2 1.3-.8 2.4-.6 3.8 0 3 1.2 6.2 2.2 9.3 3.3 1 .3 2.2 1 2.9-.3.6-1.1-.5-1.7-1.1-2.5-.5-.7-1.1-1.3-1.6-2 1.9-.3 3.1 1.3 4.6 1.9 2.2 1.1 4.5 2 7.2 1.8z" style="fill:#61b9e1"/><path d="M267.5 361.4c3.2 1.7 6.4 3.5 9.6 5.2-.2 1.9-1.8 1.3-2.9 1.5-7.4.9-14.9 1.5-22.3 1.7-2.3.1-4 .7-5.2 2.7 0 .1 0 .3-.1.4-.1.1-.3.2-.5.3-.8-2.1.6-4.6-.9-6.6-1-1-.7-2-.1-3v-5.2c0-1.5 0-3 .1-4.4 2-.1.9 2.5 1.6 2.4 1.5-.1 2.9.1 4.2.6.3.1.6.4.8.7.4 1.9-1.2 2.5-2.3 3.4-1.2 1-2.5 2-2.9 3.7-.3.3.6.6.1.3-.2-.1-.1-.2 0-.4.7-1.2 1.8-1.6 3-1.8 5.1-.7 10.1-1.6 15.2-2.4 1.1.5 1.9.7 2.6.9z" style="fill:#529ce0"/><path d="M265.3 360.7c-1.1 2.4-3.5 1.6-5.2 1.7-3.5.3-6.7 2.1-10.3 1.2 1.7-3.9 5.2-5.4 8.9-6.6 2.1 1.3 4.3 2.5 6.6 3.7z" style="fill:#5095e1"/><path d="M251.9 358.5c-.5-.9-1.5-.8-2.3-.8-2.4-.1-4-1.1-4.4-3.6v-3.7c3.2 1.7 6.7 3 9.6 5.1.2 2.1-.8 3-2.9 3z" style="fill:#519ae1"/><path d="M251.9 358.5c1.3-.7 2.3-1.7 3-3 1.2.5 2.4 1 3.7 1.5-2.9 2.3-6.3 3.9-8.9 6.6-1.2.3-2.3 2.7-3.5 1.1-1-1.3.8-2.6 1.9-3.5 1.2-.9 2.6-1.8 3.8-2.7z" style="fill:#4c8ce1"/><path class="st304" d="M294.9 350.3c-3.9-1.1-7.1-3.7-10.6-5.6-1.4-.7-2.4-2.1-4.2-1.8-6.2-4.1-12.1-8.6-17.7-13.5-3.7-3.3-3.8-7.4-3.8-11.7 1.3 6.7 6.4 10.4 11.5 13.8 3.8 2.5 7 6.1 11.4 7.7 5 2.6 9.2 6.3 13.3 10.1.3.2.2.7.1 1z"/><path d="M302.3 360.7c-2.2-.5-4.4-1-6.7-1.5l-14.1-8.1c-3.8-3-7.5-6.1-11.3-8.9-2-1.5-3.8-2.9-5-5.1 3.8 1 6.7 3.9 9.9 5.9 2.8 1.8 5.6 3.3 8.6 4.5 5.5 3.7 11 7.5 16.5 11.3.9.4 1.4 1.2 2.1 1.9z" style="fill:#5fb1e2"/><path class="st304" d="M258.6 312.6v3h-.7v-5.9c.1-.5 0-1.2.3-1.3.6-.4.4.4.4.6v3.6z"/><path d="M245.2 363.7c0 1 .1 2 .1 3 0 .5 0 1-.1 1.5-3.2 1.1-6 3-8.9 4.7-.8.5-2.2 2.4-2.9-.3 2.5-2 4.9-3.9 7.4-5.9 1.5-1.1 3-2 4.4-3z" style="fill:#78cbf0"/><path d="M292.7 394c2.2 0 4.4 0 6.6.1-2 1-4.2 1.3-6.2 3-2.9 2.3-7.1 1.5-10.8.4-.1 0 0-.8 0-1.3.3-1.1 1.2-1.4 2.2-1.7 2.3-1 4.8-.4 7.2-.7.4-.1.7-.1 1 .2z" style="fill:#1a40e3"/><path d="M284.5 395.5c-.7.2-1.5.5-2.2.7l-9.6 3c-.1-2.7 2.2-3.2 3.8-4.4.8-.6 2.4-1 .7-2.3 0-.7 0-.7 1.6-.8 1.7.2 3.6-.4 5.2.7.7 1.2 2.3-.3 2.9 1.1-.4 1.3-1.7 1.2-2.4 2z" style="fill:#2453e2"/><path class="st257" d="M277.1 392.5c.8.1 1.7-.3 2.5.5-1.5 3-5.6 3-6.9 6.2-2 .5-3.9 1-5.9 1.5 2.8-3.5 7-5.3 10.3-8.2z"/><path d="M302.3 393.9c4.9-1.1 9.9-1.2 14.8.1-3.6 1.5-7.3.3-11 .6-1.2-.7-2.7.3-3.8-.7z" style="fill:#5db7df"/><path class="st163" d="M302.3 393.9c1.3.3 2.7-.2 3.8.7-1.8-.1-3.6.7-5.3-.6.5.1 1 0 1.5-.1z"/><path class="st255" d="M284.5 395.5c.5-.6 1-1.3 1.7-2.1-1.1-.1-2-.1-3-.2-.1 0-.1-.1-.2-.2.3-.2.6-.3.8-.5 1.9 0 3.8.1 5.7.1.1.2.2.4.2.6.4 1 1.6 0 2.1.8-2.1 1.5-5 .2-7.3 1.5z"/><path d="M293.4 375.5c2.5 1.5 4.9 3 7.4 4.4.6 2.6-1.5 2-2.7 2.2-12.5 1.7-25 .4-37.5-.2-4.6-.2-9.3.3-13.9-1.3-.5-3.1.4-3.9 3.8-3.9 7.1 0 14.2 1.2 21.3.8 6.1-.3 12.2-.7 18.3-.7 1.3.2 2.5-.3 3.3-1.3z" style="fill:#57a9df"/><path d="M246.8 372.5c-.7-3.5 1.5-3.6 4-3.7 8.8-.3 17.6-.9 26.3-2.2 2.6 1.1 4.5 3.3 7.4 3.7-2.5 2.5-5.9 1.9-8.9 2.1-5.4.4-10.8 0-16.2.1-2.9.1-5.8.5-8.7.7-1.4.2-2.7.1-3.9-.7z" style="fill:#54a0e0"/><path class="st230" d="M305.2 382.2c1.3-.1 2.4.1 3 1.5-1.3 0-2.4-.2-3-1.5z"/><path d="M317.8 336.2c-2.5-.4-4.9-.9-7.4-1.3-.9-.4-1.8-1-3-.7-.9-.4-1.8-1-3-.7-1.9-.8-3.9-1.4-5.9-1.5-1.3.1-2.5.1-3.8-.2-1.9-.5-3.9-1-5.9-1.5-2.2-1-5.1-.3-6.6-2.9 1.6-2 4.1-1.8 6.1-2 8.2-.9 16.4.1 24.5.7 3.7.3 2.4 4.2 3.3 6.5.2.5-.6 1.1.3 2 1.5-4.2-.5-8.5 1.2-12.4.2 4.7.2 9.4.2 14z" style="fill:#d3f1fc"/><path d="M306 351.8c.2.5.5 1 .7 1.5-1.6 1.3-2.9.3-4-.7-7.2-6.2-15.5-10.9-22.7-17.1-3.7-3.8-7.8-7.3-12.2-10.4-1.2-.9.3-.5.5-.8 2.3.2 4.4.7 6.5 1.6 2.8 4 7.1 6 11.1 8.2 4.8 2.7 8.6 6.8 13.5 9.5 1.9.9 3 2.5 3.5 4.5l1.5 1.5c.1 1.1.6 1.8 1.6 2.2z" style="fill:#569fe2"/><path d="M299.3 344.4c-.7-.3-1.5-.4-2-.9-6.2-5.6-13.6-9.4-20.4-14-1.3-.9-2.2-1.9-2-3.6 2.1.2 4 .7 5.9 1.5 3.9 4 8.5 7.1 13.5 9.7 1.1.6 1.8 1.7 2.6 2.5 1 1.5 3.5 2.3 2.4 4.8z" style="fill:#5499e2"/><path d="M294.1 337.7c-4.9-1.5-8.3-5.4-12.6-8-.8-.5-.7-1.5-.7-2.4h1.5c2 1.4 4.7.7 6.7 2.2.7 2 2.1 3.4 3.5 4.9.8 1 2.1 1.7 1.6 3.3z" style="fill:#5091e2"/><path d="M299.3 344.4c-.1-2.1-2.3-2.7-3-4.4.4-2.2-.2-4.1-1.4-5.9-.5-.8-1.8-1.7-.2-2.7 1.4-.5 2.6 0 3.8.6-.3.4-.9 1-.8 1.1 4 4 5.3 9.9 9.7 13.6-1.6.1-3.2.4-4.4 1.5-1.7-.9-1.8-3.2-3.7-3.8z" style="fill:#498ae3"/><path d="M280.1 335.5c5.4 2.7 10 6.6 14.8 10.1 2.8 2 5.4 4.2 8.2 6.2 1.1.8 2.1 1.7 3.6 1.5 2.2 3 4.4 5.9 6.7 8.9-3.4.2-5.2-2.7-7.6-4.4-3.6-2.6-7-5.4-10.9-7.5-4-4.2-9.4-6.8-13.3-11.1-.5-1.2-1-2.4-1.5-3.7z" style="fill:#58a4e2"/><path d="M291.9 394c-.7-.4-1.9.8-2.1-.8 1 .1 2.2-.3 2.9.8h-.8z" style="fill:#1133e3"/><path d="M294.8 331.3c0 1.9 1.5 3 2.2 4.6.7 1.6.9 2.9-.6 4.1l-2.2-2.2c-1.4-1.5-2.8-2.9-4.1-4.5-.8-1-2.4-1.9-1.1-3.6 2 0 4.1.3 5.8 1.6z" style="fill:#4883e3"/><g><circle cx="617.3" cy="547.5" r="336.3" style="fill:#e74342"/><path class="st327" d="M457.2 720.3h-53.7c-3.6 0-7.3-.5-10.9-1.9-10.8-3.8-15.8-12.8-13-23.9.9-4 2.6-7.6 4.7-11.3 34.8-61.2 69.5-122.3 104.3-183.7 35.5-62.4 70.7-124.6 106.2-187 2.6-4.5 5.6-8.8 9.7-12 8-6.1 17-5.9 24.6.5 3.5 2.9 6.2 6.6 8.5 10.6 17.2 31.5 35.1 62.4 52.8 93.7 4.3 7.6 6.8 16.1 7.6 24.8 1.4 13-.5 25.5-6.4 37.2-3.5 6.9-7.6 13.4-11.5 20.1-38.6 66.9-77 133.6-115.7 200.4-9.9 17-25.2 27.2-44.5 31.3-4 .9-8.2 1.2-12.3 1.2h-50.4zM756.2 720.3H682c-4.2 0-8.2-.7-12-2.1-9.9-3.8-14.7-12.8-12.3-23.6.9-4.2 2.6-7.8 4.7-11.5 24.3-42.1 48.9-84.2 73.1-126.3 2.3-4 5-7.6 8.5-10.6 8-6.8 17.7-6.6 25.7 0 3.5 2.9 6.2 6.6 8.5 10.6 23.9 42.3 48 84.3 72.1 126.5 2.6 4.5 4.7 9 5 14.2.7 10.2-4.2 17.5-13.9 20.8-4.3 1.4-8.7 1.7-13.2 1.7-23.8.3-47.9.3-72 .3z"/></g></svg>