<svg xmlns="http://www.w3.org/2000/svg" viewBox="0 0 953.7 883.8"><defs><style>.cls-1,.cls-12{isolation:isolate;}.cls-2{fill:#e74342;}.cls-3{fill:#f7fcfe;}.cls-4{fill:snow;}.cls-5{fill:#ec3e3f;}.cls-6{fill:#003eb0;}.cls-11,.cls-7{fill:#fff;}.cls-12,.cls-8{opacity:0.3;}.cls-9{fill:#f36c21;}.cls-10,.cls-11{stroke:#000;stroke-miterlimit:10;stroke-width:0.75px;}.cls-13{opacity:0.4;mix-blend-mode:multiply;}</style></defs><g class="cls-1"><g id="Layer_1" data-name="Layer 1"><circle class="cls-2" cx="261.2" cy="252.2" r="252.2"/><path class="cls-3" d="M141.2,381.7H100.9a23.58,23.58,0,0,1-8.2-1.4c-8.1-2.9-11.9-9.6-9.8-18a34.67,34.67,0,0,1,3.5-8.5q39.15-68.85,78.2-137.8c26.6-46.8,53-93.4,79.6-140.2a30.44,30.44,0,0,1,7.3-9c6-4.6,12.8-4.4,18.5.4a29.32,29.32,0,0,1,6.4,8c12.9,23.6,26.3,46.8,39.6,70.2a45.33,45.33,0,0,1,5.7,18.6,49.53,49.53,0,0,1-4.8,27.9c-2.6,5.2-5.7,10-8.6,15.1-28.9,50.2-57.7,100.2-86.8,150.3-7.4,12.8-18.9,20.3-33.4,23.5a40.77,40.77,0,0,1-9.3.9Z"/><path class="cls-3" d="M365.3,381.7H309.6a25.12,25.12,0,0,1-9-1.6c-7.4-2.9-11.1-9.6-9.3-17.7a32.39,32.39,0,0,1,3.5-8.6c18.2-31.5,36.6-63.1,54.9-94.8a30.9,30.9,0,0,1,6.4-8c6-5.1,13.3-5,19.3,0a29.32,29.32,0,0,1,6.4,8c18,31.7,36,63.2,54.1,94.9a24.62,24.62,0,0,1,3.8,10.7c.5,7.7-3.1,13.2-10.4,15.6a33.27,33.27,0,0,1-9.9,1.3c-18,.2-35.9.2-54.1.2Z"/><path class="cls-4" d="M535.7,722.6c1.9-3.2,3.8-6.5,5.8-9.8a10.91,10.91,0,0,0,1.1-2.7c8.5-11.9,19.2-22.5,29.3-32.7,13.1-13.3,26.7-26.2,41-38.5,8.5-7.3,16.9-14.7,25.1-22.3,1.4-1.2,2.7-2.5,4.1-3.7.1-.2-.1.8,0,.6s1.5-1.5,1.7-1.7c15.8-11.1,24-31,30.2-48.8a176.21,176.21,0,0,0,9-62.4c-1.5-42.7-20-82-48.9-113.1-59.4-63.9-160.6-88.7-240.9-52-24.8,11.3-48.9,26.2-65.4,47.6-12,15.5-19.2,35.6-24.7,54.7a9.74,9.74,0,0,0-.3,4.1,184.33,184.33,0,0,0-8.8,25.6,251.47,251.47,0,0,0-6.6,40.5,245.43,245.43,0,0,0,6.2,79.2,202.52,202.52,0,0,0,8.4,26.4c24.2,117.9,114.5,217.3,239.2,246.9a324.86,324.86,0,0,0,59,8.3l.1-1.9c6.9.7,15.5,5.5,20.3,1.3,4.6.8,8.7-1.4,13.3-.8,1.5.5,3.4.1,5,0,3.8.5,6.4-.7,10.2-.6s7.5-.1,11.2.3c4.6.5,13.7-.3,16.2-4.6,2.2-4-3.2-9.9-6.6-13a91,91,0,0,1-18.2-24.3,112.68,112.68,0,0,1-5.4-12.7c-1.6-4.8-3.6-9.6-4.5-14.6-1.1-6.6-6-10.7-12.8-9.1-8.8,2-15.4,2.1-24.3,3.8h-2.5c-7.5-3.2-14.9-2.3-22.7-2.7-1.4-.3-2.8-.7-4.2-1.1a115,115,0,0,0-20.9-11.6,34.73,34.73,0,0,1-5.2-6.4c-3.8-5.8-6.3-10.2-8.1-16.8-1.1-4.1-5.7-6.6-9.8-6.4a53.29,53.29,0,0,1,.5-11.5A46.76,46.76,0,0,1,535.7,722.6Z"/><path class="cls-5" d="M942,543.4c-1-34.8-4.7-70.6-12.7-104.6-4.2-17.8-10-35.9-19.2-51.9a170.85,170.85,0,0,0-15-21.7c-5.7-7-12-13.9-20.1-18.1a4.88,4.88,0,0,0-.7-.3c-.8-1.3-1.6-2.5-2.4-3.7a290.84,290.84,0,0,0-35.4-43.6c-13.2-13.2-27.9-26.1-44-35.6-8.6-5-17.3-10.1-26.2-14.5-3.4-1.7-7-3.2-10.5-4.6a111.25,111.25,0,0,0-20.5-8.6v.1a9.15,9.15,0,0,0-7,1.3c-6.7-3-13.4-5.8-20.1-8.2-29.9-10.6-61.8-15.4-93.5-16.2a361.37,361.37,0,0,0-88,8.3A172,172,0,0,0,484,237a96.7,96.7,0,0,0-18.4,12.6c-2.3,2-6.3,1.2-8.1,3.5-.8.4-1.5.8-2.3,1.2-28.9,15.1-54.6,36.4-79.1,57.9-10.4,9.2-22,19.2-29.3,31.4-1.3,1.1-2.6,2.2-3.8,3.3-1.1,2-2.2,4-3.3,6.2-1.8,3.5-3.2,7-6.5,9.4-.5.9-1.1,1.8-1.6,2.7a7.09,7.09,0,0,0,10.6,1.3c10.3-9.2,20.8-17.9,32.5-25.1a200.21,200.21,0,0,1,37.5-18.3,204.29,204.29,0,0,1,82-12.1c54.1,3,105,30.9,140.6,71.7,10.1,11.5,20.2,22.4,27.7,35.8a174.31,174.31,0,0,1,9.7,20.5c2.1,5.2,3.5,10.8,5.9,15.9-1.3,0-2.6-.1-3.8-.1a31.6,31.6,0,0,1,1.6,3.1c2.3,4.9,3.3,10.5,4.4,15.8,1.3,6.9,2.5,13.5,2.6,20.6,0,1.6,0,3.2-.1,4.9a124.37,124.37,0,0,1-2.8,47.5A178.28,178.28,0,0,1,656.6,600a.35.35,0,0,1,.2-.1c7.3-6.7,14.6-13.2,22-19.9s15.4-12.5,23-19c.7-.6,1.7.3,1.1,1-7.4,7.4-14.1,15.2-21.7,22.4s-15,14.4-22.7,21.5c-4.5,4.3-9.2,8.6-13.7,12.9-10.2,9.6-20.2,19.2-30,29.2-12.3,12.6-25.1,24.7-37.1,37.7-11.2,12-23.8,24.5-30.9,39.7-5.7,12.2-6.1,27.9,4.9,37.3,9.8,8.3,24.2,10.6,36.5,12.3,27.1,3.8,55.7.9,82.1-5.9,27.8-7.1,53-21.6,73.9-41a1,1,0,0,1,1.5,1.4c-21.8,25.2-51.6,44.5-83.1,55.3a159.71,159.71,0,0,1-15.4,4.4c.9,2.8,1,6.1,1.5,8.9.7,3.7,1.5,7.4,2.5,11a127.39,127.39,0,0,0,8.1,20.4c3.2,6.9,6.4,13.7,11,19.7a110.44,110.44,0,0,0,7.8,9.1c1.2,1.3,2.6,2.6,3.9,4.1a320.35,320.35,0,0,0,130.1-61.1,111.74,111.74,0,0,0,18.5-8.6c11.9-6.8,23.2-15.2,32.3-25.5,14.2-15.8,26.5-35.8,30.2-57.3A292.83,292.83,0,0,0,925.4,650C938.3,616,943,580,942,543.4Z"/><path d="M951.5,506.3A339.29,339.29,0,0,0,643.6,207.7l-12.1-.8c-1.5-.1-2.8-.2-4.2-.2h0l-14.3-.3-16.4.5L582,208h-.7c-.5,0-1,.1-1.5.1l-1.9.2A335.09,335.09,0,0,0,453,247.4a344.27,344.27,0,0,0-54.5,36.7,333.51,333.51,0,0,0-46.2,46.6l-1.3,1.6-.9,1.2c-.1.2-.3.3-.4.6l-8.6,11.3-9.4,13.5-7.6,12.2c-.8,1.2-1.5,2.4-2.2,3.7l-6,10.7a340.49,340.49,0,0,0-38.2,191.6,342.78,342.78,0,0,0,12.7,65,347.75,347.75,0,0,0,25.2,61.4,340.23,340.23,0,0,0,36.7,55.3A332.14,332.14,0,0,0,399.2,806a339.29,339.29,0,0,0,117.1,62.9,342.84,342.84,0,0,0,99,14.5c11.3,0,22.5-.6,33.6-1.7a342.08,342.08,0,0,0,127.6-39.4A342.91,342.91,0,0,0,879,756.7a339,339,0,0,0,36.5-56.2,344.79,344.79,0,0,0,24.8-62.2C952.8,596.4,956.5,550.6,951.5,506.3ZM642.1,612.8c-1.4,1.2-2.7,2.5-4.1,3.7-8.3,7.6-16.7,15-25.1,22.3q-21.3,18.3-41,38.5c-10.9,11.1-22.5,22.6-31.3,35.6-1,1.6-2,3.1-3,4.7-.2.3-.3.5-.5.8a49.15,49.15,0,0,0-2.4,4.5c-.5,1-.9,2-1.4,3a53.17,53.17,0,0,0-3.9,15.2,19.42,19.42,0,0,0-.2,2.4,40.21,40.21,0,0,0,4.3,20.9c5.2,10,14.6,16.5,25,20.6a36.16,36.16,0,0,0,3.5,1.3,84.57,84.57,0,0,0,9.5,2.7c4.5,1,9.2,1.8,13.8,2.5.5.1.9.1,1.4.2,3.4.5,6.9.8,10.3,1l5.1.3a178.91,178.91,0,0,0,32.7-1.8c0,3.1,1,6.7,1.7,9.5a114.6,114.6,0,0,0,3.4,11.4,104.63,104.63,0,0,0,10.4,22.2c4.2,6.7,9.9,12.2,15.2,18a93.61,93.61,0,0,0,9.2,8.6c.2.2.5.4.7.6-9.3,1.8-18.7,3.2-28.1,4.2A325.87,325.87,0,0,1,457,827.8,320.79,320.79,0,0,1,299.7,603.3c-2.4-14.1-5.7-28.3-7.3-42.5-6.8-56.7,6.1-120,32.3-170.7.8-1.5,1.7-4.4,3-5.7,12.5-11.3,25.2-22.2,39.5-31.5a223,223,0,0,1,57-26.7,179.12,179.12,0,0,1,61.7-7.5c21.5,1.3,42.8,6.7,62.9,14.4,36.3,14,69.5,37.1,93,68.4,21.1,28.2,35.3,62,38.4,97.2a157.24,157.24,0,0,1-27.8,104.1l-10,9.1M821.6,792.3a335.56,335.56,0,0,1-52.8,35.8A329.29,329.29,0,0,1,710,853c-9.8,3-19.8,5.7-30,7.8-.8-.9-1.7-1.7-2.4-2.5-2.7-2.9-5.2-6-7.8-9.1-4.6-6-7.8-12.9-11-19.7s-6.1-13.3-8.1-20.4a103,103,0,0,1-2.5-11c-.5-2.8-.6-6.1-1.5-8.9a159.71,159.71,0,0,0,15.4-4.4c31.5-10.8,61.3-30.1,83.1-55.3a1,1,0,0,0-1.5-1.4c-20.9,19.4-46.1,33.9-73.9,41-26.3,6.7-55.1,9.7-82.1,5.9-12.2-1.7-26.8-4-36.5-12.3-11-9.4-10.6-25-4.9-37.3,7-15,19.7-27.6,30.9-39.7,12-12.9,24.8-25,37.1-37.7,9.8-10,19.8-19.6,30-29.2,4.5-4.3,9.2-8.6,13.7-12.9l22.7-21.5c7.6-7.3,14.3-15,21.7-22.4.7-.7-.4-1.6-1.1-1-7.6,6.5-15.5,12.3-23,19-4.4,3.9-8.9,8-13.3,12a153.61,153.61,0,0,0,23.9-79.4c.9-36.8-11.4-73.9-31.3-104.6-21.9-33.8-53.1-60.1-89.4-77.3-40.9-19.4-86.6-28.1-131.1-18.1a212.87,212.87,0,0,0-68.7,29.1,197.44,197.44,0,0,0-25.7,19.2c5.5-8.2,11.2-15.9,17.3-23.5a326.61,326.61,0,0,1,44.8-45.5A337,337,0,0,1,457.7,256h0a325.62,325.62,0,0,1,58.9-24.8,319.33,319.33,0,0,1,62.6-12.9,326,326,0,0,1,239.3,70.8,325.87,325.87,0,0,1,45.4,44.8,329.74,329.74,0,0,1,35.8,52.9,325.62,325.62,0,0,1,24.8,58.9,318.36,318.36,0,0,1,12.9,62.5,330.58,330.58,0,0,1-11.6,126.6,325.94,325.94,0,0,1-59.2,112.5A354.27,354.27,0,0,1,821.6,792.3Z"/><circle cx="540.7" cy="505.3" r="81.9"/><path class="cls-6" d="M882.31,333.66a22,22,0,0,0-4.06,1.53,17.36,17.36,0,0,0-4.11,2.87c-.19,0-.39.05-.58.09-8,1.62-15,7.86-21.94,12q-9.71,5.79-19.75,11-9.06,4.71-18.37,8.95c-2.41-3.06-6.34-4.81-11.3-3.37-41.23,12-82.61,23.08-124.67,31.84-3,.62-6,1.22-9,1.83-13.54,2.43-27.11,4.69-40.76,6.53q-42.6,5.76-85.6,7.89a1073.32,1073.32,0,0,1-172.3-5.62q-11.79-1.31-23.56-2.89c-6.81-.93-14-1.49-20.57-3.75-3.45-1.19-9.13-3.56-9.07-7.94,0-.5.52-1.06,1.24-1.52,3.47,2.85,9.2,2.54,10.57-2.92a.56.56,0,0,1,0-.12,7.09,7.09,0,0,0,1.54-6.22c4.07-16.29,8.53-32.54,19.77-45.59a71.08,71.08,0,0,1,22.29-17.55c1.79-.89,3.34-1.52,5.21-2.24A17.67,17.67,0,0,0,386,312q5.06-6.47,10.45-12.65a315.25,315.25,0,0,1,103.1-77.51,305.28,305.28,0,0,1,250.23-4.21,313.26,313.26,0,0,1,118,88.09c2.59,3.14,6.95,4,10.88,3.15a52.64,52.64,0,0,1-.39,6.74,18.49,18.49,0,0,0-1.28,8.17A12.74,12.74,0,0,0,882.31,333.66Z"/><path class="cls-6" d="M933.33,344.3a143.75,143.75,0,0,1,2.82,47.51c-.53,4.87-3.07,9.23-8.08,10.61-4.27,1.17-10.55-.67-12.43-5.06-5.36-12.48-11.59-25.46-19.79-36.37-2.59-3.44-5.8-6.8-10-7.6a20.36,20.36,0,0,0-2.87,0c-5,6.48-13,10.5-19.85,14.68s-14,8.21-21.19,12a384.41,384.41,0,0,1-45.4,20.23,296,296,0,0,1-47.6,13.66c-16,3-31.93,3.59-48.17,4.49-30.23,6.69-61.07,11.11-91.74,14.69-10,1.17-20.08,2.16-30.13,3q-16.57,1.83-33.19,3.16c-10.84.88-21.66,1.45-32.52,1.83s-21.72-.67-32.58-.85a4.6,4.6,0,0,1-2-.49q-33-.42-65.83-2.92-24.4-1.87-48.66-5c-8.63-1.14-17.25-2.35-25.86-3.68-7.05-1.09-14.21-2-20.89-4.63-13.95-5.52-26.09-21.31-19.44-36.75a21.91,21.91,0,0,1,14.59-12c-.5-14.56,5.4-29.39,13.22-41.57a91.59,91.59,0,0,1,43.11-35.54,333.34,333.34,0,0,1,94.3-82.44C530.39,176,609.61,161.13,686.36,174.4a335.42,335.42,0,0,1,184.76,99.16,23.77,23.77,0,0,1,.66-3.86,11.55,11.55,0,0,1-2.63-4.33c-10.37-30.36,14.36-58.86,31.48-81.26,5.24-6.87,17-7.24,19.56,2.55,4.45,17.19,8.34,34,7,51.87A148.45,148.45,0,0,1,918,279.9c6.79,10.65,8.21,24.92,2.93,36.33C928,323.19,931.18,334.88,933.33,344.3Zm-55.08-9.11a22,22,0,0,1,4.06-1.53,12.74,12.74,0,0,1-5.38-9.91,18.49,18.49,0,0,1,1.28-8.17,52.64,52.64,0,0,0,.39-6.74c-3.93.86-8.29,0-10.88-3.15a313.26,313.26,0,0,0-118-88.09,305.28,305.28,0,0,0-250.23,4.21,315.25,315.25,0,0,0-103.1,77.51Q391,305.5,386,312a17.67,17.67,0,0,1-8.7,6.46c-1.87.72-3.42,1.35-5.21,2.24a71.08,71.08,0,0,0-22.29,17.55c-11.24,13-15.7,29.3-19.77,45.59a7.09,7.09,0,0,1-1.54,6.22.56.56,0,0,0,0,.12c-1.37,5.46-7.1,5.77-10.57,2.92-.72.46-1.23,1-1.24,1.52-.06,4.38,5.62,6.75,9.07,7.94,6.55,2.26,13.76,2.82,20.57,3.75q11.76,1.61,23.56,2.89a1073.32,1073.32,0,0,0,172.3,5.62q42.93-2.18,85.6-7.89c13.65-1.84,27.22-4.1,40.76-6.53,3-.61,6-1.21,9-1.83,42.06-8.76,83.44-19.86,124.67-31.84,5-1.44,8.89.31,11.3,3.37q9.3-4.24,18.37-8.95,10-5.21,19.75-11c6.91-4.11,14-10.35,21.94-12,.19,0,.39-.06.58-.09A17.36,17.36,0,0,1,878.25,335.19Z"/><path class="cls-7" d="M506.53,187.87c-.07-.51-.13-1-.19-1.52-5.24,2-10.36,4.22-15.32,6.63a380.34,380.34,0,0,0-40.72,23.4c.19.11.37.22.57.32l6.94,3.27c2.31,1.1,4.7,2.39,7.18,3.48,3.06,1.11,6.3,1.48,9.29-.27,9.94-5.88,19.88-11.76,29.74-17.67a7.57,7.57,0,0,0,3.83-8.27C507.31,194.15,507,190.93,506.53,187.87Z"/><path class="cls-7" d="M493.34,236.76l-11.16-5.27a6.4,6.4,0,0,1-1.09-.52c-2.67-2.09-3.67-4.56-.19-6.83,6.58-4.22,13.22-8.41,19.79-12.46,3.16-1.93,6-.58,6.47,3,1,7.89,1.8,15.75,2.72,23.68.34,3.16-1.48,4.71-4.6,3.74C500.8,240.7,496.91,238.19,493.34,236.76Z"/><path class="cls-7" d="M570,233.6,562.78,231a6.38,6.38,0,0,1-1.81-1c-2.1-1.72-2.12-3.42.09-5.09,6.12-4.51,12.18-9,18.3-13.53,9.31-6.87,18.59-13.67,27.82-20.56a13.36,13.36,0,0,1,1.7-1.15c2.2-1.2,4.07-.6,5.15,1.71a33.53,33.53,0,0,1,1.51,5.76c.75,3,1.36,6.18,2.18,9.2a7.58,7.58,0,0,1-3,8.59q-13.93,10.2-28,20.34c-2.82,2-6.08,1.95-9.22,1.13C574.89,235.54,572.4,234.48,570,233.6Z"/><path class="cls-7" d="M606.92,247l-11.6-4.22a5.89,5.89,0,0,1-1.13-.41c-2.86-1.84-4.08-4.2-.82-6.78,6.16-4.81,12.38-9.6,18.56-14.24,3-2.21,5.94-1.13,6.72,2.44,1.74,7.77,3.25,15.52,4.89,23.33.63,3.11-1,4.83-4.23,4.15C614.72,250.27,610.61,248.13,606.92,247Z"/><path class="cls-7" d="M488.57,319l-6.94-3.28a6.23,6.23,0,0,1-1.71-1.14c-1.93-1.91-1.8-3.6.56-5.07,6.51-3.91,13-7.86,19.47-11.78,9.9-6,19.77-11.89,29.6-17.9a12.64,12.64,0,0,1,1.8-1c2.3-1,4.1-.23,5,2.17a32.66,32.66,0,0,1,1,5.88c.47,3,.78,6.28,1.32,9.36a7.58,7.58,0,0,1-3.82,8.27Q520,313.4,505,322.21c-3,1.75-6.23,1.39-9.29.27C493.27,321.4,490.88,320.1,488.57,319Z"/><path class="cls-7" d="M524.1,335.79l-11.16-5.27a7.21,7.21,0,0,1-1.09-.51c-2.67-2.1-3.67-4.57-.19-6.84,6.58-4.22,13.22-8.41,19.79-12.46,3.16-1.92,6-.57,6.47,3.05,1,7.89,1.8,15.76,2.72,23.68.34,3.16-1.48,4.72-4.6,3.74C531.56,339.73,527.67,337.23,524.1,335.79Z"/><path class="cls-7" d="M600.75,332.64,593.54,330a6.14,6.14,0,0,1-1.81-1c-2.1-1.72-2.12-3.41.09-5.09,6.13-4.5,12.18-9,18.3-13.53,9.31-6.87,18.59-13.67,27.83-20.56a12.59,12.59,0,0,1,1.69-1.15c2.2-1.2,4.07-.6,5.15,1.72a33.42,33.42,0,0,1,1.51,5.75c.75,3,1.36,6.18,2.18,9.21a7.56,7.56,0,0,1-3,8.58c-9.28,6.8-18.64,13.57-28,20.34-2.82,2-6.08,2-9.22,1.13C605.66,334.58,603.16,333.51,600.75,332.64Z"/><path class="cls-7" d="M637.68,346.07l-11.6-4.22a6.65,6.65,0,0,1-1.13-.41c-2.86-1.84-4.08-4.21-.82-6.79,6.16-4.81,12.39-9.59,18.56-14.24,3-2.2,5.94-1.12,6.72,2.45,1.74,7.76,3.25,15.52,4.89,23.32.63,3.12-1,4.83-4.23,4.15C645.48,349.3,641.37,347.17,637.68,346.07Z"/><path class="cls-7" d="M687.28,233.59l-6.94-3.28a6.55,6.55,0,0,1-1.71-1.14c-1.93-1.91-1.8-3.6.56-5.07,6.51-3.92,13-7.87,19.47-11.78,9.9-6,19.77-11.89,29.6-17.91a15,15,0,0,1,1.8-1c2.3-1,4.1-.22,5,2.18a33.3,33.3,0,0,1,1,5.87c.47,3.06.78,6.28,1.32,9.37a7.58,7.58,0,0,1-3.82,8.27Q718.7,228,703.75,236.79c-3,1.75-6.23,1.38-9.28.27C692,236,689.6,234.68,687.28,233.59Z"/><path class="cls-7" d="M722.81,250.37l-11.16-5.27a6.4,6.4,0,0,1-1.09-.52c-2.67-2.09-3.67-4.56-.18-6.83,6.57-4.22,13.21-8.41,19.79-12.46,3.15-1.93,6-.58,6.46,3.05,1,7.89,1.8,15.75,2.72,23.68.34,3.16-1.48,4.71-4.6,3.74C730.28,254.31,726.38,251.8,722.81,250.37Z"/><path class="cls-7" d="M813.37,221.64,808.83,225c-6.12,4.5-12.17,9-18.3,13.53-2.21,1.67-2.18,3.37-.09,5.09a6.38,6.38,0,0,0,1.81,1l7.22,2.62c2.4.88,4.9,1.95,7.47,2.8,3.15.82,6.41.89,9.22-1.13q8.51-6.16,17-12.32C826.29,231.88,819.34,227.31,813.37,221.64Z"/><path class="cls-7" d="M850.91,250.57a101.76,101.76,0,0,0-14.51-11.78c-4.53,3.44-9.06,6.92-13.55,10.44-3.27,2.58-2,4.94.81,6.78a5.89,5.89,0,0,0,1.13.41l11.61,4.22c3.68,1.1,7.79,3.24,12.38,4.27,3.2.68,4.87-1,4.24-4.15C852.3,257.36,851.61,254,850.91,250.57Z"/><path class="cls-7" d="M718,332.62l-6.94-3.28a6.55,6.55,0,0,1-1.71-1.14c-1.93-1.91-1.8-3.6.56-5.06,6.51-3.92,13-7.87,19.47-11.79,9.9-6,19.77-11.89,29.61-17.9a12,12,0,0,1,1.79-1c2.3-1,4.11-.23,5,2.17a33.57,33.57,0,0,1,1,5.88c.47,3.05.78,6.28,1.32,9.36a7.58,7.58,0,0,1-3.82,8.27q-14.81,8.87-29.75,17.67c-3,1.75-6.23,1.39-9.28.28C722.74,335,720.36,333.71,718,332.62Z"/><path class="cls-7" d="M753.57,349.4l-11.16-5.27a7.21,7.21,0,0,1-1.09-.51c-2.67-2.1-3.67-4.57-.18-6.84,6.57-4.22,13.21-8.41,19.79-12.46,3.15-1.92,6-.57,6.46,3.05,1,7.89,1.8,15.76,2.72,23.68.34,3.16-1.47,4.72-4.59,3.74C761,353.34,757.14,350.84,753.57,349.4Z"/><path class="cls-7" d="M830.23,346.25,823,343.62a6.14,6.14,0,0,1-1.81-1c-2.09-1.72-2.12-3.41.09-5.09,6.13-4.5,12.18-9,18.3-13.53,9.31-6.87,18.59-13.67,27.83-20.56a13.71,13.71,0,0,1,1.7-1.15c2.2-1.2,4.06-.6,5.14,1.72a32.53,32.53,0,0,1,1.51,5.75c.75,3,1.36,6.18,2.18,9.21a7.56,7.56,0,0,1-3,8.58q-13.92,10.2-28,20.34c-2.81,2-6.07,2-9.22,1.13C835.13,348.19,832.63,347.12,830.23,346.25Z"/><path class="cls-7" d="M867.16,359.68l-11.61-4.22a6.65,6.65,0,0,1-1.13-.41c-2.85-1.84-4.07-4.21-.81-6.79,6.15-4.81,12.38-9.59,18.55-14.24,3-2.2,5.94-1.12,6.72,2.45,1.75,7.76,3.25,15.52,4.9,23.32.63,3.12-1,4.83-4.24,4.15C875,362.91,870.84,360.78,867.16,359.68Z"/><path class="cls-7" d="M342.33,403l-6.95-3.28a6.31,6.31,0,0,1-1.71-1.14c-1.92-1.91-1.79-3.59.57-5.06,6.51-3.92,12.95-7.87,19.47-11.79,9.9-6,19.77-11.89,29.6-17.9a13.11,13.11,0,0,1,1.8-1c2.3-1,4.1-.23,5,2.18a32.41,32.41,0,0,1,1,5.87c.48,3,.78,6.28,1.32,9.36a7.56,7.56,0,0,1-3.82,8.27q-14.81,8.86-29.74,17.67c-3,1.75-6.23,1.39-9.29.28C347,405.34,344.64,404.05,342.33,403Z"/><path class="cls-7" d="M377.86,419.74l-11.16-5.28a6,6,0,0,1-1.09-.51c-2.68-2.1-3.68-4.57-.19-6.83,6.57-4.23,13.21-8.41,19.79-12.47,3.16-1.92,6-.57,6.47,3.06,1,7.89,1.8,15.75,2.72,23.68.34,3.15-1.48,4.71-4.6,3.74C385.32,423.68,381.43,421.17,377.86,419.74Z"/><path class="cls-7" d="M454.51,416.58,447.3,414a6.35,6.35,0,0,1-1.81-1c-2.1-1.73-2.12-3.42.09-5.1,6.12-4.5,12.17-9,18.3-13.53,9.3-6.87,18.59-13.66,27.82-20.56a13.28,13.28,0,0,1,1.7-1.14c2.2-1.21,4.06-.61,5.15,1.71a33.66,33.66,0,0,1,1.51,5.75c.75,3,1.35,6.19,2.18,9.21a7.55,7.55,0,0,1-3.05,8.58q-13.92,10.2-28,20.35c-2.82,2-6.08,1.95-9.23,1.13C459.41,418.52,456.92,417.45,454.51,416.58Z"/><path class="cls-7" d="M491.44,430l-11.6-4.22a6.08,6.08,0,0,1-1.13-.41c-2.86-1.84-4.08-4.21-.82-6.79,6.16-4.81,12.38-9.59,18.56-14.23,3-2.21,5.93-1.13,6.72,2.44,1.74,7.76,3.24,15.52,4.89,23.33.63,3.11-1,4.83-4.23,4.15C499.24,433.25,495.13,431.11,491.44,430Z"/><path class="cls-7" d="M571.8,416.56l-6.94-3.28a6,6,0,0,1-1.71-1.14c-1.93-1.91-1.8-3.59.56-5.06,6.51-3.92,13-7.87,19.47-11.79,9.9-6,19.77-11.89,29.6-17.9a13.72,13.72,0,0,1,1.8-1c2.3-1,4.1-.23,5,2.18a32.41,32.41,0,0,1,1,5.87c.47,3.05.78,6.28,1.32,9.36a7.57,7.57,0,0,1-3.82,8.27q-14.81,8.87-29.75,17.67c-3,1.75-6.23,1.39-9.29.28C576.5,419,574.11,417.66,571.8,416.56Z"/><path class="cls-7" d="M607.33,433.35l-11.16-5.28a6.36,6.36,0,0,1-1.09-.51c-2.67-2.1-3.67-4.57-.19-6.83,6.58-4.22,13.22-8.41,19.79-12.47,3.16-1.92,6-.57,6.47,3.06,1,7.89,1.8,15.75,2.72,23.68.34,3.16-1.48,4.71-4.6,3.74C614.79,437.29,610.9,434.78,607.33,433.35Z"/><path class="cls-7" d="M684,430.19l-7.21-2.62a6.64,6.64,0,0,1-1.81-1c-2.1-1.73-2.12-3.42.09-5.1,6.12-4.5,12.18-9,18.3-13.53,9.31-6.87,18.59-13.66,27.82-20.56a14.41,14.41,0,0,1,1.7-1.14c2.2-1.2,4.07-.61,5.15,1.71a33.53,33.53,0,0,1,1.51,5.76c.75,3,1.36,6.18,2.18,9.2a7.58,7.58,0,0,1-3,8.59q-13.93,10.19-28,20.34c-2.82,2-6.08,1.95-9.22,1.13C688.89,432.13,686.39,431.06,684,430.19Z"/><path class="cls-7" d="M719.39,431c5-1.6,9.62-3.56,14.46-5q-.58-2.77-1.21-5.55c-.78-3.57-3.76-4.65-6.72-2.44-6.18,4.64-12.4,9.42-18.56,14.23a5.84,5.84,0,0,0-1.53,1.7A98.42,98.42,0,0,0,719.39,431Z"/><path class="cls-7" d="M364.72,306.08l-7.22-2.62a6.46,6.46,0,0,1-1.8-1c-2.1-1.72-2.13-3.42.09-5.09,6.12-4.51,12.17-9,18.3-13.54,9.3-6.86,18.58-13.66,27.82-20.56a13.63,13.63,0,0,1,1.7-1.14c2.2-1.2,4.06-.6,5.14,1.71a32.64,32.64,0,0,1,1.51,5.76c.76,3,1.36,6.18,2.18,9.2a7.56,7.56,0,0,1-3,8.59q-13.92,10.18-28,20.34c-2.82,2-6.08,1.95-9.23,1.13C369.62,308,367.12,307,364.72,306.08Z"/><path class="cls-7" d="M401.65,319.51l-11.6-4.22a6.45,6.45,0,0,1-1.14-.41c-2.85-1.84-4.07-4.2-.81-6.78,6.15-4.81,12.38-9.6,18.55-14.24,3-2.21,5.94-1.13,6.73,2.44,1.74,7.77,3.24,15.52,4.89,23.33.63,3.11-1,4.83-4.23,4.15C409.44,322.75,405.33,320.61,401.65,319.51Z"/><circle class="cls-7" cx="507.17" cy="496.54" r="28.3"/><circle cx="336.5" cy="519" r="81.9"/><circle class="cls-7" cx="301.7" cy="508.3" r="28.3"/><g class="cls-8"><circle class="cls-9" cx="139.4" cy="744.5" r="139.4"/><path class="cls-7" d="M159.9,647.7a9.29,9.29,0,0,0,2.9.5,78.64,78.64,0,0,1,15.1,4.2,77.3,77.3,0,0,1,23,13.9,96.42,96.42,0,0,1,18.8,21.9q1.35,2.25,2.7,4.8a28,28,0,0,1-9,1.6c-6.6.1-12.8-1.7-18.9-4-2-.8-4-1.8-6-2.5a46.35,46.35,0,0,0-17.1-3.1,3.47,3.47,0,0,1,.9-.6A57.13,57.13,0,0,0,184,673.6a32.66,32.66,0,0,0,4.2-6.9,2.36,2.36,0,0,0-.7-3,17.84,17.84,0,0,0-12.5-4.1,44.12,44.12,0,0,0-16,3.8,6.12,6.12,0,0,0-1.2.5c-.1-.3.1-.5.1-.7a27.43,27.43,0,0,0,1.9-9.7,25,25,0,0,0-.5-5.5A.6.6,0,0,1,159.9,647.7Z"/><path class="cls-7" d="M134.2,841.3c.1-.4.5-.1.7-.1h7.2c.2,0,.4-.1.6-.1,0,.2.4,0,.3.3C140,841.3,137.1,841.3,134.2,841.3Z"/><path class="cls-7" d="M117.6,651.8c.4,3.6.7,7.1,1.1,10.6,0,.3,0,.6.3.7s.6-.2.8-.4a55.63,55.63,0,0,1,8.4-7.7,38.39,38.39,0,0,1,17.4-7,37.86,37.86,0,0,1,8.9-.1c.4.1.6.2.6.6a23.58,23.58,0,0,1-5,19.3c-1.9,2.4-4,4.7-5.9,7a1.38,1.38,0,0,0-.3.4.22.22,0,0,0,.2.4l.6-.3c5-2.6,9.7-5.4,14.9-7.6a45,45,0,0,1,12.5-3.7c3.6-.4,7.1-.4,10.4,1.4,1.1.6,1.1.6.5,1.6a37.11,37.11,0,0,1-6.3,7.9,74.56,74.56,0,0,1-21.3,13.9c-.4.2-1.2.2-1.1.8s.8.4,1.2.6a90.5,90.5,0,0,1,12.5,3.9,33.3,33.3,0,0,1,10.5,6.8,10.13,10.13,0,0,1,2.2,2.9,32.42,32.42,0,0,1-6.9,2.1c-7.8,1.4-15.1-.1-22.3-3.2a52.74,52.74,0,0,1-9.4-5.8c-.4-.3-.9-.6-1.3-.9-.2-.1-.4-.5-.7-.3s.1.5.1.7c2.2,5,4.3,10.1,6.5,15.1,2.5,6,5.3,11.9,7.4,18.1.1.1.1.4.2.7-1.1-.6-2.1-1.1-3-1.7a67.25,67.25,0,0,1-22.5-22.5c-.6-1.1-1.3-2.3-1.9-3.4-.5-.9-.9-1-1.7-.4-6.6,5.2-13.1,10.4-19.6,15.6-4.5,3.6-9.3,7-14.1,10.4-1.9,1.4-4.2,1.5-6.6,1.4a8.49,8.49,0,0,1-2.4-.5,2.28,2.28,0,0,1-1.7-2.9,3.36,3.36,0,0,1,.5-1.4c3.5-5.3,5.1-11.2,6.6-17.3a128.77,128.77,0,0,0,2.6-15.1,60.6,60.6,0,0,1,2.4-12.7A43.21,43.21,0,0,1,103,662.5a44.85,44.85,0,0,1,14-10A1.41,1.41,0,0,1,117.6,651.8Zm-16.9,37.1a2.81,2.81,0,0,0-3-2.9,2.84,2.84,0,0,0-2.9,2.9,3,3,0,0,0,2.9,3A2.78,2.78,0,0,0,100.7,688.9Zm9.8,0a3,3,0,1,0,5.9,0,3,3,0,0,0-5.9,0Z"/><path class="cls-7" d="M156.5,756.6a29.17,29.17,0,0,1-3.1-1.4,74.59,74.59,0,0,0-8-4,27.75,27.75,0,0,0-12.1-1.9,40.76,40.76,0,0,0-6.9.9c-.4.1-.6,0-.7-.4a11.4,11.4,0,0,0-1.8-3c-.3-.4-.5-.4-.9-.2-3.6,1.8-7.2,3.5-10.9,5a146.74,146.74,0,0,1-25.6,7.5,20.87,20.87,0,0,1-4.3.4,2.43,2.43,0,0,1-2.4-1.7,2.49,2.49,0,0,1,1.4-2.9c1.4-.6,2.8-1,4.2-1.6a31.54,31.54,0,0,0,9.9-6.1c5.1-4.7,8.8-10.4,12.2-16.3,1.9-3.4,3.5-6.9,5.4-10.2a36.36,36.36,0,0,1,8.6-9.7c1.1-.9,2.2-1.7,3.2-2.6.3-.3.5-.3.7.1A84.68,84.68,0,0,0,142,727.2a59.67,59.67,0,0,0,13.3,8.4,1.76,1.76,0,0,1,1,1.2,35.68,35.68,0,0,1,1.2,8.6,51.89,51.89,0,0,1-.8,11.1C156.6,756.3,156.5,756.4,156.5,756.6Z"/><path class="cls-7" d="M168.3,689.4a39.87,39.87,0,0,1,11.5.6,42.53,42.53,0,0,1,10.9,3.7,11.41,11.41,0,0,1,2.8,2.1,36.24,36.24,0,0,1,11.7,20.1,54.91,54.91,0,0,1,1.3,10.7c0,.4-.1.5-.4.6a63.34,63.34,0,0,1-20.9,8,44.51,44.51,0,0,1-14.1.4,46,46,0,0,1-10.9-2.8c-.3-.1-.6-.2-.7-.6-1.5-6.3-4.3-12-6.8-17.9-1.1-2.6-2.2-5.1-3.2-7.6.3-.1.4.1.6.1a42.85,42.85,0,0,0,14,3.8,37.66,37.66,0,0,0,20.6-3.8,2,2,0,0,0,1.1-2.7,17.29,17.29,0,0,0-4.5-6.6,39.3,39.3,0,0,0-11.7-7.6C169.2,689.7,168.8,689.6,168.3,689.4Z"/><path class="cls-7" d="M111.9,791.9a2.89,2.89,0,0,1-3.1-1.8c-3.5-7.3-7.1-14.7-10.5-22.1a30.49,30.49,0,0,1-2.2-5.7A1.69,1.69,0,0,1,97,760a7.07,7.07,0,0,1,6.6-.6,23.94,23.94,0,0,1,8.4,5.3c.5.4.9,1.3,1.5,1.2.4-.1.7-1,1-1.6a21.54,21.54,0,0,1,15.7-10.9,25.11,25.11,0,0,1,14.8,2.2c2.3,1.1,4.5,2.3,6.7,3.5a17.3,17.3,0,0,0,3.1,1.4c.3.1.4.2.3.6-1.4,3.2-2.7,6.4-4.3,9.4A34.49,34.49,0,0,1,139,782.7a60.93,60.93,0,0,1-22.3,8.4c-.9.1-1.7.3-2.5.4A6.56,6.56,0,0,1,111.9,791.9Z"/><path class="cls-7" d="M206.7,731.8c.1,2.1.1,4,.1,6a58.7,58.7,0,0,1-1.6,13.9c-1.9,6.7-6,10.3-12.9,11.5a46.91,46.91,0,0,1-16.7-.8c-4.4-.9-8.6-2.2-12.9-3.5a.76.76,0,0,1-.6-.8,76,76,0,0,1-.4-10.7,44.73,44.73,0,0,0-1-9.6c0-.1,0-.1.1-.2C177,742.9,192.2,739.8,206.7,731.8Z"/><path class="cls-7" d="M210.4,746.8a33.43,33.43,0,0,0,3.7,6.4,21.22,21.22,0,0,0,14.5,8.8,20.55,20.55,0,0,0,3.5.2c.5,0,.6.1.5.6a102.12,102.12,0,0,1-5.3,17.9,100.32,100.32,0,0,1-8.6,16.6c-.2.4-.4.4-.8.3a10.28,10.28,0,0,1-5.6-4,21.57,21.57,0,0,1-3.9-9.5,58.75,58.75,0,0,1-.9-15.1,87.59,87.59,0,0,1,.9-10.3c.4-2.4.9-4.8,1.4-7.2C210,750.1,210.2,748.5,210.4,746.8Z"/><path class="cls-7" d="M162.9,763.5c1.6.4,3,.9,4.5,1.3a76.4,76.4,0,0,0,16.4,3,31.08,31.08,0,0,0,15.1-2.1c1.1-.5,2-1.2,3.2-1.8a32.54,32.54,0,0,1-1.7,5,57.66,57.66,0,0,1-8.5,15.6,31.67,31.67,0,0,1-10.4,8.9c-3,1.5-5.5,1.1-8-1.2a23.08,23.08,0,0,1-5.3-8.4,84.36,84.36,0,0,1-4.8-17C163.3,765.9,163.1,764.8,162.9,763.5Z"/><path class="cls-7" d="M137.4,818.9c-1.2,1.1-2.4,2.1-3.4,3.2a28.37,28.37,0,0,0-7.1,12.5,18.82,18.82,0,0,0-.7,5.3c0,.4-.1.5-.5.5a92.69,92.69,0,0,1-15.8-3.5A90.82,90.82,0,0,1,91,828.7c-1.7-.9-3.2-1.9-4.9-3a30.3,30.3,0,0,1,4.1-3.2,35.62,35.62,0,0,1,14.9-5,43.47,43.47,0,0,1,11.4-.1c2.7.4,5.4.8,8.1,1a82.54,82.54,0,0,0,12.2.3h.5A.31.31,0,0,0,137.4,818.9Z"/><path class="cls-7" d="M189.7,793.4c-.6,1.9-1.2,3.7-1.6,5.5a43.24,43.24,0,0,0-1.2,9.4,19.53,19.53,0,0,0,2.2,9.5,14.11,14.11,0,0,0,4.4,5c.4.4.5.5,0,.9a98.65,98.65,0,0,1-26.4,13.1c-.3.1-.5.3-.7-.2a23.55,23.55,0,0,1,.7-23.5,41.1,41.1,0,0,1,12.2-12.7c3.3-2.3,6.8-4.3,10-6.8C189.3,793.5,189.5,793.5,189.7,793.4Z"/><path class="cls-7" d="M142.6,841a1.27,1.27,0,0,1-.6.1h-7.2c-1.2-.2-2.3-.2-3.5-.3-.6,0-.9-.2-.9-.9a19.45,19.45,0,0,1,3-9.9,39.46,39.46,0,0,1,13-12.7,134.64,134.64,0,0,1,16.1-8.1,24.43,24.43,0,0,1,2.4-1c-.7,1.2-1.4,2.2-2.1,3.4a26.88,26.88,0,0,0-1.2,25.5c.5,1,.4,1-.6,1.2A80.14,80.14,0,0,1,142.6,841Z"/><path class="cls-7" d="M210.4,719.1a39,39,0,0,0,7.8,6.9,20.17,20.17,0,0,0,12.2,3.4,17.48,17.48,0,0,0,2.4-.3c.4-.1.4.1.4.4.1,1.8.4,3.6.5,5.4a136.51,136.51,0,0,1,.3,14.3c-.1,2.7-.3,5.5-.6,8.2-.1.4-.1.5-.5.5a17.92,17.92,0,0,1-10.6-2.7A19.83,19.83,0,0,1,216,748a39.64,39.64,0,0,1-4.3-13.8A87.39,87.39,0,0,1,211,724c-.1-1.3-.2-2.6-.4-3.9A1.64,1.64,0,0,1,210.4,719.1Z"/><path class="cls-7" d="M203,774.7c.1,1.7.2,3.2.4,4.8.6,5.5,1.6,10.8,4.6,15.6a15.88,15.88,0,0,0,7.6,6.4c.1.1.2.1.4.1-1.3,1.9-2.7,3.5-4.1,5.3a94.32,94.32,0,0,1-13.6,13.2c-.4.3-.6.3-.9.1a11.41,11.41,0,0,1-5.5-8.8c-.7-5.3.4-10.4,1.9-15.4a80.76,80.76,0,0,1,5.8-13.5c1.2-2.2,2.3-4.5,3.3-6.8A.77.77,0,0,1,203,774.7Z"/><path class="cls-7" d="M148.7,780.8c-.5,1.9-.9,3.8-1.3,5.8a49.86,49.86,0,0,0-1.1,13.3c.3,3.7,1.1,7.2,3.5,10.2.3.4.2.5-.1.6a33.94,33.94,0,0,1-9.3,3.1,58.69,58.69,0,0,1-14.5.4c-1.2-.1-2.4-.2-3.6-.4-.4,0-.6-.1-.5-.6a25.49,25.49,0,0,1,4.2-11,55.79,55.79,0,0,1,12.3-12.9,101,101,0,0,0,10-8.4C148.4,780.8,148.5,780.8,148.7,780.8Z"/><path class="cls-7" d="M126.8,793.8c-.1.4-.4.6-.6.9a39.41,39.41,0,0,0-7.4,12.5,24,24,0,0,0-1.2,5.3c-.1.6-.3.6-.7.5a118.56,118.56,0,0,1-11.8-2.7,54.52,54.52,0,0,1-10.4-4,23.27,23.27,0,0,1-8.4-7.5,72,72,0,0,1-5.3-8.9c0-.1,0-.1-.1-.2.2-.1.4.1.5.1A61.13,61.13,0,0,0,98,795.3a67,67,0,0,0,14.8.9,61.52,61.52,0,0,0,13.5-2.3.9.9,0,0,1,.5-.1Z"/><path class="cls-7" d="M82.1,800.6a38.83,38.83,0,0,0-4.5-.8c-5.3-.4-10.1.6-14,4.4-.4.4-.5.4-.9,0a103,103,0,0,1-14.5-25.9c-.2-.5-.1-.6.4-.7,8.9-1.2,16.9.9,23.3,7.3a23.16,23.16,0,0,1,4.9,6.7,63,63,0,0,0,4.8,8.4A1.33,1.33,0,0,1,82.1,800.6Z"/><path class="cls-7" d="M201.4,697.3c2.1.5,4,.9,6,1.2a37.16,37.16,0,0,0,15.2-.9.75.75,0,0,1,.5-.1c1.3-.4,1.3-.4,1.9.9a107.32,107.32,0,0,1,4.2,11.2,105.87,105.87,0,0,1,3.4,14.8c.1.4,0,.6-.4.6-4.4.9-8.3-.4-11.9-2.7-4.2-2.8-7.3-6.5-10.2-10.6a56.59,56.59,0,0,1-4.1-7.1,39.1,39.1,0,0,0-4-6.3C201.7,697.8,201.6,697.6,201.4,697.3Z"/><path class="cls-7" d="M158.7,764.7c.5,3.4,1.2,6.6,1.9,9.8a62.61,62.61,0,0,0,5.9,15.8,19.8,19.8,0,0,0,6.4,7.1,5.94,5.94,0,0,0,.8.4,2.51,2.51,0,0,1,.7.4c-.1.3-.4.4-.7.5-6.1,3.5-12.3,6.6-18.7,9.6a.82.82,0,0,1-1.2-.3c-1.8-1.7-2.5-3.9-3-6.3a33.85,33.85,0,0,1,.2-11,114.48,114.48,0,0,1,7.2-25.1A7.26,7.26,0,0,0,158.7,764.7Z"/><path class="cls-7" d="M100.9,813.6A51.62,51.62,0,0,0,93,816a33.15,33.15,0,0,0-10,6.5c-.4.4-.6.4-1.2.1a100.08,100.08,0,0,1-13.3-11.9,25,25,0,0,0-2.2-2.4c-.4-.4-.2-.5.1-.8a10.6,10.6,0,0,1,6.8-3.2,23.56,23.56,0,0,1,10.5,1.5,46.28,46.28,0,0,1,7.1,3.4,40.67,40.67,0,0,0,9.1,4A1.78,1.78,0,0,1,100.9,813.6Z"/><path class="cls-7" d="M61.7,773.9c-1.2-.1-2.4-.4-3.6-.6a32.88,32.88,0,0,0-8.3-.1,25.12,25.12,0,0,0-2.7.4c-.4.1-.5-.1-.6-.4a73.79,73.79,0,0,1-2.2-8.4A89,89,0,0,1,42.4,747c0-.9,0-.9.8-.6a10.08,10.08,0,0,1,4.7,3.5,22.83,22.83,0,0,1,3.9,7.6,51.18,51.18,0,0,0,7.1,13c1,1,1.8,2.2,2.8,3.4Z"/><path class="cls-7" d="M45.7,721.2a7.2,7.2,0,0,1,2.1,3.8,16.1,16.1,0,0,1,0,4.9,40.19,40.19,0,0,0,.1,10.4c.1,1.2.3,2.3.5,3.6a10.73,10.73,0,0,0-5.4-2.3c-.3-.1-.4-.2-.4-.5A85.81,85.81,0,0,1,45.7,721.2Z"/></g><path d="M222.78,628a4,4,0,0,1-4-3.74l-1.06-16.86-12.87.81c-1.24.08-2.22.14-3.11.14a7.52,7.52,0,0,1-5.11-1.58c-2.16-1.86-2.31-4.41-2.53-7.93l-.67-10.61-17,1.07h-.26a4,4,0,0,1-4-3.74l-2.3-36.48-16.86,1.06h-.25a4,4,0,0,1-4-3.75l-1.49-23.53a4,4,0,0,1,3.75-4.25l639-40.3h.26a4,4,0,0,1,4,3.75l1.24,19.65,52.8-3.33h.25a4,4,0,0,1,4,3.74l1.58,25.07a4,4,0,0,1-3.74,4.24l-57.49,3.62h-.25a4,4,0,0,1-4-3.75l-1.26-20L685.3,517.75l.88,14a4,4,0,0,1-3.74,4.24L665.37,537l1.09,17.25a4,4,0,0,1-3.74,4.24l-17.49,1.11,1,16.63a4,4,0,0,1-3.74,4.24l-17.26,1.09,1.07,17a4,4,0,0,1-3.74,4.25l-125.42,7.91h-.25a4,4,0,0,1-4-3.74l-1.06-16.76-18.77,1.18h-.25a4,4,0,0,1-4-3.75L467.82,571l-17.22,1.09h-.26a4,4,0,0,1-4-3.75l-2.49-39.48L411,531l2.48,39.36a4,4,0,0,1-3.74,4.24l-17.4,1.1.95,15.06a4,4,0,0,1-3.74,4.24l-17,1.07,1.16,18.44a4,4,0,0,1-3.74,4.24L223,628Z"/><path class="cls-7" d="M790.3,482.31,791.79,506l56.79-3.59,1.58,25.07-57.49,3.62-1.51-24L681.06,514,682.19,532l-21.07,1.33,1.34,21.24L641,555.88l1.3,20.62L621,577.84l1.32,21-.37,0-125,7.88L495.62,586l-22.76,1.44-1.3-20.63-21.21,1.34-2.74-43.47-40.89,2.58,2.74,43.35-21.4,1.35,1.21,19-21,1.32,1.42,22.43-.38,0L222.78,624l-1.31-20.85-16.86,1.06c-1.16.08-2.1.14-2.86.14a3.66,3.66,0,0,1-2.49-.61c-.89-.76-1-2.23-1.16-5.15-.23-3.61-.46-7.21-.69-11l-.23-3.66-21,1.32-2.55-40.46-20.85,1.31-1.48-23.54.37,0,638.6-40.28m0-8-.51,0L151.2,514.61l-.37,0a8,8,0,0,0-7.49,8.49l1.49,23.53a8,8,0,0,0,8,7.5h.5l12.87-.82,2,32.49a8,8,0,0,0,8,7.49h.51l13-.82c.14,2.22.28,4.42.41,6.62.24,3.81.49,7.75,3.92,10.71a11.39,11.39,0,0,0,7.72,2.55c1,0,2.1-.07,3.36-.15l8.88-.56.81,12.87a8,8,0,0,0,8,7.5l.51,0,146.54-9.24.37,0a8,8,0,0,0,7.48-8.49l-.91-14.44,13-.82a8,8,0,0,0,7.48-8.48l-.7-11.07,13.41-.85a8,8,0,0,0,7.48-8.48l-2.23-35.37,24.92-1.58,2.23,35.49a8,8,0,0,0,8,7.5l.51,0,13.23-.83.8,12.64a8,8,0,0,0,8,7.5l.5,0,14.78-.93.8,12.77a8,8,0,0,0,8,7.49h.5l125-7.89.38,0a8,8,0,0,0,7.48-8.49l-.82-13,13.28-.84a8,8,0,0,0,7.48-8.48l-.8-12.64,13.5-.85a8,8,0,0,0,7.48-8.49l-.84-13.26,13.08-.83a8,8,0,0,0,7.49-8.49l-.63-10,94.13-5.93,1,16a8,8,0,0,0,8,7.49h.5l57.49-3.63a8,8,0,0,0,7.48-8.49l-1.58-25.06a8,8,0,0,0-8-7.5l-.51,0-48.8,3.08-1-15.66a8,8,0,0,0-8-7.5Z"/><path class="cls-10" d="M793,530.67l-1.51-24-110.85,7,1.13,17.94-21.06,1.33,1.34,21.24-21.49,1.36,1.3,20.62-21.26,1.34,1.33,21-124.67,7.87L496,585.59,473.21,587l-1.3-20.63-21.21,1.34L448,524.26l-41.63,2.63,2.73,43.35-21.39,1.35,1.2,19-21,1.32,1.41,22.43-146.17,9.22-1.31-20.86-17.23,1.09c-5.77.36-5.77.36-6.12-5.28-.3-4.88-.61-9.76-.94-15l-21,1.33L174,544.44l-20.85,1.31L151.72,523,790,482.71l1.49,23.64,56.79-3.58,1.53,24.32ZM255.55,559.14l-1.24-19.63-19.46,1.22,1.23,19.65L215.4,561.9l-1.26-20-19,1.2,1.26,19.95,19.06-1.2,1.23,19.44L237,580l1.24,19.72L258,598.48c-.43-6.79-.84-13.32-1.25-19.85l19.9-1.48L278,597.3l19.3-1.22L296,576c-6.65.42-13,.82-19.41,1.24L275.31,558,295,556.72,293.74,537l-19.59,1.24c.43,6.84.84,13.35,1.24,19.84Zm254.28-16L490,544.45l-1.25-19.8-19.61,1.24,1.25,19.71,19.71-1.25,1.23,19.48,19.7-1.24,1.26,19.93,19.47-1.23-1.25-19.93,20.24-1.28L552,580l19.42-1.23L570.2,558.9l-19.48,1.22-1.23-19.51-20.18,1.27-1.24-19.73-19.48,1.22Z"/><path class="cls-11" d="M215.4,561.9l20.68-1.52-.14-.1L237.18,580l19.68-1.24-.08-.09L258,598.48l-19.78,1.25L237,580l-20.33,1.28-1.23-19.44Z"/><path class="cls-11" d="M529.31,541.88l20.18-1.27,1.23,19.51,19.48-1.22,1.25,19.84L552,580l-1.25-19.89-20.24,1.28.12.1q-.61-9.84-1.24-19.69Z"/><path class="cls-11" d="M276.59,577.25,296,576l1.27,20.06L278,597.3l-1.27-20.15Z"/><path class="cls-11" d="M530.54,561.36l1.25,19.93-19.47,1.23c-.43-6.76-.84-13.34-1.26-19.93l-.08.11,19.68-1.24Z"/><path class="cls-11" d="M490.12,544.35l-19.7,1.25-1.25-19.71,19.61-1.24,1.25,19.8Z"/><path class="cls-11" d="M215.45,561.85l-19.06,1.2-1.26-19.95,19-1.2c.42,6.73.84,13.36,1.26,20Z"/><path class="cls-11" d="M275.4,558l-1.25-19.85L293.74,537,295,556.72,275.3,558Z"/><path class="cls-11" d="M509.83,543.11l-1.24-19.74,19.48-1.22q.61,9.87,1.24,19.73l.11-.11L509.74,543Z"/><path class="cls-11" d="M236.08,560.38l-1.23-19.65,19.46-1.22q.62,9.78,1.24,19.63l.07-.09-19.68,1.23Z"/><path class="cls-11" d="M276.68,577.15l-19.9,1.48.08.09-1.24-19.67-.07.09L275.4,558l-.1-.07q.65,9.66,1.28,19.29Z"/><path class="cls-11" d="M490,544.45l19.8-1.34-.09-.09q.61,9.84,1.24,19.68l.08-.11-19.7,1.24c-.42-6.58-.83-13-1.24-19.48Z"/><path class="cls-10" d="M255.62,559.05l1.24,19.67L237.18,580l-1.24-19.68Z"/><path class="cls-10" d="M511,562.7q-.62-9.84-1.24-19.68l19.68-1.25q.62,9.84,1.24,19.69Z"/><path class="cls-5" d="M446.1,577c2.9,10.3,3.4,21.9,2.6,32.6-19.4,5.8-38.7,5.9-58.8,2.4-11.4-1.9-22.4-5.6-33.3-9.5-5.6-2-11-4-16.4-6.4-2.7-1.2-5.8-2.8-8.9-4,3.3-.5,6.6-1.5,9.8-2.2,4.5-1.1,9.1-2.2,13.5-3.6a239,239,0,0,0,28.2-10.5A215.56,215.56,0,0,0,408,562.6c7.5-4.4,15.3-9.1,21.8-15,.6,2,2.2,3.3,3.4,5,1.9,2.5,3.7,5,5.5,7.7A59.23,59.23,0,0,1,446.1,577Z"/><path d="M452.4,575.6a120.1,120.1,0,0,0-10.1-17.3,56.26,56.26,0,0,0-5.8-7.3c-1.5-1.7-3.1-3.8-5.4-4.5l.3-.3c.3-.3-.1-.8-.5-.6-2.3,1.1-4.5,2.4-6.8,3.7-5.9,3.4-11.5,7.2-17.4,10.4a261,261,0,0,1-26.8,12.5c-8.6,3.5-17.5,6.6-26.3,9.3-4.4,1.4-9,2.6-13.4,3.7-4.6,1.1-9.8,1.7-14.2,3.3a2.32,2.32,0,0,0-1.4,1.5v.2a2.1,2.1,0,0,0,1.3,2.4c3.6,3.7,9.9,6.1,14.3,8.5,5.1,2.7,10.2,5.6,15.4,8.1.4.2.9.4,1.4.6A199.84,199.84,0,0,0,389.6,622c20.7,5.7,44.9,6.6,65-1.9,2.6-.2,5-2.1,5.4-6a71.49,71.49,0,0,0-1.4-20.1C457.6,587.4,455.3,581.6,452.4,575.6Zm-62.3,36.5c-11.4-1.9-22.4-5.6-33.3-9.5-5.6-2-11-4-16.4-6.4-2.7-1.2-5.8-2.8-8.9-4,3.3-.5,6.6-1.5,9.8-2.2,4.5-1.1,9.1-2.2,13.5-3.6A239,239,0,0,0,383,575.9a215.56,215.56,0,0,0,25.2-13.2c7.5-4.4,15.3-9.1,21.8-15,.6,2,2.2,3.3,3.4,5,1.9,2.5,3.7,5,5.5,7.7a61.69,61.69,0,0,1,7.3,16.6c2.9,10.3,3.4,21.9,2.6,32.6C429.4,615.5,410.1,615.5,390.1,612.1Z"/><g class="cls-8"><path d="M934.2,601c13-61,8-121.9-9.3-181.4-1-3.4-2.3-7.3-5.6-8.7-7.6-3.3-11.9,8.7-11.8,17.1.6,81.4-38.5,172.6-88.1,234.6-46.9,58.8-113.7,112.5-191.5,124.5-8.5,1.3-17,2.4-25.6,2s-16.9-3.4-24.8-6.3c-8.6-3-17.4-5.9-25.6-9.6-7.9-3.6-13.6-9.9-15.3-18.5-.2-.9-1.5-.6-1.5.3a28.25,28.25,0,0,0,1.5,10c.2.5.3,1,.5,1.5-.1.3-.2.6-.3,1-.8,15.3,10,25.8,23,33.9h-3.6c-86.5-.5-172.2-39.8-229-105.1-2.7-3.1-9.1-5.7-9.9-1.6-.3,1.6.8,3.1,1.8,4.4,20.7,25.7,39.1,56.5,62.3,79.6,10.2,12.7,21.9,24.3,35.7,33,14.3,9,30.5,15.1,46.3,21,1.2.9,2.4,1.7,3.6,2.5a118.85,118.85,0,0,0,15.9,9.1,292.83,292.83,0,0,0,35.9,14.5c24.3,8.2,49.8,12.4,75.3,14.3,116.6,9,217.7-42,282.9-139.4,26.1-39.2,45.8-82.8,56.1-128.7A21.07,21.07,0,0,0,934.2,601Z"/></g><path class="cls-12" d="M341.9,598.2c4.1,3,7.9,2.4,11.7,5.9a120.81,120.81,0,0,1,15.1,6.9,126.81,126.81,0,0,0,35.8,7.8c17.1,1.2,33.8-2,50.8-3.8.7-4.1,1.1-8.3,2-12.3A29.18,29.18,0,0,0,455,598a.82.82,0,0,0-1-.4c-.2-.5.1-6.9-.1-7.4-1-2.3-.7-2.4-2.6-1.8-12.3,3.8-24.5,8.5-37.4,10.6-17.8,3-35.8,1.5-53.5-1.3-9.2-1.5-19.4-3.4-28.2-7.5.7,1.5-3.1,1.3-2.2,2.6,3.1,1.7,10.6,5.6,13.3,8a5.55,5.55,0,0,1,.8.6c-1.3-2.2-1.5-2.3,0-.3C345.7,602.7,341.6,598,341.9,598.2Z"/><g class="cls-8"><path d="M801.05,460.56h-10.2a8.42,8.42,0,0,1-2.7-.4c-3.4-1.2-4.2-3.3-2.2-6.4,5.6-8.4,11.1-16.8,16.7-25.2,8.5-12.8,17-25.5,25.4-38.3a17.68,17.68,0,0,1,1.6-2.2c2.2-2.5,4.8-2.6,7.2-.2a44,44,0,0,1,4.5,6.5c2.3,3.4,4.5,7.1,6.9,10.5a10.05,10.05,0,0,1,.1,12.1q-12.75,19.05-25.7,38.1c-2.6,3.8-6.7,5.2-11,5.6C808.05,460.76,804.45,460.56,801.05,460.56Z"/><path d="M853.25,460.56h-16.4a8.55,8.55,0,0,1-1.6,0c-4.4-1-7-3.4-4.1-8.1,5.5-8.8,11.1-17.6,16.7-26.2,2.7-4.1,6.9-4.1,9.5,0,5.7,8.9,11.1,17.9,16.7,26.9,2.2,3.6.9,6.5-3.4,7.1C864.45,461.06,858.35,460.26,853.25,460.56Z"/></g><path d="M306.27,415.87c-1.39-4.32-2.38-8.75-3.45-13.16-.85-3.51-1.57-7.31-.9-10.91a14,14,0,0,1,4-7.59c2.38-2.15,5.49-3.22,7.71-5.64,1.61-1.75,1.91-4.78,0-6.5-9.5-8.54-21,4-23.93,12.81a29.71,29.71,0,0,0-.08,17.07c1.81,6.56,5.65,11.49,9.52,16.91,2.4,3.36,8.56,1.5,7.11-3Z"/><path d="M315.73,372.4c1.23-15.51,8.32-32.19,18.16-44.15,10-12.13,22.19-19.1,36.69-24.53,8.34-3.12,5.18-15.32-3.71-13.45-17.13,3.59-33.65,15.64-44.18,29.35a79.51,79.51,0,0,0-12.64,24.16,74.22,74.22,0,0,0-2.9,13.73c-.63,5.11-.24,9.8.05,14.89.32,5.52,8.1,5.46,8.53,0Z"/><path d="M370.17,295.42c16-13.12,30.47-28.19,46.26-41.63a341.4,341.4,0,0,1,47.74-34.13,321.87,321.87,0,0,1,106.4-39.25,316.12,316.12,0,0,1,211.6,36.17c17.24,9.79,33.19,21.11,48.76,33.33a305.37,305.37,0,0,1,23.25,20.17c7.38,7.09,14,14.92,21.55,21.83,5.12,4.69,13.45-1.26,9.79-7.56-9.33-16.09-23.83-30.16-37.23-42.9-13.67-13-29.12-24.29-45-34.35a329.73,329.73,0,0,0-103.89-42.6c-78.12-17.39-161.17-4.72-231.26,33.71a318.33,318.33,0,0,0-56.31,39.5c-17.75,15.51-35.2,32.92-47.57,53.11-2.39,3.9,2.8,7.19,6,4.6Z"/><path d="M302,426.63c6,2,11.56,4.62,17.41,7s11.82,3.73,17.79,5.38c11.61,3.19,23.38,5.82,35.22,8a638.3,638.3,0,0,0,73.2,8.61c48.75,3.18,97.81,1.24,146.36-3.81a1381.78,1381.78,0,0,0,145.11-23.49c20.25-4.32,40.4-9.15,60.14-15.43s39.86-13.84,57.55-25c19.29-12.13,37.63-26.78,52.39-44.2,6.91-8.15,13.17-20.18,7.86-30.77-4.88-9.75-16.67-13.89-25.28-6.34-5.45,4.78,1.5,11.75,7.16,9.28,2.15-.95,5.75,1.78,7,3.31,3,3.74,1.51,8.15-.61,12-4.73,8.54-13.23,15.38-20.66,21.52-14.71,12.12-31.71,20.62-49.1,28.22-35.08,15.33-72.28,24.54-109.66,32.27-88.36,18.27-178.61,29.65-269,25.26a693.26,693.26,0,0,1-75.15-7.61q-18.37-2.93-36.65-6.25c-6.1-1.12-12.13-2.68-18.26-3.66-6.88-1.1-13.56-1.57-20.33-3.38-5.92-1.58-8.28,7.24-2.51,9.13Z"/><path d="M896.91,308a23.7,23.7,0,0,0-4.18-15.43c-3.43-4.71-9.19-10.3-15.34-7.08-2.34,1.23-3,4-2.58,6.36.73,4,5,5.26,7.39,8.18a13.75,13.75,0,0,1,3.27,8c.41,7.39,10.89,7.33,11.44,0Z"/><path d="M331.14,398.44c17.5,2.68,34.9,5.78,52.6,7,18.13,1.27,36.32,1.84,54.5,1.92a975.78,975.78,0,0,0,108-5.84c35.67-3.81,71.25-9,106.43-16,35.66-7.1,71-16.08,106.24-25.08,39.54-10.1,79.4-20.36,117.8-34.25a2.53,2.53,0,0,0-1.35-4.88c-35.24,7.56-70,17.59-105,26.2q-52.2,12.86-105.05,22.43c-70.46,12.69-141,22.69-212.72,24.55q-30.12.78-60.24-.44c-20-.83-40.23-1.08-60.2-2.94-4.17-.39-5.19,6.73-1,7.37Z"/><path d="M363.57,304.22c32.77,22.16,74,23.32,112.24,25.07,42.38,1.93,85.13,2,127.44-1.29,11.87-.93,23.68-2.21,35.49-3.71,12-1.52,24.22-2.7,35.94-5.66,6.36-1.61,4.85-11.07-1.52-11.23-10.47-.27-21,.73-31.47,1.21-10.18.47-20.37.73-30.55,1.18-20.72.9-41.48,1.6-62.21,1.95-40.12.68-80.76.29-120.75-3.35-20.1-1.83-41.05-4.4-59.69-12.59-5.67-2.49-10.22,4.84-4.92,8.42Z"/><path d="M792,313.88c7.48-2.27,15.67-3.35,23.42-4.26s15.36-2.09,23.14-2.63c7.47-.52,14.93-.78,22.42-.58,7.72.21,16.25,1.88,23.83.39,4.46-.88,5.53-8.07,1.31-10-6.88-3.22-15.76-3.25-23.27-3.41a193,193,0,0,0-25.22,1c-7.85.86-16.13,1.81-23.73,4-8.15,2.35-15.88,5.56-23.89,8.28-4.53,1.54-2.67,8.65,2,7.24Z"/><path d="M876.3,271.09c1.19-7.25,9.75-8.71,15.1-5.2,7,4.56,6.09,13.09,10.68,19.15,1.33,1.75,4.09,2.73,5.82.75,9.87-11.28-2.12-29.4-13.83-33.85a22.61,22.61,0,0,0-19,1.16c-6.42,3.6-8.95,9.52-9.79,16.49-.75,6.24,10,7.75,11,1.5Z"/><path d="M910.06,286c5-4.64,7.09,10.8,7,12.74a33.07,33.07,0,0,1-1.9,9.51c-1.11,3.3-3.11,6.07-3.88,9.5-.91,4.08,3,6.55,6.54,5,11.49-5,13.3-23.49,10.39-33.95-1.53-5.5-4.55-10.73-9.89-13.25s-11.92-1.55-15.58,3.13c-4,5.11,2.28,11.91,7.29,7.29Z"/><path d="M886,274.64a115.67,115.67,0,0,1,.46,13.42c0,4.13-.65,8.33.23,12.37.65,3,4.82,2.58,5.69,0,2.71-8-.42-18.46-2.42-26.33-.54-2.14-4.21-1.77-4,.54Z"/><path d="M873.56,259.49c-3-17.68,5.64-33.49,15.72-47.3s23-27.46,24.93-45.18l-11.46,4.74c14.22,12.78,21.86,33.77,23.06,52.46a88.82,88.82,0,0,1-3,29.34,87.21,87.21,0,0,1-4.94,13.59c-2.19,4.67-5.73,9.1-6.91,14.14-1,4,3.78,8.83,7.71,5.93,8.28-6.11,12.51-19.28,15.31-28.83a98.69,98.69,0,0,0-3.52-66c-4.38-10.57-10.52-19.49-17.15-28.71-2.78-3.88-9-4.78-11.59,0-4.44,8.17-8.7,16.12-14,23.8s-11.29,15-16.3,22.89c-9.62,15.24-16.55,36.22-6.65,52.9,2.94,5,9.71,1.48,8.83-3.72Z"/><path d="M915.05,320.84c1.56,3.38,1.67,7,2.92,10.49,1.17,3.25,2.45,6.46,3.59,9.73a163.65,163.65,0,0,1,5.3,19.22c1.4,6.46,2.27,13.05,3.1,19.61.87,6.83,2.08,14.23,0,20.86l6.06-4.61c-2.77.15-5.37.76-8.16.4-2.61-.34-5-1.4-7.6-1.93-6.28-1.28-10.93,6-6.32,10.85,5.93,6.29,18.17,7.39,25.25,2.39,1.72-1.22,3.33-3.15,3.11-5.43-.7-7.53.88-15,.93-22.53a106.2,106.2,0,0,0-2.81-23.35,126.12,126.12,0,0,0-7-21.45,63.53,63.53,0,0,0-5-10.06c-1.94-3-4.77-5.11-6.82-8.07a3.85,3.85,0,0,0-6.64,3.88Z"/><path d="M911.39,275.38a119.15,119.15,0,0,0,6.52-30.62c1-10.86-.47-20.4-3.27-30.86-.73-2.72-3.91-3.18-5.87-1.55-4.09,3.42-8.7,8.2-9.22,13.72-.24,2.49,3.05,3.4,4.64,1.93,3.55-3.3,5.59-7.6,9.55-10.68l-6-2.48c-.19,10-.85,19.95-1.15,29.92a293.58,293.58,0,0,1-2.75,29.6c-.6,4.56,6.17,4.8,7.55,1Z"/><path d="M899.8,349.57l7.3,13.34c2.15,3.93,4.13,8.11,7.76,10.82,1.95,1.46,5.25-.48,5-2.87-.46-4.51-3.08-8.42-5.34-12.29l-7.69-13.12c-2.65-4.53-9.56-.49-7,4.12Z"/><path class="cls-13" d="M930,390.73c-2.18-19.78-4.08-39.61-6.73-59.34-.5-3.74-2-7.14-4.66-9.29.87-6.2,1.1-12.42-.5-18.67a31.7,31.7,0,0,0-6-12.22,86.62,86.62,0,0,0,14.79-39.33,77.34,77.34,0,0,0-1.52-26.09c-1.7-7.45-5.52-19.92-14.24-21.31A5.66,5.66,0,0,0,905,207c-3.85,6-.63,14.15,0,20.84a84.29,84.29,0,0,1-.29,20.35c-2.12,13.72-7.31,26.44-16.89,36.58a13.23,13.23,0,0,0-3.21,9.81,19.07,19.07,0,0,0-2.67-2.11,21.06,21.06,0,0,0-7-2.82c-19.37-39.2-55.86-69.37-97.85-81.49a11.88,11.88,0,0,0-1.72-.34q-12.85-11.7-26.66-22.55c-3.93-3.09-9.27-3.84-13.11,0-3.23,3.23-3.93,10,0,13.11,9.29,8,18.26,16.46,26.9,25.25a10.27,10.27,0,0,0,3.06,4.34l3.5,3a305.42,305.42,0,0,1,31.32,44.33c-85.4-6.2-169.56,16.48-254.1,25.6q-39.1,4.23-78.19,8.3c-5.21.54-7.52,9-1.35,10,30,4.89,60.05,3.63,90,.31,10.86-.05,21.72-.26,32.61-.86,22.34-1.23,44.71-2.09,67.06-3.16q67.61-3.25,135.32-2.91l6.32.05q-26.52,9-53.41,16.78L597.07,351.12,393.62,381.06c-4.28.63-8.56,1.23-12.84,1.89s-8.28,2.22-12.37,3.56c-10.81,3.54-9,19.69,2.7,20,18.22.45,36.51-3.59,54.52-6.24l.89-.13c5.94.35,11.9.57,17.89.46,15.93-.28,31.84-.86,47.73-1.93,32.56-2.18,65-5.94,97.25-10.8a1251.65,1251.65,0,0,0,161.27-35.36L797,345.68q26.65-3.92,53.3-7.92c10-1.51,22-2.88,30.41-8.64-46.33,50.79-120.32,63.75-185.44,74.43C613,417,530.26,430.22,446.71,430.91c-23,.19-46.07-.58-69-2.59-11.79-1-23.49-2.74-35.25-3.86-11.55-1.11-23.52-3.19-34.88-.43a5.59,5.59,0,0,0-4.5,5.16c-.2.11-.4.22-.6.35a4.84,4.84,0,0,0,0,8.26,143.63,143.63,0,0,0,12.66,7.08c4.73,2.45,10.06,3.05,15.14,4.44a282.79,282.79,0,0,0,29.87,6.25c20.56,3.32,41.25,5.87,62,7.8a1033.64,1033.64,0,0,0,123.3,4.13,1054.76,1054.76,0,0,0,123.22-10.64c37.8-5.46,75.65-12.53,112.24-23.61,40.21-12.19,78.52-29.84,111.38-56.28a9,9,0,0,0,3-4.61,81,81,0,0,0,12.57,24.37c3.24,4.27,7.89,7,13.42,5.46C925.88,400.91,930.52,395.84,930,390.73ZM675.59,432q-25.35,4-50.92,6.65c21.88-3.21,43.72-6.69,65.55-10.25,16.28-2.65,32.64-5.24,48.9-8.31C717.91,424.93,696.51,428.69,675.59,432ZM892.27,360.2a11.06,11.06,0,0,0-6.1-3.22c1.8-1.63,3.55-3.3,5.29-5a81.07,81.07,0,0,0,.93,8.35Zm-1.81-55.31a20.12,20.12,0,0,0-.62-2.18c.11.05.21.12.33.17,2.06.88,3.13,1.52,4,2.92A13.88,13.88,0,0,0,890.46,304.89Z"/></g></g></svg>