<?xml version="1.0" encoding="utf-8"?>
<!-- Generator: Adobe Illustrator 25.2.1, SVG Export Plug-In . SVG Version: 6.00 Build 0)  -->
<svg version="1.1" id="Layer_1" xmlns="http://www.w3.org/2000/svg" xmlns:xlink="http://www.w3.org/1999/xlink" x="0px" y="0px"
	 viewBox="0 0 944.7 883.8" style="enable-background:new 0 0 944.7 883.8;" xml:space="preserve">
<style type="text/css">
	.st0{display:none;}
	.st1{fill:none;}
	.st2{fill:#F36C21;}
	.st3{fill:#FFFFFF;}
	.st4{display:inline;fill:#E74342;}
	.st5{display:inline;fill:#F7FCFE;}
	.st6{fill:#FFFAFA;}
	.st7{fill:#EC3E3F;}
	.st8{opacity:0.3;}
	.st9{opacity:0.3;enable-background:new    ;}
</style>
<circle class="st0" cx="609.1" cy="548.3" r="335.6"/>
<circle class="st0" cx="252.2" cy="252.2" r="252.2"/>
<g>
	<path class="st1" d="M0,0"/>
	<path class="st1" d="M0,0"/>
	<path class="st1" d="M0,0"/>
	<path class="st1" d="M0,0"/>
	<path class="st1" d="M0,0"/>
	<circle class="st2" cx="253.1" cy="253.1" r="253.1"/>
	<g>
		<path class="st3" d="M290.4,77.3c1.7,0.7,3.5,0.7,5.2,0.9c9.4,1.6,18.6,4.2,27.5,7.6c15.4,5.9,29.3,14.5,41.7,25.2
			c13.3,11.5,24.7,24.7,34.1,39.8c1.7,2.7,3.3,5.6,5,8.6c-5.4,2-10.7,2.7-16.4,2.9c-12,0.1-23.3-3-34.4-7.3
			c-3.7-1.4-7.2-3.3-10.9-4.6c-9.8-3.7-20-5.8-31-5.6c0.7-0.5,1.2-0.9,1.6-1.2c7.8-5.6,15.2-11.9,21.2-19.6c3-3.9,5.6-8,7.6-12.6
			c0.9-2.2,0.5-3.8-1.3-5.4c-6.5-5.6-14.3-7.6-22.8-7.5c-10.2,0.1-19.8,3.1-29,6.9c-0.7,0.3-1.4,0.5-2.1,0.9
			c-0.1-0.5,0.1-0.9,0.3-1.3c2.2-5.8,3.4-11.6,3.4-17.7c0-3.4-0.3-6.8-0.9-10.1C289.6,77.3,290,77.3,290.4,77.3z"/>
		<path class="st3" d="M243.7,428.9c0.3-0.7,0.9-0.1,1.3-0.3c4.3,0,8.6,0,13.1,0c0.4,0,0.7-0.1,1-0.1c0,0.4,0.7,0,0.5,0.5
			C254.3,428.9,249,428.9,243.7,428.9z"/>
		<path class="st3" d="M213.6,84.9c0.7,6.5,1.3,12.8,2,19.2c0,0.5,0,1.2,0.5,1.3c0.7,0.3,1-0.4,1.4-0.8c4.7-5.1,9.5-9.9,15.2-14
			c9.5-6.8,20-11.2,31.7-12.7c5.4-0.7,10.7-0.7,16.1-0.1c0.8,0.1,1,0.4,1.2,1c2.2,13.1-0.9,24.7-9,35.1c-3.4,4.3-7.2,8.5-10.7,12.7
			c-0.3,0.3-0.4,0.4-0.5,0.7c-0.1,0.1-0.1,0.4-0.1,0.5c0.1,0.3,0.4,0.3,0.5,0.1c0.4-0.1,0.7-0.4,1-0.5c9-4.7,17.7-9.8,27.1-13.9
			c7.3-3.1,14.8-5.8,22.8-6.8c6.5-0.8,12.9-0.8,19,2.5c2,1,2,1,0.9,2.9c-3,5.4-7.1,10.1-11.5,14.3c-11.4,10.9-24.6,18.8-38.7,25.2
			c-0.8,0.4-2.1,0.4-2,1.4c0.1,1,1.4,0.8,2.2,1c7.7,2,15.4,3.9,22.8,7.1c7.1,3,13.6,6.9,19.1,12.4c1.6,1.6,3,3.3,4.1,5.2
			c-4.1,1.7-8.2,3-12.6,3.8c-14.1,2.5-27.5-0.3-40.5-5.9c-6.3-2.7-11.6-6.7-17-10.6c-0.8-0.5-1.6-1.2-2.4-1.7
			c-0.4-0.3-0.8-0.9-1.3-0.5c-0.4,0.4,0.1,0.9,0.3,1.3c3.9,9.2,7.8,18.3,11.8,27.5c4.6,10.9,9.5,21.6,13.5,32.8
			c0.1,0.3,0.3,0.7,0.4,1.3c-2-1.2-3.8-2-5.5-3c-16.7-10.5-30.6-23.8-40.9-40.8c-1.2-2-2.4-4.2-3.4-6.1c-0.9-1.7-1.6-1.8-3-0.7
			c-11.9,9.4-23.8,19-35.6,28.4c-8.2,6.5-16.9,12.7-25.6,18.8c-3.5,2.5-7.7,2.7-11.9,2.5c-1.6-0.1-3-0.4-4.4-0.9
			c-2.6-0.9-3.7-2.6-3.1-5.2c0.1-0.9,0.4-1.8,0.9-2.6c6.3-9.5,9.3-20.4,11.9-31.4c2.2-9,3.7-18.2,4.7-27.5c0.8-7.8,2-15.7,4.3-23.2
			c3.7-11.9,9.8-22.4,18.3-31.4C194.5,96,203,90,212.7,85.5C212.8,85.3,213.1,85.2,213.6,84.9z M182.9,152.3c0-3-2.2-5.2-5.4-5.2
			c-3,0-5.1,2.2-5.2,5.2c0,2.9,2.4,5.4,5.2,5.4C180.8,157.7,182.9,155.5,182.9,152.3z M200.7,152.3c0,3,2.4,5.4,5.2,5.4
			c3.1,0,5.4-2.4,5.4-5.5c0-3-2.5-5.2-5.5-5.1C202.9,147.2,200.7,149.4,200.7,152.3z"/>
		<path class="st3" d="M284.2,275.1c-2-0.7-3.8-1.6-5.6-2.5c-4.8-2.6-9.5-5.4-14.5-7.3c-7.1-2.7-14.4-3.9-22-3.5
			c-4.2,0.1-8.4,0.7-12.6,1.6c-0.8,0.1-1,0-1.3-0.8c-0.8-2-2-3.8-3.3-5.5c-0.5-0.7-0.9-0.8-1.7-0.4c-6.5,3.3-13.1,6.4-19.9,9.2
			c-15.2,5.9-30.6,10.7-46.6,13.6c-2.6,0.5-5.2,0.8-7.8,0.7c-2.2-0.1-3.9-1.3-4.4-3.1c-0.5-2.2,0.4-4.1,2.6-5.2
			c2.5-1.2,5.1-1.8,7.6-2.9c6.7-2.6,12.7-6.3,18.1-11.1c9.3-8.5,16-18.8,22.1-29.7c3.4-6.1,6.4-12.6,9.8-18.6
			c3.9-7.1,9.5-12.6,15.7-17.5c2-1.6,3.9-3.1,5.9-4.7c0.5-0.5,0.9-0.5,1.3,0.1c8.4,12.8,18.4,24.1,30.2,33.9
			c7.5,6.1,15.4,11.2,24.2,15.2c0.9,0.4,1.4,1,1.8,2.1c1.4,5.1,2,10.3,2.2,15.6c0.3,6.8-0.1,13.5-1.4,20.1
			C284.4,274.6,284.2,274.8,284.2,275.1z"/>
		<path class="st3" d="M305.7,153c7.2-0.8,14.1-0.3,20.9,1c6.9,1.3,13.5,3.7,19.9,6.7c2,0.9,3.5,2.4,5.1,3.8
			c11.2,9.7,17.9,22.1,21.2,36.5c1.4,6.4,2.1,12.9,2.4,19.5c0,0.7-0.3,0.9-0.7,1.2c-11.9,6.9-24.3,12.2-37.9,14.5
			c-8.5,1.6-17.1,1.8-25.6,0.8c-6.8-0.9-13.5-2.6-19.9-5.1c-0.5-0.3-1-0.4-1.3-1.2c-2.7-11.4-7.8-21.8-12.3-32.4
			c-2-4.7-3.9-9.3-5.9-13.9c0.5-0.3,0.8,0.1,1.2,0.3c8.1,3.7,16.6,6.1,25.5,6.9c13.1,1.3,25.6-1,37.4-6.9c2.2-1.2,2.7-2.5,2-4.8
			c-1.7-4.6-4.6-8.5-8.1-11.9c-6.1-6-13.5-10.3-21.3-13.7C307.3,153.7,306.6,153.4,305.7,153z"/>
		<path class="st3" d="M203.3,339.3c-2.7,0.1-4.6-0.9-5.6-3.3c-6.4-13.3-12.8-26.7-19.1-40.2c-1.6-3.4-3.1-6.7-3.9-10.3
			c-0.5-2.1-0.1-3,1.6-4.2c3.8-2.6,8-2.5,12-1c5.9,2,10.7,5.4,15.3,9.5c0.9,0.8,1.7,2.4,2.7,2.1c0.8-0.1,1.3-1.8,1.8-2.9
			c6.4-11.1,16-17.7,28.5-19.9c9.4-1.6,18.3,0.1,26.8,4.1c4.2,2,8.1,4.2,12.2,6.4c1.8,0.9,3.7,2,5.6,2.6c0.5,0.1,0.8,0.4,0.5,1
			c-2.5,5.8-4.8,11.6-7.8,17.1c-5.2,9.3-12.6,16.5-21.5,22.1c-12.4,7.8-26,12.7-40.4,15.2c-1.6,0.3-3,0.5-4.6,0.8
			C205.9,338.9,204.6,339.4,203.3,339.3z"/>
		<path class="st3" d="M375.4,230.1c0.3,3.8,0.3,7.3,0.3,11c-0.1,8.5-0.7,17-2.9,25.2c-3.4,12.2-10.9,18.7-23.4,20.8
			c-10.2,1.7-20.3,0.5-30.3-1.4c-8-1.6-15.7-3.9-23.4-6.3c-0.8-0.3-1-0.7-1.2-1.4c-0.9-6.4-0.7-12.9-0.8-19.5
			c-0.1-5.9-0.4-11.6-1.8-17.4c0-0.1,0-0.1,0.1-0.4C321.5,250.2,349,244.6,375.4,230.1z"/>
		<path class="st3" d="M382.2,257.3c2,4.2,4.1,8.1,6.7,11.6c6.5,8.9,15.3,14.4,26.3,16c2.1,0.3,4.2,0.5,6.3,0.4c0.9,0,1,0.3,0.9,1.2
			c-2.2,11.1-5.4,22-9.5,32.6c-4.2,10.6-9.5,20.7-15.7,30.2c-0.4,0.7-0.8,0.8-1.4,0.5c-4.2-1.3-7.6-3.7-10.2-7.2
			c-3.9-5.1-5.9-11-7.1-17.3c-1.8-9-2.1-18.2-1.7-27.3c0.3-6.3,0.8-12.6,1.7-18.7c0.7-4.3,1.7-8.6,2.5-13.1
			C381.4,263.3,381.8,260.4,382.2,257.3z"/>
		<path class="st3" d="M295.9,287.8c2.9,0.8,5.5,1.7,8.2,2.4c9.8,2.7,19.6,4.8,29.8,5.5c9.4,0.7,18.7,0,27.5-3.8
			c2-0.9,3.7-2.1,5.8-3.3c-0.9,3.3-1.8,6.3-3,9.2c-3.8,10.2-8.8,19.8-15.4,28.3c-5.2,6.7-11.4,12.3-19,16.2
			c-5.4,2.7-10.1,2-14.5-2.2c-4.6-4.2-7.3-9.7-9.7-15.2c-4.2-9.9-6.8-20.4-8.8-30.9C296.5,292.1,296.3,290,295.9,287.8z"/>
		<path class="st3" d="M249.6,388.2c-2.1,2-4.3,3.8-6.1,5.9c-6,6.5-10.7,13.9-12.9,22.6c-0.8,3.1-1.4,6.3-1.3,9.5
			c0,0.7-0.1,0.9-0.9,0.9c-9.8-1.3-19.4-3.4-28.6-6.4c-12-3.7-23.5-8.8-34.4-14.9c-3-1.7-5.9-3.5-8.9-5.4c2.4-2.2,4.8-4.2,7.5-5.8
			c8.2-5.1,17.4-8,27.1-9.2c6.8-0.9,13.7-1,20.7-0.3c5,0.7,9.8,1.4,14.8,1.8c7.3,0.7,14.8,0.9,22.1,0.5c0.3,0,0.7,0,0.9,0
			C249.3,388,249.4,388.1,249.6,388.2z"/>
		<path class="st3" d="M344.5,341.9c-1.2,3.4-2.1,6.7-2.9,9.9c-1.3,5.6-2.2,11.4-2.2,17.1c0,6,1,11.9,3.9,17.3c2,3.7,4.6,6.8,8,9.2
			c0.8,0.7,0.9,0.9,0,1.6c-14.8,10.3-30.7,18.2-47.9,23.8c-0.5,0.1-0.9,0.5-1.3-0.4c-3.1-6.5-5.2-13.5-5.1-20.9
			c0.1-7.8,2.5-15,6.4-21.7c5.6-9.4,13.2-16.9,22.2-23c6-4.2,12.4-7.8,18.2-12.4C343.9,342.2,344.1,342.2,344.5,341.9z"/>
		<path class="st3" d="M259,428.4c-0.4,0.1-0.7,0.1-1,0.1c-4.3,0-8.6,0-13.1,0c-2.1-0.4-4.2-0.4-6.3-0.5c-1.2,0-1.7-0.4-1.7-1.7
			c0-6.5,2.2-12.4,5.5-17.9c5.9-9.7,14.1-17,23.5-23c9.3-5.9,19.2-10.2,29.3-14.6c1.4-0.7,2.9-1.3,4.4-1.8c-1.3,2.1-2.6,4.1-3.8,6.1
			c-5,8.8-7.6,18.1-6.9,28.1c0.4,6.4,2,12.4,4.7,18.2c0.9,1.8,0.8,1.8-1,2.2C281.7,426.4,270.5,428.1,259,428.4z"/>
		<path class="st3" d="M382.1,207.1c4.3,5,8.9,9.2,14.1,12.6c6.7,4.2,14,6.7,22.1,6.1c1.4-0.1,3-0.3,4.4-0.5
			c0.7-0.1,0.8,0.1,0.8,0.7c0.3,3.3,0.7,6.5,0.9,9.8c0.7,8.6,0.8,17.3,0.5,25.9c-0.1,5-0.5,9.9-1.2,14.9c-0.1,0.7-0.3,0.9-0.9,0.9
			c-6.9,0.1-13.5-1.2-19.2-5c-5-3.4-8.8-7.8-11.5-13.1c-4.3-7.8-6.5-16.4-7.8-25.1c-1-6.1-0.9-12.3-1.3-18.4
			c-0.1-2.4-0.4-4.7-0.7-7.1C382.1,208.2,382.1,207.8,382.1,207.1z"/>
		<path class="st3" d="M368.6,308c0.3,3,0.4,5.9,0.7,8.6c1,9.9,2.9,19.6,8.4,28.3c3.4,5.2,7.8,9.3,13.7,11.6
			c0.1,0.1,0.4,0.1,0.7,0.3c-2.4,3.4-5,6.4-7.5,9.5c-7.5,8.8-15.6,16.9-24.7,23.9c-0.7,0.5-1,0.5-1.7,0.1c-6-3.7-9.2-9.2-10.1-16
			c-1.3-9.7,0.7-18.8,3.5-28c2.7-8.5,6.4-16.7,10.5-24.6c2.1-4.1,4.2-8.2,6-12.4C368.1,309.1,368.2,308.7,368.6,308z"/>
		<path class="st3" d="M270,319c-0.9,3.5-1.7,6.9-2.4,10.5c-1.6,8-2.5,16.1-2,24.2c0.5,6.7,2,13.1,6.4,18.4c0.5,0.7,0.4,0.9-0.3,1.2
			c-5.4,2.7-11,4.6-16.9,5.6c-8.8,1.6-17.5,1.3-26.3,0.7c-2.2-0.1-4.3-0.4-6.5-0.7c-0.7,0-1-0.1-0.9-1c0.8-7.5,3.8-13.9,7.7-20
			c6-9.2,13.7-16.7,22.4-23.4c6.3-4.8,12.6-9.5,18.2-15.2C269.6,319,269.7,319,270,319z"/>
		<path class="st3" d="M230.2,342.7c-0.1,0.8-0.8,1.2-1.2,1.7c-5.6,6.8-10.6,14.1-13.5,22.6c-1,3.1-1.8,6.3-2.2,9.5
			c-0.1,1-0.5,1-1.3,0.9c-7.2-1.3-14.4-2.9-21.5-5c-6.5-1.8-12.8-4.2-18.8-7.2c-6.3-3.1-11.1-8-15.2-13.6
			c-3.7-5.1-6.7-10.6-9.5-16.2c0-0.1,0-0.3-0.1-0.4c0.4-0.3,0.7,0.1,0.9,0.3c9.5,4.7,19.6,8.1,30.1,10.1c8.9,1.7,17.9,2,26.9,1.6
			c8.4-0.4,16.5-2,24.5-4.2C229.7,342.7,230,342.7,230.2,342.7C230.3,342.7,230.2,342.7,230.2,342.7z"/>
		<path class="st3" d="M149.1,355.1c-2.9-0.7-5.5-1.2-8.2-1.4c-9.5-0.8-18.3,1-25.4,8c-0.7,0.7-0.9,0.8-1.6,0
			c-11.1-14.4-19.9-30.1-26.3-47.1c-0.4-0.9-0.1-1.2,0.8-1.3c16.2-2.1,30.6,1.7,42.4,13.3c3.7,3.5,6.7,7.6,8.9,12.2
			c2.6,5.2,5.4,10.5,8.6,15.3C148.7,354.3,148.9,354.6,149.1,355.1z"/>
		<path class="st3" d="M365.7,167.4c3.8,0.9,7.3,1.6,10.9,2.1c9.3,1.2,18.6,1.2,27.6-1.7c0.3-0.1,0.5-0.1,0.9-0.3
			c2.4-0.8,2.4-0.8,3.4,1.6c2.9,6.7,5.5,13.3,7.6,20.3c2.6,8.8,4.8,17.8,6.1,26.8c0.1,0.8,0,1-0.8,1.2c-8,1.6-15-0.7-21.6-5
			c-7.6-5.1-13.3-11.8-18.4-19.2c-2.9-4.2-5.2-8.5-7.5-12.9c-2-4.1-4.4-7.7-7.2-11.4C366.4,168.3,366.1,168,365.7,167.4z"/>
		<path class="st3" d="M288.2,289.9c0.9,6.1,2.1,11.9,3.5,17.8c2.5,9.9,5.6,19.8,10.7,28.6c2.9,5.1,6.5,9.7,11.6,12.8
			c0.4,0.3,0.9,0.5,1.4,0.8c0.4,0.3,0.9,0.4,1.3,0.7c-0.3,0.5-0.8,0.7-1.3,0.9c-11.1,6.3-22.4,12-33.9,17.4c-1,0.5-1.6,0.1-2.2-0.5
			c-3.3-3.1-4.6-7.1-5.4-11.4c-1.2-6.7-0.7-13.3,0.4-20c2.4-15.8,7.2-30.9,13.1-45.7C287.6,290.9,287.9,290.5,288.2,289.9z"/>
		<path class="st3" d="M183.3,378.7c-5,1-9.8,2.5-14.4,4.4c-6.8,2.9-12.8,6.8-18.2,11.8c-0.8,0.8-1.2,0.7-2.1,0.1
			c-8.6-6.5-16.7-13.6-24.1-21.6c-1.3-1.4-2.6-3-3.9-4.4c-0.7-0.7-0.4-0.9,0.1-1.4c3.4-3.4,7.6-5.4,12.3-5.9
			c6.5-0.8,12.9,0.5,19.1,2.7c4.6,1.6,8.8,3.8,12.9,6.1c5.2,3.1,10.9,5.6,16.6,7.3C182.2,378.2,182.7,378.2,183.3,378.7z"/>
		<path class="st3" d="M112,306.6c-2.2-0.1-4.3-0.8-6.5-1.2c-5-0.8-10.1-0.8-15-0.3c-1.6,0.1-3.3,0.4-4.8,0.7
			c-0.7,0.1-0.9-0.3-1-0.8c-1.6-5-2.9-10.1-3.9-15.3c-2.1-10.7-3.4-21.5-3.5-32.3c0-1.6,0-1.6,1.4-1c3.5,1.2,6.1,3.4,8.5,6.3
			c3.3,4.1,5.4,8.8,7.1,13.7c3,8.6,7.7,16.4,12.9,23.7C108.7,302.2,110.3,304.4,112,306.6L112,306.6z"/>
		<path class="st3" d="M82.9,210.9c2.2,1.8,3.1,4.3,3.8,6.9c0.7,3,0.3,5.9,0,8.9c-0.8,6.4-0.7,12.7,0.3,19c0.3,2.1,0.5,4.2,0.9,6.5
			c-3-2.4-6.3-3.8-9.8-4.2c-0.5-0.1-0.7-0.4-0.7-0.9C78,234.9,79.5,222.9,82.9,210.9z"/>
		<path class="st3" d="M112,306.6l0.1,0.1H112V306.6L112,306.6z"/>
		<path class="st3" d="M230.3,342.7l0.1-0.1C230.5,342.7,230.3,342.7,230.3,342.7C230.2,342.7,230.3,342.7,230.3,342.7z"/>
	</g>
</g>
<g class="st0">
	<circle class="st4" cx="252.2" cy="252.2" r="252.2"/>
	<path class="st5" d="M132.2,381.7c-13.4,0-26.8,0-40.3,0c-2.7,0-5.5-0.4-8.2-1.4c-8.1-2.9-11.9-9.6-9.8-18c0.7-3,2-5.7,3.5-8.5
		c26.1-45.9,52.1-91.8,78.2-137.8c26.6-46.8,53-93.4,79.6-140.2c2-3.4,4.2-6.6,7.3-9c6-4.6,12.8-4.4,18.5,0.4c2.6,2.2,4.7,5,6.4,8
		c12.9,23.6,26.3,46.8,39.6,70.2c3.3,5.7,5.1,12.1,5.7,18.6c1,9.8-0.4,19.2-4.8,27.9c-2.6,5.2-5.7,10-8.6,15.1
		c-28.9,50.2-57.7,100.2-86.8,150.3c-7.4,12.8-18.9,20.3-33.4,23.5c-3,0.7-6.1,0.9-9.3,0.9C157.4,381.7,144.8,381.7,132.2,381.7
		L132.2,381.7z"/>
	<path class="st5" d="M356.3,381.7c-18.5,0-37,0-55.7,0c-3.1,0-6.1-0.5-9-1.6c-7.4-2.9-11.1-9.6-9.3-17.7c0.7-3.1,2-5.9,3.5-8.6
		c18.2-31.5,36.6-63.1,54.9-94.8c1.7-3,3.8-5.7,6.4-8c6-5.1,13.3-5,19.3,0c2.6,2.2,4.7,5,6.4,8c18,31.7,36,63.2,54.1,94.9
		c2,3.4,3.5,6.8,3.8,10.7c0.5,7.7-3.1,13.2-10.4,15.6c-3.3,1-6.5,1.3-9.9,1.3C392.4,381.7,374.4,381.7,356.3,381.7L356.3,381.7z"/>
</g>
<g id="Layer_4">
	<g>
		<path class="st6" d="M530.6,724.1c1.9-3.2,3.8-6.4,5.7-9.7c0.5-0.8,0.8-1.7,1.1-2.7c8.4-11.8,19-22.3,29-32.4
			c13-13.2,26.4-26,40.6-38.1c8.4-7.2,16.7-14.6,24.9-22.1c1.4-1.2,2.7-2.5,4.1-3.7c0.1-0.2-0.1,0.8,0,0.6c0.1-0.2,1.5-1.5,1.7-1.7
			c15.7-11,23.8-30.7,29.9-48.3c6.7-19.6,9.6-41.1,8.9-61.8c-1.5-42.3-19.8-81.2-48.4-112c-58.8-63.3-159.1-87.9-238.6-51.5
			c-24.6,11.2-48.4,26-64.8,47.2c-11.9,15.4-19,35.3-24.5,54.2c-0.4,1.5-0.5,2.8-0.3,4.1c-3.5,8.3-6.5,16.7-8.7,25.4
			c-3.3,13.1-5.4,26.6-6.5,40.1c-2.2,26.2-0.2,53,6.1,78.5c2.2,8.9,5,17.6,8.3,26.2c24,116.8,113.4,215.3,237,244.6
			c19.5,4.6,39,7.3,58.4,8.2l0.1-1.9c6.8,0.7,15.4,5.4,20.1,1.3c4.6,0.8,8.6-1.4,13.2-0.8c1.5,0.5,3.4,0.1,5,0
			c3.8,0.5,6.3-0.7,10.1-0.6c3.7,0.1,7.4-0.1,11.1,0.3c4.6,0.5,13.6-0.3,16-4.6c2.2-4-3.2-9.8-6.5-12.9c-7.4-7.1-13.2-14.8-18-24.1
			c-2.2-4.2-3.6-7.9-5.3-12.6c-1.6-4.8-3.6-9.5-4.5-14.5c-1.1-6.5-5.9-10.6-12.7-9c-8.7,2-15.3,2.1-24.1,3.8c-0.1,0-2.4,0-2.5,0
			c-7.4-3.2-14.8-2.3-22.5-2.7c-1.4-0.3-2.8-0.7-4.2-1.1c-6.4-4.6-13.4-8.3-20.7-11.5c-2-2-3.8-4.1-5.2-6.3
			c-3.8-5.7-6.2-10.1-8-16.6c-1.1-4.1-5.6-6.5-9.7-6.3c-0.2-4.1-0.1-8,0.5-11.4C527.4,732.7,528.7,728.3,530.6,724.1z"/>
		<path class="st7" d="M933.1,546.6c-1-34.5-4.7-69.9-12.6-103.6c-4.2-17.6-9.9-35.6-19-51.4c-4.4-7.6-9.4-14.7-14.9-21.5
			c-5.6-6.9-11.9-13.8-19.9-17.9c-0.2-0.1-0.4-0.2-0.7-0.3c-0.8-1.3-1.6-2.5-2.4-3.7c-10.3-15.5-22-30-35.1-43.2
			c-13.1-13.1-27.6-25.9-43.6-35.3c-8.5-5-17.1-10-26-14.4c-3.4-1.7-6.9-3.2-10.4-4.6c-6.5-3.5-13.3-6.4-20.3-8.5v0.1
			c-2.4-0.5-4.9-0.1-6.9,1.3c-6.6-3-13.3-5.7-19.9-8.1c-29.6-10.5-61.2-15.3-92.6-16c-29.1-0.7-58.7,1.8-87.2,8.2
			c-14.5,3.3-29.1,8.3-42.3,15.4c-6.6,3.5-12.6,7.6-18.2,12.5c-2.3,2-6.2,1.2-8,3.5c-0.8,0.4-1.5,0.8-2.3,1.2
			c-28.6,15-54.1,36.1-78.4,57.4c-10.3,9.1-21.8,19-29,31.1c-1.3,1.1-2.6,2.2-3.8,3.3c-1.1,2-2.2,4-3.3,6.1
			c-1.8,3.5-3.2,6.9-6.4,9.3c-0.5,0.9-1.1,1.8-1.6,2.7c2.1,3.1,6.8,4.5,10.5,1.3c10.2-9.1,20.6-17.7,32.2-24.9
			c11.7-7.3,24.2-13.4,37.1-18.1c26-9.5,53.6-13.6,81.2-12c53.6,3,104,30.6,139.3,71c10,11.4,20,22.2,27.4,35.5
			c3.7,6.5,6.8,13.4,9.6,20.3c2.1,5.2,3.5,10.7,5.8,15.8c-1.3,0-2.6-0.1-3.8-0.1c0.7,1.2,1.3,2.4,1.6,3.1c2.3,4.9,3.3,10.4,4.4,15.7
			c1.3,6.8,2.5,13.4,2.6,20.4c0,1.6,0,3.2-0.1,4.9c2.2,15.7,1.1,32-2.8,47.1c-4.7,18.4-12.6,36.6-23.2,52.8c0,0,0.1-0.1,0.2-0.1
			c7.2-6.6,14.5-13.1,21.8-19.7c7.4-6.6,15.3-12.4,22.8-18.8c0.7-0.6,1.7,0.3,1.1,1c-7.3,7.3-14,15.1-21.5,22.2
			c-7.4,7.1-14.9,14.3-22.5,21.3c-4.5,4.3-9.1,8.5-13.6,12.8c-10.1,9.5-20,19-29.7,28.9c-12.2,12.5-24.9,24.5-36.8,37.3
			c-11.1,11.9-23.6,24.3-30.6,39.3c-5.6,12.1-6,27.6,4.9,36.9c9.7,8.2,24,10.5,36.2,12.2c26.8,3.8,55.2,0.9,81.3-5.8
			c27.5-7,52.5-21.4,73.2-40.6c0.9-0.9,2.3,0.4,1.5,1.4c-21.6,25-51.1,44.1-82.3,54.8c-5,1.7-10.1,3.2-15.3,4.4c0.9,2.8,1,6,1.5,8.8
			c0.7,3.7,1.5,7.3,2.5,10.9c2,7,4.9,13.6,8,20.2c3.2,6.8,6.3,13.6,10.9,19.5c2.4,3.1,5,6.1,7.7,9c1.2,1.3,2.6,2.6,3.9,4.1
			c47.2-10.2,91.3-31,128.9-60.5c6.4-2.2,12.7-5.3,18.3-8.5c11.8-6.7,23-15.1,32-25.3c14.1-15.7,26.3-35.5,29.9-56.8
			c12.8-18.4,23.7-38.1,32-59.3C929.4,618.5,934.1,582.9,933.1,546.6z"/>
		<path d="M942.5,509.9c-4.9-43.2-18.9-86.4-40.4-124.9c-10.8-19.2-23.4-37.4-37.5-54c-14.1-16.5-29.9-31.9-47.2-45.6
			c-17.1-13.5-35.6-25.5-55-35.4c-19-9.8-39.4-17.9-60.7-24.1c-20.9-6-42.5-10-64.2-11.9l-12-0.8c-1.5-0.1-2.8-0.2-4.2-0.2l0,0
			l-14.2-0.3l-16.2,0.5l-14.4,1.2c-0.2,0-0.4,0-0.7,0c-0.5,0-1,0.1-1.5,0.1l-1.9,0.2c-21.6,2.3-43,6.8-63.8,13.3
			c-20.6,6.5-40.7,15-59.9,25.5c-19.2,10.4-37.3,22.7-54,36.4c-16.7,13.9-32.2,29.4-45.8,46.2l-1.3,1.6c-0.3,0.4-0.6,0.8-0.9,1.2
			c-0.1,0.2-0.3,0.3-0.4,0.6l-8.5,11.2l-9.3,13.4l-7.5,12.1c-0.8,1.2-1.5,2.4-2.2,3.7l-5.9,10.6c-10.2,19.2-18.6,39.5-24.9,60.3
			c-6.4,21.3-10.7,42.8-12.8,64c-2.2,21.7-2.3,43.8-0.2,65.5c2.1,21.8,6.3,43.4,12.6,64.4c6.3,20.9,14.7,41.3,25,60.8
			c10.4,19.5,22.6,37.9,36.4,54.8c13.9,17.1,29.5,32.8,46.5,46.8c34,28.1,74.1,49.6,116,62.3c31.7,9.6,65.1,14.4,98.1,14.4
			c11.2,0,22.3-0.6,33.3-1.7c22-2.3,43.9-6.8,65.1-13.3c21-6.5,41.7-15.2,61.3-25.8c38.9-21.2,74-50.5,101.5-84.8
			c13.6-16.9,25.8-35.6,36.2-55.7c10.1-19.6,18.4-40.3,24.6-61.6C943.8,599.1,947.5,553.7,942.5,509.9z M636,615.4
			c-1.4,1.2-2.7,2.5-4.1,3.7c-8.2,7.5-16.5,14.9-24.9,22.1c-14.1,12.1-27.6,24.8-40.6,38.1c-10.8,11-22.3,22.4-31,35.3
			c-1,1.6-2,3.1-3,4.7c-0.2,0.3-0.3,0.5-0.5,0.8c-0.9,1.5-1.7,3-2.4,4.5c-0.5,1-0.9,2-1.4,3c-2,4.8-3.4,9.9-3.9,15.1
			c-0.1,0.8-0.2,1.6-0.2,2.4c-0.4,7.1,0.9,14.2,4.3,20.7c5.2,9.9,14.5,16.3,24.8,20.4c1.1,0.5,2.3,0.9,3.5,1.3
			c3.1,1.1,6.3,2,9.4,2.7c4.5,1,9.1,1.8,13.7,2.5c0.5,0.1,0.9,0.1,1.4,0.2c3.4,0.5,6.8,0.8,10.2,1c1.7,0.1,3.4,0.2,5.1,0.3
			c10.8,0.4,21.7-0.2,32.4-1.8c0,3.1,1,6.6,1.7,9.4c0.9,3.8,2.1,7.6,3.4,11.3c2.7,7.6,5.9,15.3,10.3,22c4.2,6.6,9.8,12.1,15.1,17.8
			c2.8,3,5.9,5.9,9.1,8.5c0.2,0.2,0.5,0.4,0.7,0.6c-9.2,1.8-18.5,3.2-27.8,4.2c-41.6,4.4-85,0.5-125.4-11.4
			c-21.8-6.4-43-15.3-63.1-26.2c-82.9-47.1-140-129.5-155.8-222.4c-2.4-14-5.6-28-7.2-42.1c-6.7-56.2,6-118.9,32-169.1
			c0.8-1.5,1.7-4.4,3-5.6c12.4-11.2,25-22,39.1-31.2c17.5-11.4,36.5-20.4,56.5-26.4c19.9-5.9,40.4-8.6,61.1-7.4
			c21.3,1.3,42.4,6.6,62.3,14.3c36,13.9,68.8,36.8,92.1,67.8c20.9,27.9,35,61.4,38,96.3c3.2,37.1-6.5,72.9-27.5,103.1
			c-3.3,3-6.6,6-9.9,9 M813.8,793.2c-16.1,13.4-33.7,25.3-52.3,35.5c-18.6,10.1-38.2,18.4-58.2,24.7c-9.7,3-19.6,5.6-29.7,7.7
			c-0.8-0.9-1.7-1.7-2.4-2.5c-2.7-2.9-5.2-5.9-7.7-9c-4.6-5.9-7.7-12.8-10.9-19.5c-3.1-6.6-6-13.2-8-20.2c-1-3.6-1.9-7.2-2.5-10.9
			c-0.5-2.8-0.6-6-1.5-8.8c5.2-1.2,10.3-2.7,15.3-4.4c31.2-10.7,60.7-29.8,82.3-54.8c0.9-1-0.5-2.3-1.5-1.4
			c-20.7,19.2-45.7,33.6-73.2,40.6c-26.1,6.6-54.6,9.6-81.3,5.8c-12.1-1.7-26.5-4-36.2-12.2c-10.9-9.3-10.5-24.8-4.9-36.9
			c6.9-14.9,19.5-27.3,30.6-39.3c11.9-12.8,24.6-24.8,36.8-37.3c9.7-9.9,19.6-19.4,29.7-28.9c4.5-4.3,9.1-8.5,13.6-12.8
			c7.5-7.1,15-14.2,22.5-21.3c7.5-7.2,14.2-14.9,21.5-22.2c0.7-0.7-0.4-1.6-1.1-1c-7.5,6.4-15.4,12.2-22.8,18.8
			c-4.4,3.9-8.8,7.9-13.2,11.9c15-23.3,23-50.5,23.7-78.7c0.9-36.5-11.3-73.2-31-103.6c-21.7-33.5-52.6-59.5-88.6-76.6
			c-40.5-19.2-85.8-27.8-129.9-17.9c-24.2,5.4-47.3,15.4-68.1,28.8c-8.8,5.6-17.5,11.9-25.5,19c5.4-8.1,11.1-15.8,17.1-23.3
			c13.3-16.4,28.2-31.6,44.4-45.1c16.1-13.4,33.8-25.4,52.4-35.6l0,0c18.7-10.1,38.3-18.4,58.3-24.6c20.2-6.3,41-10.6,62-12.8
			c41.7-4.4,85.1-0.4,125.5,11.5c40.4,12,78.9,32.2,111.5,58.6c16.4,13.3,31.5,28.2,45,44.4c13.4,16.1,25.4,33.8,35.5,52.4
			c10.1,18.7,18.4,38.3,24.6,58.3c6.3,20.1,10.6,41,12.8,61.9c4.4,41.7,0.4,85-11.5,125.4c-11.9,40.4-32.2,78.9-58.6,111.4
			C845,764.6,830,779.7,813.8,793.2z"/>
		<circle cx="535.6" cy="508.9" r="81.1"/>
		
			<ellipse transform="matrix(0.1602 -0.9871 0.9871 0.1602 -71.8073 915.9702)" class="st3" cx="502.4" cy="500.2" rx="28" ry="28"/>
		<circle cx="333.3" cy="522.4" r="81.1"/>
		<path class="st7" d="M441.9,579.9c2.9,10.2,3.4,21.7,2.6,32.3c-19.2,5.7-38.3,5.8-58.2,2.4c-11.3-1.9-22.2-5.5-33-9.4
			c-5.5-2-10.9-4-16.2-6.3c-2.7-1.2-5.7-2.8-8.8-4c3.3-0.5,6.5-1.5,9.7-2.2c4.5-1.1,9-2.2,13.4-3.6c9.5-2.8,18.8-6.4,27.9-10.4
			c8.6-3.8,16.9-8.2,25-13.1c7.4-4.4,15.2-9,21.6-14.9c0.6,2,2.2,3.3,3.4,5c1.9,2.5,3.7,5,5.4,7.6
			C437.9,568.5,440.3,574.2,441.9,579.9z"/>
		<circle class="st3" cx="298.8" cy="511.8" r="28"/>
		<path d="M448.1,578.5c-2.8-6-6.2-11.6-10-17.1c-1.7-2.5-3.6-5-5.7-7.2c-1.5-1.7-3.1-3.8-5.3-4.5c0.1-0.1,0.2-0.2,0.3-0.3
			c0.3-0.3-0.1-0.8-0.5-0.6c-2.3,1.1-4.5,2.4-6.7,3.7c-5.8,3.4-11.4,7.1-17.2,10.3c-8.6,4.6-17.4,8.8-26.5,12.4
			c-8.5,3.5-17.3,6.5-26.1,9.2c-4.4,1.4-8.9,2.6-13.3,3.7c-4.6,1.1-9.7,1.7-14.1,3.3c-0.7,0.3-1.2,0.8-1.4,1.5c0,0.1,0,0.1,0,0.2
			c-0.2,1,0.3,2,1.3,2.4c3.6,3.7,9.8,6,14.2,8.4c5.1,2.7,10.1,5.5,15.3,8c0.4,0.2,0.9,0.4,1.4,0.6c10.3,4.9,21.3,9.1,32.3,12.1
			c20.5,5.6,44.5,6.5,64.4-1.9c2.6-0.2,5-2.1,5.3-5.9c0.6-6.8-0.1-13.2-1.4-19.9C453.3,590.2,451,584.5,448.1,578.5z M386.4,614.7
			c-11.3-1.9-22.2-5.5-33-9.4c-5.5-2-10.9-4-16.2-6.3c-2.7-1.2-5.7-2.8-8.8-4c3.3-0.5,6.5-1.5,9.7-2.2c4.5-1.1,9-2.2,13.4-3.6
			c9.5-2.8,18.8-6.4,27.9-10.4c8.6-3.8,16.9-8.2,25-13.1c7.4-4.4,15.2-9,21.6-14.9c0.6,2,2.2,3.3,3.4,5c1.9,2.5,3.7,5,5.4,7.6
			c3.2,5,5.6,10.7,7.2,16.4c2.9,10.2,3.4,21.7,2.6,32.3C425.3,618,406.2,618,386.4,614.7z"/>
		<g>
			<g class="st8">
				<path d="M925.4,603.7c12.9-60.4,7.9-120.8-9.2-179.7c-1-3.4-2.3-7.2-5.5-8.6c-7.5-3.3-11.8,8.6-11.7,16.9
					c0.6,80.6-38.1,171-87.3,232.4C765.2,722.9,699.1,776.1,622,788c-8.4,1.3-16.8,2.4-25.4,2c-8.4-0.3-16.7-3.4-24.6-6.2
					c-8.5-3-17.2-5.8-25.4-9.5c-7.8-3.6-13.5-9.8-15.2-18.3c-0.2-0.9-1.5-0.6-1.5,0.3c-0.1,3.4,0.4,6.7,1.5,9.9
					c0.2,0.5,0.3,1,0.5,1.5c-0.1,0.3-0.2,0.6-0.3,1c-0.8,15.2,9.9,25.6,22.8,33.6c-1.2,0-2.4,0-3.6,0
					c-85.7-0.5-170.6-39.4-226.8-104.1c-2.7-3.1-9-5.6-9.8-1.6c-0.3,1.6,0.8,3.1,1.8,4.4c20.5,25.5,38.7,56,61.7,78.9
					c10.1,12.6,21.7,24.1,35.4,32.7c14.2,8.9,30.2,15,45.9,20.8c1.2,0.9,2.4,1.7,3.6,2.5c5,3.5,10.3,6.3,15.8,9
					c11.5,5.6,23.5,10.3,35.6,14.4c24.1,8.1,49.3,12.3,74.6,14.2c115.5,8.9,215.7-41.6,280.2-138.1c25.9-38.8,45.4-82,55.6-127.5
					C924.8,606.5,925.1,605.1,925.4,603.7z"/>
			</g>
			<path class="st9" d="M338.7,600.9c4.1,3,7.8,2.4,11.6,5.8c5.2,1.9,10.1,4.3,15,6.8c11.4,4.3,23.5,6.9,35.5,7.7
				c16.9,1.2,33.5-2,50.3-3.8c0.7-4.1,1.1-8.2,2-12.2c-0.6-1.6-1.4-3.2-2.3-4.7c-0.2-0.4-0.6-0.5-1-0.4c-0.2-0.5,0.1-6.8-0.1-7.3
				c-1-2.3-0.7-2.4-2.6-1.8c-12.2,3.8-24.3,8.4-37,10.5c-17.6,3-35.5,1.5-53-1.3c-9.1-1.5-19.2-3.4-27.9-7.4
				c0.7,1.5-3.1,1.3-2.2,2.6c3.1,1.7,10.5,5.5,13.2,7.9c0.3,0.2,0.6,0.4,0.8,0.6c-1.3-2.2-1.5-2.3,0-0.3
				C342.4,605.4,338.4,600.7,338.7,600.9z"/>
			<g class="st8">
				<path d="M756.4,537.1c-3.4,0-6.8,0-10.1,0c-0.9,0-1.8-0.1-2.7-0.4c-3.4-1.2-4.2-3.3-2.2-6.3c5.5-8.3,11-16.6,16.5-25
					c8.4-12.7,16.8-25.3,25.2-37.9c0.5-0.8,1-1.5,1.6-2.2c2.2-2.5,4.8-2.6,7.1-0.2c1.8,1.9,3,4.2,4.5,6.4c2.3,3.4,4.5,7,6.8,10.4
					c2.8,4,2.7,8.1,0.1,12c-8.4,12.6-16.9,25.2-25.5,37.7c-2.6,3.8-6.6,5.2-10.9,5.5C763.3,537.3,759.8,537.1,756.4,537.1z"/>
				<path d="M808.1,537.1c-6.2,0-11.2,0-16.2,0c-0.5,0-1.1,0.1-1.6,0c-4.4-1-6.9-3.4-4.1-8c5.4-8.7,11-17.4,16.5-26
					c2.7-4.1,6.8-4.1,9.4,0c5.6,8.8,11,17.7,16.5,26.6c2.2,3.6,0.9,6.4-3.4,7C819.2,537.6,813.1,536.8,808.1,537.1z"/>
			</g>
		</g>
	</g>
</g>
</svg>
