<svg version="1.1" id="Primary_Logo" xmlns="http://www.w3.org/2000/svg" x="0" y="0" viewBox="0 0 953.7 883.8" style="enable-background:new 0 0 953.7 883.8" xml:space="preserve"><style>.st0{display:none}.st3,.st4{display:inline;fill:#3c1a26}.st4{fill:#29121a}.st5,.st7,.st8{display:inline;fill:#421d2a}.st7,.st8{fill:#a24741}.st8{fill:#db5b54}.st10,.st12,.st9{display:inline;fill:#bd967f}.st10,.st12{fill:#886b59}.st12{fill:#fff}.st13,.st16,.st17{display:inline;fill:#493239}.st16,.st17{fill:#f2716a}.st17{fill:#898989}.st18,.st19,.st20{display:inline;fill:#888}.st19,.st20{fill:#d6d6d6}.st20{fill:#fdfdfd}.st22{opacity:.3}.st23{fill:none}.st25{fill:#fff}.st26{display:inline}.st29{fill:#8c8c8c}.st37{fill:#ff0839}.st40{fill:#d23837}.st41{fill:#ff4f5f}.st42{fill:#093142}.st44{fill:#d1d1d1}.st45{fill:#002941}.st47{fill:#fcfcfc}.st48{fill:#00b0e5}.st50,.st51,.st53{display:inline;fill:#f7fcfe}.st51,.st53{fill:none}.st53{fill:#2775ca}.st56{fill:#ec3e3f}.st58{fill:#5a5564}.st62{fill:#f7fcfe}.st64{fill:#3c1a26}.st65{fill:#29121a}.st66{fill:#421d2a}.st68{fill:#a24741}.st69{fill:#db5b54}.st70{fill:#bd967f}.st71{fill:#886b59}.st73{fill:#493239}.st76{fill:#f2716a}.st77{fill:#898989}.st78{fill:#888}.st79{fill:#d6d6d6}.st80{fill:#fdfdfd}</style><g class="st22"><circle cx="139.4" cy="744.5" r="139.4" style="fill:#f36c21"/><path class="st25" d="M159.9 647.7c.9.4 1.9.4 2.9.5 5.2.9 10.2 2.3 15.1 4.2 8.5 3.2 16.1 8 23 13.9 7.3 6.3 13.6 13.6 18.8 21.9.9 1.5 1.8 3.1 2.7 4.8-3 1.1-5.9 1.5-9 1.6-6.6.1-12.8-1.7-18.9-4-2-.8-4-1.8-6-2.5-5.4-2-11-3.2-17.1-3.1.4-.3.6-.5.9-.6 4.3-3.1 8.4-6.6 11.7-10.8 1.7-2.2 3.1-4.4 4.2-6.9.5-1.2.3-2.1-.7-3-3.6-3.1-7.9-4.2-12.5-4.1-5.6.1-10.9 1.7-16 3.8-.4.1-.8.3-1.2.5-.1-.3.1-.5.1-.7 1.2-3.2 1.9-6.4 1.9-9.7 0-1.9-.1-3.7-.5-5.5.2-.3.4-.3.6-.3zM134.2 841.3c.1-.4.5-.1.7-.1h7.2c.2 0 .4-.1.6-.1 0 .2.4 0 .3.3-3-.1-5.9-.1-8.8-.1z"/><path class="st25" d="M117.6 651.8c.4 3.6.7 7.1 1.1 10.6 0 .3 0 .6.3.7.4.1.6-.2.8-.4 2.6-2.8 5.3-5.5 8.4-7.7 5.3-3.7 11-6.2 17.4-7 3-.4 5.9-.4 8.9-.1.4.1.6.2.6.6 1.2 7.2-.5 13.6-5 19.3-1.9 2.4-4 4.7-5.9 7-.1.1-.2.2-.3.4-.1.1-.1.2-.1.3.1.1.2.1.3.1l.6-.3c5-2.6 9.7-5.4 14.9-7.6 4-1.7 8.1-3.2 12.5-3.7 3.6-.4 7.1-.4 10.4 1.4 1.1.6 1.1.6.5 1.6-1.7 3-3.9 5.5-6.3 7.9-6.3 6-13.5 10.4-21.3 13.9-.4.2-1.2.2-1.1.8s.8.4 1.2.6c4.2 1.1 8.5 2.2 12.5 3.9 3.9 1.7 7.5 3.8 10.5 6.8.9.9 1.7 1.8 2.2 2.9-2.2.9-4.5 1.7-6.9 2.1-7.8 1.4-15.1-.1-22.3-3.2-3.5-1.5-6.4-3.7-9.4-5.8-.4-.3-.9-.6-1.3-.9-.2-.1-.4-.5-.7-.3-.2.2.1.5.1.7 2.2 5 4.3 10.1 6.5 15.1 2.5 6 5.3 11.9 7.4 18.1.1.1.1.4.2.7-1.1-.6-2.1-1.1-3-1.7-9.2-5.8-16.9-13.1-22.5-22.5-.6-1.1-1.3-2.3-1.9-3.4-.5-.9-.9-1-1.7-.4-6.6 5.2-13.1 10.4-19.6 15.6-4.5 3.6-9.3 7-14.1 10.4-1.9 1.4-4.2 1.5-6.6 1.4-.9-.1-1.7-.2-2.4-.5-1.4-.5-2-1.4-1.7-2.9.1-.5.2-1 .5-1.4 3.5-5.3 5.1-11.2 6.6-17.3 1.2-5 2-10 2.6-15.1.4-4.3 1.1-8.6 2.4-12.7 2-6.6 5.4-12.3 10.1-17.3 4-4.2 8.7-7.6 14-10 .2-.4.3-.5.6-.7zm-16.9 37.1c0-1.7-1.2-2.9-3-2.9-1.7 0-2.8 1.2-2.9 2.9 0 1.6 1.3 3 2.9 3 1.8.1 3-1.2 3-3zm9.8 0c0 1.7 1.3 3 2.9 3 1.7 0 3-1.3 3-3s-1.4-2.9-3-2.8c-1.7 0-2.9 1.2-2.9 2.8z"/><path class="st25" d="M156.5 756.6c-1.1-.4-2.1-.9-3.1-1.4-2.7-1.4-5.3-3-8-4-3.9-1.5-7.9-2.2-12.1-1.9-2.3.1-4.6.4-6.9.9-.4.1-.6 0-.7-.4-.4-1.1-1.1-2.1-1.8-3-.3-.4-.5-.4-.9-.2-3.6 1.8-7.2 3.5-10.9 5-8.4 3.2-16.9 5.9-25.6 7.5-1.4.3-2.9.4-4.3.4-1.2-.1-2.2-.7-2.4-1.7-.3-1.2.2-2.2 1.4-2.9 1.4-.6 2.8-1 4.2-1.6 3.7-1.4 7-3.5 9.9-6.1 5.1-4.7 8.8-10.4 12.2-16.3 1.9-3.4 3.5-6.9 5.4-10.2 2.2-3.9 5.3-6.9 8.6-9.7 1.1-.9 2.2-1.7 3.2-2.6.3-.3.5-.3.7.1 4.6 7.1 10.2 13.3 16.6 18.7 4.1 3.4 8.5 6.2 13.3 8.4.5.2.8.6 1 1.2.8 2.8 1.1 5.7 1.2 8.6.1 3.7-.1 7.4-.8 11.1-.1-.2-.2-.1-.2.1zM168.3 689.4c4-.4 7.8-.1 11.5.6 3.8.7 7.4 2 10.9 3.7 1.1.5 1.9 1.3 2.8 2.1 6.2 5.3 9.9 12.2 11.7 20.1.8 3.5 1.2 7.1 1.3 10.7 0 .4-.1.5-.4.6-6.6 3.8-13.4 6.7-20.9 8-4.7.9-9.4 1-14.1.4-3.7-.5-7.4-1.4-10.9-2.8-.3-.1-.6-.2-.7-.6-1.5-6.3-4.3-12-6.8-17.9-1.1-2.6-2.2-5.1-3.2-7.6.3-.1.4.1.6.1 4.5 2 9.1 3.4 14 3.8 7.2.7 14.1-.6 20.6-3.8 1.2-.6 1.5-1.4 1.1-2.7-.9-2.5-2.5-4.7-4.5-6.6-3.4-3.3-7.4-5.7-11.7-7.6-.4-.2-.8-.3-1.3-.5z"/><path class="st25" d="M111.9 791.9c-1.5.1-2.5-.5-3.1-1.8-3.5-7.3-7.1-14.7-10.5-22.1-.9-1.9-1.7-3.7-2.2-5.7-.3-1.2-.1-1.7.9-2.3 2.1-1.4 4.4-1.4 6.6-.6 3.2 1.1 5.9 3 8.4 5.3.5.4.9 1.3 1.5 1.2.4-.1.7-1 1-1.6 3.5-6.1 8.8-9.7 15.7-10.9 5.2-.9 10.1.1 14.8 2.2 2.3 1.1 4.5 2.3 6.7 3.5 1 .5 2 1.1 3.1 1.4.3.1.4.2.3.6-1.4 3.2-2.7 6.4-4.3 9.4-2.9 5.1-6.9 9.1-11.8 12.2-6.8 4.3-14.3 7-22.3 8.4-.9.1-1.7.3-2.5.4-.8.2-1.6.5-2.3.4zM206.7 731.8c.1 2.1.1 4 .1 6-.1 4.7-.4 9.4-1.6 13.9-1.9 6.7-6 10.3-12.9 11.5-5.6.9-11.2.3-16.7-.8-4.4-.9-8.6-2.2-12.9-3.5-.4-.1-.6-.4-.6-.8-.5-3.5-.4-7.1-.4-10.7-.1-3.2-.2-6.4-1-9.6 0-.1 0-.1.1-.2 16.2 5.3 31.4 2.2 45.9-5.8zM210.4 746.8c1.1 2.3 2.2 4.5 3.7 6.4 3.6 4.9 8.4 7.9 14.5 8.8 1.2.1 2.3.3 3.5.2.5 0 .6.1.5.6-1.2 6.1-3 12.1-5.3 17.9-2.3 5.8-5.3 11.4-8.6 16.6-.2.4-.4.4-.8.3-2.3-.7-4.2-2-5.6-4-2.2-2.8-3.2-6-3.9-9.5-1-5-1.2-10-.9-15.1.1-3.5.4-6.9.9-10.3.4-2.4.9-4.8 1.4-7.2.2-1.4.4-3 .6-4.7zM162.9 763.5c1.6.4 3 .9 4.5 1.3 5.4 1.5 10.8 2.7 16.4 3 5.2.4 10.3 0 15.1-2.1 1.1-.5 2-1.2 3.2-1.8-.5 1.8-1 3.5-1.7 5-2.1 5.6-4.8 10.9-8.5 15.6-2.9 3.7-6.3 6.8-10.4 8.9-3 1.5-5.5 1.1-8-1.2s-4-5.3-5.3-8.4c-2.3-5.5-3.7-11.2-4.8-17-.1-.9-.3-2-.5-3.3zM137.4 818.9c-1.2 1.1-2.4 2.1-3.4 3.2-3.3 3.6-5.9 7.6-7.1 12.5-.4 1.7-.8 3.5-.7 5.3 0 .4-.1.5-.5.5-5.4-.7-10.7-1.9-15.8-3.5-6.6-2-13-4.8-18.9-8.2-1.7-.9-3.2-1.9-4.9-3 1.3-1.2 2.7-2.3 4.1-3.2 4.5-2.8 9.6-4.4 14.9-5 3.7-.5 7.6-.6 11.4-.1 2.7.4 5.4.8 8.1 1 4 .4 8.1.5 12.2.3h.5s0 .1.1.2zM189.7 793.4c-.6 1.9-1.2 3.7-1.6 5.5-.7 3.1-1.2 6.3-1.2 9.4 0 3.3.6 6.6 2.2 9.5 1.1 2 2.5 3.7 4.4 5 .4.4.5.5 0 .9-8.1 5.7-16.9 10-26.4 13.1-.3.1-.5.3-.7-.2-1.7-3.6-2.9-7.4-2.8-11.5.1-4.3 1.4-8.3 3.5-12 3.1-5.2 7.3-9.3 12.2-12.7 3.3-2.3 6.8-4.3 10-6.8 0-.1.2-.1.4-.2zM142.6 841c-.2.1-.4.1-.6.1h-7.2c-1.2-.2-2.3-.2-3.5-.3-.6 0-.9-.2-.9-.9 0-3.6 1.2-6.8 3-9.9 3.2-5.3 7.8-9.4 13-12.7 5.1-3.2 10.6-5.6 16.1-8.1.8-.4 1.6-.7 2.4-1-.7 1.2-1.4 2.2-2.1 3.4-2.7 4.8-4.2 9.9-3.8 15.5.2 3.5 1.1 6.8 2.6 10 .5 1 .4 1-.6 1.2-5.9 1.6-12.1 2.5-18.4 2.7z"/><path class="st25" d="M210.4 719.1c2.4 2.7 4.9 5 7.8 6.9 3.7 2.3 7.7 3.7 12.2 3.4.8-.1 1.7-.1 2.4-.3.4-.1.4.1.4.4.1 1.8.4 3.6.5 5.4.4 4.8.4 9.5.3 14.3-.1 2.7-.3 5.5-.6 8.2-.1.4-.1.5-.5.5-3.8.1-7.4-.6-10.6-2.7-2.7-1.9-4.8-4.3-6.3-7.2-2.4-4.3-3.6-9-4.3-13.8-.6-3.4-.5-6.8-.7-10.2-.1-1.3-.2-2.6-.4-3.9-.2-.3-.2-.6-.2-1zM203 774.7c.1 1.7.2 3.2.4 4.8.6 5.5 1.6 10.8 4.6 15.6 1.9 2.9 4.3 5.1 7.6 6.4.1.1.2.1.4.1-1.3 1.9-2.7 3.5-4.1 5.3-4.1 4.8-8.6 9.3-13.6 13.2-.4.3-.6.3-.9.1-3.3-2-5-5-5.5-8.8-.7-5.3.4-10.4 1.9-15.4 1.5-4.7 3.5-9.2 5.8-13.5 1.2-2.2 2.3-4.5 3.3-6.8-.2-.4-.2-.6.1-1zM148.7 780.8c-.5 1.9-.9 3.8-1.3 5.8-.9 4.4-1.4 8.9-1.1 13.3.3 3.7 1.1 7.2 3.5 10.2.3.4.2.5-.1.6-3 1.5-6 2.5-9.3 3.1-4.8.9-9.7.7-14.5.4-1.2-.1-2.4-.2-3.6-.4-.4 0-.6-.1-.5-.6.4-4.1 2.1-7.6 4.2-11 3.3-5 7.6-9.2 12.3-12.9 3.5-2.7 6.9-5.3 10-8.4.1-.1.2-.1.4-.1zM126.8 793.8c-.1.4-.4.6-.6.9-3.1 3.7-5.8 7.8-7.4 12.5-.6 1.7-1 3.5-1.2 5.3-.1.6-.3.6-.7.5-4-.7-7.9-1.6-11.8-2.7-3.6-1-7.1-2.3-10.4-4-3.5-1.7-6.1-4.4-8.4-7.5-2-2.8-3.7-5.8-5.3-8.9 0-.1 0-.1-.1-.2.2-.1.4.1.5.1 5.3 2.6 10.8 4.5 16.6 5.5 4.9.9 9.9 1.1 14.8.9 4.6-.2 9.1-1.1 13.5-2.3.2-.1.3-.1.5-.1zM82.1 800.6c-1.6-.4-3-.6-4.5-.8-5.3-.4-10.1.6-14 4.4-.4.4-.5.4-.9 0-6.1-7.9-10.9-16.6-14.5-25.9-.2-.5-.1-.6.4-.7 8.9-1.2 16.9.9 23.3 7.3 2 1.9 3.7 4.2 4.9 6.7 1.4 2.9 3 5.8 4.8 8.4.3.2.4.4.5.6zM201.4 697.3c2.1.5 4 .9 6 1.2 5.1.6 10.2.6 15.2-.9.1-.1.3-.1.5-.1 1.3-.4 1.3-.4 1.9.9 1.6 3.7 3 7.3 4.2 11.2 1.4 4.8 2.7 9.8 3.4 14.8.1.4 0 .6-.4.6-4.4.9-8.3-.4-11.9-2.7-4.2-2.8-7.3-6.5-10.2-10.6-1.6-2.3-2.9-4.7-4.1-7.1-1.1-2.2-2.4-4.2-4-6.3-.3-.5-.4-.7-.6-1zM158.7 764.7c.5 3.4 1.2 6.6 1.9 9.8 1.4 5.5 3.1 10.9 5.9 15.8 1.6 2.8 3.6 5.3 6.4 7.1.2.1.5.3.8.4.2.1.5.2.7.4-.1.3-.4.4-.7.5-6.1 3.5-12.3 6.6-18.7 9.6-.6.3-.9.1-1.2-.3-1.8-1.7-2.5-3.9-3-6.3-.6-3.7-.4-7.3.2-11 1.3-8.7 4-17 7.2-25.1.2-.3.3-.5.5-.9zM100.9 813.6c-2.7.6-5.4 1.4-7.9 2.4-3.7 1.6-7.1 3.7-10 6.5-.4.4-.6.4-1.2.1-4.8-3.6-9.2-7.5-13.3-11.9-.7-.8-1.4-1.7-2.2-2.4-.4-.4-.2-.5.1-.8 1.9-1.9 4.2-3 6.8-3.2 3.6-.4 7.1.3 10.5 1.5 2.5.9 4.8 2.1 7.1 3.4 2.9 1.7 6 3.1 9.1 4 .4.1.7.1 1 .4zM61.7 773.9c-1.2-.1-2.4-.4-3.6-.6-2.7-.4-5.5-.4-8.3-.1-.9.1-1.8.2-2.7.4-.4.1-.5-.1-.6-.4-.9-2.7-1.6-5.5-2.2-8.4-1.2-5.9-1.9-11.8-1.9-17.8 0-.9 0-.9.8-.6 1.9.6 3.4 1.9 4.7 3.5 1.8 2.2 3 4.8 3.9 7.6 1.7 4.8 4.2 9 7.1 13 1 1 1.8 2.2 2.8 3.4zM45.7 721.2c1.2 1 1.7 2.4 2.1 3.8.4 1.7.1 3.2 0 4.9-.4 3.5-.4 7 .1 10.4.1 1.2.3 2.3.5 3.6-1.7-1.3-3.5-2.1-5.4-2.3-.3-.1-.4-.2-.4-.5.3-6.6 1.2-13.3 3.1-19.9zM61.7 773.9zM126.8 793.8c.1 0 0 0 0 0z"/></g><circle cx="261.2" cy="252.2" r="252.2" style="fill:#161616"/><path class="st47" d="M301.9 302.6c-7.1-15.3-14-30.5-21.1-45.6-1-2.1-.8-4-.5-6.1 4.7-35.2-20.1-68.9-54.7-74.2-37.3-5.8-72 18.1-78 53.6-6.2 36.7 17.1 71.6 53.2 77.1 11.2 1.7 16 6.4 19.4 16 2.9 8.2 7.1 16 10.7 24.1-49.6 10.3-102.6-20.2-120.9-69.2-18.8-50.4 2.8-106.7 51-132.9 47-25.6 107-12.4 139.5 30.5 31.4 41.4 25.8 96.8 1.4 126.7zM398.5 289.3c0 18.3-.1 36.5.1 54.8 0 4-.8 5.4-5.1 5.3-13-.3-26-.2-39 0-3.5 0-4.7-.8-4.7-4.5.1-37.2.2-74.3.1-111.5 0-3.5.9-4.8 4.6-4.8 13.2.2 26.4.2 39.7 0 3.7-.1 4.5 1.2 4.5 4.7-.3 18.7-.2 37.3-.2 56z"/><path class="st48" d="M276.9 349.3c-6.7 0-13.4-.1-20.1 0-3 .1-4.9-.7-6.3-3.8-8.9-19.9-18-39.7-27-59.5-3-6.6-2.7-7 4.4-7 12.6 0 25.2.1 37.8-.1 4-.1 6 1.3 7.6 4.9 9 20.1 18 40.1 27.4 60.1 2.2 4.6 1.3 5.7-3.5 5.5-6.8-.3-13.6-.1-20.3-.1zM398.5 178.9c.2 14.5.1 14.5-13.4 20.2-10 4.2-20 8.5-30 12.9-4.3 1.9-5.4.8-5.4-3.7-.3-21.1-.4-21.1 19.3-29.5 7.9-3.4 15.9-6.5 23.6-10.3 5.2-2.6 6.6-1.3 6 4.1-.3 2.1-.1 4.2-.1 6.3z"/><g><circle cx="617.3" cy="547.5" r="336.3" style="fill:#e74342"/><path class="st62" d="M457.2 720.3h-53.7c-3.6 0-7.3-.5-10.9-1.9-10.8-3.8-15.8-12.8-13-23.9.9-4 2.6-7.6 4.7-11.3 34.8-61.2 69.5-122.3 104.3-183.7 35.5-62.4 70.7-124.6 106.2-187 2.6-4.5 5.6-8.8 9.7-12 8-6.1 17-5.9 24.6.5 3.5 2.9 6.2 6.6 8.5 10.6 17.2 31.5 35.1 62.4 52.8 93.7 4.3 7.6 6.8 16.1 7.6 24.8 1.4 13-.5 25.5-6.4 37.2-3.5 6.9-7.6 13.4-11.5 20.1-38.6 66.9-77 133.6-115.7 200.4-9.9 17-25.2 27.2-44.5 31.3-4 .9-8.2 1.2-12.3 1.2h-50.4zM756.2 720.3H682c-4.2 0-8.2-.7-12-2.1-9.9-3.8-14.7-12.8-12.3-23.6.9-4.2 2.6-7.8 4.7-11.5 24.3-42.1 48.9-84.2 73.1-126.3 2.3-4 5-7.6 8.5-10.6 8-6.8 17.7-6.6 25.7 0 3.5 2.9 6.2 6.6 8.5 10.6 23.9 42.3 48 84.3 72.1 126.5 2.6 4.5 4.7 9 5 14.2.7 10.2-4.2 17.5-13.9 20.8-4.3 1.4-8.7 1.7-13.2 1.7-23.8.3-47.9.3-72 .3z"/></g></svg>