<?xml version="1.0" encoding="utf-8"?>
<!-- Generator: Adobe Illustrator 25.2.1, SVG Export Plug-In . SVG Version: 6.00 Build 0)  -->
<svg version="1.1" id="Primary_Logo" xmlns="http://www.w3.org/2000/svg" xmlns:xlink="http://www.w3.org/1999/xlink" x="0px"
	 y="0px" viewBox="0 0 953.7 883.8" style="enable-background:new 0 0 953.7 883.8;" xml:space="preserve">
<style type="text/css">
	.st0{display:none;}
	.st1{display:none;fill:#77ED0F;}
	.st2{display:inline;fill:#E74342;}
	.st3{display:inline;fill:#F7FCFE;}
	.st4{display:none;opacity:0.5;}
	.st5{display:inline;fill:#3C1A26;}
	.st6{display:inline;fill:#29121A;}
	.st7{display:inline;fill:#421D2A;}
	.st8{display:inline;fill:#DE6660;}
	.st9{display:inline;fill:#A24741;}
	.st10{display:inline;fill:#DB5B54;}
	.st11{display:inline;fill:#BD967F;}
	.st12{display:inline;fill:#886B59;}
	.st13{display:inline;fill:#B88D73;}
	.st14{display:inline;fill:#FFFFFF;}
	.st15{display:inline;fill:#493239;}
	.st16{display:inline;fill:#CAA390;}
	.st17{display:inline;fill:#C4524C;}
	.st18{display:inline;fill:#F2716A;}
	.st19{display:inline;fill:#898989;}
	.st20{display:inline;fill:#888888;}
	.st21{display:inline;fill:#D6D6D6;}
	.st22{display:inline;fill:#FDFDFD;}
	.st23{display:inline;fill:#DCDCDC;}
	.st24{display:none;opacity:0.3;}
	.st25{display:inline;fill:none;}
	.st26{display:inline;fill:#F36C21;}
	.st27{display:inline;}
	.st28{fill:#FFFFFF;}
	.st29{opacity:0.5;}
	.st30{fill:#E8D0FF;}
	.st31{fill:#E8D0FF;stroke:#FFFFFF;stroke-width:5.5274;stroke-miterlimit:10;}
	.st32{clip-path:url(#SVGID_2_);}
	.st33{fill:url(#SVGID_3_);}
	.st34{fill:url(#SVGID_4_);}
	.st35{fill:url(#SVGID_5_);}
	.st36{fill:#0E0F23;}
	.st37{fill-rule:evenodd;clip-rule:evenodd;fill:#FFFFFF;}
	.st38{fill:#FFFFFF;stroke:#000000;stroke-width:15.2223;stroke-miterlimit:10;}
	.st39{fill:#373636;}
	.st40{fill:#8C8C8C;}
	.st41{fill:#191819;}
	.st42{fill:#3B3C3B;}
	.st43{fill:#414140;}
	.st44{display:inline;fill:#53AE94;}
	.st45{display:inline;fill:#F5AC37;}
	.st46{display:inline;fill:#FEFEFD;}
	.st47{fill:#E8D0FF;stroke:#FFFFFF;stroke-width:10;stroke-miterlimit:10;}
	.st48{clip-path:url(#SVGID_7_);}
	.st49{fill:url(#SVGID_8_);}
	.st50{fill:url(#SVGID_9_);}
	.st51{fill:url(#SVGID_10_);}
	.st52{fill:#FFFAFA;}
	.st53{fill:#EC3E3F;}
	.st54{opacity:0.3;}
	.st55{opacity:0.3;enable-background:new    ;}
</style>
<circle class="st0" cx="618.1" cy="548.3" r="335.6"/>
<circle class="st1" cx="261.2" cy="252.2" r="252.2"/>
<g class="st0">
	<circle class="st2" cx="261.2" cy="252.2" r="252.2"/>
	<path class="st3" d="M141.2,381.7c-13.4,0-26.8,0-40.3,0c-2.7,0-5.5-0.4-8.2-1.4c-8.1-2.9-11.9-9.6-9.8-18c0.7-3,2-5.7,3.5-8.5
		c26.1-45.9,52.1-91.8,78.2-137.8c26.6-46.8,53-93.4,79.6-140.2c2-3.4,4.2-6.6,7.3-9c6-4.6,12.8-4.4,18.5,0.4c2.6,2.2,4.7,5,6.4,8
		c12.9,23.6,26.3,46.8,39.6,70.2c3.3,5.7,5.1,12.1,5.7,18.6c1,9.8-0.4,19.2-4.8,27.9c-2.6,5.2-5.7,10-8.6,15.1
		c-28.9,50.2-57.7,100.2-86.8,150.3c-7.4,12.8-18.9,20.3-33.4,23.5c-3,0.7-6.1,0.9-9.3,0.9C166.4,381.7,153.8,381.7,141.2,381.7
		L141.2,381.7z"/>
	<path class="st3" d="M365.3,381.7c-18.5,0-37,0-55.7,0c-3.1,0-6.1-0.5-9-1.6c-7.4-2.9-11.1-9.6-9.3-17.7c0.7-3.1,2-5.9,3.5-8.6
		c18.2-31.5,36.6-63.1,54.9-94.8c1.7-3,3.8-5.7,6.4-8c6-5.1,13.3-5,19.3,0c2.6,2.2,4.7,5,6.4,8c18,31.7,36,63.2,54.1,94.9
		c2,3.4,3.5,6.8,3.8,10.7c0.5,7.7-3.1,13.2-10.4,15.6c-3.3,1-6.5,1.3-9.9,1.3C401.4,381.7,383.5,381.7,365.3,381.7L365.3,381.7z"/>
</g>
<g class="st4">
	<path class="st5" d="M195.2,809.8l0.1,25.6L156,858l-0.1-25.6L195.2,809.8z"/>
	<path class="st6" d="M156,858l-69.4-40.3l-0.1-25.6l69.4,40.3L156,858z"/>
	<path class="st7" d="M155.9,832.5l-69.4-40.3l39.3-22.7l69.4,40.3L155.9,832.5z"/>
	<path class="st5" d="M150.1,835.6l0.1,25.6L111,883.8l-0.1-25.6L150.1,835.6z"/>
	<path class="st6" d="M111,883.8l-69.4-40.3l-0.1-25.6l69.4,40.3L111,883.8z"/>
	<path class="st7" d="M110.9,858.2l-69.4-40.3l39.3-22.7l69.4,40.3L110.9,858.2z"/>
	<path class="st8" d="M193.9,765.6l0.1,36.5l-95.3,55l-0.1-36.5L193.9,765.6z"/>
	<path class="st9" d="M98.7,857.1L4,802.1v-36.5l94.7,55V857.1z"/>
	<path class="st10" d="M98.6,820.6L4,765.6l95.3-55l94.7,55L98.6,820.6z"/>
	<path class="st11" d="M193.4,692.5l0.2,73l-95.3,55l-0.2-73L193.4,692.5z"/>
	<path class="st12" d="M98.3,820.5l-94.7-55l-0.2-73l94.7,55L98.3,820.5z"/>
	<path class="st13" d="M98.1,747.6l-94.7-55l95.3-55l94.7,55L98.1,747.6z"/>
	<path class="st14" d="M145.9,738.8v14.6l-12.7,7.3v14.6L146,768l-25.4,14.7l-0.1-29.2L145.9,738.8z"/>
	<path class="st15" d="M145.9,753.4V768l-12.7,7.3v-14.6L145.9,753.4z"/>
	<path class="st14" d="M183.3,717.3v14.6l-12.7,7.3v14.6l12.7-7.3l-25.4,14.7l-0.1-29.2L183.3,717.3z"/>
	<path class="st15" d="M183.3,731.9v14.6l-12.7,7.3v-14.6L183.3,731.9z"/>
	<path class="st12" d="M41.3,838.5l-0.1,21.9L9.5,842.1l0.1-21.9L41.3,838.5z"/>
	<path class="st11" d="M41.3,838.5l31.6-18.3l-0.1,21.9l-31.6,18.3L41.3,838.5z"/>
	<path class="st16" d="M9.5,820.2l31.6-18.3l31.8,18.3l-31.6,18.3L9.5,820.2z"/>
	<path class="st17" d="M50.8,829.4l31.6-18.3v14.6L50.8,844V829.4z"/>
	<path class="st18" d="M0,800.1l31.6-18.3l50.8,29.3l-31.6,18.3L0,800.1z"/>
	<path class="st9" d="M50.8,829.4V844l-9.5-5.5L9.5,820.2L0,814.7v-14.6L50.8,829.4z"/>
	<path class="st10" d="M193.5,659.9l0.1,36.5l-95.3,55l-0.1-36.5L193.5,659.9z"/>
	<path class="st9" d="M98.3,751.4l-94.7-55l-0.1-36.5l94.7,55L98.3,751.4z"/>
	<path class="st18" d="M98.2,714.9l-94.7-55l95.3-55l94.7,55L98.2,714.9z"/>
	<path class="st10" d="M176.1,724.1c7.9-4.7,16.5-8.2,25.4-10.4v14.6c-8.9,2.2-17.5,5.7-25.4,10.4c-9.1,5.4-17.7,11.7-25.4,18.9V743
		C158.5,735.8,167,729.5,176.1,724.1L176.1,724.1z"/>
	<path class="st9" d="M150.8,757.6l-31.5-18.3v-14.6l31.6,18.3L150.8,757.6z"/>
	<path class="st18" d="M150.7,743l-31.6-18.3c7.7-7.2,16.3-13.6,25.4-18.9c9.1-5.4,25.2-10.7,25.2-10.7l31.8,18.8
		c0,0-16.3,4.9-25.4,10.3C167,729.5,158.5,735.8,150.7,743z"/>
	<path class="st19" d="M180.6,794.8l-6.3-3.7l-1.7-1.2l6.3,3.7L180.6,794.8z"/>
	<path class="st19" d="M168.5,808.3l-6.3-3.7l-3.3-2.9l6.3,3.7L168.5,808.3z"/>
	<path class="st20" d="M104.6,824.3l-6.3-3.7v-2.3l6.3,3.7V824.3z"/>
	<path class="st21" d="M200.5,756.2v6.4v4v2.3l-19.9,25.9l-1.7-1.2l-10.5,14.7l-3.3-2.9l-12.5,19.4l-12.6-4.9l-3.3,6.7l-10.6-2.5
		l-1.7,3.1l-19.9-2.9V822v-10.4L200.5,756.2z"/>
	<path class="st20" d="M104.6,822l-6.3-3.7v-10.4l6.3,3.7V822z"/>
	<path class="st22" d="M104.5,811.6l-6.3-3.7l95.9-55.4l6.3,3.7L104.5,811.6z"/>
	<path class="st22" d="M51.1,761.3l6.3-3.7l40.9,50.2l-6.3,3.7L51.1,761.3z"/>
	<path class="st22" d="M92,811.5l6.3-3.7l6.3,3.7l-6.3,3.7L92,811.5z"/>
	<path class="st21" d="M98.3,815.2l6.3-3.7v12.8l-6.3,3.7V815.2z"/>
	<path class="st19" d="M51.2,731.3l-0.1,30L92,811.5l6.4,3.7V828L51,799.2l-11.3-6.5l-5.6-3.2v-12.9l5.7-21.7l0.1-30L51.2,731.3z"/>
	<path class="st22" d="M51.2,731.3l6.3-3.7l-0.1,30l-6.3,3.7L51.2,731.3z"/>
	<path class="st23" d="M39.9,724.8l6.3-3.7l11.3,6.5l-6.3,3.7L39.9,724.8z"/>
</g>
<g class="st24">
	<path class="st25" d="M0,605.1"/>
	<path class="st25" d="M0,605.1"/>
	<path class="st25" d="M0,605.1"/>
	<path class="st25" d="M0,605.1"/>
	<path class="st25" d="M0,605.1"/>
	<circle class="st26" cx="139.4" cy="744.5" r="139.4"/>
	<g class="st27">
		<path class="st28" d="M159.9,647.7c0.9,0.4,1.9,0.4,2.9,0.5c5.2,0.9,10.2,2.3,15.1,4.2c8.5,3.2,16.1,8,23,13.9
			c7.3,6.3,13.6,13.6,18.8,21.9c0.9,1.5,1.8,3.1,2.7,4.8c-3,1.1-5.9,1.5-9,1.6c-6.6,0.1-12.8-1.7-18.9-4c-2-0.8-4-1.8-6-2.5
			c-5.4-2-11-3.2-17.1-3.1c0.4-0.3,0.6-0.5,0.9-0.6c4.3-3.1,8.4-6.6,11.7-10.8c1.7-2.2,3.1-4.4,4.2-6.9c0.5-1.2,0.3-2.1-0.7-3
			c-3.6-3.1-7.9-4.2-12.5-4.1c-5.6,0.1-10.9,1.7-16,3.8c-0.4,0.1-0.8,0.3-1.2,0.5c-0.1-0.3,0.1-0.5,0.1-0.7c1.2-3.2,1.9-6.4,1.9-9.7
			c0-1.9-0.1-3.7-0.5-5.5C159.5,647.7,159.7,647.7,159.9,647.7z"/>
		<path class="st28" d="M134.2,841.3c0.1-0.4,0.5-0.1,0.7-0.1c2.4,0,4.8,0,7.2,0c0.2,0,0.4-0.1,0.6-0.1c0,0.2,0.4,0,0.3,0.3
			C140,841.3,137.1,841.3,134.2,841.3z"/>
		<path class="st28" d="M117.6,651.8c0.4,3.6,0.7,7.1,1.1,10.6c0,0.3,0,0.6,0.3,0.7c0.4,0.1,0.6-0.2,0.8-0.4
			c2.6-2.8,5.3-5.5,8.4-7.7c5.3-3.7,11-6.2,17.4-7c3-0.4,5.9-0.4,8.9-0.1c0.4,0.1,0.6,0.2,0.6,0.6c1.2,7.2-0.5,13.6-5,19.3
			c-1.9,2.4-4,4.7-5.9,7c-0.1,0.1-0.2,0.2-0.3,0.4c-0.1,0.1-0.1,0.2-0.1,0.3c0.1,0.1,0.2,0.1,0.3,0.1c0.2-0.1,0.4-0.2,0.6-0.3
			c5-2.6,9.7-5.4,14.9-7.6c4-1.7,8.1-3.2,12.5-3.7c3.6-0.4,7.1-0.4,10.4,1.4c1.1,0.6,1.1,0.6,0.5,1.6c-1.7,3-3.9,5.5-6.3,7.9
			c-6.3,6-13.5,10.4-21.3,13.9c-0.4,0.2-1.2,0.2-1.1,0.8s0.8,0.4,1.2,0.6c4.2,1.1,8.5,2.2,12.5,3.9c3.9,1.7,7.5,3.8,10.5,6.8
			c0.9,0.9,1.7,1.8,2.2,2.9c-2.2,0.9-4.5,1.7-6.9,2.1c-7.8,1.4-15.1-0.1-22.3-3.2c-3.5-1.5-6.4-3.7-9.4-5.8
			c-0.4-0.3-0.9-0.6-1.3-0.9c-0.2-0.1-0.4-0.5-0.7-0.3c-0.2,0.2,0.1,0.5,0.1,0.7c2.2,5,4.3,10.1,6.5,15.1c2.5,6,5.3,11.9,7.4,18.1
			c0.1,0.1,0.1,0.4,0.2,0.7c-1.1-0.6-2.1-1.1-3-1.7c-9.2-5.8-16.9-13.1-22.5-22.5c-0.6-1.1-1.3-2.3-1.9-3.4c-0.5-0.9-0.9-1-1.7-0.4
			c-6.6,5.2-13.1,10.4-19.6,15.6c-4.5,3.6-9.3,7-14.1,10.4c-1.9,1.4-4.2,1.5-6.6,1.4c-0.9-0.1-1.7-0.2-2.4-0.5
			c-1.4-0.5-2-1.4-1.7-2.9c0.1-0.5,0.2-1,0.5-1.4c3.5-5.3,5.1-11.2,6.6-17.3c1.2-5,2-10,2.6-15.1c0.4-4.3,1.1-8.6,2.4-12.7
			c2-6.6,5.4-12.3,10.1-17.3c4-4.2,8.7-7.6,14-10C117.2,652.1,117.3,652,117.6,651.8z M100.7,688.9c0-1.7-1.2-2.9-3-2.9
			c-1.7,0-2.8,1.2-2.9,2.9c0,1.6,1.3,3,2.9,3C99.5,692,100.7,690.7,100.7,688.9z M110.5,688.9c0,1.7,1.3,3,2.9,3c1.7,0,3-1.3,3-3
			s-1.4-2.9-3-2.8C111.7,686.1,110.5,687.3,110.5,688.9z"/>
		<path class="st28" d="M156.5,756.6c-1.1-0.4-2.1-0.9-3.1-1.4c-2.7-1.4-5.3-3-8-4c-3.9-1.5-7.9-2.2-12.1-1.9
			c-2.3,0.1-4.6,0.4-6.9,0.9c-0.4,0.1-0.6,0-0.7-0.4c-0.4-1.1-1.1-2.1-1.8-3c-0.3-0.4-0.5-0.4-0.9-0.2c-3.6,1.8-7.2,3.5-10.9,5
			c-8.4,3.2-16.9,5.9-25.6,7.5c-1.4,0.3-2.9,0.4-4.3,0.4c-1.2-0.1-2.2-0.7-2.4-1.7c-0.3-1.2,0.2-2.2,1.4-2.9c1.4-0.6,2.8-1,4.2-1.6
			c3.7-1.4,7-3.5,9.9-6.1c5.1-4.7,8.8-10.4,12.2-16.3c1.9-3.4,3.5-6.9,5.4-10.2c2.2-3.9,5.3-6.9,8.6-9.7c1.1-0.9,2.2-1.7,3.2-2.6
			c0.3-0.3,0.5-0.3,0.7,0.1c4.6,7.1,10.2,13.3,16.6,18.7c4.1,3.4,8.5,6.2,13.3,8.4c0.5,0.2,0.8,0.6,1,1.2c0.8,2.8,1.1,5.7,1.2,8.6
			c0.1,3.7-0.1,7.4-0.8,11.1C156.6,756.3,156.5,756.4,156.5,756.6z"/>
		<path class="st28" d="M168.3,689.4c4-0.4,7.8-0.1,11.5,0.6c3.8,0.7,7.4,2,10.9,3.7c1.1,0.5,1.9,1.3,2.8,2.1
			c6.2,5.3,9.9,12.2,11.7,20.1c0.8,3.5,1.2,7.1,1.3,10.7c0,0.4-0.1,0.5-0.4,0.6c-6.6,3.8-13.4,6.7-20.9,8c-4.7,0.9-9.4,1-14.1,0.4
			c-3.7-0.5-7.4-1.4-10.9-2.8c-0.3-0.1-0.6-0.2-0.7-0.6c-1.5-6.3-4.3-12-6.8-17.9c-1.1-2.6-2.2-5.1-3.2-7.6c0.3-0.1,0.4,0.1,0.6,0.1
			c4.5,2,9.1,3.4,14,3.8c7.2,0.7,14.1-0.6,20.6-3.8c1.2-0.6,1.5-1.4,1.1-2.7c-0.9-2.5-2.5-4.7-4.5-6.6c-3.4-3.3-7.4-5.7-11.7-7.6
			C169.2,689.7,168.8,689.6,168.3,689.4z"/>
		<path class="st28" d="M111.9,791.9c-1.5,0.1-2.5-0.5-3.1-1.8c-3.5-7.3-7.1-14.7-10.5-22.1c-0.9-1.9-1.7-3.7-2.2-5.7
			c-0.3-1.2-0.1-1.7,0.9-2.3c2.1-1.4,4.4-1.4,6.6-0.6c3.2,1.1,5.9,3,8.4,5.3c0.5,0.4,0.9,1.3,1.5,1.2c0.4-0.1,0.7-1,1-1.6
			c3.5-6.1,8.8-9.7,15.7-10.9c5.2-0.9,10.1,0.1,14.8,2.2c2.3,1.1,4.5,2.3,6.7,3.5c1,0.5,2,1.1,3.1,1.4c0.3,0.1,0.4,0.2,0.3,0.6
			c-1.4,3.2-2.7,6.4-4.3,9.4c-2.9,5.1-6.9,9.1-11.8,12.2c-6.8,4.3-14.3,7-22.3,8.4c-0.9,0.1-1.7,0.3-2.5,0.4
			C113.4,791.7,112.6,792,111.9,791.9z"/>
		<path class="st28" d="M206.7,731.8c0.1,2.1,0.1,4,0.1,6c-0.1,4.7-0.4,9.4-1.6,13.9c-1.9,6.7-6,10.3-12.9,11.5
			c-5.6,0.9-11.2,0.3-16.7-0.8c-4.4-0.9-8.6-2.2-12.9-3.5c-0.4-0.1-0.6-0.4-0.6-0.8c-0.5-3.5-0.4-7.1-0.4-10.7
			c-0.1-3.2-0.2-6.4-1-9.6c0-0.1,0-0.1,0.1-0.2C177,742.9,192.2,739.8,206.7,731.8z"/>
		<path class="st28" d="M210.4,746.8c1.1,2.3,2.2,4.5,3.7,6.4c3.6,4.9,8.4,7.9,14.5,8.8c1.2,0.1,2.3,0.3,3.5,0.2
			c0.5,0,0.6,0.1,0.5,0.6c-1.2,6.1-3,12.1-5.3,17.9c-2.3,5.8-5.3,11.4-8.6,16.6c-0.2,0.4-0.4,0.4-0.8,0.3c-2.3-0.7-4.2-2-5.6-4
			c-2.2-2.8-3.2-6-3.9-9.5c-1-5-1.2-10-0.9-15.1c0.1-3.5,0.4-6.9,0.9-10.3c0.4-2.4,0.9-4.8,1.4-7.2
			C210,750.1,210.2,748.5,210.4,746.8z"/>
		<path class="st28" d="M162.9,763.5c1.6,0.4,3,0.9,4.5,1.3c5.4,1.5,10.8,2.7,16.4,3c5.2,0.4,10.3,0,15.1-2.1c1.1-0.5,2-1.2,3.2-1.8
			c-0.5,1.8-1,3.5-1.7,5c-2.1,5.6-4.8,10.9-8.5,15.6c-2.9,3.7-6.3,6.8-10.4,8.9c-3,1.5-5.5,1.1-8-1.2s-4-5.3-5.3-8.4
			c-2.3-5.5-3.7-11.2-4.8-17C163.3,765.9,163.1,764.8,162.9,763.5z"/>
		<path class="st28" d="M137.4,818.9c-1.2,1.1-2.4,2.1-3.4,3.2c-3.3,3.6-5.9,7.6-7.1,12.5c-0.4,1.7-0.8,3.5-0.7,5.3
			c0,0.4-0.1,0.5-0.5,0.5c-5.4-0.7-10.7-1.9-15.8-3.5c-6.6-2-13-4.8-18.9-8.2c-1.7-0.9-3.2-1.9-4.9-3c1.3-1.2,2.7-2.3,4.1-3.2
			c4.5-2.8,9.6-4.4,14.9-5c3.7-0.5,7.6-0.6,11.4-0.1c2.7,0.4,5.4,0.8,8.1,1c4,0.4,8.1,0.5,12.2,0.3c0.1,0,0.4,0,0.5,0
			C137.3,818.7,137.3,818.8,137.4,818.9z"/>
		<path class="st28" d="M189.7,793.4c-0.6,1.9-1.2,3.7-1.6,5.5c-0.7,3.1-1.2,6.3-1.2,9.4c0,3.3,0.6,6.6,2.2,9.5c1.1,2,2.5,3.7,4.4,5
			c0.4,0.4,0.5,0.5,0,0.9c-8.1,5.7-16.9,10-26.4,13.1c-0.3,0.1-0.5,0.3-0.7-0.2c-1.7-3.6-2.9-7.4-2.8-11.5c0.1-4.3,1.4-8.3,3.5-12
			c3.1-5.2,7.3-9.3,12.2-12.7c3.3-2.3,6.8-4.3,10-6.8C189.3,793.5,189.5,793.5,189.7,793.4z"/>
		<path class="st28" d="M142.6,841c-0.2,0.1-0.4,0.1-0.6,0.1c-2.4,0-4.8,0-7.2,0c-1.2-0.2-2.3-0.2-3.5-0.3c-0.6,0-0.9-0.2-0.9-0.9
			c0-3.6,1.2-6.8,3-9.9c3.2-5.3,7.8-9.4,13-12.7c5.1-3.2,10.6-5.6,16.1-8.1c0.8-0.4,1.6-0.7,2.4-1c-0.7,1.2-1.4,2.2-2.1,3.4
			c-2.7,4.8-4.2,9.9-3.8,15.5c0.2,3.5,1.1,6.8,2.6,10c0.5,1,0.4,1-0.6,1.2C155.1,839.9,148.9,840.8,142.6,841z"/>
		<path class="st28" d="M210.4,719.1c2.4,2.7,4.9,5,7.8,6.9c3.7,2.3,7.7,3.7,12.2,3.4c0.8-0.1,1.7-0.1,2.4-0.3
			c0.4-0.1,0.4,0.1,0.4,0.4c0.1,1.8,0.4,3.6,0.5,5.4c0.4,4.8,0.4,9.5,0.3,14.3c-0.1,2.7-0.3,5.5-0.6,8.2c-0.1,0.4-0.1,0.5-0.5,0.5
			c-3.8,0.1-7.4-0.6-10.6-2.7c-2.7-1.9-4.8-4.3-6.3-7.2c-2.4-4.3-3.6-9-4.3-13.8c-0.6-3.4-0.5-6.8-0.7-10.2
			c-0.1-1.3-0.2-2.6-0.4-3.9C210.4,719.8,210.4,719.5,210.4,719.1z"/>
		<path class="st28" d="M203,774.7c0.1,1.7,0.2,3.2,0.4,4.8c0.6,5.5,1.6,10.8,4.6,15.6c1.9,2.9,4.3,5.1,7.6,6.4
			c0.1,0.1,0.2,0.1,0.4,0.1c-1.3,1.9-2.7,3.5-4.1,5.3c-4.1,4.8-8.6,9.3-13.6,13.2c-0.4,0.3-0.6,0.3-0.9,0.1c-3.3-2-5-5-5.5-8.8
			c-0.7-5.3,0.4-10.4,1.9-15.4c1.5-4.7,3.5-9.2,5.8-13.5c1.2-2.2,2.3-4.5,3.3-6.8C202.7,775.3,202.7,775.1,203,774.7z"/>
		<path class="st28" d="M148.7,780.8c-0.5,1.9-0.9,3.8-1.3,5.8c-0.9,4.4-1.4,8.9-1.1,13.3c0.3,3.7,1.1,7.2,3.5,10.2
			c0.3,0.4,0.2,0.5-0.1,0.6c-3,1.5-6,2.5-9.3,3.1c-4.8,0.9-9.7,0.7-14.5,0.4c-1.2-0.1-2.4-0.2-3.6-0.4c-0.4,0-0.6-0.1-0.5-0.6
			c0.4-4.1,2.1-7.6,4.2-11c3.3-5,7.6-9.2,12.3-12.9c3.5-2.7,6.9-5.3,10-8.4C148.4,780.8,148.5,780.8,148.7,780.8z"/>
		<path class="st28" d="M126.8,793.8c-0.1,0.4-0.4,0.6-0.6,0.9c-3.1,3.7-5.8,7.8-7.4,12.5c-0.6,1.7-1,3.5-1.2,5.3
			c-0.1,0.6-0.3,0.6-0.7,0.5c-4-0.7-7.9-1.6-11.8-2.7c-3.6-1-7.1-2.3-10.4-4c-3.5-1.7-6.1-4.4-8.4-7.5c-2-2.8-3.7-5.8-5.3-8.9
			c0-0.1,0-0.1-0.1-0.2c0.2-0.1,0.4,0.1,0.5,0.1c5.3,2.6,10.8,4.5,16.6,5.5c4.9,0.9,9.9,1.1,14.8,0.9c4.6-0.2,9.1-1.1,13.5-2.3
			C126.5,793.8,126.6,793.8,126.8,793.8L126.8,793.8z"/>
		<path class="st28" d="M82.1,800.6c-1.6-0.4-3-0.6-4.5-0.8c-5.3-0.4-10.1,0.6-14,4.4c-0.4,0.4-0.5,0.4-0.9,0
			c-6.1-7.9-10.9-16.6-14.5-25.9c-0.2-0.5-0.1-0.6,0.4-0.7c8.9-1.2,16.9,0.9,23.3,7.3c2,1.9,3.7,4.2,4.9,6.7c1.4,2.9,3,5.8,4.8,8.4
			C81.9,800.2,82,800.4,82.1,800.6z"/>
		<path class="st28" d="M201.4,697.3c2.1,0.5,4,0.9,6,1.2c5.1,0.6,10.2,0.6,15.2-0.9c0.1-0.1,0.3-0.1,0.5-0.1
			c1.3-0.4,1.3-0.4,1.9,0.9c1.6,3.7,3,7.3,4.2,11.2c1.4,4.8,2.7,9.8,3.4,14.8c0.1,0.4,0,0.6-0.4,0.6c-4.4,0.9-8.3-0.4-11.9-2.7
			c-4.2-2.8-7.3-6.5-10.2-10.6c-1.6-2.3-2.9-4.7-4.1-7.1c-1.1-2.2-2.4-4.2-4-6.3C201.7,697.8,201.6,697.6,201.4,697.3z"/>
		<path class="st28" d="M158.7,764.7c0.5,3.4,1.2,6.6,1.9,9.8c1.4,5.5,3.1,10.9,5.9,15.8c1.6,2.8,3.6,5.3,6.4,7.1
			c0.2,0.1,0.5,0.3,0.8,0.4c0.2,0.1,0.5,0.2,0.7,0.4c-0.1,0.3-0.4,0.4-0.7,0.5c-6.1,3.5-12.3,6.6-18.7,9.6c-0.6,0.3-0.9,0.1-1.2-0.3
			c-1.8-1.7-2.5-3.9-3-6.3c-0.6-3.7-0.4-7.3,0.2-11c1.3-8.7,4-17,7.2-25.1C158.4,765.3,158.5,765.1,158.7,764.7z"/>
		<path class="st28" d="M100.9,813.6c-2.7,0.6-5.4,1.4-7.9,2.4c-3.7,1.6-7.1,3.7-10,6.5c-0.4,0.4-0.6,0.4-1.2,0.1
			c-4.8-3.6-9.2-7.5-13.3-11.9c-0.7-0.8-1.4-1.7-2.2-2.4c-0.4-0.4-0.2-0.5,0.1-0.8c1.9-1.9,4.2-3,6.8-3.2c3.6-0.4,7.1,0.3,10.5,1.5
			c2.5,0.9,4.8,2.1,7.1,3.4c2.9,1.7,6,3.1,9.1,4C100.3,813.3,100.6,813.3,100.9,813.6z"/>
		<path class="st28" d="M61.7,773.9c-1.2-0.1-2.4-0.4-3.6-0.6c-2.7-0.4-5.5-0.4-8.3-0.1c-0.9,0.1-1.8,0.2-2.7,0.4
			c-0.4,0.1-0.5-0.1-0.6-0.4c-0.9-2.7-1.6-5.5-2.2-8.4c-1.2-5.9-1.9-11.8-1.9-17.8c0-0.9,0-0.9,0.8-0.6c1.9,0.6,3.4,1.9,4.7,3.5
			c1.8,2.2,3,4.8,3.9,7.6c1.7,4.8,4.2,9,7.1,13C59.9,771.5,60.7,772.7,61.7,773.9L61.7,773.9z"/>
		<path class="st28" d="M45.7,721.2c1.2,1,1.7,2.4,2.1,3.8c0.4,1.7,0.1,3.2,0,4.9c-0.4,3.5-0.4,7,0.1,10.4c0.1,1.2,0.3,2.3,0.5,3.6
			c-1.7-1.3-3.5-2.1-5.4-2.3c-0.3-0.1-0.4-0.2-0.4-0.5C42.9,734.5,43.8,727.8,45.7,721.2z"/>
		<path class="st28" d="M61.7,773.9L61.7,773.9L61.7,773.9L61.7,773.9L61.7,773.9z"/>
		<path class="st28" d="M126.8,793.8L126.8,793.8C126.9,793.8,126.8,793.8,126.8,793.8L126.8,793.8z"/>
	</g>
</g>
<g class="st29">
	<circle class="st30" cx="139.4" cy="744.5" r="139.4"/>
	<path class="st31" d="M232.5,765c-0.4,1-0.8,2-1.4,3l-36.4,53.8c-4.6,6.6-13.2,9.8-24.3,9.8c-19.2,0-45.8-9.6-71.5-27.2
		c-6.1-4.3-11.3-8.8-16.6-13.5c-1.7-1.4-3.3-2.9-4.8-4.3c-26.1-24.2-39.1-50.3-30-65.8l-0.2-0.1l36.4-53
		c12.7-18.2,55.4-11.1,95.7,17.4c26.2,17.1,44.7,38.8,51.6,56.9c0.1,0.2,0.2,0.5,0.3,0.7c0.1,0.2,0.1,0.4,0.2,0.6
		c0.1,0.4,0.3,0.7,0.4,1.1c0.1,0.4,0.2,0.7,0.3,1.1c0.6,1.8,1,3.5,1.3,5.2c0.1,0.3,0.1,0.7,0.2,1c0,0.2,0.1,0.4,0.1,0.7
		C234.4,756.9,234,761.2,232.5,765z"/>
	<g>
		<g>
			<defs>
				<rect id="SVGID_1_" x="44.5" y="649.6" width="189.8" height="189.8"/>
			</defs>
			<clipPath id="SVGID_2_">
				<use xlink:href="#SVGID_1_"  style="overflow:visible;"/>
			</clipPath>
			<g class="st32">
				
					<linearGradient id="SVGID_3_" gradientUnits="userSpaceOnUse" x1="124.8924" y1="41.4761" x2="154.0702" y2="141.6691" gradientTransform="matrix(1 0 0 1 -12 612)">
					<stop  offset="0" style="stop-color:#03B8FF"/>
					<stop  offset="1" style="stop-color:#FA52A0"/>
				</linearGradient>
				<path class="st33" d="M84,667.8l147.1,100.5L194.8,822L47.6,720.8L84,667.8z"/>
				
					<linearGradient id="SVGID_4_" gradientUnits="userSpaceOnUse" x1="148.7983" y1="34.5135" x2="177.9769" y2="134.7069" gradientTransform="matrix(1 0 0 1 -12 612)">
					<stop  offset="0" style="stop-color:#03B8FF"/>
					<stop  offset="1" style="stop-color:#FA52A0"/>
				</linearGradient>
				<path class="st34" d="M231.2,768.2c-12.7,18.2-55.4,11.1-95.7-17.4C94.3,723.1,72.2,686,84,667.8c12.7-18.2,55.4-11.1,95.7,17.4
					C220.9,712.1,243,750,231.2,768.2z"/>
				
					<linearGradient id="SVGID_5_" gradientUnits="userSpaceOnUse" x1="101.2686" y1="48.355" x2="130.4472" y2="148.549" gradientTransform="matrix(1 0 0 1 -12 612)">
					<stop  offset="0" style="stop-color:#03B8FF"/>
					<stop  offset="1" style="stop-color:#FA52A0"/>
				</linearGradient>
				<path class="st35" d="M194.8,821.2c-12.7,18.2-55.4,11.1-95.7-17.4C58.7,775.4,35.8,739,48.4,720c12.7-18.2,55.4-11.1,95.7,17.4
					C184.5,765.9,206.6,803,194.8,821.2z"/>
				<path class="st36" d="M231.4,768.2L231.4,768.2L195,822l0,0c-12.7,18.2-55.4,10.3-95.7-17.4c-7.9-5.5-14.3-11.5-21.4-17.9
					c5.5-0.8,11.9-3.5,19-11.4c12.7-13.4,19-16.6,24.5-15.8c5.5,0,11.9,5.5,22.1,19c10.3,13.4,24.5,17.4,33.2,10.3
					c1.2-0.8,1.4-0.8,2.4-1.6c7.1-5.5,9.5-7.9,22.9-33.2c3.2-6.3,14.2-16.6,29.3-11.9C235.3,752.4,235.3,761.1,231.4,768.2z"/>
				<path class="st37" d="M225.6,765.1c-11.1,15.8-49.8,7.9-87-18.2c-38-26.1-60.1-59.3-49-75.1c11.1-15.8,49.8-7.9,87,18.2
					S235.9,749.2,225.6,765.1z M190.8,741.3c-5.5,7.9-24.5,4-43.5-8.7c-18.2-12.7-29.3-29.3-23.7-37.2c5.5-7.9,24.5-4,43.5,8.7
					C185.3,716.8,196.4,733.4,190.8,741.3z"/>
				<path class="st28" d="M80.9,686c0-0.8-0.8-1.6-1.6-0.8c-0.8,0.8-1.6,0.8-1.6,1.6c0.8,2.4,1.6,4,1.6,5.5c0,0.8,0.8,1.6,1.6,0.8
					c0.8,0,1.6-0.8,0.8-1.6C81.7,689.9,81.7,688.3,80.9,686z"/>
				<path class="st28" d="M84.8,698.6c0-0.8-0.8-1.6-1.6-0.8c-0.8,0.8-0.8,0.8-0.8,1.6c8.7,19.8,26.9,41.1,50.6,57
					c0.8,0.8,1.6,0,2.4,0c0.8-0.8,0-1.6,0-2.4C110.9,738.2,93.5,717.6,84.8,698.6z"/>
				<path class="st28" d="M180.5,776.1c-0.8,0-1.6,0-1.6,0.8c0,0.8,0,1.6,0.8,1.6c2.4,0.8,5.5,1.6,7.9,2.4c0.8,0,1.6,0,1.6-0.8
					s0-1.6-0.8-1.6C186.1,777.7,182.9,776.9,180.5,776.1z"/>
				<path class="st28" d="M194.8,779.3c-0.8,0-1.6,0.8-1.6,1.6s0.8,1.6,1.6,1.6c6.3,0.8,13.4,1.6,19,0.8c0.8,0,1.6-0.8,1.6-1.6
					c0-0.8-0.8-1.6-1.6-1.6C207.4,780.9,201.1,780.1,194.8,779.3z"/>
			</g>
		</g>
	</g>
</g>
<g class="st0">
	<g class="st27">
		<g>
			<circle class="st38" cx="261.2" cy="252.2" r="244.3"/>
		</g>
	</g>
	<g class="st27">
		<path class="st39" d="M259.3,101.8c0.8-0.9,1.6-1.9,2.4-2.8c1.1,1.6,2.3,3.2,3.3,5c29.2,48.2,58.3,96.5,87.3,144.8
			c0.6,1.1,1,2.4,1.5,3.8c-4.8,0.6-8.3-2.1-12.3-4c-27-12.2-53.9-24.4-80.9-36.3c0-32.9,0-65.7-0.1-98.5
			C260.6,109.6,261.4,105.6,259.3,101.8z"/>
		<path class="st40" d="M259.3,101.8c2.1,3.8,1.3,7.8,1.3,11.8c0.1,32.9,0.1,65.7,0.1,98.5c-0.4,0.3-0.6,0.6-0.9,1.1
			c-15.7,4.9-29.9,13.3-45.2,19.5c-15.3,6.3-29.5,15.3-46,19.2c6.5-16.3,17.2-30.3,26-45.3c19.1-32,38.4-63.6,57.5-95.2
			C254.3,108,255.4,104,259.3,101.8z"/>
		<path class="st41" d="M259.9,213.3c0.1-0.5,0.4-0.9,0.9-1.1c27,12.2,53.9,24.4,80.9,36.3c4,1.8,7.5,4.6,12.3,4
			c2,1.6,2.3,3.2-0.1,4.6c-31.1,17.8-61,37.8-93.2,53.9C260.3,278.4,260.2,245.8,259.9,213.3z"/>
		<path class="st42" d="M259.9,213.3c0.3,32.5,0.4,65,0.6,97.6c-30.3-17.7-60.7-35.3-91-53c-3.2-1.9-3.5-3.6-0.8-6
			c16.3-3.9,30.5-12.9,46-19.2C229.9,226.6,244.2,218.3,259.9,213.3z"/>
		<path class="st43" d="M260.7,329.8c30.3-17.8,60.8-35.7,91.1-53.5c0.5,0.5,0.9,1,1.4,1.5c-1.5,2.3-3,4.6-4.8,6.8
			c-27.1,38.3-54.3,76.5-81.5,114.7c-1.6,2.4-2,7.3-7.2,5.9C261.7,380.1,260.1,354.9,260.7,329.8z"/>
		<path class="st40" d="M260.7,329.8c-0.6,25.1,1,50.1-0.9,75.2c-14.8-17.4-26.9-36.9-40.3-55.4c-14.6-20.2-28.9-40.6-43.3-61
			c-2-2.8-4.8-5.5-5.3-12.1C201.9,295,231.3,312.5,260.7,329.8z"/>
	</g>
</g>
<g class="st0">
	<path class="st44" d="M261.2,0c139.3,0,252.2,112.9,252.2,252.2S400.5,504.4,261.2,504.4S9,391.5,9,252.2S121.9,0,261.2,0"/>
	<path class="st14" d="M292.3,218.6v-37.5h85.8v-57.2H144.5v57.2h85.8v37.5c-69.7,3.2-122.2,17-122.2,33.6s52.5,30.4,122.2,33.6V406
		h62V285.7c69.6-3.2,121.9-17,121.9-33.5S362,221.8,292.3,218.6 M292.3,275.5L292.3,275.5c-1.8,0.1-10.7,0.6-30.8,0.6
		c-16,0-27.3-0.5-31.2-0.7v0.1c-61.6-2.7-107.6-13.5-107.6-26.3s46-23.5,107.6-26.3v41.9c4,0.3,15.6,1,31.5,1
		c19.1,0,28.8-0.8,30.5-1v-41.9c61.5,2.7,107.4,13.5,107.4,26.3C399.7,262,353.8,272.7,292.3,275.5"/>
</g>
<g id="Layer_x0020_1" class="st0">
	<path class="st45" d="M261.2,0c139.3,0,252.2,112.9,252.2,252.2S400.5,504.4,261.2,504.4S9,391.5,9,252.2S121.9,0,261.2,0z"/>
	<path class="st46" d="M270.5,270h95.8c2,0,3,0,3.2-2.7c0.8-9.7,0.8-19.6,0-29.3c0-1.9-0.9-2.7-3-2.7H175.8c-2.4,0-3,0.8-3,3v28.1
		c0,3.6,0,3.6,3.8,3.6H270.5L270.5,270z M358.8,202.5c0.3-0.7,0.3-1.5,0-2.2c-1.6-3.5-3.5-6.8-5.7-9.9c-3.3-5.3-7.2-10.2-11.7-14.7
		c-2.1-2.7-4.5-5.1-7.3-7.1c-13.6-11.6-29.9-19.8-47.3-24c-8.8-2-17.8-2.9-26.8-2.8h-84.6c-2.4,0-2.7,0.9-2.7,3v55.9c0,2.4,0,3,3,3
		h181.9c0,0,1.6-0.3,1.9-1.3L358.8,202.5L358.8,202.5z M358.8,302.8c-2.7-0.3-5.4-0.3-8.1,0H175.9c-2.4,0-3.2,0-3.2,3.2v54.7
		c0,2.5,0,3.2,3.2,3.2h80.7c3.9,0.3,7.7,0,11.5-0.8c11.7-0.8,23.2-3.4,34.2-7.6c4-1.4,7.9-3.2,11.5-5.4h1.1
		c18.9-9.8,34.3-25.3,44-44.3C358.9,305.8,360,303.4,358.8,302.8L358.8,302.8z M141.1,392.2v-0.9v-36.7V342v-37c0-2.1,0-2.4-2.5-2.4
		h-34.2c-1.9,0-2.7,0-2.7-2.5v-29.9h36.6c2,0,2.8,0,2.8-2.7v-29.6c0-1.9,0-2.4-2.5-2.4h-34.2c-1.9,0-2.7,0-2.7-2.5v-27.7
		c0-1.7,0-2.2,2.5-2.2h33.9c2.4,0,3,0,3-3v-85c0-2.5,0-3.2,3.2-3.2h118.2c8.6,0.3,17.1,1.3,25.5,2.8c17.4,3.2,34.1,9.4,49.3,18.3
		c10.1,6,19.4,13.2,27.7,21.4c6.2,6.5,11.9,13.5,16.9,21c5,7.6,9.1,15.7,12.3,24.1c0.4,2.2,2.5,3.7,4.7,3.3h28.2
		c3.6,0,3.6,0,3.8,3.5v25.9c0,2.5-0.9,3.2-3.5,3.2h-21.8c-2.2,0-2.8,0-2.7,2.8c0.9,9.6,0.9,19.2,0,28.8c0,2.7,0,3,3,3h24.9
		c1.1,1.4,0,2.8,0,4.3c0.2,1.8,0.2,3.7,0,5.5v19.1c0,2.7-0.8,3.5-3.2,3.5H398c-2.1-0.4-4.1,0.9-4.6,3c-7.1,18.4-18.4,35-33.1,48.2
		c-5.4,4.8-11,9.4-16.9,13.6c-6.3,3.6-12.4,7.4-18.9,10.4c-11.9,5.4-24.4,9.3-37.2,11.8c-12.2,2.2-24.5,3.2-36.9,3H141.1V392.2
		L141.1,392.2z"/>
</g>
<g>
	<circle class="st30" cx="261.2" cy="252.2" r="252.2"/>
	<path class="st47" d="M429.6,289.2c-0.7,1.8-1.5,3.6-2.5,5.4l-65.8,97.3c-8.3,12-23.9,17.7-43.9,17.7c-34.8,0-82.9-17.4-129.3-49.2
		c-11-7.7-20.4-15.9-30-24.5c-3-2.6-5.9-5.2-8.7-7.8C102.2,284.3,78.6,237,95.1,209l-0.4-0.3l65.8-95.9
		c22.9-32.9,100.2-20,173.2,31.5c47.4,31,80.9,70.1,93.4,103c0.2,0.4,0.3,0.8,0.5,1.2c0.1,0.3,0.3,0.7,0.4,1c0.2,0.7,0.5,1.3,0.7,2
		s0.4,1.3,0.6,1.9c1,3.2,1.8,6.3,2.3,9.4c0.1,0.6,0.2,1.2,0.3,1.8c0.1,0.4,0.1,0.8,0.2,1.2C433.2,274.6,432.4,282.5,429.6,289.2z"/>
	<g>
		<g>
			<defs>
				<rect id="SVGID_6_" x="89.5" y="80.5" width="343.5" height="343.5"/>
			</defs>
			<clipPath id="SVGID_7_">
				<use xlink:href="#SVGID_6_"  style="overflow:visible;"/>
			</clipPath>
			<g class="st48">
				
					<linearGradient id="SVGID_8_" gradientUnits="userSpaceOnUse" x1="225.2429" y1="-524.4788" x2="278.0309" y2="-343.2115" gradientTransform="matrix(1 0 0 1 -12 612)">
					<stop  offset="0" style="stop-color:#03B8FF"/>
					<stop  offset="1" style="stop-color:#FA52A0"/>
				</linearGradient>
				<path class="st49" d="M161,113.4l266.2,181.8l-65.8,97.3L95.2,209.3L161,113.4z"/>
				
					<linearGradient id="SVGID_9_" gradientUnits="userSpaceOnUse" x1="268.493" y1="-537.0755" x2="321.2824" y2="-355.8073" gradientTransform="matrix(1 0 0 1 -12 612)">
					<stop  offset="0" style="stop-color:#03B8FF"/>
					<stop  offset="1" style="stop-color:#FA52A0"/>
				</linearGradient>
				<path class="st50" d="M427.2,295.1C404.3,328,327,315.2,254,263.6c-74.4-50.1-114.5-117.4-93-150.3
					c22.9-32.9,100.2-20,173.2,31.5C408.6,193.5,448.7,262.2,427.2,295.1z"/>
				
					<linearGradient id="SVGID_10_" gradientUnits="userSpaceOnUse" x1="182.5033" y1="-512.0336" x2="235.2927" y2="-330.7645" gradientTransform="matrix(1 0 0 1 -12 612)">
					<stop  offset="0" style="stop-color:#03B8FF"/>
					<stop  offset="1" style="stop-color:#FA52A0"/>
				</linearGradient>
				<path class="st51" d="M361.4,391c-22.9,32.9-100.2,20-173.2-31.5S73.7,242.2,96.6,207.8c22.9-32.9,100.2-20,173.2,31.5
					S382.8,358.1,361.4,391z"/>
				<path class="st36" d="M427.6,295.1L427.6,295.1l-65.8,97.3l0,0c-22.9,32.9-100.2,18.6-173.2-31.5c-14.3-10-25.8-20.9-38.7-32.3
					c10-1.4,21.5-6.3,34.4-20.6c22.9-24.3,34.3-30.1,44.4-28.6c10,0,21.5,10,40.1,34.3c18.6,24.3,44.4,31.5,60.1,18.6
					c2.1-1.4,2.6-1.5,4.3-2.9c12.9-10,17.2-14.3,41.5-60.1c5.7-11.4,25.8-30.1,53-21.5C434.7,266.5,434.7,282.2,427.6,295.1z"/>
				<path class="st37" d="M417.2,289.4c-20,28.6-90.2,14.3-157.4-32.9c-68.7-47.2-108.8-107.3-88.7-136s90.2-14.3,157.4,32.9
					S435.8,260.8,417.2,289.4z M354.2,246.5c-10,14.3-44.4,7.2-78.7-15.7c-32.9-22.9-53-53-42.9-67.3s44.4-7.2,78.7,15.7
					C344.2,202.1,364.2,232.2,354.2,246.5z"/>
				<path class="st28" d="M155.3,146.3c0-1.4-1.4-2.9-2.9-1.4c-1.4,1.4-2.9,1.4-2.9,2.9c1.4,4.3,2.9,7.2,2.9,10
					c0,1.4,1.4,2.9,2.9,1.4c1.4,0,2.9-1.4,1.4-2.9C156.7,153.5,156.7,150.6,155.3,146.3z"/>
				<path class="st28" d="M162.5,169.2c0-1.4-1.4-2.9-2.9-1.4c-1.4,1.4-1.4,1.4-1.4,2.9c15.7,35.8,48.7,74.4,91.6,103
					c1.4,1.4,2.9,0,4.3,0c1.4-1.4,0-2.9,0-4.3C209.7,240.8,178.2,203.5,162.5,169.2z"/>
				<path class="st28" d="M335.6,309.4c-1.4,0-2.9,0-2.9,1.4s0,2.9,1.4,2.9c4.3,1.4,10,2.9,14.3,4.3c1.4,0,2.9,0,2.9-1.4
					s0-2.9-1.4-2.9C345.6,312.3,339.9,310.9,335.6,309.4z"/>
				<path class="st28" d="M361.4,315.2c-1.4,0-2.9,1.4-2.9,2.9c0,1.4,1.4,2.9,2.9,2.9c11.4,1.4,24.3,2.9,34.3,1.4
					c1.4,0,2.9-1.4,2.9-2.9c0-1.4-1.4-2.9-2.9-2.9C384.3,318,372.8,316.6,361.4,315.2z"/>
			</g>
		</g>
	</g>
</g>
<g class="st0">
	<path class="st25" d="M9,0"/>
	<path class="st25" d="M9,0"/>
	<path class="st25" d="M9,0"/>
	<path class="st25" d="M9,0"/>
	<path class="st25" d="M9,0"/>
	<circle class="st26" cx="261.2" cy="252.2" r="252.2"/>
	<g class="st27">
		<path class="st28" d="M298.3,77c1.7,0.7,3.5,0.7,5.2,0.9c9.4,1.6,18.5,4.2,27.4,7.6c15.4,5.9,29.2,14.5,41.6,25.2
			c13.3,11.5,24.6,24.6,34,39.6c1.7,2.7,3.3,5.6,5,8.6c-5.3,2-10.7,2.7-16.3,2.9c-12,0.1-23.2-3-34.3-7.3c-3.6-1.4-7.2-3.3-10.8-4.6
			c-9.8-3.6-19.9-5.7-30.9-5.6c0.7-0.5,1.2-0.9,1.6-1.2c7.8-5.6,15.1-11.9,21.1-19.5c3-3.9,5.6-8,7.6-12.5c0.9-2.2,0.5-3.8-1.3-5.3
			c-6.5-5.6-14.2-7.6-22.7-7.4c-10.2,0.1-19.7,3.1-28.9,6.9c-0.7,0.3-1.4,0.5-2.1,0.9c-0.1-0.5,0.1-0.9,0.3-1.3
			c2.2-5.7,3.4-11.6,3.4-17.6c0-3.4-0.3-6.8-0.9-10C297.6,77,298,77,298.3,77z"/>
		<path class="st28" d="M251.8,427.4c0.3-0.7,0.9-0.1,1.3-0.3c4.3,0,8.6,0,13,0c0.4,0,0.7-0.1,1-0.1c0,0.4,0.7,0,0.5,0.5
			C262.4,427.4,257.2,427.4,251.8,427.4z"/>
		<path class="st28" d="M221.8,84.6c0.7,6.5,1.3,12.8,2,19.2c0,0.5,0,1.2,0.5,1.3c0.7,0.3,1-0.4,1.4-0.8c4.7-5.1,9.5-9.9,15.1-13.9
			c9.5-6.8,19.9-11.2,31.5-12.6c5.3-0.7,10.7-0.7,16-0.1c0.8,0.1,1,0.4,1.2,1c2.2,13-0.9,24.6-9,34.9c-3.4,4.3-7.2,8.5-10.7,12.6
			c-0.3,0.3-0.4,0.4-0.5,0.7c-0.1,0.1-0.1,0.4-0.1,0.5c0.1,0.3,0.4,0.3,0.5,0.1c0.4-0.1,0.7-0.4,1-0.5c9-4.7,17.6-9.8,27-13.8
			c7.3-3.1,14.7-5.7,22.7-6.8c6.5-0.8,12.9-0.8,18.9,2.5c2,1,2,1,0.9,2.9c-3,5.3-7,10-11.5,14.2c-11.3,10.8-24.5,18.8-38.6,25.2
			c-0.8,0.4-2.1,0.4-2,1.4s1.4,0.8,2.2,1c7.7,2,15.4,3.9,22.7,7c7,3,13.6,6.9,19,12.4c1.6,1.6,3,3.3,4,5.2c-4,1.7-8.2,3-12.5,3.8
			c-14.1,2.5-27.4-0.3-40.4-5.9c-6.3-2.7-11.6-6.6-16.9-10.6c-0.8-0.5-1.6-1.2-2.3-1.7c-0.4-0.3-0.8-0.9-1.3-0.5
			c-0.4,0.4,0.1,0.9,0.3,1.3c3.9,9.1,7.8,18.2,11.7,27.4c4.6,10.8,9.5,21.5,13.4,32.7c0.1,0.3,0.3,0.7,0.4,1.3c-2-1.2-3.8-2-5.5-3
			c-16.7-10.4-30.5-23.7-40.8-40.7c-1.2-2-2.3-4.2-3.4-6.1c-0.9-1.7-1.6-1.8-3-0.7c-11.9,9.4-23.7,18.9-35.5,28.3
			c-8.2,6.5-16.8,12.6-25.5,18.8c-3.5,2.5-7.7,2.7-11.9,2.5c-1.6-0.1-3-0.4-4.4-0.9c-2.6-0.9-3.6-2.6-3.1-5.2
			c0.1-0.9,0.4-1.8,0.9-2.6c6.3-9.5,9.3-20.3,11.9-31.3c2.2-9,3.6-18.1,4.7-27.4c0.8-7.8,2-15.6,4.3-23.1
			c3.6-11.9,9.8-22.3,18.2-31.3c7.3-7.7,15.8-13.7,25.4-18.1C221.1,85,221.3,84.8,221.8,84.6z M191.2,151.7c0-3-2.2-5.2-5.3-5.2
			c-3,0-5.1,2.2-5.2,5.2c0,2.9,2.3,5.3,5.2,5.3C189.1,157.2,191.2,155,191.2,151.7z M208.9,151.7c0,3,2.3,5.3,5.2,5.3
			c3.1,0,5.3-2.3,5.3-5.5c0-3-2.5-5.2-5.5-5.1C211.2,146.6,208.9,148.8,208.9,151.7z"/>
		<path class="st28" d="M292.2,274.1c-2-0.7-3.8-1.6-5.6-2.5c-4.8-2.6-9.5-5.3-14.5-7.3c-7-2.7-14.3-3.9-21.9-3.5
			c-4.2,0.1-8.3,0.7-12.5,1.6c-0.8,0.1-1,0-1.3-0.8c-0.8-2-2-3.8-3.3-5.5c-0.5-0.7-0.9-0.8-1.7-0.4c-6.5,3.3-13,6.4-19.8,9.1
			c-15.1,5.9-30.5,10.7-46.4,13.6c-2.6,0.5-5.2,0.8-7.8,0.7c-2.2-0.1-3.9-1.3-4.4-3.1c-0.5-2.2,0.4-4,2.6-5.2
			c2.5-1.2,5.1-1.8,7.6-2.9c6.6-2.6,12.6-6.3,18-11.1c9.3-8.5,15.9-18.8,22-29.6c3.4-6.1,6.4-12.5,9.8-18.5
			c3.9-7,9.5-12.5,15.6-17.5c2-1.6,3.9-3.1,5.9-4.7c0.5-0.5,0.9-0.5,1.3,0.1c8.3,12.8,18.4,24,30.1,33.8
			c7.4,6.1,15.4,11.2,24.1,15.1c0.9,0.4,1.4,1,1.8,2.1c1.4,5.1,2,10.3,2.2,15.5c0.3,6.8-0.1,13.4-1.4,20.1
			C292.3,273.6,292.2,273.8,292.2,274.1z"/>
		<path class="st28" d="M313.6,152.5c7.2-0.8,14.1-0.3,20.9,1c6.9,1.3,13.4,3.6,19.8,6.6c2,0.9,3.5,2.3,5.1,3.8
			c11.2,9.6,17.9,22,21.1,36.4c1.4,6.4,2.1,12.9,2.3,19.4c0,0.7-0.3,0.9-0.7,1.2c-11.9,6.9-24.2,12.1-37.8,14.5
			c-8.5,1.6-17.1,1.8-25.5,0.8c-6.8-0.9-13.4-2.6-19.8-5.1c-0.5-0.3-1-0.4-1.3-1.2c-2.7-11.3-7.8-21.8-12.3-32.3
			c-2-4.7-3.9-9.3-5.9-13.8c0.5-0.3,0.8,0.1,1.2,0.3c8.1,3.6,16.6,6.1,25.4,6.9c13,1.3,25.5-1,37.3-6.9c2.2-1.2,2.7-2.5,2-4.8
			c-1.7-4.6-4.6-8.5-8.1-11.9c-6.1-6-13.4-10.3-21.2-13.7C315.2,153.1,314.5,152.9,313.6,152.5z"/>
		<path class="st28" d="M211.5,338.1c-2.7,0.1-4.6-0.9-5.6-3.3c-6.4-13.3-12.8-26.6-19-40c-1.6-3.4-3.1-6.6-3.9-10.3
			c-0.5-2.1-0.1-3,1.6-4.2c3.8-2.6,8-2.5,12-1c5.9,2,10.7,5.3,15.2,9.5c0.9,0.8,1.7,2.3,2.7,2.1c0.8-0.1,1.3-1.8,1.8-2.9
			c6.4-11.1,15.9-17.6,28.4-19.8c9.4-1.6,18.2,0.1,26.7,4c4.2,2,8.1,4.2,12.1,6.4c1.8,0.9,3.6,2,5.6,2.6c0.5,0.1,0.8,0.4,0.5,1
			c-2.5,5.7-4.8,11.6-7.8,17.1c-5.2,9.3-12.5,16.4-21.4,22c-12.4,7.8-25.9,12.6-40.3,15.1c-1.6,0.3-3,0.5-4.6,0.8
			C214.2,337.7,212.8,338.2,211.5,338.1z"/>
		<path class="st28" d="M383.1,229.3c0.3,3.8,0.3,7.3,0.3,10.9c-0.1,8.5-0.7,16.9-2.9,25.2c-3.4,12.1-10.8,18.6-23.3,20.7
			c-10.2,1.7-20.2,0.5-30.2-1.4c-8-1.6-15.6-3.9-23.3-6.3c-0.8-0.3-1-0.7-1.2-1.4c-0.9-6.4-0.7-12.9-0.8-19.4
			c-0.1-5.9-0.4-11.6-1.8-17.3c0-0.1,0-0.1,0.1-0.4C329.4,249.3,356.7,243.7,383.1,229.3z"/>
		<path class="st28" d="M389.8,256.4c2,4.2,4,8.1,6.6,11.6c6.5,8.9,15.2,14.3,26.2,15.9c2.1,0.3,4.2,0.5,6.3,0.4
			c0.9,0,1,0.3,0.9,1.2c-2.2,11.1-5.3,21.9-9.5,32.5s-9.5,20.6-15.6,30.1c-0.4,0.7-0.8,0.8-1.4,0.5c-4.2-1.3-7.6-3.6-10.2-7.2
			c-3.9-5.1-5.9-10.9-7-17.2c-1.8-9-2.1-18.1-1.7-27.2c0.3-6.3,0.8-12.5,1.7-18.6c0.7-4.3,1.7-8.6,2.5-13
			C389.1,262.4,389.4,259.5,389.8,256.4z"/>
		<path class="st28" d="M303.8,286.7c2.9,0.8,5.5,1.7,8.2,2.3c9.8,2.7,19.5,4.8,29.7,5.5c9.4,0.7,18.6,0,27.4-3.8
			c2-0.9,3.6-2.1,5.7-3.3c-0.9,3.3-1.8,6.3-3,9.1c-3.8,10.2-8.7,19.7-15.4,28.2c-5.2,6.6-11.3,12.3-18.9,16.2
			c-5.3,2.7-10,2-14.5-2.2c-4.6-4.2-7.3-9.6-9.6-15.1c-4.2-9.9-6.8-20.3-8.7-30.8C304.5,291,304.2,288.9,303.8,286.7z"/>
		<path class="st28" d="M257.7,386.8c-2.1,2-4.3,3.8-6.1,5.9c-6,6.5-10.7,13.8-12.9,22.5c-0.8,3.1-1.4,6.3-1.3,9.5
			c0,0.7-0.1,0.9-0.9,0.9c-9.8-1.3-19.3-3.4-28.5-6.4c-12-3.6-23.5-8.7-34.3-14.9c-3-1.7-5.9-3.5-8.9-5.3c2.3-2.2,4.8-4.2,7.4-5.7
			c8.2-5.1,17.3-8,27-9.1c6.8-0.9,13.7-1,20.6-0.3c5,0.7,9.8,1.4,14.7,1.8c7.3,0.7,14.7,0.9,22,0.5c0.3,0,0.7,0,0.9,0
			C257.4,386.6,257.6,386.7,257.7,386.8z"/>
		<path class="st28" d="M352.3,340.7c-1.2,3.4-2.1,6.6-2.9,9.9c-1.3,5.6-2.2,11.3-2.2,17.1c0,6,1,11.9,3.9,17.2c2,3.6,4.6,6.8,8,9.1
			c0.8,0.7,0.9,0.9,0,1.6c-14.7,10.3-30.6,18.1-47.7,23.7c-0.5,0.1-0.9,0.5-1.3-0.4c-3.1-6.5-5.2-13.4-5.1-20.9
			c0.1-7.8,2.5-15,6.4-21.6c5.6-9.4,13.2-16.8,22.2-22.9c6-4.2,12.4-7.8,18.1-12.4C351.7,340.9,351.9,340.9,352.3,340.7z"/>
		<path class="st28" d="M267.1,426.8c-0.4,0.1-0.7,0.1-1,0.1c-4.3,0-8.6,0-13,0c-2.1-0.4-4.2-0.4-6.3-0.5c-1.2,0-1.7-0.4-1.7-1.7
			c0-6.5,2.2-12.4,5.5-17.9c5.9-9.6,14.1-16.9,23.5-22.9c9.3-5.9,19.2-10.2,29.2-14.6c1.4-0.7,2.9-1.3,4.4-1.8
			c-1.3,2.1-2.6,4-3.8,6.1c-5,8.7-7.6,18-6.9,28c0.4,6.4,2,12.4,4.7,18.1c0.9,1.8,0.8,1.8-1,2.2
			C289.7,424.9,278.5,426.6,267.1,426.8z"/>
		<path class="st28" d="M389.7,206.3c4.3,5,8.9,9.1,14.1,12.5c6.6,4.2,13.9,6.6,22,6.1c1.4-0.1,3-0.3,4.4-0.5
			c0.7-0.1,0.8,0.1,0.8,0.7c0.3,3.3,0.7,6.5,0.9,9.8c0.7,8.6,0.8,17.2,0.5,25.8c-0.1,5-0.5,9.9-1.2,14.9c-0.1,0.7-0.3,0.9-0.9,0.9
			c-6.9,0.1-13.4-1.2-19.2-5c-5-3.4-8.7-7.8-11.5-13c-4.3-7.8-6.5-16.3-7.8-25c-1-6.1-0.9-12.3-1.3-18.4c-0.1-2.3-0.4-4.7-0.7-7
			C389.7,207.5,389.7,207.1,389.7,206.3z"/>
		<path class="st28" d="M376.3,306.9c0.3,3,0.4,5.9,0.7,8.6c1,9.9,2.9,19.5,8.3,28.2c3.4,5.2,7.8,9.3,13.7,11.6
			c0.1,0.1,0.4,0.1,0.7,0.3c-2.3,3.4-5,6.4-7.4,9.5c-7.4,8.7-15.5,16.8-24.6,23.9c-0.7,0.5-1,0.5-1.7,0.1c-6-3.6-9.1-9.1-10-15.9
			c-1.3-9.6,0.7-18.8,3.5-27.9c2.7-8.5,6.4-16.7,10.4-24.5c2.1-4,4.2-8.2,6-12.4C375.8,308,375.9,307.6,376.3,306.9z"/>
		<path class="st28" d="M278,317.9c-0.9,3.5-1.7,6.9-2.3,10.4c-1.6,8-2.5,16-2,24.1c0.5,6.6,2,13,6.4,18.4c0.5,0.7,0.4,0.9-0.3,1.2
			c-5.3,2.7-10.9,4.6-16.8,5.6c-8.7,1.6-17.5,1.3-26.2,0.7c-2.2-0.1-4.3-0.4-6.5-0.7c-0.7,0-1-0.1-0.9-1c0.8-7.4,3.8-13.8,7.7-19.9
			c6-9.1,13.7-16.7,22.3-23.3c6.3-4.8,12.5-9.5,18.1-15.1C277.6,317.9,277.8,317.9,278,317.9z"/>
		<path class="st28" d="M238.4,341.5c-0.1,0.8-0.8,1.2-1.2,1.7c-5.6,6.8-10.6,14.1-13.4,22.5c-1,3.1-1.8,6.3-2.2,9.5
			c-0.1,1-0.5,1-1.3,0.9c-7.2-1.3-14.3-2.9-21.4-5c-6.5-1.8-12.8-4.2-18.8-7.2c-6.3-3.1-11.1-8-15.1-13.6
			c-3.6-5.1-6.6-10.6-9.5-16.2c0-0.1,0-0.3-0.1-0.4c0.4-0.3,0.7,0.1,0.9,0.3c9.5,4.7,19.5,8.1,30,10c8.9,1.7,17.9,2,26.8,1.6
			c8.3-0.4,16.4-2,24.4-4.2C237.9,341.5,238.1,341.5,238.4,341.5C238.5,341.5,238.4,341.5,238.4,341.5z"/>
		<path class="st28" d="M157.6,353.9c-2.9-0.7-5.5-1.2-8.2-1.4c-9.5-0.8-18.2,1-25.3,8c-0.7,0.7-0.9,0.8-1.6,0
			c-11.1-14.3-19.8-30-26.2-46.9c-0.4-0.9-0.1-1.2,0.8-1.3c16.2-2.1,30.5,1.7,42.2,13.3c3.6,3.5,6.6,7.6,8.9,12.1
			c2.6,5.2,5.3,10.4,8.6,15.2C157.2,353.1,157.3,353.3,157.6,353.9z"/>
		<path class="st28" d="M373.4,166.8c3.8,0.9,7.3,1.6,10.8,2.1c9.3,1.2,18.5,1.2,27.5-1.7c0.3-0.1,0.5-0.1,0.9-0.3
			c2.3-0.8,2.3-0.8,3.4,1.6c2.9,6.6,5.5,13.3,7.6,20.2c2.6,8.7,4.8,17.7,6.1,26.7c0.1,0.8,0,1-0.8,1.2c-8,1.6-15-0.7-21.5-5
			c-7.6-5.1-13.3-11.7-18.4-19.2c-2.9-4.2-5.2-8.5-7.4-12.9c-2-4-4.4-7.7-7.2-11.3C374.1,167.7,373.8,167.3,373.4,166.8z"/>
		<path class="st28" d="M296.1,288.8c0.9,6.1,2.1,11.9,3.5,17.7c2.5,9.9,5.6,19.7,10.7,28.5c2.9,5.1,6.5,9.6,11.6,12.8
			c0.4,0.3,0.9,0.5,1.4,0.8c0.4,0.3,0.9,0.4,1.3,0.7c-0.3,0.5-0.8,0.7-1.3,0.9c-11.1,6.3-22.3,12-33.8,17.3c-1,0.5-1.6,0.1-2.2-0.5
			c-3.3-3.1-4.6-7-5.3-11.3c-1.2-6.6-0.7-13.3,0.4-19.9c2.3-15.8,7.2-30.8,13-45.5C295.6,289.9,295.9,289.5,296.1,288.8z"/>
		<path class="st28" d="M191.6,377.3c-5,1-9.8,2.5-14.3,4.4c-6.8,2.9-12.8,6.8-18.1,11.7c-0.8,0.8-1.2,0.7-2.1,0.1
			c-8.6-6.5-16.7-13.6-24-21.5c-1.3-1.4-2.6-3-3.9-4.4c-0.7-0.7-0.4-0.9,0.1-1.4c3.4-3.4,7.6-5.3,12.3-5.9c6.5-0.8,12.9,0.5,19,2.7
			c4.6,1.6,8.7,3.8,12.9,6.1c5.2,3.1,10.8,5.6,16.6,7.3C190.6,376.8,191.1,376.8,191.6,377.3z"/>
		<path class="st28" d="M120.6,305.5c-2.2-0.1-4.3-0.8-6.5-1.2c-5-0.8-10-0.8-15-0.3c-1.6,0.1-3.3,0.4-4.8,0.7
			c-0.7,0.1-0.9-0.3-1-0.8c-1.6-5-2.9-10-3.9-15.2c-2.1-10.7-3.4-21.4-3.5-32.2c0-1.6,0-1.6,1.4-1c3.5,1.2,6.1,3.4,8.5,6.3
			c3.3,4,5.3,8.7,7,13.7c3,8.6,7.7,16.3,12.9,23.6C117.3,301.1,118.9,303.3,120.6,305.5L120.6,305.5z"/>
		<path class="st28" d="M91.6,210.1c2.2,1.8,3.1,4.3,3.8,6.9c0.7,3,0.3,5.9,0,8.9c-0.8,6.4-0.7,12.6,0.3,18.9
			c0.3,2.1,0.5,4.2,0.9,6.5c-3-2.3-6.3-3.8-9.8-4.2c-0.5-0.1-0.7-0.4-0.7-0.9C86.7,234.1,88.2,222.1,91.6,210.1z"/>
		<path class="st28" d="M120.6,305.5l0.1,0.1h-0.1V305.5L120.6,305.5z"/>
		<path class="st28" d="M238.5,341.5l0.1-0.1C238.7,341.5,238.5,341.5,238.5,341.5C238.4,341.5,238.5,341.5,238.5,341.5z"/>
	</g>
</g>
<g class="st0">
	<circle class="st2" cx="617.3" cy="547.5" r="336.3"/>
	<path class="st3" d="M457.2,720.3c-17.9,0-35.8,0-53.7,0c-3.6,0-7.3-0.5-10.9-1.9c-10.8-3.8-15.8-12.8-13-23.9
		c0.9-4,2.6-7.6,4.7-11.3c34.8-61.2,69.5-122.3,104.3-183.7c35.5-62.4,70.7-124.6,106.2-187c2.6-4.5,5.6-8.8,9.7-12
		c8-6.1,17-5.9,24.6,0.5c3.5,2.9,6.2,6.6,8.5,10.6c17.2,31.5,35.1,62.4,52.8,93.7c4.3,7.6,6.8,16.1,7.6,24.8
		c1.4,13-0.5,25.5-6.4,37.2c-3.5,6.9-7.6,13.4-11.5,20.1c-38.6,66.9-77,133.6-115.7,200.4c-9.9,17-25.2,27.2-44.5,31.3
		c-4,0.9-8.2,1.2-12.3,1.2C491,720.3,474.1,720.3,457.2,720.3L457.2,720.3z"/>
	<path class="st3" d="M756.2,720.3c-24.6,0-49.4,0-74.2,0c-4.2,0-8.2-0.7-12-2.1c-9.9-3.8-14.7-12.8-12.3-23.6
		c0.9-4.2,2.6-7.8,4.7-11.5c24.3-42.1,48.9-84.2,73.1-126.3c2.3-4,5-7.6,8.5-10.6c8-6.8,17.7-6.6,25.7,0c3.5,2.9,6.2,6.6,8.5,10.6
		c23.9,42.3,48,84.3,72.1,126.5c2.6,4.5,4.7,9,5,14.2c0.7,10.2-4.2,17.5-13.9,20.8c-4.3,1.4-8.7,1.7-13.2,1.7
		C804.4,720.3,780.3,720.3,756.2,720.3L756.2,720.3z"/>
</g>
<g id="Layer_4">
	<g>
		<path class="st52" d="M535.7,722.6c1.9-3.2,3.8-6.5,5.8-9.8c0.5-0.8,0.8-1.7,1.1-2.7c8.5-11.9,19.2-22.5,29.3-32.7
			c13.1-13.3,26.7-26.2,41-38.5c8.5-7.3,16.9-14.7,25.1-22.3c1.4-1.2,2.7-2.5,4.1-3.7c0.1-0.2-0.1,0.8,0,0.6s1.5-1.5,1.7-1.7
			c15.8-11.1,24-31,30.2-48.8c6.8-19.8,9.7-41.5,9-62.4c-1.5-42.7-20-82-48.9-113.1c-59.4-63.9-160.6-88.7-240.9-52
			c-24.8,11.3-48.9,26.2-65.4,47.6c-12,15.5-19.2,35.6-24.7,54.7c-0.4,1.5-0.5,2.8-0.3,4.1c-3.5,8.4-6.6,16.9-8.8,25.6
			c-3.3,13.2-5.5,26.9-6.6,40.5c-2.2,26.4-0.2,53.5,6.2,79.2c2.2,9,5,17.8,8.4,26.4c24.2,117.9,114.5,217.3,239.2,246.9
			c19.7,4.6,39.4,7.4,59,8.3l0.1-1.9c6.9,0.7,15.5,5.5,20.3,1.3c4.6,0.8,8.7-1.4,13.3-0.8c1.5,0.5,3.4,0.1,5,0
			c3.8,0.5,6.4-0.7,10.2-0.6c3.7,0.1,7.5-0.1,11.2,0.3c4.6,0.5,13.7-0.3,16.2-4.6c2.2-4-3.2-9.9-6.6-13
			c-7.5-7.2-13.3-14.9-18.2-24.3c-2.2-4.2-3.6-8-5.4-12.7c-1.6-4.8-3.6-9.6-4.5-14.6c-1.1-6.6-6-10.7-12.8-9.1
			c-8.8,2-15.4,2.1-24.3,3.8c-0.1,0-2.4,0-2.5,0c-7.5-3.2-14.9-2.3-22.7-2.7c-1.4-0.3-2.8-0.7-4.2-1.1c-6.5-4.6-13.5-8.4-20.9-11.6
			c-2-2-3.8-4.1-5.2-6.4c-3.8-5.8-6.3-10.2-8.1-16.8c-1.1-4.1-5.7-6.6-9.8-6.4c-0.2-4.1-0.1-8.1,0.5-11.5
			C532.4,731.3,533.8,726.8,535.7,722.6z"/>
		<path class="st53" d="M942,543.4c-1-34.8-4.7-70.6-12.7-104.6c-4.2-17.8-10-35.9-19.2-51.9c-4.4-7.7-9.5-14.8-15-21.7
			c-5.7-7-12-13.9-20.1-18.1c-0.2-0.1-0.4-0.2-0.7-0.3c-0.8-1.3-1.6-2.5-2.4-3.7c-10.4-15.6-22.2-30.3-35.4-43.6
			c-13.2-13.2-27.9-26.1-44-35.6c-8.6-5-17.3-10.1-26.2-14.5c-3.4-1.7-7-3.2-10.5-4.6c-6.6-3.5-13.4-6.5-20.5-8.6v0.1
			c-2.4-0.5-4.9-0.1-7,1.3c-6.7-3-13.4-5.8-20.1-8.2c-29.9-10.6-61.8-15.4-93.5-16.2c-29.4-0.7-59.3,1.8-88,8.3
			c-14.6,3.3-29.4,8.4-42.7,15.5c-6.7,3.5-12.7,7.7-18.4,12.6c-2.3,2-6.3,1.2-8.1,3.5c-0.8,0.4-1.5,0.8-2.3,1.2
			c-28.9,15.1-54.6,36.4-79.1,57.9c-10.4,9.2-22,19.2-29.3,31.4c-1.3,1.1-2.6,2.2-3.8,3.3c-1.1,2-2.2,4-3.3,6.2
			c-1.8,3.5-3.2,7-6.5,9.4c-0.5,0.9-1.1,1.8-1.6,2.7c2.1,3.1,6.9,4.5,10.6,1.3c10.3-9.2,20.8-17.9,32.5-25.1
			c11.8-7.4,24.4-13.5,37.5-18.3c26.2-9.6,54.1-13.7,82-12.1c54.1,3,105,30.9,140.6,71.7c10.1,11.5,20.2,22.4,27.7,35.8
			c3.7,6.6,6.9,13.5,9.7,20.5c2.1,5.2,3.5,10.8,5.9,15.9c-1.3,0-2.6-0.1-3.8-0.1c0.7,1.2,1.3,2.4,1.6,3.1c2.3,4.9,3.3,10.5,4.4,15.8
			c1.3,6.9,2.5,13.5,2.6,20.6c0,1.6,0,3.2-0.1,4.9c2.2,15.8,1.1,32.3-2.8,47.5c-4.7,18.6-12.7,36.9-23.4,53.3c0,0,0.1-0.1,0.2-0.1
			c7.3-6.7,14.6-13.2,22-19.9c7.5-6.7,15.4-12.5,23-19c0.7-0.6,1.7,0.3,1.1,1c-7.4,7.4-14.1,15.2-21.7,22.4
			c-7.5,7.2-15,14.4-22.7,21.5c-4.5,4.3-9.2,8.6-13.7,12.9c-10.2,9.6-20.2,19.2-30,29.2c-12.3,12.6-25.1,24.7-37.1,37.7
			c-11.2,12-23.8,24.5-30.9,39.7c-5.7,12.2-6.1,27.9,4.9,37.3c9.8,8.3,24.2,10.6,36.5,12.3c27.1,3.8,55.7,0.9,82.1-5.9
			c27.8-7.1,53-21.6,73.9-41c0.9-0.9,2.3,0.4,1.5,1.4c-21.8,25.2-51.6,44.5-83.1,55.3c-5,1.7-10.2,3.2-15.4,4.4
			c0.9,2.8,1,6.1,1.5,8.9c0.7,3.7,1.5,7.4,2.5,11c2,7.1,4.9,13.7,8.1,20.4c3.2,6.9,6.4,13.7,11,19.7c2.4,3.1,5,6.2,7.8,9.1
			c1.2,1.3,2.6,2.6,3.9,4.1c47.6-10.3,92.2-31.3,130.1-61.1c6.5-2.2,12.8-5.4,18.5-8.6c11.9-6.8,23.2-15.2,32.3-25.5
			c14.2-15.8,26.5-35.8,30.2-57.3c12.9-18.6,23.9-38.5,32.3-59.9C938.3,616,943,580,942,543.4z"/>
		<path d="M951.5,506.3c-4.9-43.6-19.1-87.2-40.8-126.1c-10.9-19.4-23.6-37.8-37.9-54.5c-14.2-16.7-30.2-32.2-47.6-46
			c-17.3-13.6-35.9-25.7-55.5-35.7c-19.2-9.9-39.8-18.1-61.3-24.3c-21.1-6.1-42.9-10.1-64.8-12l-12.1-0.8c-1.5-0.1-2.8-0.2-4.2-0.2
			l0,0l-14.3-0.3l-16.4,0.5L582,208c-0.2,0-0.4,0-0.7,0c-0.5,0-1,0.1-1.5,0.1l-1.9,0.2c-21.8,2.3-43.4,6.9-64.4,13.4
			c-20.8,6.6-41.1,15.1-60.5,25.7c-19.4,10.5-37.7,22.9-54.5,36.7c-16.9,14-32.5,29.7-46.2,46.6l-1.3,1.6c-0.3,0.4-0.6,0.8-0.9,1.2
			c-0.1,0.2-0.3,0.3-0.4,0.6l-8.6,11.3l-9.4,13.5l-7.6,12.2c-0.8,1.2-1.5,2.4-2.2,3.7l-6,10.7c-10.3,19.4-18.8,39.9-25.1,60.9
			c-6.5,21.5-10.8,43.2-12.9,64.6c-2.2,21.9-2.3,44.2-0.2,66.1c2.1,22,6.4,43.8,12.7,65c6.4,21.1,14.8,41.7,25.2,61.4
			c10.5,19.7,22.8,38.3,36.7,55.3c14,17.3,29.8,33.1,46.9,47.2c34.3,28.4,74.8,50.1,117.1,62.9c32,9.7,65.7,14.5,99,14.5
			c11.3,0,22.5-0.6,33.6-1.7c22.2-2.3,44.3-6.9,65.7-13.4c21.2-6.6,42.1-15.3,61.9-26c39.3-21.4,74.7-51,102.5-85.6
			c13.7-17.1,26-35.9,36.5-56.2c10.2-19.8,18.6-40.7,24.8-62.2C952.8,596.4,956.5,550.6,951.5,506.3z M642.1,612.8
			c-1.4,1.2-2.7,2.5-4.1,3.7c-8.3,7.6-16.7,15-25.1,22.3c-14.2,12.2-27.9,25-41,38.5c-10.9,11.1-22.5,22.6-31.3,35.6
			c-1,1.6-2,3.1-3,4.7c-0.2,0.3-0.3,0.5-0.5,0.8c-0.9,1.5-1.7,3-2.4,4.5c-0.5,1-0.9,2-1.4,3c-2,4.8-3.4,10-3.9,15.2
			c-0.1,0.8-0.2,1.6-0.2,2.4c-0.4,7.2,0.9,14.3,4.3,20.9c5.2,10,14.6,16.5,25,20.6c1.1,0.5,2.3,0.9,3.5,1.3c3.1,1.1,6.4,2,9.5,2.7
			c4.5,1,9.2,1.8,13.8,2.5c0.5,0.1,0.9,0.1,1.4,0.2c3.4,0.5,6.9,0.8,10.3,1c1.7,0.1,3.4,0.2,5.1,0.3c10.9,0.4,21.9-0.2,32.7-1.8
			c0,3.1,1,6.7,1.7,9.5c0.9,3.8,2.1,7.7,3.4,11.4c2.7,7.7,6,15.4,10.4,22.2c4.2,6.7,9.9,12.2,15.2,18c2.8,3,6,6,9.2,8.6
			c0.2,0.2,0.5,0.4,0.7,0.6c-9.3,1.8-18.7,3.2-28.1,4.2c-42,4.4-85.8,0.5-126.6-11.5c-22-6.5-43.4-15.4-63.7-26.4
			c-83.7-47.5-141.3-130.7-157.3-224.5c-2.4-14.1-5.7-28.3-7.3-42.5c-6.8-56.7,6.1-120,32.3-170.7c0.8-1.5,1.7-4.4,3-5.7
			c12.5-11.3,25.2-22.2,39.5-31.5c17.7-11.5,36.8-20.6,57-26.7c20.1-6,40.8-8.7,61.7-7.5c21.5,1.3,42.8,6.7,62.9,14.4
			c36.3,14,69.5,37.1,93,68.4c21.1,28.2,35.3,62,38.4,97.2c3.2,37.5-6.6,73.6-27.8,104.1c-3.3,3-6.7,6.1-10,9.1 M821.6,792.3
			c-16.3,13.5-34,25.5-52.8,35.8C750,838.3,730.2,846.7,710,853c-9.8,3-19.8,5.7-30,7.8c-0.8-0.9-1.7-1.7-2.4-2.5
			c-2.7-2.9-5.2-6-7.8-9.1c-4.6-6-7.8-12.9-11-19.7c-3.1-6.7-6.1-13.3-8.1-20.4c-1-3.6-1.9-7.3-2.5-11c-0.5-2.8-0.6-6.1-1.5-8.9
			c5.2-1.2,10.4-2.7,15.4-4.4c31.5-10.8,61.3-30.1,83.1-55.3c0.9-1-0.5-2.3-1.5-1.4c-20.9,19.4-46.1,33.9-73.9,41
			c-26.3,6.7-55.1,9.7-82.1,5.9c-12.2-1.7-26.8-4-36.5-12.3c-11-9.4-10.6-25-4.9-37.3c7-15,19.7-27.6,30.9-39.7
			c12-12.9,24.8-25,37.1-37.7c9.8-10,19.8-19.6,30-29.2c4.5-4.3,9.2-8.6,13.7-12.9c7.6-7.2,15.1-14.3,22.7-21.5
			c7.6-7.3,14.3-15,21.7-22.4c0.7-0.7-0.4-1.6-1.1-1c-7.6,6.5-15.5,12.3-23,19c-4.4,3.9-8.9,8-13.3,12c15.1-23.5,23.2-51,23.9-79.4
			c0.9-36.8-11.4-73.9-31.3-104.6c-21.9-33.8-53.1-60.1-89.4-77.3c-40.9-19.4-86.6-28.1-131.1-18.1c-24.4,5.5-47.7,15.5-68.7,29.1
			c-8.9,5.7-17.7,12-25.7,19.2c5.5-8.2,11.2-15.9,17.3-23.5c13.4-16.6,28.5-31.9,44.8-45.5c16.3-13.5,34.1-25.6,52.9-35.9l0,0
			c18.9-10.2,38.7-18.6,58.9-24.8c20.4-6.4,41.4-10.7,62.6-12.9c42.1-4.4,85.9-0.4,126.7,11.6c40.8,12.1,79.6,32.5,112.6,59.2
			c16.6,13.4,31.8,28.5,45.4,44.8c13.5,16.3,25.6,34.1,35.8,52.9c10.2,18.9,18.6,38.7,24.8,58.9c6.4,20.3,10.7,41.4,12.9,62.5
			c4.4,42.1,0.4,85.8-11.6,126.6s-32.5,79.6-59.2,112.5C853.1,763.5,837.9,778.7,821.6,792.3z"/>
		<circle cx="540.7" cy="505.3" r="81.9"/>
		<ellipse class="st28" cx="507.2" cy="496.5" rx="28.3" ry="28.3"/>
		<circle cx="336.5" cy="519" r="81.9"/>
		<path class="st53" d="M446.1,577c2.9,10.3,3.4,21.9,2.6,32.6c-19.4,5.8-38.7,5.9-58.8,2.4c-11.4-1.9-22.4-5.6-33.3-9.5
			c-5.6-2-11-4-16.4-6.4c-2.7-1.2-5.8-2.8-8.9-4c3.3-0.5,6.6-1.5,9.8-2.2c4.5-1.1,9.1-2.2,13.5-3.6c9.6-2.8,19-6.5,28.2-10.5
			c8.7-3.8,17.1-8.3,25.2-13.2c7.5-4.4,15.3-9.1,21.8-15c0.6,2,2.2,3.3,3.4,5c1.9,2.5,3.7,5,5.5,7.7
			C442.1,565.5,444.5,571.2,446.1,577z"/>
		<circle class="st28" cx="301.7" cy="508.3" r="28.3"/>
		<path d="M452.4,575.6c-2.8-6.1-6.3-11.7-10.1-17.3c-1.7-2.5-3.6-5-5.8-7.3c-1.5-1.7-3.1-3.8-5.4-4.5c0.1-0.1,0.2-0.2,0.3-0.3
			c0.3-0.3-0.1-0.8-0.5-0.6c-2.3,1.1-4.5,2.4-6.8,3.7c-5.9,3.4-11.5,7.2-17.4,10.4c-8.7,4.6-17.6,8.9-26.8,12.5
			c-8.6,3.5-17.5,6.6-26.3,9.3c-4.4,1.4-9,2.6-13.4,3.7c-4.6,1.1-9.8,1.7-14.2,3.3c-0.7,0.3-1.2,0.8-1.4,1.5c0,0.1,0,0.1,0,0.2
			c-0.2,1,0.3,2,1.3,2.4c3.6,3.7,9.9,6.1,14.3,8.5c5.1,2.7,10.2,5.6,15.4,8.1c0.4,0.2,0.9,0.4,1.4,0.6c10.4,4.9,21.5,9.2,32.6,12.2
			c20.7,5.7,44.9,6.6,65-1.9c2.6-0.2,5-2.1,5.4-6c0.6-6.9-0.1-13.3-1.4-20.1C457.6,587.4,455.3,581.6,452.4,575.6z M390.1,612.1
			c-11.4-1.9-22.4-5.6-33.3-9.5c-5.6-2-11-4-16.4-6.4c-2.7-1.2-5.8-2.8-8.9-4c3.3-0.5,6.6-1.5,9.8-2.2c4.5-1.1,9.1-2.2,13.5-3.6
			c9.6-2.8,19-6.5,28.2-10.5c8.7-3.8,17.1-8.3,25.2-13.2c7.5-4.4,15.3-9.1,21.8-15c0.6,2,2.2,3.3,3.4,5c1.9,2.5,3.7,5,5.5,7.7
			c3.2,5,5.7,10.8,7.3,16.6c2.9,10.3,3.4,21.9,2.6,32.6C429.4,615.5,410.1,615.5,390.1,612.1z"/>
		<g>
			<g class="st54">
				<path d="M934.2,601c13-61,8-121.9-9.3-181.4c-1-3.4-2.3-7.3-5.6-8.7c-7.6-3.3-11.9,8.7-11.8,17.1
					c0.6,81.4-38.5,172.6-88.1,234.6c-46.9,58.8-113.7,112.5-191.5,124.5c-8.5,1.3-17,2.4-25.6,2c-8.5-0.3-16.9-3.4-24.8-6.3
					c-8.6-3-17.4-5.9-25.6-9.6c-7.9-3.6-13.6-9.9-15.3-18.5c-0.2-0.9-1.5-0.6-1.5,0.3c-0.1,3.4,0.4,6.8,1.5,10
					c0.2,0.5,0.3,1,0.5,1.5c-0.1,0.3-0.2,0.6-0.3,1c-0.8,15.3,10,25.8,23,33.9c-1.2,0-2.4,0-3.6,0c-86.5-0.5-172.2-39.8-229-105.1
					c-2.7-3.1-9.1-5.7-9.9-1.6c-0.3,1.6,0.8,3.1,1.8,4.4c20.7,25.7,39.1,56.5,62.3,79.6c10.2,12.7,21.9,24.3,35.7,33
					c14.3,9,30.5,15.1,46.3,21c1.2,0.9,2.4,1.7,3.6,2.5c5,3.5,10.4,6.4,15.9,9.1c11.6,5.7,23.7,10.4,35.9,14.5
					c24.3,8.2,49.8,12.4,75.3,14.3c116.6,9,217.7-42,282.9-139.4c26.1-39.2,45.8-82.8,56.1-128.7C933.6,603.9,933.9,602.4,934.2,601
					z"/>
			</g>
			<path class="st55" d="M341.9,598.2c4.1,3,7.9,2.4,11.7,5.9c5.2,1.9,10.2,4.3,15.1,6.9c11.5,4.3,23.7,7,35.8,7.8
				c17.1,1.2,33.8-2,50.8-3.8c0.7-4.1,1.1-8.3,2-12.3c-0.6-1.6-1.4-3.2-2.3-4.7c-0.2-0.4-0.6-0.5-1-0.4c-0.2-0.5,0.1-6.9-0.1-7.4
				c-1-2.3-0.7-2.4-2.6-1.8c-12.3,3.8-24.5,8.5-37.4,10.6c-17.8,3-35.8,1.5-53.5-1.3c-9.2-1.5-19.4-3.4-28.2-7.5
				c0.7,1.5-3.1,1.3-2.2,2.6c3.1,1.7,10.6,5.6,13.3,8c0.3,0.2,0.6,0.4,0.8,0.6c-1.3-2.2-1.5-2.3,0-0.3
				C345.7,602.7,341.6,598,341.9,598.2z"/>
			<g class="st54">
				<path d="M763.6,533.8c-3.4,0-6.9,0-10.2,0c-0.9,0-1.8-0.1-2.7-0.4c-3.4-1.2-4.2-3.3-2.2-6.4c5.6-8.4,11.1-16.8,16.7-25.2
					c8.5-12.8,17-25.5,25.4-38.3c0.5-0.8,1-1.5,1.6-2.2c2.2-2.5,4.8-2.6,7.2-0.2c1.8,1.9,3,4.2,4.5,6.5c2.3,3.4,4.5,7.1,6.9,10.5
					c2.8,4,2.7,8.2,0.1,12.1c-8.5,12.7-17.1,25.4-25.7,38.1c-2.6,3.8-6.7,5.2-11,5.6C770.6,534,767,533.8,763.6,533.8z"/>
				<path d="M815.8,533.8c-6.3,0-11.3,0-16.4,0c-0.5,0-1.1,0.1-1.6,0c-4.4-1-7-3.4-4.1-8.1c5.5-8.8,11.1-17.6,16.7-26.2
					c2.7-4.1,6.9-4.1,9.5,0c5.7,8.9,11.1,17.9,16.7,26.9c2.2,3.6,0.9,6.5-3.4,7.1C827,534.3,820.9,533.5,815.8,533.8z"/>
			</g>
		</g>
	</g>
</g>
</svg>
