<svg width="1440" height="956" viewBox="0 0 1440 956" fill="none" xmlns="http://www.w3.org/2000/svg">
<path d="M-23.0692 116.289L18 92.5774L59.0692 116.289V163.711L18 187.423L-23.0692 163.711V116.289Z" stroke="#5E4BAF"/>
<path d="M72.9308 116.289L114 92.5774L155.069 116.289V163.711L114 187.423L72.9308 163.711V116.289Z" stroke="#5E4BAF"/>
<path d="M168.931 116.289L210 92.5774L251.069 116.289V163.711L210 187.423L168.931 163.711V116.289Z" stroke="#5E4BAF"/>
<path d="M264.931 116.289L306 92.5774L347.069 116.289V163.711L306 187.423L264.931 163.711V116.289Z" stroke="#5E4BAF"/>
<path d="M360.931 116.289L402 92.5774L443.069 116.289V163.711L402 187.423L360.931 163.711V116.289Z" stroke="#5E4BAF"/>
<path d="M456.931 116.289L498 92.5774L539.069 116.289V163.711L498 187.423L456.931 163.711V116.289Z" stroke="#5E4BAF"/>
<path d="M552.931 116.289L594 92.5774L635.069 116.289V163.711L594 187.423L552.931 163.711V116.289Z" stroke="#5E4BAF"/>
<path d="M648.931 116.289L690 92.5774L731.069 116.289V163.711L690 187.423L648.931 163.711V116.289Z" stroke="#5E4BAF"/>
<path d="M744.931 116.289L786 92.5774L827.069 116.289V163.711L786 187.423L744.931 163.711V116.289Z" stroke="#5E4BAF"/>
<path d="M840.931 116.289L882 92.5774L923.069 116.289V163.711L882 187.423L840.931 163.711V116.289Z" stroke="#5E4BAF"/>
<path d="M936.931 116.289L978 92.5774L1019.07 116.289V163.711L978 187.423L936.931 163.711V116.289Z" stroke="#5E4BAF"/>
<path d="M1032.93 116.289L1074 92.5774L1115.07 116.289V163.711L1074 187.423L1032.93 163.711V116.289Z" stroke="#5E4BAF"/>
<path d="M1128.93 116.289L1170 92.5774L1211.07 116.289V163.711L1170 187.423L1128.93 163.711V116.289Z" stroke="#5E4BAF"/>
<path d="M1224.93 116.289L1266 92.5774L1307.07 116.289V163.711L1266 187.423L1224.93 163.711V116.289Z" stroke="#5E4BAF"/>
<path d="M1320.93 116.289L1362 92.5774L1403.07 116.289V163.711L1362 187.423L1320.93 163.711V116.289Z" stroke="#5E4BAF"/>
<path d="M-71.0692 404.289L-30 380.577L11.0692 404.289V451.711L-30 475.423L-71.0692 451.711V404.289Z" stroke="#5E4BAF"/>
<path d="M24.9308 404.289L66 380.577L107.069 404.289V451.711L66 475.423L24.9308 451.711V404.289Z" stroke="#5E4BAF"/>
<path d="M120.931 404.289L162 380.577L203.069 404.289V451.711L162 475.423L120.931 451.711V404.289Z" stroke="#5E4BAF"/>
<path d="M216.931 404.289L258 380.577L299.069 404.289V451.711L258 475.423L216.931 451.711V404.289Z" stroke="#5E4BAF"/>
<path d="M312.931 404.289L354 380.577L395.069 404.289V451.711L354 475.423L312.931 451.711V404.289Z" stroke="#5E4BAF"/>
<path d="M408.931 404.289L450 380.577L491.069 404.289V451.711L450 475.423L408.931 451.711V404.289Z" stroke="#5E4BAF"/>
<path d="M504.931 404.289L546 380.577L587.069 404.289V451.711L546 475.423L504.931 451.711V404.289Z" stroke="#5E4BAF"/>
<path d="M600.931 404.289L642 380.577L683.069 404.289V451.711L642 475.423L600.931 451.711V404.289Z" stroke="#5E4BAF"/>
<path d="M696.931 404.289L738 380.577L779.069 404.289V451.711L738 475.423L696.931 451.711V404.289Z" stroke="#5E4BAF"/>
<path d="M792.931 404.289L834 380.577L875.069 404.289V451.711L834 475.423L792.931 451.711V404.289Z" stroke="#5E4BAF"/>
<path d="M888.931 404.289L930 380.577L971.069 404.289V451.711L930 475.423L888.931 451.711V404.289Z" stroke="#5E4BAF"/>
<path d="M984.931 404.289L1026 380.577L1067.07 404.289V451.711L1026 475.423L984.931 451.711V404.289Z" stroke="#5E4BAF"/>
<path d="M1080.93 404.289L1122 380.577L1163.07 404.289V451.711L1122 475.423L1080.93 451.711V404.289Z" stroke="#5E4BAF"/>
<path d="M1176.93 404.289L1218 380.577L1259.07 404.289V451.711L1218 475.423L1176.93 451.711V404.289Z" stroke="#5E4BAF"/>
<path d="M1272.93 404.289L1314 380.577L1355.07 404.289V451.711L1314 475.423L1272.93 451.711V404.289Z" stroke="#5E4BAF"/>
<path d="M1368.93 404.289L1410 380.577L1451.07 404.289V451.711L1410 475.423L1368.93 451.711V404.289Z" stroke="#5E4BAF"/>
<path d="M-23.0692 692.289L18 668.577L59.0692 692.289V739.711L18 763.423L-23.0692 739.711V692.289Z" stroke="#5E4BAF"/>
<path d="M72.9308 692.289L114 668.577L155.069 692.289V739.711L114 763.423L72.9308 739.711V692.289Z" stroke="#5E4BAF"/>
<path d="M168.931 692.289L210 668.577L251.069 692.289V739.711L210 763.423L168.931 739.711V692.289Z" stroke="#5E4BAF"/>
<path d="M264.931 692.289L306 668.577L347.069 692.289V739.711L306 763.423L264.931 739.711V692.289Z" stroke="#5E4BAF"/>
<path d="M360.931 692.289L402 668.577L443.069 692.289V739.711L402 763.423L360.931 739.711V692.289Z" stroke="#5E4BAF"/>
<path d="M456.931 692.289L498 668.577L539.069 692.289V739.711L498 763.423L456.931 739.711V692.289Z" stroke="#5E4BAF"/>
<path d="M552.931 692.289L594 668.577L635.069 692.289V739.711L594 763.423L552.931 739.711V692.289Z" stroke="#5E4BAF"/>
<path d="M648.931 692.289L690 668.577L731.069 692.289V739.711L690 763.423L648.931 739.711V692.289Z" stroke="#5E4BAF"/>
<path d="M744.931 692.289L786 668.577L827.069 692.289V739.711L786 763.423L744.931 739.711V692.289Z" stroke="#5E4BAF"/>
<path d="M840.931 692.289L882 668.577L923.069 692.289V739.711L882 763.423L840.931 739.711V692.289Z" stroke="#5E4BAF"/>
<path d="M936.931 692.289L978 668.577L1019.07 692.289V739.711L978 763.423L936.931 739.711V692.289Z" stroke="#5E4BAF"/>
<path d="M1032.93 692.289L1074 668.577L1115.07 692.289V739.711L1074 763.423L1032.93 739.711V692.289Z" stroke="#5E4BAF"/>
<path d="M1128.93 692.289L1170 668.577L1211.07 692.289V739.711L1170 763.423L1128.93 739.711V692.289Z" stroke="#5E4BAF"/>
<path d="M1224.93 692.289L1266 668.577L1307.07 692.289V739.711L1266 763.423L1224.93 739.711V692.289Z" stroke="#5E4BAF"/>
<path d="M1320.93 692.289L1362 668.577L1403.07 692.289V739.711L1362 763.423L1320.93 739.711V692.289Z" stroke="#5E4BAF"/>
<path d="M-71.0692 212.289L-30 188.577L11.0692 212.289V259.711L-30 283.423L-71.0692 259.711V212.289Z" stroke="#5E4BAF"/>
<path d="M24.9308 212.289L66 188.577L107.069 212.289V259.711L66 283.423L24.9308 259.711V212.289Z" stroke="#5E4BAF"/>
<path d="M120.931 212.289L162 188.577L203.069 212.289V259.711L162 283.423L120.931 259.711V212.289Z" stroke="#5E4BAF"/>
<path d="M216.931 212.289L258 188.577L299.069 212.289V259.711L258 283.423L216.931 259.711V212.289Z" stroke="#5E4BAF"/>
<path d="M312.931 212.289L354 188.577L395.069 212.289V259.711L354 283.423L312.931 259.711V212.289Z" stroke="#5E4BAF"/>
<path d="M408.931 212.289L450 188.577L491.069 212.289V259.711L450 283.423L408.931 259.711V212.289Z" stroke="#5E4BAF"/>
<path d="M504.931 212.289L546 188.577L587.069 212.289V259.711L546 283.423L504.931 259.711V212.289Z" stroke="#5E4BAF"/>
<path d="M600.931 212.289L642 188.577L683.069 212.289V259.711L642 283.423L600.931 259.711V212.289Z" stroke="#5E4BAF"/>
<path d="M696.931 212.289L738 188.577L779.069 212.289V259.711L738 283.423L696.931 259.711V212.289Z" stroke="#5E4BAF"/>
<path d="M792.931 212.289L834 188.577L875.069 212.289V259.711L834 283.423L792.931 259.711V212.289Z" stroke="#5E4BAF"/>
<path d="M888.931 212.289L930 188.577L971.069 212.289V259.711L930 283.423L888.931 259.711V212.289Z" stroke="#5E4BAF"/>
<path d="M984.931 212.289L1026 188.577L1067.07 212.289V259.711L1026 283.423L984.931 259.711V212.289Z" stroke="#5E4BAF"/>
<path d="M1080.93 212.289L1122 188.577L1163.07 212.289V259.711L1122 283.423L1080.93 259.711V212.289Z" stroke="#5E4BAF"/>
<path d="M1176.93 212.289L1218 188.577L1259.07 212.289V259.711L1218 283.423L1176.93 259.711V212.289Z" stroke="#5E4BAF"/>
<path d="M1272.93 212.289L1314 188.577L1355.07 212.289V259.711L1314 283.423L1272.93 259.711V212.289Z" stroke="#5E4BAF"/>
<path d="M1368.93 212.289L1410 188.577L1451.07 212.289V259.711L1410 283.423L1368.93 259.711V212.289Z" stroke="#5E4BAF"/>
<path d="M-71.0692 24.2887L-30 0.57735L11.0692 24.2887V71.7113L-30 95.4226L-71.0692 71.7113V24.2887Z" stroke="#5E4BAF"/>
<path d="M24.9308 24.2887L66 0.57735L107.069 24.2887V71.7113L66 95.4226L24.9308 71.7113V24.2887Z" stroke="#5E4BAF"/>
<path d="M120.931 24.2887L162 0.57735L203.069 24.2887V71.7113L162 95.4226L120.931 71.7113V24.2887Z" stroke="#5E4BAF"/>
<path d="M216.931 24.2887L258 0.57735L299.069 24.2887V71.7113L258 95.4226L216.931 71.7113V24.2887Z" stroke="#5E4BAF"/>
<path d="M312.931 24.2887L354 0.57735L395.069 24.2887V71.7113L354 95.4226L312.931 71.7113V24.2887Z" stroke="#5E4BAF"/>
<path d="M408.931 24.2887L450 0.57735L491.069 24.2887V71.7113L450 95.4226L408.931 71.7113V24.2887Z" stroke="#5E4BAF"/>
<path d="M504.931 24.2887L546 0.57735L587.069 24.2887V71.7113L546 95.4226L504.931 71.7113V24.2887Z" stroke="#5E4BAF"/>
<path d="M600.931 24.2887L642 0.57735L683.069 24.2887V71.7113L642 95.4226L600.931 71.7113V24.2887Z" stroke="#5E4BAF"/>
<path d="M696.931 24.2887L738 0.57735L779.069 24.2887V71.7113L738 95.4226L696.931 71.7113V24.2887Z" stroke="#5E4BAF"/>
<path d="M792.931 24.2887L834 0.57735L875.069 24.2887V71.7113L834 95.4226L792.931 71.7113V24.2887Z" stroke="#5E4BAF"/>
<path d="M888.931 24.2887L930 0.57735L971.069 24.2887V71.7113L930 95.4226L888.931 71.7113V24.2887Z" stroke="#5E4BAF"/>
<path d="M984.931 24.2887L1026 0.57735L1067.07 24.2887V71.7113L1026 95.4226L984.931 71.7113V24.2887Z" stroke="#5E4BAF"/>
<path d="M1080.93 24.2887L1122 0.57735L1163.07 24.2887V71.7113L1122 95.4226L1080.93 71.7113V24.2887Z" stroke="#5E4BAF"/>
<path d="M1176.93 24.2887L1218 0.57735L1259.07 24.2887V71.7113L1218 95.4226L1176.93 71.7113V24.2887Z" stroke="#5E4BAF"/>
<path d="M1272.93 24.2887L1314 0.57735L1355.07 24.2887V71.7113L1314 95.4226L1272.93 71.7113V24.2887Z" stroke="#5E4BAF"/>
<path d="M1368.93 24.2887L1410 0.57735L1451.07 24.2887V71.7113L1410 95.4226L1368.93 71.7113V24.2887Z" stroke="#5E4BAF"/>
<path d="M-23.0692 500.289L18 476.577L59.0692 500.289V547.711L18 571.423L-23.0692 547.711V500.289Z" stroke="#5E4BAF"/>
<path d="M72.9308 500.289L114 476.577L155.069 500.289V547.711L114 571.423L72.9308 547.711V500.289Z" stroke="#5E4BAF"/>
<path d="M168.931 500.289L210 476.577L251.069 500.289V547.711L210 571.423L168.931 547.711V500.289Z" stroke="#5E4BAF"/>
<path d="M264.931 500.289L306 476.577L347.069 500.289V547.711L306 571.423L264.931 547.711V500.289Z" stroke="#5E4BAF"/>
<path d="M360.931 500.289L402 476.577L443.069 500.289V547.711L402 571.423L360.931 547.711V500.289Z" stroke="#5E4BAF"/>
<path d="M456.931 500.289L498 476.577L539.069 500.289V547.711L498 571.423L456.931 547.711V500.289Z" stroke="#5E4BAF"/>
<path d="M552.931 500.289L594 476.577L635.069 500.289V547.711L594 571.423L552.931 547.711V500.289Z" stroke="#5E4BAF"/>
<path d="M648.931 500.289L690 476.577L731.069 500.289V547.711L690 571.423L648.931 547.711V500.289Z" stroke="#5E4BAF"/>
<path d="M744.931 500.289L786 476.577L827.069 500.289V547.711L786 571.423L744.931 547.711V500.289Z" stroke="#5E4BAF"/>
<path d="M840.931 500.289L882 476.577L923.069 500.289V547.711L882 571.423L840.931 547.711V500.289Z" stroke="#5E4BAF"/>
<path d="M936.931 500.289L978 476.577L1019.07 500.289V547.711L978 571.423L936.931 547.711V500.289Z" stroke="#5E4BAF"/>
<path d="M1032.93 500.289L1074 476.577L1115.07 500.289V547.711L1074 571.423L1032.93 547.711V500.289Z" stroke="#5E4BAF"/>
<path d="M1128.93 500.289L1170 476.577L1211.07 500.289V547.711L1170 571.423L1128.93 547.711V500.289Z" stroke="#5E4BAF"/>
<path d="M1224.93 500.289L1266 476.577L1307.07 500.289V547.711L1266 571.423L1224.93 547.711V500.289Z" stroke="#5E4BAF"/>
<path d="M1320.93 500.289L1362 476.577L1403.07 500.289V547.711L1362 571.423L1320.93 547.711V500.289Z" stroke="#5E4BAF"/>
<path d="M-71.0692 788.289L-30 764.577L11.0692 788.289V835.711L-30 859.423L-71.0692 835.711V788.289Z" stroke="#5E4BAF"/>
<path d="M24.9308 788.289L66 764.577L107.069 788.289V835.711L66 859.423L24.9308 835.711V788.289Z" stroke="#5E4BAF"/>
<path d="M120.931 788.289L162 764.577L203.069 788.289V835.711L162 859.423L120.931 835.711V788.289Z" stroke="#5E4BAF"/>
<path d="M216.931 788.289L258 764.577L299.069 788.289V835.711L258 859.423L216.931 835.711V788.289Z" stroke="#5E4BAF"/>
<path d="M312.931 788.289L354 764.577L395.069 788.289V835.711L354 859.423L312.931 835.711V788.289Z" stroke="#5E4BAF"/>
<path d="M408.931 788.289L450 764.577L491.069 788.289V835.711L450 859.423L408.931 835.711V788.289Z" stroke="#5E4BAF"/>
<path d="M504.931 788.289L546 764.577L587.069 788.289V835.711L546 859.423L504.931 835.711V788.289Z" stroke="#5E4BAF"/>
<path d="M600.931 788.289L642 764.577L683.069 788.289V835.711L642 859.423L600.931 835.711V788.289Z" stroke="#5E4BAF"/>
<path d="M696.931 788.289L738 764.577L779.069 788.289V835.711L738 859.423L696.931 835.711V788.289Z" stroke="#5E4BAF"/>
<path d="M792.931 788.289L834 764.577L875.069 788.289V835.711L834 859.423L792.931 835.711V788.289Z" stroke="#5E4BAF"/>
<path d="M888.931 788.289L930 764.577L971.069 788.289V835.711L930 859.423L888.931 835.711V788.289Z" stroke="#5E4BAF"/>
<path d="M984.931 788.289L1026 764.577L1067.07 788.289V835.711L1026 859.423L984.931 835.711V788.289Z" stroke="#5E4BAF"/>
<path d="M1080.93 788.289L1122 764.577L1163.07 788.289V835.711L1122 859.423L1080.93 835.711V788.289Z" stroke="#5E4BAF"/>
<path d="M1176.93 788.289L1218 764.577L1259.07 788.289V835.711L1218 859.423L1176.93 835.711V788.289Z" stroke="#5E4BAF"/>
<path d="M1272.93 788.289L1314 764.577L1355.07 788.289V835.711L1314 859.423L1272.93 835.711V788.289Z" stroke="#5E4BAF"/>
<path d="M1368.93 788.289L1410 764.577L1451.07 788.289V835.711L1410 859.423L1368.93 835.711V788.289Z" stroke="#5E4BAF"/>
<path d="M-23.0692 308.289L18 284.577L59.0692 308.289V355.711L18 379.423L-23.0692 355.711V308.289Z" stroke="#5E4BAF"/>
<path d="M72.9308 308.289L114 284.577L155.069 308.289V355.711L114 379.423L72.9308 355.711V308.289Z" stroke="#5E4BAF"/>
<path d="M168.931 308.289L210 284.577L251.069 308.289V355.711L210 379.423L168.931 355.711V308.289Z" stroke="#5E4BAF"/>
<path d="M264.931 308.289L306 284.577L347.069 308.289V355.711L306 379.423L264.931 355.711V308.289Z" stroke="#5E4BAF"/>
<path d="M360.931 308.289L402 284.577L443.069 308.289V355.711L402 379.423L360.931 355.711V308.289Z" stroke="#5E4BAF"/>
<path d="M456.931 308.289L498 284.577L539.069 308.289V355.711L498 379.423L456.931 355.711V308.289Z" stroke="#5E4BAF"/>
<path d="M552.931 308.289L594 284.577L635.069 308.289V355.711L594 379.423L552.931 355.711V308.289Z" stroke="#5E4BAF"/>
<path d="M648.931 308.289L690 284.577L731.069 308.289V355.711L690 379.423L648.931 355.711V308.289Z" stroke="#5E4BAF"/>
<path d="M744.931 308.289L786 284.577L827.069 308.289V355.711L786 379.423L744.931 355.711V308.289Z" stroke="#5E4BAF"/>
<path d="M840.931 308.289L882 284.577L923.069 308.289V355.711L882 379.423L840.931 355.711V308.289Z" stroke="#5E4BAF"/>
<path d="M936.931 308.289L978 284.577L1019.07 308.289V355.711L978 379.423L936.931 355.711V308.289Z" stroke="#5E4BAF"/>
<path d="M1032.93 308.289L1074 284.577L1115.07 308.289V355.711L1074 379.423L1032.93 355.711V308.289Z" stroke="#5E4BAF"/>
<path d="M1128.93 308.289L1170 284.577L1211.07 308.289V355.711L1170 379.423L1128.93 355.711V308.289Z" stroke="#5E4BAF"/>
<path d="M1224.93 308.289L1266 284.577L1307.07 308.289V355.711L1266 379.423L1224.93 355.711V308.289Z" stroke="#5E4BAF"/>
<path d="M1320.93 308.289L1362 284.577L1403.07 308.289V355.711L1362 379.423L1320.93 355.711V308.289Z" stroke="#5E4BAF"/>
<path d="M-71.0692 596.289L-30 572.577L11.0692 596.289V643.711L-30 667.423L-71.0692 643.711V596.289Z" stroke="#5E4BAF"/>
<path d="M24.9308 596.289L66 572.577L107.069 596.289V643.711L66 667.423L24.9308 643.711V596.289Z" stroke="#5E4BAF"/>
<path d="M120.931 596.289L162 572.577L203.069 596.289V643.711L162 667.423L120.931 643.711V596.289Z" stroke="#5E4BAF"/>
<path d="M216.931 596.289L258 572.577L299.069 596.289V643.711L258 667.423L216.931 643.711V596.289Z" stroke="#5E4BAF"/>
<path d="M312.931 596.289L354 572.577L395.069 596.289V643.711L354 667.423L312.931 643.711V596.289Z" stroke="#5E4BAF"/>
<path d="M408.931 596.289L450 572.577L491.069 596.289V643.711L450 667.423L408.931 643.711V596.289Z" stroke="#5E4BAF"/>
<path d="M504.931 596.289L546 572.577L587.069 596.289V643.711L546 667.423L504.931 643.711V596.289Z" stroke="#5E4BAF"/>
<path d="M600.931 596.289L642 572.577L683.069 596.289V643.711L642 667.423L600.931 643.711V596.289Z" stroke="#5E4BAF"/>
<path d="M696.931 596.289L738 572.577L779.069 596.289V643.711L738 667.423L696.931 643.711V596.289Z" stroke="#5E4BAF"/>
<path d="M792.931 596.289L834 572.577L875.069 596.289V643.711L834 667.423L792.931 643.711V596.289Z" stroke="#5E4BAF"/>
<path d="M888.931 596.289L930 572.577L971.069 596.289V643.711L930 667.423L888.931 643.711V596.289Z" stroke="#5E4BAF"/>
<path d="M984.931 596.289L1026 572.577L1067.07 596.289V643.711L1026 667.423L984.931 643.711V596.289Z" stroke="#5E4BAF"/>
<path d="M1080.93 596.289L1122 572.577L1163.07 596.289V643.711L1122 667.423L1080.93 643.711V596.289Z" stroke="#5E4BAF"/>
<path d="M1176.93 596.289L1218 572.577L1259.07 596.289V643.711L1218 667.423L1176.93 643.711V596.289Z" stroke="#5E4BAF"/>
<path d="M1272.93 596.289L1314 572.577L1355.07 596.289V643.711L1314 667.423L1272.93 643.711V596.289Z" stroke="#5E4BAF"/>
<path d="M1368.93 596.289L1410 572.577L1451.07 596.289V643.711L1410 667.423L1368.93 643.711V596.289Z" stroke="#5E4BAF"/>
<path d="M-23.0692 884.289L18 860.577L59.0692 884.289V931.711L18 955.423L-23.0692 931.711V884.289Z" stroke="#5E4BAF"/>
<path d="M72.9308 884.289L114 860.577L155.069 884.289V931.711L114 955.423L72.9308 931.711V884.289Z" stroke="#5E4BAF"/>
<path d="M168.931 884.289L210 860.577L251.069 884.289V931.711L210 955.423L168.931 931.711V884.289Z" stroke="#5E4BAF"/>
<path d="M264.931 884.289L306 860.577L347.069 884.289V931.711L306 955.423L264.931 931.711V884.289Z" stroke="#5E4BAF"/>
<path d="M360.931 884.289L402 860.577L443.069 884.289V931.711L402 955.423L360.931 931.711V884.289Z" stroke="#5E4BAF"/>
<path d="M456.931 884.289L498 860.577L539.069 884.289V931.711L498 955.423L456.931 931.711V884.289Z" stroke="#5E4BAF"/>
<path d="M552.931 884.289L594 860.577L635.069 884.289V931.711L594 955.423L552.931 931.711V884.289Z" stroke="#5E4BAF"/>
<path d="M648.931 884.289L690 860.577L731.069 884.289V931.711L690 955.423L648.931 931.711V884.289Z" stroke="#5E4BAF"/>
<path d="M744.931 884.289L786 860.577L827.069 884.289V931.711L786 955.423L744.931 931.711V884.289Z" stroke="#5E4BAF"/>
<path d="M840.931 884.289L882 860.577L923.069 884.289V931.711L882 955.423L840.931 931.711V884.289Z" stroke="#5E4BAF"/>
<path d="M936.931 884.289L978 860.577L1019.07 884.289V931.711L978 955.423L936.931 931.711V884.289Z" stroke="#5E4BAF"/>
<path d="M1032.93 884.289L1074 860.577L1115.07 884.289V931.711L1074 955.423L1032.93 931.711V884.289Z" stroke="#5E4BAF"/>
<path d="M1128.93 884.289L1170 860.577L1211.07 884.289V931.711L1170 955.423L1128.93 931.711V884.289Z" stroke="#5E4BAF"/>
<path d="M1224.93 884.289L1266 860.577L1307.07 884.289V931.711L1266 955.423L1224.93 931.711V884.289Z" stroke="#5E4BAF"/>
<path d="M1320.93 884.289L1362 860.577L1403.07 884.289V931.711L1362 955.423L1320.93 931.711V884.289Z" stroke="#5E4BAF"/>
</svg>
