<?xml version="1.0" encoding="utf-8"?>
<!-- Generator: Adobe Illustrator 25.2.1, SVG Export Plug-In . SVG Version: 6.00 Build 0)  -->
<svg version="1.1" id="Layer_1" xmlns="http://www.w3.org/2000/svg" xmlns:xlink="http://www.w3.org/1999/xlink" x="0px" y="0px"
	 viewBox="0 0 330.3 302.4" style="enable-background:new 0 0 330.3 302.4;" xml:space="preserve">
<style type="text/css">
	.st0{fill:#F3FAFE;}
	.st1{fill:#FFFFFF;}
	.st2{fill:#010101;}
	.st3{opacity:0.31;fill:#536DA5;enable-background:new    ;}
</style>
<g>
	<g>
		<g>
			<path class="st0" d="M296.7,206.9c-3.1-1.7-6.5-3.5-10.1-3c-2.6,0.4-4.4,2.6-7,2.8c-3.9,0.4-9.4-2.2-12.3-4.6
				c-9.2-7.6-7.8-22.7-5.6-33.1c2.9-13.5,6.6-26.6,8.4-40.3c1.9-14.6,2.1-29.2,0.3-43.8c-0.3-2.5-1.5-4.4-3-5.7c0-0.1,0-0.2,0-0.4
				c-0.2-6.9-1.8-13.2-4.5-19.5C258,47.6,250,37.8,240,30.1c-20.1-15.4-46.3-23-71.2-25.6c-14-1.5-29.4-0.2-43.2,2.3
				c-6.8,1.2-13.4,3.2-19.9,5.7c-7,2.7-13.1,5.1-20.7,4.9c-0.5,0-0.9,0-1.4,0c-6.9,5-14.6,8.9-21.5,13.9C56,35.6,51,40.8,45.7,45.8
				c-2.7,4.2-6.4,11.3-11.2,13c-1,2-2,4-2.9,6.1C20,91.1,14.8,119.8,17.2,148.3c-1.6,0.5-3,1.7-3.9,3.8c-0.3,0.6-0.5,1.3-0.8,1.9
				l0,0v0.1c-8.4,20.4-14.3,45.6-9.2,67.4C5.7,231.6,13.4,238.6,24,238c5.1-0.3,9.3-1.9,13-4.4c0.5,2,1.1,4,1.8,5.7
				c3.5,9,10.1,16.7,17.6,22.7c5.9,4.7,12.5,8.3,19.2,11.6c3.6,8.5,12.8,13.6,20.9,17.6c10.3,5,21.1,7.3,32.6,7.1
				c6-0.1,11.9-0.8,17.9-1.7c4.6,1.5,10,1.6,14.4,1.7c8.5,0.4,16.8-0.2,25.2-1.3c17-2.3,33.5-7.2,48.9-14.7
				c13.3-6.4,25.6-15,36.4-25.1c5.4-5.1,10.5-10.6,15-16.6c2.2-2.9,4.3-5.9,6.2-9c1.1-1.7,2.1-3.4,3.1-5.1c0.8-1.6,1.3-3.9,2.3-5.2
				C302.2,217,302.4,210,296.7,206.9z"/>
			<path class="st0" d="M329.1,170.2c-0.2-2.9,0.6-5.5-1.1-8c-2.3-3.3-5.5-4.4-9.3-4.8c-0.6-0.1-1.3,0-1.9,0.1
				c-8.4-2.6-17.8,5.4-16.9,14.9c1.1,11.3,13.1,17.8,23.1,12.2C328.1,181.8,329.5,175.9,329.1,170.2z"/>
		</g>
	</g>
	<path class="st1" d="M83,113.8c-0.2-2.5-0.7-4.9-1.5-7.1c2.8-14.5-14.1-26.3-28.1-20.4c-18.5,7.8-23.2,33.2-17.9,50.7
		c2.8,9.1,9.9,17.1,19.7,18.4c9.4,1.3,18.2-4.3,23.1-12.1C83.8,134.7,83.8,123.6,83,113.8z"/>
	<path class="st1" d="M177,108.5c-7.3-11.1-18.2-14.8-30.9-12.1c-7.5,1.6-14.3,7-16.7,14c-0.2,0.3-0.4,0.6-0.6,0.9
		c-12,19.4,5.4,55.3,29.9,52.1C183,160.2,188.5,126,177,108.5z"/>
	<g>
		<g>
			<path class="st2" d="M185.2,174.6c-0.8,9.1,0.6,18.6,1.3,27.7c0.7,9.2,0.8,18.5,1.5,27.7c0.4,5.6,0.4,12,5.2,15.9
				c5.5,4.5,12.2,1.3,17.1-2.5c10.8-8.3,19.2-19.3,24-32.1c4.6-12,8.1-27.5,4.8-40.2c-0.3-1.3-2.5-1.4-2.8,0
				c-1.9,11.3-2.7,22.3-7.7,32.9c-4.7,9.9-11.1,19.3-18.7,27.3c-2.7,2.8-11.3,12.5-14,5.7c-1.2-3-1.1-6.8-1.5-9.9
				c-0.4-3.2-1-6.4-1.6-9.7c-2.5-14.1-2.6-29.2-6.8-43C185.9,174,185.2,174.1,185.2,174.6L185.2,174.6z"/>
		</g>
	</g>
	<g>
		<g>
			<path class="st2" d="M18.3,138.8C3.1,159.2-0.5,184.8,0,209.7c0.2,10.7,1.9,21.8,10.9,28.8c7.6,5.9,19.3,4.8,23.8-4.3
				c2-4-3.4-7.1-6-3.5c-6.2,8.6-17.3,2.7-21.1-4.7c-4.5-8.9-3.7-20.5-3-30.2c1.5-19.3,7-38.6,15.1-56.2
				C20.2,138.7,18.9,137.9,18.3,138.8L18.3,138.8z"/>
		</g>
	</g>
	<g>
		<g>
			<path class="st2" d="M269.5,205.3c0.1,0,0.1-0.2,0-0.2C269.4,205.2,269.4,205.3,269.5,205.3L269.5,205.3z"/>
		</g>
	</g>
	<g>
		<g>
			<path class="st2" d="M277.3,203c-3.4,0.7-8.1,0.1-10.9-2.1c-3.3-2.6-3.3-7.7-3.3-11.5c0-10.1,1.6-19.9,3.4-29.8
				c3.3-18.1,6.9-36.3,8-54.7c0.9-15.4-1.5-31.8-7.4-46.1c-5.7-13.7-16.4-25.8-28.7-34c-13.9-9.3-30.4-15-46.6-19
				c-17.1-4.1-34.9-6.6-52.4-5.6c-31.6,1.8-61.2,13.3-84.5,35c-10.8,10-20.6,20.7-27.4,34c-7.7,15.2-12.3,31.9-14.1,48.8
				c-3.2,31.5-0.4,65.9,10.2,95.8c10.6,29.7,29.3,56,57,72c29.4,17,66.5,18.9,99.4,14.6c31.4-4.2,63.8-14.9,89.3-34.3
				c11.8-9,22.3-18.5,29.2-31.8c3.7-7.1,7.5-15.6,5.6-23.7c-1.5-6.5-7.9-11.3-14.5-11.6c-6.1-0.2-18.1,9-22.8,2.3
				c-0.9-1.2-3.3-0.5-2.6,1.1c1.8,4.2,5.7,6,10.1,5.9c3.3,0,6.2-1.4,9.3-2.2c2.7-0.7,6.2-1.7,8.1,1.2c1,1.5,1,3.9,1.1,5.7
				c0.1,7.1-4.2,15-7.7,21c-3.4,5.8-7.4,11.7-11.8,16.8c-19.7,22.4-51.1,34.4-79.4,41.1c-33.4,8-67.9,6.2-98.8-9.5
				c-14-7.1-26.6-15.7-37-27.5c-9.6-10.9-16.8-23.7-21.7-37.3c-10.4-28.5-12.8-58.7-12.5-88.8c0.2-16.9,1.5-34.8,7.7-50.6
				c5.2-13.3,13.2-25.6,23.1-35.9c20.8-21.8,53.6-33.5,83.1-35.7c32.7-2.4,68.9,3.9,96.7,22.1c6.8,4.4,12.9,9.8,17.8,16.3
				c4.4,5.9,7.2,13.2,9.4,20.2c4.6,14.6,5.2,30,4.6,45.3c-0.7,17.8-4.5,35.4-6.4,53.1c-1,9-2,18.3-2.3,27.4
				c-0.1,5.5,0.7,11.7,5.8,14.9c4.4,2.8,10.5,3,15.3,1.2C280.8,206,279.9,202.5,277.3,203L277.3,203z"/>
		</g>
	</g>
	<g>
		<g>
			<path class="st2" d="M81.1,106.2c2.2-8.9-2.3-18.4-10.5-22.3c-9.1-4.4-21.5-0.6-29,5.4c-17,13.7-18.6,41.9-4,57.7
				c1.8,2,4.9-0.5,3.7-2.8c-7.8-14-9.5-31.6,0.2-45.2c5.2-7.3,13.1-12.6,22.3-10.9c9.1,1.8,16.7,8.1,16.5,18
				C80.3,106.5,81,106.6,81.1,106.2L81.1,106.2z"/>
		</g>
	</g>
	<g>
		<g>
			<path class="st2" d="M128.1,114.1c8.2-16.7,30.8-22.3,44.3-8.4c6.5,6.7,9.5,16.2,8.8,25.4c-0.7,9.5-5.7,16.9-9.9,25.2
				c-0.6,1.2,0.7,2.9,2,2c18-12.8,16.7-43.9,0.2-57.2c-15.3-12.4-42.8-9.8-45.6,13C127.8,114.2,128,114.2,128.1,114.1L128.1,114.1z"
				/>
		</g>
	</g>
	<g>
		<g>
			<path class="st2" d="M94.6,161c-1.4,6.3-1.5,12.9,0,19.2c1.1,4.5,1.7,9.6,7,10.6c12,2.2,16.8-19.2,15.2-27.6
				c-0.3-1.8-2.9-1.5-3.3,0c-1.5,4.8-4.8,23.6-12.9,20.9c-3.7-1.3-4.4-9-4.7-12.2c-0.4-3.7-0.4-7.2-0.9-10.9
				C94.8,160.9,94.6,160.9,94.6,161L94.6,161z"/>
		</g>
	</g>
	<ellipse class="st2" cx="64.5" cy="128.4" rx="11.5" ry="15.3"/>
	<ellipse class="st2" cx="155.8" cy="135.9" rx="11.5" ry="15.3"/>
	<g>
		<g>
			<path class="st2" d="M50,70.7c2.2-3.7,5.5-6.6,9.2-8.7c3.4-2,7.1-1.7,10.5-3.1c0.9-0.4,0.9-2,0-2.3c-3.9-1.7-9.4,0.6-12.7,2.7
				c-4.1,2.6-6.4,6.5-7.6,11.1C49.2,70.8,49.7,71.1,50,70.7L50,70.7z"/>
		</g>
	</g>
	<g>
		<g>
			<path class="st2" d="M172.5,71.1c4.7,0.6,9.9,3.1,12.8,6.8c1.4,1.8,2.5,3.9,3,6.1c0.5,2,0.1,3,1.6,4.4c0.4,0.4,1.2,0.5,1.6,0
				c3.2-3.5-1.1-10.7-3.5-13.6c-4-4.7-9.4-6.6-15.5-5.8C171.1,69.1,171.1,70.9,172.5,71.1L172.5,71.1z"/>
		</g>
	</g>
	<g>
		<g>
			<path class="st2" d="M306.6,157.7c-8.8,1.8-11.6,14.3-7.8,21.5c4.8,9.1,16.6,12.1,24.8,5.6c7.5-6,8.9-17.3,3.2-25.1
				c-6.8-9.2-18.7-6.2-25.6,1c-1.4,1.4,0.6,3.3,2.1,2.1c6.1-4.9,14.6-6.5,20.4-0.4c6,6.3,4.3,15.9-3.5,19.9
				c-6.8,3.5-16.2,0.2-18.7-7.3c-2.2-6.5,1.6-12.2,5.2-17.2C306.8,157.7,306.7,157.6,306.6,157.7L306.6,157.7z"/>
		</g>
	</g>
	<path class="st3" d="M296,208.6c-1.6-5-8.4-7.4-12.2-3.2c-11.2,12.1-17.8,26.3-31,36.8C205.5,280,136.1,279,85.3,248.9
		c-24.8-14.7-42.2-37.3-52.6-63.9c-2.1-5.3-3.7-10.9-5.8-16.2c-2-5-5.6-11.5-5.1-17.1c0,0.2,0,0.3,0,0.5
		c-0.9,21.9,0.7,43.8,4.5,65.4c-3.9,2.7-8.6,5.5-13,3.7c-5.9-2.3-6.1-10.5-9.5-15.8c-2.7,6.9-2.4,14.9,0.8,21.6
		c3.1,6.8,10.5,12.4,17.6,10.4c7.1-1.9,10.8-8.4,15.8-1c4.2,6.2,7.6,12.7,12.4,18.5c9.3,11.4,21,21,34.4,27.1
		c12.7,5.8,25.9,9.8,39.4,13.2c13.6,3.4,27.6,6.6,41.7,6.2c25.6-0.7,50-12.3,71.8-25.2c4.3-1.5,8.5-3.8,11.6-5.7
		c3.7-2.3,7.3-5.1,10.5-8.1c6.8-4.6,13.3-9.5,19.2-15.1C288.3,238.5,300.2,222.1,296,208.6z"/>
	<path class="st3" d="M229.2,241.4c2.8-3.5,5.1-7.5,6.9-11.4c2.7-6.3,4.3-13,4.9-19.8c0.7-6.8,1.6-13.6,0.9-20.5
		c-0.5-4.3-2-8.6-3.4-12.9c-0.5,1.4-1.1,2.9-1.6,4.3c0.3-2.1,0.7-4.2,1-6.3c-0.3-1-0.6-2-0.9-3c-1.2,4.1-2.6,8.2-4.4,12.1
		C227,196.6,219,210,210.5,221c-2.9,3.7-6.8,7.7-11.9,6.1c-4.8-1.5-6.3-6.7-7.2-11.1c-1.2-5.3-2.2-10.6-3.1-16
		c0.3,7.8,0.4,15.7,1.1,23.5c0.7,7.6-0.3,15.3,4.9,21.2c2.2,2.5,3.8,5.6,6,8.1c2.5,3.1,5.5,2.9,9.3,2
		C217.3,252.9,224.1,247.8,229.2,241.4z"/>
	<path class="st3" d="M328.1,169.7c-1.2-5.2-2.7-9.4-7.9-10.9c1.8,3.1,2.7,7.2,2.2,9.9c0,0.2-0.1,0.3-0.1,0.5
		c-0.2,3.4-2.3,6.7-5.9,8.1c-0.5,0.2-1,0.3-1.5,0.4c-2.3,0.8-4.8,0.7-7.3-0.5c-0.5-0.3-0.9-0.6-1.2-0.9c-1.6-0.7-2.8-2-3.9-3.4
		c-1.4-1.9-2.5-4.2-2.2-6.3c-0.2,0-0.4,0.1-0.5,0.4c-2.3,4.6,0.4,11.9,3.7,15.5c4.5,4.9,12.7,5.2,18.4,2.7
		C327.9,182.2,329.7,176.4,328.1,169.7z"/>
	<path class="st3" d="M264,153.2c2.8-16.5,6-33.1,6.9-49.9c0.8-14.6,0-29.9-6.8-43.1c-3-5.8-7-11.3-11.1-16.4
		c-3.6-4.5-6.1-12.6-12-13.8c-0.7-0.2-3.8-0.6-3.5,0.1c3.2,6.7,7.8,12.7,11.3,19.2c2.9,5.2,4.4,10.9,5.5,16.7
		c3.6,19.6,2.8,39.3-0.6,58.9c-2.9,16.9-6.4,33.9-6.6,51.1c-0.2,11,3.4,31.5,18.5,29.6c2.6-0.3,3.4-3.2,1.3-4.8
		c-7.4-5.4-6.5-13.1-5.9-21.2C261.9,170.7,262.5,162,264,153.2z"/>
</g>
</svg>
