<svg version="1.1" id="Layer_1" xmlns="http://www.w3.org/2000/svg" x="0" y="0" viewBox="0 0 283.8 358.9" style="enable-background:new 0 0 283.8 358.9" xml:space="preserve"><style>.st0{display:none}.st2{display:inline}.st3{fill:#2b2b2b}.st4{fill:#481959}.st5{fill:#83ff73}.st6{fill:#f6ffd0}.st7,.st8{display:inline;fill:#fff}.st8{fill:#bc00d0}.st9{opacity:.53;fill:#5800b9;enable-background:new}.st10,.st11{display:inline;fill:#83ff73}.st11{opacity:.53;fill:#5800b9;enable-background:new}.st12,.st13{display:inline;fill:#114500}.st13{fill:#ffea5c}.st14{fill:#e77c00}.st14,.st15,.st16{display:inline}.st15{opacity:.57;enable-background:new}.st16{fill:#dce0bc}.st19{fill:#00e713}.st23{fill:#fff}.st25,.st27{display:inline;fill:#94613b}.st27{fill:#ff8c2e}.st29,.st30,.st34{display:inline;fill:#d02900}.st30,.st34{fill:#f6ffd0}.st34{opacity:.33;fill:#5800b9;enable-background:new}.st35{fill:#bc00d0;stroke:#fff;stroke-width:.742;stroke-miterlimit:10}.st37,.st39{display:inline;fill:#696969}.st39{fill:#e70d00}.st40{fill:#a8a8a8}.st40,.st42,.st43{display:inline}.st42{opacity:.73;fill:#83ff73;enable-background:new}.st43{fill:#f6ff8b}.st46{fill:#ffc200}.st47{fill:#55ff45}.st48{fill:#00ff4f}.st49{fill:#a2fffd}.st50{opacity:.26;fill:#004519;enable-background:new}.st51{fill:#009540}.st52{opacity:.69;fill:#fff;enable-background:new}.st54{fill:#1c112b}</style><path class="st54" d="M192.26 82.32c3.61.04 7.03.91 10.3 2.4 3.04 1.39 5.8 3.2 8.4 5.28 4.09 3.26 7.86 6.85 11.22 10.86 4.11 4.89 7.17 10.36 8.82 16.56.57 2.15 1 4.33 1.16 6.55.1 1.42.18 2.84.27 4.25.02.32 0 .64.18.94.17.3.13.64.01.95a7.7 7.7 0 0 1-.54 1.21c-.79 1.34-2.33 1.69-3.63 1.12-.61-.27-1.1-.69-1.53-1.19-.73-.84-1.23-1.81-1.59-2.85-.29-.87-.54-1.76-.86-2.61-.3-.8-.65-1.59-1.02-2.36-.29-.62-.73-1.15-1.24-1.61-.73-.67-1.59-1.02-2.56-1.11-.32-.03-.66 0-.97.07-1.24.28-1.91 1.22-1.77 2.48.07.68.26 1.34.57 1.95.27.53.53 1.06.83 1.57 1.8 3.02 2.83 6.31 3.27 9.78.13 1 .15 2.01-.11 3-.12.45-.28.91-.51 1.32-.72 1.31-2.08 1.9-3.55 1.58a4.722 4.722 0 0 1-2.85-1.83c-.47-.62-.82-1.3-1.09-2.03-.27-.72-.53-1.45-.78-2.17-3.39-9.59-11.29-20.16-24.38-25.51-1.56-.64-3.11-1.3-4.65-1.99-1.35-.61-2.62-1.37-3.79-2.29-2.82-2.23-4.25-5.17-4.46-8.73-.3-5.21 2.37-11.21 8.87-14.01a18.32 18.32 0 0 1 6.19-1.47c.6-.04 1.19-.07 1.79-.11zM126.55 85.93c0 2.21-.61 4.04-1.68 5.73-.98 1.55-2.27 2.8-3.77 3.84-1.74 1.21-3.64 2.09-5.64 2.78-1.76.61-3.54 1.18-5.31 1.76-8.85 2.85-16.5 7.67-23.16 14.1-3.51 3.39-6.57 7.15-9.09 11.34-.3.51-.64 1-1 1.47-.4.52-.88.96-1.47 1.27-1.39.74-2.95.36-3.84-.95-.43-.63-.64-1.33-.7-2.08-.07-.93.05-1.83.28-2.73.44-1.73 1.13-3.37 1.95-4.95.53-1.02 1.13-2.02 1.71-3.01 1.26-2.18 2.54-4.34 3.79-6.53.41-.72.75-1.48 1.11-2.22.27-.56.45-1.16.51-1.79.03-.35-.01-.71-.1-1.05-.12-.48-.48-.72-.98-.75-.72-.03-1.36.2-1.89.65-.44.39-.85.83-1.2 1.3-.41.54-.73 1.15-1.12 1.71-.44.63-.88 1.26-1.38 1.85-.75.88-1.7 1.47-2.84 1.71-.91.19-1.83.19-2.72-.12-1.42-.5-2.26-1.65-2.31-3.16-.02-.69.08-1.36.3-2.01.19-.56.4-1.12.65-1.65C73 88.71 84.5 79.8 96.18 75.79c2.95-1.01 5.96-1.75 9.05-2.19 2.56-.36 5.13-.5 7.71-.21 3.3.37 6.37 1.36 8.97 3.51 2.19 1.81 3.68 4.07 4.36 6.85.19.78.3 1.57.28 2.18zM248.61 233.97c-3.78-.06-7.13-1.47-9.71-4.48-4.21-4.9-4.08-12.07.8-16.79 2.82-2.73 6.25-4.04 10.18-3.82 5.13.29 9.65 3.4 11.29 8.58 1.35 4.26.31 9.4-3.38 12.89-2.51 2.41-5.53 3.59-9.18 3.62zM28.14 155.8c-3.2.01-5.52-2.01-5.99-5.13-.22-1.48-.03-2.9.67-4.22 1-1.91 2.63-2.91 4.78-3.03.65-.03 1.3-.03 1.94.12 1.9.44 3.23 1.57 3.97 3.35.77 1.84.76 3.7-.06 5.52-.89 1.97-2.43 3.08-4.58 3.32-.27.03-.54.05-.73.07zM161.45 75.35c-2.01.04-3.56-.71-4.7-2.23-.89-1.17-1.27-2.51-1.11-4 .08-.72.24-1.39.56-2.04 1.02-2.1 2.77-3.16 5.03-3.23 3.02-.09 5.24 2 5.86 4.5.59 2.35-.29 4.82-2.43 6.17-.95.6-1.91.85-3.21.83zM66.43 135.5c-.05 2.53-1.8 4.27-3.66 4.64-.92.18-1.76.03-2.59-.36-.65-.31-1.19-.76-1.64-1.33-.18-.23-.35-.45-.64-.59-.36-.17-.58-.52-.67-.9-.09-.4-.17-.82-.16-1.22.04-1 .36-1.91.94-2.73 1.13-1.61 2.82-2.26 4.74-1.82 1.92.44 3.34 1.91 3.64 3.8.02.19.03.4.04.51zM245.81 157.66c-2.44.01-4.67-2.09-4.04-4.95.36-1.62 1.47-2.6 3.03-3.04.84-.23 1.7-.21 2.53.1 1.45.55 2.35 1.57 2.59 3.1.27 1.64-.32 2.96-1.64 3.96-.71.55-1.63.83-2.47.83zM46.99 165.14c.04-2.34 1.79-3.5 3.35-3.51 1.93-.01 3.4 1.42 3.39 3.33-.02 1.82-1.53 3.28-3.37 3.32-2.14.05-3.42-1.66-3.37-3.14zM228.58 175.67c.03-.23.03-.47.1-.7.27-.88 1.23-1.4 2.12-1.1.7.23 1.23.71 1.5 1.4s.12 1.33-.39 1.88c-.51.54-1.41.75-2.12.48-.75-.28-1.11-.84-1.17-1.61-.01-.12 0-.24 0-.35h-.04zM128.14 64.63c.78-.02 1.39.38 1.58 1 .18.59.12 1.26-.53 1.73-.07.05-.15.1-.22.15-.68.5-1.21.53-1.76.1-.61-.49-.84-1.3-.54-1.98.3-.67.84-.96 1.47-1z"/><path class="st54" d="M248.15 251.03c-.25-2.75-2.08-4.97-4.73-5.74-1.24-.35-2.51-.41-3.79-.27-1.33.14-2.63.41-3.92.72-1.3.32-2.59.64-3.9.88-2.27.43-4.28-.14-6-1.71-.72-.67-1.32-1.44-1.82-2.29-.66-1.13-1.12-2.35-1.43-3.62-.5-1.99-.69-4.03-.72-6.07-.05-2.76-.08-5.51-.09-8.27-.03-4.18-.02-8.35-.04-12.53-.02-2.49-.04-4.98-.11-7.47-.12-4.2-.27-8.4-.62-12.6-.2-2.33-.37-4.66-.62-6.99-.35-3.27-.81-6.52-1.34-9.77-.97-6.03-2.39-11.96-4.28-17.77-1.8-5.53-3.98-10.9-6.76-16.01-7.66-14.09-18.73-24.62-33.14-31.61-7.99-3.87-16.42-6.22-25.3-6.88-3.73-.28-7.46-.22-11.19.1-2.97.26-5.94.65-8.89 1.17-3.47.62-6.89 1.45-10.22 2.61-7.06 2.47-13.49 6.07-19.38 10.65-6.37 4.96-11.66 10.92-16.2 17.57-.93 1.37-1.75 2.82-2.66 4.21-.58.89-1.23 1.74-2.35 2.02-10.94 4.55-17.22 15.88-15.43 27.35.82 5.29 3.08 9.85 6.75 13.73.49.52.99 1.02 1.55 1.6-.27 3.3-.45 6.61-.44 9.93.01 3.34.22 6.67.46 10.04-.19.03-.33.07-.47.06-.51-.02-1.01-.02-1.51-.09-2.71-.34-5.22-1.28-7.6-2.6-1.41-.78-2.66-1.77-3.69-3.02-.53-.64-1.04-1.29-1.57-1.93-1.46-1.82-2.91-3.67-4.41-5.46-1.28-1.53-2.71-2.9-4.32-4.08-2.27-1.66-4.78-2.71-7.6-2.99-2.03-.2-3.95.16-5.77 1.05-1.61.78-2.88 1.96-3.89 3.42-1.15 1.65-1.94 3.47-2.47 5.39-1.05 3.79-1.57 7.66-1.77 11.57-.17 3.41-.09 6.81.31 10.21.32 2.65.77 5.27 1.45 7.85.38 1.44.87 2.84 1.69 4.09 1.68 2.6 4.09 3.7 7.14 3.24 2.17-.32 3.59-1.58 4.17-3.72.28-1.01.31-2.05.26-3.09-.05-1-.1-2.01-.09-3.02 0-.5.08-1 .2-1.49.15-.63.52-1.13 1.15-1.38.54-.22 1.1-.19 1.64.03.89.37 1.55 1 1.95 1.86.24.5.42 1.04.55 1.59.26 1.04.28 2.11.33 3.17.06 1.3.1 2.61.19 3.91.17 2.66.57 5.29 1 7.92.48 2.9 1.16 5.75 1.91 8.58.49 1.89.99 3.79 1.71 5.61.56 1.41 1.21 2.76 2.14 3.97 1.08 1.42 2.42 2.51 4.08 3.2.94.39 1.93.61 2.95.54 2.25-.15 4-1.18 5.19-3.11.51-.84.88-1.75 1.13-2.69.26-.98.47-1.96.7-2.94.2-.9.47-1.78.88-2.6.22-.46.48-.89.86-1.23.52-.46 1.13-.53 1.72-.17.25.15.5.33.69.55.46.5.9 1.02 1.31 1.57.77 1.01 1.47 2.08 2.27 3.07 3.09 3.86 7.09 6.3 11.89 7.46.57.13 1.15.24 1.71.36.06.06.11.1.14.15.14.19.28.39.41.58 2.52 3.6 5.33 6.96 8.44 10.07 3.7 3.7 7.77 6.94 12.16 9.8 10.61 6.92 22.24 11.25 34.63 13.68 2.44.47 4.9.87 7.37 1.17 1.88.23 3.76.43 5.65.58 1.71.14 3.43.18 5.15.27 3.2.17 6.4.05 9.59-.12 3.17-.18 6.32-.51 9.45-.98 3.14-.47 6.25-1.05 9.35-1.73 4.02-.88 7.93-2.17 11.77-3.64 6.59-2.53 12.98-5.49 19.01-9.18 6.78-4.14 13.01-8.99 18.57-14.67 1.27-1.29 2.45-2.66 3.61-4.04 1.05-1.26 1.88-2.66 2.48-4.19.67-1.74.99-3.53.82-5.39zm-96.29-21.86c-2.01.58-4.06.77-6.15.61-1.67-.13-3.29-.44-4.82-1.13-3.34-1.49-5.78-3.89-7.02-7.38-1.32-3.74-.83-8.61 2.27-11.98 1.79-1.96 3.96-3.27 6.52-3.93 1.45-.38 2.91-.56 4.14-.54 2.35-.01 4.39.3 6.34 1.08 1.97.78 3.64 1.98 5.02 3.57 1.74 2 2.61 4.35 2.77 6.97.42 6.97-4.55 11.41-9.07 12.73zm22.31-50.75c-.76 3.17-2.33 5.93-4.49 8.36-1.57 1.78-3.38 3.32-5.15 4.89-1.36 1.19-2.67 2.44-3.98 3.68-.44.43-.85.91-1.24 1.39-.81.99-1.29 2.12-1.39 3.4-.01.12-.04.23-.06.35-.01.02-.03.04-.05.07-.67.13-12.17.18-20.68.09-.27 0-.53-.03-.82-.05-.02-.25-.06-.45-.06-.65.11-3.03.86-5.84 2.7-8.31 1.25-1.66 2.58-3.24 4.05-4.72 1.27-1.28 2.58-2.53 3.83-3.83.66-.68 1.27-1.4 1.85-2.15.73-.94 1.11-2.02 1.1-3.22-.01-1.44-.59-2.57-1.75-3.42-.97-.71-2.08-1.11-3.26-1.31-3.63-.6-6.79.42-9.58 2.74-1.15.96-2.09 2.1-2.86 3.38-.15.25-.3.51-.43.73-.07.02-.1.03-.13.03a.11.11 0 0 1-.08 0c-5.99-2.99-11.97-5.98-17.95-8.97-.14-.06-.27-.13-.39-.21-.05-.03-.08-.08-.15-.17.15-.27.29-.55.45-.84 2.58-4.52 6.14-8.08 10.58-10.79 3.32-2.03 6.9-3.38 10.69-4.2 3.87-.85 7.79-1.14 11.74-1.1 2.4.03 4.79.2 7.17.57 4.52.69 8.81 2.05 12.69 4.55 1.98 1.28 3.73 2.81 5.11 4.74 1.55 2.17 2.48 4.57 2.85 7.2.36 2.6.3 5.2-.31 7.77z"/></svg>