<?xml version="1.0" encoding="utf-8"?>
<!-- Generator: Adobe Illustrator 25.2.1, SVG Export Plug-In . SVG Version: 6.00 Build 0)  -->
<svg version="1.1" id="Layer_1" xmlns="http://www.w3.org/2000/svg" xmlns:xlink="http://www.w3.org/1999/xlink" x="0px" y="0px"
	 viewBox="0 0 1198.6 261.9" style="enable-background:new 0 0 1198.6 261.9;" xml:space="preserve">
<style type="text/css">
	.st0{fill:#FCFCFC;}
	.st1{fill:#38DB93;}
	.st2{fill:#F3FAFE;}
	.st3{fill:#FFFFFF;}
	.st4{fill:#010101;}
	.st5{opacity:0.31;fill:#536DA5;enable-background:new    ;}
</style>
<g>
	<g>
		<path class="st0" d="M389.9,132c3.2,4.2,4.8,9,4.8,14.4c0,8.3-2.8,14.7-8.3,19.3c-5.5,4.5-13.4,6.8-23.7,6.8H313v-95h48.5
			c9.7,0,17.3,2.1,22.8,6.3c5.5,4.2,8.3,10.3,8.3,18.4c0,5.5-1.5,10.2-4.4,14c-2.9,3.8-6.8,6.3-11.6,7.6
			C382.3,125.1,386.8,127.9,389.9,132z M342.8,114.5h11.5c2.7,0,4.7-0.5,6-1.6c1.3-1.1,1.9-2.7,1.9-5c0-2.3-0.6-4-1.9-5.2
			c-1.3-1.1-3.3-1.7-6-1.7h-11.5V114.5z M362.3,147.1c1.3-1,1.9-2.7,1.9-5c0-4.6-2.6-6.8-7.9-6.8h-13.6v13.4h13.6
			C359,148.6,361,148.1,362.3,147.1z"/>
		<path class="st0" d="M420.2,168.8c-6.1-3.1-10.9-7.6-14.3-13.5c-3.4-5.9-5.2-12.7-5.2-20.6c0-7.9,1.7-14.7,5.2-20.6
			c3.4-5.9,8.2-10.4,14.3-13.5c6.1-3.1,12.9-4.7,20.5-4.7c7.6,0,14.4,1.6,20.5,4.7c6.1,3.1,10.8,7.6,14.3,13.5
			c3.4,5.9,5.2,12.7,5.2,20.6c0,7.9-1.7,14.7-5.2,20.6c-3.4,5.9-8.2,10.4-14.3,13.5c-6.1,3.1-12.9,4.7-20.5,4.7
			C433.1,173.4,426.3,171.9,420.2,168.8z M447.7,144.4c1.9-2.2,2.8-5.4,2.8-9.7s-0.9-7.5-2.8-9.7c-1.9-2.2-4.2-3.3-7-3.3
			c-2.8,0-5.1,1.1-7,3.3c-1.9,2.2-2.8,5.4-2.8,9.7s0.9,7.5,2.8,9.7c1.8,2.2,4.2,3.3,7,3.3C443.5,147.7,445.8,146.6,447.7,144.4z"/>
		<path class="st0" d="M505.6,168.8c-6.1-3.1-10.9-7.6-14.3-13.5c-3.4-5.9-5.2-12.7-5.2-20.6c0-7.9,1.7-14.7,5.2-20.6
			c3.4-5.9,8.2-10.4,14.3-13.5c6.1-3.1,12.9-4.7,20.5-4.7c7.6,0,14.4,1.6,20.5,4.7c6.1,3.1,10.8,7.6,14.3,13.5
			c3.4,5.9,5.2,12.7,5.2,20.6c0,7.9-1.7,14.7-5.2,20.6c-3.4,5.9-8.2,10.4-14.3,13.5c-6.1,3.1-12.9,4.7-20.5,4.7
			C518.5,173.4,511.6,171.9,505.6,168.8z M533.1,144.4c1.9-2.2,2.8-5.4,2.8-9.7s-0.9-7.5-2.8-9.7c-1.9-2.2-4.2-3.3-7-3.3
			c-2.8,0-5.1,1.1-7,3.3c-1.9,2.2-2.8,5.4-2.8,9.7s0.9,7.5,2.8,9.7c1.8,2.2,4.2,3.3,7,3.3C528.9,147.7,531.2,146.6,533.1,144.4z"/>
		<path class="st0" d="M642.6,77.5v23.6h-37.3v13.2h26.8v22.4h-26.8v35.8h-29.8v-95H642.6z"/>
		<path class="st0" d="M655.2,86.6c-3.1-2.8-4.7-6.3-4.7-10.5c0-4.3,1.6-7.9,4.7-10.7c3.1-2.8,7.3-4.2,12.5-4.2
			c5.1,0,9.2,1.4,12.3,4.2c3.1,2.8,4.7,6.4,4.7,10.7c0,4.2-1.6,7.7-4.7,10.5c-3.1,2.8-7.2,4.2-12.3,4.2
			C662.5,90.8,658.3,89.4,655.2,86.6z M682.5,96.8v75.7h-29.8V96.8H682.5z"/>
		<path class="st0" d="M769.2,105c4.9,5.8,7.3,13.7,7.3,23.6v43.9h-29.7v-40.1c0-3.6-1-6.4-2.9-8.5c-1.9-2.1-4.5-3.2-7.7-3.2
			c-3.3,0-5.9,1.1-7.8,3.2c-1.9,2.1-2.8,4.9-2.8,8.5v40.1h-29.8V96.8h29.8v11.5c2.3-3.6,5.4-6.5,9.3-8.7c3.9-2.2,8.5-3.4,13.9-3.4
			C757.6,96.3,764.4,99.2,769.2,105z"/>
		<path class="st0" d="M789.5,113.9c2.7-5.9,6.5-10.3,11.2-13.4c4.7-3.1,10.1-4.6,16-4.6c4.9,0,9.2,1,12.8,3c3.6,2,6.3,4.8,8.2,8.3
			V96.8h29.7v75.7h-29.7v-10.3c-1.9,3.5-4.6,6.2-8.2,8.3c-3.6,2-7.8,3-12.8,3c-5.9,0-11.2-1.5-16-4.6c-4.7-3.1-8.5-7.6-11.2-13.4
			c-2.7-5.9-4.1-12.8-4.1-20.7C785.4,126.7,786.8,119.8,789.5,113.9z M834.5,125.3c-2.1-2.2-4.7-3.4-7.9-3.4c-3.2,0-5.9,1.1-7.9,3.4
			c-2.1,2.2-3.1,5.4-3.1,9.4c0,4,1,7.2,3.1,9.4c2.1,2.2,4.7,3.4,7.9,3.4c3.2,0,5.9-1.1,7.9-3.4c2.1-2.2,3.1-5.4,3.1-9.4
			C837.6,130.6,836.6,127.5,834.5,125.3z"/>
		<path class="st0" d="M954.1,105c4.9,5.8,7.3,13.7,7.3,23.6v43.9h-29.7v-40.1c0-3.6-1-6.4-2.9-8.5c-1.9-2.1-4.5-3.2-7.7-3.2
			c-3.3,0-5.9,1.1-7.8,3.2c-1.9,2.1-2.8,4.9-2.8,8.5v40.1h-29.8V96.8h29.8v11.5c2.3-3.6,5.4-6.5,9.3-8.7c3.9-2.2,8.5-3.4,13.9-3.4
			C942.4,96.3,949.2,99.2,954.1,105z"/>
		<path class="st0" d="M975.1,114.1c3.3-5.9,7.8-10.4,13.7-13.5c5.9-3.1,12.5-4.7,20.1-4.7c9.8,0,18.1,2.8,24.9,8.3
			c6.8,5.5,11,13.2,12.8,23.1h-31.5c-1.2-3.9-3.4-5.9-6.8-5.9c-2.4,0-4.3,1.1-5.7,3.4c-1.4,2.2-2.1,5.5-2.1,9.9
			c0,4.4,0.7,7.7,2.1,9.9c1.4,2.2,3.3,3.4,5.7,3.4c3.4,0,5.7-2,6.8-5.9h31.5c-1.8,9.8-6.1,17.5-12.8,23.1
			c-6.8,5.5-15.1,8.3-24.9,8.3c-7.5,0-14.2-1.6-20.1-4.7c-5.9-3.1-10.4-7.6-13.7-13.5c-3.3-5.9-4.9-12.7-4.9-20.6
			C970.2,126.8,971.9,119.9,975.1,114.1z"/>
		<path class="st0" d="M1128.9,139.9H1081c0.4,6.5,3.2,9.8,8.2,9.8c3.2,0,5.5-1.5,7-4.4h31.5c-1.1,5.4-3.3,10.2-6.8,14.4
			c-3.4,4.3-7.8,7.6-13,10.1c-5.2,2.5-11,3.7-17.2,3.7c-7.5,0-14.2-1.6-20.1-4.7c-5.9-3.1-10.4-7.6-13.7-13.5
			c-3.3-5.9-4.9-12.7-4.9-20.6c0-7.9,1.6-14.7,4.9-20.6c3.3-5.9,7.8-10.4,13.7-13.5c5.9-3.1,12.5-4.7,20.1-4.7s14.2,1.5,20.1,4.6
			c5.9,3.1,10.4,7.5,13.7,13.2c3.3,5.7,4.9,12.5,4.9,20.3C1129.3,136,1129.1,138,1128.9,139.9z M1099.1,126.9c0-2.5-0.8-4.4-2.4-5.7
			c-1.6-1.3-3.6-1.9-6-1.9c-5.3,0-8.4,2.6-9.3,7.7H1099.1z"/>
		<path class="st1" d="M1141,169.4c-3.1-2.8-4.7-6.3-4.7-10.5c0-4.3,1.6-7.9,4.7-10.7c3.1-2.8,7.3-4.2,12.5-4.2
			c5.1,0,9.2,1.4,12.3,4.2c3.1,2.8,4.7,6.4,4.7,10.7c0,4.2-1.6,7.7-4.7,10.5c-3.1,2.8-7.2,4.2-12.3,4.2
			C1148.2,173.6,1144.1,172.2,1141,169.4z"/>
	</g>
	<g>
		<g>
			<g>
				<path class="st2" d="M261.2,170.7c-2.5-1.4-5.2-2.8-8.1-2.4c-2.1,0.3-3.5,2.1-5.6,2.2c-3.1,0.3-7.5-1.8-9.8-3.7
					c-7.4-6.1-6.2-18.2-4.5-26.5c2.3-10.8,5.3-21.3,6.7-32.2c1.5-11.7,1.7-23.4,0.2-35c-0.2-2-1.2-3.5-2.4-4.6c0-0.1,0-0.2,0-0.3
					c-0.2-5.5-1.4-10.6-3.6-15.6c-3.9-9.4-10.3-17.2-18.3-23.4c-16.1-12.3-37-18.4-57-20.5c-11.2-1.2-23.5-0.2-34.6,1.8
					c-5.4,1-10.7,2.6-15.9,4.6c-5.6,2.2-10.5,4.1-16.6,3.9c-0.4,0-0.7,0-1.1,0c-5.5,4-11.7,7.1-17.2,11.1
					c-4.9,3.4-8.9,7.6-13.1,11.6c-2.2,3.4-5.1,9-9,10.4c-0.8,1.6-1.6,3.2-2.3,4.9c-9.3,21-13.4,43.9-11.5,66.7
					c-1.3,0.4-2.4,1.4-3.1,3c-0.2,0.5-0.4,1-0.6,1.5l0,0v0.1c-6.7,16.3-11.4,36.5-7.4,53.9c1.9,8.1,8.1,13.7,16.6,13.2
					c4.1-0.2,7.4-1.5,10.4-3.5c0.4,1.6,0.9,3.2,1.4,4.6c2.8,7.2,8.1,13.4,14.1,18.2c4.7,3.8,10,6.6,15.4,9.3
					c2.9,6.8,10.2,10.9,16.7,14.1c8.2,4,16.9,5.8,26.1,5.7c4.8-0.1,9.5-0.6,14.3-1.4c3.7,1.2,8,1.3,11.5,1.4
					c6.8,0.3,13.4-0.2,20.2-1c13.6-1.8,26.8-5.8,39.1-11.8c10.6-5.1,20.5-12,29.1-20.1c4.3-4.1,8.4-8.5,12-13.3
					c1.8-2.3,3.4-4.7,5-7.2c0.9-1.4,1.7-2.7,2.5-4.1c0.6-1.3,1-3.1,1.8-4.2C265.6,178.8,265.8,173.2,261.2,170.7z"/>
				<path class="st2" d="M287.1,141.4c-0.2-2.3,0.5-4.4-0.9-6.4c-1.8-2.6-4.4-3.5-7.4-3.8c-0.5-0.1-1,0-1.5,0.1
					c-6.7-2.1-14.2,4.3-13.5,11.9c0.9,9,10.5,14.2,18.5,9.8C286.3,150.7,287.5,145.9,287.1,141.4z"/>
			</g>
		</g>
		<path class="st3" d="M90.3,96.3c-0.2-2-0.6-3.9-1.2-5.7c2.2-11.6-11.3-21-22.5-16.3c-14.8,6.2-18.6,26.6-14.3,40.6
			c2.2,7.3,7.9,13.7,15.8,14.7c7.5,1,14.6-3.4,18.5-9.7C90.9,113,90.9,104.1,90.3,96.3z"/>
		<path class="st3" d="M165.5,92c-5.8-8.9-14.6-11.8-24.7-9.7c-6,1.3-11.4,5.6-13.4,11.2c-0.2,0.2-0.3,0.5-0.5,0.7
			c-9.6,15.5,4.3,44.2,23.9,41.7C170.3,133.4,174.7,106,165.5,92z"/>
		<g>
			<g>
				<path class="st4" d="M172,144.9c-0.6,7.3,0.5,14.9,1,22.2c0.6,7.4,0.6,14.8,1.2,22.2c0.3,4.5,0.3,9.6,4.2,12.7
					c4.4,3.6,9.8,1,13.7-2c8.6-6.6,15.4-15.4,19.2-25.7c3.7-9.6,6.5-22,3.8-32.2c-0.2-1-2-1.1-2.2,0c-1.5,9-2.2,17.8-6.2,26.3
					c-3.8,7.9-8.9,15.4-15,21.8c-2.2,2.2-9,10-11.2,4.6c-1-2.4-0.9-5.4-1.2-7.9c-0.3-2.6-0.8-5.1-1.3-7.8c-2-11.3-2.1-23.4-5.4-34.4
					C172.6,144.4,172,144.5,172,144.9L172,144.9z"/>
			</g>
		</g>
		<g>
			<g>
				<path class="st4" d="M38.5,116.3c-12.2,16.3-15,36.8-14.6,56.7c0.2,8.6,1.5,17.4,8.7,23c6.1,4.7,15.4,3.8,19-3.4
					c1.6-3.2-2.7-5.7-4.8-2.8c-5,6.9-13.8,2.2-16.9-3.8c-3.6-7.1-3-16.4-2.4-24.2c1.2-15.4,5.6-30.9,12.1-45
					C40,116.2,39,115.5,38.5,116.3L38.5,116.3z"/>
			</g>
		</g>
		<g>
			<g>
				<path class="st4" d="M239.5,169.5c0.1,0,0.1-0.2,0-0.2C239.4,169.4,239.4,169.5,239.5,169.5L239.5,169.5z"/>
			</g>
		</g>
		<g>
			<g>
				<path class="st4" d="M245.7,167.6c-2.7,0.6-6.5,0.1-8.7-1.7c-2.6-2.1-2.6-6.2-2.6-9.2c0-8.1,1.3-15.9,2.7-23.8
					c2.6-14.5,5.5-29,6.4-43.8c0.7-12.3-1.2-25.4-5.9-36.9c-4.6-11-13.1-20.6-23-27.2c-11.1-7.4-24.3-12-37.3-15.2
					c-13.7-3.3-27.9-5.3-41.9-4.5c-25.3,1.4-49,10.6-67.6,28c-8.6,8-16.5,16.6-21.9,27.2c-6.2,12.2-9.8,25.5-11.3,39
					c-2.6,25.2-0.3,52.7,8.2,76.6c8.5,23.8,23.4,44.8,45.6,57.6c23.5,13.6,53.2,15.1,79.5,11.7c25.1-3.4,51-11.9,71.4-27.4
					c9.4-7.2,17.8-14.8,23.4-25.4c3-5.7,6-12.5,4.5-19c-1.2-5.2-6.3-9-11.6-9.3c-4.9-0.2-14.5,7.2-18.2,1.8c-0.7-1-2.6-0.4-2.1,0.9
					c1.4,3.4,4.6,4.8,8.1,4.7c2.6,0,5-1.1,7.4-1.8c2.2-0.6,5-1.4,6.5,1c0.8,1.2,0.8,3.1,0.9,4.6c0.1,5.7-3.4,12-6.2,16.8
					c-2.7,4.6-5.9,9.4-9.4,13.4c-15.8,17.9-40.9,27.5-63.5,32.9c-26.7,6.4-54.3,5-79-7.6c-11.2-5.7-21.3-12.6-29.6-22
					c-7.7-8.7-13.4-19-17.4-29.8c-8.3-22.8-10.2-47-10-71c0.2-13.5,1.2-27.8,6.2-40.5c4.2-10.6,10.6-20.5,18.5-28.7
					c16.6-17.4,42.9-26.8,66.5-28.6c26.2-1.9,55.1,3.1,77.4,17.7c5.4,3.5,10.3,7.8,14.2,13c3.5,4.7,5.8,10.6,7.5,16.2
					c3.7,11.7,4.2,24,3.7,36.2c-0.6,14.2-3.6,28.3-5.1,42.5c-0.8,7.2-1.6,14.6-1.8,21.9c-0.1,4.4,0.6,9.4,4.6,11.9
					c3.5,2.2,8.4,2.4,12.2,1C248.5,170,247.8,167.2,245.7,167.6L245.7,167.6z"/>
			</g>
		</g>
		<g>
			<g>
				<path class="st4" d="M88.7,90.2c1.8-7.1-1.8-14.7-8.4-17.8c-7.3-3.5-17.2-0.5-23.2,4.3c-13.6,11-14.9,33.5-3.2,46.2
					c1.4,1.6,3.9-0.4,3-2.2c-6.2-11.2-7.6-25.3,0.2-36.2c4.2-5.8,10.5-10.1,17.8-8.7c7.3,1.4,13.4,6.5,13.2,14.4
					C88.1,90.4,88.7,90.5,88.7,90.2L88.7,90.2z"/>
			</g>
		</g>
		<g>
			<g>
				<path class="st4" d="M126.3,96.5c6.6-13.4,24.6-17.8,35.4-6.7c5.2,5.4,7.6,13,7,20.3c-0.6,7.6-4.6,13.5-7.9,20.2
					c-0.5,1,0.6,2.3,1.6,1.6c14.4-10.2,13.4-35.1,0.2-45.8c-12.2-9.9-34.2-7.8-36.5,10.4C126.1,96.6,126.3,96.6,126.3,96.5
					L126.3,96.5z"/>
			</g>
		</g>
		<g>
			<g>
				<path class="st4" d="M99.5,134c-1.1,5-1.2,10.3,0,15.4c0.9,3.6,1.4,7.7,5.6,8.5c9.6,1.8,13.4-15.4,12.2-22.1
					c-0.2-1.4-2.3-1.2-2.6,0c-1.2,3.8-3.8,18.9-10.3,16.7c-3-1-3.5-7.2-3.8-9.8c-0.3-3-0.3-5.8-0.7-8.7
					C99.7,133.9,99.5,133.9,99.5,134L99.5,134z"/>
			</g>
		</g>
		<ellipse class="st4" cx="75.5" cy="107.9" rx="9.2" ry="12.2"/>
		<ellipse class="st4" cx="148.5" cy="113.9" rx="9.2" ry="12.2"/>
		<g>
			<g>
				<path class="st4" d="M63.9,61.8c1.8-3,4.4-5.3,7.4-7c2.7-1.6,5.7-1.4,8.4-2.5c0.7-0.3,0.7-1.6,0-1.8c-3.1-1.4-7.5,0.5-10.2,2.2
					c-3.3,2.1-5.1,5.2-6.1,8.9C63.2,61.9,63.6,62.1,63.9,61.8L63.9,61.8z"/>
			</g>
		</g>
		<g>
			<g>
				<path class="st4" d="M161.9,62.1c3.8,0.5,7.9,2.5,10.2,5.4c1.1,1.4,2,3.1,2.4,4.9c0.4,1.6,0.1,2.4,1.3,3.5c0.3,0.3,1,0.4,1.3,0
					c2.6-2.8-0.9-8.6-2.8-10.9c-3.2-3.8-7.5-5.3-12.4-4.6C160.7,60.5,160.7,61.9,161.9,62.1L161.9,62.1z"/>
			</g>
		</g>
		<g>
			<g>
				<path class="st4" d="M269.1,131.4c-7,1.4-9.3,11.4-6.2,17.2c3.8,7.3,13.3,9.7,19.8,4.5c6-4.8,7.1-13.8,2.6-20.1
					c-5.4-7.4-15-5-20.5,0.8c-1.1,1.1,0.5,2.6,1.7,1.7c4.9-3.9,11.7-5.2,16.3-0.3c4.8,5,3.4,12.7-2.8,15.9c-5.4,2.8-13,0.2-15-5.8
					C263.3,140,266.3,135.5,269.1,131.4C269.3,131.4,269.2,131.3,269.1,131.4L269.1,131.4z"/>
			</g>
		</g>
		<path class="st5" d="M260.7,172.1c-1.3-4-6.7-5.9-9.8-2.6c-9,9.7-14.2,21-24.8,29.4c-37.8,30.2-93.4,29.4-134,5.4
			c-19.8-11.8-33.8-29.8-42.1-51.1c-1.7-4.2-3-8.7-4.6-13c-1.6-4-4.5-9.2-4.1-13.7c0,0.2,0,0.2,0,0.4c-0.7,17.5,0.6,35,3.6,52.3
			c-3.1,2.2-6.9,4.4-10.4,3c-4.7-1.8-4.9-8.4-7.6-12.6c-2.2,5.5-1.9,11.9,0.6,17.3c2.5,5.4,8.4,9.9,14.1,8.3
			c5.7-1.5,8.6-6.7,12.6-0.8c3.4,5,6.1,10.2,9.9,14.8c7.4,9.1,16.8,16.8,27.5,21.7c10.2,4.6,20.7,7.8,31.5,10.6
			c10.9,2.7,22.1,5.3,33.4,5c20.5-0.6,40-9.8,57.4-20.2c3.4-1.2,6.8-3,9.3-4.6c3-1.8,5.8-4.1,8.4-6.5c5.4-3.7,10.6-7.6,15.4-12.1
			C254.5,196,264,182.9,260.7,172.1z"/>
		<path class="st5" d="M207.2,198.3c2.2-2.8,4.1-6,5.5-9.1c2.2-5,3.4-10.4,3.9-15.8c0.6-5.4,1.3-10.9,0.7-16.4
			c-0.4-3.4-1.6-6.9-2.7-10.3c-0.4,1.1-0.9,2.3-1.3,3.4c0.2-1.7,0.6-3.4,0.8-5c-0.2-0.8-0.5-1.6-0.7-2.4c-1,3.3-2.1,6.6-3.5,9.7
			c-4.5,10.2-10.9,20.9-17.7,29.7c-2.3,3-5.4,6.2-9.5,4.9c-3.8-1.2-5-5.4-5.8-8.9c-1-4.2-1.8-8.5-2.5-12.8
			c0.2,6.2,0.3,12.6,0.9,18.8c0.6,6.1-0.2,12.2,3.9,17c1.8,2,3,4.5,4.8,6.5c2,2.5,4.4,2.3,7.4,1.6
			C197.7,207.5,203.1,203.5,207.2,198.3z"/>
		<path class="st5" d="M286.3,141c-1-4.2-2.2-7.5-6.3-8.7c1.4,2.5,2.2,5.8,1.8,7.9c0,0.2-0.1,0.2-0.1,0.4c-0.2,2.7-1.8,5.4-4.7,6.5
			c-0.4,0.2-0.8,0.2-1.2,0.3c-1.8,0.6-3.8,0.6-5.8-0.4c-0.4-0.2-0.7-0.5-1-0.7c-1.3-0.6-2.2-1.6-3.1-2.7c-1.1-1.5-2-3.4-1.8-5
			c-0.2,0-0.3,0.1-0.4,0.3c-1.8,3.7,0.3,9.5,3,12.4c3.6,3.9,10.2,4.2,14.7,2.2C286.2,151,287.6,146.3,286.3,141z"/>
		<path class="st5" d="M235.1,127.8c2.2-13.2,4.8-26.5,5.5-39.9c0.6-11.7,0-23.9-5.4-34.5c-2.4-4.6-5.6-9-8.9-13.1
			c-2.9-3.6-4.9-10.1-9.6-11c-0.6-0.2-3-0.5-2.8,0.1c2.6,5.4,6.2,10.2,9,15.4c2.3,4.2,3.5,8.7,4.4,13.4c2.9,15.7,2.2,31.4-0.5,47.1
			c-2.3,13.5-5.1,27.1-5.3,40.9c-0.2,8.8,2.7,25.2,14.8,23.7c2.1-0.2,2.7-2.6,1-3.8c-5.9-4.3-5.2-10.5-4.7-17
			C233.4,141.8,233.9,134.8,235.1,127.8z"/>
	</g>
</g>
</svg>
