<svg width="187" height="169" viewBox="0 0 187 169" fill="none" xmlns="http://www.w3.org/2000/svg">
<path d="M116.018 4.70004C59.992 -2.65216 28.2315 28.6367 19.3924 61.1676C23.4255 60.4962 27.593 60.4962 31.6596 60.6641C32.6343 60.6976 33.6426 60.7312 34.6508 60.7984C34.8525 60.4962 35.155 60.2276 35.6255 60.1269C40.1291 59.0526 44.7335 59.0526 49.3379 59.0862C53.6399 59.1198 57.8746 58.8848 62.1093 58.3476C66.3777 57.5755 70.6124 56.669 74.8135 55.6283C79.5187 53.9833 84.224 52.2376 89.0973 51.1297C92.9959 44.5832 97.6003 38.5067 102.339 32.3967C106.339 27.2267 110.641 22.2245 114.573 17.0209C116.757 14.1001 118.539 10.8101 120.69 7.85578C119.984 6.00934 118.169 4.70004 116.018 4.70004Z" fill="#00C1FF"/>
<path d="M106.91 93.8658H30.248C25.0722 93.8658 20.8711 90.1729 20.8711 85.6072V70.1642C20.8711 66.2027 18.7201 62.0063 19.6948 58.1791C21.308 51.9683 26.3494 46.7647 29.3742 41.9975C30.853 39.6811 32.4998 37.4989 34.2811 35.5182C61.3362 5.27009 111.414 21.9217 115.951 62.2413C115.984 62.577 116.018 62.9463 116.052 63.282C116.186 64.6584 116.22 66.0013 116.22 67.3778V85.6072C116.253 90.1729 112.086 93.8658 106.91 93.8658Z" fill="url(#paint0_linear_1_870)"/>
<path d="M102.305 106.356H35.6254C27.6937 106.356 21.2744 99.9441 21.2744 92.0212V83.7961C21.2744 57.4759 42.6161 36.1578 68.9655 36.1578C95.3148 36.1578 116.657 57.4759 116.657 83.7961V91.9876C116.657 99.9105 110.237 106.356 102.305 106.356Z" fill="url(#paint1_linear_1_870)"/>
<path d="M114.203 10.9792C115.144 10.9792 116.051 11.2478 116.824 11.7178C117.732 10.2742 118.639 8.83063 119.648 7.48776C118.908 5.64132 117.06 4.33202 114.942 4.33202C58.8827 -3.02018 27.1222 28.2351 18.2831 60.7661C18.7872 60.6989 19.2913 60.5982 19.7955 60.5646C31.0209 30.6522 62.1427 4.16417 114.203 10.9792Z" fill="#F2F8FF"/>
<path d="M105.565 32.8008L95.4828 49.0159L16.2665 62.0753L21.9801 116.629L37.1377 139.693L55.0848 154.129L77.0315 164.301L101.196 165.241L131.343 158.628L160.113 136.504L174.565 105.651L177.388 77.4512L154.735 86.7841L140.586 83.7291L127.714 71.2404L124.05 56.7038L128.285 41.9659L117.53 43.7452L105.565 32.8008Z" fill="white"/>
<path d="M126 153.255C122.773 149.025 119.849 144.325 117.799 139.323C107.414 144.426 95.718 147.313 83.3499 147.313C69.9736 147.313 57.3702 143.956 46.3465 138.014C47.4892 141.337 49.3377 144.392 51.5895 147.212C52.0264 147.011 52.4969 147.011 52.9338 147.212C53.5388 146.608 54.5471 146.373 55.3537 147.045C61.4369 152.047 68.6292 155.337 75.3174 159.399C75.7543 159.668 75.9895 160.037 76.0904 160.406C76.2248 160.44 76.3256 160.473 76.4601 160.473C77.065 160.608 77.4347 160.943 77.5692 161.38C77.8044 161.447 78.0397 161.48 78.275 161.548C88.5257 163.898 99.4822 167.12 110.035 164.77C110.069 164.77 110.069 164.77 110.103 164.77C110.54 164.67 111.01 164.535 111.447 164.435C111.548 163.696 112.086 163.025 113.06 163.025C113.632 163.025 114.068 163.26 114.337 163.629C119.614 162.051 124.756 160.037 129.932 158.023C128.487 156.445 127.21 154.867 126 153.255Z" fill="#5E92AD"/>
<path d="M126.739 88.866L95.0121 122.706L96.827 132.174L107.111 137.31H118.236L119.513 148.557L128.823 157.017L135.41 156.009L155.239 140.063L170.531 117.066L177.287 88.0938L175.808 76.7802L164.078 84.4345L148.988 85.5424C148.988 85.5424 140.216 84.5688 140.048 84.4345C139.88 84.3338 126.739 88.866 126.739 88.866Z" fill="#FD2835"/>
<path d="M128.857 158.425C126.403 157.015 123.446 155.806 121.563 153.657C121.328 153.389 121.194 153.12 121.16 152.852C120.992 152.919 120.824 152.986 120.69 153.053C98.6422 161.211 78.6113 158.895 66.2768 155.84C66.4784 155.94 66.6801 156.041 66.9154 156.142C68.0245 156.679 69.0999 157.25 70.209 157.82C73.738 158.76 77.1997 159.767 80.1909 161.849C83.2829 162.554 86.4085 163.225 89.5341 163.796C94.7771 164.77 100.188 165.441 105.498 164.803C111.111 164.132 116.556 162.587 121.967 161.077C122.639 160.875 123.21 161.11 123.58 161.513C125.832 160.808 128.05 160.036 130.201 159.197C129.697 158.928 129.26 158.66 128.857 158.425Z" fill="#95B1BF"/>
<path d="M43.6915 135.294C47.1532 139.725 51.1863 143.754 55.6563 147.279C60.1263 150.804 64.966 153.859 70.1081 156.377C75.2503 158.895 80.6613 160.909 86.2068 162.42C91.7523 163.897 97.4658 164.904 103.213 165.341C97.4322 165.173 91.6515 164.468 86.0052 163.226C80.3252 161.983 74.7462 160.238 69.4023 157.888C64.0585 155.571 58.9164 152.684 54.1439 149.293C49.3714 145.869 44.9687 141.908 41.1036 137.409L43.6915 135.294Z" fill="white"/>
<path d="M170.531 117.066L177.287 88.0938L175.808 76.7802L164.078 84.4345L159.978 84.7366C155.172 108.505 139.544 128.38 118.438 138.989L119.513 148.557L128.823 157.017L135.41 156.009L155.239 140.063L170.531 117.066Z" fill="#AF1A55"/>
<path d="M177.119 78.8596C176.85 77.7517 176.581 76.6102 176.279 75.5024L163.104 82.9217L158.163 83.2239C157.962 88.2932 156.752 101.722 147.039 114.748C136.351 129.116 122.101 133.917 117.429 135.294C118.102 137.677 118.102 140.195 118.875 142.545C119.748 145.197 121.026 147.749 122.168 150.267C122.605 151.207 123.076 152.18 123.58 153.12C125.764 154.262 127.915 155.437 129.966 156.746C129.999 156.746 130.033 156.746 130.033 156.746L142.233 149.763C149.459 144.727 155.139 137.543 160.516 130.56C167.372 121.63 172.38 111.458 175.304 100.614L178.261 89.6025C178.026 86.0439 177.724 82.4182 177.119 78.8596Z" fill="#AF1A55"/>
<path d="M164.919 107.396C163.003 111.726 157.424 122.704 144.854 130.426C129.058 140.128 113.195 137.98 109.027 137.275C115.917 136.536 126.537 134.555 138.166 128.647C151.576 121.899 160.214 113.002 164.919 107.396Z" fill="#C3396A"/>
<path d="M173.657 101.958C171.439 107.263 158.163 137.376 124.252 151.611C126.067 153.457 128.924 154.599 131.108 155.841C132.083 156.412 133.057 156.982 134.066 157.553C134.839 157.217 135.645 156.848 136.418 156.512C136.452 156.479 136.486 156.412 136.519 156.378C139.443 153.793 142.703 151.577 146.064 149.597C147.106 148.556 148.114 147.515 149.055 146.542C152.752 142.748 156.113 138.484 160.348 135.228C164.986 128.849 169.12 122.101 173.422 115.488C173.892 113.003 174.161 110.452 174.161 107.901C174.161 105.92 173.993 103.905 173.657 101.958Z" fill="#C3396A"/>
<path d="M103.616 111.659C102.036 113.64 100.154 115.285 98.3731 117.031C97.096 118.307 95.9869 119.717 95.0794 121.261L115.144 108.101C113.396 106.624 111.682 105.113 110.069 103.501C109.262 104.24 108.422 104.979 107.548 105.65C106.607 107.866 104.994 109.914 103.616 111.659Z" fill="#FF884A"/>
<path d="M131.68 81.6138C128.352 87.086 124.017 91.8867 119.177 96.0496C118.673 96.8218 118.135 97.5939 117.631 98.3661C119.345 100.246 121.16 102.059 123.009 103.838L149.022 85.5417L131.68 81.6138Z" fill="#FF884A"/>
<path d="M128.823 39.5814C112.791 44.7178 94.9114 49.5522 75.2502 53.5808C49.573 58.818 25.9123 61.5708 5.04119 62.9137C4.10014 67.3116 3.46157 72.3809 3.15909 78.0881C2.68856 86.8503 3.15909 97.929 6.9569 107.296L38.6501 106.725C38.6501 106.725 37.7427 89.8718 53.6733 90.0732C53.6733 90.0732 64.3945 88.4282 68.999 103.502C68.999 103.502 125.697 92.7925 136.923 86.7832C138.132 86.1117 139.376 85.4403 140.586 84.7689C138.301 83.3253 129.529 77.4502 126 65.6666C122.067 52.4393 127.714 41.6292 128.823 39.5814Z" fill="url(#paint2_linear_1_870)"/>
<path d="M56.7318 90.2077C59.7902 81.4454 63.4872 72.8846 67.1169 64.3239C62.8822 65.0289 58.6811 65.7003 54.5472 66.3046C50.4133 76.1411 45.8425 85.8098 41.6414 95.6127C43.7923 92.4905 47.4221 89.9727 53.6733 90.0398C53.6733 90.0734 54.9169 89.8719 56.7318 90.2077Z" fill="url(#paint3_linear_1_870)"/>
<path d="M137.797 82.8225C134.2 80.0025 128.621 74.4967 126 65.7009C124.42 60.4301 124.387 55.5287 124.958 51.4329C111.044 55.2937 95.9199 58.953 79.6868 62.0752C78.0399 62.3773 76.4267 62.6795 74.8135 62.9816C74.2421 64.1902 73.7716 65.4323 73.3011 66.6745C72.4609 68.7895 71.6206 70.9045 70.7804 73.0195C69.1672 77.1489 67.5876 81.3118 65.9071 85.4411C64.8652 88.0261 63.7898 90.5776 62.6807 93.129C65.0333 95.1097 67.3859 98.3326 68.9655 103.57C68.9655 103.57 125.664 92.8604 136.889 86.8511C137.797 86.3475 138.738 85.8439 139.645 85.3404C139.007 84.5011 138.402 83.6954 137.797 82.8225Z" fill="url(#paint4_linear_1_870)"/>
<path d="M39.1543 101.655C38.4821 103.333 37.8099 105.045 37.1714 106.757L38.6501 106.724C38.6501 106.724 38.5157 104.475 39.1543 101.655Z" fill="#6F4599"/>
<path d="M153.693 86.8168C169.953 86.8168 183.135 73.65 183.135 57.408C183.135 41.1659 169.953 27.9991 153.693 27.9991C137.433 27.9991 124.252 41.1659 124.252 57.408C124.252 73.65 137.433 86.8168 153.693 86.8168Z" fill="#243C54"/>
<path d="M158.264 78.155C169.568 78.155 178.732 68.5504 178.732 56.7026C178.732 44.8548 169.568 35.2503 158.264 35.2503C146.96 35.2503 137.797 44.8548 137.797 56.7026C137.797 68.5504 146.96 78.155 158.264 78.155Z" fill="#5E7083"/>
<path d="M158.264 78.3573C146.871 78.3573 137.629 68.6551 137.629 56.7371C137.629 44.8192 146.905 35.1169 158.264 35.1169C169.624 35.1169 178.9 44.8192 178.9 56.7371C178.9 68.6551 169.658 78.3573 158.264 78.3573ZM158.264 35.4191C147.073 35.4191 137.965 44.9535 137.965 56.7036C137.965 68.4537 147.073 77.988 158.264 77.988C169.456 77.988 178.564 68.4537 178.564 56.7036C178.564 44.9535 169.49 35.4191 158.264 35.4191Z" fill="white"/>
<path d="M120.824 7.21875C117.732 9.33377 115.278 12.4559 112.858 15.2424C109.666 18.9689 106.103 22.326 102.574 25.7503C101.129 27.1603 99.6502 28.5704 98.205 29.9468C106.674 34.6133 112.321 40.3876 115.245 43.7112C119.782 42.3348 124.319 40.9583 128.823 39.5819C130.906 37.3662 134.536 34.009 139.981 31.4575C145.56 28.8389 150.601 28.1675 153.66 27.9996C151.408 25.5825 139.779 13.6645 120.824 7.21875Z" fill="#FD2835"/>
<path d="M115.514 12.2209C129.663 17.0217 139.712 24.8775 144.888 29.5775C148.484 28.4696 151.576 28.1339 153.693 27.9996C151.408 25.5825 139.746 13.6645 120.824 7.21875C118.774 8.62876 117.026 10.4416 115.346 12.3552C115.413 12.3217 115.48 12.2881 115.514 12.2209Z" fill="#FF884A"/>
<path d="M167.171 74.8647C157.962 75.939 149.089 71.2053 145.022 63.1481C140.653 54.4866 142.703 43.6766 150.165 37.0294C147.98 38.3051 142.838 41.7294 140.082 48.2423C137.158 55.1245 136.788 65.8003 143.947 72.4475C148.988 77.0804 156.181 78.3225 161.928 76.9797C164.213 76.409 165.961 75.5361 167.171 74.8647Z" fill="#7395B7"/>
<path d="M156.819 86.6481C144.384 84.7009 134.2 75.9387 130.907 64.2893C127.109 50.8606 133.125 36.0219 145.795 28.5018C131.075 32.6647 121.832 47.4027 124.487 62.275C127.176 77.4158 141.325 88.1588 156.819 86.6481Z" fill="#38638C"/>
<path d="M165.221 50.4257C165.289 49.6871 166.23 49.385 166.7 49.9893L174.161 58.9865C174.968 59.9601 174.498 61.4708 173.288 61.8066L165.894 63.7537C164.919 64.0223 163.944 63.2166 164.045 62.1758L165.221 50.4257Z" fill="#293039"/>
<path d="M162.432 62.9809C162.331 63.9881 161.625 64.8274 160.651 65.0959L153.425 66.976C152.248 67.2781 151.173 66.2374 151.374 65.0288L155.239 40.555C155.475 39.1114 157.222 38.5743 158.163 39.7157L163.306 46.3294C163.675 46.7994 163.843 47.4036 163.81 48.0079L162.432 62.9809Z" fill="#293039"/>
<path d="M67.4529 105.785L67.0496 103.972C65.4364 96.9554 60.0254 92.0875 53.8077 92.0875C53.7741 92.0875 53.7405 92.0875 53.7069 92.0875C47.6573 92.1547 42.3471 95.7804 40.8011 100.95L36.9361 99.809C38.9526 92.9604 45.8424 88.1596 53.6733 88.0925C61.2689 88.0253 67.9571 93.3633 70.4778 101.286C74.0739 100.715 77.6701 100.111 81.1654 99.4733C101.633 95.6461 121.933 89.9725 141.426 82.5867L142.871 86.3468C123.143 93.7997 102.641 99.5404 81.9384 103.401C77.8045 104.173 73.5698 104.878 69.335 105.516L67.4529 105.785Z" fill="black"/>
<path d="M20.6357 61.9402L16.7706 60.7652C21.7784 43.9793 32.2307 28.9056 46.2793 18.297C60.7983 7.31901 78.1069 1.51111 96.3566 1.51111C118.875 1.51111 139.947 10.374 155.71 26.4549L152.82 29.2749C137.83 13.9662 117.765 5.53971 96.3566 5.53971C78.9807 5.53971 62.5124 11.079 48.6991 21.5198C35.3564 31.6249 25.3745 45.9601 20.6357 61.9402Z" fill="black"/>
<path d="M96.3568 167.389C78.0735 167.389 60.7313 161.581 46.2123 150.57C32.1637 139.927 21.6778 124.786 16.7036 107.967L20.5687 106.826C25.3075 122.839 35.2558 137.208 48.6321 147.347C62.4454 157.821 78.9474 163.36 96.3568 163.36C117.463 163.36 137.292 155.135 152.215 140.263C167.137 125.391 175.338 105.55 175.338 84.4668C175.338 81.5125 175.17 78.5582 174.834 75.6375L178.833 75.201C179.169 78.2561 179.337 81.3782 179.337 84.4668C179.337 106.624 170.7 127.439 155.004 143.117C139.376 158.761 118.539 167.389 96.3568 167.389Z" fill="black"/>
<path d="M153.693 88.8305C136.351 88.8305 122.235 74.7304 122.235 57.4074C122.235 40.0844 136.351 25.9843 153.693 25.9843C171.036 25.9843 185.151 40.0844 185.151 57.4074C185.151 74.7304 171.036 88.8305 153.693 88.8305ZM153.693 30.0129C138.569 30.0129 126.268 42.3001 126.268 57.4074C126.268 72.5146 138.569 84.8019 153.693 84.8019C168.817 84.8019 181.118 72.5146 181.118 57.4074C181.118 42.3001 168.817 30.0129 153.693 30.0129Z" fill="black"/>
<path d="M158.264 80.2033C145.829 80.2033 135.713 69.6618 135.713 56.7367C135.713 43.8116 145.829 33.2365 158.264 33.2365C170.7 33.2365 180.816 43.778 180.816 56.7031C180.816 69.6282 170.7 80.2033 158.264 80.2033ZM158.264 37.2651C148.047 37.2651 139.746 45.9938 139.746 56.7031C139.746 67.4125 148.047 76.1412 158.264 76.1412C168.481 76.1412 176.783 67.4125 176.783 56.7031C176.783 45.9938 168.481 37.2651 158.264 37.2651Z" fill="black"/>
<path d="M49.1697 97.1895C49.5058 97.1223 49.8419 97.1559 50.1108 97.3238C51.556 98.163 55.2529 100.681 56.1268 105.146C56.5973 107.664 56.1604 110.652 54.6816 112.733C49.6066 119.817 30.8865 118.91 20.1316 109.242C16.9724 106.422 14.9895 103.232 13.7459 100.681C13.2754 99.7409 14.082 98.7002 15.0903 98.8345C19.3586 99.4388 24.2991 99.8081 29.8446 99.7073C37.4402 99.5395 43.9604 98.4316 49.1697 97.1895Z" fill="#FD2835"/>
<path d="M56.1942 106.322C55.4548 101.824 55.0179 101.051 54.2449 102.059C49.338 108.538 24.7699 107.665 14.0822 99.4064C13.8134 99.7757 13.7461 100.246 13.9478 100.716C15.1241 103.301 17.0398 106.524 20.0982 109.444C30.5842 119.415 49.2708 120.825 54.5474 113.909C56.0934 111.828 56.6311 108.84 56.1942 106.322Z" fill="#AF1A55"/>
<path d="M56.2276 105.885C55.8243 103.3 54.4799 101.352 53.102 99.976C53.2028 102.192 56.8998 104.81 55.589 106.523C50.2788 113.405 27.2567 111.693 16.838 101.688C15.8297 100.715 14.9223 99.7075 14.1492 98.6667C13.8468 99.036 13.7459 99.5396 13.9476 100.01C15.1239 102.595 16.9724 105.818 20.0308 108.772C30.4496 118.81 49.1361 120.32 54.4463 113.438C56.0932 111.39 56.6309 108.403 56.2276 105.885Z" fill="#C3396A"/>
<path d="M30.2815 102.427C30.6512 102.561 31.0209 102.696 31.3906 102.83C33.6424 103.669 36.0959 103.904 38.4821 103.636C38.6838 103.602 38.8854 103.602 39.1207 103.568C38.6838 101.957 38.0452 100.178 36.6336 99.372C36.6 99.372 36.5664 99.3384 36.5664 99.3049C34.4154 99.5063 32.1972 99.6742 29.8446 99.7077C28.2986 99.7413 26.7862 99.7413 25.341 99.7077C26.9206 100.681 28.5002 101.722 30.2815 102.427Z" fill="#FF884A"/>
<path d="M50.1108 97.3238C49.8084 97.1559 49.4723 97.1223 49.1698 97.1895C46.6491 97.7938 41.2717 98.868 38.1461 99.3381C40.0618 100.412 41.2717 101.655 41.6414 103.098C42.616 102.93 43.7251 102.762 44.8006 102.595C47.6238 102.125 50.3797 101.252 52.9676 100.043L53.1356 99.9759L50.1108 97.3238Z" fill="#FF884A"/>
<path d="M117.866 139.289C115.346 139.289 112.691 139.122 109.968 138.719C103.919 137.846 99.3143 135.664 96.2895 132.206C95.4493 131.266 92.9622 128.412 92.9959 124.518C92.9622 123.88 92.9622 121.362 94.7771 119.046C105.465 105.248 123.748 89.2676 124.521 88.5961C125.361 87.8576 126.638 87.9583 127.378 88.7976C128.117 89.6369 128.016 90.9126 127.176 91.6512C126.974 91.819 108.422 108.034 97.97 121.53C96.9617 122.806 97.0289 124.316 97.0289 124.316C97.0289 124.384 97.0289 124.451 97.0289 124.518C96.9953 126.868 98.6758 128.815 99.3143 129.554C101.667 132.273 105.465 133.985 110.54 134.724C123.58 136.57 134.301 133.112 140.989 129.889C148.316 126.364 152.551 122.302 152.618 122.269L152.652 122.235C161.02 114.715 161.894 106.255 161.894 106.188C161.995 105.08 162.97 104.274 164.079 104.375C165.188 104.476 165.994 105.449 165.927 106.557C165.894 106.96 164.986 116.595 155.408 125.256C154.971 125.659 150.534 129.822 142.939 133.515C137.091 136.302 128.42 139.289 117.866 139.289Z" fill="black"/>
<path d="M130.907 159.264C128.554 158.76 126.269 157.719 124.286 156.242C119.009 152.281 115.816 145.399 115.547 137.375L119.58 137.241C119.782 143.955 122.471 149.864 126.706 153.019C128.218 154.127 129.966 154.933 131.747 155.336L130.907 159.264Z" fill="black"/>
<path d="M115.413 45.9267C114.808 45.9267 114.203 45.6581 113.8 45.1546C111.01 41.5288 107.75 38.3059 104.053 35.4859C103.179 34.8145 103.011 33.5388 103.683 32.6659C104.356 31.793 105.633 31.6252 106.507 32.2966C110.472 35.3181 114.001 38.8095 116.993 42.7038C117.665 43.5767 117.497 44.8524 116.623 45.5239C116.253 45.7924 115.816 45.9267 115.413 45.9267Z" fill="black"/>
<path d="M42.2127 119.414C34.886 119.414 25.5763 116.896 18.7873 110.786C15.9642 108.268 13.6788 105.18 11.9311 101.621C11.3933 100.513 11.4942 99.2374 12.2336 98.2302C12.9394 97.2231 14.1493 96.7195 15.3928 96.8873C20.1653 97.5588 25.005 97.8273 29.811 97.7266C36.1631 97.5923 42.5488 96.7531 48.7328 95.2423C49.5731 95.0409 50.4469 95.1752 51.1863 95.6116C52.934 96.6188 57.1687 99.5731 58.177 104.81C58.8155 108.033 58.1097 111.558 56.3957 113.975C54.3455 116.863 50.4133 118.743 45.372 119.28C44.2965 119.347 43.2882 119.414 42.2127 119.414ZM16.1658 101.05C17.5774 103.635 19.3587 105.885 21.476 107.765C28.3322 113.942 38.1796 115.956 44.8678 115.217C48.7665 114.781 51.6568 113.505 53.0684 111.558C54.1439 110.047 54.6144 107.664 54.1775 105.515C53.5389 102.125 50.783 100.043 49.3714 99.2038C42.9857 100.748 36.432 101.587 29.8782 101.755C25.3074 101.856 20.703 101.621 16.1658 101.05Z" fill="black"/>
<path d="M147.577 127.943L135.208 115.588L130.133 120.322L112.892 103.099L115.749 100.246L130.234 114.715L135.309 110.015L150.433 125.089L147.577 127.943Z" fill="black"/>
<path d="M111.278 111.744L106.596 116.42L109.448 119.269L114.13 114.592L111.278 111.744Z" fill="black"/>
<path d="M115.231 115.654L110.549 120.331L113.401 123.18L118.083 118.503L115.231 115.654Z" fill="black"/>
<path d="M119.161 119.571L114.479 124.247L117.331 127.096L122.013 122.419L119.161 119.571Z" fill="black"/>
<path d="M125.428 132.643C123.681 132.643 122.235 131.2 122.235 129.454C122.235 127.708 123.681 126.265 125.428 126.265C127.176 126.265 128.621 127.708 128.621 129.454C128.621 131.2 127.176 132.643 125.428 132.643Z" fill="#00FF00"/>
<path d="M125.428 127.607C126.437 127.607 127.277 128.447 127.277 129.454C127.277 130.461 126.437 131.3 125.428 131.3C124.42 131.3 123.58 130.461 123.58 129.454C123.58 128.413 124.42 127.607 125.428 127.607ZM125.428 124.922C122.941 124.922 120.891 126.969 120.891 129.454C120.891 131.938 122.941 133.986 125.428 133.986C127.915 133.986 129.965 131.938 129.965 129.454C129.965 126.969 127.915 124.922 125.428 124.922Z" fill="black"/>
<path d="M41.114 23.0078L36.2394 41.4797L40.1394 42.5066L45.014 24.0347L41.114 23.0078Z" fill="black"/>
<path d="M38.2469 53.3801C37.4739 53.3801 36.6673 53.2794 35.9279 53.0444C33.9786 52.4401 32.4662 51.1308 31.6932 49.3851C30.9202 47.6058 30.9874 45.625 31.8612 43.7786C32.7015 42.0329 34.1802 40.6228 36.0623 39.8171C37.9444 39.0114 39.961 38.8435 41.8095 39.4143C43.7588 40.0186 45.2712 41.3278 46.0442 43.0736C47.5902 46.6322 45.6409 50.9294 41.675 52.6415C40.5659 53.1451 39.3896 53.3801 38.2469 53.3801ZM39.4904 43.1071C38.8855 43.1071 38.2469 43.2414 37.6756 43.51C36.7009 43.9464 35.9279 44.6514 35.491 45.5243C35.1213 46.2965 35.0877 47.1022 35.3902 47.7736C35.6926 48.445 36.2976 48.9486 37.1042 49.2172C38.0453 49.4858 39.0871 49.4186 40.0618 48.9822C41.9775 48.1429 43.0194 46.2293 42.3472 44.7186C42.0447 44.0472 41.4398 43.5436 40.6332 43.275C40.2635 43.1407 39.8938 43.1071 39.4904 43.1071Z" fill="black"/>
<path d="M95.2139 49.5849C102.473 34.6455 113.363 21.754 126.907 12.2868C128.957 10.8768 128.621 7.7546 126.336 6.81459C125.361 6.41173 124.286 6.51245 123.412 7.11674C107.246 17.759 94.6761 33.1684 87.215 51.1628" fill="#5E7083"/>
<path d="M89.0635 51.9689L85.3329 50.4246C93.0294 31.8259 105.834 16.2822 122.269 5.47206C123.714 4.53205 125.496 4.36419 127.075 5.00206C128.823 5.70706 130.033 7.3185 130.234 9.19852C130.436 11.0785 129.596 12.925 128.05 13.9993C114.875 23.1644 104.154 35.7873 96.9952 50.5253L93.3654 48.7796C100.827 33.4373 112.018 20.2772 125.731 10.7092C126.235 10.3735 126.235 9.86995 126.201 9.66852C126.168 9.46709 126.067 8.99709 125.529 8.76209C125.193 8.6278 124.79 8.66137 124.487 8.8628C108.725 19.2029 96.4575 34.1087 89.0635 51.9689Z" fill="black"/>
<path d="M17.6782 109.41C14.3173 109.41 9.71291 109.343 6.92337 109.276L5.5118 109.242L5.07488 107.899C2.72226 100.614 1.34429 93.0607 1.0082 85.44C0.672115 77.7185 1.3779 69.997 3.15917 62.4433L3.49526 60.9998L4.97406 60.899C27.9289 59.4219 50.9847 56.434 73.5026 52.0025C92.4245 48.2761 111.313 43.4753 129.697 37.701L130.907 41.5282C112.388 47.3361 93.3319 52.204 74.2756 55.9304C52.0601 60.2947 29.3405 63.2826 6.72172 64.7934C5.27654 71.5077 4.70518 78.3899 5.00767 85.2385C5.31015 92.02 6.45285 98.7679 8.46938 105.281C11.2253 105.348 14.8887 105.348 17.7118 105.382L17.6782 109.41Z" fill="black"/>
<path d="M62.311 25.2798C61.6052 25.2798 60.9666 24.9777 60.4961 24.4405C59.9247 23.7355 59.7903 22.7955 60.16 21.9562L66.6801 7.58754C67.1506 6.58039 68.327 6.11039 69.3352 6.58039C70.3435 7.0504 70.814 8.22541 70.3435 9.23256L65.2013 20.5462C67.7892 20.0091 70.4107 19.6062 72.9986 19.3712C76.9981 18.9684 81.0647 18.9012 85.0978 19.1362C86.2069 19.2034 87.0471 20.1434 86.9799 21.2848C86.9127 22.4262 85.9717 23.232 84.8289 23.1648C81.0311 22.9298 77.1661 22.997 73.3683 23.3662C69.8394 23.702 66.2768 24.3398 62.8487 25.2127C62.6807 25.2463 62.5126 25.2798 62.311 25.2798Z" fill="black"/>
<path d="M94.8081 26.0456C96.7075 23.5751 96.3259 20.0985 93.9558 18.2802C91.5856 16.462 88.1245 16.9907 86.2251 19.4611C84.3257 21.9316 84.7073 25.4082 87.0774 27.2265C89.4476 29.0447 92.9087 28.516 94.8081 26.0456Z" fill="#00C1FF"/>
<path d="M90.2398 30.3148C88.6266 30.3148 87.1142 29.8112 85.8371 28.804C84.2574 27.5955 83.2492 25.8162 83.0475 23.7683C82.8459 21.7876 83.3836 19.8068 84.6271 18.1954C87.215 14.8382 91.9539 14.1332 95.1803 16.6175C96.76 17.8261 97.7682 19.6054 97.9699 21.6533C98.1715 23.634 97.6338 25.6147 96.3902 27.2262C95.1467 28.8376 93.3655 29.8783 91.4161 30.2141C91.0128 30.2812 90.6095 30.3148 90.2398 30.3148ZM90.744 19.2025C89.6685 19.2025 88.5594 19.7061 87.82 20.6797C87.215 21.4518 86.9462 22.4254 87.047 23.3654C87.1478 24.2719 87.5847 25.0776 88.2905 25.6147C88.9963 26.1519 89.8701 26.3869 90.7776 26.219C91.7186 26.0847 92.5924 25.5476 93.1974 24.7754C93.8024 24.0033 94.0712 23.0297 93.9704 22.0897C93.8696 21.1833 93.4327 20.3775 92.7269 19.8404C92.1555 19.404 91.4497 19.2025 90.744 19.2025Z" fill="black"/>
<path d="M35.3228 117.4C34.7179 117.4 34.1129 117.132 33.7432 116.628C33.071 115.755 33.2055 114.479 34.1129 113.808C34.4826 113.506 37.7091 110.887 37.3058 107.094C36.9697 104.072 34.5498 102.159 33.844 101.655C32.9366 101.017 32.735 99.7415 33.3735 98.835C34.0121 97.9286 35.2892 97.7272 36.1967 98.365C37.5746 99.3386 40.8683 102.125 41.3388 106.657C41.9774 112.499 37.5074 116.292 36.6336 116.997C36.1967 117.266 35.7598 117.4 35.3228 117.4Z" fill="black"/>
<defs>
<linearGradient id="paint0_linear_1_870" x1="19.4494" y1="56.9312" x2="116.268" y2="56.9312" gradientUnits="userSpaceOnUse">
<stop stop-color="#41509C"/>
<stop offset="0.3879" stop-color="#2D6DC8"/>
<stop offset="0.7906" stop-color="#1B87F0"/>
<stop offset="1" stop-color="#1491FF"/>
</linearGradient>
<linearGradient id="paint1_linear_1_870" x1="21.2594" y1="71.234" x2="116.652" y2="71.234" gradientUnits="userSpaceOnUse">
<stop stop-color="#41509C"/>
<stop offset="0.349" stop-color="#5452C1"/>
<stop offset="0.7773" stop-color="#6855E9"/>
<stop offset="1" stop-color="#7056F8"/>
</linearGradient>
<linearGradient id="paint2_linear_1_870" x1="68.0452" y1="49.7342" x2="73.4272" y2="102.48" gradientUnits="userSpaceOnUse">
<stop offset="0.3118" stop-color="#00D7FF"/>
<stop offset="0.5638" stop-color="#02CEFA"/>
<stop offset="0.9738" stop-color="#07B6EC"/>
<stop offset="1" stop-color="#07B4EB"/>
</linearGradient>
<linearGradient id="paint3_linear_1_870" x1="53.2055" y1="30.3829" x2="54.7162" y2="94.2815" gradientUnits="userSpaceOnUse">
<stop offset="0.436" stop-color="#5250EC"/>
<stop offset="0.6038" stop-color="#5C4DCF"/>
<stop offset="0.8645" stop-color="#6A48A7"/>
<stop offset="1" stop-color="#6F4698"/>
</linearGradient>
<linearGradient id="paint4_linear_1_870" x1="99.7616" y1="29.2828" x2="101.272" y2="93.1815" gradientUnits="userSpaceOnUse">
<stop offset="0.436" stop-color="#5250EC"/>
<stop offset="0.6038" stop-color="#5C4DCF"/>
<stop offset="0.8645" stop-color="#6A48A7"/>
<stop offset="1" stop-color="#6F4698"/>
</linearGradient>
</defs>
</svg>
