<?xml version="1.0" encoding="utf-8"?>
<!-- Generator: Adobe Illustrator 25.2.1, SVG Export Plug-In . SVG Version: 6.00 Build 0)  -->
<svg version="1.1" id="Layer_1" xmlns="http://www.w3.org/2000/svg" xmlns:xlink="http://www.w3.org/1999/xlink" x="0px" y="0px"
	 viewBox="0 0 1203.5 491.2" style="enable-background:new 0 0 1203.5 491.2;" xml:space="preserve">
<style type="text/css">
	.st0{fill:#F24E4D;}
	.st1{fill:#E9EAEA;}
	.st2{fill:none;stroke:#000000;stroke-width:6;stroke-linecap:round;stroke-miterlimit:10;}
	.st3{fill:#D33737;}
	.st4{fill:#F96B6B;}
	.st5{fill:#0A3142;}
	.st6{fill:#D1D1D1;}
	.st7{fill:#FFFFFF;}
</style>
<g>
	<path class="st0" d="M395.5,334.9c0,0,60.5,76.6,121,46.2c0,0-21.4,3.8-40-83.3L442.2,84.7c0,0-10.8-54-72.8-64.9
		c0,0-144.5-47.6-257.7,22.1c0,0-19.1,2-34.5,66L44.7,312c0,0-12.6,60.1-35.7,69.1c0,0,53.7,36.2,111.1-41.6l2.4-15.3
		c0,0-16.5-101.5-8.6-125.6l292-1.9C405.8,196.8,416.1,231.6,395.5,334.9z"/>
	<path class="st1" d="M114.6,201h293.1c0,0,30.6,192.7-147.2,288.1C260.6,489.2,101.2,433.3,114.6,201z"/>
	<path class="st2" d="M275.3,19.9"/>
	<path class="st0" d="M134.9,336.4c0,0,88.9,48.4,249.8,10.1c0,0-23.6,91.8-124.5,141.8C260.3,488.3,157.4,442.8,134.9,336.4z"/>
	<path class="st3" d="M427,66.6c0,0-36.8-6.3-32.5,42.1l-9.3-0.7c0,0-4.8-40.9,20.9-48C406.2,60,418.6,58,427,66.6z"/>
	<path class="st3" d="M96.8,64.5c0,0,38.8-10.2,35,44.2l9-0.7c0,0,5-43-22-50.4C118.8,57.6,105.7,55.5,96.8,64.5z"/>
	<path class="st3" d="M163,349.2c0,0-2.2-0.8-4.8-1.1c-6-0.6-9.8,6.5-6,11.2c1.6,2,4.3,4,8.6,5.5c0,0,110.8,40.4,199.5,23.1
		c0,0-3.1,10-20.5,11.3c0,0-86,13-193.9-31.6c0,0-10.8-15.3-11-21.8C134.9,345.9,136.6,336.3,163,349.2z"/>
	<path class="st3" d="M333.5,391.6c14.9-2.2,25.3-8.2,38-22.3c0,0,3,19.4-22.1,21.1C337.8,391.1,333.5,391.6,333.5,391.6z"/>
	<path class="st3" d="M323.5,403.5c0,0,0.9,0.1,2.2,0.2c8.4,1.2,6.9,10.4-4,18.4c-0.1,0.1-15.6,11.9-70,13.4c0,0-61.8,0.7-75.2-23.1
		c0,0,14.1,25.3,24.6,28.3c0,0,27.7,6.8,66,4.1c0,0,62.1-5.6,71.8-22.8c0,0,10.3-9.8,4-17.9C342.8,404.2,335.8,398.9,323.5,403.5z"
		/>
	<path class="st3" d="M223.2,448.1C223.2,448.1,223.2,448.1,223.2,448.1c-2.8,0.8-2.1,3.8-0.6,5.3c4.8,4.8,16,12,33.6,22.2
		c1.9,1.1,4.1,1.3,6.1,0.6c5.3-1.7,16.7-5.7,30.3-11.6l-5.8,5.7l-28.5,18l-47.8-32.8l0.1-8.8C210.7,446.7,217.8,447.3,223.2,448.1z"
		/>
	<rect x="148.1" y="94.6" class="st3" width="228.6" height="13.4"/>
	<path class="st3" d="M376,108c0,0,1.5-14.1,7.4-35c0,0-14,9.7-18.6,35H376z"/>
	<path class="st3" d="M160.1,108c0,0-3.7-26.8-17.9-35c0,0,6.7,17.1,7.4,35H160.1z"/>
	<path class="st3" d="M419,169.8l0-13.8c0,10.8-6,13.3-9.9,13.8H111.1c-3.9-0.5-9.8-3-9.9-13.8l0,13.8h0v8.3c0,7.8,6.3,14,14,14
		h289.8c7.8,0,14-6.3,14-14v-8.3H419z"/>
	<path class="st3" d="M419.2,192.1c0,0,3.7,47.5-2.5,92.9c-2.5,18.3,0.3,36.9,8.6,53.3c9,17.6,24.9,35.2,52.7,37
		c0,0,15.3,0,5.1-15.6c0,0-19.5-38.3-18.6-107.4c0,0,20.9,111.3,43.7,125l8.4,7.8c0,0-26.8,3.9-37.9,4.5c0,0-42.6-2.6-78.2-53.1
		c0,0-4.9,5.2,3.2-65.5c0,0,6.5-68.4,6.2-69.9C409.5,199.6,419.2,192.1,419.2,192.1z"/>
	<path class="st3" d="M100.2,192.1c0,0-3.7,47.8,2.6,93.3c2.3,17,0.1,34.3-7.2,49.8c-8.5,18.1-24,37.2-52.1,39.9
		c-2.3,0.2-4.6-0.6-6-2.3c-1.6-2-2.4-5.3,0.5-10.9c0,0,21.6-25.3,21.6-107.2c0,0-20.1,87.9-37.2,114.7L8.9,383.5
		c0,0,20.7,5.5,31.8,6.1c0,0,42.6-2.6,78.2-53.1c0,0,4.9,5.2-3.2-65.5c0,0-6.5-68.4-6.2-69.9C109.8,199.6,100.2,192.1,100.2,192.1z"
		/>
	<path class="st4" d="M157.6,36.5c0.5-4,3-7.6,6.9-8.2c25.5-4.1,140.4-21.1,200.3,5.2c12.4,5.5,15.6,11.4,11.2,19.1
		c-4.6,8.2-14.5,11.9-23.5,9.2c-27.7-8.2-99.2-29.8-187.7-18.1c-1.9,0.2-3.8-0.2-5.3-1.5C158.3,41.1,157.2,39.3,157.6,36.5z"/>
	<path class="st4" d="M394.8,154.1h-270c-6,0-10.9-4.9-10.9-10.9V142c0-6,4.9-10.9,10.9-10.9h270c6,0,10.9,4.9,10.9,10.9v1.3
		C405.8,149.2,400.8,154.1,394.8,154.1z"/>
	<path class="st4" d="M248.4,369.7c19.6,0.8,68,4.8,112.2-8.6c3.2-1,5.8,2.7,3.6,5.3c-0.3,0.3-4.8,6.7-14.4,12.6
		c-10.2,6.3-36.3,5.8-45.4,6c-14.6,0.3-65.5-5.2-65.5-11.2C239,370.1,247.1,369.6,248.4,369.7z"/>
	<path class="st4" d="M180.4,394.3c9.9,2.8,31,7.8,72.5,14.2c1.8,0.3,3.5,1.2,4.6,2.6c1,1.3,1.7,3.2,0.6,5.7
		c-0.9,2.1-2.8,3.7-4.9,4.4c-6.3,2.2-24.2,5.3-63.2-7.6c-2.4-0.8-4.6-2.2-6.3-4c-2.2-2.3-5.3-5.7-7.7-9.7
		C174.2,397,177,393.3,180.4,394.3z"/>
	<path class="st4" d="M245.2,455.6c8.4,0.5,22.2,0.9,37.5-0.3c1.8-0.1,2.4,2.4,0.7,3.1l-18,7.6c-3.6,1.5-7.7,1.3-11-0.7l-10.4-6
		C242.3,458.2,243.1,455.5,245.2,455.6z"/>
	<path class="st4" d="M433.3,93.8c0,0,36.4,218.7,20.1,213.7c-4.1-1.3-6.7-5.6-8.2-9.7C440.1,284,433.3,233.8,433.3,93.8z"/>
	<path class="st4" d="M92.1,93.8c0,0-36.4,218.7-20.1,213.7c4.1-1.3,6.7-5.6,8.2-9.7C85.2,284,92.1,233.8,92.1,93.8z"/>
	<path class="st0" d="M388.6,332.8c0,0-60.3-10-102-55.6c0,0-10.2-10.4-26.8-9.8c-10.4,0.4-20.1,5.3-27.1,13.1
		c-9.7,10.8-31.7,31.9-101,51.8c0,0,18.6,22.1,131.7,29.6C263.5,361.9,353.9,369.5,388.6,332.8z"/>
	<path class="st3" d="M295.8,336.4c0,0,23.6,12.8,40.8,10.5c0,0,32.2-9.2,35.1-10.5c0,0,10.2-1.7-20.3-13.4l33.4,9v7.5L329,357.3
		L295.8,336.4z"/>
	<path class="st3" d="M229.3,335.8l-6.7,12.2c-0.8,1.4,0,3.1,1.6,3.4c9,1.7,36.9,6,74.5,1.4c1.8-0.2,2.6-2.3,1.5-3.7
		c-2-2.6-5.3-7.1-9.9-14.8l25.3,17.1l-6.3,10l-49.1,1.1l-53.2-5.5l-1.5-6.4L229.3,335.8z"/>
	<path class="st3" d="M217.1,341.4c0,0-19.8,8-34.7,3l-27.5-7.9c0,0-1.8-1.3,2.3-3.3c5-2.5,9.9-5.2,14.4-8.3
		c2.6-1.7,5.7-3.9,9.5-6.4l-12.2,1.9l-34,14.4l8.4,4.7l23.4,8.7l20.7,5.2h14.8L217.1,341.4z"/>
	<path class="st3" d="M306.6,313c0,0-6.6-9.3-4.4-12.2c0,0,1.1-4.6,15.6,3.7l-25.3-20.8l-5.9,6.8l17.6,25.6L306.6,313z"/>
	<path class="st3" d="M218.1,312c0,0,7.1-10.4,4.8-13.4c0,0,0.1-4.7-14.5,3.6l24.1-20.7l5.9,6.8L221,313.9L218.1,312z"/>
	<path class="st3" d="M245.7,282.9c0,0,2-10.4,17.1-10.4c0,0,12.7,0.7,15.6,11.2l1.5-14.8l-17.9-6.7l-16,4.3l-5.6,10.4L245.7,282.9z
		"/>
	<g>
		<path class="st5" d="M336.5,272.6c0,0,19.3-1.7,29.5-19.3c0,0-27,20.8-50.1,5.4c-1.9-1.3-4.4-0.7-5.5,1.3v0
			c-0.9,1.7-0.5,3.7,1,4.9C315.6,268.1,324.6,273.5,336.5,272.6z"/>
		<path class="st5" d="M187.2,274.5c11.9,0.2,20.6-5.7,24.6-9.1c1.4-1.2,1.8-3.3,0.8-4.9l0,0c-1.2-1.9-3.8-2.4-5.6-1
			c-22.1,16.7-50.3-2.5-50.3-2.5C167.8,274,187.2,274.5,187.2,274.5z"/>
		<path class="st5" d="M518.7,380.5c-9.2-2.4-22.6-16.3-34.4-68.7c-7.2-31.9-36.9-222.1-36.9-222.1C441.2,57,421,33.8,385.6,18.8
			c-6.8-2.9-29.2-9-29.2-9l-0.1,0C286-5.4,232.9-1.2,170.1,10.5c0,0-29.8,6.9-40.2,11.7C99.5,36.5,82.7,57.9,77.1,89.7l-19.1,121
			c-20.8,146.7-35,163.1-52.3,169.8L0,382l5.4,2.6c0.7,0.4,18.3,8.8,42.8,7c14.4-1.1,28.2-5.6,41-13.3c10.3-6.2,19.9-14.5,28.8-24.8
			c4.6-5.3,13.1-4.2,16.1,2.2c5.8,12.4,13.5,28,16.5,32.8c22.8,37.9,51.7,68.3,84.5,89.3c13.4,8.8,22.4,12.6,23.4,13l0.9,0.4
			l0.9-0.4c0,0,0,0,0,0c52.5-20.9,101-86.4,105.8-94c10.2-16,17.6-30.9,22.6-42.1c3-6.8,12.1-8.1,16.9-2.4
			c9.2,10.9,19.1,19.6,29.8,26c12.8,7.7,26.6,12.2,41,13.3c2.4,0.2,4.8,0.3,7.1,0.3c20.8,0,35.1-6.9,35.8-7.2l5.4-2.6L518.7,380.5z
			 M145,26.2c37.3-12.5,87.7-15.2,111.8-15.7c0,0,67.1-4.8,122,16.4c22.6,10.9,11.3,33.4,10.5,34.9c-7.2,11-13.7,26.4-13.4,46.2
			H149.6c0.3-19.8-6.2-35.2-13.4-46.2C135.9,61.1,122.1,35.1,145,26.2z M116.1,40.2L116.1,40.2C116.1,40.2,116.1,40.2,116.1,40.2
			L116.1,40.2z M78.3,374.7c-0.7,0.5-1.4,0.9-2.1,1.3c-29,18.3-56,9.6-62.5,7.1c-0.6-0.2-0.7-1-0.1-1.4c1.6-1.1,3.2-2.5,4.7-4.1
			c9.4-8.1,27.9-34.1,40.3-116.3c0,0,14.1-93.1,25.3-157.1c2.4-13.6,5.7-24.5,9.6-33.2c7.5-17.1,31.6-18,40.2-1.5
			c2.1,4,3.8,8.1,5,12.2c3.7,12.1,2.7,21.4,2.2,25.8c0,0.2,0,0.3,0,0.4h-19.4c-13.6,0-24.6,11-24.6,24.6v46.9
			c0,8.9,4.7,16.7,11.8,21v35.3c0,18.9,1.8,37.6,5.2,55.9C119.9,324,106,357,78.3,374.7z M134.9,339.5
			C134.9,339.5,134.9,339.5,134.9,339.5C134.9,339.5,134.9,339.5,134.9,339.5C134.9,339.5,134.9,339.5,134.9,339.5z M308.2,451
			c-13.7,12.8-29.3,24.8-46.7,34.1c-1.4,0.8-3.1,0.8-4.5,0.1l0,0c-16.2-8.6-30.7-19.6-43.5-31.3c-2.7-2.5-0.6-6.9,3-6.4
			c19,2.6,53.3,5.1,88.6-2.3C308.6,444.3,310.8,448.6,308.2,451z M341.2,414.8c-0.1,0.1-0.1,0.2-0.2,0.3
			c-6.6,8.4-15.4,14.8-25.4,18.3c-1.9,0.7-4,1.4-6.1,2c-18.9,5.8-48.7,11.1-89.7,7.1c-13.1-1.3-25.2-7.6-33.5-17.7
			c-9.6-11.6-17.6-22.9-23.9-32.6c-3.6-5.6,1.7-12.6,8.1-10.7c43.8,13.3,81.8,19,111.7,21c9.4,0.8,19.1,1.2,28.9,1.2
			c7.9,0,15.8-0.3,23.8-0.9C341.1,402.3,345.2,409.7,341.2,414.8z M375.4,362.4c0,0.1-0.1,0.2-0.1,0.2c0,0-5.3,10.5-15.2,25.8
			c-3.1,4.7-8,7.9-13.6,8.6c-49,6.3-99.2-2.2-134.1-11c-29.3-7.4-53.7-14-64.2-20.9c-5.1-3.3-6.6-9.3-6.9-10.9
			c-1.2-5.9,2.6-11.3,8.3-9.4c34.7,11.7,126.5,36.4,217.2,7.1C372.8,350,378.4,356.5,375.4,362.4z M381.3,337.2
			c-14.3,6.1-32.4,11.3-41.1,13.6c-4.1,1.1-8.4,1.2-12.6,0.2c-8-1.9-22.1-7-40.3-20.5c0,0,8.2,13.1,22.2,20.8c2.5,1.4,1.8,5.2-1,5.6
			c-3.3,0.4-6.6,0.8-9.9,1.1c-27.2,2.7-38.8,1.5-76-1.5c-0.2,0-3.8-0.5-7.6-1.1c-2.8-0.4-3.5-4-1.1-5.5
			c12.6-7.8,19.9-19.5,19.9-19.5c-14.3,10.6-26,16-34.3,18.7c-4.6,1.5-9.5,1.8-14.2,0.7c-12.3-2.8-27.6-7.7-37.8-11.1
			c-3.2-1.1-3.1-5.6,0.2-6.5c15.5-4.4,43.4-15.9,82.7-46.2c2.6-2,6.1,0.8,4.7,3.8c-14.7,32.1-61.6,49.6-61.6,49.6
			c56.8-16.6,70-44.4,72.9-58.6c1.5-7.4,7.9-12.9,15.5-12.8c0.4,0,0.9,0,1.3,0c7.2,0.4,13.1,5.8,14.6,12.8
			c2.9,14.2,16.1,41.9,72.9,58.6c0,0-45.8-17-61.1-48.4c-1.4-2.9,2.1-5.7,4.6-3.7c19,14.8,54.7,39.7,86.5,44.7
			C383.3,332.6,383.8,336.1,381.3,337.2C381.4,337.2,381.3,337.2,381.3,337.2z M390.6,324.7c-9.7-2.1-61.8-15-106.2-57.3
			c0,0-18.7-16.4-42.5-1.5c0,0-69.2,57.3-111.4,61.2c-15.8-50.7-14.1-103.3-13.1-119.4c0.1-2,1.8-3.5,3.8-3.5h0h277.7h0
			c2.1,0,3.8,1.6,3.9,3.6C404,223.7,405.7,274.8,390.6,324.7z M401.3,192.1H116.9c0,0-9.2,0.5-13.8-11.8c-1.3-3.5-1.9-7.2-1.9-10.9
			v-29.9c0-2.6,0.4-5.2,1.2-7.7c1.8-5.4,6.2-11.9,16.6-11.9h284.4c0,0,9.2-0.5,13.8,11.8c1.3,3.5,1.9,7.2,1.9,10.9l0.1,30.4
			C419.2,173,419.2,192.1,401.3,192.1z M511.5,382.8C511.5,382.8,511.5,382.8,511.5,382.8c-34.7,6.6-55.2-3.1-64.8-9
			c-0.7-0.4-1.4-0.9-2.1-1.3c-28-17.9-42.3-51-36.8-83.8c2.6-15.3,4.6-33.4,4.1-51.4v-36.9c7-4.3,11.7-12.1,11.7-20.9v-46.9
			c0-13.6-8.9-24.6-24.6-24.6h-13.8c-0.5-3.2-1.2-10.8,0.8-20.5c0.9-4.2,2.3-9,4.6-14.3c7.8-17.7,33.2-17.5,40.8,0.2
			c3.7,8.6,6.9,19.2,9.2,32.4c11.2,64,25.3,157.1,25.3,157.1c16.5,97,35.4,115,45.4,118.4C512.3,381.5,512.3,382.5,511.5,382.8z"/>
		<path class="st6" d="M338.3,226c0,0,23.5-4.9,41.5,13.6c0.5,0.5,0.7,1.1,1.1,1.7c1.2,1.7,4.3,7.1-0.4,10c-3.1,1.9-7.1,0.9-9.3-1.9
			c-3.6-4.6-12.4-12.1-32.4-14.9c-2.8-0.4-4.7-3.4-3.7-6C335.5,227.4,336.5,226.4,338.3,226z"/>
		<path class="st6" d="M181.4,226c0,0-23.5-4.9-41.5,13.6c-0.5,0.5-0.7,1.1-1.1,1.7c-1.2,1.7-4.3,7.1,0.4,10
			c3.1,1.9,7.1,0.9,9.3-1.9c3.6-4.6,12.4-12.1,32.4-14.9c2.8-0.4,4.7-3.4,3.7-6C184.1,227.4,183.2,226.4,181.4,226z"/>
	</g>
	<path class="st4" d="M253.9,282.9c-5.8,7-2.5,17.1-5.4,26.7c-2.4,7.7,1.3,16,9.2,17.3c0.3,0,0.6,0.1,0.9,0.1c0,0,0.3,0.1,0.9,0.1
		c9,1.1,16.5-6.9,15.2-15.9l-3.5-23.1C270,280.2,257.6,278.5,253.9,282.9z"/>
</g>
<g>
	<path class="st7" d="M548.8,136.5c32.6,0,49.4,19.5,49.4,53.6v6.7h-31.7V188c0-15.2-6.1-21-16.8-21c-10.7,0-16.8,5.8-16.8,21
		c0,43.9,65.5,52.1,65.5,113.1c0,34.1-17.1,53.6-50,53.6c-32.9,0-50-19.5-50-53.6v-13.1h31.7v15.2c0,15.2,6.7,20.7,17.4,20.7
		c10.7,0,17.4-5.5,17.4-20.7c0-43.9-65.5-52.1-65.5-113.1C499.5,156,516.2,136.5,548.8,136.5z"/>
	<path class="st7" d="M651.2,352.3h-33.5V138.9h33.5v91.4h38.1v-91.4h34.1v213.4h-34.1v-91.4h-38.1V352.3z"/>
	<path class="st7" d="M781.4,228.8h46v30.5h-46v62.5h57.9v30.5h-91.4V138.9h91.4v30.5h-57.9V228.8z"/>
	<path class="st7" d="M930.1,352.3c-1.8-5.5-3-8.8-3-26.2v-33.5c0-19.8-6.7-27.1-21.9-27.1h-11.6v86.9H860V138.9h50.6
		c34.7,0,49.7,16.2,49.7,49.1v16.8c0,21.9-7,36.3-21.9,43.3c16.8,7,22.3,23.2,22.3,45.4v32.9c0,10.4,0.3,18,3.7,25.9H930.1z
		 M893.6,169.4v65.5h13.1c12.5,0,20.1-5.5,20.1-22.6v-21c0-15.2-5.2-21.9-17.1-21.9H893.6z"/>
	<path class="st7" d="M1081.9,191.6v27.7c0,34.1-16.5,52.7-50,52.7h-15.9v80.2h-33.5V138.9h49.4
		C1065.5,138.9,1081.9,157.5,1081.9,191.6z M1016.1,169.4v72.2h15.9c10.7,0,16.5-4.9,16.5-20.1v-32c0-15.2-5.8-20.1-16.5-20.1
		H1016.1z"/>
	<path class="st7" d="M1203.5,352.3h-33.8l-5.8-38.7h-41.1l-5.8,38.7h-30.8l34.1-213.4h49.1L1203.5,352.3z M1127,284.6h32.3
		l-16.2-107.9L1127,284.6z"/>
</g>
</svg>
