<?xml version="1.0" encoding="utf-8"?>
<!-- Generator: Adobe Illustrator 25.2.1, SVG Export Plug-In . SVG Version: 6.00 Build 0)  -->
<svg version="1.1" id="Layer_1" xmlns="http://www.w3.org/2000/svg" xmlns:xlink="http://www.w3.org/1999/xlink" x="0px" y="0px"
	 viewBox="0 0 400 400" style="enable-background:new 0 0 400 400;" xml:space="preserve">
<style type="text/css">
	.st0{fill:#F24E4D;}
	.st1{fill:#E9EAEA;}
	.st2{fill:none;stroke:#000000;stroke-width:6;stroke-linecap:round;stroke-miterlimit:10;}
	.st3{fill:#D33737;}
	.st4{fill:#F96B6B;}
	.st5{fill:#0A3142;}
	.st6{fill:#D1D1D1;}
	.st7{fill:#FFFFFF;}
</style>
<g>
	<path class="st0" d="M36.7,330.7c0,0,60.5,76.6,121,46.2c0,0-21.4,3.8-40-83.3L83.4,80.6c0,0-10.8-54-72.8-64.9
		c0,0-144.5-47.6-257.7,22.1c0,0-19.1,2-34.5,66l-32.6,204c0,0-12.6,60.1-35.7,69.1c0,0,53.7,36.2,111.1-41.6l2.4-15.3
		c0,0-16.5-101.5-8.6-125.6l292-1.9C47,192.6,57.3,227.4,36.7,330.7z"/>
	<path class="st1" d="M-244.1,196.9H49c0,0,30.6,192.7-147.2,288.1C-98.2,485-257.5,429.1-244.1,196.9z"/>
	<path class="st2" d="M-83.5,15.7"/>
	<path class="st0" d="M-223.9,332.2c0,0,88.9,48.4,249.8,10.1c0,0-23.6,91.8-124.5,141.8C-98.5,484.2-201.4,438.6-223.9,332.2z"/>
	<path class="st3" d="M68.3,62.4c0,0-36.8-6.3-32.5,42.1l-9.3-0.7c0,0-4.8-40.9,20.9-48C47.4,55.8,59.8,53.8,68.3,62.4z"/>
	<path class="st3" d="M-262,60.3c0,0,38.8-10.2,35,44.2l9-0.7c0,0,5-43-22-50.4C-240,53.4-253,51.3-262,60.3z"/>
	<path class="st3" d="M-195.7,345c0,0-2.2-0.8-4.8-1.1c-6-0.6-9.8,6.5-6,11.2c1.6,2,4.3,4,8.6,5.5c0,0,110.8,40.4,199.5,23.1
		c0,0-3.1,10-20.5,11.3c0,0-86,13-193.9-31.6c0,0-10.8-15.3-11-21.8C-223.8,341.7-222.2,332.1-195.7,345z"/>
	<path class="st3" d="M-25.2,387.5c14.9-2.2,25.3-8.2,38-22.3c0,0,3,19.4-22.1,21.1C-20.9,387-25.2,387.5-25.2,387.5z"/>
	<path class="st3" d="M-35.3,399.3c0,0,0.9,0.1,2.2,0.2c8.4,1.2,6.9,10.4-4,18.4c-0.1,0.1-15.6,11.9-70,13.4c0,0-61.8,0.7-75.2-23.1
		c0,0,14.1,25.3,24.6,28.3c0,0,27.7,6.8,66,4.1c0,0,62.1-5.6,71.8-22.8c0,0,10.3-9.8,4-17.9C-16,400.1-22.9,394.7-35.3,399.3z"/>
	<path class="st3" d="M-135.6,444C-135.6,444-135.6,443.9-135.6,444c-2.8,0.8-2.1,3.8-0.6,5.3c4.8,4.8,16,12,33.6,22.2
		c1.9,1.1,4.1,1.3,6.1,0.6c5.3-1.7,16.7-5.7,30.3-11.6l-5.8,5.7l-28.5,18l-47.8-32.8l0.1-8.8C-148.1,442.5-140.9,443.1-135.6,444z"
		/>
	<rect x="-210.6" y="90.4" class="st3" width="228.6" height="13.4"/>
	<path class="st3" d="M17.2,103.8c0,0,1.5-14.1,7.4-35c0,0-14,9.7-18.6,35H17.2z"/>
	<path class="st3" d="M-198.7,103.8c0,0-3.7-26.8-17.9-35c0,0,6.7,17.1,7.4,35H-198.7z"/>
	<path class="st3" d="M60.3,165.6l0-13.8c0,10.8-6,13.3-9.9,13.8h-298.1c-3.9-0.5-9.8-3-9.9-13.8l0,13.8h0v8.3c0,7.8,6.3,14,14,14
		H46.4c7.8,0,14-6.3,14-14v-8.3H60.3z"/>
	<path class="st3" d="M60.4,187.9c0,0,3.7,47.5-2.5,92.9c-2.5,18.3,0.3,36.9,8.6,53.3c9,17.6,24.9,35.2,52.7,37c0,0,15.3,0,5.1-15.6
		c0,0-19.5-38.3-18.6-107.4c0,0,20.9,111.3,43.7,125l8.4,7.8c0,0-26.8,3.9-37.9,4.5c0,0-42.6-2.6-78.2-53.1c0,0-4.9,5.2,3.2-65.5
		c0,0,6.5-68.4,6.2-69.9C50.7,195.4,60.4,187.9,60.4,187.9z"/>
	<path class="st3" d="M-258.6,187.9c0,0-3.7,47.8,2.6,93.3c2.3,17,0.1,34.3-7.2,49.8c-8.5,18.1-24,37.2-52.1,39.9
		c-2.3,0.2-4.6-0.6-6-2.3c-1.6-2-2.4-5.3,0.5-10.9c0,0,21.6-25.3,21.6-107.2c0,0-20.1,87.9-37.2,114.7l-13.4,14.1
		c0,0,20.7,5.5,31.8,6.1c0,0,42.6-2.6,78.2-53.1c0,0,4.9,5.2-3.2-65.5c0,0-6.5-68.4-6.2-69.9C-248.9,195.4-258.6,187.9-258.6,187.9z
		"/>
	<path class="st4" d="M-201.2,32.3c0.5-4,3-7.6,6.9-8.2C-168.8,20-53.9,3,6,29.3c12.4,5.5,15.6,11.4,11.2,19.1
		c-4.6,8.2-14.5,11.9-23.5,9.2C-34,49.5-105.5,27.8-194,39.5c-1.9,0.2-3.8-0.2-5.3-1.5C-200.5,36.9-201.5,35.1-201.2,32.3z"/>
	<path class="st4" d="M36.1,150h-270c-6,0-10.9-4.9-10.9-10.9v-1.3c0-6,4.9-10.9,10.9-10.9h270c6,0,10.9,4.9,10.9,10.9v1.3
		C47,145,42.1,150,36.1,150z"/>
	<path class="st4" d="M-110.3,365.5c19.6,0.8,68,4.8,112.2-8.6c3.2-1,5.8,2.7,3.6,5.3c-0.3,0.3-4.8,6.7-14.4,12.6
		c-10.2,6.3-36.3,5.8-45.4,6c-14.6,0.3-65.5-5.2-65.5-11.2C-119.8,365.9-111.7,365.4-110.3,365.5z"/>
	<path class="st4" d="M-178.3,390.1c9.9,2.8,31,7.8,72.5,14.2c1.8,0.3,3.5,1.2,4.6,2.6c1,1.3,1.7,3.2,0.6,5.7
		c-0.9,2.1-2.8,3.7-4.9,4.4c-6.3,2.2-24.2,5.3-63.2-7.6c-2.4-0.8-4.6-2.2-6.3-4c-2.2-2.3-5.3-5.7-7.7-9.7
		C-184.6,392.8-181.7,389.1-178.3,390.1z"/>
	<path class="st4" d="M-113.6,451.4c8.4,0.5,22.2,0.9,37.5-0.3c1.8-0.1,2.4,2.4,0.7,3.1l-18,7.6c-3.6,1.5-7.7,1.3-11-0.7l-10.4-6
		C-116.4,454-115.6,451.3-113.6,451.4z"/>
	<path class="st4" d="M74.5,89.6c0,0,36.4,218.7,20.1,213.7c-4.1-1.3-6.7-5.6-8.2-9.7C81.4,279.8,74.5,229.6,74.5,89.6z"/>
	<path class="st4" d="M-266.7,89.6c0,0-36.4,218.7-20.1,213.7c4.1-1.3,6.7-5.6,8.2-9.7C-273.5,279.8-266.7,229.6-266.7,89.6z"/>
	<path class="st0" d="M29.9,328.6c0,0-60.3-10-102-55.6c0,0-10.2-10.4-26.8-9.8c-10.4,0.4-20.1,5.3-27.1,13.1
		c-9.7,10.8-31.7,31.9-101,51.8c0,0,18.6,22.1,131.7,29.6C-95.2,357.7-4.8,365.3,29.9,328.6z"/>
	<path class="st3" d="M-63,332.2c0,0,23.6,12.8,40.8,10.5c0,0,32.2-9.2,35.1-10.5c0,0,10.2-1.7-20.3-13.4l33.4,9v7.5l-55.8,17.8
		L-63,332.2z"/>
	<path class="st3" d="M-129.5,331.6l-6.7,12.2c-0.8,1.4,0,3.1,1.6,3.4c9,1.7,36.9,6,74.5,1.4c1.8-0.2,2.6-2.3,1.5-3.7
		c-2-2.6-5.3-7.1-9.9-14.8l25.3,17.1l-6.3,10l-49.1,1.1l-53.2-5.5l-1.5-6.4L-129.5,331.6z"/>
	<path class="st3" d="M-141.7,337.3c0,0-19.8,8-34.7,3l-27.5-7.9c0,0-1.8-1.3,2.3-3.3c5-2.5,9.9-5.2,14.4-8.3
		c2.6-1.7,5.7-3.9,9.5-6.4l-12.2,1.9l-34,14.4l8.4,4.7l23.4,8.7l20.7,5.2h14.8L-141.7,337.3z"/>
	<path class="st3" d="M-52.1,308.9c0,0-6.6-9.3-4.4-12.2c0,0,1.1-4.6,15.6,3.7l-25.3-20.8l-5.9,6.8l17.6,25.6L-52.1,308.9z"/>
	<path class="st3" d="M-140.6,307.8c0,0,7.1-10.4,4.8-13.4c0,0,0.1-4.7-14.5,3.6l24.1-20.7l5.9,6.8l-17.6,25.6L-140.6,307.8z"/>
	<path class="st3" d="M-113.1,278.8c0,0,2-10.4,17.1-10.4c0,0,12.7,0.7,15.6,11.2l1.5-14.8l-17.9-6.7l-16,4.3l-5.6,10.4
		L-113.1,278.8z"/>
	<g>
		<path class="st5" d="M-22.3,268.4c0,0,19.3-1.7,29.5-19.3c0,0-27,20.8-50.1,5.4c-1.9-1.3-4.4-0.7-5.5,1.3l0,0
			c-0.9,1.7-0.5,3.7,1,4.9C-43.1,263.9-34.1,269.3-22.3,268.4z"/>
		<path class="st5" d="M-171.6,270.4c11.9,0.2,20.6-5.7,24.6-9.1c1.4-1.2,1.8-3.3,0.8-4.9l0,0c-1.2-1.9-3.8-2.4-5.6-1
			c-22.1,16.7-50.3-2.5-50.3-2.5C-190.9,269.8-171.6,270.4-171.6,270.4z"/>
		<path class="st5" d="M160,376.3c-9.2-2.4-22.6-16.3-34.4-68.7c-7.2-31.9-36.9-222.1-36.9-222.1c-6.2-32.7-26.4-55.9-61.8-70.9
			c-6.8-2.9-29.2-9-29.2-9l-0.1,0C-72.7-9.5-125.8-5.4-188.7,6.3c0,0-29.8,6.9-40.2,11.7c-30.4,14.2-47.2,35.7-52.8,67.5l-19.1,121
			c-20.8,146.7-35,163.1-52.3,169.8l-5.8,1.5l5.4,2.6c0.7,0.4,18.3,8.8,42.8,7c14.4-1.1,28.2-5.6,41-13.3
			c10.3-6.2,19.9-14.5,28.8-24.8c4.6-5.3,13.1-4.2,16.1,2.2c5.8,12.4,13.5,28,16.5,32.8c22.8,37.9,51.7,68.3,84.5,89.3
			c13.4,8.8,22.4,12.6,23.4,13l0.9,0.4l0.9-0.4c0,0,0,0,0,0c52.5-20.9,101-86.4,105.8-94c10.2-16,17.6-30.9,22.6-42.1
			c3-6.8,12.1-8.1,16.9-2.4c9.2,10.9,19.1,19.6,29.8,26c12.8,7.7,26.6,12.2,41,13.3c2.4,0.2,4.8,0.3,7.1,0.3
			c20.8,0,35.1-6.9,35.8-7.2l5.4-2.6L160,376.3z M-213.7,22C-176.4,9.5-126,6.8-101.9,6.3c0,0,67.1-4.8,122,16.4
			c22.6,10.9,11.3,33.4,10.5,34.9c-7.2,11-13.7,26.4-13.4,46.2h-226.3c0.3-19.8-6.2-35.2-13.4-46.2C-222.9,56.9-236.6,30.9-213.7,22
			z M-242.6,36L-242.6,36C-242.6,36-242.7,36-242.6,36L-242.6,36z M-280.5,370.5c-0.7,0.5-1.4,0.9-2.1,1.3c-29,18.3-56,9.6-62.5,7.1
			c-0.6-0.2-0.7-1-0.1-1.4c1.6-1.1,3.2-2.5,4.7-4.1c9.4-8.1,27.9-34.1,40.3-116.3c0,0,14.1-93.1,25.3-157.1
			c2.4-13.6,5.7-24.5,9.6-33.2c7.5-17.1,31.6-18,40.2-1.5c2.1,4,3.8,8.1,5,12.2c3.7,12.1,2.7,21.4,2.2,25.8c0,0.2,0,0.3,0,0.4h-19.4
			c-13.6,0-24.6,11-24.6,24.6v46.9c0,8.9,4.7,16.7,11.8,21v35.3c0,18.9,1.8,37.6,5.2,55.9C-238.9,319.8-252.8,352.8-280.5,370.5z
			 M-223.9,335.3C-223.9,335.3-223.9,335.3-223.9,335.3C-223.9,335.3-223.8,335.3-223.9,335.3C-223.8,335.3-223.9,335.3-223.9,335.3
			z M-50.5,446.8c-13.7,12.8-29.3,24.8-46.7,34.1c-1.4,0.8-3.1,0.8-4.5,0.1l0,0c-16.2-8.6-30.7-19.6-43.5-31.3
			c-2.7-2.5-0.6-6.9,3-6.4c19,2.6,53.3,5.1,88.6-2.3C-50.2,440.1-48,444.4-50.5,446.8z M-17.6,410.6c-0.1,0.1-0.1,0.2-0.2,0.3
			c-6.6,8.4-15.4,14.8-25.4,18.3c-1.9,0.7-4,1.4-6.1,2c-18.9,5.8-48.7,11.1-89.7,7.1c-13.1-1.3-25.2-7.6-33.5-17.7
			c-9.6-11.6-17.6-22.9-23.9-32.6c-3.6-5.6,1.7-12.6,8.1-10.7c43.8,13.3,81.8,19,111.7,21c9.4,0.8,19.1,1.2,28.9,1.2
			c7.9,0,15.8-0.3,23.8-0.9C-17.6,398.1-13.6,405.5-17.6,410.6z M16.6,358.2c0,0.1-0.1,0.2-0.1,0.2c0,0-5.3,10.5-15.2,25.8
			c-3.1,4.7-8,7.9-13.6,8.6c-49,6.3-99.2-2.2-134.1-11c-29.3-7.4-53.7-14-64.2-20.9c-5.1-3.3-6.6-9.3-6.9-10.9
			c-1.2-5.9,2.6-11.3,8.3-9.4c34.7,11.7,126.5,36.4,217.2,7.1C14.1,345.8,19.7,352.4,16.6,358.2z M22.5,333
			c-14.3,6.1-32.4,11.3-41.1,13.6c-4.1,1.1-8.4,1.2-12.6,0.2c-8-1.9-22.1-7-40.3-20.5c0,0,8.2,13.1,22.2,20.8c2.5,1.4,1.8,5.2-1,5.6
			c-3.3,0.4-6.6,0.8-9.9,1.1c-27.2,2.7-38.8,1.5-76-1.5c-0.2,0-3.8-0.5-7.6-1.1c-2.8-0.4-3.5-4-1.1-5.5
			c12.6-7.8,19.9-19.5,19.9-19.5c-14.3,10.6-26,16-34.3,18.7c-4.6,1.5-9.5,1.8-14.2,0.7c-12.3-2.8-27.6-7.7-37.8-11.1
			c-3.2-1.1-3.1-5.6,0.2-6.5c15.5-4.4,43.4-15.9,82.7-46.2c2.6-2,6.1,0.8,4.7,3.8c-14.7,32.1-61.6,49.6-61.6,49.6
			c56.8-16.6,70-44.4,72.9-58.6c1.5-7.4,7.9-12.9,15.5-12.8c0.4,0,0.9,0,1.3,0c7.2,0.4,13.1,5.8,14.6,12.8
			c2.9,14.2,16.1,41.9,72.9,58.6c0,0-45.8-17-61.1-48.4c-1.4-2.9,2.1-5.7,4.6-3.7c19,14.8,54.7,39.7,86.5,44.7
			C24.5,328.4,25,331.9,22.5,333C22.6,333,22.6,333,22.5,333z M31.8,320.5c-9.7-2.1-61.8-15-106.2-57.3c0,0-18.7-16.4-42.5-1.5
			c0,0-69.2,57.3-111.4,61.2c-15.8-50.7-14.1-103.3-13.1-119.4c0.1-2,1.8-3.5,3.8-3.5h0H40.3h0c2.1,0,3.8,1.6,3.9,3.6
			C45.2,219.5,46.9,270.6,31.8,320.5z M42.5,187.9h-284.4c0,0-9.2,0.5-13.8-11.8c-1.3-3.5-1.9-7.2-1.9-10.9v-29.9
			c0-2.6,0.4-5.2,1.2-7.7c1.8-5.4,6.2-11.9,16.6-11.9H44.6c0,0,9.2-0.5,13.8,11.8c1.3,3.5,1.9,7.2,1.9,10.9l0.1,30.4
			C60.4,168.8,60.4,187.9,42.5,187.9z M152.8,378.6C152.7,378.6,152.7,378.6,152.8,378.6c-34.7,6.6-55.2-3.1-64.8-9
			c-0.7-0.4-1.4-0.9-2.1-1.3c-28-17.9-42.3-51-36.8-83.8c2.6-15.3,4.6-33.4,4.1-51.4v-36.9c7-4.3,11.7-12.1,11.7-20.9v-46.9
			c0-13.6-8.9-24.6-24.6-24.6H26.5c-0.5-3.2-1.2-10.8,0.8-20.5c0.9-4.2,2.3-9,4.6-14.3c7.8-17.7,33.2-17.5,40.8,0.2
			c3.7,8.6,6.9,19.2,9.2,32.4c11.2,64,25.3,157.1,25.3,157.1c16.5,97,35.4,115,45.4,118.4C153.5,377.3,153.5,378.3,152.8,378.6z"/>
		<path class="st6" d="M-20.5,221.9c0,0,23.5-4.9,41.5,13.6c0.5,0.5,0.7,1.1,1.1,1.7c1.2,1.7,4.3,7.1-0.4,10
			c-3.1,1.9-7.1,0.9-9.3-1.9C8.8,240.7,0,233.1-20,230.4c-2.8-0.4-4.7-3.4-3.7-6C-23.2,223.2-22.3,222.2-20.5,221.9z"/>
		<path class="st6" d="M-177.4,221.9c0,0-23.5-4.9-41.5,13.6c-0.5,0.5-0.7,1.1-1.1,1.7c-1.2,1.7-4.3,7.1,0.4,10
			c3.1,1.9,7.1,0.9,9.3-1.9c3.6-4.6,12.4-12.1,32.4-14.9c2.8-0.4,4.7-3.4,3.7-6C-174.6,223.2-175.6,222.2-177.4,221.9z"/>
	</g>
	<path class="st4" d="M-104.9,278.8c-5.8,7-2.5,17.1-5.4,26.7c-2.4,7.7,1.3,16,9.2,17.3c0.3,0,0.6,0.1,0.9,0.1c0,0,0.3,0.1,0.9,0.1
		c9,1.1,16.5-6.9,15.2-15.9l-3.5-23.1C-88.8,276-101.2,274.3-104.9,278.8z"/>
</g>
<g>
	<path class="st7" d="M190.1,132.3c32.6,0,49.4,19.5,49.4,53.6v6.7h-31.7v-8.8c0-15.2-6.1-21-16.8-21c-10.7,0-16.8,5.8-16.8,21
		c0,43.9,65.5,52.1,65.5,113.1c0,34.1-17.1,53.6-50,53.6c-32.9,0-50-19.5-50-53.6v-13.1h31.7V299c0,15.2,6.7,20.7,17.4,20.7
		c10.7,0,17.4-5.5,17.4-20.7c0-43.9-65.5-52.1-65.5-113.1C140.7,151.8,157.4,132.3,190.1,132.3z"/>
	<path class="st7" d="M292.5,348.1h-33.5V134.7h33.5v91.4h38.1v-91.4h34.1v213.4h-34.1v-91.4h-38.1V348.1z"/>
	<path class="st7" d="M422.6,224.6h46v30.5h-46v62.5h57.9v30.5h-91.4V134.7h91.4v30.5h-57.9V224.6z"/>
	<path class="st7" d="M571.4,348.1c-1.8-5.5-3-8.8-3-26.2v-33.5c0-19.8-6.7-27.1-21.9-27.1h-11.6v86.9h-33.5V134.7h50.6
		c34.7,0,49.7,16.2,49.7,49.1v16.8c0,21.9-7,36.3-21.9,43.3c16.8,7,22.3,23.2,22.3,45.4v32.9c0,10.4,0.3,18,3.7,25.9H571.4z
		 M534.8,165.2v65.5h13.1c12.5,0,20.1-5.5,20.1-22.6v-21c0-15.2-5.2-21.9-17.1-21.9H534.8z"/>
	<path class="st7" d="M723.1,187.4v27.7c0,34.1-16.5,52.7-50,52.7h-15.9v80.2h-33.5V134.7h49.4C706.7,134.7,723.1,153.3,723.1,187.4
		z M657.3,165.2v72.2h15.9c10.7,0,16.5-4.9,16.5-20.1v-32c0-15.2-5.8-20.1-16.5-20.1H657.3z"/>
	<path class="st7" d="M844.8,348.1h-33.8l-5.8-38.7H764l-5.8,38.7h-30.8l34.1-213.4h49.1L844.8,348.1z M768.3,280.4h32.3
		l-16.2-107.9L768.3,280.4z"/>
</g>
</svg>
