<?xml version="1.0" encoding="utf-8"?>
<!-- Generator: Adobe Illustrator 25.2.1, SVG Export Plug-In . SVG Version: 6.00 Build 0)  -->
<svg version="1.1" id="Layer_1" xmlns="http://www.w3.org/2000/svg" xmlns:xlink="http://www.w3.org/1999/xlink" x="0px" y="0px"
	 viewBox="0 0 1768 708.7" style="enable-background:new 0 0 1768 708.7;" xml:space="preserve">
<style type="text/css">
	.st0{fill:url(#SVGID_1_);}
	.st1{fill:url(#SVGID_2_);}
	.st2{fill:url(#SVGID_3_);}
	.st3{fill:#FFFFFF;}
	.st4{stroke:#000000;stroke-width:3;stroke-miterlimit:10;}
	.st5{fill:url(#SVGID_4_);}
	.st6{fill:url(#SVGID_5_);}
	.st7{fill:#6289A5;}
	.st8{fill:url(#SVGID_6_);}
	.st9{fill:#FFC62A;}
	.st10{fill:#AA7939;}
	.st11{fill:#CC9A1D;}
	.st12{fill:#FEFEFE;}
	.st13{opacity:7.000000e-02;}
	.st14{opacity:0.2;}
	.st15{fill:#408DCC;}
	.st16{fill:#3983B5;}
	.st17{fill:url(#SVGID_7_);}
	.st18{opacity:0.18;fill:#5B59CE;}
	.st19{fill:url(#SVGID_8_);}
	.st20{fill:url(#SVGID_9_);}
	.st21{opacity:0.3;fill:url(#SVGID_10_);}
	.st22{opacity:0.18;fill:url(#SVGID_11_);}
	.st23{fill:#C26500;}
	.st24{fill:#A9590F;}
	.st25{fill:#BD5806;}
	.st26{fill:url(#SVGID_12_);}
	.st27{opacity:0.58;fill:#7D4173;}
	.st28{fill:url(#SVGID_13_);}
	.st29{fill:url(#SVGID_14_);}
	.st30{stroke:#000000;stroke-width:28;stroke-linecap:round;stroke-linejoin:round;stroke-miterlimit:10;}
	.st31{fill:#F9EEDA;}
</style>
<g>
	<linearGradient id="SVGID_1_" gradientUnits="userSpaceOnUse" x1="1045.4717" y1="-282.8651" x2="1055.1268" y2="757.4744">
		<stop  offset="0.162" style="stop-color:#EC3E3F"/>
		<stop  offset="0.4553" style="stop-color:#EA3F41"/>
		<stop  offset="0.5609" style="stop-color:#E44148"/>
		<stop  offset="0.6362" style="stop-color:#D84453"/>
		<stop  offset="0.697" style="stop-color:#C84964"/>
		<stop  offset="0.7486" style="stop-color:#B4507A"/>
		<stop  offset="0.7581" style="stop-color:#AF517F"/>
	</linearGradient>
	<path class="st0" d="M1097.6,162.3c0.1,9-8.1,11.9-18.3,27.3c-9.1,13.7-6.8,17.9-14,32.1c-14.6,29-43.3,50.8-50.6,46.1
		c-2-1.3-2.1-4.5-2.2-6.4c-1.3-46.2-19.9-66.1-4.3-91.1c4.9-7.8,10.6-12.1,17.2-17.1c10.1-7.6,27.8-21,46.9-16.1
		C1084.4,140.3,1097.4,151.1,1097.6,162.3z"/>
	<linearGradient id="SVGID_2_" gradientUnits="userSpaceOnUse" x1="736.4487" y1="-79.911" x2="716.8376" y2="640.3492">
		<stop  offset="0.162" style="stop-color:#EC3E3F"/>
		<stop  offset="0.4553" style="stop-color:#EA3F41"/>
		<stop  offset="0.5609" style="stop-color:#E44148"/>
		<stop  offset="0.6362" style="stop-color:#D84453"/>
		<stop  offset="0.697" style="stop-color:#C84964"/>
		<stop  offset="0.7486" style="stop-color:#B4507A"/>
		<stop  offset="0.7581" style="stop-color:#AF517F"/>
	</linearGradient>
	<path class="st1" d="M786.5,388.1c-12.5-72.9-33.5-196.4-34.1-204.5l0-0.3c-4.9-65.5,19.1-104,40.1-124.7
		c21.5-21.2,49.3-34.7,80.4-39l5.7-0.8c0.7-0.1,1.4-0.2,2.1-0.3c-19.6-5.5-40.6-7.3-62.1-4.4c0,0-0.1,0-0.1,0l0,0c0,0-0.1,0-0.1,0
		c0,0-0.1,0-0.1,0c0,0-0.1,0-0.1,0c0,0-0.1,0-0.1,0c0,0-0.1,0-0.1,0c0,0-0.1,0-0.1,0l-6.7,0.9c-41.6,5.8-78.2,27.6-103.1,61.5
		c-0.9,1.2-1.8,2.5-2.6,3.7c-22.9,33.2-31.8,73.2-25,113.1c0.3,8.3-0.4,19.7-7.4,24c-8.5,5.3-18.4-4.9-41.2-8.4
		c-4.5-0.7-38.8-5.6-48.5,10.6c-3.6,5.9-2.6,12.6-2.1,15.8c1,6.4,4.7,18.2,36.9,40.1c27.8,18.8,52.8,31.7,52.8,31.7
		c10.4,5.3,16.8,8.1,22.2,15.8c6.1,8.9,5.2,16,9.5,32.7c1.8,7.1,5,17.3,10.6,29.3c0.2,1.3,0.8,3.4,2.3,5.6c2.9,4,7.8,6.4,13.1,5.6
		C748.1,393.6,767.3,390.8,786.5,388.1z"/>
	
		<linearGradient id="SVGID_3_" gradientUnits="userSpaceOnUse" x1="281.5137" y1="-89.8498" x2="378.5038" y2="387.4438" gradientTransform="matrix(-0.9998 1.897453e-02 1.897453e-02 0.9998 1237.8054 -13.9764)">
		<stop  offset="0" style="stop-color:#FFFFFF"/>
		<stop  offset="0.4437" style="stop-color:#FDFFFF"/>
		<stop  offset="0.6035" style="stop-color:#F6FDFF"/>
		<stop  offset="0.7174" style="stop-color:#EBFAFF"/>
		<stop  offset="0.8095" style="stop-color:#DAF6FE"/>
		<stop  offset="0.8883" style="stop-color:#C4F1FE"/>
		<stop  offset="0.9569" style="stop-color:#A9EAFD"/>
		<stop  offset="1" style="stop-color:#94E5FD"/>
	</linearGradient>
	<path class="st2" d="M907.8,29.1c43.8,21.9,76.5,64.3,83.7,116.4l27.5,196.7c1,7.5-4.2,14.4-11.7,15.5l-209.3,29.2l-0.1-0.7
		c-21-121.9-33.8-197.9-34.2-203.4l0-0.3c-4.6-61.2,17.4-96.8,36.6-115.8c19.7-19.5,45.3-31.9,74-35.9l5.7-0.8
		C889.3,28.8,898.6,28.5,907.8,29.1z"/>
	<g>
		<g>
			<circle class="st3" cx="845.1" cy="136.5" r="15.1"/>
		</g>
	</g>
	<path d="M797.9,186.3c11.7-7.9,26.8-13.5,43.6-15.4c11.1-1.3,21.8-0.8,31.6,1.2c3.4-7.7,4.9-16.4,3.6-25.4
		c-3.5-25.5-27-43.3-52.5-39.8c-25.5,3.5-43.3,27-39.8,52.5C785.9,170,790.8,179.3,797.9,186.3z"/>
	<g>
		<g>
			<path class="st4" d="M1030,340.8l-27.2-196.7c-6.6-47.4-32.7-87.3-69.1-112.8l-21.4-12.8C882.8,4,849.9-1.4,817.2,3
				c0,0-0.1,0-0.1,0l0,0c0,0-0.1,0-0.1,0c0,0-0.1,0-0.1,0c0,0-0.1,0-0.1,0c0,0-0.1,0-0.1,0c0,0-0.1,0-0.1,0c0,0-0.1,0-0.1,0L809.8,4
				c-44.7,6.2-84,29.6-110.7,66c-25.6,35-36.3,77.5-30.4,120.2c0.2,1.7,0.5,3.5,0.8,5.2l3.8,22.5c4,0.8,8,1.7,11.9,2.6l-4.6-27
				c-6.8-39.9,2.1-79.9,25-113.1c0.9-1.2,1.7-2.5,2.6-3.7c24.8-33.9,61.5-55.7,103.1-61.5l6.7-0.9c0,0,0.1,0,0.1,0c0,0,0.1,0,0.1,0
				c0,0,0.1,0,0.1,0c0,0,0.1,0,0.1,0c0,0,0.1,0,0.1,0c0,0,0.1,0,0.1,0l0,0c0,0,0.1,0,0.1,0c21.4-2.9,42.5-1.2,62.1,4.4
				c-0.7,0.1-1.4,0.2-2.1,0.3l-5.7,0.8c-31.1,4.3-58.9,17.8-80.4,39c-21,20.7-45,59.1-40.1,124.7l0,0.3
				c0.6,8.1,21.6,131.6,34.1,204.5l0.1,0.3l-57.7,8c-7.4,1-14.1-3.9-15.4-11.3l-11.2-65.7c-0.6,0.2-1.2,0.3-1.9,0.3
				c-0.9,0-1.6-0.2-2.3-0.5c-2.3,0.7-4.8,0.8-7.3,0.1l11.6,67.7c2.3,13.4,14.6,22.4,28.1,20.6l278.2-38.5
				C1022.3,367.2,1031.9,354.5,1030,340.8z M1007.1,357.9l-209.3,28.9l-0.1-0.7c-20.8-121.9-33.5-198-33.9-203.5l0-0.3
				c-4.5-61.2,17.5-96.7,36.8-115.8c19.7-19.5,45.3-31.8,74-35.8l5.7-0.8c9.2-1.3,18.6-1.6,27.8-0.9c31.9,16,57.8,42.9,72.3,76.4
				c6.4,14.7,9.7,28.5,11.2,40.1c0.2,1.7,0.5,3.4,0.7,5.1c8.8,63.9,17.7,127.7,26.5,191.6C1019.9,349.9,1014.6,356.8,1007.1,357.9z"
				/>
		</g>
	</g>
	
		<linearGradient id="SVGID_4_" gradientUnits="userSpaceOnUse" x1="577.7898" y1="-3.6091" x2="423.4823" y2="90.0328" gradientTransform="matrix(-0.9998 1.760726e-02 1.760726e-02 0.9998 1238.0862 -13.2441)">
		<stop  offset="0" style="stop-color:#F878A3"/>
		<stop  offset="3.790116e-02" style="stop-color:#F984AB;stop-opacity:0.9621"/>
		<stop  offset="0.1744" style="stop-color:#FBA9C5;stop-opacity:0.8256"/>
		<stop  offset="0.3171" style="stop-color:#FCC8DA;stop-opacity:0.6829"/>
		<stop  offset="0.4655" style="stop-color:#FDE1EA;stop-opacity:0.5345"/>
		<stop  offset="0.6219" style="stop-color:#FEF2F6;stop-opacity:0.3781"/>
		<stop  offset="0.7918" style="stop-color:#FFFCFD;stop-opacity:0.2082"/>
		<stop  offset="1" style="stop-color:#FFFFFF;stop-opacity:0"/>
	</linearGradient>
	<path class="st5" d="M694.9,98.8c0-0.1,0-0.2,0-0.2c3.2-6.2,6.7-12.3,10.8-18.1c0.9-1.2,1.7-2.5,2.6-3.7
		c24.8-33.9,61.5-55.7,103.1-61.5l6.7-0.9c0,0,0.1,0,0.1,0c0,0,0.1,0,0.1,0c0,0,0.1,0,0.1,0c0,0,0.1,0,0.1,0c0,0,0.1,0,0.1,0
		c0,0,0.1,0,0.1,0l0,0c0,0,0.1,0,0.1,0c21.4-2.9,42.5-1.2,62.1,4.4c-0.7,0.1-1.4,0.2-2.1,0.3l-5.7,0.8c-31.1,4.3-58.9,17.8-80.4,39
		c-15.9,15.7-33.6,41.7-39.1,81.9C735.2,144.8,699,123.7,694.9,98.8z"/>
	<g>
		<g>
			<path class="st4" d="M713.4,217.7c-14.8-2.2-29.6-5.6-44-8.8c-5.1-1.2-10.4-2.4-15.7-3.5c-12-2.6-21.3-3.9-30.1-4.1
				c-12.1-0.4-22,0.8-30.2,3.6c-0.1,0-0.3,0.1-0.4,0.1c-9.5,3.3-19.9,10.9-21.3,22.5c-1.3,11,5.8,19.8,13,26.9
				c12.7,12.7,28.3,24.8,49.3,38.1c18.2,11.6,37.3,21.9,53.8,30.6c2.3,1.2,4.5,2.4,6.8,3.6c1.5,0.8,3.2,0.9,4.7,0.4
				c1.4-0.5,2.6-1.5,3.3-2.9c0.1-0.1,0.1-0.3,0.2-0.4c0-0.7-0.1-1.5-0.1-2.2c0-0.6,0-1.1-0.1-1.7c0,0-0.2-1-0.2-1.1
				c-0.1-0.3-0.1-0.5-0.1-0.8c-0.5-0.8-1.3-1.5-2.2-1.9c-2.3-1.2-4.5-2.4-6.8-3.6c-16.3-8.6-35.1-18.7-52.9-30.1
				C620,269.5,605,257.9,593,245.8c-5.1-5.1-10.3-11.1-9.5-17c0.7-5.8,7.2-10.5,13.4-12.6c0.1,0,0.2-0.1,0.3-0.1
				c6.8-2.3,15.4-3.3,26.1-2.9c8.1,0.2,16.7,1.4,28,3.9c5.2,1.1,10.5,2.3,15.6,3.5c14.6,3.3,29.7,6.7,44.9,9c3.3,0.5,6.3-1.8,6.8-5
				C718.9,221.2,716.6,218.1,713.4,217.7z"/>
		</g>
	</g>
	<g>
		<g>
			<path d="M1101.4,145.9c-5.3-10.4-17.7-13.9-27.8-13.7c-0.1,0-0.3,0-0.4,0c-8.7,0.2-18.3,2.6-29.6,7.1
				c-8.2,3.3-16.5,7.7-26.9,14.3c-4.5,2.9-9.1,5.8-13.5,8.7c-1.4,0.9-2.8,1.8-4.2,2.7c1,4.1,2,8.2,2.9,12.3c2.6-1.7,5.2-3.4,7.8-5
				c4.4-2.8,8.9-5.8,13.4-8.6c9.7-6.2,17.4-10.3,24.9-13.3c9.9-4,18.3-6,25.5-6.2c0.1,0,0.2,0,0.3,0c6.6-0.1,14.3,2.1,16.9,7.2
				c2.7,5.3,0,12.7-3.1,19.3c-7.2,15.5-17.3,31.5-31.8,50.5c-12.8,16.8-27,32.8-39.3,46.5c-0.3,0.3-0.6,0.6-0.8,0.9
				c1.1,4.6,2.4,9.1,3.4,13.7c0.4-0.3,0.8-0.6,1.1-0.9c1.7-1.9,3.4-3.8,5.2-5.7c12.5-13.9,26.8-30.1,39.9-47.3
				c15-19.7,25.5-36.5,33.1-52.7C1102.7,166.4,1106.4,155.7,1101.4,145.9z"/>
		</g>
	</g>
	<g>
		<g>
			<circle class="st3" cx="815.2" cy="143.3" r="15.2"/>
		</g>
	</g>
	<path d="M920.2,166c11.7-7.9,26.8-13.5,43.6-15.4c11.1-1.3,21.8-0.8,31.6,1.2c3.4-7.7,4.9-16.4,3.6-25.4
		c-3.5-25.5-27-43.3-52.5-39.8c-25.5,3.5-43.3,27-39.8,52.5C908.2,149.8,913.1,159.1,920.2,166z"/>
	<g>
		<g>
			<circle class="st3" cx="937.5" cy="123.1" r="15.2"/>
		</g>
	</g>
	<g>
		<g>
			<g>
				<linearGradient id="SVGID_5_" gradientUnits="userSpaceOnUse" x1="777.2072" y1="199.6004" x2="543.2311" y2="164.1239">
					<stop  offset="0" style="stop-color:#F47E55"/>
					<stop  offset="1" style="stop-color:#FFE125"/>
				</linearGradient>
				<path class="st6" d="M505.8,220.4l5.2-3.5c20.4-13.7,41.8-18.8,64.4-24.2c11.3-2.7,23-5.5,35.1-9.5l4.1-1.4l-0.8-4.2
					c-3.9-20.7-11.4-40.4-18.7-59.4l-3.4-8.8l-4.9,2.6c-17.2,9.1-34.8,13.7-53.3,18.6c-16.4,4.3-33.4,8.8-50.2,16.6l-4.4,2l2,4.4
					c5.9,13.2,10.8,27.1,15.5,40.5c2.4,6.8,4.8,13.6,7.4,20.4L505.8,220.4z"/>
			</g>
			<g>
				<path d="M589,116.4c7.8,20.4,15.7,40.7,19.8,62.2c-36,11.9-69.1,13-100.6,34.2c-7.7-20.4-14.1-41.2-23-61.1
					C520.1,135.5,555.6,134.1,589,116.4 M594.3,102.6l-9.8,5.2c-16.7,8.8-34,13.4-52.3,18.2c-16.6,4.4-33.8,8.9-51,16.9l-3.9,1.8
					c-2.7,1.3-3.9,4.4-2.7,7.2l1.7,3.9c5.8,13,10.6,26.8,15.3,40.1c2.4,6.8,4.8,13.7,7.4,20.5l1.9,5.2c1.1,2.8,4.2,4.2,7,3.2
					c0.4-0.1,0.8-0.3,1.1-0.6l4.6-3.1c19.7-13.2,40.6-18.2,62.8-23.5c11.4-2.7,23.2-5.5,35.5-9.6l8.2-2.7l-1.6-8.5
					c-4-21.1-11.6-41-18.9-60.2l-1.4-3.6L594.3,102.6L594.3,102.6z"/>
			</g>
			<g>
				<path class="st7" d="M634.3,221.2l0.5-0.2c2.9-1.3,4.3-5.3,3-8.8l-38-110c-1-2.8-3.4-4.6-5.9-4.4l-1,0.2l-0.5,0.2
					c-1.5,0.7-2.6,2-3.1,3.6c-0.6,1.7-0.6,3.5,0,5.2l38,110c1,2.8,3.4,4.6,5.9,4.4L634.3,221.2z"/>
			</g>
		</g>
		<g>
			<path d="M594.4,102.3c0.9,0,1.7,0.6,1.9,1.4l38,110c0.4,1.1,0,2.3-1,2.8c-0.2,0.1-0.3,0.1-0.5,0.1c-0.9,0-1.7-0.6-1.9-1.4
				l-38-110c-0.4-1.1,0-2.3,1-2.8C594,102.4,594.2,102.4,594.4,102.3 M593.5,93.2c-0.9,0.1-1.8,0.3-2.6,0.7c-2.5,1.2-4.3,3.4-5.2,6
				c-1,2.8-1,5.9,0,8.7l38,110c1.6,4.7,5.7,7.8,9.9,7.4c0.9-0.1,1.8-0.3,2.6-0.7c2.5-1.2,4.3-3.4,5.2-6c1-2.8,1-5.9,0-8.7l-38-110
				C601.8,95.8,597.7,92.7,593.5,93.2L593.5,93.2z"/>
		</g>
	</g>
	<g>
		<path d="M899.5,194.5c-2.1,0-4-0.1-5.8-0.3c-2-0.2-3.6-1.5-4.2-3.4l-8.2-26.6c-0.5-1.6-0.1-3.5,1.1-4.7c1.2-1.3,2.9-1.8,4.6-1.4
			c8.8,2,22.5,3.2,37.5-2.4c9.5-3.5,18.3-9.4,25.3-17l10.3-11.1l-2.4,14.9c-0.9,5.3-6.4,32.6-31.7,45.7
			C916.4,193.2,907,194.5,899.5,194.5z M897.4,185.3c6.6,0.3,15.4-0.6,24.4-5.2c11.9-6.1,18.6-16,22.4-24.5
			c-5.1,3.6-10.7,6.5-16.5,8.6c-13.5,5-26,5.2-35.6,4L897.4,185.3z M885,167C885,167,885,167,885,167C885,167,885,167,885,167z
			 M890.1,161.6L890.1,161.6C890.1,161.6,890.1,161.6,890.1,161.6L890.1,161.6z"/>
	</g>
	<linearGradient id="SVGID_6_" gradientUnits="userSpaceOnUse" x1="912.9438" y1="114.6258" x2="936.9662" y2="332.5431">
		<stop  offset="0.162" style="stop-color:#EC3E3F"/>
		<stop  offset="0.4553" style="stop-color:#EA3F41"/>
		<stop  offset="0.5609" style="stop-color:#E44148"/>
		<stop  offset="0.6362" style="stop-color:#D84453"/>
		<stop  offset="0.697" style="stop-color:#C84964"/>
		<stop  offset="0.7486" style="stop-color:#B4507A"/>
		<stop  offset="0.7581" style="stop-color:#AF517F"/>
	</linearGradient>
	<path class="st8" d="M897.4,185.3c6.6,0.3,15.4-0.6,24.4-5.2c11.9-6.1,18.6-16,22.4-24.5c-5.1,3.6-10.7,6.5-16.5,8.6
		c-13.5,5-26,5.2-35.6,4L897.4,185.3z"/>
	<g>
		<path class="st9" d="M1104.8,149.3c-13.1,7.6-18.6,22.7-12.3,33.7c6.4,11.1,22.2,13.9,35.3,6.4c13.1-7.6,18.6-22.7,12.3-33.7
			C1133.8,144.6,1118,141.7,1104.8,149.3z M1125.8,185.7c-10.8,6.2-23.7,3.9-29-5.2c-5.2-9.1-0.7-21.4,10.1-27.6
			c10.8-6.2,23.7-3.9,28.9,5.2C1141.1,167.2,1136.6,179.6,1125.8,185.7z"/>
	</g>
	<g>
		<path d="M1120.3,145c8.3,0,16,3.7,19.9,10.6c6.4,11.1,0.9,26.2-12.3,33.7c-5,2.9-10.3,4.2-15.4,4.2c-8.4,0-16-3.7-19.9-10.6
			c-6.4-11.1-0.9-26.2,12.3-33.7C1109.8,146.4,1115.2,145,1120.3,145 M1113.2,189.2c4.2,0,8.6-1.1,12.6-3.5
			c10.8-6.2,15.3-18.6,10.1-27.6c-3.2-5.6-9.5-8.7-16.3-8.7c-4.2,0-8.6,1.1-12.6,3.5c-10.8,6.2-15.3,18.6-10.1,27.6
			C1100.1,186.2,1106.3,189.2,1113.2,189.2 M1120.3,135.6c-6.9,0-13.9,1.9-20.1,5.5c-8.3,4.8-14.6,12.1-17.6,20.5
			c-3.3,9-2.6,18.3,1.9,26.2c5.5,9.6,16.1,15.4,28.2,15.4c6.9,0,13.9-1.9,20.1-5.5c17.7-10.2,24.7-31.1,15.8-46.7
			C1142.9,141.3,1132.4,135.6,1120.3,135.6L1120.3,135.6z M1113.2,179.7c-3.7,0-6.7-1.5-8.1-3.9c-2.6-4.4,0.5-11.2,6.6-14.7
			c2.5-1.4,5.2-2.2,7.9-2.2c3.7,0,6.7,1.5,8.1,3.9c2.6,4.4-0.4,11.2-6.6,14.7C1118.6,179,1115.8,179.7,1113.2,179.7L1113.2,179.7z"
			/>
	</g>
	<g>
		<path class="st10" d="M1140.2,196l-12.8,7.3c-3.9,2.2-8.8,0.9-11-3l-2.4-4.2c-2.4-4.1-0.9-9.4,3.2-11.7l11.9-6.8
			c4.1-2.4,9.4-0.9,11.7,3.2l2.4,4.2C1145.4,188.9,1144.1,193.8,1140.2,196z"/>
	</g>
	<g>
		<path d="M1133.1,176.6c3.1,0,6.2,1.6,7.9,4.5l2,3.4c2.3,4.1,0.9,9.3-3.1,11.6l-12,6.9c-1.3,0.8-2.8,1.1-4.2,1.1
			c-3,0-5.8-1.5-7.4-4.3l-2-3.4c-2.5-4.3-1-9.9,3.3-12.4l11.1-6.4C1130.1,177,1131.6,176.6,1133.1,176.6 M1133.1,167.1L1133.1,167.1
			c-3.2,0-6.4,0.9-9.2,2.5l-11.1,6.4c-4.3,2.5-7.4,6.5-8.7,11.3c-1.3,4.8-0.6,9.8,1.8,14.1l2,3.4c3.2,5.6,9.2,9,15.6,9
			c3.1,0,6.2-0.8,9-2.4l12-6.9c4.2-2.4,7.2-6.3,8.4-10.9c1.3-4.6,0.6-9.5-1.8-13.7l-2-3.4C1145.9,170.7,1139.8,167.1,1133.1,167.1
			L1133.1,167.1z"/>
	</g>
	<g>
		<path d="M1210.6,327.9c-1.1,0.7-1.5,2.1-0.9,3.3l6.5,11.2c0.7,1.1,2.1,1.5,3.3,0.9s1.5-2.1,0.9-3.3l-6.5-11.2
			C1213.2,327.6,1211.7,327.2,1210.6,327.9z"/>
		<path d="M1218.2,345.7c-0.4,0-0.8-0.1-1.2-0.2c-1.2-0.3-2.1-1.1-2.7-2.1l-6.5-11.2c-1.2-2.2-0.5-4.9,1.7-6.2l0,0
			c2.1-1.2,4.9-0.5,6.2,1.7l6.5,11.2c0.6,1,0.8,2.3,0.4,3.4c-0.3,1.2-1.1,2.1-2.1,2.7C1219.8,345.5,1219,345.7,1218.2,345.7z
			 M1211.6,329.7c-0.1,0.1-0.2,0.3-0.1,0.4l6.5,11.2c0,0.1,0.1,0.1,0.2,0.1c0.1,0,0.1,0,0.2,0c0.1,0,0.1-0.1,0.1-0.2
			c0-0.1,0-0.1,0-0.2l-6.5-11.2C1211.9,329.7,1211.7,329.6,1211.6,329.7L1211.6,329.7z"/>
	</g>
	<g>
		<path d="M1159.8,344.8c1.3,0.4,2.6-0.3,3-1.6l3.9-12.4c0.4-1.3-0.3-2.6-1.6-3c-1.3-0.4-2.6,0.3-3,1.6l-3.9,12.4
			C1157.8,343.1,1158.5,344.4,1159.8,344.8z"/>
		<path d="M1160.5,347c-0.4,0-0.9-0.1-1.3-0.2c-2.4-0.7-3.7-3.3-3-5.6l3.9-12.4c0.7-2.4,3.3-3.7,5.6-3c2.4,0.7,3.7,3.3,3,5.6
			l-3.9,12.4C1164.2,345.8,1162.4,347,1160.5,347z M1164.3,329.9c-0.1,0-0.2,0.1-0.3,0.2l-3.9,12.4c0,0.1,0,0.3,0.2,0.4
			c0.2,0,0.3,0,0.4-0.2l3.9-12.4C1164.7,330.1,1164.6,329.9,1164.3,329.9C1164.4,329.9,1164.4,329.9,1164.3,329.9z"/>
	</g>
	<g>
		<g>
			<g>
				
					<rect x="1200.2" y="167.5" transform="matrix(0.9738 0.2276 -0.2276 0.9738 71.5678 -270.3861)" class="st11" width="16.3" height="15.3"/>
			</g>
			<g>
				<path class="st9" d="M1226,167l-29.7-6.9c-3.1-0.7-5.1-3.9-4.3-7l0.7-3.1c0.7-3.1,3.9-5.1,7-4.3l29.7,6.9c3.1,0.7,5.1,3.9,4.3,7
					l-0.7,3.1C1232.2,165.8,1229.1,167.8,1226,167z"/>
			</g>
		</g>
		<g>
			<g>
				<path d="M1205.9,168.6l6.7,1.6l-3.1,13.1l-6.7-1.6L1205.9,168.6 M1199.7,158.7l-1.9,8l-3.1,13.1l-1.9,8l8,1.9l6.7,1.6l8,1.9
					l1.9-8l3.1-13.1l1.9-8l-8-1.9l-6.7-1.6L1199.7,158.7L1199.7,158.7z"/>
			</g>
			<g>
				<path d="M1226.7,171.3c-0.6,0-1.2-0.1-1.8-0.3l-29.3-6.8c-2.6-0.6-4.9-2.2-6.3-4.5c-1.4-2.3-1.9-5-1.3-7.7l0.7-2.8
					c1.3-5.4,6.7-8.8,12.2-7.6l29.3,6.8c2.6,0.6,4.9,2.2,6.3,4.5c1.4,2.3,1.9,5,1.3,7.7l-0.7,2.8
					C1235.9,168.3,1231.5,171.5,1226.7,171.3z M1198.6,149.6c-0.9,0-1.7,0.6-1.9,1.5l-0.7,2.8c-0.2,0.7,0.1,1.2,0.2,1.4
					c0.2,0.2,0.5,0.7,1.2,0.8l29.3,6.8l0,0c0.7,0.2,1.2-0.1,1.4-0.2c0.2-0.2,0.7-0.5,0.8-1.2l0.7-2.8c0.2-0.7-0.1-1.2-0.2-1.4
					s-0.5-0.7-1.2-0.8l-29.3-6.8C1198.8,149.6,1198.7,149.6,1198.6,149.6z"/>
			</g>
		</g>
		<g>
			<circle class="st12" cx="1180.8" cy="285.4" r="81.5"/>
		</g>
		<g class="st13">
			<path d="M1153.9,233.2c36.6-18.9,80.8-7.3,103.8,25.4c-1.2-3.5-2.7-7-4.5-10.4c-20.6-40-69.7-55.7-109.7-35.1
				s-55.7,69.7-35.1,109.7c1.8,3.4,3.7,6.6,5.9,9.7C1101.1,294.7,1117.3,252,1153.9,233.2z"/>
		</g>
		<g>
			<path d="M1194,234.6c1.3,0.3,2.5-0.4,2.9-1.7l3.2-12.3c0.3-1.3-0.4-2.5-1.7-2.9c-1.3-0.3-2.5,0.4-2.9,1.7l-3.2,12.3
				C1192,233,1192.8,234.3,1194,234.6z"/>
			<path d="M1194.8,236.7c-0.4,0-0.9,0-1.3-0.1c-2.4-0.6-3.8-3-3.2-5.4l3.2-12.3c0.3-1.1,1-2.1,2-2.7c1-0.6,2.2-0.8,3.3-0.5
				c1.1,0.3,2.1,1,2.7,2c0.6,1,0.8,2.2,0.5,3.3l-3.2,12.3C1198.4,235.3,1196.7,236.6,1194.8,236.7z M1197.8,219.8
				c-0.1,0-0.1,0-0.1,0c-0.1,0-0.1,0.1-0.1,0.2l-3.2,12.3c0,0.1,0.1,0.3,0.2,0.3c0.2,0,0.3-0.1,0.3-0.2l3.2-12.3c0-0.1,0-0.2,0-0.2
				C1198,219.9,1198,219.8,1197.8,219.8C1197.8,219.8,1197.8,219.8,1197.8,219.8z"/>
		</g>
		<g>
			<path d="M1165.8,347.7c1.3,0.3,2.5-0.4,2.9-1.7l3.2-12.3c0.3-1.3-0.4-2.5-1.7-2.9c-1.3-0.3-2.5,0.4-2.9,1.7l-3.2,12.3
				C1163.8,346.1,1164.5,347.4,1165.8,347.7z"/>
			<path d="M1166.6,349.9c-0.4,0-0.9,0-1.3-0.1c-2.4-0.6-3.8-3-3.2-5.4l3.2-12.3c0.3-1.1,1-2.1,2-2.7c1-0.6,2.2-0.8,3.3-0.5
				c1.1,0.3,2.1,1,2.7,2c0.6,1,0.8,2.2,0.5,3.3l-3.2,12.3C1170.1,348.5,1168.5,349.8,1166.6,349.9z M1169.5,332.9
				c-0.1,0-0.1,0-0.1,0c-0.1,0-0.1,0.1-0.1,0.2l-3.2,12.3c0,0.1,0.1,0.3,0.2,0.3c0.2,0,0.3-0.1,0.3-0.2l3.2-12.3c0-0.1,0-0.2,0-0.2
				C1169.8,333,1169.7,333,1169.5,332.9C1169.6,332.9,1169.6,332.9,1169.5,332.9z"/>
		</g>
		<g>
			<path d="M1230.4,294c-0.3,1.3,0.5,2.5,1.7,2.8l12.3,3c1.3,0.3,2.5-0.5,2.8-1.7c0.3-1.3-0.5-2.5-1.7-2.8l-12.3-3
				C1232,291.9,1230.7,292.7,1230.4,294z"/>
			<path d="M1228.3,294.8c0-0.4,0-0.9,0.1-1.3c0.6-2.4,3-3.8,5.3-3.2l12.3,3c1.1,0.3,2.1,1,2.7,2c0.6,1,0.8,2.2,0.5,3.3
				c-0.3,1.1-1,2.1-2,2.7c-1,0.6-2.2,0.8-3.3,0.5l-12.3-3C1229.8,298.3,1228.4,296.7,1228.3,294.8z M1245.3,297.5c0-0.1,0-0.1,0-0.1
				c0-0.1-0.1-0.1-0.2-0.1l-12.3-3c-0.1,0-0.3,0.1-0.3,0.2c0,0.2,0.1,0.3,0.2,0.3l12.3,3c0.1,0,0.2,0,0.2,0
				C1245.2,297.7,1245.3,297.7,1245.3,297.5C1245.3,297.6,1245.3,297.5,1245.3,297.5z"/>
		</g>
		<g>
			<path d="M1116.9,267.4c-0.3,1.3,0.5,2.5,1.7,2.8l12.3,3c1.3,0.3,2.5-0.5,2.8-1.7s-0.5-2.5-1.7-2.8l-12.3-3
				C1118.4,265.4,1117.2,266.2,1116.9,267.4z"/>
			<path d="M1114.8,268.3c0-0.4,0-0.9,0.1-1.3c0.6-2.4,3-3.8,5.3-3.2l12.3,3c1.1,0.3,2.1,1,2.7,2c0.6,1,0.8,2.2,0.5,3.3
				c-0.3,1.1-1,2.1-2,2.7s-2.2,0.8-3.3,0.5l-12.3-3C1116.2,271.8,1114.9,270.1,1114.8,268.3z M1131.7,271c0-0.1,0-0.1,0-0.1
				c0-0.1-0.1-0.1-0.2-0.1l-12.3-3c-0.1,0-0.3,0.1-0.3,0.2c0,0.2,0.1,0.3,0.2,0.3l12.3,3c0.1,0,0.2,0,0.2,0
				C1131.6,271.2,1131.7,271.1,1131.7,271C1131.7,271,1131.7,271,1131.7,271z"/>
		</g>
		<g>
			<path d="M1224.3,256.6c0.7,1.1,2.1,1.5,3.2,0.8l10.8-6.6c1.1-0.7,1.5-2.1,0.8-3.2c-0.7-1.1-2.1-1.5-3.2-0.8l-10.8,6.6
				C1224,254.1,1223.6,255.5,1224.3,256.6z"/>
			<path d="M1223.4,258.7c-0.3-0.3-0.6-0.6-0.8-1c-1.3-2.1-0.6-4.8,1.5-6.1l10.8-6.6c1-0.6,2.2-0.8,3.3-0.5c1.1,0.3,2.1,1,2.7,2
				c0.6,1,0.8,2.2,0.5,3.3c-0.3,1.1-1,2.1-2,2.7l-10.8,6.6C1226.9,260.2,1224.8,260,1223.4,258.7z M1237.3,248.6
				c0,0-0.1-0.1-0.1-0.1c-0.1,0-0.1,0-0.2,0l-10.8,6.6c-0.1,0.1-0.2,0.3-0.1,0.4c0.1,0.1,0.3,0.2,0.4,0.1l10.8-6.6
				c0.1,0,0.1-0.1,0.1-0.2C1237.4,248.9,1237.4,248.8,1237.3,248.6C1237.4,248.7,1237.3,248.7,1237.3,248.6z"/>
		</g>
		<g>
			<path d="M1125,317.9c0.7,1.1,2.1,1.5,3.2,0.8l10.8-6.6c1.1-0.7,1.5-2.1,0.8-3.2c-0.7-1.1-2.1-1.5-3.2-0.8l-10.8,6.6
				C1124.7,315.3,1124.4,316.8,1125,317.9z"/>
			<path d="M1124.1,320c-0.3-0.3-0.6-0.6-0.8-1c-1.3-2.1-0.6-4.8,1.5-6.1l10.8-6.6c1-0.6,2.2-0.8,3.3-0.5c1.1,0.3,2.1,1,2.7,2
				c0.6,1,0.8,2.2,0.5,3.3c-0.3,1.1-1,2.1-2,2.7l-10.8,6.6C1127.6,321.5,1125.5,321.2,1124.1,320z M1138.1,309.9
				c0,0-0.1-0.1-0.1-0.1c-0.1,0-0.1,0-0.2,0l-10.8,6.6c-0.1,0.1-0.2,0.3-0.1,0.4c0.1,0.1,0.3,0.2,0.4,0.1l10.8-6.6
				c0.1,0,0.1-0.1,0.1-0.2C1138.2,310.1,1138.2,310,1138.1,309.9C1138.1,309.9,1138.1,309.9,1138.1,309.9z"/>
		</g>
		<g>
			<path d="M1157.1,239.9c-1.1,0.7-2.5,0.3-3.2-0.8l-6.5-10.9c-0.7-1.1-0.3-2.5,0.8-3.2c1.1-0.7,2.5-0.3,3.2,0.8l6.5,10.9
				C1158.6,237.8,1158.2,239.2,1157.1,239.9z"/>
			<path d="M1152.1,240.1l-6.5-10.9c-0.6-1-0.8-2.2-0.5-3.3c0.3-1.1,1-2.1,2-2.7c1-0.6,2.2-0.8,3.3-0.5c1.1,0.3,2.1,1,2.7,2
				l6.5,10.9c1.2,2.1,0.6,4.8-1.5,6c-0.4,0.2-0.8,0.4-1.2,0.5C1155.1,242.6,1153.2,241.8,1152.1,240.1z M1149.3,226.7
				c-0.1,0-0.1,0.1-0.1,0.2c0,0.1,0,0.1,0,0.2l6.5,10.9c0.1,0.1,0.2,0.2,0.4,0.1c0.1-0.1,0.2-0.2,0.1-0.4l-6.5-10.9
				c0-0.1-0.1-0.1-0.2-0.1C1149.5,226.7,1149.4,226.7,1149.3,226.7C1149.3,226.7,1149.3,226.7,1149.3,226.7z"/>
		</g>
		<g>
			<path d="M1215.9,340.6c-1.1,0.7-2.5,0.3-3.2-0.8l-6.5-10.9c-0.7-1.1-0.3-2.5,0.8-3.2c1.1-0.7,2.5-0.3,3.2,0.8l6.5,10.9
				C1217.4,338.5,1217.1,339.9,1215.9,340.6z"/>
			<path d="M1211,340.8l-6.5-10.9c-0.6-1-0.8-2.2-0.5-3.3c0.3-1.1,1-2.1,2-2.7c1-0.6,2.2-0.8,3.3-0.5c1.1,0.3,2.1,1,2.7,2l6.5,10.9
				c1.2,2.1,0.6,4.8-1.5,6c-0.4,0.2-0.8,0.4-1.2,0.5C1213.9,343.3,1212,342.5,1211,340.8z M1208.1,327.4c-0.1,0-0.1,0.1-0.1,0.2
				c0,0.1,0,0.1,0,0.2l6.5,10.9c0.1,0.1,0.2,0.2,0.4,0.1c0.1-0.1,0.2-0.2,0.1-0.4l-6.5-10.9c0-0.1-0.1-0.1-0.2-0.1
				C1208.3,327.4,1208.2,327.4,1208.1,327.4C1208.2,327.4,1208.1,327.4,1208.1,327.4z"/>
		</g>
		<g>
			<path class="st9" d="M1131.1,189c-53.2,27.4-74.1,92.9-46.7,146.1c27.4,53.2,92.9,74.1,146.1,46.7
				c53.2-27.4,74.1-92.9,46.7-146.1S1184.4,161.6,1131.1,189z M1218.2,357.8c-40,20.6-89.1,4.9-109.7-35.1
				c-20.6-40-4.9-89.1,35.1-109.7s89.1-4.9,109.7,35.1C1273.9,288.1,1258.2,337.2,1218.2,357.8z"/>
		</g>
		<g>
			<path class="st3" d="M1136.6,197c32-16.5,68.1-16.5,98.6-3c-30.4-16.4-68.2-18-101.2-1c-36,18.6-57.3,54.6-58.7,92.4
				C1079.7,248.9,1101.5,215.1,1136.6,197z"/>
		</g>
		<g class="st14">
			<g>
				<path d="M1226.6,374.1c-51.9,26.8-115.5,7.5-144-42.9c0.6,1.3,1.2,2.6,1.9,3.9c27.4,53.2,92.9,74.1,146.1,46.7
					c53.2-27.4,74.1-92.9,46.7-146.1c-0.7-1.3-1.4-2.6-2.1-3.8C1299.7,284.4,1278.5,347.3,1226.6,374.1z"/>
			</g>
		</g>
		<g>
			<path d="M1163.3,250.1c-1.1,0.6-1.6,2-1,3.2l14.8,27.5c-0.9,0.8-1.5,1.9-1.9,3.1c-1.2,3.8,1,7.9,4.9,9c1.2,0.4,2.5,0.4,3.6,0.1
				l6.7,12.5c0.6,1.1,2,1.6,3.2,1c1.1-0.6,1.6-2,1-3.2l-6.8-12.7c0.6-0.7,1.1-1.6,1.4-2.6c1.2-3.8-1-7.9-4.9-9
				c-1-0.3-1.9-0.4-2.9-0.3l-14.9-27.7C1165.9,249.9,1164.4,249.5,1163.3,250.1z"/>
			<path d="M1195.1,307.3c-0.2,0.2-0.5,0.4-0.8,0.6c-1.9,1-4.3,0.3-5.3-1.6l-6.2-11.5c-1.1,0.1-2.2,0-3.2-0.3
				c-2.3-0.7-4.1-2.2-5.2-4.3c-1.1-2.1-1.4-4.5-0.7-6.7c0.3-1.1,0.8-2,1.5-2.9L1161,254c-0.5-0.9-0.6-2-0.3-3c0.3-1,1-1.8,1.9-2.3
				l0,0c1.9-1,4.3-0.3,5.3,1.6l14.4,26.8c0.8,0,1.6,0.1,2.4,0.4c2.3,0.7,4.1,2.2,5.2,4.3c1.1,2.1,1.4,4.5,0.7,6.7
				c-0.2,0.8-0.6,1.5-1,2.2l6.3,11.8c0.5,0.9,0.6,2,0.3,3C1196,306.2,1195.6,306.8,1195.1,307.3z M1163.9,251.6
				c-0.1,0.1-0.2,0.2-0.2,0.3c0,0.1-0.1,0.4,0.1,0.6l15.3,28.5l-0.8,0.8c-0.7,0.7-1.2,1.5-1.5,2.4c-0.4,1.5-0.3,3,0.4,4.3
				c0.7,1.3,1.9,2.3,3.4,2.8c0.9,0.3,1.9,0.3,2.9,0.1l1.1-0.3l7.2,13.5c0.2,0.4,0.7,0.5,1.1,0.3c0.2-0.1,0.3-0.3,0.4-0.5
				c0-0.1,0.1-0.4-0.1-0.6l-7.3-13.6l0.7-0.8c0.5-0.6,0.9-1.3,1.1-2c0.4-1.5,0.3-3-0.4-4.3c-0.7-1.3-1.9-2.3-3.4-2.8
				c-0.7-0.2-1.5-0.3-2.3-0.2l-1,0.1l-15.4-28.6c-0.2-0.4-0.7-0.5-1.1-0.3l0,0C1164,251.5,1163.9,251.6,1163.9,251.6z"/>
		</g>
		<g>
			<path d="M1175.8,398.4c-39.2-1.8-76.3-23.9-95.5-61.1c-28.6-55.4-6.7-123.8,48.7-152.4v0c55.4-28.6,123.8-6.7,152.4,48.7
				c28.6,55.4,6.7,123.8-48.7,152.4C1214.5,395.3,1194.9,399.3,1175.8,398.4z M1133.3,193.2c-50.9,26.2-70.9,89-44.7,139.8
				c17.6,34.2,51.8,54.5,87.7,56.1c17.5,0.8,35.5-2.8,52.1-11.4c50.9-26.2,70.9-89,44.7-139.8C1246.9,187,1184.1,166.9,1133.3,193.2
				L1133.3,193.2z M1177,371.5c-7.5-0.3-15-1.7-22.4-4c-21.9-7-39.8-22.1-50.3-42.6c-10.5-20.4-12.5-43.8-5.5-65.7
				c7-21.9,22.1-39.8,42.6-50.3c42.2-21.8,94.2-5.1,116,37.1c10.5,20.4,12.5,43.8,5.5,65.7c-7,21.9-22.1,39.8-42.6,50.3l0,0
				C1206.7,369,1191.9,372.2,1177,371.5z M1184.2,208.7c-13-0.6-26.2,2.1-38.6,8.5c-18.2,9.4-31.7,25.3-38,44.9
				c-6.2,19.5-4.5,40.4,4.9,58.6c9.4,18.2,25.3,31.7,44.9,38c19.5,6.2,40.4,4.5,58.6-4.9v0c18.2-9.4,31.7-25.3,38-44.9
				c6.2-19.5,4.5-40.4-4.9-58.6C1236.1,224.9,1210.8,209.9,1184.2,208.7z"/>
		</g>
	</g>
</g>
<g>
	<g>
		<g>
			<path class="st15" d="M229.9,674.4c-25.1,0-34.7-17.8-36.1-20.7l-12.7-23.6l-0.2-0.8c-51.7-190.5-45.2-199.1-42.7-202.3
				c1.6-2.1,3.9-3.2,6.5-3.2c1.2,0,3.1,0.3,5.1,1.7c5.7,4.1,16.6,8.5,30.1,8.5c15.3,0,30.4-5.4,44.8-16c37-27.3,97.4-47.8,100-48.7
				l5.9-2l3,5.5c1,1.8,24.4,46.2,51,134.8c4.4,14.6,8.1,26.6,11.2,36.6l0.3,0.8c15.4,49.4,16.6,53.4-0.7,68.9l-1.2,1.1
				c-19.8,17.7-128.7,54.9-156.1,58.9C235.3,674.2,232.5,674.4,229.9,674.4L229.9,674.4z"/>
			<g>
				<path d="M327.1,376.2c0,0,23.7,44.5,50.5,133.5c4.4,14.6,8.1,26.7,11.3,36.7c15.9,51.1,15.5,49.5,0.4,63.1
					c-18.1,16.2-124.3,53-152.2,57.1c-2.5,0.4-4.9,0.5-7.2,0.5c-22.2,0-29.5-16.6-29.5-16.6l-12.4-23c0,0-53.3-196.2-43.4-196.2
					c0.2,0,0.5,0.1,0.8,0.3c6.8,4.9,19.1,9.8,34.4,9.8c14.4,0,31.5-4.4,49.2-17.5C265.7,396.9,327.1,376.2,327.1,376.2 M334.2,358.2
					l-11.9,4c-2.6,0.9-64,21.7-102,49.8c-13.1,9.7-26.7,14.6-40.4,14.6c-11.7,0-21-3.7-25.8-7.1c-2.8-2-6.1-3.1-9.4-3.1
					c-4.9,0-9.4,2.2-12.4,6.1c-5.2,6.8-8.6,11.2,16.8,113.8c11.7,47.5,24.5,94.5,24.6,94.9l0.4,1.6l0.8,1.5l12.1,22.6
					c4.5,9.6,18.1,24.9,42.7,24.9c3,0,6.1-0.2,9.3-0.7c28.7-4.2,138.8-41.8,159.9-60.7l1.2-1.1c20.9-18.6,18.5-26.4,2.9-76.6
					L403,542c-3.3-10.7-7-22.4-11.2-36.6c-26.9-89.4-50.6-134.3-51.6-136.2L334.2,358.2L334.2,358.2z"/>
			</g>
		</g>
		<g>
			<path class="st16" d="M398.9,598.3c0.5-5.6-0.7-11.9-2-12.7c-0.2,0-0.3,0-0.5,0c-0.2,0-0.4,0-0.6,0c-22.7,3.7-30.5,8.6-38,13.4
				c-6.6,4.1-13.4,8.4-27.8,10.9c-2.9,0.5-5.9,0.8-8.7,0.8c0,0,0,0,0,0c-42.9,0-55.4-55.2-55.9-57.5c-1.5-5.8-0.4-12.2,3.3-18.1
				c19.2-30.6,112.2-49.1,122.7-51.1l6.6-1.3l1.9,6.5c0.2,0.5,15.7,54.2,21.9,77.9c7.7,29.8-11.8,38.5-12.6,38.8l-11.5,4.9
				L398.9,598.3z"/>
			<path d="M392.7,491.1c0,0,15.6,53.8,21.8,77.7c6.2,24-8.3,30.2-8.3,30.2s2.1-20.9-9.8-20.9c-0.6,0-1.2,0.1-1.9,0.2
				c-43.7,7.2-36.9,19.3-65.9,24.3c-2.6,0.4-5.1,0.6-7.4,0.6c-37.5,0-48.7-51.7-48.7-51.7C263.1,515.9,392.7,491.1,392.7,491.1
				 M403.2,474l-13.2,2.5c-17.7,3.4-107.1,21.9-127.6,54.5c-4.8,7.6-6.2,15.9-4.2,23.9c0.6,2.4,3.9,16.1,11.9,29.8
				c12.6,21.7,30.3,33.2,51.2,33.2c3.2,0,6.6-0.3,9.9-0.9c15.9-2.7,23.7-7.6,30.5-11.9c6.6-4.1,12.8-8.1,29.8-11.4
				c0.1,1.3,0.1,2.6,0,3.7l-2.2,24.6l22.7-9.6c9.1-3.9,24.3-18.8,16.8-47.5c-6.2-23.9-21.3-76-22-78.2L403.2,474L403.2,474z"/>
		</g>
		<path class="st16" d="M209.1,598c4-0.3,32.6,3,34.7,12l6.1,34.3c0,0-0.1,0.1-0.3,0.2c-1.3,0.7-6.7,3-21.6,1.7
			c-17.6-1.5-19.9,7-18.3,11.4c1.6,4.4,7,7.1,7,7.1s-8.4,0.1-16.7-15.1c-8.2-15.3-13.2-26.7-13.2-26.7S205.1,598.3,209.1,598z"/>
		<g>
			<linearGradient id="SVGID_7_" gradientUnits="userSpaceOnUse" x1="73.4886" y1="358.7313" x2="169.782" y2="671.2626">
				<stop  offset="9.688428e-02" style="stop-color:#A0E9FE"/>
				<stop  offset="1" style="stop-color:#46CFF7"/>
			</linearGradient>
			<path class="st17" d="M92.3,701.3c-1.2,0-2.4,0-3.6-0.1c-18.8-1.1-26.6-2.3-28.4-9.5c-1.6-6.5,4.1-10,8.3-12.5l2-1.2
				c2.7-2,12.5-16.3,21.1-35.9l7.2-18.7c3.6-11,5.8-21.5,6.4-30.7c1.2-18.9-0.5-30.5-5.1-35.5c-1.7-1.8-4.9-4.1-13.6-4.1
				c-1.4,0-2.9,0.1-4.5,0.2c-5.5,0.4-12.5,1.1-19.8,1.9c-13.6,1.4-27.6,2.9-37.2,2.9c0,0-0.1,0-0.1,0c-5.4,0-14.4,0-16.9-6.9
				c-0.8-2.2-1.4-6.7,4-11.1c7.7-6.4,23-38.5,37.9-79.9c4.3-12,12.2-23.3,22.7-32.9l3.4-3.1l9.1,3.5v-10.1l3.7-2.1
				c13.6-7.8,28.9-12.1,44.3-12.4c1.5,0,3,0,4.3,0c32.6,0,37.9,9.6,59.8,49.9c3.5,6.5,7.5,13.8,12.2,22.2
				c5.5,9.8,10.9,19.3,16.2,28.6c30.6,53.5,54.8,95.8,46.6,122.2c-6.8,22-23.8,27.9-32.7,27.9c-8.4,0-10.6-4.7-11.2-6.7
				c-0.8-3-0.2-7.1,4.3-9.8c0.5-0.3,1.2-0.9,1.6-2.4c0.4-1.8,0-3.7-0.3-4.7c-3.5-1.8-8.6-3.7-14.9-3.7c-12.1,0-23.8,6.9-35,20.5
				C162.6,673.3,127.2,701.3,92.3,701.3z"/>
			<g>
				<path class="st18" d="M280.5,594c-4.8,1.4-9.5,2.8-14.3,4.2c0.8,5.9,0.6,11.1-0.8,15.6c-5.6,17.9-18.9,22.7-25.7,22.7
					c-3.6,0-5.4-1.4-3-2.9c8.1-5,5.2-17.5,2.1-19.3c-5.2-2.9-11.9-5.2-19.6-5.2c-12,0-26.3,5.6-40.7,23.2
					c-22.8,27.8-56.3,51.6-86.2,51.6c-1.1,0-2.1,0-3.2-0.1c-30.6-1.8-22.1-4.8-14.6-9.6c2-1.2,5.3-5.4,9.3-11.5c-3,0.2-6,0.3-9,0.5
					c-6.4,6.9-12.1,14.4-17.7,22c-0.8,1-1.7,1.7-2.7,2c4.9,9.6,17.8,10.4,33.8,11.3c1.3,0.1,2.7,0.1,4.1,0.1c37.5,0,75-29.5,97.7-57
					c9.7-11.8,19.5-17.8,29.3-17.8c2,0,3.8,0.3,5.5,0.6c-3.5,4-4.8,9.4-3.3,14.6c1.7,5.8,7.3,12.1,18.3,12.1
					c14.7,0,32.7-10.2,39.8-33.1C281.7,611,281.9,602.9,280.5,594z"/>
			</g>
			<path d="M137.5,410.4c32.8,0,31.8,7.9,65.6,68.3c35.2,62.9,70.8,117.4,62.3,145c-5.6,17.9-18.9,22.7-25.7,22.7
				c-3.6,0-5.4-1.4-3-2.9c8.1-5,5.2-17.5,2.1-19.3c-5.2-2.9-11.9-5.2-19.6-5.2c-12,0-26.3,5.6-40.7,23.2
				c-22.8,27.8-56.3,51.6-86.2,51.6c-1.1,0-2.1,0-3.2-0.1C58.4,692,67,689,74.5,684.2c4.2-2.7,14.9-18.7,23.9-39.2l7.3-19
				c3.6-10.9,6.2-22.2,6.9-32.9c2.3-36.2-5.3-47.5-26.1-47.5c-1.6,0-3.3,0.1-5,0.2c-15.5,1.1-42,4.7-56.5,4.7
				c-8.5,0-12.8-1.2-8.3-4.9c12.1-10,30.6-56.7,40.2-83.1c3.9-10.7,11.1-21.2,20.8-29.9l14.9,5.7v-16.6
				c11.8-6.8,25.6-11.1,40.7-11.4C134.7,410.4,136.1,410.4,137.5,410.4 M137.5,395.6c-1.4,0-2.9,0-4.5,0
				c-16.6,0.3-33.2,4.9-47.8,13.3l-7.4,4.3v3.6l-3.3-1.3l-6.7,6.1c-11.4,10.4-20,22.8-24.7,35.9c-16,44.2-30.1,72.1-35.7,76.7
				c-9.4,7.8-7.1,16.7-6.2,19.3c4.3,11.8,18.1,11.8,24,11.8c10,0,24.2-1.5,38-2.9c7.3-0.8,14.2-1.5,19.6-1.9c1.4-0.1,2.7-0.2,4-0.2
				c2.4,0,6.7,0.2,8.2,1.8c1.4,1.5,4.6,7.5,3.1,30c-0.5,8.5-2.6,18.2-6.1,28.9l-7.1,18.3c-7.7,17.5-16,29.8-18.8,32.7
				c-0.4,0.3-0.9,0.5-1.3,0.8c-4.4,2.6-14.5,8.8-11.6,20.6c3.3,13.2,17.3,14,35.2,15.1c1.3,0.1,2.7,0.1,4.1,0.1
				c37.5,0,75-29.5,97.7-57c9.7-11.8,19.5-17.8,29.3-17.8c2,0,3.8,0.3,5.5,0.6c-3.5,4-4.8,9.4-3.3,14.6c1.7,5.8,7.3,12.1,18.3,12.1
				c14.7,0,32.7-10.2,39.8-33.1c9.1-29.4-15.8-72.9-47.3-128.1c-5.3-9.3-10.8-18.8-16.2-28.5c-4.7-8.3-8.7-15.7-12.2-22.1
				C181.3,408.1,174.5,395.6,137.5,395.6L137.5,395.6z"/>
		</g>
		<g>
			<path class="st15" d="M1538.1,674.4c-2.7,0-5.4-0.2-8.2-0.6c-27.4-4-136.2-41.1-156.1-58.9l-1.2-1.1
				c-17.4-15.5-16.1-19.5-0.8-68.8l0.3-0.8c3.2-10.2,6.9-22.2,11.2-36.6c26.6-88.7,50-133,51-134.8l3-5.5l5.9,2
				c2.6,0.9,62.9,21.4,100,48.7c14.4,10.6,29.5,16,44.8,16c13.5,0,24.4-4.4,30.1-8.5c2-1.4,3.9-1.7,5.1-1.7c2.5,0,4.9,1.2,6.5,3.2
				c2.5,3.2,9,11.8-42.7,202.3l-0.2,0.8l-12.7,23.6C1572.8,656.7,1563.2,674.4,1538.1,674.4z"/>
			<g>
				<path d="M1440.9,376.2c0,0,61.4,20.7,97.9,47.6c17.7,13.1,34.8,17.5,49.2,17.5c15.3,0,27.6-5,34.4-9.8c0.3-0.2,0.6-0.3,0.8-0.3
					c9.9,0-43.4,196.2-43.4,196.2l-12.4,23c0,0-7.2,16.6-29.5,16.6c-2.2,0-4.6-0.2-7.2-0.5c-27.9-4-134.1-40.9-152.2-57.1
					c-15.1-13.5-15.5-12,0.4-63.1c3.1-10,6.9-22.1,11.3-36.7C1417.2,420.7,1440.9,376.2,1440.9,376.2 M1433.8,358.2l-5.9,11.1
					c-1,1.9-24.7,46.8-51.6,136.2c-4.3,14.3-8,26.1-11.1,36l-0.2,0.5l-0.3,0.8c-15.6,50.2-18,57.9,2.9,76.6l1.2,1.1
					c21.1,18.9,131.3,56.5,159.9,60.7c3.2,0.5,6.3,0.7,9.3,0.7c24.6,0,38.3-15.3,42.7-24.9l12.1-22.6l0.8-1.5l0.4-1.6
					c0.1-0.5,12.9-47.5,24.6-94.9c25.4-102.6,22-107.1,16.8-113.8c-3-3.9-7.5-6.1-12.4-6.1c-3.3,0-6.6,1.1-9.4,3.1
					c-4.8,3.4-14.1,7.1-25.8,7.1c-13.7,0-27.3-4.9-40.4-14.6c-38-28-99.4-48.9-102-49.8L1433.8,358.2L1433.8,358.2z"/>
			</g>
		</g>
		<g>
			<path class="st16" d="M1368.9,609.8c-0.8-0.4-20.3-9-12.6-38.8c6.2-23.8,21.7-77.4,21.9-78l1.9-6.5l6.6,1.3
				c10.5,2,103.5,20.6,122.7,51.1c3.7,5.9,4.8,12.3,3.2,18.4c-0.4,2-12.9,57.2-55.8,57.2c-2.8,0-5.7-0.3-8.7-0.8
				c-14.4-2.5-21.2-6.7-27.8-10.9c-7.5-4.7-15.4-9.6-38-13.4c-0.2,0-0.5-0.1-0.7-0.1c-1.7,0.8-2.9,7.2-2.4,12.8l1.2,12.4
				L1368.9,609.8z"/>
			<path d="M1385.4,495.1c0,0,129.6,24.8,120.1,60.4c0,0-11.2,51.7-48.7,51.7c-2.4,0-4.8-0.2-7.4-0.6c-29-4.9-22.2-17.1-65.9-24.3
				c-0.7-0.1-1.3-0.2-1.9-0.2c-11.8,0-9.8,20.9-9.8,20.9s-14.5-6.2-8.3-30.2C1369.7,548.8,1385.4,495.1,1385.4,495.1 M1374.9,478
				l-3.8,12.9c-0.6,2.2-15.8,54.3-22,78.2c-7.4,28.7,7.8,43.6,16.8,47.5l23,9.8l-2.5-24.9c-0.1-1.1-0.1-2.4,0-3.7
				c17,3.3,23.3,7.2,29.8,11.4c6.9,4.3,14.7,9.2,30.5,11.9c3.3,0.6,6.7,0.9,9.9,0.9c20.9,0,38.6-11.5,51.2-33.2
				c7.9-13.7,11.3-27.3,11.9-29.8c2.1-8.1,0.6-16.4-4.2-23.9c-20.5-32.5-109.9-51.1-127.6-54.5L1374.9,478L1374.9,478z"/>
		</g>
		<path class="st16" d="M1558.9,598c-4-0.3-32.6,3-34.7,12l-6.1,34.3c0,0,0.1,0.1,0.3,0.2c1.3,0.7,6.7,3,21.6,1.7
			c17.6-1.5,19.9,7,18.3,11.4c-1.6,4.4-7,7.1-7,7.1s8.4,0.1,16.7-15.1c8.2-15.3,13.2-26.7,13.2-26.7S1562.9,598.3,1558.9,598z"/>
		<g>
			<linearGradient id="SVGID_8_" gradientUnits="userSpaceOnUse" x1="1534.7147" y1="395.6027" x2="1676.6208" y2="686.1722">
				<stop  offset="9.688428e-02" style="stop-color:#A0E9FE"/>
				<stop  offset="1" style="stop-color:#46CFF7"/>
			</linearGradient>
			<path class="st19" d="M1675.7,701.3c-34.9,0-70.4-28.1-91.9-54.3c-11.2-13.6-22.9-20.5-35-20.5c-6.2,0-11.4,1.9-14.9,3.7
				c-0.3,1-0.7,2.9-0.3,4.7c0.3,1.5,1,2,1.6,2.4c4.4,2.7,5.1,6.9,4.3,9.8c-0.6,2-2.8,6.7-11.2,6.7c-8.9,0-25.9-5.9-32.7-27.9
				c-8.2-26.3,16-68.6,46.6-122.2c5.3-9.3,10.8-18.9,16.2-28.6c4.7-8.4,8.7-15.7,12.2-22.2c22-40.3,27.2-49.9,59.8-49.9
				c1.4,0,2.8,0,4.3,0c15.4,0.3,30.7,4.5,44.3,12.4l3.7,2.1v10.1l9.1-3.5l3.4,3.1c10.6,9.6,18.4,20.9,22.7,32.9
				c15,41.4,30.2,73.5,37.9,79.9c5.3,4.4,4.8,8.8,4,11.1c-2.5,6.9-11.6,6.9-17,6.9c-9.6,0-23.7-1.5-37.2-2.9
				c-7.3-0.8-14.2-1.5-19.8-1.9c-1.6-0.1-3.1-0.2-4.5-0.2c-8.7,0-11.9,2.4-13.6,4.1c-4.7,5-6.3,16.6-5.1,35.5
				c0.6,9.2,2.8,19.7,6.5,31l7.2,18.7c8.5,19.3,18.3,33.5,21.1,35.7l1.9,1.2c4.2,2.5,9.9,6,8.3,12.5c-1.8,7.2-9.6,8.4-28.4,9.5
				C1678.2,701.3,1677,701.3,1675.7,701.3C1675.7,701.3,1675.7,701.3,1675.7,701.3z"/>
			<path class="st18" d="M1488.1,596.4c4.8,1.4,9.5,2.8,14.3,4.2c-0.8,5.9-0.6,11.1,0.8,15.6c5.6,17.9,18.9,22.7,25.7,22.7
				c3.6,0,5.4-1.4,3-2.9c-8.1-5-5.2-17.5-2.1-19.3c5.2-2.9,11.9-5.2,19.6-5.2c12,0,26.3,5.6,40.7,23.2
				c22.8,27.8,56.3,51.6,86.2,51.6c1.1,0,2.1,0,3.2-0.1c30.6-1.8,22.1-4.8,14.6-9.6c-2-1.2-5.3-5.4-9.3-11.5c3,0.2,6,0.3,9,0.5
				c6.4,6.9,12.1,14.4,17.7,22c0.8,1,1.7,1.7,2.7,2c-4.9,9.6-17.8,10.4-33.8,11.3c-1.3,0.1-2.7,0.1-4.1,0.1c-37.5,0-75-29.5-97.7-57
				c-9.7-11.8-19.5-17.8-29.3-17.8c-2,0-3.8,0.3-5.5,0.6c3.5,4,4.8,9.4,3.3,14.6c-1.7,5.8-7.3,12.1-18.3,12.1
				c-14.7,0-32.7-10.2-39.8-33.1C1486.8,613.4,1486.6,605.3,1488.1,596.4z"/>
			<path d="M1630.5,410.4c1.3,0,2.8,0,4.2,0c15.1,0.2,28.9,4.6,40.7,11.4v16.6l14.9-5.7c9.7,8.7,16.9,19.2,20.8,29.9
				c9.5,26.4,28.1,73.1,40.2,83.1c4.5,3.7,0.1,4.9-8.3,4.9c-14.4,0-40.9-3.6-56.5-4.7c-1.8-0.1-3.4-0.2-5-0.2
				c-20.8,0-28.4,11.4-26.1,47.5c0.7,10.7,3.3,22,6.9,32.9l7.3,19c9,20.4,19.7,36.5,23.9,39.2c7.5,4.8,16.1,7.8-14.6,9.6
				c-1.1,0.1-2.1,0.1-3.2,0.1c-29.9,0-63.4-23.9-86.2-51.6c-14.4-17.6-28.7-23.2-40.7-23.2c-7.6,0-14.3,2.3-19.6,5.2
				c-3.1,1.8-6,14.2,2.1,19.3c2.4,1.5,0.6,2.9-3,2.9c-6.8,0-20.1-4.8-25.7-22.7c-8.5-27.6,27.1-82.1,62.3-145
				C1598.7,418.3,1597.7,410.4,1630.5,410.4 M1630.5,395.6L1630.5,395.6c-37,0-43.8,12.5-66.3,53.8c-3.5,6.4-7.5,13.8-12.2,22.1
				c-5.4,9.7-10.9,19.3-16.2,28.5c-31.5,55.1-56.4,98.6-47.3,128.1c7.1,22.9,25.1,33.1,39.8,33.1c11,0,16.7-6.2,18.3-12.1
				c1.5-5.2,0.2-10.6-3.3-14.6c1.7-0.4,3.5-0.6,5.5-0.6c9.7,0,19.6,6,29.3,17.8c22.6,27.6,60.2,57,97.6,57c1.4,0,2.7,0,4.1-0.1
				c17.8-1,31.9-1.9,35.2-15.1c2.9-11.8-7.3-18-11.6-20.6c-0.4-0.3-0.8-0.5-1.3-0.8c-2.9-3-11.1-15.3-18.8-32.7l-7.1-18.3
				c-3.5-10.6-5.5-20.3-6.1-28.9c-1.5-22.5,1.7-28.5,3.1-30c1.5-1.6,5.8-1.8,8.2-1.8c1.3,0,2.6,0.1,4,0.2c5.4,0.4,12.3,1.1,19.6,1.9
				c13.8,1.4,28,2.9,38,2.9c5.9,0,19.7,0,24-11.8c0.9-2.6,3.2-11.5-6.2-19.3c-5.6-4.7-19.7-32.5-35.7-76.7
				c-4.7-13.1-13.3-25.5-24.7-35.9l-6.7-6.1l-3.3,1.3v-3.6l-7.4-4.3c-14.7-8.5-31.2-13.1-47.8-13.3
				C1633.4,395.6,1631.9,395.6,1630.5,395.6L1630.5,395.6z"/>
		</g>
		<g>
			<g>
				<g>
					<g>
						<linearGradient id="SVGID_9_" gradientUnits="userSpaceOnUse" x1="882.3685" y1="958.2451" x2="882.3685" y2="204.3067">
							<stop  offset="0" style="stop-color:#F47E55"/>
							<stop  offset="1" style="stop-color:#FFE125"/>
						</linearGradient>
						<path class="st20" d="M301,602.6c-12.3,0-21.9-15-23.7-18l-0.3-0.5l-0.2-0.5c-2.3-6.1-5.7-13.8-9.5-22.7
							c-20.2-46.8-54-125.1-34-174.3c21.9-53.9,94.4-62.6,147.3-68.9c5.4-0.6,10.6-1.3,15.6-1.9l4.4-0.6l2.2,3.8
							c3.6,6,6.3,12.2,8.9,18.3c2.3-6.4,4.5-12.7,6.8-18.9l1.6-4.3l7.9,0c73.6,0,148.4,3.8,220.7,7.4c70.6,3.5,143.6,7.2,215.1,7.3
							l5.8,0c95.5,0,191.8-5.1,285-10c57.7-3.1,117.3-6.2,176.2-8.1c0,0,35.4-0.4,45.2-0.4c56.9,0,146,26.6,156.1,68.3
							c17.2,70.5-11.4,172.4-46.5,209.8l-2.3,2.5l-61.3-7.7c-9.5-1.5-18.6-3-27.7-4.5c-43.2-7.2-84-13.9-134.6-13.9
							c-40.8,0-84.3,4.5-132.9,13.8c-61.8,11.8-144.7,18-239.8,18c-108.2,0-219.3-8.3-304.9-22.8l-1.2-0.2l-1-0.6
							c-4.7-2.7-7.8-5.7-9.9-8.7c-0.1,0.5-2.7,8.6-2.7,8.6l-6.8-3c-12.8-5.7-27.8-8.3-47.1-8.3c-12.6,0-25.6,1.1-38.1,2.2
							c-12.5,1.1-24.3,2.1-35.7,2.1c-2.5,0-5,0-7.4-0.2c-1.7-0.1-3.5-0.1-5.3-0.1c-37.4,0-93.2,16.2-117.1,34
							C307.4,601.5,304.4,602.6,301,602.6z"/>
						<linearGradient id="SVGID_10_" gradientUnits="userSpaceOnUse" x1="887.5496" y1="958.2451" x2="887.5496" y2="204.3067">
							<stop  offset="0" style="stop-color:#F47E55"/>
							<stop  offset="1" style="stop-color:#FFE125"/>
						</linearGradient>
						<path class="st21" d="M1413.8,339.8c24.2,0.9,59.5,2.6,95,22c5.6,3.1,13.9,8,23.2,15.4c-11.5-41-99.5-67.1-155.8-67.1
							c-9.9,0-45.2,0.4-45.2,0.4c-59,1.9-118.6,5.1-176.2,8.1c-93.2,4.9-189.6,10-285,10l-5.8,0c-71.5-0.2-144.5-3.8-215.1-7.3
							c-72.4-3.6-147.2-7.4-220.7-7.4l-7.9,0l-1.6,4.3c-2.3,6.2-4.6,12.6-6.8,18.9c-2.6-6.1-5.3-12.3-8.9-18.3l-2.2-3.8l-4.4,0.6
							c-4.9,0.6-10.1,1.3-15.6,1.9c-46.7,5.6-108.6,12.9-137.6,51.6c28.3-8.1,63.4-16.7,103.7-23.5c141-23.7,229.9-5.6,402,2
							c100.5,4.4,172.6,2.8,279,0c121-3.2,242.1-3,363-8C1392.7,339.7,1401.7,339.4,1413.8,339.8z"/>
						<linearGradient id="SVGID_11_" gradientUnits="userSpaceOnUse" x1="888.2969" y1="958.2451" x2="888.2969" y2="204.3067">
							<stop  offset="0" style="stop-color:#F47E55"/>
							<stop  offset="1" style="stop-color:#FFE125"/>
						</linearGradient>
						<path class="st22" d="M1481.4,572.3c-0.1,0.2-0.3,0.3-0.4,0.5l-1.1-0.1c-0.7,0.1-1.4,0-2-0.2l-54.9-6.9
							C1369.3,557,1321.8,547,1260,547c-37.8,0-81,3.8-134.2,13.9c-64,12.2-149.4,17.9-238.6,17.9c-106,0-217.2-8-303.8-22.7
							c-15.2-8.7-7.9-18.8-13.8-29.6c-1.7,8.8-3.4,17.3-6.1,26.2c-15.5-6.9-32.5-8.9-49.8-8.9c-25.2,0-51,4.3-73.8,4.3
							c-2.4,0-4.8,0-7.1-0.2c-1.8-0.1-3.7-0.1-5.6-0.1c-39.7,0-97,17.4-121.1,35.4c-1.7,1.3-3.5,1.8-5.2,1.8c-0.9,0-1.9-0.2-2.8-0.4
							c-6.3,0.3-12.5-3.2-17.1-7.7c-2.2-2.1-4.1-4.4-6.1-6.7c-1.8,0.7-3.6,1.5-5.4,2.2c0.4,0.9,0.7,1.8,1,2.6l0.4,1.1l0.6,1
							c3,5,13.9,21.3,29.4,21.3c4.7,0,9.3-1.5,13.2-4.5c20.2-15.1,74-32.7,113.1-32.7c1.7,0,3.4,0,5,0.1c2.5,0.1,5.1,0.2,7.7,0.2
							c11.7,0,24.2-1.1,36.3-2.1c12.4-1.1,25.2-2.2,37.5-2.2c18.3,0,32.4,2.5,44.4,7.7l13.7,6.1l1.7-5.4c1.1,0.7,2.2,1.5,3.4,2.2
							l2,1.2l2.3,0.4c85.9,14.5,197.4,22.9,306,22.9c95.5,0,178.9-6.3,241.1-18.1c48.2-9.2,91.3-13.7,131.7-13.7
							c50,0,90.5,6.7,133.5,13.8c9.1,1.5,18.2,3,27.5,4.5l0.2,0l0.2,0l57.9,7.3l6.7,0.8l4.6-4.9c5.6-6,11.1-13.6,16.3-22.4
							C1499,564.6,1490.6,569.1,1481.4,572.3z"/>
					</g>
				</g>
			</g>
		</g>
	</g>
	<path d="M1376.2,316.8c53.4,0,140.5,25.6,149.7,63.2c16.1,66-9.9,166.5-44.9,203.7l-57.9-7.3c-53.8-8.5-101.3-18.5-163.1-18.5
		c-37.8,0-81,3.8-134.2,13.9c-64,12.2-149.4,17.9-238.6,17.9c-106,0-217.2-8-303.8-22.7c-15.2-8.7-7.9-18.8-13.8-29.6
		c-1.7,8.8-3.4,17.3-6.1,26.2c-15.5-6.9-32.5-8.9-49.8-8.9c-25.2,0-51,4.3-73.8,4.3c-2.4,0-4.8,0-7.1-0.2c-1.8-0.1-3.7-0.1-5.6-0.1
		c-39.7,0-97,17.4-121.1,35.4c-1.7,1.3-3.5,1.8-5.2,1.8c-9.1,0-18-14.8-18-14.8c-14.7-38-66.2-136.4-43.6-192
		c22.6-55.6,105.6-59.9,157.6-66.7c6.3,10.7,10,22.1,15.3,33.1c4.1-11.6,8.2-23.4,12.4-34.8c1.1,0,2.2,0,3.3,0
		c145.2,0,290.8,14.4,435.8,14.7c1.9,0,3.9,0,5.8,0C1024.3,335.4,1367.1,316.8,1376.2,316.8 M1376.2,303.5
		c-10.4,0-33.5,0.1-33.5,0.1l-12,0.4c-59,1.9-118.7,5.1-176.3,8.1c-93.1,4.9-189.4,10-284.7,10l-5.8,0
		c-71.4-0.2-144.3-3.8-214.8-7.3c-72.4-3.6-147.3-7.4-221.1-7.4l-3.3,0l-9.3,0l-3.2,8.7c-0.5,1.2-0.9,2.5-1.4,3.8
		c-0.7-1.4-1.5-2.8-2.3-4.2l-4.5-7.6l-8.7,1.1c-4.9,0.6-10.1,1.3-15.5,1.9c-54.6,6.5-129.3,15.4-152.7,73
		c-21,51.7,13.5,131.7,34.1,179.4c3.8,8.8,7.1,16.5,9.4,22.4l0.4,1.1l0.6,1c3,5,13.9,21.3,29.4,21.3c4.7,0,9.3-1.5,13.2-4.5
		c20.2-15.1,74-32.7,113.1-32.7c1.7,0,3.4,0,5,0.1c2.5,0.1,5.1,0.2,7.7,0.2c11.7,0,24.2-1.1,36.3-2.1c12.4-1.1,25.2-2.2,37.5-2.2
		c18.3,0,32.4,2.5,44.4,7.7l13.7,6.1l1.7-5.4c1.1,0.7,2.2,1.5,3.4,2.2l2,1.2l2.3,0.4c85.9,14.5,197.4,22.9,306,22.9
		c95.5,0,178.9-6.3,241.1-18.1c48.2-9.2,91.3-13.7,131.7-13.7c50,0,90.5,6.7,133.5,13.8c9.1,1.5,18.2,3,27.5,4.5l0.2,0l0.2,0
		l57.9,7.3l6.7,0.8l4.6-4.9c36.2-38.6,65.8-143.5,48.1-215.9C1526.9,328,1428.1,303.5,1376.2,303.5L1376.2,303.5z"/>
</g>
<g>
	<g>
		<path class="st23" d="M229.7,673.9c-25.1,0-34.7-17.8-36.1-20.7L181,629.6l-0.2-0.8c-51.7-190.6-45.2-199.2-42.7-202.4
			c1.6-2.1,3.9-3.2,6.5-3.2c1.2,0,3.1,0.3,5.1,1.7c5.7,4.1,16.6,8.5,30.1,8.5c15.3,0,30.4-5.4,44.8-16c37.1-27.3,97.4-47.8,100-48.7
			l5.9-2l3,5.5c1,1.8,24.4,46.2,51,134.8c4.4,14.6,8.1,26.6,11.2,36.6l0.3,0.8c15.4,49.4,16.6,53.4-0.7,68.9l-1.2,1.1
			c-19.8,17.7-128.7,54.9-156.1,58.9C235.2,673.7,232.4,673.9,229.7,673.9L229.7,673.9z"/>
		<g>
			<path d="M327,375.6c0,0,23.7,44.5,50.5,133.5c4.4,14.6,8.1,26.7,11.3,36.7c15.9,51.1,15.5,49.5,0.4,63.1
				c-18.1,16.2-124.3,53-152.2,57.1c-2.5,0.4-4.9,0.5-7.2,0.5c-22.2,0-29.5-16.6-29.5-16.6l-12.4-23c0,0-53.3-196.3-43.4-196.3
				c0.2,0,0.5,0.1,0.8,0.3c6.8,4.9,19.1,9.8,34.4,9.8c14.4,0,31.5-4.4,49.2-17.5C265.5,396.3,327,375.6,327,375.6 M334.1,357.6
				l-11.9,4c-2.6,0.9-64,21.7-102,49.8c-13.1,9.7-26.7,14.6-40.4,14.6c-11.7,0-21-3.7-25.8-7.1c-2.8-2-6.1-3.1-9.4-3.1
				c-4.9,0-9.4,2.2-12.4,6.1c-5.2,6.8-8.6,11.2,16.8,113.9c11.7,47.5,24.5,94.5,24.6,95l0.4,1.6l0.8,1.5l12.1,22.6
				c4.5,9.6,18.1,24.9,42.7,24.9c3,0,6.1-0.2,9.3-0.7c28.7-4.2,138.9-41.8,160-60.7l1.2-1.1c20.9-18.6,18.5-26.4,2.9-76.6l-0.3-0.8
				c-3.3-10.7-7-22.4-11.2-36.6C364.8,415.5,341,370.5,340,368.6L334.1,357.6L334.1,357.6z"/>
		</g>
	</g>
	<g>
		<path class="st24" d="M398.8,597.7c0.5-5.6-0.7-11.9-2.1-12.7c-0.2,0-0.3,0-0.5,0c-0.2,0-0.4,0-0.6,0c-22.7,3.7-30.5,8.6-38,13.4
			c-6.6,4.1-13.4,8.4-27.9,10.9c-2.9,0.5-5.9,0.8-8.7,0.8c0,0,0,0,0,0c-42.9,0-55.4-55.2-55.9-57.5c-1.5-5.8-0.4-12.2,3.3-18.1
			c19.2-30.6,112.2-49.1,122.7-51.2l6.6-1.3l1.9,6.5c0.2,0.5,15.7,54.2,21.9,78c7.7,29.8-11.8,38.5-12.6,38.8l-11.5,4.9L398.8,597.7
			z"/>
		<path d="M392.6,490.6c0,0,15.6,53.8,21.9,77.8c6.2,24-8.3,30.2-8.3,30.2s2.1-20.9-9.8-20.9c-0.6,0-1.2,0.1-1.9,0.2
			c-43.7,7.2-36.9,19.3-65.9,24.3c-2.6,0.4-5.1,0.6-7.4,0.6c-37.5,0-48.7-51.7-48.7-51.7C263,515.4,392.6,490.6,392.6,490.6
			 M403.1,473.5l-13.2,2.5c-17.7,3.4-107.1,22-127.6,54.5c-4.8,7.6-6.2,15.9-4.2,23.9c0.6,2.4,3.9,16.1,11.9,29.8
			c12.6,21.7,30.3,33.2,51.2,33.2c3.2,0,6.6-0.3,9.9-0.9c15.9-2.7,23.7-7.6,30.5-11.9c6.6-4.1,12.8-8.1,29.8-11.4
			c0.1,1.3,0.1,2.6,0,3.7l-2.2,24.6l22.7-9.6c9.1-3.9,24.3-18.8,16.9-47.5c-6.2-23.9-21.3-76-22-78.2L403.1,473.5L403.1,473.5z"/>
	</g>
	<path class="st25" d="M209,597.4c4-0.3,32.6,3,34.7,12l6.1,34.3c0,0-0.1,0.1-0.3,0.2c-1.3,0.7-6.7,3-21.6,1.7
		c-17.6-1.5-19.9,7-18.3,11.4c1.6,4.4,7,7.1,7,7.1s-8.4,0.1-16.7-15.1c-8.2-15.3-13.2-26.7-13.2-26.7S205,597.7,209,597.4z"/>
	<g>
		<linearGradient id="SVGID_12_" gradientUnits="userSpaceOnUse" x1="7.3697" y1="551.6092" x2="273.9072" y2="551.6092">
			<stop  offset="0" style="stop-color:#F47E55"/>
			<stop  offset="1" style="stop-color:#FFE125"/>
		</linearGradient>
		<path class="st26" d="M92.1,700.8c-1.2,0-2.4,0-3.6-0.1c-18.8-1.1-26.6-2.3-28.4-9.5c-1.6-6.5,4.1-10,8.3-12.5l2-1.2
			c2.7-2,12.5-16.3,21.1-35.9l7.2-18.7c3.6-11,5.8-21.5,6.4-30.7c1.2-18.9-0.5-30.6-5.1-35.5c-1.7-1.8-4.9-4.1-13.6-4.1
			c-1.4,0-2.9,0.1-4.5,0.2c-5.5,0.4-12.5,1.1-19.8,1.9c-13.6,1.4-27.6,2.9-37.2,2.9c0,0-0.1,0-0.1,0c-5.4,0-14.4,0-16.9-6.9
			c-0.8-2.2-1.4-6.7,4-11.1c7.7-6.4,23-38.5,38-79.9c4.3-12,12.2-23.3,22.8-32.9l3.4-3.1L85,427v-10.1l3.7-2.1
			c13.6-7.8,28.9-12.1,44.3-12.4c1.5,0,3,0,4.3,0c32.7,0,37.9,9.6,59.8,49.9c3.5,6.5,7.5,13.8,12.2,22.2
			c5.5,9.8,10.9,19.3,16.2,28.6c30.6,53.6,54.8,95.9,46.7,122.2c-6.8,22-23.8,27.9-32.7,27.9c-8.4,0-10.6-4.7-11.2-6.7
			c-0.8-3-0.2-7.1,4.3-9.8c0.5-0.3,1.2-0.9,1.6-2.4c0.4-1.8,0-3.7-0.3-4.7c-3.5-1.8-8.6-3.7-14.9-3.7c-12.1,0-23.8,6.9-35,20.5
			C162.5,672.7,127,700.8,92.1,700.8z"/>
		<g>
			<path class="st27" d="M280.3,593.5c-4.8,1.4-9.5,2.8-14.3,4.2c0.8,5.9,0.6,11.1-0.8,15.6c-5.6,17.9-18.9,22.7-25.7,22.7
				c-3.6,0-5.4-1.4-3-2.9c8.1-5,5.2-17.5,2.1-19.3c-5.2-2.9-11.9-5.2-19.6-5.2c-12,0-26.3,5.6-40.7,23.2
				c-22.8,27.8-56.4,51.6-86.2,51.6c-1.1,0-2.1,0-3.2-0.1c-30.6-1.8-22.1-4.8-14.6-9.6c2-1.2,5.3-5.4,9.3-11.5c-3,0.2-6,0.3-9,0.5
				c-6.4,6.9-12.1,14.4-17.7,22c-0.8,1-1.7,1.7-2.7,2c4.9,9.6,17.8,10.4,33.8,11.3c1.3,0.1,2.7,0.1,4.1,0.1c37.5,0,75-29.5,97.7-57
				c9.7-11.8,19.5-17.8,29.3-17.8c2,0,3.8,0.3,5.5,0.6c-3.5,4-4.8,9.4-3.3,14.6c1.7,5.8,7.4,12.1,18.3,12.1
				c14.7,0,32.7-10.2,39.8-33.1C281.6,610.5,281.8,602.4,280.3,593.5z"/>
		</g>
		<path d="M137.3,409.8c32.8,0,31.8,7.9,65.6,68.4c35.2,62.9,70.8,117.5,62.3,145c-5.6,17.9-18.9,22.7-25.7,22.7
			c-3.6,0-5.4-1.4-3-2.9c8.1-5,5.2-17.5,2.1-19.3c-5.2-2.9-11.9-5.2-19.6-5.2c-12,0-26.3,5.6-40.7,23.2
			c-22.8,27.8-56.4,51.6-86.2,51.6c-1.1,0-2.1,0-3.2-0.1c-30.6-1.8-22.1-4.8-14.6-9.6c4.2-2.7,14.9-18.7,23.9-39.2l7.3-19
			c3.6-10.9,6.2-22.2,6.9-32.9c2.3-36.2-5.3-47.5-26.1-47.5c-1.6,0-3.3,0.1-5,0.2c-15.5,1.1-42,4.7-56.5,4.7
			c-8.5,0-12.8-1.2-8.3-4.9c12.1-10,30.6-56.7,40.2-83.1c3.9-10.7,11.1-21.2,20.8-29.9l14.9,5.7v-16.6c11.8-6.8,25.6-11.1,40.7-11.4
			C134.6,409.8,136,409.8,137.3,409.8 M137.3,395c-1.4,0-2.9,0-4.5,0c-16.6,0.3-33.2,4.9-47.8,13.3l-7.4,4.3v3.6l-3.3-1.3l-6.7,6.1
			c-11.4,10.4-20,22.8-24.7,35.9c-16,44.2-30.1,72.1-35.7,76.7c-9.4,7.8-7.1,16.7-6.2,19.3c4.3,11.8,18.1,11.8,24,11.8
			c10,0,24.2-1.5,38-2.9c7.3-0.8,14.2-1.5,19.6-1.9c1.4-0.1,2.7-0.2,4-0.2c2.4,0,6.7,0.2,8.2,1.8c1.4,1.5,4.6,7.5,3.1,30
			c-0.5,8.5-2.6,18.2-6.1,28.9l-7.1,18.3c-7.7,17.5-16,29.8-18.8,32.7c-0.4,0.3-0.9,0.5-1.3,0.8c-4.4,2.6-14.5,8.8-11.6,20.6
			c3.3,13.2,17.3,14,35.2,15.1c1.3,0.1,2.7,0.1,4.1,0.1c37.5,0,75-29.5,97.7-57c9.7-11.8,19.5-17.8,29.3-17.8c2,0,3.8,0.3,5.5,0.6
			c-3.5,4-4.8,9.4-3.3,14.6c1.7,5.8,7.4,12.1,18.3,12.1c14.7,0,32.7-10.2,39.8-33.1c9.1-29.4-15.8-73-47.3-128.1
			c-5.3-9.3-10.8-18.8-16.2-28.5c-4.7-8.3-8.7-15.7-12.2-22.1C181.2,407.5,174.4,395,137.3,395L137.3,395z"/>
	</g>
	<g>
		<path class="st23" d="M1538.3,673.9c-2.7,0-5.4-0.2-8.2-0.6c-27.4-4-136.3-41.1-156.1-58.9l-1.2-1.1
			c-17.4-15.5-16.1-19.5-0.8-68.9l0.3-0.8c3.2-10.2,6.9-22.2,11.2-36.6c26.7-88.7,50.1-133,51-134.8l3-5.5l5.9,2
			c2.6,0.9,62.9,21.4,100,48.7c14.4,10.6,29.5,16,44.8,16c13.5,0,24.4-4.4,30.1-8.5c2-1.4,3.9-1.7,5.1-1.7c2.5,0,4.9,1.2,6.5,3.2
			c2.5,3.2,9,11.8-42.7,202.4l-0.2,0.8l-12.7,23.6C1572.9,656.1,1563.4,673.9,1538.3,673.9z"/>
		<g>
			<path d="M1441,375.6c0,0,61.4,20.7,98,47.6c17.7,13.1,34.8,17.5,49.2,17.5c15.3,0,27.6-5,34.4-9.8c0.3-0.2,0.6-0.3,0.8-0.3
				c9.9,0-43.4,196.3-43.4,196.3l-12.4,23c0,0-7.2,16.6-29.5,16.6c-2.2,0-4.6-0.2-7.2-0.5c-27.9-4-134.1-40.9-152.2-57.1
				c-15.1-13.5-15.5-12,0.4-63.1c3.1-10,6.9-22.1,11.3-36.7C1417.3,420.1,1441,375.6,1441,375.6 M1433.9,357.6l-5.9,11.1
				c-1,1.9-24.7,46.8-51.6,136.2c-4.3,14.3-8,26.1-11.1,36l-0.2,0.5l-0.3,0.8c-15.6,50.2-18,57.9,2.9,76.6l1.2,1.1
				c21.1,18.9,131.3,56.5,160,60.7c3.2,0.5,6.3,0.7,9.3,0.7c24.6,0,38.3-15.3,42.7-24.9l12.1-22.6l0.8-1.5l0.4-1.6
				c0.1-0.5,12.9-47.5,24.6-95c25.4-102.7,22-107.1,16.8-113.9c-3-3.9-7.5-6.1-12.4-6.1c-3.3,0-6.6,1.1-9.4,3.1
				c-4.8,3.4-14.1,7.1-25.8,7.1c-13.7,0-27.3-4.9-40.4-14.6c-38-28-99.4-48.9-102-49.8L1433.9,357.6L1433.9,357.6z"/>
		</g>
	</g>
	<g>
		<path class="st24" d="M1369,609.2c-0.8-0.4-20.3-9-12.6-38.8c6.2-23.8,21.8-77.4,21.9-78l1.9-6.5l6.6,1.3
			c10.5,2,103.5,20.6,122.7,51.2c3.7,5.9,4.8,12.3,3.2,18.4c-0.4,2-12.9,57.2-55.8,57.2c-2.8,0-5.7-0.3-8.7-0.8
			c-14.4-2.5-21.2-6.7-27.8-10.9c-7.6-4.7-15.4-9.6-38-13.4c-0.2,0-0.5-0.1-0.7-0.1c-1.7,0.8-2.9,7.2-2.4,12.8l1.2,12.4L1369,609.2z
			"/>
		<path d="M1385.5,494.5c0,0,129.6,24.8,120.2,60.4c0,0-11.2,51.7-48.7,51.7c-2.4,0-4.9-0.2-7.4-0.6c-29-4.9-22.2-17.1-65.9-24.3
			c-0.7-0.1-1.3-0.2-1.9-0.2c-11.8,0-9.8,20.9-9.8,20.9s-14.5-6.2-8.3-30.2C1369.8,548.3,1385.5,494.5,1385.5,494.5 M1375,477.4
			l-3.8,12.9c-0.6,2.2-15.8,54.3-22,78.2c-7.4,28.7,7.8,43.6,16.9,47.5l23,9.8l-2.5-24.9c-0.1-1.1-0.1-2.4,0-3.7
			c17,3.3,23.3,7.2,29.8,11.4c6.9,4.3,14.7,9.2,30.5,11.9c3.3,0.6,6.7,0.9,9.9,0.9c20.9,0,38.6-11.5,51.2-33.2
			c7.9-13.7,11.3-27.3,11.9-29.8c2.1-8.1,0.6-16.4-4.2-24c-20.5-32.5-109.9-51.1-127.6-54.5L1375,477.4L1375,477.4z"/>
	</g>
	<path class="st25" d="M1559,597.4c-4-0.3-32.6,3-34.7,12l-6.1,34.3c0,0,0.1,0.1,0.3,0.2c1.3,0.7,6.7,3,21.6,1.7
		c17.6-1.5,19.9,7,18.3,11.4c-1.6,4.4-7,7.1-7,7.1s8.4,0.1,16.7-15.1c8.2-15.3,13.2-26.7,13.2-26.7S1563,597.7,1559,597.4z"/>
	<g>
		<linearGradient id="SVGID_13_" gradientUnits="userSpaceOnUse" x1="1494.095" y1="551.6092" x2="1760.6299" y2="551.6092">
			<stop  offset="0" style="stop-color:#F47E55"/>
			<stop  offset="1" style="stop-color:#FFE125"/>
		</linearGradient>
		<path class="st28" d="M1675.9,700.8c-34.9,0-70.4-28.1-91.9-54.3c-11.2-13.6-22.9-20.5-35-20.5c-6.2,0-11.4,1.9-14.9,3.7
			c-0.3,1-0.7,2.9-0.3,4.7c0.3,1.5,1,2,1.6,2.4c4.4,2.8,5.1,6.9,4.3,9.8c-0.6,2-2.8,6.7-11.2,6.7c-8.9,0-25.9-5.9-32.7-27.9
			c-8.2-26.3,16-68.6,46.7-122.2c5.3-9.3,10.8-18.9,16.2-28.6c4.7-8.4,8.7-15.7,12.2-22.2c22-40.4,27.2-49.9,59.9-49.9
			c1.4,0,2.8,0,4.3,0c15.4,0.3,30.7,4.5,44.3,12.4l3.7,2.1V427l9.1-3.5l3.4,3.1c10.6,9.6,18.4,20.9,22.8,32.9
			c15,41.4,30.2,73.5,38,79.9c5.3,4.4,4.8,8.8,4,11.1c-2.5,6.9-11.6,6.9-17,6.9c-9.6,0-23.7-1.5-37.2-2.9
			c-7.3-0.8-14.2-1.5-19.8-1.9c-1.6-0.1-3.1-0.2-4.5-0.2c-8.7,0-11.9,2.4-13.6,4.1c-4.7,5-6.4,16.6-5.1,35.5
			c0.6,9.2,2.8,19.7,6.5,31l7.2,18.7c8.6,19.3,18.3,33.6,21.1,35.7l1.9,1.2c4.2,2.5,9.9,6,8.3,12.5c-1.8,7.2-9.6,8.4-28.4,9.5
			C1678.3,700.8,1677.1,700.8,1675.9,700.8C1675.9,700.8,1675.9,700.8,1675.9,700.8z"/>
		<path class="st27" d="M1488.2,595.9c4.8,1.4,9.5,2.8,14.3,4.2c-0.8,5.9-0.6,11.1,0.8,15.6c5.6,17.9,18.9,22.7,25.7,22.7
			c3.6,0,5.4-1.4,3-2.9c-8.1-5-5.2-17.5-2.1-19.3c5.2-2.9,11.9-5.2,19.6-5.2c12,0,26.3,5.6,40.7,23.2c22.8,27.8,56.4,51.6,86.2,51.6
			c1.1,0,2.1,0,3.2-0.1c30.6-1.8,22.1-4.8,14.6-9.6c-2-1.2-5.3-5.4-9.3-11.5c3,0.2,6,0.3,9,0.5c6.4,6.9,12.1,14.4,17.7,22
			c0.8,1,1.7,1.7,2.7,2c-4.9,9.6-17.8,10.4-33.8,11.3c-1.3,0.1-2.7,0.1-4.1,0.1c-37.5,0-75-29.5-97.7-57
			c-9.7-11.8-19.5-17.8-29.3-17.8c-2,0-3.8,0.3-5.5,0.6c3.5,4,4.8,9.4,3.3,14.6c-1.7,5.8-7.4,12.1-18.3,12.1
			c-14.7,0-32.7-10.2-39.8-33.1C1486.9,612.9,1486.7,604.8,1488.2,595.9z"/>
		<path d="M1630.7,409.8c1.3,0,2.8,0,4.2,0c15.1,0.2,28.9,4.6,40.7,11.4v16.6l14.9-5.7c9.7,8.7,16.9,19.2,20.8,29.9
			c9.5,26.4,28.1,73.1,40.2,83.1c4.5,3.7,0.1,4.9-8.3,4.9c-14.4,0-41-3.6-56.5-4.7c-1.8-0.1-3.4-0.2-5-0.2
			c-20.8,0-28.4,11.4-26.1,47.5c0.7,10.7,3.3,22,6.9,32.9l7.3,19c9,20.5,19.7,36.5,23.9,39.2c7.5,4.8,16.1,7.8-14.6,9.6
			c-1.1,0.1-2.1,0.1-3.2,0.1c-29.9,0-63.4-23.9-86.2-51.6c-14.4-17.6-28.7-23.2-40.7-23.2c-7.6,0-14.3,2.3-19.6,5.2
			c-3.1,1.8-6,14.2,2.1,19.3c2.4,1.5,0.6,2.9-3,2.9c-6.8,0-20.1-4.8-25.7-22.7c-8.5-27.6,27.1-82.1,62.3-145
			C1598.8,417.7,1597.8,409.8,1630.7,409.8 M1630.7,395L1630.7,395c-37.1,0-43.8,12.5-66.4,53.8c-3.5,6.5-7.5,13.8-12.2,22.1
			c-5.4,9.7-10.9,19.3-16.2,28.5c-31.5,55.1-56.4,98.7-47.3,128.1c7.1,22.9,25.1,33.1,39.8,33.1c11,0,16.7-6.2,18.3-12.1
			c1.5-5.2,0.2-10.6-3.3-14.6c1.7-0.4,3.5-0.6,5.5-0.6c9.7,0,19.6,6,29.3,17.8c22.6,27.6,60.2,57,97.7,57c1.4,0,2.7,0,4.1-0.1
			c17.8-1,31.9-1.9,35.2-15.1c2.9-11.8-7.3-18-11.6-20.6c-0.4-0.3-0.8-0.5-1.3-0.8c-2.9-3-11.1-15.3-18.8-32.7l-7.1-18.3
			c-3.5-10.6-5.5-20.3-6.1-28.9c-1.5-22.5,1.7-28.5,3.1-30c1.5-1.6,5.8-1.8,8.2-1.8c1.3,0,2.6,0.1,4,0.2c5.4,0.4,12.3,1.1,19.6,1.9
			c13.8,1.4,28,2.9,38,2.9c5.9,0,19.7,0,24-11.8c0.9-2.6,3.2-11.5-6.2-19.3c-5.6-4.7-19.7-32.5-35.7-76.7
			c-4.7-13.1-13.3-25.5-24.7-35.9l-6.7-6.1l-3.3,1.3v-3.6l-7.4-4.3c-14.7-8.5-31.2-13.1-47.8-13.3C1633.6,395,1632.1,395,1630.7,395
			L1630.7,395z"/>
	</g>
	<linearGradient id="SVGID_14_" gradientUnits="userSpaceOnUse" x1="882.3681" y1="602.0366" x2="882.3681" y2="309.5459">
		<stop  offset="0" style="stop-color:#F47E55"/>
		<stop  offset="1" style="stop-color:#FFE125"/>
	</linearGradient>
	<path class="st29" d="M300.9,602c-12.3,0-21.9-15-23.7-18l-0.3-0.5l-0.2-0.5c-2.3-6.1-5.7-13.8-9.5-22.7
		c-20.2-46.8-54-125.1-34-174.3c21.9-54,94.4-62.6,147.4-68.9c5.4-0.6,10.6-1.3,15.6-1.9l4.4-0.6l2.2,3.8c3.6,6,6.3,12.2,8.9,18.3
		c2.3-6.4,4.5-12.8,6.8-19l1.6-4.3l7.9,0c73.6,0,148.4,3.8,220.8,7.4c70.6,3.5,143.6,7.2,215.1,7.4l5.8,0c95.5,0,191.9-5.1,285.1-10
		c57.7-3.1,117.3-6.2,176.3-8.1c0,0,35.4-0.4,45.3-0.4c56.9,0,146,26.6,156.2,68.3c17.2,70.5-11.4,172.5-46.5,209.9l-2.3,2.5
		l-61.3-7.7c-9.5-1.5-18.6-3-27.7-4.5c-43.2-7.2-84-13.9-134.6-13.9c-40.8,0-84.3,4.5-133,13.8c-61.8,11.8-144.7,18-239.8,18
		c-108.2,0-219.4-8.3-304.9-22.8l-1.2-0.2l-1-0.6c-4.7-2.7-7.8-5.7-9.9-8.7c-0.1,0.5-2.7,8.6-2.7,8.6l-6.8-3
		c-12.8-5.7-27.8-8.3-47.1-8.3c-12.6,0-25.6,1.1-38.1,2.2c-12.5,1.1-24.3,2.1-35.7,2.1c-2.5,0-5,0-7.4-0.2c-1.7-0.1-3.5-0.1-5.3-0.1
		c-37.4,0-93.3,16.2-117.1,34C307.3,601,304.2,602,300.9,602z"/>
	<path class="st27" d="M1481.6,571.7c-0.1,0.2-0.3,0.3-0.4,0.5l-1.1-0.1c-0.7,0.1-1.4,0-2-0.2l-54.9-6.9
		c-53.8-8.5-101.3-18.5-163.1-18.5c-37.8,0-81,3.8-134.2,13.9c-64,12.2-149.5,17.9-238.6,17.9c-106,0-217.3-8-303.8-22.7
		c-15.2-8.7-7.9-18.8-13.9-29.7c-1.7,8.8-3.4,17.3-6.1,26.2c-15.5-6.9-32.5-8.9-49.8-8.9c-25.2,0-51,4.3-73.8,4.3
		c-2.4,0-4.8,0-7.1-0.2c-1.8-0.1-3.7-0.1-5.6-0.1c-39.7,0-97,17.4-121.1,35.4c-1.7,1.3-3.5,1.8-5.2,1.8c-0.9,0-1.9-0.2-2.8-0.4
		c-6.3,0.3-12.5-3.2-17.1-7.7c-2.2-2.1-4.1-4.4-6.1-6.7c-1.8,0.7-3.6,1.5-5.4,2.2c0.4,0.9,0.7,1.8,1,2.6l0.4,1.1l0.6,1
		c3,5,13.9,21.3,29.4,21.3c4.7,0,9.3-1.5,13.2-4.5c20.2-15.1,74.1-32.7,113.1-32.7c1.7,0,3.4,0,5,0.1c2.5,0.1,5.1,0.2,7.7,0.2
		c11.7,0,24.2-1.1,36.3-2.1c12.4-1.1,25.2-2.2,37.5-2.2c18.3,0,32.4,2.5,44.4,7.7l13.7,6.1l1.7-5.4c1.1,0.7,2.2,1.5,3.4,2.2l2,1.2
		l2.3,0.4c85.9,14.6,197.5,22.9,306,22.9c95.5,0,178.9-6.3,241.1-18.1c48.2-9.2,91.3-13.7,131.7-13.7c50,0,90.6,6.7,133.5,13.8
		c9.1,1.5,18.2,3,27.5,4.5l0.2,0l0.2,0l57.9,7.3l6.7,0.8l4.6-4.9c5.6-6,11.1-13.6,16.3-22.4C1499.1,564.1,1490.7,568.6,1481.6,571.7
		z"/>
	<path class="st3" d="M422.7,320.4l33.7-1.3c11.3-0.5,22.5-0.1,33.8-0.3c22.5-0.1,45-0.4,67.6-0.1c45.1,1.5,89.9,3.2,134.9,4.3
		c44.9,1,89.8,2.2,134.7,2.5c44.9,0.3,89.8,0.8,134.5-0.9l269.5-10.6c22.5-0.7,45-1.6,67.6-1.8c22.4-0.2,44.8-1.2,67.7-1.2
		c22.8,1,45.3,4.7,67.3,10.1c22,5.5,43.2,14.4,62.3,26.2c-20.1-10.1-41.5-17.3-63.4-21.6c-21.9-4-44.3-6.3-66.4-6l-134.4,8.2
		c-89.8,5.8-179.5,11.1-269.7,14.5c-90.4,2.4-180.4-0.7-270.4-5.5c-22.5-1.3-45-2.6-67.4-4.2l-67.3-5.2c-22.4-1.6-44.8-2.6-67.3-3.8
		C467.6,322.1,445.3,321.3,422.7,320.4z"/>
	<path class="st3" d="M245.5,373.2c9.4-10.9,20.9-19.6,33.2-27c12.3-7.3,25.6-13,39.2-17.2c13.6-4.2,27.7-7,41.8-8.4
		c14.1-1.3,28.4-1.3,42.6,1.2c-13.5,4.9-26.8,8.6-40,12.5c-13.2,3.8-26.2,7.6-39.1,11.6c-12.9,4-25.8,8.2-38.6,12.8
		C271.7,363.3,259,368.4,245.5,373.2z"/>
	<path d="M1376.3,316.2c53.5,0,140.5,25.6,149.7,63.2c16.1,66-9.9,166.5-44.9,203.7l-57.9-7.3c-53.8-8.5-101.3-18.5-163.1-18.5
		c-37.8,0-81,3.8-134.2,13.9c-64,12.2-149.5,17.9-238.6,17.9c-106,0-217.3-8-303.8-22.7c-15.2-8.7-7.9-18.8-13.9-29.7
		c-1.7,8.8-3.4,17.3-6.1,26.2c-15.5-6.9-32.5-8.9-49.8-8.9c-25.2,0-51,4.3-73.8,4.3c-2.4,0-4.8,0-7.1-0.2c-1.8-0.1-3.7-0.1-5.6-0.1
		c-39.7,0-97,17.4-121.1,35.4c-1.7,1.3-3.5,1.8-5.2,1.8c-9.2,0-18-14.8-18-14.8c-14.7-38-66.2-136.4-43.6-192.1
		C262,332.9,345,328.6,397,321.8c6.3,10.7,10,22.1,15.3,33.1c4.1-11.6,8.2-23.5,12.4-34.8c1.1,0,2.2,0,3.3,0
		c145.2,0,290.8,14.4,435.9,14.7c1.9,0,3.9,0,5.8,0C1024.4,334.8,1367.2,316.2,1376.3,316.2 M1376.3,302.9
		c-10.4,0-33.5,0.1-33.5,0.1l-12,0.4c-59,1.9-118.7,5.1-176.4,8.1c-93.1,4.9-189.4,10-284.8,10l-5.8,0
		c-71.4-0.2-144.3-3.8-214.8-7.3c-72.5-3.6-147.4-7.4-221.1-7.4l-3.3,0l-9.3,0l-3.2,8.7c-0.5,1.2-0.9,2.5-1.4,3.8
		c-0.7-1.4-1.5-2.8-2.3-4.2l-4.5-7.6l-8.7,1.1c-4.9,0.6-10.1,1.3-15.5,1.9c-54.6,6.5-129.3,15.4-152.7,73
		c-21,51.7,13.5,131.7,34.1,179.4c3.8,8.8,7.1,16.5,9.4,22.4l0.4,1.1l0.6,1c3,5,13.9,21.3,29.4,21.3c4.7,0,9.3-1.5,13.2-4.5
		c20.2-15.1,74.1-32.7,113.1-32.7c1.7,0,3.4,0,5,0.1c2.5,0.1,5.1,0.2,7.7,0.2c11.7,0,24.2-1.1,36.3-2.1c12.4-1.1,25.2-2.2,37.5-2.2
		c18.3,0,32.4,2.5,44.4,7.7l13.7,6.1l1.7-5.4c1.1,0.7,2.2,1.5,3.4,2.2l2,1.2l2.3,0.4c85.9,14.6,197.5,22.9,306,22.9
		c95.5,0,178.9-6.3,241.1-18.1c48.2-9.2,91.3-13.7,131.7-13.7c50,0,90.6,6.7,133.5,13.8c9.1,1.5,18.2,3,27.5,4.5l0.2,0l0.2,0
		l57.9,7.3l6.7,0.8l4.6-4.9c36.2-38.6,65.8-143.5,48.1-216C1527,327.4,1428.2,302.9,1376.3,302.9L1376.3,302.9z"/>
	<rect x="561.7" y="431.2" width="305" height="42.1"/>
	<rect x="942.2" y="436.2" width="324.8" height="42.1"/>
</g>
<g>
	<g>
		<path class="st30" d="M481.2,406.1l30.2-0.4c17.9-0.2,30.1,7.6,30.3,23.5l0,0.2c0.2,16.2-12.1,25-30.2,25.2l-7.3,0.1l0.2,18.2
			l-22.5,0.3L481.2,406.1z M510.1,438.7c5.8-0.1,9.6-2.7,9.5-7.5l0-0.2c-0.1-4.9-3.6-7.3-9.6-7.3l-6.1,0.1l0.2,15L510.1,438.7z"/>
		<path class="st30" d="M544.5,447l0-0.2c0.6-15.6,12.3-27.1,28-26.5c18.6,0.7,26.7,14,26.1,29.9c0,1.2-0.1,2.5-0.2,3.6l-33.7-1.3
			c1.4,4.7,4.9,7.2,9.6,7.4c3.9,0.2,7.3-1.5,10.9-5l11.3,9.8c-5.4,6.5-13,10.9-24.3,10.5C555.1,474.6,543.9,463.3,544.5,447z
			 M579.1,443.5c-0.3-5-3.2-8-7-8.1c-3.6-0.1-6.4,2.8-7.2,7.6L579.1,443.5z"/>
		<path class="st30" d="M605.2,423l21.8,1.2l-0.4,7.3c3.6-4.1,9.1-8,16.5-7.6c11,0.6,17.5,8.3,16.9,20.1l-1.9,34.5l-21.8-1.2
			l1.5-27.5c0.3-4.5-2.3-7.2-5.5-7.4c-3.3-0.2-6.4,2.2-6.6,6.7l-1.5,27.5l-21.8-1.2L605.2,423z"/>
		<path class="st30" d="M662.3,487.8l7.5-12.7c5.7,3.4,11.4,5.7,18.6,6.1c8.1,0.5,12.7-3.5,13.1-10.8l0.1-1.5
			c-3.2,3.2-8.3,6.7-15.6,6.3c-13.5-0.8-22.7-10.9-21.9-25.4l0-0.2c0.8-14.7,11.4-23.8,23.4-23.1c7.7,0.4,12,3.6,15.6,7.7l0.3-5.6
			l21.8,1.2L723,469c-0.6,9.7-2.9,16.2-8,20.7c-5,4.4-12.3,7-24,6.3C679.4,495.3,670.5,492.5,662.3,487.8z M702.7,451.9l0-0.2
			c0.3-4.5-3-8.3-8.3-8.6c-5.4-0.3-8.9,3.2-9.2,7.8l0,0.2c-0.3,4.5,3,8.2,8.3,8.6C698.9,459.9,702.4,456.5,702.7,451.9z"/>
		<path class="st30" d="M729.2,464.7l1.7-34.5l21.8,1.1l-1.3,27.5c-0.2,4.5,2.3,7.2,5.6,7.4c3.3,0.2,6.4-2.3,6.6-6.8l1.3-27.5
			l21.8,1.1l-2.6,52.4l-21.8-1.1l0.3-7c-3.6,4.2-9,7.8-16.4,7.5C735.1,484.1,728.6,476.5,729.2,464.7z"/>
		<path class="st30" d="M792.7,433.1l21.8,0.9l-2.1,52.4l-21.8-0.9L792.7,433.1z M793,415.5l22.5,0.9l-0.6,13.9l-22.5-0.9L793,415.5
			z"/>
		<path class="st30" d="M820.4,434.3l21.8,0.6l-0.2,7.3c3.5-4.2,8.9-8.3,16.3-8.1c11,0.3,17.7,7.8,17.4,19.6l-1,34.5l-21.8-0.6
			l0.8-27.5c0.1-4.5-2.5-7.2-5.7-7.3s-6.3,2.4-6.4,6.9l-0.8,27.5l-21.8-0.6L820.4,434.3z"/>
		<path class="st30" d="M905.8,421.7l57.3,0.4l-0.1,18.4l-35.2-0.2l0,6.8l32.8,0.2l-0.1,16.2l-32.8-0.2l0,7.3l35.7,0.2l-0.1,18.4
			l-57.8-0.4L905.8,421.7z"/>
		<path class="st30" d="M967.5,436.9l21.8-0.3l0.1,7c3.3-4.4,8.5-8.4,15.7-8.5c7.1-0.1,12.6,2.9,15.6,8.4c4.3-5.1,9.6-8.8,17.6-8.9
			c11.2-0.2,18.3,7,18.4,18.8l0.5,34.6l-21.8,0.3l-0.4-27.7c-0.1-4.4-2.7-6.9-5.9-6.8c-3.2,0-6,2.6-5.9,7l0.4,27.7l-21.8,0.3
			l-0.4-27.7c-0.1-4.4-2.7-6.9-5.9-6.8c-3.2,0-6,2.6-5.9,7l0.4,27.7l-21.8,0.3L967.5,436.9z"/>
		<path class="st30" d="M1061.1,435.3l21.8-0.8l0.2,6.4c3.4-4,7.3-8,15.3-8.2c12.7-0.5,23,10.2,23.5,26.2l0,0.2
			c0.6,16.6-9,28-21.3,28.5c-8,0.3-12.5-3-16-6.6l0.8,21.3l-21.8,0.8L1061.1,435.3z M1100.8,460.1l0-0.2c-0.2-5.3-4.1-9.3-9.1-9.1
			c-5,0.2-8.6,4.4-8.4,9.7l0,0.2c0.2,5.2,4.1,9.3,9.1,9.1S1101,465.4,1100.8,460.1z"/>
		<path class="st30" d="M1124.6,459.4l0-0.2c-0.8-15.6,9.8-28.1,25.5-28.9c18.6-1,27.9,11.5,28.8,27.4c0.1,1.2,0.1,2.5,0.1,3.6
			l-33.7,1.8c1.8,4.5,5.5,6.7,10.2,6.5c3.9-0.2,7.1-2.2,10.4-5.9l12.2,8.7c-4.8,7-12,12.1-23.3,12.7
			C1137.7,485.9,1125.5,475.7,1124.6,459.4z M1158.7,452.8c-0.7-5-3.9-7.7-7.7-7.5c-3.6,0.2-6.1,3.4-6.5,8.2L1158.7,452.8z"/>
		<path class="st30" d="M1181.3,429.7l21.7-1.4l0.7,10.5c2.5-7.3,7-12.2,15.6-12.4l1.5,23.1l-2.3,0.2c-9.2,0.6-13.7,6-13,17.6
			l0.9,13.3l-21.7,1.4L1181.3,429.7z"/>
		<path class="st30" d="M1222.3,453.5l0-0.2c-1.2-14.7,10.1-28.3,27.3-29.7c17.1-1.3,30.3,10.1,31.4,24.9l0,0.2
			c1.2,14.7-10.1,28.3-27.3,29.7C1236.6,479.8,1223.4,468.3,1222.3,453.5z M1260.2,450.6l0-0.2c-0.4-5.2-4.6-9-9.3-8.6
			c-4.9,0.4-8.1,4.8-7.7,9.8l0,0.2c0.4,5.2,4.6,9,9.3,8.6C1257.3,459.9,1260.6,455.5,1260.2,450.6z"/>
		<path class="st30" d="M1283,422.2l21.7-2l1,10.5c2.3-7.3,6.7-12.4,15.3-12.8l2.1,23l-2.3,0.2c-9.2,0.8-13.6,6.4-12.5,17.9
			l1.2,13.3l-21.7,2L1283,422.2z"/>
	</g>
	<g>
		<path class="st31" d="M481.2,406.1l30.2-0.4c17.9-0.2,30.1,7.6,30.3,23.5l0,0.2c0.2,16.2-12.1,25-30.2,25.2l-7.3,0.1l0.2,18.2
			l-22.5,0.3L481.2,406.1z M510.1,438.7c5.8-0.1,9.6-2.7,9.5-7.5l0-0.2c-0.1-4.9-3.6-7.3-9.6-7.3l-6.1,0.1l0.2,15L510.1,438.7z"/>
		<path class="st31" d="M544.5,447l0-0.2c0.6-15.6,12.3-27.1,28-26.5c18.6,0.7,26.7,14,26.1,29.9c0,1.2-0.1,2.5-0.2,3.6l-33.7-1.3
			c1.4,4.7,4.9,7.2,9.6,7.4c3.9,0.2,7.3-1.5,10.9-5l11.3,9.8c-5.4,6.5-13,10.9-24.3,10.5C555.1,474.6,543.9,463.3,544.5,447z
			 M579.1,443.5c-0.3-5-3.2-8-7-8.1c-3.6-0.1-6.4,2.8-7.2,7.6L579.1,443.5z"/>
		<path class="st31" d="M605.2,423l21.8,1.2l-0.4,7.3c3.6-4.1,9.1-8,16.5-7.6c11,0.6,17.5,8.3,16.9,20.1l-1.9,34.5l-21.8-1.2
			l1.5-27.5c0.3-4.5-2.3-7.2-5.5-7.4c-3.3-0.2-6.4,2.2-6.6,6.7l-1.5,27.5l-21.8-1.2L605.2,423z"/>
		<path class="st31" d="M662.3,487.8l7.5-12.7c5.7,3.4,11.4,5.7,18.6,6.1c8.1,0.5,12.7-3.5,13.1-10.8l0.1-1.5
			c-3.2,3.2-8.3,6.7-15.6,6.3c-13.5-0.8-22.7-10.9-21.9-25.4l0-0.2c0.8-14.7,11.4-23.8,23.4-23.1c7.7,0.4,12,3.6,15.6,7.7l0.3-5.6
			l21.8,1.2L723,469c-0.6,9.7-2.9,16.2-8,20.7c-5,4.4-12.3,7-24,6.3C679.4,495.3,670.5,492.5,662.3,487.8z M702.7,451.9l0-0.2
			c0.3-4.5-3-8.3-8.3-8.6c-5.4-0.3-8.9,3.2-9.2,7.8l0,0.2c-0.3,4.5,3,8.2,8.3,8.6C698.9,459.9,702.4,456.5,702.7,451.9z"/>
		<path class="st31" d="M729.2,464.7l1.7-34.5l21.8,1.1l-1.3,27.5c-0.2,4.5,2.3,7.2,5.6,7.4c3.3,0.2,6.4-2.3,6.6-6.8l1.3-27.5
			l21.8,1.1l-2.6,52.4l-21.8-1.1l0.3-7c-3.6,4.2-9,7.8-16.4,7.5C735.1,484.1,728.6,476.5,729.2,464.7z"/>
		<path class="st31" d="M792.7,433.1l21.8,0.9l-2.1,52.4l-21.8-0.9L792.7,433.1z M793,415.5l22.5,0.9l-0.6,13.9l-22.5-0.9L793,415.5
			z"/>
		<path class="st31" d="M820.4,434.3l21.8,0.6l-0.2,7.3c3.5-4.2,8.9-8.3,16.3-8.1c11,0.3,17.7,7.8,17.4,19.6l-1,34.5l-21.8-0.6
			l0.8-27.5c0.1-4.5-2.5-7.2-5.7-7.3s-6.3,2.4-6.4,6.9l-0.8,27.5l-21.8-0.6L820.4,434.3z"/>
		<path class="st31" d="M905.8,421.7l57.3,0.4l-0.1,18.4l-35.2-0.2l0,6.8l32.8,0.2l-0.1,16.2l-32.8-0.2l0,7.3l35.7,0.2l-0.1,18.4
			l-57.8-0.4L905.8,421.7z"/>
		<path class="st31" d="M967.5,436.9l21.8-0.3l0.1,7c3.3-4.4,8.5-8.4,15.7-8.5c7.1-0.1,12.6,2.9,15.6,8.4c4.3-5.1,9.6-8.8,17.6-8.9
			c11.2-0.2,18.3,7,18.4,18.8l0.5,34.6l-21.8,0.3l-0.4-27.7c-0.1-4.4-2.7-6.9-5.9-6.8c-3.2,0-6,2.6-5.9,7l0.4,27.7l-21.8,0.3
			l-0.4-27.7c-0.1-4.4-2.7-6.9-5.9-6.8c-3.2,0-6,2.6-5.9,7l0.4,27.7l-21.8,0.3L967.5,436.9z"/>
		<path class="st31" d="M1061.1,435.3l21.8-0.8l0.2,6.4c3.4-4,7.3-8,15.3-8.2c12.7-0.5,23,10.2,23.5,26.2l0,0.2
			c0.6,16.6-9,28-21.3,28.5c-8,0.3-12.5-3-16-6.6l0.8,21.3l-21.8,0.8L1061.1,435.3z M1100.8,460.1l0-0.2c-0.2-5.3-4.1-9.3-9.1-9.1
			c-5,0.2-8.6,4.4-8.4,9.7l0,0.2c0.2,5.2,4.1,9.3,9.1,9.1S1101,465.4,1100.8,460.1z"/>
		<path class="st31" d="M1124.6,459.4l0-0.2c-0.8-15.6,9.8-28.1,25.5-28.9c18.6-1,27.9,11.5,28.8,27.4c0.1,1.2,0.1,2.5,0.1,3.6
			l-33.7,1.8c1.8,4.5,5.5,6.7,10.2,6.5c3.9-0.2,7.1-2.2,10.4-5.9l12.2,8.7c-4.8,7-12,12.1-23.3,12.7
			C1137.7,485.9,1125.5,475.7,1124.6,459.4z M1158.7,452.8c-0.7-5-3.9-7.7-7.7-7.5c-3.6,0.2-6.1,3.4-6.5,8.2L1158.7,452.8z"/>
		<path class="st31" d="M1181.3,429.7l21.7-1.4l0.7,10.5c2.5-7.3,7-12.2,15.6-12.4l1.5,23.1l-2.3,0.2c-9.2,0.6-13.7,6-13,17.6
			l0.9,13.3l-21.7,1.4L1181.3,429.7z"/>
		<path class="st31" d="M1222.3,453.5l0-0.2c-1.2-14.7,10.1-28.3,27.3-29.7c17.1-1.3,30.3,10.1,31.4,24.9l0,0.2
			c1.2,14.7-10.1,28.3-27.3,29.7C1236.6,479.8,1223.4,468.3,1222.3,453.5z M1260.2,450.6l0-0.2c-0.4-5.2-4.6-9-9.3-8.6
			c-4.9,0.4-8.1,4.8-7.7,9.8l0,0.2c0.4,5.2,4.6,9,9.3,8.6C1257.3,459.9,1260.6,455.5,1260.2,450.6z"/>
		<path class="st31" d="M1283,422.2l21.7-2l1,10.5c2.3-7.3,6.7-12.4,15.3-12.8l2.1,23l-2.3,0.2c-9.2,0.8-13.6,6.4-12.5,17.9
			l1.2,13.3l-21.7,2L1283,422.2z"/>
	</g>
</g>
</svg>
