<svg width="844" height="210" viewBox="0 0 844 210" fill="none" xmlns="http://www.w3.org/2000/svg">
<path d="M109.739 192.728C97.7135 192.728 93.2277 184.232 92.5596 182.8L86.5467 171.536L86.4513 171.154C61.6362 80.2793 64.7858 76.1747 66.0265 74.6473C66.7901 73.6928 67.9354 73.12 69.0807 73.12C69.9397 73.12 70.7987 73.4064 71.4668 73.8837C74.2346 75.7928 79.3885 77.8929 85.8786 77.8929C93.2277 77.8929 100.386 75.3155 107.258 70.2563C124.915 57.1787 153.738 47.4421 154.979 46.9648L157.842 46.0103L159.274 48.683C159.751 49.5422 170.918 70.7336 183.612 113.021C185.712 119.989 187.525 125.717 188.957 130.49L189.052 130.872C196.401 154.449 196.974 156.359 188.67 163.804L188.098 164.281C178.649 172.777 126.633 190.532 113.557 192.441C112.412 192.632 111.076 192.728 109.739 192.728Z" fill="#CE6000"/>
<path d="M156.124 50.4013C156.124 50.4013 167.482 71.6882 180.176 114.167C182.276 121.135 184.089 126.862 185.521 131.731C193.156 156.168 192.965 155.404 185.712 161.8C177.122 169.532 126.346 187.096 113.08 189.005C111.934 189.196 110.789 189.291 109.644 189.291C99.0497 189.291 95.6138 181.368 95.6138 181.368L89.7918 170.295C89.7918 170.295 64.404 76.5565 69.0807 76.5565C69.1762 76.5565 69.367 76.6519 69.4625 76.7474C72.7075 79.0384 78.5295 81.4248 85.8786 81.4248C92.7505 81.4248 100.959 79.3247 109.358 73.12C126.824 60.2333 156.124 50.4013 156.124 50.4013ZM159.56 41.7147L153.929 43.6238C152.689 44.0057 123.388 54.0286 105.254 67.3926C98.9543 71.9745 92.4642 74.361 85.9741 74.361C81.5837 74.4564 77.3842 73.3109 73.662 71.02C72.3258 70.0654 70.7987 69.5881 69.1762 69.5881C66.8855 69.5881 64.6903 70.6381 63.2587 72.5473C60.7772 75.7928 59.1547 77.8929 71.2759 126.862C76.907 149.581 82.9199 172.013 83.0154 172.204L83.2062 172.968L83.588 173.636L89.41 184.423C91.5098 189.005 98.0953 196.26 109.835 196.26C111.362 196.26 112.793 196.164 114.225 195.973C127.873 193.969 180.558 176.023 190.579 166.954L191.152 166.477C201.173 157.599 200.028 153.877 192.488 129.917L192.393 129.535C190.77 124.38 189.052 118.844 187.048 112.066C174.259 69.3972 162.901 47.9194 162.424 47.0603L159.56 41.7147Z" fill="black"/>
<path d="M190.388 156.454C190.675 153.781 190.007 150.727 189.434 150.345C189.339 150.345 189.243 150.345 189.243 150.345C189.148 150.345 189.052 150.345 188.957 150.345C178.172 152.158 174.354 154.449 170.823 156.74C166.814 159.509 162.328 161.227 157.556 161.895C156.22 162.086 154.788 162.277 153.452 162.277C132.932 162.277 127.014 135.931 126.728 134.785C125.965 131.826 126.537 128.676 128.255 126.194C137.418 111.589 181.799 102.712 186.857 101.757L190.007 101.184L190.866 104.239C190.961 104.525 198.406 130.108 201.364 141.467C205.087 155.69 195.733 159.795 195.351 159.986L189.816 162.372L190.388 156.454Z" fill="#B35500"/>
<path d="M187.525 105.194C187.525 105.194 194.97 130.871 197.928 142.326C200.887 153.781 193.92 156.74 193.92 156.74C193.92 156.74 194.874 146.813 189.243 146.813C188.957 146.813 188.67 146.813 188.384 146.908C167.482 150.345 170.727 156.168 156.888 158.459C155.743 158.649 154.502 158.745 153.357 158.745C135.509 158.745 130.164 134.022 130.164 134.022C125.583 117.03 187.525 105.194 187.525 105.194ZM192.488 97.0797L186.189 98.3207C177.695 99.9434 135.032 108.821 125.296 124.38C123.101 127.721 122.338 131.922 123.292 135.835C124.533 140.799 126.442 145.572 128.923 150.058C134.936 160.463 143.431 165.904 153.357 165.904C154.979 165.904 156.506 165.809 158.129 165.522C163.378 164.759 168.341 162.754 172.732 159.795C175.881 157.79 178.84 155.977 186.952 154.354C186.952 154.927 186.952 155.595 186.952 156.168L185.903 167.909L196.688 163.231C200.983 161.418 208.332 154.258 204.705 140.513C201.746 129.058 194.492 104.239 194.206 103.189L192.488 97.0797Z" fill="black"/>
<path d="M99.8133 156.263C101.722 156.072 115.37 157.695 116.325 161.99L119.188 178.409C119.093 178.409 119.093 178.505 118.997 178.505C118.425 178.886 115.848 179.936 108.689 179.364C100.29 178.695 99.1452 182.705 99.9087 184.805C100.672 186.905 103.249 188.241 103.249 188.241C103.249 188.241 99.2406 188.337 95.3275 180.986C91.4143 173.732 89.0282 168.195 89.0282 168.195C89.0282 168.195 97.9044 156.454 99.8133 156.263Z" fill="#CA5100"/>
<path d="M734.412 192.728C733.076 192.728 731.739 192.632 730.499 192.441C717.423 190.532 665.502 172.777 655.958 164.281L655.385 163.804C647.082 156.454 647.654 154.449 655.003 130.967L655.099 130.585C656.626 125.717 658.439 119.989 660.444 113.117C673.138 70.7336 684.304 49.6376 684.782 48.7785L686.213 46.1057L689.077 47.0603C690.317 47.4421 719.141 57.2742 736.798 70.3518C743.67 75.411 750.923 77.9883 758.177 77.9883C764.572 77.9883 769.821 75.8883 772.589 73.9791C773.257 73.5019 774.116 73.2155 774.975 73.2155C776.216 73.2155 777.361 73.7882 778.029 74.7428C779.175 76.2701 782.324 80.3748 757.604 171.345L757.509 171.727L751.496 182.991C750.923 184.327 746.342 192.728 734.412 192.728Z" fill="#CE6000"/>
<path d="M687.931 50.4013C687.931 50.4013 717.232 60.2333 734.698 73.12C743.193 79.3247 751.305 81.4248 758.177 81.4248C765.526 81.4248 771.348 79.0384 774.593 76.7474C774.689 76.6519 774.784 76.6519 774.975 76.5565C779.747 76.5565 754.264 170.295 754.264 170.295L748.347 181.273C748.347 181.273 744.911 189.196 734.316 189.196C733.171 189.196 732.026 189.1 730.881 188.909C717.614 187 666.838 169.341 658.249 161.704C650.995 155.213 650.899 155.977 658.439 131.635C659.967 126.862 661.685 121.039 663.784 114.071C676.669 71.5927 687.931 50.4013 687.931 50.4013ZM684.495 41.7147L681.632 46.9648C681.155 47.8239 669.797 69.3018 657.008 111.971C655.004 118.844 653.19 124.476 651.758 129.153L651.663 129.44L651.568 129.821C644.123 153.781 642.978 157.504 652.904 166.381L653.476 166.859C663.498 175.832 716.182 193.873 729.831 195.878C731.262 196.069 732.789 196.164 734.221 196.164C745.96 196.164 752.451 188.814 754.646 184.327L760.468 173.541L760.85 172.873L761.04 172.109C761.136 171.918 767.149 149.486 772.78 126.767C784.901 77.7974 783.279 75.6019 780.797 72.4518C779.365 70.6381 777.17 69.4927 774.88 69.4927C773.257 69.4927 771.73 69.9699 770.394 70.9245C766.672 73.2155 762.472 74.4564 758.082 74.2655C751.496 74.2655 745.006 71.8791 738.802 67.2972C720.668 53.9332 691.367 43.9102 690.126 43.5284L684.495 41.7147Z" fill="black"/>
<path d="M653.572 161.895C653.19 161.704 643.837 157.599 647.559 143.376C650.518 132.017 657.962 106.434 658.058 106.148L658.917 103.094L662.066 103.666C667.125 104.621 711.506 113.498 720.668 128.103C722.386 130.681 722.959 133.926 722.195 136.885C722.004 137.84 716.087 164.186 695.567 164.186C694.135 164.186 692.799 164.09 691.463 163.804C686.69 163.136 682.109 161.322 678.196 158.649C674.569 156.358 670.847 154.068 660.062 152.254C659.967 152.254 659.871 152.254 659.776 152.254C659.012 152.636 658.344 155.69 658.63 158.363L659.203 164.281L653.572 161.895Z" fill="#B35500"/>
<path d="M661.398 107.103C661.398 107.103 723.245 118.939 718.759 135.931C718.759 135.931 713.415 160.654 695.567 160.654C694.421 160.654 693.181 160.559 692.035 160.368C678.196 157.981 681.441 152.254 660.539 148.817C660.253 148.722 659.967 148.722 659.68 148.722C654.049 148.722 655.004 158.649 655.004 158.649C655.004 158.649 648.036 155.69 650.995 144.235C653.954 132.781 661.398 107.103 661.398 107.103ZM656.435 98.9889L654.622 105.194C654.335 106.244 647.082 131.062 644.123 142.517C640.592 156.263 647.845 163.327 652.14 165.236L663.116 169.913L661.971 158.077C661.971 157.504 661.875 156.931 661.971 156.358C670.083 157.981 673.042 159.795 676.192 161.8C680.582 164.759 685.545 166.668 690.795 167.527C692.322 167.813 693.944 167.909 695.567 167.909C705.588 167.909 713.987 162.468 720 152.063C722.577 147.576 724.486 142.804 725.631 137.84C726.586 133.926 725.917 129.726 723.627 126.385C713.892 110.826 671.133 101.948 662.734 100.325L656.435 98.9889Z" fill="black"/>
<path d="M44.0747 205.614C43.5021 205.614 42.9294 205.614 42.3568 205.519C33.3851 204.946 29.6629 204.469 28.8039 201.032C28.0404 197.882 30.8082 196.259 32.717 195.019L33.6715 194.446C35.0077 193.491 39.5889 186.714 43.7884 177.264L47.2243 168.386C48.8469 163.613 49.8967 158.745 50.2785 153.686C50.8512 144.617 50.0876 139.081 47.797 136.694C47.0335 135.835 45.5064 134.69 41.3069 134.69C40.6388 134.69 39.8753 134.69 39.2072 134.785C36.5348 134.976 33.2897 135.358 29.7583 135.644C23.2682 136.313 16.5872 136.981 12.006 136.981C9.42902 136.981 5.1341 136.981 3.89334 133.64C3.51157 132.59 3.22524 130.49 5.80219 128.39C9.52446 125.335 16.7781 109.966 23.9363 90.2068C26.2269 84.193 29.9492 78.752 34.8168 74.4564L36.4393 73.0246L40.8297 74.6473V69.8745L42.6431 68.8245C49.0378 65.1016 56.3868 63.097 63.7359 62.9061C64.4995 62.9061 65.1676 62.9061 65.8357 62.9061C81.3928 62.9061 83.8744 67.4881 94.3731 86.7704C96.091 89.825 97.9999 93.3569 100.195 97.3661C102.772 102.043 105.444 106.625 107.926 111.016C122.529 136.599 134.077 156.74 130.164 169.341C126.919 179.841 118.806 182.705 114.511 182.705C110.503 182.705 109.453 180.509 109.167 179.459C108.689 177.645 109.548 175.641 111.171 174.782C111.553 174.495 111.839 174.113 111.935 173.636C112.125 172.873 112.03 172.109 111.744 171.345C109.548 170.2 107.162 169.627 104.681 169.532C98.9543 169.532 93.3232 172.873 87.9784 179.364C77.6706 192.25 60.6818 205.614 44.0747 205.614Z" fill="url(#paint0_linear_5_242)"/>
<path opacity="0.58" d="M133.886 154.354C131.596 155.022 129.305 155.69 127.11 156.358C127.492 158.84 127.396 161.418 126.728 163.804C124.056 172.395 117.757 174.686 114.511 174.686C112.793 174.686 111.935 174.018 113.08 173.35C116.993 170.963 115.561 165.045 114.034 164.186C111.171 162.563 107.926 161.704 104.681 161.704C98.9543 161.704 92.0824 164.377 85.2105 172.777C74.3301 186.046 58.2957 197.405 44.0747 197.405C43.5975 197.405 43.0249 197.405 42.5476 197.405C27.9449 196.546 31.9535 195.114 35.5803 192.823C36.5348 192.25 38.1573 190.246 39.9707 187.382C38.5391 187.477 37.1074 187.573 35.6758 187.573C32.717 190.914 29.8538 194.446 27.2768 198.073C26.9905 198.55 26.5133 198.837 26.0361 199.028C28.3267 203.61 34.5305 203.991 42.1659 204.469C42.834 204.469 43.5021 204.564 44.0747 204.564C62.018 204.564 79.8657 190.532 90.6508 177.359C95.232 171.727 100.004 168.863 104.585 168.863C105.444 168.863 106.303 168.959 107.162 169.15C105.444 171.059 104.872 173.636 105.54 176.118C106.303 178.886 109.071 181.845 114.321 181.845C121.383 181.845 129.973 176.977 133.314 166C134.459 162.181 134.65 158.172 133.886 154.354Z" fill="#853B76"/>
<path d="M65.6447 66.7244C81.2973 66.7244 80.8201 70.5427 96.9499 99.3707C113.748 129.44 130.737 155.404 126.728 168.577C124.056 177.168 117.756 179.459 114.511 179.459C112.793 179.459 111.934 178.791 113.08 178.123C116.993 175.736 115.561 169.818 114.034 168.959C111.171 167.336 107.926 166.477 104.681 166.477C98.9542 166.477 92.0823 169.15 85.2104 177.55C74.33 190.818 58.2956 202.178 44.0746 202.178C43.5974 202.178 43.0248 202.178 42.5476 202.178C27.9448 201.319 31.9534 199.887 35.5802 197.596C37.5845 196.355 42.7384 188.623 47.0334 178.886L50.5648 169.818C52.2827 164.759 53.428 159.509 53.9052 154.163C55.0506 136.885 51.4237 131.444 41.4022 131.444C40.6387 131.444 39.8752 131.444 39.0162 131.54C31.5716 132.112 18.9732 133.831 12.1013 133.831C8.09273 133.831 5.99299 133.258 8.09273 131.444C13.8193 126.671 22.6955 104.334 27.2767 91.7341C29.3765 86.1976 32.8124 81.3293 37.2028 77.4156L44.361 80.1838V72.2609C50.2784 68.8244 56.9594 66.9153 63.8313 66.8199C64.3085 66.7244 64.9766 66.7244 65.6447 66.7244ZM65.6447 59.6606C64.9766 59.6606 64.2131 59.6606 63.545 59.6606C55.5278 59.8515 47.7015 62.047 40.7341 66.0562L37.2028 68.0608V69.779L35.5802 69.2063L32.3352 72.1654C27.0858 76.8428 22.9818 82.6657 20.5003 89.2522C12.8649 110.348 6.18388 123.617 3.41604 125.908C-1.06977 129.631 -0.0198997 133.926 0.457314 135.167C2.46161 140.799 9.04716 140.799 11.9104 140.799C16.6826 140.799 23.459 140.131 30.0446 139.367C33.4805 138.985 36.821 138.699 39.3979 138.508C40.066 138.413 40.7341 138.413 41.3068 138.413C42.4521 138.413 44.5519 138.508 45.22 139.272C45.8881 140.035 47.4151 142.804 46.747 153.59C46.3653 158.268 45.4108 162.945 43.8838 167.336L40.5433 176.118C36.821 184.423 32.9078 190.341 31.5716 191.773C31.3808 191.868 31.1899 192.059 30.999 192.155C28.8993 193.396 24.0317 196.355 25.4633 201.987C26.9904 208.287 33.7668 208.669 42.2612 209.146C42.9293 209.146 43.5974 209.242 44.1701 209.242C62.1133 209.242 79.9611 195.209 90.7461 182.036C95.3274 176.404 100.1 173.541 104.681 173.541C105.54 173.541 106.399 173.636 107.258 173.827C105.54 175.736 104.967 178.314 105.635 180.795C106.399 183.564 109.167 186.523 114.416 186.523C121.479 186.523 130.069 181.655 133.409 170.677C137.799 156.645 125.869 135.835 110.789 109.489C108.212 105.098 105.635 100.516 103.058 95.8388C100.863 91.8296 98.9542 88.3931 97.2362 85.243C86.5467 65.5789 83.3016 59.6606 65.6447 59.6606Z" fill="black"/>
<path d="M727.635 178.886L722.004 177.932L724.963 161.418C726.586 154.068 743.956 153.495 744.529 153.495L744.052 159.222L744.242 156.358L744.052 159.222C741.379 159.031 731.739 160.845 730.499 162.754L727.635 178.886Z" fill="black"/>
<path d="M800.077 205.614C766.194 206.473 754.073 160.654 732.408 171.632C732.026 172.3 732.026 174.591 732.98 174.973C742.429 185.091 718.568 187.191 714.083 169.532C707.879 153.495 738.039 110.348 749.969 86.9613C760.468 67.679 762.949 63.097 778.506 63.097C787.287 62.9061 795.972 65.2926 803.512 70.0654V74.8382L807.903 73.2155C813.534 77.9883 818.115 84.0976 820.406 90.3977C827.564 110.157 834.818 125.526 838.54 128.581C849.802 143.376 811.721 134.594 805.135 134.881C785.569 131.635 795.686 166.477 800.649 177.454C805.421 187.573 808.857 193.396 811.625 195.019C821.647 201.701 811.721 206.092 800.077 205.614Z" fill="url(#paint1_linear_5_242)"/>
<path opacity="0.58" d="M817.161 199.123C814.584 195.496 811.721 191.964 808.762 188.623C807.33 188.527 805.899 188.527 804.467 188.432C806.376 191.391 807.903 193.3 808.857 193.873C812.484 196.164 816.493 197.596 801.89 198.455C801.413 198.455 800.84 198.455 800.363 198.455C786.142 198.455 770.108 187.096 759.227 173.827C752.355 165.427 745.483 162.754 739.757 162.754C736.512 162.754 733.267 163.613 730.403 165.236C728.876 166.095 727.54 172.013 731.358 174.4C732.503 175.068 731.644 175.736 729.926 175.736C726.681 175.736 720.286 173.445 717.709 164.854C717.041 162.468 716.946 159.89 717.328 157.409C715.037 156.74 712.746 156.072 710.551 155.404C709.788 159.222 709.979 163.231 711.028 166.954C714.369 177.836 723.054 182.8 730.022 182.8C732.598 182.896 735.08 182.036 736.893 180.223C734.603 177.836 735.08 173.159 738.325 171.823C738.039 171.154 737.657 170.582 737.18 170.104C738.039 169.913 738.898 169.818 739.757 169.818C744.433 169.818 749.11 172.682 753.691 178.314C764.476 191.487 782.42 205.519 800.267 205.519C800.936 205.519 801.604 205.519 802.176 205.423C809.812 204.946 816.015 204.564 818.306 199.982C817.924 199.887 817.447 199.6 817.161 199.123Z" fill="#853B76"/>
<path d="M778.506 66.7244C779.174 66.7244 779.843 66.7244 780.511 66.7244C787.383 66.8199 794.064 68.729 799.886 72.1654V80.0884L807.044 77.3201C811.434 81.2339 814.87 86.1022 816.97 91.6387C821.551 104.239 830.427 126.576 836.154 131.349C838.254 133.067 836.249 133.735 832.145 133.735C825.273 133.735 812.579 132.017 805.23 131.444C804.371 131.349 803.608 131.349 802.844 131.349C792.918 131.349 789.291 136.79 790.341 154.068C790.819 159.413 791.868 164.663 793.682 169.722L797.213 178.791C801.508 188.527 806.662 196.259 808.666 197.5C812.293 199.791 816.302 201.223 801.699 202.082C801.222 202.082 800.649 202.082 800.172 202.082C785.951 202.082 769.917 190.723 759.036 177.454C752.164 169.054 745.292 166.381 739.566 166.381C736.321 166.381 733.076 167.241 730.212 168.863C728.685 169.722 727.349 175.641 731.167 178.027C732.312 178.695 731.453 179.364 729.735 179.364C726.49 179.364 720.095 177.073 717.519 168.482C713.414 155.308 730.499 129.249 747.297 99.2752C763.331 70.4472 762.854 66.7244 778.506 66.7244ZM778.506 59.6606C760.849 59.6606 757.604 65.5789 746.819 85.3385C745.101 88.3931 743.193 91.925 740.997 95.9342C738.42 100.612 735.748 105.098 733.267 109.585C718.187 135.931 706.352 156.645 710.647 170.772C713.987 181.655 722.672 186.618 729.64 186.618C734.889 186.618 737.561 183.659 738.42 180.891C739.089 178.409 738.516 175.832 736.798 173.923C737.657 173.732 738.516 173.636 739.375 173.636C744.052 173.636 748.728 176.5 753.31 182.132C764.095 195.305 782.038 209.337 799.886 209.337C800.554 209.337 801.222 209.337 801.794 209.242C810.289 208.764 817.065 208.383 818.592 202.082C820.024 196.45 815.156 193.491 813.057 192.25C812.866 192.155 812.675 191.964 812.484 191.868C811.148 190.437 807.235 184.614 803.512 176.214L800.172 167.431C798.645 162.945 797.69 158.363 797.309 153.686C796.641 142.899 798.168 140.131 798.836 139.367C799.504 138.603 801.604 138.508 802.749 138.508C803.322 138.508 803.99 138.508 804.658 138.603C807.235 138.794 810.48 139.176 814.011 139.463C820.597 140.131 827.373 140.894 832.145 140.894C835.008 140.894 841.594 140.894 843.598 135.262C844.076 134.022 845.125 129.726 840.64 126.003C837.967 123.808 831.191 110.444 823.555 89.3477C821.074 82.7612 816.97 76.9383 811.721 72.2609L808.475 69.3017L806.853 69.8745V68.1563L803.322 66.1517C796.354 62.1425 788.528 59.947 780.511 59.756C779.843 59.6606 779.174 59.6606 778.506 59.6606Z" fill="black"/>
<path d="M143.717 158.459C137.799 158.459 133.218 151.299 132.359 149.867L132.264 149.676L132.168 149.39C131.023 146.526 129.496 142.804 127.587 138.603C117.947 116.267 101.818 78.8474 111.362 55.365C121.861 29.5917 156.411 25.487 181.703 22.5278C184.28 22.2415 186.762 21.9551 189.148 21.5733L191.247 21.2869L192.297 23.1006C193.92 25.8688 195.351 28.828 196.497 31.7872C197.547 28.7325 198.692 25.6779 199.742 22.7188L200.505 20.6187H204.323C239.446 20.6187 275.142 22.4324 309.692 24.1506C343.383 25.8688 378.22 27.5871 412.388 27.6825H415.156C460.778 27.6825 506.781 25.2006 551.257 22.9097C578.745 21.4778 607.282 19.9505 635.438 18.9959C635.438 18.9959 652.331 18.805 657.008 18.805C684.209 18.805 726.681 31.5008 731.549 51.4513C739.757 85.1476 726.108 133.831 709.311 151.681L708.165 152.827L678.864 149.199C674.283 148.531 669.988 147.767 665.693 147.004C645.078 143.567 625.607 140.322 601.46 140.322C581.99 140.322 561.183 142.517 537.991 146.908C508.499 152.54 468.89 155.499 423.46 155.499C371.825 155.499 318.759 151.49 277.909 144.617L277.337 144.522L276.86 144.235C274.951 143.281 273.328 141.849 272.183 140.035C272.087 140.226 270.942 144.14 270.942 144.14L267.697 142.708C261.589 140.035 254.43 138.699 245.268 138.699C239.255 138.699 233.051 139.272 227.038 139.749C221.121 140.226 215.49 140.704 209.954 140.704C208.809 140.704 207.568 140.704 206.423 140.608C205.564 140.608 204.8 140.513 203.941 140.513C186.094 140.513 159.465 148.245 148.012 156.74C146.867 157.886 145.339 158.459 143.717 158.459Z" fill="url(#paint2_linear_5_242)"/>
<path opacity="0.58" d="M707.306 143.949C707.211 144.045 707.211 144.14 707.115 144.14L706.638 144.045C706.352 144.045 705.97 144.045 705.684 143.949L679.437 140.704C653.763 136.694 631.047 131.826 601.556 131.826C583.517 131.826 562.901 133.64 537.514 138.508C506.972 144.331 466.122 147.099 423.65 147.099C373.066 147.099 319.904 143.281 278.577 136.217C271.324 132.112 274.76 127.244 271.992 122.089C271.228 126.29 270.274 130.49 269.033 134.594C261.684 131.349 253.572 130.394 245.268 130.394C233.242 130.394 220.93 132.399 210.05 132.399C208.904 132.399 207.759 132.399 206.709 132.303C205.85 132.303 204.991 132.208 204.037 132.208C185.044 132.208 157.747 140.513 146.198 149.104C145.53 149.677 144.576 149.963 143.717 149.963C143.24 149.963 142.858 149.867 142.381 149.772C139.422 149.963 136.463 148.245 134.173 146.049C133.123 145.095 132.168 143.949 131.214 142.899C130.355 143.281 129.496 143.663 128.637 143.949C128.828 144.331 128.923 144.808 129.114 145.19L129.305 145.667L129.591 146.145C131.023 148.531 136.272 156.359 143.621 156.359C145.912 156.359 148.107 155.595 149.921 154.258C159.56 147.004 185.235 138.604 203.941 138.604C204.705 138.604 205.564 138.604 206.327 138.699C207.568 138.794 208.713 138.794 209.954 138.794C215.585 138.794 221.503 138.317 227.229 137.744C233.147 137.267 239.255 136.694 245.173 136.694C253.953 136.694 260.634 137.84 266.361 140.417L272.851 143.281L273.615 140.704C274.092 141.085 274.664 141.372 275.237 141.754L276.191 142.326L277.337 142.517C318.377 149.486 371.634 153.495 423.46 153.495C469.081 153.495 508.881 150.536 538.564 144.808C561.565 140.417 582.181 138.317 601.46 138.317C625.321 138.317 644.696 141.563 665.216 144.904C669.511 145.667 673.901 146.336 678.387 147.004H678.483H678.578L706.256 150.44L709.501 150.822L711.697 148.436C714.655 145.19 717.232 141.563 719.427 137.744C715.705 140.417 711.601 142.422 707.306 143.949Z" fill="#853B76"/>
<path d="M201.842 23.9597L217.971 23.2915C223.316 23.0051 228.756 23.2915 234.101 23.196C244.791 23.1006 255.576 23.0051 266.361 23.1006C287.931 23.8642 309.31 24.6279 330.785 25.2006C352.259 25.6779 373.638 26.2506 395.113 26.3461C416.492 26.537 437.967 26.7279 459.346 25.8688L588.003 20.8096C598.788 20.5232 609.477 20.0459 620.262 19.9505C630.952 19.855 641.642 19.3777 652.618 19.3777C663.498 19.9505 674.188 21.5733 684.782 24.1506C695.28 26.8234 705.302 31.0235 714.56 36.6555C705.016 31.8826 694.803 28.4462 684.305 26.3461C673.806 24.3415 663.212 23.3869 652.618 23.4824L588.48 27.3961C545.626 30.1644 502.772 32.6463 459.728 34.3645C416.588 35.51 373.638 34.0781 330.689 31.6917C320 31.119 309.215 30.4508 298.525 29.6871L266.456 27.2052C255.767 26.4416 245.077 25.9643 234.292 25.3915C223.316 24.8188 212.627 24.437 201.842 23.9597Z" fill="white"/>
<path d="M117.279 49.1603C121.861 44.0057 127.205 39.7101 133.123 36.2736C139.04 32.8372 145.339 30.0689 151.83 28.0643C158.32 26.0598 165.001 24.7234 171.777 24.0552C178.554 23.387 185.425 23.5779 192.106 24.6279C185.616 27.0143 179.317 28.7325 173.018 30.6417C166.719 32.4554 160.515 34.2691 154.311 36.1782C148.107 38.0873 141.999 40.0919 135.891 42.2874C129.782 44.4829 123.769 46.8694 117.279 49.1603Z" fill="white"/>
<path d="M657.103 21.9551C682.587 21.9551 724.2 34.1736 728.59 52.1195C736.321 83.6203 723.818 131.635 707.211 149.39L679.532 145.954C653.858 141.944 631.143 137.076 601.651 137.076C583.612 137.076 562.997 138.89 537.609 143.758C507.067 149.581 466.218 152.349 423.746 152.349C373.161 152.349 320 148.531 278.673 141.467C271.419 137.363 274.855 132.494 272.087 127.34C271.324 131.54 270.369 135.74 269.129 139.844C261.78 136.599 253.667 135.644 245.363 135.644C233.338 135.644 221.026 137.649 210.145 137.649C209 137.649 207.854 137.649 206.805 137.553C205.946 137.553 205.087 137.458 204.132 137.458C185.139 137.458 157.842 145.763 146.294 154.354C145.626 154.927 144.671 155.213 143.812 155.213C139.422 155.213 135.223 148.149 135.223 148.149C128.255 130.012 103.631 83.0475 114.416 56.4151C125.201 29.878 164.81 27.778 189.625 24.6279C192.584 29.6871 194.397 35.2236 196.974 40.3783C198.883 34.8418 200.887 29.2098 202.891 23.7688C203.369 23.7688 203.941 23.7688 204.419 23.7688C273.71 23.7688 343.288 30.6417 412.484 30.8326C413.438 30.8326 414.297 30.8326 415.251 30.8326C489.029 30.9281 652.713 21.9551 657.103 21.9551ZM657.103 15.6549C652.14 15.6549 641.164 15.6549 641.164 15.6549L635.438 15.8459C607.282 16.8004 578.745 18.2323 551.257 19.7596C506.781 22.146 460.873 24.5324 415.347 24.5324H412.579C378.506 24.437 343.669 22.7188 310.074 21.0005C275.523 19.2823 239.732 17.4686 204.514 17.4686H202.891H198.501L196.974 21.5733C196.783 22.146 196.497 22.8142 196.306 23.387C195.924 22.7188 195.542 22.0506 195.161 21.3824L193.061 17.755L188.861 18.3277C186.475 18.6141 183.994 18.9005 181.417 19.1868C155.361 22.2415 119.665 26.537 108.499 54.0286C98.4771 78.752 114.893 116.935 124.724 139.654C126.537 143.854 128.16 147.481 129.21 150.345L129.401 150.822L129.687 151.299C131.118 153.686 136.368 161.513 143.717 161.513C146.008 161.513 148.203 160.75 150.016 159.413C159.656 152.158 185.33 143.758 204.037 143.758C204.8 143.758 205.659 143.758 206.423 143.854C207.664 143.949 208.809 143.949 210.05 143.949C215.681 143.949 221.598 143.472 227.325 142.899C233.242 142.422 239.351 141.849 245.268 141.849C254.049 141.849 260.73 142.995 266.456 145.572L272.946 148.436L273.71 145.858C274.187 146.24 274.76 146.526 275.332 146.908L276.287 147.481L277.432 147.672C318.473 154.64 371.73 158.649 423.555 158.649C469.177 158.649 508.976 155.69 538.659 149.963C561.661 145.572 582.276 143.472 601.556 143.472C625.416 143.472 644.791 146.717 665.311 150.058C669.606 150.822 673.997 151.49 678.483 152.158H678.578H678.673L706.352 155.595L709.597 155.977L711.792 153.59C729.067 135.167 743.193 85.0521 734.794 50.4967C728.972 27.3007 681.823 15.6549 657.103 15.6549Z" fill="black"/>
<path d="M201.269 63.5743C205.659 63.9562 211.577 63.6698 215.585 64.2425C225.13 65.4835 227.802 67.5835 229.52 76.8429V76.9383C226.848 86.0067 223.03 87.6295 213.867 88.2977C212.627 88.3931 210.718 88.1068 209.382 88.2022C209.191 91.4478 209 94.6933 208.904 97.9388C205.755 97.8434 202.701 97.7479 199.551 97.6525C200.028 86.2931 200.41 74.9337 201.269 63.5743ZM214.058 81.043C217.399 80.852 218.926 79.9929 219.88 76.9383V76.8429C219.308 73.5973 217.876 72.5473 214.535 72.1655C213.486 72.07 211.481 72.07 210.241 71.9746C210.05 74.9337 209.859 77.9883 209.763 80.9475C211.004 80.852 213.008 81.043 214.058 81.043Z" fill="white"/>
<path d="M208.904 110.157C208.809 110.157 208.618 110.157 208.523 110.157C205.373 110.062 202.319 109.966 199.169 109.871C192.393 109.68 187.143 104.048 187.334 97.2706C187.334 97.1752 187.334 97.0797 187.334 96.9843C187.525 93.3569 187.716 89.7295 187.811 86.1022C188.193 78.4656 188.48 70.5427 189.052 62.7152C189.529 55.9378 195.351 50.8786 202.128 51.3558C202.223 51.3558 202.223 51.3558 202.319 51.3558C203.846 51.4513 205.755 51.5468 207.854 51.5468C211.004 51.5468 214.154 51.7377 217.208 52.1195C229.997 53.8377 238.492 58.1333 241.546 74.5519C241.928 76.5565 241.832 78.6565 241.164 80.6611C237.155 94.1206 229.138 98.2252 220.93 99.7525C219.976 105.766 214.917 110.157 208.904 110.157Z" fill="#FFF3D6"/>
<path d="M231.142 86.1022C231.142 86.0067 231.142 86.0067 231.142 85.9113C232.956 78.5611 237.155 72.9291 245.363 73.6928C255.003 74.5519 257.198 79.7066 258.057 88.5841C258.057 89.2523 257.962 89.825 257.866 90.4932C251.854 90.0159 245.936 89.5386 239.923 89.1568C240.973 91.9251 242.405 93.4524 245.459 93.8342C247.75 94.1206 249.658 92.9751 251.567 91.7341C253.285 93.2614 254.908 94.7888 256.53 96.4115C252.522 99.0843 249.563 101.375 244.409 100.612C236.296 99.1798 231.906 94.4069 231.142 86.1022ZM249.467 85.0521C248.895 82.5703 247.94 80.3748 245.077 80.1838C242.214 79.9929 241.069 82.093 240.114 84.384C243.264 84.6703 246.318 84.8612 249.467 85.0521Z" fill="white"/>
<path d="M246.509 112.83C245.173 112.83 243.932 112.735 242.596 112.544C228.947 110.444 220.357 101.28 218.926 87.3431V87.2477C218.83 85.8158 218.926 84.384 219.212 83.0476V82.9521C222.839 68.3472 232.956 60.3288 246.318 61.4743C267.602 63.288 269.51 81.3293 270.179 87.2477C270.274 88.5841 270.274 89.9205 270.083 91.2569C269.988 92.8796 269.51 94.5024 268.747 96.0297C268.842 100.23 266.838 104.144 263.402 106.435L262.734 106.912C259.203 109.298 254.049 112.83 246.509 112.83Z" fill="#FFF3D6"/>
<path d="M262.829 75.1246C265.979 75.411 269.129 75.6019 272.183 75.8883C272.087 77.1292 272.087 78.3702 271.992 79.5157C274.76 77.702 276.573 75.3156 280.391 76.1747C286.022 77.4156 288.694 80.0884 288.79 86.6749C288.885 91.3523 288.217 98.2252 288.122 103.284C284.972 103.189 281.823 102.903 278.577 102.616C278.673 98.4161 279.15 92.7842 279.15 88.8704C279.15 85.7204 278.482 84.2885 275.619 84.0976C272.851 83.9067 271.801 85.1476 271.419 88.2977C271.038 92.2114 270.942 97.8434 270.656 102.044C267.506 101.948 264.357 101.566 261.207 101.375C261.875 92.5933 262.352 83.9067 262.829 75.1246Z" fill="white"/>
<path d="M288.217 115.503C288.122 115.503 287.931 115.503 287.835 115.503C284.781 115.407 281.441 115.217 277.528 114.835C276.287 114.739 275.142 114.453 273.996 113.976C272.851 114.262 271.61 114.357 270.465 114.357C268.174 114.262 265.979 114.071 263.879 113.88C262.829 113.785 261.684 113.689 260.634 113.594C253.953 113.117 248.895 107.389 249.277 100.707C249.563 95.2661 249.849 89.825 250.231 84.384L250.804 74.5519C251.09 67.7745 256.817 62.6198 263.593 63.0016C263.688 63.0016 263.784 63.0016 263.879 63.0016L273.233 63.7653C273.996 63.8607 274.76 63.9562 275.428 64.1471C278.005 63.6698 280.582 63.6698 283.063 64.2425C294.612 66.8199 300.816 74.5519 301.006 86.3886C301.102 89.5386 300.816 93.0706 300.625 96.6025C300.434 99.0843 300.338 101.471 300.338 103.475C300.338 110.062 294.898 115.503 288.217 115.503Z" fill="#FFF3D6"/>
<path d="M292.703 108.535C293.753 106.53 294.898 104.525 295.948 102.616C298.907 104.048 301.961 105.48 305.301 105.575C309.692 105.575 311.792 103.857 312.651 99.6571C312.746 99.3707 312.651 98.8934 312.746 98.7025C309.596 100.516 308.069 102.521 303.965 101.853C297.093 100.707 293.371 96.2206 292.703 89.1568V89.0613C293.753 82.3794 297.857 78.1793 304.538 77.7974C308.833 77.6065 310.074 79.802 313.223 81.8066C313.128 80.852 313.223 79.802 313.319 78.752C316.468 78.9429 319.618 79.0384 322.767 79.4202C322.386 85.2431 322.577 93.2615 322.099 98.607C321.622 103.762 321.527 106.053 318.091 109.203C314.655 112.353 310.742 112.353 306.065 112.257C301.484 112.162 296.712 110.444 292.703 108.535ZM312.937 90.3977V90.3023C312.364 87.2477 310.837 85.3385 307.592 85.1476C304.347 84.9567 302.629 86.7704 301.866 89.7295V89.825C302.343 92.8796 303.965 94.8842 307.21 95.0751C310.551 95.1706 312.173 93.3569 312.937 90.3977Z" fill="white"/>
<path d="M307.687 124.476C307.115 124.476 306.447 124.476 305.874 124.476H305.683C300.148 124.38 293.944 122.758 287.358 119.608C281.25 116.744 278.673 109.394 281.632 103.284C281.727 103.189 281.727 103.094 281.823 102.998C282.3 102.043 282.777 101.184 283.254 100.325C281.823 97.1752 280.868 93.7387 280.582 90.3023C280.486 89.2523 280.486 88.2022 280.677 87.1522C282.682 74.4564 291.653 66.2471 303.965 65.6744C306.542 65.4835 309.119 65.8653 311.601 66.7244C312.46 66.629 313.319 66.629 314.082 66.629C315.132 66.7244 316.182 66.7244 317.232 66.8199C319.427 66.9153 321.718 67.0108 324.104 67.2972C330.594 68.0608 335.27 73.6928 334.889 80.1839C334.698 82.4748 334.698 85.434 334.602 88.2022C334.507 92.2114 334.411 96.3161 334.125 99.7525V100.23C333.648 105.671 332.98 111.78 326.394 118.08C320.095 123.903 312.937 124.476 307.687 124.476Z" fill="#FFF3D6"/>
<path d="M327.062 96.2206C326.967 91.4478 327.444 84.6703 327.444 79.6111C330.594 79.6111 333.743 79.802 336.893 80.0884C336.893 84.2885 336.511 89.9205 336.607 93.8342C336.702 96.9843 337.466 98.4161 340.329 98.5116C343.192 98.607 344.147 97.2706 344.338 94.1206C344.624 90.2068 344.528 84.6703 344.719 80.4702C347.869 80.4702 351.019 80.6611 354.073 80.7566C353.977 89.4432 353.786 98.2252 353.691 106.912C350.541 106.816 347.392 106.721 344.147 106.53C344.147 105.384 344.147 104.144 344.242 102.998C341.474 104.907 339.756 107.294 335.843 106.53C330.117 105.289 327.253 102.807 327.062 96.2206Z" fill="white"/>
<path d="M353.595 119.035C353.5 119.035 353.309 119.035 353.214 119.035C350.541 118.939 347.105 118.844 343.574 118.653C342.81 118.653 342.047 118.558 341.283 118.367C338.706 118.939 336.034 119.035 333.457 118.462C321.813 116.171 315.227 108.439 314.846 96.6024C314.75 93.5478 314.941 90.0159 315.037 86.5795C315.132 84.0021 315.228 81.6157 315.228 79.6111C315.228 72.8337 320.668 67.3926 327.444 67.3926H327.54C330.594 67.3926 333.839 67.5835 337.752 67.8699C338.897 67.9654 340.043 68.2517 341.188 68.6336C342.238 68.3472 343.383 68.1563 344.528 68.1563C346.628 68.1563 348.537 68.2517 350.446 68.2517C351.687 68.2517 352.927 68.3472 354.168 68.3472C360.945 68.4426 366.289 73.9791 366.194 80.7566L366.098 87.6295C366.003 94.0251 365.908 100.516 365.812 106.912C365.717 113.689 360.276 119.035 353.595 119.035Z" fill="#FFF3D6"/>
<path d="M359.227 71.5927C362.472 71.6882 365.717 71.6882 368.962 71.7836L368.866 78.5611C365.621 78.4656 362.376 78.4656 359.131 78.3702C359.131 76.0792 359.131 73.7882 359.227 71.5927ZM359.227 80.6611C362.376 80.7566 365.526 80.7566 368.58 80.852C368.485 89.6341 368.389 98.3207 368.389 107.103C365.24 107.007 361.994 107.007 358.845 106.912C359.036 98.2252 359.131 89.4432 359.227 80.6611Z" fill="white"/>
<path d="M368.485 119.417C368.389 119.417 368.294 119.417 368.294 119.417H367.53C364.667 119.321 361.613 119.321 358.654 119.226C351.973 119.035 346.724 113.498 346.819 106.816C346.914 102.33 346.914 97.9389 347.01 93.4524C347.105 89.1568 347.105 84.8612 347.201 80.5657C347.201 80.4702 347.201 80.4702 347.201 80.3748C347.105 79.6111 347.01 78.9429 347.01 78.1793L347.105 71.4018C347.201 64.6244 352.736 59.2788 359.513 59.3742C361.804 59.3742 364.19 59.4697 366.48 59.4697H369.153C375.834 59.5652 381.274 65.1017 381.178 71.7836L381.083 78.5611C381.083 79.3247 380.988 80.0884 380.892 80.7566C380.892 80.8521 380.892 80.8521 380.892 80.9475C380.892 84.384 380.797 87.8204 380.797 91.2569C380.797 96.507 380.701 101.853 380.701 107.103C380.606 113.976 375.166 119.417 368.485 119.417Z" fill="#FFF3D6"/>
<path d="M373.925 80.9475C377.074 80.9475 380.224 81.043 383.278 81.043C383.278 82.2839 383.278 83.5248 383.278 84.6703C385.951 82.6657 387.573 80.0884 391.391 80.7566C397.117 81.7111 399.885 84.0976 400.267 90.5887C400.553 95.266 400.267 102.234 400.458 107.294C397.308 107.485 394.159 107.389 391.009 107.294C390.914 103.094 391.104 97.4616 391.009 93.5478C390.914 90.3977 390.055 89.0613 387.287 88.9659C384.519 88.8704 383.565 90.3023 383.374 93.4524C383.183 97.3661 383.374 102.998 383.278 107.198C380.129 107.294 376.979 107.198 373.829 107.198C373.829 98.5116 373.925 89.7295 373.925 80.9475Z" fill="white"/>
<path d="M396.067 119.703C394.35 119.703 392.536 119.703 390.532 119.608C389.291 119.608 388.146 119.321 387 118.939C385.855 119.321 384.71 119.512 383.564 119.512C380.892 119.608 378.315 119.608 375.834 119.512C375.07 119.512 374.307 119.512 373.638 119.512C366.862 119.417 361.517 113.976 361.517 107.198C361.517 104.048 361.517 100.803 361.613 97.6525C361.613 92.2114 361.708 86.484 361.708 80.9475C361.708 74.17 367.148 68.729 373.925 68.729H374.02H377.647C379.556 68.729 381.56 68.729 383.469 68.8245C384.233 68.8245 384.996 68.9199 385.76 69.0154C388.241 68.3472 390.914 68.2517 393.395 68.6335C405.135 70.5427 411.816 77.7974 412.579 89.825C412.77 92.8796 412.77 96.507 412.675 100.039C412.675 102.521 412.675 104.907 412.675 106.912C412.865 113.594 407.712 119.226 401.031 119.512C399.408 119.608 397.785 119.703 396.067 119.703Z" fill="#FFF3D6"/>
<path d="M432.24 73.311C441.403 73.2155 450.565 73.1201 459.632 73.0246C459.632 75.6974 459.728 78.3702 459.728 81.043C453.715 81.1384 447.702 81.2339 441.594 81.2339C441.594 82.9521 441.594 84.6703 441.594 86.3886C447.034 86.2931 452.57 86.2931 458.01 86.1977C458.01 88.6795 458.105 91.1614 458.105 93.6433C452.665 93.7388 447.129 93.8342 441.689 93.8342C441.689 95.6479 441.689 97.4616 441.785 99.2753C447.893 99.1798 454.001 99.1798 460.205 98.9889C460.205 101.662 460.3 104.334 460.3 107.007C451.042 107.103 441.689 107.294 432.431 107.294C432.527 96.0297 432.336 84.6703 432.24 73.311Z" fill="white"/>
<path d="M432.527 119.608C425.75 119.608 420.31 114.167 420.31 107.389C420.31 100.993 420.215 94.5024 420.215 88.2022C420.215 83.2385 420.119 78.2747 420.119 73.4064C420.119 66.629 425.464 61.1879 432.24 61.0925C442.834 60.997 451.52 60.9016 459.537 60.8061C466.313 60.7106 471.849 66.0562 471.944 72.8337V74.4564C471.944 76.652 472.04 78.752 472.04 80.9475C472.04 83.143 471.467 85.3385 470.417 87.1522L470.513 92.2114C471.849 94.1206 472.517 96.4115 472.517 98.798L472.613 106.816C472.708 113.594 467.363 119.13 460.587 119.226C450.184 119.417 441.021 119.512 432.527 119.608Z" fill="#FFF3D6"/>
<path d="M464.309 80.6612C467.363 80.5657 470.417 80.5657 473.567 80.4702C473.567 81.6157 473.567 82.8567 473.662 84.0021C475.953 81.6157 477.957 79.8975 481.489 79.7066C484.734 79.5157 487.12 81.043 489.124 83.5249C491.987 81.4248 493.896 78.752 497.905 79.1338C503.727 79.7066 506.399 81.9976 506.972 88.5841C507.449 93.166 507.258 100.23 507.64 105.194C504.49 105.48 501.436 105.575 498.287 105.671C498.096 101.471 498.096 95.7434 497.809 91.9251C497.619 88.8705 496.855 87.5341 494.087 87.6295C491.319 87.725 490.556 89.1568 490.46 92.2114C490.365 96.1252 490.747 101.757 490.747 105.957C487.692 106.148 484.543 106.339 481.489 106.339C481.298 102.139 481.393 96.4115 481.107 92.5933C480.916 89.5386 480.248 88.1068 477.48 88.2023C474.712 88.2977 473.949 89.6341 473.853 92.7842C473.758 96.6979 474.044 102.33 474.044 106.625C470.99 106.816 467.84 106.816 464.691 106.912C464.595 98.1298 464.5 89.4432 464.309 80.6612Z" fill="white"/>
<path d="M464.691 119.13C458.01 119.13 452.57 113.785 452.474 107.103C452.379 98.3207 452.188 89.5386 452.092 80.852C451.997 74.0746 457.342 68.5381 464.118 68.4426C467.268 68.3472 470.513 68.3472 473.185 68.2517C474.044 68.2517 474.808 68.2517 475.571 68.4426C477.289 67.9654 479.007 67.679 480.725 67.5835C483.493 67.4881 486.261 67.8699 488.838 68.8245C491.987 67.2972 495.519 66.7244 498.955 67.1062C510.885 68.3472 517.757 75.411 518.902 87.534C519.189 90.5887 519.284 94.216 519.38 97.7479C519.475 100.23 519.475 102.616 519.57 104.621C519.952 111.207 515.085 116.935 508.499 117.508C505.445 117.794 502.2 117.985 498.287 117.985C497.141 117.985 495.901 117.889 494.851 117.508C493.801 117.889 492.656 118.176 491.51 118.271C488.074 118.558 484.638 118.653 481.393 118.653C480.248 118.653 479.103 118.462 478.053 118.176C477.003 118.558 475.953 118.748 474.903 118.844C472.517 119.035 470.131 119.035 467.936 119.13C466.981 119.13 466.027 119.13 465.168 119.226C464.977 119.13 464.882 119.13 464.691 119.13Z" fill="#FFF3D6"/>
<path d="M511.458 78.9429C514.512 78.752 517.566 78.5611 520.716 78.3702C520.716 79.5156 520.811 80.6611 520.811 81.8066C523.865 79.7066 524.629 77.2247 529.019 77.511C535.987 77.9883 539.9 83.0476 540.854 90.1114V90.2068C540.568 97.3661 537.036 103.094 530.165 104.43C525.774 105.289 524.82 103.094 521.479 101.471C521.766 105.098 521.766 108.725 521.956 112.353C518.807 112.544 515.753 112.639 512.603 112.83C512.126 101.566 511.84 90.3023 511.458 78.9429ZM531.692 90.9705V90.875C531.024 87.8204 529.592 85.2431 526.06 85.5294C522.625 85.7203 521.384 88.4886 520.907 91.5432V91.6387C521.575 94.6933 523.006 97.2706 526.442 97.0797C529.878 96.8888 531.214 94.1206 531.692 90.9705Z" fill="white"/>
<path d="M512.508 125.144C505.922 125.144 500.482 119.894 500.291 113.307C500.1 108.535 500.005 103.857 499.814 99.0843C499.623 92.4978 499.432 85.9113 499.146 79.4202C498.955 72.7382 504.013 67.2017 510.694 66.8199C512.412 66.7244 514.13 66.629 515.848 66.5335L519.857 66.3426C520.62 66.3426 521.288 66.3426 522.052 66.438C524.533 65.6744 527.11 65.2926 529.687 65.5789C542.095 66.438 550.971 75.3155 552.784 88.6795C552.88 89.3477 552.88 90.1114 552.88 90.7796V90.875C552.403 103.762 544.767 113.689 533.41 116.362C531.787 121.135 527.492 124.476 522.434 124.762L513.08 125.24C512.985 125.144 512.794 125.144 512.508 125.144Z" fill="#FFF3D6"/>
<path d="M543.717 90.2068C543.717 90.1114 543.717 90.1114 543.717 90.0159C544.767 82.5703 548.108 76.3656 556.316 75.8883C565.86 75.2201 568.437 80.0884 570.346 88.6795C570.441 89.3477 570.441 89.9205 570.441 90.5887C564.524 91.0659 558.702 91.5432 552.784 92.0205C554.121 94.5978 555.648 95.9342 558.702 95.7433C560.992 95.6479 562.71 94.216 564.333 92.6887C566.146 93.9296 567.864 95.1706 569.678 96.507C566.146 99.7525 563.474 102.521 558.32 102.425C550.112 102.425 545.435 98.3207 543.717 90.2068ZM561.47 86.5795C560.706 84.193 559.465 82.1884 556.698 82.3794C553.93 82.5703 552.975 84.8612 552.307 87.2477C555.457 87.0567 558.416 86.8658 561.47 86.5795Z" fill="white"/>
<path d="M558.416 114.739C558.32 114.739 558.32 114.739 558.225 114.739C544.29 114.644 534.65 106.625 531.787 92.6887V92.5932C531.501 91.2569 531.501 89.9205 531.596 88.4886V88.3931C533.601 73.7882 542.572 64.5289 555.457 63.6698C577.027 62.2379 580.94 80.1838 582.181 86.0067C582.467 87.2477 582.563 88.5841 582.563 89.9205C582.658 91.5432 582.372 93.2615 581.799 94.7888C581.799 95.1706 581.894 95.457 581.894 95.8388C582.085 99.4662 580.654 103.094 577.886 105.575L577.218 106.148C573.591 109.585 567.96 114.739 558.416 114.739Z" fill="#FFF3D6"/>
<path d="M573.495 74.6473C576.55 74.361 579.604 74.17 582.753 73.8837C582.849 75.6019 582.944 77.4156 583.04 79.1338C584.758 75.411 586.857 73.5018 591.057 72.7382C591.248 75.9837 591.439 79.2293 591.63 82.3794C591.439 82.4748 591.057 82.3793 590.866 82.4748C585.521 84.193 583.994 86.3885 583.899 92.2114C583.803 94.1206 584.28 97.7479 584.28 100.039C581.226 100.421 578.077 100.612 575.023 100.803C574.45 92.116 573.973 83.3339 573.495 74.6473Z" fill="white"/>
<path d="M574.927 113.021C568.437 113.021 563.092 107.962 562.71 101.471C562.233 92.7842 561.756 84.0976 561.374 75.411C560.992 68.8245 565.955 63.097 572.541 62.5243L581.799 61.7606C582.753 61.6652 583.803 61.7606 584.758 61.8561C586.094 61.3788 587.43 60.997 588.862 60.8061C595.543 59.5651 601.842 63.9562 603.083 70.5427C603.178 71.02 603.274 71.5927 603.274 72.07C603.369 73.9791 603.464 75.8883 603.56 77.702L603.751 81.7111C604.037 86.9613 600.983 91.8296 596.02 93.8342C596.02 94.4069 596.115 95.0751 596.115 95.5524C596.211 96.9843 596.306 98.5116 596.306 99.848C596.402 106.148 591.725 111.398 585.521 112.162C583.326 112.448 581.131 112.544 579.031 112.735C577.981 112.83 576.931 112.926 575.786 113.021C575.595 113.021 575.213 113.021 574.927 113.021Z" fill="#FFF3D6"/>
<path d="M593.538 86.2931C593.538 86.1977 593.538 86.1977 593.538 86.1022C594.875 78.0838 598.597 72.3564 607.378 71.5927C616.158 70.8291 620.644 76.1747 622.839 84.0976C622.839 84.1931 622.839 84.1931 622.839 84.2885C621.885 92.6887 617.686 98.1298 609 98.5116C600.315 98.8934 595.829 94.1206 593.538 86.2931ZM613.677 84.7658V84.6703C612.913 81.5203 611.195 79.0384 607.664 79.3248C604.133 79.6111 602.892 82.1885 602.51 85.434V85.5295C603.369 88.6795 604.896 91.1614 608.523 90.9705C612.054 90.6841 613.295 88.0113 613.677 84.7658Z" fill="white"/>
<path d="M607.855 110.921C595.161 110.921 585.712 103.284 581.799 89.7296V89.6341C581.322 87.8204 581.226 86.0067 581.513 84.193C583.899 69.5881 592.966 60.5197 606.423 59.4697C620.262 58.3242 630.57 66.1517 634.674 80.9475C635.056 82.4748 635.247 84.1931 635.056 85.7204V85.8158C633.338 100.707 623.794 110.062 609.668 110.826C609 110.826 608.428 110.921 607.855 110.921ZM606.805 86.2931C607.282 86.3886 607.759 86.3886 608.237 86.3886C608.714 86.3886 609.287 86.2931 609.668 86.1022C609.859 85.8158 610.05 85.434 610.146 85.1476C610.05 84.8612 609.859 84.5749 609.764 84.384L607.569 84.193L606.71 84.384C606.519 84.6703 606.328 85.0522 606.232 85.434C606.423 85.7204 606.614 86.1022 606.805 86.2931ZM606.9 84.0976C606.805 84.193 606.71 84.2885 606.71 84.384L607.473 84.193L606.9 84.0976ZM607.664 84.193L609.668 84.384C609.573 84.1931 609.477 84.0021 609.287 83.9067C609.191 83.9067 609.096 83.9067 608.905 83.9067L607.664 84.193ZM606.996 84.0976L607.569 84.193L608.809 83.9067C608.714 83.9067 608.523 83.9067 608.237 83.9067C607.855 83.8112 607.378 83.9067 606.996 84.0976Z" fill="#FFF3D6"/>
<path d="M625.798 70.6382C629.043 70.6382 632.193 70.7336 635.438 70.9245C635.533 72.7382 635.724 74.6473 635.82 76.461C637.633 72.6427 639.828 71.1154 644.028 70.7336C644.219 74.1701 644.409 77.6065 644.6 81.043C644.314 81.1384 644.028 80.9475 643.837 81.043C638.11 82.2839 636.869 84.6703 636.679 90.6841C636.583 92.6887 636.869 96.6024 636.869 98.9889C633.815 98.8934 630.666 98.607 627.612 98.4161C627.23 89.1568 626.371 79.9929 625.798 70.6382Z" fill="white"/>
<path d="M636.869 111.303C636.774 111.303 636.679 111.303 636.488 111.303C634.483 111.207 632.575 111.112 630.666 111.016C629.329 110.921 628.089 110.826 626.943 110.826C620.644 110.539 615.586 105.48 615.299 99.0843C615.108 93.2615 614.631 87.3431 614.25 81.5203C614.059 78.2747 613.772 74.9337 613.581 71.5927C613.2 64.8153 618.258 59.0879 625.035 58.6106C625.321 58.6106 625.607 58.6106 625.894 58.6106C629.52 58.6106 632.956 58.8015 635.915 58.897C636.965 58.897 637.919 59.0879 638.969 59.3743C640.305 59.0879 641.737 58.8015 643.169 58.7061C649.945 58.2288 655.767 63.288 656.244 70.0654C656.244 70.1609 656.244 70.1609 656.244 70.2563L656.435 73.2155C656.531 75.6974 656.721 78.1793 656.817 80.6611C657.103 86.0067 653.858 90.875 648.895 92.6887C648.895 93.2615 648.895 93.9297 648.991 94.5024C649.086 96.1252 649.086 97.8434 649.086 99.3707C648.895 105.957 643.55 111.303 636.869 111.303Z" fill="#FFF3D6"/>
<path d="M201.269 63.5743C205.659 63.9562 211.577 63.6698 215.585 64.2425C225.13 65.4835 227.802 67.5835 229.52 76.8429V76.9383C226.848 86.0067 223.03 87.6295 213.867 88.2977C212.627 88.3931 210.718 88.1068 209.382 88.2022C209.191 91.4478 209 94.6933 208.904 97.9388C205.755 97.8434 202.701 97.7479 199.551 97.6525C200.028 86.2931 200.41 74.9337 201.269 63.5743ZM214.058 81.043C217.399 80.852 218.926 79.9929 219.88 76.9383V76.8429C219.308 73.5973 217.876 72.5473 214.535 72.1655C213.486 72.07 211.481 72.07 210.241 71.9746C210.05 74.9337 209.859 77.9883 209.763 80.9475C211.004 80.852 213.008 81.043 214.058 81.043Z" fill="white"/>
<path d="M208.904 106.53C208.809 106.53 208.713 106.53 208.618 106.53C205.468 106.434 202.414 106.339 199.265 106.244C194.588 106.148 190.866 102.139 190.961 97.4615C190.961 97.3661 190.961 97.3661 190.961 97.2706C191.152 93.6433 191.343 90.0159 191.438 86.3885C191.82 78.752 192.106 70.8291 192.679 63.097C192.965 58.4197 197.069 54.7923 201.842 55.1741H201.937C203.56 55.2696 205.564 55.365 207.664 55.365C210.622 55.365 213.676 55.5559 216.635 55.8423C230.093 57.656 235.437 62.5243 237.919 75.411C238.205 76.8428 238.11 78.3702 237.633 79.7066C234.101 91.7341 227.229 95.4569 217.494 96.6024C217.494 97.1752 217.399 97.7479 217.399 98.4161C217.112 102.903 213.39 106.53 208.904 106.53Z" fill="black"/>
<path d="M231.142 86.1022C231.142 86.0067 231.142 86.0067 231.142 85.9113C232.956 78.5611 237.155 72.9291 245.363 73.6928C255.003 74.5519 257.198 79.7066 258.057 88.5841C258.057 89.2523 257.962 89.825 257.866 90.4932C251.854 90.0159 245.936 89.5386 239.923 89.1568C240.973 91.9251 242.405 93.4524 245.459 93.8342C247.75 94.1206 249.658 92.9751 251.567 91.7341C253.285 93.2614 254.908 94.7888 256.53 96.4115C252.522 99.0843 249.563 101.375 244.409 100.612C236.296 99.1798 231.906 94.4069 231.142 86.1022ZM249.467 85.0521C248.895 82.5703 247.94 80.3748 245.077 80.1838C242.214 79.9929 241.069 82.093 240.114 84.384C243.264 84.6703 246.318 84.8612 249.467 85.0521Z" fill="white"/>
<path d="M246.509 109.203C245.363 109.203 244.218 109.107 243.073 108.916C231.047 107.007 223.793 99.2752 222.553 86.9613C222.457 85.9113 222.553 84.9567 222.744 83.9067C225.893 71.2109 234.578 64.1471 246.032 65.1971C264.357 66.8199 265.884 81.4248 266.552 87.7249C266.647 88.775 266.647 89.9205 266.456 90.9705C266.361 92.4978 265.884 93.9297 265.12 95.2661C265.597 98.5116 264.166 101.662 261.398 103.475L260.73 103.953C257.198 106.244 252.903 109.203 246.509 109.203Z" fill="black"/>
<path d="M262.829 75.1246C265.979 75.411 269.129 75.6019 272.183 75.8883C272.087 77.1292 272.087 78.3702 271.992 79.5157C274.76 77.702 276.573 75.3156 280.391 76.1747C286.022 77.4156 288.694 80.0884 288.79 86.6749C288.885 91.3523 288.217 98.2252 288.122 103.284C284.972 103.189 281.823 102.903 278.577 102.616C278.673 98.4161 279.15 92.7842 279.15 88.8704C279.15 85.7204 278.482 84.2885 275.619 84.0976C272.851 83.9067 271.801 85.1476 271.419 88.2977C271.038 92.2114 270.942 97.8434 270.656 102.044C267.506 101.948 264.357 101.566 261.207 101.375C261.875 92.5933 262.352 83.9067 262.829 75.1246Z" fill="white"/>
<path d="M288.217 111.78C288.122 111.78 288.026 111.78 287.931 111.78C284.972 111.685 281.727 111.494 277.814 111.112C276.573 111.016 275.237 110.539 274.187 109.871C273.042 110.348 271.801 110.635 270.465 110.539C268.27 110.444 266.075 110.253 263.975 110.062C262.925 109.966 261.78 109.871 260.73 109.775C256.053 109.489 252.522 105.48 252.808 100.803C253.094 95.3615 253.381 89.9205 253.762 84.4794L254.335 74.5519C254.621 69.8745 258.63 66.2471 263.402 66.5335C263.498 66.5335 263.498 66.5335 263.593 66.5335L272.946 67.2972C273.71 67.3926 274.569 67.4881 275.332 67.7744C277.623 67.2017 280.009 67.1062 282.395 67.679C292.226 69.8745 297.284 76.1747 297.475 86.3885C297.571 89.3477 297.284 92.8796 297.093 96.3161C296.903 98.8934 296.807 101.28 296.807 103.284C296.712 108.057 292.894 111.78 288.217 111.78Z" fill="black"/>
<path d="M292.703 108.535C293.753 106.53 294.898 104.525 295.948 102.616C298.907 104.048 301.961 105.48 305.301 105.575C309.692 105.575 311.792 103.857 312.651 99.6571C312.746 99.3707 312.651 98.8934 312.746 98.7025C309.596 100.516 308.069 102.521 303.965 101.853C297.093 100.707 293.371 96.2206 292.703 89.1568V89.0613C293.753 82.3794 297.857 78.1793 304.538 77.7974C308.833 77.6065 310.074 79.802 313.223 81.8066C313.128 80.852 313.223 79.802 313.319 78.752C316.468 78.9429 319.618 79.0384 322.767 79.4202C322.386 85.2431 322.577 93.2615 322.099 98.607C321.622 103.762 321.527 106.053 318.091 109.203C314.655 112.353 310.742 112.353 306.065 112.257C301.484 112.162 296.712 110.444 292.703 108.535ZM312.937 90.3977V90.3023C312.364 87.2477 310.837 85.3385 307.592 85.1476C304.347 84.9567 302.629 86.7704 301.866 89.7295V89.825C302.343 92.8796 303.965 94.8842 307.21 95.0751C310.551 95.1706 312.173 93.3569 312.937 90.3977Z" fill="white"/>
<path d="M307.783 120.849C307.115 120.849 306.542 120.849 305.97 120.849H305.779C300.816 120.753 295.089 119.226 288.981 116.362C284.686 114.357 282.872 109.203 284.972 104.907C284.972 104.812 285.068 104.716 285.068 104.716C285.831 103.189 286.69 101.757 287.454 100.421C285.64 97.2706 284.495 93.6433 284.209 90.0159C284.113 89.2523 284.209 88.4886 284.304 87.725C286.022 76.9383 293.657 69.8745 304.156 69.3972C306.638 69.2063 309.024 69.5881 311.314 70.5427C312.173 70.3518 313.032 70.2563 313.891 70.3518C314.941 70.4472 315.991 70.4472 317.041 70.5427C319.141 70.6382 321.336 70.7336 323.626 71.02C328.112 71.5927 331.453 75.5065 331.166 80.0884C330.976 82.4748 330.976 85.434 330.88 88.2977C330.785 92.2114 330.689 96.2206 330.403 99.5616V100.039C329.926 105.289 329.448 110.253 323.817 115.598C318.568 120.371 312.746 120.849 307.783 120.849Z" fill="black"/>
<path d="M327.062 96.2206C326.967 91.4477 327.444 84.6703 327.444 79.6111C330.594 79.6111 333.743 79.802 336.893 80.0884C336.893 84.2885 336.511 89.9204 336.607 93.8342C336.702 96.9843 337.466 98.4161 340.329 98.5116C343.192 98.607 344.147 97.2706 344.338 94.1205C344.624 90.2068 344.528 84.6703 344.719 80.4702C347.869 80.4702 351.019 80.6611 354.073 80.7566C353.977 89.4431 353.786 98.2252 353.691 106.912C350.541 106.816 347.392 106.721 344.147 106.53C344.147 105.384 344.147 104.144 344.242 102.998C341.474 104.907 339.756 107.294 335.843 106.53C330.117 105.289 327.253 102.807 327.062 96.2206Z" fill="white"/>
<path d="M353.595 115.312C353.5 115.312 353.405 115.312 353.309 115.312C350.637 115.217 347.201 115.121 343.669 114.93C342.81 114.93 342.047 114.739 341.283 114.453C338.993 115.121 336.511 115.217 334.125 114.739C324.008 112.735 318.759 106.625 318.473 96.3161C318.377 93.3569 318.568 89.9204 318.663 86.5794C318.759 84.0976 318.854 81.5202 318.854 79.4202C318.854 74.6473 322.672 70.829 327.444 70.829H327.54C330.594 70.829 333.743 71.02 337.561 71.3063C338.802 71.4018 340.043 71.7836 341.092 72.3564C342.238 71.8791 343.383 71.5927 344.624 71.5927C346.628 71.5927 348.537 71.6882 350.446 71.6882C351.687 71.6882 352.927 71.7836 354.168 71.7836C358.845 71.8791 362.663 75.7928 362.567 80.4702L362.472 87.3431C362.376 93.7387 362.281 100.23 362.185 106.625C362.09 111.589 358.272 115.312 353.595 115.312Z" fill="black"/>
<path d="M359.227 71.5927C362.472 71.6882 365.717 71.6882 368.962 71.7836L368.866 78.5611C365.621 78.4656 362.376 78.4656 359.131 78.3702C359.131 76.0792 359.131 73.7882 359.227 71.5927ZM359.227 80.6611C362.376 80.7566 365.526 80.7566 368.58 80.852C368.485 89.6341 368.389 98.3207 368.389 107.103C365.239 107.007 361.994 107.007 358.845 106.912C359.036 98.2252 359.131 89.4432 359.227 80.6611Z" fill="white"/>
<path d="M368.485 115.694C368.389 115.694 368.389 115.694 368.294 115.694H367.53C364.667 115.598 361.613 115.598 358.654 115.503C353.977 115.312 350.35 111.494 350.35 106.816C350.446 102.33 350.446 97.9388 350.541 93.4524C350.637 89.1568 350.637 84.8612 350.732 80.5657C350.732 80.3748 350.732 80.2793 350.732 80.0884C350.637 79.4202 350.541 78.8474 350.541 78.1792L350.637 71.4018C350.732 66.6289 354.645 62.9061 359.322 63.0016C361.613 63.0016 363.999 63.097 366.289 63.097H368.962C373.638 63.1925 377.456 67.0108 377.361 71.6882L377.265 78.4656C377.265 79.1338 377.17 79.7065 377.074 80.3747C377.074 80.5657 377.074 80.6611 377.074 80.852C377.074 84.2885 376.979 87.7249 376.979 91.1614C376.884 96.4115 376.884 101.757 376.884 107.007C376.979 111.971 373.161 115.694 368.485 115.694Z" fill="black"/>
<path d="M373.925 80.9475C377.074 80.9475 380.224 81.043 383.278 81.043C383.278 82.2839 383.278 83.5248 383.278 84.6703C385.951 82.6657 387.573 80.0884 391.391 80.7566C397.117 81.7111 399.885 84.0976 400.267 90.5887C400.553 95.266 400.267 102.234 400.458 107.294C397.308 107.485 394.159 107.389 391.009 107.294C390.914 103.094 391.104 97.4616 391.009 93.5478C390.914 90.3977 390.055 89.0613 387.287 88.9659C384.519 88.8704 383.565 90.3023 383.374 93.4524C383.183 97.3661 383.374 102.998 383.278 107.198C380.129 107.294 376.979 107.198 373.829 107.198C373.829 98.5116 373.925 89.7295 373.925 80.9475Z" fill="white"/>
<path d="M396.067 115.98C394.35 115.98 392.632 115.98 390.627 115.885C389.387 115.885 388.146 115.503 387 114.93C385.855 115.503 384.71 115.789 383.469 115.789C380.892 115.885 378.315 115.789 375.929 115.789C375.166 115.789 374.402 115.789 373.638 115.789C368.962 115.789 365.144 111.876 365.144 107.198C365.144 104.048 365.144 100.803 365.239 97.6525C365.239 92.2114 365.335 86.484 365.335 80.9475C365.335 76.1747 369.153 72.3564 373.925 72.3564C373.925 72.3564 373.925 72.3564 374.02 72.3564H377.647C379.556 72.3564 381.56 72.3564 383.469 72.4518C384.233 72.4518 385.092 72.5473 385.855 72.8337C388.146 72.07 390.532 71.8791 392.918 72.2609C402.939 73.8837 408.38 79.802 408.952 90.0159C409.143 92.9751 409.143 96.507 409.048 99.9434C409.048 102.521 409.048 104.907 409.048 107.007C409.239 111.685 405.516 115.598 400.84 115.789C399.313 115.98 397.785 115.98 396.067 115.98Z" fill="black"/>
<path d="M432.24 73.3109C441.403 73.2155 450.565 73.12 459.632 73.0246C459.632 75.6974 459.728 78.3702 459.728 81.043C453.715 81.1384 447.702 81.2339 441.594 81.2339C441.594 82.9521 441.594 84.6703 441.594 86.3885C447.034 86.2931 452.57 86.2931 458.01 86.1976C458.01 88.6795 458.105 91.1614 458.105 93.6433C452.665 93.7387 447.129 93.8342 441.689 93.8342C441.689 95.6479 441.689 97.4615 441.785 99.2752C447.893 99.1798 454.001 99.1798 460.205 98.9889C460.205 101.662 460.3 104.334 460.3 107.007C451.042 107.103 441.689 107.294 432.431 107.294C432.527 96.0297 432.336 84.6703 432.24 73.3109Z" fill="white"/>
<path d="M432.527 115.885C427.85 115.885 424.032 112.066 423.937 107.389C423.937 100.993 423.841 94.5024 423.841 88.2022C423.841 83.2385 423.746 78.3702 423.746 73.4064C423.746 68.729 427.468 64.8153 432.24 64.8153C442.834 64.7198 451.52 64.6244 459.632 64.5289H459.728C464.404 64.5289 468.222 68.2517 468.318 72.9291V74.5519C468.318 76.7474 468.413 78.8474 468.413 81.043C468.413 82.8566 467.84 84.6703 466.791 86.1976L466.886 93.5478C468.127 95.0751 468.89 96.9843 468.89 98.9889L468.986 107.007C469.081 111.78 465.263 115.598 460.587 115.694C450.184 115.694 441.021 115.885 432.527 115.885Z" fill="black"/>
<path d="M464.309 80.6611C467.363 80.5657 470.417 80.5657 473.567 80.4702C473.567 81.6157 473.567 82.8566 473.662 84.0021C475.953 81.6157 477.957 79.8975 481.489 79.7066C484.734 79.5156 487.12 81.0429 489.124 83.5248C491.988 81.4248 493.896 78.752 497.905 79.1338C503.727 79.7066 506.399 81.9975 506.972 88.5841C507.449 93.166 507.258 100.23 507.64 105.194C504.49 105.48 501.436 105.575 498.287 105.671C498.096 101.471 498.096 95.7433 497.809 91.925C497.619 88.8704 496.855 87.534 494.087 87.6295C491.319 87.7249 490.556 89.1568 490.46 92.2114C490.365 96.1251 490.747 101.757 490.747 105.957C487.693 106.148 484.543 106.339 481.489 106.339C481.298 102.139 481.393 96.4115 481.107 92.5932C480.916 89.5386 480.248 88.1068 477.48 88.2022C474.712 88.2977 473.949 89.6341 473.853 92.7842C473.758 96.6979 474.044 102.33 474.044 106.625C470.99 106.816 467.84 106.816 464.691 106.912C464.595 98.1297 464.5 89.4432 464.309 80.6611Z" fill="white"/>
<path d="M464.691 115.503C460.014 115.503 456.196 111.78 456.101 107.103C456.005 98.3206 455.815 89.5386 455.719 80.852C455.624 76.1746 459.441 72.2609 464.118 72.1655C467.268 72.07 470.513 72.07 473.281 71.9745C474.14 71.9745 474.999 72.07 475.762 72.2609C477.385 71.6882 479.103 71.3063 480.916 71.2109C483.684 71.02 486.452 71.5927 488.933 72.8337C491.797 71.1154 495.232 70.3518 498.573 70.7336C508.69 71.7836 514.321 77.511 515.275 87.8204C515.562 90.7796 515.657 94.3115 515.657 97.7479C515.753 100.325 515.753 102.712 515.848 104.716C516.134 109.298 512.698 113.307 508.117 113.785C505.158 114.071 502.009 114.262 498.191 114.262C496.95 114.262 495.71 114.071 494.66 113.594C493.61 114.167 492.369 114.548 491.224 114.548C487.883 114.739 484.543 114.93 481.393 114.93C480.152 114.93 479.007 114.644 477.862 114.167C476.812 114.739 475.667 115.026 474.521 115.121C472.135 115.312 469.94 115.312 467.745 115.407C466.791 115.407 465.836 115.407 464.882 115.503C464.882 115.503 464.786 115.503 464.691 115.503Z" fill="black"/>
<path d="M511.458 78.9429C514.512 78.752 517.566 78.5611 520.716 78.3702C520.716 79.5156 520.811 80.6611 520.811 81.8066C523.865 79.7066 524.629 77.2247 529.019 77.511C535.986 77.9883 539.9 83.0476 540.854 90.1114V90.2068C540.568 97.3661 537.036 103.094 530.164 104.43C525.774 105.289 524.82 103.094 521.479 101.471C521.765 105.098 521.765 108.725 521.956 112.353C518.807 112.544 515.753 112.639 512.603 112.83C512.126 101.566 511.839 90.3023 511.458 78.9429ZM531.691 90.9705V90.875C531.023 87.8204 529.592 85.2431 526.06 85.5294C522.624 85.7203 521.384 88.4886 520.906 91.5432V91.6387C521.575 94.6933 523.006 97.2706 526.442 97.0797C529.878 96.8888 531.214 94.1206 531.691 90.9705Z" fill="white"/>
<path d="M512.508 121.421C507.926 121.421 504.109 117.794 503.918 113.116C503.727 108.344 503.631 103.666 503.441 98.8934C503.25 92.3069 503.059 85.7203 502.772 79.2293C502.582 74.5519 506.208 70.6381 510.79 70.3518C512.508 70.2563 514.226 70.1609 515.944 70.0654L519.952 69.8745C520.716 69.8745 521.575 69.8745 522.338 70.0654C524.533 69.2063 527.015 68.8245 529.401 69.0154C539.995 69.779 547.535 77.4156 549.062 88.9659C549.158 89.4432 549.158 90.0159 549.158 90.4932V90.5886C548.68 102.234 541.999 110.826 531.596 112.83C531.119 112.926 530.737 113.021 530.26 113.021C529.878 117.317 526.442 120.658 522.147 120.848L512.794 121.326C512.794 121.421 512.699 121.421 512.508 121.421Z" fill="black"/>
<path d="M543.717 90.2068C543.717 90.1114 543.717 90.1114 543.717 90.0159C544.767 82.5703 548.108 76.3656 556.316 75.8883C565.86 75.2201 568.437 80.0884 570.346 88.6795C570.441 89.3477 570.441 89.9205 570.441 90.5887C564.524 91.0659 558.702 91.5432 552.784 92.0205C554.121 94.5978 555.648 95.9342 558.702 95.7433C560.992 95.6479 562.71 94.216 564.333 92.6887C566.146 93.9296 567.864 95.1706 569.678 96.507C566.146 99.7525 563.474 102.521 558.32 102.425C550.112 102.425 545.435 98.3207 543.717 90.2068ZM561.47 86.5795C560.706 84.193 559.465 82.1884 556.698 82.3794C553.93 82.5703 552.975 84.8612 552.307 87.2477C555.457 87.0567 558.415 86.8658 561.47 86.5795Z" fill="white"/>
<path d="M558.416 111.016H558.225C546.008 110.921 537.895 104.144 535.318 91.9251V91.8296C535.128 90.875 535.128 89.9205 535.223 88.9659V88.8704C537.036 75.8883 544.481 68.0608 555.743 67.2972C574.164 66.0562 577.313 80.5657 578.649 86.7704C578.84 87.8204 578.936 88.8704 578.936 89.9205C579.031 91.4478 578.745 92.9751 578.077 94.3115C578.84 97.3661 577.886 100.612 575.595 102.712L574.927 103.284C571.109 106.816 566.528 111.016 558.416 111.016Z" fill="black"/>
<path d="M573.495 74.6473C576.55 74.361 579.604 74.17 582.753 73.8837C582.849 75.6019 582.944 77.4156 583.04 79.1338C584.758 75.411 586.857 73.5018 591.057 72.7382C591.248 75.9837 591.439 79.2293 591.63 82.3794C591.439 82.4748 591.057 82.3793 590.866 82.4748C585.521 84.193 583.994 86.3885 583.899 92.2114C583.803 94.1206 584.28 97.7479 584.28 100.039C581.226 100.421 578.077 100.612 575.022 100.803C574.45 92.116 573.973 83.3339 573.495 74.6473Z" fill="white"/>
<path d="M574.927 109.298C570.346 109.298 566.624 105.766 566.337 101.184C565.86 92.4978 565.383 83.8112 565.001 75.0292C564.715 70.4472 568.246 66.438 572.827 66.0562L582.085 65.2926C583.135 65.1971 584.09 65.2925 585.044 65.5789C586.476 65.0062 588.003 64.5289 589.434 64.2425C594.111 63.3834 598.501 66.438 599.456 71.1154C599.551 71.4973 599.551 71.8791 599.551 72.1654C599.647 74.0746 599.742 75.9837 599.838 77.7974L600.028 81.8066C600.219 85.7203 597.738 89.3477 594.016 90.4932C593.538 90.6841 592.966 90.7796 592.489 90.875H592.393C592.393 91.1614 592.298 91.6387 592.298 92.3069C592.298 92.9751 592.393 94.5024 592.489 95.6479C592.584 97.0797 592.679 98.5116 592.679 99.7525C592.775 104.144 589.434 107.866 585.139 108.344C582.944 108.63 580.845 108.725 578.84 108.916C577.79 109.012 576.645 109.107 575.595 109.203C575.404 109.298 575.118 109.298 574.927 109.298Z" fill="black"/>
<path d="M593.538 86.2931C593.538 86.1976 593.538 86.1976 593.538 86.1022C594.875 78.0838 598.597 72.3564 607.378 71.5927C616.158 70.8291 620.644 76.1746 622.839 84.0976C622.839 84.193 622.839 84.193 622.839 84.2885C621.885 92.6887 617.685 98.1297 609 98.5116C600.315 98.8934 595.829 94.1206 593.538 86.2931ZM613.677 84.7658V84.6703C612.913 81.5202 611.195 79.0384 607.664 79.3247C604.133 79.6111 602.892 82.1884 602.51 85.434V85.5294C603.369 88.6795 604.896 91.1614 608.523 90.9705C612.054 90.6841 613.295 88.0113 613.677 84.7658Z" fill="white"/>
<path d="M607.95 107.198C600.887 107.198 589.912 104.43 585.33 88.6795V88.5841C584.949 87.3431 584.853 86.0067 585.139 84.6703C588.003 67.1062 599.933 63.5743 606.709 63.0016C618.64 62.047 627.516 68.9199 631.143 81.8066C631.429 82.9521 631.525 84.0976 631.429 85.2431V85.3385C629.902 98.5116 621.885 106.53 609.477 107.103C608.905 107.198 608.427 107.198 607.95 107.198Z" fill="black"/>
<path d="M625.798 70.6382C629.043 70.6382 632.193 70.7336 635.438 70.9245C635.533 72.7382 635.724 74.6473 635.819 76.461C637.633 72.6427 639.828 71.1154 644.028 70.7336C644.218 74.1701 644.409 77.6065 644.6 81.043C644.314 81.1384 644.028 80.9475 643.837 81.043C638.11 82.2839 636.869 84.6703 636.679 90.6841C636.583 92.6887 636.869 96.6024 636.869 98.9889C633.815 98.8934 630.666 98.607 627.611 98.4161C627.23 89.1568 626.371 79.9929 625.798 70.6382Z" fill="white"/>
<path d="M636.869 107.58C636.774 107.58 636.679 107.58 636.583 107.58C634.674 107.485 632.765 107.389 630.952 107.294C629.616 107.198 628.375 107.103 627.134 107.007C622.744 106.816 619.117 103.189 619.022 98.798C618.831 92.9751 618.354 86.9613 617.972 81.1384C617.781 77.8929 617.495 74.5519 617.304 71.2109C617.113 68.8245 617.972 66.5335 619.594 64.8153C621.217 63.0971 623.507 62.1425 625.893 62.1425C629.425 62.1425 632.861 62.3334 635.819 62.4289C636.869 62.4289 637.919 62.7152 638.874 63.0971C640.401 62.6198 641.928 62.4289 643.455 62.3334C648.132 61.9516 652.236 65.5789 652.617 70.2563V70.3518L652.808 73.311C652.904 75.7928 653.095 78.2747 653.19 80.7566C653.381 84.9567 650.518 88.6795 646.414 89.5386C646.032 89.6341 645.746 89.6341 645.364 89.7295C645.364 90.1114 645.268 90.4932 645.268 91.0659C645.268 91.7341 645.268 93.2615 645.364 94.5024C645.459 96.1252 645.459 97.7479 645.459 99.1798C645.268 103.857 641.546 107.58 636.869 107.58Z" fill="black"/>
<path d="M201.269 63.5743C205.659 63.9562 211.577 63.6698 215.585 64.2425C225.13 65.4835 227.802 67.5835 229.52 76.8429V76.9383C226.848 86.0067 223.03 87.6295 213.867 88.2977C212.627 88.3931 210.718 88.1068 209.382 88.2022C209.191 91.4478 209 94.6933 208.904 97.9388C205.755 97.8434 202.701 97.7479 199.551 97.6525C200.028 86.2931 200.41 74.9337 201.269 63.5743ZM214.058 81.043C217.399 80.852 218.926 79.9929 219.88 76.9383V76.8429C219.308 73.5973 217.876 72.5473 214.535 72.1655C213.486 72.07 211.481 72.07 210.241 71.9746C210.05 74.9337 209.859 77.9883 209.763 80.9475C211.004 80.852 213.008 81.043 214.058 81.043Z" fill="#FBEED8"/>
<path d="M231.142 86.1022C231.142 86.0067 231.142 86.0067 231.142 85.9113C232.956 78.5611 237.155 72.9291 245.363 73.6928C255.003 74.5519 257.198 79.7066 258.057 88.5841C258.057 89.2523 257.962 89.825 257.866 90.4932C251.854 90.0159 245.936 89.5386 239.923 89.1568C240.973 91.9251 242.405 93.4524 245.459 93.8342C247.75 94.1206 249.658 92.9751 251.567 91.7341C253.285 93.2614 254.908 94.7888 256.53 96.4115C252.522 99.0843 249.563 101.375 244.409 100.612C236.296 99.1798 231.906 94.4069 231.142 86.1022ZM249.467 85.0521C248.895 82.5703 247.94 80.3748 245.077 80.1838C242.214 79.9929 241.069 82.093 240.114 84.384C243.264 84.6703 246.318 84.8612 249.467 85.0521Z" fill="#FBEED8"/>
<path d="M262.829 75.1246C265.979 75.411 269.129 75.6019 272.183 75.8883C272.087 77.1292 272.087 78.3702 271.992 79.5157C274.76 77.702 276.573 75.3156 280.391 76.1747C286.022 77.4156 288.694 80.0884 288.79 86.6749C288.885 91.3523 288.217 98.2252 288.122 103.284C284.972 103.189 281.823 102.903 278.577 102.616C278.673 98.4161 279.15 92.7842 279.15 88.8704C279.15 85.7204 278.482 84.2885 275.619 84.0976C272.851 83.9067 271.801 85.1476 271.419 88.2977C271.038 92.2114 270.942 97.8434 270.656 102.044C267.506 101.948 264.357 101.566 261.207 101.375C261.875 92.5933 262.352 83.9067 262.829 75.1246Z" fill="#FBEED8"/>
<path d="M292.703 108.535C293.753 106.53 294.898 104.525 295.948 102.616C298.907 104.048 301.961 105.48 305.301 105.575C309.692 105.575 311.792 103.857 312.651 99.6571C312.746 99.3707 312.651 98.8934 312.746 98.7025C309.596 100.516 308.069 102.521 303.965 101.853C297.093 100.707 293.371 96.2206 292.703 89.1568V89.0613C293.753 82.3794 297.857 78.1793 304.538 77.7974C308.833 77.6065 310.074 79.802 313.223 81.8066C313.128 80.852 313.223 79.802 313.319 78.752C316.468 78.9429 319.618 79.0384 322.767 79.4202C322.386 85.2431 322.577 93.2615 322.099 98.607C321.622 103.762 321.527 106.053 318.091 109.203C314.655 112.353 310.742 112.353 306.065 112.257C301.484 112.162 296.712 110.444 292.703 108.535ZM312.937 90.3977V90.3023C312.364 87.2477 310.837 85.3385 307.592 85.1476C304.347 84.9567 302.629 86.7704 301.866 89.7295V89.825C302.343 92.8796 303.965 94.8842 307.21 95.0751C310.551 95.1706 312.173 93.3569 312.937 90.3977Z" fill="#FBEED8"/>
<path d="M327.062 96.2206C326.967 91.4477 327.444 84.6703 327.444 79.6111C330.594 79.6111 333.743 79.802 336.893 80.0884C336.893 84.2885 336.511 89.9204 336.607 93.8342C336.702 96.9843 337.466 98.4161 340.329 98.5116C343.192 98.607 344.147 97.2706 344.338 94.1205C344.624 90.2068 344.528 84.6703 344.719 80.4702C347.869 80.4702 351.019 80.6611 354.073 80.7566C353.977 89.4431 353.786 98.2252 353.691 106.912C350.541 106.816 347.392 106.721 344.147 106.53C344.147 105.384 344.147 104.144 344.242 102.998C341.474 104.907 339.756 107.294 335.843 106.53C330.117 105.289 327.253 102.807 327.062 96.2206Z" fill="#FBEED8"/>
<path d="M359.227 71.5927C362.472 71.6882 365.717 71.6882 368.962 71.7836L368.866 78.5611C365.621 78.4656 362.376 78.4656 359.131 78.3702C359.131 76.0792 359.131 73.7882 359.227 71.5927ZM359.227 80.6611C362.376 80.7566 365.526 80.7566 368.58 80.852C368.485 89.6341 368.389 98.3207 368.389 107.103C365.239 107.007 361.994 107.007 358.845 106.912C359.036 98.2252 359.131 89.4432 359.227 80.6611Z" fill="#FBEED8"/>
<path d="M373.925 80.9475C377.074 80.9475 380.224 81.043 383.278 81.043C383.278 82.2839 383.278 83.5248 383.278 84.6703C385.951 82.6657 387.573 80.0884 391.391 80.7566C397.117 81.7111 399.885 84.0976 400.267 90.5887C400.553 95.266 400.267 102.234 400.458 107.294C397.308 107.485 394.159 107.389 391.009 107.294C390.914 103.094 391.104 97.4616 391.009 93.5478C390.914 90.3977 390.055 89.0613 387.287 88.9659C384.519 88.8704 383.565 90.3023 383.374 93.4524C383.183 97.3661 383.374 102.998 383.278 107.198C380.129 107.294 376.979 107.198 373.829 107.198C373.829 98.5116 373.925 89.7295 373.925 80.9475Z" fill="#FBEED8"/>
<path d="M432.24 73.3109C441.403 73.2155 450.565 73.12 459.632 73.0246C459.632 75.6974 459.728 78.3702 459.728 81.043C453.715 81.1384 447.702 81.2339 441.594 81.2339C441.594 82.9521 441.594 84.6703 441.594 86.3885C447.034 86.2931 452.57 86.2931 458.01 86.1976C458.01 88.6795 458.105 91.1614 458.105 93.6433C452.665 93.7387 447.129 93.8342 441.689 93.8342C441.689 95.6479 441.689 97.4615 441.785 99.2752C447.893 99.1798 454.001 99.1798 460.205 98.9889C460.205 101.662 460.3 104.334 460.3 107.007C451.042 107.103 441.689 107.294 432.431 107.294C432.527 96.0297 432.336 84.6703 432.24 73.3109Z" fill="#FBEED8"/>
<path d="M464.309 80.6611C467.363 80.5657 470.417 80.5657 473.567 80.4702C473.567 81.6157 473.567 82.8566 473.662 84.0021C475.953 81.6157 477.957 79.8975 481.489 79.7066C484.734 79.5156 487.12 81.0429 489.124 83.5248C491.988 81.4248 493.896 78.752 497.905 79.1338C503.727 79.7066 506.399 81.9975 506.972 88.5841C507.449 93.166 507.258 100.23 507.64 105.194C504.49 105.48 501.436 105.575 498.287 105.671C498.096 101.471 498.096 95.7433 497.809 91.925C497.619 88.8704 496.855 87.534 494.087 87.6295C491.319 87.7249 490.556 89.1568 490.46 92.2114C490.365 96.1251 490.747 101.757 490.747 105.957C487.693 106.148 484.543 106.339 481.489 106.339C481.298 102.139 481.393 96.4115 481.107 92.5932C480.916 89.5386 480.248 88.1068 477.48 88.2022C474.712 88.2977 473.949 89.6341 473.853 92.7842C473.758 96.6979 474.044 102.33 474.044 106.625C470.99 106.816 467.84 106.816 464.691 106.912C464.595 98.1297 464.5 89.4432 464.309 80.6611Z" fill="#FBEED8"/>
<path d="M511.458 78.9429C514.512 78.752 517.566 78.5611 520.716 78.3702C520.716 79.5156 520.811 80.6611 520.811 81.8066C523.865 79.7066 524.629 77.2247 529.019 77.511C535.986 77.9883 539.9 83.0476 540.854 90.1114V90.2068C540.568 97.3661 537.036 103.094 530.164 104.43C525.774 105.289 524.82 103.094 521.479 101.471C521.765 105.098 521.765 108.725 521.956 112.353C518.807 112.544 515.753 112.639 512.603 112.83C512.126 101.566 511.839 90.3023 511.458 78.9429ZM531.691 90.9705V90.875C531.023 87.8204 529.592 85.2431 526.06 85.5294C522.624 85.7203 521.384 88.4886 520.906 91.5432V91.6387C521.575 94.6933 523.006 97.2706 526.442 97.0797C529.878 96.8888 531.214 94.1206 531.691 90.9705Z" fill="#FBEED8"/>
<path d="M543.717 90.2068C543.717 90.1114 543.717 90.1114 543.717 90.0159C544.767 82.5703 548.108 76.3656 556.316 75.8883C565.86 75.2201 568.437 80.0884 570.346 88.6795C570.441 89.3477 570.441 89.9205 570.441 90.5887C564.524 91.0659 558.702 91.5432 552.784 92.0205C554.121 94.5978 555.648 95.9342 558.702 95.7433C560.992 95.6479 562.71 94.216 564.333 92.6887C566.146 93.9296 567.864 95.1706 569.678 96.507C566.146 99.7525 563.474 102.521 558.32 102.425C550.112 102.425 545.435 98.3207 543.717 90.2068ZM561.47 86.5795C560.706 84.193 559.465 82.1884 556.698 82.3794C553.93 82.5703 552.975 84.8612 552.307 87.2477C555.457 87.0567 558.415 86.8658 561.47 86.5795Z" fill="#FBEED8"/>
<path d="M573.495 74.6473C576.55 74.361 579.604 74.17 582.753 73.8837C582.849 75.6019 582.944 77.4156 583.04 79.1338C584.758 75.411 586.857 73.5018 591.057 72.7382C591.248 75.9837 591.439 79.2293 591.63 82.3794C591.439 82.4748 591.057 82.3793 590.866 82.4748C585.521 84.193 583.994 86.3885 583.899 92.2114C583.803 94.1206 584.28 97.7479 584.28 100.039C581.226 100.421 578.077 100.612 575.022 100.803C574.45 92.116 573.973 83.3339 573.495 74.6473Z" fill="#FBEED8"/>
<path d="M593.538 86.2931C593.538 86.1976 593.538 86.1976 593.538 86.1022C594.875 78.0838 598.597 72.3564 607.378 71.5927C616.158 70.8291 620.644 76.1746 622.839 84.0976C622.839 84.193 622.839 84.193 622.839 84.2885C621.885 92.6887 617.685 98.1297 609 98.5116C600.315 98.8934 595.829 94.1206 593.538 86.2931ZM613.677 84.7658V84.6703C612.913 81.5202 611.195 79.0384 607.664 79.3247C604.133 79.6111 602.892 82.1884 602.51 85.434V85.5294C603.369 88.6795 604.896 91.1614 608.523 90.9705C612.054 90.6841 613.295 88.0113 613.677 84.7658Z" fill="#FBEED8"/>
<path d="M625.798 70.6382C629.043 70.6382 632.193 70.7336 635.438 70.9245C635.533 72.7382 635.724 74.6473 635.819 76.461C637.633 72.6427 639.828 71.1154 644.028 70.7336C644.218 74.1701 644.409 77.6065 644.6 81.043C644.314 81.1384 644.028 80.9475 643.837 81.043C638.11 82.2839 636.869 84.6703 636.679 90.6841C636.583 92.6887 636.869 96.6024 636.869 98.9889C633.815 98.8934 630.666 98.607 627.611 98.4161C627.23 89.1568 626.371 79.9929 625.798 70.6382Z" fill="#FBEED8"/>
<path d="M133.791 29.2098C129.401 25.2006 128.542 24.437 127.873 23.9597C127.396 23.2915 126.537 23.1006 125.869 23.5779C125.774 23.6733 125.678 23.7688 125.583 23.8642C124.819 24.3415 123.96 25.0097 119.188 28.6371C123.197 24.2461 123.96 23.3869 124.438 22.7187C124.724 22.4324 124.915 22.0506 125.01 21.5733C124.915 21.096 124.724 20.7142 124.533 20.4278C124.056 19.6641 123.388 18.805 119.761 14.0322C124.151 18.0414 125.01 18.805 125.678 19.2823C125.965 19.5687 126.346 19.7596 126.824 19.855C127.301 19.7596 127.683 19.5687 127.969 19.3778C128.732 18.9005 129.591 18.2323 134.364 14.6049C130.355 18.9959 129.591 19.855 129.114 20.5232C128.828 20.8096 128.637 21.1914 128.542 21.6687C128.637 22.146 128.828 22.5278 129.019 22.8142C129.496 23.5779 130.164 24.437 133.791 29.2098Z" fill="white"/>
<path d="M150.016 30.6417L156.888 29.7826L151.257 34.6509C149.062 36.8464 147.726 39.901 147.63 43.0511L147.916 50.4967L143.908 44.7693C142.094 42.5738 139.327 41.3329 136.463 41.5238L129.591 42.3829L135.223 37.5146C137.418 35.3191 138.754 32.2645 138.849 29.1144L138.563 21.6687L142.572 27.3962C144.385 29.4962 147.153 30.7371 150.016 30.6417Z" fill="white"/>
<g opacity="0.43">
<g opacity="0.43">
<path opacity="0.43" d="M145.626 0C127.396 0 112.603 13.7458 112.603 30.7371C112.603 47.7285 127.396 61.4743 145.626 61.4743C163.855 61.4743 178.649 47.7285 178.649 30.7371C178.649 13.7458 163.855 0 145.626 0Z" fill="url(#paint3_radial_5_242)"/>
</g>
</g>
<defs>
<linearGradient id="paint0_linear_5_242" x1="3.59365" y1="134.385" x2="130.827" y2="134.385" gradientUnits="userSpaceOnUse">
<stop stop-color="#FF7648"/>
<stop offset="1" stop-color="#FFE100"/>
</linearGradient>
<linearGradient id="paint1_linear_5_242" x1="868.036" y1="76.377" x2="718.966" y2="186.372" gradientUnits="userSpaceOnUse">
<stop stop-color="#FF7648"/>
<stop offset="0.1422" stop-color="#FF8042"/>
<stop offset="0.3799" stop-color="#FF9930"/>
<stop offset="0.6818" stop-color="#FFC314"/>
<stop offset="0.8734" stop-color="#FFE100"/>
</linearGradient>
<linearGradient id="paint2_linear_5_242" x1="421.279" y1="158.461" x2="421.279" y2="18.818" gradientUnits="userSpaceOnUse">
<stop stop-color="#FF7648"/>
<stop offset="1" stop-color="#FFE100"/>
</linearGradient>
<radialGradient id="paint3_radial_5_242" cx="0" cy="0" r="1" gradientUnits="userSpaceOnUse" gradientTransform="translate(145.595 30.7506) scale(31.903 31.9077)">
<stop offset="0.09355" stop-color="white"/>
<stop offset="1" stop-color="white"/>
</radialGradient>
</defs>
</svg>
