<?xml version="1.0" encoding="utf-8"?>
<!-- Generator: Adobe Illustrator 25.2.1, SVG Export Plug-In . SVG Version: 6.00 Build 0)  -->
<svg version="1.1" id="Layer_1" xmlns="http://www.w3.org/2000/svg" xmlns:xlink="http://www.w3.org/1999/xlink" x="0px" y="0px"
	 viewBox="0 0 619.8 696.3" style="enable-background:new 0 0 619.8 696.3;" xml:space="preserve">
<style type="text/css">
	.st0{fill:#FFFFFF;}
	.st1{fill:#1C1C1C;}
	.st2{fill:#86D5F7;}
	.st3{fill:#3C93D0;}
	.st4{fill:#2C71B9;}
	.st5{fill:#145EAC;}
</style>
<g>
	<path class="st0" d="M321.8,15.3c1.7,0,3.4,0.7,4.7,2.1c1.2,1.9,70.9,76.3,71.3,78.5c1.4,1.5,27.5,75,32,75c0.1,0,0.2,0,0.2-0.1
		l50.3,15.5c1.3,0.4,2.5,1.3,3.3,2.4l46.7,65.8c-1.2,10.8,4.9,48.2,4.9,48.2s30.9,27.9,51.8,46l17.5,14.5l-20.4,111.5l-65.4,21.7
		L468,559.7L365.5,576l-17,54.3L283.9,681l-131.4-63.3l-31.2-90.5L63.6,474L15.3,372c0.4-1.8,0.6-9.2,0.6-9.2s7.5-14.2,8.3-15.8
		c0.2,0,0.3,0,0.5,0.1c14.3-27.7,41.9-82.4,47.1-82.4c0.2,0,0.4,0.1,0.5,0.3c3.2-0.1,6.2-0.1,8.9-0.1c12.5,0,20.7,0.5,26.7,0.5
		c16.8,0,16.3-3.9,44.7-33.5c0.6-0.6,1.1-1.4,1.4-2.2c0,0,27.3-72.3,27.3-72.3c1.8-5.2,96.1-77.7,99-81.7c0.5-0.4,1-1,1.4-1.6
		l34.7-55.8C317.6,16.3,319.7,15.3,321.8,15.3 M321.8,0C321.8,0,321.8,0,321.8,0c-7.5,0-14.4,3.8-18.4,10.2L269.3,65
		c-0.1,0.1-0.3,0.3-0.4,0.4c-3.2,2.9-19.6,16-34.1,27.6c-65.5,52.1-65.9,53.4-68,59.4l0.1,0c-1.6,4-5,13.1-13.6,35.7l-13,34.5
		c-5.1,5.3-9.2,9.8-12.6,13.4c-6.2,6.7-10.6,11.5-13.2,13.1c-0.7,0.4-1.4,0.9-6.6,0.9c-2.2,0-5-0.1-8.2-0.2
		c-4.9-0.1-10.9-0.3-18.6-0.3c-2.2,0-4.5,0-6.8,0c-0.9-0.1-1.8-0.2-2.7-0.2c-11,0-17.2,9.1-30.6,33.4c-8.2,14.8-17.6,33-25.2,47.7
		c-1.2,2.2-2.3,4.4-3.3,6.4c-0.9,1.1-1.7,2.3-2.4,3.6c-0.5,1.1-4.5,8.6-8,15.2c-1.1,2.1-1.7,4.4-1.8,6.7c-0.1,2.7-0.3,5.8-0.4,6.9
		c-0.6,3.2-0.2,6.5,1.2,9.4l48.3,101.9c0.8,1.8,2,3.4,3.4,4.7l54.9,50.6l30,86.9c1.3,3.8,4.1,7,7.8,8.8l131.4,63.3
		c2.1,1,4.4,1.5,6.6,1.5c3.4,0,6.7-1.1,9.4-3.3l64.5-50.7c2.4-1.9,4.2-4.5,5.1-7.4l14.2-45.3l93.1-14.8c3.8-0.6,7.1-2.6,9.5-5.5
		l48-59.8l61.1-20.3c5.3-1.8,9.2-6.3,10.2-11.7l20.4-111.5c1-5.4-1-11-5.3-14.5L596.9,337c-16.1-14-38.4-33.9-47.4-42
		c-2.4-15.9-4.5-33.9-4-38.8c0.4-3.7-0.6-7.4-2.7-10.5l-46.7-65.8c-2.7-3.9-6.8-6.8-11.3-8.2l-45.7-14.1
		c-5.1-10.3-15.6-37.8-20.4-50.4c-6.9-18.1-7.2-19-9.3-21.3c-4.7-6.2-16.7-19.2-49.3-54.5C350.3,20.9,340.3,10,338.5,8
		c-0.3-0.3-0.5-0.6-0.8-0.9C333.7,2.6,327.8,0,321.8,0L321.8,0z"/>
	<g>
		<path class="st1" d="M284.7,688.5l-137.3-66.2l-31.6-91.5l-57.4-53L9.8,373.1l-0.7-2.5c0.2-0.9,0.4-4.9,0.5-8l0-1.5l0.7-1.3
			c3.6-6.8,7.7-14.6,8.2-15.6l2.7-4.3l0,0l2.8-5.5c35.6-69.2,41-75.6,47.1-76.2c0.9-0.1,1.7,0,2.5,0.2c11.2-0.2,19.7,0.1,26,0.3
			c10.5,0.3,14.9,0.4,18.3-1.3c3.8-1.8,8.3-6.7,16.4-15.4c3.6-3.9,8.2-8.8,13.8-14.7c23.5-62.4,26.8-71,27.3-72.2
			c1.3-3.7,7-9.1,65.1-55.3c15.2-12.1,32.4-25.8,34.9-28.3l0.3-0.4l0.7-0.5L311,14.9c2.1-3.4,5.6-5.6,9.6-5.9
			c4-0.4,7.8,1.1,10.5,4.1l0.5,0.6c1.6,1.9,11.9,13,21.8,23.8c36.2,39.2,46.2,50.2,49.1,54.3c1,1.1,1.4,2.1,7.7,18.6
			c5.5,14.5,18.1,47.4,22.6,54.7l49.3,15.2c2.7,0.8,5,2.5,6.6,4.8l48.1,67.8l-0.3,2.4c-0.8,7.7,2.7,32.7,4.5,44.3
			c6.7,6,32.2,28.9,50,44.3l20.3,16.8l-21.8,118.9l-67.2,22.3l-51.1,63.8l-101,16.1l-16.4,52.4L284.7,688.5z M157.7,613.1
			l125.4,60.5l59.9-47l17.6-56.2l104-16.5L515,491l63.6-21.1l19.1-104.1l-14.7-12.2c-20.7-17.9-51.6-45.8-51.9-46l-1.7-1.5l-0.4-2.2
			c-0.6-3.7-5.4-34.1-5.1-47.3l-45.4-64l-49.2-15.1c-0.4,0-0.9-0.1-1.3-0.2c-4.8-1.3-7.6-4.7-29.5-62.1c-2.5-6.5-5-13.2-6-15.3
			l-0.6-0.7l-0.1-0.5c-4.6-5.8-31.4-34.7-47.7-52.3c-16.8-18.2-21-22.8-22.4-24.4l-34.7,55.8c-0.6,1-1.4,2-2.4,2.8
			c-2.4,2.5-9.7,8.4-36.4,29.7c-22.6,18-56.6,45-61.3,50.4c-3.1,8.3-27,71.6-27,71.6c-0.6,1.6-1.5,3.1-2.7,4.3
			c-5.5,5.7-10,10.6-13.6,14.5c-19.1,20.7-20.8,21.5-44.5,20.8c-6.5-0.2-14.6-0.4-25.6-0.3c-7,8.2-27.9,49-38.3,69.1L28.2,354
			l-0.5-0.1c-1.8,3.5-4.2,8.1-5.5,10.5c-0.1,2-0.2,4.5-0.4,6.5l47,99.1l58,53.5L157.7,613.1z M187.3,159.4c0,0,0,0.1-0.1,0.3
			C187.3,159.6,187.3,159.5,187.3,159.4z M392.4,99.1L392.4,99.1C392.4,99.1,392.4,99.1,392.4,99.1z M392.3,99
			C392.3,99,392.3,99,392.3,99C392.3,99,392.3,99,392.3,99z M275.2,71.8C275.2,71.9,275.2,71.9,275.2,71.8L275.2,71.8z"/>
	</g>
	<g>
		<path class="st2" d="M530.4,254.5l-46.7-65.8c-0.8-1.1-2-2-3.3-2.4l-50.3-15.5c-3.7,2.9-30.8-73.4-32.2-74.9
			c-0.5-2.2-70.1-76.6-71.3-78.5c-2.8-3.1-7.8-2.6-10.1,0.9L281.7,74c-0.4,0.6-0.8,1.1-1.4,1.6c-2.9,4-97.2,76.5-99,81.7
			c0,0-27.3,72.3-27.3,72.3c-0.3,0.8-0.8,1.5-1.4,2.2c-40.7,42.5-22,32-80.4,33.1c-4.8-6-54,96.8-56.2,97.8l0,0.1
			c185.6,0.1,402.6,0.2,588.4,0.4c-9.4-6.5-69.3-60.5-69.3-60.5S529.2,265.4,530.4,254.5z"/>
	</g>
	<path class="st3" d="M316.4,18.3L281.7,74c-1,2-96.9,79-98.5,80.6c-0.9,0.7-1.5,1.6-1.9,2.7L154,229.6c-0.3,0.8-0.8,1.5-1.4,2.2
		l-29.8,31.1c-0.4,4-47.8,1.2-50.5,2c-4.4-6.3-56.2,98-56.2,98c39.5,0,151.5,0,189.1,0c5.4-27,27.7-86.8,38.2-112.7
		c0,0,0-28.2,0-28.2c22-24.1,57.5-82,73-111V18.3L316.4,18.3z"/>
	<g>
		<path class="st3" d="M428.9,170.8l-41.2,78.3l-58.8,8.3l-25.9,77.2l154-55.1c26.1,7.7,52.2,15.5,78.3,23.2c-0.6-5-1.6-12.4-3-21.3
			c-3-18.3-4.6-27.6-8.6-36.3c-3.4-7.6-5.8-9.2-17.1-24.1c-5.7-7.5-13.7-18.4-22.8-32.2C465.4,182.7,447.1,176.7,428.9,170.8z"/>
	</g>
	<path class="st1" d="M606.7,360c-1.7-1.2-5.3-4.1-9.8-8c0,0,0,0,0,0c-14.4-12.2-39.1-34.3-51.5-45.4c-0.5-0.5-1-0.9-1.5-1.3
		c-0.2-0.2-0.4-0.3-0.6-0.5c-1.9-1.7-3.3-3-4.3-3.8c-0.1-0.1-0.2-0.3-0.3-0.5c-0.3-1.9-0.6-3.9-0.9-6c0-0.2,0-0.3-0.1-0.5
		c-0.1-0.6-0.2-1.2-0.3-1.8c-1.2-8.7-2.7-19.7-3.2-28c0-0.5-0.1-1.1-0.1-1.6c0-0.3,0-0.6,0-0.9c0-0.5,0-1-0.1-1.5c0-0.2,0-0.5,0-0.7
		c0-0.5,0-0.9,0-1.4c0-0.2,0-0.5,0-0.7c0-0.4,0-0.8,0-1.1c0-0.5,0-1,0.1-1.4c0.1-0.9-0.1-1.9-0.7-2.6l-1-1.4c0,0,0,0,0,0l-9.8-13.8
		l-35.9-50.7c-1.3-1.8-3.2-3.2-5.3-3.8l-1.5-0.5c0,0,0,0,0,0l-48.6-15c-4.2-5.9-17.5-40.7-23.3-56c-5-13.1-6.2-16.2-6.9-17.3
		c-0.1-0.1-0.1-0.2-0.2-0.3c0-0.1-0.1-0.1-0.1-0.2c-1.6-2.4-7.4-8.9-29.2-32.6c-1.7-1.8-3.5-3.8-5.3-5.8c-1.2-1.3-2.4-2.6-3.6-3.9
		c-3.4-3.7-7.1-7.7-11.1-12.1c-10.8-11.7-21.1-22.8-21.9-23.8c-0.1-0.2-0.3-0.4-0.4-0.5c-2.2-2.4-5.2-3.5-8.4-3.3
		c-3.2,0.3-6,2-7.7,4.8L278.5,72c-0.2,0.2-0.3,0.5-0.6,0.6l-0.3,0.2l-0.3,0.4c-1.7,1.9-18.8,15.5-35.3,28.7
		c-54.2,43.1-63.2,51-64.2,54c0,0,0,0-27.3,72.4c-0.1,0.3-0.3,0.6-0.5,0.9c-5.6,5.8-10.1,10.7-13.7,14.6
		c-16.7,18.1-16.7,18.1-36.7,17.5c-1.9-0.1-4-0.1-6.3-0.2c-3.5-0.1-7.4-0.1-11.9-0.1c-2.5,0-5.2,0-8,0.1c-0.3-0.1-0.6-0.2-0.9-0.2
		c-0.1,0-0.2,0-0.3,0c-0.2,0-0.4,0-0.7,0c0,0,0,0-0.1,0c-0.5,0-1.1,0.1-2,0.7c0,0-0.1,0.1-0.1,0.1c0,0,0,0-0.1,0
		c-1.7,1.1-3.9,3.6-7,8.2c-7.6,10.9-21.6,35.3-48.7,89.7c-0.1,0.2-0.2,0.4-0.2,0.7c-0.8,1-1.1,2.3-0.7,3.5c0.5,1.6,2,2.8,3.7,2.8
		c0.5,0,1.1,0,1.6,0h0c76.7,0.1,158.7,0.1,241.6,0.2c12.2,0,24.4,0,36.6,0c105.4,0.1,211.2,0.1,308.5,0.2c0,0,0,0,0,0
		c1.7,0,3.1-1.1,3.6-2.7C608.7,362.7,608.1,361,606.7,360z M141.8,249c3.6-3.9,8.1-8.8,13.6-14.5c1-1,1.7-2.2,2.2-3.4
		c0,0,25-66.2,27.2-72c3.5-4.6,38.6-32.5,62-51.1c1.6-1.3,3.1-2.5,4.6-3.6c21.9-17.5,29.6-23.7,31.6-25.9c0.8-0.7,1.4-1.4,2-2.3
		l34.7-55.8c0.6-0.9,1.4-1.1,1.9-1.2c0.5,0,1.3,0,2,0.8c0.1,0.1,0.2,0.2,0.3,0.3c0.1,0.2,0.3,0.4,0.6,0.6c2,2.3,7.3,8.1,21.6,23.5
		c0.8,0.9,1.6,1.7,2.5,2.7c1.1,1.2,2.3,2.5,3.5,3.8c0.7,0.8,1.4,1.5,2.2,2.3c0.2,0.2,0.4,0.4,0.5,0.6c0.9,0.9,1.8,1.9,2.7,2.9
		c1,1.1,2,2.2,3,3.3c0.6,0.6,1.1,1.2,1.7,1.8c0,0,0,0,0,0c0.3,0.4,0.7,0.7,1,1.1c0.4,0.4,0.8,0.8,1.2,1.3c0.2,0.3,0.5,0.5,0.7,0.8
		c0.4,0.4,0.7,0.8,1.1,1.2c0.4,0.4,0.8,0.9,1.2,1.3c0.2,0.2,0.4,0.5,0.6,0.7c0.4,0.4,0.8,0.8,1.2,1.3c0.3,0.3,0.6,0.6,0.9,1
		c0.2,0.2,0.4,0.4,0.6,0.7c0.4,0.5,0.9,1,1.3,1.4c0.2,0.2,0.4,0.4,0.5,0.6c0.4,0.5,0.9,1,1.3,1.5c0.2,0.2,0.3,0.4,0.5,0.5
		c0.4,0.4,0.8,0.9,1.2,1.3c0.3,0.3,0.6,0.6,0.9,0.9c0.3,0.3,0.6,0.7,0.9,1c0.3,0.3,0.5,0.6,0.8,0.8c0.3,0.3,0.6,0.7,0.9,1
		c0.3,0.4,0.7,0.7,1,1.1c0.2,0.2,0.4,0.4,0.5,0.6c0.3,0.4,0.7,0.7,1,1.1c0.2,0.3,0.5,0.5,0.7,0.8c0.3,0.3,0.6,0.7,0.9,1
		c0.2,0.2,0.4,0.5,0.6,0.7c0.3,0.3,0.6,0.7,0.9,1c0.2,0.2,0.4,0.4,0.5,0.6c0.4,0.4,0.7,0.8,1.1,1.2c0.1,0.1,0.2,0.2,0.2,0.3
		c0.4,0.4,0.7,0.8,1,1.2c0.1,0.1,0.2,0.2,0.3,0.3c0.3,0.4,0.7,0.8,1,1.1c0,0.1,0.1,0.1,0.1,0.2c0.3,0.4,0.7,0.8,1,1.1
		c0,0,0.1,0.1,0.1,0.1c0.3,0.4,0.6,0.7,0.9,1c0,0.1,0.1,0.1,0.1,0.2c0.3,0.3,0.5,0.6,0.8,0.9c0,0,0.1,0.1,0.1,0.1
		c0.2,0.3,0.5,0.6,0.7,0.8c0,0,0.1,0.1,0.1,0.1c0.2,0.2,0.4,0.5,0.6,0.7c0,0.1,0.1,0.1,0.1,0.1c0.2,0.2,0.3,0.4,0.4,0.5
		c0,0,0.1,0.1,0.1,0.1c0.1,0.1,0.2,0.3,0.3,0.4c0,0,0,0,0,0.1l0.1,0.3l0.4,0.4c0,0.1,0.1,0.2,0.1,0.3c0.1,0.2,0.1,0.3,0.2,0.6
		c0,0.1,0.1,0.3,0.2,0.4c0.1,0.3,0.2,0.6,0.4,0.9c0.1,0.1,0.1,0.3,0.2,0.4c0.2,0.4,0.3,0.8,0.5,1.3c0,0,0,0,0,0
		c1.2,3.1,2.9,7.4,4.6,12c20.5,53.8,24.1,59.6,27.8,60.6c0.4,0.1,0.7,0.1,1.1,0.2l48,14.8c1.5,0.5,2.8,1.4,3.8,2.7l28.3,39.9
		l16.5,23.3c0.1,0.2,0.2,0.3,0.2,0.5c0,0.1,0,0.2,0,0.3c0,0.5,0,1,0,1.5c0,0.4,0,0.7,0,1.1c0,0.4,0,0.8,0,1.2c0,1.4,0.1,2.9,0.2,4.5
		c0,0.2,0,0.4,0,0.5c0.1,0.9,0.1,1.9,0.2,2.9c0,0.2,0,0.4,0.1,0.7c0.1,0.9,0.2,1.8,0.3,2.7c0,0.3,0.1,0.6,0.1,1
		c0.1,0.5,0.1,1,0.2,1.5c0.1,0.8,0.2,1.5,0.2,2.3c0,0.4,0.1,0.7,0.1,1.1c0.1,0.9,0.2,1.8,0.3,2.7c0,0.1,0,0.2,0,0.3
		c1.4,11.6,3.1,22.4,3.3,23.2c0.1,0.9,0.6,1.6,1.2,2.2c1.5,1.4,24.6,22.1,44,39.2c0.1,0.1,0.2,0.2,0.3,0.3c1.1,1,2.2,1.9,3.3,2.9
		c0.3,0.2,0.5,0.5,0.8,0.7c1,0.9,1.9,1.7,2.9,2.5c0.5,0.4,1,0.8,1.4,1.2c0.8,0.7,1.6,1.4,2.4,2.1c0.6,0.5,1.1,0.9,1.6,1.4
		c0.4,0.3,0.7,0.6,1,0.9c0.5,0.4,0.9,0.8,1.4,1.2c0.1,0.1,0.5,0.4,0.3,1c-0.2,0.5-0.6,0.6-0.8,0.6c0,0,0,0,0,0
		c-91.1-0.1-189.2-0.1-287.2-0.2c-15.3,0-30.6,0-45.9,0c-80.7,0-160.5-0.1-235.4-0.1c2.1-3.9,5.2-10,10.3-19.8
		c10.8-21.1,33-64.1,39.4-70.5c11.7-0.2,20.1,0,26.8,0.2C122.1,269.6,123.2,269,141.8,249z"/>
	<path class="st4" d="M587,348.7c-12.4,3.5-21.4,6-32.4,6c-11,0-22.7-3.3-35.1-6.7c-13.9-3.9-28.2-7.9-43.4-7.9
		c-15.2,0-29.6,4-43.5,7.9c-12.4,3.5-24.1,6.7-35.1,6.7c-11,0-22.7-3.3-35.1-6.7c-13.9-3.9-28.2-7.9-43.4-7.9s-29.6,4-43.4,7.9
		c-12.4,3.5-24.1,6.7-35.1,6.7c-11,0-22.7-3.3-35.1-6.7c-13.9-3.9-28.2-7.9-43.5-7.9c-15.2,0-29.5,4-43.4,7.9
		c-12.4,3.5-24.1,6.7-35.1,6.7c-10.9,0-22.7-3.3-35.1-6.7c-8.6-2.4-14.7,0.6-23.7-0.9c-0.5,1.1-4.5,8.2-6.9,12.5
		c-1.2,2.1-1.9,4.5-2,6.9c0,0.6-0.1,1.3-0.1,1.9c-0.2,2.6,0.3,5.2,1.5,7.6l46.5,98l57.7,53.2l31.2,90.5L283.9,681l64.5-50.7l17-54.3
		L468,559.7l50.8-63.3l65.4-21.7l20.4-111.5L587,348.7z"/>
	<g>
		<path class="st5" d="M348.5,630.3L283.9,681l-131.4-63.3l-31.2-90.5L63.6,474L15.3,372l8.9-25.1c7.1-0.7,9.8-1.8,13.4-1.3
			c17.3,2.4,23.7,10.3,40.6,11.2c2.5,0.1,5.5,0.1,12.5-0.7c29.5-3.5,47.7-11.4,63.1-14.3c12.9-2.5,31.7-2.9,56.7,6.9
			c-25.9,31.7-51.8,63.5-77.8,95.2l79.5,45.2v57.9l55.4,50.7L348.5,630.3z"/>
	</g>
	<g>
		<path class="st1" d="M284.4,685.5l-135-65.1L118,529.3l-57.5-53.1L12.3,374.7c-0.6-1.2-0.8-2.6-0.8-4L12,364
			c0.1-1.6,0.6-3,1.3-4.4c4.6-7.8,7.9-13.7,8.3-14.5l1.2-2.6l2.8,0.5c3.7,0.6,6.8,0.5,10,0.3c4.1-0.2,8.4-0.5,13.7,1
			c12.1,3.4,23.6,6.6,34,6.6c10.5,0,21.9-3.2,34.1-6.6c14.1-3.9,28.7-8,44.4-8c15.7,0,30.3,4.1,44.5,8c12.2,3.4,23.6,6.6,34.1,6.6
			c10.4,0,21.9-3.2,34.1-6.6c14.1-3.9,28.7-8,44.5-8c15.7,0,30.3,4.1,44.5,8c12.2,3.4,23.6,6.6,34.1,6.6c10.4,0,21.9-3.2,34.1-6.6
			c14.1-3.9,28.7-8,44.5-8c15.7,0,30.3,4.1,44.4,8c12.2,3.4,23.6,6.6,34.1,6.6c10.4,0,19.1-2.4,31.2-5.8l1.9-0.5l1.6,1.3l19.1,15.9
			l-21,115.9L521,499.7l-51,63.6l-101.6,16.1l-16.7,53.2L284.4,685.5z M155.6,614.9l127.8,61.6l61.7-48.5l17.4-55.4l103.4-16.4
			l50.6-63.1l64.3-21.4l19.4-107.1L586,353c-11.7,3.3-20.5,5.5-31.3,5.5c-11.5,0-23.5-3.3-36.1-6.9c-13.6-3.8-27.7-7.7-42.4-7.7
			c-14.7,0-28.8,3.9-42.4,7.7c-12.7,3.5-24.6,6.9-36.1,6.9c-11.5,0-23.5-3.3-36.1-6.9c-13.6-3.8-27.7-7.7-42.4-7.7
			c-14.7,0-28.8,3.9-42.4,7.7c-12.7,3.5-24.6,6.9-36.1,6.9c-11.5,0-23.4-3.3-36.1-6.9c-13.6-3.8-27.7-7.7-42.4-7.7
			c-14.7,0-28.8,3.9-42.4,7.7c-12.7,3.5-24.7,6.9-36.2,6.9c-11.5,0-23.4-3.3-36.1-6.9c-4.1-1.1-7.4-1-11.2-0.7c-2.7,0.1-5.6,0.3-9,0
			c-1.7,3.1-4.7,8.2-7.3,12.6c-0.2,0.3-0.3,0.7-0.3,1.1l-0.5,6.7l47.6,100.5l57.9,53.4L155.6,614.9z"/>
	</g>
</g>
<g>
</g>
<g>
</g>
<g>
</g>
<g>
</g>
<g>
</g>
<g>
</g>
</svg>
