<?xml version="1.0" encoding="utf-8"?>
<!-- Generator: Adobe Illustrator 25.2.1, SVG Export Plug-In . SVG Version: 6.00 Build 0)  -->
<svg version="1.1" id="Layer_1" xmlns="http://www.w3.org/2000/svg" xmlns:xlink="http://www.w3.org/1999/xlink" x="0px" y="0px"
	 viewBox="0 0 202.1 191.4" style="enable-background:new 0 0 202.1 191.4;" xml:space="preserve">
<style type="text/css">
	.st0{fill:#FFFFFF;}
	.st1{fill:#1B1C1C;}
	.st2{fill:#80D8FF;}
	.st3{fill:#2096E5;}
	.st4{fill:#0072D0;}
	.st5{fill:#005CAF;}
	.st6{fill:#00283F;}
	.st7{fill:#FF0839;}
	.st8{fill:#E8E9E8;}
	.st9{fill:none;stroke:#000000;stroke-width:6;stroke-linecap:round;stroke-miterlimit:10;}
	.st10{fill:#D23837;}
	.st11{fill:#FF4F5F;}
	.st12{fill:#093142;}
	.st13{fill:#003346;}
	.st14{fill:#D1D1D1;}
	.st15{fill:#002941;}
</style>
<g>
	<g>
		<path class="st0" d="M87.7,4.2c0.5,0,0.9,0.2,1.3,0.6c0.3,0.5,19.3,20.8,19.4,21.4c0.4,0.4,7.5,20.4,8.7,20.4c0,0,0,0,0.1,0
			l13.7,4.2c0.4,0.1,0.7,0.3,0.9,0.7l12.7,17.9c-0.3,3,1.3,13.1,1.3,13.1s8.4,7.6,14.1,12.5l4.8,4l-5.6,30.4l-17.8,5.9l-13.8,17.3
			L99.6,157L95,171.8l-17.6,13.8l-35.8-17.3l-8.5-24.7l-15.7-14.5L4.2,101.4c0.1-0.5,0.2-2.5,0.2-2.5s2-3.9,2.3-4.3c0,0,0.1,0,0.1,0
			c3.9-7.5,11.4-22.5,12.8-22.5c0.1,0,0.1,0,0.1,0.1c0.9,0,1.7,0,2.4,0c3.4,0,5.7,0.1,7.3,0.1c4.6,0,4.4-1.1,12.2-9.1
			c0.2-0.2,0.3-0.4,0.4-0.6c0,0,7.4-19.7,7.4-19.7c0.5-1.4,26.2-21.2,27-22.3c0.1-0.1,0.3-0.3,0.4-0.4L86.3,5
			C86.6,4.4,87.2,4.2,87.7,4.2 M87.7,0C87.7,0,87.7,0,87.7,0c-2.1,0-3.9,1-5,2.8l-9.3,14.9c0,0-0.1,0.1-0.1,0.1
			c-0.9,0.8-5.3,4.4-9.3,7.5c-17.8,14.2-18,14.5-18.5,16.2l0,0c-0.4,1.1-1.4,3.6-3.7,9.7l-3.5,9.4c-1.4,1.4-2.5,2.7-3.4,3.7
			c-1.7,1.8-2.9,3.1-3.6,3.6c-0.2,0.1-0.4,0.2-1.8,0.2c-0.6,0-1.4,0-2.2,0c-1.3,0-3-0.1-5.1-0.1c-0.6,0-1.2,0-1.9,0
			c-0.2,0-0.5-0.1-0.7-0.1c-3,0-4.7,2.5-8.3,9.1c-2.2,4-4.8,9-6.9,13c-0.3,0.6-0.6,1.2-0.9,1.8c-0.3,0.3-0.5,0.6-0.6,1
			c-0.1,0.3-1.2,2.3-2.2,4.1c-0.3,0.6-0.5,1.2-0.5,1.8c0,0.7-0.1,1.6-0.1,1.9c-0.2,0.9,0,1.8,0.3,2.6L13.6,131
			c0.2,0.5,0.5,0.9,0.9,1.3l15,13.8l8.2,23.7c0.4,1,1.1,1.9,2.1,2.4l35.8,17.3c0.6,0.3,1.2,0.4,1.8,0.4c0.9,0,1.8-0.3,2.6-0.9
			l17.6-13.8c0.7-0.5,1.1-1.2,1.4-2l3.9-12.3l25.4-4c1-0.2,1.9-0.7,2.6-1.5l13.1-16.3l16.7-5.5c1.4-0.5,2.5-1.7,2.8-3.2l5.6-30.4
			c0.3-1.5-0.3-3-1.4-4l-4.7-3.9c-4.4-3.8-10.5-9.3-12.9-11.5c-0.7-4.3-1.2-9.3-1.1-10.6c0.1-1-0.2-2-0.7-2.9L135.2,49
			c-0.7-1.1-1.8-1.8-3.1-2.2L119.7,43c-1.4-2.8-4.2-10.3-5.6-13.8c-1.9-4.9-2-5.2-2.5-5.8c-1.3-1.7-4.6-5.2-13.4-14.9
			c-2.6-2.9-5.4-5.8-5.9-6.4c-0.1-0.1-0.1-0.2-0.2-0.3C91,0.7,89.4,0,87.7,0L87.7,0z"/>
		<g>
			<path class="st1" d="M77.6,187.7l-37.4-18.1l-8.6-24.9l-15.7-14.4L2.7,101.7L2.5,101c0-0.2,0.1-1.3,0.1-2.2l0-0.4l0.2-0.4
				c1-1.9,2.1-4,2.2-4.2l0.7-1.2l0,0l0.8-1.5c9.7-18.9,11.2-20.6,12.8-20.8c0.2,0,0.5,0,0.7,0.1c3.1,0,5.4,0,7.1,0.1
				c2.9,0.1,4.1,0.1,5-0.3c1-0.5,2.3-1.8,4.5-4.2c1-1.1,2.2-2.4,3.7-4c6.4-17,7.3-19.4,7.4-19.7c0.4-1,1.9-2.5,17.7-15.1
				c4.1-3.3,8.8-7,9.5-7.7l0.1-0.1l0.2-0.1l9.5-15.2c0.6-0.9,1.5-1.5,2.6-1.6c1.1-0.1,2.1,0.3,2.9,1.1l0.1,0.2
				c0.4,0.5,3.2,3.6,6,6.5c9.9,10.7,12.6,13.7,13.4,14.8c0.3,0.3,0.4,0.6,2.1,5.1c1.5,4,4.9,12.9,6.2,14.9l13.4,4.1
				c0.7,0.2,1.4,0.7,1.8,1.3l13.1,18.5l-0.1,0.7c-0.2,2.1,0.7,8.9,1.2,12.1c1.8,1.6,8.8,7.9,13.6,12.1l5.5,4.6l-5.9,32.4l-18.3,6.1
				l-13.9,17.4l-27.5,4.4l-4.5,14.3L77.6,187.7z M43,167.1l34.2,16.5l16.3-12.8l4.8-15.3l28.3-4.5l13.7-17.1l17.3-5.8l5.2-28.4
				l-4-3.3c-5.6-4.9-14.1-12.5-14.1-12.6l-0.5-0.4l-0.1-0.6c-0.2-1-1.5-9.3-1.4-12.9l-12.4-17.5L117,48.3c-0.1,0-0.2,0-0.4-0.1
				c-1.3-0.4-2.1-1.3-8-16.9c-0.7-1.8-1.4-3.6-1.6-4.2l-0.2-0.2l0-0.1c-1.3-1.6-8.6-9.5-13-14.3c-4.6-5-5.7-6.2-6.1-6.7l-9.5,15.2
				c-0.2,0.3-0.4,0.5-0.6,0.8C77,22.5,75,24.2,67.7,30C61.5,34.9,52.3,42.2,51,43.7c-0.9,2.3-7.4,19.5-7.4,19.5
				c-0.2,0.4-0.4,0.8-0.7,1.2c-1.5,1.6-2.7,2.9-3.7,4C33.9,74,33.5,74.2,27,74c-1.8-0.1-4-0.1-7-0.1c-1.9,2.2-7.6,13.3-10.4,18.8
				l-1.9,3.7l-0.1,0c-0.5,0.9-1.2,2.2-1.5,2.9c0,0.6-0.1,1.2-0.1,1.8l12.8,27l15.8,14.6L43,167.1z M51.1,43.5
				C51.1,43.5,51.1,43.5,51.1,43.5C51,43.5,51.1,43.5,51.1,43.5z M107,27L107,27C107,27,107,27,107,27z M106.9,27
				C106.9,27,106.9,27,106.9,27C106.9,27,106.9,27,106.9,27z M75,19.6C75,19.6,75,19.6,75,19.6L75,19.6z"/>
		</g>
		<g>
			<path class="st2" d="M144.6,69.4l-12.7-17.9c-0.2-0.3-0.5-0.5-0.9-0.7l-13.7-4.2c-1,0.8-8.4-20-8.8-20.4
				C108.3,25.5,89.3,5.2,89,4.7C88.2,3.9,86.9,4,86.3,5l-9.5,15.2c-0.1,0.2-0.2,0.3-0.4,0.4c-0.8,1.1-26.5,20.9-27,22.3
				c0,0-7.4,19.7-7.4,19.7c-0.1,0.2-0.2,0.4-0.4,0.6c-11.1,11.6-6,8.7-21.9,9C18.4,70.6,5,98.6,4.4,98.9l0,0
				C55,98.9,114.1,99,164.8,99c-2.6-1.8-18.9-16.5-18.9-16.5S144.3,72.3,144.6,69.4z"/>
		</g>
		<path class="st3" d="M86.3,5l-9.5,15.2c-0.3,0.6-26.4,21.5-26.8,22c-0.2,0.2-0.4,0.4-0.5,0.7L42,62.6c-0.1,0.2-0.2,0.4-0.4,0.6
			l-8.1,8.5c-0.1,1.1-13,0.3-13.8,0.5C18.5,70.5,4.4,98.9,4.4,98.9c10.8,0,41.3,0,51.6,0c1.5-7.4,7.5-23.7,10.4-30.7
			c0,0,0-7.7,0-7.7c6-6.6,15.7-22.4,19.9-30.3V5L86.3,5z"/>
		<g>
			<path class="st3" d="M116.9,46.5l-11.2,21.3l-16,2.3l-7.1,21l42-15c7.1,2.1,14.2,4.2,21.3,6.3c-0.2-1.4-0.4-3.4-0.8-5.8
				c-0.8-5-1.3-7.5-2.3-9.9c-0.9-2.1-1.6-2.5-4.7-6.6c-1.6-2-3.7-5-6.2-8.8C126.9,49.8,121.9,48.2,116.9,46.5z"/>
		</g>
		<path class="st1" d="M165.4,98.1c-0.5-0.3-1.4-1.1-2.7-2.2c0,0,0,0,0,0c-3.9-3.3-10.7-9.4-14-12.4c-0.1-0.1-0.3-0.2-0.4-0.4
			c-0.1,0-0.1-0.1-0.2-0.1c-0.5-0.5-0.9-0.8-1.2-1c0,0-0.1-0.1-0.1-0.1c-0.1-0.5-0.2-1.1-0.2-1.6c0,0,0-0.1,0-0.1
			c0-0.2,0-0.3-0.1-0.5c-0.3-2.4-0.7-5.4-0.9-7.6c0-0.1,0-0.3,0-0.4c0-0.1,0-0.2,0-0.2c0-0.1,0-0.3,0-0.4c0-0.1,0-0.1,0-0.2
			c0-0.1,0-0.3,0-0.4c0-0.1,0-0.1,0-0.2c0-0.1,0-0.2,0-0.3c0-0.1,0-0.3,0-0.4c0-0.3,0-0.5-0.2-0.7l-0.3-0.4c0,0,0,0,0,0l-2.7-3.8
			l-9.8-13.8c-0.4-0.5-0.9-0.9-1.4-1l-0.4-0.1c0,0,0,0,0,0l-13.3-4.1c-1.2-1.6-4.8-11.1-6.4-15.3c-1.4-3.6-1.7-4.4-1.9-4.7
			c0,0,0-0.1,0-0.1c0,0,0,0,0,0c-0.4-0.7-2-2.4-7.9-8.9c-0.5-0.5-0.9-1-1.5-1.6c-0.3-0.3-0.6-0.7-1-1.1c-0.9-1-1.9-2.1-3-3.3
			c-3-3.2-5.7-6.2-6-6.5c0-0.1-0.1-0.1-0.1-0.1c-0.6-0.6-1.4-1-2.3-0.9c-0.9,0.1-1.6,0.6-2.1,1.3l-9.5,15.2c0,0.1-0.1,0.1-0.2,0.2
			l-0.1,0L75.6,20c-0.5,0.5-5.1,4.2-9.6,7.8C51.2,39.5,48.7,41.7,48.5,42.5c0,0,0,0-7.4,19.7c0,0.1-0.1,0.2-0.1,0.2
			c-1.5,1.6-2.7,2.9-3.7,4c-4.6,4.9-4.6,4.9-10,4.8c-0.5,0-1.1,0-1.7,0c-0.9,0-2,0-3.2,0c-0.7,0-1.4,0-2.2,0c-0.1,0-0.2,0-0.3-0.1
			c0,0-0.1,0-0.1,0c-0.1,0-0.1,0-0.2,0c0,0,0,0,0,0c-0.1,0-0.3,0-0.5,0.2c0,0,0,0,0,0c0,0,0,0,0,0c-0.5,0.3-1.1,1-1.9,2.2
			c-2.1,3-5.9,9.6-13.3,24.5c0,0.1,0,0.1-0.1,0.2c-0.2,0.3-0.3,0.6-0.2,1c0.1,0.4,0.5,0.8,1,0.8c0.1,0,0.3,0,0.4,0h0
			c20.9,0,43.3,0,65.9,0c3.3,0,6.7,0,10,0c28.7,0,57.6,0,84.1,0.1c0,0,0,0,0,0c0.5,0,0.9-0.3,1-0.7
			C165.9,98.9,165.8,98.4,165.4,98.1z M38.7,67.9c1-1.1,2.2-2.4,3.7-4c0.3-0.3,0.5-0.6,0.6-0.9c0,0,6.8-18.1,7.4-19.6
			c1-1.2,10.5-8.9,16.9-13.9c0.4-0.3,0.8-0.7,1.2-1c6-4.8,8.1-6.4,8.6-7.1c0.2-0.2,0.4-0.4,0.5-0.6l9.5-15.2
			c0.2-0.3,0.4-0.3,0.5-0.3c0.1,0,0.4,0,0.6,0.2c0,0,0,0.1,0.1,0.1c0,0,0.1,0.1,0.2,0.2c0.6,0.6,2,2.2,5.9,6.4
			c0.2,0.2,0.4,0.5,0.7,0.7c0.3,0.3,0.6,0.7,1,1c0.2,0.2,0.4,0.4,0.6,0.6c0,0.1,0.1,0.1,0.1,0.2c0.2,0.3,0.5,0.5,0.7,0.8
			c0.3,0.3,0.5,0.6,0.8,0.9c0.2,0.2,0.3,0.3,0.5,0.5c0,0,0,0,0,0c0.1,0.1,0.2,0.2,0.3,0.3c0.1,0.1,0.2,0.2,0.3,0.3
			c0.1,0.1,0.1,0.1,0.2,0.2c0.1,0.1,0.2,0.2,0.3,0.3c0.1,0.1,0.2,0.2,0.3,0.4c0.1,0.1,0.1,0.1,0.2,0.2c0.1,0.1,0.2,0.2,0.3,0.3
			c0.1,0.1,0.2,0.2,0.2,0.3c0.1,0.1,0.1,0.1,0.2,0.2c0.1,0.1,0.2,0.3,0.4,0.4c0,0.1,0.1,0.1,0.1,0.2c0.1,0.1,0.2,0.3,0.4,0.4
			c0,0.1,0.1,0.1,0.1,0.1c0.1,0.1,0.2,0.2,0.3,0.4c0.1,0.1,0.2,0.2,0.2,0.3c0.1,0.1,0.2,0.2,0.3,0.3c0.1,0.1,0.1,0.2,0.2,0.2
			c0.1,0.1,0.2,0.2,0.3,0.3c0.1,0.1,0.2,0.2,0.3,0.3c0,0.1,0.1,0.1,0.1,0.2c0.1,0.1,0.2,0.2,0.3,0.3c0.1,0.1,0.1,0.1,0.2,0.2
			c0.1,0.1,0.2,0.2,0.2,0.3c0.1,0.1,0.1,0.1,0.2,0.2c0.1,0.1,0.2,0.2,0.2,0.3c0,0.1,0.1,0.1,0.1,0.2c0.1,0.1,0.2,0.2,0.3,0.3
			c0,0,0,0,0.1,0.1c0.1,0.1,0.2,0.2,0.3,0.3c0,0,0.1,0.1,0.1,0.1c0.1,0.1,0.2,0.2,0.3,0.3c0,0,0,0,0,0c0.1,0.1,0.2,0.2,0.3,0.3
			c0,0,0,0,0,0c0.1,0.1,0.2,0.2,0.2,0.3c0,0,0,0,0,0c0.1,0.1,0.1,0.2,0.2,0.2c0,0,0,0,0,0c0.1,0.1,0.1,0.2,0.2,0.2c0,0,0,0,0,0
			c0.1,0.1,0.1,0.1,0.2,0.2c0,0,0,0,0,0c0,0.1,0.1,0.1,0.1,0.1c0,0,0,0,0,0c0,0,0.1,0.1,0.1,0.1c0,0,0,0,0,0l0,0.1l0.1,0.1
			c0,0,0,0,0,0.1c0,0,0,0.1,0.1,0.2c0,0,0,0.1,0,0.1c0,0.1,0.1,0.2,0.1,0.2c0,0,0,0.1,0,0.1c0,0.1,0.1,0.2,0.1,0.4c0,0,0,0,0,0
			c0.3,0.8,0.8,2,1.3,3.3c5.6,14.7,6.6,16.2,7.6,16.5c0.1,0,0.2,0,0.3,0l13.1,4c0.4,0.1,0.8,0.4,1,0.7l7.7,10.9l4.5,6.3
			c0,0,0,0.1,0,0.1c0,0,0,0,0,0.1c0,0.1,0,0.3,0,0.4c0,0.1,0,0.2,0,0.3c0,0.1,0,0.2,0,0.3c0,0.4,0,0.8,0.1,1.2c0,0,0,0.1,0,0.1
			c0,0.3,0,0.5,0.1,0.8c0,0.1,0,0.1,0,0.2c0,0.2,0,0.5,0.1,0.7c0,0.1,0,0.2,0,0.3c0,0.1,0,0.3,0,0.4c0,0.2,0,0.4,0.1,0.6
			c0,0.1,0,0.2,0,0.3c0,0.2,0.1,0.5,0.1,0.7c0,0,0,0.1,0,0.1c0.4,3.2,0.9,6.1,0.9,6.3c0,0.2,0.2,0.4,0.3,0.6c0.4,0.4,6.7,6,12,10.7
			c0,0,0.1,0,0.1,0.1c0.3,0.3,0.6,0.5,0.9,0.8c0.1,0.1,0.1,0.1,0.2,0.2c0.3,0.2,0.5,0.5,0.8,0.7c0.1,0.1,0.3,0.2,0.4,0.3
			c0.2,0.2,0.4,0.4,0.7,0.6c0.2,0.1,0.3,0.3,0.4,0.4c0.1,0.1,0.2,0.2,0.3,0.2c0.1,0.1,0.3,0.2,0.4,0.3c0,0,0.1,0.1,0.1,0.3
			c-0.1,0.1-0.2,0.2-0.2,0.2c0,0,0,0,0,0c-24.8,0-51.6,0-78.3-0.1c-4.2,0-8.4,0-12.5,0c-22,0-43.8,0-64.2,0c0.6-1.1,1.4-2.7,2.8-5.4
			c3-5.7,9-17.5,10.7-19.2c3.2-0.1,5.5,0,7.3,0.1C33.3,73.5,33.6,73.3,38.7,67.9z"/>
		<path class="st4" d="M160,95c-3.4,0.9-5.8,1.6-8.8,1.6c-3,0-6.2-0.9-9.6-1.8c-3.8-1.1-7.7-2.1-11.8-2.1c-4.1,0-8.1,1.1-11.8,2.1
			c-3.4,0.9-6.6,1.8-9.6,1.8c-3,0-6.2-0.9-9.6-1.8c-3.8-1.1-7.7-2.1-11.8-2.1c-4.1,0-8.1,1.1-11.8,2.1c-3.4,0.9-6.6,1.8-9.6,1.8
			c-3,0-6.2-0.9-9.6-1.8c-3.8-1.1-7.7-2.1-11.8-2.1c-4.1,0-8.1,1.1-11.8,2.1c-3.4,0.9-6.6,1.8-9.6,1.8c-3,0-6.2-0.9-9.6-1.8
			c-2.3-0.7-4,0.2-6.5-0.3c-0.1,0.3-1.2,2.2-1.9,3.4c-0.3,0.6-0.5,1.2-0.5,1.9c0,0.2,0,0.3,0,0.5c0,0.7,0.1,1.4,0.4,2.1l12.7,26.7
			l15.7,14.5l8.5,24.7l35.8,17.3L95,171.8l4.6-14.8l27.9-4.4l13.8-17.3l17.8-5.9l5.6-30.4L160,95z"/>
		<g>
			<path class="st5" d="M95,171.8l-17.6,13.8l-35.8-17.3l-8.5-24.7l-15.7-14.5L4.2,101.4l2.4-6.8c1.9-0.2,2.7-0.5,3.6-0.4
				c4.7,0.7,6.5,2.8,11.1,3c0.7,0,1.5,0,3.4-0.2c8-1,13-3.1,17.2-3.9c3.5-0.7,8.6-0.8,15.5,1.9c-7.1,8.7-14.1,17.3-21.2,26
				l21.7,12.3v15.8l15.1,13.8L95,171.8z"/>
		</g>
		<g>
			<path class="st1" d="M77.5,186.9l-36.8-17.7l-8.6-24.8l-15.7-14.5L3.4,102.1c-0.2-0.3-0.2-0.7-0.2-1.1l0.1-1.8
				c0-0.4,0.2-0.8,0.4-1.2c1.2-2.1,2.2-3.7,2.3-4l0.3-0.7L7,93.5c1,0.2,1.8,0.1,2.7,0.1c1.1-0.1,2.3-0.1,3.7,0.3
				c3.3,0.9,6.4,1.8,9.3,1.8c2.9,0,6-0.9,9.3-1.8c3.9-1.1,7.8-2.2,12.1-2.2c4.3,0,8.3,1.1,12.1,2.2c3.3,0.9,6.4,1.8,9.3,1.8
				c2.8,0,6-0.9,9.3-1.8c3.9-1.1,7.8-2.2,12.1-2.2c4.3,0,8.3,1.1,12.1,2.2c3.3,0.9,6.4,1.8,9.3,1.8c2.8,0,6-0.9,9.3-1.8
				c3.9-1.1,7.8-2.2,12.1-2.2c4.3,0,8.3,1.1,12.1,2.2c3.3,0.9,6.4,1.8,9.3,1.8c2.8,0,5.2-0.7,8.5-1.6l0.5-0.1l0.4,0.3l5.2,4.3
				l-5.7,31.6l-18.1,6l-13.9,17.3l-27.7,4.4l-4.5,14.5L77.5,186.9z M42.4,167.6l34.8,16.8l16.8-13.2l4.7-15.1l28.2-4.5l13.8-17.2
				l17.5-5.8l5.3-29.2l-3.8-3.2c-3.2,0.9-5.6,1.5-8.5,1.5c-3.1,0-6.4-0.9-9.9-1.9c-3.7-1-7.6-2.1-11.6-2.1c-4,0-7.8,1.1-11.6,2.1
				c-3.5,1-6.7,1.9-9.8,1.9c-3.1,0-6.4-0.9-9.8-1.9c-3.7-1-7.6-2.1-11.6-2.1c-4,0-7.8,1.1-11.6,2.1c-3.5,1-6.7,1.9-9.8,1.9
				c-3.1,0-6.4-0.9-9.8-1.9c-3.7-1-7.6-2.1-11.6-2.1c-4,0-7.8,1.1-11.6,2.1c-3.5,1-6.7,1.9-9.9,1.9c-3.1,0-6.4-0.9-9.8-1.9
				c-1.1-0.3-2-0.3-3.1-0.2c-0.7,0-1.5,0.1-2.4,0c-0.5,0.8-1.3,2.2-2,3.4c-0.1,0.1-0.1,0.2-0.1,0.3l-0.1,1.8l13,27.4L34,143.1
				L42.4,167.6z"/>
		</g>
	</g>
	<g>
		<path class="st0" d="M144.3,80.9c29.1,0,52.8,23.6,52.8,52.8s-23.6,52.8-52.8,52.8s-52.8-23.6-52.8-52.8S115.2,80.9,144.3,80.9
			 M144.3,75.8c-31.9,0-57.8,25.9-57.8,57.8s25.9,57.8,57.8,57.8c31.9,0,57.8-25.9,57.8-57.8S176.2,75.8,144.3,75.8L144.3,75.8z"/>
	</g>
</g>
<g>
	<circle class="st6" cx="144.3" cy="133.6" r="54.4"/>
	<g>
		<g>
			<path class="st7" d="M167.5,149.1c0,0,10.5,13.3,21,8c0,0-3.7,0.7-6.9-14.5l-5.9-37c0,0-1.9-9.4-12.6-11.3c0,0-25.1-8.3-44.8,3.8
				c0,0-3.3,0.3-6,11.5l-5.7,35.4c0,0-2.2,10.4-6.2,12c0,0,9.3,6.3,19.3-7.2l0.4-2.7c0,0-2.9-17.6-1.5-21.8l50.7-0.3
				C169.3,125.2,171,131.2,167.5,149.1z"/>
			<path class="st8" d="M118.7,125.9h50.9c0,0,5.3,33.5-25.6,50C144,175.9,116.4,166.2,118.7,125.9z"/>
			<path class="st9" d="M146.6,94.4"/>
			<path class="st7" d="M122.2,149.4c0,0,15.4,8.4,43.4,1.8c0,0-4.1,15.9-21.6,24.6C144,175.8,126.1,167.9,122.2,149.4z"/>
			<path class="st10" d="M172.9,102.6c0,0-6.4-1.1-5.6,7.3l-1.6-0.1c0,0-0.8-7.1,3.6-8.3C169.3,101.4,171.5,101.1,172.9,102.6z"/>
			<path class="st10" d="M115.6,102.2c0,0,6.7-1.8,6.1,7.7l1.6-0.1c0,0,0.9-7.5-3.8-8.8C119.4,101,117.1,100.6,115.6,102.2z"/>
			<path class="st10" d="M127.1,151.6c0,0-0.4-0.1-0.8-0.2c-1-0.1-1.7,1.1-1,1.9c0.3,0.3,0.7,0.7,1.5,1c0,0,19.2,7,34.7,4
				c0,0-0.5,1.7-3.6,2c0,0-14.9,2.2-33.7-5.5c0,0-1.9-2.7-1.9-3.8C122.2,151.1,122.5,149.4,127.1,151.6z"/>
			<path class="st10" d="M156.7,159c2.6-0.4,4.4-1.4,6.6-3.9c0,0,0.5,3.4-3.9,3.7C157.5,158.9,156.7,159,156.7,159z"/>
			<path class="st10" d="M155,161.1c0,0,0.2,0,0.4,0c1.5,0.2,1.2,1.8-0.7,3.2c0,0-2.7,2.1-12.2,2.3c0,0-10.7,0.1-13.1-4
				c0,0,2.5,4.4,4.3,4.9c0,0,4.8,1.2,11.5,0.7c0,0,10.8-1,12.5-4c0,0,1.8-1.7,0.7-3.1C158.3,161.2,157.1,160.3,155,161.1z"/>
			<path class="st10" d="M137.5,168.8L137.5,168.8c-0.5,0.1-0.4,0.7-0.1,0.9c0.8,0.8,2.8,2.1,5.8,3.9c0.3,0.2,0.7,0.2,1.1,0.1
				c0.9-0.3,2.9-1,5.3-2l-1,1l-4.9,3.1l-8.3-5.7l0-1.5C135.4,168.6,136.6,168.7,137.5,168.8z"/>
			<rect x="124.5" y="107.4" class="st10" width="39.7" height="2.3"/>
			<path class="st10" d="M164.1,109.7c0,0,0.3-2.5,1.3-6.1c0,0-2.4,1.7-3.2,6.1H164.1z"/>
			<path class="st10" d="M126.6,109.7c0,0-0.6-4.7-3.1-6.1c0,0,1.2,3,1.3,6.1H126.6z"/>
			<path class="st10" d="M171.6,120.5l0-2.4c0,1.9-1,2.3-1.7,2.4h-51.8c-0.7-0.1-1.7-0.5-1.7-2.4l0,2.4h0v1.4c0,1.3,1.1,2.4,2.4,2.4
				h50.3c1.3,0,2.4-1.1,2.4-2.4V120.5C171.6,120.5,171.6,120.5,171.6,120.5z"/>
			<path class="st10" d="M171.6,124.3c0,0,0.6,8.2-0.4,16.1c-0.4,3.2,0.1,6.4,1.5,9.3c1.6,3.1,4.3,6.1,9.2,6.4c0,0,2.7,0,0.9-2.7
				c0,0-3.4-6.7-3.2-18.6c0,0,3.6,19.3,7.6,21.7l1.4,1.4c0,0-4.7,0.7-6.6,0.8c0,0-7.4-0.5-13.6-9.2c0,0-0.9,0.9,0.6-11.4
				c0,0,1.1-11.9,1.1-12.1C169.9,125.7,171.6,124.3,171.6,124.3z"/>
			<path class="st10" d="M116.2,124.3c0,0-0.6,8.3,0.5,16.2c0.4,2.9,0,6-1.3,8.7c-1.5,3.2-4.2,6.5-9.1,6.9c-0.4,0-0.8-0.1-1-0.4
				c-0.3-0.3-0.4-0.9,0.1-1.9c0,0,3.7-4.4,3.7-18.6c0,0-3.5,15.3-6.5,19.9l-2.3,2.5c0,0,3.6,0.9,5.5,1.1c0,0,7.4-0.5,13.6-9.2
				c0,0,0.9,0.9-0.6-11.4c0,0-1.1-11.9-1.1-12.1C117.9,125.6,116.2,124.3,116.2,124.3z"/>
			<path class="st11" d="M126.1,97.3c0.1-0.7,0.5-1.3,1.2-1.4c4.4-0.7,24.4-3.7,34.8,0.9c2.2,0.9,2.7,2,1.9,3.3
				c-0.8,1.4-2.5,2.1-4.1,1.6c-4.8-1.4-17.2-5.2-32.6-3.1c-0.3,0-0.7,0-0.9-0.3C126.3,98.1,126.1,97.8,126.1,97.3z"/>
			<path class="st11" d="M167.7,117.8h-47.6c-0.9,0-1.6-0.7-1.6-1.6v-0.9c0-0.9,0.7-1.6,1.6-1.6h47.6c0.9,0,1.6,0.7,1.6,1.6v0.9
				C169.2,117.1,168.5,117.8,167.7,117.8z"/>
			<path class="st11" d="M141.9,155.2c3.4,0.1,11.8,0.8,19.5-1.5c0.6-0.2,1,0.5,0.6,0.9c0,0.1-0.8,1.2-2.5,2.2c-1.8,1.1-6.3,1-7.9,1
				c-2.5,0.1-11.4-0.9-11.4-1.9C140.3,155.3,141.7,155.2,141.9,155.2z"/>
			<path class="st11" d="M130.1,159.5c1.7,0.5,5.4,1.4,12.6,2.5c0.3,0.1,0.6,0.2,0.8,0.5c0.2,0.2,0.3,0.6,0.1,1
				c-0.2,0.4-0.5,0.6-0.9,0.8c-1.1,0.4-4.2,0.9-11-1.3c-0.4-0.1-0.8-0.4-1.1-0.7c-0.4-0.4-0.9-1-1.3-1.7
				C129,159.9,129.5,159.3,130.1,159.5z"/>
			<path class="st11" d="M141.4,170.1c1.5,0.1,3.9,0.2,6.5-0.1c0.3,0,0.4,0.4,0.1,0.5l-3.1,1.3c-0.6,0.3-1.3,0.2-1.9-0.1l-1.8-1
				C140.9,170.6,141,170.1,141.4,170.1z"/>
			<path class="st11" d="M174,107.3c0,0,6.3,38,3.5,37.1c-0.7-0.2-1.2-1-1.4-1.7C175.2,140.3,174,131.6,174,107.3z"/>
			<path class="st11" d="M114.8,107.3c0,0-6.3,38-3.5,37.1c0.7-0.2,1.2-1,1.4-1.7C113.6,140.3,114.8,131.6,114.8,107.3z"/>
			<path class="st7" d="M166.3,148.8c0,0-10.5-1.7-17.7-9.7c0,0-1.8-1.8-4.6-1.7c-1.8,0.1-3.5,0.9-4.7,2.3c-1.7,1.9-5.5,5.5-17.5,9
				c0,0,3.2,3.8,22.9,5.1C144.5,153.8,160.2,155.2,166.3,148.8z"/>
			<path class="st10" d="M150.1,149.4c0,0,4.1,2.2,7.1,1.8c0,0,5.6-1.6,6.1-1.8c0,0,1.8-0.3-3.5-2.3l5.8,1.6v1.3l-9.7,3.1
				L150.1,149.4z"/>
			<path class="st10" d="M138.6,149.3l-1.2,2.1c-0.1,0.2,0,0.5,0.3,0.6c1.6,0.3,6.4,1,12.9,0.2c0.3,0,0.5-0.4,0.3-0.6
				c-0.3-0.4-0.9-1.2-1.7-2.6l4.4,3l-1.1,1.7l-8.5,0.2l-9.2-0.9l-0.3-1.1L138.6,149.3z"/>
			<path class="st10" d="M136.5,150.3c0,0-3.4,1.4-6,0.5l-4.8-1.4c0,0-0.3-0.2,0.4-0.6c0.9-0.4,1.7-0.9,2.5-1.4
				c0.4-0.3,1-0.7,1.7-1.1l-2.1,0.3l-5.9,2.5l1.5,0.8l4.1,1.5l3.6,0.9h2.6L136.5,150.3z"/>
			<path class="st10" d="M152,145.4c0,0-1.2-1.6-0.8-2.1c0,0,0.2-0.8,2.7,0.6l-4.4-3.6l-1,1.2l3.1,4.4L152,145.4z"/>
			<path class="st10" d="M136.7,145.2c0,0,1.2-1.8,0.8-2.3c0,0,0-0.8-2.5,0.6l4.2-3.6l1,1.2l-3.1,4.4L136.7,145.2z"/>
			<path class="st10" d="M141.4,140.1c0,0,0.3-1.8,3-1.8c0,0,2.2,0.1,2.7,1.9l0.3-2.6l-3.1-1.2l-2.8,0.7l-1,1.8L141.4,140.1z"/>
			<g>
				<path class="st12" d="M157.2,138.3c0,0,3.3-0.3,5.1-3.3c0,0-4.7,3.6-8.7,0.9c-0.3-0.2-0.8-0.1-1,0.2l0,0
					c-0.2,0.3-0.1,0.6,0.2,0.9C153.6,137.6,155.2,138.5,157.2,138.3z"/>
				<path class="st12" d="M131.3,138.7c2.1,0,3.6-1,4.3-1.6c0.2-0.2,0.3-0.6,0.1-0.9l0,0c-0.2-0.3-0.7-0.4-1-0.2
					c-3.8,2.9-8.7-0.4-8.7-0.4C127.9,138.6,131.3,138.7,131.3,138.7z"/>
				<path class="st13" d="M188.9,157.1c-1.6-0.4-3.9-2.8-6-11.9c-1.3-5.5-6.4-38.6-6.4-38.6c-1.1-5.7-4.6-9.7-10.7-12.3
					c-1.2-0.5-5.1-1.6-5.1-1.6h0c-12.2-2.6-21.4-1.9-32.3,0.1c0,0-5.2,1.2-7,2c-5.3,2.5-8.2,6.2-9.2,11.7l-3.3,21
					c-3.6,25.5-6.1,28.3-9.1,29.5l-1,0.3l0.9,0.5c0.1,0.1,3.2,1.5,7.4,1.2c2.5-0.2,4.9-1,7.1-2.3c1.8-1.1,3.5-2.5,5-4.3
					c0.8-0.9,2.3-0.7,2.8,0.4c1,2.1,2.4,4.9,2.9,5.7c4,6.6,9,11.9,14.7,15.5c2.3,1.5,3.9,2.2,4.1,2.2l0.1,0.1l0.2-0.1l0,0
					c9.1-3.6,17.5-15,18.4-16.3c1.8-2.8,3.1-5.4,3.9-7.3c0.5-1.2,2.1-1.4,2.9-0.4c1.6,1.9,3.3,3.4,5.2,4.5c2.2,1.3,4.6,2.1,7.1,2.3
					c0.4,0,0.8,0.1,1.2,0.1c3.6,0,6.1-1.2,6.2-1.3l0.9-0.5L188.9,157.1z M124,95.5c6.5-2.2,15.2-2.6,19.4-2.7c0,0,11.7-0.8,21.2,2.9
					c3.9,1.9,2,5.8,1.8,6.1c-1.3,1.9-2.4,4.6-2.3,8h-39.3c0.1-3.4-1.1-6.1-2.3-8C122.4,101.6,120,97.1,124,95.5z M118.9,98L118.9,98
					L118.9,98L118.9,98z M112.4,156.1c-0.1,0.1-0.2,0.2-0.4,0.2c-5,3.2-9.7,1.7-10.9,1.2c-0.1,0-0.1-0.2,0-0.2
					c0.3-0.2,0.6-0.4,0.8-0.7c1.6-1.4,4.8-5.9,7-20.2c0,0,2.5-16.2,4.4-27.3c0.4-2.4,1-4.3,1.7-5.8c1.3-3,5.5-3.1,7-0.3
					c0.4,0.7,0.6,1.4,0.9,2.1c0.6,2.1,0.5,3.7,0.4,4.5c0,0,0,0.1,0,0.1h-3.4c-2.4,0-4.3,1.9-4.3,4.3v8.1c0,1.5,0.8,2.9,2.1,3.6v6.1
					c0,3.3,0.3,6.5,0.9,9.7C119.6,147.2,117.2,153,112.4,156.1z M122.2,150L122.2,150L122.2,150L122.2,150z M152.3,169.3
					c-2.4,2.2-5.1,4.3-8.1,5.9c-0.2,0.1-0.5,0.1-0.8,0l0,0c-2.8-1.5-5.3-3.4-7.6-5.4c-0.5-0.4-0.1-1.2,0.5-1.1
					c3.3,0.5,9.2,0.9,15.4-0.4C152.4,168.1,152.8,168.9,152.3,169.3z M158,163C158,163,158,163,158,163c-1.2,1.5-2.7,2.6-4.5,3.2
					c-0.3,0.1-0.7,0.2-1.1,0.3c-3.3,1-8.5,1.9-15.6,1.2c-2.3-0.2-4.4-1.3-5.8-3.1c-1.7-2-3.1-4-4.1-5.7c-0.6-1,0.3-2.2,1.4-1.9
					c7.6,2.3,14.2,3.3,19.4,3.7c1.6,0.1,3.3,0.2,5,0.2c1.4,0,2.8-0.1,4.1-0.2C158,160.9,158.7,162.1,158,163z M164,153.9
					C164,153.9,164,153.9,164,153.9c0,0-0.9,1.9-2.7,4.5c-0.5,0.8-1.4,1.4-2.4,1.5c-8.5,1.1-17.2-0.4-23.3-1.9
					c-5.1-1.3-9.3-2.4-11.2-3.6c-0.9-0.6-1.1-1.6-1.2-1.9c-0.2-1,0.5-2,1.4-1.6c6,2,22,6.3,37.7,1.2
					C163.5,151.8,164.5,152.9,164,153.9z M165,149.6c-2.5,1.1-5.6,2-7.1,2.4c-0.7,0.2-1.5,0.2-2.2,0c-1.4-0.3-3.8-1.2-7-3.6
					c0,0,1.4,2.3,3.9,3.6c0.4,0.2,0.3,0.9-0.2,1c-0.6,0.1-1.1,0.1-1.7,0.2c-4.7,0.5-6.7,0.3-13.2-0.3c0,0-0.7-0.1-1.3-0.2
					c-0.5-0.1-0.6-0.7-0.2-1c2.2-1.4,3.5-3.4,3.5-3.4c-2.5,1.8-4.5,2.8-5.9,3.3c-0.8,0.3-1.7,0.3-2.5,0.1c-2.1-0.5-4.8-1.3-6.6-1.9
					c-0.6-0.2-0.5-1,0-1.1c2.7-0.8,7.5-2.8,14.4-8c0.4-0.3,1,0.1,0.8,0.6c-2.5,5.6-10.7,8.6-10.7,8.6c9.9-2.9,12.2-7.7,12.7-10.2
					c0.3-1.3,1.4-2.2,2.7-2.2c0.1,0,0.1,0,0.2,0c1.3,0.1,2.3,1,2.5,2.2c0.5,2.5,2.8,7.3,12.7,10.2c0,0-8-3-10.6-8.4
					c-0.2-0.5,0.4-1,0.8-0.6c3.3,2.6,9.5,6.9,15,7.8C165.3,148.7,165.4,149.4,165,149.6L165,149.6z M166.6,147.4
					c-1.7-0.4-10.7-2.6-18.4-10c0,0-3.2-2.9-7.4-0.3c0,0-12,10-19.3,10.6c-2.7-8.8-2.4-17.9-2.3-20.7c0-0.3,0.3-0.6,0.7-0.6l0,0
					h48.2h0c0.4,0,0.7,0.3,0.7,0.6C168.9,129.8,169.2,138.7,166.6,147.4z M168.5,124.3h-49.4c0,0-1.6,0.1-2.4-2.1
					c-0.2-0.6-0.3-1.3-0.3-1.9v-5.2c0-0.5,0.1-0.9,0.2-1.3c0.3-0.9,1.1-2.1,2.9-2.1h49.4c0,0,1.6-0.1,2.4,2.1
					c0.2,0.6,0.3,1.2,0.3,1.9l0,5.3C171.6,121,171.6,124.3,168.5,124.3z M187.6,157.5C187.6,157.5,187.6,157.5,187.6,157.5
					c-6,1.2-9.6-0.5-11.3-1.6c-0.1-0.1-0.2-0.2-0.4-0.2c-4.9-3.1-7.4-8.9-6.4-14.5c0.5-2.7,0.8-5.8,0.7-8.9v-6.4
					c1.2-0.7,2-2.1,2-3.6V114c0-2.4-1.6-4.3-4.3-4.3h-2.4c-0.1-0.6-0.2-1.9,0.1-3.6c0.1-0.7,0.4-1.6,0.8-2.5c1.4-3.1,5.8-3,7.1,0
					c0.6,1.5,1.2,3.3,1.6,5.6c1.9,11.1,4.4,27.3,4.4,27.3c2.9,16.8,6.2,20,7.9,20.6C187.7,157.2,187.7,157.4,187.6,157.5z"/>
				<path class="st14" d="M157.5,130.2c0,0,4.1-0.9,7.2,2.4c0.1,0.1,0.1,0.2,0.2,0.3c0.2,0.3,0.7,1.2-0.1,1.7
					c-0.5,0.3-1.2,0.2-1.6-0.3c-0.6-0.8-2.2-2.1-5.6-2.6c-0.5-0.1-0.8-0.6-0.6-1C157.1,130.5,157.2,130.3,157.5,130.2z"/>
				<path class="st14" d="M130.3,130.2c0,0-4.1-0.9-7.2,2.4c-0.1,0.1-0.1,0.2-0.2,0.3c-0.2,0.3-0.7,1.2,0.1,1.7
					c0.5,0.3,1.2,0.2,1.6-0.3c0.6-0.8,2.2-2.1,5.6-2.6c0.5-0.1,0.8-0.6,0.6-1C130.8,130.5,130.6,130.3,130.3,130.2z"/>
			</g>
			<path class="st11" d="M142.9,140.1c-1,1.2-0.4,3-0.9,4.6c-0.4,1.3,0.2,2.8,1.6,3c0.1,0,0.1,0,0.2,0c0,0,0.1,0,0.2,0
				c1.6,0.2,2.9-1.2,2.6-2.8l-0.6-4C145.7,139.7,143.5,139.3,142.9,140.1z"/>
		</g>
		<g>
			<g>
				<path class="st15" d="M138,115.7l-1.2-1.9c-0.2-0.3-0.6-0.3-0.8,0l-4.9,8.5c-0.2,0.3,0.1,0.7,0.4,0.7h2.5c0.5,0,1-0.3,1.2-0.7
					l2.8-4.7C138.4,117,138.3,116.3,138,115.7z"/>
				<path class="st15" d="M140,119.3c-0.2-0.3-0.7-0.3-0.9,0l-1.8,3c-0.2,0.3,0.1,0.7,0.4,0.7h3.5c0.4,0,0.6-0.4,0.4-0.7L140,119.3z
					"/>
				<path class="st15" d="M143.2,113.9c-0.3-0.5-0.8-0.7-1.3-0.7h-2.5c-0.4,0-0.6,0.4-0.4,0.7l4.8,8.6c0.2,0.3,0.7,0.3,0.9,0
					l1.3-2.2c0.2-0.4,0.2-1,0-1.4L143.2,113.9z"/>
				<path class="st15" d="M147.1,117c0.2,0.3,0.6,0.3,0.8,0l1.7-3.1c0.2-0.3-0.1-0.7-0.4-0.7h-3.5c-0.4,0-0.6,0.4-0.4,0.7L147.1,117
					z"/>
				<path class="st15" d="M153.9,116l-1.3-2.3c-0.2-0.3-0.6-0.3-0.8,0l-4.9,8.6c-0.2,0.3,0.1,0.7,0.4,0.7h2.5c0.5,0,1-0.3,1.3-0.7
					l2.8-4.9C154.2,117,154.2,116.4,153.9,116z"/>
				<path class="st15" d="M157.5,122.3l-1.8-3.1c-0.2-0.3-0.6-0.3-0.8,0l-1.8,3c-0.2,0.3,0,0.7,0.4,0.7h3.5
					C157.5,123,157.7,122.6,157.5,122.3z"/>
			</g>
		</g>
	</g>
</g>
</svg>
