<?xml version="1.0" encoding="utf-8"?>
<!-- Generator: Adobe Illustrator 25.2.1, SVG Export Plug-In . SVG Version: 6.00 Build 0)  -->
<svg version="1.1" id="Layer_1" xmlns="http://www.w3.org/2000/svg" xmlns:xlink="http://www.w3.org/1999/xlink" x="0px" y="0px"
	 viewBox="0 0 202.1 191.4" style="enable-background:new 0 0 202.1 191.4;" xml:space="preserve">
<style type="text/css">
	.st0{fill:#FFFFFF;}
	.st1{fill:#1C1C1C;}
	.st2{fill:#80D8FF;}
	.st3{fill:#2096E5;}
	.st4{fill:#0072D0;}
	.st5{fill:#005CAF;}
	.st6{fill:#3B88E7;}
	.st7{fill:none;stroke:#FFFFFF;stroke-width:6.5;stroke-miterlimit:10;}
</style>
<g>
	<g>
		<g>
			<path class="st0" d="M87.7,4.2c0.5,0,0.9,0.2,1.3,0.6c0.3,0.5,19.3,20.8,19.4,21.4c0.4,0.4,7.5,20.4,8.7,20.4c0,0,0,0,0.1,0
				l13.7,4.2c0.4,0.1,0.7,0.3,0.9,0.7l12.7,17.9c-0.3,3,1.3,13.1,1.3,13.1s8.4,7.6,14.1,12.5l4.8,4l-5.6,30.4l-17.8,5.9l-13.8,17.3
				L99.6,157L95,171.8l-17.6,13.8l-35.8-17.3l-8.5-24.7l-15.7-14.5L4.2,101.4c0.1-0.5,0.2-2.5,0.2-2.5s2-3.9,2.3-4.3
				c0,0,0.1,0,0.1,0c3.9-7.5,11.4-22.5,12.8-22.5c0.1,0,0.1,0,0.1,0.1c0.9,0,1.7,0,2.4,0c3.4,0,5.7,0.1,7.3,0.1
				c4.6,0,4.4-1.1,12.2-9.1c0.2-0.2,0.3-0.4,0.4-0.6c0,0,7.4-19.7,7.4-19.7c0.5-1.4,26.2-21.2,27-22.3c0.1-0.1,0.3-0.3,0.4-0.4
				L86.3,5C86.6,4.4,87.2,4.2,87.7,4.2 M87.7,0C87.7,0,87.7,0,87.7,0c-2.1,0-3.9,1-5,2.8l-9.3,14.9c0,0-0.1,0.1-0.1,0.1
				c-0.9,0.8-5.3,4.4-9.3,7.5c-17.8,14.2-18,14.5-18.5,16.2l0,0c-0.4,1.1-1.4,3.6-3.7,9.7l-3.5,9.4c-1.4,1.4-2.5,2.7-3.4,3.7
				c-1.7,1.8-2.9,3.1-3.6,3.6c-0.2,0.1-0.4,0.2-1.8,0.2c-0.6,0-1.4,0-2.2,0c-1.3,0-3-0.1-5.1-0.1c-0.6,0-1.2,0-1.9,0
				c-0.2,0-0.5-0.1-0.7-0.1c-3,0-4.7,2.5-8.3,9.1c-2.2,4-4.8,9-6.9,13c-0.3,0.6-0.6,1.2-0.9,1.8c-0.3,0.3-0.5,0.6-0.6,1
				c-0.1,0.3-1.2,2.3-2.2,4.1c-0.3,0.6-0.5,1.2-0.5,1.8c0,0.7-0.1,1.6-0.1,1.9c-0.2,0.9,0,1.8,0.3,2.6L13.6,131
				c0.2,0.5,0.5,0.9,0.9,1.3l15,13.8l8.2,23.7c0.4,1,1.1,1.9,2.1,2.4l35.8,17.3c0.6,0.3,1.2,0.4,1.8,0.4c0.9,0,1.8-0.3,2.6-0.9
				l17.6-13.8c0.7-0.5,1.1-1.2,1.4-2l3.9-12.3l25.4-4c1-0.2,1.9-0.7,2.6-1.5l13.1-16.3l16.7-5.5c1.4-0.5,2.5-1.7,2.8-3.2l5.6-30.4
				c0.3-1.5-0.3-3-1.4-4l-4.7-3.9c-4.4-3.8-10.5-9.3-12.9-11.5c-0.7-4.3-1.2-9.3-1.1-10.6c0.1-1-0.2-2-0.7-2.9L135.2,49
				c-0.7-1.1-1.8-1.8-3.1-2.2L119.7,43c-1.4-2.8-4.2-10.3-5.6-13.8c-1.9-4.9-2-5.2-2.5-5.8c-1.3-1.7-4.6-5.2-13.4-14.9
				c-2.6-2.9-5.4-5.8-5.9-6.4c-0.1-0.1-0.1-0.2-0.2-0.3C91,0.7,89.4,0,87.7,0L87.7,0z"/>
			<g>
				<path class="st1" d="M77.6,187.7l-37.4-18.1l-8.6-24.9l-15.7-14.4L2.7,101.7L2.5,101c0-0.2,0.1-1.3,0.1-2.2l0-0.4l0.2-0.4
					c1-1.9,2.1-4,2.2-4.2l0.7-1.2l0,0l0.8-1.5c9.7-18.9,11.2-20.6,12.8-20.8c0.2,0,0.5,0,0.7,0.1c3.1,0,5.4,0,7.1,0.1
					c2.9,0.1,4.1,0.1,5-0.3c1-0.5,2.3-1.8,4.5-4.2c1-1.1,2.2-2.4,3.7-4c6.4-17,7.3-19.4,7.4-19.7c0.4-1,1.9-2.5,17.7-15.1
					c4.1-3.3,8.8-7,9.5-7.7l0.1-0.1l0.2-0.1l9.5-15.2c0.6-0.9,1.5-1.5,2.6-1.6c1.1-0.1,2.1,0.3,2.9,1.1l0.1,0.2
					c0.4,0.5,3.2,3.6,6,6.5c9.9,10.7,12.6,13.7,13.4,14.8c0.3,0.3,0.4,0.6,2.1,5.1c1.5,4,4.9,12.9,6.2,14.9l13.4,4.1
					c0.7,0.2,1.4,0.7,1.8,1.3l13.1,18.5l-0.1,0.7c-0.2,2.1,0.7,8.9,1.2,12.1c1.8,1.6,8.8,7.9,13.6,12.1l5.5,4.6l-5.9,32.4l-18.3,6.1
					l-13.9,17.4l-27.5,4.4l-4.5,14.3L77.6,187.7z M43,167.1l34.2,16.5l16.3-12.8l4.8-15.3l28.3-4.5l13.7-17.1l17.3-5.8l5.2-28.4
					l-4-3.3c-5.6-4.9-14.1-12.5-14.1-12.6l-0.5-0.4l-0.1-0.6c-0.2-1-1.5-9.3-1.4-12.9l-12.4-17.5L117,48.3c-0.1,0-0.2,0-0.4-0.1
					c-1.3-0.4-2.1-1.3-8-16.9c-0.7-1.8-1.4-3.6-1.6-4.2l-0.2-0.2l0-0.1c-1.3-1.6-8.6-9.5-13-14.3c-4.6-5-5.7-6.2-6.1-6.7l-9.5,15.2
					c-0.2,0.3-0.4,0.5-0.6,0.8C77,22.5,75,24.2,67.7,30C61.5,34.9,52.3,42.2,51,43.7c-0.9,2.3-7.4,19.5-7.4,19.5
					c-0.2,0.4-0.4,0.8-0.7,1.2c-1.5,1.6-2.7,2.9-3.7,4C33.9,74,33.5,74.2,27,74c-1.8-0.1-4-0.1-7-0.1c-1.9,2.2-7.6,13.3-10.4,18.8
					l-1.9,3.7l-0.1,0c-0.5,0.9-1.2,2.2-1.5,2.9c0,0.6-0.1,1.2-0.1,1.8l12.8,27l15.8,14.6L43,167.1z M51.1,43.5
					C51.1,43.5,51.1,43.5,51.1,43.5C51,43.5,51.1,43.5,51.1,43.5z M107,27L107,27C107,27,107,27,107,27z M106.9,27
					C106.9,27,106.9,27,106.9,27C106.9,27,106.9,27,106.9,27z M75,19.6C75,19.6,75,19.6,75,19.6L75,19.6z"/>
			</g>
			<g>
				<path class="st2" d="M144.6,69.4l-12.7-17.9c-0.2-0.3-0.5-0.5-0.9-0.7l-13.7-4.2c-1,0.8-8.4-20-8.8-20.4
					C108.3,25.5,89.3,5.2,89,4.7C88.2,3.9,86.9,4,86.3,5l-9.5,15.2c-0.1,0.2-0.2,0.3-0.4,0.4c-0.8,1.1-26.5,20.9-27,22.3
					c0,0-7.4,19.7-7.4,19.7c-0.1,0.2-0.2,0.4-0.4,0.6c-11.1,11.6-6,8.7-21.9,9C18.4,70.6,5,98.6,4.4,98.9l0,0
					C55,98.9,114.1,99,164.8,99c-2.6-1.8-18.9-16.5-18.9-16.5S144.3,72.3,144.6,69.4z"/>
			</g>
			<path class="st3" d="M86.3,5l-9.5,15.2c-0.3,0.6-26.4,21.5-26.8,22c-0.2,0.2-0.4,0.4-0.5,0.7L42,62.6c-0.1,0.2-0.2,0.4-0.4,0.6
				l-8.1,8.5c-0.1,1.1-13,0.3-13.8,0.5C18.5,70.5,4.4,98.9,4.4,98.9c10.8,0,41.3,0,51.6,0c1.5-7.4,7.5-23.7,10.4-30.7
				c0,0,0-7.7,0-7.7c6-6.6,15.7-22.4,19.9-30.3V5L86.3,5z"/>
			<g>
				<path class="st3" d="M116.9,46.5l-11.2,21.3l-16,2.3l-7.1,21l42-15c7.1,2.1,14.2,4.2,21.3,6.3c-0.2-1.4-0.4-3.4-0.8-5.8
					c-0.8-5-1.3-7.5-2.3-9.9c-0.9-2.1-1.6-2.5-4.7-6.6c-1.6-2-3.7-5-6.2-8.8C126.9,49.8,121.9,48.2,116.9,46.5z"/>
			</g>
			<path class="st1" d="M165.4,98.1c-0.5-0.3-1.4-1.1-2.7-2.2c0,0,0,0,0,0c-3.9-3.3-10.7-9.4-14-12.4c-0.1-0.1-0.3-0.2-0.4-0.4
				c-0.1,0-0.1-0.1-0.2-0.1c-0.5-0.5-0.9-0.8-1.2-1c0,0-0.1-0.1-0.1-0.1c-0.1-0.5-0.2-1.1-0.2-1.6c0,0,0-0.1,0-0.1
				c0-0.2,0-0.3-0.1-0.5c-0.3-2.4-0.7-5.4-0.9-7.6c0-0.1,0-0.3,0-0.4c0-0.1,0-0.2,0-0.2c0-0.1,0-0.3,0-0.4c0-0.1,0-0.1,0-0.2
				c0-0.1,0-0.3,0-0.4c0-0.1,0-0.1,0-0.2c0-0.1,0-0.2,0-0.3c0-0.1,0-0.3,0-0.4c0-0.3,0-0.5-0.2-0.7l-0.3-0.4c0,0,0,0,0,0l-2.7-3.8
				l-9.8-13.8c-0.4-0.5-0.9-0.9-1.4-1l-0.4-0.1c0,0,0,0,0,0l-13.3-4.1c-1.2-1.6-4.8-11.1-6.4-15.3c-1.4-3.6-1.7-4.4-1.9-4.7
				c0,0,0-0.1,0-0.1c0,0,0,0,0,0c-0.4-0.7-2-2.4-7.9-8.9c-0.5-0.5-0.9-1-1.5-1.6c-0.3-0.3-0.6-0.7-1-1.1c-0.9-1-1.9-2.1-3-3.3
				c-3-3.2-5.7-6.2-6-6.5c0-0.1-0.1-0.1-0.1-0.1c-0.6-0.6-1.4-1-2.3-0.9c-0.9,0.1-1.6,0.6-2.1,1.3l-9.5,15.2c0,0.1-0.1,0.1-0.2,0.2
				l-0.1,0L75.6,20c-0.5,0.5-5.1,4.2-9.6,7.8C51.2,39.5,48.7,41.7,48.5,42.5c0,0,0,0-7.4,19.7c0,0.1-0.1,0.2-0.1,0.2
				c-1.5,1.6-2.7,2.9-3.7,4c-4.6,4.9-4.6,4.9-10,4.8c-0.5,0-1.1,0-1.7,0c-0.9,0-2,0-3.2,0c-0.7,0-1.4,0-2.2,0c-0.1,0-0.2,0-0.3-0.1
				c0,0-0.1,0-0.1,0c-0.1,0-0.1,0-0.2,0c0,0,0,0,0,0c-0.1,0-0.3,0-0.5,0.2c0,0,0,0,0,0c0,0,0,0,0,0c-0.5,0.3-1.1,1-1.9,2.2
				c-2.1,3-5.9,9.6-13.3,24.5c0,0.1,0,0.1-0.1,0.2c-0.2,0.3-0.3,0.6-0.2,1c0.1,0.4,0.5,0.8,1,0.8c0.1,0,0.3,0,0.4,0h0
				c20.9,0,43.3,0,65.9,0c3.3,0,6.7,0,10,0c28.7,0,57.6,0,84.1,0.1c0,0,0,0,0,0c0.5,0,0.9-0.3,1-0.7
				C165.9,98.9,165.8,98.4,165.4,98.1z M38.7,67.9c1-1.1,2.2-2.4,3.7-4c0.3-0.3,0.5-0.6,0.6-0.9c0,0,6.8-18.1,7.4-19.6
				c1-1.2,10.5-8.9,16.9-13.9c0.4-0.3,0.8-0.7,1.2-1c6-4.8,8.1-6.4,8.6-7.1c0.2-0.2,0.4-0.4,0.5-0.6l9.5-15.2
				c0.2-0.3,0.4-0.3,0.5-0.3c0.1,0,0.4,0,0.6,0.2c0,0,0,0.1,0.1,0.1c0,0,0.1,0.1,0.2,0.2c0.6,0.6,2,2.2,5.9,6.4
				c0.2,0.2,0.4,0.5,0.7,0.7c0.3,0.3,0.6,0.7,1,1c0.2,0.2,0.4,0.4,0.6,0.6c0,0.1,0.1,0.1,0.1,0.2c0.2,0.3,0.5,0.5,0.7,0.8
				c0.3,0.3,0.5,0.6,0.8,0.9c0.2,0.2,0.3,0.3,0.5,0.5c0,0,0,0,0,0c0.1,0.1,0.2,0.2,0.3,0.3c0.1,0.1,0.2,0.2,0.3,0.3
				c0.1,0.1,0.1,0.1,0.2,0.2c0.1,0.1,0.2,0.2,0.3,0.3c0.1,0.1,0.2,0.2,0.3,0.4c0.1,0.1,0.1,0.1,0.2,0.2c0.1,0.1,0.2,0.2,0.3,0.3
				c0.1,0.1,0.2,0.2,0.2,0.3c0.1,0.1,0.1,0.1,0.2,0.2c0.1,0.1,0.2,0.3,0.4,0.4c0,0.1,0.1,0.1,0.1,0.2c0.1,0.1,0.2,0.3,0.4,0.4
				c0,0.1,0.1,0.1,0.1,0.1c0.1,0.1,0.2,0.2,0.3,0.4c0.1,0.1,0.2,0.2,0.2,0.3c0.1,0.1,0.2,0.2,0.3,0.3c0.1,0.1,0.1,0.2,0.2,0.2
				c0.1,0.1,0.2,0.2,0.3,0.3c0.1,0.1,0.2,0.2,0.3,0.3c0,0.1,0.1,0.1,0.1,0.2c0.1,0.1,0.2,0.2,0.3,0.3c0.1,0.1,0.1,0.1,0.2,0.2
				c0.1,0.1,0.2,0.2,0.2,0.3c0.1,0.1,0.1,0.1,0.2,0.2c0.1,0.1,0.2,0.2,0.2,0.3c0,0.1,0.1,0.1,0.1,0.2c0.1,0.1,0.2,0.2,0.3,0.3
				c0,0,0,0,0.1,0.1c0.1,0.1,0.2,0.2,0.3,0.3c0,0,0.1,0.1,0.1,0.1c0.1,0.1,0.2,0.2,0.3,0.3c0,0,0,0,0,0c0.1,0.1,0.2,0.2,0.3,0.3
				c0,0,0,0,0,0c0.1,0.1,0.2,0.2,0.2,0.3c0,0,0,0,0,0c0.1,0.1,0.1,0.2,0.2,0.2c0,0,0,0,0,0c0.1,0.1,0.1,0.2,0.2,0.2c0,0,0,0,0,0
				c0.1,0.1,0.1,0.1,0.2,0.2c0,0,0,0,0,0c0,0.1,0.1,0.1,0.1,0.1c0,0,0,0,0,0c0,0,0.1,0.1,0.1,0.1c0,0,0,0,0,0l0,0.1l0.1,0.1
				c0,0,0,0,0,0.1c0,0,0,0.1,0.1,0.2c0,0,0,0.1,0,0.1c0,0.1,0.1,0.2,0.1,0.2c0,0,0,0.1,0,0.1c0,0.1,0.1,0.2,0.1,0.4c0,0,0,0,0,0
				c0.3,0.8,0.8,2,1.3,3.3c5.6,14.7,6.6,16.2,7.6,16.5c0.1,0,0.2,0,0.3,0l13.1,4c0.4,0.1,0.8,0.4,1,0.7l7.7,10.9l4.5,6.3
				c0,0,0,0.1,0,0.1c0,0,0,0,0,0.1c0,0.1,0,0.3,0,0.4c0,0.1,0,0.2,0,0.3c0,0.1,0,0.2,0,0.3c0,0.4,0,0.8,0.1,1.2c0,0,0,0.1,0,0.1
				c0,0.3,0,0.5,0.1,0.8c0,0.1,0,0.1,0,0.2c0,0.2,0,0.5,0.1,0.7c0,0.1,0,0.2,0,0.3c0,0.1,0,0.3,0,0.4c0,0.2,0,0.4,0.1,0.6
				c0,0.1,0,0.2,0,0.3c0,0.2,0.1,0.5,0.1,0.7c0,0,0,0.1,0,0.1c0.4,3.2,0.9,6.1,0.9,6.3c0,0.2,0.2,0.4,0.3,0.6c0.4,0.4,6.7,6,12,10.7
				c0,0,0.1,0,0.1,0.1c0.3,0.3,0.6,0.5,0.9,0.8c0.1,0.1,0.1,0.1,0.2,0.2c0.3,0.2,0.5,0.5,0.8,0.7c0.1,0.1,0.3,0.2,0.4,0.3
				c0.2,0.2,0.4,0.4,0.7,0.6c0.2,0.1,0.3,0.3,0.4,0.4c0.1,0.1,0.2,0.2,0.3,0.2c0.1,0.1,0.3,0.2,0.4,0.3c0,0,0.1,0.1,0.1,0.3
				c-0.1,0.1-0.2,0.2-0.2,0.2c0,0,0,0,0,0c-24.8,0-51.6,0-78.3-0.1c-4.2,0-8.4,0-12.5,0c-22,0-43.8,0-64.2,0
				c0.6-1.1,1.4-2.7,2.8-5.4c3-5.7,9-17.5,10.7-19.2c3.2-0.1,5.5,0,7.3,0.1C33.3,73.5,33.6,73.3,38.7,67.9z"/>
			<path class="st4" d="M160,95c-3.4,0.9-5.8,1.6-8.8,1.6c-3,0-6.2-0.9-9.6-1.8c-3.8-1.1-7.7-2.1-11.8-2.1c-4.1,0-8.1,1.1-11.8,2.1
				c-3.4,0.9-6.6,1.8-9.6,1.8c-3,0-6.2-0.9-9.6-1.8c-3.8-1.1-7.7-2.1-11.8-2.1c-4.1,0-8.1,1.1-11.8,2.1c-3.4,0.9-6.6,1.8-9.6,1.8
				c-3,0-6.2-0.9-9.6-1.8c-3.8-1.1-7.7-2.1-11.8-2.1c-4.1,0-8.1,1.1-11.8,2.1c-3.4,0.9-6.6,1.8-9.6,1.8c-3,0-6.2-0.9-9.6-1.8
				c-2.3-0.7-4,0.2-6.5-0.3c-0.1,0.3-1.2,2.2-1.9,3.4c-0.3,0.6-0.5,1.2-0.5,1.9c0,0.2,0,0.3,0,0.5c0,0.7,0.1,1.4,0.4,2.1l12.7,26.7
				l15.7,14.5l8.5,24.7l35.8,17.3L95,171.8l4.6-14.8l27.9-4.4l13.8-17.3l17.8-5.9l5.6-30.4L160,95z"/>
			<g>
				<path class="st5" d="M95,171.8l-17.6,13.8l-35.8-17.3l-8.5-24.7l-15.7-14.5L4.2,101.4l2.4-6.8c1.9-0.2,2.7-0.5,3.6-0.4
					c4.7,0.7,6.5,2.8,11.1,3c0.7,0,1.5,0,3.4-0.2c8-1,13-3.1,17.2-3.9c3.5-0.7,8.6-0.8,15.5,1.9c-7.1,8.7-14.1,17.3-21.2,26
					l21.7,12.3v15.8l15.1,13.8L95,171.8z"/>
			</g>
			<g>
				<path class="st1" d="M77.5,186.9l-36.8-17.7l-8.6-24.8l-15.7-14.5L3.4,102.1c-0.2-0.3-0.2-0.7-0.2-1.1l0.1-1.8
					c0-0.4,0.2-0.8,0.4-1.2c1.2-2.1,2.2-3.7,2.3-4l0.3-0.7L7,93.5c1,0.2,1.8,0.1,2.7,0.1c1.1-0.1,2.3-0.1,3.7,0.3
					c3.3,0.9,6.4,1.8,9.3,1.8c2.9,0,6-0.9,9.3-1.8c3.9-1.1,7.8-2.2,12.1-2.2c4.3,0,8.3,1.1,12.1,2.2c3.3,0.9,6.4,1.8,9.3,1.8
					c2.8,0,6-0.9,9.3-1.8c3.9-1.1,7.8-2.2,12.1-2.2c4.3,0,8.3,1.1,12.1,2.2c3.3,0.9,6.4,1.8,9.3,1.8c2.8,0,6-0.9,9.3-1.8
					c3.9-1.1,7.8-2.2,12.1-2.2c4.3,0,8.3,1.1,12.1,2.2c3.3,0.9,6.4,1.8,9.3,1.8c2.8,0,5.2-0.7,8.5-1.6l0.5-0.1l0.4,0.3l5.2,4.3
					l-5.7,31.6l-18.1,6l-13.9,17.3l-27.7,4.4l-4.5,14.5L77.5,186.9z M42.4,167.6l34.8,16.8l16.8-13.2l4.7-15.1l28.2-4.5l13.8-17.2
					l17.5-5.8l5.3-29.2l-3.8-3.2c-3.2,0.9-5.6,1.5-8.5,1.5c-3.1,0-6.4-0.9-9.9-1.9c-3.7-1-7.6-2.1-11.6-2.1c-4,0-7.8,1.1-11.6,2.1
					c-3.5,1-6.7,1.9-9.8,1.9c-3.1,0-6.4-0.9-9.8-1.9c-3.7-1-7.6-2.1-11.6-2.1c-4,0-7.8,1.1-11.6,2.1c-3.5,1-6.7,1.9-9.8,1.9
					c-3.1,0-6.4-0.9-9.8-1.9c-3.7-1-7.6-2.1-11.6-2.1c-4,0-7.8,1.1-11.6,2.1c-3.5,1-6.7,1.9-9.9,1.9c-3.1,0-6.4-0.9-9.8-1.9
					c-1.1-0.3-2-0.3-3.1-0.2c-0.7,0-1.5,0.1-2.4,0c-0.5,0.8-1.3,2.2-2,3.4c-0.1,0.1-0.1,0.2-0.1,0.3l-0.1,1.8l13,27.4L34,143.1
					L42.4,167.6z"/>
			</g>
		</g>
		<g>
			<path class="st0" d="M144.3,80.9c29.1,0,52.8,23.6,52.8,52.8s-23.6,52.8-52.8,52.8s-52.8-23.6-52.8-52.8S115.2,80.9,144.3,80.9
				 M144.3,75.8c-31.9,0-57.8,25.9-57.8,57.8s25.9,57.8,57.8,57.8c31.9,0,57.8-25.9,57.8-57.8S176.2,75.8,144.3,75.8L144.3,75.8z"/>
		</g>
	</g>
	<circle class="st6" cx="144.3" cy="133.6" r="53.5"/>
	<path class="st7" d="M139,154.3l-14.9-14.9c-3.1-3.1-3.1-8,0-11.1l14.9-14.9c3.1-3.1,8-3.1,11.1,0l14.9,14.9c3.1,3.1,3.1,8,0,11.1
		L150,154.3C147,157.4,142,157.4,139,154.3z"/>
</g>
</svg>
